<svg xmlns="http://www.w3.org/2000/svg" width="450" height="360" viewBox="0 0 450 360" xmlns:xlink="http://www.w3.org/1999/xlink" shape-rendering="geometricPrecision" text-rendering="geometricPrecision" image-rendering="optimizeQuality" fill-rule="evenodd" clip-rule="evenodd"><defs><style>.fil6{fill:#d8d9d9}.fil1,.fil5{fill:#c4c5c5}.fil3{fill:#9c9c9c}.fil7{fill:#888887}.fil4{fill:#5c5b5b}.fil8{fill:#6a6b6a}.fil11{fill:#b00006}.fil0{fill:#bd0006}.fil10{fill:#cc0007}.fil9{fill:#e91c23}.fil2{fill:#fff}</style><clipPath id="id0"><path d="M211 313v-1h133v1H211z"/></clipPath><clipPath id="id1"><path d="M265 174h18.9v.9H265z"/></clipPath><clipPath id="id2"><path d="M265 173h17.4v.9H265z"/></clipPath><clipPath id="id3"><path d="M266 172v-1h14v1h-14z"/></clipPath><clipPath id="id4"><path d="M266 172v-1h12v1h-12z"/></clipPath><clipPath id="id5"><path d="M267 171v-1h11v1h-11z"/></clipPath><clipPath id="id6"><path d="M267 170v-1h9v1h-9z"/></clipPath><clipPath id="id7"><path d="M268 169h6.9v.9H268z"/></clipPath><clipPath id="id8"><path d="M268 168h5.4v.9H268z"/></clipPath><clipPath id="id9"><path d="M268 167h3.9v.9H268z"/></clipPath></defs><g id="Слой_x0020_1"><path class="fil0" d="M106 15h250v342H106z"/><path class="fil1" d="M117 28h227v316H117z"/><path class="fil2" d="M133 47h196v277H133z"/><path class="fil3" d="M170 15h121.636v40.33H170z"/><path class="fil4" d="M258 12V2h-53v10h-30v5h113v-5z"/><path class="fil5" d="M195 75h122.296v16.605H195zM195 125h122.296v16.605H195zM195 225h122.296v16.605H195zM195 275h122.296v16.605H195z"/><path class="fil6" d="M161 79s4 7 7 13c3-8 5-9 10-17l1-1 7-6v1c-6 8-7 9-12 20-1 3-3 10-4 11l-7 6c-1 0-1 0-1-2-1-6-9-18-9-19l8-6zM161 129s4 7 7 13c3-8 5-9 10-17l1-1 7-6v1c-6 8-7 9-12 20-1 3-3 10-4 11l-7 6c-1 0-1 0-1-2-1-6-9-18-9-19l8-6zM161 179s4 7 7 13c3-8 5-9 10-17l1-1 7-6v1c-6 8-7 9-12 20-1 3-3 10-4 11l-7 6c-1 0-1 0-1-2-1-6-9-18-9-19l8-6zM161 229s4 7 7 13c3-8 5-9 10-17l1-1 7-6v1c-6 8-7 9-12 20-1 3-3 10-4 11l-7 6c-1 0-1 0-1-2-1-6-9-18-9-19l8-6zM161 279s4 7 7 13c3-8 5-9 10-17l1-1 7-6v1c-6 8-7 9-12 20-1 3-3 10-4 11l-7 6c-1 0-1 0-1-2-1-6-9-18-9-19l8-6z"/><g clip-path="url(#id0)"><image x="211" y="312" width="133.5" height=".9" xlink:href="1.svg_Images\1.svg_ImgID1.png"/></g><g clip-path="url(#id1)"><image x="265" y="174" width="18.9" height=".9" xlink:href="1.svg_Images\1.svg_ImgID2.png"/></g><g clip-path="url(#id2)"><image x="265" y="173" width="17.4" height=".9" xlink:href="1.svg_Images\1.svg_ImgID3.png"/></g><g clip-path="url(#id3)"><image x="266" y="172" width="13.8" height=".9" xlink:href="1.svg_Images\1.svg_ImgID4.png"/></g><g clip-path="url(#id4)"><image x="266" y="171" width="12.3" height=".9" xlink:href="1.svg_Images\1.svg_ImgID5.png"/></g><g clip-path="url(#id5)"><image x="267" y="170" width="10.8" height=".9" xlink:href="1.svg_Images\1.svg_ImgID6.png"/></g><g clip-path="url(#id6)"><image x="267" y="169" width="9.3" height=".9" xlink:href="1.svg_Images\1.svg_ImgID7.png"/></g><g clip-path="url(#id7)"><image x="268" y="169" width="6.9" height=".9" xlink:href="1.svg_Images\1.svg_ImgID8.png"/></g><g clip-path="url(#id8)"><image x="268" y="168" width="5.4" height=".9" xlink:href="1.svg_Images\1.svg_ImgID9.png"/></g><g clip-path="url(#id9)"><image x="268" y="167" width="3.9" height=".9" xlink:href="1.svg_Images\1.svg_ImgID10.png"/></g><path class="fil7" d="M235 201l26 15-21 37-10-1-2 5 5 7-2 5-10-1-3 5 6 7-2 3h-9l-3 5 5 7-1 3-22 6-5-20z"/><path class="fil8" d="M236 253l-6-1 7-11 4 2-5 10zm-8 4l3 4-4 8-6-1 7-11zm-10 16l4 4-4 6h-5l5-10zm-8 15l3 4-4 8-7 2 8-14zM195 303l-3 1-1-4 37-64 5 2zM190 296l-2-8 33-57 4 3z"/><path class="fil4" d="M236 253l-6-1 7-11v10l-1 2zm-8 4l-7 11 7-11zM220 249l8-13 5 2-13 23zM221 231l4 3-4 8z"/><path class="fil9" d="M272 169c19 11 25 36 14 54-11 19-36 26-55 14-19-11-25-36-14-55 12-19 36-25 55-13zm-6 12c3 2 4 6 2 9s-5 4-8 2-4-6-3-9c2-3 6-4 9-2z"/><path class="fil10" d="M268 176c15 9 20 28 11 43s-29 20-44 11-20-28-11-43c9-16 29-21 44-11zm-2 5c3 2 4 6 2 9s-5 4-8 2-4-6-3-9c2-3 6-4 9-2z"/><path class="fil11" d="M268 176c9 6 15 15 15 26-2-8-7-15-14-20-15-9-34-4-43 11-4 6-5 13-4 20-3-8-2-18 2-26 9-15 29-20 44-11z"/><path class="fil4" d="M322 120c5 5 8 12 8 20 2 11 0 25-6 38s-14 24-22 30c-6 5-12 8-18 8-8 1-13-3-14-4 0-2 1-3 3-4h6c6 1 12-1 18-6 8-6 15-15 20-27s7-24 6-34c-1-9-5-15-10-17-6-3-13-1-20 5s-15 15-20 27c-1 4-2 8-3 11l-4-1c1-4 2-8 4-12 11-26 34-41 52-34zm-58 60c0 6 1 11 2 15h2c0-2 0-3-1-5v-8c-1-1-2-1-3-2z"/></g></svg>