<?xml version="1.0" encoding="UTF-8"?>
<!DOCTYPE svg PUBLIC "-//W3C//DTD SVG 1.1//EN" "http://www.w3.org/Graphics/SVG/1.1/DTD/svg11.dtd">
<!-- Creator: CorelDRAW X7 -->
<svg xmlns="http://www.w3.org/2000/svg" xml:space="preserve" width="450px" height="360px" version="1.1" style="shape-rendering:geometricPrecision; text-rendering:geometricPrecision; image-rendering:optimizeQuality; fill-rule:evenodd; clip-rule:evenodd"
viewBox="0 0 450 360"
 xmlns:xlink="http://www.w3.org/1999/xlink">
 <defs>
  <style type="text/css">
   <![CDATA[
    .fil5 {fill:#D8D9D9}
    .fil1 {fill:#C4C5C5}
    .fil3 {fill:#9C9C9C}
    .fil6 {fill:#888887}
    .fil4 {fill:#5C5B5B}
    .fil7 {fill:#6A6B6A}
    .fil10 {fill:#B00006}
    .fil0 {fill:#BD0006}
    .fil9 {fill:#CC0007}
    .fil8 {fill:#E91C23}
    .fil2 {fill:white}
   ]]>
  </style>
   <clipPath id="id0">
    <path d="M183 310l0 -1 133 0 0 1 -133 0z"/>
   </clipPath>
   <clipPath id="id1">
    <path d="M232 179l0 -1 36 0 0 1 -36 0z"/>
   </clipPath>
   <clipPath id="id2">
    <path d="M236 173l0 -1 23 0 0 1 -23 0z"/>
   </clipPath>
   <clipPath id="id3">
    <path d="M236 173l0 -1 21 0 0 1 -21 0z"/>
   </clipPath>
   <clipPath id="id4">
    <rect x="237" y="171" width="18.9" height="0.9"/>
   </clipPath>
   <clipPath id="id5">
    <rect x="237" y="170" width="17.4" height="0.9"/>
   </clipPath>
   <clipPath id="id6">
    <rect x="237" y="169" width="15.9" height="0.9"/>
   </clipPath>
   <clipPath id="id7">
    <path d="M238 170l0 -1 14 0 0 1 -14 0z"/>
   </clipPath>
   <clipPath id="id8">
    <path d="M238 169l0 -1 12 0 0 1 -12 0z"/>
   </clipPath>
   <clipPath id="id9">
    <path d="M239 168l0 -1 11 0 0 1 -11 0z"/>
   </clipPath>
   <clipPath id="id10">
    <path d="M239 167l0 -1 9 0 0 1 -9 0z"/>
   </clipPath>
   <clipPath id="id11">
    <rect x="240" y="166" width="6.9" height="0.9"/>
   </clipPath>
   <clipPath id="id12">
    <rect x="240" y="165" width="5.4" height="0.9"/>
   </clipPath>
   <clipPath id="id13">
    <rect x="240" y="164" width="3.9" height="0.9"/>
   </clipPath>
 </defs>
 <g id="Слой_x0020_1">
  <metadata id="CorelCorpID_0Corel-Layer"/>
  <rect class="fil0" x="78" y="12" width="250" height="342"/>
  <rect class="fil1" x="89" y="25" width="227" height="316"/>
  <rect class="fil2" x="105" y="44" width="196" height="277"/>
  <rect class="fil3" x="142" y="12" width="121.636" height="40.3287"/>
  <polygon class="fil4" points="230,9 230,-1 177,-1 177,9 147,9 147,14 260,14 260,9 "/>
  <rect class="fil1" x="167" y="72" width="122.296" height="16.6051"/>
  <rect class="fil1" x="167" y="122" width="122.296" height="16.6051"/>
  <rect class="fil1" x="167" y="222" width="122.296" height="16.6051"/>
  <rect class="fil1" x="167" y="272" width="122.296" height="16.6051"/>
  <path class="fil5" d="M133 76c0,0 4,7 7,13 4,-8 5,-9 10,-17l1 -1 7 -6 0 1c-6,8 -7,9 -12,20 -1,3 -3,10 -4,11l-7 6c-1,0 -1,0 -1,-2 -1,-6 -9,-18 -9,-19l8 -6z"/>
  <path class="fil5" d="M133 126c0,0 4,7 7,13 4,-8 5,-9 10,-17l1 -1 7 -6 0 1c-6,8 -7,9 -12,20 -1,3 -3,10 -4,11l-7 6c-1,0 -1,0 -1,-2 -1,-6 -9,-18 -9,-19l8 -6z"/>
  <path class="fil5" d="M133 176c0,0 4,7 7,13 4,-8 5,-9 10,-17l1 -1 7 -6 0 1c-6,8 -7,9 -12,20 -1,3 -3,10 -4,11l-7 6c-1,0 -1,0 -1,-2 -1,-6 -9,-18 -9,-19l8 -6z"/>
  <path class="fil5" d="M133 226c0,0 4,7 7,13 4,-8 5,-9 10,-17l1 -1 7 -6 0 1c-6,8 -7,9 -12,20 -1,3 -3,10 -4,11l-7 6c-1,0 -1,0 -1,-2 -1,-6 -9,-18 -9,-19l8 -6z"/>
  <path class="fil5" d="M133 276c0,0 4,7 7,13 4,-8 5,-9 10,-17l1 -1 7 -6 0 1c-6,8 -7,9 -12,20 -1,3 -3,10 -4,11l-7 6c-1,0 -1,0 -1,-2 -1,-6 -9,-18 -9,-19l8 -6z"/>
  <g style="clip-path:url(#id0)">
   <image x="183" y="309" width="133.5" height="0.9" xlink:href="1.svg_Images\1.svg_ImgID1.png"/>
  </g>
  <g style="clip-path:url(#id1)">
   <image x="232" y="178" width="36.3" height="0.9" xlink:href="1.svg_Images\1.svg_ImgID2.png"/>
  </g>
  <g style="clip-path:url(#id2)">
   <image x="236" y="172" width="22.8" height="0.9" xlink:href="1.svg_Images\1.svg_ImgID3.png"/>
  </g>
  <g style="clip-path:url(#id3)">
   <image x="236" y="172" width="21.3" height="0.9" xlink:href="1.svg_Images\1.svg_ImgID4.png"/>
  </g>
  <g style="clip-path:url(#id4)">
   <image x="237" y="171" width="18.9" height="0.9" xlink:href="1.svg_Images\1.svg_ImgID5.png"/>
  </g>
  <g style="clip-path:url(#id5)">
   <image x="237" y="170" width="17.4" height="0.9" xlink:href="1.svg_Images\1.svg_ImgID6.png"/>
  </g>
  <g style="clip-path:url(#id6)">
   <image x="237" y="169" width="15.9" height="0.9" xlink:href="1.svg_Images\1.svg_ImgID7.png"/>
  </g>
  <g style="clip-path:url(#id7)">
   <image x="238" y="169" width="13.8" height="0.9" xlink:href="1.svg_Images\1.svg_ImgID8.png"/>
  </g>
  <g style="clip-path:url(#id8)">
   <image x="238" y="168" width="12.3" height="0.9" xlink:href="1.svg_Images\1.svg_ImgID9.png"/>
  </g>
  <g style="clip-path:url(#id9)">
   <image x="239" y="167" width="10.8" height="0.9" xlink:href="1.svg_Images\1.svg_ImgID10.png"/>
  </g>
  <g style="clip-path:url(#id10)">
   <image x="239" y="166" width="9.3" height="0.9" xlink:href="1.svg_Images\1.svg_ImgID11.png"/>
  </g>
  <g style="clip-path:url(#id11)">
   <image x="240" y="166" width="6.9" height="0.9" xlink:href="1.svg_Images\1.svg_ImgID12.png"/>
  </g>
  <g style="clip-path:url(#id12)">
   <image x="240" y="165" width="5.4" height="0.9" xlink:href="1.svg_Images\1.svg_ImgID13.png"/>
  </g>
  <g style="clip-path:url(#id13)">
   <image x="240" y="164" width="3.9" height="0.9" xlink:href="1.svg_Images\1.svg_ImgID14.png"/>
  </g>
  <polygon class="fil6" points="207,198 233,213 212,250 202,249 200,254 205,261 203,266 193,265 190,270 196,277 194,280 185,280 182,285 188,292 186,296 164,301 159,281 "/>
  <path class="fil7" d="M208 250l-6 -1 7 -11 4 2 -5 10zm-8 4l3 4 -4 8 -6 -1 7 -11zm-10 16l4 4 -4 6 -5 0 5 -10zm-8 15l3 4 -4 8 -7 2 8 -14z"/>
  <polygon class="fil7" points="167,300 164,301 163,298 200,233 205,235 "/>
  <polygon class="fil7" points="162,293 160,286 193,228 197,231 "/>
  <path class="fil4" d="M208 250l-6 -1 7 -11 0 0 0 10 -1 2zm-8 4l-7 11 7 -11z"/>
  <polygon class="fil4" points="192,246 200,233 205,235 192,258 "/>
  <polygon class="fil4" points="193,228 197,231 193,239 "/>
  <rect class="fil1" x="167" y="172" width="122.296" height="16.6051"/>
  <path class="fil8" d="M244 166c19,11 25,36 14,55 -11,19 -36,25 -55,13 -19,-11 -25,-36 -14,-55 12,-19 36,-25 55,-13zm-6 12c3,2 4,6 2,9 -2,3 -5,4 -8,2 -3,-2 -4,-6 -3,-9 2,-3 6,-4 9,-2z"/>
  <path class="fil9" d="M240 173c15,9 20,28 11,43 -9,15 -29,20 -44,11 -15,-9 -20,-28 -11,-43 9,-16 29,-20 44,-11zm-2 5c3,2 4,6 2,9 -2,3 -5,4 -8,2 -3,-2 -4,-6 -3,-9 2,-3 6,-4 9,-2z"/>
  <path class="fil10" d="M240 173c9,6 15,15 15,26 -2,-8 -7,-15 -14,-20 -15,-9 -34,-4 -43,11 -4,6 -5,13 -4,20 -3,-8 -2,-18 3,-26 8,-15 28,-20 43,-11z"/>
 </g>
</svg>
