<?xml version="1.0" encoding="UTF-8"?>
<!DOCTYPE svg PUBLIC "-//W3C//DTD SVG 1.1//EN" "http://www.w3.org/Graphics/SVG/1.1/DTD/svg11.dtd">
<!-- Creator: CorelDRAW X7 -->
<svg xmlns="http://www.w3.org/2000/svg" xml:space="preserve" width="450px" height="360px" version="1.1" style="shape-rendering:geometricPrecision; text-rendering:geometricPrecision; image-rendering:optimizeQuality; fill-rule:evenodd; clip-rule:evenodd"
viewBox="0 0 450 360"
 xmlns:xlink="http://www.w3.org/1999/xlink">
 <defs>
  <style type="text/css">
   <![CDATA[
    .str0 {stroke:#232125;stroke-width:2.08346}
    .fil9 {fill:#FEFEFE}
    .fil5 {fill:#BEBFBF}
    .fil10 {fill:#777776}
    .fil8 {fill:#79969C}
    .fil11 {fill:#5D5D5D}
    .fil6 {fill:#444443}
    .fil7 {fill:#5F838B}
    .fil2 {fill:#232125}
    .fil14 {fill:#009933}
    .fil13 {fill:#009933}
    .fil3 {fill:#990000}
    .fil4 {fill:#B30404}
    .fil1 {fill:#444444;fill-rule:nonzero}
    .fil0 {fill:#8F8F8F;fill-rule:nonzero}
    .fil12 {fill:#B30404;fill-rule:nonzero}
   ]]>
  </style>
 </defs>
 <g id="Слой_x0020_1">
  <metadata id="CorelCorpID_0Corel-Layer"/>
  <polygon class="fil0" points="388,123 311,123 311,20 388,20 "/>
  <polygon class="fil1" points="230,0 454,121 449,132 230,26 230,26 11,132 6,121 230,0 "/>
  <polygon class="fil2" points="230,14 449,132 230,132 230,22 229,132 11,132 230,14 "/>
  <polygon class="fil3" points="230,23 433,132 433,349 230,349 "/>
  <path class="fil4" d="M230 72l90 0 68 36 -158 -2 0 -34zm203 192l0 0 0 33 -203 0 0 -33 203 0zm0 -48l0 0 0 33 -203 0 0 -33 203 0zm0 -48l0 0 0 33 -203 0 0 -33 203 0zm-203 -48l0 0 179 0 24 12 0 21 -203 0 0 -33z"/>
  <polygon class="fil5" points="433,324 433,349 270,349 270,324 "/>
  <polygon class="fil3" points="230,23 27,132 27,349 230,349 "/>
  <path class="fil4" d="M230 72l-91 0 -68 36 159 -2 0 -34zm-203 192l0 0 0 33 203 0 0 -33 -203 0zm0 -48l0 0 0 33 203 0 0 -33 -203 0zm0 -49l0 0 0 33 203 0 0 -33 -203 0zm203 -48l0 0 -180 0 -23 13 0 20 203 0 0 -33z"/>
  <polygon class="fil5" points="230,23 181,49 182,326 230,326 230,326 278,326 278,49 230,23 "/>
  <polygon class="fil6" points="149,66 71,108 71,327 149,327 "/>
  <polygon class="fil7" points="145,191 75,191 75,121 145,121 "/>
  <polygon class="fil8" points="145,230 75,230 75,300 145,300 "/>
  <polygon class="fil8" points="145,159 145,191 86,191 "/>
  <polygon class="fil8" points="75,255 75,300 145,300 145,288 "/>
  <polygon class="fil9" points="228,188 173,218 173,228 230,228 230,228 287,228 287,218 231,188 230,187 "/>
  <polygon class="fil5" points="27,324 27,349 189,349 189,324 "/>
  <polygon class="fil6" points="231,197 230,196 228,196 173,228 230,228 230,228 287,228 "/>
  <polygon class="fil10" points="230,349 189,349 189,219 228,196 230,196 231,197 270,219 270,349 230,349 "/>
  <polygon class="fil6" points="198,232 198,349 230,349 230,349 261,349 261,232 230,232 "/>
  <polygon class="fil11" points="189,219 189,231 234,206 270,226 270,219 230,196 "/>
  <g id="_1169327712">
   <polygon class="fil0" points="230,101 251,101 251,134 230,134 230,134 209,134 209,101 230,101 "/>
   <polygon class="fil0" points="230,150 251,150 251,183 230,183 230,182 209,182 209,149 230,149 "/>
  </g>
  <polygon class="fil6" points="310,66 388,108 388,327 310,327 "/>
  <polygon class="fil7" points="314,121 385,121 385,191 314,191 "/>
  <polygon class="fil8" points="314,230 385,230 385,300 314,300 "/>
  <polygon class="fil8" points="314,146 314,191 385,191 385,181 "/>
  <polygon class="fil8" points="385,255 385,300 314,300 314,288 "/>
  <polygon class="fil12" points="311,20 388,20 388,33 311,33 "/>
  <g id="_1169322784">
   <rect class="fil13" x="27" y="349" width="406.325" height="8.35903"/>
   <circle class="fil13 str0" cx="204" cy="285" r="2"/>
  </g>
  <rect class="fil14" y="350" width="451.478" height="9.00945"/>
 </g>
</svg>
