<svg xmlns="http://www.w3.org/2000/svg" width="450" height="360" viewBox="0 0 450 360" shape-rendering="geometricPrecision" text-rendering="geometricPrecision" image-rendering="optimizeQuality" fill-rule="evenodd" clip-rule="evenodd"><defs><style>.str0{stroke:#2e2e2d;stroke-width:2.08346}.fil9{fill:#fefefe}.fil5,.fil14{fill:#c4c5c5}.fil10{fill:#888887}.fil11{fill:#717171}.fil6{fill:#5c5b5b}.fil4{fill:#b8272a}.fil3{fill:#ab2b2c}.fil8{fill:#89a2a7}.fil7{fill:#729299}.fil13{fill:#32964d}.fil2{fill:#21211d}.fil0{fill:#9c9c9c;fill-rule:nonzero}.fil1{fill:#444}.fil1,.fil12{fill-rule:nonzero}.fil12{fill:#ab2b2c}</style></defs><g id="Слой_x0020_1"><path class="fil0" d="M388 127h-77V25h77z"/><path class="fil1" d="M230 4l224 121-5 12L230 30 11 137l-5-12L230 4z"/><path class="fil2" d="M230 18l219 119H230V27v110H11L230 18z"/><path class="fil3" d="M230 27l203 110v216H230z"/><path class="fil4" d="M230 76h90l68 37-158-2V76zm203 192v33H230v-33h203zm0-48v33H230v-33h203zm0-48v33H230v-33h203zm-203-48h179l24 13v20H230v-33z"/><path class="fil5" d="M433 328v25H270v-25z"/><path class="fil3" d="M230 27L27 137v216h203z"/><path class="fil4" d="M230 76h-91l-68 37 159-2V76zM27 268v33h203v-33H27zm0-48v33h203v-33H27zm0-48v33h203v-33H27zm203-48H50l-23 13v20h203v-33z"/><path class="fil5" d="M230 27l-49 26 1 277h96V53l-48-26z"/><path class="fil6" d="M149 70l-78 43v218h78z"/><path class="fil7" d="M145 195H75v-70h70z"/><path class="fil8" d="M145 234H75v70h70zM145 163v32H86z"/><path class="fil8" d="M75 259v45h70v-12z"/><path class="fil9" d="M229 192l-56 30v10h114v-10l-56-30-1-1z"/><path class="fil5" d="M27 328v25h162v-25z"/><path class="fil6" d="M231 201l-1-1-1 1-56 31h114z"/><path class="fil10" d="M230 353h-41V223l39-22 2-1 1 1 39 22v130h-40z"/><path class="fil6" d="M198 236v117h63V236h-31z"/><path class="fil11" d="M189 223v12l45-24 36 19v-7l-40-23z"/><g id="_848383776"><path class="fil0" d="M230 76h21v33h-42V76h21zM230 124h21v33h-42v-33h21z"/></g><path class="fil6" d="M311 70l77 43v215h-78z"/><path class="fil7" d="M314 125h71v70h-71z"/><path class="fil8" d="M314 234h71v70h-71zM314 150v45h71v-10z"/><path class="fil8" d="M385 259v45h-71v-12z"/><path class="fil12" d="M311 25h77v12h-77z"/><g id="_848378528"><path class="fil13" d="M27 353h406.326v8.36H27z"/><circle class="fil14 str0" cx="204" cy="289" r="2"/></g></g></svg>