<svg xmlns="http://www.w3.org/2000/svg" width="450" height="360" viewBox="0 0 450 360" xmlns:xlink="http://www.w3.org/1999/xlink" shape-rendering="geometricPrecision" text-rendering="geometricPrecision" image-rendering="optimizeQuality" fill-rule="evenodd" clip-rule="evenodd"><defs><style>.str1{stroke:#4d4d4d;stroke-width:4.99961}.str0{stroke:#000;stroke-width:2.3622}.fil12{fill:none}.fil0{fill:#fefefe}.fil1,.fil17{fill:#c4c5c5}.fil2{fill:#5c5b5b}.fil4,.fil11{fill:#000}.fil14,.fil3{fill:#1a1a1a}.fil10{fill:#333}.fil15{fill:#606}.fil5,.fil9{fill:#666}.fil8{fill:#900}.fil7,.fil16{fill:red}.fil6,.fil13{fill:#fff}</style><clipPath id="id0"><path d="M294 183h3.9v.9H294z"/></clipPath><clipPath id="id1"><path d="M295 182h3.9v.9H295z"/></clipPath><clipPath id="id2"><path d="M296 182v-1h3v1h-3z"/></clipPath><clipPath id="id3"><path d="M296 181h3.9v.9H296z"/></clipPath><clipPath id="id4"><path d="M297 180h3.9v.9H297z"/></clipPath><clipPath id="id5"><path d="M297 179h3.9v.9H297z"/></clipPath><clipPath id="id6"><path d="M298 179v-1h3v1h-3z"/></clipPath><clipPath id="id7"><path d="M298 178h3.9v.9H298z"/></clipPath><clipPath id="id8"><path d="M185 186v-1h4v1h-4z"/></clipPath><clipPath id="id9"><path d="M299 177h3.9v.9H299z"/></clipPath><clipPath id="id10"><path d="M300 177v-1h3v1h-3z"/></clipPath><clipPath id="id11"><path d="M300 175h2.4v.9H300z"/></clipPath><clipPath id="id12"><path d="M185 183v-1h3v1h-3z"/></clipPath><clipPath id="id13"><path d="M300 176v-1h2v1h-2z"/></clipPath><clipPath id="id14"><path d="M300 174h.9v.9h-.9z"/></clipPath><clipPath id="id15"><path d="M300 174v-2h1v2h-1z"/></clipPath><clipPath id="id16"><path d="M299 172h.9v.9h-.9z"/></clipPath><clipPath id="id17"><path d="M289 190v-1h-5v1h5z"/></clipPath><clipPath id="id18"><path d="M289 189v-2h-4v2h4z"/></clipPath><clipPath id="id19"><path d="M289 187v-1h-3v1h3z"/></clipPath></defs><g id="Слой_x0020_1"><path class="fil0" d="M324 213l-35-43-15 1-2 4c7 7 12 18 12 29v3h8l33 46 33-46 38-1-33-38-39 45z"/><path class="fil1" d="M237 8c41 0 75 34 75 75s-34 75-75 75-74-34-74-75 33-75 74-75z"/><path class="fil2" d="M237 8c34 0 62 23 72 53 1 15-77-7-96-36-4 5-39 33-47 35 10-30 38-52 71-52z"/><g clip-path="url(#id0)"><image x="294" y="183" width="3.9" height=".9" xlink:href="2.svg_Images\2.svg_ImgID1.png"/></g><g clip-path="url(#id1)"><image x="295" y="182" width="3.9" height=".9" xlink:href="2.svg_Images\2.svg_ImgID2.png"/></g><g clip-path="url(#id2)"><image x="296" y="181" width="3.3" height=".9" xlink:href="2.svg_Images\2.svg_ImgID3.png"/></g><g clip-path="url(#id3)"><image x="296" y="181" width="3.9" height=".9" xlink:href="2.svg_Images\2.svg_ImgID4.png"/></g><g clip-path="url(#id4)"><image x="297" y="180" width="3.9" height=".9" xlink:href="2.svg_Images\2.svg_ImgID5.png"/></g><g clip-path="url(#id5)"><image x="297" y="179" width="3.9" height=".9" xlink:href="2.svg_Images\2.svg_ImgID6.png"/></g><g clip-path="url(#id6)"><image x="298" y="178" width="3.3" height=".9" xlink:href="2.svg_Images\2.svg_ImgID7.png"/></g><g clip-path="url(#id7)"><image x="298" y="178" width="3.9" height=".9" xlink:href="2.svg_Images\2.svg_ImgID8.png"/></g><g clip-path="url(#id8)"><image x="185" y="185" width="3.9" height=".9" xlink:href="2.svg_Images\2.svg_ImgID9.png"/></g><g clip-path="url(#id9)"><image x="299" y="177" width="3.9" height=".9" xlink:href="2.svg_Images\2.svg_ImgID10.png"/></g><g clip-path="url(#id10)"><image x="300" y="176" width="3.3" height=".9" xlink:href="2.svg_Images\2.svg_ImgID11.png"/></g><g clip-path="url(#id11)"><image x="300" y="175" width="2.4" height=".9" xlink:href="2.svg_Images\2.svg_ImgID12.png"/></g><g clip-path="url(#id12)"><image x="185" y="182" width="2.4" height=".9" xlink:href="2.svg_Images\2.svg_ImgID13.png"/></g><g clip-path="url(#id13)"><image x="300" y="175" width="1.8" height=".9" xlink:href="2.svg_Images\2.svg_ImgID14.png"/></g><g clip-path="url(#id14)"><image x="300" y="174" width=".9" height=".9" xlink:href="2.svg_Images\2.svg_ImgID15.png"/></g><g clip-path="url(#id15)"><image x="300" y="172" width=".9" height="1.8" xlink:href="2.svg_Images\2.svg_ImgID16.png"/></g><g clip-path="url(#id16)"><image x="299" y="172" width=".9" height=".9" xlink:href="2.svg_Images\2.svg_ImgID17.png"/></g><path class="fil3" d="M149 172l23 1 65 156 62-156h1l24-1c16 0 29 14 29 30v158H120V202c0-16 13-30 29-30z"/><circle class="fil4 str0" cx="236" cy="282" r="2"/><path class="fil5" d="M300 281h38v5h-38z"/><path class="fil6" d="M329 269l-9-10-20 22h37z"/><path class="fil7" d="M236 180l-40-16 4 41 33-18z"/><path class="fil7" d="M232 180l40-14-2 40-40-21z"/><path class="fil8" d="M229 175h11.254v15.605H229z"/><path class="fil9" d="M390 203h6v154.637h-6z"/><path class="fil10" d="M388 177l50 38-6 10-54-34z"/><ellipse class="fil11 str0" cx="371" cy="175" rx="17" ry="18"/><path class="fil3" d="M399.11 183.14l7.73 4.713-11.42 18.726-7.73-4.715z"/><path class="fil12 str0" d="M435 220c4-1 7 13 10 19s-19 41-16 65c1 5-5 55 0 56"/><path class="fil10" d="M387 291h13v34.355h-13z"/><path class="fil13 str1" d="M138 201l36-48 41 125-12-10z"/><path class="fil13 str1" d="M162 245l30-30 38 105-13-14z"/><g clip-path="url(#id17)"><image transform="matrix(-1.0744 0 0 1 288.52 188.59)" width="3.9" height=".9" xlink:href="2.svg_Images\2.svg_ImgID18.png"/></g><g clip-path="url(#id18)"><image transform="matrix(-1.0744 0 0 1 288.68 186.94)" width="3.3" height="1.8" xlink:href="2.svg_Images\2.svg_ImgID19.png"/></g><g clip-path="url(#id19)"><image transform="matrix(-1.0744 0 0 1 288.52 186.34)" width="2.4" height=".9" xlink:href="2.svg_Images\2.svg_ImgID20.png"/></g><circle class="fil4 str0" cx="234" cy="226" r="2"/><rect class="fil8" x="229" y="175" width="12.091" height="9.776" rx="1" ry="1"/><path class="fil13 str1" d="M337 198l-37-42-42 124 12-12z"/><path class="fil13 str1" d="M313 249l-33-34-37 106 10-9z"/><path class="fil14" d="M128 182l12 80-62 43-31-31z"/><path class="fil15" d="M0 240h83l25 120-84-1z"/><path class="fil16" d="M69 296l-8 8 5 11-10-6-8 8 1-12-10-6 11-1 2-12 5 11z"/><rect class="fil17" x="6" y="313" width="23" height="33" rx="9" ry="9"/></g></svg>