<?xml version="1.0" encoding="UTF-8"?>
<!DOCTYPE svg PUBLIC "-//W3C//DTD SVG 1.1//EN" "http://www.w3.org/Graphics/SVG/1.1/DTD/svg11.dtd">
<!-- Creator: CorelDRAW X7 -->
<svg xmlns="http://www.w3.org/2000/svg" xml:space="preserve" width="118.533mm" height="94.8266mm" version="1.1" style="shape-rendering:geometricPrecision; text-rendering:geometricPrecision; image-rendering:optimizeQuality; fill-rule:evenodd; clip-rule:evenodd"
viewBox="0 0 11853 9483"
 xmlns:xlink="http://www.w3.org/1999/xlink">
 <defs>
  <style type="text/css">
   <![CDATA[
    .str0 {stroke:black;stroke-width:62.5}
    .str1 {stroke:#4D4D4D;stroke-width:132.28}
    .fil10 {fill:none}
    .fil1 {fill:#FCD5A6}
    .fil4 {fill:black}
    .fil3 {fill:#1A1A1A}
    .fil9 {fill:#333333}
    .fil2 {fill:#5C5B5B}
    .fil11 {fill:#660066}
    .fil5 {fill:#666666}
    .fil8 {fill:#990000}
    .fil0 {fill:#FEFEFE}
    .fil7 {fill:red}
    .fil6 {fill:white}
   ]]>
  </style>
 </defs>
 <g id="Слой_x0020_1">
  <metadata id="CorelCorpID_0Corel-Layer"/>
  <path class="fil0" d="M8546 5530l-926 -1138 -397 27 -53 105c185,186 318,477 318,768l0 79 211 0 874 1217 873 -1217 1005 -26 -873 -1006 -1032 1191z"/>
  <path class="fil1" d="M6244 106c1085,0 1985,899 1985,1984 0,1085 -900,1985 -1985,1985 -1085,0 -1958,-900 -1958,-1985 0,-1085 873,-1984 1958,-1984z"/>
  <path class="fil2" d="M6244 106c900,0 1641,608 1905,1402 27,397 -2037,-185 -2540,-952 -106,132 -1032,873 -1243,926 264,-794 1005,-1376 1878,-1376z"/>
  <path class="fil3" d="M3916 4445l608 26 1720 4128 1641 -4128 26 0 635 -26c423,0 767,370 767,794l0 4180 -6164 0 0 -4180c0,-424 343,-794 767,-794l0 0z"/>
  <path class="fil4 str0" d="M6271 7355c0,-29 -24,-52 -53,-52 -30,0 -53,23 -53,52 0,30 23,53 53,53 29,0 53,-23 53,-53z"/>
  <polygon class="fil5" points="7911,7329 8916,7329 8916,7461 7911,7461 "/>
  <polygon class="fil6" points="8678,7011 8440,6747 7911,7329 8890,7329 "/>
  <polygon class="fil7" points="6218,4657 5159,4233 5265,5318 6138,4842 "/>
  <polygon class="fil7" points="6112,4657 7170,4286 7117,5345 6059,4789 "/>
  <polygon class="fil8" points="6032,4524 6330,4524 6330,4937 6032,4937 "/>
  <polygon class="fil5" points="10292,5265 10451,5265 10451,9357 10292,9357 "/>
  <polygon class="fil9" points="10239,4577 11562,5583 11404,5847 9975,4948 "/>
  <path class="fil4 str0" d="M10239 4524c0,-263 -201,-476 -449,-476 -249,0 -450,213 -450,476 0,263 201,477 450,477 248,0 449,-214 449,-477z"/>
  <polygon class="fil3" points="10533,4740 10738,4864 10436,5360 10231,5235 "/>
  <path class="fil10 str0" d="M11483 5715c106,-26 185,344 264,503 80,158 -502,1084 -423,1719 27,133 -132,1456 0,1482"/>
  <polygon class="fil9" points="10213,7594 10557,7594 10557,8503 10213,8503 "/>
  <polygon class="fil6 str1" points="3625,5212 4577,3942 5662,7250 5345,6985 "/>
  <polygon class="fil6 str1" points="4260,6376 5054,5583 6059,8361 5715,7990 "/>
  <path class="fil4 str0" d="M6218 5874c0,-29 -24,-53 -53,-53 -29,0 -53,24 -53,53 0,29 24,53 53,53 29,0 53,-24 53,-53z"/>
  <path class="fil8" d="M6059 4524l267 0c15,0 26,12 26,27l0 206c0,14 -11,26 -26,26l-267 0c-15,0 -27,-12 -27,-26l0 -206c0,-15 12,-27 27,-27z"/>
  <polygon class="fil6 str1" points="8890,5133 7911,4022 6800,7302 7117,6985 "/>
  <polygon class="fil6 str1" points="8255,6482 7382,5583 6403,8387 6667,8149 "/>
  <polygon class="fil3" points="3360,4710 3678,6826 2037,7964 1217,7144 "/>
  <polygon class="fil11" points="-26,6244 2170,6244 2831,9419 609,9393 "/>
  <polygon class="fil7" points="1799,7726 1587,7938 1720,8229 1455,8070 1244,8281 1270,7964 1005,7805 1296,7779 1349,7461 1482,7752 "/>
  <path class="fil1" d="M370 8176l133 0c131,0 238,106 238,238l0 397c0,131 -107,238 -238,238l-133 0c-131,0 -238,-107 -238,-238l0 -397c0,-132 107,-238 238,-238z"/>
 </g>
</svg>
