<?xml version="1.0" encoding="UTF-8"?>
<!DOCTYPE svg PUBLIC "-//W3C//DTD SVG 1.1//EN" "http://www.w3.org/Graphics/SVG/1.1/DTD/svg11.dtd">
<!-- Creator: CorelDRAW X7 -->
<svg xmlns="http://www.w3.org/2000/svg" xml:space="preserve" width="118.533mm" height="94.8266mm" version="1.1" style="shape-rendering:geometricPrecision; text-rendering:geometricPrecision; image-rendering:optimizeQuality; fill-rule:evenodd; clip-rule:evenodd"
viewBox="0 0 11853 9483"
 xmlns:xlink="http://www.w3.org/1999/xlink">
 <defs>
  <style type="text/css">
   <![CDATA[
    .str1 {stroke:#4D4D4D;stroke-width:105.81}
    .str4 {stroke:#C75204;stroke-width:105.81}
    .str2 {stroke:#E35D04;stroke-width:105.81}
    .str5 {stroke:#BD4D02;stroke-width:105.84}
    .str6 {stroke:black;stroke-width:62.5}
    .str3 {stroke:#333333;stroke-width:62.5}
    .str7 {stroke:white;stroke-width:62.5}
    .str0 {stroke:black;stroke-width:132.28}
    .fil1 {fill:none}
    .fil6 {fill:#FCD5A6}
    .fil2 {fill:black}
    .fil3 {fill:#1A1A1A}
    .fil4 {fill:#333333}
    .fil5 {fill:#4D4D4D}
    .fil10 {fill:#666666}
    .fil0 {fill:#990000}
    .fil7 {fill:#BD0006}
    .fil8 {fill:#CC0007}
    .fil9 {fill:#CCCCCC}
    .fil11 {fill:#CCFFCC}
   ]]>
  </style>
 </defs>
 <g id="Слой_x0020_1">
  <metadata id="CorelCorpID_0Corel-Layer"/>
  <polygon class="fil0" points="980,7638 10770,7638 11775,9543 -131,9543 "/>
  <ellipse class="fil1 str0" cx="5716" cy="1738" rx="1667" ry="1376"/>
  <polygon class="fil2 str1" points="9235,45 11730,45 11730,5739 9235,5739 "/>
  <circle class="fil3 str2" cx="10505" cy="4331" r="952"/>
  <circle class="fil4 str3" cx="10505" cy="4331" r="370"/>
  <circle class="fil3 str4" cx="10505" cy="2188" r="952"/>
  <circle class="fil4 str3" cx="10532" cy="2188" r="370"/>
  <polygon class="fil3 str5" points="9526,283 11479,283 11479,1039 9526,1039 "/>
  <ellipse class="fil4 str6" cx="10505" cy="680" rx="238" ry="212"/>
  <polygon class="fil4" points="9262,-8 8336,653 8336,5363 9209,5812 "/>
  <polygon class="fil5" points="9235,5521 11730,5521 11730,5751 9235,5751 "/>
  <polygon class="fil2 str1" points="54,71 2498,71 2498,5652 54,5652 "/>
  <circle class="fil3 str2" cx="1271" cy="4278" r="926"/>
  <circle class="fil4 str3" cx="1245" cy="4251" r="370"/>
  <circle class="fil3 str4" cx="1271" cy="2161" r="926"/>
  <circle class="fil4 str3" cx="1245" cy="2161" r="370"/>
  <polygon class="fil3 str5" points="319,283 2232,283 2232,1023 319,1023 "/>
  <ellipse class="fil4 str6" cx="1271" cy="680" rx="212" ry="185"/>
  <polygon class="fil4" points="2515,-8 3388,653 3388,5283 2515,5680 "/>
  <polygon class="fil5" points="81,5416 2524,5416 2524,5641 81,5641 "/>
  <path class="fil6" d="M5663 441c847,0 1535,688 1535,1535 0,820 -688,1508 -1535,1508 -846,0 -1508,-688 -1508,-1508 0,-847 662,-1535 1508,-1535z"/>
  <polygon class="fil2" points="5901,3484 5557,3484 5399,3193 6060,3193 "/>
  <path class="fil4" d="M5716 441c953,-26 1641,1006 1535,1667 0,80 -27,768 -27,662 -26,-424 -1772,-1641 -1984,-1985 -106,106 -847,635 -1005,688 211,-635 793,-1032 1481,-1032l0 0z"/>
  <polygon class="fil0" points="4340,3855 4817,3855 4817,4251 5557,4040 5875,4040 6616,4251 6616,3855 7119,3855 7251,5998 4340,5839 "/>
  <path class="fil7" d="M3970 3855l476 0 1297 1719 1296 -1719 476 0c344,-27 609,264 609,582l0 3095 -4736 0 0 -3095c0,-318 264,-609 582,-582z"/>
  <path class="fil8" d="M8150 7003l0 1191 -4736 0 0 -1191 4736 0zm-26 -1402l0 1111 -4736 0 0 -1111 4736 0zm-3519 -1561l820 1111 -2037 0 0 -714c0,-159 53,-291 132,-397l1085 0zm1455 1111l847 -1111 1058 0c106,106 159,238 159,397l0 714 -2064 0z"/>
  <polygon class="fil5" points="5849,7426 1377,7426 81,9517 5557,9517 "/>
  <ellipse class="fil2 str6" cx="2647" cy="8379" rx="2037" ry="979"/>
  <ellipse class="fil0 str6" cx="2647" cy="8247" rx="794" ry="423"/>
  <circle class="fil2 str6" cx="2647" cy="8194" r="53"/>
  <polygon class="fil9" points="5161,7559 5694,7559 5694,8065 5161,8065 "/>
  <polygon class="fil9" points="5531,7559 3414,7559 3414,7691 5531,7691 "/>
  <ellipse class="fil10 str6" cx="5346" cy="8352" rx="185" ry="106"/>
  <ellipse class="fil10 str6" cx="5214" cy="8749" rx="212" ry="106"/>
  <ellipse class="fil10 str6" cx="5028" cy="9199" rx="291" ry="132"/>
  <polygon class="fil1 str6" points="3176,7506 3470,7506 3470,7772 3176,7772 "/>
  <polygon class="fil5 str6" points="2991,7479 3560,7479 3560,7641 2991,7641 "/>
  <polygon class="fil1" points="5319,7426 11657,7426 11657,9647 5319,9647 "/>
  <polygon class="fil5" points="6087,7532 10267,7426 11458,9517 5928,9490 "/>
  <ellipse class="fil2 str6" cx="9103" cy="8379" rx="1879" ry="979"/>
  <ellipse class="fil0 str6" cx="9076" cy="8247" rx="741" ry="423"/>
  <circle class="fil2 str6" cx="9076" cy="8194" r="53"/>
  <polygon class="fil9" points="6272,7559 6765,7559 6765,8065 6272,8065 "/>
  <polygon class="fil9" points="6431,7559 8389,7559 8389,7691 6431,7691 "/>
  <ellipse class="fil10 str6" cx="6589" cy="8352" rx="159" ry="106"/>
  <ellipse class="fil10 str6" cx="6722" cy="8749" rx="185" ry="106"/>
  <ellipse class="fil10 str6" cx="6880" cy="9199" rx="265" ry="132"/>
  <polygon class="fil1 str6" points="8309,7506 8581,7506 8581,7772 8309,7772 "/>
  <polygon class="fil5 str6" points="8230,7479 8756,7479 8756,7641 8230,7641 "/>
  <polygon class="fil4" points="3785,1447 4070,1447 4070,2503 3785,2503 "/>
  <polygon class="fil0" points="3838,1447 3893,1447 3893,2503 3838,2503 "/>
  <polygon class="fil2 str6" points="4049,1420 4226,1420 4226,2524 4049,2524 "/>
  <polygon class="fil4" points="7383,1447 7676,1447 7676,2503 7383,2503 "/>
  <polygon class="fil0" points="7568,1447 7625,1447 7625,2503 7568,2503 "/>
  <polygon class="fil2 str6" points="7198,1420 7380,1420 7380,2524 7198,2524 "/>
  <ellipse class="fil11 str7" cx="9950" cy="1950"/>
  <ellipse class="fil11 str7" cx="9950" cy="2399"/>
  <ellipse class="fil11 str7" cx="9923" cy="4542"/>
  <ellipse class="fil11 str7" cx="9923" cy="4040"/>
  <ellipse class="fil11 str7" cx="1774" cy="4040"/>
  <ellipse class="fil11 str7" cx="1774" cy="4384"/>
  <ellipse class="fil11 str7" cx="1721" cy="1923"/>
  <ellipse class="fil11 str7" cx="1721" cy="2320"/>
 </g>
</svg>
