<svg xmlns="http://www.w3.org/2000/svg" width="450" height="360" viewBox="0 0 450 360" shape-rendering="geometricPrecision" text-rendering="geometricPrecision" image-rendering="optimizeQuality" fill-rule="evenodd" clip-rule="evenodd"><defs><style>.str1{stroke:#4d4d4d;stroke-width:3.99921}.str4{stroke:#c75204}.str4,.str2{stroke-width:3.99921}.str2{stroke:#e35d04}.str5{stroke:#bd4d02;stroke-width:4.00039}.str0{stroke:#000;stroke-width:4.99961}.str6{stroke:#000;stroke-width:2.3622}.str3{stroke:#333}.str3,.str7{stroke-width:2.3622}.str7{stroke:#fff}.fil1{fill:none}.fil6{fill:#c4c5c5}.fil9,.fil2{fill:#000}.fil3{fill:#1a1a1a}.fil4{fill:#333}.fil5{fill:#4d4d4d}.fil11{fill:#666}.fil0{fill:#900}.fil7{fill:#bd0006}.fil8{fill:#cc0007}.fil10{fill:#CCC}.fil12{fill:#CFC}</style></defs><g id="Слой_x0020_1"><path class="fil0" d="M40 288h370l38 72H-2z"/><ellipse class="fil1 str0" cx="219" cy="65" rx="63" ry="52"/><path class="fil2 str1" d="M352 1h94.282v215.23H352z"/><circle class="fil3 str2" cx="400" cy="163" r="36"/><circle class="fil4 str3" cx="400" cy="163" r="14"/><circle class="fil3 str4" cx="400" cy="82" r="36"/><circle class="fil4 str3" cx="401" cy="82" r="14"/><path class="fil3 str5" d="M363 10h73.807v28.57H363z"/><ellipse class="fil4 str6" cx="400" cy="25" rx="9" ry="8"/><path class="fil4" d="M353-1l-35 25v178l33 17z"/><path class="fil5" d="M352 208h94.282v8.68H352z"/><path class="fil2 str1" d="M5 2h92.366v210.933H5z"/><circle class="fil3 str2" cx="51" cy="161" r="35"/><circle class="fil4 str3" cx="50" cy="160" r="14"/><circle class="fil3 str4" cx="51" cy="81" r="35"/><circle class="fil4 str3" cx="50" cy="81" r="14"/><path class="fil3 str5" d="M15 10h72.307v28H15z"/><ellipse class="fil4 str6" cx="51" cy="25" rx="8" ry="7"/><path class="fil4" d="M98-1l33 25v175l-33 15z"/><path class="fil5" d="M6 204h92.366v8.506H6z"/><path class="fil6" d="M217 16c32 0 58 26 58 58 0 31-26 57-58 57s-57-26-57-57c0-32 25-58 57-58z"/><path class="fil2" d="M226 131h-13l-6-11h25l-6 11z"/><path class="fil4" d="M219 16c36-1 62 38 58 63 0 3-1 29-1 25-1-16-67-62-75-75-4 4-32 24-38 26 8-24 30-39 56-39z"/><path class="fil0" d="M167 145h18v15l28-8h12l28 8v-15h19l5 81-110-6z"/><path class="fil7" d="M153 145h18l49 65 49-65h18c13-1 23 10 23 22v117H131V167c0-12 10-23 22-22z"/><path class="fil8" d="M311 264v45H132v-45zM310 211v42H131v-42zM177 152l31 42h-77v-27c0-6 2-11 5-15h41zm55 42l32-42h40c4 4 6 9 6 15v27h-78z"/><path class="fil5" d="M224 280H55L6 359h207z"/><ellipse class="fil2 str6" cx="103" cy="316" rx="77" ry="37"/><ellipse class="fil0 str6" cx="103" cy="311" rx="30" ry="16"/><circle class="fil9 str6" cx="103" cy="309" r="2"/><path class="fil10" d="M198 285h20.16v19.153H198z"/><path class="fil10" d="M212 285h-80v5h80z"/><ellipse class="fil11 str6" cx="205" cy="315" rx="7" ry="4"/><ellipse class="fil11 str6" cx="200" cy="330" rx="8" ry="4"/><ellipse class="fil11 str6" cx="193" cy="347" rx="11" ry="5"/><path class="fil1 str6" d="M123 283h11.09v10.08H123z"/><path class="fil5 str6" d="M116 282h21.506v6.108H116z"/><path class="fil1" d="M204 280h239.525v83.91H204z"/><path class="fil5" d="M233 284l158-4 45 79-209-1z"/><ellipse class="fil2 str6" cx="347" cy="316" rx="71" ry="37"/><ellipse class="fil0 str6" cx="346" cy="311" rx="28" ry="16"/><circle class="fil9 str6" cx="346" cy="309" r="2"/><path class="fil10" d="M240 285h18.655v19.153H240z"/><path class="fil10" d="M246 285h74v5h-74z"/><ellipse class="fil11 str6" cx="252" cy="315" rx="6" ry="4"/><ellipse class="fil11 str6" cx="257" cy="330" rx="7" ry="4"/><ellipse class="fil11 str6" cx="263" cy="347" rx="10" ry="5"/><path class="fil1 str6" d="M317 283h10.26v10.08H317z"/><path class="fil5 str6" d="M314 282h19.9v6.108H314z"/><path class="fil4" d="M146 54h10.766v39.925H146z"/><path class="fil0" d="M148 54h2.098v39.925H148z"/><path class="fil2 str6" d="M156 53h6.675v41.705H156z"/><path class="fil4" d="M282 54h11.078v39.925H282z"/><path class="fil0" d="M289 54h2.158v39.925H289z"/><path class="fil2 str6" d="M275 53h6.868v41.705H275z"/><ellipse class="fil12 str7" cx="379" cy="73"/><ellipse class="fil12 str7" cx="379" cy="90"/><ellipse class="fil12 str7" cx="378" cy="171"/><ellipse class="fil12 str7" cx="378" cy="152"/><ellipse class="fil12 str7" cx="70" cy="152"/><ellipse class="fil12 str7" cx="70" cy="165"/><ellipse class="fil12 str7" cx="68" cy="72"/><ellipse class="fil12 str7" cx="68" cy="87"/></g></svg>