<?xml version="1.0" encoding="UTF-8"?>
<!DOCTYPE svg PUBLIC "-//W3C//DTD SVG 1.1//EN" "http://www.w3.org/Graphics/SVG/1.1/DTD/svg11.dtd">
<!-- Creator: CorelDRAW X7 -->
<svg xmlns="http://www.w3.org/2000/svg" xml:space="preserve" width="1200mm" height="1000mm" version="1.1" style="shape-rendering:geometricPrecision; text-rendering:geometricPrecision; image-rendering:optimizeQuality; fill-rule:evenodd; clip-rule:evenodd"
viewBox="0 0 120000 100000"
 xmlns:xlink="http://www.w3.org/1999/xlink">
 <defs>
  <style type="text/css">
   <![CDATA[
    .str6 {stroke:#3B3936;stroke-width:23.81}
    .str7 {stroke:#A30026;stroke-width:23.81}
    .str9 {stroke:black;stroke-width:62.5}
    .str8 {stroke:#2E2E2D;stroke-width:55.13}
    .str0 {stroke:#2B2A29;stroke-width:7.62}
    .str1 {stroke:#A30026;stroke-width:7.62}
    .str2 {stroke:#C25018;stroke-width:7.62}
    .str3 {stroke:#EF925A;stroke-width:7.62}
    .str4 {stroke:#F2751E;stroke-width:7.62}
    .str5 {stroke:#FCD5A6;stroke-width:7.62}
    .fil28 {fill:black}
    .fil27 {fill:#2E2E2D}
    .fil20 {fill:#3B3936}
    .fil3 {fill:#646464}
    .fil7 {fill:#692823}
    .fil2 {fill:#999999}
    .fil23 {fill:#A30026}
    .fil10 {fill:#AFB0AF}
    .fil21 {fill:#B2B2B2}
    .fil1 {fill:#B2B3B3}
    .fil0 {fill:#BDBDBD}
    .fil13 {fill:#C14E16}
    .fil11 {fill:#C25018}
    .fil16 {fill:#C3511A}
    .fil24 {fill:#C42B2B}
    .fil15 {fill:#CC5718}
    .fil14 {fill:#CD581A}
    .fil30 {fill:#E0681B}
    .fil5 {fill:#E2E2E2}
    .fil12 {fill:#E7986F}
    .fil17 {fill:#EF925A}
    .fil18 {fill:#F2751E}
    .fil26 {fill:#FAFAFB}
    .fil22 {fill:#FAFBFB}
    .fil19 {fill:#FCD5A6}
    .fil4 {fill:#FEFEFE}
    .fil9 {fill:white}
    .fil8 {fill:#6D2314;fill-rule:nonzero}
    .fil6 {fill:#A30026;fill-rule:nonzero}
    .fil25 {fill:#BA2B2B;fill-rule:nonzero}
    .fil29 {fill:yellow;fill-rule:nonzero}
   ]]>
  </style>
 </defs>
 <g id="Слой_x0020_1">
  <metadata id="CorelCorpID_0Corel-Layer"/>
  <rect class="fil0 str0" x="1622" y="465" width="117023" height="98862"/>
  <polygon class="fil1" points="107383,94695 107383,36714 58916,7458 11514,36448 11514,94695 "/>
  <polygon class="fil2" points="14710,30331 59715,12245 103655,30331 103655,77141 14710,77141 "/>
  <path class="fil3" d="M25894 34853l11718 0 0 42554 -11718 0 0 -42554zm55125 0l11451 0 0 42554 -11451 0 0 -42554z"/>
  <path class="fil4" d="M12846 77407l10119 0 0 -2660 -10119 0 0 2660zm29293 -43352l7723 0 0 43352 -7723 0 0 -43352z"/>
  <path class="fil4" d="M40807 77407l10120 0 0 -2660 -10120 0 0 2660zm27430 -43352l7722 0 0 43352 -7722 0 0 -43352z"/>
  <path class="fil4" d="M66905 77407l10120 0 0 -2660 -10120 0 0 2660zm29293 -43352l7723 0 0 43352 -7723 0 0 -43352z"/>
  <path class="fil5" d="M42139 38044l7456 266 267 6383 -7723 -4521 0 -2128zm26098 0l7456 266 266 6383 -7722 -4521 0 -2128zm27961 0l7457 266 266 6383 -7723 -4521 0 -2128z"/>
  <polygon class="fil4" points="39742,34853 52525,34853 52525,38576 39742,38576 "/>
  <path class="fil4" d="M40541 34587c1598,0 2663,1329 2663,2925 0,1596 -1065,2926 -2663,2926 -1331,0 -2663,-1330 -2663,-2926 0,-1596 1332,-2925 2663,-2925zm10652 0c1598,0 2663,1329 2663,2925 0,1596 -1065,2926 -2663,2926 -1331,0 -2663,-1330 -2663,-2926 0,-1596 1332,-2925 2663,-2925z"/>
  <path class="fil5" d="M40541 35650c799,0 1598,798 1598,1862 0,1064 -799,1862 -1598,1862 -799,0 -1598,-798 -1598,-1862 0,-1064 799,-1862 1598,-1862zm10652 0c1065,0 1598,798 1598,1862 0,1064 -533,1862 -1598,1862 -799,0 -1598,-798 -1598,-1862 0,-1064 799,-1862 1598,-1862z"/>
  <polygon class="fil4" points="65840,34853 78622,34853 78622,38576 65840,38576 "/>
  <path class="fil4" d="M66639 34587c1598,0 2663,1329 2663,2925 0,1596 -1065,2926 -2663,2926 -1598,0 -2663,-1330 -2663,-2926 0,-1596 1065,-2925 2663,-2925zm10652 0c1598,0 2663,1329 2663,2925 0,1596 -1065,2926 -2663,2926 -1332,0 -2663,-1330 -2663,-2926 0,-1596 1331,-2925 2663,-2925z"/>
  <path class="fil5" d="M66639 35650c799,0 1598,798 1598,1862 0,1064 -799,1862 -1598,1862 -799,0 -1598,-798 -1598,-1862 0,-1064 799,-1862 1598,-1862zm10652 0c799,0 1598,798 1598,1862 0,1064 -799,1862 -1598,1862 -799,0 -1598,-798 -1598,-1862 0,-1064 799,-1862 1598,-1862z"/>
  <polygon class="fil4" points="93802,34853 106584,34853 106584,38576 93802,38576 "/>
  <path class="fil4" d="M94600 34587c1598,0 2663,1329 2663,2925 0,1596 -1065,2926 -2663,2926 -1597,0 -2663,-1330 -2663,-2926 0,-1596 1066,-2925 2663,-2925zm10653 0c1597,0 2663,1329 2663,2925 0,1596 -1066,2926 -2663,2926 -1332,0 -2663,-1330 -2663,-2926 0,-1596 1331,-2925 2663,-2925z"/>
  <path class="fil5" d="M94600 35650c799,0 1598,798 1598,1862 0,1064 -799,1862 -1598,1862 -798,0 -1597,-798 -1597,-1862 0,-1064 799,-1862 1597,-1862zm10653 0c798,0 1597,798 1597,1862 0,1064 -799,1862 -1597,1862 -799,0 -1598,-798 -1598,-1862 0,-1064 799,-1862 1598,-1862z"/>
  <g id="_437636584">
   <polygon class="fil6" points="59182,7458 60247,7990 109513,31661 108182,35119 101258,35119 59182,14905 17373,34853 9916,34853 8585,31661 57851,7990 "/>
   <path class="fil7" d="M59182 11182l49000 23937 -49000 0 0 -23937zm0 0l-49266 23671 49266 266 0 -23937z"/>
   <path class="fil4" d="M13911 33789c266,532 45271,-21544 45271,-21544l44206 21544 -89477 0z"/>
   <polygon class="fil6 str1" points="8585,31661 109780,31661 109780,35119 8585,35119 "/>
   <polygon class="fil5" points="18971,31661 59182,12245 98861,31661 96198,31661 60780,14373 24297,31661 "/>
   <polygon class="fil7" points="8585,35119 109780,35119 109780,34055 8585,34055 "/>
   <path class="fil8" d="M49329 25544c1065,266 1332,798 1332,1596 0,797 -267,1329 -799,1861 -533,532 -1332,798 -2397,798 -1598,0 -2663,-798 -3196,-2393l2131 0c266,532 532,797 1065,797 266,0 533,-265 799,-265 266,-266 266,-532 266,-798 0,-266 -266,-532 -266,-532 -266,-266 -533,-266 -799,-266l-799 0 0 -1330 533 0c266,0 532,-266 799,-266 0,-266 266,-532 266,-798 0,-266 -266,-532 -799,-532 -533,0 -799,266 -1065,798l-1864 -266c266,-1330 1331,-2128 2929,-2128 799,0 1598,266 2130,798 533,266 799,798 799,1330 0,798 -266,1330 -1065,1596l0 0z"/>
   <path id="_1" class="fil8" d="M56253 28203l-2397 0 -532 1330 -2131 0 2663 -7447 2397 0 2929 7447 -2396 0 -533 -1330 0 0zm-266 -1595l-799 -2660 -799 2660 1598 0z"/>
   <polygon id="_2" class="fil8" points="65574,23948 62112,23948 62112,29533 59715,29533 59715,22086 65574,22086 "/>
   <path id="_3" class="fil8" d="M71432 26608l2131 532c-267,532 -267,1063 -799,1329 -267,532 -533,798 -1065,798 -267,266 -799,532 -1598,532 -799,0 -1332,-266 -1864,-532 -533,-266 -799,-532 -1332,-1064 -266,-797 -533,-1595 -533,-2393 0,-1330 267,-2128 1066,-2926 532,-532 1597,-1064 2663,-1064 799,0 1597,266 2130,798 533,266 1065,798 1332,1596l-2131 532c0,-266 0,-532 -266,-532 0,-266 -267,-266 -267,-266 -266,-266 -532,-266 -798,-266 -533,0 -799,266 -1066,532 -266,532 -266,798 -266,1596 0,798 0,1330 266,1596 267,266 533,532 1066,532 532,0 798,0 1065,-266 0,-266 266,-798 266,-1064l0 0z"/>
  </g>
  <g id="_437639992">
   <path class="fil9" d="M71432 40970l-266 266 -266 0c-267,266 -267,266 -267,532 -532,-532 -532,-266 -1065,0l-266 266 -1598 2659c-266,266 -266,266 -266,532 -267,0 -267,266 -267,266 -532,532 -799,1064 -1331,1862 0,0 0,266 -266,266 0,266 0,266 -267,532l-1065 1596c-533,798 -3995,5585 -3995,5851l267 0 799 -532c532,0 1065,-266 1331,-266 533,0 1065,266 1332,266 266,266 799,532 799,1064l0 -266c0,0 0,-266 266,-266 0,-532 266,-798 266,-1064 -266,0 0,266 -266,-266 -533,-532 -1065,-2394 -799,-2926 266,-798 1598,-1595 2397,-2127l266 266 1598 -3724c533,-1064 266,-798 799,-1862 533,-266 266,-1064 1065,-1064 0,266 -266,1862 -266,2394l0 798c0,1064 -267,2394 -267,3458 -799,266 -1864,0 -2130,-532 -533,798 -1065,3723 -1065,4521 -267,532 -267,2128 -799,2660 0,266 -266,266 -266,532l-799 798c532,-266 0,798 2396,-266 533,-266 1864,-532 2397,-266l266 -2128c-532,266 -266,532 -1065,532 -532,0 -1598,-266 -2130,-532 0,-266 799,-4787 1598,-5053 532,-266 1331,266 1597,531 267,532 0,1064 0,1596 267,0 267,-266 267,-532l0 -532 266 -4255c0,-266 266,-798 266,-1064l0 -2128c267,-266 0,-1063 267,-1595 799,266 1331,2659 1331,3191 267,1064 1598,5851 2131,6915l799 2660c0,266 266,532 0,798 -267,532 -2930,532 -3462,266 -1332,-266 -799,-532 -799,-1596l0 -3724 -267 266 0 798c0,2660 0,5320 -266,7713 266,-266 0,-266 533,0 532,532 1331,532 2130,266 1065,-266 2131,-1063 3196,-1329l266 1595c-266,0 -266,0 -533,266l-2929 266c-799,0 -2929,532 -3462,266 0,266 0,0 -266,266l-266 266 532 0c799,0 2131,-266 2929,-266 1332,-266 2663,-266 3729,-532l266 266 0 -266c0,-266 0,0 0,0l266 -266c0,-798 -266,-1330 -532,-2128l-267 -1595 -266 -266 0 -532c-533,0 -266,266 -266,266 0,-266 266,0 266,-266 0,-266 -266,-798 -266,-798l0 -532c-267,-532 -799,-2394 -799,-2660l0 -266 -267 -532c-266,-532 -266,-1330 -532,-1861 0,-266 -267,-1064 -267,-1330l-532 -2394 -266 -1330c0,-266 -267,0 0,-266 -267,-266 -533,-1862 -533,-2394 266,0 266,0 266,-266l267 1c266,-266 0,-266 266,-266 -799,0 -266,266 -799,266 -266,266 0,0 -533,266l-266 0z"/>
   <path class="fil4" d="M70633 43363c267,532 267,2660 267,3458 -267,532 0,1330 -267,1862 0,532 0,1064 267,1596l0 3723c0,1064 -533,1330 799,1596 532,266 3195,266 3461,-266 267,-266 0,-532 0,-798l-798 -2660c-533,-1063 -1865,-5851 -2131,-6915 0,-532 -533,-2925 -1331,-3191 -267,532 0,1329 -267,1595zm-799 11437l0 -1330c267,-532 267,-1064 0,-1596 0,-532 267,-1063 0,-1595 -266,-266 -1065,-798 -1597,-532 -799,266 -1598,4787 -1598,5053 532,266 1598,532 2130,532 799,0 533,-266 1065,-532z"/>
   <path class="fil9" d="M69834 51874c267,532 267,1064 0,1596l0 1330 -266 2128c0,266 -266,2925 -533,3457l-266 0 266 532 267 -266c266,-266 266,0 266,-266 533,-266 799,-798 799,-1330 266,-2393 266,-5053 266,-7713l0 -798 267 -266c-267,-531 -267,-1063 -267,-1595 267,-532 0,-1330 267,-1862 0,-798 0,-2926 -267,-3458l0 2128c0,266 -266,798 -266,1064l-266 4255 0 532c0,266 0,532 -267,532l0 0z"/>
   <path class="fil10" d="M75160 60651l1332 -266 -266 -266c-1066,266 -2397,266 -3729,532 -799,0 -2130,266 -2929,266l-533 0 -266 -532c0,-266 0,-266 266,-532l0 -532c-799,-266 -2130,0 -3195,0 -1065,0 -2131,0 -2929,-266 -267,-266 -267,-532 0,-532 0,-532 0,-532 266,-798 266,-266 266,-266 266,-798 -532,-266 -1598,266 -2397,266 -532,266 -1597,266 -1864,0 0,-266 0,-266 267,-532 0,-266 266,-266 266,-532l533 -531c0,-266 3461,-5054 3994,-5852l1065 -1595c267,-266 267,-266 267,-532 266,0 266,-266 266,-266 533,-798 799,-1330 1331,-1862 0,0 0,-266 267,-266 0,-266 0,-266 266,-532l1598 -2660c-799,532 -1065,1330 -1332,1862 -1331,2660 -9054,12766 -9320,13564 799,798 2397,0 3462,-266 532,0 1065,266 799,798 -1065,1330 -799,1596 799,1596l1597 0c1065,0 2663,-266 3196,266 0,266 -267,798 0,1330 799,266 5326,-266 6657,-532z"/>
   <path class="fil9" d="M66905 49481c-266,266 -266,798 -533,1063 0,532 -1065,3724 -1065,3990 0,266 -266,532 -266,1064 -266,0 -266,266 -266,266l0 266c-267,532 -267,798 -533,1064 -266,266 -799,1063 -1065,1329 0,266 0,266 266,266 0,-266 1332,-1329 1332,-1329l799 -798c0,-266 266,-266 266,-532 532,-532 532,-2128 799,-2660 0,-798 532,-3723 1065,-4521 0,-266 533,-2128 799,-2394 266,-532 799,-2128 799,-2660 -533,1064 -266,798 -799,1862l-1598 3724 0 0z"/>
   <path class="fil4" d="M69302 43895c0,532 -533,2128 -799,2660 -267,266 -799,2128 -799,2394 266,532 1331,798 2130,532 0,-1064 267,-2394 267,-3458l0 -798c0,-532 266,-2128 266,-2393 -799,0 -533,797 -1065,1063l0 0zm-5859 14894c1332,266 4527,-266 5326,0 267,0 267,266 267,266 0,266 266,266 0,266l0 532c-267,266 -267,266 -267,532l266 0c267,-532 533,-3191 533,-3457 -533,-266 -1864,0 -2397,266 -2396,1063 -1864,0 -2396,266 0,0 -1332,1063 -1332,1329l0 0zm-3195 -3191l-533 532c0,266 -266,266 -266,532 1065,798 3195,-266 3728,-266 532,0 532,532 532,798l-266 0 0 -266c0,532 0,532 -266,798 -266,266 -266,266 -266,798l266 0c266,-266 799,-1064 1065,-1330 266,-266 266,-532 533,-1064 0,-532 -533,-798 -799,-1064 -267,0 -799,-266 -1332,-266 -266,0 -799,266 -1331,266l-799 532 -266 0zm10119 3457c0,532 -266,1064 -799,1330 533,266 2663,-266 3462,-266l2929 -266c267,-266 267,-266 533,-266l-266 -1596c-1066,266 -2131,1064 -3196,1330 -799,266 -1598,266 -2131,-266 -532,-266 -266,-266 -532,0l0 0zm-5060 -4521c0,-266 1065,-3458 1065,-3990 267,-266 267,-797 533,-1063l-266 -266c-799,532 -2131,1329 -2397,2127 -266,532 266,2394 799,2926 266,532 0,266 266,266z"/>
   <path class="fil9" d="M69035 59321c267,0 0,0 0,-266 0,0 0,-266 -266,-266 -799,-266 -3994,266 -5326,0 -266,0 -266,0 -266,-266l-266 1c-267,0 -267,266 0,532 798,265 1864,265 2929,265 1065,0 2397,-265 3195,0l0 0zm-5592 -2393l0 266 266 0c0,-266 0,-798 -532,-798 -533,0 -2663,1064 -3729,266 -266,266 -266,266 -266,532 266,266 1332,266 1864,0 799,0 1864,-532 2397,-266l0 0z"/>
  </g>
  <polygon class="fil4" points="73563,35916 87343,35916 87343,42057 73563,42057 "/>
  <path class="fil11" d="M67704 51874c266,266 266,532 266,532 0,266 267,532 267,798 0,0 532,798 532,1064l0 -1330c0,-1329 267,-2659 533,-3723 266,-1330 1065,-2394 1864,-3192 0,-266 266,-266 266,-266 0,-266 -266,0 -266,0 -533,266 -1065,798 -1331,1064 -533,266 -1598,1330 -2131,798 -266,-798 0,-3192 266,-3990l267 -1063c0,-266 0,0 0,0l-267 0c-1864,2659 -1331,6117 -266,8776l0 532z"/>
  <path class="fil11" d="M67704 51874c266,266 266,532 266,532 0,266 267,532 267,798 0,0 532,798 532,1064l0 -1330c0,-1329 267,-2659 533,-3723 266,-1330 1065,-2394 1864,-3192 0,-266 266,-266 266,-266 0,-266 -266,0 -266,0 -533,266 -1065,798 -1331,1064 -533,266 -1598,1330 -2131,798 -266,-798 0,-3192 266,-3990l267 -1063c0,-266 0,0 0,0l-267 0c-1864,2659 -1331,6117 -266,8776l0 532z"/>
  <path class="fil11" d="M74628 46555l0 266c0,266 266,798 266,1330 0,798 -532,532 -799,266 -799,-798 -799,-798 -1331,-1596 0,0 -267,0 -267,-266 0,0 0,-266 -266,0 266,266 799,1064 1065,1330l1065 1064c1066,532 2131,1064 3462,1329l1066 1c266,0 0,-266 0,-266 -267,-266 -267,-266 -533,-266 -799,-266 -1598,-798 -2130,-1330 -533,-266 -799,-798 -1332,-1064l-266 -798 0 0z"/>
  <path class="fil4" d="M83682 39640c266,-266 266,-266 266,-532 267,-266 533,-798 799,-798l533 532c533,532 1332,1596 1332,2128 0,-266 -1066,-532 -1332,-798l-1598 -532 0 0zm-12516 798c0,-532 1065,-1862 1598,-2128 266,0 266,266 266,266l533 798c-267,266 -533,266 -1065,532l-1332 532 0 0zm10652 -3458c266,0 533,798 799,1064l533 1330c-267,-266 -799,-266 -1066,-266 -266,-266 -532,-266 -799,-266l533 -1862 0 0zm-7456 2128l798 -2128 799 1862 -799 0c-266,266 -532,266 -799,266l1 0zm4527 -2660l799 1064 1065 1064 -1864 0 0 -2128zm-533 0l0 2128 -1598 0 1598 -2128zm-5326 1330c266,0 266,0 533,-266 266,-266 799,-798 1331,-798l-1065 2128c0,0 -799,-798 -799,-1064zm11451 266l-1065 1064 -1065 -2394c532,266 1864,798 2130,1330l0 0zm-3462 532c0,-266 -799,-1064 -1065,-1330l-1065 -1330c799,0 2130,266 2663,532l-533 2128 0 0zm-5592 -2128c799,-266 1864,-532 2663,-532 0,0 0,266 -267,266l0 532c-266,0 -532,266 -532,532l-799 1064 -267 266 -798 -2128 0 0zm1864 -798l-1065 0c-267,266 -533,266 -1066,532 -1065,266 -1864,1064 -2662,1862 -799,532 -1332,1596 -1865,2660 0,0 -266,266 0,532 267,266 267,0 533,-266 0,0 1065,-532 1332,-798 1597,-532 3461,-1064 5059,-1330 1598,0 2663,266 3995,532 532,0 1331,266 1864,266 0,266 1331,532 1331,798 799,266 1598,798 2131,1064 266,266 266,0 533,0 0,-266 -267,-798 -533,-798 0,-532 -266,-798 -266,-1064l-799 -798c-533,-798 -1332,-1596 -2397,-2128 -1065,-532 -2929,-1329 -4794,-1064l-1331 0z"/>
  <g id="_437634856">
   <path class="fil12" d="M76492 35650l1065 0c-266,0 -266,0 -266,-265l799 0c-267,-266 -533,0 -799,-266l266 -266c-266,0 -266,266 -533,266l0 -532 1598 266c0,0 -532,266 -532,532 266,-266 532,-266 532,-532 0,266 267,532 0,797l267 0 0 -797c266,0 266,266 532,266l267 266 -533 -532 1598 -266c0,0 -1332,0 -1598,-266l533 -532c-267,266 -533,532 -799,532l0 -1596c0,266 -267,1330 -267,1596l-532 -532c0,266 266,532 532,532 -266,266 -1597,266 -1597,266l0 532c-267,0 -267,-266 -533,-266l266 266 -799 266 799 0 0 265 -266 0z"/>
   <path class="fil11" d="M75693 36448l799 2128 266 -266 0 -266 799 -798c0,-266 267,-532 533,-798l0 -266c266,0 266,-266 266,-266 -799,0 -1864,266 -2663,532l0 0zm5592 2128l799 -2128c-799,-266 -2130,-532 -2929,-532l1065 1330c266,0 1065,1064 1065,1330l0 0z"/>
   <path class="fil13" d="M83682 39108l1065 -1064c-266,-532 -1598,-1064 -2130,-1330l1065 2394 0 0z"/>
   <path class="fil14" d="M79155 38576l1864 0 -1065 -1064 -799 -1064 0 2128 0 0zm2397 266c266,0 532,0 1065,266 266,0 532,0 799,266l-533 -1330c-266,-266 -532,-1064 -532,-1064l-799 1862 0 0z"/>
   <path class="fil15" d="M77025 38576l1597 0 0 -2128 -1597 2128zm-2397 532c266,0 532,0 799,-266l799 0 -799 -1862 -799 2128 0 0z"/>
   <path class="fil11" d="M73296 37778c0,266 799,1064 799,1064l1065 -2128c-532,0 -1065,532 -1331,798 -266,266 -266,266 -533,266z"/>
   <path class="fil16" d="M77557 35650l1065 0c267,-265 0,-531 0,-797 0,266 -266,266 -532,532 0,-266 532,-532 532,-532l-1597 -266 0 532c266,0 266,-266 532,-266l-266 266c266,266 532,0 799,266l-799 0c0,265 0,265 266,265z"/>
  </g>
  <path class="fil5" d="M42405 32459c7457,0 13582,6117 13582,13564 0,7447 -6125,13564 -13582,13564 -7723,0 -13847,-6117 -13847,-13564 0,-7447 6124,-13564 13847,-13564z"/>
  <path class="fil11 str2" d="M73563 39374c-240,-407 -507,-761 -799,-1064 -707,463 -1239,1172 -1598,2128 1566,-601 2365,-956 2397,-1064z"/>
  <path class="fil11 str2" d="M86612 40970c-645,-1326 -1221,-2167 -1728,-2524 -257,374 -587,695 -990,964 1145,632 2051,1152 2718,1560z"/>
  <path class="fil17 str3" d="M69131 42668c-1914,4216 -679,5007 2479,2209 -2395,1066 -3323,275 -2479,-2209z"/>
  <path class="fil17 str3" d="M86344 45252c-964,1562 -2562,1553 -4792,-27 708,3168 -801,3612 -4527,1330 2663,697 3995,77 3994,-1862 3970,1446 4947,382 2929,-3191 2446,870 2624,515 533,-1064 1567,273 2365,893 2397,1862 -274,409 -943,328 -2008,-243 1496,677 1987,1742 1474,3195z"/>
  <path class="fil18 str4" d="M86611 47087c-608,-665 -912,-998 -912,-998 -435,209 -900,331 -1396,366 68,346 102,519 102,519 736,436 1471,474 2206,113z"/>
  <ellipse class="fil19 str5" cx="42071" cy="46729" rx="13448" ry="13431"/>
  <path class="fil20 str6" d="M54921 50810c1865,-2393 2131,-8776 -532,-13032 -7457,-14362 -26364,-3457 -18375,1064l4261 1862c266,0 799,532 799,532 1065,532 -533,266 1597,266 3462,0 5859,-532 9587,0 799,1595 -1065,1064 1066,5585 798,1862 1065,2660 1597,3724l0 -1z"/>
  <polygon class="fil21" points="94867,77407 104986,77407 104986,74747 94867,74747 "/>
  <polygon class="fil4" points="94867,77407 104986,77407 104986,74747 94867,74747 "/>
  <polygon class="fil4" points="29356,63045 54301,63045 54301,93764 29356,93764 "/>
  <path class="fil22" d="M71965 65173l16511 0c3195,0 6124,3191 6124,6915l0 21277c0,532 0,1064 -266,1330l-28228 0 0 -22607c0,-3724 2663,-6915 5859,-6915z"/>
  <path class="fil9" d="M93003 66502c-1332,2394 -7191,7447 -9587,9841 -799,1064 -2397,2660 -3196,3192 -532,-266 -11451,-10639 -11984,-12235 -1597,-1063 -798,-1861 -3461,-266 -1066,532 -2131,1596 -2131,2926 0,3458 1332,5319 1065,9043 799,798 1065,1064 2397,1596 4527,1595 2663,-266 4793,4521 1332,2926 799,6915 -532,9575l19706 0c-1331,-2660 -1864,-6383 -799,-9575 2131,-5053 1332,-3458 4794,-4521 1065,-266 1598,-798 2397,-1330 0,-4522 1864,-10107 266,-11703l-2929 -1595 -799 531z"/>
  <path class="fil9" d="M74095 73949c0,-531 0,-531 -266,-1063 266,266 533,266 799,0 266,-266 0,-266 0,-532 -266,-266 -266,-266 -799,0l0 -266c266,0 799,-532 266,-798 0,0 -266,0 -532,266l-267 0 0 266c-266,-1064 -799,-798 -799,-266l0 798c-266,-266 -1065,-266 -1065,266 266,532 799,532 1332,266 0,266 -533,798 -267,1063 0,266 267,266 533,0 0,0 266,0 266,-265 267,797 799,531 799,265zm12250 0c0,-531 0,-531 266,-1063 -266,266 -532,266 -799,0 -266,-266 0,-266 0,-532 267,-266 267,-266 799,0l0 -266c-266,0 -799,-532 -532,-798 266,0 532,0 799,266l266 0 0 266c266,-1064 799,-798 799,-266 0,266 0,532 -266,798 532,-266 1331,-266 1331,266 -266,532 -799,532 -1331,266 0,266 532,798 266,1063 0,266 -266,266 -533,0 0,0 -266,0 -266,-265 -266,797 -799,531 -799,265zm-9853 1862l0 -798c266,0 533,266 533,0 266,-266 266,-532 0,-798l-533 0c0,-266 533,-531 266,-797 -266,-266 -532,0 -532,0l-267 266 -266 265c0,-1063 -533,-797 -799,-265 0,265 266,531 266,797 -532,-266 -1065,-266 -1065,266 0,532 799,266 1065,266 0,266 -532,532 -266,1064l533 0c266,0 266,-266 266,-266 266,798 799,266 799,0l0 0zm7456 0l0 -798c-266,0 -532,266 -532,0 -267,-266 -267,-532 0,-798l532 0c0,-266 -532,-531 -266,-797 266,-266 533,0 533,0l266 266 266 265c0,-1063 533,-797 799,-265 0,265 -266,531 -266,797 533,-266 1065,-266 1065,266 0,532 -799,266 -1065,266 0,266 533,532 266,1064l-532 0c-267,0 -267,-266 -267,-266 -266,798 -799,266 -799,0l0 0zm-5059 2128l0 -798 532 0c267,-266 267,-532 0,-798l-532 0c0,-266 532,-798 266,-798 -266,-266 -533,0 -799,0l0 266c-266,0 -266,0 -266,266 0,-1064 -799,-798 -799,-532 0,266 266,532 266,798 -533,0 -1331,-266 -1065,532 0,532 799,266 1065,266 0,266 -533,532 -266,798 0,266 266,266 532,266 267,0 267,-266 267,-532 266,1064 799,532 799,266l0 0zm2663 0l0 -798 -533 0c-266,-266 -266,-532 0,-798l533 0c0,-266 -533,-798 -267,-798 267,-266 533,0 533,0 266,0 266,266 266,266 267,0 267,0 267,266 0,-1064 532,-798 799,-532 0,266 -267,532 -267,798 533,0 1332,-266 1065,532 0,532 -799,266 -1065,266 0,266 533,532 267,798 0,266 -267,266 -533,266 -266,0 -266,-266 -266,-532 -267,1064 -799,532 -799,266l0 0z"/>
  <g id="_437633344">
   <path class="fil9" d="M81019 75468c0,-532 0,-532 -266,-1064 266,266 532,266 799,0l0 -532c-533,0 -267,-266 -799,0l0 -266c266,0 799,-532 266,-798 -266,0 -266,266 -533,266 0,0 -266,0 -266,266 -266,-798 -799,-798 -799,-266l0 798c-266,-266 -1065,-266 -1065,266 266,532 799,532 1332,266 -267,266 -533,798 -267,1064 0,0 267,266 533,0l266 -266c266,798 533,532 799,266z"/>
   <path class="fil9" d="M79688 75468c0,-532 0,-532 266,-1064 -266,266 -533,266 -799,0 -266,-266 0,-266 0,-532 533,0 266,-266 799,0l0 -266c-266,0 -799,-532 -266,-798 266,0 266,266 532,266l266 266c267,-798 799,-798 799,-266l0 798c267,-266 1066,-266 1066,266 -267,532 -799,532 -1332,266 0,266 533,798 266,1064 0,0 -266,266 -532,0l-267 -266c-266,798 -798,532 -798,266z"/>
   <path class="fil23 str7" d="M80220 79168c-266,-1330 -266,-2394 799,-2926 1065,-798 2131,-532 3196,0 -799,-2394 -5060,-1862 -4794,1064 0,532 267,1596 799,1862l0 0zm-5858 1595c1331,0 2396,266 2929,1330 799,1064 0,2128 -533,2926 799,-532 1332,-798 1598,-1330 1598,-2660 -2397,-5053 -3995,-2926l1 0zm16777 2926c-1066,-1596 -3462,-2128 -3196,-532 1065,266 799,0 1331,266l267 0c-533,0 -1598,0 -1598,532 -266,532 266,1064 799,1064 532,0 1065,-266 1331,-532 267,-266 533,-266 533,-532l533 -266 0 0zm-15180 -7181c533,266 799,532 1066,798 1065,-266 532,-1064 0,-1596 -267,-266 -1332,-532 -2131,-532 -799,3724 1864,3458 1864,2394 0,-266 -532,-798 -799,-1064l0 0z"/>
   <path class="fil23 str7" d="M80753 80763c0,266 266,532 532,532 267,266 533,266 799,532 3196,798 3995,-1861 3196,-3457 -266,532 -266,798 -533,1330 -1065,1329 -2663,1329 -3994,1063zm532 3724c1066,-266 1864,-532 2930,-266 799,266 1331,798 1597,1330l267 532c1065,-4256 -3995,-3458 -4794,-1596zm-5592 1862c-533,-266 -533,-266 -1065,-266 -1598,-798 -2131,-1862 -2131,-3458 -799,798 -1597,2128 -266,3192 1332,1329 2663,798 3728,532l-266 0z"/>
   <path class="fil23 str7" d="M74894 84753c-2130,-532 -266,-2660 0,-2926 0,-532 -533,-798 -1065,-532 -799,266 -1065,1596 -799,2394 266,1064 1065,1330 2130,1330l-266 -266zm7989 -4522c2131,0 2397,-2659 1598,-3457 -266,-266 -1065,-532 -1065,0 -267,266 266,1064 266,1596 -266,1861 -1864,1330 -2130,1330 532,265 532,531 1331,531z"/>
   <path class="fil23 str7" d="M78889 77040c-533,0 -1066,532 -799,1330 266,1595 3462,2659 4793,2127 -1864,-266 -3195,-797 -3728,-2925l-266 -532 0 0zm-5060 8245c533,266 1065,532 1864,532 533,266 1332,266 2130,0 1865,-532 2131,-2128 1066,-2660 -533,798 -799,1596 -1864,2128 -1066,532 -1865,266 -3196,0l0 0zm9587 -10107c1598,798 2397,2128 2130,3990l267 -266c1597,-1862 266,-3724 -2397,-3724zm-11718 7979c533,-266 1066,-2660 3462,-3192 -799,-265 -2396,-265 -2929,266 -799,798 -799,1862 -533,2926z"/>
   <path class="fil23" d="M82351 89008c0,1064 -267,532 -1066,798 267,0 0,0 267,266l2663 0c532,-266 1065,-798 1331,-1596 -266,266 -266,266 -799,532 -1065,532 -1598,266 -2396,0l0 0z"/>
   <path class="fil23 str7" d="M71432 77306c267,798 799,1862 1332,1862 532,0 799,-266 799,-798 -267,0 -799,-266 -1065,-532 532,0 798,266 1331,266 533,-1330 -1598,-1064 -2397,-798l0 0zm13049 9309c266,266 266,-266 266,266 267,0 1332,0 1065,266l0 -266c267,-798 -532,-1862 -1065,-1862 -1065,-532 -1864,0 -2396,532 1331,-532 1864,-532 2130,1064zm2130 -5586c267,0 267,-266 799,-532 -266,266 -532,532 -532,1064 266,266 1598,798 1065,-1861 -799,-266 -2397,531 -1332,1329l0 0z"/>
   <path class="fil23 str7" d="M84215 87944c-267,0 -1598,798 -1864,-532 -267,-797 266,-1595 799,-1861 -2131,266 -1598,3457 0,3457 799,0 1065,-532 1065,-1064z"/>
   <path class="fil23 str7" d="M79155 86881l799 0 266 266 266 0c533,-1596 1332,-2394 2930,-2660l-267 0c-266,0 -798,0 -1331,266 -1065,266 -2130,1064 -2663,2128zm3196 -7447c-533,-266 -1066,-532 -1066,-1596 0,-1064 799,-1064 1598,-798 0,-798 -532,-1064 -1065,-1064 -1598,532 -1598,3192 533,3458l0 0zm-7457 5319c1332,0 2131,-532 2131,-1862 266,-1596 -1598,-2128 -1865,-798 1865,0 1598,1596 799,2128l-1065 532c0,-266 0,0 0,0l0 0z"/>
   <path class="fil23 str7" d="M76226 83423c266,-1064 -1332,-1862 -1598,-532 -533,1330 1065,1330 1598,532zm5326 -5319c266,1330 1864,1064 1597,-266 0,-1330 -1864,-1064 -1597,266zm-9321 11968c533,0 1332,-266 1598,-532 -266,-266 -533,0 -533,-266 -266,-266 -266,-532 -266,-798 -266,0 -533,266 -799,266l1065 -1064c0,-266 0,-266 -266,-266 -533,0 -266,0 -533,266 0,266 -266,266 -532,532l266 1862 0 0zm9054 -266c799,-266 1066,266 1066,-798l-1332 0 0 -532c266,-266 0,-266 266,-266l0 -1063c-266,-266 0,-798 0,-1064 -266,532 -799,1064 -799,1862 0,532 267,1595 799,1861l0 0zm3995 0c0,0 0,-266 0,0l799 -266 533 -266 0 -266 -267 -1330c267,-266 267,0 267,-266 0,-531 266,-531 1065,-531 -267,-266 -267,-532 -533,-798 -266,-532 -266,-532 -799,-798 266,1063 266,1595 0,2659 -266,798 -799,1330 -1331,1596l266 266 0 0z"/>
   <path class="fil23 str7" d="M86611 89008c267,0 267,0 533,-266l0 -266 266 0 267 -798 0 -797c-799,0 -1065,0 -1065,531 0,266 0,0 -267,266l267 1330 -1 0zm-3195 -1064l0 -1063 799 0c0,-798 -1065,-1330 -1332,-532 -532,798 -266,1595 533,1595l0 0zm-6391 532l0 1064 266 0 532 -532c267,0 533,-266 533,-798 266,-266 0,-532 -533,-532 -532,0 -532,1064 -798,798l0 0zm8788 -1595l0 266c266,-266 -799,-266 -1066,-266 0,-532 0,0 -266,-266l0 798c0,1329 1332,1063 1598,0 0,-266 0,-266 -266,-532zm-6658 797l266 532c267,266 267,266 799,266 267,0 0,-266 0,-532 0,-266 267,-532 267,-798l-267 1 -266 -266 -799 0 0 798 0 -1z"/>
   <path class="fil23 str7" d="M77025 89540l0 -798 0 -266c266,-532 532,-798 266,-1064 -266,-265 -1598,0 -533,2128l267 0zm-3995 -1064c0,266 0,532 266,798 0,266 267,0 533,266 266,0 266,0 533,-532 0,-798 -533,-1329 -1332,-532l0 0zm-1332 1330c267,-798 -532,-1330 267,-2128 799,-266 266,-266 266,-266 -799,0 -1331,1330 -1065,2394l532 0z"/>
   <path class="fil23 str7" d="M71698 89806c0,266 0,266 533,266l-266 -1862c266,-266 532,-266 532,-532 267,-266 0,-266 533,-266 -266,-266 -533,-266 -799,0 0,0 533,0 -266,266 -799,798 0,1330 -267,2128z"/>
   <path class="fil23" d="M75959 90072c-266,-266 -532,-266 -1065,-266l266 266 799 0z"/>
   <path class="fil6" d="M75959 90072c-266,-266 -532,-266 -1065,-266l266 266 -266 -266 0 -266c533,266 799,266 1065,532z"/>
   <path class="fil23 str7" d="M83416 87944c532,0 799,-266 799,-1063l-799 0 0 1063zm-1332 1064c0,-266 0,-266 -266,-532 -266,0 -266,0 -533,-266 -266,0 0,0 -266,266l0 532 1065 0z"/>
   <path class="fil24" d="M86611 90072l799 0 -266 -266c-266,0 -266,266 -533,266z"/>
   <path class="fil25" d="M86611 90072c267,0 533,-266 533,-266l266 266 -266 -266c0,0 -266,266 -533,266z"/>
  </g>
  <polygon class="fil4 str8" points="54655,79535 53856,80333 53856,80067 52791,78737 51726,80067 50661,81662 56786,81662 55720,80599 "/>
  <path class="fil9" d="M68503 67566l0 -798c266,0 532,0 532,-266 267,0 267,-266 0,-532l-532 1c0,-266 532,-798 266,-798 -266,-266 -533,0 -533,0 -266,0 -266,0 -266,266 0,0 -266,0 -266,266 0,-1064 -533,-798 -799,-532 0,266 266,532 266,798 -532,0 -1065,-266 -1065,266 0,531 799,531 1065,531 0,0 -532,532 -266,798 0,266 266,266 533,266 266,0 266,-266 266,-532 266,1064 799,532 799,266l0 0zm23434 0l0 -798c-266,0 -532,0 -798,-266 0,0 0,-266 266,-532l532 1c0,-266 -532,-798 -266,-798 266,-266 533,0 533,0 266,0 266,0 266,266 0,0 266,0 266,266 0,-1064 533,-798 533,-532 266,266 0,532 0,798 266,0 1065,-266 1065,266 0,531 -799,531 -1065,531 0,0 533,532 266,798 -266,266 -532,266 -532,266 -267,0 -267,-266 -267,-532 -266,1064 -799,532 -799,266l0 0z"/>
  <path class="fil9" d="M70101 69694l0 -798 532 0c267,-266 0,-532 0,-798l-799 0c267,-266 799,-532 533,-798 -266,-266 -533,0 -799,0 0,266 0,266 -266,266l0 266c-267,-1064 -799,-798 -799,-532 0,532 0,798 266,798 -533,0 -1331,0 -1331,532 266,532 799,266 1331,266 0,266 -533,532 -266,1064l532 0 267 -266c266,798 799,266 799,0l0 0zm20239 0l0 -798 -533 0c-266,-266 0,-532 0,-798l533 0c0,-266 -533,-532 -267,-798 267,-266 533,0 799,0l0 266c267,0 267,266 267,266 266,-1064 799,-798 799,-532 0,532 0,798 -267,798 533,0 1332,0 1332,532 -267,532 -799,266 -1332,266 0,266 533,532 267,1064l-533 0c-266,0 -266,-266 -266,-266 -267,798 -799,266 -799,0l0 0z"/>
  <path class="fil9" d="M71965 71822l0 -798 532 0c267,-266 267,-532 0,-798l-532 0c0,-266 532,-798 266,-798 -266,-266 -533,0 -533,0 -266,0 -266,266 -266,266 0,0 -266,0 -266,266 0,-1064 -533,-798 -799,-532 0,266 266,532 266,798 -532,0 -1065,-266 -1065,532 0,532 799,266 1065,266 0,266 -532,532 -266,798 0,266 266,266 532,266 267,0 267,-266 267,-532 266,1064 799,532 799,266l0 0zm16511 0l0 -798 -799 0c0,-266 0,-532 266,-798l533 0c0,-266 -533,-798 -267,-798 267,-266 533,0 533,0 266,0 266,266 266,266 0,0 266,0 266,266 0,-1064 533,-798 533,-532 266,266 0,532 0,798 266,0 1065,-266 1065,532 0,532 -799,266 -1065,266 0,266 533,532 266,798 -266,266 -532,266 -532,266 -267,0 -267,-266 -267,-532 -266,1064 -798,532 -798,266l0 0z"/>
  <g id="_437633944">
   <polygon class="fil4" points="14495,34055 22208,34055 22208,77407 14495,77407 "/>
   <polygon class="fil5" points="14495,38044 22208,38044 22208,44693 14495,40172 "/>
   <polygon class="fil4" points="12101,34853 24867,34853 24867,38576 12101,38576 "/>
   <path class="fil4" d="M12899 34587c1596,0 2660,1329 2660,2925 0,1596 -1064,2926 -2660,2926 -1330,0 -2660,-1330 -2660,-2926 0,-1596 1330,-2925 2660,-2925zm10639 0c1595,0 2659,1329 2659,2925 0,1596 -1064,2926 -2659,2926 -1330,0 -2660,-1330 -2660,-2926 0,-1596 1330,-2925 2660,-2925z"/>
   <path class="fil5" d="M12899 35650c798,0 1596,798 1596,1862 0,1064 -798,1862 -1596,1862 -798,0 -1596,-798 -1596,-1862 0,-1064 798,-1862 1596,-1862zm10639 0c1063,0 1595,798 1595,1862 0,1064 -532,1862 -1595,1862 -798,0 -1596,-798 -1596,-1862 0,-1064 798,-1862 1596,-1862z"/>
   <polygon class="fil26" points="44283,69428 47208,77939 42953,86982 38432,78205 41357,69428 38432,67034 42687,63843 46942,67566 "/>
   <polygon class="fil23" points="43485,69694 46411,78737 42421,88312 37900,78737 40825,69694 37900,67300 42155,63311 46410,67300 "/>
   <path class="fil20 str6" d="M29490 50323c266,-2659 798,-4521 1064,-7181 0,-2925 1896,-4485 4290,-5549l373 -3538c-5851,532 -8387,12013 -5727,16268l0 0z"/>
  </g>
  <path class="fil27" d="M26161 63045l4261 0 11184 24735 12250 -24735 4527 0c2930,-266 5326,2394 5326,5053l0 26597 -42874 0 0 -26597c0,-2659 2396,-5319 5326,-5053z"/>
  <path class="fil4" d="M41873 86450c-799,-2128 -4528,-22341 -6924,-23405l-4794 0 1065 9043 2930 2127c266,0 532,0 532,266l267 266 266 0c-533,1064 -2397,2660 -2663,3458l9054 10904 533 532 266 -532 9054 -10904c-266,-798 -2130,-2394 -2662,-3458l266 0 266 -266c266,-266 266,-266 533,-266l2929 -1861 1065 -9575c-2130,0 -2397,266 -3195,266 -4794,0 -5593,13298 -8256,23405l-266 1064 -266 -1064 0 0z"/>
  <g id="_430571280">
   <polygon class="fil28 str9" points="-169,91 119934,91 119934,9847 -169,9847 "/>
   <path class="fil9 str9" d="M1962 1212l5083 0c589,0 1066,503 1066,1122l0 4824c0,619 -477,1122 -1065,1122l-5084 0c-588,0 -1065,-503 -1065,-1122l0 -4824c0,-619 477,-1122 1065,-1122z"/>
   <path class="fil9 str9" d="M15277 1212l5084 0c588,0 1065,503 1065,1122l0 4824c0,619 -477,1122 -1065,1122l-5084 0c-588,0 -1065,-503 -1065,-1122l0 -4824c0,-619 477,-1122 1065,-1122z"/>
   <path class="fil9 str9" d="M1962 1212l5083 0c589,0 1066,503 1066,1122l0 4824c0,619 -477,1122 -1065,1122l-5084 0c-588,0 -1065,-503 -1065,-1122l0 -4824c0,-619 477,-1122 1065,-1122z"/>
   <path class="fil9 str9" d="M28592 1212l5084 0c588,0 1065,503 1065,1122l0 4824c0,619 -477,1122 -1065,1122l-5084 0c-588,0 -1065,-503 -1065,-1122l0 -4824c0,-619 477,-1122 1065,-1122z"/>
   <path class="fil9 str9" d="M41907 1212l5084 0c588,0 1065,503 1065,1122l0 4824c0,619 -477,1122 -1065,1122l-5084 0c-588,0 -1065,-503 -1065,-1122l0 -4824c0,-619 477,-1122 1065,-1122z"/>
   <path class="fil9 str9" d="M28592 1212l5084 0c588,0 1065,503 1065,1122l0 4824c0,619 -477,1122 -1065,1122l-5084 0c-588,0 -1065,-503 -1065,-1122l0 -4824c0,-619 477,-1122 1065,-1122z"/>
   <path class="fil9 str9" d="M60548 1212l5084 0c588,0 1065,503 1065,1122l0 4824c0,619 -477,1122 -1065,1122l-5084 0c-588,0 -1065,-503 -1065,-1122l0 -4824c0,-619 477,-1122 1065,-1122z"/>
   <path class="fil9 str9" d="M73863 1212l5084 0c588,0 1065,503 1065,1122l0 4824c0,619 -477,1122 -1065,1122l-5084 0c-588,0 -1065,-503 -1065,-1122l0 -4824c0,-619 477,-1122 1065,-1122z"/>
   <path class="fil9 str9" d="M60548 1212l5084 0c588,0 1065,503 1065,1122l0 4824c0,619 -477,1122 -1065,1122l-5084 0c-588,0 -1065,-503 -1065,-1122l0 -4824c0,-619 477,-1122 1065,-1122z"/>
   <path class="fil9 str9" d="M85847 1212l5084 0c588,0 1065,503 1065,1122l0 4824c0,619 -477,1122 -1065,1122l-5084 0c-588,0 -1065,-503 -1065,-1122l0 -4824c0,-619 477,-1122 1065,-1122z"/>
   <path class="fil9 str9" d="M99428 1212l5084 0c588,0 1065,503 1065,1122l0 4824c0,619 -477,1122 -1065,1122l-5084 0c-588,0 -1065,-503 -1065,-1122l0 -4824c0,-619 477,-1122 1065,-1122z"/>
   <path class="fil9 str9" d="M85847 1212l5084 0c588,0 1065,503 1065,1122l0 4824c0,619 -477,1122 -1065,1122l-5084 0c-588,0 -1065,-503 -1065,-1122l0 -4824c0,-619 477,-1122 1065,-1122z"/>
   <path class="fil9 str9" d="M111412 1212l5084 0c588,0 1065,503 1065,1122l0 4824c0,619 -477,1122 -1065,1122l-5084 0c-588,0 -1065,-503 -1065,-1122l0 -4824c0,-619 477,-1122 1065,-1122z"/>
   <path class="fil9 str9" d="M111412 1212l5084 0c588,0 1065,503 1065,1122l0 4824c0,619 -477,1122 -1065,1122l-5084 0c-588,0 -1065,-503 -1065,-1122l0 -4824c0,-619 477,-1122 1065,-1122z"/>
   <path class="fil29" d="M51494 8503l-799 0 0 -3645c-266,280 -799,561 -1331,561l0 -842c266,0 532,-280 799,-280 266,-280 532,-561 532,-841l799 0 0 5047z"/>
   <path id="_1_0" class="fil29" d="M52825 7101l1066 0c0,0 0,281 266,281 0,280 266,280 266,280 267,0 533,0 533,-280 266,0 266,-281 266,-561 0,-281 0,-561 -266,-841 0,0 -266,-281 -533,-281 -266,0 -532,281 -532,561l-799 -280 532 -2524 2397 0 0 841 -1864 0 0 841 533 0c532,0 799,0 1065,281 266,280 266,841 266,1402 0,280 0,561 -266,1122 -267,280 -799,560 -1332,560 -266,0 -799,-280 -1065,-280 -266,-280 -266,-841 -533,-1122z"/>
   <polygon class="fil28 str9" points="-169,90106 119934,90106 119934,99863 -169,99863 "/>
   <path class="fil9 str9" d="M1962 91509l5083 0c589,-1 1066,502 1066,1121l0 4824c0,619 -477,1121 -1065,1121l-5084 1c-588,-1 -1065,-503 -1065,-1122l0 -4824c0,-619 477,-1122 1065,-1122z"/>
   <path class="fil9 str9" d="M15277 91509l5084 0c588,-1 1065,502 1065,1121l0 4824c0,619 -477,1121 -1065,1121l-5084 1c-588,-1 -1065,-503 -1065,-1122l0 -4824c0,-619 477,-1122 1065,-1122z"/>
   <path class="fil9 str9" d="M1962 91509l5083 0c589,-1 1066,502 1066,1121l0 4824c0,619 -477,1121 -1065,1121l-5084 1c-588,-1 -1065,-503 -1065,-1122l0 -4824c0,-619 477,-1122 1065,-1122z"/>
   <path class="fil9 str9" d="M28592 91509l5084 0c588,-1 1065,502 1065,1121l0 4824c0,619 -477,1121 -1065,1121l-5084 1c-588,-1 -1065,-503 -1065,-1122l0 -4824c0,-619 477,-1122 1065,-1122z"/>
   <path class="fil9 str9" d="M41907 91509l5084 0c588,-1 1065,502 1065,1121l0 4824c0,619 -477,1121 -1065,1121l-5084 1c-588,-1 -1065,-503 -1065,-1122l0 -4824c0,-619 477,-1122 1065,-1122z"/>
   <path class="fil9 str9" d="M28592 91509l5084 0c588,-1 1065,502 1065,1121l0 4824c0,619 -477,1121 -1065,1121l-5084 1c-588,-1 -1065,-503 -1065,-1122l0 -4824c0,-619 477,-1122 1065,-1122z"/>
   <path class="fil9 str9" d="M60548 91509l5084 0c588,-1 1065,502 1065,1121l0 4824c0,619 -477,1121 -1065,1121l-5084 1c-588,-1 -1065,-503 -1065,-1122l0 -4824c0,-619 477,-1122 1065,-1122z"/>
   <path class="fil9 str9" d="M73863 91509l5084 0c588,-1 1065,502 1065,1121l0 4824c0,619 -477,1121 -1065,1121l-5084 1c-588,-1 -1065,-503 -1065,-1122l0 -4824c0,-619 477,-1122 1065,-1122z"/>
   <path class="fil9 str9" d="M60548 91509l5084 0c588,-1 1065,502 1065,1121l0 4824c0,619 -477,1121 -1065,1121l-5084 1c-588,-1 -1065,-503 -1065,-1122l0 -4824c0,-619 477,-1122 1065,-1122z"/>
   <path class="fil9 str9" d="M85847 91509l5084 0c588,-1 1065,502 1065,1121l0 4824c0,619 -477,1121 -1065,1121l-5084 1c-588,-1 -1065,-503 -1065,-1122l0 -4824c0,-619 477,-1122 1065,-1122z"/>
   <path class="fil9 str9" d="M99428 91509l5084 0c588,-1 1065,502 1065,1121l0 4824c0,619 -477,1121 -1065,1121l-5084 1c-588,-1 -1065,-503 -1065,-1122l0 -4824c0,-619 477,-1122 1065,-1122z"/>
   <path class="fil9 str9" d="M85847 91509l5084 0c588,-1 1065,502 1065,1121l0 4824c0,619 -477,1121 -1065,1121l-5084 1c-588,-1 -1065,-503 -1065,-1122l0 -4824c0,-619 477,-1122 1065,-1122z"/>
   <path class="fil9 str9" d="M111412 91509l5084 0c588,-1 1065,502 1065,1121l0 4824c0,619 -477,1121 -1065,1121l-5084 1c-588,-1 -1065,-503 -1065,-1122l0 -4824c0,-619 477,-1122 1065,-1122z"/>
   <path class="fil9 str9" d="M111412 91509l5084 0c588,-1 1065,502 1065,1121l0 4824c0,619 -477,1121 -1065,1121l-5084 1c-588,-1 -1065,-503 -1065,-1122l0 -4824c0,-619 477,-1122 1065,-1122z"/>
   <path class="fil29" d="M51494 98519l-533 0 0 -3926c-266,0 -532,281 -799,281 0,280 -266,280 -532,560l0 -841c266,0 532,-280 799,-561 266,0 532,-280 532,-561l533 0 0 5048z"/>
   <path id="_1_1" class="fil29" d="M52825 97117l799 0c0,280 0,561 267,561 0,280 266,280 532,280 267,0 533,0 799,-280 267,-281 267,-561 267,-841 0,-281 0,-561 -267,-842 -266,-280 -532,-280 -799,-280l-532 0c0,280 -267,280 -267,561l-532 -281 532 -2524 2131 0 0 561 -1864 0 -267 1402c267,-280 799,-280 1066,-280 266,0 798,280 1065,561 266,280 266,561 266,1121 0,281 0,842 -266,1122 -267,280 -799,561 -1332,561 -532,0 -799,0 -1065,-280 -266,-281 -266,-561 -533,-1122l0 0z"/>
   <path class="fil28 str9" d="M-169 8503l1933 0 0 81760 -1933 0 0 -81760zm117706 -1121l2499 0 0 82767 -2499 0 0 -82767z"/>
  </g>
  <g id="_430572888">
   <path class="fil9" d="M87956 40970l266 266 266 0c267,266 267,266 267,532 532,-532 532,-266 1065,0l266 266 1598 2659c266,266 266,266 266,532 266,0 266,266 266,266 533,532 799,1064 1332,1862 0,0 0,266 266,266 0,266 0,266 267,532l1065 1596c532,798 3994,5585 3994,5851l-266 0 -799 -532c-533,0 -1065,-266 -1331,-266 -533,0 -1066,266 -1332,266 -266,266 -799,532 -799,1064l0 -266c0,0 0,-266 -266,-266 0,-532 -266,-798 -266,-1064 266,0 0,266 266,-266 532,-532 1065,-2394 799,-2926 -267,-798 -1598,-1595 -2397,-2127l-266 266 -1598 -3724c-533,-1064 -266,-798 -799,-1862 -533,-266 -266,-1064 -1065,-1064 0,266 266,1862 266,2394l0 798c0,1064 266,2394 266,3458 799,266 1865,0 2131,-532 532,798 1065,3723 1065,4521 266,532 266,2128 799,2660 0,266 266,266 266,532l799 798c-532,-266 0,798 -2397,-266 -532,-266 -1864,-532 -2396,-266l-267 -2128c533,266 267,532 1066,532 532,0 1597,-266 2130,-532 0,-266 -799,-4787 -1598,-5053 -532,-266 -1331,266 -1598,531 -266,532 0,1064 0,1596 -266,0 -266,-266 -266,-532l0 -532 -266 -4255c0,-266 -267,-798 -267,-1064l0 -2128c-266,-266 0,-1063 -266,-1595 -799,266 -1331,2659 -1331,3191 -267,1064 -1598,5851 -2131,6915l-799 2660c0,266 -266,532 0,798 267,532 2930,532 3462,266 1332,-266 799,-532 799,-1596l0 -3724 266 266 0 798c0,2660 0,5320 267,7713 -267,-266 0,-266 -533,0 -533,532 -1331,532 -2130,266 -1066,-266 -2131,-1063 -3196,-1329l-266 1595c266,0 266,0 532,266l2930 266c799,0 2929,532 3462,266 0,266 0,0 266,266l266 266 -532 0c-799,0 -2131,-266 -2930,-266 -1331,-266 -2663,-266 -3728,-532l-266 266 0 -266c0,-266 0,0 0,0l-267 -266c0,-798 267,-1330 533,-2128l266 -1595 267 -266 0 -532c532,0 266,266 266,266 0,-266 -266,0 -266,-266 0,-266 266,-798 266,-798l0 -532c266,-532 799,-2394 799,-2660l0 -266 266 -532c267,-532 267,-1330 533,-1861 0,-266 266,-1064 266,-1330l533 -2394 266 -1330c0,-266 267,0 0,-266 267,-266 533,-1862 533,-2394 -266,0 -266,0 -266,-266l-267 1c-266,-266 0,-266 -266,-266 799,0 266,266 799,266 266,266 0,0 532,266l267 0z"/>
   <path class="fil4" d="M88755 43363c-267,532 -267,2660 -267,3458 267,532 0,1330 267,1862 0,532 0,1064 -267,1596l0 3723c0,1064 533,1330 -799,1596 -532,266 -3195,266 -3462,-266 -266,-266 0,-532 0,-798l799 -2660c533,-1063 1864,-5851 2131,-6915 0,-532 532,-2925 1331,-3191 267,532 0,1329 267,1595zm798 11437l0 -1330c-266,-532 -266,-1064 0,-1596 0,-532 -266,-1063 0,-1595 267,-266 1066,-798 1598,-532 799,266 1598,4787 1598,5053 -533,266 -1598,532 -2130,532 -799,0 -533,-266 -1066,-532z"/>
   <path class="fil9" d="M89553 51874c-266,532 -266,1064 0,1596l0 1330 267 2128c0,266 266,2925 532,3457l267 0 -267 532 -266 -266c-266,-266 -266,0 -266,-266 -533,-266 -799,-798 -799,-1330 -267,-2393 -267,-5053 -267,-7713l0 -798 -266 -266c266,-531 266,-1063 266,-1595 -266,-532 0,-1330 -266,-1862 0,-798 0,-2926 266,-3458l0 2128c0,266 267,798 267,1064l266 4255 0 532c0,266 0,532 266,532l0 0z"/>
   <path class="fil10" d="M84227 60651l-1331 -266 266 -266c1065,266 2397,266 3728,532 799,0 2131,266 2930,266l532 0 267 -532c0,-266 0,-266 -267,-532l0 -532c799,-266 2131,0 3196,0 1065,0 2130,0 2929,-266 267,-266 267,-532 0,-532 0,-532 0,-532 -266,-798 -266,-266 -266,-266 -266,-798 532,-266 1597,266 2396,266 533,266 1598,266 1865,0 0,-266 0,-266 -267,-532 0,-266 -266,-266 -266,-532l-533 -531c0,-266 -3462,-5054 -3994,-5852l-1065 -1595c-267,-266 -267,-266 -267,-532 -266,0 -266,-266 -266,-266 -533,-798 -799,-1330 -1332,-1862 0,0 0,-266 -266,-266 0,-266 0,-266 -266,-532l-1598 -2660c799,532 1065,1330 1331,1862 1332,2660 9055,12766 9321,13564 -799,798 -2397,0 -3462,-266 -533,0 -1065,266 -799,798 1065,1330 799,1596 -799,1596l-1597 0c-1066,0 -2663,-266 -3196,266 0,266 266,798 0,1330 -799,266 -5326,-266 -6658,-532z"/>
   <path class="fil9" d="M92483 49481c266,266 266,798 532,1063 0,532 1066,3724 1066,3990 0,266 266,532 266,1064 266,0 266,266 266,266l0 266c267,532 267,798 533,1064 266,266 799,1063 1065,1329 0,266 0,266 -266,266 0,-266 -1332,-1329 -1332,-1329l-799 -798c0,-266 -266,-266 -266,-532 -533,-532 -533,-2128 -799,-2660 0,-798 -533,-3723 -1065,-4521 0,-266 -533,-2128 -799,-2394 -266,-532 -799,-2128 -799,-2660 533,1064 266,798 799,1862l1598 3724 0 0z"/>
   <path class="fil4" d="M90086 43895c0,532 533,2128 799,2660 266,266 799,2128 799,2394 -266,532 -1332,798 -2131,532 0,-1064 -266,-2394 -266,-3458l0 -798c0,-532 -266,-2128 -266,-2393 799,0 532,797 1065,1063l0 0zm5859 14894c-1332,266 -4527,-266 -5326,0 -267,0 -267,266 -267,266 0,266 -266,266 0,266l0 532c267,266 267,266 267,532l-267 0c-266,-532 -532,-3191 -532,-3457 532,-266 1864,0 2396,266 2397,1063 1865,0 2397,266 0,0 1332,1063 1332,1329l0 0zm3195 -3191l533 532c0,266 266,266 266,532 -1065,798 -3195,-266 -3728,-266 -533,0 -533,532 -533,798l267 0 0 -266c0,532 0,532 266,798 266,266 266,266 266,798l-266 0c-266,-266 -799,-1064 -1065,-1330 -266,-266 -267,-532 -533,-1064 0,-532 533,-798 799,-1064 266,0 799,-266 1332,-266 266,0 799,266 1331,266l799 532 266 0zm-10119 3457c0,532 266,1064 799,1330 -533,266 -2663,-266 -3462,-266l-2929 -266c-267,-266 -267,-266 -533,-266l266 -1596c1065,266 2131,1064 3196,1330 799,266 1598,266 2130,-266 533,-266 267,-266 533,0l0 0zm5060 -4521c0,-266 -1066,-3458 -1066,-3990 -266,-266 -266,-797 -532,-1063l266 -266c799,532 2131,1329 2397,2127 266,532 -266,2394 -799,2926 -266,532 0,266 -266,266z"/>
   <path class="fil9" d="M90352 59321c-266,0 0,0 0,-266 0,0 0,-266 267,-266 799,-266 3994,266 5326,0 266,0 266,0 266,-266l266 1c267,0 267,266 0,532 -799,265 -1864,265 -2929,265 -1065,0 -2397,-265 -3196,0l0 0zm5593 -2393l0 266 -267 0c0,-266 0,-798 533,-798 533,0 2663,1064 3728,266 267,266 267,266 267,532 -267,266 -1332,266 -1864,0 -799,0 -1865,-532 -2397,-266l0 0z"/>
  </g>
  <path class="fil19" d="M78622 42300c5593,0 10120,4521 10120,9840 0,5586 -4527,9841 -10120,9841 -5592,0 -9853,-4255 -9853,-9841 0,-5319 4261,-9840 9853,-9840z"/>
  <g id="_430570704">
   <path class="fil17" d="M82883 42832c2397,797 4261,-1330 5060,-1596 1707,71 3935,9974 0,6117 -266,0 -4794,-4256 -5060,-4521z"/>
   <g>
    <path class="fil11" d="M89541 52140c-267,0 -267,266 -267,532 0,0 -266,266 -266,532 0,0 -266,798 -533,1064l0 -1330c0,-1329 -266,-2659 -532,-3723 -267,-1064 -1065,-2394 -1864,-3192l-267 -266c0,0 267,0 533,266 266,0 799,532 1065,798 533,266 1598,1330 2131,798 532,-532 0,-3192 -267,-3989l-266 -798 0 -266 266 0c1865,2659 1332,6117 533,8776 -266,266 -266,532 -266,798z"/>
    <path class="fil30" d="M71432 44959c0,266 -1065,798 -1331,1064 -1864,798 -2131,266 -1598,-1596 0,-266 533,-1595 533,-1595 0,531 -799,1861 0,2393 266,266 799,266 1331,266 266,-266 799,-266 1065,-532zm-266 -3989l0 798c0,-266 -266,-266 -266,-266l-267 0c267,0 267,266 267,266l-533 0 0 -266 -1065 0c-267,0 0,0 0,0 -267,0 -1065,798 -1065,1064 0,0 0,-266 0,0l-267 1063c-266,798 -532,3192 -266,3990 533,532 1598,-532 2130,-798 267,-266 799,-798 1332,-1064 0,0 266,-266 266,0 267,-266 267,-266 533,-266l266 798 0 266c267,-266 267,0 267,0 0,266 266,266 266,266 532,798 532,798 1331,1596 267,266 799,532 799,-266 0,-532 -266,-1064 -266,-1330l0 -266 -266 -532c-267,0 -267,0 0,0 -267,-266 0,0 0,0l-267 -532 799 798c799,798 2131,1596 3462,1862 799,266 3196,798 4261,266 533,-266 799,-532 533,-1330l-267 0c533,0 1598,-266 1864,0 -266,-266 -532,-798 -532,-798l-533 0c-533,-266 -1065,-266 -1331,-532l-799 -532c0,532 266,1064 0,1596 -533,1330 -2131,798 -3196,532l-1331 -798 532 266 799 0c799,266 2130,266 2397,-532 532,-532 266,-798 266,-1596 533,532 1065,798 1864,798 799,266 1332,0 1864,-532 1066,-1064 -266,-2659 -799,-3457 533,266 1598,798 2131,266 266,-266 -266,-532 -533,-798 -266,0 -799,-532 -1065,-532l266 0c0,-266 -1331,-532 -1331,-798 -533,0 -1332,-266 -1864,-266 -1332,-266 -2397,-532 -3995,-532 -1598,266 -3462,798 -5060,1330 -266,266 -1331,798 -1331,798l0 0z"/>
    <path class="fil18" d="M86611 47087c267,-266 267,-266 533,-798 0,-266 0,-532 -266,-1064 532,0 799,-266 1065,-532 1065,-1330 -533,-2925 -533,-3191 -266,0 -266,266 -532,0 -533,-266 -1332,-798 -2131,-1064 266,0 533,266 799,266l533 532c266,0 799,532 799,1064 -267,266 -1598,-266 -2131,-266 267,0 267,266 533,266 1065,1063 1598,2659 0,3723l-266 0 -486 966 765 -120c266,0 -300,129 7,143 0,266 246,-191 -20,-191 0,266 1065,266 1331,266z"/>
   </g>
  </g>
 </g>
</svg>
