<svg xmlns="http://www.w3.org/2000/svg" width="450" height="360" viewBox="0 0 450 360" xmlns:xlink="http://www.w3.org/1999/xlink" shape-rendering="geometricPrecision" text-rendering="geometricPrecision" image-rendering="optimizeQuality" fill-rule="evenodd" clip-rule="evenodd"><defs><style>.str4{stroke-opacity:.20000}.str4,.str0{stroke:#000;stroke-width:2.36222}.str3{stroke:#2e2e2d;stroke-width:2.08348}.str1{stroke:#ba2b2b}.str1,.str2{stroke-width:.900005}.str2{stroke:#2e2e2d}.fil0{fill:none}.fil4{fill:#fefefe}.fil15{fill:#c42b2b}.fil28{fill:#ba2b2b}.fil11{fill:#fafbfb}.fil27{fill:#fafafb}.fil8{fill:#692823}.fil5{fill:#e2e2e2}.fil6{fill:#b2b2b2}.fil1{fill:#b2b3b3}.fil2{fill:#999}.fil3{fill:#646464}.fil29{fill:#3b3936}.fil10{fill:#2e2e2d}.fil30{fill:#000}.fil14{fill:#afb0af}.fil17{fill:#c14e16}.fil19{fill:#c25018}.fil26{fill:#c3511a}.fil25{fill:#cc5718}.fil24{fill:#cd581a}.fil20{fill:#e0681b}.fil23{fill:#e7986f}.fil18{fill:#ef925a}.fil22{fill:#f2751e}.fil13{fill:#fefefe}.fil21{fill:#ffa15f}.fil12,.fil31{fill:#fff}.fil7{fill:#c42c2a}.fil7,.fil16{fill-rule:nonzero}.fil16{fill:#ba2b2b}.fil9{fill:#6d2314}.fil9,.fil32{fill-rule:nonzero}.fil32{fill:#ff0}.fil33{fill:#C93;fill-opacity:.20000}</style><clipPath id="id0" clip-rule="nonzero"><path d="M337 277h82.046v.92H337z"/></clipPath><clipPath id="id1" clip-rule="nonzero"><path d="M337.013 548.58h82.046V278.116h-82.047z"/></clipPath><clipPath id="id2" clip-rule="nonzero"><path d="M335 276h83.964v.925H335z"/></clipPath><clipPath id="id3" clip-rule="nonzero"><path d="M335.094 546.483h83.964V277.418h-83.964z"/></clipPath><clipPath id="id4" clip-rule="nonzero"><path d="M334 276h85.244v.918H334z"/></clipPath><clipPath id="id5" clip-rule="nonzero"><path d="M333.815 544.386h85.244V276.714h-85.245z"/></clipPath><clipPath id="id6" clip-rule="nonzero"><path d="M333 275h85.882v.922H333z"/></clipPath><clipPath id="id7" clip-rule="nonzero"><path d="M333.176 542.277h86.11V276.19h-86.11z"/></clipPath><clipPath id="id8" clip-rule="nonzero"><path d="M332 274h87.162v.92H332z"/></clipPath><clipPath id="id9" clip-rule="nonzero"><path d="M331.896 540.18h86.963V275.025h-86.964z"/></clipPath><clipPath id="id10" clip-rule="nonzero"><path d="M331 274h88.443v.92H331z"/></clipPath><clipPath id="id11" clip-rule="nonzero"><path d="M330.615 538.082h88.668V274.796h-88.668z"/></clipPath><clipPath id="id12" clip-rule="nonzero"><path d="M329 273h89.72v.92H329z"/></clipPath><clipPath id="id13" clip-rule="nonzero"><path d="M329.34 535.974h89.52V273.622h-89.52z"/></clipPath><clipPath id="id14" clip-rule="nonzero"><path d="M91 132h328.227v.92H91z"/></clipPath><clipPath id="id15" clip-rule="nonzero"><path d="M90.83 132.223h328.226v-17.636H90.83z"/></clipPath><clipPath id="id16" clip-rule="nonzero"><path d="M90 132h329.504v.92H90z"/></clipPath><clipPath id="id17" clip-rule="nonzero"><path d="M89.552 131.522h329.504v-19.04H89.552z"/></clipPath><clipPath id="id18" clip-rule="nonzero"><path d="M88 131h330.785v.922H88z"/></clipPath><clipPath id="id19" clip-rule="nonzero"><path d="M88.272 130.82h330.784v-20.434H88.272z"/></clipPath><clipPath id="id20" clip-rule="nonzero"><path d="M87 130h332.063v.92H87z"/></clipPath><clipPath id="id21" clip-rule="nonzero"><path d="M86.993 130.12h332.063v-21.835H86.993z"/></clipPath><clipPath id="id22" clip-rule="nonzero"><path d="M86 129h332.703v.92H86z"/></clipPath><clipPath id="id23" clip-rule="nonzero"><path d="M86.353 129.42h332.703v-23.24H86.353z"/></clipPath><clipPath id="id24" clip-rule="nonzero"><path d="M85 129h333.982v.92H85z"/></clipPath><clipPath id="id25" clip-rule="nonzero"><path d="M85.075 128.72h333.98v-24.64H85.076z"/></clipPath><clipPath id="id26" clip-rule="nonzero"><path d="M84 128h335.26v.92H84z"/></clipPath><clipPath id="id27" clip-rule="nonzero"><path d="M83.797 128.02h335.26v-26.037H83.796z"/></clipPath><clipPath id="id28" clip-rule="nonzero"><path d="M83 127h336.538v.92H83z"/></clipPath><clipPath id="id29" clip-rule="nonzero"><path d="M82.518 127.32h336.538V99.88H82.518z"/></clipPath><clipPath id="id30" clip-rule="nonzero"><path d="M81 127h337.818v.92H81z"/></clipPath><clipPath id="id31" clip-rule="nonzero"><path d="M81.238 126.62h337.818V97.774H81.238z"/></clipPath><clipPath id="id32" clip-rule="nonzero"><path d="M80 126h339.097v.922H80z"/></clipPath><clipPath id="id33" clip-rule="nonzero"><path d="M79.96 125.918h339.096v-30.24H79.96z"/></clipPath><clipPath id="id34" clip-rule="nonzero"><path d="M79 125h340.375v.92H79z"/></clipPath><clipPath id="id35" clip-rule="nonzero"><path d="M78.68 125.22h340.376V93.577H78.68z"/></clipPath><clipPath id="id36" clip-rule="nonzero"><path d="M78 125h341.016v.92H78z"/></clipPath><clipPath id="id37" clip-rule="nonzero"><path d="M78.04 124.52h341.016V91.48H78.04z"/></clipPath><clipPath id="id38" clip-rule="nonzero"><path d="M77 124h342.294v.922H77z"/></clipPath><clipPath id="id39" clip-rule="nonzero"><path d="M76.763 123.818h342.293V89.37H76.763z"/></clipPath><clipPath id="id40" clip-rule="nonzero"><path d="M75 123h343.573v.92H75z"/></clipPath><clipPath id="id41" clip-rule="nonzero"><path d="M75.484 123.117h343.572V87.274H75.484z"/></clipPath><clipPath id="id42" clip-rule="nonzero"><path d="M74 122h344.852v.92H74z"/></clipPath><clipPath id="id43" clip-rule="nonzero"><path d="M74.204 122.418h344.852V85.17H74.204z"/></clipPath><clipPath id="id44" clip-rule="nonzero"><path d="M73 122h346.13v.92H73z"/></clipPath><clipPath id="id45" clip-rule="nonzero"><path d="M72.925 121.717h346.13V83.07H72.926z"/></clipPath><clipPath id="id46" clip-rule="nonzero"><path d="M72 121h347.41v.922H72z"/></clipPath><clipPath id="id47" clip-rule="nonzero"><path d="M71.647 121.016h347.41V80.97H71.646z"/></clipPath><clipPath id="id48" clip-rule="nonzero"><path d="M70 120h348.688v.918H70z"/></clipPath><clipPath id="id49" clip-rule="nonzero"><path d="M70.368 120.318h348.688v-41.45H70.368z"/></clipPath><clipPath id="id50" clip-rule="nonzero"><path d="M70 120h349.327v.92H70z"/></clipPath><clipPath id="id51" clip-rule="nonzero"><path d="M69.73 119.616h349.326v-42.85H69.73z"/></clipPath><clipPath id="id52" clip-rule="nonzero"><path d="M68 119h350.606v.92H68z"/></clipPath><clipPath id="id53" clip-rule="nonzero"><path d="M68.45 118.915h350.606V74.668H68.45z"/></clipPath><clipPath id="id54" clip-rule="nonzero"><path d="M67 118h351.885v.92H67z"/></clipPath><clipPath id="id55" clip-rule="nonzero"><path d="M67.17 118.216h351.886v-45.65H67.17z"/></clipPath><clipPath id="id56" clip-rule="nonzero"><path d="M80 122h329.08v.697H80z"/></clipPath><clipPath id="id57" clip-rule="nonzero"><path d="M80.39 121.54h329.08V92.32H80.39z"/></clipPath><clipPath id="id58" clip-rule="nonzero"><path d="M79 121h330.296v.697H79z"/></clipPath><clipPath id="id59" clip-rule="nonzero"><path d="M79.174 121.01H409.47V90.733H79.173z"/></clipPath><clipPath id="id60" clip-rule="nonzero"><path d="M78 120h331.512v.694H78z"/></clipPath><clipPath id="id61" clip-rule="nonzero"><path d="M77.957 120.482H409.47v-31.34H77.956z"/></clipPath><clipPath id="id62" clip-rule="nonzero"><path d="M77 120h332.12v.696H77z"/></clipPath><clipPath id="id63" clip-rule="nonzero"><path d="M77.35 119.952h332.12v-32.4H77.35z"/></clipPath><clipPath id="id64" clip-rule="nonzero"><path d="M76 119h333.335v.697H76z"/></clipPath><clipPath id="id65" clip-rule="nonzero"><path d="M76.134 119.42H409.47V85.966H76.133z"/></clipPath><clipPath id="id66" clip-rule="nonzero"><path d="M75 119h334.55v.696H75z"/></clipPath><clipPath id="id67" clip-rule="nonzero"><path d="M74.917 118.893H409.47V84.377H74.916z"/></clipPath></defs><g id="Слой_x0020_1"><path class="fil0 str0" d="M1 5h451v356H1z"/><g id="_793577312"><path class="fil1" d="M417 343V125L235 15 57 124v219z"/><path class="fil2" d="M69 101l169-68 165 68v176H69z"/><path class="fil3" d="M111 118h44v160h-44zM318 118h43v160h-43z"/><g clip-path="url(#id0)"><image transform="matrix(.85258 0 0 -.93364 337.013 549.502)" width="96.237" height=".987" xlink:href="4.svg_Images\4.svg_ImgID1.png" clip-path="url(#id1)"/></g><g clip-path="url(#id2)"><image transform="matrix(.85258 0 0 -.93364 335.094 547.405)" width="98.487" height=".987" xlink:href="4.svg_Images\4.svg_ImgID2.png" clip-path="url(#id3)"/></g><g clip-path="url(#id4)"><image transform="matrix(.85258 0 0 -.93364 333.815 545.308)" width="99.987" height=".987" xlink:href="4.svg_Images\4.svg_ImgID3.png" clip-path="url(#id5)"/></g><g clip-path="url(#id6)"><image transform="matrix(.85258 0 0 -.93364 333.176 543.198)" width="100.737" height=".987" xlink:href="4.svg_Images\4.svg_ImgID4.png" clip-path="url(#id7)"/></g><g clip-path="url(#id8)"><image transform="matrix(.85258 0 0 -.93364 331.896 541.1)" width="102.236" height=".987" xlink:href="4.svg_Images\4.svg_ImgID5.png" clip-path="url(#id9)"/></g><g clip-path="url(#id10)"><image transform="matrix(.85258 0 0 -.93364 330.615 539.004)" width="103.737" height=".987" xlink:href="4.svg_Images\4.svg_ImgID6.png" clip-path="url(#id11)"/></g><g clip-path="url(#id12)"><image transform="matrix(.85258 0 0 -.93364 329.34 536.896)" width="105.236" height=".987" xlink:href="4.svg_Images\4.svg_ImgID7.png" clip-path="url(#id13)"/></g><g clip-path="url(#id14)"><image transform="matrix(.85258 0 0 -.93364 90.83 114.587)" width="384.985" height=".987" xlink:href="4.svg_Images\4.svg_ImgID8.png" clip-path="url(#id15)"/></g><g clip-path="url(#id16)"><image transform="matrix(.85258 0 0 -.93364 89.552 112.484)" width="386.482" height=".987" xlink:href="4.svg_Images\4.svg_ImgID9.png" clip-path="url(#id17)"/></g><g clip-path="url(#id18)"><image transform="matrix(.85258 0 0 -.93364 88.272 110.387)" width="387.984" height=".987" xlink:href="4.svg_Images\4.svg_ImgID10.png" clip-path="url(#id19)"/></g><g clip-path="url(#id20)"><image transform="matrix(.85258 0 0 -.93364 86.993 108.284)" width="389.482" height=".987" xlink:href="4.svg_Images\4.svg_ImgID11.png" clip-path="url(#id21)"/></g><g clip-path="url(#id22)"><image transform="matrix(.85258 0 0 -.93364 86.353 106.18)" width="390.232" height=".987" xlink:href="4.svg_Images\4.svg_ImgID12.png" clip-path="url(#id23)"/></g><g clip-path="url(#id24)"><image transform="matrix(.85258 0 0 -.93364 85.075 104.08)" width="391.734" height=".987" xlink:href="4.svg_Images\4.svg_ImgID13.png" clip-path="url(#id25)"/></g><g clip-path="url(#id26)"><image transform="matrix(.85258 0 0 -.93364 83.797 101.982)" width="393.232" height=".987" xlink:href="4.svg_Images\4.svg_ImgID14.png" clip-path="url(#id27)"/></g><g clip-path="url(#id28)"><image transform="matrix(.85258 0 0 -.93364 82.518 99.88)" width="394.734" height=".987" xlink:href="4.svg_Images\4.svg_ImgID15.png" clip-path="url(#id29)"/></g><g clip-path="url(#id30)"><image transform="matrix(.85258 0 0 -.93364 81.238 97.776)" width="396.234" height=".987" xlink:href="4.svg_Images\4.svg_ImgID16.png" clip-path="url(#id31)"/></g><g clip-path="url(#id32)"><image transform="matrix(.85258 0 0 -.93364 79.96 95.678)" width="397.734" height=".987" xlink:href="4.svg_Images\4.svg_ImgID17.png" clip-path="url(#id33)"/></g><g clip-path="url(#id34)"><image transform="matrix(.85258 0 0 -.93364 78.68 93.577)" width="399.234" height=".987" xlink:href="4.svg_Images\4.svg_ImgID18.png" clip-path="url(#id35)"/></g><g clip-path="url(#id36)"><image transform="matrix(.85258 0 0 -.93364 78.04 91.48)" width="399.984" height=".987" xlink:href="4.svg_Images\4.svg_ImgID19.png" clip-path="url(#id37)"/></g><g clip-path="url(#id38)"><image transform="matrix(.85258 0 0 -.93364 76.763 89.37)" width="401.482" height=".987" xlink:href="4.svg_Images\4.svg_ImgID20.png" clip-path="url(#id39)"/></g><g clip-path="url(#id40)"><image transform="matrix(.85258 0 0 -.93364 75.484 87.274)" width="402.984" height=".987" xlink:href="4.svg_Images\4.svg_ImgID21.png" clip-path="url(#id41)"/></g><g clip-path="url(#id42)"><image transform="matrix(.85258 0 0 -.93364 74.204 85.17)" width="404.482" height=".987" xlink:href="4.svg_Images\4.svg_ImgID22.png" clip-path="url(#id43)"/></g><g clip-path="url(#id44)"><image transform="matrix(.85258 0 0 -.93364 72.925 83.07)" width="405.984" height=".987" xlink:href="4.svg_Images\4.svg_ImgID23.png" clip-path="url(#id45)"/></g><g clip-path="url(#id46)"><image transform="matrix(.85258 0 0 -.93364 71.647 80.972)" width="407.484" height=".987" xlink:href="4.svg_Images\4.svg_ImgID24.png" clip-path="url(#id47)"/></g><g clip-path="url(#id48)"><image transform="matrix(.85258 0 0 -.93364 70.368 78.87)" width="408.982" height=".987" xlink:href="4.svg_Images\4.svg_ImgID25.png" clip-path="url(#id49)"/></g><g clip-path="url(#id50)"><image transform="matrix(.85258 0 0 -.93364 69.73 76.765)" width="409.732" height=".987" xlink:href="4.svg_Images\4.svg_ImgID26.png" clip-path="url(#id51)"/></g><g clip-path="url(#id52)"><image transform="matrix(.85258 0 0 -.93364 68.45 74.668)" width="411.234" height=".987" xlink:href="4.svg_Images\4.svg_ImgID27.png" clip-path="url(#id53)"/></g><g clip-path="url(#id54)"><image transform="matrix(.85258 0 0 -.93364 67.17 72.567)" width="412.732" height=".987" xlink:href="4.svg_Images\4.svg_ImgID28.png" clip-path="url(#id55)"/></g><path class="fil4" d="M67 115h29v163H67z"/><path class="fil5" d="M67 130h29v25l-29-17z"/><path class="fil4" d="M62 278h38v-10H62zM172 115h29v163h-29z"/><path class="fil4" d="M167 278h38v-10h-38zM270 115h29v163h-29z"/><path class="fil4" d="M265 278h38v-10h-38zM375 115h29v163h-29z"/><path class="fil6" d="M370 278h38v-10h-38z"/><path class="fil4" d="M370 278h38v-10h-38z"/><path class="fil5" d="M172 130l28 1 1 24-29-17zM270 130l28 1 1 24-29-17zM375 130l28 1 1 24-29-17z"/><path class="fil4" d="M58 118h48v14H58z"/><path class="fil4" d="M61 117c6 0 10 5 10 11s-4 11-10 11c-5 0-10-5-10-11s5-11 10-11zM101 117c6 0 10 5 10 11s-4 11-10 11c-5 0-10-5-10-11s5-11 10-11z"/><path class="fil5" d="M61 121c3 0 6 3 6 7s-3 7-6 7-6-3-6-7 3-7 6-7zM101 121c4 0 6 3 6 7s-2 7-6 7c-3 0-6-3-6-7s3-7 6-7z"/><path class="fil4" d="M163 118h48v14h-48z"/><path class="fil4" d="M166 117c6 0 10 5 10 11s-4 11-10 11c-5 0-10-5-10-11s5-11 10-11zM206 117c6 0 10 5 10 11s-4 11-10 11c-5 0-10-5-10-11s5-11 10-11z"/><path class="fil5" d="M166 121c3 0 6 3 6 7s-3 7-6 7-6-3-6-7 3-7 6-7zM206 121c4 0 6 3 6 7s-2 7-6 7c-3 0-6-3-6-7s3-7 6-7z"/><path class="fil4" d="M261 118h48v14h-48z"/><path class="fil4" d="M264 117c6 0 10 5 10 11s-4 11-10 11-10-5-10-11 4-11 10-11zM304 117c6 0 10 5 10 11s-4 11-10 11c-5 0-10-5-10-11s5-11 10-11z"/><path class="fil5" d="M264 121c3 0 6 3 6 7s-3 7-6 7-6-3-6-7 3-7 6-7zM304 121c3 0 6 3 6 7s-3 7-6 7-6-3-6-7 3-7 6-7z"/><path class="fil4" d="M366 118h48v14h-48z"/><path class="fil4" d="M369 117c6 0 10 5 10 11s-4 11-10 11-10-5-10-11 4-11 10-11zM409 117c6 0 10 5 10 11s-4 11-10 11c-5 0-10-5-10-11s5-11 10-11z"/><path class="fil5" d="M369 121c3 0 6 3 6 7s-3 7-6 7-6-3-6-7 3-7 6-7zM409 121c3 0 6 3 6 7s-3 7-6 7-6-3-6-7 3-7 6-7z"/><g><g clip-path="url(#id56)"><image transform="matrix(.81058 0 0 -.70594 80.39 92.318)" width="405.984" height=".987" xlink:href="4.svg_Images\4.svg_ImgID29.png" clip-path="url(#id57)"/></g><g clip-path="url(#id58)"><image transform="matrix(.81058 0 0 -.70594 79.174 90.732)" width="407.484" height=".987" xlink:href="4.svg_Images\4.svg_ImgID30.png" clip-path="url(#id59)"/></g><g clip-path="url(#id60)"><image transform="matrix(.81058 0 0 -.70594 77.957 89.14)" width="408.982" height=".987" xlink:href="4.svg_Images\4.svg_ImgID31.png" clip-path="url(#id61)"/></g><g clip-path="url(#id62)"><image transform="matrix(.81058 0 0 -.70594 77.35 87.55)" width="409.732" height=".987" xlink:href="4.svg_Images\4.svg_ImgID32.png" clip-path="url(#id63)"/></g><g clip-path="url(#id64)"><image transform="matrix(.81058 0 0 -.70594 76.134 85.965)" width="411.234" height=".987" xlink:href="4.svg_Images\4.svg_ImgID33.png" clip-path="url(#id65)"/></g><g clip-path="url(#id66)"><image transform="matrix(.81058 0 0 -.70594 74.917 84.376)" width="412.732" height=".987" xlink:href="4.svg_Images\4.svg_ImgID34.png" clip-path="url(#id67)"/></g><path class="fil7" d="M236 15l4 2 185 89-5 13h-26L236 43 79 118H51l-5-12 185-89z"/><path class="fil8" d="M236 29l184 90H236zM236 29L51 118l185 1z"/><path class="fil4" d="M66 114c1 2 170-81 170-81l166 81H66z"/><path class="fil7" d="M46 106h380v13H46z"/><path class="fil5" d="M85 106l151-73 149 73h-10L242 41l-137 65z"/><path class="fil8" d="M46 119h380v-4H46z"/><path class="fil9" d="M199 83c4 1 5 3 5 6s-1 5-3 7-5 3-9 3c-6 0-10-3-12-9h8c1 2 2 3 4 3 1 0 2-1 3-1 1-1 1-2 1-3s-1-2-1-2c-1-1-2-1-3-1h-3v-5h2c1 0 2-1 3-1 0-1 1-2 1-3s-1-2-3-2-3 1-4 3l-7-1c1-5 5-8 11-8 3 0 6 1 8 3 2 1 3 3 3 5 0 3-1 5-4 6z"/><path id="1" class="fil9" d="M225 93h-9l-2 5h-8l10-28h9l11 28h-9l-2-5zm-1-6l-3-10-3 10h6z"/><path id="2" class="fil9" d="M260 77h-13v21h-9V70h22z"/><path id="3" class="fil9" d="M282 87l8 2c-1 2-1 4-3 5-1 2-2 3-4 3-1 1-3 2-6 2s-5-1-7-2-3-2-5-4c-1-3-2-6-2-9 0-5 1-8 4-11 2-2 6-4 10-4 3 0 6 1 8 3 2 1 4 3 5 6l-8 2c0-1 0-2-1-2 0-1-1-1-1-1-1-1-2-1-3-1-2 0-3 1-4 2-1 2-1 3-1 6s0 5 1 6 2 2 4 2 3 0 4-1c0-1 1-3 1-4z"/></g><path class="fil4" d="M124 224h93.67v115.5H124z"/><path class="fil10" d="M112 224h16l42 93 46-93h17c11-1 20 9 20 19v100H92V243c0-10 9-20 20-19z"/><path class="fil11" d="M284 232h62c12 0 23 12 23 26v80c0 2 0 4-1 5H262v-85c0-14 10-26 22-26z"/><path class="fil12" d="M363 237c-5 9-27 28-36 37-3 4-9 10-12 12-2-1-43-40-45-46-6-4-3-7-13-1-4 2-8 6-8 11 0 13 5 20 4 34 3 3 4 4 9 6 17 6 10-1 18 17 5 11 3 26-2 36h74c-5-10-7-24-3-36 8-19 5-13 18-17 4-1 6-3 9-5 0-17 7-38 1-44l-11-6-3 2z"/><g><path class="fil12" d="M282 141l-1 1h-1c-1 1-1 1-1 2-2-2-2-1-4 0l-1 1-6 10c-1 1-1 1-1 2-1 0-1 1-1 1-2 2-3 4-5 7 0 0 0 1-1 1 0 1 0 1-1 2l-4 6c-2 3-15 21-15 22h1l3-2c2 0 4-1 5-1 2 0 4 1 5 1 1 1 3 2 3 4v-1s0-1 1-1c0-2 1-3 1-4-1 0 0 1-1-1-2-2-4-9-3-11 1-3 6-6 9-8l1 1 6-14c2-4 1-3 3-7 2-1 1-4 4-4 0 1-1 7-1 9v3c0 4-1 9-1 13-3 1-7 0-8-2-2 3-4 14-4 17-1 2-1 8-3 10 0 1-1 1-1 2l-3 3c2-1 0 3 9-1 2-1 7-2 9-1l1-8c-2 1-1 2-4 2-2 0-6-1-8-2 0-1 3-18 6-19 2-1 5 1 6 2 1 2 0 4 0 6 1 0 1-1 1-2v-2l1-16c0-1 1-3 1-4v-8c1-1 0-4 1-6 3 1 5 10 5 12 1 4 6 22 8 26l3 10c0 1 1 2 0 3-1 2-11 2-13 1-5-1-3-2-3-6v-14l-1 1v3c0 10 0 20-1 29 1-1 0-1 2 0 2 2 5 2 8 1 4-1 8-4 12-5l1 6c-1 0-1 0-2 1l-11 1c-3 0-11 2-13 1 0 1 0 0-1 1l-1 1h2c3 0 8-1 11-1 5-1 10-1 14-2l1 1v-1c0-1 0 0 0 0l1-1c0-3-1-5-2-8l-1-6-1-1v-2c-2 0-1 1-1 1 0-1 1 0 1-1s-1-3-1-3v-2c-1-2-3-9-3-10v-1l-1-2c-1-2-1-5-2-7 0-1-1-4-1-5l-2-9-1-5c0-1-1 0 0-1-1-1-2-7-2-9 1 0 1 0 1-1h1c1-1 0-1 1-1-3 0-1 1-3 1-1 1 0 0-2 1h-1z"/><path class="fil13" d="M279 150c1 2 1 10 1 13-1 2 0 5-1 7 0 2 0 4 1 6v14c0 4-2 5 3 6 2 1 12 1 13-1 1-1 0-2 0-3l-3-10c-2-4-7-22-8-26 0-2-2-11-5-12-1 2 0 5-1 6zM276 193v-5c1-2 1-4 0-6 0-2 1-4 0-6-1-1-4-3-6-2-3 1-6 18-6 19 2 1 6 2 8 2 3 0 2-1 4-2z"/><path class="fil12" d="M276 182c1 2 1 4 0 6v5l-1 8c0 1-1 11-2 13h-1l1 2 1-1c1-1 1 0 1-1 2-1 3-3 3-5 1-9 1-19 1-29v-3l1-1c-1-2-1-4-1-6 1-2 0-5 1-7 0-3 0-11-1-13v8c0 1-1 3-1 4l-1 16v2c0 1 0 2-1 2z"/><path class="fil14" d="M296 215l5-1-1-1c-4 1-9 1-14 2-3 0-8 1-11 1h-2l-1-2c0-1 0-1 1-2v-2c-3-1-8 0-12 0s-8 0-11-1c-1-1-1-2 0-2 0-2 0-2 1-3s1-1 1-3c-2-1-6 1-9 1-2 1-6 1-7 0 0-1 0-1 1-2 0-1 1-1 1-2l2-2c0-1 13-19 15-22l4-6c1-1 1-1 1-2 1 0 1-1 1-1 2-3 3-5 5-7 0 0 0-1 1-1 0-1 0-1 1-2l6-10c-3 2-4 5-5 7-5 10-34 48-35 51 3 3 9 0 13-1 2 0 4 1 3 3-4 5-3 6 3 6h6c4 0 10-1 12 1 0 1-1 3 0 5 3 1 20-1 25-2z"/><path class="fil12" d="M265 173c-1 1-1 3-2 4 0 2-4 14-4 15s-1 2-1 4c-1 0-1 1-1 1v1c-1 2-1 3-2 4s-3 4-4 5c0 1 0 1 1 1 0-1 5-5 5-5l3-3c0-1 1-1 1-2 2-2 2-8 3-10 0-3 2-14 4-17 0-1 2-8 3-9 1-2 3-8 3-10-2 4-1 3-3 7l-6 14z"/><path class="fil13" d="M274 152c0 2-2 8-3 10-1 1-3 8-3 9 1 2 5 3 8 2 0-4 1-9 1-13v-3c0-2 1-8 1-9-3 0-2 3-4 4zM252 208c5 1 17-1 20 0 1 0 1 1 1 1 0 1 1 1 0 1v2c-1 1-1 1-1 2h1c1-2 2-12 2-13-2-1-7 0-9 1-9 4-7 0-9 1 0 0-5 4-5 5zM240 196l-2 2c0 1-1 1-1 2 4 3 12-1 14-1s2 2 2 3h-1v-1c0 2 0 2-1 3s-1 1-1 3h1c1-1 3-4 4-5s1-2 2-4c0-2-2-3-3-4-1 0-3-1-5-1-1 0-3 1-5 1l-3 2h-1zM278 209c0 2-1 4-3 5 2 1 10-1 13-1l11-1c1-1 1-1 2-1l-1-6c-4 1-8 4-12 5-3 1-6 1-8-1-2-1-1-1-2 0zM259 192c0-1 4-13 4-15 1-1 1-3 2-4l-1-1c-3 2-8 5-9 8-1 2 1 9 3 11 1 2 0 1 1 1z"/><path class="fil12" d="M273 210c1 0 0 0 0-1 0 0 0-1-1-1-3-1-15 1-20 0-1 0-1 0-1-1h-1c-1 0-1 1 0 2 3 1 7 1 11 1s9-1 12 0zM252 201v1h1c0-1 0-3-2-3s-10 4-14 1c-1 1-1 1-1 2 1 1 5 1 7 0 3 0 7-2 9-1z"/></g><path class="fil12" d="M271 241v-3c1 0 2 0 2-1 1 0 1-1 0-2h-2c0-1 2-3 1-3-1-1-2 0-2 0-1 0-1 0-1 1 0 0-1 0-1 1 0-4-2-3-3-2 0 1 1 2 1 3-2 0-4-1-4 1s3 2 4 2c0 0-2 2-1 3 0 1 1 1 2 1s1-1 1-2c1 4 3 2 3 1zM359 241v-3c-1 0-2 0-3-1 0 0 0-1 1-2h2c0-1-2-3-1-3 1-1 2 0 2 0 1 0 1 0 1 1 0 0 1 0 1 1 0-4 2-3 2-2 1 1 0 2 0 3 1 0 4-1 4 1s-3 2-4 2c0 0 2 2 1 3s-2 1-2 1c-1 0-1-1-1-2-1 4-3 2-3 1z"/><path class="fil12" d="M277 249v-3h2c1-1 0-2 0-3h-3c1-1 3-2 2-3s-2 0-3 0c0 1 0 1-1 1v1c-1-4-3-3-3-2 0 2 0 3 1 3-2 0-5 0-5 2 1 2 3 1 5 1 0 1-2 2-1 4h2l1-1c1 3 3 1 3 0zM353 249v-3h-2c-1-1 0-2 0-3h2c0-1-2-2-1-3s2 0 3 0v1c1 0 1 1 1 1 1-4 3-3 3-2 0 2 0 3-1 3 2 0 5 0 5 2-1 2-3 1-5 1 0 1 2 2 1 4h-2c-1 0-1-1-1-1-1 3-3 1-3 0z"/><path class="fil12" d="M284 257v-3h2c1-1 1-2 0-3h-2c0-1 2-3 1-3-1-1-2 0-2 0-1 0-1 1-1 1s-1 0-1 1c0-4-2-3-3-2 0 1 1 2 1 3-2 0-4-1-4 2 0 2 3 1 4 1 0 1-2 2-1 3 0 1 1 1 2 1s1-1 1-2c1 4 3 2 3 1zM346 257v-3h-3c0-1 0-2 1-3h2c0-1-2-3-1-3 1-1 2 0 2 0 1 0 1 1 1 1s1 0 1 1c0-4 2-3 2-2 1 1 0 2 0 3 1 0 4-1 4 2 0 2-3 1-4 1 0 1 2 2 1 3s-2 1-2 1c-1 0-1-1-1-2-1 4-3 2-3 1z"/><path class="fil12" d="M292 265c0-2 0-2-1-4 1 1 2 1 3 0s0-1 0-2c-1-1-1-1-3 0v-1c1 0 3-2 1-3 0 0-1 0-2 1h-1v1c-1-4-3-3-3-1v3c-1-1-4-1-4 1 1 2 3 2 5 1 0 1-2 3-1 4 0 1 1 1 2 0 0 0 1 0 1-1 1 3 3 2 3 1zM338 265c0-2 0-2 1-4-1 1-2 1-3 0s0-1 0-2c1-1 1-1 3 0v-1c-1 0-3-2-2-3 1 0 2 0 3 1h1v1c1-4 3-3 3-1 0 1 0 2-1 3 2-1 5-1 5 1-1 2-3 2-5 1 0 1 2 3 1 4 0 1-1 1-2 0 0 0-1 0-1-1-1 3-3 2-3 1zM301 272v-3c1 0 2 1 2 0 1-1 1-2 0-3h-2c0-1 2-2 1-3s-2 0-2 0l-1 1-1 1c0-4-2-3-3-1 0 1 1 2 1 3-2-1-4-1-4 1s3 1 4 1c0 1-2 2-1 4h2c1 0 1-1 1-1 1 3 3 1 3 0zM329 272v-3c-1 0-2 1-2 0-1-1-1-2 0-3h2c0-1-2-2-1-3s2 0 2 0l1 1 1 1c0-4 2-3 3-1 0 1-1 2-1 3 2-1 4-1 4 1s-3 1-4 1c0 1 2 2 1 4h-2c-1 0-1-1-1-1-1 3-3 1-3 0zM310 280v-3h2c1-1 1-2 0-3h-2c0-1 2-3 1-3-1-1-2 0-3 0v1c-1 0-1 0-1 1 0-4-3-3-3-2s1 2 1 3c-2 0-5-1-4 2 0 2 3 1 4 1 0 1-2 2-1 3 0 1 1 1 2 1s1-1 1-2c1 4 3 2 3 1zM320 280v-3h-2c-1-1-1-2 0-3h2c0-1-2-3-1-3 1-1 2 0 2 0 1 0 1 1 1 1 1 0 1 0 1 1 0-4 2-3 3-2 0 1-1 2-1 3 2 0 5-1 4 2 0 2-3 1-4 1 0 1 2 2 1 3 0 1-1 1-2 1s-1-1-1-2c-1 4-3 2-3 1z"/><path class="fil12" d="M318 288c0-2 0-2-1-4 1 1 2 1 3 0v-2c-2 0-1-1-3 0v-1c1 0 3-2 1-3-1 0-1 1-2 1 0 0-1 0-1 1-1-3-3-3-3-1v3c-1-1-4-1-4 1 1 2 3 2 5 1-1 1-2 3-1 4 0 0 1 1 2 0l1-1c1 3 2 2 3 1z"/><path class="fil12" d="M313 288c0-2 0-2 1-4-1 1-2 1-3 0s0-1 0-2c2 0 1-1 3 0v-1c-1 0-3-2-1-3 1 0 1 1 2 1l1 1c1-3 3-3 3-1v3c1-1 4-1 4 1-1 2-3 2-5 1 0 1 2 3 1 4 0 0-1 1-2 0l-1-1c-1 3-3 2-3 1z"/><g><path class="fil15 str1" d="M315 302c-1-5-1-9 3-11 4-3 8-2 12 0-3-9-19-7-18 4 0 2 1 6 3 7zM293 308c5 0 9 1 11 5 3 4 0 8-2 11 3-2 5-3 6-5 6-10-9-19-15-11zM356 319c-4-6-13-8-12-2 4 1 3 0 5 1h1c-2 0-6 0-6 2-1 2 1 4 3 4s4-1 5-2 2-1 2-2l2-1zM299 292c2 1 3 2 4 3 4-1 2-4 0-6-1-1-5-2-8-2-3 14 7 13 7 9 0-1-2-3-3-4z"/><path class="fil15" d="M342 343h1-1zm7 0h-5l-1-1c1-1 2-2 4-1 1 0 1 1 2 2z"/><path class="fil16" d="M342 343v-1 1h1-1zm7 0c-1-1-1-2-2-2h-2c-1 0-1 0-2 1 0 0 1 0 1 1l-1-1c0-1 1-1 2-1 0 0 1-1 2 0 1 0 2 1 2 2z"/><path class="fil15 str1" d="M317 308c0 1 1 2 2 2 1 1 2 1 3 2 12 3 15-7 12-13-1 2-1 3-2 5-4 5-10 5-15 4zM319 322c4-1 7-2 11-1 3 1 5 3 6 5l1 2c4-16-15-13-18-6zM298 329c-2-1-2-1-4-1-6-3-8-7-8-13-3 3-6 8-1 12 5 5 10 3 14 2h-1z"/><path class="fil15 str1" d="M295 323c-8-2-1-10 0-11 0-2-2-3-4-2-3 1-4 6-3 9 1 4 4 5 8 5l-1-1zM325 306c8 0 9-10 6-13-1-1-4-2-4 0-1 1 1 4 1 6-1 7-7 5-8 5 2 1 2 2 5 2z"/><path class="fil15 str1" d="M310 294c-2 0-4 2-3 5 1 6 13 10 18 8-7-1-12-3-14-11l-1-2zM291 325c2 1 4 2 7 2 2 1 5 1 8 0 7-2 8-8 4-10-2 3-3 6-7 8s-7 1-12 0zM327 287c6 3 9 8 8 15l1-1c6-7 1-14-9-14zM283 317c2-1 4-10 13-12-3-1-9-1-11 1-3 3-3 7-2 11z"/><path class="fil15" d="M323 339c0 4-1 2-4 3 1 0 0 0 1 1h10c2-1 4-3 5-6-1 1-1 1-3 2-4 2-6 1-9 0z"/><path class="fil16" d="M323 339c0 2 0 3-1 3-1-1-2-1-3 0h1c0 1 1 1 2 1h-1-1l-1-1v-1h3c1 0 1 0 1-2 1 0 1 0 2 1 2 0 4 0 7-1l1-1c1-1 1-1 2-1-1 2-1 3-2 4s-2 2-3 2h-1c2 0 3-1 3-2 1-1 2-2 3-4-1 0-1 1-1 1-1 0-1 0-2 1-3 2-5 1-7 1-1 0-1-1-2-1z"/><path class="fil15 str1" d="M282 295c1 3 3 7 5 7s3-1 3-3c-1 0-3-1-4-2 2 0 3 1 5 1 2-5-6-4-9-3zM331 330c1 1 1-1 1 1 1 0 5 0 4 1v-1c1-3-2-7-4-7-4-2-7 0-9 2 5-2 7-2 8 4zM339 309c1 0 1-1 3-2-1 1-2 2-2 4 1 1 6 3 4-7-3-1-9 2-5 5z"/><path class="fil15 str1" d="M330 335c-1 0-6 3-7-2-1-3 1-6 3-7-8 1-6 13 0 13 3 0 4-2 4-4z"/><path class="fil15 str1" d="M311 331h3l1 1h1c2-6 5-9 11-10h-1c-1 0-3 0-5 1-4 1-8 4-10 8zM323 303c-2-1-4-2-4-6s3-4 6-3c0-3-2-4-4-4-6 2-6 12 2 13zM295 323c5 0 8-2 8-7 1-6-6-8-7-3 7 0 6 6 3 8l-4 2c0-1 0 0 0 0z"/><path class="fil15 str1" d="M300 318c1-4-5-7-6-2-2 5 4 5 6 2zM320 298c1 5 7 4 6-1 0-5-7-4-6 1zM285 343c2 0 5-1 6-2-1-1-2 0-2-1-1-1-1-2-1-3-1 0-2 1-3 1l4-4c0-1 0-1-1-1-2 0-1 0-2 1 0 1-1 1-2 2l1 7zM319 342c3-1 4 1 4-3h-5v-2c1-1 0-1 1-1v-4c-1-1 0-3 0-4-1 2-3 4-3 7 0 2 1 6 3 7zM334 342s0-1 0 0l3-1 2-1v-1l-1-5c1-1 1 0 1-1 0-2 1-2 4-2-1-1-1-2-2-3-1-2-1-2-3-3 1 4 1 6 0 10-1 3-3 5-5 6l1 1z"/><path class="fil15 str1" d="M339 339c1 0 1 0 2-1v-1h1l1-3v-3c-3 0-4 0-4 2 0 1 0 0-1 1l1 5zM327 335v-4h3c0-3-4-5-5-2-2 3-1 6 2 6zM303 337v4h1l2-2c1 0 2-1 2-3 1-1 0-2-2-2s-2 4-3 3zM336 331v1c1-1-3-1-4-1 0-2 0 0-1-1v3c0 5 5 4 6 0 0-1 0-1-1-2zM311 334l1 2c1 1 1 1 3 1 1 0 0-1 0-2s1-2 1-3h-1l-1-1h-3v3z"/><path class="fil15 str1" d="M303 341v-3-1c1-2 2-3 1-4s-6 0-2 8h1zM288 337c0 1 0 2 1 3 0 1 1 0 2 1 1 0 1 0 2-2 0-3-2-5-5-2zM283 342c1-3-2-5 1-8 3-1 1-1 1-1-3 0-5 5-4 9h2z"/><path class="fil15 str1" d="M283 342c0 1 0 1 2 1l-1-7c1-1 2-1 2-2 1-1 0-1 2-1-1-1-2-1-3 0 0 0 2 0-1 1-3 3 0 5-1 8z"/><path class="fil15" d="M299 343c-1-1-2-1-4-1l1 1h3z"/><path class="fil16" d="M299 343c-1-1-2-1-4-1l1 1-1-1v-1c2 1 3 1 4 2z"/><path class="fil15 str1" d="M327 335c2 0 3-1 3-4h-3v4zM322 339c0-1 0-1-1-2-1 0-1 0-2-1-1 0 0 0-1 1v2h4z"/><path class="fil15" d="M339 343h3l-1-1c-1 0-1 1-2 1z"/><path class="fil16" d="M339 343c1 0 2-1 2-1l1 1-1-1s-1 1-2 1z"/></g><path class="fil17" d="M274 133c0 3 0 4 1 7v2l-1 1s-1 0 0 0h4v1h2s0-1-1-1h1s1 0 1 1v-3c-1 1-1 2-2 1s0-2 0-2c2-4 4-8 7-10 3-3 6-6 10-7 2-1 3-1 4-2h1v-1h-3 3c0-1-1-2-1-2 1 0 1 1 2 1v-2s5 0 6-1c-1 0-2-1-2-2l2 2c0-1 1-5 1-6v6c1 0 2-1 3-2-1 1-2 2-2 3h6l-6 1 2 2-1-1c-1 0-1-1-2-1v3c7-1 14 2 18 4s7 5 9 8c1 1 4 5 5 5 1-1 4-2 5-2v-4c0-1-2-4-2-5-1-1-2-3-3-4-1-2-2-3-4-4v-1l-2-1s-1-1-2-1c-4-4-11-5-16-6h-8c-4 0-9 0-12 1l-6 2c-2 1-3 1-5 2-1 1-3 2-4 3l-1 1-1 1c-1 1-2 3-3 4-1 2-2 6-3 9z"/><path class="fil4" d="M290 122h51.746v23.088H290z"/><path class="fil17" d="M346 133v7c0 1-1 1-1 2 1 0 2 1 2 2l-5-1 1 1h-3l1-1h-1v1c0-11-6-17-15-21-2-1-4-1-5-2 0 0-1 0-1-1h4-4c0-1 1-2 1-2l-1 1v-2c-1 0-6 0-6-1l2-2c-1 1-2 2-3 2v-6l-1 6s-2-1-2-2c0 1 1 2 2 3h-6l6 1c-1 0-2 1-2 2l1-1 1-1v3c-6-1-13 2-18 4-3 2-6 5-9 8 0 1-2 2-2 3l-3 1s0-1 0 0h1v1l-1-1c0 1-1 2-1 4v-2-2l-1 1h-1c0-1 0 0 0 0l1-1c-6-2 1-12 2-14l5-5 1-1c1 0 2-1 2-1 5-4 11-5 17-6h8c4 0 8 0 12 1l5 2c2 1 4 1 5 2 2 1 3 2 4 3h1c0 1 0 1 1 1l1 1c1 1 2 3 3 4 1 2 2 6 2 9z"/><g><path class="fil12" d="M335 142h1l1 1 1 1c1-1 2-1 4 1h1l6 10c0 1 0 1 1 2 0 0 0 1 1 1 1 3 3 5 4 7 1 0 1 1 1 1 1 1 1 1 1 2l5 6c1 3 15 21 15 22h-1l-3-2c-2 0-4-1-6-1-1 0-3 1-4 2-1 0-3 1-3 3l-1-1v-1c0-2-1-3-2-4 1 0 1 1 2-1s3-9 2-11c-1-3-6-6-9-7l-6-14c-3-4-2-3-3-6l-1-1c-1-1-1-3-3-4 0 1 0 7 1 9v3c0 4 1 9 1 13 3 1 7 0 8-2 2 3 4 14 4 17 0 2 1 8 2 10l2 2c0 1 2 3 3 3-2 0 0 3-9-1-3-1-7-2-9-1l-1-8c1 1 1 2 3 2 3 0 6-1 9-2 0-1-4-18-6-19-2 0-5 1-7 2v2l-2-16v-4c0-1 0-7-1-8s1-4-1-6c-2 1-4 10-4 12-1 4-7 22-8 26l-3 10c-1 1-1 2-1 3 1 2 11 2 14 1 4-1 3-2 3-6v-14 1l1 3v29c0-1 0-1-1 0-3 2-5 2-8 1-4-1-8-4-12-5l-1 6s1 0 1 1l12 1c3 0 10 2 12 1l1 1h1c1 1 0 0 0 1h-1c-4 0-9-1-12-1-4-1-9-1-14-2v1c0-1-1 0 0-1-1-1 0 0 0 0s-1-1-2-1c1-3 2-5 2-8l2-6v-1-1h1v-1c2 0 0 1 1 1 0-1-1 0-1-1s1-2 0-3l1-2c1-2 3-9 3-10v-1l1-2c0-2 1-5 1-6 1-2 2-5 2-6l2-9 1-4v-1-1c1-1 2-7 1-9l-1-1c-1-1-1 0-1-1 2 0 1 1 3 1l1 1c1 0 1 0 2 1z"/><path class="fil13" d="M337 150v40c0 4 1 5-3 6-3 1-13 1-14-1 0-1 0-2 1-3l3-10c1-4 7-22 8-26 0-2 2-11 4-12 2 2 0 5 1 6zM341 193c0-1-1-3-1-5v-6-6c2-1 5-2 7-2 2 1 6 18 6 19-3 1-6 2-9 2-2 0-2-1-3-2z"/><path class="fil12" d="M340 182v6c0 2 1 4 1 5l1 8c-1 2 0 12 1 13h1v2h-1c0-1 1 0 0-1h-1l-1-1c-2-1-3-3-3-5v-29l-1-3v-1-6-7-13c1 1 1 7 1 8v4l2 16v4z"/><path class="fil14" d="M321 215l-5-1v-1c5 1 10 1 14 2 3 0 8 1 12 1h2v-2-2c0-1-1-1 0-2 2-1 8 0 12 0s8 0 11-1v-2c-1-2-1-2-2-3 0-1-1-1 0-2 2-2 5 0 8 1 3 0 6 0 8-1 0-1-1-1-1-2l-2-2c0-1 0-1-1-2 0-1-14-19-15-22l-5-6c0-1 0-1-1-2 0 0 0-1-1-1-1-2-3-4-4-7-1 0-1-1-1-1-1-1-1-1-1-2l-6-10c2 2 4 5 5 7 5 10 33 48 35 52-3 2-9-1-13-2-3 0-5 1-3 3 3 5 3 6-3 6h-7c-3 0-9-1-12 1 0 1 2 3 1 5-3 1-20-1-25-2z"/><path class="fil12" d="M352 173c0 1 1 3 1 5 1 1 5 13 4 14 1 1 2 2 2 4v1l1 1c0 2 1 3 2 4s3 4 3 5c0 2 1 1-1 1 0-1-4-4-4-5-1 0-3-2-3-3l-2-2c-1-2-2-8-2-10 0-3-2-14-4-17 0-1-3-7-3-9-1-2-4-8-4-10l1 1c1 3 0 2 3 6l6 14z"/><path class="fil13" d="M342 152c0 2 3 8 4 10 0 2 3 8 3 9-1 2-5 3-8 2 0-4-1-9-1-13v-3c-1-2-1-8-1-9 2 1 2 3 3 4zM364 208c-4 1-17-1-20 0 0 1 0 1-1 1v1h1c-1 1 0 1 0 2v2h-1c-1-1-2-11-1-13 2-1 6 0 9 1 9 4 7 1 9 1 0 1 4 4 4 5zM377 196c1 1 1 1 1 2l2 2c-5 3-12-1-14-1s-2 2-2 3h1c-1 1 0 1 0 2 1 1 1 1 2 3h-1-1c0-1-2-4-3-5s-2-2-2-4 2-3 3-3c1-1 3-2 4-2 2 0 4 1 6 1l3 2h1zM338 209c0 2 1 4 3 5-2 1-9-1-12-1l-12-1c0-1-1-1-1-1l1-6c4 1 8 4 12 5 3 1 5 1 8-1 1-1 1-1 1 0zM357 192c1-1-3-13-4-14 0-2-1-4-1-5 3 1 8 4 9 7 1 2-1 9-2 11s-1 1-2 1z"/><path class="fil12" d="M344 210h-1v-1c1 0 1 0 1-1 3-1 16 1 20 0 2 0 1 1 1-1h2v2c-3 1-7 1-11 1s-10-1-12 0zM365 202h-1c0-1 0-3 2-3s9 4 14 1c0 1 1 1 1 2-2 1-5 1-8 1-3-1-6-3-8-1z"/></g><path class="fil5" d="M309 146c21 0 38 17 38 37 0 21-17 37-38 37s-37-16-37-37c0-20 16-37 37-37z"/><path class="fil18" d="M325 148c9 3 16-5 19-6 6-1 13 32 0 23-1 0-18-16-19-17z"/><path class="fil19" d="M350 183c-1 0-1 1-1 2 0 0-1 1-1 2 0 0-1 3-2 4v-5c0-5-1-10-2-14s-4-9-7-12l-1-1s1 0 2 1c1 0 3 2 4 3 2 1 6 5 8 3s0-12-1-15l-1-3v-1h1c7 10 5 23 2 33-1 1-1 2-1 3z"/><path class="fil20" d="M282 156c0 1-4 3-5 4-7 3-8 1-6-6 0-1 2-6 2-6 0 2-3 7 0 9 1 1 3 1 5 1 1-1 3-1 4-2zm-1-15v3c0-1-1-1-1-1h-1c1 0 1 1 1 1h-2v-1h-4c-1 0 0 0 0 0-1 0-4 3-4 4 0 0 0-1 0 0l-1 4c-1 3-2 12-1 15 2 2 6-2 8-3 1-1 3-3 5-4 0 0 1-1 1 0 1-1 1-1 2-1l1 3v1c1-1 1 0 1 0 0 1 1 1 1 1 2 3 2 3 5 6 1 1 3 2 3-1 0-2-1-4-1-5v-1l-1-2c-1 0-1 0 0 0-1-1 0 0 0 0l-1-2 3 3c3 3 8 6 13 7 3 1 12 3 16 1 2-1 3-2 2-5h-1c2 0 6-1 7 0-1-1-2-3-2-3h-2c-2-1-4-1-5-2l-3-2c0 2 1 4 0 6-2 5-8 3-12 2l-5-3 2 1h3c3 1 8 1 9-2 2-2 1-3 1-6 2 2 4 3 7 3 3 1 5 0 7-2 4-4-1-10-3-13 2 1 6 3 8 1 1-1-1-2-2-3-1 0-3-2-4-2h1c0-1-5-2-5-3-2 0-5-1-7-1-5-1-9-2-15-2-6 1-13 3-19 5-1 1-5 3-5 3z"/><path class="fil19" d="M268 182c1 1 1 2 1 2 0 1 1 2 1 3 0 0 2 3 2 4v-5c0-5 1-10 2-14 1-5 4-9 7-12 0-1 1-1 1-1 0-1-1 0-1 0-2 1-4 3-5 4-2 1-6 5-8 3-1-3 0-12 1-15l1-4c0-1 0 0 0 0h-1c-7 10-5 23-1 33v2z"/><path class="fil19" d="M268 182c1 1 1 2 1 2 0 1 1 2 1 3 0 0 2 3 2 4v-5c0-5 1-10 2-14 1-5 4-9 7-12 0-1 1-1 1-1 0-1-1 0-1 0-2 1-4 3-5 4-2 1-6 5-8 3-1-3 0-12 1-15l1-4c0-1 0 0 0 0h-1c-7 10-5 23-1 33v2z"/><path class="fil21" d="M332 163c1 0 1 1 1 0l1 1v1h-1-1v-1-1zm-6 1c1 0 2 0 3 1h3l-2 2s2-1 2-2l1 7 1-7c0 1 1 2 2 2l-2-2 7-1h-2c-1 0-5 0-5-1 1 0 2-1 2-2 0 0-1 1-2 1v1l-1-3h1c6-4 4-10 0-14-1 0-1-1-2-1 2 0 7 2 8 1 0-2-2-4-3-4l-2-2c-1 0-2-1-3-1h-1c1 0 3 2 4 2 1 1 3 2 2 3-2 2-6 0-8-1 2 3 7 9 3 13-2 2-4 3-7 2-3 0-5-1-7-3 0 3 1 4-1 6-1 3-6 3-9 2h-3l-2-1 5 3c4 1 10 3 12-2 1-2 0-4 0-6l3 2c1 1 3 1 5 2h2s1 2 2 3c-1-1-5 0-7 0h1z"/><path class="fil22" d="M339 164c1-1 1-1 2-3 0-1 0-2-1-4 2 0 3-1 4-2 4-5-2-11-2-12-1 0-1 1-2 0-2-1-5-3-8-4 1 0 2 1 3 1l2 2c1 0 3 2 3 4-1 1-6-1-8-1 1 0 1 1 2 1 4 4 6 10 0 14h-1l1 3v-1c1 0 2-1 2-1 0 1-1 2-2 2 0 1 4 1 5 1z"/><path class="fil19" d="M294 162v1c0 1 1 3 1 5 0 3-2 2-3 1-3-3-3-3-5-6 0 0-1 0-1-1 0 0 0-1-1 0 1 1 3 4 4 5l4 4c4 2 8 4 13 5h4c1 0 0-1 0-1-1-1-1-1-2-1-3-1-6-3-8-5-2-1-3-3-5-4l-1-3z"/><path class="fil4" d="M328 136c1-1 1-1 1-2 1-1 2-3 3-3l2 2c2 2 5 6 5 8 0-1-4-2-5-3l-6-2zm-47 3c0-2 4-7 6-8 1 0 1 1 1 1l2 3c-1 1-2 1-4 2l-5 2zm40-13c1 0 2 3 3 4l2 5c-1-1-3-1-4-1-1-1-2-1-3-1l2-7zm-28 8l3-8 3 7h-3c-1 1-2 1-3 1zm17-10l3 4 4 4h-7v-8zm-2 0v8h-6l6-8zm-20 5c1 0 1 0 2-1s3-3 5-3l-4 8s-3-3-3-4zm43 1l-4 4-4-9c2 1 7 3 8 5zm-13 2c0-1-3-4-4-5l-4-5c3 0 8 1 10 2l-2 8zm-21-8c3-1 7-2 10-2 0 0 0 1-1 1v2c-1 0-2 1-2 2l-3 4-1 1-3-8zm7-3h-4c-1 1-2 1-4 2-4 1-7 4-10 7-3 2-5 6-7 10 0 0-1 1 0 2s1 0 2-1c0 0 4-2 5-3 6-2 13-4 19-5 6 0 10 1 15 2 2 0 5 1 7 1 0 1 5 2 5 3 3 1 6 3 8 4 1 1 1 0 2 0 0-1-1-3-2-3 0-2-1-3-1-4l-3-3c-2-3-5-6-9-8s-11-5-18-4h-5z"/><g><path class="fil23" d="M301 121h4c-1 0-1 0-1-1h3c-1-1-2 0-3-1l1-1c-1 0-1 1-2 1v-2l6 1s-2 1-2 2c1-1 2-1 2-2 0 1 1 2 0 3h1v-3c1 0 1 1 2 1l1 1-2-2 6-1s-5 0-6-1l2-2c-1 1-2 2-3 2v-6c0 1-1 5-1 6l-2-2c0 1 1 2 2 2-1 1-6 1-6 1v2c-1 0-1-1-2-1l1 1-3 1h3v1h-1z"/><path class="fil19" d="M298 124l3 8 1-1v-1l3-3c0-1 1-2 2-3v-1c1 0 1-1 1-1-3 0-7 1-10 2zM319 132l3-8c-3-1-8-2-11-2l4 5c1 0 4 4 4 5z"/><path class="fil17" d="M328 134l4-4c-1-2-6-4-8-5l4 9z"/><path class="fil24" d="M311 132h7l-4-4-3-4v8zM320 133c1 0 2 0 4 1 1 0 2 0 3 1l-2-5c-1-1-2-4-2-4l-3 7z"/><path class="fil25" d="M303 132h6v-8l-6 8zM294 134c1 0 2 0 3-1h3l-3-7-3 8z"/><path class="fil19" d="M289 129c0 1 3 4 3 4l4-8c-2 0-4 2-5 3s-1 1-2 1z"/><path class="fil26" d="M305 121h4c1-1 0-2 0-3 0 1-1 1-2 2 0-1 2-2 2-2l-6-1v2c1 0 1-1 2-1l-1 1c1 1 2 0 3 1h-3c0 1 0 1 1 1z"/></g><path class="fil4" d="M122 132h18v38h-18z"/><path class="fil5" d="M173 109c28 0 51 23 51 51s-23 51-51 51c-29 0-52-23-52-51s23-51 52-51z"/><path class="fil27" d="M179 248l11 32-16 34-17-33 11-33-11-9 16-12 16 14z"/><path class="fil28" d="M176 249l11 34-15 36-17-36 11-34-11-9 16-15 16 15z"/><path class="fil4" d="M171 312c-3-8-17-84-26-88h-18l4 34 11 8c1 0 2 0 2 1l1 1h1c-2 4-9 10-10 13l34 41 2 2 1-2 34-41c-1-3-8-9-10-13h1l1-1c1-1 1-1 2-1l11-7 4-36c-8 0-9 1-12 1-18 0-21 50-31 88l-1 4-1-4z"/><path class="fil29 str2" d="M220 178c7-9 8-33-2-49-28-54-99-13-69 4l16 7c1 0 3 2 3 2 4 2-2 1 6 1 13 0 22-2 36 0 3 6-4 4 4 21 3 7 4 10 6 14z"/><path class="fil29 str2" d="M125 179c1-10 3-17 4-27 0-11 2-16 11-20l-1-13c-22 2-24 44-14 60z"/><path class="fil4 str3" d="M219 286l-3 3v-1l-4-5-4 5-4 6h23l-4-4z"/></g><path class="fil30 str0" d="M1 5h451.002v34.792H1z"/><rect class="fil31 str0" x="5" y="9" width="27.09" height="25.202" rx="4" ry="4"/><rect class="fil31 str0" x="55" y="9" width="27.09" height="25.202" rx="4" ry="4"/><rect class="fil31 str0" x="5" y="9" width="27.09" height="25.202" rx="4" ry="4"/><rect class="fil31 str0" x="105" y="9" width="27.09" height="25.202" rx="4" ry="4"/><rect class="fil31 str0" x="155" y="9" width="27.09" height="25.202" rx="4" ry="4"/><rect class="fil31 str0" x="105" y="9" width="27.09" height="25.202" rx="4" ry="4"/><rect class="fil31 str0" x="225" y="9" width="27.09" height="25.202" rx="4" ry="4"/><rect class="fil31 str0" x="275" y="9" width="27.09" height="25.202" rx="4" ry="4"/><rect class="fil31 str0" x="225" y="9" width="27.09" height="25.202" rx="4" ry="4"/><rect class="fil31 str0" x="320" y="9" width="27.09" height="25.202" rx="4" ry="4"/><rect class="fil31 str0" x="371" y="9" width="27.09" height="25.202" rx="4" ry="4"/><rect class="fil31 str0" x="320" y="9" width="27.09" height="25.202" rx="4" ry="4"/><rect class="fil31 str0" x="416" y="9" width="27.09" height="25.202" rx="4" ry="4"/><rect class="fil31 str0" x="416" y="9" width="27.09" height="25.202" rx="4" ry="4"/><path class="fil32" d="M195 35h-3V22c-1 1-3 2-5 2v-3c1 0 2-1 3-1 1-1 2-2 2-3h3v18z"/><path id="1" class="fil32" d="M200 30h4s0 1 1 1c0 1 1 1 1 1 1 0 2 0 2-1 1 0 1-1 1-2s0-2-1-3c0 0-1-1-2-1s-2 1-2 2l-3-1 2-9h9v3h-7v3h2c2 0 3 0 4 1s1 3 1 5c0 1 0 2-1 4-1 1-3 2-5 2-1 0-3-1-4-1-1-1-1-3-2-4z"/><path class="fil30 str0" d="M1 326h451.002v34.792H1z"/><rect class="fil31 str0" x="5" y="331" width="27.09" height="25.202" rx="4" ry="4"/><rect class="fil31 str0" x="55" y="331" width="27.09" height="25.202" rx="4" ry="4"/><rect class="fil31 str0" x="5" y="331" width="27.09" height="25.202" rx="4" ry="4"/><rect class="fil31 str0" x="105" y="331" width="27.09" height="25.202" rx="4" ry="4"/><rect class="fil31 str0" x="155" y="331" width="27.09" height="25.202" rx="4" ry="4"/><rect class="fil31 str0" x="105" y="331" width="27.09" height="25.202" rx="4" ry="4"/><rect class="fil31 str0" x="225" y="331" width="27.09" height="25.202" rx="4" ry="4"/><rect class="fil31 str0" x="275" y="331" width="27.09" height="25.202" rx="4" ry="4"/><rect class="fil31 str0" x="225" y="331" width="27.09" height="25.202" rx="4" ry="4"/><rect class="fil31 str0" x="320" y="331" width="27.09" height="25.202" rx="4" ry="4"/><rect class="fil31 str0" x="371" y="331" width="27.09" height="25.202" rx="4" ry="4"/><rect class="fil31 str0" x="320" y="331" width="27.09" height="25.202" rx="4" ry="4"/><rect class="fil31 str0" x="416" y="331" width="27.09" height="25.202" rx="4" ry="4"/><rect class="fil31 str0" x="416" y="331" width="27.09" height="25.202" rx="4" ry="4"/><path class="fil32" d="M195 356h-2v-14c-1 0-2 1-3 1 0 1-1 1-2 2v-3c1 0 2-1 3-2 1 0 2-1 2-2h2v18z"/><path id="1" class="fil32" d="M200 351h3c0 1 0 2 1 2 0 1 1 1 2 1s2 0 3-1 1-2 1-3 0-2-1-3-2-1-3-1h-2c0 1-1 1-1 2l-2-1 2-9h8v2h-7l-1 5c1-1 3-1 4-1s3 1 4 2 1 2 1 4c0 1 0 3-1 4s-3 2-5 2-3 0-4-1-1-2-2-4z"/><path class="fil30 str0" d="M1 35h7.256v291.56H1zM443 31h9.385v295.153H443z"/><path class="fil33 str4" d="M8 40h435v286H8z"/></g></svg>