<?xml version="1.0" encoding="UTF-8"?>
<!DOCTYPE svg PUBLIC "-//W3C//DTD SVG 1.1//EN" "http://www.w3.org/Graphics/SVG/1.1/DTD/svg11.dtd">
<!-- Creator: CorelDRAW X6 -->
<svg xmlns="http://www.w3.org/2000/svg" xml:space="preserve" width="144.841mm" height="104.311mm" version="1.1" style="shape-rendering:geometricPrecision; text-rendering:geometricPrecision; image-rendering:optimizeQuality; fill-rule:evenodd; clip-rule:evenodd"
viewBox="0 0 1769 1274"
 xmlns:xlink="http://www.w3.org/1999/xlink">
 <defs>
  <style type="text/css">
   <![CDATA[
    .str2 {stroke:black;stroke-width:2.90733}
    .str4 {stroke:black;stroke-width:3.22846}
    .str3 {stroke:white;stroke-width:6.46059}
    .str0 {stroke:black;stroke-width:7.63158}
    .str1 {stroke:#B3B3B3;stroke-width:12.92}
    .fil7 {fill:none}
    .fil19 {fill:#2B2A29}
    .fil13 {fill:black}
    .fil4 {fill:#003333}
    .fil16 {fill:#1A1A1A}
    .fil6 {fill:#333300}
    .fil3 {fill:#333333}
    .fil12 {fill:#336699}
    .fil10 {fill:#666666}
    .fil8 {fill:#780000}
    .fil14 {fill:gray}
    .fil5 {fill:#990000}
    .fil15 {fill:#C4C6C5}
    .fil2 {fill:#FCD5A6}
    .fil1 {fill:#FDFDFD}
    .fil0 {fill:#FEFEFE}
    .fil11 {fill:red}
    .fil9 {fill:white}
    .fil17 {fill:white;fill-rule:nonzero}
    .fil18 {fill:url(#id0)}
   ]]>
  </style>
  <radialGradient id="id0" gradientUnits="objectBoundingBox" cx="66.9998%" cy="5.00038%" r="50%" fx="66.9998%" fy="5.00038%">
   <stop offset="0" style="stop-color:red"/>
   <stop offset="1" style="stop-color:#E81515"/>
  </radialGradient>
 </defs>
 <g id="Слой_x0020_1">
  <metadata id="CorelCorpID_0Corel-Layer"/>
  <g id="_627749936">
   <path class="fil0" d="M65 783c4,0 16,4 16,4 57,12 73,57 77,61 0,0 0,0 4,0 0,-4 0,-4 0,-4 0,0 0,0 0,-4l37 0c0,4 0,4 0,8 0,0 0,0 0,0 0,0 0,-4 0,-8l4 -12c0,-5 0,-5 0,-5l4 -4 4 -12c0,-4 4,-4 -8,0 -29,4 -57,-4 -81,-20 -4,-4 -4,-8 -8,-8l0 0c-5,4 0,4 -17,4l-20 0 -12 0 0 0 0 0z"/>
   <path class="fil1" d="M454 239c4,-4 17,-24 20,-28 5,-4 9,-8 9,-12 4,-4 8,-8 12,-12 8,-9 16,-17 24,-25l20 -12c4,0 4,0 9,-4l-37 0c-4,0 -4,4 -4,4l-8 4 4 12c0,0 -4,-4 0,0 4,0 0,-4 0,0 -12,8 0,8 -8,12l-8 5 0 -13c-8,0 -8,0 -13,0 5,8 5,0 0,8 0,9 5,13 5,13 0,0 0,0 0,0l-5 0c0,0 0,0 0,0l0 8c-8,0 5,4 -3,0 0,0 0,0 0,0 0,0 0,0 0,0 -5,-4 3,0 -5,-4 -4,0 -8,0 -12,0 0,0 4,0 0,4 0,4 0,0 -4,4 0,8 0,4 0,12l0 4c0,8 0,12 0,20l0 0c4,-4 4,-4 4,0l0 0 0 0z"/>
   <path class="fil2" d="M365 12c142,0 251,106 251,235 0,134 -109,240 -251,240 -138,0 -251,-106 -251,-240 0,-129 113,-235 251,-235z"/>
   <path class="fil3" d="M365 0c114,0 211,73 239,170 4,49 -255,-24 -320,-117 -12,16 -130,105 -158,109 32,-93 130,-162 239,-162l0 0 0 0z"/>
   <path class="fil4" d="M109 564l113 0c20,23 82,40 155,40 74,0 136,-17 156,-40l136 0c61,0 110,58 110,130l0 344c0,72 -49,130 -110,130l-560 0c-60,0 -109,-58 -109,-130l0 -344c0,-72 49,-130 109,-130z"/>
   <polygon class="fil5" points="300,710 182,710 182,1257 300,1257 "/>
   <polygon class="fil6 str0" points="300,714 337,750 365,714 365,1253 333,1225 300,1253 "/>
   <polygon class="fil7 str1" points="300,714 300,714 300,1253 300,1253 "/>
   <polygon class="fil7 str1" points="365,714 365,714 365,1253 365,1253 "/>
   <polygon class="fil6 str0" points="300,714 337,750 365,714 365,1253 333,1225 300,1253 "/>
   <polygon class="fil7 str1" points="300,714 300,714 300,1253 300,1253 "/>
   <polygon class="fil7 str1" points="365,714 365,714 365,1253 365,1253 "/>
   <polygon class="fil6 str0" points="365,714 402,750 430,714 430,1253 398,1225 365,1253 "/>
   <polygon class="fil7 str1" points="365,714 365,714 365,1253 365,1253 "/>
   <polygon class="fil7 str1" points="430,714 430,714 430,1253 430,1253 "/>
   <polygon class="fil6 str0" points="430,714 466,750 495,714 495,1253 462,1225 430,1253 "/>
   <polygon class="fil7 str1" points="430,714 430,714 430,1253 430,1253 "/>
   <polygon class="fil7 str1" points="495,714 495,714 495,1253 495,1253 "/>
   <polygon class="fil6 str0" points="495,714 531,750 560,714 560,1253 527,1225 495,1253 "/>
   <polygon class="fil7 str1" points="495,714 495,714 495,1253 495,1253 "/>
   <polygon class="fil7 str1" points="560,714 560,714 560,1253 560,1253 "/>
   <polygon class="fil6 str0" points="560,714 596,750 625,714 625,1253 592,1225 560,1253 "/>
   <polygon class="fil7 str1" points="560,714 560,714 560,1253 560,1253 "/>
   <polygon class="fil7 str1" points="625,714 625,714 625,1253 625,1253 "/>
   <polygon class="fil5" points="742,710 625,710 625,1257 742,1257 "/>
   <polygon class="fil8 str2" points="742,742 657,742 657,1217 742,1217 "/>
   <path class="fil9 str3" d="M673 763c-4,0 -4,0 -4,4 0,4 0,8 4,8 4,0 8,-4 8,-8 0,-4 -4,-4 -8,-4z"/>
   <path class="fil9 str3" d="M673 787c-4,0 -4,4 -4,8 0,4 0,4 4,4 4,0 8,0 8,-4 0,-4 -4,-8 -8,-8z"/>
   <path class="fil9 str3" d="M673 815c-4,0 -4,0 -4,4 0,4 0,9 4,9 4,0 8,-5 8,-9 0,-4 -4,-4 -8,-4z"/>
   <path class="fil9 str3" d="M673 840c-4,0 -4,4 -4,8 0,0 0,4 4,4 4,0 8,-4 8,-4 0,-4 -4,-8 -8,-8z"/>
   <path class="fil9 str3" d="M673 868c-4,0 -4,0 -4,4 0,4 0,8 4,8 4,0 8,-4 8,-8 0,-4 -4,-4 -8,-4z"/>
   <path class="fil9 str3" d="M673 892c-4,0 -4,4 -4,9 0,0 0,4 4,4 4,0 8,-4 8,-4 0,-5 -4,-9 -8,-9z"/>
   <path class="fil9 str3" d="M673 921c-4,0 -4,0 -4,4 0,4 0,8 4,8 4,0 8,-4 8,-8 0,-4 -4,-4 -8,-4z"/>
   <path class="fil9 str3" d="M673 945c-4,0 -4,4 -4,4 0,4 0,8 4,8 4,0 8,-4 8,-8 0,0 -4,-4 -8,-4z"/>
   <path class="fil9 str3" d="M673 970c-4,0 -4,4 -4,8 0,4 0,4 4,4 4,0 8,0 8,-4 0,-4 -4,-8 -8,-8z"/>
   <path class="fil9 str3" d="M673 998c-4,0 -4,4 -4,4 0,4 0,8 4,8 4,0 8,-4 8,-8 0,0 -4,-4 -8,-4z"/>
   <path class="fil9 str3" d="M673 1022c-4,0 -4,4 -4,8 0,4 0,4 4,4 4,0 8,0 8,-4 0,-4 -4,-8 -8,-8z"/>
   <path class="fil9 str3" d="M673 1051c-4,0 -4,4 -4,4 0,4 0,8 4,8 4,0 8,-4 8,-8 0,0 -4,-4 -8,-4z"/>
   <path class="fil9 str3" d="M673 1075c-4,0 -4,4 -4,8 0,4 0,4 4,4 4,0 8,0 8,-4 0,-4 -4,-8 -8,-8z"/>
   <path class="fil9 str3" d="M673 1103c-4,0 -4,0 -4,4 0,4 0,8 4,8 4,0 8,-4 8,-8 0,-4 -4,-4 -8,-4z"/>
   <path class="fil9 str3" d="M673 1128c-4,0 -4,4 -4,8 0,4 0,4 4,4 4,0 8,0 8,-4 0,-4 -4,-8 -8,-8z"/>
   <path class="fil9 str3" d="M673 1156c-4,0 -4,0 -4,4 0,4 0,8 4,8 4,0 8,-4 8,-8 0,-4 -4,-4 -8,-4z"/>
   <path class="fil9 str3" d="M702 775c-4,0 -8,4 -8,4 0,4 4,8 8,8 0,0 4,-4 4,-8 0,0 -4,-4 -4,-4z"/>
   <path class="fil9 str3" d="M702 799c-4,0 -8,4 -8,8 0,4 4,4 8,4 0,0 4,0 4,-4 0,-4 -4,-8 -4,-8z"/>
   <path class="fil9 str3" d="M702 828c-4,0 -8,4 -8,4 0,4 4,8 8,8 0,0 4,-4 4,-8 0,0 -4,-4 -4,-4z"/>
   <path class="fil9 str3" d="M702 852c-4,0 -8,4 -8,8 0,4 4,4 8,4 0,0 4,0 4,-4 0,-4 -4,-8 -4,-8z"/>
   <path class="fil9 str3" d="M702 880c-4,0 -8,0 -8,4 0,4 4,8 8,8 0,0 4,-4 4,-8 0,-4 -4,-4 -4,-4z"/>
   <path class="fil9 str3" d="M702 905c-4,0 -8,4 -8,8 0,4 4,4 8,4 0,0 4,0 4,-4 0,-4 -4,-8 -4,-8z"/>
   <path class="fil9 str3" d="M702 933c-4,0 -8,0 -8,4 0,4 4,8 8,8 0,0 4,-4 4,-8 0,-4 -4,-4 -4,-4z"/>
   <path class="fil9 str3" d="M702 957c-4,0 -8,4 -8,8 0,5 4,5 8,5 0,0 4,0 4,-5 0,-4 -4,-8 -4,-8z"/>
   <path class="fil9 str3" d="M702 986c-4,0 -8,0 -8,4 0,4 4,8 8,8 0,0 4,-4 4,-8 0,-4 -4,-4 -4,-4z"/>
   <path class="fil9 str3" d="M702 1010c-4,0 -8,4 -8,8 0,4 4,4 8,4 0,0 4,0 4,-4 0,-4 -4,-8 -4,-8z"/>
   <path class="fil9 str3" d="M702 1038c-4,0 -8,0 -8,5 0,3 4,8 8,8 0,0 4,-5 4,-8 0,-5 -4,-5 -4,-5z"/>
   <path class="fil9 str3" d="M702 1063c-4,0 -8,4 -8,8 0,0 4,4 8,4 0,0 4,-4 4,-4 0,-4 -4,-8 -4,-8z"/>
   <path class="fil9 str3" d="M702 1091c-4,0 -8,0 -8,4 0,4 4,8 8,8 0,0 4,-4 4,-8 0,-4 -4,-4 -4,-4z"/>
   <path class="fil9 str3" d="M702 1115c-4,0 -8,5 -8,9 0,0 4,4 8,4 0,0 4,-4 4,-4 0,-4 -4,-9 -4,-9z"/>
   <path class="fil9 str3" d="M702 1144c-4,0 -8,0 -8,4 0,4 4,8 8,8 0,0 4,-4 4,-8 0,-4 -4,-4 -4,-4z"/>
   <path class="fil9 str3" d="M702 1168c-4,0 -8,4 -8,4 0,4 4,8 8,8 0,0 4,-4 4,-8 0,0 -4,-4 -4,-4z"/>
   <path class="fil9 str3" d="M726 787c-4,0 -4,4 -4,8 0,4 0,4 4,4 4,0 4,0 4,-4 0,-4 0,-8 -4,-8z"/>
   <path class="fil9 str3" d="M726 815c-4,0 -4,0 -4,4 0,4 0,9 4,9 4,0 4,-5 4,-9 0,-4 0,-4 -4,-4z"/>
   <path class="fil9 str3" d="M726 840c-4,0 -4,4 -4,8 0,0 0,4 4,4 4,0 4,-4 4,-4 0,-4 0,-8 -4,-8z"/>
   <path class="fil9 str3" d="M726 868c-4,0 -4,0 -4,4 0,4 0,8 4,8 4,0 4,-4 4,-8 0,-4 0,-4 -4,-4z"/>
   <path class="fil9 str3" d="M726 892c-4,0 -4,4 -4,9 0,0 0,4 4,4 4,0 4,-4 4,-4 0,-5 0,-9 -4,-9z"/>
   <path class="fil9 str3" d="M726 921c-4,0 -4,0 -4,4 0,4 0,8 4,8 4,0 4,-4 4,-8 0,-4 0,-4 -4,-4z"/>
   <path class="fil9 str3" d="M726 945c-4,0 -4,4 -4,4 0,4 0,8 4,8 4,0 4,-4 4,-8 0,0 0,-4 -4,-4z"/>
   <path class="fil9 str3" d="M726 970c-4,0 -4,4 -4,8 0,4 0,4 4,4 4,0 4,0 4,-4 0,-4 0,-8 -4,-8z"/>
   <path class="fil9 str3" d="M726 998c-4,0 -4,4 -4,4 0,4 0,8 4,8 4,0 4,-4 4,-8 0,0 0,-4 -4,-4z"/>
   <path class="fil9 str3" d="M726 1022c-4,0 -4,4 -4,8 0,4 0,4 4,4 4,0 4,0 4,-4 0,-4 0,-8 -4,-8z"/>
   <path class="fil9 str3" d="M726 1051c-4,0 -4,4 -4,4 0,4 0,8 4,8 4,0 4,-4 4,-8 0,0 0,-4 -4,-4z"/>
   <path class="fil9 str3" d="M726 1075c-4,0 -4,4 -4,8 0,4 0,4 4,4 4,0 4,0 4,-4 0,-4 0,-8 -4,-8z"/>
   <path class="fil9 str3" d="M726 1103c-4,0 -4,0 -4,4 0,4 0,8 4,8 4,0 4,-4 4,-8 0,-4 0,-4 -4,-4z"/>
   <path class="fil9 str3" d="M726 1128c-4,0 -4,4 -4,8 0,4 0,4 4,4 4,0 4,0 4,-4 0,-4 0,-8 -4,-8z"/>
   <path class="fil9 str3" d="M726 1156c-4,0 -4,0 -4,4 0,4 0,8 4,8 4,0 4,-4 4,-8 0,-4 0,-4 -4,-4z"/>
   <path class="fil9 str3" d="M726 1180c-4,0 -4,4 -4,8 0,5 0,5 4,5 4,0 4,0 4,-5 0,-4 0,-8 -4,-8z"/>
   <polygon class="fil8 str2" points="182,710 32,710 32,1257 182,1257 "/>
   <polygon class="fil9" points="182,1245 36,1245 36,722 182,722 "/>
   <polygon class="fil6" points="182,1124 77,1124 77,1140 182,1140 "/>
   <polygon class="fil6" points="182,1148 77,1148 77,1164 182,1164 "/>
   <polygon class="fil6" points="182,1176 77,1176 77,1193 182,1193 "/>
   <polygon class="fil6" points="182,1225 77,1225 77,1241 182,1241 "/>
   <rect class="fil10 str4" x="182" y="754" width="31.4281" height="461.002"/>
   <polygon class="fil6" points="182,1043 77,1043 77,1059 182,1059 "/>
   <polygon class="fil6" points="182,1071 77,1071 77,1087 182,1087 "/>
   <polygon class="fil6" points="182,1124 77,1124 77,1140 182,1140 "/>
   <polygon class="fil6" points="182,1148 77,1148 77,1164 182,1164 "/>
   <polygon class="fil6" points="182,1176 77,1176 77,1193 182,1193 "/>
   <polygon class="fil6" points="182,941 77,941 77,957 182,957 "/>
   <polygon class="fil6" points="182,965 77,965 77,982 182,982 "/>
   <polygon class="fil6" points="182,994 77,994 77,1010 182,1010 "/>
   <polygon class="fil6" points="182,860 77,860 77,876 182,876 "/>
   <polygon class="fil6" points="182,888 77,888 77,905 182,905 "/>
   <polygon class="fil6" points="182,941 77,941 77,957 182,957 "/>
   <polygon class="fil6" points="182,965 77,965 77,982 182,982 "/>
   <polygon class="fil6" points="182,994 77,994 77,1010 182,1010 "/>
   <polygon class="fil6" points="182,742 77,742 77,759 182,759 "/>
   <polygon class="fil6" points="182,771 77,771 77,787 182,787 "/>
   <polygon class="fil6" points="182,795 77,795 77,811 182,811 "/>
   <polygon class="fil6" points="182,742 77,742 77,759 182,759 "/>
   <polygon class="fil6" points="182,771 77,771 77,787 182,787 "/>
   <polygon class="fil6" points="182,795 77,795 77,811 182,811 "/>
   <path class="fil2" d="M1298 588l94 0c5,11 34,20 69,20 35,0 64,-9 68,-20l100 0c16,0 29,9 29,20l0 70c0,12 -13,21 -29,21l-331 0c-16,0 -28,-9 -28,-21l0 -70c0,-11 12,-20 28,-20z"/>
   <ellipse class="fil2" cx="1383" cy="686" rx="69" ry="65"/>
   <ellipse class="fil2" cx="1525" cy="686" rx="69" ry="65"/>
   <polygon class="fil11" points="1270,669 1339,629 1456,677 1574,612 1663,669 1647,754 1769,1274 1111,1274 1290,775 "/>
   <polygon class="fil12" points="1242,909 1683,908 1690,940 1230,941 "/>
   <rect class="fil11" x="1330" y="588" width="17.6313" height="80.1808"/>
   <rect class="fil11" x="1574" y="588" width="17.6313" height="80.1808"/>
   <polygon class="fil13" points="884,633 901,633 901,1274 884,1274 "/>
   <rect class="fil14" x="860" y="544" width="76.0413" height="110.842"/>
   <path class="fil15" d="M864 364l79 -36c22,-10 48,0 58,22l72 158c9,22 0,48 -22,58l-80 36c-22,10 -48,0 -58,-22l-71 -158c-10,-22 0,-48 22,-58z"/>
   <rect class="fil16" transform="matrix(0.698329 -0.314701 0.234044 0.51935 945.926 391.559)" width="87.9121" height="17.704"/>
   <rect class="fil16" transform="matrix(0.698329 -0.314701 0.234044 0.51935 953.486 408.336)" width="87.9121" height="17.704"/>
   <rect class="fil16" transform="matrix(0.698329 -0.314701 0.234044 0.51935 961.051 425.117)" width="87.9121" height="17.704"/>
   <rect class="fil16" transform="matrix(0.698329 -0.314701 0.234044 0.51935 968.613 441.894)" width="87.9121" height="17.704"/>
   <rect class="fil16" transform="matrix(0.698329 -0.314701 0.234044 0.51935 976.174 458.67)" width="87.9121" height="17.704"/>
   <rect class="fil16" transform="matrix(0.698329 -0.314701 0.234044 0.51935 983.734 475.452)" width="87.9121" height="17.704"/>
   <rect class="fil16" transform="matrix(0.698329 -0.314701 0.234044 0.51935 991.295 492.228)" width="87.9121" height="17.704"/>
   <rect class="fil16" transform="matrix(0.698329 -0.314701 0.234044 0.51935 998.856 509.01)" width="87.9121" height="17.704"/>
   <rect class="fil16" transform="matrix(0.698329 -0.314701 0.234044 0.51935 1006.42 525.786)" width="87.9121" height="17.704"/>
   <rect class="fil16" transform="matrix(0.698329 -0.314701 0.234044 0.51935 938.365 374.778)" width="87.9121" height="17.704"/>
   <rect class="fil16" transform="matrix(0.698329 -0.314701 0.234044 0.51935 862.032 429.364)" width="87.9121" height="17.704"/>
   <rect class="fil16" transform="matrix(0.698329 -0.314701 0.234044 0.51935 869.593 446.145)" width="87.9121" height="17.704"/>
   <rect class="fil16" transform="matrix(0.698329 -0.314701 0.234044 0.51935 877.154 462.922)" width="87.9121" height="17.704"/>
   <rect class="fil16" transform="matrix(0.698329 -0.314701 0.234044 0.51935 884.715 479.698)" width="87.9121" height="17.704"/>
   <rect class="fil16" transform="matrix(0.698329 -0.314701 0.234044 0.51935 892.28 496.48)" width="87.9121" height="17.704"/>
   <rect class="fil16" transform="matrix(0.698329 -0.314701 0.234044 0.51935 899.841 513.256)" width="87.9121" height="17.704"/>
   <rect class="fil16" transform="matrix(0.698329 -0.314701 0.234044 0.51935 907.402 530.037)" width="87.9121" height="17.704"/>
   <rect class="fil16" transform="matrix(0.698329 -0.314701 0.234044 0.51935 914.963 546.814)" width="87.9121" height="17.704"/>
   <rect class="fil16" transform="matrix(0.698329 -0.314701 0.234044 0.51935 922.525 563.595)" width="87.9121" height="17.704"/>
   <rect class="fil16" transform="matrix(0.698329 -0.314701 0.234044 0.51935 854.472 412.587)" width="87.9121" height="17.704"/>
   <path class="fil17" d="M280 738l-37 -8 0 12 13 4 0 8 -13 5 0 12 17 -8c0,4 0,4 0,8 4,0 8,4 12,4 8,0 8,-8 8,-16l0 -21 0 0 0 0zm-8 12l0 9c0,0 0,4 -4,4 0,0 -4,-4 -4,-9l0 -8 8 4z"/>
   <path id="_1" class="fil17" d="M243 815l37 -4 0 -16 -37 -24 0 16 8 0 0 16 -8 0 0 12 0 0zm17 -12l0 -8 12 4 -12 4z"/>
   <path id="_2" class="fil17" d="M280 876l0 -16 -24 -12c0,0 20,0 24,0l0 -20 -37 -9 0 13 29 8 -29 0 0 8 29 16 -29 -8 0 12 37 8 0 0z"/>
   <path id="_3" class="fil17" d="M280 933l0 -16 -24 -12c0,0 20,0 24,0l0 -21 -37 -8 0 12 29 8 -29 0 0 9 29 16 -29 -8 0 12 37 8 0 0z"/>
   <path id="_4" class="fil17" d="M272 974l0 0c8,0 8,-9 8,-17 0,-8 0,-12 0,-12 -4,-8 -8,-8 -12,-8 -4,0 -8,4 -8,8l0 8c-4,4 -4,4 -4,4 -5,0 -5,-4 -5,-4 0,-4 0,-8 5,-8l0 0 0 -12c-5,0 -5,0 -9,4 -4,0 -4,8 -4,16 0,17 8,21 13,21 4,0 8,-4 8,-13l4 -8c0,0 0,-4 4,-4 0,0 0,4 0,8 0,4 0,4 0,4l-4 0 4 13 0 0z"/>
   <polygon id="_5" class="fil17" points="280,1018 280,978 272,978 272,990 243,982 243,994 272,1002 272,1014 "/>
   <polygon id="_6" class="fil17" points="280,1059 280,1022 243,1014 243,1051 251,1055 251,1026 260,1026 260,1051 268,1055 268,1030 272,1030 272,1055 "/>
   <polygon id="_7" class="fil17" points="280,1079 280,1067 243,1059 243,1071 "/>
   <polygon id="_8" class="fil17" points="280,1128 280,1115 256,1111 280,1099 280,1087 243,1079 243,1091 268,1095 243,1107 243,1120 "/>
   <path class="fil2" d="M1462 111c115,0 203,88 203,212 0,114 -88,211 -203,211 -123,0 -212,-97 -212,-211 0,-124 89,-212 212,-212z"/>
   <path class="fil13" d="M1457 93l0 1c-118,7 -271,83 -234,356l81 0c-45,-72 -40,-175 33,-241l-3 53 57 4c0,-19 2,-54 4,-74l1 74 193 -4 -3 -53c73,66 78,169 32,241l82 0c37,-273 -116,-349 -234,-356l0 -1c-1,0 -3,1 -5,1 -1,0 -3,-1 -4,-1z"/>
   <circle class="fil18" cx="1277" cy="411" r="25"/>
   <circle class="fil18" cx="1643" cy="411" r="25"/>
   <path class="fil19" d="M305 47c91,87 227,131 265,109 -100,-1 -210,-61 -265,-109z"/>
   <path class="fil19" d="M320 37c74,69 182,105 212,87 -80,-1 -168,-48 -212,-87z"/>
   <path class="fil19" d="M276 43c-42,48 -105,81 -122,74 46,-10 97,-47 122,-74z"/>
  </g>
 </g>
</svg>
