<?xml version="1.0" encoding="UTF-8"?>
<!DOCTYPE svg PUBLIC "-//W3C//DTD SVG 1.1//EN" "http://www.w3.org/Graphics/SVG/1.1/DTD/svg11.dtd">
<!-- Creator: CorelDRAW X7 -->
<svg xmlns="http://www.w3.org/2000/svg" xml:space="preserve" width="450px" height="360px" version="1.1" style="shape-rendering:geometricPrecision; text-rendering:geometricPrecision; image-rendering:optimizeQuality; fill-rule:evenodd; clip-rule:evenodd"
viewBox="0 0 450 360"
 xmlns:xlink="http://www.w3.org/1999/xlink">
 <defs>
  <style type="text/css">
   <![CDATA[
    .str1 {stroke:#B3B3B3;stroke-width:3.99921}
    .str4 {stroke:black;stroke-width:0.999213}
    .str3 {stroke:white;stroke-width:1.99961}
    .str0 {stroke:black;stroke-width:2.3622}
    .str2 {stroke:black;stroke-width:0.9}
    .fil8 {fill:none}
    .fil3 {fill:#C4C5C5}
    .fil22 {fill:black}
    .fil5 {fill:#003333}
    .fil24 {fill:#1A1A1A}
    .fil16 {fill:#1C1A17}
    .fil7 {fill:#333300}
    .fil11 {fill:#333300}
    .fil4 {fill:#333333}
    .fil20 {fill:#336699}
    .fil14 {fill:#353432}
    .fil12 {fill:#666666}
    .fil9 {fill:#780000}
    .fil23 {fill:gray}
    .fil6 {fill:#990000}
    .fil18 {fill:#BFBDBD}
    .fil13 {fill:#C4C6C5}
    .fil17 {fill:#C4C6C5}
    .fil15 {fill:#FAFEFB}
    .fil2 {fill:#FDFDFD}
    .fil0 {fill:#FDFEFD}
    .fil1 {fill:#FEFEFE}
    .fil19 {fill:red}
    .fil21 {fill:red}
    .fil10 {fill:white}
    .fil25 {fill:white;fill-rule:nonzero}
   ]]>
  </style>
 </defs>
 <g id="Слой_x0020_1">
  <metadata id="CorelCorpID_0Corel-Layer"/>
  <path class="fil0" d="M17 275l13 0c-1,1 -6,7 -6,8l-7 -8zm119 62l-4 0c0,-9 0,-19 0,-28l0 -22c0,-2 0,-7 0,-8l0 -1c0,0 0,0 0,-1l0 0c0,0 0,0 0,-1l0 0c0,0 0,0 0,0l1 -1c0,0 0,1 0,0 0,0 1,0 1,0l0 0c0,0 0,0 0,0 1,1 0,0 1,0 0,2 0,0 0,1l0 1c0,1 1,1 1,1l0 1 -1 -1c1,20 1,39 1,59zm-94 0l-3 0 0 -57c-5,0 -2,-1 -9,8l-7 10c0,0 0,0 0,0 -2,-2 -3,-4 -5,-6 -1,-3 -3,-5 -5,-7 0,-1 -1,-2 -2,-3 0,-1 0,-2 -1,-2l-10 0 0 -6 3 -3c1,0 1,-1 2,-1 0,-1 0,-1 1,-2 0,0 0,0 0,0l1 0c0,1 0,0 -1,0 1,0 0,0 1,0 -1,0 0,0 0,0 0,-1 0,-1 0,-1l0 0c0,0 0,0 0,0 0,-1 0,-1 0,-1 2,0 2,0 2,1l1 0c1,1 1,1 1,2l2 2c1,0 1,0 1,0l0 2 2 0c0,0 0,1 0,1 0,1 0,0 0,1 0,-1 1,-1 1,-1 0,-1 0,-1 0,-1 3,0 8,0 11,0 2,0 1,0 2,1 0,-2 1,-1 1,-1l0 1c0,-1 0,-1 1,-1 1,-1 0,-1 1,-1l0 -2c1,0 0,0 1,0 1,0 0,-1 1,-2l1 -1c2,-1 1,-2 5,-1 1,0 1,0 1,0l1 0 0 2c1,0 1,0 1,0 0,0 0,0 0,0l-3 5c-1,1 -1,2 -1,4l0 -1 1 0c0,0 0,-1 0,0 0,0 0,0 0,1 0,0 0,0 0,0l0 -1c1,0 2,0 2,0 0,1 0,1 0,2 -1,1 -1,14 -1,15 1,10 0,21 0,31 0,4 0,8 0,13z"/>
  <path class="fil1" d="M25 216c1,0 4,1 4,1 14,3 18,14 19,15 0,0 0,0 1,0 0,-1 0,-1 0,-1 0,0 0,0 0,-1l9 0c0,1 0,1 0,2 0,0 0,0 0,0 0,0 0,-1 0,-2l1 -3c0,-1 0,-1 0,-1l1 -1 1 -3c0,-1 1,-1 -2,0 -7,1 -14,-1 -20,-5 -1,-1 -1,-2 -2,-2l0 0c-1,1 0,1 -4,1l-5 0 -3 0z"/>
  <path class="fil2" d="M121 82c1,-1 4,-6 5,-7 1,-1 2,-2 2,-3 1,-1 2,-2 3,-3 2,-2 4,-4 6,-6l5 -3c1,0 1,0 2,-1l-9 0c-1,0 -1,1 -1,1l-2 1 1 3c0,0 -1,-1 0,0 1,0 0,-1 0,0 -3,2 0,2 -2,3l-2 1 0 -3c-2,0 -2,0 -3,0 1,2 1,0 0,2 0,2 1,3 1,3 0,0 0,0 0,0l-1 0c0,0 0,0 0,0l0 2c-2,0 1,1 -1,0 0,0 0,0 0,0 0,0 0,0 0,0 -1,-1 1,0 -1,-1 -1,0 -2,0 -3,0 0,0 1,0 0,1 0,1 0,0 -1,1 0,2 0,1 0,3l0 1c0,2 0,3 0,5l0 0c1,-1 1,-1 1,0z"/>
  <path class="fil3" d="M99 26c35,0 62,26 62,58 0,33 -27,59 -62,59 -34,0 -62,-26 -62,-59 0,-32 28,-58 62,-58z"/>
  <path class="fil4" d="M99 23c28,0 52,18 59,42 1,12 -63,-6 -79,-29 -3,4 -32,26 -39,27 8,-23 32,-40 59,-40z"/>
  <rect class="fil5" x="9" y="162" width="192" height="149" rx="27" ry="32"/>
  <polygon class="fil6" points="83,198 54,198 54,333 83,333 "/>
  <polygon class="fil7 str0" points="83,199 92,208 99,199 99,332 91,325 83,332 "/>
  <polygon class="fil8 str1" points="83,199 83,199 83,332 83,332 "/>
  <polygon class="fil8 str1" points="99,199 99,199 99,332 99,332 "/>
  <polygon class="fil7 str0" points="83,199 92,208 99,199 99,332 91,325 83,332 "/>
  <polygon class="fil8 str1" points="83,199 83,199 83,332 83,332 "/>
  <polygon class="fil8 str1" points="99,199 99,199 99,332 99,332 "/>
  <polygon class="fil7 str0" points="99,199 108,208 115,199 115,332 107,325 99,332 "/>
  <polygon class="fil8 str1" points="99,199 99,199 99,332 99,332 "/>
  <polygon class="fil8 str1" points="115,199 115,199 115,332 115,332 "/>
  <polygon class="fil7 str0" points="115,199 124,208 131,199 131,332 123,325 115,332 "/>
  <polygon class="fil8 str1" points="115,199 115,199 115,332 115,332 "/>
  <polygon class="fil8 str1" points="131,199 131,199 131,332 131,332 "/>
  <polygon class="fil7 str0" points="131,199 140,208 147,199 147,332 139,325 131,332 "/>
  <polygon class="fil8 str1" points="131,199 131,199 131,332 131,332 "/>
  <polygon class="fil8 str1" points="147,199 147,199 147,332 147,332 "/>
  <polygon class="fil7 str0" points="147,199 156,208 163,199 163,332 155,325 147,332 "/>
  <polygon class="fil8 str1" points="147,199 147,199 147,332 147,332 "/>
  <polygon class="fil8 str1" points="163,199 163,199 163,332 163,332 "/>
  <polygon class="fil6" points="192,198 163,198 163,333 192,333 "/>
  <polygon class="fil9 str2" points="192,206 171,206 171,323 192,323 "/>
  <path class="fil10 str3" d="M175 211c-1,0 -1,0 -1,1 0,1 0,2 1,2 1,0 2,-1 2,-2 0,-1 -1,-1 -2,-1z"/>
  <path class="fil10 str3" d="M175 217c-1,0 -1,1 -1,2 0,1 0,1 1,1 1,0 2,0 2,-1 0,-1 -1,-2 -2,-2z"/>
  <path class="fil10 str3" d="M175 224c-1,0 -1,0 -1,1 0,1 0,2 1,2 1,0 2,-1 2,-2 0,-1 -1,-1 -2,-1z"/>
  <path class="fil10 str3" d="M175 230c-1,0 -1,1 -1,2 0,0 0,1 1,1 1,0 2,-1 2,-1 0,-1 -1,-2 -2,-2z"/>
  <path class="fil10 str3" d="M175 237c-1,0 -1,0 -1,1 0,1 0,2 1,2 1,0 2,-1 2,-2 0,-1 -1,-1 -2,-1z"/>
  <path class="fil10 str3" d="M175 243c-1,0 -1,1 -1,2 0,0 0,1 1,1 1,0 2,-1 2,-1 0,-1 -1,-2 -2,-2z"/>
  <path class="fil10 str3" d="M175 250c-1,0 -1,0 -1,1 0,1 0,2 1,2 1,0 2,-1 2,-2 0,-1 -1,-1 -2,-1z"/>
  <path class="fil10 str3" d="M175 256c-1,0 -1,1 -1,1 0,1 0,2 1,2 1,0 2,-1 2,-2 0,0 -1,-1 -2,-1z"/>
  <path class="fil10 str3" d="M175 262c-1,0 -1,1 -1,2 0,1 0,1 1,1 1,0 2,0 2,-1 0,-1 -1,-2 -2,-2z"/>
  <path class="fil10 str3" d="M175 269c-1,0 -1,1 -1,1 0,1 0,2 1,2 1,0 2,-1 2,-2 0,0 -1,-1 -2,-1z"/>
  <path class="fil10 str3" d="M175 275c-1,0 -1,1 -1,2 0,1 0,1 1,1 1,0 2,0 2,-1 0,-1 -1,-2 -2,-2z"/>
  <path class="fil10 str3" d="M175 282c-1,0 -1,1 -1,1 0,1 0,2 1,2 1,0 2,-1 2,-2 0,0 -1,-1 -2,-1z"/>
  <path class="fil10 str3" d="M175 288c-1,0 -1,1 -1,2 0,1 0,1 1,1 1,0 2,0 2,-1 0,-1 -1,-2 -2,-2z"/>
  <path class="fil10 str3" d="M175 295c-1,0 -1,0 -1,1 0,1 0,2 1,2 1,0 2,-1 2,-2 0,-1 -1,-1 -2,-1z"/>
  <path class="fil10 str3" d="M175 301c-1,0 -1,1 -1,2 0,1 0,1 1,1 1,0 2,0 2,-1 0,-1 -1,-2 -2,-2z"/>
  <path class="fil10 str3" d="M175 308c-1,0 -1,0 -1,1 0,1 0,2 1,2 1,0 2,-1 2,-2 0,-1 -1,-1 -2,-1z"/>
  <path class="fil10 str3" d="M182 214c-1,0 -2,1 -2,1 0,1 1,2 2,2 0,0 1,-1 1,-2 0,0 -1,-1 -1,-1z"/>
  <path class="fil10 str3" d="M182 220c-1,0 -2,1 -2,2 0,1 1,1 2,1 0,0 1,0 1,-1 0,-1 -1,-2 -1,-2z"/>
  <path class="fil10 str3" d="M182 227c-1,0 -2,1 -2,1 0,1 1,2 2,2 0,0 1,-1 1,-2 0,0 -1,-1 -1,-1z"/>
  <path class="fil10 str3" d="M182 233c-1,0 -2,1 -2,2 0,1 1,1 2,1 0,0 1,0 1,-1 0,-1 -1,-2 -1,-2z"/>
  <path class="fil10 str3" d="M182 240c-1,0 -2,0 -2,1 0,1 1,2 2,2 0,0 1,-1 1,-2 0,-1 -1,-1 -1,-1z"/>
  <path class="fil10 str3" d="M182 246c-1,0 -2,1 -2,2 0,1 1,1 2,1 0,0 1,0 1,-1 0,-1 -1,-2 -1,-2z"/>
  <path class="fil10 str3" d="M182 253c-1,0 -2,0 -2,1 0,1 1,2 2,2 0,0 1,-1 1,-2 0,-1 -1,-1 -1,-1z"/>
  <path class="fil10 str3" d="M182 259c-1,0 -2,1 -2,2 0,1 1,1 2,1 0,0 1,0 1,-1 0,-1 -1,-2 -1,-2z"/>
  <path class="fil10 str3" d="M182 266c-1,0 -2,0 -2,1 0,1 1,2 2,2 0,0 1,-1 1,-2 0,-1 -1,-1 -1,-1z"/>
  <path class="fil10 str3" d="M182 272c-1,0 -2,1 -2,2 0,1 1,1 2,1 0,0 1,0 1,-1 0,-1 -1,-2 -1,-2z"/>
  <path class="fil10 str3" d="M182 279c-1,0 -2,0 -2,1 0,1 1,2 2,2 0,0 1,-1 1,-2 0,-1 -1,-1 -1,-1z"/>
  <path class="fil10 str3" d="M182 285c-1,0 -2,1 -2,2 0,0 1,1 2,1 0,0 1,-1 1,-1 0,-1 -1,-2 -1,-2z"/>
  <path class="fil10 str3" d="M182 292c-1,0 -2,0 -2,1 0,1 1,2 2,2 0,0 1,-1 1,-2 0,-1 -1,-1 -1,-1z"/>
  <path class="fil10 str3" d="M182 298c-1,0 -2,1 -2,2 0,0 1,1 2,1 0,0 1,-1 1,-1 0,-1 -1,-2 -1,-2z"/>
  <path class="fil10 str3" d="M182 305c-1,0 -2,0 -2,1 0,1 1,2 2,2 0,0 1,-1 1,-2 0,-1 -1,-1 -1,-1z"/>
  <path class="fil10 str3" d="M182 311c-1,0 -2,1 -2,1 0,1 1,2 2,2 0,0 1,-1 1,-2 0,0 -1,-1 -1,-1z"/>
  <path class="fil10 str3" d="M188 217c-1,0 -1,1 -1,2 0,1 0,1 1,1 1,0 1,0 1,-1 0,-1 0,-2 -1,-2z"/>
  <path class="fil10 str3" d="M188 224c-1,0 -1,0 -1,1 0,1 0,2 1,2 1,0 1,-1 1,-2 0,-1 0,-1 -1,-1z"/>
  <path class="fil10 str3" d="M188 230c-1,0 -1,1 -1,2 0,0 0,1 1,1 1,0 1,-1 1,-1 0,-1 0,-2 -1,-2z"/>
  <path class="fil10 str3" d="M188 237c-1,0 -1,0 -1,1 0,1 0,2 1,2 1,0 1,-1 1,-2 0,-1 0,-1 -1,-1z"/>
  <path class="fil10 str3" d="M188 243c-1,0 -1,1 -1,2 0,0 0,1 1,1 1,0 1,-1 1,-1 0,-1 0,-2 -1,-2z"/>
  <path class="fil10 str3" d="M188 250c-1,0 -1,0 -1,1 0,1 0,2 1,2 1,0 1,-1 1,-2 0,-1 0,-1 -1,-1z"/>
  <path class="fil10 str3" d="M188 256c-1,0 -1,1 -1,1 0,1 0,2 1,2 1,0 1,-1 1,-2 0,0 0,-1 -1,-1z"/>
  <path class="fil10 str3" d="M188 262c-1,0 -1,1 -1,2 0,1 0,1 1,1 1,0 1,0 1,-1 0,-1 0,-2 -1,-2z"/>
  <path class="fil10 str3" d="M188 269c-1,0 -1,1 -1,1 0,1 0,2 1,2 1,0 1,-1 1,-2 0,0 0,-1 -1,-1z"/>
  <path class="fil10 str3" d="M188 275c-1,0 -1,1 -1,2 0,1 0,1 1,1 1,0 1,0 1,-1 0,-1 0,-2 -1,-2z"/>
  <path class="fil10 str3" d="M188 282c-1,0 -1,1 -1,1 0,1 0,2 1,2 1,0 1,-1 1,-2 0,0 0,-1 -1,-1z"/>
  <path class="fil10 str3" d="M188 288c-1,0 -1,1 -1,2 0,1 0,1 1,1 1,0 1,0 1,-1 0,-1 0,-2 -1,-2z"/>
  <path class="fil10 str3" d="M188 295c-1,0 -1,0 -1,1 0,1 0,2 1,2 1,0 1,-1 1,-2 0,-1 0,-1 -1,-1z"/>
  <path class="fil10 str3" d="M188 301c-1,0 -1,1 -1,2 0,1 0,1 1,1 1,0 1,0 1,-1 0,-1 0,-2 -1,-2z"/>
  <path class="fil10 str3" d="M188 308c-1,0 -1,0 -1,1 0,1 0,2 1,2 1,0 1,-1 1,-2 0,-1 0,-1 -1,-1z"/>
  <path class="fil10 str3" d="M188 314c-1,0 -1,1 -1,2 0,1 0,1 1,1 1,0 1,0 1,-1 0,-1 0,-2 -1,-2z"/>
  <polygon class="fil9 str2" points="54,198 17,198 17,333 54,333 "/>
  <polygon class="fil10" points="54,330 18,330 18,201 54,201 "/>
  <polygon class="fil11" points="54,300 28,300 28,304 54,304 "/>
  <polygon class="fil11" points="54,306 28,306 28,310 54,310 "/>
  <polygon class="fil11" points="54,313 28,313 28,317 54,317 "/>
  <polygon class="fil11" points="54,325 28,325 28,329 54,329 "/>
  <rect class="fil12 str4" x="54" y="209" width="7.75609" height="113.654"/>
  <polygon class="fil11" points="54,280 28,280 28,284 54,284 "/>
  <polygon class="fil11" points="54,287 28,287 28,291 54,291 "/>
  <polygon class="fil11" points="54,300 28,300 28,304 54,304 "/>
  <polygon class="fil11" points="54,306 28,306 28,310 54,310 "/>
  <polygon class="fil11" points="54,313 28,313 28,317 54,317 "/>
  <polygon class="fil11" points="54,255 28,255 28,259 54,259 "/>
  <polygon class="fil11" points="54,261 28,261 28,265 54,265 "/>
  <polygon class="fil11" points="54,268 28,268 28,272 54,272 "/>
  <polygon class="fil11" points="54,235 28,235 28,239 54,239 "/>
  <polygon class="fil11" points="54,242 28,242 28,246 54,246 "/>
  <polygon class="fil11" points="54,255 28,255 28,259 54,259 "/>
  <polygon class="fil11" points="54,261 28,261 28,265 54,265 "/>
  <polygon class="fil11" points="54,268 28,268 28,272 54,272 "/>
  <polygon class="fil11" points="54,206 28,206 28,210 54,210 "/>
  <polygon class="fil11" points="54,213 28,213 28,217 54,217 "/>
  <polygon class="fil11" points="54,219 28,219 28,223 54,223 "/>
  <polygon class="fil11" points="54,206 28,206 28,210 54,210 "/>
  <polygon class="fil11" points="54,213 28,213 28,217 54,217 "/>
  <polygon class="fil11" points="54,219 28,219 28,223 54,223 "/>
  <ellipse class="fil10" cx="102" cy="158" rx="40" ry="14"/>
  <path class="fil13" d="M328 99c-1,3 -1,5 -2,9 0,4 1,7 1,11 4,0 6,1 7,4 1,4 -2,5 -3,7l2 4 -17 0c-1,0 -1,0 -1,-1l0 -32c-1,2 -1,30 0,34 2,0 16,0 18,0 5,5 8,9 14,13 13,7 30,7 43,0 10,-6 12,-12 14,-14 1,-1 2,-3 3,-5 -1,-3 -3,-3 -1,-7 2,-2 2,-2 4,-3 0,-4 1,-7 1,-11 0,-2 -2,-7 -2,-9 0,-1 -3,-7 -5,-10 -1,-3 -5,-8 -7,-9l0 12 -55 1 0 -14c-5,4 -9,8 -11,13 -1,2 -2,5 -3,7z"/>
  <path class="fil14" d="M325 75c0,1 0,1 -1,2 -5,7 -9,16 -9,24l0 32c1,-1 1,-3 2,-5l7 -22c1,-1 2,-2 2,-4l1 -3c1,-1 1,0 1,0 1,-2 2,-5 3,-7 2,-5 6,-9 11,-13l0 14 55 -1c0,-10 -1,-17 7,-3 2,3 5,9 5,10l0 -1c3,5 6,12 7,17 1,3 5,17 6,18 0,-7 0,-14 0,-21 0,-3 0,-7 0,-11 0,-3 -1,-7 -1,-9 -1,-1 -5,-15 -15,-24 -7,-5 -14,-10 -26,-12 -11,-3 -23,-1 -33,2 -14,6 -20,15 -22,17z"/>
  <path class="fil15" d="M346 170c1,-3 6,-4 8,-2 3,2 3,7 1,8 -1,1 0,1 -2,1 -5,3 -10,-4 -7,-7zm45 -7l0 -1c2,-1 4,-3 7,-1 1,1 1,1 2,2 1,1 1,1 1,3 0,4 -3,5 -8,5 -1,-1 -2,-1 -3,-3 0,-2 0,-4 1,-5zm9 -12c7,-3 10,7 4,10 -7,2 -11,-8 -4,-10zm-9 12c-1,-1 -1,-1 -1,-1 0,0 0,-1 -1,-1l0 0c-1,1 0,2 0,2 0,1 0,0 -1,1l2 2c-1,-1 0,-1 -2,-1l-9 0c0,2 0,1 0,2 1,0 1,-2 1,1 0,1 -1,0 -1,1 0,1 0,1 1,4l0 1c0,-3 1,-6 4,-6 4,-1 6,1 7,3 2,6 -7,10 -10,4l-2 1c0,3 -1,5 -3,6 -2,0 -3,0 -4,0 -2,-1 -2,-1 -2,-3 -3,-2 0,-6 1,-7 -1,-1 0,0 -1,0l-5 -1c0,1 0,-1 0,1 3,3 3,7 0,9 -1,2 -4,2 -6,0 -2,-1 -3,-3 -2,-6 0,-1 0,-2 1,-2 1,-1 1,-1 2,-2 0,0 -2,-1 -2,-2 0,0 0,0 0,0 0,0 2,-2 0,-2 -1,-2 2,0 0,0l-1 0c0,0 0,1 0,0 -2,-1 -1,0 0,-2l-1 1c0,0 -1,0 -1,0l-1 0c-2,0 -5,-1 -7,-1l0 -2c-1,0 -1,-1 -1,0 0,1 1,2 0,4 0,0 -1,1 -1,1 -1,1 0,1 -1,1 -1,2 -3,2 -5,1 -1,0 -2,-1 -2,-2l-1 0c0,0 0,0 0,0 0,2 0,2 2,3l-1 0c1,2 3,3 4,4 1,1 5,4 8,6 3,1 7,3 10,4 9,1 18,1 25,-2 12,-5 23,-16 26,-30 3,0 7,0 10,0 4,0 5,1 9,2 0,-1 -1,-4 -1,-4 0,0 -2,1 -3,1l1 -1c0,0 0,0 0,0 0,-1 0,-1 0,-1 0,-1 -14,-1 -16,0 0,-2 0,-2 -1,-2 1,2 1,1 0,2 -1,0 0,-1 -1,-2 -3,0 -3,0 -6,0 -5,0 -2,1 -4,0 0,0 -1,1 -1,1 -1,2 1,1 0,3 -3,4 -2,1 -2,2l0 2c0,0 0,1 0,1 0,0 0,0 0,-1 0,0 0,-2 0,-2 -1,0 -1,0 -1,2 0,1 0,2 0,3 -3,0 -1,0 -3,1 0,1 -1,1 0,3z"/>
  <path class="fil16" d="M315 133c0,1 0,1 1,1l17 0 -2 -4c-2,0 -4,0 -5,-1 -1,0 -2,-2 -3,-3 -1,-4 2,-6 4,-7 0,-4 -1,-7 -1,-11 1,-4 1,-6 2,-9 0,0 0,-1 -1,0l-1 3c0,2 -1,3 -2,4l-7 22c-1,2 -1,4 -2,5z"/>
  <path class="fil16" d="M409 99c0,2 2,7 2,9 0,4 -1,7 -1,11 3,1 6,1 6,4 1,4 -1,5 -4,7 -3,0 -3,-1 -5,-1 -1,2 -2,4 -3,5l18 0 0 -1c-1,-1 -5,-15 -6,-18 -1,-5 -4,-12 -7,-17l0 1z"/>
  <rect class="fil17" x="322" y="168" width="95.7036" height="27.222" rx="7" ry="5"/>
  <ellipse class="fil18" cx="350" cy="192" rx="17" ry="16"/>
  <ellipse class="fil18" cx="385" cy="192" rx="17" ry="16"/>
  <polygon class="fil19" points="322,188 339,178 368,190 397,174 419,188 415,209 445,337 283,337 327,214 "/>
  <polygon class="fil20" points="316,247 421,247 425,255 314,255 "/>
  <rect class="fil21" x="337" y="168" width="4.33345" height="19.7739"/>
  <rect class="fil21" x="397" y="168" width="4.33345" height="19.7739"/>
  <polygon class="fil22" points="227,179 231,179 231,337 227,337 "/>
  <rect class="fil23" x="221" y="157" width="18.7499" height="27.3436"/>
  <rect class="fil17" transform="matrix(0.651553 -0.29456 0.29456 0.651553 212.166 117.221)" width="60.1571" height="89.8441" rx="15" ry="15"/>
  <rect class="fil24" transform="matrix(0.556172 -0.250638 0.1864 0.413627 242.207 119.527)" width="27.202" height="5.46378"/>
  <rect class="fil24" transform="matrix(0.556172 -0.250638 0.1864 0.413627 244.071 123.663)" width="27.202" height="5.46378"/>
  <rect class="fil24" transform="matrix(0.556172 -0.250638 0.1864 0.413627 245.936 127.8)" width="27.202" height="5.46378"/>
  <rect class="fil24" transform="matrix(0.556172 -0.250638 0.1864 0.413627 247.8 131.936)" width="27.202" height="5.46378"/>
  <rect class="fil24" transform="matrix(0.556172 -0.250638 0.1864 0.413627 249.664 136.072)" width="27.202" height="5.46378"/>
  <rect class="fil24" transform="matrix(0.556172 -0.250638 0.1864 0.413627 251.528 140.209)" width="27.202" height="5.46378"/>
  <rect class="fil24" transform="matrix(0.556172 -0.250638 0.1864 0.413627 253.392 144.345)" width="27.202" height="5.46378"/>
  <rect class="fil24" transform="matrix(0.556172 -0.250638 0.1864 0.413627 255.256 148.482)" width="27.202" height="5.46378"/>
  <rect class="fil24" transform="matrix(0.556172 -0.250638 0.1864 0.413627 257.12 152.618)" width="27.202" height="5.46378"/>
  <rect class="fil24" transform="matrix(0.556172 -0.250638 0.1864 0.413627 240.343 115.39)" width="27.202" height="5.46378"/>
  <rect class="fil24" transform="matrix(0.556172 -0.250638 0.1864 0.413627 221.525 128.847)" width="27.202" height="5.46378"/>
  <rect class="fil24" transform="matrix(0.556172 -0.250638 0.1864 0.413627 223.389 132.984)" width="27.202" height="5.46378"/>
  <rect class="fil24" transform="matrix(0.556172 -0.250638 0.1864 0.413627 225.253 137.12)" width="27.202" height="5.46378"/>
  <rect class="fil24" transform="matrix(0.556172 -0.250638 0.1864 0.413627 227.117 141.256)" width="27.202" height="5.46378"/>
  <rect class="fil24" transform="matrix(0.556172 -0.250638 0.1864 0.413627 228.982 145.393)" width="27.202" height="5.46378"/>
  <rect class="fil24" transform="matrix(0.556172 -0.250638 0.1864 0.413627 230.846 149.529)" width="27.202" height="5.46378"/>
  <rect class="fil24" transform="matrix(0.556172 -0.250638 0.1864 0.413627 232.71 153.666)" width="27.202" height="5.46378"/>
  <rect class="fil24" transform="matrix(0.556172 -0.250638 0.1864 0.413627 234.574 157.802)" width="27.202" height="5.46378"/>
  <rect class="fil24" transform="matrix(0.556172 -0.250638 0.1864 0.413627 236.438 161.939)" width="27.202" height="5.46378"/>
  <rect class="fil24" transform="matrix(0.556172 -0.250638 0.1864 0.413627 219.661 124.711)" width="27.202" height="5.46378"/>
  <circle class="fil21" cx="327" cy="124" r="7"/>
  <circle class="fil21" cx="412" cy="124" r="7"/>
  <path class="fil25" d="M78 205l-9 -2 0 3 3 1 0 2 -3 1 0 3 4 -2c0,1 0,1 0,2 1,0 2,1 3,1 2,0 2,-2 2,-4l0 -5zm-2 3l0 2c0,0 0,1 -1,1 0,0 -1,-1 -1,-2l0 -2 2 1z"/>
  <path id="1" class="fil25" d="M69 224l9 -1 0 -4 -9 -6 0 4 2 0 0 4 -2 0 0 3zm4 -3l0 -2 3 1 -3 1z"/>
  <path id="2" class="fil25" d="M78 239l0 -4 -6 -3c0,0 5,0 6,0l0 -5 -9 -2 0 3 7 2 -7 0 0 2 7 4 -7 -2 0 3 9 2z"/>
  <path id="3" class="fil25" d="M78 253l0 -4 -6 -3c0,0 5,0 6,0l0 -5 -9 -2 0 3 7 2 -7 0 0 2 7 4 -7 -2 0 3 9 2z"/>
  <path id="4" class="fil25" d="M76 263l0 0c2,0 2,-2 2,-4 0,-2 0,-3 0,-3 -1,-2 -2,-2 -3,-2 -1,0 -2,1 -2,2l0 2c-1,1 -1,1 -1,1 -1,0 -1,-1 -1,-1 0,-1 0,-2 1,-2l0 0 0 -3c-1,0 -1,0 -2,1 -1,0 -1,2 -1,4 0,4 2,5 3,5 1,0 2,-1 2,-3l1 -2c0,0 0,-1 1,-1 0,0 0,1 0,2 0,1 0,1 0,1l-1 0 1 3z"/>
  <polygon id="5" class="fil25" points="78,274 78,264 76,264 76,267 69,265 69,268 76,270 76,273 "/>
  <polygon id="6" class="fil25" points="78,284 78,275 69,273 69,282 71,283 71,276 73,276 73,282 75,283 75,277 76,277 76,283 "/>
  <polygon id="7" class="fil25" points="78,289 78,286 69,284 69,287 "/>
  <polygon id="8" class="fil25" points="78,301 78,298 72,297 78,294 78,291 69,289 69,292 75,293 69,296 69,299 "/>
 </g>
</svg>
