<svg xmlns="http://www.w3.org/2000/svg" width="450" height="360" viewBox="0 0 450 360" shape-rendering="geometricPrecision" text-rendering="geometricPrecision" image-rendering="optimizeQuality" fill-rule="evenodd" clip-rule="evenodd"><defs><style>.str1{stroke:#b3b3b3;stroke-width:3.99921}.str4{stroke:#000;stroke-width:.999213}.str3{stroke:#fff;stroke-width:1.99961}.str0{stroke:#000;stroke-width:2.3622}.str2{stroke:#000;stroke-width:.9}.fil8{fill:none}.fil3{fill:#c4c5c5}.fil21{fill:#000}.fil5{fill:#033}.fil23{fill:#1a1a1a}.fil16{fill:#1c1a17}.fil7,.fil11{fill:#330}.fil4{fill:#333}.fil19{fill:#369}.fil14{fill:#353432}.fil12{fill:#666}.fil9{fill:#780000}.fil22{fill:gray}.fil6{fill:#900}.fil13,.fil17{fill:#c4c6c5}.fil15{fill:#fafefb}.fil2{fill:#fdfdfd}.fil0{fill:#fdfefd}.fil1{fill:#fefefe}.fil18,.fil20{fill:red}.fil10,.fil24{fill:#fff}.fil24{fill-rule:nonzero}</style></defs><g id="Слой_x0020_1"><path class="fil0" d="M15 293h13c0 1-5 7-6 8l-7-8zm119 62h-4v-50c0-1 1-7 0-7v-2l1-1v-1h2l1-1c0 2-1 0 0 1v1c0 1 0 1 1 2l-1-1v59zm-93 0h-3v-56c-5 0-2-1-9 7l-7 10c-2-2-4-4-5-6-2-2-3-5-5-7-1-1-2-2-2-3-1-1-1-1-2-1l-9-1v-6l3-3 1-1 2-2c0 1 0 0 0 0 1 0 0 1 1 0H5v-1h1v-1c1 0 1 0 2 1h1c0 1 0 1 1 2l2 2h1v2h1v1c0 1 1 0 0 1 1-1 1-1 2-1 0-1-1 0-1-1h12c2 0 1 0 1 1 0-1 1-1 2-1v1c0-1 0 0 1-1 0-1 0-1 1-1v-2c1 0 1-1 2-2l1-1c1-1 0-1 4-1 1 0 1 0 1 1h2v1h1c0 1 0 0 0 0l-3 5c-1 2-1 3-1 4v-1c1 0 0 0 0 0 1 1 1 0 1 1v-1h2c0 1-1 2-1 3v58z"/><path class="fil1" d="M24 234c1 1 3 1 4 1 14 3 18 14 19 15v-1c1 0 0 0 1-1h9c0 1-1 2 0 2v-2l1-3v-2l2-3c-1-1 0-1-2 0-7 1-15-1-20-5l-2-2h-1c0 1 0 1-3 1h-8z"/><path class="fil2" d="M120 100c1-1 4-6 5-7 0-1 1-2 2-3l3-3c1-2 3-4 6-5l5-4c1 0 1 0 1-1h-8c-2 0-1 1-1 1l-2 1v3h1c1 1 0-1 0 1-3 2-1 1-3 2l-1 1-1-3h-3c1 2 1 0 1 2-1 2 0 3 1 4h-1l-1 2c-2-1 1 0 0-1h-1c-1-1 1 0 0-1h-3v1c0 1-1 0-1 1-1 2 0 2 0 3v2c-1 1 0 2 0 4 1-1 0 0 1 0z"/><path class="fil3" d="M98 44c34 0 62 26 62 59 0 32-28 58-62 58s-62-26-62-58c0-33 28-59 62-59z"/><path class="fil4" d="M98 42c28 0 51 17 59 41 1 12-63-6-79-29-4 4-33 26-39 28 8-24 31-40 59-40z"/><rect class="fil5" x="7" y="180" width="192" height="149" rx="27" ry="32"/><path class="fil6" d="M81 216H52v136h29z"/><path class="fil7 str0" d="M82 217l8 9 8-9-1 133-8-7-8 7z"/><path class="fil8 str1" d="M82 217h-1v133h1zM98 217h-1v133h1z"/><path class="fil7 str0" d="M82 217l8 9 8-9-1 133-8-7-8 7z"/><path class="fil8 str1" d="M82 217h-1v133h1zM98 217h-1v133h1z"/><path class="fil7 str0" d="M98 217l8 9 8-9-1 133-8-7-8 7z"/><path class="fil8 str1" d="M98 217h-1v133h1zM114 217h-1v133h1z"/><path class="fil7 str0" d="M114 217l8 9 8-9-1 133-8-7-8 7z"/><path class="fil8 str1" d="M114 217h-1v133h1zM130 217h-1v133h1z"/><path class="fil7 str0" d="M130 217l8 9 8-9-1 133-8-7-8 7z"/><path class="fil8 str1" d="M130 217h-1v133h1zM146 217h-1v133h1z"/><path class="fil7 str0" d="M146 217l8 9 8-9-1 133-8-7-8 7z"/><path class="fil8 str1" d="M146 217h-1v133h1zM162 217h-1v133h1z"/><path class="fil6" d="M190 216h-29v136h29z"/><path class="fil9 str2" d="M190 224h-20v117h20z"/><path class="fil10 str3" d="M174 229c-1 0-2 1-2 1 0 1 1 2 2 2s1-1 1-2c0 0 0-1-1-1zM174 235c-1 0-2 1-2 2s1 1 2 1 1 0 1-1 0-2-1-2zM174 242c-1 0-2 0-2 1s1 2 2 2 1-1 1-2 0-1-1-1zM174 248c-1 0-2 1-2 2s1 1 2 1 1 0 1-1 0-2-1-2zM174 255c-1 0-2 0-2 1s1 2 2 2 1-1 1-2 0-1-1-1zM174 261c-1 0-2 1-2 2s1 1 2 1 1 0 1-1 0-2-1-2zM174 268c-1 0-2 0-2 1s1 2 2 2 1-1 1-2 0-1-1-1zM174 274c-1 0-2 1-2 2s1 1 2 1 1 0 1-1 0-2-1-2zM174 281c-1 0-2 0-2 1s1 2 2 2 1-1 1-2 0-1-1-1zM174 287c-1 0-2 1-2 2 0 0 1 1 2 1s1-1 1-1c0-1 0-2-1-2zM174 294c-1 0-2 0-2 1s1 2 2 2 1-1 1-2 0-1-1-1zM174 300c-1 0-2 1-2 2 0 0 1 1 2 1s1-1 1-1c0-1 0-2-1-2zM174 307c-1 0-2 0-2 1s1 2 2 2 1-1 1-2 0-1-1-1zM174 313c-1 0-2 1-2 1 0 1 1 2 2 2s1-1 1-2c0 0 0-1-1-1zM174 319c-1 0-2 1-2 2s1 1 2 1 1 0 1-1 0-2-1-2zM174 326c-1 0-2 1-2 1 0 1 1 2 2 2s1-1 1-2c0 0 0-1-1-1zM180 232c-1 0-1 1-1 2 0 0 0 1 1 1s2-1 2-1c0-1-1-2-2-2zM180 239c-1 0-1 0-1 1s0 2 1 2 2-1 2-2-1-1-2-1zM180 245c-1 0-1 1-1 2 0 0 0 1 1 1s2-1 2-1c0-1-1-2-2-2zM180 252c-1 0-1 0-1 1s0 2 1 2 2-1 2-2-1-1-2-1zM180 258c-1 0-1 1-1 1 0 1 0 2 1 2s2-1 2-2c0 0-1-1-2-1zM180 264c-1 0-1 1-1 2s0 1 1 1 2 0 2-1-1-2-2-2zM180 271c-1 0-1 1-1 1 0 1 0 2 1 2s2-1 2-2c0 0-1-1-2-1zM180 277c-1 0-1 1-1 2s0 1 1 1 2 0 2-1-1-2-2-2zM180 284c-1 0-1 1-1 1 0 1 0 2 1 2s2-1 2-2c0 0-1-1-2-1zM180 290c-1 0-1 1-1 2s0 1 1 1 2 0 2-1-1-2-2-2zM180 297c-1 0-1 0-1 1s0 2 1 2 2-1 2-2-1-1-2-1zM180 303c-1 0-1 1-1 2s0 1 1 1 2 0 2-1-1-2-2-2zM180 310c-1 0-1 0-1 1s0 2 1 2 2-1 2-2-1-1-2-1zM180 316c-1 0-1 1-1 2s0 1 1 1 2 0 2-1-1-2-2-2zM180 323c-1 0-1 0-1 1s0 2 1 2 2-1 2-2-1-1-2-1zM180 329c-1 0-1 1-1 2s0 1 1 1 2 0 2-1-1-2-2-2zM187 235c-1 0-2 1-2 2s1 1 2 1c0 0 1 0 1-1s-1-2-1-2zM187 242c-1 0-2 0-2 1s1 2 2 2c0 0 1-1 1-2s-1-1-1-1zM187 248c-1 0-2 1-2 2s1 1 2 1c0 0 1 0 1-1s-1-2-1-2zM187 255c-1 0-2 0-2 1s1 2 2 2c0 0 1-1 1-2s-1-1-1-1zM187 261c-1 0-2 1-2 2s1 1 2 1c0 0 1 0 1-1s-1-2-1-2zM187 268c-1 0-2 0-2 1s1 2 2 2c0 0 1-1 1-2s-1-1-1-1zM187 274c-1 0-2 1-2 2s1 1 2 1c0 0 1 0 1-1s-1-2-1-2zM187 281c-1 0-2 0-2 1s1 2 2 2c0 0 1-1 1-2s-1-1-1-1zM187 287c-1 0-2 1-2 2 0 0 1 1 2 1l1-1c0-1-1-2-1-2zM187 294c-1 0-2 0-2 1s1 2 2 2c0 0 1-1 1-2s-1-1-1-1zM187 300c-1 0-2 1-2 2 0 0 1 1 2 1l1-1c0-1-1-2-1-2zM187 307c-1 0-2 0-2 1s1 2 2 2c0 0 1-1 1-2s-1-1-1-1zM187 313c-1 0-2 1-2 1 0 1 1 2 2 2 0 0 1-1 1-2l-1-1zM187 319c-1 0-2 1-2 2s1 1 2 1c0 0 1 0 1-1s-1-2-1-2zM187 326c-1 0-2 1-2 1 0 1 1 2 2 2 0 0 1-1 1-2l-1-1zM187 332c-1 0-2 1-2 2s1 1 2 1c0 0 1 0 1-1s-1-2-1-2z"/><path class="fil9 str2" d="M52 216H15v135h37z"/><path class="fil10" d="M52 348H17V220h35z"/><path class="fil11" d="M52 318H27v4h25zM52 324H27v4h25zM52 331H27v4h25zM52 344H27v4h25z"/><path class="fil12 str4" d="M52 227h7.756v113.654H52z"/><path class="fil11" d="M52 298H27v4h25zM52 305H27v4h25zM52 318H27v4h25zM52 324H27v4h25zM52 331H27v4h25zM52 273H27v4h25zM52 279H27v4h25zM52 286H27v4h25zM52 254H27v4h25zM52 260H27v4h25z"/><path class="fil11" d="M52 273H27v4h25zM52 279H27v4h25zM52 286H27v4h25zM52 224H27v4h25zM52 231H27v4h25zM52 237H27v4h25z"/><path class="fil11" d="M52 224H27v4h25zM52 231H27v4h25zM52 237H27v4h25z"/><ellipse class="fil10" cx="100" cy="176" rx="40" ry="14"/><path class="fil13" d="M327 117c-1 3-2 6-2 9v11c4 0 6 1 7 4 1 4-2 5-3 7l3 4h-18v-33c-1 3-1 30-1 34h19c4 5 7 9 14 13 13 7 29 8 43 0 10-6 11-11 14-13 0-2 2-4 3-6-1-3-3-3-1-7 1-2 1-2 4-3 0-3 1-6 0-10 0-3-1-8-1-10-1 0-3-7-5-10s-5-8-7-8v12h-56V97c-4 4-8 8-11 14-1 1-1 4-2 6z"/><path class="fil14" d="M324 93c0 1-1 1-2 2-4 7-8 16-8 24v32c1-1 1-3 1-4l8-22c0-2 1-3 2-4l1-3c1-1 0-1 1-1 1-2 1-5 2-6 3-6 7-10 11-14v14h56V99c2 0 5 5 7 8s4 10 5 10v-1c2 5 5 12 7 17 1 3 5 17 6 18v-21-10c-1-3-2-8-2-10-1-1-4-15-15-23-7-6-13-11-25-13-11-3-23-1-33 3-15 5-20 14-22 16z"/><path class="fil15" d="M345 188c1-3 5-4 8-2 2 3 2 7 0 8 0 1 0 1-1 1-5 3-11-4-7-7zm44-7l1-1c2-1 3-3 7-1 1 1 1 1 1 2 1 1 1 1 1 3 0 4-3 6-7 5-1-1-2 0-3-3-1-2 0-3 0-5zm10-12c7-3 9 8 4 10-7 2-11-8-4-10zm-10 12v-1c-1 0-1 0-1-1h-1v4l1 1c0-1 0 0-1-1h-10c1 2 0 1 1 2 0 0 1-1 0 1v1c-1 1 0 2 0 4l1 2c0-4 1-6 4-7s6 1 6 3c2 7-6 10-9 5h-2c0 3-1 5-4 6h-4l-2-2c-3-2 0-6 1-8h-1l-4-1c-1 1-1-1 0 2 2 2 3 6 0 8-2 2-5 2-7 0-1-1-2-3-2-5 1-2 1-2 2-3 0-1 1 0 2-1-1 0-2-2-3-3 0 0 2-2 1-2-2-1 1 0-1 0-1 0-1 1-1 0-1-1 0 0 1-2l-2 1h-1c-3 0-5 0-7-1v-2c-1 0-1-1-1 0v4c-1 1-1 1-1 2-1 1 0 0-1 0-1 2-4 2-5 1-1 0-2-1-3-1v-1h-1c0 2 1 2 2 3 1 2 3 3 3 5 1 0 5 3 9 5 3 2 6 3 10 4 8 2 17 1 25-2 12-5 22-16 25-30h11c4 0 5 1 8 2v-4c-1 0-2 1-3 1v-1l1-1c-1-1-15 0-16 0-1-2 0-2-1-2v3c-1-1-1-1-1-3h-6c-5 0-3 1-5 0v1c-1 2 0 1-1 3-3 4-1 1-1 3v3c-1-1-1-1-1-2v-2s-1 0-1 2v3c-2 0-1 0-2 2-1 0-1 1-1 2z"/><path class="fil16" d="M314 151v1h18l-3-4c-2 0-3 0-5-1-1 0-2-1-2-3-1-4 1-5 3-7v-11c0-3 1-6 2-9-1 0 0 0-1 1l-1 3c-1 1-2 2-2 4l-8 22c0 1 0 3-1 4zM408 117c0 2 1 7 1 10 1 4 0 7 0 10 3 1 5 1 6 4 0 4-2 6-4 7-3 0-3 0-5-1-1 2-3 4-3 6h18v-2c-1-1-5-15-6-18-2-5-5-12-7-17v1z"/><rect class="fil17" x="316" y="186" width="105.208" height="20.184" rx="8" ry="4"/><path class="fil18" d="M315 196l110 3-12 28 31 128H282l43-123z"/><path class="fil19" d="M315 265h105l3 8H312z"/><path class="fil20" d="M335 187h4.333v19.774H335zM395 187h4.333v19.774H395z"/><path class="fil21" d="M226 197h3v158h-3z"/><path class="fil22" d="M219 175h18.75v27.344H219z"/><rect class="fil17" transform="matrix(.65155 -.29456 .29456 .65155 210.732 135.39)" width="60.157" height="89.844" rx="15" ry="15"/><path class="fil23" d="M240.773 137.697l15.13-6.818 1.018 2.26-15.13 6.817zM242.637 141.834l15.13-6.818 1.018 2.26-15.13 6.818zM244.5 145.97l15.13-6.818 1.02 2.26-15.13 6.818zM246.365 150.106l15.13-6.818 1.018 2.26-15.13 6.818zM248.23 154.243l15.128-6.818 1.02 2.26-15.13 6.818zM250.094 158.38l15.13-6.82 1.018 2.26-15.13 6.82zM251.958 162.516l15.13-6.818 1.018 2.26-15.13 6.818zM253.822 166.652l15.13-6.818 1.018 2.26-15.13 6.818zM255.686 170.79l15.13-6.82 1.018 2.26-15.13 6.82zM238.91 133.56l15.128-6.817 1.02 2.26-15.13 6.818zM220.09 147.018l15.13-6.818 1.02 2.26-15.13 6.818zM221.955 151.154l15.13-6.818 1.018 2.26-15.13 6.818zM223.82 155.29l15.128-6.818 1.02 2.26-15.13 6.818zM225.683 159.427l15.13-6.818 1.018 2.26-15.13 6.817zM227.547 163.563l15.13-6.818 1.018 2.26-15.13 6.818zM229.41 167.7l15.13-6.818 1.02 2.26-15.13 6.818zM231.275 171.836l15.13-6.818 1.018 2.26-15.13 6.818zM233.14 175.973l15.128-6.818 1.02 2.26-15.13 6.818zM235.004 180.11l15.13-6.82 1.018 2.26-15.13 6.82zM218.227 142.88l15.13-6.817 1.018 2.26-15.13 6.818z"/><circle class="fil20" cx="326" cy="142" r="7"/><circle class="fil20" cx="410" cy="142" r="7"/><path class="fil24" d="M77 223l-9-2v3l3 1v2l-3 1v3l3-1s1 0 1 1c0 0 1 1 2 1 2 0 3-2 3-3v-6zm-2 3v2s0 1-1 1-1-1-1-2v-2l2 1z"/><path id="1" class="fil24" d="M68 243l9-2v-4l-9-6v4l1 1v3h-1v4zm3-4v-2l3 2h-3z"/><path id="2" class="fil24" d="M77 257v-4l-6-3h6v-5l-9-2v3l7 2h-7v2l7 4-7-2v3l9 2z"/><path id="3" class="fil24" d="M77 271v-4l-6-3h6v-5l-9-2v3l7 2h-7v2l7 4-7-2v3l9 2z"/><path id="4" class="fil24" d="M74 281c2 0 3-2 3-4s0-3-1-3c0-1-1-2-2-2s-2 2-2 2l-1 2c0 1 0 2-1 2s-1-2-1-2c0-1 1-2 2-2l-1-3s-1 0-1 1c-1 1-2 2-2 4 0 4 3 5 4 5s1-1 2-2v-3c1 0 1-1 1-1 1 0 1 1 1 2s0 1-1 1v3z"/><path id="5" class="fil24" d="M77 292v-10h-2v3l-7-2v4l7 1v3z"/><path id="6" class="fil24" d="M77 302v-9l-9-2v9l2 1v-7l1 1v5l2 1v-6h2v6z"/><path id="7" class="fil24" d="M77 307v-3l-9-2v3z"/><path id="8" class="fil24" d="M77 319v-2l-6-2 6-3v-3l-9-2v3l5 2-5 3v2z"/></g></svg>