<?xml version="1.0" encoding="UTF-8"?>
<!DOCTYPE svg PUBLIC "-//W3C//DTD SVG 1.1//EN" "http://www.w3.org/Graphics/SVG/1.1/DTD/svg11.dtd">
<!-- Creator: CorelDRAW X7 -->
<svg xmlns="http://www.w3.org/2000/svg" xml:space="preserve" width="118.533mm" height="94.8266mm" version="1.1" style="shape-rendering:geometricPrecision; text-rendering:geometricPrecision; image-rendering:optimizeQuality; fill-rule:evenodd; clip-rule:evenodd"
viewBox="0 0 11853 9483"
 xmlns:xlink="http://www.w3.org/1999/xlink">
 <defs>
  <style type="text/css">
   <![CDATA[
    .str2 {stroke:black;stroke-width:23.81}
    .str4 {stroke:black;stroke-width:26.44}
    .str1 {stroke:#B3B3B3;stroke-width:105.81}
    .str0 {stroke:black;stroke-width:62.5}
    .str3 {stroke:white;stroke-width:52.91}
    .fil8 {fill:none}
    .fil3 {fill:#FCD5A6}
    .fil17 {fill:black}
    .fil5 {fill:#003333}
    .fil20 {fill:#1A1A1A}
    .fil14 {fill:#1C1A17}
    .fil7 {fill:#333300}
    .fil4 {fill:#333333}
    .fil16 {fill:#336699}
    .fil12 {fill:#353432}
    .fil11 {fill:#666666}
    .fil9 {fill:#780000}
    .fil18 {fill:gray}
    .fil6 {fill:#990000}
    .fil19 {fill:#C4C6C5}
    .fil13 {fill:#FAFEFB}
    .fil2 {fill:#FDFDFD}
    .fil0 {fill:#FDFEFD}
    .fil1 {fill:#FEFEFE}
    .fil15 {fill:red}
    .fil10 {fill:white}
    .fil21 {fill:white;fill-rule:nonzero}
   ]]>
  </style>
 </defs>
 <g id="Слой_x0020_1">
  <metadata id="CorelCorpID_0Corel-Layer"/>
  <path class="fil0" d="M424 7063l344 0c-26,26 -158,185 -158,211l-186 -211zm3149 1640l-106 0c0,-238 0,-503 0,-741l0 -582c0,-53 0,-185 0,-212l0 -26c0,0 0,0 0,-26l0 0c0,0 0,0 0,-27l0 0c0,0 0,0 0,0l27 -26c0,0 0,26 0,0 0,0 26,0 26,0l0 0c0,0 0,0 0,0 27,26 0,0 27,0 0,53 0,0 0,26l0 27c0,26 26,26 26,26l0 26 -26 -26c26,529 26,1032 26,1561l0 0zm-2487 0l-79 0 0 -1508c-133,0 -53,-27 -239,212l-185 264c0,0 0,0 0,0 -53,-53 -79,-106 -132,-159 -27,-79 -79,-132 -132,-185 0,-26 -27,-53 -53,-79 0,-27 0,-53 -27,-53l-264 0 0 -159 79 -79c26,0 26,-27 53,-27 0,-26 0,-26 26,-53 0,0 0,0 0,0l27 0c0,27 0,0 -27,0 27,0 0,0 27,0 -27,0 0,0 0,0 0,-26 0,-26 0,-26l0 0c0,0 0,0 0,0 0,-27 0,-27 0,-27 53,0 53,0 53,27l26 0c27,26 27,26 27,53l53 53c26,0 26,0 26,0l0 53 53 0c0,0 0,26 0,26 0,27 0,0 0,27 0,-27 26,-27 26,-27 0,-26 0,-26 0,-26 80,0 212,0 291,0 53,0 27,0 53,26 0,-53 27,-26 27,-26l0 26c0,-26 0,-26 26,-26 27,-27 0,-27 27,-27l0 -53c26,0 0,0 26,0 27,0 0,-26 27,-53l26 -26c53,-27 27,-53 132,-27 27,0 27,0 27,0l26 0 0 53c27,0 27,0 27,0 0,0 0,0 0,0l-80 133c-26,26 -26,53 -26,105l0 -26 26 0c0,0 0,-26 0,0 0,0 0,0 0,26 0,0 0,0 0,0l0 -26c27,0 53,0 53,0 0,26 0,26 0,53 -26,26 -26,370 -26,397 26,264 0,555 0,820 0,106 0,212 0,344l0 0z"/>
  <path class="fil1" d="M636 5502c27,0 106,26 106,26 370,79 476,370 503,397 0,0 0,0 26,0 0,-27 0,-27 0,-27 0,0 0,0 0,-26l238 0c0,26 0,26 0,53 0,0 0,0 0,0 0,0 0,-27 0,-53l27 -79c0,-27 0,-27 0,-27l26 -26 27 -80c0,-26 26,-26 -53,0 -186,27 -371,-26 -529,-132 -27,-26 -27,-53 -53,-53l0 0c-27,27 0,27 -106,27l-133 0 -79 0 0 0z"/>
  <path class="fil2" d="M3176 1956c27,-26 106,-159 132,-185 27,-27 53,-53 53,-79 27,-27 53,-53 80,-80 53,-53 106,-106 158,-159l133 -79c26,0 26,0 53,-26l-238 0c-27,0 -27,26 -27,26l-53 26 27 80c0,0 -27,-27 0,0 26,0 0,-27 0,0 -80,53 0,53 -53,79l-53 27 0 -80c-53,0 -53,0 -80,0 27,53 27,0 0,53 0,53 27,80 27,80 0,0 0,0 0,0l-27 0c0,0 0,0 0,0l0 53c-53,0 27,26 -26,0 0,0 0,0 0,0 0,0 0,0 0,0 -27,-27 26,0 -27,-27 -26,0 -52,0 -79,0 0,0 27,0 0,27 0,26 0,0 -26,26 0,53 0,26 0,79l0 27c0,53 0,79 0,132l0 0c26,-26 26,-26 26,0l0 0z"/>
  <path class="fil3" d="M2594 474c926,0 1640,688 1640,1535 0,873 -714,1561 -1640,1561 -900,0 -1640,-688 -1640,-1561 0,-847 740,-1535 1640,-1535z"/>
  <path class="fil4" d="M2594 395c741,0 1376,476 1561,1111 27,318 -1667,-158 -2090,-767 -80,106 -847,688 -1032,714 212,-608 847,-1058 1561,-1058l0 0z"/>
  <path class="fil5" d="M927 4073l3651 0c395,0 715,379 715,846l0 2249c0,468 -320,847 -715,847l-3651 0c-394,0 -714,-379 -714,-847l0 -2249c0,-467 320,-846 714,-846z"/>
  <polygon class="fil6" points="2171,5025 1403,5025 1403,8597 2171,8597 "/>
  <polygon class="fil7 str0" points="2171,5052 2409,5290 2594,5052 2594,8571 2382,8386 2171,8571 "/>
  <polygon class="fil8 str1" points="2171,5052 2171,5052 2171,8571 2171,8571 "/>
  <polygon class="fil8 str1" points="2594,5052 2594,5052 2594,8571 2594,8571 "/>
  <polygon class="fil7 str0" points="2171,5052 2409,5290 2594,5052 2594,8571 2382,8386 2171,8571 "/>
  <polygon class="fil8 str1" points="2171,5052 2171,5052 2171,8571 2171,8571 "/>
  <polygon class="fil8 str1" points="2594,5052 2594,5052 2594,8571 2594,8571 "/>
  <polygon class="fil7 str0" points="2594,5052 2832,5290 3017,5052 3017,8571 2806,8386 2594,8571 "/>
  <polygon class="fil8 str1" points="2594,5052 2594,5052 2594,8571 2594,8571 "/>
  <polygon class="fil8 str1" points="3017,5052 3017,5052 3017,8571 3017,8571 "/>
  <polygon class="fil7 str0" points="3017,5052 3255,5290 3441,5052 3441,8571 3229,8386 3017,8571 "/>
  <polygon class="fil8 str1" points="3017,5052 3017,5052 3017,8571 3017,8571 "/>
  <polygon class="fil8 str1" points="3441,5052 3441,5052 3441,8571 3441,8571 "/>
  <polygon class="fil7 str0" points="3441,5052 3679,5290 3864,5052 3864,8571 3652,8386 3441,8571 "/>
  <polygon class="fil8 str1" points="3441,5052 3441,5052 3441,8571 3441,8571 "/>
  <polygon class="fil8 str1" points="3864,5052 3864,5052 3864,8571 3864,8571 "/>
  <polygon class="fil7 str0" points="3864,5052 4102,5290 4287,5052 4287,8571 4076,8386 3864,8571 "/>
  <polygon class="fil8 str1" points="3864,5052 3864,5052 3864,8571 3864,8571 "/>
  <polygon class="fil8 str1" points="4287,5052 4287,5052 4287,8571 4287,8571 "/>
  <polygon class="fil6" points="5055,5025 4287,5025 4287,8597 5055,8597 "/>
  <polygon class="fil9 str2" points="5055,5237 4499,5237 4499,8333 5055,8333 "/>
  <path class="fil10 str3" d="M4605 5369c-27,0 -27,0 -27,27 0,26 0,53 27,53 26,0 53,-27 53,-53 0,-27 -27,-27 -53,-27z"/>
  <path class="fil10 str3" d="M4605 5528c-27,0 -27,26 -27,53 0,26 0,26 27,26 26,0 53,0 53,-26 0,-27 -27,-53 -53,-53z"/>
  <path class="fil10 str3" d="M4605 5713c-27,0 -27,0 -27,27 0,26 0,53 27,53 26,0 53,-27 53,-53 0,-27 -27,-27 -53,-27z"/>
  <path class="fil10 str3" d="M4605 5872c-27,0 -27,26 -27,53 0,0 0,26 27,26 26,0 53,-26 53,-26 0,-27 -27,-53 -53,-53z"/>
  <path class="fil10 str3" d="M4605 6057c-27,0 -27,0 -27,27 0,26 0,53 27,53 26,0 53,-27 53,-53 0,-27 -27,-27 -53,-27z"/>
  <path class="fil10 str3" d="M4605 6216c-27,0 -27,26 -27,53 0,0 0,26 27,26 26,0 53,-26 53,-26 0,-27 -27,-53 -53,-53z"/>
  <path class="fil10 str3" d="M4605 6401c-27,0 -27,0 -27,27 0,26 0,53 27,53 26,0 53,-27 53,-53 0,-27 -27,-27 -53,-27z"/>
  <path class="fil10 str3" d="M4605 6560c-27,0 -27,26 -27,26 0,27 0,53 27,53 26,0 53,-26 53,-53 0,0 -27,-26 -53,-26z"/>
  <path class="fil10 str3" d="M4605 6719c-27,0 -27,26 -27,53 0,26 0,26 27,26 26,0 53,0 53,-26 0,-27 -27,-53 -53,-53z"/>
  <path class="fil10 str3" d="M4605 6904c-27,0 -27,26 -27,26 0,27 0,53 27,53 26,0 53,-26 53,-53 0,0 -27,-26 -53,-26z"/>
  <path class="fil10 str3" d="M4605 7063c-27,0 -27,26 -27,53 0,26 0,26 27,26 26,0 53,0 53,-26 0,-27 -27,-53 -53,-53z"/>
  <path class="fil10 str3" d="M4605 7248c-27,0 -27,26 -27,26 0,27 0,53 27,53 26,0 53,-26 53,-53 0,0 -27,-26 -53,-26z"/>
  <path class="fil10 str3" d="M4605 7407c-27,0 -27,26 -27,52 0,27 0,27 27,27 26,0 53,0 53,-27 0,-26 -27,-52 -53,-52z"/>
  <path class="fil10 str3" d="M4605 7592c-27,0 -27,0 -27,26 0,27 0,53 27,53 26,0 53,-26 53,-53 0,-26 -27,-26 -53,-26z"/>
  <path class="fil10 str3" d="M4605 7751c-27,0 -27,26 -27,52 0,27 0,27 27,27 26,0 53,0 53,-27 0,-26 -27,-52 -53,-52z"/>
  <path class="fil10 str3" d="M4605 7936c-27,0 -27,0 -27,26 0,27 0,53 27,53 26,0 53,-26 53,-53 0,-26 -27,-26 -53,-26z"/>
  <path class="fil10 str3" d="M4790 5449c-26,0 -53,26 -53,26 0,27 27,53 53,53 0,0 27,-26 27,-53 0,0 -27,-26 -27,-26z"/>
  <path class="fil10 str3" d="M4790 5607c-26,0 -53,27 -53,53 0,27 27,27 53,27 0,0 27,0 27,-27 0,-26 -27,-53 -27,-53z"/>
  <path class="fil10 str3" d="M4790 5793c-26,0 -53,26 -53,26 0,27 27,53 53,53 0,0 27,-26 27,-53 0,0 -27,-26 -27,-26z"/>
  <path class="fil10 str3" d="M4790 5951c-26,0 -53,27 -53,53 0,27 27,27 53,27 0,0 27,0 27,-27 0,-26 -27,-53 -27,-53z"/>
  <path class="fil10 str3" d="M4790 6137c-26,0 -53,0 -53,26 0,26 27,53 53,53 0,0 27,-27 27,-53 0,-26 -27,-26 -27,-26z"/>
  <path class="fil10 str3" d="M4790 6295c-26,0 -53,27 -53,53 0,27 27,27 53,27 0,0 27,0 27,-27 0,-26 -27,-53 -27,-53z"/>
  <path class="fil10 str3" d="M4790 6481c-26,0 -53,0 -53,26 0,26 27,53 53,53 0,0 27,-27 27,-53 0,-26 -27,-26 -27,-26z"/>
  <path class="fil10 str3" d="M4790 6639c-26,0 -53,27 -53,53 0,27 27,27 53,27 0,0 27,0 27,-27 0,-26 -27,-53 -27,-53z"/>
  <path class="fil10 str3" d="M4790 6824c-26,0 -53,0 -53,27 0,26 27,53 53,53 0,0 27,-27 27,-53 0,-27 -27,-27 -27,-27z"/>
  <path class="fil10 str3" d="M4790 6983c-26,0 -53,27 -53,53 0,27 27,27 53,27 0,0 27,0 27,-27 0,-26 -27,-53 -27,-53z"/>
  <path class="fil10 str3" d="M4790 7168c-26,0 -53,0 -53,27 0,26 27,53 53,53 0,0 27,-27 27,-53 0,-27 -27,-27 -27,-27z"/>
  <path class="fil10 str3" d="M4790 7327c-26,0 -53,27 -53,53 0,0 27,27 53,27 0,0 27,-27 27,-27 0,-26 -27,-53 -27,-53z"/>
  <path class="fil10 str3" d="M4790 7512c-26,0 -53,0 -53,27 0,26 27,53 53,53 0,0 27,-27 27,-53 0,-27 -27,-27 -27,-27z"/>
  <path class="fil10 str3" d="M4790 7671c-26,0 -53,27 -53,53 0,0 27,27 53,27 0,0 27,-27 27,-27 0,-26 -27,-53 -27,-53z"/>
  <path class="fil10 str3" d="M4790 7856c-26,0 -53,0 -53,27 0,26 27,53 53,53 0,0 27,-27 27,-53 0,-27 -27,-27 -27,-27z"/>
  <path class="fil10 str3" d="M4790 8015c-26,0 -53,27 -53,27 0,26 27,52 53,52 0,0 27,-26 27,-52 0,0 -27,-27 -27,-27z"/>
  <path class="fil10 str3" d="M4949 5528c-27,0 -27,26 -27,53 0,26 0,26 27,26 26,0 26,0 26,-26 0,-27 0,-53 -26,-53z"/>
  <path class="fil10 str3" d="M4949 5713c-27,0 -27,0 -27,27 0,26 0,53 27,53 26,0 26,-27 26,-53 0,-27 0,-27 -26,-27z"/>
  <path class="fil10 str3" d="M4949 5872c-27,0 -27,26 -27,53 0,0 0,26 27,26 26,0 26,-26 26,-26 0,-27 0,-53 -26,-53z"/>
  <path class="fil10 str3" d="M4949 6057c-27,0 -27,0 -27,27 0,26 0,53 27,53 26,0 26,-27 26,-53 0,-27 0,-27 -26,-27z"/>
  <path class="fil10 str3" d="M4949 6216c-27,0 -27,26 -27,53 0,0 0,26 27,26 26,0 26,-26 26,-26 0,-27 0,-53 -26,-53z"/>
  <path class="fil10 str3" d="M4949 6401c-27,0 -27,0 -27,27 0,26 0,53 27,53 26,0 26,-27 26,-53 0,-27 0,-27 -26,-27z"/>
  <path class="fil10 str3" d="M4949 6560c-27,0 -27,26 -27,26 0,27 0,53 27,53 26,0 26,-26 26,-53 0,0 0,-26 -26,-26z"/>
  <path class="fil10 str3" d="M4949 6719c-27,0 -27,26 -27,53 0,26 0,26 27,26 26,0 26,0 26,-26 0,-27 0,-53 -26,-53z"/>
  <path class="fil10 str3" d="M4949 6904c-27,0 -27,26 -27,26 0,27 0,53 27,53 26,0 26,-26 26,-53 0,0 0,-26 -26,-26z"/>
  <path class="fil10 str3" d="M4949 7063c-27,0 -27,26 -27,53 0,26 0,26 27,26 26,0 26,0 26,-26 0,-27 0,-53 -26,-53z"/>
  <path class="fil10 str3" d="M4949 7248c-27,0 -27,26 -27,26 0,27 0,53 27,53 26,0 26,-26 26,-53 0,0 0,-26 -26,-26z"/>
  <path class="fil10 str3" d="M4949 7407c-27,0 -27,26 -27,52 0,27 0,27 27,27 26,0 26,0 26,-27 0,-26 0,-52 -26,-52z"/>
  <path class="fil10 str3" d="M4949 7592c-27,0 -27,0 -27,26 0,27 0,53 27,53 26,0 26,-26 26,-53 0,-26 0,-26 -26,-26z"/>
  <path class="fil10 str3" d="M4949 7751c-27,0 -27,26 -27,52 0,27 0,27 27,27 26,0 26,0 26,-27 0,-26 0,-52 -26,-52z"/>
  <path class="fil10 str3" d="M4949 7936c-27,0 -27,0 -27,26 0,27 0,53 27,53 26,0 26,-26 26,-53 0,-26 0,-26 -26,-26z"/>
  <path class="fil10 str3" d="M4949 8094c-27,0 -27,27 -27,53 0,27 0,27 27,27 26,0 26,0 26,-27 0,-26 0,-53 -26,-53z"/>
  <polygon class="fil9 str2" points="1403,5025 424,5025 424,8597 1403,8597 "/>
  <polygon class="fil10" points="1403,8518 451,8518 451,5105 1403,5105 "/>
  <polygon class="fil7" points="1403,7724 715,7724 715,7830 1403,7830 "/>
  <polygon class="fil7" points="1403,7883 715,7883 715,7989 1403,7989 "/>
  <polygon class="fil7" points="1403,8068 715,8068 715,8174 1403,8174 "/>
  <polygon class="fil7" points="1403,8386 715,8386 715,8491 1403,8491 "/>
  <rect class="fil11 str4" x="1403" y="5316" width="205" height="3007"/>
  <polygon class="fil7" points="1403,7195 715,7195 715,7301 1403,7301 "/>
  <polygon class="fil7" points="1403,7380 715,7380 715,7486 1403,7486 "/>
  <polygon class="fil7" points="1403,7724 715,7724 715,7830 1403,7830 "/>
  <polygon class="fil7" points="1403,7883 715,7883 715,7989 1403,7989 "/>
  <polygon class="fil7" points="1403,8068 715,8068 715,8174 1403,8174 "/>
  <polygon class="fil7" points="1403,6533 715,6533 715,6639 1403,6639 "/>
  <polygon class="fil7" points="1403,6692 715,6692 715,6798 1403,6798 "/>
  <polygon class="fil7" points="1403,6877 715,6877 715,6983 1403,6983 "/>
  <polygon class="fil7" points="1403,6004 715,6004 715,6110 1403,6110 "/>
  <polygon class="fil7" points="1403,6189 715,6189 715,6295 1403,6295 "/>
  <polygon class="fil7" points="1403,6533 715,6533 715,6639 1403,6639 "/>
  <polygon class="fil7" points="1403,6692 715,6692 715,6798 1403,6798 "/>
  <polygon class="fil7" points="1403,6877 715,6877 715,6983 1403,6983 "/>
  <polygon class="fil7" points="1403,5237 715,5237 715,5343 1403,5343 "/>
  <polygon class="fil7" points="1403,5422 715,5422 715,5528 1403,5528 "/>
  <polygon class="fil7" points="1403,5581 715,5581 715,5687 1403,5687 "/>
  <polygon class="fil7" points="1403,5237 715,5237 715,5343 1403,5343 "/>
  <polygon class="fil7" points="1403,5422 715,5422 715,5528 1403,5528 "/>
  <polygon class="fil7" points="1403,5581 715,5581 715,5687 1403,5687 "/>
  <ellipse class="fil10" cx="2673" cy="3967" rx="1058" ry="370"/>
  <path class="fil3" d="M8653 2406c-26,79 -26,132 -53,238 0,106 27,185 27,291 105,0 158,27 185,106 26,106 -53,132 -80,185l53 106 -450 0c-26,0 -26,0 -26,-26l0 -847c-26,53 -26,794 0,899 53,0 423,0 476,0 133,133 212,239 371,344 344,186 793,186 1137,0 265,-158 318,-317 371,-370 26,-26 53,-79 79,-132 -26,-80 -79,-80 -26,-186 53,-52 53,-52 106,-79 0,-106 26,-185 26,-291 0,-53 -53,-185 -53,-238 0,-27 -79,-185 -132,-265 -27,-79 -132,-211 -185,-238l0 318 -1456 26 0 -370c-132,106 -238,211 -291,344 -26,53 -53,132 -79,185l0 0z"/>
  <path class="fil12" d="M8574 1771c0,26 0,26 -27,53 -132,185 -238,423 -238,635l0 847c26,-27 26,-80 53,-133l185 -582c27,-26 53,-53 53,-106l27 -79c26,-27 26,0 26,0 26,-53 53,-132 79,-185 53,-133 159,-238 291,-344l0 370 1456 -26c0,-265 -27,-450 185,-80 53,80 132,238 132,265l0 -27c79,133 159,318 185,450 27,80 133,450 159,477 0,-186 0,-371 0,-556 0,-79 0,-185 0,-291 0,-80 -26,-185 -26,-238 -27,-27 -133,-397 -397,-635 -185,-133 -371,-265 -688,-318 -291,-79 -609,-26 -873,53 -371,159 -529,397 -582,450z"/>
  <path class="fil13" d="M9129 4284c27,-79 159,-105 212,-52 79,52 79,185 26,211 -26,27 0,27 -53,27 -132,79 -264,-106 -185,-186zm1191 -185l0 -26c53,-27 106,-80 185,-27 27,27 27,27 53,53 26,27 26,27 26,80 0,105 -79,132 -211,132 -27,-27 -53,-27 -80,-79 0,-53 0,-106 27,-133zm238 -317c185,-80 265,185 106,264 -185,53 -291,-211 -106,-264zm-238 317c-27,-26 -27,-26 -27,-26 0,0 0,-27 -26,-27l0 0c-27,27 0,53 0,53 0,27 0,0 -27,27l53 53c-26,-27 0,-27 -53,-27l-238 0c0,53 0,27 0,53 27,0 27,-53 27,27 0,26 -27,0 -27,26 0,26 0,26 27,106l0 26c0,-79 26,-158 106,-158 105,-27 158,26 185,79 53,159 -185,265 -265,106l-53 26c0,80 -26,133 -79,159 -53,0 -79,0 -106,0 -53,-26 -53,-26 -53,-79 -79,-53 0,-159 27,-186 -27,-26 0,0 -27,0l-132 -26c0,26 0,-27 0,26 79,80 79,186 0,239 -27,52 -106,52 -159,0 -53,-27 -79,-80 -53,-159 0,-27 0,-53 27,-53 26,-27 26,-27 53,-53 0,0 -53,-27 -53,-53 0,0 0,0 0,0 0,0 53,-53 0,-53 -27,-53 53,0 0,0l-27 0c0,0 0,27 0,0 -53,-26 -26,0 0,-53l-26 27c0,0 -27,0 -27,0l-26 0c-53,0 -132,-27 -185,-27l0 -53c-27,0 -27,-26 -27,0 0,27 27,53 0,106 0,0 -26,27 -26,27 -27,26 0,26 -27,26 -26,53 -79,53 -132,26 -26,0 -53,-26 -53,-52l-26 0c0,0 0,0 0,0 0,52 0,52 53,79l-27 0c27,53 79,79 106,106 26,26 132,106 212,159 79,26 185,79 264,105 238,27 476,27 662,-53 317,-132 608,-423 688,-793 79,0 185,0 264,0 106,0 132,26 238,53 0,-27 -26,-106 -26,-106 0,0 -53,26 -80,26l27 -26c0,0 0,0 0,0 0,-27 0,-27 0,-27 0,-26 -371,-26 -423,0 0,-53 0,-53 -27,-53 27,53 27,27 0,53 -26,0 0,-26 -26,-53 -80,0 -80,0 -159,0 -132,0 -53,27 -106,0 0,0 -26,27 -26,27 -27,53 26,26 0,79 -80,106 -53,27 -53,53l0 53c0,0 0,27 0,27 0,0 0,0 0,-27 0,0 0,-53 0,-53 -27,0 -27,0 -27,53 0,27 0,53 0,79 -79,0 -26,0 -79,27 0,26 -27,26 0,79l0 0z"/>
  <path class="fil14" d="M8309 3306c0,26 0,26 26,26l450 0 -53 -106c-53,0 -105,0 -132,-26 -26,0 -53,-53 -79,-80 -27,-106 53,-158 106,-185 0,-106 -27,-185 -27,-291 27,-106 27,-159 53,-238 0,0 0,-27 -26,0l-27 79c0,53 -26,80 -53,106l-185 582c-27,53 -27,106 -53,133l0 0z"/>
  <path class="fil14" d="M10796 2406c0,53 53,185 53,238 0,106 -26,185 -26,291 79,27 158,27 158,106 27,106 -26,132 -106,185 -79,0 -79,-26 -132,-26 -26,53 -53,106 -79,132l476 0 0 -26c-26,-27 -132,-397 -159,-477 -26,-132 -106,-317 -185,-450l0 27z"/>
  <path class="fil3" d="M8679 4232l2162 0c102,0 185,59 185,132l0 456c0,73 -83,132 -185,132l-2162 0c-102,0 -185,-59 -185,-132l0 -456c0,-73 83,-132 185,-132z"/>
  <ellipse class="fil3" cx="9235" cy="4867" rx="450" ry="423"/>
  <ellipse class="fil3" cx="10161" cy="4867" rx="450" ry="423"/>
  <polygon class="fil15" points="8494,4761 8944,4496 9711,4814 10479,4390 11061,4761 10955,5316 11749,8703 7462,8703 8627,5449 "/>
  <polygon class="fil16" points="8335,6322 11114,6322 11219,6533 8283,6533 "/>
  <rect class="fil15" x="8891" y="4232" width="115" height="523"/>
  <rect class="fil15" x="10479" y="4232" width="115" height="523"/>
  <polygon class="fil17" points="5981,4523 6087,4523 6087,8703 5981,8703 "/>
  <rect class="fil18" x="5822" y="3941" width="496" height="723"/>
  <path class="fil19" d="M5847 2771l520 -235c142,-64 311,-1 375,142l467 1031c64,143 1,311 -142,376l-520 235c-143,65 -311,1 -376,-142l-466 -1031c-64,-143 -1,-311 142,-376z"/>
  <rect class="fil20" transform="matrix(0.556172 -0.250638 0.1864 0.413627 6383.03 2949.04)" width="720" height="145"/>
  <rect class="fil20" transform="matrix(0.556172 -0.250638 0.1864 0.413627 6432.34 3058.47)" width="720" height="145"/>
  <rect class="fil20" transform="matrix(0.556172 -0.250638 0.1864 0.413627 6481.69 3167.93)" width="720" height="145"/>
  <rect class="fil20" transform="matrix(0.556172 -0.250638 0.1864 0.413627 6531.01 3277.36)" width="720" height="145"/>
  <rect class="fil20" transform="matrix(0.556172 -0.250638 0.1864 0.413627 6580.33 3386.79)" width="720" height="145"/>
  <rect class="fil20" transform="matrix(0.556172 -0.250638 0.1864 0.413627 6629.64 3496.25)" width="720" height="145"/>
  <rect class="fil20" transform="matrix(0.556172 -0.250638 0.1864 0.413627 6678.96 3605.68)" width="720" height="145"/>
  <rect class="fil20" transform="matrix(0.556172 -0.250638 0.1864 0.413627 6728.28 3715.14)" width="720" height="145"/>
  <rect class="fil20" transform="matrix(0.556172 -0.250638 0.1864 0.413627 6777.6 3824.57)" width="720" height="145"/>
  <rect class="fil20" transform="matrix(0.556172 -0.250638 0.1864 0.413627 6333.71 2839.58)" width="720" height="145"/>
  <rect class="fil20" transform="matrix(0.556172 -0.250638 0.1864 0.413627 5835.81 3195.63)" width="720" height="145"/>
  <rect class="fil20" transform="matrix(0.556172 -0.250638 0.1864 0.413627 5885.13 3305.09)" width="720" height="145"/>
  <rect class="fil20" transform="matrix(0.556172 -0.250638 0.1864 0.413627 5934.45 3414.52)" width="720" height="145"/>
  <rect class="fil20" transform="matrix(0.556172 -0.250638 0.1864 0.413627 5983.77 3523.95)" width="720" height="145"/>
  <rect class="fil20" transform="matrix(0.556172 -0.250638 0.1864 0.413627 6033.11 3633.41)" width="720" height="145"/>
  <rect class="fil20" transform="matrix(0.556172 -0.250638 0.1864 0.413627 6082.43 3742.84)" width="720" height="145"/>
  <rect class="fil20" transform="matrix(0.556172 -0.250638 0.1864 0.413627 6131.75 3852.3)" width="720" height="145"/>
  <rect class="fil20" transform="matrix(0.556172 -0.250638 0.1864 0.413627 6181.07 3961.73)" width="720" height="145"/>
  <rect class="fil20" transform="matrix(0.556172 -0.250638 0.1864 0.413627 6230.39 4071.19)" width="720" height="145"/>
  <rect class="fil20" transform="matrix(0.556172 -0.250638 0.1864 0.413627 5786.5 3086.2)" width="720" height="145"/>
  <circle class="fil15" cx="8627" cy="3067" r="185"/>
  <circle class="fil15" cx="10875" cy="3067" r="185"/>
  <path class="fil21" d="M2038 5211l-238 -53 0 79 80 26 0 53 -80 27 0 79 106 -53c0,27 0,27 0,53 27,0 53,27 79,27 53,0 53,-53 53,-106l0 -132 0 0zm-53 79l0 53c0,0 0,26 -26,26 0,0 -26,-26 -26,-53l0 -53 52 27z"/>
  <path id="_1" class="fil21" d="M1800 5713l238 -26 0 -106 -238 -159 0 106 53 0 0 106 -53 0 0 79zm106 -79l0 -53 79 26 -79 27z"/>
  <path id="_2" class="fil21" d="M2038 6110l0 -106 -158 -79c0,0 132,0 158,0l0 -132 -238 -53 0 79 185 53 -185 0 0 53 185 106 -185 -53 0 79 238 53 0 0z"/>
  <path id="_3" class="fil21" d="M2038 6481l0 -106 -158 -80c0,0 132,0 158,0l0 -132 -238 -53 0 79 185 53 -185 0 0 53 185 106 -185 -53 0 80 238 53 0 0z"/>
  <path id="_4" class="fil21" d="M1985 6745l0 0c53,0 53,-53 53,-106 0,-53 0,-79 0,-79 -26,-53 -53,-53 -79,-53 -26,0 -53,26 -53,53l0 53c-26,26 -26,26 -26,26 -27,0 -27,-26 -27,-26 0,-27 0,-53 27,-53l0 0 0 -79c-27,0 -27,0 -53,26 -27,0 -27,53 -27,106 0,106 53,132 80,132 26,0 53,-26 53,-79l26 -53c0,0 0,-27 26,-27 0,0 0,27 0,53 0,27 0,27 0,27l-26 0 26 79 0 0z"/>
  <polygon id="_5" class="fil21" points="2038,7036 2038,6772 1985,6772 1985,6851 1800,6798 1800,6877 1985,6930 1985,7010 "/>
  <polygon id="_6" class="fil21" points="2038,7301 2038,7063 1800,7010 1800,7248 1853,7274 1853,7089 1906,7089 1906,7248 1959,7274 1959,7116 1985,7116 1985,7274 "/>
  <polygon id="_7" class="fil21" points="2038,7433 2038,7354 1800,7301 1800,7380 "/>
  <polygon id="_8" class="fil21" points="2038,7751 2038,7671 1880,7645 2038,7565 2038,7486 1800,7433 1800,7512 1959,7539 1800,7618 1800,7698 "/>
 </g>
</svg>
