<?xml version="1.0" encoding="UTF-8"?>
<!DOCTYPE svg PUBLIC "-//W3C//DTD SVG 1.1//EN" "http://www.w3.org/Graphics/SVG/1.1/DTD/svg11.dtd">
<!-- Creator: CorelDRAW X7 -->
<svg xmlns="http://www.w3.org/2000/svg" xml:space="preserve" width="1200mm" height="1000mm" version="1.1" style="shape-rendering:geometricPrecision; text-rendering:geometricPrecision; image-rendering:optimizeQuality; fill-rule:evenodd; clip-rule:evenodd"
viewBox="0 0 120000 100000"
 xmlns:xlink="http://www.w3.org/1999/xlink">
 <defs>
  <style type="text/css">
   <![CDATA[
    .str2 {stroke:black;stroke-width:23.8}
    .str1 {stroke:#B3B3B3;stroke-width:105.78}
    .str4 {stroke:black;stroke-width:26.43}
    .str0 {stroke:black;stroke-width:62.48}
    .str3 {stroke:white;stroke-width:52.9}
    .str6 {stroke:black;stroke-width:20}
    .str5 {stroke:#61A375;stroke-width:10}
    .fil7 {fill:none}
    .fil0 {fill:black}
    .fil2 {fill:black}
    .fil14 {fill:#1A1A1A}
    .fil6 {fill:#333300}
    .fil10 {fill:#666666}
    .fil8 {fill:#780000}
    .fil12 {fill:gray}
    .fil18 {fill:#80B588}
    .fil3 {fill:#88C627}
    .fil5 {fill:#990000}
    .fil20 {fill:#9C2E67}
    .fil11 {fill:#A30026}
    .fil13 {fill:#C4C6C5}
    .fil19 {fill:#CCCCCC}
    .fil1 {fill:#FCD5A6}
    .fil4 {fill:#FEFEFE}
    .fil9 {fill:white}
    .fil15 {fill:white;fill-rule:nonzero}
    .fil16 {fill:url(#id0)}
    .fil17 {fill:url(#id1)}
   ]]>
  </style>
  <radialGradient id="id0" gradientUnits="userSpaceOnUse" gradientTransform="matrix(1.31583 -0 -0 1.3158 -26977 -9301)" cx="85416.8" cy="29450.9" r="155.56" fx="85416.8" fy="29450.9">
   <stop offset="0" style="stop-opacity:1; stop-color:red"/>
   <stop offset="1" style="stop-opacity:1; stop-color:#E81515"/>
  </radialGradient>
  <radialGradient id="id1" gradientUnits="userSpaceOnUse" gradientTransform="matrix(1.31583 -0 -0 1.3158 -36096 -9301)" xlink:href="#id0" cx="114289" cy="29450.9" r="155.56" fx="114289" fy="29450.9">
  </radialGradient>
 </defs>
 <g id="Слой_x0020_1">
  <metadata id="CorelCorpID_0Corel-Layer"/>
  <path class="fil0" d="M107964 53881c514,-11707 310,-19986 -613,-24837 0,0 3482,444 10448,1331 2000,6414 -1279,14250 -9835,23506z"/>
  <path class="fil0" d="M80855 53881c515,-11707 310,-19986 -613,-24837 0,0 3483,444 10448,1331 2000,6414 -1278,14250 -9835,23506z"/>
  <path class="fil1" d="M27533 5645c10421,0 18420,7963 18420,17653 0,10066 -7999,18029 -18420,18029 -10128,0 -18421,-7963 -18421,-18029 0,-9690 8293,-17653 18421,-17653z"/>
  <path class="fil2" d="M16125 37418c-14,199 -49,149 150,83l-293 281c139,172 -227,133 279,141 92,-96 148,-227 185,-286 -127,-250 34,-15 -171,-136l-150 -83c-880,-835 -519,-116 -788,-984 -141,-453 -2078,-2655 -2373,-3351 -818,-1937 -2208,-3898 -2645,-5222 -256,-775 -715,-2481 -438,-3347l581 -1357c133,-632 -483,-712 -497,-1419 -16,-794 152,-707 -80,-1636 -545,-2182 -379,-1483 228,-2885 341,-788 382,-844 1162,-671 369,-1042 2250,-1389 3325,-2818 323,-429 504,-854 832,-1201 283,123 1245,1392 1834,1796 1274,873 2123,325 4194,-323 540,-168 834,-531 1205,-638 557,-160 1862,607 2898,655l472 -1026c418,-702 189,-550 388,-1193 31,-12 80,-50 96,-22 19,32 143,-33 188,-49 1198,-434 56,-3516 -131,-4939 739,363 1830,2645 2138,3708l1088 4396c138,265 18,98 201,257 437,-447 199,-703 797,-1025 944,160 643,989 1700,939 496,-23 1633,-342 2348,-439 703,-95 1865,96 2267,-354 552,-619 -343,-1160 422,-2071 672,-352 1444,970 2534,1847 810,652 2158,1011 2789,1775 584,708 637,2346 1176,3264 327,557 708,977 671,1575 -152,2485 269,3982 -230,6321 -132,618 -1558,4959 -2131,5835 -226,347 -172,445 -353,776 -276,504 -798,749 -1127,1164 -227,285 -195,428 -424,713 -144,180 -348,350 -559,570l-323 372c193,172 -182,11 280,180l-71 147 -109 110 -127 97 -136 96 -131 172c244,0 204,59 131,-172 213,74 181,121 136,-96 188,52 153,92 127,-97 177,31 140,67 109,-110 208,30 152,56 71,-147 371,-3 1269,-260 1618,-445 561,-297 689,-700 1112,-1392 123,-202 106,-205 199,-370 458,-807 2138,-1887 2396,-2726 245,-798 123,-2195 457,-3641 135,-580 453,-921 680,-1484 225,-559 202,-1041 401,-1647 387,-1178 405,-632 1097,-3001 871,-2980 -454,-2896 -904,-4639 -157,-612 -143,-1223 -258,-1790 -173,-850 -1565,-3210 -2130,-4131l-3663 -4534c-360,-363 -772,-656 -1053,-996l-3185 -3076c-516,-320 -980,-229 -1639,-409 -518,-142 -938,-399 -1504,-545 -236,-61 -3626,3 -5220,-928 -401,-234 -568,-600 -1623,-17 -1852,1023 -1973,345 -4854,1293 -1567,516 -1493,-200 -2336,737 -659,732 -2246,688 -4200,3085 -180,221 -273,351 -453,572 -589,725 -527,416 -976,732 -165,116 -75,42 -178,163l-1012 1037c-530,484 -1702,2526 -2000,3122 -265,528 -470,821 -721,1329 -1347,2722 -3658,5956 -3180,9139 208,1388 1467,5037 2078,6232l1427 2671c797,1313 593,655 1733,2365 464,697 1083,1724 1615,2255 1176,1172 1204,668 1897,1404 272,289 279,399 664,462z"/>
  <path class="fil2" d="M22198 34897c283,63 1214,-56 1612,-219 994,-407 3685,-1321 4474,-1192 2500,409 4230,1725 4288,93 27,-780 218,-926 141,-1594 -1198,-590 -3878,-1249 -5546,-907 -991,203 63,115 -1484,247 -61,5 -3419,751 -3659,1113 -216,537 -23,2033 174,2459z"/>
  <path class="fil3" d="M10118 45030l7430 0c1315,1512 5391,2630 10191,2630 4865,0 8941,-1118 10256,-2630l8942 0c4011,0 7232,3813 7232,8547l0 22617c0,4734 -3221,8548 -7232,8548l-36819 0c-3945,0 -7166,-3814 -7166,-8548l0 -22617c0,-4734 3221,-8547 7166,-8547z"/>
  <path class="fil4" d="M2657 60532c315,0 1262,316 1262,316 4496,946 5759,4496 6074,4812 0,0 0,0 316,0 0,-316 0,-316 0,-316 0,0 0,0 0,-315l2918 0c0,315 0,315 0,631 0,0 0,0 0,0 0,0 0,-316 0,-631l316 -947c0,-394 0,-394 0,-394l315 -316 316 -946c0,-316 316,-316 -631,0 -2288,315 -4497,-316 -6390,-1578 -315,-316 -315,-631 -631,-631l0 0c-394,315 0,315 -1341,315l-1578 0 -946 0 0 0 0 0 0 0z"/>
  <polygon class="fil5" points="21195,54774 11886,54774 11886,97925 21195,97925 "/>
  <polygon class="fil6 str0" points="21195,55089 24114,57929 26323,55089 26323,97609 23798,95400 21195,97609 "/>
  <polygon class="fil7 str1" points="21195,55089 21195,55089 21195,97609 21195,97609 "/>
  <polygon class="fil7 str1" points="26323,55089 26323,55089 26323,97609 26323,97609 "/>
  <polygon class="fil6 str0" points="21195,55089 24114,57929 26323,55089 26323,97609 23798,95400 21195,97609 "/>
  <polygon class="fil7 str1" points="21195,55089 21195,55089 21195,97609 21195,97609 "/>
  <polygon class="fil7 str1" points="26323,55089 26323,55089 26323,97609 26323,97609 "/>
  <polygon class="fil6 str0" points="26323,55089 29242,57929 31450,55089 31450,97609 28926,95400 26323,97609 "/>
  <polygon class="fil7 str1" points="26323,55089 26323,55089 26323,97609 26323,97609 "/>
  <polygon class="fil7 str1" points="31450,55089 31450,55089 31450,97609 31450,97609 "/>
  <polygon class="fil6 str0" points="31450,55089 34290,57929 36578,55089 36578,97609 33975,95400 31450,97609 "/>
  <polygon class="fil7 str1" points="31450,55089 31450,55089 31450,97609 31450,97609 "/>
  <polygon class="fil7 str1" points="36578,55089 36578,55089 36578,97609 36578,97609 "/>
  <polygon class="fil6 str0" points="36578,55089 39418,57929 41706,55089 41706,97609 39102,95400 36578,97609 "/>
  <polygon class="fil7 str1" points="36578,55089 36578,55089 36578,97609 36578,97609 "/>
  <polygon class="fil7 str1" points="41706,55089 41706,55089 41706,97609 41706,97609 "/>
  <polygon class="fil6 str0" points="41706,55089 44546,57929 46833,55089 46833,97609 44230,95400 41706,97609 "/>
  <polygon class="fil7 str1" points="41706,55089 41706,55089 41706,97609 41706,97609 "/>
  <polygon class="fil7 str1" points="46833,55089 46833,55089 46833,97609 46833,97609 "/>
  <polygon class="fil5" points="56063,54774 46833,54774 46833,97925 56063,97925 "/>
  <polygon class="fil8 str2" points="56063,57298 49358,57298 49358,94769 56063,94769 "/>
  <path class="fil9 str3" d="M50620 58955c-316,0 -316,0 -316,315 0,316 0,631 316,631 315,0 631,-315 631,-631 0,-315 -316,-315 -631,-315z"/>
  <path class="fil9 str3" d="M50620 60848c-316,0 -316,315 -316,631 0,315 0,315 316,315 315,0 631,0 631,-315 0,-316 -316,-631 -631,-631z"/>
  <path class="fil9 str3" d="M50620 63057c-316,0 -316,0 -316,315 0,316 0,710 316,710 315,0 631,-394 631,-710 0,-315 -316,-315 -631,-315z"/>
  <path class="fil9 str3" d="M50620 65029c-316,0 -316,315 -316,631 0,0 0,315 316,315 315,0 631,-315 631,-315 0,-316 -316,-631 -631,-631z"/>
  <path class="fil9 str3" d="M50620 67238c-316,0 -316,0 -316,315 0,316 0,631 316,631 315,0 631,-315 631,-631 0,-315 -316,-315 -631,-315z"/>
  <path class="fil9 str3" d="M50620 69131c-316,0 -316,315 -316,710 0,0 0,315 316,315 315,0 631,-315 631,-315 0,-395 -316,-710 -631,-710z"/>
  <path class="fil9 str3" d="M50620 71419c-316,0 -316,0 -316,315 0,316 0,631 316,631 315,0 631,-315 631,-631 0,-315 -316,-315 -631,-315z"/>
  <path class="fil9 str3" d="M50620 73312c-316,0 -316,315 -316,315 0,316 0,631 316,631 315,0 631,-315 631,-631 0,0 -316,-315 -631,-315z"/>
  <path class="fil9 str3" d="M50620 75284c-316,0 -316,316 -316,631 0,316 0,316 316,316 315,0 631,0 631,-316 0,-315 -316,-631 -631,-631z"/>
  <path class="fil9 str3" d="M50620 77493c-316,0 -316,315 -316,315 0,316 0,631 316,631 315,0 631,-315 631,-631 0,0 -316,-315 -631,-315z"/>
  <path class="fil9 str3" d="M50620 79386c-316,0 -316,316 -316,631 0,316 0,316 316,316 315,0 631,0 631,-316 0,-315 -316,-631 -631,-631z"/>
  <path class="fil9 str3" d="M50620 81674c-316,0 -316,315 -316,315 0,316 0,632 316,632 315,0 631,-316 631,-632 0,0 -316,-315 -631,-315z"/>
  <path class="fil9 str3" d="M50620 83567c-316,0 -316,316 -316,631 0,316 0,316 316,316 315,0 631,0 631,-316 0,-315 -316,-631 -631,-631z"/>
  <path class="fil9 str3" d="M50620 85776c-316,0 -316,0 -316,316 0,315 0,631 316,631 315,0 631,-316 631,-631 0,-316 -316,-316 -631,-316z"/>
  <path class="fil9 str3" d="M50620 87748c-316,0 -316,316 -316,631 0,316 0,316 316,316 315,0 631,0 631,-316 0,-315 -316,-631 -631,-631z"/>
  <path class="fil9 str3" d="M50620 89957c-316,0 -316,0 -316,315 0,316 0,632 316,632 315,0 631,-316 631,-632 0,-315 -316,-315 -631,-315z"/>
  <path class="fil9 str3" d="M52908 59901c-316,0 -632,316 -632,316 0,315 316,631 632,631 0,0 315,-316 315,-631 0,0 -315,-316 -315,-316z"/>
  <path class="fil9 str3" d="M52908 61794c-316,0 -632,316 -632,631 0,316 316,316 632,316 0,0 315,0 315,-316 0,-315 -315,-631 -315,-631z"/>
  <path class="fil9 str3" d="M52908 64082c-316,0 -632,316 -632,316 0,315 316,631 632,631 0,0 315,-316 315,-631 0,0 -315,-316 -315,-316z"/>
  <path class="fil9 str3" d="M52908 65975c-316,0 -632,316 -632,631 0,316 316,316 632,316 0,0 315,0 315,-316 0,-315 -315,-631 -315,-631z"/>
  <path class="fil9 str3" d="M52908 68184c-316,0 -632,0 -632,316 0,315 316,631 632,631 0,0 315,-316 315,-631 0,-316 -315,-316 -315,-316z"/>
  <path class="fil9 str3" d="M52908 70156c-316,0 -632,316 -632,632 0,315 316,315 632,315 0,0 315,0 315,-315 0,-316 -315,-632 -315,-632z"/>
  <path class="fil9 str3" d="M52908 72365c-316,0 -632,0 -632,316 0,315 316,631 632,631 0,0 315,-316 315,-631 0,-316 -315,-316 -315,-316z"/>
  <path class="fil9 str3" d="M52908 74259c-316,0 -632,315 -632,631 0,394 316,394 632,394 0,0 315,0 315,-394 0,-316 -315,-631 -315,-631z"/>
  <path class="fil9 str3" d="M52908 76546c-316,0 -632,0 -632,316 0,315 316,631 632,631 0,0 315,-316 315,-631 0,-316 -315,-316 -315,-316z"/>
  <path class="fil9 str3" d="M52908 78439c-316,0 -632,316 -632,632 0,315 316,315 632,315 0,0 315,0 315,-315 0,-316 -315,-632 -315,-632z"/>
  <path class="fil9 str3" d="M52908 80648c-316,0 -632,0 -632,395 0,236 316,631 632,631 0,0 315,-395 315,-631 0,-395 -315,-395 -315,-395z"/>
  <path class="fil9 str3" d="M52908 82621c-316,0 -632,315 -632,631 0,0 316,315 632,315 0,0 315,-315 315,-315 0,-316 -315,-631 -315,-631z"/>
  <path class="fil9 str3" d="M52908 84829c-316,0 -632,0 -632,316 0,315 316,631 632,631 0,0 315,-316 315,-631 0,-316 -315,-316 -315,-316z"/>
  <path class="fil9 str3" d="M52908 86723c-316,0 -632,394 -632,710 0,0 316,315 632,315 0,0 315,-315 315,-315 0,-316 -315,-710 -315,-710z"/>
  <path class="fil9 str3" d="M52908 89010c-316,0 -632,0 -632,316 0,315 316,631 632,631 0,0 315,-316 315,-631 0,-316 -315,-316 -315,-316z"/>
  <path class="fil9 str3" d="M52908 90904c-316,0 -632,315 -632,315 0,316 316,631 632,631 0,0 315,-315 315,-631 0,0 -315,-315 -315,-315z"/>
  <path class="fil9 str3" d="M54801 60848c-316,0 -316,315 -316,631 0,315 0,315 316,315 315,0 315,0 315,-315 0,-316 0,-631 -315,-631z"/>
  <path class="fil9 str3" d="M54801 63057c-316,0 -316,0 -316,315 0,316 0,710 316,710 315,0 315,-394 315,-710 0,-315 0,-315 -315,-315z"/>
  <path class="fil9 str3" d="M54801 65029c-316,0 -316,315 -316,631 0,0 0,315 316,315 315,0 315,-315 315,-315 0,-316 0,-631 -315,-631z"/>
  <path class="fil9 str3" d="M54801 67238c-316,0 -316,0 -316,315 0,316 0,631 316,631 315,0 315,-315 315,-631 0,-315 0,-315 -315,-315z"/>
  <path class="fil9 str3" d="M54801 69131c-316,0 -316,315 -316,710 0,0 0,315 316,315 315,0 315,-315 315,-315 0,-395 0,-710 -315,-710z"/>
  <path class="fil9 str3" d="M54801 71419c-316,0 -316,0 -316,315 0,316 0,631 316,631 315,0 315,-315 315,-631 0,-315 0,-315 -315,-315z"/>
  <path class="fil9 str3" d="M54801 73312c-316,0 -316,315 -316,315 0,316 0,631 316,631 315,0 315,-315 315,-631 0,0 0,-315 -315,-315z"/>
  <path class="fil9 str3" d="M54801 75284c-316,0 -316,316 -316,631 0,316 0,316 316,316 315,0 315,0 315,-316 0,-315 0,-631 -315,-631z"/>
  <path class="fil9 str3" d="M54801 77493c-316,0 -316,315 -316,315 0,316 0,631 316,631 315,0 315,-315 315,-631 0,0 0,-315 -315,-315z"/>
  <path class="fil9 str3" d="M54801 79386c-316,0 -316,316 -316,631 0,316 0,316 316,316 315,0 315,0 315,-316 0,-315 0,-631 -315,-631z"/>
  <path class="fil9 str3" d="M54801 81674c-316,0 -316,315 -316,315 0,316 0,632 316,632 315,0 315,-316 315,-632 0,0 0,-315 -315,-315z"/>
  <path class="fil9 str3" d="M54801 83567c-316,0 -316,316 -316,631 0,316 0,316 316,316 315,0 315,0 315,-316 0,-315 0,-631 -315,-631z"/>
  <path class="fil9 str3" d="M54801 85776c-316,0 -316,0 -316,316 0,315 0,631 316,631 315,0 315,-316 315,-631 0,-316 0,-316 -315,-316z"/>
  <path class="fil9 str3" d="M54801 87748c-316,0 -316,316 -316,631 0,316 0,316 316,316 315,0 315,0 315,-316 0,-315 0,-631 -315,-631z"/>
  <path class="fil9 str3" d="M54801 89957c-316,0 -316,0 -316,315 0,316 0,632 316,632 315,0 315,-316 315,-632 0,-315 0,-315 -315,-315z"/>
  <path class="fil9 str3" d="M54801 91850c-316,0 -316,316 -316,631 0,395 0,395 316,395 315,0 315,0 315,-395 0,-315 0,-631 -315,-631z"/>
  <polygon class="fil8 str2" points="11886,54774 53,54774 53,97925 11886,97925 "/>
  <polygon class="fil9" points="11886,96978 369,96978 369,55720 11886,55720 "/>
  <polygon class="fil6" points="11886,87433 3603,87433 3603,88695 11886,88695 "/>
  <polygon class="fil6" points="11886,89326 3603,89326 3603,90588 11886,90588 "/>
  <polygon class="fil6" points="11886,91535 3603,91535 3603,92876 11886,92876 "/>
  <polygon class="fil6" points="11886,95400 3603,95400 3603,96662 11886,96662 "/>
  <rect class="fil10 str4" x="11886" y="58245" width="2479" height="36367"/>
  <polygon class="fil6" points="11886,81043 3603,81043 3603,82305 11886,82305 "/>
  <polygon class="fil6" points="11886,83252 3603,83252 3603,84514 11886,84514 "/>
  <polygon class="fil6" points="11886,87433 3603,87433 3603,88695 11886,88695 "/>
  <polygon class="fil6" points="11886,89326 3603,89326 3603,90588 11886,90588 "/>
  <polygon class="fil6" points="11886,91535 3603,91535 3603,92876 11886,92876 "/>
  <polygon class="fil6" points="11886,72996 3603,72996 3603,74259 11886,74259 "/>
  <polygon class="fil6" points="11886,74890 3603,74890 3603,76231 11886,76231 "/>
  <polygon class="fil6" points="11886,77177 3603,77177 3603,78439 11886,78439 "/>
  <polygon class="fil6" points="11886,66606 3603,66606 3603,67869 11886,67869 "/>
  <polygon class="fil6" points="11886,68815 3603,68815 3603,70156 11886,70156 "/>
  <polygon class="fil6" points="11886,72996 3603,72996 3603,74259 11886,74259 "/>
  <polygon class="fil6" points="11886,74890 3603,74890 3603,76231 11886,76231 "/>
  <polygon class="fil6" points="11886,77177 3603,77177 3603,78439 11886,78439 "/>
  <polygon class="fil6" points="11886,57298 3603,57298 3603,58639 11886,58639 "/>
  <polygon class="fil6" points="11886,59586 3603,59586 3603,60848 11886,60848 "/>
  <polygon class="fil6" points="11886,61479 3603,61479 3603,62741 11886,62741 "/>
  <polygon class="fil6" points="11886,57298 3603,57298 3603,58639 11886,58639 "/>
  <polygon class="fil6" points="11886,59586 3603,59586 3603,60848 11886,60848 "/>
  <polygon class="fil6" points="11886,61479 3603,61479 3603,62741 11886,62741 "/>
  <path class="fil1" d="M87415 45149l6486 0c345,868 2345,1578 4760,1578 2415,0 4416,-710 4692,-1578l6900 0c1104,0 2000,710 2000,1578l0 5522c0,947 -896,1657 -2000,1657l-22838 0c-1104,0 -1932,-710 -1932,-1657l0 -5522c0,-868 828,-1578 1932,-1578z"/>
  <ellipse class="fil1" cx="93148" cy="52880" rx="5443" ry="5128"/>
  <ellipse class="fil1" cx="104350" cy="52880" rx="5443" ry="5128"/>
  <rect class="fil11" x="88967" y="45149" width="1391" height="6325"/>
  <rect class="fil11" x="108215" y="45149" width="1391" height="6325"/>
  <polygon class="fil0" points="63102,48699 64443,48699 64443,99266 63102,99266 "/>
  <rect class="fil12" x="61209" y="41678" width="5999" height="8744"/>
  <path class="fil13" d="M61524 27479l6232 -2840c1736,-789 3787,0 4576,1735l5680 12464c710,1736 0,3787 -1736,4576l-6311 2840c-1735,789 -3786,0 -4575,-1736l-5601 -12464c-789,-1735 0,-3786 1735,-4575z"/>
  <rect class="fil14" transform="matrix(6.72827 -3.03208 2.25497 5.00384 67987.1 29652.8)" width="720" height="145"/>
  <rect class="fil14" transform="matrix(6.72827 -3.03208 2.25497 5.00384 68583.5 30976.3)" width="720" height="145"/>
  <rect class="fil14" transform="matrix(6.72827 -3.03208 2.25497 5.00384 69180.3 32300.1)" width="720" height="145"/>
  <rect class="fil14" transform="matrix(6.72827 -3.03208 2.25497 5.00384 69776.8 33623.6)" width="720" height="145"/>
  <rect class="fil14" transform="matrix(6.72827 -3.03208 2.25497 5.00384 70373.3 34947)" width="720" height="145"/>
  <rect class="fil14" transform="matrix(6.72827 -3.03208 2.25497 5.00384 70969.7 36270.8)" width="720" height="145"/>
  <rect class="fil14" transform="matrix(6.72827 -3.03208 2.25497 5.00384 71566.1 37594.2)" width="720" height="145"/>
  <rect class="fil14" transform="matrix(6.72827 -3.03208 2.25497 5.00384 72162.6 38918.1)" width="720" height="145"/>
  <rect class="fil14" transform="matrix(6.72827 -3.03208 2.25497 5.00384 72759.3 40241.5)" width="720" height="145"/>
  <rect class="fil14" transform="matrix(6.72827 -3.03208 2.25497 5.00384 67390.7 28329)" width="720" height="145"/>
  <rect class="fil14" transform="matrix(6.72827 -3.03208 2.25497 5.00384 61369 32635.1)" width="720" height="145"/>
  <rect class="fil14" transform="matrix(6.72827 -3.03208 2.25497 5.00384 61965.5 33958.9)" width="720" height="145"/>
  <rect class="fil14" transform="matrix(6.72827 -3.03208 2.25497 5.00384 62561.9 35282.4)" width="720" height="145"/>
  <rect class="fil14" transform="matrix(6.72827 -3.03208 2.25497 5.00384 63158.4 36605.8)" width="720" height="145"/>
  <rect class="fil14" transform="matrix(6.72827 -3.03208 2.25497 5.00384 63755.2 37929.7)" width="720" height="145"/>
  <rect class="fil14" transform="matrix(6.72827 -3.03208 2.25497 5.00384 64351.6 39253.1)" width="720" height="145"/>
  <rect class="fil14" transform="matrix(6.72827 -3.03208 2.25497 5.00384 64948.1 40576.9)" width="720" height="145"/>
  <rect class="fil14" transform="matrix(6.72827 -3.03208 2.25497 5.00384 65544.6 41900.3)" width="720" height="145"/>
  <rect class="fil14" transform="matrix(6.72827 -3.03208 2.25497 5.00384 66141.1 43224.1)" width="720" height="145"/>
  <rect class="fil14" transform="matrix(6.72827 -3.03208 2.25497 5.00384 60772.6 31311.6)" width="720" height="145"/>
  <path class="fil15" d="M19617 56982l-2918 -631 0 947 1025 315 0 632 -1025 394 0 947 1341 -631c0,315 0,315 0,631 315,0 631,315 946,315 631,0 631,-631 631,-1262l0 -1657 0 0 0 0zm-631 947l0 710c0,0 0,316 -315,316 0,0 -316,-316 -316,-710l0 -632 631 316z"/>
  <path id="_1" class="fil15" d="M16699 63057l2918 -316 0 -1262 -2918 -1893 0 1262 631 0 0 1262 -631 0 0 947 0 0zm1341 -947l0 -631 946 315 -946 316z"/>
  <path id="_2" class="fil15" d="M19617 67869l0 -1263 -1893 -946c0,0 1578,0 1893,0l0 -1578 -2918 -710 0 1026 2287 631 -2287 0 0 631 2287 1262 -2287 -631 0 947 2918 631 0 0z"/>
  <path id="_3" class="fil15" d="M19617 72365l0 -1262 -1893 -947c0,0 1578,0 1893,0l0 -1656 -2918 -631 0 946 2287 631 -2287 0 0 710 2287 1263 -2287 -631 0 946 2918 631 0 0z"/>
  <path id="_4" class="fil15" d="M18986 75600l0 0c631,0 631,-710 631,-1341 0,-632 0,-947 0,-947 -315,-631 -631,-631 -946,-631 -316,0 -631,315 -631,631l0 631c-316,316 -316,316 -316,316 -394,0 -394,-316 -394,-316 0,-316 0,-631 394,-631l0 0 0 -947c-394,0 -394,0 -710,316 -315,0 -315,631 -315,1262 0,1341 631,1657 1025,1657 316,0 631,-316 631,-1026l316 -631c0,0 0,-316 315,-316 0,0 0,316 0,632 0,315 0,315 0,315l-315 0 315 1026 0 0z"/>
  <polygon id="_5" class="fil15" points="19617,79071 19617,75915 18986,75915 18986,76862 16699,76231 16699,77177 18986,77808 18986,78755 "/>
  <polygon id="_6" class="fil15" points="19617,82305 19617,79386 16699,78755 16699,81674 17330,81989 17330,79702 18040,79702 18040,81674 18671,81989 18671,80017 18986,80017 18986,81989 "/>
  <polygon id="_7" class="fil15" points="19617,83883 19617,82936 16699,82305 16699,83252 "/>
  <polygon id="_8" class="fil15" points="19617,87748 19617,86723 17724,86407 19617,85460 19617,84514 16699,83883 16699,84829 18671,85145 16699,86092 16699,87117 "/>
  <path class="fil1" d="M99380 7520c9072,0 16014,6942 16014,16724 0,8993 -6942,16645 -16014,16645 -9703,0 -16724,-7652 -16724,-16645 0,-9782 7021,-16724 16724,-16724z"/>
  <path class="fil0" d="M98985 3969l0 79c-9308,552 -21378,6548 -18459,28084l6390 0c-3550,-5680 -3156,-13805 2603,-19012l-237 4181 4497 316c0,-1499 158,-4260 315,-5838l79 5838 15225 -316 -236 -4181c5758,5207 6153,13332 2524,19012l6469 0c2919,-21536 -9151,-27532 -18460,-28084l0 -79c-79,0 -236,79 -394,79 -79,0 -237,-79 -316,-79z"/>
  <circle class="fil16" cx="84786" cy="31186" r="1972"/>
  <circle class="fil17" cx="113658" cy="31186" r="1972"/>
  <rect class="fil18 str5" transform="matrix(10.5918 7.62567 -7.62567 10.5918 94309.5 48532.2)" width="192" height="284"/>
  <rect class="fil18 str5" transform="matrix(12.0902 4.91562 -4.91562 12.0902 95466 48756.9)" width="192" height="284"/>
  <polygon class="fil11" points="85483,51539 90244,48384 98316,52170 106458,47043 112599,51539 111495,58245 119912,99266 74513,99266 86863,59901 "/>
  <rect class="fil19 str6" x="10640" y="66606" width="2965" height="18135"/>
  <rect class="fil7 str6" x="10640" y="66606" width="2965" height="3639"/>
  <rect class="fil7 str6" x="10640" y="73855" width="2965" height="3639"/>
  <rect class="fil7 str6" x="10640" y="66606" width="2965" height="3639"/>
  <rect class="fil7 str6" x="10640" y="81043" width="2965" height="3699"/>
  <polygon class="fil20" points="83568,70472 114019,70393 114502,72917 82739,72996 "/>
 </g>
</svg>
