<svg xmlns="http://www.w3.org/2000/svg" width="450" height="360" viewBox="0 0 450 360" shape-rendering="geometricPrecision" text-rendering="geometricPrecision" image-rendering="optimizeQuality" fill-rule="evenodd" clip-rule="evenodd"><defs><style>.fil7{fill:#fefefe}.fil9{fill:#ebebeb}.fil8{fill:#c4c5c5}.fil18{fill:#ffec1b}.fil13{fill:#b8272a}.fil11{fill:#ab2b2c}.fil6{fill:#502621}.fil0{fill:#89a2a7}.fil12{fill:#729299}.fil17{fill:#333}.fil14{fill:#6b231c}.fil15{fill:#a30026}.fil5{fill:#c4c6c5}.fil20{fill:#CCC}.fil4{fill:#e63e3a}.fil2{fill:#ea645b}.fil1{fill:#f08678}.fil3{fill:#fef5d6}.fil10,.fil16{fill:#fff}.fil19{fill:#CCC;fill-rule:nonzero}</style></defs><g id="Слой_x0020_1"><path class="fil0" d="M449 3v360H97V3z"/><g id="_868877904"><path class="fil1" d="M261 166h24v-30h29v29h24l1-29c6-1 21 0 28 0v30h24l1-30h28v30h25v-31c-5 1-20 1-25 0-6-2-22-2-28 0-5 1-21 2-25-1-7 0-23-2-28 1h-25c-6-2-22-1-29 0-6 2-18 1-25 0l1 31zM366 278c7-1 19-2 26 0 6 2 22 2 28 0 5-1 20-2 25 0v-31h-25v30h-28l-1-30h-24l-1 31zM101 278c5-1 20-1 25 0 6 2 23 2 28 0 8-1 17-1 25 0 5 3 22 1 29 1 5-3 18-1 25-2l-1-30h-25v30c-7 0-22 2-28 0v-29h-25v29h-28v-30h-25v31zM101 166h25v-30h28v29h25v-29c6-2 21 0 28 0v30h25l1-30c-7-1-20 1-25-2-7 0-24-2-29 1-8 1-18 2-25 0-6-2-22-1-28 0-5 1-20 1-25 0v31zM155 221h24c6 3 21 2 28 1 4-2 19 0 25 0 1-7 1-24 0-30l-23-1h-2v30h-28v-30h-2l-23 1c0 7-1 23 1 29zM260 278c7-1 19-2 25 0 7 1 23 2 29 0l25-1-1-29h-24v29h-29v-30h-24l-1 31z"/><path class="fil2" d="M285 191l29 1h25l28-1h1c-3-4-2-20 0-25h-1l-29-1 1 26h-25v-26l-29 1v25z"/><path class="fil3" d="M445 166v-16zM445 247v23zM125 359zM445 359zM445 79v2zM445 222v-25zM445 54V36zM367 359h-2z"/><path class="fil1" d="M208 359v-1c-8 0-21-1-28 1h28zM101 191v31h24l1-30h28v-1c-5-1-22-1-28 0h-25zM155 54l24-1c6 4 21 2 29 2v-1l-29-1V24h-25l1 30zM367 110h25V80l-25-1h-1zM421 191v31h24v-31c-5 2-19 1-24 0zM207 110h25V80l-25-1zM207 334l25-1v-30h-25zM101 334h25v-31h-25v23zM260 110h26l-1-31h-24zM367 334l25-1v-30h-25zM101 110h25V79h-25v8zM420 334h25v-31h-25zM420 110h25V79h-25zM261 334h24l1-31h-26z"/><path class="fil2" d="M391 192l30-1-1-25h-29zM232 192l29-1v-25h-29zM391 247h29l1-25h-30zM232 247h29v-25h-29zM445 247v-25zM421 359l-1-25-28-1-1 26zM261 359v-25l-29-1v26zM126 247l28 1 1-27-30 1zM314 359v-26l-29 1v25zM445 79V54zM445 359v-21zM392 80l28-1 1-25h-30zM232 80l29-1V54h-29zM125 359h30l-1-26-28 1zM126 79l28 1 1-26h-30z"/><path class="fil1" d="M154 109h25V80h-25zM313 109l25 1h1c-2-6 0-22-1-30h-24l-1 29zM154 333h25c0-8-2-24 1-30h-26v30zM314 333h24c1-8-1-23 1-30h-1l-25 1 1 29z"/><path class="fil2" d="M338 80l28-1h1V54l-29-1c2 8 0 19 0 27z"/><path class="fil1" d="M367 222h24v-30l-23-1h-1zM261 54h24V24h-25zM101 54h24l1-30h-25v6zM421 54h24V24h-25zM314 54l24-1c2-8 0-20 1-29h-25c0 9-2 21 0 30zM314 221h24c2-7 1-20 1-29h-25c0 9-1 21 0 29zM367 54h24l1-30h-25zM208 54h24V24l-25-1z"/><path class="fil2" d="M285 79l29 1c0-8-1-19 0-26h-29v25zM365 359h2v-25l-29-1c0 8 2 18 0 26h27zM285 247l29 1c-1-8-1-19 0-27l-29 1v25z"/><path class="fil1" d="M261 222h24v-31h-24zM125 359h-3z"/><path class="fil2" d="M338 248l29-1h1c-2-3-1-9-1-13 0-6-1-9 2-12h-2l-29-1c2 7 1 19 0 27z"/><path class="fil1" d="M445 359h-6zM370 359h-3z"/><path class="fil2" d="M177 191h32c-4-5-1-18-2-25l-28-1c0 6 1 22-2 26zM232 303h28v-25l-27-1zM233 136l27-1v-25h-28zM126 191c6-1 23-1 28 0v-26l-28 1v25zM179 248l28-1h1l-1-25c-7 1-22 2-28-1v27zM338 303h29l-1-25-27-1zM445 166v14zM180 359c7-2 20-1 28-1l-1-24-28-1v26h1zM179 80l28-1 1-24c-8 0-23 2-29-2v27zM126 135c6-1 22-2 28 0v-26l-28 1v25zM445 135v-3zM392 135c6-2 22-2 28 0v-25h-28v25zM285 135c7-1 23-2 29 0l-1-26-27 1-1 25zM392 303h28v-25c-6 2-22 2-28 0v25zM286 303l27 1 1-26c-6 2-22 1-29 0l1 25zM179 135c5-3 22-1 29-1l-1-24-28-1v26zM126 303h28v-25c-5 2-22 2-28 0v25zM339 135c5-3 21-1 28-1v-24h-29l1 25zM179 303h28l1-24c-7 0-24 2-29-1v25z"/><path class="fil4" d="M314 248h24c1-8 2-20 0-27h-24c-1 8-1 19 0 27zM260 135c7 1 19 2 25 0l1-25h-26v25zM314 80h24c0-8 2-19 0-27l-24 1c-1 7 0 18 0 26zM367 303h25v-25c-7-2-19-1-26 0l1 25zM154 135c7 2 17 1 25 0v-26h-25v26zM260 303h26l-1-25c-6-2-18-1-25 0v25zM208 134c5 3 18 1 25 2l-1-26h-25l1 24zM207 303h25l1-26c-7 1-20-1-25 2l-1 24zM154 303h25v-25c-8-1-17-1-25 0v25zM420 303h25v-25c-5-2-20-1-25 0v25zM101 303h25v-25c-5-1-20-1-25 0v25zM338 359c2-8 0-18 0-26h-24v26h24zM101 135c5 1 20 1 25 0v-25h-25v25zM420 135c5 1 20 1 25 0v-25h-25v25zM367 134c4 3 20 2 25 1v-25h-25v24zM313 304l25-1 1-26-25 1zM154 191v1l23-1c3-4 2-20 2-26h-25v26zM338 165h-24v26h25zM154 248h25v-27h-24zM179 359v-26h-25l1 26zM154 80h25V53l-24 1zM314 135h25l-1-25-25-1zM368 191l23 1v-26h-23c-2 5-3 21 0 25zM421 191c5 1 19 2 24 0v-25h-25l1 25zM209 191l23 1v-26h-25c1 7-2 20 2 25zM207 222l1 25h24v-25c-6 0-21-2-25 0zM208 358v1h24v-26l-25 1zM207 79l25 1V54h-24v1zM261 79h24V54h-24zM368 247h23v-25h-22c-3 3-2 6-2 12 0 4-1 10 1 13zM367 359h24l1-26-25 1zM285 359v-25h-24v25zM101 79h25l-1-25h-24zM122 359h3l1-25h-25v25zM439 359h6v-25h-25l1 25zM420 79h25V54h-24zM367 79l25 1-1-26h-24zM261 247h24v-25h-24zM101 191h25v-25h-25zM261 191h24v-25h-24zM420 247h25v-25h-24zM101 247h25l-1-25h-24z"/><path class="fil2" d="M392 24h28V7h-28zM126 24h28V7h-28zM445 7zM232 24h28V7h-28zM285 24h29V7h-29zM339 24h28V7h-29zM179 24l28-1V7h-28z"/><path class="fil4" d="M314 24h25l-1-17h-24zM260 24h25V7h-25zM207 23l25 1V7h-25zM367 24h25V7h-25zM101 24h25V7h-25zM420 24h25V7h-25zM154 24h25V7h-25z"/><path class="fil3" d="M101 222v-31zM101 277v-30zM101 166v-30zM101 54V30zM101 87v-8zM101 334v-8z"/><path class="fil2" d="M101 191v-25zM101 247v-25zM101 359v-25 25zM101 79V54zM101 135v-10zM101 284v-6z"/></g><path class="fil0" d="M359 3v360H7V3z"/><g id="_858834640"><path class="fil1" d="M169 167h24v-30h29v30h25v-30c6-1 22 0 29 0v30h25v-30h29v30h25v-31c-5 2-20 1-25 0-6-2-23-2-29 0-5 1-20 2-25-1-7 0-23-2-29 1h-25c-6-2-22-1-29 0-6 2-18 1-25 0l1 31zM276 280c7-1 18-1 25 0 6 2 22 2 29 1 5-2 20-2 25 0v-32h-25v31l-29-1v-30h-25v31zM7 281c5-2 20-2 25 0 6 1 23 1 28-1 8-1 18 0 26 0 5 3 22 1 29 1 5-3 18-1 25-1l-1-31h-25v31c-7 0-22 1-28-1l-1-29-24-1v30l-29 1v-31H7v32zM7 167h25v-30h29v30h24l1-29c6-3 21-1 28-1v30h25l1-30c-7 0-20 1-25-2-7 0-24-2-29 1-8 1-18 2-25 0-6-2-23-1-29 0-5 1-20 1-25 0v31zM61 223h24c6 3 22 2 29 1 5-2 19-1 25-1 1-6 1-24 0-30h-25v30H86v-30H61c-1 8-1 23 0 30zM168 280c7 0 19-2 25 1 7 1 23 1 29-1h26l-1-30-25-1v30h-29v-30h-25v31z"/><path class="fil2" d="M193 193h29l25 1 29-1h1c-3-4-2-20 0-26h-30v26h-25v-26h-29v26z"/><path class="fil3" d="M355 167v-15zM355 249v23zM32 362h-1zM355 362h-1zM355 80v2zM355 224v-25zM355 54V36zM276 362h-2z"/><path class="fil1" d="M115 362v-1c-8 0-21-2-29 1h29zM7 193v31h24l1-31h29c-6-2-23-1-29-1l-25 1zM61 54h24c7 3 22 1 30 1v-1H86V24H60l1 30zM276 111l25-1V80h-26zM330 193v30l25 1v-32c-5 2-19 1-25 1zM114 111l26-1-1-30h-25zM114 337l25-1 1-30-26-1zM7 336h25v-30H7v22zM168 111h26l-1-31h-25zM276 337l25-1v-30l-25-1zM7 111h25V80H7v8zM330 336h25v-30h-25zM329 111h26V80h-25zM168 336h25l1-30h-26z"/><path class="fil2" d="M300 193h30v-26h-29zM139 193h30v-26h-30zM301 249h29v-26h-29zM139 249h29l1-26h-30zM355 249v-25zM330 362v-26h-29l-1 26zM169 362l-1-26h-29v26zM32 249h29v-26l-30 1zM223 362l-1-26h-29v26zM355 80V54zM354 362h1v-22zM301 80h29V54h-29zM139 80h29l1-26h-30zM31 362h30v-26H32zM32 80h29V54H31z"/><path class="fil1" d="M60 110h26V80H61zM222 110l25 1h1c-2-6-1-22-1-31h-25v30zM61 336h25c0-8-2-24 1-30H60l1 30zM222 336h25c0-9-1-24 1-31h-1l-25 1v30z"/><path class="fil2" d="M247 80h30l-1-26h-30c2 7 1 18 1 26z"/><path class="fil1" d="M276 224h2l23-1-1-30h-24zM169 54h24l1-30h-26zM7 54h24l1-30H7v6zM330 54h25V24h-25zM223 54h23c3-9 1-20 1-30h-25c0 10-1 21 1 30zM223 223h23c3-8 1-21 1-29l-25-1c0 9-1 22 1 30zM276 54h25V24h-25zM115 54h24l1-30h-26z"/><path class="fil2" d="M193 80h29c0-7-1-19 1-26h-30v26zM274 362h2v-25l-29-1c0 8 1 18 0 26h27zM193 249h29c0-7-1-19 1-26l-30 1v25z"/><path class="fil1" d="M169 223l24 1v-31h-24zM31 362h-3z"/><path class="fil2" d="M247 250l29-1h1c-1-3-1-9-1-13 0-6-1-9 2-12h-2l-30-1c2 7 1 19 1 27z"/><path class="fil1" d="M354 362h-6zM279 362h-3z"/><path class="fil2" d="M84 193h32c-4-5-1-19-2-26H85c1 6 2 21-1 26zM140 306h28v-26h-28zM140 137l28-1v-25l-28-1zM32 192c6 0 23-1 29 1v-26H32v25zM85 250l29-1h1l-1-25c-7 1-23 2-29-1v27zM247 305h29v-25h-28zM355 167v14zM86 362c8-3 21-1 29-1l-1-24-28-1-1 26h1zM86 80h28l1-25c-8 0-23 2-30-1l1 26zM32 136c6-1 23-2 29 0l-1-26-28 1v25zM355 136v-3zM301 136c6-2 23-2 29 0l-1-25-28-1v26zM193 136c7-1 23-2 29 0v-26l-28 1-1 25zM301 306h29v-25c-7 1-23 1-29-1v26zM194 306h28v-26c-6 2-22 2-29 1l1 25zM86 136c5-3 22-1 29-1l-1-24-28-1v26zM32 306h28v-26c-5 2-22 2-28 1v25zM247 136c6-3 22-1 29-1v-24h-29v25zM86 306h1l27-1 1-24c-7 0-24 2-29-1v26z"/><path class="fil4" d="M222 249l25 1c0-8 1-20-1-27h-23c-2 7-1 19-1 26zM168 136c7 1 19 2 25 0l1-25h-26v25zM222 80h25c0-8 1-19-1-26h-23c-2 7-1 19-1 26zM276 305l25 1v-26c-7-1-18-1-25 0v25zM61 136c7 2 17 1 25 0v-26H60l1 26zM168 306h26l-1-25c-6-3-18-1-25-1v26zM115 135c5 3 18 2 25 2v-27l-26 1 1 24zM114 305l26 1v-26c-7 0-20-2-25 1l-1 24zM60 306h26v-26c-8 0-18-1-26 0v26zM330 306h25v-25c-5-2-20-2-25 0v25zM7 306h25v-25c-5-2-20-2-25 0v25zM247 362c1-8 0-18 0-26h-25l1 26h24zM7 136c5 1 20 1 25 0v-25H7v25zM330 136c5 1 20 2 25 0v-25h-26l1 25zM276 135c5 3 20 2 25 1v-26l-25 1v24zM222 306l25-1 1-25h-26zM61 193h23c3-5 2-20 1-26H61v26zM247 167h-25v26h25zM61 249l24 1v-27H61zM85 362l1-26H61v26zM61 80h25l-1-26H61zM222 136h25v-25l-25-1zM277 193h23l1-26h-24c-2 6-3 22 0 26zM330 193c6 0 20 1 25-1v-25h-25v26zM116 193h23v-26h-25c1 7-2 21 2 26zM114 224l1 25h24v-26c-6 0-20-1-25 1zM115 361v1h24v-26l-25 1zM114 80h25V54h-24v1zM168 80h25V54h-24zM277 249h24v-26l-23 1c-3 3-2 6-2 12 0 4 0 10 1 13zM276 362h24l1-26-25 1zM193 362v-26h-25l1 26zM7 80h25l-1-26H7zM28 362h3l1-26H7v26zM348 362h6l1-22v-4h-25v26zM330 80h25V54h-25zM277 80h24V54h-25zM168 249h25v-25l-24-1zM7 193l25-1v-25H7zM169 193h24v-26h-24zM330 249h25v-25l-25-1zM7 249h25l-1-25H7z"/><path class="fil2" d="M301 24h29V7h-29zM32 24h28l1-17H32zM355 7zM140 24h28V7h-29zM194 24h28V7h-29zM247 24h29V7h-29zM86 24h28V7H86z"/><path class="fil4" d="M222 24h25V7h-25zM168 24h26l-1-17h-25zM114 24h26l-1-17h-25zM276 24h25V7h-25zM7 24h25V7H7zM330 24h25V7h-25zM60 24h26V7H61z"/><path class="fil3" d="M7 224v-31zM7 280v-31zM7 167v-30zM7 54V30zM7 88v-8zM7 336v-8z"/><path class="fil2" d="M7 193v-26zM7 249v-25zM7 362v-26 26zM7 80V54zM7 136v-11zM7 286v-5z"/></g><circle class="fil5" cx="99" cy="92" r="60"/><path class="fil6" d="M326 158c57 0 103 44 103 99s-46 100-103 100-102-45-102-100 45-99 102-99z"/><path class="fil7" d="M421 137h2l1 44c0 1 1 2 2 2s2-1 2-2v-44h3l1 44c0 1 1 2 2 2 2 0 3-1 3-2l-1-44h2l2 44c0 1 1 2 3 2 1 0 2-1 2-2l-1-44h2l3 55c0 4-4 8-9 12-8 8 3 108 4 126v1c-1 7-18 7-20 0v-1h1c1-18 12-118 3-126-4-4-8-8-8-12l1-55z"/><path class="fil7" d="M321 153c57 0 102 44 102 99s-45 100-102 100-103-45-103-100 46-99 103-99z"/><path class="fil8" d="M321 182c40 0 72 31 72 70s-32 71-72 71-73-32-73-71 33-70 73-70z"/><path class="fil9" d="M363 195c18 13 30 34 30 57 0 39-32 71-72 71-11 0-21-3-30-7-19-13-31-34-31-57 0-39 32-71 72-71 11 0 22 3 31 7z"/><path class="fil10" d="M217 210c-9 8 2 108 4 126v1c-2 7-18 7-20 0v-1c1-18 12-118 4-126-10-9-11-20-11-33 0-19 7-34 17-34 9 0 17 15 17 34 0 13-2 24-11 33z"/><path class="fil11" d="M378 249l-86 48-5 7 20-107 1-5 77 52z"/><path class="fil0" d="M307 197l74 50-97 61z"/><path class="fil7" d="M379 245l-8 5c-2 0-4 0-6-1-3-3-4-6-4-9-3 1-7 2-10 0-3-3-4-6-3-9-3 1-7 2-10-1-3-2-5-5-4-8-3 1-7 2-10-1-3-1-4-5-4-8-2 2-6 2-9 0s-5-6-4-9c-1 0-1 0-2 1l2-8 72 48z"/><path class="fil12" d="M321 274l-1-22 17 2 11 2 10 6-28 17z"/><path class="fil9" d="M350 261c-4-4-8-8-15-9-6-1-12 0-13 3 0 3 5 6 11 8 7 1 12 0 17-2z"/><path class="fil8" d="M325 277c2-3 4-7 3-12 0-5-3-9-5-9-2 1-4 5-3 10 0 5 2 8 5 11z"/><path class="fil13" d="M317 240c6 0 11 4 11 10s-5 11-11 11-11-5-11-11 5-10 11-10z"/><path class="fil13" d="M321 159c27 0 51 10 68 27 18 17 28 40 28 66s-10 49-28 66c-17 17-41 28-68 28s-51-11-68-28c-18-17-28-40-28-66s10-49 28-66c17-17 41-27 68-27zm65 30c-17-16-40-26-65-26s-48 10-65 26c-16 17-26 39-26 63 0 25 10 47 26 63 17 16 40 26 65 26s48-10 65-26c16-16 26-38 26-63 0-24-10-46-26-63z"/><path class="fil7" d="M314 242c2 0 5 3 5 5 0 3-3 5-5 5-3 0-6-2-6-5 0-2 3-5 6-5z"/><path class="fil14" d="M74 35c-7 4-2 0-9 5l-3 2-2 2c-1 0-1 0-2 1-5 7-8 7-13 19-2 2-2 5-4 7 0 2 0 1 2 1l20-4c15-4 49-13 56-25l9 8c6 5 16 13 23 17l4 2c3 1 1 1 2 0-8-24-31-40-55-40-15-1-18 2-28 5zM70 106c-2 3-2 7 0 11 4 8 22 12 28 1 2 1 7 11 22 5 10-4 10-15 7-17-1 1 0 2-1 4-7 5-16-13-27-2-2-1-8-7-16-1-12 8-13 0-13-1z"/><path class="fil15" d="M56 11l88 1v35l-88-1z"/><path class="fil16" d="M34 163h133c8 0 14 7 14 15v149c0 9-6 16-14 16H34c-8 0-15-7-15-16V178c0-8 7-15 15-15z"/><ellipse class="fil17" cx="132" cy="206" rx="5" ry="4"/><ellipse class="fil17" cx="132" cy="242" rx="5" ry="4"/><ellipse class="fil17" cx="132" cy="280" rx="5" ry="4"/><ellipse class="fil17" cx="132" cy="318" rx="5" ry="4"/><ellipse class="fil17" cx="65" cy="206" rx="5" ry="4"/><ellipse class="fil17" cx="65" cy="242" rx="5" ry="4"/><ellipse class="fil17" cx="65" cy="280" rx="5" ry="4"/><ellipse class="fil17" cx="65" cy="318" rx="5" ry="4"/><path class="fil18" d="M145 189h30.137v2.826H145z"/><path class="fil15" d="M19 328h162v34H19z"/><path class="fil17" d="M263 9h114v137H263z"/><path class="fil19" d="M299 64v26h-3V72l-11 18h-1l-7-19-6 19h-2l7-26h1l8 21 13-21z"/><path id="1" class="fil19" d="M324 81h-17c0 2 0 4 2 6 1 1 3 2 5 2 1 0 2-1 4-1 1-1 2-2 2-3l2 2-3 3c-2 1-4 1-5 1-4 0-6-1-7-3-2-2-3-4-3-6s1-4 2-6 2-3 4-4 4-2 6-2 4 1 6 3c2 1 3 4 3 6 0 1 0 1-1 2zm-2-2c0-2-1-4-2-5s-3-2-4-2c-2 0-4 1-6 2-1 1-2 3-3 5h15z"/><path id="2" class="fil19" d="M331 71h2v3c2-3 4-4 7-4 2 0 4 1 5 2s2 3 2 5v4l-2 9h-2l1-9v-4c0-1 0-2-1-3s-2-2-3-2c-2 0-3 1-4 1l-3 3c0 1-1 3-1 6l-1 8h-3l3-19z"/><path id="3" class="fil19" d="M355 71h3l-2 8v5c0 1 0 2 1 3s2 2 4 2c1 0 2-1 3-2 1 0 2-1 2-2 1-1 1-2 1-5l1-9h3l-1 7c-1 4-1 6-2 8 0 1-1 3-2 3-2 1-3 2-5 2s-4-1-5-2c-2-2-3-3-3-5 0-1 1-2 1-3v-3l1-7z"/><path class="fil20" d="M267 50h104.688v3.125H267zM267 100h104.688v3.125H267z"/><path class="fil15" d="M73 188h1l55-10-55 19v130h-2zM68 160l49 3-50 25 6-17 21-2 2 2 3 8 25-1-10-7-45-5z"/></g></svg>