<?xml version="1.0" encoding="UTF-8"?>
<!DOCTYPE svg PUBLIC "-//W3C//DTD SVG 1.1//EN" "http://www.w3.org/Graphics/SVG/1.1/DTD/svg11.dtd">
<!-- Creator: CorelDRAW X7 -->
<svg xmlns="http://www.w3.org/2000/svg" xml:space="preserve" width="118.533mm" height="94.8266mm" version="1.1" style="shape-rendering:geometricPrecision; text-rendering:geometricPrecision; image-rendering:optimizeQuality; fill-rule:evenodd; clip-rule:evenodd"
viewBox="0 0 11853 9483"
 xmlns:xlink="http://www.w3.org/1999/xlink">
 <defs>
  <style type="text/css">
   <![CDATA[
    .fil5 {fill:#FCD5A6}
    .fil16 {fill:#333333}
    .fil6 {fill:#502621}
    .fil14 {fill:#6B231C}
    .fil12 {fill:#729299}
    .fil0 {fill:#89A2A7}
    .fil15 {fill:#A30026}
    .fil11 {fill:#AB2B2C}
    .fil13 {fill:#B8272A}
    .fil8 {fill:#C4C5C5}
    .fil19 {fill:#CCCCCC}
    .fil4 {fill:#E63E3A}
    .fil2 {fill:#EA645B}
    .fil9 {fill:#EBEBEB}
    .fil1 {fill:#F08678}
    .fil3 {fill:#FEF5D6}
    .fil7 {fill:#FEFEFE}
    .fil17 {fill:#FFEC1B}
    .fil10 {fill:white}
    .fil18 {fill:#CCCCCC;fill-rule:nonzero}
   ]]>
  </style>
 </defs>
 <g id="Слой_x0020_1">
  <metadata id="CorelCorpID_0Corel-Layer"/>
  <polygon class="fil0" points="11778,-51 11778,9474 2464,9474 2464,-51 "/>
  <path class="fil1" d="M6803 4262l635 0 0 -794 768 0 0 767 635 0 26 -767c159,-27 556,0 741,0l0 794 635 0 26 -794 741 0 0 794 662 0 0 -821c-133,27 -529,27 -662,0 -158,-52 -582,-52 -741,0 -132,27 -555,53 -661,-26 -185,0 -609,-53 -741,26l-661 0c-159,-52 -582,-26 -768,0 -158,53 -476,27 -661,0l26 821zm2779 2963c185,-26 502,-53 687,0 159,53 583,53 741,0 133,-26 529,-53 662,0l0 -820 -662 0 0 794 -741 0 -26 -794 -635 0 -26 820 0 0zm-7012 0c132,-26 529,-26 662,0 158,53 608,53 740,0 212,-26 450,-26 662,0 132,79 582,26 767,26 132,-79 476,-26 662,-52l-27 -794 -661 0 0 794c-186,0 -582,52 -741,0l0 -768 -662 0 0 768 -740 0 0 -794 -662 0 0 820zm0 -2963l662 0 0 -794 740 0 0 767 662 0 0 -767c159,-53 555,0 741,0l0 794 661 0 27 -794c-186,-27 -530,26 -662,-53 -185,0 -635,-53 -767,26 -212,27 -476,53 -662,0 -158,-52 -582,-26 -740,0 -133,27 -530,27 -662,0l0 821zm1429 1455l635 0c159,79 555,53 741,26 105,-53 502,0 661,0 27,-185 27,-635 0,-793l-608 -27 -53 0 0 794 -741 0 0 -794 -53 0 -609 27c0,185 -26,608 27,767zm2778 1508c185,-26 503,-53 661,0 186,26 609,53 768,0l661 -26 -26 -768 -635 0 0 768 -768 0 0 -794 -635 0 -26 820z"/>
  <path class="fil2" d="M7438 4923l768 27 661 0 741 -27 26 0c-79,-106 -52,-529 0,-661l-26 0 -767 -27 26 688 -661 0 0 -688 -768 27 0 661z"/>
  <path class="fil3" d="M11672 4262l0 -424 0 424zm0 2143l0 608 0 -608zm-8467 2963zm8467 0zm0 -7408l0 53 0 -53zm0 3783l0 -661 0 661zm0 -4445l0 -476 0 476zm-2064 8070l-53 0 53 0z"/>
  <path class="fil1" d="M5401 9368l0 -26c-212,0 -556,-27 -741,26l741 0zm-2831 -4445l0 820 635 0 27 -793 740 0 0 -27c-132,-26 -582,-26 -740,0l-662 0zm1429 -3625l635 -26c159,106 555,53 767,53l0 -27 -767 -26 0 -767 -662 0 27 793zm5609 1482l661 0 0 -794 -661 -26 -26 0 26 820zm1429 2143l0 820 635 0 0 -820c-133,53 -503,27 -635,0zm-5662 -2143l661 0 0 -794 -661 -26 0 820zm0 5927l661 -27 0 -794 -661 0 0 821zm-2805 0l662 0 0 -821 -662 0 0 609 0 212zm4207 -5927l688 0 -27 -820 -635 0 -26 820zm2831 5927l661 -27 0 -794 -661 0 0 821zm-7038 -5927l662 0 0 -820 -662 0 0 211 0 609zm8440 5927l662 0 0 -821 -662 0 0 821zm0 -5927l662 0 0 -820 -662 0 0 820zm-4207 5927l635 0 27 -821 -688 0 26 821z"/>
  <path class="fil2" d="M10243 4950l794 -27 -27 -661 -767 0 0 688zm-4207 0l767 -27 0 -661 -767 0 0 688zm4207 1455l767 0 27 -662 -794 0 0 662zm-4207 0l767 0 0 -662 -767 0 0 662zm5636 0l0 -662 0 662zm-635 2963l-27 -661 -741 -27 -26 688 794 0zm-4234 0l0 -661 -767 -27 0 688 767 0zm-3571 -2963l740 26 27 -714 -794 26 27 662zm4974 2963l0 -688 -768 27 0 661 768 0zm3466 -7408l0 -662 0 662zm0 7408l0 -556 0 556zm-1403 -7382l741 -26 27 -662 -794 0 26 688zm-4233 0l767 -26 0 -662 -767 0 0 688zm-2831 7382l794 0 -27 -688 -740 27 -27 661zm27 -7408l740 26 27 -688 -794 0 27 662z"/>
  <path class="fil1" d="M3972 2754l662 0 0 -768 -662 0 0 768zm4207 0l662 26 26 0c-53,-159 0,-582 -26,-794l-635 0 -27 768zm-4207 5926l662 0c0,-211 -53,-635 26,-794l-688 0 0 794zm4234 0l635 0c26,-211 -27,-608 26,-794l-26 0 -662 27 27 767z"/>
  <path class="fil2" d="M8841 1986l741 -26 26 0 0 -662 -767 -26c53,212 0,503 0,714z"/>
  <path class="fil1" d="M9608 5743l635 0 0 -793 -609 -27 -26 0 0 820zm-2805 -4445l635 0 0 -793 -661 0 26 793zm-4233 0l635 0 27 -793 -662 0 0 158 0 635zm8467 0l635 0 0 -793 -662 0 27 793zm-2831 0l635 -26c53,-212 0,-529 26,-767l-661 0c0,238 -53,555 0,793zm0 4419l635 0c53,-185 26,-529 26,-767l-661 0c0,238 -27,555 0,767zm1402 -4419l635 0 26 -793 -661 0 0 793zm-4207 0l635 0 0 -793 -661 -27 26 820z"/>
  <path class="fil2" d="M7438 1960l768 26c0,-211 -27,-502 0,-688l-768 0 0 662zm2117 7408l53 0 0 -661 -767 -27c0,212 53,476 0,688l714 0zm-2117 -2963l768 26c-27,-211 -27,-502 0,-714l-768 26 0 662z"/>
  <path class="fil1" d="M6803 5743l635 0 0 -820 -635 0 0 820zm-3598 3625l-79 0 79 0z"/>
  <path class="fil2" d="M8841 6431l767 -26 26 0c-52,-80 -26,-238 -26,-344 0,-159 -26,-238 53,-318l-53 0 -767 -26c53,185 26,503 0,714z"/>
  <path class="fil1" d="M11672 9368l-159 0 159 0zm-1985 0l-79 0 79 0z"/>
  <path class="fil2" d="M4581 4923l847 0c-106,-132 -27,-476 -53,-661l-741 -27c0,159 26,582 -53,688zm1455 2963l741 0 0 -661 -714 -26 -27 687zm27 -4418l714 -27 0 -661 -741 0 27 688zm-2831 1455c158,-26 608,-26 740,0l0 -688 -740 27 0 661zm1402 1508l741 -26 26 0 -26 -662c-186,27 -582,53 -741,-26l0 714zm4207 1455l767 0 -26 -661 -715 -26 -26 687zm2831 -3624l0 370 0 -370zm-7012 5106c185,-53 529,-26 741,-26l-26 -635 -741 -27 0 688 26 0zm-26 -7382l741 -26 26 -635c-212,0 -608,53 -767,-53l0 714zm-1402 1455c158,-26 582,-52 740,0l0 -687 -740 26 0 661zm8440 0l0 -79 0 79zm-1403 0c159,-52 583,-52 741,0l0 -661 -741 0 0 661 0 0zm-2831 0c186,-26 609,-52 768,0l-27 -687 -714 26 -27 661 0 0zm2831 4445l741 0 0 -661c-158,53 -582,53 -741,0l0 661 0 0zm-2804 0l714 27 27 -688c-159,53 -582,26 -768,0l27 661 0 0zm-2831 -4445c132,-79 582,-26 767,-26l-26 -635 -741 -26 0 687zm-1402 4445l740 0 0 -661c-132,53 -582,53 -740,0l0 661 0 0zm5635 -4445c132,-79 556,-26 741,-26l0 -635 -767 0 26 661 0 0zm-4233 4445l741 0 26 -635c-185,0 -635,53 -767,-26l0 661z"/>
  <path class="fil4" d="M8206 6431l635 0c26,-211 53,-529 0,-714l-635 0c-27,212 -27,503 0,714zm-1429 -2990c185,27 503,53 661,0l27 -661 -688 0 0 661 0 0zm1429 -1455l635 0c0,-211 53,-502 0,-714l-635 26c-27,186 0,477 0,688zm1402 5900l661 0 0 -661c-185,-53 -502,-26 -687,0l26 661zm-5636 -4445c186,53 450,27 662,0l0 -687 -662 0 0 687 0 0zm2805 4445l688 0 -27 -661c-158,-53 -476,-26 -661,0l0 661zm-1376 -4471c132,79 476,26 662,53l-27 -688 -661 0 26 635zm-26 4471l661 0 27 -687c-186,26 -530,-27 -662,52l-26 635zm-1403 0l662 0 0 -661c-212,-26 -450,-26 -662,0l0 661zm7038 0l662 0 0 -661c-133,-53 -529,-26 -662,0l0 661 0 0zm-8440 0l662 0 0 -661c-133,-26 -530,-26 -662,0l0 661 0 0zm6271 1482c53,-212 0,-476 0,-688l-635 0 0 688 635 0zm-6271 -5927c132,27 529,27 662,0l0 -661 -662 0 0 661 0 0zm8440 0c133,27 529,27 662,0l0 -661 -662 0 0 661 0 0zm-1402 -26c106,79 529,53 661,26l0 -661 -661 0 0 635zm-1429 4498l662 -27 26 -687 -661 26 -27 688zm-4207 -2990l0 27 609 -27c79,-106 53,-529 53,-688l-662 0 0 688zm4869 -688l-635 0 0 688 661 0 -26 -688zm-4869 2196l662 0 0 -714 -635 0 -27 714zm662 2937l0 -688 -662 0 27 688 635 0zm-662 -7382l662 0 0 -714 -635 26 -27 688zm4234 1455l661 0 -26 -661 -662 -26 27 687zm1428 1482l609 27 0 -688 -609 0c-52,132 -79,555 0,661zm1403 0c132,27 502,53 635,0l0 -661 -662 0 27 661 0 0zm-5609 0l608 27 0 -688 -661 0c26,185 -53,529 53,661zm-53 820l26 662 635 0 0 -662c-159,0 -556,-53 -661,0zm26 3599l0 26 635 0 0 -688 -661 27 26 635zm-26 -7382l661 26 0 -688 -635 0 0 27 -26 635zm1428 0l635 0 0 -662 -635 0 0 662zm2831 4445l609 0 0 -662 -582 0c-79,80 -53,159 -53,318 0,106 -26,264 26,344zm-26 2963l635 0 26 -688 -661 27 0 661zm-2170 0l0 -661 -635 0 0 661 635 0zm-4868 -7408l662 0 -27 -662 -635 0 0 662zm556 7408l79 0 27 -661 -662 0 0 661 556 0zm8387 0l159 0 0 -661 -662 0 27 661 476 0zm-503 -7408l662 0 0 -662 -635 0 -27 662zm-1402 0l661 26 -26 -688 -635 0 0 662zm-2805 4445l635 0 0 -662 -635 0 0 662zm-4233 -1482l662 0 0 -661 -662 0 0 661zm4233 0l635 0 0 -661 -635 0 0 661zm4207 1482l662 0 0 -662 -635 0 -27 662zm-8440 0l662 0 -27 -662 -635 0 0 662z"/>
  <path class="fil2" d="M10269 505l741 0 0 -450 -741 0 0 450zm-7037 0l740 0 0 -450 -740 0 0 450zm8440 -450zm-5636 450l741 0 0 -450 -741 0 0 450zm1402 0l768 0 0 -450 -768 0 0 450zm1429 0l741 0 0 -450 -767 0 26 450zm-4233 0l741 -27 0 -423 -741 0 0 450z"/>
  <path class="fil4" d="M8206 505l661 0 -26 -450 -635 0 0 450zm-1429 0l661 0 0 -450 -661 0 0 450zm-1402 -27l661 27 0 -450 -661 0 0 423zm4233 27l661 0 0 -450 -661 0 0 450zm-7038 0l662 0 0 -450 -662 0 0 450zm8440 0l662 0 0 -450 -662 0 0 450zm-7038 0l662 0 0 -450 -662 0 0 450z"/>
  <path class="fil3" d="M2570 5743l0 -820 0 820zm0 1456l0 -794 0 794zm0 -2937l0 -794 0 794zm0 -2964l0 -635 0 635zm0 873l0 -211 0 211zm0 6536l0 -212 0 212z"/>
  <path class="fil2" d="M2570 4923l0 -661 0 661zm0 1482l0 -662 0 662zm0 2963l0 -661 0 661zm0 -7408l0 -662 0 662zm0 1481l0 -264 0 264zm0 3943l0 -159 0 159z"/>
  <polygon class="fil0" points="9396,-51 9396,9474 83,9474 83,-51 "/>
  <path class="fil1" d="M4369 4288l635 0 0 -794 768 0 0 794 661 0 0 -794c159,-26 582,0 767,0l0 794 662 0 0 -794 767 0 0 794 661 0 0 -820c-132,53 -529,26 -661,0 -159,-53 -609,-53 -767,0 -133,26 -529,53 -662,-27 -185,0 -608,-52 -767,27l-661 0c-159,-53 -583,-27 -768,0 -159,53 -476,26 -661,0l26 820zm2831 2990c185,-27 477,-27 662,0 158,53 582,53 767,26 132,-53 529,-53 661,0l0 -846 -661 0 0 820 -767 -27 0 -793 -662 0 0 820 0 0zm-7117 26c132,-53 529,-53 661,0 159,27 609,27 741,-26 212,-27 477,0 688,0 132,79 582,26 767,26 133,-79 477,-26 662,-26l-27 -820 -661 0 0 820c-185,0 -582,26 -741,-27l-26 -767 -635 -26 0 793 -768 27 0 -820 -661 0 0 846 0 0zm0 -3016l661 0 0 -794 768 0 0 794 635 0 26 -767c159,-80 556,-27 741,-27l0 794 661 0 27 -794c-185,0 -529,27 -662,-53 -185,0 -635,-52 -767,27 -211,26 -476,53 -661,0 -159,-53 -609,-27 -768,0 -132,26 -529,26 -661,0l0 820zm1429 1482l635 0c158,79 582,53 767,26 132,-53 503,-26 661,-26 27,-159 27,-635 0,-794l-661 0 0 794 -741 0 0 -794 -661 0c-27,212 -27,609 0,794zm2831 1508c185,0 502,-53 661,26 185,27 609,27 768,-26l687 0 -26 -794 -661 -26 0 793 -768 0 0 -793 -661 0 0 820 0 0z"/>
  <path class="fil2" d="M5004 4976l768 0 661 26 767 -26 27 0c-80,-106 -53,-529 0,-688l-794 0 0 688 -661 0 0 -688 -768 0 0 688z"/>
  <path class="fil3" d="M9290 4288l0 -397 0 397zm0 2170l0 608 0 -608zm-8546 2989l-26 0 26 0zm8546 0l-26 0 26 0zm0 -7461l0 53 0 -53zm0 3810l0 -661 0 661zm0 -4498l0 -476 0 476zm-2090 8149l-53 0 53 0z"/>
  <path class="fil1" d="M2940 9447l0 -26c-211,0 -555,-53 -767,26l767 0zm-2857 -4471l0 820 635 0 26 -820 768 0c-159,-53 -609,-26 -768,-26l-661 26zm1429 -3678l635 0c185,80 582,27 793,27l0 -27 -767 0 0 -793 -688 0 27 793zm5688 1508l662 -26 0 -794 -688 0 26 820zm1429 2170l0 794 661 26 0 -846c-132,52 -502,26 -661,26zm-5715 -2170l688 -26 -27 -794 -661 0 0 820zm0 5980l661 -26 27 -794 -688 -27 0 847zm-2831 -26l661 0 0 -794 -661 0 0 582 0 212zm4260 -5954l688 0 -27 -820 -661 0 0 820zm2857 5980l662 -26 0 -794 -662 -27 0 847zm-7117 -5980l661 0 0 -820 -661 0 0 212 0 608zm8546 5954l661 0 0 -794 -661 0 0 794zm-26 -5954l687 0 0 -820 -661 0 -26 820zm-4260 5954l661 0 27 -794 -688 0 0 794z"/>
  <path class="fil2" d="M7835 4976l794 0 0 -688 -767 0 -27 688zm-4260 0l794 0 0 -688 -794 0 0 688zm4287 1482l767 0 0 -688 -767 0 0 688zm-4287 0l768 0 26 -688 -794 0 0 688zm5715 0l0 -662 0 662zm-661 2989l0 -687 -767 0 -27 687 794 0zm-4260 0l-26 -687 -768 0 0 687 794 0zm-3625 -2989l768 0 0 -688 -794 26 26 662zm5054 2989l-26 -687 -768 0 0 687 794 0zm3492 -7461l0 -688 0 688zm-26 7461l26 0 0 -582 -26 582zm-1402 -7461l767 0 0 -688 -767 0 0 688zm-4287 0l768 0 26 -688 -794 0 0 688zm-2857 7461l794 0 0 -687 -768 0 -26 687zm26 -7461l768 0 0 -688 -794 0 26 688z"/>
  <path class="fil1" d="M1485 2780l688 0 0 -794 -661 0 -27 794zm4287 0l661 26 26 0c-52,-158 -26,-582 -26,-820l-661 0 0 794zm-4260 5980l661 0c0,-212 -53,-635 27,-794l-715 0 27 794zm4260 0l661 0c0,-239 -26,-635 26,-821l-26 0 -661 27 0 794z"/>
  <path class="fil2" d="M6433 1986l794 0 -27 -688 -793 0c52,186 26,477 26,688l0 0z"/>
  <path class="fil1" d="M7200 5796l53 0 609 -26 -27 -794 -635 0 0 820zm-2831 -4498l635 0 27 -793 -688 0 26 793zm-4286 0l635 0 26 -793 -661 0 0 158 0 635zm8546 0l661 0 0 -793 -661 0 0 793zm-2831 0l609 0c79,-238 26,-529 26,-793l-661 0c0,264 -27,555 26,793zm0 4472l609 0c79,-212 26,-556 26,-768l-661 -26c0,238 -27,582 26,794l0 0zm1402 -4472l662 0 0 -793 -662 0 0 793zm-4260 0l635 0 27 -793 -688 0 26 793z"/>
  <path class="fil2" d="M5004 1986l768 0c0,-185 -27,-502 26,-688l-794 0 0 688zm2143 7461l53 0 0 -661 -767 -26c0,211 26,476 0,687l714 0zm-2143 -2989l768 0c0,-186 -27,-503 26,-688l-794 26 0 662z"/>
  <path class="fil1" d="M4369 5770l635 26 0 -820 -635 0 0 794zm-3651 3677l-79 0 79 0z"/>
  <path class="fil2" d="M6433 6484l767 -26 27 0c-27,-80 -27,-238 -27,-344 0,-159 -26,-238 53,-318l-53 0 -793 -26c52,185 26,502 26,714l0 0z"/>
  <path class="fil1" d="M9264 9447l-159 0 159 0zm-1984 0l-80 0 80 0z"/>
  <path class="fil2" d="M2120 4976l847 0c-106,-132 -27,-503 -53,-688l-767 0c26,159 53,556 -27,688zm1482 2990l741 0 0 -688 -741 0 0 688zm0 -4472l741 -26 0 -662 -741 -26 0 714zm-2858 1456c159,0 609,-27 768,26l0 -688 -768 0 0 662zm1403 1534l767 -26 26 0 -26 -662c-185,27 -609,53 -767,-26l0 714 0 0zm4286 1455l767 0 0 -661 -741 0 -26 661zm2857 -3651l0 371 0 -371zm-7117 5159c212,-79 556,-26 767,-26l-26 -635 -741 -26 -26 687 26 0zm0 -7461l741 0 26 -661c-211,0 -608,53 -793,-27l26 688zm-1429 1482c159,-27 609,-53 768,0l-27 -688 -741 26 0 662zm8546 0l0 -79 0 79zm-1428 0c158,-53 608,-53 767,0l-26 -662 -741 -26 0 688zm-2858 0c185,-27 609,-53 768,0l0 -688 -741 26 -27 662zm2858 4498l767 0 0 -662c-185,27 -609,27 -767,-26l0 688 0 0zm-2831 0l741 0 0 -688c-159,53 -583,53 -768,26l27 662zm-2858 -4498c132,-79 582,-27 767,-27l-26 -635 -741 -26 0 688zm-1429 4498l741 0 0 -688c-132,53 -582,53 -741,26l0 662zm5689 -4498c159,-79 582,-27 767,-27l0 -635 -767 0 0 662zm-4260 4498l27 0 714 -27 26 -635c-185,0 -635,53 -767,-26l0 688 0 0z"/>
  <path class="fil4" d="M5772 6458l661 26c0,-212 26,-529 -26,-714l-609 0c-53,185 -26,502 -26,688zm-1429 -2990c185,26 502,53 661,0l27 -662 -688 0 0 662zm1429 -1482l661 0c0,-211 26,-502 -26,-688l-609 0c-53,186 -26,503 -26,688zm1428 5953l662 27 0 -688c-185,-27 -477,-27 -662,0l0 661zm-5688 -4471c185,53 450,26 661,0l0 -688 -688 0 27 688 0 0zm2831 4498l688 0 -27 -662c-159,-79 -476,-26 -661,-26l0 688zm-1403 -4525c133,80 477,53 662,53l0 -714 -688 26 26 635zm-26 4498l688 27 0 -688c-185,0 -529,-53 -662,26l-26 635zm-1429 27l688 0 0 -688c-211,0 -476,-27 -688,0l0 688zm7144 0l661 0 0 -662c-132,-53 -529,-53 -661,0l0 662 0 0zm-8546 0l661 0 0 -662c-132,-53 -529,-53 -661,0l0 662zm6350 1481c26,-211 0,-476 0,-687l-661 0 26 687 635 0zm-6350 -5979c132,26 529,26 661,0l0 -662 -661 0 0 662zm8546 0c132,26 529,53 661,0l0 -662 -687 0 26 662zm-1429 -27c133,80 529,53 662,27l0 -688 -662 26 0 635zm-1428 4525l661 -27 26 -661 -687 0 0 688zm-4260 -2990l608 0c80,-132 53,-529 27,-688l-635 0 0 688zm4921 -688l-661 0 0 688 661 0 0 -688zm-4921 2170l635 26 0 -714 -635 0 0 688zm635 2989l26 -687 -661 0 0 687 635 0zm-635 -7461l661 0 -26 -688 -635 0 0 688zm4260 1482l661 0 0 -662 -661 -26 0 688zm1455 1508l608 0 27 -688 -635 0c-53,159 -80,582 0,688zm1402 0c159,0 529,26 661,-26l0 -662 -661 0 0 688zm-5662 0l608 0 0 -688 -661 0c26,185 -53,556 53,688zm-53 820l26 662 635 0 0 -688c-158,0 -529,-27 -661,26zm26 3625l0 26 635 0 0 -687 -661 26 26 635zm-26 -7435l661 0 0 -688 -635 0 0 27 -26 661zm1429 0l661 0 0 -688 -635 0 -26 688zm2884 4472l635 0 0 -688 -609 26c-79,80 -53,159 -53,318 0,106 0,264 27,344zm-27 2989l635 0 27 -687 -662 26 0 661zm-2196 0l0 -687 -661 0 26 687 635 0zm-4921 -7461l661 0 -26 -688 -635 0 0 688zm556 7461l79 0 26 -687 -661 0 0 687 556 0zm8466 0l159 0 26 -582 0 -105 -661 0 0 687 476 0zm-476 -7461l661 0 0 -688 -661 0 0 688zm-1402 0l635 0 0 -688 -662 0 27 688zm-2884 4472l661 0 0 -662 -635 -26 -26 688zm-4260 -1482l661 -26 0 -662 -661 0 0 688zm4286 0l635 0 0 -688 -635 0 0 688zm4260 1482l661 0 0 -662 -661 -26 0 688zm-8546 0l661 0 -26 -662 -635 0 0 662z"/>
  <path class="fil2" d="M7862 505l767 0 0 -450 -767 0 0 450zm-7118 0l741 0 27 -450 -768 0 0 450zm8546 -450zm-5688 450l741 0 0 -450 -768 0 27 450zm1429 0l741 0 0 -450 -768 0 27 450zm1402 0l767 0 0 -450 -767 0 0 450zm-4260 0l741 0 0 -450 -741 0 0 450z"/>
  <path class="fil4" d="M5772 505l661 0 0 -450 -661 0 0 450zm-1429 0l688 0 -27 -450 -661 0 0 450zm-1429 0l688 0 -27 -450 -661 0 0 450zm4286 0l662 0 0 -450 -662 0 0 450zm-7117 0l661 0 0 -450 -661 0 0 450zm8546 0l661 0 0 -450 -661 0 0 450zm-7144 0l688 0 0 -450 -661 0 -27 450z"/>
  <path class="fil3" d="M83 5796l0 -820 0 820zm0 1482l0 -820 0 820zm0 -2990l0 -794 0 794zm0 -2990l0 -635 0 635zm0 900l0 -212 0 212zm0 6562l0 -212 0 212z"/>
  <path class="fil2" d="M83 4976l0 -688 0 688zm0 1482l0 -662 0 662zm0 2989l0 -687 0 687zm0 -7461l0 -688 0 688zm0 1482l0 -291 0 291zm0 3969l0 -133 0 133z"/>
  <circle class="fil5" cx="2517" cy="2304" r="1587"/>
  <path class="fil6" d="M8523 4050c1508,0 2725,1164 2725,2619 0,1456 -1217,2646 -2725,2646 -1508,0 -2699,-1190 -2699,-2646 0,-1455 1191,-2619 2699,-2619z"/>
  <path class="fil7" d="M11037 3494l53 0 26 1165c0,26 27,52 53,52 26,0 53,-26 53,-52l0 -1165 79 0 27 1165c0,26 26,52 53,52 53,0 79,-26 79,-52l-26 -1165 53 0 52 1165c0,26 27,52 80,52 26,0 53,-26 53,-52l-27 -1165 53 0 80 1456c0,105 -106,211 -239,317 -211,212 80,2858 106,3334l0 26c-26,185 -476,185 -529,0l0 -26 27 0c26,-476 317,-3122 79,-3334 -106,-106 -212,-212 -212,-317l27 -1456 0 0z"/>
  <path class="fil7" d="M8391 3918c1508,0 2699,1164 2699,2619 0,1455 -1191,2646 -2699,2646 -1508,0 -2725,-1191 -2725,-2646 0,-1455 1217,-2619 2725,-2619z"/>
  <path class="fil8" d="M8391 4685c1058,0 1905,820 1905,1852 0,1032 -847,1879 -1905,1879 -1058,0 -1932,-847 -1932,-1879 0,-1032 874,-1852 1932,-1852z"/>
  <path class="fil9" d="M9502 5029c476,344 794,900 794,1508 0,1032 -847,1879 -1905,1879 -291,0 -556,-80 -794,-186 -503,-344 -820,-899 -820,-1508 0,-1032 847,-1878 1905,-1878 291,0 582,79 820,185z"/>
  <path class="fil10" d="M5639 5426c-238,211 53,2857 106,3334l0 26c-53,185 -476,185 -529,0l0 -26c26,-477 317,-3123 106,-3334 -265,-238 -291,-529 -291,-873 0,-503 185,-900 449,-900 239,0 450,397 450,900 0,344 -53,635 -291,873l0 0z"/>
  <polygon class="fil11" points="9899,6458 7624,7728 7491,7913 8020,5082 8047,4950 10084,6325 "/>
  <polygon class="fil0" points="8020,5082 9978,6405 7412,8019 "/>
  <path class="fil7" d="M9925 6352l-211 132c-53,0 -106,0 -159,-26 -79,-80 -106,-159 -106,-238 -79,26 -185,52 -264,0 -80,-80 -106,-159 -80,-239 -79,27 -185,53 -264,-26 -80,-53 -133,-132 -106,-212 -80,27 -185,53 -265,-26 -79,-27 -106,-132 -106,-212 -52,53 -158,53 -238,0 -79,-53 -132,-159 -106,-238 -26,0 -26,0 -52,27l52 -212 1905 1270 0 0z"/>
  <polygon class="fil12" points="8391,7119 8364,6537 8814,6590 9105,6643 9370,6802 8629,7251 "/>
  <path class="fil9" d="M9158 6775c-106,-106 -211,-211 -397,-238 -158,-26 -317,0 -344,79 0,80 133,159 291,212 186,27 318,0 450,-53l0 0z"/>
  <path class="fil8" d="M8497 7199c53,-80 106,-186 79,-318 0,-132 -79,-238 -132,-238 -53,26 -106,132 -80,264 0,133 53,212 133,292l0 0z"/>
  <path class="fil13" d="M8285 6220c159,0 291,105 291,264 0,159 -132,291 -291,291 -159,0 -291,-132 -291,-291 0,-159 132,-264 291,-264z"/>
  <path class="fil13" d="M8391 4076c714,0 1349,265 1799,715 476,450 741,1058 741,1746 0,688 -265,1297 -741,1746 -450,450 -1085,741 -1799,741 -714,0 -1349,-291 -1799,-741 -477,-449 -741,-1058 -741,-1746 0,-688 264,-1296 741,-1746 450,-450 1085,-715 1799,-715zm1720 794c-450,-423 -1059,-688 -1720,-688 -662,0 -1270,265 -1720,688 -423,450 -688,1032 -688,1667 0,662 265,1244 688,1667 450,423 1058,688 1720,688 661,0 1270,-265 1720,-688 423,-423 688,-1005 688,-1667 0,-635 -265,-1217 -688,-1667z"/>
  <path class="fil7" d="M8206 6272c53,0 132,80 132,133 0,79 -79,132 -132,132 -80,0 -159,-53 -159,-132 0,-53 79,-133 159,-133z"/>
  <path class="fil14" d="M1856 796c-186,105 -53,0 -238,132l-80 53 -53 53c-26,0 -26,0 -53,26 -132,185 -211,185 -344,503 -53,53 -53,132 -105,185 0,53 0,27 52,27l530 -106c397,-106 1296,-344 1481,-662l238 212c159,132 424,344 609,450l106 53c79,26 26,26 53,0 -212,-635 -820,-1059 -1455,-1059 -397,-26 -477,53 -741,133l0 0zm-106 1878c-53,80 -53,185 0,291 106,212 582,318 741,27 53,26 185,291 582,132 264,-106 264,-397 185,-450 -26,27 0,53 -26,106 -186,132 -424,-344 -715,-53 -53,-26 -212,-185 -423,-26 -318,211 -344,0 -344,-27l0 0z"/>
  <polygon class="fil15" points="1379,161 3708,187 3708,1113 1379,1087 "/>
  <path class="fil10" d="M797 4182l3519 0c212,0 371,186 371,397l0 3942c0,239 -159,424 -371,424l-3519 0c-211,0 -397,-185 -397,-424l0 -3942c0,-212 186,-397 397,-397l0 0z"/>
  <ellipse class="fil16" cx="3390" cy="5320" rx="132" ry="106"/>
  <ellipse class="fil16" cx="3390" cy="6272" rx="132" ry="106"/>
  <ellipse class="fil16" cx="3390" cy="7278" rx="132" ry="106"/>
  <ellipse class="fil16" cx="3390" cy="8283" rx="132" ry="106"/>
  <ellipse class="fil16" cx="1618" cy="5320" rx="132" ry="106"/>
  <ellipse class="fil16" cx="1618" cy="6272" rx="132" ry="106"/>
  <ellipse class="fil16" cx="1618" cy="7278" rx="132" ry="106"/>
  <ellipse class="fil16" cx="1618" cy="8283" rx="132" ry="106"/>
  <polygon class="fil17" points="3734,4870 4532,4870 4532,4945 3734,4945 "/>
  <polygon class="fil15" points="400,8548 4687,8548 4687,9447 400,9447 "/>
  <polygon class="fil16" points="6856,108 9873,108 9873,3732 6856,3733 "/>
  <polygon class="fil18" points="7809,1563 7809,2251 7729,2251 7729,1775 7438,2251 7412,2251 7227,1748 7068,2251 7015,2251 7200,1563 7227,1563 7438,2119 7782,1563 "/>
  <path id="_1" class="fil18" d="M8470 2013l-450 0c0,53 0,106 53,158 27,27 80,53 133,53 26,0 53,-26 106,-26 26,-27 52,-53 52,-79l53 52 -79 80c-53,26 -106,26 -132,26 -106,0 -159,-26 -186,-79 -52,-53 -79,-106 -79,-159 0,-53 27,-106 53,-159 26,-53 53,-79 106,-105 53,-27 106,-53 159,-53 53,0 105,26 158,79 53,27 80,106 80,159 0,26 0,26 -27,53l0 0zm-53 -53c0,-53 -26,-106 -53,-132 -26,-27 -79,-53 -105,-53 -53,0 -106,26 -159,53 -27,26 -53,79 -80,132l397 0z"/>
  <path id="_2" class="fil18" d="M8655 1748l53 0 0 80c53,-80 106,-106 186,-106 53,0 105,26 132,53 26,26 53,79 53,132l0 106 -53 238 -53 0 26 -238 0 -106c0,-27 0,-53 -26,-80 -26,-26 -53,-52 -79,-52 -53,0 -80,26 -106,26l-80 79c0,27 -26,80 -26,159l-27 212 -79 0 79 -503 0 0z"/>
  <path id="_3" class="fil18" d="M9290 1748l80 0 -53 212 0 132c0,27 0,53 26,79 27,27 53,53 106,53 27,0 53,-26 80,-53 26,0 53,-26 53,-52 26,-27 26,-53 26,-133l26 -238 80 0 -27 185c-26,106 -26,159 -53,212 0,26 -26,79 -52,79 -53,27 -80,53 -133,53 -53,0 -106,-26 -132,-53 -53,-53 -79,-79 -79,-132 0,-26 26,-53 26,-79l0 -80 26 -185z"/>
  <path class="fil19" d="M6962 1193l2770 0 0 82 -2770 0 0 -82zm0 1322l2770 0 0 83 -2770 0 0 -83z"/>
  <path class="fil15" d="M1829 4844l27 0 1455 -265 -1455 503 0 3439 -53 0 26 -3677zm-132 -741l1296 79 -1323 662 159 -450 556 -53 53 53 79 212 662 -27 -265 -185 -1191 -132 -26 -159z"/>
 </g>
</svg>
