<?xml version="1.0" encoding="UTF-8"?>
<!DOCTYPE svg PUBLIC "-//W3C//DTD SVG 1.1//EN" "http://www.w3.org/Graphics/SVG/1.1/DTD/svg11.dtd">
<!-- Creator: CorelDRAW X7 -->
<svg xmlns="http://www.w3.org/2000/svg" xml:space="preserve" width="1200mm" height="1000mm" version="1.1" style="shape-rendering:geometricPrecision; text-rendering:geometricPrecision; image-rendering:optimizeQuality; fill-rule:evenodd; clip-rule:evenodd"
viewBox="0 0 120000 100000"
 xmlns:xlink="http://www.w3.org/1999/xlink">
 <defs>
  <style type="text/css">
   <![CDATA[
    .fil0 {fill:#F6F6F7}
    .fil6 {fill:#BEBCBC}
    .fil12 {fill:#2CB833}
    .fil19 {fill:#333333}
    .fil14 {fill:#38F273}
    .fil5 {fill:#502621}
    .fil16 {fill:#6B231C}
    .fil13 {fill:#79ED8A}
    .fil17 {fill:#A30026}
    .fil10 {fill:#AB2B2C}
    .fil15 {fill:#B8272A}
    .fil8 {fill:#C4C5C5}
    .fil22 {fill:#CCCCCC}
    .fil11 {fill:#E6E647}
    .fil1 {fill:#EA645B}
    .fil9 {fill:#EBEBEB}
    .fil2 {fill:#F08678}
    .fil4 {fill:#FCD5A6}
    .fil3 {fill:#FEF5D6}
    .fil7 {fill:#FEFEFE}
    .fil20 {fill:#FFEC1B}
    .fil18 {fill:white}
    .fil21 {fill:#CCCCCC;fill-rule:nonzero}
   ]]>
  </style>
 </defs>
 <g id="Слой_x0020_1">
  <metadata id="CorelCorpID_0Corel-Layer"/>
  <rect class="fil0" x="141" y="55" width="120225" height="99938"/>
  <path class="fil1" d="M74922 50050l7515 264 6468 0 7250 -264 255 0c-773,-1037 -509,-5176 0,-6468l-255 0 -7505 -264 255 6732 -6468 0 0 -6732 -7515 264 0 6468z"/>
  <path class="fil1" d="M88417 21311l7251 -254 254 0 0 -6478 -7505 -254c519,2074 0,4921 0,6986l0 0z"/>
  <path class="fil1" d="M88650 64806l7505 -254 255 0c-509,-783 -255,-2329 -255,-3366 0,-1556 -254,-2329 519,-3112l-519 0 -7505 -255c519,1811 255,4922 0,6987l0 0z"/>
  <path class="fil2" d="M116352 93545l-1556 0 1556 0zm-19424 0l-773 0 773 0z"/>
  <path class="fil3" d="M27936 58074l0 -8024 0 8024zm0 14247l0 -7769 0 7769zm0 -28739l0 -7769 0 7769zm0 -29003l0 -6214 0 6214zm0 8542l0 -2064 0 2064zm0 63956l0 -2074 0 2074z"/>
  <path class="fil1" d="M27936 50050l0 -6468 0 6468zm0 14502l0 -6478 0 6478zm0 28993l0 -6468 0 6468zm0 -72488l0 -6478 0 6478zm0 14492l0 -2584 0 2584zm0 38582l0 -1555 0 1555z"/>
  <path class="fil1" d="M65088 65325l7505 -255 264 0c-264,-783 -264,-2329 -264,-3366 0,-1556 -255,-2329 518,-3111l-518 0 -7760 -255c509,1810 255,4912 255,6987l0 0 0 0z"/>
  <path class="fil2" d="M92789 94318l-1555 0 1555 0zm-19413 0l-783 0 783 0z"/>
  <path class="fil3" d="M3601 58593l0 -8024 0 8024zm0 14501l0 -8024 0 8024zm0 -29257l0 -7770 0 7770zm0 -29258l0 -6214 0 6214zm0 8807l0 -2075 0 2075zm0 64210l0 -2075 0 2075z"/>
  <path class="fil1" d="M3601 50569l0 -6732 0 6732zm0 14501l0 -6477 0 6477zm0 29248l0 -6722 0 6722zm0 -73007l0 -6732 0 6732zm0 14502l0 -2848 0 2848zm0 38837l0 -1302 0 1302z"/>
  <circle class="fil4" cx="27418" cy="24423" r="15529"/>
  <path class="fil5" d="M85539 41508c14756,0 26664,11390 26664,25627 0,14247 -11909,25891 -26664,25891 -14756,0 -26410,-11644 -26410,-25891 0,-14237 11654,-25627 26410,-25627z"/>
  <path class="fil6" d="M110138 36067l519 0 254 11400c0,254 265,509 519,509 254,0 519,-255 519,-509l0 -11400 773 0 264 11400c0,254 254,509 519,509 518,0 773,-255 773,-509l-255 -11400 519 0 509 11400c0,254 264,509 783,509 254,0 518,-255 518,-509l-264 -11400 519 0 782 14247c0,1028 -1037,2065 -2338,3102 -2065,2075 783,27966 1037,32624l0 254c-254,1810 -4658,1810 -5176,0l0 -254 264 0c254,-4658 3102,-30549 773,-32624 -1037,-1037 -2074,-2074 -2074,-3102l264 -14247 0 0 -1 0z"/>
  <path class="fil7" d="M84247 40216c14756,0 26410,11390 26410,25627 0,14238 -11654,25892 -26410,25892 -14756,0 -26665,-11654 -26665,-25892 0,-14237 11909,-25627 26665,-25627z"/>
  <path class="fil8" d="M84247 47721c10353,0 18641,8024 18641,18122 0,10098 -8288,18386 -18641,18386 -10353,0 -18905,-8288 -18905,-18386 0,-10098 8552,-18122 18905,-18122z"/>
  <path class="fil9" d="M95118 51087c4658,3366 7770,8807 7770,14756 0,10099 -8288,18387 -18641,18387 -2848,0 -5441,-783 -7770,-1820 -4921,-3367 -8023,-8797 -8023,-14756 0,-10099 8288,-18377 18640,-18377 2848,0 5695,773 8024,1810z"/>
  <path class="fil6" d="M57318 54972c-2329,2065 519,27956 1037,32624l0 254c-518,1810 -4657,1810 -5176,0l0 -254c255,-4668 3102,-30559 1037,-32624 -2593,-2329 -2847,-5176 -2847,-8542 0,-4922 1810,-8807 4393,-8807 2339,0 4404,3885 4404,8807 0,3366 -519,6213 -2848,8542l0 0z"/>
  <polygon class="fil10" points="99003,65070 76742,77497 75440,79308 80617,51606 80881,50314 100813,63769 "/>
  <polygon class="fil11" points="80617,51606 99776,64552 74667,80345 "/>
  <path class="fil7" d="M99257 64033l-2064 1292c-519,0 -1038,0 -1556,-255 -773,-783 -1037,-1555 -1037,-2329 -773,255 -1811,509 -2584,0 -782,-782 -1037,-1555 -782,-2338 -774,264 -1811,518 -2584,-255 -783,-518 -1301,-1291 -1037,-2074 -783,264 -1810,519 -2593,-254 -773,-265 -1037,-1292 -1037,-2075 -509,519 -1546,519 -2329,0 -773,-518 -1292,-1556 -1037,-2329 -255,0 -255,0 -509,264l509 -2074 18640 12427 0 0 0 0z"/>
  <polygon class="fil12" points="84247,71538 83983,65843 88386,66362 91234,66881 93827,68436 86576,72830 "/>
  <path class="fil13" d="M91752 68172c-1037,-1037 -2065,-2064 -3885,-2329 -1546,-254 -3102,0 -3366,773 0,783 1302,1556 2848,2075 1820,264 3111,0 4403,-519l0 0 0 0z"/>
  <path class="fil14" d="M85284 72321c519,-783 1037,-1820 773,-3112 0,-1291 -773,-2328 -1292,-2328 -518,254 -1037,1291 -782,2583 0,1301 518,2074 1301,2857l0 0z"/>
  <path class="fil15" d="M83210 62741c1555,0 2847,1028 2847,2584 0,1556 -1292,2847 -2847,2847 -1556,0 -2848,-1291 -2848,-2847 0,-1556 1292,-2584 2848,-2584z"/>
  <path class="fil15" d="M84247 41762c6986,0 13200,2593 17603,6996 4658,4404 7251,10353 7251,17085 0,6732 -2593,12692 -7251,17085 -4403,4403 -10616,7251 -17603,7251 -6987,0 -13200,-2848 -17604,-7251 -4667,-4393 -7250,-10353 -7250,-17085 0,-6732 2583,-12681 7250,-17085 4404,-4403 10617,-6996 17604,-6996zm16830 7770c-4403,-4140 -10362,-6733 -16830,-6733 -6478,0 -12427,2593 -16831,6733 -4139,4403 -6732,10098 -6732,16311 0,6478 2593,12173 6732,16312 4404,4139 10353,6732 16831,6732 6468,0 12427,-2593 16830,-6732 4139,-4139 6733,-9834 6733,-16312 0,-6213 -2594,-11908 -6733,-16311z"/>
  <path class="fil7" d="M82437 63250c518,0 1291,783 1291,1302 0,773 -773,1291 -1291,1291 -783,0 -1556,-518 -1556,-1291 0,-519 773,-1302 1556,-1302z"/>
  <path class="fil16" d="M20950 9667c-1820,1027 -519,0 -2329,1292l-783 518 -519 519c-254,0 -254,0 -518,254 -1292,1810 -2065,1810 -3366,4922 -519,519 -519,1292 -1028,1810 0,519 0,265 509,265l5186 -1038c3885,-1037 12682,-3366 14492,-6477l2329 2074c1556,1292 4149,3366 5959,4403l1037 519c773,254 255,254 519,0 -2075,-6214 -8024,-10363 -14238,-10363 -3884,-254 -4667,519 -7250,1302l0 0zm-1038 18376c-518,783 -518,1811 0,2848 1038,2074 5695,3111 7251,264 519,254 1810,2847 5695,1292 2583,-1038 2583,-3885 1810,-4404 -254,265 0,519 -254,1038 -1820,1291 -4149,-3366 -6996,-519 -519,-254 -2075,-1810 -4139,-254 -3112,2064 -3367,0 -3367,-265l0 0 0 0z"/>
  <polygon class="fil17" points="16282,3453 39072,3708 39072,12769 16282,12514 "/>
  <path class="fil18" d="M10587 42799l34434 0c2074,0 3630,1820 3630,3885l0 38573c0,2339 -1555,4149 -3630,4149l-34434 0c-2064,0 -3885,-1810 -3885,-4149l0 -38573c0,-2074 1820,-3885 3885,-3885l0 0z"/>
  <ellipse class="fil19" cx="35960" cy="53935" rx="1292" ry="1037"/>
  <ellipse class="fil19" cx="35960" cy="63250" rx="1292" ry="1037"/>
  <ellipse class="fil19" cx="35960" cy="73094" rx="1292" ry="1037"/>
  <ellipse class="fil19" cx="35960" cy="82928" rx="1292" ry="1037"/>
  <ellipse class="fil19" cx="18621" cy="53935" rx="1292" ry="1037"/>
  <ellipse class="fil19" cx="18621" cy="63250" rx="1292" ry="1037"/>
  <ellipse class="fil19" cx="18621" cy="73094" rx="1292" ry="1037"/>
  <ellipse class="fil19" cx="18621" cy="82928" rx="1292" ry="1037"/>
  <polygon class="fil20" points="39326,49532 47135,49532 47135,50265 39326,50265 "/>
  <polygon class="fil17" points="6703,85521 48651,85521 48651,94318 6703,94318 "/>
  <polygon class="fil19" points="68537,2935 98058,2935 98058,38396 68537,38406 "/>
  <polygon class="fil21" points="78319,17172 78319,23904 77536,23904 77536,19247 74689,23904 74434,23904 72624,18982 71068,23904 70550,23904 72360,17172 72624,17172 74689,22613 78055,17172 "/>
  <path id="_1" class="fil21" d="M84787 21575l-4403 0c0,519 0,1038 518,1546 264,265 783,519 1302,519 254,0 518,-254 1037,-254 254,-265 509,-519 509,-773l518 508 -773 783c-518,255 -1037,255 -1291,255 -1038,0 -1556,-255 -1820,-773 -509,-519 -773,-1038 -773,-1556 0,-519 264,-1037 518,-1556 255,-519 519,-773 1038,-1027 518,-265 1037,-519 1555,-519 519,0 1028,254 1546,773 519,264 783,1037 783,1556 0,254 0,254 -264,518l0 0 0 0zm-519 -518c0,-519 -254,-1037 -518,-1292 -255,-264 -773,-519 -1028,-519 -518,0 -1037,255 -1556,519 -264,255 -518,773 -782,1292l3884 0z"/>
  <path id="_2" class="fil21" d="M86597 18982l519 0 0 783c518,-783 1037,-1037 1820,-1037 518,0 1027,254 1291,519 255,254 519,773 519,1291l0 1038 -519 2328 -518 0 254 -2328 0 -1038c0,-264 0,-518 -254,-783 -255,-254 -519,-508 -773,-508 -519,0 -783,254 -1037,254l-783 773c0,264 -255,783 -255,1556l-264 2074 -773 0 773 -4922 0 0 0 0z"/>
  <path id="_3" class="fil21" d="M92811 18982l783 0 -519 2075 0 1291c0,265 0,519 254,774 265,264 519,518 1038,518 264,0 518,-254 782,-518 255,0 519,-255 519,-509 255,-265 255,-519 255,-1302l254 -2329 783 0 -264 1811c-255,1037 -255,1555 -519,2074 0,254 -254,773 -509,773 -519,264 -783,519 -1301,519 -519,0 -1038,-255 -1292,-519 -519,-519 -773,-773 -773,-1292 0,-254 254,-518 254,-773l0 -783 255 -1810 0 0z"/>
  <path class="fil22" d="M70031 13552l27105 0 0 802 -27105 0 0 -802zm0 12936l27105 0 0 812 -27105 0 0 -812z"/>
  <path class="fil17" d="M20686 49277l264 0 14237 -2593 -14237 4922 0 33651 -519 0 255 -35980zm-1292 -7251l12681 773 -12945 6478 1555 -4403 5441 -519 519 519 773 2074 6477 -264 -2593 -1810 -11654 -1292 -254 -1556 0 0z"/>
 </g>
</svg>
