<?xml version="1.0" encoding="UTF-8"?>
<!DOCTYPE svg PUBLIC "-//W3C//DTD SVG 1.1//EN" "http://www.w3.org/Graphics/SVG/1.1/DTD/svg11.dtd">
<!-- Creator: CorelDRAW X7 -->
<svg xmlns="http://www.w3.org/2000/svg" xml:space="preserve" width="118.533mm" height="94.8266mm" version="1.1" style="shape-rendering:geometricPrecision; text-rendering:geometricPrecision; image-rendering:optimizeQuality; fill-rule:evenodd; clip-rule:evenodd"
viewBox="0 0 11853 9483"
 xmlns:xlink="http://www.w3.org/1999/xlink">
 <defs>
  <style type="text/css">
   <![CDATA[
    .str0 {stroke:yellow;stroke-width:105.81}
    .str1 {stroke:black;stroke-width:62.5}
    .fil12 {fill:#FCD5A6}
    .fil6 {fill:#1A1A1A}
    .fil14 {fill:#1C1A17}
    .fil11 {fill:#333333}
    .fil13 {fill:#353432}
    .fil7 {fill:#4D4D4D}
    .fil1 {fill:#666666}
    .fil0 {fill:#719198}
    .fil2 {fill:#990000}
    .fil18 {fill:#C4C5C5}
    .fil16 {fill:#CB2527}
    .fil3 {fill:#CC0404}
    .fil8 {fill:#CCCCCC}
    .fil15 {fill:#CD2427}
    .fil17 {fill:#D2222A}
    .fil9 {fill:red}
    .fil5 {fill:#FFFF66}
    .fil4 {fill:#612222;fill-rule:nonzero}
    .fil10 {fill:#C4C5C5;fill-rule:nonzero}
   ]]>
  </style>
 </defs>
 <g id="Слой_x0020_1">
  <metadata id="CorelCorpID_0Corel-Layer"/>
  <polygon class="fil0" points="117,-3 11733,-3 11733,9469 117,9469 "/>
  <polygon class="fil1" points="197,8728 11680,8728 11680,9389 197,9389 "/>
  <path class="fil2" d="M5541 5077l2831 0c15,0 27,23 27,52l0 3202c0,29 -12,53 -27,53l-2831 0c-14,0 -26,-24 -26,-53l0 -3201c0,-30 12,-53 26,-53z"/>
  <path class="fil3" d="M5806 4547l2302 0c160,0 291,166 291,371l0 3439c0,205 -131,371 -291,371l-2302 0c-161,0 -291,-166 -291,-371l0 -3439c0,-205 130,-371 291,-371z"/>
  <path class="fil4" d="M11389 764l-10875 0 0 -767 10875 0 396 396 -396 371 0 0zm0 -767l396 0 0 396 -396 -396zm-371 8519l0 -8123 767 0 0 8123 -396 397 -371 -397 0 0zm767 0l0 397 -396 0 396 -397 0 0zm-11271 -370l10875 0 0 767 -10875 0 -370 -397 370 -370zm0 767l-370 0 0 -397 370 397zm371 -8520l0 8123 -741 0 0 -8123 370 -396 371 396zm-741 0l0 -396 370 0 -370 396z"/>
  <circle class="fil5 str0" cx="541" cy="1161" r="317"/>
  <circle class="fil5 str0" cx="541" cy="7775" r="317"/>
  <circle class="fil5 str0" cx="541" cy="3277" r="317"/>
  <circle class="fil5 str0" cx="541" cy="5659" r="317"/>
  <circle class="fil5 str0" cx="3081" cy="8569" r="317"/>
  <circle class="fil5 str0" cx="11441" cy="1161" r="317"/>
  <circle class="fil5 str0" cx="11441" cy="3013" r="317"/>
  <circle class="fil5 str0" cx="11441" cy="5526" r="317"/>
  <circle class="fil5 str0" cx="11441" cy="7775" r="317"/>
  <circle class="fil5 str0" cx="9404" cy="8569" r="317"/>
  <circle class="fil5 str0" cx="6097" cy="8569" r="317"/>
  <circle class="fil5 str0" cx="2552" cy="367" r="317"/>
  <circle class="fil5 str0" cx="6097" cy="367" r="317"/>
  <circle class="fil5 str0" cx="9404" cy="367" r="317"/>
  <circle class="fil5 str0" cx="2657" cy="8569" r="317"/>
  <polygon class="fil6" points="2710,7564 3978,7564 3978,9135 2710,9135 "/>
  <polygon class="fil7" points="2446,7246 4268,7246 4268,8121 2446,8121 "/>
  <polygon class="fil8" points="2737,6003 3952,6003 3952,7243 2737,7243 "/>
  <polygon class="fil9" points="2922,5050 3769,4521 3769,6003 2922,6003 "/>
  <polygon class="fil3" points="3134,5288 3769,4865 3769,6003 3107,6003 "/>
  <path class="fil10" d="M6441 5553l-291 0 -27 -27 0 -105 -26 0 0 -27 -27 -26 0 -27 -26 0 0 -26 -26 0 0 -27 -27 0 -26 -26 -27 0 0 -27 -79 0 0 -26 -53 0 0 -291 106 0 53 26 53 0 26 27 26 0 27 26 26 0 27 27 26 26 27 0 26 27 0 26 27 27 26 26 27 26 0 27 26 26 27 27 0 26 26 27 0 53 26 26 0 106 27 26 0 27 0 0zm-635 661l0 -291 26 -26 106 0 0 -27 27 0 26 -26 27 0 0 -27 26 0 0 -26 26 0 0 -26 27 -27 0 -26 26 -27 0 -79 27 -27 0 -26 291 0 0 53 -27 26 0 106 -26 27 0 52 -26 27 0 26 -27 27 -26 26 0 27 -27 26 -26 27 -27 26 0 27 -26 0 -27 26 -26 26 -27 27 -26 0 -27 26 -26 0 -26 27 -53 0 -53 26 -106 0zm-662 -661l318 0 0 132 26 0 0 53 27 27 0 26 26 0 0 26 27 0 0 27 26 0 27 26 26 0 0 27 106 0 26 26 27 0 0 291 -132 0 -27 -26 -79 0 -27 -27 -26 0 -27 -26 -26 0 -27 -27 -26 -26 -26 -26 -27 0 0 -27 -26 -26 -27 -27 -26 -26 0 -27 -27 -26 -26 -27 0 -26 -27 -27 0 -53 -26 -26 0 -132 -27 -53 0 0zm662 -635l0 291 -53 0 -26 26 -80 0 0 27 -26 0 -27 26 -26 0 0 27 -27 0 0 26 -26 0 0 27 -27 26 0 27 -26 26 0 106 -318 0 27 -27 0 -132 26 -26 0 -53 27 -27 0 -26 26 -27 27 -26 0 -27 26 -26 27 -27 26 -26 0 -26 27 -27 26 0 26 -26 27 -27 26 0 27 -26 26 0 27 -27 79 0 27 -26 132 0z"/>
  <ellipse class="fil3 str1" cx="8928" cy="7961" rx="952" ry="979"/>
  <ellipse class="fil2" transform="matrix(0.32823 -0.28935 0.2773 0.3425 9222.57 8341.02)" rx="1614" ry="1085"/>
  <polygon class="fil7" points="8531,6267 9215,6267 9215,7038 8531,7038 "/>
  <polygon class="fil11" points="8875,6267 9217,6267 9217,7038 8875,7038 "/>
  <ellipse class="fil8" cx="8902" cy="6029" rx="265" ry="238"/>
  <polygon class="fil8" points="9060,5976 9578,5976 9578,6117 9060,6117 "/>
  <ellipse class="fil7" cx="10092" cy="6082" rx="582" ry="317"/>
  <ellipse class="fil11" cx="10145" cy="6161" rx="503" ry="212"/>
  <path class="fil12" d="M5938 2695c-26,106 -53,159 -53,265l0 291c106,0 159,26 185,106 27,106 -52,132 -79,185l53 106 -423 0c-27,0 -27,0 -27,-27l0 -846c-26,53 -26,767 0,899l476 0c106,133 186,238 344,344 344,185 741,185 1085,0 238,-158 291,-317 371,-370 0,-27 53,-80 53,-132 -27,-80 -53,-80 -27,-186 53,-53 53,-53 106,-79 0,-106 26,-185 26,-291 0,-53 -53,-185 -53,-238 0,-27 -52,-185 -105,-265 -53,-79 -159,-211 -186,-238l0 318 -1402 0 0 -344c-132,105 -212,211 -291,344 -26,53 -53,132 -53,158z"/>
  <path class="fil13" d="M5859 2060c0,53 0,27 -53,80 -106,185 -212,423 -212,635l0 846c27,-26 27,-79 53,-132l185 -582c0,-26 27,-53 53,-106l27 -79c0,-27 0,0 26,-27 0,-26 27,-105 53,-158 79,-133 159,-239 291,-344l0 344 1402 0 0 -318c27,27 133,159 186,238 53,80 105,238 105,265l27 -27c53,133 106,318 159,450 26,80 132,450 158,476l0 -555 0 -291c-26,-80 -52,-185 -52,-238 -27,-27 -106,-397 -371,-635 -185,-133 -344,-265 -635,-344 -291,-53 -608,-27 -847,79 -370,159 -502,397 -555,423l0 0z"/>
  <path class="fil14" d="M5594 3621c0,27 0,27 27,27l423 0 -53 -106c-53,0 -79,0 -132,-26 -27,-27 -53,-53 -53,-80 -27,-106 26,-159 79,-185l0 -291c0,-106 27,-159 53,-265 -26,27 -26,0 -26,27l-27 79c-26,53 -53,80 -53,106l-185 582c-26,53 -26,106 -53,132l0 0zm2381 -899c0,53 53,185 53,238 0,106 -26,185 -26,291 79,26 132,26 159,106 26,106 -27,132 -106,185 -80,0 -53,-26 -132,-26 0,52 -53,105 -53,132l449 0 0 -27c-26,-26 -132,-396 -158,-476 -53,-132 -106,-317 -159,-450l-27 27z"/>
  <path class="fil15" d="M5991 3542c27,-53 106,-79 79,-185 -26,-80 -79,-106 -185,-106 -53,26 -106,79 -79,185 0,27 26,53 53,80 53,26 79,26 132,26l0 0z"/>
  <path class="fil16" d="M7896 3330c27,0 27,0 27,27l0 53c26,26 0,0 26,53l0 -27c0,-53 -26,-53 0,-79l0 26 26 27 0 -27c0,-53 0,-26 -26,-53l26 -26 27 53 -27 79 27 0 0 27c26,-27 26,-53 26,-80 0,53 0,53 27,106l0 53c79,-53 132,-79 106,-185 -27,-80 -80,-80 -159,-106 -53,26 -53,26 -106,79z"/>
  <path class="fil17" d="M7923 3516c79,0 52,26 132,26l0 -26 0 -27c-27,-53 -27,-53 -27,-106 0,27 0,53 -26,80l0 -27 -27 0 27 -79 -27 -53 -26 26c26,27 26,0 26,53l0 27 -26 -27 0 -26c-26,26 0,26 0,79l0 27c-26,-53 0,-27 -26,-53l0 -53c0,-27 0,-27 -27,-27 -26,106 0,106 27,186l0 0z"/>
  <polygon class="fil18" points="4827,6479 5462,6479 5144,8913 5039,8913 "/>
  <path class="fil18" d="M5197 5738l247 0 0 840 -247 0 0 -840zm-370 53l240 0 0 785 -240 0 0 -785z"/>
  <path class="fil10" d="M5144 5553l-291 0 0 -80 -26 -26 0 -53 -27 0 0 -26 -26 -27 -26 -26 -27 -27 -26 0 0 -26 -27 0 -26 -27 -53 0 -27 -26 -53 0 0 -291 133 0 26 26 53 0 27 27 26 0 53 26 26 0 0 27 27 26 26 0 27 27 26 26 27 27 26 26 0 26 27 27 26 26 0 27 27 26 0 27 26 26 0 53 26 27 0 132 0 0zm-635 661l0 -291 27 0 0 -26 106 0 26 -27 27 0 0 -26 26 0 27 -27 26 -26 26 -26 0 -27 27 0 0 -53 26 -26 0 -106 291 0 0 132 -26 53 0 53 -26 26 0 27 -27 26 0 27 -26 26 -27 27 0 26 -26 27 -27 26 -26 27 -27 0 -26 26 -27 26 0 27 -26 0 -53 26 -26 0 -27 27 -53 0 -26 26 -133 0zm-635 -661l291 0 0 79 27 27 0 53 26 26 0 27 27 0 0 26 26 26 27 27 26 0 0 26 27 0 26 27 106 0 0 26 26 0 0 291 -132 0 -26 -26 -53 0 -27 -27 -26 0 -27 -26 -26 0 -27 -27 -26 -26 -26 -26 -27 0 -26 -27 -27 -26 0 -27 -26 -26 -27 -27 0 -26 -26 -27 -27 -26 0 -53 -26 -27 0 -79 -27 -26 0 -106 0 0zm635 -635l0 291 -52 0 -27 26 -53 0 -26 27 -27 0 0 26 -26 0 -27 27 -26 26 0 27 -27 0 0 26 -26 27 0 52 -27 27 0 53 -291 0 0 -80 27 -52 0 -53 26 -27 0 -53 27 -26 26 -27 0 -26 27 -27 26 -26 0 -27 27 -26 26 -26 27 -27 26 0 26 -26 27 -27 26 0 27 -26 26 0 27 -27 53 0 26 -26 132 0z"/>
  <circle class="fil7 str1" cx="5144" cy="6823" r="79"/>
 </g>
</svg>
