<?xml version="1.0" encoding="UTF-8"?>
<!DOCTYPE svg PUBLIC "-//W3C//DTD SVG 1.1//EN" "http://www.w3.org/Graphics/SVG/1.1/DTD/svg11.dtd">
<!-- Creator: CorelDRAW X7 -->
<svg xmlns="http://www.w3.org/2000/svg" xml:space="preserve" width="1200mm" height="1000mm" version="1.1" style="shape-rendering:geometricPrecision; text-rendering:geometricPrecision; image-rendering:optimizeQuality; fill-rule:evenodd; clip-rule:evenodd"
viewBox="0 0 120000 100000"
 xmlns:xlink="http://www.w3.org/1999/xlink">
 <defs>
  <style type="text/css">
   <![CDATA[
    .str2 {stroke:#A30026;stroke-width:75}
    .str0 {stroke:yellow;stroke-width:105.81}
    .str3 {stroke:black;stroke-width:62.5}
    .str1 {stroke:#FCD5A6;stroke-width:7.62}
    .fil10 {fill:#1A1A1A}
    .fil3 {fill:#1C1A17}
    .fil13 {fill:#333333}
    .fil8 {fill:#353432}
    .fil15 {fill:#423A3A}
    .fil11 {fill:#4D4D4D}
    .fil9 {fill:#666666}
    .fil5 {fill:#A30026}
    .fil0 {fill:#A6A1A1}
    .fil4 {fill:#B71753}
    .fil12 {fill:#CCCCCC}
    .fil14 {fill:#DEDEDE}
    .fil7 {fill:#FCD5A6}
    .fil2 {fill:#FFFF66}
    .fil1 {fill:#423A3A;fill-rule:nonzero}
    .fil6 {fill:#DEDEDE;fill-rule:nonzero}
   ]]>
  </style>
 </defs>
 <g id="Слой_x0020_1">
  <metadata id="CorelCorpID_0Corel-Layer"/>
  <g id="_429607736">
   <polygon class="fil0" points="10,88 119412,88 119412,97351 10,97351 "/>
   <path class="fil1" d="M115876 7964l-111785 0 0 -7876 111785 0 4071 4066 -4071 3810 0 0 0 0zm0 -7876l4071 0 0 4066 -4071 -4066zm-3813 87477l0 -83411 7884 0 0 83411 -4071 4076 -3814 -4076 0 0 1 0zm7884 0l0 4076 -4071 0 4071 -4076 0 0zm-115856 -3799l111785 0 0 7875 -111785 0 -3803 -4076 3803 -3800 0 1zm0 7875l-3803 0 0 -4076 3803 4076zm3814 -87487l0 83411 -7617 0 0 -83411 3803 -4066 3814 4066 0 0zm-7617 0l0 -4066 3803 0 -3803 4066z"/>
   <ellipse class="fil2 str0" cx="25040" cy="4011" rx="3258" ry="3255"/>
   <ellipse class="fil2 str0" cx="61479" cy="4011" rx="3258" ry="3255"/>
   <ellipse class="fil2 str0" cx="95472" cy="4011" rx="3258" ry="3255"/>
   <path class="fil3" d="M46465 37301c0,277 0,277 278,277l4348 0 -545 -1088c-545,0 -812,0 -1357,-267 -277,-278 -545,-545 -545,-822 -277,-1088 268,-1633 812,-1900l0 -2988c0,-1088 278,-1632 545,-2721 -267,277 -267,0 -267,277l-278 812c-267,544 -544,821 -544,1088l-1902 5976c-267,545 -267,1089 -545,1356l0 0 0 0zm24475 -9232c0,545 545,1900 545,2444 0,1089 -268,1900 -268,2988 813,267 1357,267 1635,1089 267,1088 -278,1355 -1090,1900 -822,0 -545,-267 -1357,-267 0,534 -545,1078 -545,1355l4616 0 0 -277c-268,-267 -1357,-4067 -1624,-4888 -545,-1355 -1090,-3255 -1635,-4621l-277 278 0 -1z"/>
   <polygon class="fil4" points="16354,51974 25060,46542 25060,61760 16354,61760 "/>
   <polygon class="fil5" points="18510,54418 25037,50075 25037,61760 18233,61760 "/>
   <path class="fil6" d="M40843 57139l-2991 0 0 -821 -268 -267 0 -544 -277 0 0 -267 -268 -278 -267 -267 -277 -277 -268 0 0 -267 -277 0 -267 -277 -545 0 -278 -267 -545 0 0 -2988 1368 0 267 267 545 0 277 277 267 0 545 267 268 0 0 277 277 267 267 0 278 278 267 267 278 277 267 267 0 267 278 277 267 267 0 277 277 267 0 278 268 267 0 544 267 277 0 1356 0 0 0 -1zm-6527 6788l0 -2988 277 0 0 -267 1090 0 267 -277 278 0 0 -267 267 0 277 -278 268 -267 267 -267 0 -277 277 0 0 -544 268 -267 0 -1089 2991 0 0 1356 -267 544 0 544 -268 267 0 278 -277 267 0 277 -267 267 -278 277 0 267 -267 277 -278 267 -267 278 -278 0 -267 267 -277 267 0 277 -268 0 -545 267 -267 0 -277 277 -545 0 -267 267 -1368 0 1 0zm-6528 -6788l2991 0 0 812 278 277 0 544 267 267 0 277 278 0 0 267 267 267 278 278 267 0 0 267 277 0 268 277 1089 0 0 267 268 0 0 2988 -1357 0 -268 -267 -544 0 -278 -277 -267 0 -278 -267 -267 0 -278 -277 -267 -267 -267 -267 -278 0 -267 -278 -277 -267 0 -277 -268 -267 -277 -277 0 -267 -267 -277 -278 -267 0 -545 -267 -277 0 -811 -278 -267 0 -1089 0 0 0 0zm6528 -6520l0 2988 -535 0 -278 267 -544 0 -268 277 -277 0 0 267 -267 0 -278 278 -267 267 0 277 -278 0 0 267 -267 277 0 534 -278 277 0 545 -2991 0 0 -822 278 -534 0 -544 267 -277 0 -545 278 -267 267 -277 0 -267 277 -277 268 -267 0 -277 277 -267 267 -267 278 -278 267 0 267 -267 278 -277 267 0 278 -267 267 0 278 -277 544 0 268 -267 1357 0 0 0z"/>
   <path class="fil5" d="M49241 46809l23662 0c1645,0 2991,1705 2991,3810l0 35313c0,2105 -1346,3810 -2991,3810l-23662 0c-1655,0 -2992,-1705 -2992,-3810l0 -35313c0,-2105 1337,-3810 2992,-3810z"/>
   <path class="fil6" d="M54512 57139l-2991 0 -278 -277 0 -1078 -267 0 0 -277 -277 -267 0 -278 -268 0 0 -267 -267 0 0 -277 -278 0 -267 -267 -277 0 0 -277 -812 0 0 -267 -545 0 0 -2988 1089 0 545 267 545 0 267 277 268 0 277 267 267 0 278 277 267 267 278 0 267 278 0 267 277 277 268 267 277 267 0 277 268 267 277 277 0 267 267 278 0 544 268 267 0 1088 277 267 0 278 0 0 0 -1zm-6527 6788l0 -2988 267 -267 1090 0 0 -277 277 0 268 -267 277 0 0 -278 267 0 0 -267 268 0 0 -267 277 -277 0 -267 267 -277 0 -811 278 -278 0 -267 2991 0 0 545 -277 267 0 1088 -268 277 0 534 -267 278 0 267 -277 277 -268 267 0 277 -277 267 -268 277 -277 267 0 278 -267 0 -278 267 -267 267 -278 277 -267 0 -277 267 -268 0 -267 277 -545 0 -545 267 -1089 0 0 0zm-6805 -6788l3269 0 0 1356 267 0 0 544 278 277 0 267 267 0 0 267 278 0 0 278 267 0 277 267 268 0 0 277 1089 0 267 267 278 0 0 2988 -1357 0 -277 -267 -812 0 -278 -277 -267 0 -278 -267 -267 0 -278 -277 -267 -267 -267 -267 -278 0 0 -278 -267 -267 -278 -277 -267 -267 0 -277 -277 -267 -268 -277 0 -267 -277 -278 0 -544 -267 -267 0 -1355 -278 -545 0 0 0 0zm6805 -6520l0 2988 -545 0 -267 267 -823 0 0 277 -267 0 -277 267 -268 0 0 278 -277 0 0 267 -267 0 0 277 -278 267 0 277 -267 267 0 1089 -3269 0 277 -278 0 -1355 268 -267 0 -544 277 -278 0 -267 268 -277 277 -267 0 -277 267 -267 278 -277 267 -267 0 -267 278 -278 267 0 267 -267 278 -277 267 0 278 -267 267 0 277 -277 813 0 277 -267 1357 0 0 0z"/>
   <ellipse class="fil7 str1" cx="60519" cy="31458" rx="11250" ry="11239"/>
   <path class="fil8" d="M49189 21272c0,544 0,277 -545,821 -1089,1900 -2179,4344 -2179,6521l0 8687c278,-267 278,-811 545,-1356l1902 -5976c0,-267 277,-544 545,-1088l277 -812c0,-277 0,0 267,-277 0,-267 278,-1078 545,-1622 812,-1366 1634,-2454 2991,-3533l0 3533 14412 0 0 -3266c277,278 1367,1633 1912,2444 544,822 1079,2444 1079,2721l277 -277c545,1366 1090,3266 1635,4621 267,821 1357,4621 1624,4888l0 -5699 0 -2988c-267,-822 -535,-1900 -535,-2444 -277,-278 -1089,-4077 -3813,-6521 -1902,-1366 -3536,-2721 -6528,-3532 -2991,-544 -6249,-277 -8706,811 -3803,1633 -5160,4077 -5705,4344l0 0 0 0z"/>
   <ellipse class="fil5 str2" cx="49832" cy="34976" rx="1292" ry="1291"/>
   <ellipse class="fil5 str2" cx="71470" cy="34976" rx="1292" ry="1291"/>
  </g>
  <polygon class="fil9" points="19,89742 119972,89742 119972,99893 19,99893 "/>
  <circle class="fil2 str0" cx="4488" cy="79956" r="3255"/>
  <circle class="fil2 str0" cx="4488" cy="58228" r="3255"/>
  <circle class="fil2 str0" cx="30094" cy="86804" r="2938"/>
  <circle class="fil2 str0" cx="116414" cy="12040" r="3255"/>
  <circle class="fil2 str0" cx="116414" cy="31058" r="3255"/>
  <circle class="fil2 str0" cx="116414" cy="56862" r="3255"/>
  <circle class="fil2 str0" cx="116414" cy="79956" r="3255"/>
  <circle class="fil2 str0" cx="98592" cy="86633" r="3058"/>
  <polygon class="fil10" points="14284,77789 27305,77789 27305,93921 14284,93921 "/>
  <polygon class="fil11" points="11573,74524 30282,74524 30282,83509 11573,83509 "/>
  <polygon class="fil12" points="14561,61760 27038,61760 27038,74493 14561,74493 "/>
  <ellipse class="fil4" cx="90610" cy="81866" rx="9776" ry="10053"/>
  <ellipse class="fil5" transform="matrix(3.37053 -2.97128 2.84754 3.51707 93634.4 85768.1)" rx="1614" ry="1085"/>
  <polygon class="fil11" points="86533,64471 93557,64471 93557,72388 86533,72388 "/>
  <polygon class="fil13" points="90065,64471 93577,64471 93577,72388 90065,72388 "/>
  <ellipse class="fil12" cx="90343" cy="62027" rx="2721" ry="2444"/>
  <polygon class="fil12" points="91965,61483 97284,61483 97284,62931 91965,62931 "/>
  <ellipse class="fil11" cx="102562" cy="62571" rx="5976" ry="3255"/>
  <ellipse class="fil13" cx="103106" cy="63383" rx="5165" ry="2177"/>
  <polygon class="fil14" points="37669,66648 44190,66648 40925,91641 39846,91641 "/>
  <path class="fil14" d="M41469 59039l2536 0 0 8626 -2536 0 0 -8626zm-3800 544l2465 0 0 8061 -2465 0 0 -8061z"/>
  <circle class="fil11 str3" cx="40925" cy="70180" r="811"/>
  <circle class="fil2 str0" cx="4488" cy="12040" r="3255"/>
  <circle class="fil2 str0" cx="4488" cy="33768" r="3255"/>
  <rect class="fil15" x="45651" y="83766" width="30244" height="5976"/>
 </g>
</svg>
