<svg xmlns="http://www.w3.org/2000/svg" width="450" height="360" viewBox="0 0 450 360" shape-rendering="geometricPrecision" text-rendering="geometricPrecision" image-rendering="optimizeQuality" fill-rule="evenodd" clip-rule="evenodd"><defs><style>.str0{stroke:#ff0;stroke-width:3.99921}.str1{stroke:#000;stroke-width:2.3622}.fil6{fill:#1a1a1a}.fil17{fill:#1c1a17}.fil14,.fil12{fill:#333}.fil16{fill:#353432}.fil7{fill:#4d4d4d}.fil1{fill:#666}.fil0{fill:#719198}.fil2,.fil11{fill:#900}.fil21{fill:#c4c5c5}.fil15{fill:#c4c6c5}.fil19{fill:#cb2527}.fil3{fill:#cc0404}.fil13,.fil8{fill:#CCC}.fil18{fill:#cd2427}.fil20{fill:#d2222a}.fil9{fill:red}.fil5{fill:#FF6}.fil4{fill:#612222}.fil4,.fil10{fill-rule:nonzero}.fil10{fill:#c4c5c5}</style></defs><g id="Слой_x0020_1"><path class="fil0" d="M5-1h439v358H5z"/><path class="fil1" d="M8 329h433.998v25H8z"/><rect class="fil2" x="209" y="191" width="109" height="125" rx="1" ry="2"/><rect class="fil3" x="209" y="171" width="109" height="158" rx="11" ry="14"/><path class="fil4" d="M431 28H20V-1h411l15 15-15 14zm0-29h15v15L431-1zm-14 322V14h29v307l-15 15-14-15zm29 0v15h-15l15-15zM20 307h411v29H20L6 321l14-14zm0 29H6v-15l14 15zM34 14v307H6V14L20-1l14 15zM6 14V-1h14L6 14z"/><circle class="fil5 str0" cx="21" cy="43" r="12"/><circle class="fil5 str0" cx="21" cy="293" r="12"/><circle class="fil5 str0" cx="21" cy="123" r="12"/><circle class="fil5 str0" cx="21" cy="213" r="12"/><circle class="fil5 str0" cx="117" cy="323" r="12"/><circle class="fil5 str0" cx="433" cy="43" r="12"/><circle class="fil5 str0" cx="433" cy="113" r="12"/><circle class="fil5 str0" cx="433" cy="208" r="12"/><circle class="fil5 str0" cx="433" cy="293" r="12"/><circle class="fil5 str0" cx="356" cy="323" r="12"/><circle class="fil5 str0" cx="231" cy="323" r="12"/><circle class="fil5 str0" cx="97" cy="13" r="12"/><circle class="fil5 str0" cx="231" cy="13" r="12"/><circle class="fil5 str0" cx="356" cy="13" r="12"/><circle class="fil5 str0" cx="101" cy="323" r="12"/><path class="fil6" d="M103 285h47.917v59.375H103z"/><path class="fil7" d="M93 273h68.886v33.072H93z"/><path class="fil8" d="M104 226h45.92v46.876H104z"/><path class="fil9" d="M111 190l32-20v56h-32z"/><path class="fil3" d="M119 199l24-16v43h-25z"/><path class="fil10" d="M244 209h-11l-1-1v-4h-1v-1l-1-1v-1h-1v-1h-1v-1h-1l-1-1h-1v-1h-3v-1h-2v-11h4l2 1h2l1 1h1l1 1h1l1 1 1 1h1l1 1v1l1 1 1 1 1 1v1l1 1 1 1v1l1 1v2l1 1v4l1 1v1zm-24 25v-11l1-1h4v-1h1l1-1h1v-1h1v-1h1v-1l1-1v-1l1-1v-3l1-1v-1h11v2l-1 1v4l-1 1v2l-1 1v1l-1 1-1 1v1l-1 1-1 1-1 1v1h-1l-1 1-1 1-1 1h-1l-1 1h-1l-1 1h-2l-2 1h-4zm-25-25h12v5h1v2l1 1v1h1v1h1v1h1l1 1h1v1h4l1 1h1v11h-5l-1-1h-3l-1-1h-1l-1-1h-1l-1-1-1-1-1-1h-1v-1l-1-1-1-1-1-1v-1l-1-1-1-1v-1l-1-1v-2l-1-1v-5l-1-2zm25-24v11h-2l-1 1h-3v1h-1l-1 1h-1v1h-1v1h-1v1l-1 1v1l-1 1v4h-12l1-1v-5l1-1v-2l1-1v-1l1-1 1-1v-1l1-1 1-1 1-1v-1l1-1h1l1-1 1-1h1l1-1h1l1-1h3l1-1h5z"/><ellipse class="fil3 str1" cx="338" cy="300" rx="36" ry="37"/><ellipse class="fil11" transform="matrix(.32823 -.28935 .2773 .3425 349.135 314.38)" rx="61" ry="41"/><path class="fil7" d="M323 236h25.854v29.14H323z"/><path class="fil12" d="M336 236h12.926v29.14H336z"/><ellipse class="fil13" cx="337" cy="227" rx="10" ry="9"/><path class="fil13" d="M343 225h19.553v5.318H343z"/><ellipse class="fil7" cx="382" cy="229" rx="22" ry="12"/><ellipse class="fil14" cx="384" cy="232" rx="19" ry="8"/><path class="fil15" d="M225 101c-1 4-2 6-2 10v11c4 0 6 1 7 4 1 4-2 5-3 7l2 4h-16c-1 0-1 0-1-1v-32c-1 2-1 29 0 34h18c4 5 7 9 13 13 13 7 28 7 41 0 9-6 11-12 14-14 0-1 2-3 2-5-1-3-2-3-1-7 2-2 2-2 4-3 0-4 1-7 1-11 0-2-2-7-2-9 0-1-2-7-4-10s-6-8-7-9v12h-53V82c-5 4-8 8-11 13-1 2-2 5-2 6z"/><path class="fil16" d="M222 77c0 2 0 1-2 3-4 7-8 16-8 24v32c1-1 1-3 2-5l7-22c0-1 1-2 2-4l1-3c0-1 0 0 1-1 0-1 1-4 2-6 3-5 6-9 11-13v13h53V83c1 1 5 6 7 9s4 9 4 10l1-1c2 5 4 12 6 17 1 3 5 17 6 18v-21-11c-1-3-2-7-2-9-1-1-4-15-14-24-7-5-13-10-24-13-11-2-23-1-32 3-14 6-19 15-21 16z"/><path class="fil17" d="M212 136c0 1 0 1 1 1h16l-2-4c-2 0-3 0-5-1-1-1-2-2-2-3-1-4 1-6 3-7v-11c0-4 1-6 2-10-1 1-1 0-1 1l-1 3c-1 2-2 3-2 4l-7 22c-1 2-1 4-2 5zM302 102c0 2 2 7 2 9 0 4-1 7-1 11 3 1 5 1 6 4 1 4-1 5-4 7-3 0-2-1-5-1 0 2-2 4-2 5h17v-1c-1-1-5-15-6-18-2-5-4-12-6-17l-1 1z"/><path class="fil18" d="M227 133c1-2 4-3 3-7-1-3-3-4-7-4-2 1-4 3-3 7 0 1 1 2 2 3 2 1 3 1 5 1z"/><path class="fil19" d="M299 125c1 0 1 0 1 1v2c1 1 0 0 1 2v-1c0-2-1-2 0-3v1l1 1v-1c0-2 0-1-1-2l1-1 1 2-1 3h1v1c1-1 1-2 1-3 0 2 0 2 1 4v2c3-2 5-3 4-7-1-3-3-3-6-4-2 1-2 1-4 3z"/><path class="fil20" d="M300 132c3 0 2 1 5 1v-1-1c-1-2-1-2-1-4 0 1 0 2-1 3v-1h-1l1-3-1-2-1 1c1 1 1 0 1 2v1l-1-1v-1c-1 1 0 1 0 3v1c-1-2 0-1-1-2v-2c0-1 0-1-1-1-1 4 0 4 1 7z"/><path class="fil21" d="M183 244h24l-12 92h-4z"/><path class="fil21" d="M197 216h9.326v31.745H197zM183 218h9.088v29.668H183z"/><path class="fil10" d="M195 209h-11v-3l-1-1v-2h-1v-1l-1-1-1-1-1-1h-1v-1h-1l-1-1h-2l-1-1h-2v-11h5l1 1h2l1 1h1l2 1h1v1l1 1h1l1 1 1 1 1 1 1 1v1l1 1 1 1v1l1 1v1l1 1v2l1 1v5zm-24 25v-11h1v-1h4l1-1h1v-1h1l1-1 1-1 1-1v-1h1v-2l1-1v-4h11v5l-1 2v2l-1 1v1l-1 1v1l-1 1-1 1v1l-1 1-1 1-1 1h-1l-1 1-1 1v1h-1l-2 1h-1l-1 1h-2l-1 1h-5zm-24-25h11v3l1 1v2l1 1v1h1v1l1 1 1 1h1v1h1l1 1h4v1h1v11h-5l-1-1h-2l-1-1h-1l-1-1h-1l-1-1-1-1-1-1h-1l-1-1-1-1v-1l-1-1-1-1v-1l-1-1-1-1v-2l-1-1v-3l-1-1v-4zm24-24v11h-2l-1 1h-2l-1 1h-1v1h-1l-1 1-1 1v1h-1v1l-1 1v2l-1 1v2h-11v-3l1-2v-2l1-1v-2l1-1 1-1v-1l1-1 1-1v-1l1-1 1-1 1-1h1l1-1 1-1h1l1-1h1l1-1h2l1-1h5z"/><circle class="fil7 str1" cx="195" cy="257" r="3"/></g></svg>