<svg xmlns="http://www.w3.org/2000/svg" width="450" height="360" viewBox="0 0 450 360" shape-rendering="geometricPrecision" text-rendering="geometricPrecision" image-rendering="optimizeQuality" fill-rule="evenodd" clip-rule="evenodd"><defs><style>.str3{stroke-width:4.99961}.str3,.str4{stroke:#000;stroke-opacity:.921569}.str4{stroke-width:1.99961}.str1{stroke:#000;stroke-width:2.3622}.str1,.str2{stroke-opacity:.921569}.str2{stroke:#666;stroke-width:2.99882}.str6{stroke:#CCC;stroke-width:4.00039}.str5{stroke:#ff0;stroke-width:4.99961}.str8{stroke:#000}.str8,.str0{stroke-width:2.3622}.str0{stroke:#633}.str7{stroke:#000;stroke-width:.9}.fil23,.fil7{fill:none}.fil24{fill:#000}.fil0{fill:#633}.fil13{fill:#CCF}.fil22{fill:red}.fil27{fill:#000;fill-rule:nonzero}.fil25{fill:#ff0;fill-opacity:.14902}.fil26{fill:#ff0;fill-opacity:.168627}.fil21{fill:#fff;fill-opacity:.458824}.fil11{fill:#000;fill-opacity:.921569}.fil2{fill:#1a1a1a}.fil2,.fil3{fill-opacity:.921569}.fil3{fill:#333}.fil1,.fil6{fill:#4d4d4d;fill-opacity:.921569}.fil17{fill:#69F}.fil17,.fil9{fill-opacity:.921569}.fil9{fill:gray}.fil19{fill:#900}.fil19,.fil16{fill-opacity:.921569}.fil16{fill:#9CC}.fil18{fill:#9F0}.fil18,.fil5{fill-opacity:.921569}.fil5{fill:#CC3}.fil20,.fil4{fill:#CCF;fill-opacity:.921569}.fil8,.fil10{fill:red;fill-opacity:.921569}.fil14{fill:#fff}.fil14,.fil15{fill-opacity:.921569}.fil15{fill:#000;fill-rule:nonzero}.fil12{fill:red}</style><mask id="id0"><linearGradient id="id1" gradientUnits="userSpaceOnUse" x1="94.957" y1="144.222" x2="376.866" y2="144.222"><stop offset="0" stop-opacity="0" stop-color="#fff"/><stop offset="1" stop-color="#fff"/></linearGradient><path fill="url(#id1)" d="M95 141h281.91v7.032H95z"/></mask></defs><g id="Слой_x0020_1"><path class="fil0 str0" d="M198 49h57.442v4.956H198z"/><path class="fil1" d="M79 195l308 4 55 84-1 71H5v-62z"/><path class="fil2 str1" d="M349 208h27c5 0 8 3 8 8v52c0 4-3 8-8 8h-27c-4 0-7-4-7-8v-52c0-5 3-8 7-8zM93 208h27c4 0 8 3 8 8v52c0 4-4 8-8 8H93c-4 0-8-4-8-8v-52c0-5 4-8 8-8z"/><path class="fil3" d="M87 154h296v58H87z"/><path class="fil2" d="M89 160h91v40H89z"/><path class="fil4 str2" d="M111 163c11 0 19 8 19 17s-8 17-19 17-19-8-19-17 8-17 19-17z"/><path class="fil5 str2" d="M156 163c10 0 19 8 19 17s-9 17-19 17c-11 0-19-8-19-17s8-17 19-17z"/><path class="fil2" d="M290 159h91v40h-91z"/><path class="fil4 str2" d="M356 163c11 0 19 7 19 17 0 9-8 16-19 16-10 0-19-7-19-16 0-10 9-17 19-17z"/><path class="fil6 str1" d="M180 160h110v39H180z"/><path class="fil7 str3" d="M180 163h110v4H180zM180 170h110v4H180zM180 177h110v5H180zM180 185h110v4H180zM180 192h110v4H180z"/><path class="fil8 str1" d="M229 171h13v14h-13z"/><path class="fil9" d="M79 211h311v13H79z"/><path class="fil10" d="M384 224H86v8h298z"/><path class="fil8" d="M90 154H78l4 57h8zM391 154h-12v57h8z"/><path class="fil1" d="M138 226h191v19H138z"/><path class="fil11 str1" d="M146 232h39v7h-39zM215 232h39v7h-39zM280 232h39v7h-39z"/><path class="fil12" d="M391 157l-312-1 1-11 18-18h259l30 17z"/><path class="fil13" d="M98 141h275c2 0 4 1 4 3s-2 4-4 4H98c-1 0-3-2-3-4s2-3 3-3z" mask="url(#id0)"/><path class="fil14 str4" d="M184 212h108c2 0 3 1 3 3v17c0 2-1 3-3 3H184c-2 0-3-1-3-3v-17c0-2 1-3 3-3z"/><path class="fil11 str4" d="M265 212h1v23h-1z"/><path class="fil15" d="M273 229h-2v-8h-1c-1 1-1 1-2 1v-1c1 0 2-1 2-1l2-2h1v11zm7 0h-1v-8h-2c0 1-1 1-1 1v-1c1 0 1-1 2-1 0-1 1-1 1-2h1v11zm11-8h-2v-1c-1 0-1-1-2-1 0 0-1 0-1 1 0 0-1 0-1 1v2s0-1 1-1h1c1 0 2 0 3 1 0 0 1 1 1 2s0 1-1 2c0 1 0 1-1 1 0 1-1 1-2 1s-2-1-3-1c0-1-1-2-1-4s1-4 2-4c0-1 1-2 2-2s2 1 3 1c0 0 0 1 1 2zm-6 4v1c0 1 1 1 1 1 0 1 1 1 1 1 1 0 1-1 2-1v-2-1c-1-1-1-1-2-1 0 0-1 0-1 1-1 0-1 1-1 1z"/><path class="fil16 str3" d="M98 127h260l-11-67H110l-3 3-9 64z"/><path class="fil17" d="M129 130l11-1-16 22 1 1-3 8h-17l2-6 3-6z"/><path class="fil18" d="M140 129h13l-14 22-2 1-3 8h-16l1-6 3-6z"/><path class="fil19" d="M154 127l9 1-8 23 1 1-3 8h-17l2-6 3-6z"/><path class="fil11 str1" d="M113 119h85v-3h-85zM143 120l49 5-1-3-48-3zM273 120l49 5-1-3-48-3zM231 119h85v-3h-85zM67 110h25c2 0 3 1 3 3v10c0 2-1 3-3 3H67c-1 0-3-1-3-3v-10c0-2 2-3 3-3zM365 110h25c1 0 3 1 3 3v10c0 2-2 3-3 3h-25c-2 0-3-1-3-3v-10c0-2 1-3 3-3z"/><path class="fil20" d="M226 252h21l9 37-45 1z"/><path class="fil20" d="M225 252h17l8 37-38 1zM211 313l45 1 12 39h-69z"/><path class="fil21" d="M232 66l111 2 8 37H185z"/><path class="fil22" d="M112 53l229-2 5 3 2 3v2l1 5-8-4H113l-6 3 1-7z"/><ellipse class="fil23 str5" cx="206" cy="28" rx="23" ry="21"/><ellipse class="fil23 str5" cx="247" cy="27" rx="23" ry="21"/><rect class="fil23 str6" x="87" y="160" width="296.553" height="44.063" rx="3" ry="3"/><path class="fil23 str7" d="M178 163h114.452v1.027H178z"/><path class="fil23 str7" d="M178 163h114.452v1.027H178z"/><path class="fil23 str7" d="M178 163h114.452v1.027H178zM178 170h114.452v1.027H178zM178 184h114.452v1.027H178zM178 191h114.452v1.027H178zM179 197h114.452v1.027H179z"/><path class="fil24 str8" d="M134 204h12.29v27.907H134zM328 204h12.29v27.907H328z"/><path class="fil4 str2" d="M312 163c10 0 19 7 19 17 0 9-9 16-19 16-11 0-20-7-20-16 0-10 9-17 20-17z"/><path class="fil25" d="M92 180h38l55 174-184 1 4-1z"/><path class="fil26" d="M138 185h36l55 168-220 1z"/><path class="fil25" d="M346 185h38l53 169-178 5 2-12z"/><path class="fil25" d="M291 181h39l53 170H221z"/><path class="fil5 str2" d="M111 163c11 0 19 8 19 17s-8 17-19 17-19-8-19-17 8-17 19-17zM312 163c10 0 19 8 19 17s-9 17-19 17c-11 0-19-8-19-17s8-17 19-17zM356 163c11 0 19 7 19 17 0 9-8 16-19 16-10 0-19-7-19-16 0-10 9-17 19-17z"/><path class="fil27" d="M190 231v-15h3l3 10c0 1 1 2 1 3 0-1 0-2 1-3l3-10h3v15h-2v-12l-4 12h-2l-4-13v13h-2z"/><path id="1" class="fil27" d="M210 231v-13h-4v-2h11v2h-5v13z"/><path id="2" class="fil27" d="M228 229v2h-10v-2c1 0 1-1 2-1 0-1 1-2 2-3l3-3c1-1 1-1 1-2s0-1-1-2h-4c0 1-1 2-1 2h-2c1-1 1-2 2-3s2-1 3-1c2 0 3 0 4 1 0 1 1 2 1 3s0 1-1 2c0 0 0 1-1 2 0 0-1 1-3 2-1 1-1 2-2 2v1h7z"/><path id="3" class="fil27" d="M230 224v-5c1-1 1-2 2-2 0-1 1-1 2-1s2 0 2 1c1 0 2 0 2 1s1 1 1 2v8c-1 1-1 2-2 2-1 1-2 1-3 1s-2-1-3-2-1-3-1-5zm2 0v4c1 1 2 1 2 1 1 0 2 0 2-1 1-1 1-2 1-4 0-3 0-4-1-5 0-1-1-1-2-1 0 0-1 0-2 1v5z"/><path id="4" class="fil27" d="M248 231h-2v-12l-2 2h-2v-1c1-1 2-1 3-2l2-2h1v15z"/><path id="5" class="fil27" d="M262 220h-2c0-1-1-1-1-2h-2-1c-1 0-1 1-2 2v3s1-1 2-1c0-1 1-1 1-1 2 0 3 1 4 2 0 0 1 2 1 3s0 2-1 3l-1 1c-1 1-2 1-3 1s-2-1-3-2-2-3-2-5c0-3 1-5 2-6s2-2 3-2c2 0 2 0 3 1s1 2 2 3zm-8 6c0 1 0 1 1 2 0 0 0 1 1 1h3c1-1 1-2 1-3s0-2-1-2c0-1-1-1-2-1s-1 0-2 1c-1 0-1 1-1 2z"/></g></svg>