<?xml version="1.0" encoding="UTF-8"?>
<!DOCTYPE svg PUBLIC "-//W3C//DTD SVG 1.1//EN" "http://www.w3.org/Graphics/SVG/1.1/DTD/svg11.dtd">
<!-- Creator: CorelDRAW X7 -->
<svg xmlns="http://www.w3.org/2000/svg" xml:space="preserve" width="67.7332mm" height="33.1892mm" version="1.1" style="shape-rendering:geometricPrecision; text-rendering:geometricPrecision; image-rendering:optimizeQuality; fill-rule:evenodd; clip-rule:evenodd"
viewBox="0 0 6773 3319"
 xmlns:xlink="http://www.w3.org/1999/xlink">
 <defs>
  <style type="text/css">
   <![CDATA[
    .str0 {stroke:#4D4D4D;stroke-width:33.86}
    .str8 {stroke:black;stroke-width:42.33}
    .str4 {stroke:#BD4D02;stroke-width:16.93}
    .str3 {stroke:#C75204;stroke-width:16.93}
    .str1 {stroke:#E35D04;stroke-width:16.93}
    .str5 {stroke:black;stroke-width:20}
    .str2 {stroke:#333333;stroke-width:20}
    .str6 {stroke:white;stroke-width:20}
    .str7 {stroke:#4D4D4D;stroke-width:25.39}
    .fil12 {fill:none}
    .fil0 {fill:black}
    .fil5 {fill:#00CCFF}
    .fil1 {fill:#1A1A1A}
    .fil2 {fill:#333333}
    .fil3 {fill:#4D4D4D}
    .fil7 {fill:#5B5B5B}
    .fil8 {fill:#666666}
    .fil15 {fill:#6B231C}
    .fil11 {fill:#990000}
    .fil24 {fill:#9D9E9E}
    .fil16 {fill:#A30026}
    .fil23 {fill:#ABACAC}
    .fil22 {fill:#BBBBBB}
    .fil13 {fill:#BD0006}
    .fil14 {fill:#CC0007}
    .fil18 {fill:#CCCCCC}
    .fil4 {fill:#CCFFCC}
    .fil21 {fill:#D9DADA}
    .fil17 {fill:#E6E6E6}
    .fil20 {fill:#EBECEC}
    .fil10 {fill:red}
    .fil6 {fill:#FFCC99}
    .fil9 {fill:white}
    .fil29 {fill:#CCAAAA;fill-rule:nonzero}
    .fil30 {fill:#D9A1A1;fill-rule:nonzero}
    .fil28 {fill:#FEFEFE;fill-rule:nonzero}
    .fil19 {fill:yellow;fill-rule:nonzero}
    .fil27 {fill:url(#id0)}
    .fil25 {fill:url(#id1)}
    .fil26 {fill:url(#id2)}
   ]]>
  </style>
  <linearGradient id="id0" gradientUnits="userSpaceOnUse" x1="3977.35" y1="946.29" x2="3751.05" y2="857.83">
   <stop offset="0" style="stop-opacity:1; stop-color:#BF0007"/>
   <stop offset="0.360784" style="stop-opacity:1; stop-color:#DD0912"/>
   <stop offset="1" style="stop-opacity:1; stop-color:#FF141E"/>
  </linearGradient>
  <linearGradient id="id1" gradientUnits="userSpaceOnUse" x1="3818.68" y1="1001.16" x2="3698.7" y2="875.96">
   <stop offset="0" style="stop-opacity:1; stop-color:#BF0007"/>
   <stop offset="1" style="stop-opacity:1; stop-color:#EE0009"/>
  </linearGradient>
  <linearGradient id="id2" gradientUnits="userSpaceOnUse" x1="3801.22" y1="851.15" x2="3817.18" y2="750.97">
   <stop offset="0" style="stop-opacity:1; stop-color:#C44E4C"/>
   <stop offset="9.58039" style="stop-opacity:1; stop-color:#C9272A"/>
   <stop offset="1" style="stop-opacity:1; stop-color:#CF0007"/>
  </linearGradient>
 </defs>
 <g id="Слой_x0020_1">
  <metadata id="CorelCorpID_0Corel-Layer"/>
  <polygon class="fil0 str0" points="804,1033 95,1033 95,2683 804,2683 "/>
  <path class="fil1 str1" d="M443 2000c148,0 268,123 268,274 0,151 -120,274 -268,274 -149,0 -269,-123 -269,-274 0,-151 120,-274 269,-274z"/>
  <polygon class="fil2" points="820,1018 1062,1206 1058,2574 821,2698 "/>
  <path class="fil2 str2" d="M438 2161c60,0 108,49 108,110 0,60 -48,109 -108,109 -59,0 -107,-49 -107,-109 0,-61 48,-110 107,-110z"/>
  <path class="fil1 str3" d="M443 1380c148,0 268,122 268,274 0,151 -120,273 -268,273 -149,0 -269,-122 -269,-273 0,-152 120,-274 269,-274z"/>
  <path class="fil2 str2" d="M438 1541c60,0 108,49 108,109 0,61 -48,110 -108,110 -59,0 -107,-49 -107,-110 0,-60 48,-109 107,-109z"/>
  <polygon class="fil1 str4" points="722,1099 167,1099 167,1318 722,1318 "/>
  <path class="fil2 str5" d="M446 1157c-35,0 -64,26 -64,59 0,32 29,58 64,58 36,0 64,-26 64,-58 0,-33 -28,-59 -64,-59z"/>
  <polygon class="fil3" points="96,2683 804,2683 804,2616 96,2616 "/>
  <path class="fil4 str6" d="M590 2198c2,0 4,3 4,7 0,5 -2,8 -4,8 -2,0 -4,-3 -4,-8 0,-4 2,-7 4,-7z"/>
  <path class="fil4 str6" d="M590 2307c2,0 4,2 4,4 0,2 -2,4 -4,4 -2,0 -4,-2 -4,-4 0,-2 2,-4 4,-4z"/>
  <path class="fil4 str6" d="M575 1580c2,0 4,2 4,4 0,2 -2,4 -4,4 -2,0 -4,-2 -4,-4 0,-2 2,-4 4,-4z"/>
  <path class="fil4 str6" d="M575 1697c2,0 4,2 4,4 0,2 -2,4 -4,4 -2,0 -4,-2 -4,-4 0,-2 2,-4 4,-4z"/>
  <polygon class="fil5" points="3264,11 3641,1059 4869,1057 3874,1703 4256,2751 3264,2101 2272,2751 2654,1703 1660,1057 2887,1059 "/>
  <path class="fil6" d="M1918 1168c219,0 397,181 397,405 0,223 -178,404 -397,404 -219,0 -397,-181 -397,-404 0,-224 178,-405 397,-405z"/>
  <path class="fil7" d="M1918 1168c179,0 331,121 380,287 7,81 -406,-40 -507,-198 -21,28 -208,179 -249,188 52,-161 201,-277 376,-277l0 0z"/>
  <path class="fil1" d="M1450 2057l124 3 343 847 333 -844 1 -2 0 -1 0 0 127 -3c85,-2 154,73 154,162l0 857 -1236 0 0 -857c0,-89 70,-164 154,-162l0 0z"/>
  <path class="fil0 str5" d="M1912 2639c5,0 10,5 10,12 0,7 -5,12 -10,12 -6,0 -11,-5 -11,-12 0,-7 5,-12 11,-12z"/>
  <polygon class="fil8" points="2252,2647 2454,2647 2454,2674 2252,2674 "/>
  <polygon class="fil9" points="2407,2580 2359,2527 2252,2647 2449,2647 "/>
  <polygon class="fil10" points="1909,2101 1700,2010 1720,2234 1897,2137 "/>
  <polygon class="fil10" points="1891,2096 2103,2020 2093,2240 1880,2127 "/>
  <polygon class="fil11" points="1875,2071 1935,2071 1935,2155 1875,2155 "/>
  <polygon class="fil9 str7" points="1393,2210 1579,1955 1799,2633 1735,2574 "/>
  <polygon class="fil9 str7" points="1520,2452 1675,2286 1881,2859 1811,2785 "/>
  <path class="fil0 str5" d="M1901 2335c-7,0 -12,5 -12,12 0,7 5,12 12,12 6,0 11,-5 11,-12 0,-7 -5,-12 -11,-12z"/>
  <path class="fil11" d="M1935 2071l-55 0c-2,0 -5,2 -5,4l0 44c0,3 3,5 5,5l55 0c3,0 5,-2 5,-5l0 -44c0,-2 -2,-4 -5,-4z"/>
  <polygon class="fil9 str7" points="2450,2197 2250,1966 2027,2640 2092,2577 "/>
  <polygon class="fil9 str7" points="2321,2475 2147,2290 1947,2864 2004,2813 "/>
  <polygon class="fil11" points="2218,2871 4390,2868 4614,3299 1972,3302 "/>
  <path class="fil12 str8" d="M3267 1224c-203,0 -367,140 -367,311 0,172 164,312 367,312 203,0 368,-140 368,-312 0,-171 -165,-311 -368,-311z"/>
  <polygon class="fil0 str0" points="5987,992 6710,992 6710,2675 5987,2675 "/>
  <path class="fil1 str1" d="M6355 1979c-151,0 -273,125 -273,279 0,154 122,279 273,279 152,0 274,-125 274,-279 0,-154 -122,-279 -274,-279z"/>
  <path class="fil2 str2" d="M6355 2146c-60,0 -109,50 -109,112 0,62 49,112 109,112 61,0 110,-50 110,-112 0,-62 -49,-112 -110,-112z"/>
  <path class="fil1 str3" d="M6355 1346c-151,0 -273,125 -273,279 0,154 122,279 273,279 152,0 274,-125 274,-279 0,-154 -122,-279 -274,-279z"/>
  <path class="fil2 str2" d="M6360 1510c-61,0 -110,50 -110,112 0,61 49,111 110,111 60,0 109,-50 109,-111 0,-62 -49,-112 -109,-112z"/>
  <polygon class="fil1 str4" points="6071,1059 6637,1059 6637,1283 6071,1283 "/>
  <path class="fil2 str5" d="M6352 1119c36,0 66,26 66,59 0,33 -30,60 -66,60 -37,0 -66,-27 -66,-60 0,-33 29,-59 66,-59z"/>
  <polygon class="fil2" points="5972,977 5723,1168 5727,2564 5981,2693 "/>
  <polygon class="fil3" points="6709,2675 5986,2675 5986,2607 6709,2607 "/>
  <path class="fil6" d="M3264 1243c190,0 344,154 344,344 0,190 -154,343 -344,343 -191,0 -345,-153 -345,-343 0,-190 154,-344 345,-344z"/>
  <path class="fil0" d="M3309 1928c-12,1 -25,2 -37,2 -13,0 -25,-1 -38,-2l-35 -64 145 0 -35 64 0 0z"/>
  <path class="fil2" d="M3268 1244c213,-6 363,228 339,377 -2,19 -5,170 -6,147 -3,-97 -396,-373 -442,-448 -19,24 -185,145 -221,153 45,-139 179,-229 330,-229l0 0z"/>
  <polygon class="fil11" points="2962,2013 3068,2013 3068,2102 3231,2055 3303,2055 3466,2102 3466,2013 3579,2013 3606,2498 2962,2462 "/>
  <path class="fil13" d="M2881 2011l105 3 287 390 288 -390 108 -3c71,-2 130,60 130,133l0 703 -1049 0 0 -703c0,-73 59,-135 131,-133z"/>
  <polygon class="fil14" points="3805,2728 3805,2994 2756,2994 2756,2728 "/>
  <polygon class="fil14" points="3799,2409 3799,2657 2750,2657 2750,2409 "/>
  <path class="fil14" d="M3018 2057l183 249 -451 0 0 -162c0,-33 12,-63 32,-87l236 0zm327 249l184 -249 239 0c19,24 31,54 31,87l0 162 -454 0z"/>
  <line class="fil12" x1="5008" y1="1131" x2="5008" y2= "1131" />
  <line class="fil12" x1="5009" y1="1131" x2="5009" y2= "1131" />
  <line class="fil12" x1="5011" y1="1131" x2="5011" y2= "1131" />
  <line class="fil12" x1="5017" y1="1131" x2="5017" y2= "1131" />
  <line class="fil12" x1="5018" y1="1131" x2="5019" y2= "1131" />
  <line class="fil12" x1="5021" y1="1131" x2="5021" y2= "1131" />
  <line class="fil12" x1="5021" y1="1131" x2="5021" y2= "1131" />
  <line class="fil12" x1="5021" y1="1131" x2="5021" y2= "1131" />
  <line class="fil12" x1="5021" y1="1131" x2="5022" y2= "1131" />
  <path class="fil6" d="M4545 1306c212,0 384,160 384,358 0,197 -172,357 -384,357 -212,0 -385,-160 -385,-357 0,-198 173,-358 385,-358z"/>
  <path class="fil15" d="M4390 1320c-49,23 -16,5 -62,34l-19 11c-7,5 -4,3 -12,9 -6,4 -6,5 -11,9 -30,38 -49,40 -87,111 -7,13 -12,33 -19,45 0,10 -2,7 11,5l123 -27c97,-24 315,-78 358,-147l56 46c42,32 107,79 153,105l25 13c14,3 4,3 9,-2 -52,-142 -195,-237 -352,-242 -92,-3 -111,15 -173,30l0 0z"/>
  <path class="fil15" d="M4361 1745c-14,18 -13,46 -1,67 30,50 139,74 183,6 9,6 42,65 136,31 68,-24 68,-91 47,-104 -5,10 0,14 -11,23 -44,34 -99,-72 -169,-11 -13,-5 -48,-37 -103,-2 -76,48 -79,-5 -82,-10l0 0z"/>
  <polygon class="fil16" points="4272,1179 4834,1182 4833,1394 4271,1391 "/>
  <path class="fil17" d="M4131 2088l849 0c51,0 92,41 92,91l0 891c0,50 -41,91 -92,91l-849 0c-51,0 -92,-41 -92,-91l0 -891c0,-50 41,-91 92,-91z"/>
  <path class="fil2" d="M4754 2321c17,0 30,11 30,25 0,14 -13,26 -30,26 -16,0 -30,-12 -30,-26 0,-14 14,-25 30,-25z"/>
  <path class="fil2" d="M4754 2537c17,0 30,11 30,25 0,14 -13,26 -30,26 -16,0 -30,-12 -30,-26 0,-14 14,-25 30,-25z"/>
  <path class="fil2" d="M4754 2764c17,0 30,11 30,25 0,14 -13,26 -30,26 -16,0 -30,-12 -30,-26 0,-14 14,-25 30,-25z"/>
  <path class="fil2" d="M4754 2991c17,0 30,11 30,25 0,14 -13,26 -30,26 -16,0 -30,-12 -30,-26 0,-14 14,-25 30,-25z"/>
  <path class="fil2" d="M4328 2321c16,0 30,11 30,25 0,14 -14,26 -30,26 -17,0 -30,-12 -30,-26 0,-14 13,-25 30,-25z"/>
  <path class="fil2" d="M4328 2537c16,0 30,11 30,25 0,14 -14,26 -30,26 -17,0 -30,-12 -30,-26 0,-14 13,-25 30,-25z"/>
  <path class="fil2" d="M4328 2764c16,0 30,11 30,25 0,14 -14,26 -30,26 -17,0 -30,-12 -30,-26 0,-14 13,-25 30,-25z"/>
  <path class="fil2" d="M4328 2991c16,0 30,11 30,25 0,14 -14,26 -30,26 -17,0 -30,-12 -30,-26 0,-14 13,-25 30,-25z"/>
  <polygon class="fil16" points="4039,3076 5069,3076 5069,3297 4039,3297 "/>
  <polygon class="fil16" points="4380,2239 4389,2239 4740,2179 4389,2288 4389,3070 4371,3070 "/>
  <polygon class="fil16" points="4349,2072 4663,2088 4339,2235 4384,2137 4516,2122 4526,2137 4545,2181 4703,2176 4643,2134 4354,2106 "/>
  <rect class="fil1" x="1296" y="2994" width="840" height="303"/>
  <polygon class="fil3" points="3298,2821 2307,2821 2017,3297 3233,3297 "/>
  <path class="fil0 str5" d="M2585 2811c248,0 450,100 450,223 0,124 -202,224 -450,224 -248,0 -450,-100 -450,-224 0,-123 202,-223 450,-223z"/>
  <path class="fil11 str5" d="M2588 2911c98,0 177,42 177,94 0,51 -79,93 -177,93 -98,0 -178,-42 -178,-93 0,-52 80,-94 178,-94z"/>
  <polygon class="fil18" points="3144,2851 3262,2851 3262,2966 3144,2966 "/>
  <polygon class="fil18" points="3225,2851 2753,2851 2753,2881 3225,2881 "/>
  <path class="fil8 str5" d="M3185 3011c22,0 39,9 39,21 0,12 -17,21 -39,21 -21,0 -38,-9 -38,-21 0,-12 17,-21 38,-21z"/>
  <path class="fil8 str5" d="M3154 3097c26,0 47,11 47,24 0,14 -21,25 -47,25 -26,0 -48,-11 -48,-25 0,-13 22,-24 48,-24z"/>
  <path class="fil8 str5" d="M3114 3195c-36,0 -65,12 -65,27 0,15 29,27 65,27 36,0 66,-12 66,-27 0,-15 -30,-27 -66,-27z"/>
  <polygon class="fil12 str5" points="2771,2899 2706,2899 2706,2839 2771,2839 "/>
  <polygon class="fil3 str5" points="2791,2832 2665,2832 2665,2869 2791,2869 "/>
  <polygon class="fil12" points="3178,2821 4584,2821 4584,3323 3178,3323 "/>
  <polygon class="fil3" points="3348,2849 4274,2821 4543,3297 3314,3290 "/>
  <path class="fil0 str5" d="M4017 2811c-230,0 -416,100 -416,223 0,124 186,224 416,224 230,0 416,-100 416,-224 0,-123 -186,-223 -416,-223z"/>
  <path class="fil11 str5" d="M4015 2911c-91,0 -165,42 -165,94 0,51 74,93 165,93 90,0 164,-42 164,-93 0,-52 -74,-94 -164,-94z"/>
  <path class="fil0 str5" d="M4015 2984c-7,0 -11,4 -11,10 0,6 4,11 11,11 6,0 10,-5 10,-11 0,-6 -4,-10 -10,-10z"/>
  <polygon class="fil18" points="3500,2851 3390,2851 3390,2966 3500,2966 "/>
  <polygon class="fil18" points="3425,2851 3861,2851 3861,2881 3425,2881 "/>
  <path class="fil8 str5" d="M3461 3011c-19,0 -35,9 -35,21 0,12 16,21 35,21 20,0 36,-9 36,-21 0,-12 -16,-21 -36,-21z"/>
  <path class="fil8 str5" d="M3491 3097c-24,0 -44,11 -44,24 0,14 20,25 44,25 24,0 44,-11 44,-25 0,-13 -20,-24 -44,-24z"/>
  <path class="fil8 str5" d="M3527 3195c33,0 60,12 60,27 0,15 -27,27 -60,27 -33,0 -60,-12 -60,-27 0,-15 27,-27 60,-27z"/>
  <polygon class="fil12 str5" points="3845,2899 3905,2899 3905,2839 3845,2839 "/>
  <polygon class="fil3 str5" points="3827,2832 3943,2832 3943,2869 3827,2869 "/>
  <polygon class="fil2" points="2899,1469 2836,1469 2836,1708 2899,1708 "/>
  <polygon class="fil11" points="2848,1469 2860,1469 2860,1708 2848,1708 "/>
  <polygon class="fil0 str5" points="2938,1464 2899,1464 2899,1714 2938,1714 "/>
  <polygon class="fil2" points="3636,1469 3701,1469 3701,1708 3636,1708 "/>
  <polygon class="fil11" points="3688,1469 3676,1469 3676,1708 3688,1708 "/>
  <polygon class="fil0 str5" points="3595,1464 3635,1464 3635,1714 3595,1714 "/>
  <path class="fil4 str6" d="M6192 1552c2,0 4,2 4,4 0,2 -2,4 -4,4 -2,0 -4,-2 -4,-4 0,-2 2,-4 4,-4z"/>
  <path class="fil4 str6" d="M6192 1677c2,0 4,3 4,8 0,4 -2,8 -4,8 -2,0 -4,-4 -4,-8 0,-5 2,-8 4,-8z"/>
  <path class="fil4 str6" d="M6184 2318c2,0 4,2 4,4 0,2 -2,4 -4,4 -2,0 -4,-2 -4,-4 0,-2 2,-4 4,-4z"/>
  <path class="fil4 str6" d="M6184 2170c2,0 4,1 4,3 0,3 -2,4 -4,4 -2,0 -4,-1 -4,-4 0,-2 2,-3 4,-3z"/>
  <polygon class="fil2" points="5056,2512 5598,2512 5598,3175 5056,3175 "/>
  <path class="fil18" d="M5227 2777l0 131 -11 0 0 -90 -56 90 -3 0 -33 -93 -27 93 -13 0 37 -131 3 0 37 106 65 -106 1 0zm123 85l-85 0c0,11 3,20 9,27 6,6 14,10 24,10 7,0 13,-2 19,-4 5,-3 10,-7 14,-12l9 7c-5,6 -11,11 -18,15 -8,3 -16,5 -24,5 -15,0 -26,-5 -34,-14 -7,-9 -11,-20 -11,-32 0,-9 3,-18 8,-27 5,-9 11,-16 20,-21 8,-5 17,-7 27,-7 12,0 22,4 30,12 8,9 12,19 12,32 0,3 0,5 0,9zm-12 -11c0,-9 -3,-16 -9,-22 -5,-6 -13,-8 -21,-8 -10,0 -18,2 -25,8 -8,5 -13,12 -16,22l71 0zm42 -40l12 0 -2 15c10,-11 21,-17 34,-17 9,0 17,3 23,9 6,6 9,14 9,25 0,4 0,11 -2,20l-5 45 -12 0 6 -45c1,-9 1,-16 1,-21 0,-6 -2,-12 -6,-16 -4,-4 -9,-6 -15,-6 -7,0 -13,2 -18,5 -6,3 -10,8 -13,14 -3,5 -5,15 -7,27l-6 42 -11 0 12 -97zm115 0l12 0 -6 40c-1,12 -2,20 -2,23 0,7 2,13 6,18 5,4 11,7 18,7 6,0 11,-2 16,-6 4,-3 7,-8 9,-14 1,-3 2,-9 4,-20l6 -48 12 0 -5 37c-2,17 -4,30 -7,37 -2,7 -6,13 -13,18 -6,5 -14,7 -23,7 -10,0 -18,-3 -25,-10 -7,-7 -10,-16 -10,-26 0,-4 0,-9 1,-14l1 -9 1 -3 5 -37z"/>
  <polygon class="fil18" points="5079,2713 5576,2713 5576,2728 5079,2728 "/>
  <polygon class="fil18" points="5079,2955 5576,2955 5576,2970 5079,2970 "/>
  <path class="fil0 str5" d="M2583 2984c-6,0 -11,4 -11,10 0,6 5,11 11,11 6,0 11,-5 11,-11 0,-6 -5,-10 -11,-10z"/>
  <g id="_790449200">
   <path class="fil19" d="M4718 2293l6 -1c1,3 1,5 2,7 1,2 3,3 6,4 2,1 5,1 8,1 2,0 4,0 6,-1 2,0 4,-2 5,-3 1,-1 1,-3 1,-4 0,-2 0,-3 -1,-5 -1,-1 -3,-2 -5,-3 -1,0 -4,-1 -9,-2 -5,-1 -8,-2 -10,-3 -2,-2 -4,-3 -5,-5 -2,-2 -2,-4 -2,-7 0,-2 0,-5 2,-7 1,-2 4,-4 6,-5 3,-1 6,-2 10,-2 4,0 7,1 10,2 3,1 5,3 7,5 2,3 2,5 2,8l-6 1c0,-3 -2,-6 -4,-7 -2,-2 -5,-3 -9,-3 -4,0 -7,1 -9,2 -2,2 -3,4 -3,6 0,2 1,3 2,4 2,2 5,3 11,4 5,1 9,3 11,3 3,2 5,4 7,6 1,2 2,4 2,7 0,3 -1,5 -2,8 -2,2 -4,4 -7,6 -3,1 -6,2 -10,2 -5,0 -9,-1 -12,-2 -3,-2 -6,-4 -7,-7 -2,-2 -3,-5 -3,-9z"/>
   <path id="1" class="fil19" d="M4768 2310l0 -52 6 0 0 18c3,-3 7,-5 11,-5 3,0 5,1 7,2 2,1 4,3 5,4 1,2 1,5 1,9l0 24 -6 0 0 -24c0,-3 -1,-6 -2,-7 -2,-1 -4,-2 -6,-2 -2,0 -4,0 -5,1 -2,1 -3,3 -4,4 -1,2 -1,4 -1,7l0 21 -6 0z"/>
   <path id="2" class="fil19" d="M4832 2305c-2,2 -4,3 -6,4 -3,1 -5,2 -7,2 -5,0 -8,-1 -10,-4 -2,-2 -3,-4 -3,-7 0,-2 0,-4 1,-5 1,-2 2,-3 3,-4 2,-1 3,-2 5,-2 1,0 3,-1 6,-1 5,-1 8,-1 11,-2 0,-1 0,-2 0,-2 0,-2 -1,-4 -2,-5 -2,-2 -4,-2 -7,-2 -3,0 -5,0 -7,1 -1,1 -2,3 -3,6l-6 -1c0,-3 1,-5 3,-7 1,-1 3,-2 5,-3 3,-1 6,-2 9,-2 3,0 6,1 8,1 2,1 3,2 4,3 1,1 2,3 2,5 0,1 0,3 0,5l0 9c0,6 1,10 1,11 0,2 1,3 1,5l-6 0c-1,-2 -1,-3 -2,-5zm0 -14c-2,1 -6,2 -11,2 -2,1 -4,1 -5,2 -1,0 -2,1 -3,2 0,0 0,1 0,3 0,1 0,3 1,4 2,1 4,2 6,2 3,0 5,-1 7,-2 2,-1 3,-3 4,-4 1,-2 1,-4 1,-7l0 -2z"/>
   <path id="3" class="fil19" d="M4873 2310l0 -6c-3,4 -7,7 -12,7 -2,0 -4,-1 -6,-2 -2,-1 -4,-2 -5,-3 -1,-1 -1,-3 -2,-5 0,-1 0,-3 0,-6l0 -23 6 0 0 21c0,3 1,5 1,7 0,1 1,3 2,4 2,1 3,1 5,1 2,0 4,0 6,-1 1,-1 2,-3 3,-4 1,-2 1,-5 1,-8l0 -20 6 0 0 38 -5 0z"/>
   <path id="4" class="fil19" d="M4888 2310l0 -38 6 0 0 6c2,-3 3,-5 4,-5 1,-1 3,-2 4,-2 2,0 5,1 7,2l-2 6c-2,-1 -4,-1 -5,-1 -1,0 -3,0 -4,1 -1,1 -2,2 -2,4 -1,2 -1,4 -1,7l0 20 -7 0z"/>
   <path id="5" class="fil19" d="M4913 2310l0 -38 5 0 0 5c2,-1 3,-3 5,-4 2,-1 4,-2 7,-2 2,0 5,1 7,2 1,1 3,3 3,5 3,-5 7,-7 12,-7 4,0 7,1 9,3 2,2 3,6 3,10l0 26 -7 0 0 -24c0,-2 0,-4 0,-5 -1,-2 -2,-2 -3,-3 -1,-1 -2,-1 -3,-1 -3,0 -5,1 -7,2 -2,2 -3,5 -3,9l0 22 -6 0 0 -25c0,-3 -1,-5 -2,-6 -1,-1 -2,-2 -5,-2 -2,0 -3,0 -5,1 -1,1 -2,3 -3,4 -1,2 -1,5 -1,8l0 20 -6 0z"/>
   <path id="6" class="fil19" d="M4998 2305c-3,2 -5,3 -7,4 -2,1 -5,2 -7,2 -4,0 -8,-1 -10,-4 -2,-2 -3,-4 -3,-7 0,-2 0,-4 1,-5 1,-2 2,-3 3,-4 2,-1 3,-2 5,-2 1,0 3,-1 6,-1 5,-1 9,-1 11,-2 0,-1 0,-2 0,-2 0,-2 -1,-4 -2,-5 -1,-2 -4,-2 -7,-2 -3,0 -5,0 -7,1 -1,1 -2,3 -3,6l-6 -1c0,-3 1,-5 3,-7 1,-1 3,-2 5,-3 3,-1 6,-2 9,-2 3,0 6,1 8,1 2,1 3,2 4,3 1,1 2,3 2,5 0,1 0,3 0,5l0 9c0,6 1,10 1,11 0,2 1,3 1,5l-6 0c-1,-2 -1,-3 -1,-5zm-1 -14c-2,1 -6,2 -10,2 -3,1 -5,1 -6,2 -1,0 -2,1 -2,2 -1,0 -1,1 -1,3 0,1 0,3 2,4 1,1 3,2 5,2 3,0 5,-1 7,-2 2,-1 3,-3 4,-4 1,-2 1,-4 1,-7l0 -2z"/>
  </g>
  <polygon class="fil12" points="3685,762 3980,762 3980,1057 3685,1057 "/>
  <path class="fil20" d="M3830 1030c64,0 116,6 116,14 0,7 -52,13 -116,13 -64,0 -116,-6 -116,-13 0,-8 52,-14 116,-14z"/>
  <path class="fil21" d="M3833 1034c54,0 98,4 98,8 0,5 -44,8 -98,8 -54,0 -98,-3 -98,-8 0,-4 44,-8 98,-8z"/>
  <path class="fil22" d="M3832 1034c41,0 74,3 74,6 0,4 -33,7 -74,7 -41,0 -75,-3 -75,-7 0,-3 34,-6 75,-6z"/>
  <path class="fil23" d="M3832 1036c32,0 58,1 58,4 0,2 -26,4 -58,4 -32,0 -58,-2 -58,-4 0,-3 26,-4 58,-4z"/>
  <path class="fil24" d="M3832 1036c22,0 40,1 40,3 0,2 -18,4 -40,4 -23,0 -41,-2 -41,-4 0,-2 18,-3 41,-3z"/>
  <polygon class="fil25" points="3752,840 3688,835 3750,983 3830,1042 "/>
  <polygon class="fil26" points="3752,840 3688,835 3829,776 3931,762 "/>
  <polygon class="fil27" points="3752,840 3931,762 3977,939 3830,1042 "/>
  <path class="fil28" d="M3944 930c-5,-19 -10,-38 -15,-57 -6,-22 -12,-45 -19,-68 0,-2 -2,-3 -5,-2l-65 30c-9,5 -23,19 -26,35 -1,10 0,20 3,28 2,5 5,11 9,16 3,4 8,8 10,9 4,2 8,4 12,5 2,0 3,1 3,3 -2,19 -3,38 -5,58 0,6 0,13 6,8l12 -7c4,-3 5,-6 6,-12 0,0 0,0 0,0 1,-18 3,-35 4,-53 0,-3 1,-5 3,-7 9,-5 19,-10 28,-16 2,-1 4,0 5,2l12 43c1,2 2,3 4,2 0,0 1,0 1,0 5,-4 10,-7 16,-11 1,-1 2,-4 1,-6zm-45 -51l-35 20c-1,1 -2,1 -3,1 -3,0 -5,-1 -7,-2 -1,0 -2,-1 -4,-1 -2,-2 -7,-6 -9,-12 -1,-2 -3,-10 -1,-18 2,-6 6,-11 11,-15l1 0 35 -17c1,-1 2,0 2,0 1,0 2,0 2,2l11 37c0,1 0,2 -1,3 0,1 -1,2 -2,2z"/>
  <path class="fil29" d="M3799 1000l-25 -63c-9,-22 -18,-44 -27,-66 -1,-3 -3,-5 -5,-5 -6,0 -12,-1 -19,-2 -3,0 -5,3 -4,11 2,14 8,27 15,39 4,7 6,10 10,16 2,2 3,5 3,7 2,6 3,12 4,18 1,3 1,7 2,10 1,3 1,6 3,8 2,2 5,3 7,5 2,2 2,0 1,-4 -2,-10 -4,-20 -6,-30 -1,-2 0,-2 1,-2 3,2 6,4 9,5 2,1 4,3 5,5 6,15 11,29 17,44 1,1 2,2 3,3 2,2 4,3 6,5 2,1 2,0 0,-4zm-39 -73c-4,-1 -7,-3 -11,-5 -2,0 -3,-1 -3,-2 -1,-1 -4,-5 -7,-10 -2,-3 -3,-6 -5,-9 -1,-4 -3,-11 -4,-14 0,-5 2,-5 4,-4 3,0 6,1 8,2 2,0 3,0 5,5 5,12 9,22 14,34 2,4 1,5 -1,3z"/>
  <path class="fil30" d="M3755 828c17,-7 33,-13 49,-20 26,-10 51,-21 77,-31 4,-2 4,-2 0,-2 -11,1 -21,3 -32,4 -5,1 -11,3 -16,4 -8,3 -17,5 -24,8 -6,3 -12,5 -18,8 -5,2 -10,5 -13,7 -3,2 -3,3 -6,3 -15,6 -31,11 -46,17 -2,0 -3,1 -1,1 1,0 2,0 3,0 1,0 3,0 4,0 16,-6 31,-11 47,-17 1,0 3,-1 4,-1 3,0 6,0 8,0 2,0 2,0 1,1 -15,6 -29,12 -43,18 -1,0 -2,0 -1,1 2,0 3,0 4,0 1,0 3,-1 3,-1zm44 -28c5,-3 10,-6 16,-8 6,-2 11,-4 17,-5 1,-1 3,-1 6,-1 4,-1 8,-1 13,-1 2,-1 3,-1 1,0 -4,2 -8,3 -12,5 -8,3 -17,7 -25,10 -2,1 -4,1 -6,1 -4,1 -7,1 -11,1 -3,0 -2,-1 1,-2z"/>
  <path class="fil0" d="M4001 846l85 0 0 108 -21 0 0 -89 -42 0 0 89 -22 0 0 -108zm108 108l0 -108 34 0c14,0 22,1 26,2 6,2 12,5 16,10 4,6 6,13 6,21 0,7 -1,13 -4,17 -2,5 -5,8 -9,11 -3,2 -7,4 -11,5 -5,1 -13,1 -22,1l-15 0 0 41 -21 0 0 0zm21 -89l0 30 12 0c9,0 14,0 17,-2 3,-1 6,-2 7,-5 2,-2 3,-5 3,-8 0,-4 -2,-7 -4,-10 -2,-3 -5,-4 -9,-5 -2,0 -7,0 -15,0l-11 0zm79 89l0 -108 80 0 0 19 -58 0 0 23 53 0 0 19 -53 0 0 29 60 0 0 18 -82 0 0 0zm109 -108l74 0 0 90 10 0 0 41 -19 0 0 -23 -67 0 0 23 -18 0 0 -41 9 0c4,-9 7,-20 9,-32 1,-12 2,-28 2,-46l0 -12zm21 19c0,32 -3,56 -9,71l40 0 0 -71 -31 0zm85 -19l75 0 0 108 -22 0 0 -89 -32 0 0 45c0,14 0,23 -1,28 -1,5 -3,9 -7,12 -3,3 -8,5 -16,5 -2,0 -7,-1 -13,-1l0 -17 4 0c5,0 8,-1 10,-2 1,-1 2,-4 2,-9l0 -18 0 -62 0 0zm195 108l-24 0 -9 -25 -43 0 -9 25 -23 0 41 -108 23 0 44 108zm-40 -43l-15 -40 -15 40 30 0zm52 -65l73 0 0 19 -51 0 0 89 -22 0 0 -108 0 0zm172 108l-24 0 -9 -25 -43 0 -9 25 -23 0 42 -108 23 0 43 108zm-40 -43l-15 -40 -15 40 30 0zm51 -65l22 0 0 45 18 0c1,-13 6,-24 14,-33 8,-9 19,-14 35,-14 15,0 26,5 35,15 9,9 13,23 13,41 0,12 -2,22 -5,30 -4,8 -10,15 -17,19 -7,5 -15,7 -26,7 -10,0 -19,-2 -25,-5 -6,-3 -11,-9 -16,-16 -5,-8 -8,-16 -8,-26l-18 0 0 45 -22 0 0 -108 0 0zm61 54c0,12 3,21 7,28 5,6 12,10 20,10 9,0 16,-4 20,-10 5,-6 7,-16 7,-29 0,-12 -3,-21 -8,-27 -5,-6 -11,-9 -19,-9 -8,0 -14,3 -19,9 -5,6 -8,15 -8,28z"/>
 </g>
</svg>
