<?xml version="1.0" encoding="UTF-8"?>
<!DOCTYPE svg PUBLIC "-//W3C//DTD SVG 1.1//EN" "http://www.w3.org/Graphics/SVG/1.1/DTD/svg11.dtd">
<!-- Creator: CorelDRAW X7 -->
<svg xmlns="http://www.w3.org/2000/svg" xml:space="preserve" width="816px" height="530px" version="1.1" style="shape-rendering:geometricPrecision; text-rendering:geometricPrecision; image-rendering:optimizeQuality; fill-rule:evenodd; clip-rule:evenodd"
viewBox="0 0 816 530"
 xmlns:xlink="http://www.w3.org/1999/xlink">
 <defs>
  <style type="text/css">
   <![CDATA[
    .str0 {stroke:#4D4D4D;stroke-width:3.99927}
    .str8 {stroke:black;stroke-width:4.99968}
    .str4 {stroke:#BD4D02;stroke-width:1.99964}
    .str3 {stroke:#C75204;stroke-width:1.99964}
    .str1 {stroke:#E35D04;stroke-width:1.99964}
    .str5 {stroke:black;stroke-width:2.36224}
    .str2 {stroke:#333333;stroke-width:2.36224}
    .str6 {stroke:white;stroke-width:2.36224}
    .str7 {stroke:#4D4D4D;stroke-width:2.99886}
    .fil14 {fill:none}
    .fil6 {fill:#C4C5C5}
    .fil7 {fill:#5C5B5B}
    .fil23 {fill:black}
    .fil0 {fill:black}
    .fil5 {fill:#00CCFF}
    .fil8 {fill:#1A1A1A}
    .fil1 {fill:#1A1A1A}
    .fil21 {fill:#1A1A1A}
    .fil2 {fill:#333333}
    .fil3 {fill:#4D4D4D}
    .fil9 {fill:#666666}
    .fil18 {fill:#6B231C}
    .fil12 {fill:#990000}
    .fil19 {fill:#A30026}
    .fil15 {fill:#BD0006}
    .fil17 {fill:#C4C6C5}
    .fil16 {fill:#CC0007}
    .fil24 {fill:#CCCCCC}
    .fil22 {fill:#CCCCCC}
    .fil4 {fill:#CCFFCC}
    .fil20 {fill:#E6E6E6}
    .fil11 {fill:red}
    .fil13 {fill:white}
    .fil10 {fill:white}
    .fil26 {fill:black;fill-rule:nonzero}
    .fil27 {fill:#4D4D4D;fill-rule:nonzero}
    .fil25 {fill:yellow;fill-rule:nonzero}
   ]]>
  </style>
   <clipPath id="id0">
    <rect x="263" y="292" width="2.51578" height="0.591741"/>
   </clipPath>
   <clipPath id="id1">
    <rect x="263" y="292" width="2.5146" height="0.591741"/>
   </clipPath>
   <clipPath id="id2">
    <path d="M264 292l0 -1 2 0 0 1 -2 0z"/>
   </clipPath>
   <clipPath id="id3">
    <rect x="264" y="291" width="2.51578" height="0.591741"/>
   </clipPath>
   <clipPath id="id4">
    <rect x="264" y="290" width="2.5146" height="0.591741"/>
   </clipPath>
   <clipPath id="id5">
    <rect x="265" y="290" width="2.51578" height="0.591741"/>
   </clipPath>
   <clipPath id="id6">
    <path d="M265 290l0 -1 2 0 0 1 -2 0z"/>
   </clipPath>
   <clipPath id="id7">
    <rect x="265" y="289" width="2.51578" height="0.592922"/>
   </clipPath>
   <clipPath id="id8">
    <path d="M193 294l0 -1 2 0 0 1 -2 0z"/>
   </clipPath>
   <clipPath id="id9">
    <rect x="266" y="288" width="2.51578" height="0.591741"/>
   </clipPath>
   <clipPath id="id10">
    <path d="M266 288l0 0 2 0 0 0 -2 0z"/>
   </clipPath>
   <clipPath id="id11">
    <rect x="267" y="287" width="1.54845" height="0.591741"/>
   </clipPath>
   <clipPath id="id12">
    <path d="M193 293l0 -1 1 0 0 1 -1 0z"/>
   </clipPath>
   <clipPath id="id13">
    <path d="M267 287l0 0 1 0 0 0 -1 0z"/>
   </clipPath>
   <clipPath id="id14">
    <rect x="267" y="286" width="0.581111" height="0.592922"/>
   </clipPath>
   <clipPath id="id15">
    <path d="M266 286l0 -1 1 0 0 1 -1 0z"/>
   </clipPath>
   <clipPath id="id16">
    <rect x="266" y="285" width="0.581111" height="0.591741"/>
   </clipPath>
   <clipPath id="id17">
    <path d="M259 297l0 -1 -2 0 0 1 2 0z"/>
   </clipPath>
   <clipPath id="id18">
    <path d="M259 296l0 -1 -2 0 0 1 2 0z"/>
   </clipPath>
   <clipPath id="id19">
    <path d="M259 295l0 -1 -1 0 0 1 1 0z"/>
   </clipPath>
 </defs>
 <g id="Слой_x0020_1">
  <metadata id="CorelCorpID_0Corel-Layer"/>
  <polygon class="fil0 str0" points="91,161 5,161 5,361 91,361 "/>
  <path class="fil1 str1" d="M47 278c18,0 33,15 33,34 0,18 -15,33 -33,33 -18,0 -32,-15 -32,-33 0,-19 14,-34 32,-34z"/>
  <polygon class="fil2" points="92,159 122,182 122,348 93,363 "/>
  <path class="fil2 str2" d="M47 298c7,0 13,6 13,13 0,7 -6,13 -13,13 -7,0 -13,-6 -13,-13 0,-7 6,-13 13,-13z"/>
  <path class="fil1 str3" d="M47 203c18,0 33,15 33,33 0,19 -15,34 -33,34 -18,0 -32,-15 -32,-34 0,-18 14,-33 32,-33z"/>
  <path class="fil2 str2" d="M47 223c7,0 13,6 13,13 0,7 -6,13 -13,13 -7,0 -13,-6 -13,-13 0,-7 6,-13 13,-13z"/>
  <polygon class="fil1 str4" points="81,169 14,169 14,196 81,196 "/>
  <path class="fil2 str5" d="M48 176c-5,0 -8,3 -8,7 0,4 3,7 8,7 4,0 8,-3 8,-7 0,-4 -4,-7 -8,-7z"/>
  <polygon class="fil3" points="5,361 91,361 91,353 5,353 "/>
  <path class="fil4 str6" d="M65 302c0,0 1,1 1,1 0,1 -1,1 -1,1 0,0 0,0 0,-1 0,0 0,-1 0,-1z"/>
  <path class="fil4 str6" d="M65 316c0,0 1,0 1,0 0,0 -1,1 -1,1 0,0 0,-1 0,-1 0,0 0,0 0,0z"/>
  <path class="fil4 str6" d="M63 227c1,0 1,1 1,1 0,0 0,0 -1,0 0,0 0,0 0,0 0,0 0,-1 0,-1z"/>
  <path class="fil4 str6" d="M63 242c1,0 1,0 1,0 0,0 0,1 -1,1 0,0 0,-1 0,-1 0,0 0,0 0,0z"/>
  <polygon class="fil5" points="396,92 439,200 579,200 465,267 509,375 396,308 283,375 326,267 213,200 353,200 "/>
  <path class="fil6" d="M226 178c27,0 48,21 48,49 0,27 -21,49 -48,49 -26,0 -48,-22 -48,-49 0,-28 22,-49 48,-49z"/>
  <path class="fil7" d="M226 178c22,0 40,14 46,34 1,10 -49,-5 -61,-24 -3,4 -25,22 -30,23 6,-19 24,-33 45,-33z"/>
  <g style="clip-path:url(#id0)">
   <image x="263" y="292" width="2.51542" height="0.591863" xlink:href="AboutWork_Images\AboutWork_ImgID1.png"/>
  </g>
  <g style="clip-path:url(#id1)">
   <image x="263" y="292" width="2.51542" height="0.591863" xlink:href="AboutWork_Images\AboutWork_ImgID2.png"/>
  </g>
  <g style="clip-path:url(#id2)">
   <image x="264" y="291" width="2.12844" height="0.591863" xlink:href="AboutWork_Images\AboutWork_ImgID3.png"/>
  </g>
  <g style="clip-path:url(#id3)">
   <image x="264" y="291" width="2.51542" height="0.591863" xlink:href="AboutWork_Images\AboutWork_ImgID4.png"/>
  </g>
  <g style="clip-path:url(#id4)">
   <image x="264" y="290" width="2.51542" height="0.591863" xlink:href="AboutWork_Images\AboutWork_ImgID5.png"/>
  </g>
  <g style="clip-path:url(#id5)">
   <image x="265" y="290" width="2.51542" height="0.591863" xlink:href="AboutWork_Images\AboutWork_ImgID6.png"/>
  </g>
  <g style="clip-path:url(#id6)">
   <image x="265" y="289" width="2.12844" height="0.591863" xlink:href="AboutWork_Images\AboutWork_ImgID7.png"/>
  </g>
  <g style="clip-path:url(#id7)">
   <image x="265" y="289" width="2.51542" height="0.591863" xlink:href="AboutWork_Images\AboutWork_ImgID8.png"/>
  </g>
  <g style="clip-path:url(#id8)">
   <image x="193" y="293" width="2.51542" height="0.591863" xlink:href="AboutWork_Images\AboutWork_ImgID9.png"/>
  </g>
  <g style="clip-path:url(#id9)">
   <image x="266" y="288" width="2.51542" height="0.591863" xlink:href="AboutWork_Images\AboutWork_ImgID10.png"/>
  </g>
  <g style="clip-path:url(#id10)">
   <image x="266" y="288" width="2.12844" height="0.591863" xlink:href="AboutWork_Images\AboutWork_ImgID11.png"/>
  </g>
  <g style="clip-path:url(#id11)">
   <image x="267" y="287" width="1.54795" height="0.591863" xlink:href="AboutWork_Images\AboutWork_ImgID12.png"/>
  </g>
  <g style="clip-path:url(#id12)">
   <image x="193" y="292" width="1.54795" height="0.591863" xlink:href="AboutWork_Images\AboutWork_ImgID13.png"/>
  </g>
  <g style="clip-path:url(#id13)">
   <image x="267" y="287" width="1.16097" height="0.591863" xlink:href="AboutWork_Images\AboutWork_ImgID14.png"/>
  </g>
  <g style="clip-path:url(#id14)">
   <image x="267" y="286" width="0.580483" height="0.591863" xlink:href="AboutWork_Images\AboutWork_ImgID15.png"/>
  </g>
  <g style="clip-path:url(#id15)">
   <image x="266" y="285" width="0.580483" height="1.18373" xlink:href="AboutWork_Images\AboutWork_ImgID16.png"/>
  </g>
  <g style="clip-path:url(#id16)">
   <image x="266" y="285" width="0.580483" height="0.591863" xlink:href="AboutWork_Images\AboutWork_ImgID17.png"/>
  </g>
  <path class="fil8" d="M169 285l15 1 42 104 40 -104 1 0 -1 0 0 0 16 -1c10,0 19,9 19,20l0 105 -150 0 0 -105c0,-11 8,-20 18,-20z"/>
  <path class="fil0 str5" d="M225 356c1,0 2,0 2,1 0,1 -1,2 -2,2 0,0 -1,-1 -1,-2 0,-1 1,-1 1,-1z"/>
  <polygon class="fil9" points="267,357 291,357 291,360 267,360 "/>
  <polygon class="fil10" points="285,349 280,342 267,357 290,357 "/>
  <polygon class="fil11" points="225,291 200,280 202,307 224,295 "/>
  <polygon class="fil11" points="223,290 249,281 247,307 222,294 "/>
  <polygon class="fil12" points="221,287 228,287 228,297 221,297 "/>
  <polygon class="fil13 str7" points="162,304 185,273 212,355 204,348 "/>
  <polygon class="fil13 str7" points="178,333 197,313 222,382 213,373 "/>
  <g style="clip-path:url(#id17)">
   <image transform="matrix(-0.692954 -0 -0 0.657616 259.225 295.99)" x="0" y="0" width="3.90006" height="0.900013" xlink:href="AboutWork_Images\AboutWork_ImgID18.png"/>
  </g>
  <g style="clip-path:url(#id18)">
   <image transform="matrix(-0.692954 -0 -0 0.657616 259.329 294.904)" x="0" y="0" width="3.30005" height="1.80003" xlink:href="AboutWork_Images\AboutWork_ImgID19.png"/>
  </g>
  <g style="clip-path:url(#id19)">
   <image transform="matrix(-0.692954 -0 -0 0.657616 259.225 294.51)" x="0" y="0" width="2.40003" height="0.900013" xlink:href="AboutWork_Images\AboutWork_ImgID20.png"/>
  </g>
  <path class="fil0 str5" d="M224 319c-1,0 -1,1 -1,1 0,1 0,2 1,2 1,0 1,-1 1,-2 0,0 0,-1 -1,-1z"/>
  <path class="fil12" d="M228 287l-6 0c-1,0 -1,0 -1,1l0 5c0,0 0,0 1,0l6 0c1,0 1,0 1,0l0 -5c0,-1 0,-1 -1,-1z"/>
  <polygon class="fil13 str7" points="291,302 266,274 239,356 247,348 "/>
  <polygon class="fil13 str7" points="275,336 254,313 230,383 237,377 "/>
  <polygon class="fil12" points="262,384 526,384 553,436 233,436 "/>
  <path class="fil14 str8" d="M390 184c-25,0 -45,17 -45,38 0,21 20,38 45,38 24,0 44,-17 44,-38 0,-21 -20,-38 -44,-38z"/>
  <polygon class="fil0 str0" points="724,156 812,156 812,360 724,360 "/>
  <path class="fil1 str1" d="M769 276c-19,0 -33,15 -33,34 0,18 14,33 33,33 18,0 33,-15 33,-33 0,-19 -15,-34 -33,-34z"/>
  <path class="fil2 str2" d="M769 296c-8,0 -14,6 -14,14 0,7 6,13 14,13 7,0 13,-6 13,-13 0,-8 -6,-14 -13,-14z"/>
  <path class="fil1 str3" d="M769 199c-19,0 -33,15 -33,34 0,19 14,34 33,34 18,0 33,-15 33,-34 0,-19 -15,-34 -33,-34z"/>
  <path class="fil2 str2" d="M769 219c-7,0 -13,6 -13,13 0,8 6,14 13,14 8,0 13,-6 13,-14 0,-7 -5,-13 -13,-13z"/>
  <polygon class="fil1 str4" points="734,164 803,164 803,191 734,191 "/>
  <path class="fil2 str5" d="M768 171c5,0 8,4 8,8 0,4 -3,7 -8,7 -4,0 -8,-3 -8,-7 0,-4 4,-8 8,-8z"/>
  <polygon class="fil2" points="722,154 692,177 693,347 722,362 "/>
  <polygon class="fil3" points="812,360 724,360 724,352 812,352 "/>
  <path class="fil6" d="M389 187c23,0 42,18 42,41 0,23 -19,42 -42,42 -23,0 -42,-19 -42,-42 0,-23 19,-41 42,-41z"/>
  <path class="fil0" d="M395 270c-2,0 -3,0 -5,0 -1,0 -3,0 -4,0l-5 -8 18 0 -4 8z"/>
  <path class="fil2" d="M390 187c26,-1 44,27 41,45 0,3 -1,21 -1,18 0,-11 -48,-45 -54,-54 -2,3 -22,18 -26,18 5,-16 21,-27 40,-27z"/>
  <polygon class="fil12" points="353,280 366,280 366,291 385,285 394,285 414,291 414,280 427,280 431,339 353,334 "/>
  <path class="fil15" d="M343 280l13 0 34 47 35 -47 13 0c9,0 16,7 16,16l0 85 -127 0 0 -85c0,-9 7,-16 16,-16z"/>
  <polygon class="fil16" points="455,367 455,399 328,399 328,367 "/>
  <polygon class="fil16" points="454,328 454,358 327,358 327,328 "/>
  <path class="fil16" d="M359 285l23 30 -55 0 0 -19c0,-4 1,-8 4,-11l28 0zm40 30l22 -30 29 0c3,3 4,7 4,11l0 19 -55 0z"/>
  <line class="fil14" x1="589" y1="171" x2="589" y2= "171" />
  <line class="fil14" x1="589" y1="171" x2="589" y2= "171" />
  <line class="fil14" x1="589" y1="171" x2="589" y2= "171" />
  <line class="fil14" x1="590" y1="171" x2="590" y2= "171" />
  <line class="fil14" x1="590" y1="171" x2="590" y2= "171" />
  <line class="fil14" x1="590" y1="171" x2="590" y2= "171" />
  <line class="fil14" x1="590" y1="171" x2="590" y2= "171" />
  <line class="fil14" x1="590" y1="171" x2="590" y2= "171" />
  <line class="fil14" x1="590" y1="171" x2="590" y2= "171" />
  <path class="fil17" d="M544 194c26,0 47,20 47,44 0,24 -21,43 -47,43 -25,0 -46,-19 -46,-43 0,-24 21,-44 46,-44z"/>
  <path class="fil18" d="M526 196c-6,3 -2,1 -8,4l-2 1c-1,1 -1,1 -2,1 0,1 0,1 -1,2 -4,4 -6,4 -10,13 -1,2 -2,4 -3,5 0,2 0,1 2,1l15 -3c11,-3 38,-10 43,-18l7 6c5,3 13,9 18,12l3 2c2,0 1,0 1,0 -6,-18 -23,-29 -42,-30 -11,0 -14,2 -21,4z"/>
  <path class="fil18" d="M522 247c-1,3 -1,6 0,9 4,6 17,9 22,0 1,1 5,8 17,4 8,-3 8,-11 5,-13 0,2 0,2 -1,3 -5,4 -12,-8 -20,-1 -2,-1 -6,-5 -13,0 -9,6 -9,-1 -10,-2z"/>
  <polygon class="fil19" points="511,179 580,179 579,205 511,205 "/>
  <path class="fil20" d="M494 289l103 0c6,0 11,5 11,11l0 108c0,6 -5,11 -11,11l-103 0c-6,0 -11,-5 -11,-11l0 -108c0,-6 5,-11 11,-11z"/>
  <path class="fil2" d="M570 317c2,0 3,2 3,3 0,2 -1,3 -3,3 -2,0 -4,-1 -4,-3 0,-1 2,-3 4,-3z"/>
  <path class="fil2" d="M570 343c2,0 3,2 3,4 0,1 -1,3 -3,3 -2,0 -4,-2 -4,-3 0,-2 2,-4 4,-4z"/>
  <path class="fil2" d="M570 371c2,0 3,1 3,3 0,2 -1,3 -3,3 -2,0 -4,-1 -4,-3 0,-2 2,-3 4,-3z"/>
  <path class="fil2" d="M570 398c2,0 3,2 3,4 0,1 -1,3 -3,3 -2,0 -4,-2 -4,-3 0,-2 2,-4 4,-4z"/>
  <path class="fil2" d="M518 317c2,0 4,2 4,3 0,2 -2,3 -4,3 -2,0 -3,-1 -3,-3 0,-1 1,-3 3,-3z"/>
  <path class="fil2" d="M518 343c2,0 4,2 4,4 0,1 -2,3 -4,3 -2,0 -3,-2 -3,-3 0,-2 1,-4 3,-4z"/>
  <path class="fil2" d="M518 371c2,0 4,1 4,3 0,2 -2,3 -4,3 -2,0 -3,-1 -3,-3 0,-2 1,-3 3,-3z"/>
  <path class="fil2" d="M518 398c2,0 4,2 4,4 0,1 -2,3 -4,3 -2,0 -3,-2 -3,-3 0,-2 1,-4 3,-4z"/>
  <polygon class="fil19" points="483,409 608,409 608,436 483,436 "/>
  <polygon class="fil19" points="524,307 526,307 568,300 526,313 526,408 523,408 "/>
  <polygon class="fil19" points="521,287 559,289 520,307 525,295 541,293 542,295 544,300 564,300 556,295 521,291 "/>
  <rect class="fil21" x="151" y="401" width="101.136" height="34.5761"/>
  <polygon class="fil3" points="393,378 273,378 238,436 385,436 "/>
  <path class="fil0 str5" d="M303 377c32,0 58,12 58,27 0,15 -26,27 -58,27 -32,0 -58,-12 -58,-27 0,-15 26,-27 58,-27z"/>
  <path class="fil12 str5" d="M307 389c12,0 22,5 22,11 0,6 -10,11 -22,11 -12,0 -21,-5 -21,-11 0,-6 9,-11 21,-11z"/>
  <polygon class="fil22" points="375,382 389,382 389,395 375,395 "/>
  <polygon class="fil22" points="385,382 327,382 327,385 385,385 "/>
  <path class="fil9 str5" d="M380 401c2,0 4,1 4,2 0,2 -2,3 -4,3 -3,0 -5,-1 -5,-3 0,-1 2,-2 5,-2z"/>
  <path class="fil9 str5" d="M376 411c3,0 6,2 6,3 0,2 -3,3 -6,3 -3,0 -6,-1 -6,-3 0,-1 3,-3 6,-3z"/>
  <path class="fil9 str5" d="M371 423c-4,0 -8,2 -8,3 0,2 4,4 8,4 4,0 8,-2 8,-4 0,-1 -4,-3 -8,-3z"/>
  <polygon class="fil14 str5" points="330,387 322,387 322,380 330,380 "/>
  <polygon class="fil3 str5" points="332,379 317,379 317,384 332,384 "/>
  <polygon class="fil14" points="379,378 549,378 549,439 379,439 "/>
  <polygon class="fil3" points="398,381 511,378 544,436 394,435 "/>
  <path class="fil0 str5" d="M481 377c-28,0 -51,12 -51,27 0,15 23,27 51,27 27,0 50,-12 50,-27 0,-15 -23,-27 -50,-27z"/>
  <path class="fil12 str5" d="M480 389c-11,0 -20,5 -20,11 0,6 9,11 20,11 11,0 20,-5 20,-11 0,-6 -9,-11 -20,-11z"/>
  <path class="fil23 str5" d="M480 398c-1,0 -1,0 -1,1 0,1 0,1 1,1 1,0 2,0 2,-1 0,-1 -1,-1 -2,-1z"/>
  <polygon class="fil22" points="418,382 405,382 405,395 418,395 "/>
  <polygon class="fil22" points="409,382 462,382 462,385 409,385 "/>
  <path class="fil9 str5" d="M413 401c-2,0 -4,1 -4,2 0,2 2,3 4,3 3,0 4,-1 4,-3 0,-1 -1,-2 -4,-2z"/>
  <path class="fil9 str5" d="M417 411c-3,0 -6,2 -6,3 0,2 3,3 6,3 3,0 5,-1 5,-3 0,-1 -2,-3 -5,-3z"/>
  <path class="fil9 str5" d="M421 423c4,0 7,2 7,3 0,2 -3,4 -7,4 -4,0 -7,-2 -7,-4 0,-1 3,-3 7,-3z"/>
  <polygon class="fil14 str5" points="460,387 467,387 467,380 460,380 "/>
  <polygon class="fil3 str5" points="457,379 472,379 472,384 457,384 "/>
  <polygon class="fil2" points="345,214 337,214 337,243 345,243 "/>
  <polygon class="fil12" points="339,214 340,214 340,243 339,243 "/>
  <polygon class="fil0 str5" points="350,213 345,213 345,244 350,244 "/>
  <polygon class="fil2" points="434,214 442,214 442,243 434,243 "/>
  <polygon class="fil12" points="441,214 439,214 439,243 441,243 "/>
  <polygon class="fil0 str5" points="429,213 434,213 434,244 429,244 "/>
  <path class="fil4 str6" d="M749 224c0,0 0,0 0,0 0,1 0,1 0,1 0,0 -1,0 -1,-1 0,0 1,0 1,0z"/>
  <path class="fil4 str6" d="M749 239c0,0 0,1 0,1 0,1 0,1 0,1 0,0 -1,0 -1,-1 0,0 1,-1 1,-1z"/>
  <path class="fil4 str6" d="M748 317c0,0 0,0 0,0 0,1 0,1 0,1 0,0 0,0 0,-1 0,0 0,0 0,0z"/>
  <path class="fil4 str6" d="M748 299c0,0 0,0 0,0 0,1 0,1 0,1 0,0 0,0 0,-1 0,0 0,0 0,0z"/>
  <polygon class="fil2" points="606,340 672,340 672,421 606,421 "/>
  <path class="fil24" d="M627 373l0 15 -1 0 0 -11 -7 11 0 0 -4 -11 -4 11 -1 0 4 -15 1 0 4 12 8 -12 0 0zm15 10l-10 0c0,1 0,2 1,3 1,1 2,1 3,1 1,0 1,0 2,0 1,-1 1,-1 2,-2l1 1c-1,1 -1,2 -2,2 -1,0 -2,1 -3,1 -2,0 -3,-1 -4,-2 -1,-1 -2,-2 -2,-4 0,-1 1,-2 1,-3 1,-1 2,-2 3,-3 1,0 2,-1 3,-1 1,0 3,1 4,2 1,1 1,2 1,4 0,0 0,0 0,1zm-1 -2c0,-1 -1,-1 -1,-2 -1,-1 -2,-1 -3,-1 -1,0 -2,0 -3,1 -1,0 -2,1 -2,2l9 0zm5 -4l1 0 0 2c1,-2 2,-3 4,-3 1,0 2,1 3,1 1,1 1,2 1,3 0,1 0,2 0,3l-1 5 -1 0 0 -5c0,-1 0,-2 0,-3 0,0 0,-1 0,-1 -1,-1 -1,-1 -2,-1 -1,0 -2,0 -2,0 -1,1 -2,1 -2,2 0,1 -1,2 -1,3l0 5 -2 0 2 -11zm14 0l1 0 -1 5c0,1 0,2 0,2 0,1 0,2 1,2 0,1 1,1 2,1 1,0 1,0 2,0 0,-1 1,-1 1,-2 0,0 0,-1 0,-2l1 -6 2 0 -1 4c0,2 0,4 -1,5 0,0 -1,1 -1,2 -1,0 -2,1 -3,1 -1,0 -2,-1 -3,-2 -1,0 -1,-1 -1,-3 0,0 0,-1 0,-1l0 -1 0 -1 1 -4z"/>
  <polygon class="fil24" points="609,365 669,365 669,367 609,367 "/>
  <polygon class="fil24" points="609,394 669,394 669,396 609,396 "/>
  <path class="fil23 str5" d="M307 398c-1,0 -2,0 -2,1 0,1 1,1 2,1 0,0 1,0 1,-1 0,-1 -1,-1 -1,-1z"/>
  <path class="fil25" d="M573 306l1 0c0,0 0,0 0,0l0 0 0 0c0,0 0,0 0,0l0 0 0 0c0,0 0,0 0,0l0 0c0,0 0,0 0,0 0,1 0,2 0,3l0 0c0,1 0,1 0,1 0,0 0,0 0,0 0,0 0,0 0,1 0,0 0,0 0,0l0 0 -1 1 -1 0 0 0c0,0 0,0 0,0l0 -1c0,0 0,0 0,0l0 0c0,0 0,0 0,0 0,-1 0,-1 0,-2 0,0 0,0 0,0l0 0c0,0 0,0 0,0l0 0c0,-1 0,-1 0,-1 -1,-1 -1,-1 -2,-1l0 0c0,0 -1,0 -1,1l0 0 0 0c-1,0 -1,0 -1,0 0,1 0,1 0,2 0,0 0,0 0,0l0 0c0,1 0,1 1,1 0,1 1,1 2,2 1,0 1,0 2,1 1,0 1,0 1,1l0 0 0 0c0,0 0,0 0,0 0,1 -1,1 -2,1 0,0 0,0 0,0 0,0 0,0 0,0 -1,0 -1,0 -1,0 0,0 0,0 0,0l0 0 -1 0c-1,0 -2,0 -3,0 0,0 -1,-1 -1,-1l-1 0 0 0c1,-1 1,-1 1,-1 0,0 0,0 0,0l1 0 0 0c0,0 0,0 0,0 0,0 0,0 1,0 0,0 0,0 0,0l0 0c1,0 1,0 1,0l0 0c0,0 0,0 0,0 0,0 0,0 0,0l0 0c0,0 0,0 0,0 0,0 0,0 0,0 -1,0 -1,0 -1,1 0,0 0,0 -1,0l0 0c2,1 3,1 4,1 1,0 2,0 2,-1 0,0 0,0 0,0 0,0 -1,-1 -2,-1 0,0 0,0 0,0l-1 0c0,-1 -1,-1 -2,-1 0,0 -1,-1 -1,-1 0,0 -1,0 -1,-1l0 0 0 0c0,0 0,0 0,-1 0,0 0,0 0,0 0,0 0,-1 0,-1l0 0c0,0 0,0 0,0 0,0 0,0 0,0 0,-1 1,-1 1,-1 0,-1 1,-1 1,-1 0,0 1,0 2,0l0 0c0,0 0,0 1,0 0,0 0,0 0,0 0,0 0,0 0,0l0 0 0 0 0 0 0 0c1,0 2,0 2,0 0,0 0,0 0,0l0 -1 0 0c0,0 0,0 0,0l0 0c0,0 0,0 0,0l0 0c0,0 0,0 0,0 0,0 0,0 0,0l0 0 0 0c0,0 0,0 0,0l0 0c0,0 0,0 0,0l0 0zm0 1l0 0c0,0 0,0 0,0 0,0 0,0 0,0 0,1 0,1 0,1l0 0 0 0c0,0 1,0 1,-1l0 0 0 0 0 0c-1,0 -1,0 -1,0zm-1 0c0,0 0,0 1,1 0,0 0,0 0,0l0 0c0,0 -1,-1 -1,-1l0 0zm-1 0l0 0c0,0 1,0 1,1l0 0c0,-1 0,-1 -1,-1l0 0zm1 0c0,1 0,1 0,1l0 0 0 -1 0 0zm-4 1l0 0 0 0 0 0c0,0 0,0 0,0zm6 0c0,0 0,0 0,0l0 0c0,0 0,0 0,0l0 0zm-1 0c0,0 0,0 0,1 0,0 0,-1 0,-1l0 0zm-1 0l0 0c0,0 0,1 0,1 0,-1 0,-1 0,-1zm-4 0c0,0 -1,0 -1,1l0 0c0,0 0,-1 1,-1l0 0zm5 0c0,0 0,0 0,1l0 0c0,-1 0,-1 0,-1 0,0 0,0 0,0l0 0 0 0zm-7 1l1 -1 0 0 0 0 0 0c0,0 0,1 -1,1zm7 -1l0 1 0 0 0 0 0 -1 0 0 0 0zm-1 1l0 0c1,0 1,0 1,0l0 0 0 0c0,0 0,0 0,0l-1 0zm-6 0l0 0 0 0 0 0 0 0 0 0 0 0zm1 0l0 0 0 0c0,0 0,0 0,0l0 0zm0 0c0,0 0,0 0,0l0 1c0,0 0,0 0,0l0 0 0 0c0,0 0,-1 0,-1l0 0 0 0zm6 0l0 1 0 0 0 0c0,0 0,0 0,-1l0 0 0 0zm0 0c0,0 0,0 0,1l0 0 0 0c0,-1 0,-1 0,-1 0,0 0,0 0,0l0 0zm-6 1l0 0 0 0 0 0 0 0c0,0 0,0 0,0l0 0zm6 1c0,0 0,0 0,0l0 0c0,0 0,0 0,0 0,0 0,-1 0,-1 0,0 0,0 0,1zm-6 -1l0 0c0,0 0,1 0,1l0 0c0,0 0,-1 0,-1l0 0c0,0 0,0 0,0zm0 0l0 0c0,0 0,0 0,0l0 0c0,0 0,0 0,0zm6 0l0 1 0 0 0 0 0 0c0,0 0,0 0,0l0 -1c0,0 0,0 0,0zm-7 0l0 0c0,0 0,0 0,1 1,0 1,0 1,0 -1,-1 -1,-1 -1,-1l0 0zm1 0l0 0c0,0 0,0 0,0l0 0c0,0 0,0 0,0l0 0zm0 0c0,0 0,0 0,0l0 0c0,0 0,0 0,0l0 0zm5 0c0,0 0,0 0,1l0 0 0 -1 0 0zm1 1l0 0 0 0 0 0 0 0zm-6 0l0 0c0,0 0,0 0,0l0 0c0,0 0,0 0,0l0 0zm5 0c0,0 0,0 0,0 0,0 1,0 1,0l0 0c0,0 0,0 0,0 0,0 0,0 0,0l-1 0zm-5 0l0 0c0,0 0,0 1,0 0,0 0,0 0,0l-1 0zm1 0c0,0 0,1 1,1l0 0 0 0c0,0 -1,0 -1,-1l0 0 0 0zm0 1l0 0c0,0 0,0 0,0l1 0 0 0 0 0 0 0 0 0c0,0 -1,0 -1,0 0,0 0,0 0,0l0 0zm0 0c0,0 0,0 0,0 0,0 0,0 0,0l0 0zm-1 0l0 0c0,0 0,0 0,0l0 0 0 0c0,0 0,0 0,0zm0 0c1,0 1,0 1,0l0 0c0,0 0,0 0,0l0 0c0,0 0,0 -1,0l0 0 0 0zm2 0l0 0c0,0 0,0 0,0l0 0c0,0 0,0 0,0 0,0 0,0 0,0l0 0 0 0 0 0zm0 0l0 0c0,0 0,0 0,0l1 0c0,0 0,0 0,0l0 0c0,0 0,0 0,0 0,0 0,0 0,0 0,0 -1,0 -1,0zm1 0l0 0 0 0 0 1 0 0c0,0 0,0 0,0l0 0c0,0 0,0 0,0l0 0c1,0 1,0 1,0l0 0c0,0 0,0 0,0l0 0 0 0c0,0 -1,0 -1,-1 0,0 0,0 0,0l0 0zm-2 0l0 1c0,0 1,0 1,0 0,0 0,0 -1,-1zm1 1l0 0c1,0 1,0 2,0l0 1 0 0 0 0 -1 -1c0,0 0,0 -1,0 0,0 0,0 0,0l0 0zm2 0l0 0c0,0 0,0 0,1l1 0 0 0 0 0c0,-1 -1,-1 -1,-1 0,0 0,0 0,0l0 0zm1 1c0,0 0,0 0,0l0 0c0,0 0,0 0,0l0 0zm-4 0c0,0 0,0 0,0l0 0c0,0 0,0 0,0l0 0c0,0 0,0 0,0 0,0 0,0 0,0zm5 0c0,0 0,0 0,1 0,-1 0,-1 0,-1l0 0zm-6 0l0 0 0 0c0,0 0,0 0,0l0 0 0 0c0,0 0,0 0,0zm7 0l0 1 0 0 0 0c0,0 0,0 0,0l0 0 0 0c0,0 0,-1 0,-1l0 0zm-1 0c0,1 0,1 0,1 0,0 0,0 0,-1l0 0zm-6 1l0 0c0,0 0,0 0,0l0 0 0 0 0 0 0 0c0,0 0,0 0,0l0 0c0,0 0,0 0,0 0,0 0,0 0,0l0 0 0 0c0,0 0,0 0,0zm-1 0c0,0 0,0 0,0l0 0c0,0 0,0 0,0l0 0 0 0zm7 0c0,0 0,0 0,0l0 0c0,0 0,0 0,0l0 0zm-7 0c0,0 0,0 0,0l0 0 0 0c0,0 0,0 0,0zm1 0c0,0 0,0 0,0 0,0 0,0 0,0l0 0zm1 0l0 0 0 0 0 0 0 0c0,0 0,0 0,0zm-1 0l0 0 0 1c0,0 0,0 0,-1 0,0 0,0 0,0zm2 1c0,0 0,0 0,0 0,0 0,0 0,0zm-1 0l0 0c0,0 1,0 1,0l0 0 0 0c0,0 0,0 0,0 0,0 -1,0 -1,0 0,0 0,0 0,0z"/>
  <path id="1" class="fil25" d="M577 308l0 0c0,0 0,0 0,0l0 1c0,0 0,0 0,0l0 0 0 0c0,0 0,0 0,0 0,0 0,0 0,0 0,1 0,2 -1,2l0 2 0 0 0 0c0,0 0,0 0,0 0,0 1,0 1,-1 0,0 0,0 0,0 1,0 1,0 1,1 0,0 0,0 0,0l0 0c0,0 0,0 0,1 0,0 0,0 0,0 0,0 0,0 0,0l0 0c0,1 0,1 1,1 0,0 0,0 0,0l0 0c0,1 0,1 -1,1l0 0 0 0 0 0c0,0 -1,-1 -1,-1 0,0 0,0 0,0l0 -1c0,0 0,0 0,0 0,0 0,0 0,0 0,-1 0,-1 0,-1 0,0 0,0 -1,1 0,0 0,1 0,1l0 0c0,1 0,1 0,1 0,0 0,0 0,0 0,0 -1,0 -1,0l0 0 0 0 0 0 0 0 0 0 0 0 0 0c0,0 0,0 0,0l0 0 0 0 0 0c0,0 0,0 0,0l0 -1c0,0 0,0 0,0l0 0 0 0 0 0c0,0 0,0 0,0l0 0c0,0 0,0 0,0l0 0 0 0 0 -1c0,0 0,0 0,0l0 0 0 0c0,0 0,0 0,-1l0 -1c0,0 0,0 0,0 0,0 0,0 0,0l0 0c0,0 0,-1 1,-2l0 0c0,0 0,0 0,0 0,-1 0,-1 0,-1l0 -1c0,0 0,0 0,0l0 0 0 0c0,0 0,0 0,0 0,0 0,0 0,0l0 0c0,0 0,0 0,0l0 0c1,0 1,0 1,0zm-1 1c0,0 0,1 0,2l0 0 0 0 0 -1 0 0c0,0 0,1 0,1 0,0 0,0 0,0 -1,1 -1,1 -1,1 0,0 0,0 0,0l0 2c0,0 0,0 0,0 0,0 0,1 0,1l0 0 0 0c0,-1 0,-1 0,-2 0,0 0,0 0,0 0,0 0,0 1,-1 0,0 0,0 0,0 0,0 0,0 0,0l0 0 0 0 0 0c0,0 0,0 0,0 0,0 0,0 0,-1l0 0 0 0 0 0c0,0 0,0 0,-1 0,0 0,0 0,0 0,0 0,0 0,0l0 0 0 -1 0 0 0 0zm1 0l0 0 0 0 0 0c0,0 0,0 0,0zm0 1l0 0 0 0 0 0c0,0 0,0 0,0 0,0 0,0 0,0l0 0zm-1 1l0 0 0 0c0,0 0,0 0,0l0 0c0,0 0,0 0,0zm0 1l0 0 0 0 0 0 0 0 0 0 0 0zm0 0l0 1 0 0 0 -1 0 0zm2 0c0,0 0,1 0,1 0,0 0,0 0,0l0 0c0,0 0,-1 0,-1zm-2 1l0 0c0,0 0,0 0,0 0,0 0,0 0,0zm0 0c-1,0 -1,1 -1,1l0 0c0,0 0,-1 1,-1l0 0 0 0zm1 0c0,0 0,1 1,1l0 0 0 0 0 -1 -1 0zm1 1l0 0 0 0 0 0c0,1 0,1 0,1l0 0c0,0 0,0 0,0 0,0 0,0 0,0 0,0 0,0 0,-1l0 0c0,0 0,0 0,0 0,0 0,0 0,0l0 0c0,0 0,0 0,0zm0 0l0 0 0 0c0,0 0,0 0,0l0 0c0,0 0,0 0,0 0,0 0,1 0,1l0 0 0 -1c0,0 0,0 0,0zm0 0c0,0 0,0 0,0l0 0c0,0 0,0 0,0l0 0c0,0 0,1 0,1l0 0c0,0 0,0 0,0l0 0c0,0 0,0 0,0l0 0c0,-1 0,-1 0,-1 0,0 0,0 0,0zm-3 1l0 0 0 0 0 -1c0,0 0,1 0,1zm3 0l0 0c0,0 0,0 0,0l0 0c0,0 0,0 0,0l0 0zm-3 1l0 0 0 0 0 0 0 0z"/>
  <path id="2" class="fil25" d="M582 313l0 0c0,0 0,0 0,0 0,0 1,0 1,0l0 0c-1,0 -1,0 -1,0l0 0c0,0 0,0 0,0l0 0c0,0 0,0 -1,0 0,0 0,0 0,0 0,0 0,0 0,0l0 0 0 0c0,0 -1,0 -1,0 0,1 0,1 0,1 0,0 0,0 0,1 0,0 0,0 0,0l0 0c0,0 0,0 0,1 1,-1 1,-1 1,-1 0,0 0,0 0,-1 0,0 0,0 0,0l0 -1 0 0c1,0 1,0 1,0l0 0 0 1c0,0 0,0 0,0l0 0 0 0c0,0 0,1 0,1 0,0 0,0 0,0 0,0 0,0 0,0 0,0 0,0 0,0 0,0 0,0 0,0 0,0 0,0 0,0l1 0 0 0 0 0 0 0 0 0 0 0 0 0c0,0 0,0 0,0l0 0c0,0 0,1 0,1 0,0 -1,0 -1,0 0,0 0,0 -1,0l0 0 0 -1 0 0c0,1 -1,1 -1,1 0,0 0,0 0,0 -1,0 -1,0 -1,0 0,0 0,-1 0,-1 0,0 0,0 0,-1l0 0c0,0 0,0 0,0l0 0c0,0 0,-1 1,-1 1,0 1,0 2,0zm-3 1l0 0 0 0c0,0 0,0 0,0 0,0 0,0 0,0 0,0 0,0 0,0 0,0 0,0 0,0l0 0zm0 0l0 0 0 1c0,0 0,-1 0,-1l0 0 0 0zm2 0c0,1 0,1 0,1l0 0 0 0 1 -1 -1 0zm0 1l1 0c0,0 0,0 0,0 0,0 0,0 -1,0zm-2 0l0 0 1 0 0 0 0 0 -1 0zm0 0l0 0c0,0 0,0 0,0l0 0 0 0c0,0 0,0 0,0l0 0zm2 0l0 0 0 0c0,0 1,0 1,0l0 0 0 0c-1,0 -1,0 -1,0z"/>
  <path id="3" class="fil25" d="M585 312c0,0 0,0 0,0 0,1 0,2 -1,3l0 0c0,0 0,0 0,0 1,0 1,0 2,-1 0,-1 0,-1 0,-2l0 0 0 0c0,0 0,0 1,0 0,0 0,0 0,0l0 0 0 0c0,1 0,1 0,3 0,0 0,0 0,0l0 0 0 0 0 0c0,0 0,0 0,0 0,0 0,0 0,0l0 0c0,0 0,0 1,0 0,0 0,0 0,0l0 0 0 0c0,0 0,0 0,0l0 0 0 0 0 0c0,1 -1,1 -1,1 0,0 0,0 -1,0 0,0 0,0 0,0 0,0 0,-1 0,-1 -1,1 -1,1 -2,1 0,0 0,0 0,0 0,0 -1,0 -1,0l0 0c0,-1 0,-1 0,-1 0,-1 0,-1 0,-1 1,-1 1,-1 1,-1l0 0c0,-1 0,-1 0,-1l0 0 0 0 0 0c1,0 1,0 1,0zm0 0l0 1 0 0c0,-1 0,-1 0,-1l0 0 0 0zm-1 1l0 0 0 0 0 0c0,0 0,0 0,0zm2 0c0,0 0,1 0,1l0 0 0 -1 0 0zm-1 0c-1,0 -1,0 -1,0l0 1c1,0 1,-1 1,-1l0 0zm1 0c0,0 0,0 0,0l-1 1 0 0 0 0c1,0 1,0 1,0 0,0 0,0 0,0l0 0c0,-1 0,-1 0,-1l0 0zm0 0c0,1 0,1 0,1l0 0c0,0 0,0 0,0l0 0 0 1 0 0 0 0c0,0 0,-1 0,-1l0 0c0,0 0,0 0,0l0 -1zm-2 1c0,0 0,0 0,0l0 0 0 0c0,0 0,0 0,0l0 0zm0 0c0,0 0,0 0,0 0,0 0,0 0,0zm2 0l0 0 0 0c0,0 0,0 0,0 0,0 0,0 0,0zm0 0c0,0 0,1 -1,1l0 0 1 0c0,0 0,0 0,0 0,0 0,0 0,-1l0 0 0 0zm-2 0l0 0 0 1 0 0 0 0 0 0c0,0 0,0 0,0l0 0 0 -1c0,0 0,0 0,0zm2 1c0,0 0,0 0,0 0,0 0,0 0,0l0 0 0 0 0 0c0,0 0,0 0,0l0 0 0 0zm0 0c0,0 0,0 0,0l0 0 0 0 0 0c0,0 0,0 0,0zm-2 0l0 0c0,0 0,0 0,0 0,0 0,1 0,1 0,0 0,0 0,0l0 0 0 0c0,0 0,0 0,0 0,-1 0,-1 0,-1l0 0 0 0 0 0zm2 0c0,0 0,0 0,0l0 0 0 0c0,0 0,0 0,1 0,-1 0,-1 0,-1l0 0 0 0 0 0 0 0c0,0 0,0 0,0 0,0 0,0 0,0l0 0zm-3 0c0,0 0,0 0,0 0,0 0,1 0,1l1 0 0 -1 -1 0 0 0zm3 0l0 0c0,0 0,1 1,1l0 0 0 0c0,0 0,0 -1,0 0,0 0,-1 0,-1z"/>
  <path id="4" class="fil25" d="M589 312c1,0 2,0 2,0 0,1 0,1 0,1 0,0 0,1 0,1 0,0 0,1 0,1l0 0c0,0 0,0 0,0 0,0 0,0 0,0 1,0 1,0 1,0l0 0 0 0c0,0 0,0 0,0l0 0 0 0 0 0 0 0 0 0c-1,1 -1,1 -2,1 0,0 -1,0 -1,0 0,0 0,0 0,-1 0,0 0,-1 1,-2l0 0c0,-1 0,-1 -1,-1 0,0 0,0 0,1 0,0 0,0 0,0l0 0c0,0 0,0 0,0 -1,0 -1,0 -1,0l0 0c0,0 0,0 0,0 0,0 0,0 0,0 0,-1 0,-1 0,-1 0,0 1,0 1,0zm-1 0l0 0c1,0 1,0 1,0l0 0c0,0 -1,0 -1,0zm0 1l0 0c0,0 0,0 0,0l0 0c0,0 0,0 0,0 0,0 0,0 0,0zm2 0c0,0 0,0 0,0l0 0c0,0 0,0 0,0l0 0 0 0zm0 0c0,1 0,1 0,1 0,0 0,0 0,-1l0 0zm0 0c0,0 0,1 0,1l0 0c0,0 0,0 0,-1l0 0zm1 0l0 0c0,0 0,0 0,0 0,0 0,0 0,0 0,1 0,1 0,1l0 0c0,0 0,0 -1,0l0 0 1 0c0,0 0,-1 0,-1l0 0c0,0 0,0 0,0zm-1 1c0,0 0,0 0,0l0 0c0,0 0,0 0,0l0 0zm0 0c-1,1 -1,1 -1,1 0,0 0,0 0,0 0,0 0,0 0,0 0,0 0,0 0,0l1 0 0 0 -1 0c1,0 1,0 1,-1l0 0zm0 1c0,0 0,0 0,0l0 0c0,0 0,0 0,0l0 0 0 -1c0,0 0,1 0,1zm0 0l0 0 0 0 0 0c0,0 0,0 0,0l0 0zm0 1l0 0c0,0 0,0 0,0l0 0 0 0c0,0 0,0 0,0z"/>
  <path id="5" class="fil25" d="M593 312c0,0 0,0 0,0l0 0 0 0c0,0 0,0 0,0l0 0c0,0 0,1 0,2 0,0 -1,0 -1,1 0,0 1,0 1,0l0 0c0,0 0,0 1,-1 0,-1 0,-2 0,-2 0,0 0,0 1,0 0,0 0,0 0,0l0 0c0,0 0,1 0,2 -1,0 -1,1 -1,1l1 0 0 0c0,0 0,0 0,-1 0,0 0,0 0,0l1 -1c0,-1 0,-1 1,-1l0 0 0 0 0 0c0,0 0,1 -1,2 0,0 0,0 0,0l0 1c0,0 1,0 1,0 0,0 0,0 1,-1l0 0 0 0c0,0 -1,0 -1,0l1 0c0,0 0,0 0,0l0 0 0 0c0,0 0,0 0,1l0 0 0 -1 0 0c0,0 0,1 0,1l0 0 0 0c0,0 -1,0 -1,1 0,0 -1,0 -1,0l0 0c0,0 0,0 0,0 0,0 -1,-1 -1,-1l0 0c0,0 0,1 -1,1l0 0c0,0 0,0 0,-1 0,0 0,0 -1,0 0,1 0,1 -1,1l0 0 0 0c0,0 0,0 0,0 0,0 -1,0 -1,-1l0 0c0,0 0,0 0,0l0 0c1,-1 1,-2 1,-2 0,-1 0,-1 0,-1l0 0c0,0 0,0 1,0 0,0 0,0 0,0l0 0zm3 0l0 0 0 0 1 0 -1 0zm-2 1l0 0c0,0 0,0 0,-1 0,0 0,1 0,1zm-1 -1c0,0 0,1 -1,1 0,0 0,1 0,1l0 0 0 0c0,0 0,-1 1,-1 0,0 0,0 0,-1l0 0zm1 1l0 0 0 0 0 0c0,0 0,0 0,0l0 0zm-2 0l0 0 0 0c0,0 0,0 1,0l-1 0c0,0 0,0 0,0zm4 0l0 0 0 0 0 0 0 0 0 0 0 0zm-3 0c0,0 -1,0 -1,0l0 0 1 0 0 0 0 0zm3 0c0,0 0,0 0,1l0 0 0 0 0 -1 0 0zm0 1l0 0c0,0 0,-1 0,-1l0 0c0,0 0,0 0,1zm-2 -1c0,0 0,0 0,1 0,0 0,-1 0,-1 0,0 0,1 0,1l0 0c0,0 0,0 0,-1 0,0 0,1 0,1 0,0 0,0 0,0l0 0c0,0 0,0 0,-1l0 0zm-2 1c0,0 0,0 0,0 0,0 0,0 0,0l0 0 0 0zm4 0c0,0 0,0 0,0l0 0 0 0c0,0 0,0 0,0 0,0 0,0 0,0l0 0 0 0zm-4 1c0,0 0,0 0,0l0 0c0,0 0,0 0,0l0 0c0,0 0,0 0,0 0,0 0,0 0,0 0,0 0,-1 0,-1l0 0c0,0 0,0 0,1zm1 0l0 0c0,0 0,0 1,-1l0 0c0,0 0,0 -1,1zm1 -1c0,0 0,0 0,0l0 0 0 0 0 0 0 0zm0 0c0,1 0,1 0,1 0,0 0,0 0,0l0 0 0 -1 0 0zm1 0c0,0 0,1 0,1l0 0 0 0c0,0 0,0 0,-1l0 0 0 0zm1 1c0,0 0,0 0,0l0 0c0,0 0,0 0,0 0,0 0,0 0,0zm0 0c0,0 0,0 0,0l0 0c0,0 0,0 0,0l0 0zm-4 0l0 0c0,0 0,1 0,1l0 0c0,-1 0,-1 0,-1l0 0c0,0 0,0 0,0l0 0zm3 0c0,0 0,0 0,0 0,0 0,0 0,0 0,0 0,0 0,0zm-1 0c0,0 0,0 0,0 0,0 0,0 0,0l0 0c0,0 0,0 0,0l0 0zm2 0c0,0 0,0 0,0 0,0 0,0 0,0 0,0 0,0 0,0 0,0 0,0 0,0zm0 0c0,0 0,0 0,0l1 0c0,0 0,0 0,0 0,0 -1,0 -1,0zm-4 0l0 0c0,0 0,1 0,1l0 0 0 -1 0 0zm0 1c0,0 0,0 0,0l0 0 0 0c0,0 0,0 0,0l0 0z"/>
  <path id="6" class="fil25" d="M600 313l0 0c0,0 0,0 0,0 1,0 1,0 1,0l0 0c0,0 0,0 0,0l0 0c-1,0 -1,0 -1,0l0 0c0,0 0,0 0,0 0,0 0,0 0,0 0,0 -1,0 -1,0l0 0 0 0c0,0 0,0 0,0 0,1 0,1 0,1 -1,0 -1,0 -1,1 0,0 0,0 0,0l0 0c0,0 0,0 1,1 0,-1 0,-1 0,-1 0,0 1,0 1,-1 0,0 0,0 0,0l0 -1 0 0c0,0 0,0 1,0l0 0 0 1c0,0 0,0 0,0l0 0 0 0c0,0 0,1 0,1 0,0 0,0 0,0 0,0 0,0 0,0 0,0 0,0 0,0 0,0 0,0 0,0 0,0 0,0 0,0l0 0 1 0 0 0 0 0 0 0 0 0 0 0c0,0 0,0 0,0l0 0c0,0 0,1 -1,1 0,0 0,0 0,0 -1,0 -1,0 -1,0l0 0 0 -1 0 0c-1,1 -1,1 -2,1 0,0 0,0 0,0 0,0 -1,0 -1,0 0,0 0,-1 0,-1 0,0 0,0 0,-1l0 0c0,0 0,0 1,0l0 0c0,0 0,-1 1,-1 0,0 1,0 1,0zm-2 1l0 0 0 0c0,0 0,0 0,0 0,0 0,0 0,0 0,0 0,0 0,0 0,0 0,0 0,0l0 0zm0 0l0 0 0 1c0,0 0,-1 0,-1l0 0 0 0zm2 0c0,1 0,1 0,1l0 0 0 0 0 -1 0 0zm0 1l0 0c0,0 0,0 0,0 0,0 0,0 0,0zm-2 0l0 0 0 0 0 0 0 0 0 0zm0 0l0 0c0,0 0,0 0,0l0 0 0 0c0,0 0,0 0,0l0 0zm2 0l0 0 0 0c0,0 0,0 0,0l0 0 0 0c0,0 0,0 0,0z"/>
  <polygon class="fil26" points="294,507 293,507 281,497 281,497 281,507 280,507 280,486 281,486 281,496 281,496 292,486 294,486 283,496 "/>
  <path id="1" class="fil26" d="M308 500l-9 0 -2 7 -2 0 8 -21 1 0 8 21 -1 0 -3 -7zm-9 -1l9 0 -4 -11 0 0 -5 11z"/>
  <polygon id="2" class="fil26" points="329,507 327,507 316,497 316,497 316,507 314,507 314,486 316,486 316,496 316,496 326,486 328,486 317,496 "/>
  <path id="3" class="fil26" d="M344 507c-1,0 -2,0 -3,0 -1,0 -2,-1 -2,-1 -1,-1 -2,-2 -2,-2 -1,-1 -1,-2 -1,-3l1 0c0,1 0,1 1,2 0,1 1,1 1,2 1,0 2,1 3,1 0,0 1,0 2,0 1,0 2,0 3,0 1,-1 2,-2 3,-2 0,-1 1,-2 1,-3 1,-1 1,-3 1,-4l-11 0 0 -1 11 0c0,-1 0,-3 -1,-4 0,-1 -1,-2 -1,-2 -1,-1 -2,-2 -3,-2 -1,-1 -2,-1 -3,-1 -1,0 -2,0 -2,1 -1,0 -2,0 -3,1 0,0 -1,1 -1,2 -1,0 -1,1 -1,2l-1 0c0,-1 0,-1 0,-2 1,-1 1,-1 1,-2 1,0 1,-1 2,-1 0,0 1,-1 1,-1 1,0 1,-1 2,-1 1,0 1,0 2,0 2,0 3,0 4,1 1,0 2,1 3,2 0,1 1,2 1,3 1,2 1,3 1,5 0,1 0,3 -1,4 0,1 -1,3 -1,3 -1,1 -2,2 -3,3 -1,0 -2,0 -4,0z"/>
  <polygon id="4" class="fil26" points="362,507 362,487 355,487 355,486 370,486 370,487 363,487 363,507 "/>
  <path id="5" class="fil26" d="M381 486c1,0 3,0 4,1 1,0 2,1 3,2 0,1 1,2 1,3 1,2 1,3 1,5 0,1 0,3 -1,4 0,1 -1,2 -1,3 -1,1 -2,2 -3,3 -1,0 -3,0 -4,0 -1,0 -3,0 -4,0 -1,-1 -2,-2 -3,-3 -1,-1 -1,-2 -2,-3 0,-1 0,-3 0,-4 0,-2 0,-3 0,-5 1,-1 1,-2 2,-3 1,-1 2,-2 3,-2 1,-1 3,-1 4,-1zm0 1c-1,0 -2,0 -3,1 -1,0 -2,1 -3,2 -1,1 -1,2 -1,3 -1,1 -1,2 -1,4 0,1 0,2 1,4 0,1 0,2 1,3 1,0 2,1 3,2 1,0 2,0 3,0 1,0 2,0 3,0 1,-1 2,-2 3,-2 0,-1 1,-2 1,-3 1,-2 1,-3 1,-4 0,-2 0,-3 -1,-4 0,-1 -1,-2 -1,-3 -1,-1 -2,-2 -3,-2 -1,-1 -2,-1 -3,-1z"/>
  <path id="6" class="fil26" d="M406 486c1,0 2,1 2,1 1,0 2,1 2,1 1,1 1,1 2,2 0,1 0,2 0,3 0,0 0,1 0,2 -1,1 -1,1 -2,2 0,1 -1,1 -2,1 0,1 -1,1 -2,1l-6 0 0 8 -1 0 0 -21 7 0zm-6 12l5 0c1,0 2,0 3,-1 0,0 1,0 2,-1 0,0 0,-1 1,-1 0,-1 0,-2 0,-2 0,-1 0,-2 0,-3 -1,0 -1,-1 -1,-1 -1,-1 -2,-1 -2,-1 -1,0 -2,-1 -3,-1l-5 0 0 11z"/>
  <path id="7" class="fil26" d="M427 500l-10 0 -2 7 -1 0 7 -21 2 0 7 21 -1 0 -2 -7zm-9 -1l8 0 -4 -11 0 0 -4 11z"/>
  <path id="8" class="fil26" d="M446 501c0,1 0,2 0,2 -1,1 -1,2 -2,2 0,1 -1,1 -2,2 -1,0 -2,0 -3,0l-6 0 0 -21 11 0 0 1 -10 0 0 8 5 0c1,0 2,0 3,1 1,0 2,0 2,1 1,0 1,1 2,2 0,0 0,1 0,2zm-7 5c1,0 2,0 3,0 0,-1 1,-1 1,-1 1,-1 1,-1 2,-2 0,-1 0,-1 0,-2 0,-1 0,-1 0,-2 -1,-1 -1,-1 -2,-1 0,-1 -1,-1 -1,-1 -1,-1 -2,-1 -3,-1l-5 0 0 10 5 0z"/>
  <path id="9" class="fil26" d="M457 486c2,0 3,0 4,1 1,0 2,1 3,2 1,1 2,2 2,3 0,2 1,3 1,5 0,1 -1,3 -1,4 0,1 -1,2 -2,3 -1,1 -2,2 -3,3 -1,0 -2,0 -4,0 -1,0 -2,0 -3,0 -1,-1 -2,-2 -3,-3 -1,-1 -2,-2 -2,-3 0,-1 -1,-3 -1,-4 0,-2 1,-3 1,-5 0,-1 1,-2 2,-3 1,-1 2,-2 3,-2 1,-1 2,-1 3,-1zm0 1c-1,0 -2,0 -3,1 -1,0 -2,1 -2,2 -1,1 -2,2 -2,3 0,1 -1,2 -1,4 0,1 1,2 1,4 0,1 1,2 2,3 0,0 1,1 2,2 1,0 2,0 3,0 2,0 3,0 4,0 1,-1 2,-2 2,-2 1,-1 2,-2 2,-3 0,-2 0,-3 0,-4 0,-2 0,-3 0,-4 0,-1 -1,-2 -2,-3 0,-1 -1,-2 -2,-2 -1,-1 -2,-1 -4,-1z"/>
  <polygon id="10" class="fil26" points="475,507 475,487 468,487 468,486 484,486 484,487 477,487 477,507 "/>
  <path id="11" class="fil26" d="M498 500l-10 0 -2 7 -1 0 7 -21 2 0 7 21 -1 0 -2 -7zm-9 -1l8 0 -4 -11 0 0 -4 11z"/>
  <polygon id="12" class="fil26" points="516,507 504,507 504,486 516,486 516,487 505,487 505,496 515,496 515,497 505,497 505,506 516,506 "/>
  <polygon id="13" class="fil26" points="525,507 525,487 518,487 518,486 533,486 533,487 526,487 526,507 "/>
  <path id="14" class="fil26" d="M534 491c0,0 1,-1 1,-2 0,0 1,-1 1,-1 1,-1 1,-1 2,-1 1,-1 1,-1 2,-1 1,0 2,0 2,1 1,0 2,0 2,1 1,0 1,1 1,1 1,1 1,2 1,2 0,1 0,1 -1,2 0,0 0,0 0,1 0,0 -1,1 -1,1 0,0 -1,1 -1,1 -1,0 -1,1 -2,1 0,0 0,1 0,1 -1,0 -1,0 -1,1 0,0 0,0 0,1l0 1 -1 0 0 -1c0,-1 0,-1 0,-2 0,0 0,0 1,-1 0,0 0,0 0,-1 1,0 1,0 2,-1 0,0 1,0 1,-1 0,0 1,0 1,-1 0,0 0,0 0,-1 0,0 0,0 0,-1 0,0 0,-1 0,-1 0,-1 0,-1 -1,-2 0,0 -1,0 -1,-1 -1,0 -1,0 -2,0 -1,0 -1,0 -2,0 0,1 -1,1 -1,1 0,1 -1,1 -1,2 0,0 0,1 0,1l-2 0zm6 16c-1,0 -1,0 -1,0 0,0 0,-1 0,-1 0,0 0,0 0,-1 0,0 0,0 1,0 0,0 0,0 0,0 1,1 1,1 1,1 0,0 0,1 -1,1 0,0 0,0 0,0z"/>
  <path class="fil27" d="M245 32c-1,0 -2,0 -3,-1 -2,0 -3,-1 -3,-2 -1,-1 -2,-2 -2,-3 -1,-1 -1,-3 -1,-5 0,-1 0,-3 1,-4 0,-1 1,-2 2,-3 0,-1 1,-2 3,-2 1,-1 2,-1 3,-1 1,0 2,0 3,0 1,1 2,1 3,2 0,0 1,1 1,2 1,1 1,2 1,3l-1 0c0,-1 0,-2 -1,-3 0,0 -1,-1 -1,-1 -1,-1 -1,-1 -2,-2 -1,0 -2,0 -3,0 -1,0 -2,0 -3,1 -1,0 -2,1 -2,2 -1,0 -2,1 -2,3 0,1 -1,2 -1,3 0,2 1,3 1,4 0,2 1,3 2,3 0,1 1,2 2,2 1,1 2,1 3,1 1,0 2,0 3,0 1,-1 1,-1 2,-1 1,-1 1,-1 1,-2 1,-1 1,-1 1,-2l1 0c0,1 0,2 -1,2 0,1 -1,2 -1,2 -1,1 -2,1 -3,2 -1,0 -2,0 -3,0z"/>
  <path id="1" class="fil27" d="M268 25l-10 0 -2 7 -1 0 8 -21 1 0 8 21 -2 0 -2 -7zm-9 -1l8 0 -4 -11 0 0 -4 11z"/>
  <path id="2" class="fil27" d="M279 6c0,1 0,1 0,1 0,1 0,1 1,1 0,1 0,1 0,1 1,0 1,0 2,0 0,0 0,0 1,0 0,0 1,0 1,-1 0,0 0,0 0,-1 1,0 1,0 1,-1l0 0c0,1 0,1 0,2 0,0 0,1 -1,1 0,0 0,0 -1,1 0,0 -1,0 -1,0 -1,0 -1,0 -2,0 0,-1 -1,-1 -1,-1 0,0 -1,-1 -1,-1 0,-1 0,-1 0,-2l1 0zm9 7l0 0 -13 19 -1 0 0 -21 1 0 0 19 0 0 13 -19 1 0 0 21 -1 0 0 -19z"/>
  <polygon id="3" class="fil27" points="299,32 299,12 292,12 292,11 307,11 307,12 300,12 300,32 "/>
  <polygon id="4" class="fil27" points="310,35 311,29 312,29 311,35 "/>
  <polygon id="5" class="fil27" points="323,32 323,11 334,11 334,12 324,12 324,32 "/>
  <path id="6" class="fil27" d="M340 25c0,1 0,1 0,2 0,0 0,1 0,1 0,1 -1,1 -1,2 0,0 0,0 0,1l0 0 12 0 0 -19 -10 0 -1 13zm-3 11l-1 0 0 -5 1 0c0,0 1,-1 1,-1 0,0 0,-1 1,-1 0,-1 0,-1 0,-2 0,-1 0,-1 0,-2l1 -14 12 0 0 20 3 0 0 5 -2 0 0 -4 -16 0 0 4z"/>
  <polygon id="7" class="fil27" points="369,32 357,32 357,11 369,11 369,12 358,12 358,21 368,21 368,22 358,22 358,31 369,31 "/>
  <polygon id="8" class="fil27" points="392,13 392,13 379,32 378,32 378,11 379,11 379,30 379,30 392,11 393,11 393,32 392,32 "/>
  <path id="9" class="fil27" d="M405 32c-1,0 -2,0 -3,-1 -1,0 -2,-1 -3,-2 -1,-1 -2,-2 -2,-3 0,-1 -1,-3 -1,-5 0,-1 1,-3 1,-4 0,-1 1,-2 2,-3 1,-1 2,-2 3,-2 1,-1 2,-1 3,-1 1,0 2,0 3,0 1,1 2,1 3,2 0,0 1,1 2,2 0,1 0,2 0,3l-1 0c0,-1 0,-2 0,-3 -1,0 -1,-1 -2,-1 -1,-1 -1,-1 -2,-2 -1,0 -2,0 -3,0 -1,0 -2,0 -3,1 -1,0 -2,1 -2,2 -1,0 -2,1 -2,3 0,1 -1,2 -1,3 0,2 1,3 1,4 0,2 1,3 2,3 0,1 1,2 2,2 1,1 2,1 3,1 1,0 2,0 3,0 1,-1 1,-1 2,-1 1,-1 1,-1 2,-2 0,-1 0,-1 0,-2l1 0c0,1 0,2 0,2 -1,1 -1,2 -2,2 -1,1 -2,1 -3,2 -1,0 -2,0 -3,0z"/>
  <polygon id="10" class="fil27" points="430,32 430,12 417,12 417,32 416,32 416,11 431,11 431,32 "/>
  <path id="11" class="fil27" d="M444 11c1,0 2,0 3,1 2,0 3,1 3,2 1,1 2,2 2,3 1,1 1,3 1,5 0,1 0,3 -1,4 0,1 -1,2 -2,3 0,1 -1,2 -3,2 -1,1 -2,1 -3,1 -2,0 -3,0 -4,-1 -1,0 -2,-1 -3,-2 -1,-1 -1,-2 -2,-3 0,-1 -1,-3 -1,-4 0,-2 1,-4 1,-5 1,-1 1,-2 2,-3 1,-1 2,-2 3,-2 1,-1 2,-1 4,-1zm0 1c-2,0 -3,0 -4,1 -1,0 -1,1 -2,2 -1,0 -1,1 -2,3 0,1 0,2 0,4 0,1 0,2 0,3 1,2 1,3 2,4 1,0 1,1 2,1 1,1 2,1 4,1 1,0 2,0 3,-1 1,0 2,-1 2,-1 1,-1 2,-2 2,-4 0,-1 1,-2 1,-3 0,-2 -1,-3 -1,-4 0,-2 -1,-3 -2,-3 0,-1 -1,-2 -2,-2 -1,-1 -2,-1 -3,-1z"/>
  <path id="12" class="fil27" d="M469 32l0 -20 -9 0 -1 13c0,1 0,2 0,3 0,1 -1,1 -1,2 0,1 -1,1 -1,1 -1,1 -1,1 -2,1 0,0 0,0 0,0 -1,0 -1,0 -1,0l0 -1c0,0 0,0 0,0 1,0 1,0 1,0 1,0 1,0 1,-1 1,0 1,0 1,-1 0,0 1,-1 1,-2 0,0 0,-1 0,-2l1 -14 11 0 0 21 -1 0z"/>
  <polygon id="13" class="fil27" points="488,32 488,22 475,22 475,32 474,32 474,11 475,11 475,21 488,21 488,11 489,11 489,32 "/>
  <polygon id="14" class="fil27" points="508,13 508,13 494,32 493,32 493,11 494,11 494,30 495,30 508,11 509,11 509,32 508,32 "/>
  <polygon id="15" class="fil27" points="518,32 518,12 511,12 511,11 527,11 527,12 520,12 520,32 "/>
  <polygon id="16" class="fil27" points="541,32 529,32 529,11 541,11 541,12 530,12 530,21 541,21 541,22 530,22 530,31 541,31 "/>
  <path id="17" class="fil27" d="M558 32l0 -20 -9 0 -1 13c0,1 0,2 -1,3 0,1 0,1 0,2 -1,1 -1,1 -2,1 0,1 -1,1 -1,1 -1,0 -1,0 -1,0 0,0 0,0 0,0l0 -1c0,0 0,0 0,0 0,0 0,0 1,0 0,0 1,0 1,-1 0,0 1,0 1,-1 0,0 0,-1 0,-2 1,0 1,-1 1,-2l0 -14 12 0 0 21 -1 0z"/>
  <path id="18" class="fil27" d="M563 11l1 0 0 9 5 0c1,0 2,0 3,0 1,0 2,1 2,1 1,1 1,1 2,2 0,1 0,2 0,3 0,1 0,2 0,2 -1,1 -1,2 -2,2 0,1 -1,1 -2,1 -1,1 -2,1 -3,1l-6 0 0 -21zm6 20c1,0 2,0 3,-1 0,0 1,0 1,-1 1,0 1,-1 1,-1 1,-1 1,-1 1,-2 0,-1 0,-2 -1,-2 0,-1 0,-2 -1,-2 0,0 -1,-1 -1,-1 -1,0 -2,0 -3,0l-5 0 0 10 5 0z"/>
  <polygon id="19" class="fil27" points="55,65 44,65 44,44 55,44 55,45 45,45 45,54 55,54 55,55 45,55 45,64 55,64 "/>
  <polygon id="20" class="fil27" points="65,65 57,44 58,44 66,63 66,63 73,44 74,44 66,65 "/>
  <polygon id="21" class="fil27" points="88,65 76,65 76,44 88,44 88,45 77,45 77,54 88,54 88,55 77,55 77,64 88,64 "/>
  <polygon id="22" class="fil27" points="91,65 91,44 93,44 106,63 106,63 106,44 107,44 107,65 106,65 93,46 92,46 92,65 "/>
  <polygon id="23" class="fil27" points="116,65 116,45 109,45 109,44 125,44 125,45 117,45 117,65 "/>
  <polygon id="24" class="fil27" points="124,57 124,56 133,56 133,57 "/>
  <path id="25" class="fil27" d="M138 65c0,0 0,0 0,0 -1,0 -1,0 -1,0l0 -1c0,0 0,0 1,0 0,0 0,0 0,0 1,0 1,0 1,0 1,-1 1,-1 2,-1 0,-1 0,-1 0,-2 1,0 1,-1 1,-1l-7 -16 1 0 7 15 0 0 6 -15 1 0 -6 15c-1,1 -1,2 -1,3 -1,0 -1,1 -2,1 0,1 -1,1 -1,2 -1,0 -1,0 -2,0z"/>
  <path id="26" class="fil27" d="M161 65c-2,0 -3,0 -4,-1 -1,0 -2,-1 -3,-2 -1,-1 -1,-2 -2,-3 0,-1 0,-3 0,-5 0,-1 0,-3 0,-4 1,-1 1,-2 2,-3 1,-1 2,-2 3,-2 1,-1 2,-1 4,-1 1,0 2,0 3,0 1,1 1,1 2,2 1,0 2,1 2,2 0,1 1,2 1,3l-1 0c0,-1 -1,-2 -1,-3 0,0 -1,-1 -2,-1 0,-1 -1,-1 -2,-2 0,0 -1,0 -2,0 -1,0 -2,0 -3,1 -1,0 -2,1 -3,2 -1,0 -1,1 -2,3 0,1 0,2 0,3 0,2 0,3 0,4 1,2 1,3 2,3 1,1 2,2 3,2 1,1 2,1 3,1 1,0 2,0 2,0 1,-1 2,-1 2,-1 1,-1 2,-1 2,-2 0,-1 1,-1 1,-2l1 0c0,1 -1,2 -1,2 0,1 -1,2 -2,2 0,1 -1,1 -2,2 -1,0 -2,0 -3,0z"/>
  <path id="27" class="fil27" d="M185 65l0 -20 -9 0 -1 13c0,1 0,2 0,3 0,1 -1,1 -1,2 0,1 -1,1 -1,1 -1,1 -1,1 -2,1 0,0 0,0 -1,0 0,0 0,0 0,0l0 -1c0,0 0,0 0,0 1,0 1,0 1,0 0,0 1,0 1,-1 1,0 1,0 1,-1 0,0 1,-1 1,-2 0,0 0,-1 0,-2l1 -14 11 0 0 21 -1 0z"/>
  <path id="28" class="fil27" d="M192 65c0,0 -1,0 -1,0 0,0 0,0 0,0l0 -1c0,0 0,0 0,0 0,0 1,0 1,0 0,0 1,0 1,0 1,-1 1,-1 1,-1 1,-1 1,-1 1,-2 0,0 1,-1 1,-1l-7 -16 1 0 6 15 1 0 6 -15 1 0 -7 15c0,1 0,2 -1,3 0,0 -1,1 -1,1 0,1 -1,1 -1,2 -1,0 -1,0 -2,0z"/>
  <polygon id="29" class="fil27" points="206,65 206,44 218,44 218,45 207,45 207,65 "/>
  <path id="30" class="fil27" d="M235 65c-2,0 -3,0 -4,-1 -1,0 -2,-1 -3,-2 0,-1 -1,-2 -2,-3 0,-1 0,-3 0,-5 0,-1 0,-3 0,-4 1,-1 1,-2 2,-3 1,-1 2,-2 3,-2 1,-1 2,-1 4,-1 1,0 2,0 3,0 1,1 2,1 2,2 1,0 2,1 2,2 1,1 1,2 1,3l-1 0c0,-1 -1,-2 -1,-3 0,0 -1,-1 -2,-1 0,-1 -1,-1 -2,-2 0,0 -1,0 -2,0 -1,0 -2,0 -3,1 -1,0 -2,1 -3,2 -1,0 -1,1 -1,3 -1,1 -1,2 -1,3 0,2 0,3 1,4 0,2 0,3 1,3 1,1 2,2 3,2 1,1 2,1 3,1 1,0 2,0 2,0 1,-1 2,-1 3,-1 0,-1 1,-1 1,-2 0,-1 1,-1 1,-2l1 0c0,1 0,2 -1,2 0,1 -1,2 -2,2 0,1 -1,1 -2,2 -1,0 -2,0 -3,0z"/>
  <path id="31" class="fil27" d="M254 44c2,0 3,0 4,1 1,0 2,1 3,2 1,1 1,2 2,3 0,1 0,3 0,5 0,1 0,3 0,4 -1,1 -1,2 -2,3 -1,1 -2,2 -3,2 -1,1 -2,1 -4,1 -1,0 -3,0 -4,-1 -1,0 -2,-1 -3,-2 0,-1 -1,-2 -1,-3 -1,-1 -1,-3 -1,-4 0,-2 0,-4 1,-5 0,-1 1,-2 1,-3 1,-1 2,-2 3,-2 1,-1 3,-1 4,-1zm0 1c-1,0 -2,0 -3,1 -1,0 -2,1 -3,2 0,0 -1,1 -1,3 -1,1 -1,2 -1,4 0,1 0,2 1,3 0,2 1,3 1,3 1,1 2,2 3,2 1,1 2,1 3,1 1,0 2,0 3,-1 1,0 2,-1 3,-2 1,0 1,-1 2,-3 0,-1 0,-2 0,-3 0,-2 0,-3 0,-4 -1,-2 -1,-3 -2,-3 -1,-1 -2,-2 -3,-2 -1,-1 -2,-1 -3,-1z"/>
  <path id="32" class="fil27" d="M273 44c1,0 2,0 3,1 1,0 1,0 2,1 0,0 1,1 1,2 0,1 1,1 1,2 0,1 -1,2 -1,3 0,1 -1,1 -1,2 -1,0 -1,1 -2,1 -1,0 -2,1 -3,1l-6 0 0 8 -1 0 0 -21 7 0zm-6 12l6 0c1,0 1,-1 2,-1 1,0 1,0 2,-1 0,0 1,-1 1,-1 0,-1 0,-2 0,-3 0,0 0,-1 0,-2 0,0 -1,-1 -1,-1 -1,-1 -1,-1 -2,-1 -1,-1 -1,-1 -2,-1l-6 0 0 11z"/>
  <polygon id="33" class="fil27" points="295,65 283,65 283,44 295,44 295,45 284,45 284,54 294,54 294,55 284,55 284,64 295,64 "/>
  <path id="34" class="fil27" d="M298 65l0 -21 7 0c1,0 1,0 2,1 1,0 1,0 2,1 1,0 1,1 1,1 0,1 1,2 1,2 0,1 0,1 -1,2 0,1 0,1 0,1 -1,1 -1,1 -2,1 0,1 -1,1 -1,1l0 0c0,0 1,0 2,1 0,0 1,0 1,1 1,0 1,1 1,1 1,1 1,2 1,2 0,1 0,2 -1,3 0,0 -1,1 -1,1 -1,1 -1,1 -2,1 -1,1 -2,1 -3,1l-7 0zm1 -11l5 0c1,0 2,0 2,-1 1,0 2,0 2,0 1,-1 1,-1 1,-2 0,0 1,-1 1,-2 0,0 -1,-1 -1,-1 0,-1 0,-1 -1,-2 0,0 -1,0 -1,0 -1,-1 -2,-1 -3,-1l-5 0 0 9zm6 10c1,0 1,0 2,-1 1,0 2,0 2,0 1,-1 1,-1 1,-2 0,0 1,-1 1,-2 0,0 -1,-1 -1,-2 0,0 -1,-1 -1,-1 -1,0 -1,-1 -2,-1 -1,0 -2,0 -3,0l-5 0 0 9 6 0z"/>
  <polygon id="35" class="fil27" points="329,65 329,55 316,55 316,65 315,65 315,44 316,44 316,54 329,54 329,44 330,44 330,65 "/>
  <path id="36" class="fil27" d="M336 65c-1,0 -1,0 -1,0 0,0 0,0 0,0l0 -1c0,0 0,0 0,0 0,0 0,0 1,0 0,0 0,0 1,0 0,-1 1,-1 1,-1 0,-1 0,-1 1,-2 0,0 0,-1 1,-1l-8 -16 2 0 6 15 0 0 6 -15 2 0 -7 15c0,1 -1,2 -1,3 0,0 -1,1 -1,1 -1,1 -1,1 -2,2 0,0 -1,0 -1,0z"/>
  <path id="37" class="fil27" d="M364 65c-1,0 -2,0 -3,-1 -1,0 -2,-1 -3,-2 -1,-1 -1,-2 -2,-3 0,-1 0,-3 0,-4l-5 0 0 10 -1 0 0 -21 1 0 0 10 5 0c0,-2 0,-3 0,-4 1,-2 1,-3 2,-3 1,-1 2,-2 3,-2 1,-1 2,-1 3,-1 2,0 3,0 4,1 1,0 2,1 3,2 1,1 1,2 2,3 0,1 0,3 0,5 0,1 0,3 0,4 -1,1 -1,2 -2,3 -1,1 -2,2 -3,2 -1,1 -2,1 -4,1zm0 -20c-1,0 -2,0 -3,1 -1,0 -2,1 -2,2 -1,0 -1,1 -2,3 0,1 0,2 0,4 0,1 0,2 0,3 1,2 1,3 2,4 0,0 1,1 2,1 1,1 2,1 3,1 2,0 3,0 4,-1 1,0 1,-1 2,-1 1,-1 1,-2 2,-4 0,-1 0,-2 0,-3 0,-2 0,-3 0,-4 -1,-2 -1,-3 -2,-3 -1,-1 -1,-2 -2,-2 -1,-1 -2,-1 -4,-1z"/>
  <polygon id="38" class="fil27" points="382,65 382,45 375,45 375,44 390,44 390,45 383,45 383,65 "/>
  <path id="39" class="fil27" d="M401 65c-1,0 -3,0 -4,-1 -1,0 -2,-1 -3,-2 0,-1 -1,-2 -1,-3 -1,-1 -1,-3 -1,-5 0,-1 0,-3 1,-4 0,-1 1,-2 1,-3 1,-1 2,-2 3,-2 1,-1 3,-1 4,-1 1,0 2,0 3,0 1,1 2,1 2,2 1,0 2,1 2,2 1,1 1,2 1,3l-1 0c0,-1 0,-2 -1,-3 0,0 -1,-1 -1,-1 -1,-1 -2,-1 -2,-2 -1,0 -2,0 -3,0 -1,0 -2,0 -3,1 -1,0 -2,1 -3,2 0,0 -1,1 -1,3 -1,1 -1,2 -1,3 0,2 0,3 1,4 0,2 1,3 1,3 1,1 2,2 3,2 1,1 2,1 3,1 1,0 2,0 3,0 0,-1 1,-1 2,-1 0,-1 1,-1 1,-2 1,-1 1,-1 1,-2l1 0c0,1 0,2 -1,2 0,1 -1,2 -1,2 -1,1 -2,1 -3,2 -1,0 -2,0 -3,0z"/>
  <path id="40" class="fil27" d="M423 45l-5 0c-1,0 -2,0 -2,1 -1,0 -2,0 -2,1 0,0 -1,1 -1,1 0,1 -1,1 -1,2 0,1 1,2 1,2 0,1 1,1 1,2 0,0 1,0 2,1 0,0 1,0 2,0l5 0 0 -10zm-11 20l-1 0 6 -9c-1,0 -2,0 -2,-1 -1,0 -2,0 -2,-1 -1,0 -1,-1 -1,-2 -1,0 -1,-1 -1,-2 0,-1 1,-2 1,-2 0,-1 1,-2 1,-2 1,-1 1,-1 2,-1 1,-1 2,-1 3,-1l7 0 0 21 -2 0 0 -9 -5 0 -6 9z"/>
  <path id="41" class="fil27" d="M438 54l2 0c1,0 2,0 2,-1 1,0 2,0 2,-1 1,0 1,0 1,-1 0,-1 1,-1 1,-2 0,0 -1,-1 -1,-1 0,-1 0,-1 -1,-2 0,0 -1,0 -2,-1 0,0 -1,0 -2,0 0,0 -1,0 -2,0 0,0 -1,1 -1,1 -1,1 -1,1 -1,1 -1,1 -1,2 -1,2l-1 0c0,-1 0,-1 1,-2 0,-1 0,-1 1,-2 0,0 1,0 2,-1 1,0 1,0 2,0 1,0 2,0 3,0 1,1 1,1 2,1 0,1 1,1 1,2 1,1 1,1 1,2 0,1 0,1 -1,2 0,0 0,1 0,1 -1,1 -1,1 -2,1 0,1 -1,1 -2,1l0 0c1,0 2,0 2,1 1,0 2,0 2,1 0,0 1,1 1,1 0,1 0,2 0,2 0,1 0,2 0,3 0,0 -1,1 -2,1 0,1 -1,1 -2,2 -1,0 -2,0 -3,0 -1,0 -2,0 -2,0 -1,-1 -2,-1 -3,-1 0,-1 -1,-1 -1,-2 0,-1 -1,-2 -1,-2l1 0c0,0 1,1 1,1 0,1 1,1 1,2 1,0 1,1 2,1 1,0 1,0 2,0 1,0 2,0 3,0 0,0 1,-1 2,-1 0,-1 1,-1 1,-2 0,0 0,-1 0,-2 0,0 0,-1 0,-2 0,0 -1,-1 -1,-1 -1,-1 -1,-1 -2,-1 -1,0 -2,0 -3,0l-2 0 0 -1z"/>
  <path id="42" class="fil27" d="M462 58l-9 0 -3 7 -1 0 8 -21 1 0 8 21 -2 0 -2 -7zm-9 -1l8 0 -4 -11 0 0 -4 11z"/>
  <polygon id="43" class="fil27" points="488,65 488,45 475,45 475,65 474,65 474,44 489,44 489,65 "/>
  <path id="44" class="fil27" d="M499 44c1,0 2,0 3,1 1,0 2,0 2,1 1,0 1,1 2,2 0,1 0,1 0,2 0,1 0,2 0,3 -1,1 -1,1 -2,2 0,0 -1,1 -2,1 -1,0 -2,1 -3,1l-5 0 0 8 -1 0 0 -21 6 0zm-5 12l5 0c1,0 2,-1 3,-1 0,0 1,0 1,-1 1,0 1,-1 1,-1 1,-1 1,-2 1,-3 0,0 0,-1 -1,-2 0,0 0,-1 -1,-1 0,-1 -1,-1 -1,-1 -1,-1 -2,-1 -3,-1l-5 0 0 11z"/>
  <path id="45" class="fil27" d="M520 58l-9 0 -2 7 -2 0 8 -21 1 0 8 21 -1 0 -3 -7zm-8 -1l8 0 -4 -11 0 0 -4 11z"/>
  <path id="46" class="fil27" d="M530 54l2 0c1,0 2,0 3,-1 0,0 1,0 1,-1 1,0 1,0 1,-1 1,-1 1,-1 1,-2 0,0 0,-1 -1,-1 0,-1 0,-1 -1,-2 0,0 -1,0 -1,-1 -1,0 -2,0 -2,0 -1,0 -2,0 -2,0 -1,0 -2,1 -2,1 -1,1 -1,1 -1,1 0,1 -1,2 -1,2l-1 0c0,-1 0,-1 1,-2 0,-1 1,-1 1,-2 1,0 1,0 2,-1 1,0 2,0 3,0 1,0 1,0 2,0 1,1 2,1 2,1 1,1 1,1 1,2 1,1 1,1 1,2 0,1 0,1 0,2 -1,0 -1,1 -1,1 -1,1 -1,1 -2,1 0,1 -1,1 -1,1l0 0c0,0 1,0 2,1 0,0 1,0 1,1 1,0 1,1 1,1 1,1 1,2 1,2 0,1 0,2 -1,3 0,0 -1,1 -1,1 -1,1 -2,1 -3,2 0,0 -1,0 -2,0 -1,0 -2,0 -3,0 -1,-1 -2,-1 -2,-1 -1,-1 -1,-1 -2,-2 0,-1 0,-2 0,-2l1 0c0,0 0,1 0,1 1,1 1,1 1,2 1,0 2,1 2,1 1,0 2,0 3,0 0,0 1,0 2,0 1,0 1,-1 2,-1 0,-1 1,-1 1,-2 0,0 1,-1 1,-2 0,0 -1,-1 -1,-2 0,0 -1,-1 -1,-1 -1,-1 -1,-1 -2,-1 -1,0 -2,0 -3,0l-2 0 0 -1z"/>
  <path id="47" class="fil27" d="M546 58c-1,1 -1,1 -1,2 0,0 0,1 0,1 0,1 0,1 0,2 -1,0 -1,0 -1,1l0 0 12 0 0 -19 -10 0 0 13zm-4 11l-1 0 0 -5 1 0c1,0 1,-1 1,-1 0,0 1,-1 1,-1 0,-1 0,-1 0,-2 0,-1 0,-1 0,-2l1 -14 12 0 0 20 3 0 0 5 -1 0 0 -4 -17 0 0 4z"/>
  <polygon id="48" class="fil27" points="576,65 576,55 563,55 563,65 562,65 562,44 563,44 563,54 576,54 576,44 577,44 577,65 "/>
  <polygon id="49" class="fil27" points="596,46 595,46 582,65 581,65 581,44 582,44 582,63 582,63 596,44 597,44 597,65 596,65 "/>
  <polygon id="50" class="fil27" points="615,65 613,65 602,55 602,55 602,65 601,65 601,44 602,44 602,54 602,54 613,44 614,44 603,54 "/>
  <path id="51" class="fil27" d="M626 54l3 0c1,0 1,0 2,-1 1,0 1,0 2,-1 0,0 1,0 1,-1 0,-1 0,-1 0,-2 0,0 0,-1 0,-1 0,-1 -1,-1 -1,-2 -1,0 -1,0 -2,-1 0,0 -1,0 -2,0 -1,0 -1,0 -2,0 -1,0 -1,1 -2,1 0,1 0,1 -1,1 0,1 0,2 0,2l-1 0c0,-1 0,-1 0,-2 1,-1 1,-1 2,-2 0,0 1,0 2,-1 0,0 1,0 2,0 1,0 2,0 3,0 0,1 1,1 2,1 0,1 1,1 1,2 0,1 0,1 0,2 0,1 0,1 0,2 0,0 0,1 -1,1 0,1 -1,1 -1,1 -1,1 -1,1 -2,1l0 0c1,0 2,0 2,1 1,0 1,0 2,1 0,0 1,1 1,1 0,1 0,2 0,2 0,1 0,2 0,3 -1,0 -1,1 -2,1 0,1 -1,1 -2,2 -1,0 -2,0 -3,0 -1,0 -2,0 -3,0 -1,-1 -1,-1 -2,-1 -1,-1 -1,-1 -1,-2 -1,-1 -1,-2 -1,-2l1 0c0,0 0,1 1,1 0,1 0,1 1,2 0,0 1,1 2,1 0,0 1,0 2,0 1,0 2,0 3,0 0,0 1,-1 1,-1 1,-1 1,-1 2,-2 0,0 0,-1 0,-2 0,0 0,-1 0,-2 -1,0 -1,-1 -2,-1 0,-1 -1,-1 -2,-1 0,0 -1,0 -2,0l-3 0 0 -1z"/>
  <path id="52" class="fil27" d="M651 58l-10 0 -2 7 -2 0 8 -21 1 0 8 21 -1 0 -2 -7zm-9 -1l8 0 -4 -11 0 0 -4 11z"/>
  <polygon id="53" class="fil27" points="671,65 669,65 658,55 658,55 658,65 657,65 657,44 658,44 658,54 658,54 669,44 670,44 659,54 "/>
  <path id="54" class="fil27" d="M685 58l-9 0 -3 7 -1 0 8 -21 1 0 8 21 -2 0 -2 -7zm-9 -1l8 0 -4 -11 0 0 -4 11z"/>
  <path id="55" class="fil27" d="M694 54l3 0c1,0 1,0 2,-1 1,0 1,0 2,-1 0,0 1,0 1,-1 0,-1 0,-1 0,-2 0,0 0,-1 0,-1 0,-1 -1,-1 -1,-2 -1,0 -1,0 -2,-1 0,0 -1,0 -2,0 -1,0 -1,0 -2,0 -1,0 -1,1 -2,1 0,1 0,1 -1,1 0,1 0,2 0,2l-1 0c0,-1 0,-1 0,-2 1,-1 1,-1 2,-2 0,0 1,0 2,-1 0,0 1,0 2,0 1,0 2,0 3,0 0,1 1,1 2,1 0,1 1,1 1,2 0,1 0,1 0,2 0,1 0,1 0,2 0,0 0,1 -1,1 0,1 -1,1 -1,1 -1,1 -1,1 -2,1l0 0c1,0 2,0 2,1 1,0 1,0 2,1 0,0 1,1 1,1 0,1 0,2 0,2 0,1 0,2 0,3 -1,0 -1,1 -2,1 0,1 -1,1 -2,2 -1,0 -2,0 -3,0 -1,0 -2,0 -3,0 -1,-1 -1,-1 -2,-1 -1,-1 -1,-1 -1,-2 -1,-1 -1,-2 -1,-2l1 0c0,0 0,1 1,1 0,1 0,1 1,2 0,0 1,1 2,1 0,0 1,0 2,0 1,0 2,0 2,0 1,0 2,-1 2,-1 1,-1 1,-1 2,-2 0,0 0,-1 0,-2 0,0 0,-1 0,-2 -1,0 -1,-1 -2,-1 0,-1 -1,-1 -2,-1 0,0 -1,0 -2,0l-3 0 0 -1z"/>
  <path id="56" class="fil27" d="M719 65l0 -11 0 0c0,1 0,1 -1,1 0,0 0,1 -1,1 0,0 -1,0 -2,0 0,1 -1,1 -2,1 -1,0 -2,-1 -2,-1 -1,0 -2,-1 -3,-1 0,-1 -1,-2 -1,-2 0,-1 0,-2 0,-3l0 -6 1 0 0 6c0,1 0,1 0,2 0,1 1,2 1,2 1,1 1,1 2,1 1,0 2,1 2,1 1,0 2,-1 3,-1 0,0 1,0 1,0 1,-1 1,-1 2,-1 0,-1 0,-1 0,-1l0 -9 2 0 0 21 -2 0z"/>
  <polygon id="57" class="fil27" points="739,46 739,46 726,65 724,65 724,44 726,44 726,63 726,63 739,44 740,44 740,65 739,65 "/>
  <polygon id="58" class="fil27" points="758,65 756,65 745,55 745,55 745,65 744,65 744,44 745,44 745,54 745,54 756,44 757,44 746,54 "/>
  <path id="59" class="fil27" d="M772 58l-9 0 -3 7 -1 0 8 -21 1 0 8 21 -2 0 -2 -7zm-9 -1l9 0 -5 -11 0 0 -4 11z"/>
 </g>
</svg>
