<?xml version="1.0" encoding="UTF-8"?>
<!DOCTYPE svg PUBLIC "-//W3C//DTD SVG 1.1//EN" "http://www.w3.org/Graphics/SVG/1.1/DTD/svg11.dtd">
<!-- Creator: CorelDRAW 2017 -->
<svg xmlns="http://www.w3.org/2000/svg" xml:space="preserve" width="118.533mm" height="118.533mm" version="1.1" style="shape-rendering:geometricPrecision; text-rendering:geometricPrecision; image-rendering:optimizeQuality; fill-rule:evenodd; clip-rule:evenodd"
viewBox="0 0 11853.32 11853.32"
 xmlns:xlink="http://www.w3.org/1999/xlink">
 <defs>
  <style type="text/css">
   <![CDATA[
    .str0 {stroke:#7A7A7A;stroke-width:84.67;stroke-miterlimit:22.9256}
    .str1 {stroke:black;stroke-width:8.46;stroke-miterlimit:22.9256}
    .str2 {stroke:black;stroke-width:16.93;stroke-miterlimit:22.9256}
    .str4 {stroke:#00AEBE;stroke-width:7.62;stroke-miterlimit:22.9256}
    .str3 {stroke:#DD0B29;stroke-width:7.62;stroke-miterlimit:22.9256}
    .fil8 {fill:#00AEBE}
    .fil10 {fill:#2792E4}
    .fil1 {fill:#333333}
    .fil7 {fill:#5FAD2F}
    .fil4 {fill:#666666}
    .fil0 {fill:gray}
    .fil9 {fill:#DD0B29}
    .fil6 {fill:#E62B2B}
    .fil11 {fill:#FFDD00}
    .fil2 {fill:white}
    .fil3 {fill:black;fill-rule:nonzero}
    .fil5 {fill:white;fill-rule:nonzero}
   ]]>
  </style>
 </defs>
 <g id="Layer_x0020_1">
  <metadata id="CorelCorpID_0Corel-Layer"/>
  <path class="fil0" d="M4870.24 802.41l1846.11 0c103.53,0 187.49,63.32 187.49,141.39l0 0c0,78.07 -83.96,141.39 -187.49,141.39l-1846.11 0.01c-103.51,-0.01 -187.48,-63.33 -187.48,-141.4l-0.01 0c0.01,-78.07 83.98,-141.39 187.51,-141.39l-0.02 0z"/>
  <path class="fil1 str0" d="M3125.14 148.19l5277.44 0c467.84,0 847.25,404.27 847.25,902.76l0 9810.72c0,498.48 -379.41,902.75 -847.25,902.75l-5277.44 0.01c-467.83,-0.01 -847.24,-404.28 -847.24,-902.77l-0.01 -9810.71c0.01,-498.49 379.42,-902.76 847.26,-902.76l-0.01 0z"/>
  <rect class="fil2 str1" x="2528.06" y="1768.78" width="6438.96" height="8603.41"/>
  <path class="fil3" d="M3711.47 9096.06l-367.05 0 0 -1388.73c-133.96,125.92 -292.03,219.25 -474.22,279.53l0 -334.9c96,-31.26 200.05,-90.65 312.13,-178.61 112.52,-87.53 189.33,-189.78 231.3,-306.33l297.84 0 0 1929.04z"/>
  <path id="_1" class="fil3" d="M5504.32 8755.81l0 340.26 -1288.71 0c13.84,-129.5 55.82,-251.85 125.48,-367.5 69.66,-115.65 207.64,-269.26 413.04,-460.83 165.67,-154.5 267.03,-259.43 304.54,-314.36 50.46,-75.91 75.91,-150.93 75.91,-225.5 0,-82.16 -21.88,-145.12 -66.08,-189.33 -43.77,-44.21 -104.49,-66.09 -181.74,-66.09 -76.81,0 -137.54,23.22 -183.08,69.66 -45.11,46 -71,122.8 -78.15,230.42l-367.05 -36.62c21.88,-202.73 90.2,-348.3 205.4,-436.71 115.21,-87.97 259,-132.18 431.81,-132.18 189.33,0 338.02,51.35 446.53,153.61 108.06,102.26 162.1,229.52 162.1,381.79 0,86.63 -15.63,168.79 -46.44,247.38 -30.82,78.14 -79.93,159.86 -147.36,245.6 -44.21,57.15 -125.03,138.87 -241.13,245.59 -116.55,106.72 -190.23,177.28 -221.04,212.55 -31.25,34.83 -56.26,69.22 -75.46,102.26l731.43 0z"/>
  <path id="_2" class="fil3" d="M5740.53 8587.46l356.34 -43.31c11.16,91.09 41.52,160.75 91.09,208.98 49.57,48.23 109.4,72.34 179.51,72.34 75.46,0 138.87,-29.03 190.67,-86.63 51.35,-57.6 77.25,-135.3 77.25,-233.54 0,-92.43 -24.56,-166.11 -74.13,-220.14 -49.56,-54.03 -109.84,-81.27 -181.29,-81.27 -46.89,0 -102.7,9.38 -167.9,27.68l40.64 -298.28c99.13,2.68 174.59,-19.2 226.84,-65.2 52.24,-45.54 78.14,-106.72 78.14,-183.08 0,-64.74 -19.2,-116.1 -57.6,-154.94 -38.4,-38.41 -89.31,-57.61 -153.16,-57.61 -62.96,0 -116.55,21.88 -160.76,65.64 -44.65,43.76 -71.44,107.62 -81.27,191.57l-337.58 -57.61c23.67,-116.99 58.95,-210.31 106.72,-280.42 47.34,-69.66 113.87,-124.58 198.71,-164.77 84.85,-39.74 180.4,-59.84 285.79,-59.84 180.4,0 325.08,57.6 434.03,173.26 89.75,94.66 134.85,201.83 134.85,321.06 0,168.79 -91.98,304.09 -276.4,404.56 109.85,23.67 197.37,76.36 263.46,158.52 65.64,82.16 98.68,181.29 98.68,297.39 0,168.35 -61.62,312.13 -184.42,430.91 -122.8,118.78 -275.51,178.17 -458.59,178.17 -173.26,0 -317.04,-50.01 -430.91,-150.48 -114.31,-100.03 -180.4,-230.86 -198.71,-392.96z"/>
  <path id="_3" class="fil3" d="M7962.05 9096.06l0 -385.81 -782.33 0 0 -320.16 829.66 -1220.39 309 0 0 1219.05 238.45 0 0 321.5 -238.45 0 0 385.81 -356.33 0zm0 -707.3l0 -655.07 -438.5 655.07 438.5 0z"/>
  <ellipse class="fil4 str2" cx="5751.43" cy="10969.28" rx="504.22" ry="504.58"/>
  <path class="fil4" d="M4788.14 876.93l1939.41 0c118.88,0 215.29,48.22 215.29,107.66l0 44.93c0,59.45 -96.41,107.66 -215.29,107.66l-1939.41 0c-118.87,0 -215.28,-48.21 -215.28,-107.66l-0.01 -44.93c0.01,-59.44 96.42,-107.66 215.31,-107.66l-0.02 0z"/>
  <path class="fil5" d="M3015.2 5330.56l-51.13 6.41 -20.24 -56.54 -94.01 11.8 -19.48 61.54 -50.2 6.3 91.01 -270.97 50.14 -6.3 93.91 247.76zm-86.76 -92.06l-32.57 -91.97 -31.65 100.03 64.22 -8.06zm75.46 -166.07l53.31 -6.69 54.56 127.51 46.71 -140.23 49.38 -6.2 -79.28 207.21c-8.62,22.47 -17.41,39.83 -26.36,52.13 -8.95,12.29 -20.46,19.3 -34.64,21.08 -13.97,1.75 -24.89,2.1 -32.74,1.09l0 -39.03c6.71,-0.36 12.77,-0.88 18.17,-1.55 10.91,-1.37 18.77,-4.6 23.51,-9.6 4.7,-5.06 9.28,-15.24 13.59,-30.46l-86.21 -175.26zm228.35 -28.67l47.47 -5.96 0 110.56c10.53,-2.53 17.68,-6.39 21.39,-11.75 3.71,-5.3 9.49,-19.5 17.24,-42.58 9.76,-29.32 19.64,-48.08 29.52,-56.15 9.82,-8.06 25.59,-13.48 47.41,-16.22 1.09,-0.14 3.39,-0.49 6.88,-1.05l0 38.79 -6.71 0.66c-9.72,1.22 -16.81,3.44 -21.28,6.66 -4.48,3.22 -8.08,7.72 -10.86,13.51 -2.78,5.79 -6.88,17.48 -12.28,35.07 -2.89,9.36 -6,17.25 -9.38,23.71 -3.33,6.46 -9.28,12.89 -17.79,19.27 10.53,1.94 19.21,7.56 26.08,16.73 6.88,9.16 14.4,22.35 22.59,39.63l31.92 67.04 -55.66 6.99 -28.1 -63.29c-0.43,-0.91 -1.36,-2.61 -2.72,-5.16 -0.55,-0.83 -2.51,-4.7 -5.9,-11.46 -6,-12.06 -10.91,-19.41 -14.73,-22.14 -3.87,-2.71 -9.71,-3.61 -17.62,-2.74l0 113.46 -47.47 5.96 0 -259.54zm199.81 -25.09l47.47 -5.96 0 215.68 91.34 -11.46 0 -215.69 47.47 -5.96 0 215.68 19.64 -2.46 0 100.41 -39.61 4.97 0 -56.55 -166.31 20.88 0 -259.54zm239.15 -30.02l44.19 -5.55 0 172.78 94.94 -184.7 47.15 -5.92 0 259.54 -44.2 5.55 0 -170.01 -94.94 181.93 -47.14 5.92 0 -259.54zm224.85 103.11c0,-26.47 3.6,-49.15 10.75,-68.05 5.29,-13.9 12.61,-26.72 21.83,-38.39 9.22,-11.67 19.31,-20.73 30.28,-27.24 14.62,-8.66 31.48,-14.22 50.58,-16.62 34.59,-4.35 62.2,4.09 82.99,25.22 20.73,21.2 31.1,52.95 31.1,95.3 0,41.99 -10.31,76.15 -30.88,102.41 -20.57,26.33 -48.13,41.63 -82.56,45.95 -34.86,4.38 -62.64,-3.91 -83.2,-24.95 -20.57,-20.98 -30.89,-52.19 -30.89,-93.63zm48.78 -7.88c0,29.42 6.17,50.94 18.44,64.62 12.28,13.63 27.89,19.28 46.76,16.91 18.94,-2.38 34.43,-11.88 46.6,-28.45 12.11,-16.62 18.17,-39.98 18.17,-70.13 0,-29.78 -5.89,-51.27 -17.73,-64.41 -11.79,-13.2 -27.45,-18.54 -47.04,-16.08 -19.53,2.45 -35.3,11.86 -47.25,28.16 -11.95,16.37 -17.95,39.47 -17.95,69.38zm215.69 102.87l0 -259.54 47.47 -5.96 0 102.22 92.32 -11.59 0 -102.23 47.47 -5.96 0 259.55 -47.47 5.96 0 -113.46 -92.32 11.59 0 113.46 -47.47 5.96zm477.32 -155.63l45.83 9.83c-7.04,29.46 -18.77,52.14 -35.14,68.09 -16.37,15.89 -37.1,25.44 -62.26,28.6 -31.15,3.91 -56.74,-4.65 -76.82,-25.7 -20.02,-21.04 -30.06,-51.98 -30.06,-92.88 0,-43.2 10.09,-78.06 30.22,-104.51 20.14,-26.45 46.66,-41.75 79.5,-45.87 28.7,-3.6 52,2.9 69.9,19.44 10.69,9.77 18.66,24.72 24.01,44.89l-46.82 18.21c-2.78,-13.07 -8.57,-22.97 -17.35,-29.66 -8.84,-6.69 -19.53,-9.21 -32.08,-7.64 -17.41,2.19 -31.54,10.85 -42.35,26.04 -10.85,15.14 -16.26,38.17 -16.26,69.1 0,32.75 5.35,55.46 15.99,68.02 10.7,12.61 24.56,17.82 41.63,15.67 12.61,-1.58 23.46,-7.35 32.52,-17.37 9.06,-10.02 15.61,-24.74 19.54,-44.26zm68.53 -41.11c0,-26.46 3.6,-49.14 10.75,-68.04 5.29,-13.9 12.6,-26.72 21.82,-38.39 9.22,-11.67 19.32,-20.73 30.28,-27.24 14.63,-8.67 31.49,-14.23 50.58,-16.62 34.6,-4.35 62.21,4.09 82.99,25.22 20.74,21.2 31.1,52.95 31.1,95.3 0,41.99 -10.31,76.15 -30.88,102.41 -20.57,26.33 -48.12,41.63 -82.55,45.95 -34.87,4.38 -62.64,-3.92 -83.21,-24.96 -20.57,-20.97 -30.88,-52.18 -30.88,-93.63zm48.78 -7.87c0,29.42 6.16,50.94 18.44,64.62 12.28,13.62 27.88,19.28 46.76,16.91 18.93,-2.38 34.43,-11.88 46.6,-28.45 12.11,-16.62 18.17,-39.98 18.17,-70.13 0,-29.78 -5.9,-51.27 -17.74,-64.41 -11.78,-13.2 -27.44,-18.54 -47.03,-16.08 -19.53,2.45 -35.3,11.86 -47.25,28.16 -11.95,16.36 -17.95,39.47 -17.95,69.38zm216.67 -156.8l175.14 -21.99 0 43.86 -127.67 16.03 0 60.18 63.24 -7.94c17.4,-2.19 31.91,-1.66 43.37,1.62 11.52,3.27 21.34,10.73 29.47,22.46 8.13,11.66 12.22,26.07 12.22,43.17 0,17.52 -4.09,33.08 -12.33,46.62 -8.19,13.47 -17.52,23.22 -28.05,29.14 -10.47,5.9 -25.42,10.07 -44.79,12.51l-110.6 13.88 0 -259.54zm47.47 209.72l45.99 -5.77c14.68,-1.85 25.05,-3.93 31,-6.25 5.94,-2.32 11.18,-6.54 15.6,-12.71 4.42,-6.12 6.6,-13.28 6.6,-21.43 0,-11.91 -3.87,-20.06 -11.57,-24.53 -7.74,-4.4 -20.89,-5.47 -39.55,-3.13l-48.07 6.04 0 67.78zm188.19 -239.31l47.47 -5.96 0 103.68 63.23 -7.95c16.59,-2.08 30.89,-1.34 42.84,2.18 11.95,3.51 21.93,11.2 29.95,23.12 7.97,11.93 11.95,26.29 11.95,43.09 0,17.58 -4.15,33.2 -12.44,46.99 -8.35,13.74 -17.57,23.29 -27.77,28.68 -10.15,5.45 -25.05,9.37 -44.63,11.83l-110.6 13.89 0 -259.55zm47.47 209.72l46.16 -5.79c14.67,-1.85 24.93,-3.92 30.77,-6.22 5.78,-2.3 10.97,-6.58 15.5,-12.76 4.52,-6.19 6.76,-13.3 6.76,-21.39 0,-11.48 -3.71,-19.65 -11.08,-24.47 -7.42,-4.81 -20.78,-5.97 -40.04,-3.55l-48.07 6.04 0 68.14zm175.14 -237.67l47.47 -5.96 0 259.54 -47.47 5.96 0 -259.54zm149.29 240.8l0 -215.68 -69.41 8.71 0 -43.86 185.95 -23.35 0 43.87 -69.07 8.67 0 215.68 -47.47 5.96zm147.92 -278.11l44.19 -5.55 0 172.78 94.94 -184.7 47.15 -5.92 0 259.54 -44.2 5.55 0 -170.01 -94.94 181.93 -47.14 5.92 0 -259.54zm235.33 -29.55l44.2 -5.55 0 172.78 94.93 -184.7 47.15 -5.92 0 259.54 -44.2 5.55 0 -170.01 -94.94 181.93 -47.14 5.92 0 -259.54zm121.13 -90.25l21.93 -2.75c-1.25,16.17 -6.38,29.44 -15.27,39.68 -8.9,10.24 -20.41,16.27 -34.54,18.05 -14.19,1.78 -25.7,-1.37 -34.6,-9.37 -8.89,-8.01 -14.02,-19.99 -15.27,-35.84l21.93 -2.76c0.77,8.24 3.38,14.26 7.97,17.97 4.58,3.72 11.24,5 19.97,3.9 8.67,-1.09 15.33,-4.04 19.91,-8.9 4.59,-4.87 7.21,-11.54 7.97,-19.98zm205.16 49.28l44.19 -5.55 0 172.79 94.94 -184.71 47.14 -5.92 0 259.54 -44.19 5.55 0 -170.01 -94.94 181.93 -47.14 5.92 0 -259.54zm326.29 -40.97l186.27 -23.39 0 259.54 -47.47 5.97 0 -215.69 -91.34 11.47 0 215.68 -47.46 5.96 0 -259.54zm234.67 230.08l0 -259.54 75.9 -9.53c28.75,-3.61 47.47,-4.7 56.2,-3.19 13.42,2.24 24.66,9.29 33.72,21.2 9.06,11.91 13.58,28.2 13.58,48.86 0,15.95 -2.61,29.63 -7.8,41.15 -5.24,11.54 -11.84,20.88 -19.86,28.11 -8.02,7.17 -16.2,12.31 -24.5,15.34 -11.29,3.9 -27.61,7.22 -49,9.9l-30.77 3.87 0 97.87 -47.47 5.96zm47.47 -221.64l0 73.94 25.81 -3.24c18.6,-2.33 30.99,-5.28 37.27,-8.78 6.27,-3.51 11.18,-8.36 14.73,-14.66 3.54,-6.25 5.35,-13.18 5.35,-20.91 0,-9.49 -2.51,-16.96 -7.48,-22.5 -5.02,-5.54 -11.3,-8.62 -18.99,-9.22 -5.62,-0.44 -16.91,0.37 -33.94,2.51l-22.75 2.86zm353.3 171.32l-51.13 6.42 -20.24 -56.55 -94.01 11.81 -19.48 61.53 -50.2 6.3 91.01 -270.97 50.14 -6.29 93.91 247.75zm-86.76 -92.05l-32.57 -91.98 -31.65 100.04 64.22 -8.06zm145.41 -104.17l-46.16 -6.17c9.93,-43.54 38.14,-68.22 84.63,-74.06 27.5,-3.45 48.29,0.64 62.31,12.29 14.02,11.66 21.01,26.55 21.01,44.67 0,12.39 -3.22,23.97 -9.61,34.8 -6.38,10.77 -15.98,20.73 -28.75,29.95 15.49,3.97 27.17,10.85 34.92,20.69 7.75,9.9 11.62,22.7 11.62,38.59 0,22.84 -7.53,42.21 -22.64,58.19 -15.06,15.96 -37.65,25.87 -67.72,29.64 -24.5,3.08 -43.86,0.98 -58.05,-6.3 -14.19,-7.28 -24.83,-22.92 -31.97,-46.92l43.21 -21.01c4.47,15.09 10.48,24.48 17.9,28.14 7.42,3.72 16.58,4.87 27.5,3.5 14.95,-1.88 25.86,-6.81 32.73,-14.87 6.82,-8.04 10.26,-16.69 10.26,-26 0,-10.63 -3.87,-18.78 -11.62,-24.33 -7.69,-5.56 -19.37,-7.36 -34.92,-5.41l-10.75 1.35 0 -39.14 5.4 -0.68c14.46,-1.82 25.54,-6.83 33.18,-14.98 7.69,-8.16 11.51,-18.24 11.51,-30.14 0,-9.49 -3.11,-17.07 -9.33,-22.82 -6.22,-5.68 -15.11,-7.83 -26.68,-6.38 -19.81,2.49 -32.47,14.96 -37.98,37.4zm190.7 -94.63l161.72 -20.31 0 215.68 20.63 -2.59 0 100.41 -39.61 4.98 0 -56.55 -147 18.45 0 56.55 -39.61 4.98 0 -100.41 19.97 -2.51c9.71,-23.39 16.15,-49.94 19.26,-79.57 3.11,-29.69 4.64,-66.92 4.64,-111.68l0 -27.43zm45.18 38.19c0,78.54 -6.55,136.63 -19.65,174.28l88.72 -11.14 0 -171.82 -69.07 8.68zm169.03 194.45l0 -259.54 47.47 -5.96 0 102.22 92.32 -11.59 0 -102.22 47.47 -5.96 0 259.54 -47.47 5.96 0 -113.46 -92.32 11.6 0 113.45 -47.47 5.96zm237.08 -289.31l44.19 -5.54 0 172.78 94.95 -184.7 47.14 -5.92 0 259.54 -44.2 5.55 0 -170.01 -94.94 181.93 -47.14 5.92 0 -259.55zm235.33 -29.54l47.47 -5.96 0 110.56c10.53,-2.53 17.68,-6.39 21.39,-11.75 3.71,-5.3 9.49,-19.5 17.24,-42.58 9.77,-29.32 19.64,-48.08 29.52,-56.15 9.82,-8.06 25.59,-13.48 47.41,-16.22 1.1,-0.14 3.39,-0.49 6.88,-1.05l0 38.79 -6.71 0.66c-9.71,1.22 -16.81,3.44 -21.28,6.66 -4.47,3.22 -8.08,7.72 -10.86,13.51 -2.78,5.78 -6.87,17.47 -12.28,35.07 -2.89,9.36 -6,17.24 -9.38,23.71 -3.33,6.46 -9.28,12.89 -17.79,19.27 10.53,1.94 19.21,7.56 26.08,16.72 6.88,9.17 14.41,22.36 22.59,39.64l31.92 67.04 -55.65 6.99 -28.1 -63.3c-0.44,-0.91 -1.37,-2.6 -2.73,-5.15 -0.55,-0.84 -2.51,-4.7 -5.89,-11.46 -6.01,-12.06 -10.92,-19.42 -14.74,-22.14 -3.87,-2.71 -9.71,-3.61 -17.62,-2.74l0 113.46 -47.47 5.96 0 -259.54zm410.3 208.02l-51.12 6.42 -20.24 -56.54 -94.02 11.8 -19.47 61.53 -50.2 6.3 91.01 -270.96 50.14 -6.3 93.9 247.75zm-86.74 -92.05l-32.57 -91.97 -31.65 100.03 64.22 -8.06z"/>
  <path class="fil5" d="M3015.2 5330.56l-51.13 6.41 -20.24 -56.54 -94.01 11.8 -19.48 61.54 -50.2 6.3 91.01 -270.97 50.14 -6.3 93.91 247.76zm-86.76 -92.06l-32.57 -91.97 -31.65 100.03 64.22 -8.06zm75.46 -166.07l53.31 -6.69 54.56 127.51 46.71 -140.23 49.38 -6.2 -79.28 207.21c-8.62,22.47 -17.41,39.83 -26.36,52.13 -8.95,12.29 -20.46,19.3 -34.64,21.08 -13.97,1.75 -24.89,2.1 -32.74,1.09l0 -39.03c6.71,-0.36 12.77,-0.88 18.17,-1.55 10.91,-1.37 18.77,-4.6 23.51,-9.6 4.7,-5.06 9.28,-15.24 13.59,-30.46l-86.21 -175.26zm228.35 -28.67l47.47 -5.96 0 110.56c10.53,-2.53 17.68,-6.39 21.39,-11.75 3.71,-5.3 9.49,-19.5 17.24,-42.58 9.76,-29.32 19.64,-48.08 29.52,-56.15 9.82,-8.06 25.59,-13.48 47.41,-16.22 1.09,-0.14 3.39,-0.49 6.88,-1.05l0 38.79 -6.71 0.66c-9.72,1.22 -16.81,3.44 -21.28,6.66 -4.48,3.22 -8.08,7.72 -10.86,13.51 -2.78,5.79 -6.88,17.48 -12.28,35.07 -2.89,9.36 -6,17.25 -9.38,23.71 -3.33,6.46 -9.28,12.89 -17.79,19.27 10.53,1.94 19.21,7.56 26.08,16.73 6.88,9.16 14.4,22.35 22.59,39.63l31.92 67.04 -55.66 6.99 -28.1 -63.29c-0.43,-0.91 -1.36,-2.61 -2.72,-5.16 -0.55,-0.83 -2.51,-4.7 -5.9,-11.46 -6,-12.06 -10.91,-19.41 -14.73,-22.14 -3.87,-2.71 -9.71,-3.61 -17.62,-2.74l0 113.46 -47.47 5.96 0 -259.54zm199.81 -25.09l47.47 -5.96 0 215.68 91.34 -11.46 0 -215.69 47.47 -5.96 0 215.68 19.64 -2.46 0 100.41 -39.61 4.97 0 -56.55 -166.31 20.88 0 -259.54zm239.15 -30.02l44.19 -5.55 0 172.78 94.94 -184.7 47.15 -5.92 0 259.54 -44.2 5.55 0 -170.01 -94.94 181.93 -47.14 5.92 0 -259.54zm224.85 103.11c0,-26.47 3.6,-49.15 10.75,-68.05 5.29,-13.9 12.61,-26.72 21.83,-38.39 9.22,-11.67 19.31,-20.73 30.28,-27.24 14.62,-8.66 31.48,-14.22 50.58,-16.62 34.59,-4.35 62.2,4.09 82.99,25.22 20.73,21.2 31.1,52.95 31.1,95.3 0,41.99 -10.31,76.15 -30.88,102.41 -20.57,26.33 -48.13,41.63 -82.56,45.95 -34.86,4.38 -62.64,-3.91 -83.2,-24.95 -20.57,-20.98 -30.89,-52.19 -30.89,-93.63zm48.78 -7.88c0,29.42 6.17,50.94 18.44,64.62 12.28,13.63 27.89,19.28 46.76,16.91 18.94,-2.38 34.43,-11.88 46.6,-28.45 12.11,-16.62 18.17,-39.98 18.17,-70.13 0,-29.78 -5.89,-51.27 -17.73,-64.41 -11.79,-13.2 -27.45,-18.54 -47.04,-16.08 -19.53,2.45 -35.3,11.86 -47.25,28.16 -11.95,16.37 -17.95,39.47 -17.95,69.38zm215.69 102.87l0 -259.54 47.47 -5.96 0 102.22 92.32 -11.59 0 -102.23 47.47 -5.96 0 259.55 -47.47 5.96 0 -113.46 -92.32 11.59 0 113.46 -47.47 5.96zm477.32 -155.63l45.83 9.83c-7.04,29.46 -18.77,52.14 -35.14,68.09 -16.37,15.89 -37.1,25.44 -62.26,28.6 -31.15,3.91 -56.74,-4.65 -76.82,-25.7 -20.02,-21.04 -30.06,-51.98 -30.06,-92.88 0,-43.2 10.09,-78.06 30.22,-104.51 20.14,-26.45 46.66,-41.75 79.5,-45.87 28.7,-3.6 52,2.9 69.9,19.44 10.69,9.77 18.66,24.72 24.01,44.89l-46.82 18.21c-2.78,-13.07 -8.57,-22.97 -17.35,-29.66 -8.84,-6.69 -19.53,-9.21 -32.08,-7.64 -17.41,2.19 -31.54,10.85 -42.35,26.04 -10.85,15.14 -16.26,38.17 -16.26,69.1 0,32.75 5.35,55.46 15.99,68.02 10.7,12.61 24.56,17.82 41.63,15.67 12.61,-1.58 23.46,-7.35 32.52,-17.37 9.06,-10.02 15.61,-24.74 19.54,-44.26zm68.53 -41.11c0,-26.46 3.6,-49.14 10.75,-68.04 5.29,-13.9 12.6,-26.72 21.82,-38.39 9.22,-11.67 19.32,-20.73 30.28,-27.24 14.63,-8.67 31.49,-14.23 50.58,-16.62 34.6,-4.35 62.21,4.09 82.99,25.22 20.74,21.2 31.1,52.95 31.1,95.3 0,41.99 -10.31,76.15 -30.88,102.41 -20.57,26.33 -48.12,41.63 -82.55,45.95 -34.87,4.38 -62.64,-3.92 -83.21,-24.96 -20.57,-20.97 -30.88,-52.18 -30.88,-93.63zm48.78 -7.87c0,29.42 6.16,50.94 18.44,64.62 12.28,13.62 27.88,19.28 46.76,16.91 18.93,-2.38 34.43,-11.88 46.6,-28.45 12.11,-16.62 18.17,-39.98 18.17,-70.13 0,-29.78 -5.9,-51.27 -17.74,-64.41 -11.78,-13.2 -27.44,-18.54 -47.03,-16.08 -19.53,2.45 -35.3,11.86 -47.25,28.16 -11.95,16.36 -17.95,39.47 -17.95,69.38zm216.67 -156.8l175.14 -21.99 0 43.86 -127.67 16.03 0 60.18 63.24 -7.94c17.4,-2.19 31.91,-1.66 43.37,1.62 11.52,3.27 21.34,10.73 29.47,22.46 8.13,11.66 12.22,26.07 12.22,43.17 0,17.52 -4.09,33.08 -12.33,46.62 -8.19,13.47 -17.52,23.22 -28.05,29.14 -10.47,5.9 -25.42,10.07 -44.79,12.51l-110.6 13.88 0 -259.54zm47.47 209.72l45.99 -5.77c14.68,-1.85 25.05,-3.93 31,-6.25 5.94,-2.32 11.18,-6.54 15.6,-12.71 4.42,-6.12 6.6,-13.28 6.6,-21.43 0,-11.91 -3.87,-20.06 -11.57,-24.53 -7.74,-4.4 -20.89,-5.47 -39.55,-3.13l-48.07 6.04 0 67.78zm188.19 -239.31l47.47 -5.96 0 103.68 63.23 -7.95c16.59,-2.08 30.89,-1.34 42.84,2.18 11.95,3.51 21.93,11.2 29.95,23.12 7.97,11.93 11.95,26.29 11.95,43.09 0,17.58 -4.15,33.2 -12.44,46.99 -8.35,13.74 -17.57,23.29 -27.77,28.68 -10.15,5.45 -25.05,9.37 -44.63,11.83l-110.6 13.89 0 -259.55zm47.47 209.72l46.16 -5.79c14.67,-1.85 24.93,-3.92 30.77,-6.22 5.78,-2.3 10.97,-6.58 15.5,-12.76 4.52,-6.19 6.76,-13.3 6.76,-21.39 0,-11.48 -3.71,-19.65 -11.08,-24.47 -7.42,-4.81 -20.78,-5.97 -40.04,-3.55l-48.07 6.04 0 68.14zm175.14 -237.67l47.47 -5.96 0 259.54 -47.47 5.96 0 -259.54zm149.29 240.8l0 -215.68 -69.41 8.71 0 -43.86 185.95 -23.35 0 43.87 -69.07 8.67 0 215.68 -47.47 5.96zm147.92 -278.11l44.19 -5.55 0 172.78 94.94 -184.7 47.15 -5.92 0 259.54 -44.2 5.55 0 -170.01 -94.94 181.93 -47.14 5.92 0 -259.54zm235.33 -29.55l44.2 -5.55 0 172.78 94.93 -184.7 47.15 -5.92 0 259.54 -44.2 5.55 0 -170.01 -94.94 181.93 -47.14 5.92 0 -259.54zm121.13 -90.25l21.93 -2.75c-1.25,16.17 -6.38,29.44 -15.27,39.68 -8.9,10.24 -20.41,16.27 -34.54,18.05 -14.19,1.78 -25.7,-1.37 -34.6,-9.37 -8.89,-8.01 -14.02,-19.99 -15.27,-35.84l21.93 -2.76c0.77,8.24 3.38,14.26 7.97,17.97 4.58,3.72 11.24,5 19.97,3.9 8.67,-1.09 15.33,-4.04 19.91,-8.9 4.59,-4.87 7.21,-11.54 7.97,-19.98zm205.16 49.28l44.19 -5.55 0 172.79 94.94 -184.71 47.14 -5.92 0 259.54 -44.19 5.55 0 -170.01 -94.94 181.93 -47.14 5.92 0 -259.54zm326.29 -40.97l186.27 -23.39 0 259.54 -47.47 5.97 0 -215.69 -91.34 11.47 0 215.68 -47.46 5.96 0 -259.54zm234.67 230.08l0 -259.54 75.9 -9.53c28.75,-3.61 47.47,-4.7 56.2,-3.19 13.42,2.24 24.66,9.29 33.72,21.2 9.06,11.91 13.58,28.2 13.58,48.86 0,15.95 -2.61,29.63 -7.8,41.15 -5.24,11.54 -11.84,20.88 -19.86,28.11 -8.02,7.17 -16.2,12.31 -24.5,15.34 -11.29,3.9 -27.61,7.22 -49,9.9l-30.77 3.87 0 97.87 -47.47 5.96zm47.47 -221.64l0 73.94 25.81 -3.24c18.6,-2.33 30.99,-5.28 37.27,-8.78 6.27,-3.51 11.18,-8.36 14.73,-14.66 3.54,-6.25 5.35,-13.18 5.35,-20.91 0,-9.49 -2.51,-16.96 -7.48,-22.5 -5.02,-5.54 -11.3,-8.62 -18.99,-9.22 -5.62,-0.44 -16.91,0.37 -33.94,2.51l-22.75 2.86zm353.3 171.32l-51.13 6.42 -20.24 -56.55 -94.01 11.81 -19.48 61.53 -50.2 6.3 91.01 -270.97 50.14 -6.29 93.91 247.75zm-86.76 -92.05l-32.57 -91.98 -31.65 100.04 64.22 -8.06zm145.41 -104.17l-46.16 -6.17c9.93,-43.54 38.14,-68.22 84.63,-74.06 27.5,-3.45 48.29,0.64 62.31,12.29 14.02,11.66 21.01,26.55 21.01,44.67 0,12.39 -3.22,23.97 -9.61,34.8 -6.38,10.77 -15.98,20.73 -28.75,29.95 15.49,3.97 27.17,10.85 34.92,20.69 7.75,9.9 11.62,22.7 11.62,38.59 0,22.84 -7.53,42.21 -22.64,58.19 -15.06,15.96 -37.65,25.87 -67.72,29.64 -24.5,3.08 -43.86,0.98 -58.05,-6.3 -14.19,-7.28 -24.83,-22.92 -31.97,-46.92l43.21 -21.01c4.47,15.09 10.48,24.48 17.9,28.14 7.42,3.72 16.58,4.87 27.5,3.5 14.95,-1.88 25.86,-6.81 32.73,-14.87 6.82,-8.04 10.26,-16.69 10.26,-26 0,-10.63 -3.87,-18.78 -11.62,-24.33 -7.69,-5.56 -19.37,-7.36 -34.92,-5.41l-10.75 1.35 0 -39.14 5.4 -0.68c14.46,-1.82 25.54,-6.83 33.18,-14.98 7.69,-8.16 11.51,-18.24 11.51,-30.14 0,-9.49 -3.11,-17.07 -9.33,-22.82 -6.22,-5.68 -15.11,-7.83 -26.68,-6.38 -19.81,2.49 -32.47,14.96 -37.98,37.4zm190.7 -94.63l161.72 -20.31 0 215.68 20.63 -2.59 0 100.41 -39.61 4.98 0 -56.55 -147 18.45 0 56.55 -39.61 4.98 0 -100.41 19.97 -2.51c9.71,-23.39 16.15,-49.94 19.26,-79.57 3.11,-29.69 4.64,-66.92 4.64,-111.68l0 -27.43zm45.18 38.19c0,78.54 -6.55,136.63 -19.65,174.28l88.72 -11.14 0 -171.82 -69.07 8.68zm169.03 194.45l0 -259.54 47.47 -5.96 0 102.22 92.32 -11.59 0 -102.22 47.47 -5.96 0 259.54 -47.47 5.96 0 -113.46 -92.32 11.6 0 113.45 -47.47 5.96zm237.08 -289.31l44.19 -5.54 0 172.78 94.95 -184.7 47.14 -5.92 0 259.54 -44.2 5.55 0 -170.01 -94.94 181.93 -47.14 5.92 0 -259.55zm235.33 -29.54l47.47 -5.96 0 110.56c10.53,-2.53 17.68,-6.39 21.39,-11.75 3.71,-5.3 9.49,-19.5 17.24,-42.58 9.77,-29.32 19.64,-48.08 29.52,-56.15 9.82,-8.06 25.59,-13.48 47.41,-16.22 1.1,-0.14 3.39,-0.49 6.88,-1.05l0 38.79 -6.71 0.66c-9.71,1.22 -16.81,3.44 -21.28,6.66 -4.47,3.22 -8.08,7.72 -10.86,13.51 -2.78,5.78 -6.87,17.47 -12.28,35.07 -2.89,9.36 -6,17.24 -9.38,23.71 -3.33,6.46 -9.28,12.89 -17.79,19.27 10.53,1.94 19.21,7.56 26.08,16.72 6.88,9.17 14.41,22.36 22.59,39.64l31.92 67.04 -55.65 6.99 -28.1 -63.3c-0.44,-0.91 -1.37,-2.6 -2.73,-5.15 -0.55,-0.84 -2.51,-4.7 -5.89,-11.46 -6.01,-12.06 -10.92,-19.42 -14.74,-22.14 -3.87,-2.71 -9.71,-3.61 -17.62,-2.74l0 113.46 -47.47 5.96 0 -259.54zm410.3 208.02l-51.12 6.42 -20.24 -56.54 -94.02 11.8 -19.47 61.53 -50.2 6.3 91.01 -270.96 50.14 -6.3 93.9 247.75zm-86.74 -92.05l-32.57 -91.97 -31.65 100.03 64.22 -8.06z"/>
  <path class="fil5" d="M3015.2 5330.56l-51.13 6.41 -20.24 -56.54 -94.01 11.8 -19.48 61.54 -50.2 6.3 91.01 -270.97 50.14 -6.3 93.91 247.76zm-86.76 -92.06l-32.57 -91.97 -31.65 100.03 64.22 -8.06zm75.46 -166.07l53.31 -6.69 54.56 127.51 46.71 -140.23 49.38 -6.2 -79.28 207.21c-8.62,22.47 -17.41,39.83 -26.36,52.13 -8.95,12.29 -20.46,19.3 -34.64,21.08 -13.97,1.75 -24.89,2.1 -32.74,1.09l0 -39.03c6.71,-0.36 12.77,-0.88 18.17,-1.55 10.91,-1.37 18.77,-4.6 23.51,-9.6 4.7,-5.06 9.28,-15.24 13.59,-30.46l-86.21 -175.26zm228.35 -28.67l47.47 -5.96 0 110.56c10.53,-2.53 17.68,-6.39 21.39,-11.75 3.71,-5.3 9.49,-19.5 17.24,-42.58 9.76,-29.32 19.64,-48.08 29.52,-56.15 9.82,-8.06 25.59,-13.48 47.41,-16.22 1.09,-0.14 3.39,-0.49 6.88,-1.05l0 38.79 -6.71 0.66c-9.72,1.22 -16.81,3.44 -21.28,6.66 -4.48,3.22 -8.08,7.72 -10.86,13.51 -2.78,5.79 -6.88,17.48 -12.28,35.07 -2.89,9.36 -6,17.25 -9.38,23.71 -3.33,6.46 -9.28,12.89 -17.79,19.27 10.53,1.94 19.21,7.56 26.08,16.73 6.88,9.16 14.4,22.35 22.59,39.63l31.92 67.04 -55.66 6.99 -28.1 -63.29c-0.43,-0.91 -1.36,-2.61 -2.72,-5.16 -0.55,-0.83 -2.51,-4.7 -5.9,-11.46 -6,-12.06 -10.91,-19.41 -14.73,-22.14 -3.87,-2.71 -9.71,-3.61 -17.62,-2.74l0 113.46 -47.47 5.96 0 -259.54zm199.81 -25.09l47.47 -5.96 0 215.68 91.34 -11.46 0 -215.69 47.47 -5.96 0 215.68 19.64 -2.46 0 100.41 -39.61 4.97 0 -56.55 -166.31 20.88 0 -259.54zm239.15 -30.02l44.19 -5.55 0 172.78 94.94 -184.7 47.15 -5.92 0 259.54 -44.2 5.55 0 -170.01 -94.94 181.93 -47.14 5.92 0 -259.54zm224.85 103.11c0,-26.47 3.6,-49.15 10.75,-68.05 5.29,-13.9 12.61,-26.72 21.83,-38.39 9.22,-11.67 19.31,-20.73 30.28,-27.24 14.62,-8.66 31.48,-14.22 50.58,-16.62 34.59,-4.35 62.2,4.09 82.99,25.22 20.73,21.2 31.1,52.95 31.1,95.3 0,41.99 -10.31,76.15 -30.88,102.41 -20.57,26.33 -48.13,41.63 -82.56,45.95 -34.86,4.38 -62.64,-3.91 -83.2,-24.95 -20.57,-20.98 -30.89,-52.19 -30.89,-93.63zm48.78 -7.88c0,29.42 6.17,50.94 18.44,64.62 12.28,13.63 27.89,19.28 46.76,16.91 18.94,-2.38 34.43,-11.88 46.6,-28.45 12.11,-16.62 18.17,-39.98 18.17,-70.13 0,-29.78 -5.89,-51.27 -17.73,-64.41 -11.79,-13.2 -27.45,-18.54 -47.04,-16.08 -19.53,2.45 -35.3,11.86 -47.25,28.16 -11.95,16.37 -17.95,39.47 -17.95,69.38zm215.69 102.87l0 -259.54 47.47 -5.96 0 102.22 92.32 -11.59 0 -102.23 47.47 -5.96 0 259.55 -47.47 5.96 0 -113.46 -92.32 11.59 0 113.46 -47.47 5.96zm477.32 -155.63l45.83 9.83c-7.04,29.46 -18.77,52.14 -35.14,68.09 -16.37,15.89 -37.1,25.44 -62.26,28.6 -31.15,3.91 -56.74,-4.65 -76.82,-25.7 -20.02,-21.04 -30.06,-51.98 -30.06,-92.88 0,-43.2 10.09,-78.06 30.22,-104.51 20.14,-26.45 46.66,-41.75 79.5,-45.87 28.7,-3.6 52,2.9 69.9,19.44 10.69,9.77 18.66,24.72 24.01,44.89l-46.82 18.21c-2.78,-13.07 -8.57,-22.97 -17.35,-29.66 -8.84,-6.69 -19.53,-9.21 -32.08,-7.64 -17.41,2.19 -31.54,10.85 -42.35,26.04 -10.85,15.14 -16.26,38.17 -16.26,69.1 0,32.75 5.35,55.46 15.99,68.02 10.7,12.61 24.56,17.82 41.63,15.67 12.61,-1.58 23.46,-7.35 32.52,-17.37 9.06,-10.02 15.61,-24.74 19.54,-44.26zm68.53 -41.11c0,-26.46 3.6,-49.14 10.75,-68.04 5.29,-13.9 12.6,-26.72 21.82,-38.39 9.22,-11.67 19.32,-20.73 30.28,-27.24 14.63,-8.67 31.49,-14.23 50.58,-16.62 34.6,-4.35 62.21,4.09 82.99,25.22 20.74,21.2 31.1,52.95 31.1,95.3 0,41.99 -10.31,76.15 -30.88,102.41 -20.57,26.33 -48.12,41.63 -82.55,45.95 -34.87,4.38 -62.64,-3.92 -83.21,-24.96 -20.57,-20.97 -30.88,-52.18 -30.88,-93.63zm48.78 -7.87c0,29.42 6.16,50.94 18.44,64.62 12.28,13.62 27.88,19.28 46.76,16.91 18.93,-2.38 34.43,-11.88 46.6,-28.45 12.11,-16.62 18.17,-39.98 18.17,-70.13 0,-29.78 -5.9,-51.27 -17.74,-64.41 -11.78,-13.2 -27.44,-18.54 -47.03,-16.08 -19.53,2.45 -35.3,11.86 -47.25,28.16 -11.95,16.36 -17.95,39.47 -17.95,69.38zm216.67 -156.8l175.14 -21.99 0 43.86 -127.67 16.03 0 60.18 63.24 -7.94c17.4,-2.19 31.91,-1.66 43.37,1.62 11.52,3.27 21.34,10.73 29.47,22.46 8.13,11.66 12.22,26.07 12.22,43.17 0,17.52 -4.09,33.08 -12.33,46.62 -8.19,13.47 -17.52,23.22 -28.05,29.14 -10.47,5.9 -25.42,10.07 -44.79,12.51l-110.6 13.88 0 -259.54zm47.47 209.72l45.99 -5.77c14.68,-1.85 25.05,-3.93 31,-6.25 5.94,-2.32 11.18,-6.54 15.6,-12.71 4.42,-6.12 6.6,-13.28 6.6,-21.43 0,-11.91 -3.87,-20.06 -11.57,-24.53 -7.74,-4.4 -20.89,-5.47 -39.55,-3.13l-48.07 6.04 0 67.78zm188.19 -239.31l47.47 -5.96 0 103.68 63.23 -7.95c16.59,-2.08 30.89,-1.34 42.84,2.18 11.95,3.51 21.93,11.2 29.95,23.12 7.97,11.93 11.95,26.29 11.95,43.09 0,17.58 -4.15,33.2 -12.44,46.99 -8.35,13.74 -17.57,23.29 -27.77,28.68 -10.15,5.45 -25.05,9.37 -44.63,11.83l-110.6 13.89 0 -259.55zm47.47 209.72l46.16 -5.79c14.67,-1.85 24.93,-3.92 30.77,-6.22 5.78,-2.3 10.97,-6.58 15.5,-12.76 4.52,-6.19 6.76,-13.3 6.76,-21.39 0,-11.48 -3.71,-19.65 -11.08,-24.47 -7.42,-4.81 -20.78,-5.97 -40.04,-3.55l-48.07 6.04 0 68.14zm175.14 -237.67l47.47 -5.96 0 259.54 -47.47 5.96 0 -259.54zm149.29 240.8l0 -215.68 -69.41 8.71 0 -43.86 185.95 -23.35 0 43.87 -69.07 8.67 0 215.68 -47.47 5.96zm147.92 -278.11l44.19 -5.55 0 172.78 94.94 -184.7 47.15 -5.92 0 259.54 -44.2 5.55 0 -170.01 -94.94 181.93 -47.14 5.92 0 -259.54zm235.33 -29.55l44.2 -5.55 0 172.78 94.93 -184.7 47.15 -5.92 0 259.54 -44.2 5.55 0 -170.01 -94.94 181.93 -47.14 5.92 0 -259.54zm121.13 -90.25l21.93 -2.75c-1.25,16.17 -6.38,29.44 -15.27,39.68 -8.9,10.24 -20.41,16.27 -34.54,18.05 -14.19,1.78 -25.7,-1.37 -34.6,-9.37 -8.89,-8.01 -14.02,-19.99 -15.27,-35.84l21.93 -2.76c0.77,8.24 3.38,14.26 7.97,17.97 4.58,3.72 11.24,5 19.97,3.9 8.67,-1.09 15.33,-4.04 19.91,-8.9 4.59,-4.87 7.21,-11.54 7.97,-19.98zm205.16 49.28l44.19 -5.55 0 172.79 94.94 -184.71 47.14 -5.92 0 259.54 -44.19 5.55 0 -170.01 -94.94 181.93 -47.14 5.92 0 -259.54zm326.29 -40.97l186.27 -23.39 0 259.54 -47.47 5.97 0 -215.69 -91.34 11.47 0 215.68 -47.46 5.96 0 -259.54zm234.67 230.08l0 -259.54 75.9 -9.53c28.75,-3.61 47.47,-4.7 56.2,-3.19 13.42,2.24 24.66,9.29 33.72,21.2 9.06,11.91 13.58,28.2 13.58,48.86 0,15.95 -2.61,29.63 -7.8,41.15 -5.24,11.54 -11.84,20.88 -19.86,28.11 -8.02,7.17 -16.2,12.31 -24.5,15.34 -11.29,3.9 -27.61,7.22 -49,9.9l-30.77 3.87 0 97.87 -47.47 5.96zm47.47 -221.64l0 73.94 25.81 -3.24c18.6,-2.33 30.99,-5.28 37.27,-8.78 6.27,-3.51 11.18,-8.36 14.73,-14.66 3.54,-6.25 5.35,-13.18 5.35,-20.91 0,-9.49 -2.51,-16.96 -7.48,-22.5 -5.02,-5.54 -11.3,-8.62 -18.99,-9.22 -5.62,-0.44 -16.91,0.37 -33.94,2.51l-22.75 2.86zm353.3 171.32l-51.13 6.42 -20.24 -56.55 -94.01 11.81 -19.48 61.53 -50.2 6.3 91.01 -270.97 50.14 -6.29 93.91 247.75zm-86.76 -92.05l-32.57 -91.98 -31.65 100.04 64.22 -8.06zm145.41 -104.17l-46.16 -6.17c9.93,-43.54 38.14,-68.22 84.63,-74.06 27.5,-3.45 48.29,0.64 62.31,12.29 14.02,11.66 21.01,26.55 21.01,44.67 0,12.39 -3.22,23.97 -9.61,34.8 -6.38,10.77 -15.98,20.73 -28.75,29.95 15.49,3.97 27.17,10.85 34.92,20.69 7.75,9.9 11.62,22.7 11.62,38.59 0,22.84 -7.53,42.21 -22.64,58.19 -15.06,15.96 -37.65,25.87 -67.72,29.64 -24.5,3.08 -43.86,0.98 -58.05,-6.3 -14.19,-7.28 -24.83,-22.92 -31.97,-46.92l43.21 -21.01c4.47,15.09 10.48,24.48 17.9,28.14 7.42,3.72 16.58,4.87 27.5,3.5 14.95,-1.88 25.86,-6.81 32.73,-14.87 6.82,-8.04 10.26,-16.69 10.26,-26 0,-10.63 -3.87,-18.78 -11.62,-24.33 -7.69,-5.56 -19.37,-7.36 -34.92,-5.41l-10.75 1.35 0 -39.14 5.4 -0.68c14.46,-1.82 25.54,-6.83 33.18,-14.98 7.69,-8.16 11.51,-18.24 11.51,-30.14 0,-9.49 -3.11,-17.07 -9.33,-22.82 -6.22,-5.68 -15.11,-7.83 -26.68,-6.38 -19.81,2.49 -32.47,14.96 -37.98,37.4zm190.7 -94.63l161.72 -20.31 0 215.68 20.63 -2.59 0 100.41 -39.61 4.98 0 -56.55 -147 18.45 0 56.55 -39.61 4.98 0 -100.41 19.97 -2.51c9.71,-23.39 16.15,-49.94 19.26,-79.57 3.11,-29.69 4.64,-66.92 4.64,-111.68l0 -27.43zm45.18 38.19c0,78.54 -6.55,136.63 -19.65,174.28l88.72 -11.14 0 -171.82 -69.07 8.68zm169.03 194.45l0 -259.54 47.47 -5.96 0 102.22 92.32 -11.59 0 -102.22 47.47 -5.96 0 259.54 -47.47 5.96 0 -113.46 -92.32 11.6 0 113.45 -47.47 5.96zm237.08 -289.31l44.19 -5.54 0 172.78 94.95 -184.7 47.14 -5.92 0 259.54 -44.2 5.55 0 -170.01 -94.94 181.93 -47.14 5.92 0 -259.55zm235.33 -29.54l47.47 -5.96 0 110.56c10.53,-2.53 17.68,-6.39 21.39,-11.75 3.71,-5.3 9.49,-19.5 17.24,-42.58 9.77,-29.32 19.64,-48.08 29.52,-56.15 9.82,-8.06 25.59,-13.48 47.41,-16.22 1.1,-0.14 3.39,-0.49 6.88,-1.05l0 38.79 -6.71 0.66c-9.71,1.22 -16.81,3.44 -21.28,6.66 -4.47,3.22 -8.08,7.72 -10.86,13.51 -2.78,5.78 -6.87,17.47 -12.28,35.07 -2.89,9.36 -6,17.24 -9.38,23.71 -3.33,6.46 -9.28,12.89 -17.79,19.27 10.53,1.94 19.21,7.56 26.08,16.72 6.88,9.17 14.41,22.36 22.59,39.64l31.92 67.04 -55.65 6.99 -28.1 -63.3c-0.44,-0.91 -1.37,-2.6 -2.73,-5.15 -0.55,-0.84 -2.51,-4.7 -5.89,-11.46 -6.01,-12.06 -10.92,-19.42 -14.74,-22.14 -3.87,-2.71 -9.71,-3.61 -17.62,-2.74l0 113.46 -47.47 5.96 0 -259.54zm410.3 208.02l-51.12 6.42 -20.24 -56.54 -94.02 11.8 -19.47 61.53 -50.2 6.3 91.01 -270.96 50.14 -6.3 93.9 247.75zm-86.74 -92.05l-32.57 -91.97 -31.65 100.03 64.22 -8.06z"/>
  <path class="fil5" d="M3015.2 5330.56l-51.13 6.41 -20.24 -56.54 -94.01 11.8 -19.48 61.54 -50.2 6.3 91.01 -270.97 50.14 -6.3 93.91 247.76zm-86.76 -92.06l-32.57 -91.97 -31.65 100.03 64.22 -8.06zm75.46 -166.07l53.31 -6.69 54.56 127.51 46.71 -140.23 49.38 -6.2 -79.28 207.21c-8.62,22.47 -17.41,39.83 -26.36,52.13 -8.95,12.29 -20.46,19.3 -34.64,21.08 -13.97,1.75 -24.89,2.1 -32.74,1.09l0 -39.03c6.71,-0.36 12.77,-0.88 18.17,-1.55 10.91,-1.37 18.77,-4.6 23.51,-9.6 4.7,-5.06 9.28,-15.24 13.59,-30.46l-86.21 -175.26zm228.35 -28.67l47.47 -5.96 0 110.56c10.53,-2.53 17.68,-6.39 21.39,-11.75 3.71,-5.3 9.49,-19.5 17.24,-42.58 9.76,-29.32 19.64,-48.08 29.52,-56.15 9.82,-8.06 25.59,-13.48 47.41,-16.22 1.09,-0.14 3.39,-0.49 6.88,-1.05l0 38.79 -6.71 0.66c-9.72,1.22 -16.81,3.44 -21.28,6.66 -4.48,3.22 -8.08,7.72 -10.86,13.51 -2.78,5.79 -6.88,17.48 -12.28,35.07 -2.89,9.36 -6,17.25 -9.38,23.71 -3.33,6.46 -9.28,12.89 -17.79,19.27 10.53,1.94 19.21,7.56 26.08,16.73 6.88,9.16 14.4,22.35 22.59,39.63l31.92 67.04 -55.66 6.99 -28.1 -63.29c-0.43,-0.91 -1.36,-2.61 -2.72,-5.16 -0.55,-0.83 -2.51,-4.7 -5.9,-11.46 -6,-12.06 -10.91,-19.41 -14.73,-22.14 -3.87,-2.71 -9.71,-3.61 -17.62,-2.74l0 113.46 -47.47 5.96 0 -259.54zm199.81 -25.09l47.47 -5.96 0 215.68 91.34 -11.46 0 -215.69 47.47 -5.96 0 215.68 19.64 -2.46 0 100.41 -39.61 4.97 0 -56.55 -166.31 20.88 0 -259.54zm239.15 -30.02l44.19 -5.55 0 172.78 94.94 -184.7 47.15 -5.92 0 259.54 -44.2 5.55 0 -170.01 -94.94 181.93 -47.14 5.92 0 -259.54zm224.85 103.11c0,-26.47 3.6,-49.15 10.75,-68.05 5.29,-13.9 12.61,-26.72 21.83,-38.39 9.22,-11.67 19.31,-20.73 30.28,-27.24 14.62,-8.66 31.48,-14.22 50.58,-16.62 34.59,-4.35 62.2,4.09 82.99,25.22 20.73,21.2 31.1,52.95 31.1,95.3 0,41.99 -10.31,76.15 -30.88,102.41 -20.57,26.33 -48.13,41.63 -82.56,45.95 -34.86,4.38 -62.64,-3.91 -83.2,-24.95 -20.57,-20.98 -30.89,-52.19 -30.89,-93.63zm48.78 -7.88c0,29.42 6.17,50.94 18.44,64.62 12.28,13.63 27.89,19.28 46.76,16.91 18.94,-2.38 34.43,-11.88 46.6,-28.45 12.11,-16.62 18.17,-39.98 18.17,-70.13 0,-29.78 -5.89,-51.27 -17.73,-64.41 -11.79,-13.2 -27.45,-18.54 -47.04,-16.08 -19.53,2.45 -35.3,11.86 -47.25,28.16 -11.95,16.37 -17.95,39.47 -17.95,69.38zm215.69 102.87l0 -259.54 47.47 -5.96 0 102.22 92.32 -11.59 0 -102.23 47.47 -5.96 0 259.55 -47.47 5.96 0 -113.46 -92.32 11.59 0 113.46 -47.47 5.96zm477.32 -155.63l45.83 9.83c-7.04,29.46 -18.77,52.14 -35.14,68.09 -16.37,15.89 -37.1,25.44 -62.26,28.6 -31.15,3.91 -56.74,-4.65 -76.82,-25.7 -20.02,-21.04 -30.06,-51.98 -30.06,-92.88 0,-43.2 10.09,-78.06 30.22,-104.51 20.14,-26.45 46.66,-41.75 79.5,-45.87 28.7,-3.6 52,2.9 69.9,19.44 10.69,9.77 18.66,24.72 24.01,44.89l-46.82 18.21c-2.78,-13.07 -8.57,-22.97 -17.35,-29.66 -8.84,-6.69 -19.53,-9.21 -32.08,-7.64 -17.41,2.19 -31.54,10.85 -42.35,26.04 -10.85,15.14 -16.26,38.17 -16.26,69.1 0,32.75 5.35,55.46 15.99,68.02 10.7,12.61 24.56,17.82 41.63,15.67 12.61,-1.58 23.46,-7.35 32.52,-17.37 9.06,-10.02 15.61,-24.74 19.54,-44.26zm68.53 -41.11c0,-26.46 3.6,-49.14 10.75,-68.04 5.29,-13.9 12.6,-26.72 21.82,-38.39 9.22,-11.67 19.32,-20.73 30.28,-27.24 14.63,-8.67 31.49,-14.23 50.58,-16.62 34.6,-4.35 62.21,4.09 82.99,25.22 20.74,21.2 31.1,52.95 31.1,95.3 0,41.99 -10.31,76.15 -30.88,102.41 -20.57,26.33 -48.12,41.63 -82.55,45.95 -34.87,4.38 -62.64,-3.92 -83.21,-24.96 -20.57,-20.97 -30.88,-52.18 -30.88,-93.63zm48.78 -7.87c0,29.42 6.16,50.94 18.44,64.62 12.28,13.62 27.88,19.28 46.76,16.91 18.93,-2.38 34.43,-11.88 46.6,-28.45 12.11,-16.62 18.17,-39.98 18.17,-70.13 0,-29.78 -5.9,-51.27 -17.74,-64.41 -11.78,-13.2 -27.44,-18.54 -47.03,-16.08 -19.53,2.45 -35.3,11.86 -47.25,28.16 -11.95,16.36 -17.95,39.47 -17.95,69.38zm216.67 -156.8l175.14 -21.99 0 43.86 -127.67 16.03 0 60.18 63.24 -7.94c17.4,-2.19 31.91,-1.66 43.37,1.62 11.52,3.27 21.34,10.73 29.47,22.46 8.13,11.66 12.22,26.07 12.22,43.17 0,17.52 -4.09,33.08 -12.33,46.62 -8.19,13.47 -17.52,23.22 -28.05,29.14 -10.47,5.9 -25.42,10.07 -44.79,12.51l-110.6 13.88 0 -259.54zm47.47 209.72l45.99 -5.77c14.68,-1.85 25.05,-3.93 31,-6.25 5.94,-2.32 11.18,-6.54 15.6,-12.71 4.42,-6.12 6.6,-13.28 6.6,-21.43 0,-11.91 -3.87,-20.06 -11.57,-24.53 -7.74,-4.4 -20.89,-5.47 -39.55,-3.13l-48.07 6.04 0 67.78zm188.19 -239.31l47.47 -5.96 0 103.68 63.23 -7.95c16.59,-2.08 30.89,-1.34 42.84,2.18 11.95,3.51 21.93,11.2 29.95,23.12 7.97,11.93 11.95,26.29 11.95,43.09 0,17.58 -4.15,33.2 -12.44,46.99 -8.35,13.74 -17.57,23.29 -27.77,28.68 -10.15,5.45 -25.05,9.37 -44.63,11.83l-110.6 13.89 0 -259.55zm47.47 209.72l46.16 -5.79c14.67,-1.85 24.93,-3.92 30.77,-6.22 5.78,-2.3 10.97,-6.58 15.5,-12.76 4.52,-6.19 6.76,-13.3 6.76,-21.39 0,-11.48 -3.71,-19.65 -11.08,-24.47 -7.42,-4.81 -20.78,-5.97 -40.04,-3.55l-48.07 6.04 0 68.14zm175.14 -237.67l47.47 -5.96 0 259.54 -47.47 5.96 0 -259.54zm149.29 240.8l0 -215.68 -69.41 8.71 0 -43.86 185.95 -23.35 0 43.87 -69.07 8.67 0 215.68 -47.47 5.96zm147.92 -278.11l44.19 -5.55 0 172.78 94.94 -184.7 47.15 -5.92 0 259.54 -44.2 5.55 0 -170.01 -94.94 181.93 -47.14 5.92 0 -259.54zm235.33 -29.55l44.2 -5.55 0 172.78 94.93 -184.7 47.15 -5.92 0 259.54 -44.2 5.55 0 -170.01 -94.94 181.93 -47.14 5.92 0 -259.54zm121.13 -90.25l21.93 -2.75c-1.25,16.17 -6.38,29.44 -15.27,39.68 -8.9,10.24 -20.41,16.27 -34.54,18.05 -14.19,1.78 -25.7,-1.37 -34.6,-9.37 -8.89,-8.01 -14.02,-19.99 -15.27,-35.84l21.93 -2.76c0.77,8.24 3.38,14.26 7.97,17.97 4.58,3.72 11.24,5 19.97,3.9 8.67,-1.09 15.33,-4.04 19.91,-8.9 4.59,-4.87 7.21,-11.54 7.97,-19.98zm205.16 49.28l44.19 -5.55 0 172.79 94.94 -184.71 47.14 -5.92 0 259.54 -44.19 5.55 0 -170.01 -94.94 181.93 -47.14 5.92 0 -259.54zm326.29 -40.97l186.27 -23.39 0 259.54 -47.47 5.97 0 -215.69 -91.34 11.47 0 215.68 -47.46 5.96 0 -259.54zm234.67 230.08l0 -259.54 75.9 -9.53c28.75,-3.61 47.47,-4.7 56.2,-3.19 13.42,2.24 24.66,9.29 33.72,21.2 9.06,11.91 13.58,28.2 13.58,48.86 0,15.95 -2.61,29.63 -7.8,41.15 -5.24,11.54 -11.84,20.88 -19.86,28.11 -8.02,7.17 -16.2,12.31 -24.5,15.34 -11.29,3.9 -27.61,7.22 -49,9.9l-30.77 3.87 0 97.87 -47.47 5.96zm47.47 -221.64l0 73.94 25.81 -3.24c18.6,-2.33 30.99,-5.28 37.27,-8.78 6.27,-3.51 11.18,-8.36 14.73,-14.66 3.54,-6.25 5.35,-13.18 5.35,-20.91 0,-9.49 -2.51,-16.96 -7.48,-22.5 -5.02,-5.54 -11.3,-8.62 -18.99,-9.22 -5.62,-0.44 -16.91,0.37 -33.94,2.51l-22.75 2.86zm353.3 171.32l-51.13 6.42 -20.24 -56.55 -94.01 11.81 -19.48 61.53 -50.2 6.3 91.01 -270.97 50.14 -6.29 93.91 247.75zm-86.76 -92.05l-32.57 -91.98 -31.65 100.04 64.22 -8.06zm145.41 -104.17l-46.16 -6.17c9.93,-43.54 38.14,-68.22 84.63,-74.06 27.5,-3.45 48.29,0.64 62.31,12.29 14.02,11.66 21.01,26.55 21.01,44.67 0,12.39 -3.22,23.97 -9.61,34.8 -6.38,10.77 -15.98,20.73 -28.75,29.95 15.49,3.97 27.17,10.85 34.92,20.69 7.75,9.9 11.62,22.7 11.62,38.59 0,22.84 -7.53,42.21 -22.64,58.19 -15.06,15.96 -37.65,25.87 -67.72,29.64 -24.5,3.08 -43.86,0.98 -58.05,-6.3 -14.19,-7.28 -24.83,-22.92 -31.97,-46.92l43.21 -21.01c4.47,15.09 10.48,24.48 17.9,28.14 7.42,3.72 16.58,4.87 27.5,3.5 14.95,-1.88 25.86,-6.81 32.73,-14.87 6.82,-8.04 10.26,-16.69 10.26,-26 0,-10.63 -3.87,-18.78 -11.62,-24.33 -7.69,-5.56 -19.37,-7.36 -34.92,-5.41l-10.75 1.35 0 -39.14 5.4 -0.68c14.46,-1.82 25.54,-6.83 33.18,-14.98 7.69,-8.16 11.51,-18.24 11.51,-30.14 0,-9.49 -3.11,-17.07 -9.33,-22.82 -6.22,-5.68 -15.11,-7.83 -26.68,-6.38 -19.81,2.49 -32.47,14.96 -37.98,37.4zm190.7 -94.63l161.72 -20.31 0 215.68 20.63 -2.59 0 100.41 -39.61 4.98 0 -56.55 -147 18.45 0 56.55 -39.61 4.98 0 -100.41 19.97 -2.51c9.71,-23.39 16.15,-49.94 19.26,-79.57 3.11,-29.69 4.64,-66.92 4.64,-111.68l0 -27.43zm45.18 38.19c0,78.54 -6.55,136.63 -19.65,174.28l88.72 -11.14 0 -171.82 -69.07 8.68zm169.03 194.45l0 -259.54 47.47 -5.96 0 102.22 92.32 -11.59 0 -102.22 47.47 -5.96 0 259.54 -47.47 5.96 0 -113.46 -92.32 11.6 0 113.45 -47.47 5.96zm237.08 -289.31l44.19 -5.54 0 172.78 94.95 -184.7 47.14 -5.92 0 259.54 -44.2 5.55 0 -170.01 -94.94 181.93 -47.14 5.92 0 -259.55zm235.33 -29.54l47.47 -5.96 0 110.56c10.53,-2.53 17.68,-6.39 21.39,-11.75 3.71,-5.3 9.49,-19.5 17.24,-42.58 9.77,-29.32 19.64,-48.08 29.52,-56.15 9.82,-8.06 25.59,-13.48 47.41,-16.22 1.1,-0.14 3.39,-0.49 6.88,-1.05l0 38.79 -6.71 0.66c-9.71,1.22 -16.81,3.44 -21.28,6.66 -4.47,3.22 -8.08,7.72 -10.86,13.51 -2.78,5.78 -6.87,17.47 -12.28,35.07 -2.89,9.36 -6,17.24 -9.38,23.71 -3.33,6.46 -9.28,12.89 -17.79,19.27 10.53,1.94 19.21,7.56 26.08,16.72 6.88,9.17 14.41,22.36 22.59,39.64l31.92 67.04 -55.65 6.99 -28.1 -63.3c-0.44,-0.91 -1.37,-2.6 -2.73,-5.15 -0.55,-0.84 -2.51,-4.7 -5.89,-11.46 -6.01,-12.06 -10.92,-19.42 -14.74,-22.14 -3.87,-2.71 -9.71,-3.61 -17.62,-2.74l0 113.46 -47.47 5.96 0 -259.54zm410.3 208.02l-51.12 6.42 -20.24 -56.54 -94.02 11.8 -19.47 61.53 -50.2 6.3 91.01 -270.96 50.14 -6.3 93.9 247.75zm-86.74 -92.05l-32.57 -91.97 -31.65 100.03 64.22 -8.06z"/>
  <path class="fil3" d="M2918.7 2861.62l375 -43.42 142.85 512.14 143.28 -545.28 373.29 -43.22 0 868.87 -232.58 26.93 0 -662.37 -179.47 683.15 -210.74 24.4 -179.05 -641.63 0 662.36 -232.58 26.94 0 -868.87zm1122.87 -130.02l315.68 -36.56 186.11 270.9 185.26 -313.9 313.96 -36.36 -357.23 546.39 0 363.84 -285.27 33.04 0 -363.85 -358.51 -463.5z"/>
  <path class="fil3" d="M4104.44 3776.14l864.8 -100.14 0 214.79 -290.41 33.63 0 654.08 -283.98 32.88 0 -654.07 -290.41 33.62 0 -214.79zm992.23 -114.89l760.72 -88.09 0 185.67 -475.45 55.05 0 138.34 440.75 -51.04 0 177.17 -440.75 51.04 0 171.1 489.58 -56.69 0 196.59 -774.85 89.72 0 -868.86zm930.55 -107.76l265.35 -30.72 345.02 439.78 0 -479.73 268.57 -31.1 0 868.86 -268.57 31.1 -343.09 -437.38 0 477.11 -267.28 30.95 0 -868.87zm1071.69 -124.09l422.55 -48.93c83.09,-9.63 150.56,-6.72 201.74,8.59 51.19,15.51 93.59,41.14 127.22,77.09 33.41,36.18 57.61,79.69 72.6,130.94 15.2,51.23 22.7,106.39 22.7,165.65 0,92.83 -11.14,166.12 -33.62,219.89 -22.28,53.75 -53.33,100.23 -93.17,139.42 -39.83,39.2 -82.45,67.19 -128.07,84 -62.32,23 -118.86,37.43 -169.4,43.28l-422.55 48.93 0 -868.86zm283.98 163.7l0 474.48 69.82 -8.09c59.54,-6.89 101.94,-18.07 127.21,-33.34 25.06,-15.44 44.76,-39.36 59.11,-71.97 14.35,-32.8 21.42,-83.78 21.42,-153.35 0,-92.03 -15.85,-153.09 -47.76,-183.37 -31.91,-30.29 -84.81,-41.15 -158.7,-32.59l-71.1 8.23z"/>
  <polygon class="fil6 str3" points="2590.81,4979.37 8669.11,4216.18 8669.11,4651.17 2590.81,5414.35 "/>
  <path class="fil5" d="M2967.56 5284.22l-51.13 6.41 -20.24 -56.54 -94.01 11.8 -19.48 61.54 -50.2 6.3 91.01 -270.97 50.15 -6.3 93.9 247.76zm-86.75 -92.06l-32.58 -91.97 -31.65 100.03 64.23 -8.06zm75.46 -166.07l53.3 -6.69 54.57 127.51 46.7 -140.23 49.38 -6.2 -79.28 207.21c-8.62,22.47 -17.4,39.83 -26.35,52.13 -8.95,12.29 -20.46,19.3 -34.65,21.08 -13.97,1.75 -24.88,2.1 -32.74,1.09l0 -39.03c6.71,-0.36 12.77,-0.88 18.17,-1.55 10.91,-1.37 18.77,-4.6 23.52,-9.6 4.69,-5.06 9.27,-15.24 13.59,-30.46l-86.21 -175.26zm228.34 -28.67l47.47 -5.96 0 110.56c10.53,-2.53 17.68,-6.39 21.39,-11.75 3.71,-5.3 9.5,-19.5 17.24,-42.58 9.77,-29.32 19.64,-48.08 29.52,-56.15 9.82,-8.06 25.59,-13.48 47.42,-16.22 1.09,-0.14 3.38,-0.49 6.87,-1.05l0 38.79 -6.71 0.66c-9.71,1.22 -16.81,3.44 -21.28,6.66 -4.47,3.22 -8.07,7.72 -10.86,13.51 -2.78,5.79 -6.87,17.48 -12.27,35.07 -2.9,9.36 -6.01,17.25 -9.39,23.71 -3.33,6.46 -9.27,12.89 -17.79,19.27 10.53,1.94 19.21,7.56 26.08,16.73 6.88,9.16 14.41,22.35 22.59,39.63l31.92 67.04 -55.65 6.99 -28.1 -63.29c-0.44,-0.91 -1.37,-2.61 -2.73,-5.16 -0.55,-0.83 -2.51,-4.7 -5.89,-11.46 -6,-12.06 -10.92,-19.41 -14.73,-22.14 -3.88,-2.71 -9.72,-3.61 -17.63,-2.74l0 113.46 -47.47 5.96 0 -259.54zm199.81 -25.09l47.47 -5.96 0 215.68 91.34 -11.46 0 -215.69 47.47 -5.96 0 215.68 19.64 -2.46 0 100.41 -39.61 4.97 0 -56.55 -166.31 20.88 0 -259.54zm239.15 -30.02l44.2 -5.55 0 172.78 94.94 -184.7 47.14 -5.92 0 259.54 -44.2 5.55 0 -170.01 -94.94 181.93 -47.14 5.92 0 -259.54zm224.86 103.11c0,-26.47 3.6,-49.15 10.75,-68.05 5.29,-13.9 12.6,-26.72 21.82,-38.39 9.22,-11.67 19.32,-20.73 30.28,-27.24 14.63,-8.66 31.49,-14.22 50.58,-16.62 34.6,-4.35 62.21,4.09 82.99,25.22 20.74,21.2 31.1,52.95 31.1,95.3 0,41.99 -10.31,76.15 -30.88,102.41 -20.57,26.33 -48.12,41.63 -82.55,45.95 -34.87,4.38 -62.64,-3.91 -83.21,-24.95 -20.57,-20.98 -30.88,-52.19 -30.88,-93.63zm48.78 -7.88c0,29.42 6.16,50.94 18.44,64.62 12.28,13.63 27.88,19.28 46.76,16.91 18.93,-2.38 34.43,-11.88 46.6,-28.45 12.11,-16.62 18.17,-39.98 18.17,-70.13 0,-29.78 -5.9,-51.27 -17.74,-64.41 -11.78,-13.2 -27.44,-18.54 -47.03,-16.08 -19.53,2.45 -35.3,11.86 -47.25,28.16 -11.95,16.37 -17.95,39.47 -17.95,69.38zm215.68 102.87l0 -259.54 47.47 -5.96 0 102.22 92.32 -11.59 0 -102.23 47.47 -5.96 0 259.55 -47.47 5.96 0 -113.46 -92.32 11.59 0 113.46 -47.47 5.96zm477.32 -155.63l45.83 9.83c-7.04,29.46 -18.77,52.14 -35.14,68.09 -16.36,15.89 -37.1,25.44 -62.25,28.6 -31.16,3.91 -56.75,-4.65 -76.83,-25.7 -20.02,-21.04 -30.06,-51.98 -30.06,-92.88 0,-43.2 10.09,-78.06 30.23,-104.51 20.13,-26.45 46.65,-41.75 79.5,-45.87 28.7,-3.6 52,2.9 69.89,19.44 10.7,9.77 18.66,24.72 24.01,44.89l-46.82 18.21c-2.78,-13.07 -8.56,-22.97 -17.35,-29.66 -8.84,-6.69 -19.53,-9.21 -32.08,-7.64 -17.41,2.19 -31.54,10.85 -42.34,26.04 -10.86,15.14 -16.26,38.17 -16.26,69.1 0,32.75 5.35,55.46 15.99,68.02 10.69,12.61 24.55,17.82 41.63,15.67 12.6,-1.58 23.46,-7.35 32.52,-17.37 9.05,-10.02 15.6,-24.74 19.53,-44.26zm68.53 -41.11c0,-26.46 3.6,-49.14 10.75,-68.04 5.29,-13.9 12.61,-26.72 21.83,-38.39 9.22,-11.67 19.31,-20.73 30.28,-27.24 14.62,-8.67 31.48,-14.23 50.58,-16.62 34.59,-4.35 62.2,4.09 82.99,25.22 20.73,21.2 31.1,52.95 31.1,95.3 0,41.99 -10.31,76.15 -30.88,102.41 -20.57,26.33 -48.13,41.63 -82.56,45.95 -34.86,4.38 -62.64,-3.92 -83.21,-24.96 -20.57,-20.97 -30.88,-52.18 -30.88,-93.63zm48.78 -7.87c0,29.42 6.17,50.94 18.44,64.62 12.28,13.62 27.89,19.28 46.76,16.91 18.94,-2.38 34.43,-11.88 46.6,-28.45 12.11,-16.62 18.17,-39.98 18.17,-70.13 0,-29.78 -5.89,-51.27 -17.73,-64.41 -11.79,-13.2 -27.45,-18.54 -47.04,-16.08 -19.53,2.45 -35.3,11.86 -47.25,28.16 -11.95,16.36 -17.95,39.47 -17.95,69.38zm216.67 -156.8l175.15 -21.99 0 43.86 -127.68 16.03 0 60.18 63.24 -7.94c17.41,-2.19 31.92,-1.66 43.38,1.62 11.51,3.27 21.33,10.73 29.46,22.46 8.13,11.66 12.22,26.07 12.22,43.17 0,17.52 -4.09,33.08 -12.33,46.62 -8.18,13.47 -17.51,23.22 -28.04,29.14 -10.48,5.9 -25.43,10.07 -44.8,12.51l-110.6 13.88 0 -259.54zm47.47 209.72l46 -5.77c14.67,-1.85 25.04,-3.93 30.99,-6.25 5.95,-2.32 11.19,-6.54 15.61,-12.71 4.41,-6.12 6.6,-13.28 6.6,-21.43 0,-11.91 -3.88,-20.06 -11.57,-24.53 -7.75,-4.4 -20.9,-5.47 -39.56,-3.13l-48.07 6.04 0 67.78zm188.19 -239.31l47.47 -5.96 0 103.68 63.24 -7.95c16.59,-2.08 30.88,-1.34 42.83,2.18 11.95,3.51 21.93,11.2 29.95,23.12 7.97,11.93 11.95,26.29 11.95,43.09 0,17.58 -4.14,33.2 -12.44,46.99 -8.34,13.74 -17.56,23.29 -27.77,28.68 -10.15,5.45 -25.04,9.37 -44.63,11.83l-110.6 13.89 0 -259.55zm47.47 209.72l46.16 -5.79c14.68,-1.85 24.93,-3.92 30.77,-6.22 5.79,-2.3 10.97,-6.58 15.5,-12.76 4.53,-6.19 6.76,-13.3 6.76,-21.39 0,-11.48 -3.71,-19.65 -11.07,-24.47 -7.42,-4.81 -20.79,-5.97 -40.05,-3.55l-48.07 6.04 0 68.14zm175.15 -237.67l47.47 -5.96 0 259.54 -47.47 5.96 0 -259.54zm149.28 240.8l0 -215.68 -69.4 8.71 0 -43.86 185.95 -23.35 0 43.87 -69.08 8.67 0 215.68 -47.47 5.96zm147.92 -278.11l44.2 -5.55 0 172.78 94.94 -184.7 47.14 -5.92 0 259.54 -44.19 5.55 0 -170.01 -94.95 181.93 -47.14 5.92 0 -259.54zm235.33 -29.55l44.2 -5.55 0 172.78 94.94 -184.7 47.14 -5.92 0 259.54 -44.19 5.55 0 -170.01 -94.94 181.93 -47.15 5.92 0 -259.54zm121.13 -90.25l21.94 -2.75c-1.26,16.17 -6.39,29.44 -15.28,39.68 -8.89,10.24 -20.41,16.27 -34.54,18.05 -14.18,1.78 -25.7,-1.37 -34.59,-9.37 -8.89,-8.01 -14.02,-19.99 -15.28,-35.84l21.94 -2.76c0.76,8.24 3.38,14.26 7.96,17.97 4.59,3.72 11.24,5 19.97,3.9 8.68,-1.09 15.33,-4.04 19.92,-8.9 4.58,-4.87 7.2,-11.54 7.96,-19.98zm205.16 49.28l44.2 -5.55 0 172.79 94.94 -184.71 47.14 -5.92 0 259.54 -44.2 5.55 0 -170.01 -94.94 181.93 -47.14 5.92 0 -259.54zm326.29 -40.97l186.28 -23.39 0 259.54 -47.47 5.97 0 -215.69 -91.34 11.47 0 215.68 -47.47 5.96 0 -259.54zm234.68 230.08l0 -259.54 75.89 -9.53c28.76,-3.61 47.47,-4.7 56.2,-3.19 13.42,2.24 24.67,9.28 33.72,21.2 9.06,11.91 13.59,28.2 13.59,48.86 0,15.95 -2.62,29.63 -7.8,41.15 -5.24,11.54 -11.84,20.88 -19.86,28.11 -8.03,7.17 -16.21,12.31 -24.5,15.34 -11.3,3.9 -27.61,7.22 -49,9.9l-30.77 3.87 0 97.87 -47.47 5.96zm47.47 -221.64l0 73.94 25.8 -3.24c18.61,-2.33 30.99,-5.28 37.27,-8.78 6.28,-3.51 11.19,-8.36 14.73,-14.66 3.55,-6.25 5.35,-13.18 5.35,-20.91 0,-9.49 -2.51,-16.96 -7.48,-22.5 -5.01,-5.54 -11.29,-8.62 -18.98,-9.22 -5.62,-0.44 -16.92,0.37 -33.94,2.51l-22.75 2.86zm353.29 171.32l-51.12 6.42 -20.25 -56.55 -94.01 11.81 -19.48 61.53 -50.2 6.3 91.01 -270.97 50.15 -6.29 93.9 247.75zm-86.75 -92.05l-32.58 -91.98 -31.64 100.04 64.22 -8.06zm145.41 -104.17l-46.16 -6.17c9.93,-43.54 38.13,-68.22 84.62,-74.06 27.5,-3.45 48.29,0.64 62.31,12.29 14.03,11.66 21.01,26.55 21.01,44.67 0,12.39 -3.22,23.97 -9.6,34.8 -6.39,10.77 -15.99,20.73 -28.76,29.95 15.5,3.97 27.18,10.85 34.92,20.69 7.75,9.9 11.62,22.7 11.62,38.59 0,22.84 -7.52,42.21 -22.64,58.19 -15.06,15.96 -37.65,25.87 -67.71,29.64 -24.5,3.08 -43.87,0.98 -58.06,-6.3 -14.18,-7.28 -24.82,-22.92 -31.97,-46.92l43.21 -21.01c4.48,15.09 10.48,24.48 17.9,28.14 7.42,3.72 16.59,4.87 27.5,3.5 14.95,-1.88 25.86,-6.81 32.74,-14.87 6.82,-8.04 10.26,-16.69 10.26,-26 0,-10.63 -3.88,-18.78 -11.63,-24.33 -7.69,-5.56 -19.37,-7.36 -34.92,-5.41l-10.75 1.35 0 -39.14 5.41 -0.68c14.46,-1.82 25.53,-6.83 33.17,-14.98 7.69,-8.16 11.51,-18.24 11.51,-30.14 0,-9.49 -3.11,-17.07 -9.33,-22.82 -6.22,-5.68 -15.11,-7.83 -26.68,-6.38 -19.8,2.49 -32.46,14.96 -37.97,37.4zm190.69 -94.63l161.73 -20.31 0 215.68 20.62 -2.59 0 100.41 -39.61 4.98 0 -56.55 -146.99 18.45 0 56.55 -39.62 4.98 0 -100.41 19.97 -2.51c9.72,-23.39 16.16,-49.94 19.26,-79.57 3.11,-29.69 4.64,-66.92 4.64,-111.68l0 -27.43zm45.18 38.19c0,78.54 -6.55,136.63 -19.64,174.28l88.72 -11.14 0 -171.82 -69.08 8.68zm169.04 194.45l0 -259.54 47.47 -5.96 0 102.22 92.32 -11.59 0 -102.22 47.47 -5.96 0 259.54 -47.47 5.96 0 -113.46 -92.32 11.6 0 113.45 -47.47 5.96zm237.07 -289.31l44.2 -5.54 0 172.78 94.94 -184.7 47.14 -5.92 0 259.54 -44.19 5.55 0 -170.01 -94.94 181.93 -47.15 5.92 0 -259.55zm235.33 -29.54l47.47 -5.96 0 110.56c10.53,-2.53 17.68,-6.39 21.39,-11.75 3.71,-5.3 9.5,-19.5 17.24,-42.58 9.77,-29.32 19.65,-48.08 29.52,-56.15 9.82,-8.06 25.59,-13.48 47.42,-16.22 1.09,-0.14 3.38,-0.49 6.87,-1.05l0 38.79 -6.71 0.66c-9.71,1.22 -16.8,3.44 -21.28,6.66 -4.47,3.22 -8.07,7.72 -10.85,13.51 -2.79,5.78 -6.88,17.47 -12.28,35.07 -2.89,9.36 -6,17.24 -9.39,23.71 -3.32,6.46 -9.27,12.89 -17.78,19.27 10.53,1.94 19.2,7.56 26.08,16.72 6.87,9.17 14.4,22.36 22.59,39.64l31.92 67.04 -55.66 6.99 -28.1 -63.3c-0.43,-0.91 -1.36,-2.6 -2.73,-5.15 -0.54,-0.84 -2.51,-4.7 -5.89,-11.46 -6,-12.06 -10.91,-19.42 -14.73,-22.14 -3.88,-2.71 -9.71,-3.61 -17.63,-2.74l0 113.46 -47.47 5.96 0 -259.54zm410.31 208.02l-51.13 6.42 -20.24 -56.54 -94.01 11.8 -19.48 61.53 -50.2 6.3 91.01 -270.96 50.15 -6.3 93.9 247.75zm-86.75 -92.05l-32.57 -91.97 -31.65 100.03 64.22 -8.06z"/>
  <polygon class="fil7" points="8015.67,2603.65 8123.62,2886.99 8475.05,2886.42 8190.34,3060.95 8299.58,3343.94 8015.67,3168.47 7731.75,3343.94 7840.99,3060.95 7556.28,2886.42 7907.71,2886.99 "/>
  <polygon class="fil8 str4" points="7176.68,2375.62 7079.54,2651.46 6763.33,2650.91 7019.51,2820.83 6921.21,3096.33 7176.68,2925.51 7432.14,3096.33 7333.85,2820.83 7590.02,2650.91 7273.81,2651.46 "/>
  <polygon class="fil9" points="6303.41,2308.53 6395.43,2551.98 6695.01,2551.49 6452.31,2701.46 6545.43,2944.61 6303.41,2793.84 6061.38,2944.61 6154.5,2701.46 5911.8,2551.49 6211.38,2551.98 "/>
  <polygon class="fil6 str3" points="2590.81,4979.37 8669.11,4216.18 8669.11,4651.17 2590.81,5414.35 "/>
  <path class="fil5" d="M2967.56 5284.22l-51.13 6.41 -20.24 -56.54 -94.01 11.8 -19.48 61.54 -50.2 6.3 91.01 -270.97 50.15 -6.3 93.9 247.76zm-86.75 -92.06l-32.58 -91.97 -31.65 100.03 64.23 -8.06zm75.46 -166.07l53.3 -6.69 54.57 127.51 46.7 -140.23 49.38 -6.2 -79.28 207.21c-8.62,22.47 -17.4,39.83 -26.35,52.13 -8.95,12.29 -20.46,19.3 -34.65,21.08 -13.97,1.75 -24.88,2.1 -32.74,1.09l0 -39.03c6.71,-0.36 12.77,-0.88 18.17,-1.55 10.91,-1.37 18.77,-4.6 23.52,-9.6 4.69,-5.06 9.27,-15.24 13.59,-30.46l-86.21 -175.26zm228.34 -28.67l47.47 -5.96 0 110.56c10.53,-2.53 17.68,-6.39 21.39,-11.75 3.71,-5.3 9.5,-19.5 17.24,-42.58 9.77,-29.32 19.64,-48.08 29.52,-56.15 9.82,-8.06 25.59,-13.48 47.42,-16.22 1.09,-0.14 3.38,-0.49 6.87,-1.05l0 38.79 -6.71 0.66c-9.71,1.22 -16.81,3.44 -21.28,6.66 -4.47,3.22 -8.07,7.72 -10.86,13.51 -2.78,5.79 -6.87,17.48 -12.27,35.07 -2.9,9.36 -6.01,17.25 -9.39,23.71 -3.33,6.46 -9.27,12.89 -17.79,19.27 10.53,1.94 19.21,7.56 26.08,16.73 6.88,9.16 14.41,22.35 22.59,39.63l31.92 67.04 -55.65 6.99 -28.1 -63.29c-0.44,-0.91 -1.37,-2.61 -2.73,-5.16 -0.55,-0.83 -2.51,-4.7 -5.89,-11.46 -6,-12.06 -10.92,-19.41 -14.73,-22.14 -3.88,-2.71 -9.72,-3.61 -17.63,-2.74l0 113.46 -47.47 5.96 0 -259.54zm199.81 -25.09l47.47 -5.96 0 215.68 91.34 -11.46 0 -215.69 47.47 -5.96 0 215.68 19.64 -2.46 0 100.41 -39.61 4.97 0 -56.55 -166.31 20.88 0 -259.54zm239.15 -30.02l44.2 -5.55 0 172.78 94.94 -184.7 47.14 -5.92 0 259.54 -44.2 5.55 0 -170.01 -94.94 181.93 -47.14 5.92 0 -259.54zm224.86 103.11c0,-26.47 3.6,-49.15 10.75,-68.05 5.29,-13.9 12.6,-26.72 21.82,-38.39 9.22,-11.67 19.32,-20.73 30.28,-27.24 14.63,-8.66 31.49,-14.22 50.58,-16.62 34.6,-4.35 62.21,4.09 82.99,25.22 20.74,21.2 31.1,52.95 31.1,95.3 0,41.99 -10.31,76.15 -30.88,102.41 -20.57,26.33 -48.12,41.63 -82.55,45.95 -34.87,4.38 -62.64,-3.91 -83.21,-24.95 -20.57,-20.98 -30.88,-52.19 -30.88,-93.63zm48.78 -7.88c0,29.42 6.16,50.94 18.44,64.62 12.28,13.63 27.88,19.28 46.76,16.91 18.93,-2.38 34.43,-11.88 46.6,-28.45 12.11,-16.62 18.17,-39.98 18.17,-70.13 0,-29.78 -5.9,-51.27 -17.74,-64.41 -11.78,-13.2 -27.44,-18.54 -47.03,-16.08 -19.53,2.45 -35.3,11.86 -47.25,28.16 -11.95,16.37 -17.95,39.47 -17.95,69.38zm215.68 102.87l0 -259.54 47.47 -5.96 0 102.22 92.32 -11.59 0 -102.23 47.47 -5.96 0 259.55 -47.47 5.96 0 -113.46 -92.32 11.59 0 113.46 -47.47 5.96zm477.32 -155.63l45.83 9.83c-7.04,29.46 -18.77,52.14 -35.14,68.09 -16.36,15.89 -37.1,25.44 -62.25,28.6 -31.16,3.91 -56.75,-4.65 -76.83,-25.7 -20.02,-21.04 -30.06,-51.98 -30.06,-92.88 0,-43.2 10.09,-78.06 30.23,-104.51 20.13,-26.45 46.65,-41.75 79.5,-45.87 28.7,-3.6 52,2.9 69.89,19.44 10.7,9.77 18.66,24.72 24.01,44.89l-46.82 18.21c-2.78,-13.07 -8.56,-22.97 -17.35,-29.66 -8.84,-6.69 -19.53,-9.21 -32.08,-7.64 -17.41,2.19 -31.54,10.85 -42.34,26.04 -10.86,15.14 -16.26,38.17 -16.26,69.1 0,32.75 5.35,55.46 15.99,68.02 10.69,12.61 24.55,17.82 41.63,15.67 12.6,-1.58 23.46,-7.35 32.52,-17.37 9.05,-10.02 15.6,-24.74 19.53,-44.26zm68.53 -41.11c0,-26.46 3.6,-49.14 10.75,-68.04 5.29,-13.9 12.61,-26.72 21.83,-38.39 9.22,-11.67 19.31,-20.73 30.28,-27.24 14.62,-8.67 31.48,-14.23 50.58,-16.62 34.59,-4.35 62.2,4.09 82.99,25.22 20.73,21.2 31.1,52.95 31.1,95.3 0,41.99 -10.31,76.15 -30.88,102.41 -20.57,26.33 -48.13,41.63 -82.56,45.95 -34.86,4.38 -62.64,-3.92 -83.21,-24.96 -20.57,-20.97 -30.88,-52.18 -30.88,-93.63zm48.78 -7.87c0,29.42 6.17,50.94 18.44,64.62 12.28,13.62 27.89,19.28 46.76,16.91 18.94,-2.38 34.43,-11.88 46.6,-28.45 12.11,-16.62 18.17,-39.98 18.17,-70.13 0,-29.78 -5.89,-51.27 -17.73,-64.41 -11.79,-13.2 -27.45,-18.54 -47.04,-16.08 -19.53,2.45 -35.3,11.86 -47.25,28.16 -11.95,16.36 -17.95,39.47 -17.95,69.38zm216.67 -156.8l175.15 -21.99 0 43.86 -127.68 16.03 0 60.18 63.24 -7.94c17.41,-2.19 31.92,-1.66 43.38,1.62 11.51,3.27 21.33,10.73 29.46,22.46 8.13,11.66 12.22,26.07 12.22,43.17 0,17.52 -4.09,33.08 -12.33,46.62 -8.18,13.47 -17.51,23.22 -28.04,29.14 -10.48,5.9 -25.43,10.07 -44.8,12.51l-110.6 13.88 0 -259.54zm47.47 209.72l46 -5.77c14.67,-1.85 25.04,-3.93 30.99,-6.25 5.95,-2.32 11.19,-6.54 15.61,-12.71 4.41,-6.12 6.6,-13.28 6.6,-21.43 0,-11.91 -3.88,-20.06 -11.57,-24.53 -7.75,-4.4 -20.9,-5.47 -39.56,-3.13l-48.07 6.04 0 67.78zm188.19 -239.31l47.47 -5.96 0 103.68 63.24 -7.95c16.59,-2.08 30.88,-1.34 42.83,2.18 11.95,3.51 21.93,11.2 29.95,23.12 7.97,11.93 11.95,26.29 11.95,43.09 0,17.58 -4.14,33.2 -12.44,46.99 -8.34,13.74 -17.56,23.29 -27.77,28.68 -10.15,5.45 -25.04,9.37 -44.63,11.83l-110.6 13.89 0 -259.55zm47.47 209.72l46.16 -5.79c14.68,-1.85 24.93,-3.92 30.77,-6.22 5.79,-2.3 10.97,-6.58 15.5,-12.76 4.53,-6.19 6.76,-13.3 6.76,-21.39 0,-11.48 -3.71,-19.65 -11.07,-24.47 -7.42,-4.81 -20.79,-5.97 -40.05,-3.55l-48.07 6.04 0 68.14zm175.15 -237.67l47.47 -5.96 0 259.54 -47.47 5.96 0 -259.54zm149.28 240.8l0 -215.68 -69.4 8.71 0 -43.86 185.95 -23.35 0 43.87 -69.08 8.67 0 215.68 -47.47 5.96zm147.92 -278.11l44.2 -5.55 0 172.78 94.94 -184.7 47.14 -5.92 0 259.54 -44.19 5.55 0 -170.01 -94.95 181.93 -47.14 5.92 0 -259.54zm235.33 -29.55l44.2 -5.55 0 172.78 94.94 -184.7 47.14 -5.92 0 259.54 -44.19 5.55 0 -170.01 -94.94 181.93 -47.15 5.92 0 -259.54zm121.13 -90.25l21.94 -2.75c-1.26,16.17 -6.39,29.44 -15.28,39.68 -8.89,10.24 -20.41,16.27 -34.54,18.05 -14.18,1.78 -25.7,-1.37 -34.59,-9.37 -8.89,-8.01 -14.02,-19.99 -15.28,-35.84l21.94 -2.76c0.76,8.24 3.38,14.26 7.96,17.97 4.59,3.72 11.24,5 19.97,3.9 8.68,-1.09 15.33,-4.04 19.92,-8.9 4.58,-4.87 7.2,-11.54 7.96,-19.98zm205.16 49.28l44.2 -5.55 0 172.79 94.94 -184.71 47.14 -5.92 0 259.54 -44.2 5.55 0 -170.01 -94.94 181.93 -47.14 5.92 0 -259.54zm326.29 -40.97l186.28 -23.39 0 259.54 -47.47 5.97 0 -215.69 -91.34 11.47 0 215.68 -47.47 5.96 0 -259.54zm234.68 230.08l0 -259.54 75.89 -9.53c28.76,-3.61 47.47,-4.7 56.2,-3.19 13.42,2.24 24.67,9.28 33.72,21.2 9.06,11.91 13.59,28.2 13.59,48.86 0,15.95 -2.62,29.63 -7.8,41.15 -5.24,11.54 -11.84,20.88 -19.86,28.11 -8.03,7.17 -16.21,12.31 -24.5,15.34 -11.3,3.9 -27.61,7.22 -49,9.9l-30.77 3.87 0 97.87 -47.47 5.96zm47.47 -221.64l0 73.94 25.8 -3.24c18.61,-2.33 30.99,-5.28 37.27,-8.78 6.28,-3.51 11.19,-8.36 14.73,-14.66 3.55,-6.25 5.35,-13.18 5.35,-20.91 0,-9.49 -2.51,-16.96 -7.48,-22.5 -5.01,-5.54 -11.29,-8.62 -18.98,-9.22 -5.62,-0.44 -16.92,0.37 -33.94,2.51l-22.75 2.86zm353.29 171.32l-51.12 6.42 -20.25 -56.55 -94.01 11.81 -19.48 61.53 -50.2 6.3 91.01 -270.97 50.15 -6.29 93.9 247.75zm-86.75 -92.05l-32.58 -91.98 -31.64 100.04 64.22 -8.06zm145.41 -104.17l-46.16 -6.17c9.93,-43.54 38.13,-68.22 84.62,-74.06 27.5,-3.45 48.29,0.64 62.31,12.29 14.03,11.66 21.01,26.55 21.01,44.67 0,12.39 -3.22,23.97 -9.6,34.8 -6.39,10.77 -15.99,20.73 -28.76,29.95 15.5,3.97 27.18,10.85 34.92,20.69 7.75,9.9 11.62,22.7 11.62,38.59 0,22.84 -7.52,42.21 -22.64,58.19 -15.06,15.96 -37.65,25.87 -67.71,29.64 -24.5,3.08 -43.87,0.98 -58.06,-6.3 -14.18,-7.28 -24.82,-22.92 -31.97,-46.92l43.21 -21.01c4.48,15.09 10.48,24.48 17.9,28.14 7.42,3.72 16.59,4.87 27.5,3.5 14.95,-1.88 25.86,-6.81 32.74,-14.87 6.82,-8.04 10.26,-16.69 10.26,-26 0,-10.63 -3.88,-18.78 -11.63,-24.33 -7.69,-5.56 -19.37,-7.36 -34.92,-5.41l-10.75 1.35 0 -39.14 5.41 -0.68c14.46,-1.82 25.53,-6.83 33.17,-14.98 7.69,-8.16 11.51,-18.24 11.51,-30.14 0,-9.49 -3.11,-17.07 -9.33,-22.82 -6.22,-5.68 -15.11,-7.83 -26.68,-6.38 -19.8,2.49 -32.46,14.96 -37.97,37.4zm190.69 -94.63l161.73 -20.31 0 215.68 20.62 -2.59 0 100.41 -39.61 4.98 0 -56.55 -146.99 18.45 0 56.55 -39.62 4.98 0 -100.41 19.97 -2.51c9.72,-23.39 16.16,-49.94 19.26,-79.57 3.11,-29.69 4.64,-66.92 4.64,-111.68l0 -27.43zm45.18 38.19c0,78.54 -6.55,136.63 -19.64,174.28l88.72 -11.14 0 -171.82 -69.08 8.68zm169.04 194.45l0 -259.54 47.47 -5.96 0 102.22 92.32 -11.59 0 -102.22 47.47 -5.96 0 259.54 -47.47 5.96 0 -113.46 -92.32 11.6 0 113.45 -47.47 5.96zm237.07 -289.31l44.2 -5.54 0 172.78 94.94 -184.7 47.14 -5.92 0 259.54 -44.19 5.55 0 -170.01 -94.94 181.93 -47.15 5.92 0 -259.55zm235.33 -29.54l47.47 -5.96 0 110.56c10.53,-2.53 17.68,-6.39 21.39,-11.75 3.71,-5.3 9.5,-19.5 17.24,-42.58 9.77,-29.32 19.65,-48.08 29.52,-56.15 9.82,-8.06 25.59,-13.48 47.42,-16.22 1.09,-0.14 3.38,-0.49 6.87,-1.05l0 38.79 -6.71 0.66c-9.71,1.22 -16.8,3.44 -21.28,6.66 -4.47,3.22 -8.07,7.72 -10.85,13.51 -2.79,5.78 -6.88,17.47 -12.28,35.07 -2.89,9.36 -6,17.24 -9.39,23.71 -3.32,6.46 -9.27,12.89 -17.78,19.27 10.53,1.94 19.2,7.56 26.08,16.72 6.87,9.17 14.4,22.36 22.59,39.64l31.92 67.04 -55.66 6.99 -28.1 -63.3c-0.43,-0.91 -1.36,-2.6 -2.73,-5.15 -0.54,-0.84 -2.51,-4.7 -5.89,-11.46 -6,-12.06 -10.91,-19.42 -14.73,-22.14 -3.88,-2.71 -9.71,-3.61 -17.63,-2.74l0 113.46 -47.47 5.96 0 -259.54zm410.31 208.02l-51.13 6.42 -20.24 -56.54 -94.01 11.8 -19.48 61.53 -50.2 6.3 91.01 -270.96 50.15 -6.3 93.9 247.75zm-86.75 -92.05l-32.57 -91.97 -31.65 100.03 64.22 -8.06z"/>
  <polygon class="fil10 str4" points="7176.68,2375.62 7079.54,2651.46 6763.33,2650.91 7019.51,2820.83 6921.21,3096.33 7176.68,2925.51 7432.14,3096.33 7333.85,2820.83 7590.02,2650.91 7273.81,2651.46 "/>
  <polygon class="fil6 str3" points="2590.81,4979.37 8669.11,4216.18 8669.11,4651.17 2590.81,5414.35 "/>
  <path class="fil5" d="M2967.56 5284.22l-51.13 6.41 -20.24 -56.54 -94.01 11.8 -19.48 61.54 -50.2 6.3 91.01 -270.97 50.15 -6.3 93.9 247.76zm-86.75 -92.06l-32.58 -91.97 -31.65 100.03 64.23 -8.06zm75.46 -166.07l53.3 -6.69 54.57 127.51 46.7 -140.23 49.38 -6.2 -79.28 207.21c-8.62,22.47 -17.4,39.83 -26.35,52.13 -8.95,12.29 -20.46,19.3 -34.65,21.08 -13.97,1.75 -24.88,2.1 -32.74,1.09l0 -39.03c6.71,-0.36 12.77,-0.88 18.17,-1.55 10.91,-1.37 18.77,-4.6 23.52,-9.6 4.69,-5.06 9.27,-15.24 13.59,-30.46l-86.21 -175.26zm228.34 -28.67l47.47 -5.96 0 110.56c10.53,-2.53 17.68,-6.39 21.39,-11.75 3.71,-5.3 9.5,-19.5 17.24,-42.58 9.77,-29.32 19.64,-48.08 29.52,-56.15 9.82,-8.06 25.59,-13.48 47.42,-16.22 1.09,-0.14 3.38,-0.49 6.87,-1.05l0 38.79 -6.71 0.66c-9.71,1.22 -16.81,3.44 -21.28,6.66 -4.47,3.22 -8.07,7.72 -10.86,13.51 -2.78,5.79 -6.87,17.48 -12.27,35.07 -2.9,9.36 -6.01,17.25 -9.39,23.71 -3.33,6.46 -9.27,12.89 -17.79,19.27 10.53,1.94 19.21,7.56 26.08,16.73 6.88,9.16 14.41,22.35 22.59,39.63l31.92 67.04 -55.65 6.99 -28.1 -63.29c-0.44,-0.91 -1.37,-2.61 -2.73,-5.16 -0.55,-0.83 -2.51,-4.7 -5.89,-11.46 -6,-12.06 -10.92,-19.41 -14.73,-22.14 -3.88,-2.71 -9.72,-3.61 -17.63,-2.74l0 113.46 -47.47 5.96 0 -259.54zm199.81 -25.09l47.47 -5.96 0 215.68 91.34 -11.46 0 -215.69 47.47 -5.96 0 215.68 19.64 -2.46 0 100.41 -39.61 4.97 0 -56.55 -166.31 20.88 0 -259.54zm239.15 -30.02l44.2 -5.55 0 172.78 94.94 -184.7 47.14 -5.92 0 259.54 -44.2 5.55 0 -170.01 -94.94 181.93 -47.14 5.92 0 -259.54zm224.86 103.11c0,-26.47 3.6,-49.15 10.75,-68.05 5.29,-13.9 12.6,-26.72 21.82,-38.39 9.22,-11.67 19.32,-20.73 30.28,-27.24 14.63,-8.66 31.49,-14.22 50.58,-16.62 34.6,-4.35 62.21,4.09 82.99,25.22 20.74,21.2 31.1,52.95 31.1,95.3 0,41.99 -10.31,76.15 -30.88,102.41 -20.57,26.33 -48.12,41.63 -82.55,45.95 -34.87,4.38 -62.64,-3.91 -83.21,-24.95 -20.57,-20.98 -30.88,-52.19 -30.88,-93.63zm48.78 -7.88c0,29.42 6.16,50.94 18.44,64.62 12.28,13.63 27.88,19.28 46.76,16.91 18.93,-2.38 34.43,-11.88 46.6,-28.45 12.11,-16.62 18.17,-39.98 18.17,-70.13 0,-29.78 -5.9,-51.27 -17.74,-64.41 -11.78,-13.2 -27.44,-18.54 -47.03,-16.08 -19.53,2.45 -35.3,11.86 -47.25,28.16 -11.95,16.37 -17.95,39.47 -17.95,69.38zm215.68 102.87l0 -259.54 47.47 -5.96 0 102.22 92.32 -11.59 0 -102.23 47.47 -5.96 0 259.55 -47.47 5.96 0 -113.46 -92.32 11.59 0 113.46 -47.47 5.96zm477.32 -155.63l45.83 9.83c-7.04,29.46 -18.77,52.14 -35.14,68.09 -16.36,15.89 -37.1,25.44 -62.25,28.6 -31.16,3.91 -56.75,-4.65 -76.83,-25.7 -20.02,-21.04 -30.06,-51.98 -30.06,-92.88 0,-43.2 10.09,-78.06 30.23,-104.51 20.13,-26.45 46.65,-41.75 79.5,-45.87 28.7,-3.6 52,2.9 69.89,19.44 10.7,9.77 18.66,24.72 24.01,44.89l-46.82 18.21c-2.78,-13.07 -8.56,-22.97 -17.35,-29.66 -8.84,-6.69 -19.53,-9.21 -32.08,-7.64 -17.41,2.19 -31.54,10.85 -42.34,26.04 -10.86,15.14 -16.26,38.17 -16.26,69.1 0,32.75 5.35,55.46 15.99,68.02 10.69,12.61 24.55,17.82 41.63,15.67 12.6,-1.58 23.46,-7.35 32.52,-17.37 9.05,-10.02 15.6,-24.74 19.53,-44.26zm68.53 -41.11c0,-26.46 3.6,-49.14 10.75,-68.04 5.29,-13.9 12.61,-26.72 21.83,-38.39 9.22,-11.67 19.31,-20.73 30.28,-27.24 14.62,-8.67 31.48,-14.23 50.58,-16.62 34.59,-4.35 62.2,4.09 82.99,25.22 20.73,21.2 31.1,52.95 31.1,95.3 0,41.99 -10.31,76.15 -30.88,102.41 -20.57,26.33 -48.13,41.63 -82.56,45.95 -34.86,4.38 -62.64,-3.92 -83.21,-24.96 -20.57,-20.97 -30.88,-52.18 -30.88,-93.63zm48.78 -7.87c0,29.42 6.17,50.94 18.44,64.62 12.28,13.62 27.89,19.28 46.76,16.91 18.94,-2.38 34.43,-11.88 46.6,-28.45 12.11,-16.62 18.17,-39.98 18.17,-70.13 0,-29.78 -5.89,-51.27 -17.73,-64.41 -11.79,-13.2 -27.45,-18.54 -47.04,-16.08 -19.53,2.45 -35.3,11.86 -47.25,28.16 -11.95,16.36 -17.95,39.47 -17.95,69.38zm216.67 -156.8l175.15 -21.99 0 43.86 -127.68 16.03 0 60.18 63.24 -7.94c17.41,-2.19 31.92,-1.66 43.38,1.62 11.51,3.27 21.33,10.73 29.46,22.46 8.13,11.66 12.22,26.07 12.22,43.17 0,17.52 -4.09,33.08 -12.33,46.62 -8.18,13.47 -17.51,23.22 -28.04,29.14 -10.48,5.9 -25.43,10.07 -44.8,12.51l-110.6 13.88 0 -259.54zm47.47 209.72l46 -5.77c14.67,-1.85 25.04,-3.93 30.99,-6.25 5.95,-2.32 11.19,-6.54 15.61,-12.71 4.41,-6.12 6.6,-13.28 6.6,-21.43 0,-11.91 -3.88,-20.06 -11.57,-24.53 -7.75,-4.4 -20.9,-5.47 -39.56,-3.13l-48.07 6.04 0 67.78zm188.19 -239.31l47.47 -5.96 0 103.68 63.24 -7.95c16.59,-2.08 30.88,-1.34 42.83,2.18 11.95,3.51 21.93,11.2 29.95,23.12 7.97,11.93 11.95,26.29 11.95,43.09 0,17.58 -4.14,33.2 -12.44,46.99 -8.34,13.74 -17.56,23.29 -27.77,28.68 -10.15,5.45 -25.04,9.37 -44.63,11.83l-110.6 13.89 0 -259.55zm47.47 209.72l46.16 -5.79c14.68,-1.85 24.93,-3.92 30.77,-6.22 5.79,-2.3 10.97,-6.58 15.5,-12.76 4.53,-6.19 6.76,-13.3 6.76,-21.39 0,-11.48 -3.71,-19.65 -11.07,-24.47 -7.42,-4.81 -20.79,-5.97 -40.05,-3.55l-48.07 6.04 0 68.14zm175.15 -237.67l47.47 -5.96 0 259.54 -47.47 5.96 0 -259.54zm149.28 240.8l0 -215.68 -69.4 8.71 0 -43.86 185.95 -23.35 0 43.87 -69.08 8.67 0 215.68 -47.47 5.96zm147.92 -278.11l44.2 -5.55 0 172.78 94.94 -184.7 47.14 -5.92 0 259.54 -44.19 5.55 0 -170.01 -94.95 181.93 -47.14 5.92 0 -259.54zm235.33 -29.55l44.2 -5.55 0 172.78 94.94 -184.7 47.14 -5.92 0 259.54 -44.19 5.55 0 -170.01 -94.94 181.93 -47.15 5.92 0 -259.54zm121.13 -90.25l21.94 -2.75c-1.26,16.17 -6.39,29.44 -15.28,39.68 -8.89,10.24 -20.41,16.27 -34.54,18.05 -14.18,1.78 -25.7,-1.37 -34.59,-9.37 -8.89,-8.01 -14.02,-19.99 -15.28,-35.84l21.94 -2.76c0.76,8.24 3.38,14.26 7.96,17.97 4.59,3.72 11.24,5 19.97,3.9 8.68,-1.09 15.33,-4.04 19.92,-8.9 4.58,-4.87 7.2,-11.54 7.96,-19.98zm205.16 49.28l44.2 -5.55 0 172.79 94.94 -184.71 47.14 -5.92 0 259.54 -44.2 5.55 0 -170.01 -94.94 181.93 -47.14 5.92 0 -259.54zm326.29 -40.97l186.28 -23.39 0 259.54 -47.47 5.97 0 -215.69 -91.34 11.47 0 215.68 -47.47 5.96 0 -259.54zm234.68 230.08l0 -259.54 75.89 -9.53c28.76,-3.61 47.47,-4.7 56.2,-3.19 13.42,2.24 24.67,9.28 33.72,21.2 9.06,11.91 13.59,28.2 13.59,48.86 0,15.95 -2.62,29.63 -7.8,41.15 -5.24,11.54 -11.84,20.88 -19.86,28.11 -8.03,7.17 -16.21,12.31 -24.5,15.34 -11.3,3.9 -27.61,7.22 -49,9.9l-30.77 3.87 0 97.87 -47.47 5.96zm47.47 -221.64l0 73.94 25.8 -3.24c18.61,-2.33 30.99,-5.28 37.27,-8.78 6.28,-3.51 11.19,-8.36 14.73,-14.66 3.55,-6.25 5.35,-13.18 5.35,-20.91 0,-9.49 -2.51,-16.96 -7.48,-22.5 -5.01,-5.54 -11.29,-8.62 -18.98,-9.22 -5.62,-0.44 -16.92,0.37 -33.94,2.51l-22.75 2.86zm353.29 171.32l-51.12 6.42 -20.25 -56.55 -94.01 11.81 -19.48 61.53 -50.2 6.3 91.01 -270.97 50.15 -6.29 93.9 247.75zm-86.75 -92.05l-32.58 -91.98 -31.64 100.04 64.22 -8.06zm145.41 -104.17l-46.16 -6.17c9.93,-43.54 38.13,-68.22 84.62,-74.06 27.5,-3.45 48.29,0.64 62.31,12.29 14.03,11.66 21.01,26.55 21.01,44.67 0,12.39 -3.22,23.97 -9.6,34.8 -6.39,10.77 -15.99,20.73 -28.76,29.95 15.5,3.97 27.18,10.85 34.92,20.69 7.75,9.9 11.62,22.7 11.62,38.59 0,22.84 -7.52,42.21 -22.64,58.19 -15.06,15.96 -37.65,25.87 -67.71,29.64 -24.5,3.08 -43.87,0.98 -58.06,-6.3 -14.18,-7.28 -24.82,-22.92 -31.97,-46.92l43.21 -21.01c4.48,15.09 10.48,24.48 17.9,28.14 7.42,3.72 16.59,4.87 27.5,3.5 14.95,-1.88 25.86,-6.81 32.74,-14.87 6.82,-8.04 10.26,-16.69 10.26,-26 0,-10.63 -3.88,-18.78 -11.63,-24.33 -7.69,-5.56 -19.37,-7.36 -34.92,-5.41l-10.75 1.35 0 -39.14 5.41 -0.68c14.46,-1.82 25.53,-6.83 33.17,-14.98 7.69,-8.16 11.51,-18.24 11.51,-30.14 0,-9.49 -3.11,-17.07 -9.33,-22.82 -6.22,-5.68 -15.11,-7.83 -26.68,-6.38 -19.8,2.49 -32.46,14.96 -37.97,37.4zm190.69 -94.63l161.73 -20.31 0 215.68 20.62 -2.59 0 100.41 -39.61 4.98 0 -56.55 -146.99 18.45 0 56.55 -39.62 4.98 0 -100.41 19.97 -2.51c9.72,-23.39 16.16,-49.94 19.26,-79.57 3.11,-29.69 4.64,-66.92 4.64,-111.68l0 -27.43zm45.18 38.19c0,78.54 -6.55,136.63 -19.64,174.28l88.72 -11.14 0 -171.82 -69.08 8.68zm169.04 194.45l0 -259.54 47.47 -5.96 0 102.22 92.32 -11.59 0 -102.22 47.47 -5.96 0 259.54 -47.47 5.96 0 -113.46 -92.32 11.6 0 113.45 -47.47 5.96zm237.07 -289.31l44.2 -5.54 0 172.78 94.94 -184.7 47.14 -5.92 0 259.54 -44.19 5.55 0 -170.01 -94.94 181.93 -47.15 5.92 0 -259.55zm235.33 -29.54l47.47 -5.96 0 110.56c10.53,-2.53 17.68,-6.39 21.39,-11.75 3.71,-5.3 9.5,-19.5 17.24,-42.58 9.77,-29.32 19.65,-48.08 29.52,-56.15 9.82,-8.06 25.59,-13.48 47.42,-16.22 1.09,-0.14 3.38,-0.49 6.87,-1.05l0 38.79 -6.71 0.66c-9.71,1.22 -16.8,3.44 -21.28,6.66 -4.47,3.22 -8.07,7.72 -10.85,13.51 -2.79,5.78 -6.88,17.47 -12.28,35.07 -2.89,9.36 -6,17.24 -9.39,23.71 -3.32,6.46 -9.27,12.89 -17.78,19.27 10.53,1.94 19.2,7.56 26.08,16.72 6.87,9.17 14.4,22.36 22.59,39.64l31.92 67.04 -55.66 6.99 -28.1 -63.3c-0.43,-0.91 -1.36,-2.6 -2.73,-5.15 -0.54,-0.84 -2.51,-4.7 -5.89,-11.46 -6,-12.06 -10.91,-19.42 -14.73,-22.14 -3.88,-2.71 -9.71,-3.61 -17.63,-2.74l0 113.46 -47.47 5.96 0 -259.54zm410.31 208.02l-51.13 6.42 -20.24 -56.54 -94.01 11.8 -19.48 61.53 -50.2 6.3 91.01 -270.96 50.15 -6.3 93.9 247.75zm-86.75 -92.05l-32.57 -91.97 -31.65 100.03 64.22 -8.06z"/>
  <polygon class="fil9 str3" points="2590.81,4979.37 8669.11,4216.18 8669.11,4651.17 2590.81,5414.35 "/>
  <path class="fil5" d="M2967.56 5284.22l-51.13 6.41 -20.24 -56.54 -94.01 11.8 -19.48 61.54 -50.2 6.3 91.01 -270.97 50.15 -6.3 93.9 247.76zm-86.75 -92.06l-32.58 -91.97 -31.65 100.03 64.23 -8.06zm75.46 -166.07l53.3 -6.69 54.57 127.51 46.7 -140.23 49.38 -6.2 -79.28 207.21c-8.62,22.47 -17.4,39.83 -26.35,52.13 -8.95,12.29 -20.46,19.3 -34.65,21.08 -13.97,1.75 -24.88,2.1 -32.74,1.09l0 -39.03c6.71,-0.36 12.77,-0.88 18.17,-1.55 10.91,-1.37 18.77,-4.6 23.52,-9.6 4.69,-5.06 9.27,-15.24 13.59,-30.46l-86.21 -175.26zm228.34 -28.67l47.47 -5.96 0 110.56c10.53,-2.53 17.68,-6.39 21.39,-11.75 3.71,-5.3 9.5,-19.5 17.24,-42.58 9.77,-29.32 19.64,-48.08 29.52,-56.15 9.82,-8.06 25.59,-13.48 47.42,-16.22 1.09,-0.14 3.38,-0.49 6.87,-1.05l0 38.79 -6.71 0.66c-9.71,1.22 -16.81,3.44 -21.28,6.66 -4.47,3.22 -8.07,7.72 -10.86,13.51 -2.78,5.79 -6.87,17.48 -12.27,35.07 -2.9,9.36 -6.01,17.25 -9.39,23.71 -3.33,6.46 -9.27,12.89 -17.79,19.27 10.53,1.94 19.21,7.56 26.08,16.73 6.88,9.16 14.41,22.35 22.59,39.63l31.92 67.04 -55.65 6.99 -28.1 -63.29c-0.44,-0.91 -1.37,-2.61 -2.73,-5.16 -0.55,-0.83 -2.51,-4.7 -5.89,-11.46 -6,-12.06 -10.92,-19.41 -14.73,-22.14 -3.88,-2.71 -9.72,-3.61 -17.63,-2.74l0 113.46 -47.47 5.96 0 -259.54zm199.81 -25.09l47.47 -5.96 0 215.68 91.34 -11.46 0 -215.69 47.47 -5.96 0 215.68 19.64 -2.46 0 100.41 -39.61 4.97 0 -56.55 -166.31 20.88 0 -259.54zm239.15 -30.02l44.2 -5.55 0 172.78 94.94 -184.7 47.14 -5.92 0 259.54 -44.2 5.55 0 -170.01 -94.94 181.93 -47.14 5.92 0 -259.54zm224.86 103.11c0,-26.47 3.6,-49.15 10.75,-68.05 5.29,-13.9 12.6,-26.72 21.82,-38.39 9.22,-11.67 19.32,-20.73 30.28,-27.24 14.63,-8.66 31.49,-14.22 50.58,-16.62 34.6,-4.35 62.21,4.09 82.99,25.22 20.74,21.2 31.1,52.95 31.1,95.3 0,41.99 -10.31,76.15 -30.88,102.41 -20.57,26.33 -48.12,41.63 -82.55,45.95 -34.87,4.38 -62.64,-3.91 -83.21,-24.95 -20.57,-20.98 -30.88,-52.19 -30.88,-93.63zm48.78 -7.88c0,29.42 6.16,50.94 18.44,64.62 12.28,13.63 27.88,19.28 46.76,16.91 18.93,-2.38 34.43,-11.88 46.6,-28.45 12.11,-16.62 18.17,-39.98 18.17,-70.13 0,-29.78 -5.9,-51.27 -17.74,-64.41 -11.78,-13.2 -27.44,-18.54 -47.03,-16.08 -19.53,2.45 -35.3,11.86 -47.25,28.16 -11.95,16.37 -17.95,39.47 -17.95,69.38zm215.68 102.87l0 -259.54 47.47 -5.96 0 102.22 92.32 -11.59 0 -102.23 47.47 -5.96 0 259.55 -47.47 5.96 0 -113.46 -92.32 11.59 0 113.46 -47.47 5.96zm477.32 -155.63l45.83 9.83c-7.04,29.46 -18.77,52.14 -35.14,68.09 -16.36,15.89 -37.1,25.44 -62.25,28.6 -31.16,3.91 -56.75,-4.65 -76.83,-25.7 -20.02,-21.04 -30.06,-51.98 -30.06,-92.88 0,-43.2 10.09,-78.06 30.23,-104.51 20.13,-26.45 46.65,-41.75 79.5,-45.87 28.7,-3.6 52,2.9 69.89,19.44 10.7,9.77 18.66,24.72 24.01,44.89l-46.82 18.21c-2.78,-13.07 -8.56,-22.97 -17.35,-29.66 -8.84,-6.69 -19.53,-9.21 -32.08,-7.64 -17.41,2.19 -31.54,10.85 -42.34,26.04 -10.86,15.14 -16.26,38.17 -16.26,69.1 0,32.75 5.35,55.46 15.99,68.02 10.69,12.61 24.55,17.82 41.63,15.67 12.6,-1.58 23.46,-7.35 32.52,-17.37 9.05,-10.02 15.6,-24.74 19.53,-44.26zm68.53 -41.11c0,-26.46 3.6,-49.14 10.75,-68.04 5.29,-13.9 12.61,-26.72 21.83,-38.39 9.22,-11.67 19.31,-20.73 30.28,-27.24 14.62,-8.67 31.48,-14.23 50.58,-16.62 34.59,-4.35 62.2,4.09 82.99,25.22 20.73,21.2 31.1,52.95 31.1,95.3 0,41.99 -10.31,76.15 -30.88,102.41 -20.57,26.33 -48.13,41.63 -82.56,45.95 -34.86,4.38 -62.64,-3.92 -83.21,-24.96 -20.57,-20.97 -30.88,-52.18 -30.88,-93.63zm48.78 -7.87c0,29.42 6.17,50.94 18.44,64.62 12.28,13.62 27.89,19.28 46.76,16.91 18.94,-2.38 34.43,-11.88 46.6,-28.45 12.11,-16.62 18.17,-39.98 18.17,-70.13 0,-29.78 -5.89,-51.27 -17.73,-64.41 -11.79,-13.2 -27.45,-18.54 -47.04,-16.08 -19.53,2.45 -35.3,11.86 -47.25,28.16 -11.95,16.36 -17.95,39.47 -17.95,69.38zm216.67 -156.8l175.15 -21.99 0 43.86 -127.68 16.03 0 60.18 63.24 -7.94c17.41,-2.19 31.92,-1.66 43.38,1.62 11.51,3.27 21.33,10.73 29.46,22.46 8.13,11.66 12.22,26.07 12.22,43.17 0,17.52 -4.09,33.08 -12.33,46.62 -8.18,13.47 -17.51,23.22 -28.04,29.14 -10.48,5.9 -25.43,10.07 -44.8,12.51l-110.6 13.88 0 -259.54zm47.47 209.72l46 -5.77c14.67,-1.85 25.04,-3.93 30.99,-6.25 5.95,-2.32 11.19,-6.54 15.61,-12.71 4.41,-6.12 6.6,-13.28 6.6,-21.43 0,-11.91 -3.88,-20.06 -11.57,-24.53 -7.75,-4.4 -20.9,-5.47 -39.56,-3.13l-48.07 6.04 0 67.78zm188.19 -239.31l47.47 -5.96 0 103.68 63.24 -7.95c16.59,-2.08 30.88,-1.34 42.83,2.18 11.95,3.51 21.93,11.2 29.95,23.12 7.97,11.93 11.95,26.29 11.95,43.09 0,17.58 -4.14,33.2 -12.44,46.99 -8.34,13.74 -17.56,23.29 -27.77,28.68 -10.15,5.45 -25.04,9.37 -44.63,11.83l-110.6 13.89 0 -259.55zm47.47 209.72l46.16 -5.79c14.68,-1.85 24.93,-3.92 30.77,-6.22 5.79,-2.3 10.97,-6.58 15.5,-12.76 4.53,-6.19 6.76,-13.3 6.76,-21.39 0,-11.48 -3.71,-19.65 -11.07,-24.47 -7.42,-4.81 -20.79,-5.97 -40.05,-3.55l-48.07 6.04 0 68.14zm175.15 -237.67l47.47 -5.96 0 259.54 -47.47 5.96 0 -259.54zm149.28 240.8l0 -215.68 -69.4 8.71 0 -43.86 185.95 -23.35 0 43.87 -69.08 8.67 0 215.68 -47.47 5.96zm147.92 -278.11l44.2 -5.55 0 172.78 94.94 -184.7 47.14 -5.92 0 259.54 -44.19 5.55 0 -170.01 -94.95 181.93 -47.14 5.92 0 -259.54zm235.33 -29.55l44.2 -5.55 0 172.78 94.94 -184.7 47.14 -5.92 0 259.54 -44.19 5.55 0 -170.01 -94.94 181.93 -47.15 5.92 0 -259.54zm121.13 -90.25l21.94 -2.75c-1.26,16.17 -6.39,29.44 -15.28,39.68 -8.89,10.24 -20.41,16.27 -34.54,18.05 -14.18,1.78 -25.7,-1.37 -34.59,-9.37 -8.89,-8.01 -14.02,-19.99 -15.28,-35.84l21.94 -2.76c0.76,8.24 3.38,14.26 7.96,17.97 4.59,3.72 11.24,5 19.97,3.9 8.68,-1.09 15.33,-4.04 19.92,-8.9 4.58,-4.87 7.2,-11.54 7.96,-19.98zm205.16 49.28l44.2 -5.55 0 172.79 94.94 -184.71 47.14 -5.92 0 259.54 -44.2 5.55 0 -170.01 -94.94 181.93 -47.14 5.92 0 -259.54zm326.29 -40.97l186.28 -23.39 0 259.54 -47.47 5.97 0 -215.69 -91.34 11.47 0 215.68 -47.47 5.96 0 -259.54zm234.68 230.08l0 -259.54 75.89 -9.53c28.76,-3.61 47.47,-4.7 56.2,-3.19 13.42,2.24 24.67,9.28 33.72,21.2 9.06,11.91 13.59,28.2 13.59,48.86 0,15.95 -2.62,29.63 -7.8,41.15 -5.24,11.54 -11.84,20.88 -19.86,28.11 -8.03,7.17 -16.21,12.31 -24.5,15.34 -11.3,3.9 -27.61,7.22 -49,9.9l-30.77 3.87 0 97.87 -47.47 5.96zm47.47 -221.64l0 73.94 25.8 -3.24c18.61,-2.33 30.99,-5.28 37.27,-8.78 6.28,-3.51 11.19,-8.36 14.73,-14.66 3.55,-6.25 5.35,-13.18 5.35,-20.91 0,-9.49 -2.51,-16.96 -7.48,-22.5 -5.01,-5.54 -11.29,-8.62 -18.98,-9.22 -5.62,-0.44 -16.92,0.37 -33.94,2.51l-22.75 2.86zm353.29 171.32l-51.12 6.42 -20.25 -56.55 -94.01 11.81 -19.48 61.53 -50.2 6.3 91.01 -270.97 50.15 -6.29 93.9 247.75zm-86.75 -92.05l-32.58 -91.98 -31.64 100.04 64.22 -8.06zm145.41 -104.17l-46.16 -6.17c9.93,-43.54 38.13,-68.22 84.62,-74.06 27.5,-3.45 48.29,0.64 62.31,12.29 14.03,11.66 21.01,26.55 21.01,44.67 0,12.39 -3.22,23.97 -9.6,34.8 -6.39,10.77 -15.99,20.73 -28.76,29.95 15.5,3.97 27.18,10.85 34.92,20.69 7.75,9.9 11.62,22.7 11.62,38.59 0,22.84 -7.52,42.21 -22.64,58.19 -15.06,15.96 -37.65,25.87 -67.71,29.64 -24.5,3.08 -43.87,0.98 -58.06,-6.3 -14.18,-7.28 -24.82,-22.92 -31.97,-46.92l43.21 -21.01c4.48,15.09 10.48,24.48 17.9,28.14 7.42,3.72 16.59,4.87 27.5,3.5 14.95,-1.88 25.86,-6.81 32.74,-14.87 6.82,-8.04 10.26,-16.69 10.26,-26 0,-10.63 -3.88,-18.78 -11.63,-24.33 -7.69,-5.56 -19.37,-7.36 -34.92,-5.41l-10.75 1.35 0 -39.14 5.41 -0.68c14.46,-1.82 25.53,-6.83 33.17,-14.98 7.69,-8.16 11.51,-18.24 11.51,-30.14 0,-9.49 -3.11,-17.07 -9.33,-22.82 -6.22,-5.68 -15.11,-7.83 -26.68,-6.38 -19.8,2.49 -32.46,14.96 -37.97,37.4zm190.69 -94.63l161.73 -20.31 0 215.68 20.62 -2.59 0 100.41 -39.61 4.98 0 -56.55 -146.99 18.45 0 56.55 -39.62 4.98 0 -100.41 19.97 -2.51c9.72,-23.39 16.16,-49.94 19.26,-79.57 3.11,-29.69 4.64,-66.92 4.64,-111.68l0 -27.43zm45.18 38.19c0,78.54 -6.55,136.63 -19.64,174.28l88.72 -11.14 0 -171.82 -69.08 8.68zm169.04 194.45l0 -259.54 47.47 -5.96 0 102.22 92.32 -11.59 0 -102.22 47.47 -5.96 0 259.54 -47.47 5.96 0 -113.46 -92.32 11.6 0 113.45 -47.47 5.96zm237.07 -289.31l44.2 -5.54 0 172.78 94.94 -184.7 47.14 -5.92 0 259.54 -44.19 5.55 0 -170.01 -94.94 181.93 -47.15 5.92 0 -259.55zm235.33 -29.54l47.47 -5.96 0 110.56c10.53,-2.53 17.68,-6.39 21.39,-11.75 3.71,-5.3 9.5,-19.5 17.24,-42.58 9.77,-29.32 19.65,-48.08 29.52,-56.15 9.82,-8.06 25.59,-13.48 47.42,-16.22 1.09,-0.14 3.38,-0.49 6.87,-1.05l0 38.79 -6.71 0.66c-9.71,1.22 -16.8,3.44 -21.28,6.66 -4.47,3.22 -8.07,7.72 -10.85,13.51 -2.79,5.78 -6.88,17.47 -12.28,35.07 -2.89,9.36 -6,17.24 -9.39,23.71 -3.32,6.46 -9.27,12.89 -17.78,19.27 10.53,1.94 19.2,7.56 26.08,16.72 6.87,9.17 14.4,22.36 22.59,39.64l31.92 67.04 -55.66 6.99 -28.1 -63.3c-0.43,-0.91 -1.36,-2.6 -2.73,-5.15 -0.54,-0.84 -2.51,-4.7 -5.89,-11.46 -6,-12.06 -10.91,-19.42 -14.73,-22.14 -3.88,-2.71 -9.71,-3.61 -17.63,-2.74l0 113.46 -47.47 5.96 0 -259.54zm410.31 208.02l-51.13 6.42 -20.24 -56.54 -94.01 11.8 -19.48 61.53 -50.2 6.3 91.01 -270.96 50.15 -6.3 93.9 247.75zm-86.75 -92.05l-32.57 -91.97 -31.65 100.03 64.22 -8.06z"/>
  <polygon class="fil11" points="8469.74,3175.98 8586.59,3518.72 8967.03,3518.03 8658.82,3729.16 8777.08,4071.47 8469.74,3859.22 8162.38,4071.47 8280.64,3729.16 7972.43,3518.03 8352.87,3518.72 "/>
 </g>
</svg>
