<?xml version="1.0" encoding="UTF-8"?>
<!DOCTYPE svg PUBLIC "-//W3C//DTD SVG 1.1//EN" "http://www.w3.org/Graphics/SVG/1.1/DTD/svg11.dtd">
<!-- Creator: CorelDRAW X7 -->
<svg xmlns="http://www.w3.org/2000/svg" xml:space="preserve" width="455px" height="400px" version="1.1" style="shape-rendering:geometricPrecision; text-rendering:geometricPrecision; image-rendering:optimizeQuality; fill-rule:evenodd; clip-rule:evenodd"
viewBox="0 0 455 400"
 xmlns:xlink="http://www.w3.org/1999/xlink">
 <defs>
  <style type="text/css">
   <![CDATA[
    .fil2 {fill:#FEFEFE}
    .fil1 {fill:#423A39}
    .fil0 {fill:#353233}
    .fil3 {fill:#CC6633}
    .fil5 {fill:white}
    .fil4 {fill:white}
    .fil6 {fill:#FF6600;fill-rule:nonzero}
    .fil8 {fill:#FF6633;fill-rule:nonzero}
    .fil7 {fill:white;fill-rule:nonzero}
   ]]>
  </style>
 </defs>
 <g id="Слой_x0020_1">
  <metadata id="CorelCorpID_0Corel-Layer"/>
  <polygon class="fil0" points="2,399 2,-1 457,-1 457,399 "/>
  <path class="fil1" d="M56 -1c0,55 2,134 2,209 0,65 -4,135 -2,191l6 0c-5,-86 5,-176 4,-261 0,-50 -2,-96 -2,-139l-8 0z"/>
  <path class="fil1" d="M47 208c0,-97 3,-172 3,-209l-7 0c1,50 -4,70 -5,139 -1,72 6,148 5,222 0,12 1,26 1,39l5 0c0,-13 0,-26 0,-40 0,-48 -2,-101 -2,-151z"/>
  <path class="fil1" d="M90 -1c-2,61 -3,122 -2,184 1,43 -3,124 -1,131 7,28 18,54 22,85l6 0c-5,-33 -14,-66 -16,-99 -3,-58 -5,-115 -6,-172 0,-47 2,-89 4,-129l-7 0z"/>
  <path class="fil1" d="M76 -1c-2,63 -3,128 -2,184 0,43 2,158 4,165 5,20 9,36 11,51l8 0c-5,-14 -10,-30 -11,-54 -3,-57 -4,-162 -5,-219 0,-42 1,-85 3,-127l-8 0z"/>
  <path class="fil1" d="M115 101c-1,0 0,19 0,41 1,23 2,41 2,41 1,0 2,-18 1,-41 -1,-22 -2,-41 -3,-41zm-9 -102l2 0c-5,36 -5,83 -4,130 1,50 1,99 3,135 3,37 6,60 10,60 4,0 10,-23 14,-60 3,-36 4,-85 0,-135 -3,-47 -6,-94 -7,-130l4 0c2,41 4,87 7,130 4,61 3,117 -3,156 -5,40 -12,65 -16,65 -4,0 -8,-25 -11,-65 -4,-40 -3,-95 -4,-156 -1,-47 2,-92 5,-130zm4 0l4 0c-2,8 -5,24 -6,44 -2,30 1,71 1,110 1,40 1,62 3,78 2,16 5,26 8,40 3,14 6,5 8,-17 2,-23 3,-59 1,-100 -2,-41 -7,-81 -8,-112 -1,-20 -2,-35 -2,-43l3 0c0,5 0,11 0,17 1,39 7,89 9,137 3,48 1,85 -2,110 -3,25 -7,38 -10,38 -4,0 -7,-13 -9,-38 -2,-25 -3,-62 -3,-110 0,-48 -3,-98 1,-137 0,-6 1,-12 2,-17zm5 65c-3,0 -3,37 -2,74 1,38 3,68 6,68 2,0 5,-30 3,-68 -2,-37 -5,-74 -7,-74l0 0zm-1 -46c-1,0 -4,22 -4,49 0,28 1,50 1,85 0,35 3,93 7,93 4,0 10,-58 9,-93 -2,-35 -5,-57 -8,-85 -3,-27 -4,-49 -5,-49l0 0z"/>
  <path class="fil1" d="M33 208c0,-97 3,-172 3,-209l-8 0c2,50 -4,70 -4,139 -1,72 2,148 1,222 0,12 0,26 0,39l10 0c0,-13 -1,-26 -1,-40 1,-48 -1,-101 -1,-151z"/>
  <path class="fil1" d="M2 -1l2 0c5,57 18,191 18,264 0,65 -5,121 -5,131l-1 5 -4 0c1,-19 2,-39 2,-62 3,-94 0,-185 -12,-247 0,-1 0,-1 0,-2l0 -89z"/>
  <path class="fil1" d="M197 137c-1,-20 -2,-32 -2,-33 -5,-23 -7,-55 -8,-83 0,-7 -1,-15 -1,-22l-6 0c1,15 1,26 2,31 6,41 4,36 7,69 8,87 9,213 4,300l7 0c0,-7 1,-14 1,-18 2,-34 6,-55 1,-118 -1,-12 -3,-96 -5,-126z"/>
  <path class="fil1" d="M169 -1c-2,36 -4,89 -7,107 -1,1 -2,14 -3,33 -2,30 -4,0 -4,124 0,66 3,121 4,132l0 4 3 0c-1,-18 -1,-39 -2,-61 -1,-78 -1,-172 5,-239 3,-28 4,-65 8,-100l-4 0z"/>
  <path class="fil1" d="M217 111c0,-3 -1,-31 -1,-46 -2,-23 -3,-45 -4,-66l-6 0c1,25 1,51 2,77 1,14 1,40 2,43 16,94 16,187 12,280l3 0c1,-96 5,-203 -8,-288z"/>
  <path class="fil1" d="M208 165c0,-5 -1,-57 -1,-72 -2,-30 -3,-62 -5,-94l-6 0c1,37 2,73 3,106 1,14 4,66 5,68 16,92 13,151 8,226l7 0c2,-44 4,-101 -11,-234z"/>
  <path class="fil1" d="M220 -1l1 0c2,16 3,27 4,27l0 0c1,0 3,-11 4,-27l2 0 0 8c-2,50 -5,82 -7,72l0 0c-1,-10 -1,-40 -4,-80zm4 0l3 0c0,5 -1,7 -1,7l0 0c-1,0 -2,-2 -2,-7z"/>
  <path class="fil1" d="M169 328c1,0 1,-19 0,-43 0,-23 -1,-43 -1,-43 -1,0 -2,20 -1,43 1,24 2,43 2,43zm9 71l-1 0c1,-31 1,-65 1,-101 -1,-52 -1,-103 -3,-141 -2,-39 -4,-64 -7,-64 -3,0 -7,25 -10,64 -3,38 -3,89 -1,141 2,36 3,70 5,101l-3 0c-1,-33 -3,-68 -4,-101 -3,-63 -2,-122 2,-163 4,-43 8,-69 11,-69 3,0 6,27 9,69 2,41 2,100 3,163 0,36 -1,70 -2,101zm-2 0l-2 0c0,-3 1,-6 1,-10 1,-32 -1,-74 -1,-116 -1,-41 -1,-65 -3,-82 -1,-17 -3,-27 -5,-41 -3,-15 -5,-6 -6,18 -2,24 -2,62 -1,105 2,43 5,85 6,117 0,3 1,6 1,9l-2 0c-2,-37 -5,-82 -6,-126 -2,-50 -1,-89 1,-115 2,-26 5,-40 8,-40 2,0 5,14 6,40 2,26 2,65 2,115 1,44 2,89 1,126zm-4 0l-3 0c-1,-9 -2,-21 -3,-35 -2,-29 -4,-52 -5,-89 -1,-37 3,-98 6,-98 3,0 5,61 5,98 1,37 1,60 1,89 0,14 0,26 -1,35zm-2 -32c1,0 2,-39 1,-78 -1,-39 -2,-71 -4,-71 -2,0 -4,32 -3,71 1,39 4,78 6,78l0 0z"/>
  <path class="fil1" d="M157 -1c-3,56 -12,192 -13,264 0,66 4,121 4,132l0 4 4 0c-1,-18 -2,-39 -2,-61 -2,-95 0,-186 9,-248 3,-18 4,-66 5,-91l-7 0z"/>
  <path class="fil1" d="M134 -1c0,37 3,112 3,210 0,50 -2,103 -2,151 0,13 0,27 0,39l7 0c0,-13 0,-26 0,-39 -1,-74 2,-149 1,-221 -1,-70 -5,-90 -3,-140l-6 0z"/>
  <path class="fil1" d="M318 137c-2,-20 -3,-32 -3,-33 -6,-23 -9,-55 -10,-83 -1,-7 -1,-15 -1,-22l-7 0c0,15 1,26 1,31 8,41 6,36 9,69 11,87 11,213 6,300l8 0c1,-7 1,-14 1,-18 3,-34 8,-55 2,-118 -2,-12 -4,-96 -6,-126z"/>
  <path class="fil1" d="M282 -1c-2,36 -4,89 -8,107 -1,1 -2,14 -3,33 -3,30 -6,0 -6,124 0,66 4,121 5,132l0 4 4 0c-1,-18 -2,-39 -2,-61 -2,-78 -2,-172 6,-239 3,-28 4,-65 9,-100l-5 0z"/>
  <path class="fil1" d="M343 111c-1,-3 -2,-31 -2,-46 -2,-23 -3,-45 -5,-66l-7 0c0,25 1,51 2,77 1,14 1,40 2,43 21,94 20,187 15,280l4 0c1,-96 7,-203 -9,-288z"/>
  <path class="fil1" d="M332 165c-1,-5 -2,-57 -3,-72 -1,-30 -3,-62 -5,-94l-8 0c1,37 3,73 4,106 1,14 5,66 6,68 20,92 17,151 10,226l8 0c4,-44 6,-101 -12,-234z"/>
  <path class="fil1" d="M346 -1l2 0c1,16 3,27 4,27l0 0c2,0 4,-11 5,-27l3 0 0 8c-2,50 -7,82 -8,72l0 0c-2,-10 -3,-40 -6,-80zm5 0l4 0c-1,5 -1,7 -2,7l0 0c-1,0 -1,-2 -2,-7z"/>
  <path class="fil1" d="M286 328c0,0 0,-19 -1,-43 0,-23 -1,-43 -2,-43 0,0 -1,20 0,43 0,24 2,43 3,43zm10 71l-1 0c1,-31 1,-65 1,-101 -1,-52 -1,-103 -3,-141 -2,-39 -6,-64 -10,-64 -3,0 -8,25 -12,64 -3,38 -3,89 0,141 2,36 4,70 5,101l-4 0c-1,-33 -3,-68 -5,-101 -3,-63 -2,-122 3,-163 5,-43 11,-69 14,-69 4,0 8,27 11,69 3,41 3,100 3,163 1,36 0,70 -2,101zm-3 0l-1 0c0,-3 0,-6 0,-10 2,-32 -1,-74 -1,-116 0,-41 -1,-65 -3,-82 -2,-17 -4,-27 -7,-41 -3,-15 -5,-6 -7,18 -2,24 -3,62 -1,105 2,43 6,85 8,117 0,3 0,6 0,9l-3 0c-1,-37 -5,-82 -7,-126 -3,-50 -1,-89 2,-115 2,-26 6,-40 9,-40 4,0 6,14 8,40 2,26 3,65 3,115 0,44 2,89 0,126zm-4 0l-4 0c-1,-9 -2,-21 -3,-35 -3,-29 -6,-52 -7,-89 -1,-37 4,-98 8,-98 3,0 6,61 6,98 1,37 2,60 1,89 0,14 0,26 -1,35zm-3 -32c2,0 3,-39 2,-78 -1,-39 -3,-71 -6,-71 -2,0 -4,32 -3,71 2,39 5,78 7,78l0 0z"/>
  <path class="fil1" d="M268 -1c-4,56 -16,192 -16,264 0,66 5,121 5,132l0 4 4 0c-1,-18 -1,-39 -2,-61 -3,-95 0,-186 11,-248 3,-18 5,-66 6,-91l-8 0z"/>
  <path class="fil1" d="M239 -1c0,37 3,112 3,210 0,50 -1,103 -1,151 0,13 -1,27 -1,39l9 0c0,-13 0,-26 0,-39 -1,-74 2,-149 1,-221 0,-70 -6,-90 -4,-140l-7 0z"/>
  <path class="fil1" d="M427 -1c0,55 1,134 1,209 0,65 -3,135 -1,191l5 0c-4,-86 5,-176 4,-261 0,-50 -2,-96 -2,-139l-7 0z"/>
  <path class="fil1" d="M420 359c0,-48 -2,-101 -2,-151 0,-97 3,-172 3,-209l-7 0c2,50 -3,70 -4,139 -1,72 6,148 5,222 0,12 0,26 1,39l4 0c0,-13 0,-26 0,-40z"/>
  <path class="fil1" d="M447 41c-1,47 -2,95 -1,142 1,43 -3,124 -1,131 0,3 1,6 2,9l0 -282z"/>
  <path class="fil1" d="M445 -1c-2,63 -3,128 -2,184 0,43 2,158 3,165 5,20 8,36 11,51l0 0 0 -28c-2,-7 -3,-16 -3,-26 -3,-57 -4,-162 -4,-219 -1,-42 1,-85 2,-127l-7 0z"/>
  <path class="fil1" d="M405 208c0,-97 4,-172 3,-209l-7 0c2,50 -3,70 -4,139 -1,72 2,148 2,222 -1,12 -1,26 0,39l9 0c-1,-13 -1,-26 -1,-40 0,-48 -2,-101 -2,-151z"/>
  <path class="fil1" d="M371 -1c1,25 3,72 7,91 11,62 13,153 11,247 -1,23 -2,43 -3,62l4 0 1 -5c0,-10 5,-66 5,-131 -1,-73 -12,-207 -17,-264l-8 0z"/>
  <path class="fil1" d="M375 -1c1,18 0,42 -2,68 -2,21 -10,42 -10,63 -2,70 8,135 5,167 -1,10 1,55 1,102l-6 0c-1,-29 -2,-59 -2,-89 0,-58 -1,-111 -7,-168 -2,-20 6,-49 9,-71 3,-22 6,-53 8,-72l4 0z"/>
  <path class="fil1" d="M366 194c0,0 -1,-8 -1,-19 0,-10 0,-19 0,-19 1,0 1,9 1,19 1,11 0,19 0,19zm0 11c-1,0 -3,-14 -3,-27 0,-14 1,-25 2,-25 1,0 2,11 2,25 0,13 0,27 -1,27l0 0zm0 17c-1,0 -4,-32 -4,-49 0,-18 0,-36 2,-36 1,0 5,18 5,36 0,17 -2,49 -3,49l0 0zm2 73c-1,0 -2,-11 -3,-29 -1,-17 -3,-40 -5,-63 -2,-23 -1,-46 -1,-63 1,-17 3,-28 4,-28 2,0 3,11 6,28 2,17 3,40 3,63 -1,23 -1,46 -1,63 -1,18 -1,29 -3,29l0 0zm1 25c-1,-5 -3,-20 -4,-41 -1,-21 -4,-48 -6,-76 -3,-29 -2,-54 0,-73 1,-19 3,-30 5,-30 1,0 1,12 4,30 3,20 6,44 5,73 -1,28 -1,60 -2,83 0,24 -1,39 -2,34l0 0zm-1 -61c-1,0 -1,-10 -3,-23 -1,-14 -3,-32 -4,-50 -1,-18 0,-30 0,-38 1,-9 1,-14 2,-17 1,-3 3,1 5,11 1,10 2,25 2,44 0,18 0,36 -1,50 0,14 0,23 -1,23l0 0zm0 18c1,0 2,-12 2,-29 0,-17 1,-40 1,-62 0,-22 -1,-38 -3,-50 -3,-11 -4,-17 -5,-17 -1,0 -2,6 -3,17 0,12 -1,28 0,50 1,22 4,44 6,62 1,17 1,29 2,29l0 0z"/>
  <path class="fil2" d="M389 124c1,-6 -8,-9 -11,-4 -1,3 4,5 5,2 -1,-1 -3,0 -3,-1 2,-4 9,-2 7,4 -2,4 -11,3 -13,-1 1,-1 2,-2 2,-4 0,0 -1,0 -1,0 0,1 -1,2 -1,2 0,0 0,0 0,0 -1,0 -1,0 -1,0 -1,-1 -2,-2 -4,-1 -6,-7 -23,-5 -24,5 2,-1 2,-3 3,-4 1,1 1,2 2,2 4,-2 3,-6 9,-6 3,1 6,4 5,7 0,2 -5,4 -6,1 0,-1 2,-1 2,-2 0,-2 -3,-2 -4,0 -1,8 11,6 10,-1 -1,-1 -2,-3 -3,-4 2,0 3,1 4,2 0,0 0,0 0,0 0,0 0,1 1,1 0,0 0,0 0,0 0,0 0,0 0,0 -1,3 4,3 2,7 2,0 2,-2 3,-2 4,1 7,2 11,2 5,-1 7,-7 12,-6 3,1 5,5 1,5 0,-1 0,-2 -2,-2 -4,4 6,6 6,0 -1,-5 -9,-5 -12,-2z"/>
  <path class="fil2" d="M369 107c2,1 3,-1 4,-1 0,0 0,0 1,0 0,0 0,0 0,0 0,0 1,0 1,1 0,0 1,0 1,0 0,-2 -1,-3 -2,-4 2,-4 11,-5 13,-1 2,6 -5,8 -7,5 0,-2 2,-1 3,-2 -1,-3 -6,-1 -5,2 3,5 12,3 11,-4 3,3 11,3 12,-2 0,-6 -10,-4 -6,0 2,0 2,-1 2,-2 4,0 2,5 -1,5 -5,1 -7,-5 -12,-6 -4,0 -7,2 -11,3 -1,-1 -1,-3 -3,-3 2,4 -3,4 -2,7 0,0 0,0 0,0 0,0 0,0 0,0 -1,0 -1,1 -1,1 0,0 0,0 0,0 -1,1 -2,2 -4,2 1,-1 2,-2 3,-4 1,-6 -11,-9 -10,0 1,1 4,2 4,-1 0,-1 -2,0 -2,-1 1,-4 6,-2 6,0 1,3 -2,7 -5,7 -6,0 -5,-4 -9,-6 -1,0 -1,2 -2,2 -1,-1 -1,-3 -3,-3 1,9 18,11 24,5z"/>
  <path class="fil2" d="M63 121c-2,-1 -3,0 -4,1 0,0 0,0 -1,0 0,0 0,0 0,0 0,0 -1,-1 -1,-2 0,0 0,0 -1,0 0,2 1,3 2,4 -2,4 -11,5 -13,1 -2,-6 5,-8 7,-4 0,1 -2,0 -3,1 1,3 6,1 5,-2 -3,-5 -12,-2 -11,4 -3,-3 -11,-3 -12,2 0,6 10,4 6,0 -2,0 -2,1 -2,2 -4,0 -2,-4 1,-5 5,-1 7,5 12,6 4,0 7,-1 11,-2 1,0 1,2 3,2 -2,-4 3,-4 2,-7 0,0 0,0 0,0 0,0 0,0 0,0 1,0 1,-1 1,-1 0,0 0,0 0,0 1,-1 2,-2 4,-2 -1,1 -2,3 -3,4 -1,7 11,9 10,1 -1,-2 -4,-2 -4,0 0,1 2,1 2,2 -1,3 -6,1 -6,-1 -1,-3 2,-6 5,-7 6,0 5,4 9,6 1,0 1,-1 2,-2 1,1 1,3 3,4 -1,-10 -18,-12 -24,-5z"/>
  <path class="fil2" d="M84 105c-1,0 -1,-2 -2,-2 -4,2 -3,6 -9,6 -3,0 -6,-4 -5,-7 0,-2 5,-4 6,0 0,1 -2,0 -2,1 0,3 3,2 4,1 1,-9 -11,-6 -10,0 1,2 2,3 3,4 -2,0 -3,-1 -4,-2 0,0 0,0 0,0 0,0 0,-1 -1,-1 0,0 0,0 0,0 0,0 0,0 0,0 1,-3 -4,-3 -2,-7 -2,0 -2,2 -3,3 -4,-1 -7,-3 -11,-3 -5,1 -7,7 -12,6 -3,0 -5,-5 -1,-5 0,1 0,2 2,2 4,-4 -6,-6 -6,0 1,5 9,5 12,2 -1,7 8,9 11,4 1,-3 -4,-5 -5,-2 1,1 3,0 3,2 -2,3 -9,1 -7,-5 2,-4 11,-3 13,1 -1,1 -2,2 -2,4 1,0 1,0 1,0 0,-1 1,-1 1,-1 0,0 0,0 0,0 1,0 1,0 1,0 1,0 2,2 4,1 6,6 23,4 24,-5 -2,0 -2,2 -3,3z"/>
  <path class="fil3" d="M31 114c16,-1 31,-1 46,-1l47 -1c30,0 61,0 92,0 31,0 62,0 92,0l47 1c15,0 30,0 46,1 -16,0 -31,0 -46,0l-47 1c-30,0 -61,0 -92,0 -31,0 -62,0 -92,0l-47 -1c-15,0 -30,0 -46,0z"/>
  <path class="fil4" d="M86 29l1 13 -2 0c-1,-4 -3,-6 -5,-8 -2,-1 -5,-1 -10,-1l-10 0 0 23 2 0c8,0 13,0 16,1 4,1 7,3 9,6 2,2 3,5 3,9 0,4 -1,8 -5,11 -3,4 -9,5 -17,5l-26 0 0 -1c4,0 7,-1 8,-2 1,-1 1,-3 1,-7l0 -38c0,-3 0,-5 -1,-6 0,-1 -1,-2 -2,-2 -1,0 -2,-1 -5,-1l0 -2 43 0zm-26 56c2,0 4,0 6,0 4,0 7,-1 10,-3 3,-2 4,-6 4,-10 0,-4 -1,-8 -4,-10 -4,-2 -7,-3 -12,-3 -2,0 -3,0 -4,1l0 25zm33 -33l13 -4 2 0 0 9c2,-4 4,-6 6,-7 2,-2 4,-3 7,-3 4,0 7,2 10,5 3,4 5,9 5,15 0,7 -2,13 -6,17 -3,4 -8,6 -13,6 -2,0 -4,-1 -5,-1 -2,-1 -3,-2 -4,-3l0 12c0,3 0,5 0,5 0,1 1,2 2,2 1,1 2,1 4,1l0 1 -21 0 0 -1 1 0c2,0 3,0 4,-1 1,0 1,-1 2,-2 0,0 0,-2 0,-5l0 -38c0,-2 0,-4 0,-5 0,0 -1,-1 -1,-1 -1,-1 -2,-1 -3,-1 0,0 -1,1 -2,1l-1 -2zm15 7l0 15c0,4 0,6 0,7 0,1 1,3 3,4 2,1 4,2 6,2 3,0 6,-1 7,-3 3,-3 4,-8 4,-13 0,-6 -1,-11 -4,-14 -2,-2 -4,-3 -7,-3 -1,0 -3,0 -4,1 -1,0 -3,2 -5,4zm47 17l17 -20c0,-2 0,-4 -1,-4 -1,-1 -2,-2 -4,-2l0 -1 19 0 0 1c-2,0 -3,0 -4,1 -1,0 -1,1 -2,1 0,1 0,3 0,6l0 21c0,3 0,5 0,6 1,0 1,1 2,1 1,1 2,1 4,1l0 1 -20 0 0 -1c3,0 4,-1 5,-2 1,0 1,-3 1,-6l0 -19 -17 20c0,3 0,4 1,5 0,1 2,2 4,2l0 1 -19 0 0 -1c3,0 4,-1 5,-2 1,-1 1,-3 1,-6l0 -21c0,-3 0,-5 0,-6 -1,0 -1,-1 -2,-1 0,-1 -2,-1 -4,-1l0 -1 20 0 0 1c-2,0 -3,0 -4,1 -1,0 -1,1 -2,1 0,1 0,3 0,6l0 18zm71 -3c-1,6 -4,10 -7,12 -3,3 -6,5 -10,5 -5,0 -9,-2 -13,-6 -3,-4 -5,-9 -5,-15 0,-7 2,-12 6,-16 4,-4 8,-6 14,-6 4,0 7,1 10,4 2,2 4,4 4,6 0,1 -1,2 -2,3 0,0 -1,1 -3,1 -1,0 -3,-1 -4,-2 0,-1 0,-2 -1,-3 0,-2 0,-4 -1,-4 -1,-1 -3,-2 -5,-2 -3,0 -5,1 -7,3 -2,3 -4,7 -4,12 0,5 2,9 4,12 3,4 6,6 10,6 3,0 5,-1 8,-3 1,-1 3,-4 4,-7l2 0zm5 -24l35 0 2 10 -2 0c0,-2 -1,-3 -2,-5 -1,-1 -1,-2 -3,-2 -1,0 -2,-1 -5,-1l-4 0 0 28c0,3 1,5 1,6 0,1 1,1 2,1 1,1 2,1 5,1l0 1 -22 0 0 -1c3,0 5,-1 6,-2 1,0 1,-3 1,-6l0 -28 -4 0c-2,0 -4,1 -5,1 -1,0 -2,1 -3,2 0,1 -1,3 -2,5l-2 0 2 -10zm59 -2c7,0 12,3 15,7 4,4 5,9 5,14 0,3 -1,7 -2,11 -2,3 -5,6 -8,8 -3,2 -6,3 -10,3 -6,0 -11,-3 -15,-8 -3,-4 -4,-8 -4,-13 0,-4 1,-7 2,-11 2,-4 5,-6 8,-8 3,-2 6,-3 9,-3zm-1 3c-1,0 -3,1 -5,2 -1,1 -3,2 -4,4 -1,3 -1,6 -1,9 0,6 1,11 4,15 2,4 5,6 9,6 3,0 5,-1 7,-3 2,-2 3,-6 3,-12 0,-7 -2,-13 -5,-17 -2,-2 -5,-4 -8,-4zm30 -1l37 0 0 1c-2,0 -4,0 -4,1 -1,0 -1,1 -2,1 0,1 0,3 0,6l0 21c0,3 0,5 0,6 0,0 1,1 2,1 0,1 2,1 4,1l0 1 -21 0 0 -1c2,0 3,0 4,-1 1,0 2,0 2,-1 1,-1 1,-3 1,-6l0 -28 -14 0 0 17c0,7 0,11 0,14 -1,2 -2,4 -4,5 -2,1 -4,2 -6,2 -4,0 -5,-1 -5,-4 0,-2 0,-2 0,-3 1,-1 2,-1 3,-1 1,0 2,0 3,1 1,1 2,2 2,2 2,0 3,-1 3,-3 1,-3 1,-6 1,-12l0 -9c0,-4 0,-7 -1,-8 0,-1 -2,-2 -5,-2l0 -1zm54 17l5 0c13,0 19,4 19,11 0,4 -2,6 -5,8 -3,2 -7,3 -13,3l-19 0 0 -1c2,0 4,-1 5,-2 1,-1 1,-3 1,-6l0 -21c0,-3 0,-5 -1,-6 0,0 0,-1 -1,-1 -1,-1 -2,-1 -4,-1l0 -1 21 0 0 1c-3,0 -5,0 -5,1 -1,0 -2,0 -2,1 0,1 -1,3 -1,6l0 8zm0 19c2,0 3,1 5,1 3,0 5,-1 7,-3 2,-1 3,-3 3,-6 0,-5 -4,-8 -12,-8 -1,0 -1,0 -3,0l0 16z"/>
  <path class="fil5" d="M121 35l-5 0c-1,-2 -3,-4 -4,-6 0,0 0,-1 0,-1 -1,0 -1,0 -1,0 -1,0 -1,0 -1,0l0 4c0,1 0,2 0,2 0,0 1,0 1,1 0,0 1,0 2,0l0 0 -8 0 0 0c1,0 1,0 2,-1 0,0 0,-1 0,-2l0 -8c0,-2 0,-2 0,-2 0,-1 0,-1 -1,-1 0,0 0,0 -1,0l0 -1 8 0 0 1c-1,0 -2,0 -2,0 0,0 -1,0 -1,0 0,1 0,1 0,3l0 3c0,0 0,0 1,0 0,0 1,0 1,-1 1,0 2,-1 2,-2 1,-1 1,-2 1,-3 1,0 1,0 1,-1 1,0 2,0 2,0 1,0 1,0 2,0 0,1 0,1 0,1 0,1 0,1 0,1 -1,1 -1,1 -1,1 -1,0 -1,0 -1,0 -1,0 -1,-1 -1,-1 -1,0 -1,1 -2,2 0,1 0,1 -1,2 0,0 0,0 -1,1 1,0 1,0 2,1 0,0 1,1 2,3 1,2 1,3 2,3 0,1 1,1 2,1l0 0zm25 -22l3 0 0 8c1,-1 2,-1 3,-1 1,0 3,0 4,2 1,2 1,4 1,6 0,2 0,4 -1,5 -1,2 -3,3 -4,3 -1,0 -2,-1 -3,-2l0 5c0,1 0,2 0,2 0,1 0,1 1,1 0,0 1,0 2,0l0 1 -9 0 0 -1c2,0 2,0 3,0 0,-1 0,-2 0,-3l0 -5c-1,1 -2,2 -3,2 -1,0 -3,-1 -4,-3 -1,-1 -1,-3 -1,-5 0,-2 0,-4 1,-6 1,-2 2,-2 4,-2 1,0 2,0 3,1l0 -4c0,-1 0,-2 0,-3 0,0 -1,0 -1,0 0,0 -1,0 -1,0l-1 0 3 -1zm-16 20c-1,1 -2,2 -3,2 0,1 -1,1 -2,1 -1,0 -2,-1 -2,-1 -1,-1 -1,-2 -1,-3 0,-1 0,-2 0,-2 1,-1 2,-2 3,-2 1,-1 3,-2 5,-3l0 0c0,-2 0,-3 0,-3 -1,-1 -1,-1 -2,-1 -1,0 -2,0 -2,0 -1,1 -1,1 -1,2l0 1c0,0 0,0 0,1 0,0 -1,0 -1,0 -1,0 -1,0 -1,0 -1,-1 -1,-1 -1,-2 0,0 1,-1 2,-2 1,-1 2,-1 4,-1 1,0 3,0 4,0 0,1 1,1 1,2 0,0 0,1 0,3l0 5c0,2 0,2 0,3 0,0 1,0 1,0 0,0 0,1 0,1 0,0 1,0 1,-1 0,0 0,0 1,-1l0 1c-1,2 -2,3 -4,3 0,0 -1,-1 -1,-1 0,0 0,-1 -1,-2zm0 -1l0 -6c-1,1 -2,1 -3,2 -1,0 -1,1 -2,1 0,1 0,1 0,2 0,1 0,1 0,2 1,0 1,1 2,1 1,0 2,-1 3,-2zm16 -9c0,-2 -1,-2 -2,-2 -1,0 -2,0 -3,2 0,1 0,3 0,5 0,2 0,4 0,5 1,1 2,2 3,2 1,0 1,-1 2,-2l0 -10zm3 10c0,0 0,1 1,1 0,1 1,1 1,1 1,0 2,-1 2,-2 1,-1 1,-3 1,-5 0,-5 -1,-7 -3,-7 0,0 -1,0 -2,1l0 11zm14 -7c0,2 0,4 1,5 1,1 3,2 4,2 1,0 2,0 3,-1 1,0 1,-1 2,-3l1 1c-1,1 -1,3 -3,4 -1,1 -2,2 -4,2 -2,0 -3,-1 -5,-2 -1,-2 -2,-4 -2,-6 0,-3 1,-5 2,-6 2,-2 3,-2 5,-2 2,0 4,0 5,1 1,1 2,3 2,5l-11 0zm0 -1l7 0c0,-1 0,-2 0,-2 -1,-1 -1,-1 -2,-2 0,0 -1,0 -2,0 0,0 -1,0 -2,1 -1,1 -1,2 -1,3z"/>
  <g id="_1311447872">
   <path class="fil5" d="M85 155l0 -4c2,0 3,0 4,0 0,0 1,0 2,-1 0,-1 1,-1 1,-2 0,-1 -1,-2 -2,-3 0,-1 -1,-1 -3,-1 -2,0 -4,1 -5,4l-4 0c1,-5 5,-7 9,-7 3,0 5,0 7,2 1,1 2,3 2,5 0,2 -1,3 -3,5 1,0 2,1 3,2 1,1 1,2 1,4 0,2 -1,4 -3,5 -1,2 -4,2 -7,2 -5,0 -9,-2 -10,-7l4 -1c1,2 2,3 3,4 1,0 2,1 4,1 1,0 2,0 3,-1 1,-1 2,-2 2,-3 0,-1 -1,-2 -1,-3 -1,-1 -2,-1 -2,-1 -1,0 -2,0 -4,0 0,0 0,0 -1,0zm17 -14l10 0c2,0 4,0 5,1 1,0 2,1 3,2 1,1 1,2 1,4 0,1 0,2 0,3 -1,1 -2,1 -3,2 2,0 3,1 3,2 1,1 2,2 2,4 -1,2 -1,4 -3,5 -2,1 -4,2 -7,2l-11 0 0 -25zm4 11l5 0c2,0 3,-1 3,-1 1,0 2,0 2,-1 1,0 1,-1 1,-2 0,-1 0,-2 -1,-3 -1,0 -3,0 -5,0l-5 0 0 7zm0 10l6 0c2,0 4,0 5,0 1,-1 1,-2 1,-3 0,-1 0,-2 -1,-2 0,-1 -1,-2 -2,-2 0,0 -2,0 -4,0l-5 0 0 7zm20 -9c0,-4 1,-7 4,-10 2,-1 4,-2 7,-2 4,0 7,1 9,3 2,2 3,5 3,9 0,3 0,6 -1,8 -1,1 -3,3 -4,4 -2,1 -4,1 -7,1 -3,0 -6,-1 -8,-3 -2,-2 -3,-5 -3,-10zm4 0c0,4 1,6 2,8 2,1 3,2 5,2 3,0 4,-1 6,-2 1,-2 2,-4 2,-8 0,-3 -1,-5 -2,-7 -2,-1 -3,-2 -6,-2 -2,0 -3,1 -5,2 -1,2 -2,4 -2,7zm24 -12l5 0 0 10 12 0 0 -10 4 0 0 25 -4 0 0 -11 -12 0 0 11 -5 0 0 -25zm27 0l5 0 0 19 12 -19 4 0 0 25 -4 0 0 -19 -12 19 -5 0 0 -25zm25 0l21 0 0 4 -8 0 0 21 -5 0 0 -21 -8 0 0 -4zm42 17l4 0c-1,3 -2,5 -4,6 -2,2 -4,2 -7,2 -4,0 -7,-1 -9,-3 -2,-2 -3,-5 -3,-9 0,-4 1,-8 3,-10 2,-2 5,-3 9,-3 3,0 6,1 8,3 2,2 3,5 3,9 0,1 0,1 0,2l-19 0c1,2 1,4 3,6 1,1 3,2 5,2 2,0 3,-1 4,-1 1,-1 2,-2 3,-4zm-14 -7l14 0c0,-2 -1,-3 -2,-5 -1,-1 -3,-2 -5,-2 -2,0 -4,1 -5,2 -1,1 -2,3 -2,5zm37 -10l4 0 0 10 12 0 0 -10 5 0 0 25 -5 0 0 -11 -12 0 0 11 -4 0 0 -25zm44 22c-2,1 -4,2 -5,2 -1,1 -3,1 -5,1 -3,0 -5,0 -6,-2 -2,-1 -2,-3 -2,-5 0,-1 0,-2 0,-3 1,-1 2,-2 3,-2 1,-1 2,-1 3,-2 1,0 2,0 4,0 3,-1 6,-1 7,-2 0,0 0,-1 0,-1 0,-2 0,-3 -1,-3 -1,-1 -3,-2 -5,-2 -2,0 -3,0 -4,1 -1,1 -2,2 -2,4l-5 -1c1,-2 1,-3 2,-4 1,-1 2,-2 4,-2 2,-1 4,-1 6,-1 2,0 4,0 5,0 1,1 2,1 3,2 1,1 1,2 1,3 1,1 1,2 1,4l0 5c0,4 0,7 0,8 0,1 0,2 1,3l-5 0c0,-1 0,-2 0,-3zm-1 -10c-1,1 -4,2 -7,2 -2,0 -3,1 -4,1 0,0 -1,1 -1,1 -1,1 -1,1 -1,2 0,1 1,2 1,3 1,1 3,1 4,1 2,0 3,0 5,-1 1,-1 2,-2 3,-3 0,-1 0,-2 0,-4l0 -2zm11 -12l7 0 7 20 7 -20 6 0 0 25 -4 0 0 -20 -8 20 -3 0 -7 -21 0 21 -5 0 0 -25zm35 5l0 -5 5 0 0 5 -5 0zm0 20l0 -5 5 0 0 5 -5 0zm-318 47l0 -9 -10 0 0 -4 10 0 0 -9 4 0 0 9 9 0 0 4 -9 0 0 9 -4 0zm18 -24l0 -4 23 0 0 3c-3,3 -5,6 -7,10 -2,3 -4,7 -5,11 -1,3 -1,6 -2,10l-4 0c0,-3 1,-6 2,-10 1,-4 2,-7 4,-11 2,-3 4,-6 6,-9l-17 0zm47 11c-2,0 -3,-1 -4,-2 -1,-2 -1,-3 -1,-5 0,-2 1,-4 3,-6 1,-2 4,-2 7,-2 3,0 5,1 7,2 2,2 3,4 3,7 0,1 0,2 -1,4 -1,1 -2,2 -4,2 2,1 4,2 5,4 1,1 2,3 2,5 0,3 -2,5 -4,7 -2,2 -5,3 -8,3 -3,0 -6,-1 -8,-3 -2,-2 -3,-4 -3,-7 0,-2 0,-4 1,-6 1,-1 3,-2 5,-3zm-1 -7c0,2 1,3 2,4 1,1 2,2 4,2 2,0 3,-1 4,-2 1,-1 2,-2 2,-4 0,-1 -1,-2 -2,-3 -1,-1 -2,-2 -4,-2 -2,0 -3,1 -4,2 -1,1 -2,2 -2,3zm-1 16c0,1 0,2 1,3 0,1 1,2 2,3 2,1 3,1 4,1 2,0 4,-1 5,-2 1,-1 2,-3 2,-5 0,-2 -1,-4 -2,-5 -1,-1 -3,-2 -5,-2 -2,0 -4,1 -5,2 -1,1 -2,3 -2,5zm36 10l0 -8 -15 0 0 -4 16 -22 4 0 0 22 4 0 0 4 -4 0 0 8 -5 0zm0 -12l0 -15 -11 15 11 0zm14 3l4 -1c1,3 1,4 3,5 1,1 2,2 4,2 2,0 4,-1 5,-2 2,-2 2,-3 2,-5 0,-2 0,-4 -2,-5 -1,-1 -3,-2 -5,-2 0,0 -1,0 -3,1l1 -4c0,0 0,0 0,0 2,0 4,0 5,-1 2,-1 3,-3 3,-5 0,-1 -1,-2 -2,-3 -1,-1 -2,-2 -4,-2 -2,0 -3,1 -4,2 -1,1 -2,2 -2,4l-5 -1c1,-2 2,-5 4,-6 2,-2 4,-2 7,-2 2,0 3,0 5,1 2,1 3,2 4,3 1,1 1,3 1,4 0,2 0,3 -1,4 -1,2 -2,3 -4,3 2,1 4,2 5,3 1,2 2,3 2,6 0,3 -1,5 -4,7 -2,2 -5,3 -8,3 -3,0 -6,-1 -8,-2 -2,-2 -3,-4 -3,-7zm41 0l4 -1c0,3 1,4 2,5 2,1 3,2 5,2 2,0 4,-1 5,-2 1,-2 2,-4 2,-6 0,-3 -1,-5 -2,-6 -1,-1 -3,-2 -5,-2 -2,0 -3,0 -4,1 -1,0 -2,1 -3,2l-4 0 4 -18 17 0 0 4 -14 0 -2 9c2,-1 5,-2 7,-2 3,0 5,1 8,3 2,2 3,5 3,8 0,3 -1,6 -3,8 -2,3 -5,4 -9,4 -3,0 -6,-1 -8,-2 -2,-2 -3,-4 -3,-7zm27 0l4 -1c1,3 1,4 3,5 1,1 2,2 4,2 2,0 4,-1 5,-2 1,-2 2,-3 2,-5 0,-2 -1,-4 -2,-5 -1,-1 -3,-2 -5,-2 -1,0 -2,0 -3,1l1 -4c0,0 0,0 0,0 2,0 4,0 5,-1 2,-1 3,-3 3,-5 0,-1 -1,-2 -2,-3 -1,-1 -3,-2 -4,-2 -2,0 -3,1 -4,2 -2,1 -2,2 -3,4l-4 -1c1,-2 2,-5 4,-6 2,-2 4,-2 7,-2 2,0 3,0 5,1 2,1 3,2 4,3 0,1 1,3 1,4 0,2 -1,3 -1,4 -1,2 -2,3 -4,3 2,1 4,2 5,3 1,2 2,3 2,6 0,3 -2,5 -4,7 -2,2 -5,3 -8,3 -3,0 -6,-1 -8,-2 -2,-2 -3,-4 -3,-7zm27 -21l0 -4 23 0 0 3c-3,3 -5,6 -7,10 -2,3 -4,7 -5,11 -1,3 -1,6 -2,10l-4 0c0,-3 1,-6 2,-10 1,-4 2,-7 4,-11 2,-3 4,-6 6,-9l-17 0zm26 20l0 -5 14 0 0 5 -14 0zm18 2l4 0c0,1 1,3 2,4 1,0 2,1 4,1 1,0 2,0 3,-1 1,-1 2,-1 3,-2 0,-1 1,-3 1,-4 1,-2 1,-4 1,-5 0,-1 0,-1 0,-1 -1,1 -2,2 -4,3 -1,1 -3,1 -4,1 -3,0 -6,-1 -8,-3 -2,-2 -3,-5 -3,-8 0,-3 1,-6 3,-8 2,-2 5,-3 8,-3 2,0 5,0 6,1 2,2 4,3 5,6 1,2 1,5 1,9 0,4 0,8 -1,10 -1,3 -3,5 -5,6 -1,2 -4,2 -6,2 -3,0 -5,0 -7,-2 -2,-1 -3,-3 -3,-6zm17 -15c0,-2 0,-4 -2,-6 -1,-1 -2,-2 -4,-2 -2,0 -4,1 -5,2 -2,2 -2,4 -2,6 0,2 0,4 2,5 1,2 3,3 5,3 2,0 3,-1 4,-3 2,-1 2,-3 2,-5zm9 13l0 -5 13 0 0 5 -13 0zm17 1l4 -1c0,3 1,4 2,5 2,1 3,2 5,2 2,0 4,-1 5,-2 2,-2 2,-4 2,-6 0,-3 0,-5 -2,-6 -1,-1 -3,-2 -5,-2 -2,0 -3,0 -4,1 -1,0 -2,1 -3,2l-4 0 4 -18 17 0 0 4 -14 0 -2 9c2,-1 5,-2 7,-2 3,0 6,1 8,3 2,2 3,5 3,8 0,3 -1,6 -3,8 -2,3 -5,4 -9,4 -3,0 -6,-1 -8,-2 -2,-2 -3,-4 -3,-7zm27 0l4 -1c1,3 1,4 3,5 1,1 2,2 4,2 2,0 4,-1 5,-2 1,-2 2,-3 2,-5 0,-2 0,-4 -2,-5 -1,-1 -3,-2 -5,-2 -1,0 -2,0 -3,1l1 -4c0,0 0,0 0,0 2,0 4,0 5,-1 2,-1 3,-3 3,-5 0,-1 -1,-2 -2,-3 -1,-1 -2,-2 -4,-2 -2,0 -3,1 -4,2 -1,1 -2,2 -2,4l-5 -1c1,-2 2,-5 4,-6 2,-2 4,-2 7,-2 2,0 3,0 5,1 2,1 3,2 4,3 1,1 1,3 1,4 0,2 0,3 -1,4 -1,2 -2,3 -4,3 2,1 4,2 5,3 1,2 2,3 2,6 0,3 -1,5 -4,7 -2,2 -5,3 -8,3 -3,0 -6,-1 -8,-2 -2,-2 -3,-4 -3,-7zm27 -21l0 -4 23 0 0 3c-2,3 -5,6 -7,10 -2,3 -4,7 -5,11 -1,3 -1,6 -2,10l-4 0c0,-3 1,-6 2,-10 1,-4 2,-7 4,-11 2,-3 4,-6 6,-9l-17 0zm-374 83l0 -34 13 0c3,0 5,0 7,1 1,0 3,2 4,3 1,1 1,3 1,4 0,2 0,3 -1,5 -1,1 -2,2 -4,3 2,0 4,1 5,3 1,1 2,3 2,5 0,1 -1,3 -1,4 -1,2 -2,3 -3,3 -1,1 -2,2 -4,2 -1,1 -3,1 -5,1l-14 0zm5 -20l7 0c3,0 4,0 5,0 1,-1 2,-1 3,-2 0,-1 0,-2 0,-3 0,-1 0,-2 0,-3 -1,-1 -2,-1 -3,-2 -1,0 -3,0 -5,0l-7 0 0 10zm0 16l9 0c1,0 2,0 3,0 1,-1 2,-1 2,-1 1,-1 2,-1 2,-2 1,-1 1,-2 1,-3 0,-1 0,-3 -1,-3 -1,-1 -2,-2 -3,-2 -1,-1 -3,-1 -5,-1l-8 0 0 12zm27 -21l5 0 0 19 12 -19 4 0 0 25 -4 0 0 -19 -12 19 -5 0 0 -25zm28 0l4 0 0 21 10 0 0 -21 4 0 0 21 10 0 0 -21 4 0 0 25 -32 0 0 -25zm39 0l4 0 0 10 12 0 0 -10 4 0 0 25 -4 0 0 -11 -12 0 0 11 -4 0 0 -25zm44 17l5 0c-1,3 -2,5 -4,6 -2,2 -5,2 -8,2 -3,0 -6,-1 -8,-3 -2,-2 -4,-5 -4,-9 0,-5 2,-8 4,-10 2,-2 5,-3 8,-3 4,0 6,1 9,3 2,2 3,5 3,9 0,1 0,1 0,1l-19 0c0,3 1,5 2,7 2,1 3,2 5,2 2,0 3,-1 4,-1 2,-1 2,-3 3,-4zm-14 -7l14 0c0,-2 -1,-4 -1,-5 -2,-1 -4,-2 -6,-2 -2,0 -3,1 -5,2 -1,1 -2,3 -2,5zm24 -10l10 0c2,0 4,0 5,1 1,0 3,1 3,2 1,1 2,2 2,4 0,1 -1,2 -1,3 -1,1 -1,1 -2,2 1,0 2,1 3,2 0,1 1,2 1,4 0,2 -1,4 -3,5 -1,1 -4,2 -7,2l-11 0 0 -25zm4 10l5 0c2,0 3,0 4,0 0,0 1,0 1,-1 1,0 1,-1 1,-2 0,-1 0,-2 -1,-3 -1,0 -3,0 -5,0l-5 0 0 6zm0 11l6 0c2,0 4,0 5,-1 1,0 1,-1 1,-2 0,-1 0,-2 0,-3 -1,0 -2,-1 -2,-1 -1,0 -3,0 -5,0l-5 0 0 7zm38 -5l4 0c0,3 -2,5 -3,7 -2,1 -5,2 -7,2 -4,0 -7,-1 -9,-3 -2,-2 -3,-5 -3,-10 0,-2 1,-4 1,-6 1,-2 3,-4 5,-5 1,-1 3,-1 6,-1 2,0 5,0 6,2 2,1 3,3 4,5l-4 1c-1,-2 -2,-3 -3,-4 -1,-1 -2,-1 -3,-1 -2,0 -4,1 -5,2 -2,2 -2,4 -2,7 0,4 0,6 1,8 2,1 3,2 6,2 1,0 3,-1 4,-2 1,-1 2,-2 2,-4zm8 -16l4 0 0 11c1,0 2,-1 3,-1 0,-1 1,-2 2,-5 1,-1 2,-3 2,-3 1,-1 2,-1 2,-2 1,0 2,0 3,0l1 0 0 4 -1 -1c-1,0 -2,1 -2,1 0,0 -1,1 -2,3 0,2 -1,3 -1,3 -1,1 -2,2 -3,2 2,1 4,2 6,5l4 8 -4 0 -5 -8c-1,-1 -2,-2 -2,-3 -1,0 -2,-1 -3,-1l0 12 -4 0 0 -25zm20 12c0,-4 1,-8 4,-10 2,-2 5,-2 8,-2 3,0 6,1 8,3 3,2 4,5 4,9 0,3 -1,6 -2,7 -1,2 -2,4 -4,5 -2,1 -4,1 -6,1 -4,0 -6,-1 -9,-3 -2,-2 -3,-5 -3,-10zm4 0c0,4 1,6 3,7 1,2 3,3 5,3 2,0 4,-1 5,-3 2,-1 2,-4 2,-7 0,-3 0,-5 -2,-7 -1,-1 -3,-2 -5,-2 -2,0 -4,1 -5,2 -2,2 -3,4 -3,7zm25 -12l14 0 0 4 -10 0 0 21 -4 0 0 -25zm15 12c0,-4 1,-8 4,-10 2,-2 5,-2 8,-2 3,0 6,1 8,3 3,2 4,5 4,9 0,3 -1,6 -2,7 -1,2 -2,4 -4,5 -2,1 -4,1 -6,1 -4,0 -7,-1 -9,-3 -2,-2 -3,-5 -3,-10zm4 0c0,4 1,6 2,7 2,2 4,3 6,3 2,0 4,-1 5,-3 2,-1 2,-4 2,-7 0,-3 0,-5 -2,-7 -1,-1 -3,-2 -5,-2 -2,0 -4,1 -6,2 -1,2 -2,4 -2,7zm60 9l0 4 -24 0c0,-1 1,-2 1,-3 1,-2 2,-3 3,-5 1,-1 3,-3 5,-5 4,-3 7,-5 8,-7 1,-2 2,-3 2,-5 0,-2 0,-3 -2,-4 -1,-1 -2,-2 -4,-2 -3,0 -4,1 -5,2 -2,1 -2,3 -2,5l-5 -1c1,-3 2,-5 4,-7 2,-2 4,-2 8,-2 3,0 6,1 8,2 2,2 3,4 3,7 0,1 -1,3 -1,4 -1,1 -2,3 -3,4 -1,2 -4,4 -7,6 -2,2 -4,4 -5,4 0,1 -1,2 -2,3l18 0zm5 -4l4 -1c0,2 1,4 2,5 1,0 2,1 4,1 1,0 2,0 3,-1 1,-1 2,-1 3,-2 0,-1 1,-3 1,-4 1,-2 1,-4 1,-5 0,-1 0,-1 0,-1 -1,1 -2,2 -4,3 -1,1 -3,1 -4,1 -3,0 -6,-1 -8,-3 -2,-2 -3,-5 -3,-8 0,-3 1,-6 3,-8 2,-2 5,-3 8,-3 2,0 5,0 6,1 2,2 4,3 5,5 1,3 1,6 1,10 0,4 0,8 -1,10 -1,3 -3,5 -5,6 -1,2 -4,2 -6,2 -3,0 -5,0 -7,-2 -2,-1 -3,-4 -3,-6zm17 -15c0,-3 0,-4 -2,-6 -1,-1 -2,-2 -4,-2 -2,0 -4,1 -5,2 -2,2 -2,4 -2,6 0,2 0,4 2,5 1,2 3,2 5,2 2,0 3,0 4,-2 2,-1 2,-3 2,-5zm7 23l10 -35 4 0 -10 35 -4 0zm30 0l0 -8 -16 0 0 -4 16 -22 4 0 0 22 5 0 0 4 -5 0 0 8 -4 0zm0 -12l0 -16 -11 16 11 0z"/>
   <path class="fil5" d="M427 253c-2,0 -3,-1 -4,-2 -1,-2 -2,-3 -2,-5 0,-2 1,-4 3,-6 2,-2 4,-2 7,-2 4,0 6,0 8,2 2,2 3,4 3,6 0,2 -1,3 -2,5 0,1 -2,2 -4,2 3,1 4,2 5,4 1,1 2,3 2,5 0,3 -1,5 -3,7 -2,2 -5,3 -8,3 -4,0 -7,-1 -9,-3 -2,-2 -3,-4 -3,-7 0,-2 1,-4 2,-6 1,-1 3,-2 5,-3zm-1 -7c0,2 0,3 1,4 1,1 3,2 5,2 1,0 3,-1 4,-2 1,-1 1,-2 1,-4 0,-1 0,-2 -1,-3 -1,-1 -3,-2 -4,-2 -2,0 -3,1 -5,2 -1,1 -1,2 -1,3zm-2 16c0,1 1,2 1,3 1,1 2,2 3,3 1,1 2,1 4,1 2,0 3,-1 5,-2 1,-1 2,-3 2,-5 0,-2 -1,-4 -2,-5 -2,-1 -3,-2 -6,-2 -2,0 -3,1 -5,2 -1,1 -2,3 -2,5z"/>
  </g>
  <g>
   <path class="fil6" d="M382 302l-323 0 0 -3 323 0 0 0 0 3zm8 6l-3 0 0 0 0 -1 0 0 0 0 0 0 0 -1 0 0 0 0 0 0 -1 -1 0 0 0 0 0 0 0 -1 0 0 0 0 -1 0 0 0 0 -1 0 0 0 0 -1 0 0 0 0 0 0 0 -1 0 0 0 0 -1 0 0 -1 0 0 0 0 0 0 0 0 -3 0 0 1 0 0 0 0 0 1 1 0 0 1 0 0 0 0 0 1 0 0 0 1 1 0 0 0 0 1 0 0 1 0 0 0 0 1 1 0 0 0 0 0 1 0 0 1 0 0 1 0 0 0 1 0 0 0 0 0 1 0 0 0 1 0 0zm-3 54l0 -54 3 0 0 54 0 0 -3 0zm-5 9l0 -3 0 0 0 0 0 0 0 0 1 0 0 -1 0 0 0 0 1 0 0 0 0 0 0 0 1 0 0 0 0 -1 0 0 0 0 1 0 0 0 0 -1 0 0 0 0 0 0 0 0 1 -1 0 0 0 0 0 0 0 -1 0 0 0 0 0 -1 0 0 3 0 0 1 0 0 0 0 0 1 0 0 0 1 0 0 0 0 -1 1 0 0 0 1 0 0 0 0 -1 1 0 0 0 0 0 0 -1 1 0 0 0 0 -1 0 0 1 -1 0 0 0 0 0 -1 0 0 0 -1 1 0 0 0 0 -1 0 0 0 0 0zm-323 -3l323 0 0 3 -323 0 0 0 0 -3zm-8 -6l3 0 0 0 0 0 0 1 0 0 0 0 0 1 0 0 0 0 0 0 1 1 0 0 0 0 0 0 0 0 0 1 0 0 1 0 0 0 0 0 0 1 0 0 1 0 0 0 0 0 0 0 1 0 0 0 0 0 0 1 1 0 0 0 0 0 0 0 0 3 0 0 -1 0 0 0 0 0 -1 -1 0 0 -1 0 0 0 0 0 -1 0 0 -1 0 0 -1 0 0 0 0 -1 -1 0 0 0 0 0 -1 -1 0 0 0 0 0 -1 0 0 -1 -1 0 0 0 0 0 -1 0 0 0 -1 0 0 0 0 0 -1 0 0zm3 -54l0 54 -3 0 0 -54 0 0 3 0zm5 -9l0 3 0 0 0 0 0 0 0 0 -1 0 0 0 0 1 0 0 -1 0 0 0 0 0 0 0 -1 0 0 0 0 0 0 1 0 0 -1 0 0 0 0 0 0 1 0 0 0 0 0 0 -1 1 0 0 0 0 0 0 0 1 0 0 0 0 0 0 0 1 -3 0 0 -1 0 0 0 -1 0 0 0 0 0 -1 0 0 0 -1 1 0 0 0 0 -1 0 0 0 0 1 -1 0 0 0 0 1 -1 0 0 0 0 1 0 0 -1 0 0 1 0 0 0 0 0 1 0 0 0 1 -1 0 0 0 0 1 0 0 0 0 0z"/>
  </g>
  <path class="fil7" d="M352 24l4 -18 2 0 0 2c1,-1 1,-1 2,-1 1,-1 1,-1 2,-1 1,0 2,1 3,1 1,1 1,3 1,4 0,2 0,3 -1,4 0,1 -1,2 -1,3 -1,0 -2,1 -2,1 -1,0 -2,1 -2,1 -2,0 -3,-1 -4,-3l-1 7 -3 0zm5 -10c0,1 0,2 0,2 0,1 1,1 1,1 0,1 1,1 2,1 1,0 2,-1 3,-2 1,-2 1,-3 1,-5 0,-1 0,-2 -1,-2 0,-1 -1,-1 -2,-1 0,0 -1,0 -1,0 -1,1 -1,1 -2,2 0,0 -1,1 -1,2 0,1 0,1 0,2z"/>
  <path id="1" class="fil7" d="M377 15l2 0c0,1 -1,2 -2,3 -1,1 -2,2 -4,2 -1,0 -2,-1 -3,-1 0,0 -1,-1 -1,-2 -1,-1 -1,-2 -1,-3 0,-1 0,-3 1,-4 1,-1 1,-2 2,-3 2,-1 3,-1 4,-1 1,0 3,1 4,2 1,1 1,2 1,3 0,1 0,2 0,2l-10 0c0,1 0,1 0,1 0,1 0,2 1,3 1,1 1,1 2,1 1,0 2,0 2,-1 1,0 2,-1 2,-2zm-6 -3l7 0c0,-1 0,-1 0,-1 0,-1 0,-2 -1,-2 0,-1 -1,-1 -2,-1 -1,0 -2,0 -3,1 0,0 -1,1 -1,3z"/>
  <path id="2" class="fil7" d="M384 6l2 0 -1 6 1 0c0,0 1,0 1,-1 0,0 1,-1 2,-2 0,-1 1,-2 2,-2 0,0 1,-1 2,-1l1 0 -1 2 0 0c-1,0 -1,0 -1,0 -1,1 -1,1 -1,2 -1,1 -1,1 -2,2 0,0 -1,0 -1,1 0,0 1,0 1,1 0,0 1,1 1,1l1 4 -2 0 -1 -3c-1,-1 -1,-2 -1,-2 -1,-1 -1,-1 -2,-1l-1 6 -3 0 3 -13z"/>
  <path id="3" class="fil7" d="M397 6l10 0 -3 13 -2 0 2 -11 -5 0 -2 8c0,1 -1,2 -1,3 -1,0 -1,1 -2,1 -1,0 -1,-1 -2,-1l0 -1c1,0 1,0 1,0 1,0 1,-1 1,-1 1,0 1,-1 1,-2l2 -9z"/>
  <path id="4" class="fil7" d="M416 18c0,0 -1,1 -2,1 -1,0 -1,1 -2,1 -1,0 -2,-1 -3,-1 -1,-1 -1,-2 -1,-3 0,-1 0,-1 0,-2 1,-1 1,-1 2,-1 0,-1 1,-1 2,-1 0,0 1,0 2,0 2,0 3,-1 4,-1 0,0 0,-1 0,-1 0,-1 0,-1 -1,-1 0,-1 -1,-1 -2,-1 -1,0 -2,0 -2,1 -1,0 -1,1 -2,1l-2 0c1,-1 1,-2 2,-3 1,-1 3,-1 4,-1 2,0 3,1 4,1 1,1 1,2 1,2 0,1 0,2 0,3l-1 3c0,1 0,2 0,3 0,0 0,1 0,1l-2 0c-1,0 -1,-1 -1,-1zm1 -5c0,0 0,0 -1,0 0,0 -1,0 -2,0 -1,0 -2,1 -2,1 -1,0 -1,0 -2,1 0,0 0,0 0,1 0,0 0,1 1,1 0,1 1,1 2,1 0,0 1,0 2,-1 0,0 1,-1 1,-1 1,-1 1,-2 1,-3z"/>
  <polygon id="5" class="fil7" points="424,6 428,6 429,17 435,6 438,6 435,19 433,19 435,9 429,19 427,19 426,9 424,19 421,19 "/>
  <path id="6" class="fil7" d="M448 18c-1,0 -2,1 -3,1 0,0 -1,1 -2,1 -1,0 -2,-1 -3,-1 -1,-1 -1,-2 -1,-3 0,-1 0,-1 1,-2 0,-1 0,-1 1,-1 0,-1 1,-1 2,-1 0,0 1,0 3,0 1,0 2,-1 3,-1 0,0 0,-1 0,-1 0,-1 0,-1 -1,-1 0,-1 -1,-1 -2,-1 -1,0 -2,0 -2,1 -1,0 -1,1 -1,1l-3 0c1,-1 2,-2 3,-3 1,-1 2,-1 3,-1 2,0 3,1 4,1 1,1 1,2 1,2 0,1 0,2 0,3l-1 3c0,1 0,2 0,3 0,0 0,1 0,1l-2 0c0,0 0,-1 0,-1zm0 -5c0,0 0,0 -1,0 0,0 -1,0 -1,0 -2,0 -3,1 -3,1 -1,0 -1,0 -1,1 -1,0 -1,0 -1,1 0,0 0,1 1,1 0,1 1,1 2,1 0,0 1,0 2,-1 1,0 1,-1 2,-1 0,-1 0,-2 0,-3z"/>
  <path class="fil8" d="M65 343l4 -1c0,1 1,2 2,4 1,1 3,2 5,2 2,0 4,0 5,-2 1,-1 2,-2 2,-3 0,-2 -1,-3 -2,-4 -1,-1 -3,-2 -5,-2l-2 0 0 -3c2,0 3,0 4,-1 1,0 2,0 3,-1 0,-1 1,-2 1,-3 0,-1 -1,-3 -2,-3 -1,-1 -2,-2 -4,-2 -1,0 -3,0 -4,1 -1,1 -1,2 -2,3 0,1 0,2 0,3l-4 -1c1,-6 4,-9 10,-9 3,0 5,0 7,2 2,2 2,4 2,6 0,3 -1,5 -3,6 1,1 2,1 3,3 1,1 2,3 2,4 0,3 -1,5 -3,7 -2,2 -5,2 -8,2 -5,0 -9,-3 -11,-8z"/>
  <path id="1" class="fil8" d="M105 348c-1,1 -2,2 -4,3 -1,0 -2,0 -4,0 -2,0 -4,0 -5,-1 -1,-1 -2,-3 -2,-5 0,-1 0,-2 1,-3 0,-1 1,-1 2,-2 0,0 1,-1 2,-1 1,0 2,0 3,0 3,-1 6,-1 7,-2 0,0 0,-1 0,-1 0,-1 0,-2 -1,-3 -1,-1 -2,-1 -4,-1 -2,0 -3,0 -4,1 -1,0 -1,1 -2,3l-3 0c0,-2 1,-3 1,-4 1,-1 2,-2 3,-2 2,-1 3,-1 5,-1 2,0 4,0 5,1 1,0 2,1 2,1 1,1 1,2 1,3 1,0 1,1 1,3l0 5c0,3 0,5 0,6 0,1 0,2 1,3l-4 0c0,-1 -1,-2 -1,-3zm0 -8c-1,1 -3,1 -6,1 -1,1 -3,1 -3,1 -1,0 -1,1 -2,1 0,1 0,2 0,2 0,1 0,2 1,3 1,0 2,1 3,1 2,0 3,-1 4,-1 1,-1 2,-2 2,-3 1,-1 1,-2 1,-4l0 -1z"/>
  <path id="2" class="fil8" d="M114 329l4 0 0 10c1,0 2,-1 2,-1 1,0 1,-2 2,-4 1,-2 2,-3 2,-3 0,-1 1,-1 1,-1 1,-1 2,-1 3,-1l1 0 0 3 -1 0c-1,0 -2,0 -2,1 0,0 -1,1 -1,2 -1,2 -1,3 -2,3 0,1 -1,1 -2,2 2,0 3,2 5,4l4 7 -4 0 -4 -7c-1,-1 -2,-2 -2,-2 -1,-1 -1,-1 -2,-1l0 10 -4 0 0 -22z"/>
  <path id="3" class="fil8" d="M147 348c-1,1 -3,2 -4,3 -1,0 -2,0 -4,0 -2,0 -4,0 -5,-1 -2,-1 -2,-3 -2,-5 0,-1 0,-2 1,-3 0,-1 1,-1 1,-2 1,0 2,-1 3,-1 1,0 2,0 3,0 3,-1 5,-1 7,-2 0,0 0,-1 0,-1 0,-1 -1,-2 -1,-3 -1,-1 -3,-1 -4,-1 -2,0 -3,0 -4,1 -1,0 -2,1 -2,3l-4 0c1,-2 1,-3 2,-4 1,-1 2,-2 3,-2 2,-1 3,-1 5,-1 2,0 3,0 5,1 1,0 2,1 2,1 1,1 1,2 1,3 0,0 0,1 0,3l0 5c0,3 0,5 1,6 0,1 0,2 1,3l-4 0c-1,-1 -1,-2 -1,-3zm0 -8c-2,1 -4,1 -6,1 -2,1 -3,1 -3,1 -1,0 -1,1 -2,1 0,1 0,2 0,2 0,1 0,2 1,3 1,0 2,1 3,1 1,0 3,-1 4,-1 1,-1 2,-2 2,-3 1,-1 1,-2 1,-4l0 -1z"/>
  <path id="4" class="fil8" d="M160 341l0 -3c2,0 3,0 3,0 1,0 1,0 2,-1 0,0 1,-1 1,-2 0,-1 -1,-2 -1,-2 -1,-1 -2,-1 -3,-1 -2,0 -3,1 -4,3l-4 0c2,-4 4,-6 8,-6 2,0 4,0 6,2 1,1 1,3 1,4 0,2 0,3 -2,4 1,1 2,2 2,3 1,1 1,2 1,3 0,2 -1,3 -2,5 -1,1 -3,1 -6,1 -5,0 -7,-2 -8,-6l3 -1c1,1 1,3 2,3 1,1 2,1 3,1 2,0 3,0 3,-1 1,0 2,-1 2,-2 0,-1 -1,-2 -1,-2 -1,-1 -1,-1 -2,-2 0,0 -1,0 -3,0 0,0 0,0 -1,0z"/>
  <path id="5" class="fil8" d="M188 348c-1,1 -2,2 -4,3 -1,0 -2,0 -4,0 -2,0 -4,0 -5,-1 -1,-1 -2,-3 -2,-5 0,-1 0,-2 1,-3 0,-1 1,-1 2,-2 0,0 1,-1 2,-1 1,0 2,0 4,0 2,-1 5,-1 6,-2 0,0 0,-1 0,-1 0,-1 0,-2 -1,-3 -1,-1 -2,-1 -4,-1 -2,0 -3,0 -4,1 -1,0 -1,1 -2,3l-3 0c0,-2 1,-3 1,-4 1,-1 2,-2 4,-2 1,-1 3,-1 4,-1 2,0 4,0 5,1 1,0 2,1 2,1 1,1 1,2 2,3 0,0 0,1 0,3l0 5c0,3 0,5 0,6 0,1 0,2 1,3l-4 0c0,-1 -1,-2 -1,-3zm0 -8c-1,1 -3,1 -6,1 -1,1 -2,1 -3,1 -1,0 -1,1 -1,1 -1,1 -1,2 -1,2 0,1 0,2 1,3 1,0 2,1 3,1 2,0 3,-1 4,-1 1,-1 2,-2 2,-3 1,-1 1,-2 1,-4l0 -1z"/>
  <polygon id="6" class="fil8" points="194,329 212,329 212,332 205,332 205,351 201,351 201,332 194,332 "/>
  <path id="7" class="fil8" d="M215 329l4 0 0 9 4 0c3,0 6,0 7,2 2,1 3,2 3,4 0,2 -1,4 -2,5 -2,1 -4,2 -7,2l-9 0 0 -22zm4 19l4 0c2,0 3,0 4,-1 1,0 2,-1 2,-3 0,-1 0,-1 -1,-2 -1,-1 -2,-1 -5,-1l-4 0 0 7z"/>
  <path id="8" class="fil8" d="M264 320l3 0c0,2 -1,3 -1,3 -1,1 -1,1 -2,2 -1,0 -2,0 -5,0 -3,0 -5,0 -6,1 -1,0 -1,1 -2,2 0,2 -1,3 -1,5 1,-1 2,-2 3,-3 2,0 3,-1 5,-1 2,0 5,1 7,3 1,2 2,5 2,8 0,3 0,5 -1,6 -1,2 -2,3 -3,4 -2,1 -3,1 -6,1 -2,0 -4,0 -5,-1 -2,-2 -3,-3 -4,-5 0,-2 -1,-5 -1,-9 0,-6 1,-10 3,-12 2,-2 5,-3 9,-3 2,0 4,0 4,0 0,0 1,0 1,-1zm-1 20c0,-2 0,-4 -1,-5 -1,-2 -3,-3 -5,-3 -2,0 -3,1 -4,3 -1,1 -2,3 -2,6 0,2 1,4 2,5 1,2 3,2 4,2 2,0 4,0 5,-2 1,-1 1,-3 1,-6z"/>
  <path id="9" class="fil8" d="M285 348c-2,1 -3,2 -4,3 -1,0 -3,0 -4,0 -3,0 -4,0 -6,-1 -1,-1 -2,-3 -2,-5 0,-1 1,-2 1,-3 1,-1 1,-1 2,-2 1,0 2,-1 3,-1 0,0 1,0 3,0 3,-1 5,-1 6,-2 0,0 0,-1 0,-1 0,-1 0,-2 -1,-3 -1,-1 -2,-1 -4,-1 -2,0 -3,0 -4,1 0,0 -1,1 -1,3l-4 0c0,-2 1,-3 2,-4 0,-1 1,-2 3,-2 1,-1 3,-1 5,-1 2,0 3,0 4,1 1,0 2,1 3,1 0,1 1,2 1,3 0,0 0,1 0,3l0 5c0,3 0,5 0,6 0,1 1,2 1,3l-4 0c0,-1 0,-2 0,-3zm-1 -8c-1,1 -3,1 -6,1 -1,1 -2,1 -3,1 0,0 -1,1 -1,1 -1,1 -1,2 -1,2 0,1 1,2 1,3 1,0 2,1 4,1 1,0 2,-1 3,-1 1,-1 2,-2 3,-3 0,-1 0,-2 0,-4l0 -1z"/>
  <polygon id="10" class="fil8" points="294,329 297,329 297,338 307,338 307,329 311,329 311,351 307,351 307,341 297,341 297,351 294,351 "/>
  <path id="11" class="fil8" d="M316 329l4 0 0 10c1,0 2,-1 2,-1 1,0 1,-2 2,-4 1,-2 2,-3 2,-3 1,-1 1,-1 2,-1 0,-1 1,-1 2,-1l1 0 0 3 -1 0c-1,0 -1,0 -2,1 0,0 0,1 -1,2 -1,2 -1,3 -2,3 0,1 -1,1 -2,2 2,0 3,2 5,4l4 7 -4 0 -4 -7c-1,-1 -1,-2 -2,-2 -1,-1 -1,-1 -2,-1l0 10 -4 0 0 -22z"/>
  <path id="12" class="fil8" d="M349 344l4 0c-1,3 -2,4 -3,6 -2,1 -4,1 -6,1 -3,0 -6,-1 -8,-3 -2,-1 -2,-4 -2,-8 0,-3 0,-6 2,-8 2,-2 5,-3 7,-3 3,0 6,1 7,3 2,2 3,5 3,8 0,0 0,1 0,1l-16 0c0,2 1,4 2,6 1,1 3,1 5,1 1,0 2,0 3,-1 1,0 2,-1 2,-3zm-12 -6l12 0c0,-2 0,-3 -1,-4 -1,-1 -3,-2 -4,-2 -2,0 -4,0 -5,2 -1,1 -1,2 -2,4z"/>
  <polygon id="13" class="fil8" points="354,329 372,329 372,332 365,332 365,351 361,351 361,332 354,332 "/>
 </g>
</svg>
