<?xml version="1.0" encoding="UTF-8"?>
<!DOCTYPE svg PUBLIC "-//W3C//DTD SVG 1.1//EN" "http://www.w3.org/Graphics/SVG/1.1/DTD/svg11.dtd">
<!-- Creator: CorelDRAW 2017 -->
<svg xmlns="http://www.w3.org/2000/svg" xml:space="preserve" width="118.533mm" height="118.533mm" version="1.1" style="shape-rendering:geometricPrecision; text-rendering:geometricPrecision; image-rendering:optimizeQuality; fill-rule:evenodd; clip-rule:evenodd"
viewBox="0 0 11853.32 11853.32"
 xmlns:xlink="http://www.w3.org/1999/xlink">
 <defs>
  <style type="text/css">
   <![CDATA[
    .str1 {stroke:#4D4D4D;stroke-width:42.33;stroke-miterlimit:22.9256}
    .str0 {stroke:black;stroke-width:20;stroke-miterlimit:22.9256}
    .fil5 {fill:none}
    .fil2 {fill:black}
    .fil0 {fill:#00AEBE}
    .fil6 {fill:#1A1A1A}
    .fil14 {fill:#58595B}
    .fil10 {fill:#660066}
    .fil7 {fill:#666666}
    .fil13 {fill:#939598}
    .fil9 {fill:#990000}
    .fil15 {fill:#B3B3B3}
    .fil12 {fill:#BCBDC0}
    .fil11 {fill:#BD0006}
    .fil16 {fill:#CCCCCC}
    .fil17 {fill:#CCCCCC}
    .fil1 {fill:#FCD5A6}
    .fil3 {fill:#FEFEFE}
    .fil8 {fill:red}
    .fil4 {fill:white}
   ]]>
  </style>
   <clipPath id="id0">
    <path d="M10525.72 4055.95l80.02 0 0 -18.47 -80.02 0 0 18.47z"/>
   </clipPath>
   <clipPath id="id1">
    <path d="M10541.1 4040.57l80.03 0 0 -18.46 -80.03 0 0 18.46z"/>
   </clipPath>
   <clipPath id="id2">
    <path d="M10555.28 4026.55l66.28 0 0 -20.31 -66.28 0 0 20.31z"/>
   </clipPath>
   <clipPath id="id3">
    <path d="M10556.5 4009.8l80.01 0 0 -18.46 -80.01 0 0 18.46z"/>
   </clipPath>
   <clipPath id="id4">
    <path d="M10571.89 3994.41l79.99 0 0 -18.46 -79.99 0 0 18.46z"/>
   </clipPath>
   <clipPath id="id5">
    <path d="M10587.26 3979.02l80.03 0 0 -18.47 -80.03 0 0 18.47z"/>
   </clipPath>
   <clipPath id="id6">
    <path d="M10601.35 3964.78l66.27 0 0 -20.24 -66.27 0 0 20.24z"/>
   </clipPath>
   <clipPath id="id7">
    <path d="M10602.67 3948.25l80.01 0 0 -18.47 -80.01 0 0 18.47z"/>
   </clipPath>
   <clipPath id="id8">
    <path d="M10618.04 3932.85l80.01 0 0 -18.47 -80.01 0 0 18.47z"/>
   </clipPath>
   <clipPath id="id9">
    <path d="M10632.04 3918.49l66.29 0 0 -20.31 -66.29 0 0 20.31z"/>
   </clipPath>
   <clipPath id="id10">
    <path d="M10648.83 3902.08l49.22 0 0 -18.46 -49.22 0 0 18.46z"/>
   </clipPath>
   <clipPath id="id11">
    <path d="M10647.42 3887.67l35.57 0 0 -20.32 -35.57 0 0 20.32z"/>
   </clipPath>
   <clipPath id="id12">
    <path d="M10648.83 3871.31l18.46 0 0 -18.46 -18.46 0 0 18.46z"/>
   </clipPath>
   <clipPath id="id13">
    <path d="M10632.04 3856.79l20.23 0 0 -35.74 -20.23 0 0 35.74z"/>
   </clipPath>
   <clipPath id="id14">
    <path d="M10618.04 3825.14l18.47 0 0 -18.47 -18.47 0 0 18.47z"/>
   </clipPath>
   <clipPath id="id15">
    <path d="M10320.53 4173.17l87.72 0 0 -20.29 -87.72 0 0 20.29z"/>
   </clipPath>
   <clipPath id="id16">
    <path d="M10337.04 4157.74l71.21 0 0 -35.73 -71.21 0 0 35.73z"/>
   </clipPath>
   <clipPath id="id17">
    <path d="M10353.55 4126.93l54.7 0 0 -20.31 -54.7 0 0 20.31z"/>
   </clipPath>
   <clipPath id="id18">
    <path d="M7482.77 6033.32l68.92 0 0 -17.15 -68.92 0 0 17.15z"/>
   </clipPath>
   <clipPath id="id19">
    <path d="M7482.77 5994.26l42.98 0 0 -17.15 -42.98 0 0 17.15z"/>
   </clipPath>
 </defs>
 <g id="Layer_x0020_1">
  <metadata id="CorelCorpID_0Corel-Layer"/>
  <path class="fil0" d="M651.04 3936.66l487.4 0 1020.91 1389.76 1034.08 -1389.76 513.76 0c309.56,0 566.43,276.64 566.43,625.71l0 3615.91c0,349.09 -256.87,625.71 -566.43,625.71l-3056.09 0c-316.16,0 -566.44,-276.62 -566.44,-625.71l0 -3615.91c0,-349.07 250.28,-625.71 566.44,-625.71l-0.01 0 -0.01 0 -0.01 0 -0.01 0 -0.01 0 -0.01 0z"/>
  <path class="fil1" d="M2198.87 307.54c869.42,0 1541.24,665.24 1541.24,1600.53 0,869.42 -671.82,1607.11 -1541.24,1607.11 -935.29,0 -1607.11,-737.69 -1607.11,-1607.11 0,-935.29 671.82,-1600.53 1607.11,-1600.53z"/>
  <path class="fil2" d="M2198.87 307.54c671.81,0 1337.07,467.64 1468.78,1132.88 72.46,335.92 -1600.52,-197.6 -2002.29,-803.55 -270.05,355.67 -869.42,737.69 -1001.16,737.69 197.6,-599.37 796.97,-1067.01 1534.67,-1067.01l0 0 0 -0.01z"/>
  <path class="fil2" d="M1836.61 650.05c599.38,566.44 1495.14,862.82 1738.84,711.34 -658.65,-6.6 -1383.17,-395.2 -1738.84,-711.34z"/>
  <path class="fil2" d="M1935.4 584.18c480.82,454.47 1198.75,684.99 1396.35,566.45 -526.92,0 -1106.54,-316.16 -1396.35,-566.45z"/>
  <path class="fil2" d="M1645.6 623.7c-276.62,316.16 -691.58,526.92 -810.14,480.82 309.58,-59.28 645.49,-302.99 810.14,-480.82z"/>
  <path class="fil3" d="M1441.43 3528.3l-355.68 414.95c65.87,283.21 98.8,612.54 276.63,717.91 250.29,-171.25 382.01,-428.12 764.04,-513.74 -243.7,-65.86 -428.12,-362.26 -684.99,-619.12z"/>
  <path class="fil3" d="M2890.41 3528.3l355.67 414.95c-65.86,283.21 -98.8,612.54 -276.64,717.91 -250.28,-171.25 -382.01,-428.12 -764.03,-513.74 243.71,-65.86 428.12,-362.26 685,-619.12z"/>
  <rect class="fil4" x="8041.27" y="3510.16" width="2559.84" height="3736.77"/>
  <path class="fil1" d="M9353.89 458.31c844.86,0 1529.63,684.87 1529.63,1529.78 0,844.77 -684.77,1529.64 -1529.63,1529.64 -66.53,0 -132.09,-4.25 -196.41,-12.5 -752.06,-96.4 -1333.28,-738.88 -1333.28,-1517.14 0,-844.94 684.84,-1529.76 1529.69,-1529.78z"/>
  <path class="fil2" d="M9353.89 458.31c690.44,0 1273.76,457.48 1464.06,1085.78 26.89,307.11 -1565.3,-152.07 -1953.1,-750.02 -82.14,105.86 -804.2,678.2 -963.2,712.33 201.84,-608.93 775.67,-1048.07 1452.24,-1048.09z"/>
  <g>
  </g>
  <g style="clip-path:url(#id0)">
   <g>
   </g>
  </g>
  <polygon class="fil5" points="10525.72,4055.95 10605.74,4055.95 10605.74,4037.48 10525.72,4037.48 "/>
  <polygon class="fil5" points="10525.72,4055.95 10605.74,4055.95 10605.74,4037.48 10525.72,4037.48 "/>
  <polygon class="fil5" points="10525.72,4055.95 10605.74,4055.95 10605.74,4037.48 10525.72,4037.48 "/>
  <polygon class="fil5" points="10525.72,4055.95 10605.74,4055.95 10605.74,4037.48 10525.72,4037.48 "/>
  <polygon class="fil5" points="10525.72,4055.95 10605.74,4055.95 10605.74,4037.48 10525.72,4037.48 "/>
  <polygon class="fil5" points="10525.72,4055.95 10605.74,4055.95 10605.74,4037.48 10525.72,4037.48 "/>
  <polygon class="fil5" points="10525.72,4055.95 10605.74,4055.95 10605.74,4037.48 10525.72,4037.48 "/>
  <polygon class="fil5" points="10525.72,4055.95 10605.74,4055.95 10605.74,4037.48 10525.72,4037.48 "/>
  <polygon class="fil5" points="10525.72,4055.95 10605.74,4055.95 10605.74,4037.48 10525.72,4037.48 "/>
  <g>
  </g>
  <g style="clip-path:url(#id1)">
   <g>
   </g>
  </g>
  <polygon class="fil5" points="10541.1,4040.57 10621.13,4040.57 10621.13,4022.11 10541.1,4022.11 "/>
  <polygon class="fil5" points="10541.1,4040.57 10621.13,4040.57 10621.13,4022.11 10541.1,4022.11 "/>
  <polygon class="fil5" points="10541.1,4040.57 10621.13,4040.57 10621.13,4022.11 10541.1,4022.11 "/>
  <polygon class="fil5" points="10541.1,4040.57 10621.13,4040.57 10621.13,4022.11 10541.1,4022.11 "/>
  <polygon class="fil5" points="10541.1,4040.57 10621.13,4040.57 10621.13,4022.11 10541.1,4022.11 "/>
  <polygon class="fil5" points="10541.1,4040.57 10621.13,4040.57 10621.13,4022.11 10541.1,4022.11 "/>
  <polygon class="fil5" points="10541.1,4040.57 10621.13,4040.57 10621.13,4022.11 10541.1,4022.11 "/>
  <polygon class="fil5" points="10541.1,4040.57 10621.13,4040.57 10621.13,4022.11 10541.1,4022.11 "/>
  <polygon class="fil5" points="10541.1,4040.57 10621.13,4040.57 10621.13,4022.11 10541.1,4022.11 "/>
  <g>
  </g>
  <g style="clip-path:url(#id2)">
   <g>
   </g>
  </g>
  <polygon class="fil5" points="10555.28,4026.55 10621.56,4026.55 10621.56,4006.24 10555.28,4006.24 "/>
  <polygon class="fil5" points="10555.28,4026.55 10621.56,4026.55 10621.56,4006.24 10555.28,4006.24 "/>
  <polygon class="fil5" points="10555.28,4026.55 10621.56,4026.55 10621.56,4006.24 10555.28,4006.24 "/>
  <polygon class="fil5" points="10555.28,4026.55 10621.56,4026.55 10621.56,4006.24 10555.28,4006.24 "/>
  <polygon class="fil5" points="10555.28,4026.55 10621.56,4026.55 10621.56,4006.24 10555.28,4006.24 "/>
  <polygon class="fil5" points="10555.28,4026.55 10621.56,4026.55 10621.56,4006.24 10555.28,4006.24 "/>
  <polygon class="fil5" points="10555.28,4026.55 10621.56,4026.55 10621.56,4006.24 10555.28,4006.24 "/>
  <polygon class="fil5" points="10555.28,4026.55 10621.56,4026.55 10621.56,4006.24 10555.28,4006.24 "/>
  <polygon class="fil5" points="10555.28,4026.55 10621.56,4026.55 10621.56,4006.24 10555.28,4006.24 "/>
  <g>
  </g>
  <g style="clip-path:url(#id3)">
   <g>
   </g>
  </g>
  <polygon class="fil5" points="10556.5,4009.8 10636.51,4009.8 10636.51,3991.34 10556.5,3991.34 "/>
  <polygon class="fil5" points="10556.5,4009.8 10636.51,4009.8 10636.51,3991.34 10556.5,3991.34 "/>
  <polygon class="fil5" points="10556.5,4009.8 10636.51,4009.8 10636.51,3991.34 10556.5,3991.34 "/>
  <polygon class="fil5" points="10556.5,4009.8 10636.51,4009.8 10636.51,3991.34 10556.5,3991.34 "/>
  <polygon class="fil5" points="10556.5,4009.8 10636.51,4009.8 10636.51,3991.34 10556.5,3991.34 "/>
  <polygon class="fil5" points="10556.5,4009.8 10636.51,4009.8 10636.51,3991.34 10556.5,3991.34 "/>
  <polygon class="fil5" points="10556.5,4009.8 10636.51,4009.8 10636.51,3991.34 10556.5,3991.34 "/>
  <polygon class="fil5" points="10556.5,4009.8 10636.51,4009.8 10636.51,3991.34 10556.5,3991.34 "/>
  <polygon class="fil5" points="10556.5,4009.8 10636.51,4009.8 10636.51,3991.34 10556.5,3991.34 "/>
  <g>
  </g>
  <g style="clip-path:url(#id4)">
   <g>
   </g>
  </g>
  <polygon class="fil5" points="10571.89,3994.41 10651.88,3994.41 10651.88,3975.95 10571.89,3975.95 "/>
  <polygon class="fil5" points="10571.89,3994.41 10651.88,3994.41 10651.88,3975.95 10571.89,3975.95 "/>
  <polygon class="fil5" points="10571.89,3994.41 10651.88,3994.41 10651.88,3975.95 10571.89,3975.95 "/>
  <polygon class="fil5" points="10571.89,3994.41 10651.88,3994.41 10651.88,3975.95 10571.89,3975.95 "/>
  <polygon class="fil5" points="10571.89,3994.41 10651.88,3994.41 10651.88,3975.95 10571.89,3975.95 "/>
  <polygon class="fil5" points="10571.89,3994.41 10651.88,3994.41 10651.88,3975.95 10571.89,3975.95 "/>
  <polygon class="fil5" points="10571.89,3994.41 10651.88,3994.41 10651.88,3975.95 10571.89,3975.95 "/>
  <polygon class="fil5" points="10571.89,3994.41 10651.88,3994.41 10651.88,3975.95 10571.89,3975.95 "/>
  <polygon class="fil5" points="10571.89,3994.41 10651.88,3994.41 10651.88,3975.95 10571.89,3975.95 "/>
  <g>
  </g>
  <g style="clip-path:url(#id5)">
   <g>
   </g>
  </g>
  <polygon class="fil5" points="10587.26,3979.02 10667.29,3979.02 10667.29,3960.55 10587.26,3960.55 "/>
  <polygon class="fil5" points="10587.26,3979.02 10667.29,3979.02 10667.29,3960.55 10587.26,3960.55 "/>
  <polygon class="fil5" points="10587.26,3979.02 10667.29,3979.02 10667.29,3960.55 10587.26,3960.55 "/>
  <polygon class="fil5" points="10587.26,3979.02 10667.29,3979.02 10667.29,3960.55 10587.26,3960.55 "/>
  <polygon class="fil5" points="10587.26,3979.02 10667.29,3979.02 10667.29,3960.55 10587.26,3960.55 "/>
  <polygon class="fil5" points="10587.26,3979.02 10667.29,3979.02 10667.29,3960.55 10587.26,3960.55 "/>
  <polygon class="fil5" points="10587.26,3979.02 10667.29,3979.02 10667.29,3960.55 10587.26,3960.55 "/>
  <polygon class="fil5" points="10587.26,3979.02 10667.29,3979.02 10667.29,3960.55 10587.26,3960.55 "/>
  <polygon class="fil5" points="10587.26,3979.02 10667.29,3979.02 10667.29,3960.55 10587.26,3960.55 "/>
  <g>
  </g>
  <g style="clip-path:url(#id6)">
   <g>
   </g>
  </g>
  <polygon class="fil5" points="10601.35,3964.78 10667.62,3964.78 10667.62,3944.54 10601.35,3944.54 "/>
  <polygon class="fil5" points="10601.35,3964.78 10667.62,3964.78 10667.62,3944.54 10601.35,3944.54 "/>
  <polygon class="fil5" points="10601.35,3964.78 10667.62,3964.78 10667.62,3944.54 10601.35,3944.54 "/>
  <polygon class="fil5" points="10601.35,3964.78 10667.62,3964.78 10667.62,3944.54 10601.35,3944.54 "/>
  <polygon class="fil5" points="10601.35,3964.78 10667.62,3964.78 10667.62,3944.54 10601.35,3944.54 "/>
  <polygon class="fil5" points="10601.35,3964.78 10667.62,3964.78 10667.62,3944.54 10601.35,3944.54 "/>
  <polygon class="fil5" points="10601.35,3964.78 10667.62,3964.78 10667.62,3944.54 10601.35,3944.54 "/>
  <polygon class="fil5" points="10601.35,3964.78 10667.62,3964.78 10667.62,3944.54 10601.35,3944.54 "/>
  <polygon class="fil5" points="10601.35,3964.78 10667.62,3964.78 10667.62,3944.54 10601.35,3944.54 "/>
  <g>
  </g>
  <g style="clip-path:url(#id7)">
   <g>
   </g>
  </g>
  <polygon class="fil5" points="10602.67,3948.25 10682.68,3948.25 10682.68,3929.78 10602.67,3929.78 "/>
  <polygon class="fil5" points="10602.67,3948.25 10682.68,3948.25 10682.68,3929.78 10602.67,3929.78 "/>
  <polygon class="fil5" points="10602.67,3948.25 10682.68,3948.25 10682.68,3929.78 10602.67,3929.78 "/>
  <polygon class="fil5" points="10602.67,3948.25 10682.68,3948.25 10682.68,3929.78 10602.67,3929.78 "/>
  <polygon class="fil5" points="10602.67,3948.25 10682.68,3948.25 10682.68,3929.78 10602.67,3929.78 "/>
  <polygon class="fil5" points="10602.67,3948.25 10682.68,3948.25 10682.68,3929.78 10602.67,3929.78 "/>
  <polygon class="fil5" points="10602.67,3948.25 10682.68,3948.25 10682.68,3929.78 10602.67,3929.78 "/>
  <polygon class="fil5" points="10602.67,3948.25 10682.68,3948.25 10682.68,3929.78 10602.67,3929.78 "/>
  <polygon class="fil5" points="10602.67,3948.25 10682.68,3948.25 10682.68,3929.78 10602.67,3929.78 "/>
  <g>
  </g>
  <g style="clip-path:url(#id8)">
   <g>
   </g>
  </g>
  <polygon class="fil5" points="10618.04,3932.85 10698.05,3932.85 10698.05,3914.38 10618.04,3914.38 "/>
  <polygon class="fil5" points="10618.04,3932.85 10698.05,3932.85 10698.05,3914.38 10618.04,3914.38 "/>
  <polygon class="fil5" points="10618.04,3932.85 10698.05,3932.85 10698.05,3914.38 10618.04,3914.38 "/>
  <polygon class="fil5" points="10618.04,3932.85 10698.05,3932.85 10698.05,3914.38 10618.04,3914.38 "/>
  <polygon class="fil5" points="10618.04,3932.85 10698.05,3932.85 10698.05,3914.38 10618.04,3914.38 "/>
  <polygon class="fil5" points="10618.04,3932.85 10698.05,3932.85 10698.05,3914.38 10618.04,3914.38 "/>
  <polygon class="fil5" points="10618.04,3932.85 10698.05,3932.85 10698.05,3914.38 10618.04,3914.38 "/>
  <polygon class="fil5" points="10618.04,3932.85 10698.05,3932.85 10698.05,3914.38 10618.04,3914.38 "/>
  <polygon class="fil5" points="10618.04,3932.85 10698.05,3932.85 10698.05,3914.38 10618.04,3914.38 "/>
  <g>
  </g>
  <g style="clip-path:url(#id9)">
   <g>
   </g>
  </g>
  <polygon class="fil5" points="10632.04,3918.49 10698.33,3918.49 10698.33,3898.18 10632.04,3898.18 "/>
  <polygon class="fil5" points="10632.04,3918.49 10698.33,3918.49 10698.33,3898.18 10632.04,3898.18 "/>
  <polygon class="fil5" points="10632.04,3918.49 10698.33,3918.49 10698.33,3898.18 10632.04,3898.18 "/>
  <polygon class="fil5" points="10632.04,3918.49 10698.33,3918.49 10698.33,3898.18 10632.04,3898.18 "/>
  <polygon class="fil5" points="10632.04,3918.49 10698.33,3918.49 10698.33,3898.18 10632.04,3898.18 "/>
  <polygon class="fil5" points="10632.04,3918.49 10698.33,3918.49 10698.33,3898.18 10632.04,3898.18 "/>
  <polygon class="fil5" points="10632.04,3918.49 10698.33,3918.49 10698.33,3898.18 10632.04,3898.18 "/>
  <polygon class="fil5" points="10632.04,3918.49 10698.33,3918.49 10698.33,3898.18 10632.04,3898.18 "/>
  <polygon class="fil5" points="10632.04,3918.49 10698.33,3918.49 10698.33,3898.18 10632.04,3898.18 "/>
  <g>
  </g>
  <g style="clip-path:url(#id10)">
   <g>
   </g>
  </g>
  <polygon class="fil5" points="10648.83,3902.08 10698.05,3902.08 10698.05,3883.62 10648.83,3883.62 "/>
  <polygon class="fil5" points="10648.83,3902.08 10698.05,3902.08 10698.05,3883.62 10648.83,3883.62 "/>
  <polygon class="fil5" points="10648.83,3902.08 10698.05,3902.08 10698.05,3883.62 10648.83,3883.62 "/>
  <polygon class="fil5" points="10648.83,3902.08 10698.05,3902.08 10698.05,3883.62 10648.83,3883.62 "/>
  <polygon class="fil5" points="10648.83,3902.08 10698.05,3902.08 10698.05,3883.62 10648.83,3883.62 "/>
  <polygon class="fil5" points="10648.83,3902.08 10698.05,3902.08 10698.05,3883.62 10648.83,3883.62 "/>
  <polygon class="fil5" points="10648.83,3902.08 10698.05,3902.08 10698.05,3883.62 10648.83,3883.62 "/>
  <polygon class="fil5" points="10648.83,3902.08 10698.05,3902.08 10698.05,3883.62 10648.83,3883.62 "/>
  <polygon class="fil5" points="10648.83,3902.08 10698.05,3902.08 10698.05,3883.62 10648.83,3883.62 "/>
  <g>
  </g>
  <g style="clip-path:url(#id11)">
   <g>
   </g>
  </g>
  <polygon class="fil5" points="10647.42,3887.67 10682.99,3887.67 10682.99,3867.35 10647.42,3867.35 "/>
  <polygon class="fil5" points="10647.42,3887.67 10682.99,3887.67 10682.99,3867.35 10647.42,3867.35 "/>
  <polygon class="fil5" points="10647.42,3887.67 10682.99,3887.67 10682.99,3867.35 10647.42,3867.35 "/>
  <polygon class="fil5" points="10647.42,3887.67 10682.99,3887.67 10682.99,3867.35 10647.42,3867.35 "/>
  <polygon class="fil5" points="10647.42,3887.67 10682.99,3887.67 10682.99,3867.35 10647.42,3867.35 "/>
  <polygon class="fil5" points="10647.42,3887.67 10682.99,3887.67 10682.99,3867.35 10647.42,3867.35 "/>
  <polygon class="fil5" points="10647.42,3887.67 10682.99,3887.67 10682.99,3867.35 10647.42,3867.35 "/>
  <polygon class="fil5" points="10647.42,3887.67 10682.99,3887.67 10682.99,3867.35 10647.42,3867.35 "/>
  <polygon class="fil5" points="10647.42,3887.67 10682.99,3887.67 10682.99,3867.35 10647.42,3867.35 "/>
  <g>
  </g>
  <g style="clip-path:url(#id12)">
   <g>
   </g>
  </g>
  <polygon class="fil5" points="10648.83,3871.31 10667.29,3871.31 10667.29,3852.85 10648.83,3852.85 "/>
  <polygon class="fil5" points="10648.83,3871.31 10667.29,3871.31 10667.29,3852.85 10648.83,3852.85 "/>
  <polygon class="fil5" points="10648.83,3871.31 10667.29,3871.31 10667.29,3852.85 10648.83,3852.85 "/>
  <polygon class="fil5" points="10648.83,3871.31 10667.29,3871.31 10667.29,3852.85 10648.83,3852.85 "/>
  <polygon class="fil5" points="10648.83,3871.31 10667.29,3871.31 10667.29,3852.85 10648.83,3852.85 "/>
  <polygon class="fil5" points="10648.83,3871.31 10667.29,3871.31 10667.29,3852.85 10648.83,3852.85 "/>
  <polygon class="fil5" points="10648.83,3871.31 10667.29,3871.31 10667.29,3852.85 10648.83,3852.85 "/>
  <polygon class="fil5" points="10648.83,3871.31 10667.29,3871.31 10667.29,3852.85 10648.83,3852.85 "/>
  <polygon class="fil5" points="10648.83,3871.31 10667.29,3871.31 10667.29,3852.85 10648.83,3852.85 "/>
  <g>
  </g>
  <g style="clip-path:url(#id13)">
   <g>
   </g>
  </g>
  <polygon class="fil5" points="10632.04,3856.79 10652.27,3856.79 10652.27,3821.05 10632.04,3821.05 "/>
  <polygon class="fil5" points="10632.04,3856.79 10652.27,3856.79 10652.27,3821.05 10632.04,3821.05 "/>
  <polygon class="fil5" points="10632.04,3856.79 10652.27,3856.79 10652.27,3821.05 10632.04,3821.05 "/>
  <polygon class="fil5" points="10632.04,3856.79 10652.27,3856.79 10652.27,3821.05 10632.04,3821.05 "/>
  <polygon class="fil5" points="10632.04,3856.79 10652.27,3856.79 10652.27,3821.05 10632.04,3821.05 "/>
  <polygon class="fil5" points="10632.04,3856.79 10652.27,3856.79 10652.27,3821.05 10632.04,3821.05 "/>
  <polygon class="fil5" points="10632.04,3856.79 10652.27,3856.79 10652.27,3821.05 10632.04,3821.05 "/>
  <polygon class="fil5" points="10632.04,3856.79 10652.27,3856.79 10652.27,3821.05 10632.04,3821.05 "/>
  <polygon class="fil5" points="10632.04,3856.79 10652.27,3856.79 10652.27,3821.05 10632.04,3821.05 "/>
  <g>
  </g>
  <g style="clip-path:url(#id14)">
   <g>
   </g>
  </g>
  <polygon class="fil5" points="10618.04,3825.14 10636.51,3825.14 10636.51,3806.67 10618.04,3806.67 "/>
  <polygon class="fil5" points="10618.04,3825.14 10636.51,3825.14 10636.51,3806.67 10618.04,3806.67 "/>
  <polygon class="fil5" points="10618.04,3825.14 10636.51,3825.14 10636.51,3806.67 10618.04,3806.67 "/>
  <polygon class="fil5" points="10618.04,3825.14 10636.51,3825.14 10636.51,3806.67 10618.04,3806.67 "/>
  <polygon class="fil5" points="10618.04,3825.14 10636.51,3825.14 10636.51,3806.67 10618.04,3806.67 "/>
  <polygon class="fil5" points="10618.04,3825.14 10636.51,3825.14 10636.51,3806.67 10618.04,3806.67 "/>
  <polygon class="fil5" points="10618.04,3825.14 10636.51,3825.14 10636.51,3806.67 10618.04,3806.67 "/>
  <polygon class="fil5" points="10618.04,3825.14 10636.51,3825.14 10636.51,3806.67 10618.04,3806.67 "/>
  <polygon class="fil5" points="10618.04,3825.14 10636.51,3825.14 10636.51,3806.67 10618.04,3806.67 "/>
  <path class="fil6" d="M7550.25 3818.96l474.87 12.24 1323.61 3203.04 1282.22 -3190.64 7.24 -9.95 -2.2 -3.05 0.02 -0.05 490.3 -11.59c326.48,-7.78 593.69,276.61 593.69,614.61l0 3236.7 -4763.5 0 0 -3236.73c0,-338.1 267.4,-622.88 593.84,-614.58l-0.02 0 -0.01 0 -0.01 0 0 0 -0.01 0 -0.01 0 -0.01 0 -0.01 0 -0.01 0z"/>
  <ellipse class="fil2 str0" cx="9328.16" cy="6064.97" rx="41.02" ry="46.17"/>
  <rect class="fil7" x="10641.22" y="6049.55" width="779.62" height="102.6"/>
  <polygon class="fil4" points="11238.32,5797.86 11051.55,5598.21 10641.24,6049.57 11400.34,6049.57 "/>
  <polygon class="fil8" points="9317.92,3987.64 8512.85,3639.87 8589.63,4490.31 9273.51,4121.89 "/>
  <polygon class="fil8" points="9249.46,3967.56 10067.51,3681.35 10025.73,4510.84 9207.19,4085.21 "/>
  <rect class="fil9" x="9188.01" y="3871.29" width="230.89" height="320.15"/>
  <polygon class="fil4 str1" points="7327.85,4398 8045.96,3433.7 8895.57,5995.44 8646.03,5774.91 "/>
  <polygon class="fil4 str1" points="7820.25,5311.18 8415.25,4685.21 9210.58,6852.5 8940.67,6570.27 "/>
  <g>
  </g>
  <g style="clip-path:url(#id15)">
   <g>
   </g>
  </g>
  <polygon class="fil5" points="10320.53,4173.17 10408.25,4173.17 10408.25,4152.88 10320.53,4152.88 "/>
  <polygon class="fil5" points="10320.53,4173.17 10408.25,4173.17 10408.25,4152.88 10320.53,4152.88 "/>
  <polygon class="fil5" points="10320.53,4173.17 10408.25,4173.17 10408.25,4152.88 10320.53,4152.88 "/>
  <polygon class="fil5" points="10320.53,4173.17 10408.25,4173.17 10408.25,4152.88 10320.53,4152.88 "/>
  <polygon class="fil5" points="10320.53,4173.17 10408.25,4173.17 10408.25,4152.88 10320.53,4152.88 "/>
  <polygon class="fil5" points="10320.53,4173.17 10408.25,4173.17 10408.25,4152.88 10320.53,4152.88 "/>
  <polygon class="fil5" points="10320.53,4173.17 10408.25,4173.17 10408.25,4152.88 10320.53,4152.88 "/>
  <polygon class="fil5" points="10320.53,4173.17 10408.25,4173.17 10408.25,4152.88 10320.53,4152.88 "/>
  <polygon class="fil5" points="10320.53,4173.17 10408.25,4173.17 10408.25,4152.88 10320.53,4152.88 "/>
  <g>
  </g>
  <g style="clip-path:url(#id16)">
   <g>
   </g>
  </g>
  <polygon class="fil5" points="10337.04,4157.74 10408.25,4157.74 10408.25,4122.01 10337.04,4122.01 "/>
  <polygon class="fil5" points="10337.04,4157.74 10408.25,4157.74 10408.25,4122.01 10337.04,4122.01 "/>
  <polygon class="fil5" points="10337.04,4157.74 10408.25,4157.74 10408.25,4122.01 10337.04,4122.01 "/>
  <polygon class="fil5" points="10337.04,4157.74 10408.25,4157.74 10408.25,4122.01 10337.04,4122.01 "/>
  <polygon class="fil5" points="10337.04,4157.74 10408.25,4157.74 10408.25,4122.01 10337.04,4122.01 "/>
  <polygon class="fil5" points="10337.04,4157.74 10408.25,4157.74 10408.25,4122.01 10337.04,4122.01 "/>
  <polygon class="fil5" points="10337.04,4157.74 10408.25,4157.74 10408.25,4122.01 10337.04,4122.01 "/>
  <polygon class="fil5" points="10337.04,4157.74 10408.25,4157.74 10408.25,4122.01 10337.04,4122.01 "/>
  <polygon class="fil5" points="10337.04,4157.74 10408.25,4157.74 10408.25,4122.01 10337.04,4122.01 "/>
  <g>
  </g>
  <g style="clip-path:url(#id17)">
   <g>
   </g>
  </g>
  <polygon class="fil5" points="10353.55,4126.93 10408.25,4126.93 10408.25,4106.62 10353.55,4106.62 "/>
  <polygon class="fil5" points="10353.55,4126.93 10408.25,4126.93 10408.25,4106.62 10353.55,4106.62 "/>
  <polygon class="fil5" points="10353.55,4126.93 10408.25,4126.93 10408.25,4106.62 10353.55,4106.62 "/>
  <polygon class="fil5" points="10353.55,4126.93 10408.25,4126.93 10408.25,4106.62 10353.55,4106.62 "/>
  <polygon class="fil5" points="10353.55,4126.93 10408.25,4126.93 10408.25,4106.62 10353.55,4106.62 "/>
  <polygon class="fil5" points="10353.55,4126.93 10408.25,4126.93 10408.25,4106.62 10353.55,4106.62 "/>
  <polygon class="fil5" points="10353.55,4126.93 10408.25,4126.93 10408.25,4106.62 10353.55,4106.62 "/>
  <polygon class="fil5" points="10353.55,4126.93 10408.25,4126.93 10408.25,4106.62 10353.55,4106.62 "/>
  <polygon class="fil5" points="10353.55,4126.93 10408.25,4126.93 10408.25,4106.62 10353.55,4106.62 "/>
  <ellipse class="fil2 str0" cx="9286.31" cy="4915.47" rx="44.09" ry="46.17"/>
  <path class="fil9" d="M9211.14 3871.28l203.48 0c12.32,0 22.29,7.37 22.29,16.46l0 167.67c0,9.08 -9.97,16.44 -22.29,16.44l-203.48 0c-12.31,0 -22.29,-7.36 -22.29,-16.44l0 -167.67c0,-9.09 9.98,-16.46 22.29,-16.46z"/>
  <polygon class="fil4 str1" points="11404.75,4347.42 10630.98,3474.76 9774.2,6025.19 10024.86,5784.98 "/>
  <polygon class="fil4 str1" points="10906.49,5400.76 10234.6,4699.43 9466.42,6870.08 9684.78,6678.57 "/>
  <ellipse class="fil2 str0" cx="9286.31" cy="5495.47" rx="44.09" ry="46.17"/>
  <rect class="fil6" x="6956.4" y="7521.13" width="4760.97" height="1182.24"/>
  <polygon class="fil10" points="3918.02,7073 4700.39,6019.42 5842.64,8908.93 5237.61,9399.19 "/>
  <path class="fil7" d="M4681.44 7578.75l0 45.19 97.94 0 0 248.61c-97.94,0 -97.94,-52.74 -150.67,45.2 -45.19,52.73 0,52.73 -97.94,105.46 -45.19,0 0,-52.74 -45.19,0l97.94 0 0 45.2c45.19,0 45.19,52.73 45.19,52.73 52.73,0 0,0 52.73,-52.73 0,0 52.74,0 52.74,-45.2 45.2,0 97.94,-52.74 97.94,-52.74 97.92,-97.93 143.12,-97.93 241.05,-97.93 0,-52.74 0,-52.74 52.74,-52.74l0 52.74 52.74 0 45.19 45.2 0 -45.2 52.74 0 0 45.2c-52.74,52.73 -97.93,105.46 -52.74,203.39 97.94,0 0,0 52.74,-52.74 45.2,52.74 0,0 0,52.74 0,97.93 45.2,45.19 45.2,150.66l-45.2 -52.73 0 -52.74c-150.67,-143.12 -203.4,0 -203.4,0l0 52.74c-45.2,52.73 -45.2,0 -45.2,52.73 0,45.2 0,45.2 45.2,45.2l798.53 1190.24c97.93,-52.73 248.59,-195.86 346.52,-248.59l693.05 0 444.48 -1340.91 -693.06 0c-346.54,-45.2 -444.47,0 -595.12,-143.13l-693.06 -693.07c-97.93,45.2 -497.19,346.54 -640.33,444.47l-52.74 52.74 0 0 0 0 -0.01 0.01z"/>
  <polygon class="fil11" points="4033.58,6041.95 7755,6041.95 7755,10494.07 4033.58,10494.07 "/>
  <g>
  </g>
  <g style="clip-path:url(#id18)">
   <g>
   </g>
  </g>
  <polygon class="fil5" points="7482.77,6033.32 7551.69,6033.32 7551.69,6016.17 7482.77,6016.17 "/>
  <polygon class="fil5" points="7482.77,6033.32 7551.69,6033.32 7551.69,6016.17 7482.77,6016.17 "/>
  <polygon class="fil5" points="7482.77,6033.32 7551.69,6033.32 7551.69,6016.17 7482.77,6016.17 "/>
  <polygon class="fil5" points="7482.77,6033.32 7551.69,6033.32 7551.69,6016.17 7482.77,6016.17 "/>
  <polygon class="fil5" points="7482.77,6033.32 7551.69,6033.32 7551.69,6016.17 7482.77,6016.17 "/>
  <polygon class="fil5" points="7482.77,6033.32 7551.69,6033.32 7551.69,6016.17 7482.77,6016.17 "/>
  <polygon class="fil5" points="7482.77,6033.32 7551.69,6033.32 7551.69,6016.17 7482.77,6016.17 "/>
  <polygon class="fil5" points="7482.77,6033.32 7551.69,6033.32 7551.69,6016.17 7482.77,6016.17 "/>
  <polygon class="fil5" points="7482.77,6033.32 7551.69,6033.32 7551.69,6016.17 7482.77,6016.17 "/>
  <g>
  </g>
  <g style="clip-path:url(#id19)">
   <g>
   </g>
  </g>
  <polygon class="fil5" points="7482.77,5994.26 7525.75,5994.26 7525.75,5977.11 7482.77,5977.11 "/>
  <polygon class="fil5" points="7482.77,5994.26 7525.75,5994.26 7525.75,5977.11 7482.77,5977.11 "/>
  <polygon class="fil5" points="7482.77,5994.26 7525.75,5994.26 7525.75,5977.11 7482.77,5977.11 "/>
  <polygon class="fil5" points="7482.77,5994.26 7525.75,5994.26 7525.75,5977.11 7482.77,5977.11 "/>
  <polygon class="fil5" points="7482.77,5994.26 7525.75,5994.26 7525.75,5977.11 7482.77,5977.11 "/>
  <polygon class="fil5" points="7482.77,5994.26 7525.75,5994.26 7525.75,5977.11 7482.77,5977.11 "/>
  <polygon class="fil5" points="7482.77,5994.26 7525.75,5994.26 7525.75,5977.11 7482.77,5977.11 "/>
  <polygon class="fil5" points="7482.77,5994.26 7525.75,5994.26 7525.75,5977.11 7482.77,5977.11 "/>
  <polygon class="fil5" points="7482.77,5994.26 7525.75,5994.26 7525.75,5977.11 7482.77,5977.11 "/>
  <polygon class="fil12" points="4184.23,6139.89 7649.54,6139.89 7649.54,10350.95 4184.23,10350.95 "/>
  <polygon class="fil4" points="4530.77,6388.48 7303,6388.48 7303,10049.6 4530.77,10049.6 "/>
  <polygon class="fil13" points="5027.97,6041.95 6813.34,6041.95 6813.34,6486.42 5027.97,6486.42 "/>
  <polygon class="fil14" points="6316.15,6041.95 6316.15,5891.3 5472.44,5891.3 5472.44,6041.95 5027.97,6041.95 5027.97,6087.16 6813.34,6087.16 6813.34,6041.95 "/>
  <polygon class="fil15" points="5027.97,7179.49 5223.83,6930.88 5321.77,6878.15 4975.24,7375.36 4832.1,7081.55 4930.03,7028.82 "/>
  <path class="fil15" d="M5427.23 7526.01l1529.24 0 0 195.87 -1529.24 0 0 -195.87zm0 497.2l1529.24 0 0 195.86 -1529.24 0 0 -195.86zm0 489.63l1529.24 0 0 203.4 -1529.24 0 0 -203.4zm0 497.19l1529.24 0 0 195.87 -1529.24 0 0 -195.87zm0 497.18l1529.24 0 0 195.87 -1529.24 0 0 -195.87zm0 -2478.39l1529.24 0 0 195.86 -1529.24 0 0 -195.86z"/>
  <polygon class="fil15" points="5027.97,7661.62 5223.83,7413.02 5321.77,7360.28 4975.24,7857.49 4832.1,7563.69 4930.03,7510.95 "/>
  <polygon class="fil15" points="5027.97,8136.21 5223.83,7887.62 5321.77,7842.41 4975.24,8339.58 4832.1,8038.27 4930.03,7993.08 "/>
  <polygon class="fil15" points="5027.97,8618.3 5223.83,8369.71 5321.77,8324.53 4975.24,8814.17 4832.1,8520.38 4930.03,8467.65 "/>
  <polygon class="fil15" points="5027.97,9100.43 5223.83,8851.85 5321.77,8799.11 4975.24,9296.3 4832.1,9002.5 4930.03,8949.77 "/>
  <polygon class="fil15" points="5027.97,9582.55 5223.83,9333.97 5321.77,9281.24 4975.24,9778.41 4832.1,9484.62 4930.03,9431.89 "/>
  <path class="fil16" d="M2101.5 8871.37c-24.93,6.59 -38.89,34 -22.1,58.76 14.18,20.9 31.97,25.45 30.79,63.7 -2.19,72.99 -122.15,125.08 -43.54,290.57 11.25,23.72 20.86,43.18 34.03,60.99 13.58,18.36 25.84,45.25 59.8,37.91 24.25,-5.25 35.28,-35.26 21.25,-58.52 -28.44,-47.13 -96.81,-128.28 -43.14,-207.3 25.79,-37.98 56.1,-76.07 49.56,-142.17 -4.09,-41.3 -42.32,-115.63 -86.65,-103.94z"/>
  <path class="fil16" d="M2257.21 8718.18c-17.75,7.28 -15.95,6.37 -28.27,20.76 -43.94,51.41 -49.16,121.1 -15.87,182.25 30.07,55.25 86.33,85.18 16.04,208.99 -7.7,13.54 -34.41,47.01 -36.55,59.75 -5.25,31.1 22.23,53.06 52.71,43.5 27.25,-8.55 132.44,-161.15 82.53,-276.84 -16.02,-37.1 -66.96,-82.88 -55.04,-135.14 7.43,-32.56 32.27,-37.58 35.71,-62.1 4.38,-30.98 -22.49,-52.98 -51.26,-41.17z"/>
  <path class="fil16" d="M2994.61 10289.51c7.69,-24.78 23.6,-62 33.44,-89.15 35.17,-97.05 70.05,-299.79 72.24,-305.37 32.97,-5.53 208.47,-1.66 265.94,-1.73 37.83,-0.06 48.32,-4.9 71.89,13.76 3.13,32.27 -47.37,119.39 -63.87,142.01 -61.08,83.82 -115.97,149.86 -219.95,196.26 -32.59,14.56 -118.8,49.36 -159.69,44.22zm-1794.44 624.98l0 26.58c18.49,17.55 10.79,25.66 61.59,25.78l1653.55 -0.08c202.97,0 256.13,24 203.56,-103.87 -16.41,-39.9 -51.36,-65.38 -107.08,-65.36 -155.35,0.02 -387.73,6.38 -525.96,-0.6 3.63,-3.76 1.42,-2.32 7.32,-6.02 3.35,-2.09 6.46,-3.44 10.81,-5.21 6.99,-2.85 14.22,-5.33 22.42,-8.4 98.41,-36.89 184.16,-97.23 257.38,-166.3 33.36,-31.45 78.87,-85.57 109.59,-133.33 26.82,-41.73 15.67,-44.79 68.74,-48.85 39.57,-3.03 72.91,-6.44 109.89,-14.72 179.09,-40.12 338.42,-158.18 422.86,-305.9 26.28,-46 41.04,-69.47 61.72,-119.58 6.18,-14.99 9.94,-32.53 17.82,-45l0 -50.27c-15.07,-28.83 -26.82,-128.34 -161.72,-133.78 -95.36,-3.85 -200.57,-0.88 -296.76,-0.22 -4.18,-33.2 7.49,-95.18 -0.84,-122.12 -10.84,-34.95 -53.75,-29.29 -91.82,-29.29l-1699.72 0c-41.97,0 -84.26,-6.11 -97.53,27.12 -6.75,16.86 -1.06,90.31 0.25,113.24 14.38,249.42 92.69,538.74 235.72,736.37 71.13,98.28 148.3,170.08 252.15,233.55 56.3,34.4 156.63,68.74 166.52,78.89 -131.64,4.52 -270.51,0.48 -402.94,0.48 -38.96,0 -167.7,-5.29 -193.97,5.42 -69.31,28.21 -63.28,80.03 -83.55,111.47z"/>
  <path class="fil17" d="M2110.57 5978.84c11.8,15.65 14.63,32.02 23.87,40.3 17.27,15.49 22.4,6.81 44.92,18.74 -32.89,48.98 -10.13,22.45 -13.24,76.78l-41.91 -25.18 -54.12 29.32 7.22 -54.39 -29.1 -26.53c73.57,-30.64 23.47,15.63 62.36,-59.04zm-162.05 -83.84c-11.72,-15.54 -25.48,-34.25 -33.86,-51.01l33.09 -12.46c25.6,27.55 43.52,64.85 46.11,112.26 -25.81,-13.37 -25.45,-22.42 -45.34,-48.79zm301.07 59.97c-21.7,-34.13 -3.71,-35.11 15.73,-60.86 21.09,-27.96 15.47,-43.99 28.83,-69.17l28.32 7.92c-7.05,33.78 -49.71,98.26 -72.88,122.11zm-809.69 708.92c-20.9,-22.51 -21.95,-32.95 -45.45,-45.02 -45.53,118.33 -166.08,121.99 -118.27,-39.47 -34.69,-38.77 -74.35,-76.01 -34.17,-155.64 27.74,-54.99 57.27,-56.42 117.1,-85.14 -31.55,-35.66 -221.1,-55.38 -272.34,-105.43 43.66,-22.89 50.11,0.07 67.26,-34.75l-233.94 -93.83 69.5 -22.34c-9.91,-26.25 -12.36,-24.08 -43.59,-36.18l-161.71 -70.36c24.08,-20.1 45.34,-3.36 79.88,-26.63 -12.41,-25.06 5.12,-8.55 -26.27,-27.25 -41.15,-24.51 -184.69,-69.55 -228.99,-114.08 48.7,2.88 110.71,26.56 155.62,-0.7 2.89,-41.33 -19.46,-42.66 -52.5,-60.28 -25.24,-13.47 -48.34,-27.72 -73.63,-42.18 -37.86,-21.66 -104.82,-63.26 -124.7,-96.14 231.85,106.44 324.84,157.62 631.39,107.57 100.81,-16.46 257.5,-55.6 358.82,-43.47 99.68,11.94 228.92,76.74 255.16,134.5 -114.68,121.7 -246.61,268.67 -222.52,484.44l98.62 -31.76c8.69,-99.64 13.1,-159.34 58.02,-236.96 36.54,-63.14 78.93,-113.56 139.15,-144.55 40.59,18.48 60.25,57.36 86.44,99.9 38.01,61.71 38.36,59.34 16.75,136.29 -19.26,68.57 -69.94,226.66 -71.93,291.65 20.22,9.4 16.73,6.84 30.89,22.3 92.37,-21.45 107.77,-143.61 137.01,-173.63 61.73,-63.35 159.97,-46.75 182.9,41.67 36,-1.06 20.56,-4.69 52.17,-8.94 23.87,52.1 27.2,98.6 86.42,59 9.22,-47.49 -56.93,-211.08 -73.88,-268.28 -16.2,-54.73 48.37,-146.89 85.08,-192.04l18.56 -18.71c123.37,73.61 197.27,224.64 219.59,371.14l90.08 -23.16c-4.71,-201.06 -142.07,-347.77 -236.82,-426.34 16.33,-25.74 70.84,-68.95 103.84,-89.69 139.07,-87.37 347.75,-56.69 499.78,-36.73 364.98,47.92 489.82,-110.47 610.23,-149.8 -24.93,44.3 -73.86,79.33 -125.09,115.27 -41.38,29.04 -118.48,61 -119.47,115.79 29.16,7.36 150.9,-32.25 185.05,-42.62 -22.82,44.78 -239.12,125.61 -256.74,185.66 23.97,8.53 24.18,3.93 48.51,3.44l45.34 6.31c-34.2,20.77 -72.45,41.04 -112.99,62.59 -64.2,34.12 -89.25,38.1 -101.4,73.27l57.43 14.18c-7.78,6.94 2.98,-0.54 -15.66,12.41l-34.36 19.27c-67.2,33.14 -143.03,50.98 -156.83,83.73 29.83,18.69 31.34,7.04 59.35,17.76 -62.47,53.54 -240.8,91.83 -285.52,118.33 13.49,48.48 93.26,44.67 113.21,130.22 -25.33,51.9 -68.22,59.46 -64.63,135.04l104.37 21.57 -8.42 56.85 -14.56 -55.95 -90.47 1.9 -16.91 -48.71c-12.6,48.64 -34.09,45.2 -27.98,104.06 70.43,19.42 72.36,-29.07 107.76,1.11l-91.55 39.3c37.32,30.38 61.63,-13.49 95.5,3.87 -52.25,19.27 -58.72,18.26 -120.12,18.61 -59.07,0.32 -48.04,26.67 -114.25,40.63 -80.02,15.5 -146.46,-27.88 -202.84,-21.45 -30.23,3.43 -118.43,68.18 -140.45,92.46 36.52,18.36 124.34,63.03 172.13,52.67 -2.13,-35.36 -9.19,-26.61 -23.94,-54.25 61.53,13.75 74.57,38.03 151.34,30.74 -8.4,-43.19 -12.15,-17.88 -29.75,-56.88 59.93,14.45 65.56,38.01 135.62,36.6 17.12,-19.55 8.42,-25.55 17.75,-44.36 36.1,20.06 65.34,30.82 103.66,8.74 -7.03,-37.12 -9.36,-11.63 -34.64,-46.7 56.08,13.83 104.81,36.86 170.85,28.77 -13.32,-47.25 -51.28,-21.98 -80.28,-76.36 62.89,-2.08 148.49,7.34 169.04,-46.31 -54.25,-30.85 -138.4,-38.77 -118.58,-118.67 47.8,-22.51 67.48,7.85 108.74,18.98 12.64,-58.32 -36.88,-122.07 -60.97,-149.34 -46.87,-53.1 -75.24,-49.57 -123.43,-87.48 112.5,-49.87 203.33,-81.84 310.5,-158.74 -18.98,-19.22 1.9,-6.45 -27.85,-13.49 -0.53,-0.13 -29.02,-0.57 -32.95,-0.72 64.51,-33.91 203.62,-98.52 236.51,-147.47 -35.13,-15.76 -54.42,9.72 -85.38,1.78 47.1,-39.05 127.69,-78.16 177.79,-114.65 28.51,-20.76 39.1,-30.54 41.13,-51.74l-95.3 19.34c71.32,-60.86 254.42,-158.37 257.31,-254.36 -115.03,26.27 -108.9,72.93 -226.18,114.7 24.69,-82.15 320.37,-183.67 299.98,-314.51 -39.43,-0.41 -159.33,90.84 -195.16,115.78 -276.59,192.45 -542.33,94.09 -787.51,79.31 -367.66,-22.19 -359.34,184.73 -466.8,145.88 -139.61,-50.46 -250.99,-68.32 -406.46,-12.96 -38,13.53 -73.87,35.89 -110.56,43.46 -94.17,-67.73 -165.42,-135.94 -328.11,-144.72 -131.77,-7.11 -278.48,34.94 -404.41,55.73 -435.88,72 -624.4,-197.46 -712.25,-177.73 -10.44,48.41 15.76,66.7 41.41,95.77 116,131.4 103.8,95.84 222.43,173.86 -75.3,-9.15 -149.74,-90.94 -189.64,-62.68 -7.78,92.36 263.95,204.41 293.54,223.14 -30.65,-1.93 -33.01,-5.52 -61.35,-13.99l-41.42 -5.09c-1.63,0.14 -5.87,3.97 -7.05,1.7 -1.21,-2.3 -4.85,1.1 -7.11,2.08 23.37,71.72 163.11,102.06 227.5,152.12l-82.26 -13.24c20.53,52.19 187.5,117.27 243.8,135.84l-44.73 10.89c-2.05,0.67 -5.12,2.18 -6.74,2.79l-12.42 7.05c56.62,44.72 83.83,44.12 144.97,72.91 65.73,30.95 -3.3,32.33 147.46,66.88 -23.69,49.88 -156.99,138.47 -137.61,215.58 14.02,5.4 -16.3,6.25 20.11,2.88 1.77,-0.16 4.5,-0.48 6.29,-0.86 25.91,-5.59 5.77,-4.93 29,-15.41 68.09,-30.72 90.19,33.51 37.83,81.93 -32.58,30.15 -56.76,15.83 -94.99,29.5 12.16,59.01 106.27,62.82 172.5,52.5 -7.38,23.04 -17.26,25.54 -44.72,40.15 -27.88,14.81 -32.41,11.25 -48.24,35.15 37.92,25.03 101.95,27.96 156.82,22.4 23.76,-35.17 5.42,-51.38 36.27,-90.62 25.08,-31.89 42.61,-27.88 50.68,-58.15z"/>
  <path class="fil17" d="M1450.47 6499.51c13.29,-32.73 22.56,-48.71 53.73,-60.21 0.8,31.16 -6.27,83.43 -28.52,105.39l-25.21 -45.18zm534.92 88.49c-57.48,-36.02 -19.13,-156.63 8.15,-175.91 36.74,-25.96 12.65,21.06 71.21,-25.92 26.2,-21.02 41.48,-38.76 80.86,-22.93 11.83,62.95 -42.4,35.99 35.82,115.65 26.04,26.51 80.18,66.66 26.11,113.93 -79.17,16.73 -52.19,-61.95 -48.1,-112.62 -33.65,1.36 -41.08,15.33 -58.14,29.77 2.14,-38.32 19.09,-137.3 -42.77,-95.17 -0.29,42.9 -4.2,-1.79 11.43,25.22 41.47,71.64 -34.99,172.02 -84.57,147.98zm-535.82 74.67l27.59 -0.47c92.06,-70.75 162.66,-28.88 182.42,-41.48 23.73,-33.69 8.17,-28.98 40.83,-57.49 32.29,-28.16 28.3,-20.48 30.69,-78.51 -79.84,23.68 -67.85,115.17 -144.63,101.92 -2.41,-26.71 4.41,-63.09 21.45,-81.51 39.65,-42.84 21.25,8.96 62.4,-14.5 -14.31,-49.93 -46.84,-18.64 -74.9,-8.88 4.28,-37.81 16.79,-56.06 48.11,-64.47 48.15,-12.93 31.28,10.61 69.02,33.34 29.08,-104.72 -103.9,-65.87 -135.73,-2.34 -29.46,58.8 -14.12,166.71 -69.3,171.87 -23.49,-79.57 9.97,-190.62 66.3,-219.12 63.77,-32.26 180.65,-46.49 196.15,33.93l11.29 -15.06c1.42,-1.21 3.36,-3.24 5.02,-4.31 3.71,-2.39 -4.38,-5.16 19.77,-7.31 81.3,-7.21 48.32,98.94 47.29,103.87l-51.45 5.11c9.51,93.16 61.59,81.83 89.75,124.29 -32.44,19.08 -76.64,30.81 -110.52,46.55 -63.8,29.64 -277.52,160.31 -329.97,129.73 -68.43,-82.91 19.98,-116.76 58.33,-155.97l-32.2 8.58c-9.83,20.51 -53.6,28.8 -75.65,73.97 -18.33,37.54 -12.84,85.69 16.08,107.65 58.71,44.6 176.37,-36.18 216.78,-61.95 87.11,-55.58 322.61,-218.89 416.73,-94.51 -3.71,49.25 -26.07,39.44 -27.3,95.08l-9 -47.95c-92.3,-25.25 -170.93,-101.67 -241.7,-12.4 65,97.15 359.96,170.05 580.18,76.86 82.94,-35.11 115.93,-48.26 144.83,-105.51l159.77 32.34c63.56,4.71 90.79,4.91 139.06,-15.02 18.1,-67.77 -6.45,-181.73 44.05,-207.41 21.01,-10.68 28.61,-12.35 56.94,18.41 6.57,-60.84 19.46,-53.09 55.41,-77.79 0.39,-38.34 -7.37,-45.16 -20.51,-67.78 -41.88,32.87 -10.63,92.91 -79.18,87.84 -22.41,-73.55 47.08,-49.25 28.71,-129.12 -31.54,16.07 -7.23,2.5 -29.35,23.24 -21.66,62.71 -37.74,49.99 -60,100.24 -28.86,65.13 19.98,258.14 -219.89,232.48 -113.88,-12.18 -154.32,-22.25 -267.6,6.9 -65.04,16.75 -190.09,77.49 -233.35,61.13 9.89,-47.24 17.78,-16.5 40.91,-54.57 -18.48,-43.96 -38.55,-36.54 -73.44,-62.14l65.74 -42.06 17.43 43.67c3.35,-0.07 103.18,-32.8 109.29,-36.72 31.73,-20.24 32.72,-64.29 11.05,-100.19 -9.99,-16.57 -141.47,-182.94 2.88,-153.97l-5.33 64.89c46.98,-1.26 595.56,-296.48 582.24,-88.95 -67.98,61.91 -80.35,-8.43 -122.1,-31.24 -41.58,-22.71 -121.74,6.59 -163.06,20.83 -69.27,23.9 -230.2,95.04 -268.33,137.31 21.15,41.48 47.86,41.59 19.08,118.71 -24.24,64.91 -39.3,62.43 -118.12,58.26 12.3,73.83 77.18,62.61 107.25,11.01 33.86,-58.1 27.89,-123.17 51.71,-164.63 1.61,1.65 3.77,2.13 4.28,5.42 0.52,3.27 3.31,4.21 3.95,5.62 12.98,28.84 6.67,20.28 11.39,71.46 3.2,34.57 3.75,51.24 24.77,71.22 33.36,-31.59 36.31,-70.72 70.44,-103.44l-6.21 116.33c71.14,5.36 53.43,-51.93 51.11,-101.59 -3.27,-69.82 41.51,-98.41 -8.81,-135.29 -46.41,33.52 -31.32,100.34 -87.62,107.8 -36.18,-94.16 5.12,-113.61 69.26,-150.16 57.21,-32.6 113.38,-66.5 190.11,-45.63 41.49,89.96 -4.35,236.86 -35.26,327.5 138.92,39.02 40.61,-166.61 85.87,-228.11 36.29,-27.58 61.36,-16.1 109.33,-17.89l36.35 -40.7c-10.39,-74.12 -10.64,-109.79 -92.64,-119.34 -60.24,-7.01 -127.74,7.54 -181.7,22.97 -118.82,33.97 -196.08,91.89 -294.99,124.21 2.73,-33.84 0.04,-53.37 -11.06,-75.96 -63.95,-8.36 -44.61,8.39 -83.86,14.61 -44.34,7.03 -18.92,-19.25 -71.99,-2.36 -51.31,16.34 -22.4,42.17 -81.14,32.16 -51.63,-8.8 -106.16,81.73 -116.52,109.09 -23.51,62.02 -6.35,104.31 21.46,141.14 103.02,11.38 122.46,-30.62 163.04,-90.62l-1.98 62.57c-43.58,25.16 -71.57,65.54 -147.8,52.74 -61.43,-10.32 -97.77,-37.88 -98.75,-106.08 27.76,-21.63 54.19,-29.32 42.84,-76.6 -5.92,-24.59 -35.7,-55.03 -57.43,-69.22 -46.87,-30.62 -153.54,-30.93 -217.06,-29.52 -196.91,4.34 -146.88,107.57 -225.4,144.55 -80.67,38.01 -121.54,6.63 -66.79,-57.68 64.72,-76.01 66.58,16.55 181.33,-75.58 136.23,-109.36 208.31,-18.35 271.09,-40.14 3.7,-53.58 -41.75,-51.44 -97.52,-45.03 -98.46,11.32 -135.42,37.5 -203.98,80.83 -77.76,49.16 -64.64,10.98 -80.27,-7.82 -166,18.81 -182.56,204.96 -89.17,202.4 31.88,-0.87 45.55,-27.53 94.11,-37.54 -13.62,67.51 -32.69,117.99 -91.63,66.41 -11.57,20.65 -30.01,40.67 -23.82,69.22 45.87,82.64 132.95,-101.04 144.6,-123.75 63.53,57.93 -13.7,67.45 18.15,127.12z"/>
  <path class="fil17" d="M1575.07 6860.59c36.68,-0.89 54.46,-5.28 85.29,-10.17 56.23,-8.95 32.18,15.08 65.94,21.75 31.32,6.2 110.98,-42.41 128.33,-58.69 -108.6,-78.53 -101.4,-74.21 -142.94,-53.68 -31.57,15.61 -53.41,28.41 -80.57,44.25 -23.73,13.83 -53.95,23.26 -56.05,56.54z"/>
  <path class="fil17" d="M2538.94 6428.48c9.02,77.57 18.27,52.79 -3.82,134.73 -15.41,57.15 -38.98,111.79 40.28,94.59 3.07,-7.75 37.83,-256.68 36.74,-271.4 -36.77,8.83 -49.39,19.27 -73.2,42.08z"/>
  <path class="fil17" d="M1914.66 5843.99c8.38,16.76 22.14,35.47 33.86,51.01 19.89,26.37 19.53,35.42 45.34,48.79 -2.59,-47.41 -20.51,-84.71 -46.11,-112.26l-33.09 12.46z"/>
  <path class="fil17" d="M2249.59 5954.97c23.17,-23.85 65.83,-88.33 72.88,-122.11l-28.32 -7.92c-13.36,25.18 -7.74,41.21 -28.83,69.17 -19.44,25.75 -37.43,26.73 -15.73,60.86z"/>
  <path class="fil17" d="M1450.47 6499.51l25.21 45.18c22.25,-21.96 29.32,-74.23 28.52,-105.39 -31.17,11.5 -40.44,27.48 -53.73,60.21z"/>
  <path class="fil16" d="M9468.18 8871.37c-24.93,6.59 -38.89,34 -22.1,58.76 14.18,20.9 31.97,25.45 30.79,63.7 -2.19,72.99 -122.15,125.08 -43.54,290.57 11.25,23.72 20.86,43.18 34.03,60.99 13.58,18.36 25.84,45.25 59.8,37.91 24.25,-5.25 35.28,-35.26 21.25,-58.52 -28.44,-47.13 -96.81,-128.28 -43.14,-207.3 25.79,-37.98 56.1,-76.07 49.56,-142.17 -4.09,-41.3 -42.32,-115.63 -86.65,-103.94z"/>
  <path class="fil16" d="M9623.89 8718.18c-17.75,7.28 -15.95,6.37 -28.27,20.76 -43.94,51.41 -49.16,121.1 -15.87,182.25 30.07,55.25 86.33,85.18 16.04,208.99 -7.7,13.54 -34.41,47.01 -36.55,59.75 -5.25,31.1 22.23,53.06 52.71,43.5 27.25,-8.55 132.44,-161.15 82.53,-276.84 -16.02,-37.1 -66.96,-82.88 -55.04,-135.14 7.43,-32.56 32.27,-37.58 35.71,-62.1 4.38,-30.98 -22.49,-52.98 -51.26,-41.17z"/>
  <path class="fil16" d="M10361.3 10289.51c7.69,-24.78 23.6,-62 33.44,-89.15 35.17,-97.05 70.05,-299.79 72.24,-305.37 32.97,-5.53 208.47,-1.66 265.94,-1.73 37.83,-0.06 48.32,-4.9 71.89,13.76 3.13,32.27 -47.37,119.39 -63.87,142.01 -61.08,83.82 -115.97,149.86 -219.95,196.26 -32.59,14.56 -118.8,49.36 -159.69,44.22zm-1794.44 624.98l0 26.58c18.49,17.55 10.79,25.66 61.59,25.78l1653.55 -0.08c202.97,0 256.13,24 203.56,-103.87 -16.41,-39.9 -51.36,-65.38 -107.08,-65.36 -155.35,0.02 -387.73,6.38 -525.96,-0.6 3.63,-3.76 1.42,-2.32 7.32,-6.02 3.35,-2.09 6.46,-3.44 10.81,-5.21 6.99,-2.85 14.22,-5.33 22.42,-8.4 98.41,-36.89 184.16,-97.23 257.38,-166.3 33.36,-31.45 78.87,-85.57 109.59,-133.33 26.82,-41.73 15.67,-44.79 68.74,-48.85 39.57,-3.03 72.91,-6.44 109.89,-14.72 179.09,-40.12 338.42,-158.18 422.86,-305.9 26.28,-46 41.04,-69.47 61.72,-119.58 6.18,-14.99 9.94,-32.53 17.82,-45l0 -50.27c-15.07,-28.83 -26.82,-128.34 -161.72,-133.78 -95.36,-3.85 -200.57,-0.88 -296.76,-0.22 -4.18,-33.2 7.49,-95.18 -0.84,-122.12 -10.84,-34.95 -53.75,-29.29 -91.82,-29.29l-1699.72 0c-41.97,0 -84.26,-6.11 -97.53,27.12 -6.75,16.86 -1.06,90.31 0.25,113.24 14.38,249.42 92.69,538.74 235.72,736.37 71.13,98.28 148.3,170.08 252.15,233.55 56.3,34.4 156.63,68.74 166.52,78.89 -131.64,4.52 -270.51,0.48 -402.94,0.48 -38.96,0 -167.7,-5.29 -193.97,5.42 -69.31,28.21 -63.28,80.03 -83.55,111.47z"/>
 </g>
</svg>
