<?xml version="1.0" encoding="UTF-8"?>
<!DOCTYPE svg PUBLIC "-//W3C//DTD SVG 1.1//EN" "http://www.w3.org/Graphics/SVG/1.1/DTD/svg11.dtd">
<!-- Creator: CorelDRAW 2017 -->
<svg xmlns="http://www.w3.org/2000/svg" xml:space="preserve" width="118.533mm" height="118.533mm" version="1.1" style="shape-rendering:geometricPrecision; text-rendering:geometricPrecision; image-rendering:optimizeQuality; fill-rule:evenodd; clip-rule:evenodd"
viewBox="0 0 11853.32 11853.32"
 xmlns:xlink="http://www.w3.org/1999/xlink">
 <defs>
  <style type="text/css">
   <![CDATA[
    .str0 {stroke:black;stroke-width:62.48;stroke-miterlimit:22.9256}
    .fil1 {fill:none}
    .fil6 {fill:black}
    .fil5 {fill:#1A1A1A}
    .fil10 {fill:#2B2A29}
    .fil4 {fill:#58351B}
    .fil19 {fill:#58595B}
    .fil0 {fill:#660066}
    .fil7 {fill:#666666}
    .fil18 {fill:#939598}
    .fil17 {fill:#BCBDC0}
    .fil16 {fill:#BD0006}
    .fil20 {fill:#D1D3D4}
    .fil12 {fill:#D40B0B}
    .fil2 {fill:#E81515}
    .fil3 {fill:#FCD5A6}
    .fil15 {fill:#FEFEFE}
    .fil21 {fill:red}
    .fil8 {fill:white}
    .fil14 {fill:#AE4A84;fill-rule:nonzero}
    .fil11 {fill:#D40B0B;fill-rule:nonzero}
    .fil9 {fill:url(#id0)}
    .fil13 {fill:url(#id1)}
   ]]>
  </style>
  <radialGradient id="id0" gradientUnits="userSpaceOnUse" gradientTransform="matrix(0.999996 -0 -0 1.02215 0 -128)" cx="9099.87" cy="5761.35" r="1049.74" fx="9099.87" fy="5761.35">
   <stop offset="0" style="stop-opacity:1; stop-color:#F71111"/>
   <stop offset="0.811765" style="stop-opacity:1; stop-color:#E50E0E"/>
   <stop offset="1" style="stop-opacity:1; stop-color:#D40B0B"/>
  </radialGradient>
  <radialGradient id="id1" gradientUnits="userSpaceOnUse" gradientTransform="matrix(0.999996 -0 -0 0.86178 0 289)" cx="2260.05" cy="2089.24" r="1868.92" fx="2260.05" fy="2089.24">
   <stop offset="0" style="stop-opacity:1; stop-color:#50241A"/>
   <stop offset="1" style="stop-opacity:1; stop-color:#6B231C"/>
  </radialGradient>
 </defs>
 <g id="Слой_x0020_1">
  <metadata id="CorelCorpID_0Corel-Layer"/>
  <path class="fil0" d="M757.79 5722.19l482.97 0 1011.63 1377.12 1024.68 -1377.12 509.08 0c306.75,0 561.29,274.12 561.29,620.03l0 3583.12c0,345.91 -254.54,620.02 -561.29,620.02l-3028.36 0c-313.28,0 -561.29,-274.11 -561.29,-620.02l0 -3583.12c0,-345.91 248.01,-620.03 561.29,-620.03z"/>
  <polygon class="fil0" points="3309.7,7379.95 4288.7,6061.57 5718.03,9677.32 4960.94,10290.82 "/>
  <path class="fil1" d="M5913.83 9703.43l698.35 0 -6500.52 0m5776.07 0l757.09 0 -6533.16 0m5776.07 0l783.19 0 -6559.26 0m5776.07 0l809.29 0 -6585.36 0m5749.95 0l0 -26.11 868.04 0 0 26.11 -868.04 0m0 -26.11l894.15 0 -6644.11 0m5749.96 0l920.26 0 -6670.21 0m5717.32 0l978.99 0 -6696.32 0m5717.33 0l0 -26.1 1011.63 0 0 26.1 -1011.63 0m0 -26.1l1011.63 0 -6728.95 0m5691.22 0l1037.73 0 -6728.95 0m5691.22 0l1037.73 0 -6728.95 0m5691.22 0l1037.73 0 -6728.95 0m5665.11 0l0 -32.63 1063.83 0 0 32.63 -1063.83 0"/>
  <path class="fil1" d="M5326.43 11556.99l0 -32.63 1514.18 0 0 32.63 -1514.18 0m0 -32.63l1514.18 0 -6728.95 0m5214.77 0l1514.18 0 -6728.95 0m5182.14 0l1546.81 0 -6728.95 0m5182.14 0l1546.81 0 -6728.95 0m5182.14 0l0 -26.1 1546.81 0 0 26.1 -1546.81 0m-26.11 -26.11l1572.91 0 -6728.95 0m5156.04 0l1572.91 0 -6728.95 0m5129.94 0l1599.02 0 -6728.95 0m5129.93 0l1599.02 0 -6728.95 0m5129.93 0l0 -26.1 1599.02 0 0 26.1 -1599.02 0m-26.11 -26.1l1625.13 0 -6728.95 0m5103.82 0l1625.13 0 -6728.95 0m5103.82 0l1625.13 0 -6728.95 0m5071.18 0l1657.76 0 -6728.95 0m5071.19 0l0 -32.63 1657.76 0 0 32.63 -1657.76 0m0 -32.63l1657.76 0 -6728.95 0m5045.09 0l1683.87 0 -6728.95 0m5045.08 0l1683.87 0 -6728.95 0m5018.98 0l1709.97 0 -6728.95 0m5018.98 0l0 -26.11 1709.97 0 0 26.11 -1709.97 0m0 -26.12l1709.97 0 -6728.95 0m4986.34 0l1742.6 0 -6728.95 0m4986.35 0l1742.6 0 -6728.95 0m4986.35 0l1742.6 0 -6728.95 0m4960.24 0l0 -26.1 1768.72 0 0 26.1 -1768.72 0m0 -26.1l1768.72 0 -6728.95 0m4934.13 0l1794.82 0 -6728.95 0m4934.13 0l1794.82 0 -6728.95 0m4934.13 0l1794.82 0 -6728.95 0m4908.02 0l0 -26.1 1820.92 0 0 26.1 -1820.92 0m0 -26.1l1820.92 0 -6728.95 0m4908.03 0l1820.92 0 -6728.95 0m4908.03 0l0 -32.64 1820.92 0 0 32.64 -1820.92 0m0 -32.64l1820.92 0 -6728.95 0m4908.03 0l1820.92 0 -6728.95 0m4908.03 0l1820.92 0 -6728.95 0m4934.14 0l0 -26.11 1794.82 0 0 26.11 -1794.82 0"/>
  <path class="fil1" d="M5045.79 11328.56l0 -26.11 1794.82 0 0 26.11 -1794.82 0m0 -26.11l1794.82 0 -6728.95 0m4934.13 0l1794.82 0 -6728.95 0m4934.13 0l0 -26.1 1794.82 0 0 26.1 -1794.82 0"/>
  <path class="fil1" d="M5071.89 11302.45l0 -26.1 1768.72 0 0 26.1 -1768.72 0m0 -26.1l1768.72 0 -6728.95 0m4960.23 0l1768.72 0 -6728.95 0m4960.23 0l0 -32.63 1768.72 0 0 32.63 -1768.72 0m0 -32.64l1768.72 0 -6728.95 0m4986.34 0l1742.6 0 -6728.95 0m4986.35 0l1742.6 0 -6728.95 0m4986.35 0l0 -26.1 1742.6 0 0 26.1 -1742.6 0m0 -26.1l1742.6 0 -6728.95 0m4986.35 0l1742.6 0 -6728.95 0m5018.99 0l1709.97 0 -6728.95 0m5018.98 0l0 -26.11 1709.97 0 0 26.11 -1709.97 0m0 -26.11l1709.97 0 -6728.95 0m5018.98 0l1709.97 0 -6728.95 0m5018.98 0l1709.97 0 -6728.95 0m5045.08 0l0 -26.1 1683.87 0 0 26.1 -1683.87 0m0 -26.11l1683.87 0 -6728.95 0m5045.08 0l1683.87 0 -6728.95 0m5045.08 0l1683.87 0 -6728.95 0m5045.08 0l0 -32.63 1683.87 0 0 32.63 -1683.87 0m26.1 -32.63l1657.76 0 -6728.95 0m5071.19 0l1657.76 0 -6728.95 0m5071.19 0l0 -26.1 1657.76 0 0 26.1 -1657.76 0m0 -26.1l1657.76 0 -6728.95 0m5071.19 0l1657.76 0 -6728.95 0m5103.83 0l1625.13 0 -6728.95 0m5103.82 0l0 -26.11 1625.13 0 0 26.11 -1625.13 0m0 -26.12l1625.13 0 -6728.95 0m5103.82 0l1625.13 0 -6728.95 0m5103.82 0l1625.13 0 -6728.95 0m5129.93 0l0 -32.63 1599.02 0 0 32.63 -1599.02 0m0 -32.63l1599.02 0 -6728.95 0m5129.93 0l1599.02 0 -6728.95 0m5129.93 0l1599.02 0 -6728.95 0m5129.93 0l0 -26.1 1599.02 0 0 26.1 -1599.02 0m26.1 -26.1l1572.91 0 -6728.95 0m5156.04 0l1572.91 0 -6728.95 0m5156.04 0l0 -26.1 1572.91 0 0 26.1 -1572.91 0"/>
  <path class="fil1" d="M5267.69 11021.81l0 -26.1 1572.91 0 0 26.1 -1572.91 0m0 -26.11l1572.91 0 -6728.95 0m5182.15 0l1546.81 0 -6728.95 0m5182.14 0l0 -32.63 1546.81 0 0 32.63 -1546.81 0"/>
  <path class="fil1" d="M5293.8 10995.7l0 -32.63 1546.81 0 0 32.63 -1546.81 0m0 -32.63l1546.81 0 -6728.95 0m5182.14 0l1546.81 0 -6728.95 0"/>
  <polygon class="fil0" points="196.5,8835.39 3942.79,8835.39 3942.79,10551.89 196.5,10551.89 "/>
  <path class="fil1" d="M5293.8 9364.04l0 -26.1 1546.81 0 0 26.1 -1546.81 0m0 -26.1l1546.81 0 -6728.95 0m6193.77 0l502.55 0 -6696.32 0m6193.77 0l502.55 0 -6696.32 0m6193.77 0l476.45 0 -6670.21 0m6193.76 0l0 -26.11 476.45 0 0 26.11 -476.45 0m0 -26.11l476.45 0 -6670.21 0m6193.76 0l450.34 0 -6644.11 0m6193.77 0l450.34 0 -6644.11 0m6193.77 0l450.34 0 -6644.11 0m6193.77 0l0 -26.1 424.23 0 0 26.1 -424.23 0m0 -26.11l424.23 0 -6618 0m6193.77 0l424.23 0 -6618 0m6193.77 0l391.6 0 -6585.36 0m6193.76 0l391.6 0 -6585.36 0m6193.76 0l0 -32.63 365.49 0 0 32.63 -365.49 0m0 -32.63l365.49 0 -6559.26 0m6193.77 0l365.49 0 -6559.26 0m6193.77 0l339.39 0 -6533.16 0m6193.77 0l339.39 0 -6533.16 0m6193.77 0l0 -26.1 339.39 0 0 26.1 -339.39 0m0 -26.1l306.76 0 -6500.52 0m6193.76 0l306.76 0 -6500.52 0m6193.76 0l280.64 0 -6474.41 0m6193.77 0l280.64 0 -6474.41 0m6193.77 0l0 -26.11 280.64 0 0 26.11 -280.64 0m0 -26.11l280.64 0 -6474.41 0m6193.77 0l254.54 0 -6448.31 0m6193.77 0l254.54 0 -6448.31 0m6193.77 0l228.44 0 -6422.2 0m6193.76 0l0 -32.63 228.44 0 0 32.63 -228.44 0m0 -32.63l228.44 0 -6422.2 0m6193.76 0l195.8 0 -6389.57 0m6193.77 0l195.8 0 -6389.57 0m6193.77 0l195.8 0 -6389.57 0m6193.77 0l0 -26.11 169.69 0 0 26.11 -169.69 0"/>
  <path class="fil1" d="M6364.17 9592.48l0 -26.11 476.44 0 0 26.11 -476.44 0m0 -26.11l476.44 0 -6728.95 0m6252.51 0l476.44 0 -6728.95 0m6278.62 0l0 -32.63 450.33 0 0 32.63 -450.33 0"/>
  <path class="fil1" d="M6390.28 9566.37l0 -32.63 450.33 0 0 32.63 -450.33 0m0 -32.64l450.33 0 -6728.95 0m6278.62 0l450.33 0 -6728.95 0m6278.62 0l0 -26.1 450.33 0 0 26.1 -450.33 0"/>
  <path class="fil1" d="M6416.38 9533.73l0 -26.1 424.23 0 0 26.1 -424.23 0m0 -26.1l424.23 0 -6728.95 0m6304.72 0l424.23 0 -6728.95 0m6304.72 0l0 -26.1 424.23 0 0 26.1 -424.23 0m0 -26.1l424.23 0 -6728.95 0m6337.35 0l391.6 0 -6728.95 0m6337.35 0l391.6 0 -6728.95 0m6337.35 0l0 -32.63 391.6 0 0 32.63 -391.6 0m0 -32.64l391.6 0 -6728.95 0m6337.35 0l391.6 0 -6728.95 0m6363.46 0l365.49 0 -6728.95 0m6363.46 0l0 -26.11 365.49 0 0 26.11 -365.49 0m0 -26.11l365.49 0 -6728.95 0m6363.46 0l365.49 0 -6728.95 0m6363.46 0l365.49 0 -6728.95 0m6363.46 0l332.86 0 -6696.32 0m6389.57 0l0 -26.1 306.75 0 0 26.1 -306.75 0m0 -26.1l306.75 0 -6696.32 0m6389.57 0l280.64 0 -6670.21 0m6389.57 0l280.64 0 -6670.21 0m6389.57 0l280.64 0 -6670.21 0m6389.57 0l0 -32.63 254.54 0 0 32.63 -254.54 0m0 -32.64l254.54 0 -6644.11 0m6422.2 0l221.91 0 -6644.11 0m6422.2 0l195.79 0 -6618 0m6422.21 0l195.79 0 -6618 0m6422.21 0l0 -26.1 195.79 0 0 26.1 -195.79 0m0 -26.1l163.16 0 -6585.36 0m6422.2 0l163.16 0 -6585.36 0m6422.2 0l137.06 0 -6559.26 0m6448.31 0l110.95 0 -6559.26 0m6448.31 0l0 -26.11 110.95 0 0 26.11 -110.95 0m0 -26.11l84.85 0 -6533.16 0m6448.31 0l84.85 0 -6533.16 0m6448.31 0l84.85 0 -6533.16 0m6448.31 0l52.22 0 -6500.52 0m6474.4 0l0 -26.1 26.11 0 0 26.1 -26.11 0"/>
  <path class="fil1" d="M5776.77 9651.22l0 -32.63 1063.83 0 0 32.63 -1063.83 0m0 -32.64l1063.83 0 -6728.95 0m5632.49 0l1096.47 0 -6728.95 0m5632.48 0l1096.47 0 -6728.95 0m5632.48 0l0 -26.1 1096.47 0 0 26.1 -1096.47 0"/>
  <path class="fil1" d="M5718.03 9618.58l0 -26.1 1122.58 0 0 26.1 -1122.58 0m0 -26.1l1122.58 0 -6728.95 0m5606.37 0l1122.58 0 -6728.95 0m5580.26 0l1148.68 0 -6728.95 0m5580.27 0l0 -26.11 1148.68 0 0 26.11 -1148.68 0"/>
  <path class="fil1" d="M5691.92 9592.48l0 -26.11 1148.68 0 0 26.11 -1148.68 0m-32.63 -26.11l1181.32 0 -6728.95 0m5547.63 0l1181.32 0 -6728.95 0m5547.63 0l1181.32 0 -6728.95 0m5521.53 0l1207.42 0 -6728.95 0m5521.53 0l0 -32.63 1207.42 0 0 32.63 -1207.42 0m0 -32.64l1207.42 0 -6728.95 0m5495.42 0l1233.52 0 -6728.95 0m5495.43 0l1233.52 0 -6728.95 0m5495.43 0l1233.52 0 -6728.95 0m5469.32 0l0 -26.1 1259.64 0 0 26.1 -1259.64 0m0 -26.1l1259.64 0 -6728.95 0m5469.31 0l1259.64 0 -6728.95 0m5436.68 0l1292.27 0 -6728.95 0m5436.68 0l1292.27 0 -6728.95 0m5436.68 0l0 -26.1 1292.27 0 0 26.1 -1292.27 0m-26.11 -26.1l1318.37 0 -6728.95 0m5410.58 0l1318.37 0 -6728.95 0m5410.58 0l1318.37 0 -6728.95 0m5384.48 0l1344.48 0 -6728.95 0m5384.47 0l0 -32.63 1344.48 0 0 32.63 -1344.48 0m0 -32.64l1344.48 0 -6728.95 0m5351.84 0l1377.11 0 -6728.95 0m5351.84 0l1377.11 0 -6728.95 0m5351.84 0l1377.11 0 -6728.95 0m5325.72 0l0 -26.11 1403.22 0 0 26.11 -1403.22 0m0 -26.11l1403.22 0 -6728.95 0m5325.73 0l1403.22 0 -6728.95 0m5299.63 0l1429.33 0 -6728.95 0m5299.62 0l1429.33 0 -6728.95 0m5299.62 0l0 -26.1 1429.33 0 0 26.1 -1429.33 0m-32.63 -26.1l1461.96 0 -6728.95 0m5266.99 0l1461.96 0 -6728.95 0m5266.99 0l1461.96 0 -6728.95 0m5240.88 0l1488.06 0 -6728.95 0m5240.89 0l0 -32.63 1488.06 0 0 32.63 -1488.06 0"/>
  <path class="fil1" d="M5352.54 9396.68l0 -32.63 1488.06 0 0 32.63 -1488.06 0m-26.11 -32.64l1514.18 0 -6728.95 0m5214.77 0l1514.18 0 -6728.95 0m5214.77 0l1514.18 0 -6728.95 0m5182.14 0l0 -26.1 1546.81 0 0 26.1 -1546.81 0"/>
  <path class="fil1" d="M6305.43 9168.25l0 -26.11 169.69 0 0 26.11 -169.69 0m0 -26.11l143.59 0 -6337.35 0m6193.76 0l143.59 0 -6337.35 0m6193.76 0l143.59 0 -6337.35 0m6193.76 0l0 -26.1 110.95 0 0 26.1 -110.95 0"/>
  <path class="fil1" d="M6305.43 9142.14l0 -26.1 110.95 0 0 26.1 -110.95 0m0 -26.11l110.95 0 -6304.72 0m6193.77 0l84.85 0 -6278.62 0m6193.77 0l84.85 0 -6278.62 0m6193.77 0l0 -26.1 84.85 0 0 26.1 -84.85 0"/>
  <path class="fil1" d="M6305.43 9116.03l0 -26.1 58.74 0 0 26.1 -58.74 0m0 -26.1l58.74 0 -6252.5 0m6193.76 0l26.11 0 -6219.88 0m6193.77 0l26.11 0 -6219.88 0m6193.77 0l26.11 0 -6219.88 0"/>
  <polygon class="fil2" points="11213.45,10408.31 11213.45,9507.63 7101.68,9507.63 7101.68,10408.31 "/>
  <path class="fil3" d="M9190.19 2015.06c861.52,0 1527.24,665.72 1527.24,1592.5 0,861.51 -665.72,1592.5 -1527.24,1592.5 -926.78,0 -1585.97,-730.99 -1585.97,-1592.5 0,-926.78 659.19,-1592.5 1585.97,-1592.5z"/>
  <path class="fil4" d="M9190.19 2015.06c665.72,0 1324.91,463.39 1461.97,1129.1 65.27,326.34 -1592.5,-202.32 -1990.62,-796.24 -267.59,345.91 -861.52,724.46 -992.05,724.46 195.8,-593.92 796.24,-1057.31 1520.7,-1057.31l0 0 0 -0.01z"/>
  <path class="fil5" d="M7271.37 5461.12l528.65 65.26 1390.17 3315.53 1324.91 -3315.53 469.92 -65.26c326.34,0 659.2,332.86 659.2,665.71l0 4281.47 -4973.29 0 0 -4281.47c0,-332.85 267.59,-665.71 600.45,-665.71l0 0 0 0 -0.01 0z"/>
  <path class="fil6 str0" d="M9190.19 7849.86c0,-39.15 -26.1,-65.27 -65.26,-65.27 -32.63,0 -65.27,26.11 -65.27,65.27 0,32.63 32.63,65.27 65.27,65.27 39.15,0 65.26,-32.63 65.26,-65.27z"/>
  <polygon class="fil7" points="10515.1,7784.6 11324.4,7784.6 11324.4,7889.03 10515.1,7889.03 "/>
  <polygon class="fil8" points="11115.55,7517.01 10913.23,7184.15 10515.1,7784.6 11311.35,7784.6 "/>
  <path class="fil9" d="M9092.3 5650.39l-828.89 -319.8c45.69,287.17 0,717.92 137.06,861.51l633.08 -378.54 822.36 378.54c19.58,-287.17 117.48,-561.29 65.27,-861.51l-828.88 319.8z"/>
  <path class="fil6 str0" d="M9190.19 6655.49c0,-39.16 -26.1,-65.27 -65.26,-65.27 -32.63,0 -65.27,26.11 -65.27,65.27 0,32.63 32.63,65.27 65.27,65.27 39.15,0 65.26,-32.63 65.26,-65.27z"/>
  <path class="fil8" d="M10789.22 6766.45c117.48,163.16 195.8,169.69 91.37,287.17l-1853.56 2153.78 137.06 -391.6c411.18,-1168.27 874.57,-2323.48 1240.06,-3511.32l19.58 -71.8 887.62 202.32 -124 1259.65c-13.05,130.53 -97.9,104.42 -221.91,91.37l-176.22 -19.58 0 0.01z"/>
  <path class="fil10" d="M11180.82 5493.75l-757.09 -169.69c-358.96,1161.74 -822.36,2349.59 -1233.53,3517.85l1585.98 -1899.24 -202.33 -274.12 489.5 58.74 117.48 -1233.53 -0.01 -0.01z"/>
  <path class="fil8" d="M7565.06 6720.76c-124,163.16 -195.79,169.69 -91.37,287.17l1677.35 1957.99 32.63 -189.28c-411.18,-1174.79 -868.04,-2330 -1233.53,-3517.85l-19.58 -65.26 -887.62 202.32 117.48 1253.11c19.58,130.54 97.9,110.95 221.91,91.38l182.74 -19.58 -0.01 0z"/>
  <path class="fil10" d="M7173.47 5454.59l757.09 -176.22c352.44,1161.74 822.36,2349.59 1233.53,3517.85l-1592.5 -1899.24 202.32 -274.12 -482.97 58.74 -117.48 -1227 0.01 -0.01z"/>
  <path class="fil6" d="M8831.23 2354.44c593.92,567.82 1481.54,854.99 1723.03,711.4 -652.67,-6.52 -1370.59,-398.12 -1723.03,-711.4z"/>
  <path class="fil6" d="M8929.13 2289.18c476.45,450.33 1187.85,685.29 1383.64,567.82 -522.13,-6.53 -1096.47,-313.28 -1383.64,-567.82z"/>
  <path class="fil6" d="M8641.96 2328.34c-274.12,313.28 -685.29,528.66 -796.24,482.97 300.22,-65.26 633.07,-306.75 796.24,-482.97z"/>
  <path class="fil11" d="M8550.59 5572.07c39.15,19.58 456.86,58.75 398.13,137.07 -91.38,-71.8 -443.81,-52.22 -398.13,-137.07z"/>
  <path class="fil11" d="M8589.74 5800.5c32.63,0 385.08,-150.11 372.02,-65.27 -97.9,-13.05 -372.02,150.12 -372.02,65.27z"/>
  <path class="fil11" d="M9673.17 5545.96c-39.16,26.11 -515.61,104.43 -450.34,189.27 104.43,-84.84 502.55,-97.9 450.34,-189.27z"/>
  <path class="fil11" d="M9634.01 5807.04c-39.15,0 -437.28,-137.07 -424.23,-39.16 117.48,-26.1 424.23,137.06 424.23,39.16z"/>
  <path class="fil12" d="M8981.35 5559.02c84.84,19.58 137.06,0 208.84,0 19.58,0 45.69,26.11 39.16,52.22 -13.05,97.9 -13.05,169.69 0,234.96 6.53,26.1 -32.63,39.16 -58.74,32.63 -71.8,-19.58 -117.48,19.58 -189.27,19.58 -26.11,0 -45.69,-26.11 -45.69,-52.22 0,-78.32 19.58,-143.59 0,-234.96 -6.53,-26.1 26.1,-58.74 45.69,-52.22l0.01 0.01z"/>
  <path class="fil3" d="M2291.55 2126.01c861.51,0 1527.23,659.19 1527.23,1585.97 0,861.52 -665.72,1592.5 -1527.23,1592.5 -926.78,0 -1592.5,-730.98 -1592.5,-1592.5 0,-926.78 665.72,-1585.97 1592.5,-1585.97z"/>
  <path class="fil13" d="M2291.55 2126.01c665.71,0 1324.91,463.39 1455.43,1122.58 71.8,332.86 -1585.97,-195.8 -1984.09,-796.25 -267.59,352.44 -861.51,730.99 -992.05,730.99 195.8,-593.92 789.72,-1057.31 1520.71,-1057.31l0 0 0 -0.01z"/>
  <path class="fil10" d="M1932.58 2465.4c593.93,561.29 1481.55,854.98 1723.03,704.87 -652.66,-6.53 -1370.59,-391.6 -1723.03,-704.87z"/>
  <path class="fil10" d="M2030.48 2400.13c476.45,450.34 1187.85,678.77 1383.65,561.3 -522.13,0 -1096.48,-313.28 -1383.65,-561.3z"/>
  <path class="fil10" d="M1743.31 2439.29c-274.11,313.28 -685.29,522.13 -802.77,476.45 306.76,-58.74 639.62,-300.23 802.77,-476.45z"/>
  <path class="fil14" d="M1586.67 6414.01l639.62 985.53c280.64,-372.02 541.7,-783.2 789.72,-1227.01l-52.22 13.05 -685.29 933.31 -19.58 32.63 -19.58 -32.63 -724.46 -985.52 -6.53 156.64 78.32 124 0 0zm620.03 1044.26l-639.61 -1018.16 -110.95 -130.53 -6.53 -6.53 6.53 -6.52 6.52 -241.49 0 -78.32 45.69 58.74c241.49,372.02 489.5,711.4 750.57,1024.68 202.32,-234.96 424.23,-541.7 665.71,-913.73l6.53 -6.52 6.53 -6.53 130.53 -32.63 65.27 -13.05 -32.63 52.21 -848.46 1318.38 -26.1 39.16 -19.58 -39.16 -0.02 0z"/>
  <path class="fil15" d="M1540.99 5317.54l-352.44 411.18c65.27,280.64 97.9,606.97 274.12,711.39 248.01,-169.69 378.54,-424.23 757.09,-509.07 -241.49,-65.27 -424.23,-358.97 -678.77,-613.5z"/>
  <path class="fil15" d="M2976.84 5317.54l352.44 411.18c-65.27,280.64 -97.9,606.97 -274.12,711.39 -248.01,-169.69 -378.54,-424.23 -757.09,-509.07 241.49,-65.27 424.23,-358.97 678.77,-613.5z"/>
  <path class="fil15" d="M4264.99 8012.81l0 56.55 122.55 0 0 311.08c-122.55,0 -122.55,-65.99 -188.54,56.56 -56.55,65.99 0,65.99 -122.55,131.97 -56.55,0 0,-65.99 -56.55,0l122.55 0 0 56.56c56.55,0 56.55,65.99 56.55,65.99 65.99,0 0,0 65.99,-65.99 0,0 65.99,0 65.99,-56.56 56.56,0 122.55,-65.99 122.55,-65.99 122.54,-122.55 179.1,-122.55 301.65,-122.55 0,-65.99 0,-65.99 65.99,-65.99l0 65.99 65.99 0 56.55 56.56 0 -56.56 65.99 0 0 56.56c-65.99,65.99 -122.54,131.97 -65.99,254.52 122.55,0 0,0 65.99,-66 56.56,66 0,0 0,66 0,122.54 56.56,56.55 56.56,188.53l-56.56 -65.99 0 -65.99c-188.53,-179.1 -254.51,0 -254.51,0l0 65.99c-56.56,65.99 -56.56,0 -56.56,65.99 0,56.56 0,56.56 56.56,56.56l999.22 1489.4c122.54,-65.99 311.08,-245.09 433.63,-311.08l867.24 0 556.18 -1677.94 -867.25 0c-433.63,-56.56 -556.17,0 -744.7,-179.1l-867.25 -867.25c-122.54,56.55 -622.15,433.63 -801.27,556.17l-65.99 65.99 0 0 0 0 -0.01 0.02z"/>
  <polygon class="fil16" points="3454.3,6089.77 8111.05,6089.77 8111.05,11660.9 3454.3,11660.9 "/>
  <polygon class="fil17" points="3642.82,6212.32 7979.08,6212.32 7979.08,11481.8 3642.82,11481.8 "/>
  <polygon class="fil8" points="4076.45,6523.4 7545.45,6523.4 7545.45,11104.73 4076.45,11104.73 "/>
  <polygon class="fil18" points="4698.61,6089.77 6932.72,6089.77 6932.72,6645.95 4698.61,6645.95 "/>
  <polygon class="fil19" points="6310.56,6089.77 6310.56,5901.25 5254.79,5901.25 5254.79,6089.77 4698.61,6089.77 4698.61,6146.34 6932.72,6146.34 6932.72,6089.77 "/>
  <polygon class="fil20" points="4698.61,7513.2 4943.7,7202.11 5066.25,7136.13 4632.63,7758.29 4453.52,7390.65 4576.06,7324.66 "/>
  <path class="fil20" d="M5198.22 7946.81l1913.61 0 0 245.1 -1913.61 0 0 -245.1zm0 622.16l1913.61 0 0 245.09 -1913.61 0 0 -245.09zm0 612.73l1913.61 0 0 254.52 -1913.61 0 0 -254.52zm0 622.16l1913.61 0 0 245.09 -1913.61 0 0 -245.09zm0 622.15l1913.61 0 0 245.1 -1913.61 0 0 -245.1zm0 -3101.35l1913.61 0 0 245.09 -1913.61 0 0 -245.09z"/>
  <polygon class="fil20" points="4698.61,8116.5 4943.7,7805.42 5066.25,7739.43 4632.63,8361.59 4453.52,7993.96 4576.06,7927.96 "/>
  <polygon class="fil20" points="4698.61,8710.37 4943.7,8399.3 5066.25,8342.73 4632.63,8964.89 4453.52,8587.82 4576.06,8531.27 "/>
  <polygon class="fil20" points="4698.61,9313.67 4943.7,9002.6 5066.25,8946.03 4632.63,9558.76 4453.52,9191.13 4576.06,9125.15 "/>
  <polygon class="fil20" points="4698.61,9916.98 4943.7,9605.91 5066.25,9539.91 4632.63,10162.07 4453.52,9794.43 4576.06,9728.45 "/>
  <polygon class="fil21" points="4698.61,10520.28 4943.7,10209.21 5066.25,10143.22 4632.63,10765.37 4453.52,10397.74 4576.06,10331.76 "/>
 </g>
</svg>
