<?xml version="1.0" encoding="UTF-8"?>
<!DOCTYPE svg PUBLIC "-//W3C//DTD SVG 1.1//EN" "http://www.w3.org/Graphics/SVG/1.1/DTD/svg11.dtd">
<!-- Creator: CorelDRAW 2017 -->
<svg xmlns="http://www.w3.org/2000/svg" xml:space="preserve" width="118.533mm" height="118.533mm" version="1.1" style="shape-rendering:geometricPrecision; text-rendering:geometricPrecision; image-rendering:optimizeQuality; fill-rule:evenodd; clip-rule:evenodd"
viewBox="0 0 11853.32 11853.32"
 xmlns:xlink="http://www.w3.org/1999/xlink">
 <defs>
  <style type="text/css">
   <![CDATA[
    .fil0 {fill:#E6E6E6}
    .fil1 {fill:#660066;fill-rule:nonzero}
   ]]>
  </style>
 </defs>
 <g id="Layer_x0020_1">
  <metadata id="CorelCorpID_0Corel-Layer"/>
  <circle class="fil0" cx="5926.66" cy="5943.6" r="5892.8"/>
  <path class="fil1" d="M1849.96 7494.55l0 -3178.13 2183.86 0 0 537.09 -1540.24 0 0 754.58 1331.62 0 0 537.09 -1331.62 0 0 1349.37 -643.62 0zm5329.43 0l-693.18 0 -274.46 -723.51 -1274.65 0 -264.1 723.51 -680.61 0 1233.96 -3178.13 679.87 0 1273.17 3178.13zm-1176.26 -1260.59l-441.65 -1176.27 -429.08 1176.27 870.73 0zm4073.28 858.15c156.83,113.19 327.72,202.7 512.67,269.28l-235.99 457.19c-96.17,-28.85 -190.87,-68.8 -283.34,-119.84 -19.98,-10.36 -162.01,-104.32 -426.12,-283.35 -207.88,91 -438.7,136.87 -691.7,136.87 -488.26,0 -871.47,-144.26 -1148.15,-432.04 -276.69,-288.52 -415.02,-693.18 -415.02,-1214.73 0,-520.07 139.08,-924.73 416.5,-1213.25 277.41,-289.26 653.97,-433.52 1128.91,-433.52 471.25,0 844.84,144.26 1120.79,433.52 275.93,288.52 414.27,692.44 414.27,1212.51 0,274.46 -38.47,516.37 -115.4,724.99 -57.7,159.06 -150.18,313.67 -277.42,462.37zm-514.89 -361.02c82.11,-97.65 143.52,-214.54 184.94,-352.14 40.69,-137.6 61.41,-295.18 61.41,-473.46 0,-367.68 -80.65,-642.14 -242.66,-824.13 -162.01,-181.25 -373.59,-272.23 -634.74,-272.23 -261.88,0 -474.2,90.98 -636.21,273.71 -162.76,182.73 -244.13,457.2 -244.13,824.13 0,372.11 81.37,651.01 244.13,835.22 162.75,184.95 368.41,277.42 616.98,277.42 93.22,0 180.5,-15.54 262.62,-45.87 -129.46,-85.07 -261.88,-150.91 -395.78,-198.26l179.76 -372.86c210.11,73.24 411.33,181.99 603.68,328.47z"/>
 </g>
</svg>
