<?xml version="1.0" encoding="UTF-8"?>
<!DOCTYPE svg PUBLIC "-//W3C//DTD SVG 1.1//EN" "http://www.w3.org/Graphics/SVG/1.1/DTD/svg11.dtd">
<!-- Creator: CorelDRAW 2017 -->
<svg xmlns="http://www.w3.org/2000/svg" xml:space="preserve" width="234.356mm" height="115.485mm" version="1.1" style="shape-rendering:geometricPrecision; text-rendering:geometricPrecision; image-rendering:optimizeQuality; fill-rule:evenodd; clip-rule:evenodd"
viewBox="0 0 23435.64 11548.5"
 xmlns:xlink="http://www.w3.org/1999/xlink">
 <defs>
  <style type="text/css">
   <![CDATA[
    .fil5 {fill:#54AED3}
    .fil4 {fill:#8DD356}
    .fil3 {fill:#B363B2}
    .fil1 {fill:#E62B2B}
    .fil0 {fill:black;fill-rule:nonzero}
    .fil2 {fill:white;fill-rule:nonzero}
   ]]>
  </style>
 </defs>
 <g id="Layer_x0020_1">
  <metadata id="CorelCorpID_0Corel-Layer"/>
  <path class="fil0" d="M1359.11 2123.74l1349.71 -156.29 514.13 1843.26 515.68 -1962.51 1343.53 -155.58 0 3127.18 -837.1 96.94 0 -2383.97 -645.95 2458.77 -758.48 87.82 -644.41 -2309.34 0 2383.96 -837.11 96.94 0 -3127.18zm4041.4 -467.98l1136.18 -131.56 669.84 975.01 666.76 -1129.79 1130.02 -130.85 -1285.72 1966.52 0 1309.54 -1026.74 118.89 0 -1309.54 -1290.34 -1668.22z"/>
  <path class="fil0" d="M5626.78 5415.28l3112.56 -360.42 0 773.06 -1045.23 121.03 0 2354.12 -1022.1 118.36 0 -2354.12 -1045.23 121.03 0 -773.06zm3571.2 -413.53l2737.93 -317.04 0 668.24 -1711.21 198.15 0 497.9 1586.34 -183.69 0 637.67 -1586.34 183.69 0 615.82 1762.09 -204.04 0 707.55 -2788.81 322.93 0 -3127.18zm3349.19 -387.82l955.04 -110.59 1241.79 1582.85 0 -1726.64 966.6 -111.93 0 3127.18 -966.6 111.93 -1234.85 -1574.2 0 1717.19 -961.98 111.39 0 -3127.18zm3857.16 -446.64l1520.82 -176.11c299.08,-34.63 541.89,-24.17 726.11,30.93 184.23,55.83 336.85,148.08 457.87,277.46 120.25,130.21 207.35,286.81 261.31,471.28 54.72,184.39 81.7,382.9 81.7,596.18 0,334.12 -40.08,597.9 -121.01,791.44 -80.17,193.45 -191.94,360.72 -335.31,501.79 -143.37,141.08 -296.76,241.83 -460.95,302.33 -224.31,82.75 -427.8,134.7 -609.72,155.77l-1520.82 176.1 0 -3127.17zm1022.11 589.19l0 1707.72 251.28 -29.1c214.29,-24.81 366.91,-65.06 457.87,-119.99 90.18,-55.58 161.1,-141.68 212.74,-259.03 51.65,-118.08 77.09,-301.55 77.09,-551.96 0,-331.21 -57.04,-550.99 -171.89,-659.98 -114.86,-109 -305.25,-148.09 -571.18,-117.3l-255.91 29.64z"/>
  <g id="_847622456">
   <polygon class="fil1" points="178.96,9745.87 22055.8,6999.05 22055.8,8564.64 178.96,11311.45 "/>
   <path class="fil2" d="M1534.98 10843.06l-184.01 23.1 -72.86 -203.51 -338.36 42.49 -70.11 221.46 -180.67 22.68 327.56 -975.26 180.47 -22.66 337.98 891.7zm-312.25 -331.32l-117.24 -331.01 -113.9 360.04 231.14 -29.03zm271.6 -597.71l191.86 -24.09 196.38 458.94 168.1 -504.7 177.73 -22.32 -285.34 745.78c-31.03,80.87 -62.65,143.33 -94.85,187.6 -32.21,44.27 -73.65,69.48 -124.71,75.89 -50.27,6.31 -89.55,7.55 -117.83,3.92l0 -140.46c24.16,-1.3 45.96,-3.16 65.4,-5.61 39.28,-4.93 67.55,-16.52 84.64,-34.54 16.89,-18.21 33.38,-54.86 48.9,-109.64l-310.28 -630.77zm821.85 -103.19l170.85 -21.45 0 397.92c37.9,-9.11 63.63,-22.99 76.98,-42.28 13.35,-19.08 34.17,-70.18 62.06,-153.26 35.15,-105.53 70.7,-173.05 106.24,-202.08 35.35,-29.01 92.1,-48.53 170.66,-58.39 3.92,-0.5 12.17,-1.75 24.74,-3.76l0 139.6 -24.16 2.38c-34.95,4.38 -60.48,12.37 -76.58,23.96 -16.11,11.59 -29.07,27.79 -39.08,48.62 -10.02,20.82 -24.75,62.9 -44.19,126.22 -10.41,33.71 -21.6,62.08 -33.78,85.35 -11.98,23.25 -33.38,46.38 -64.02,69.36 37.9,6.98 69.13,27.19 93.87,60.19 24.75,32.98 51.85,80.46 81.3,142.65l114.89 241.29 -200.31 25.15 -101.14 -227.8c-1.57,-3.28 -4.91,-9.38 -9.81,-18.55 -1.97,-3.02 -9.04,-16.92 -21.21,-41.26 -21.61,-43.39 -39.28,-69.87 -53.03,-79.67 -13.94,-9.77 -34.96,-13 -63.43,-9.86l0 408.35 -170.85 21.45 0 -934.13zm719.15 -90.29l170.85 -21.45 0 776.26 328.74 -41.27 0 -776.27 170.85 -21.45 0 776.27 70.7 -8.88 0 361.39 -142.57 17.9 0 -203.53 -598.57 75.16 0 -934.13zm860.74 -108.07l159.06 -19.98 0 621.89 341.71 -664.79 169.67 -21.3 0 934.13 -159.07 19.97 0 -611.88 -341.7 654.78 -169.67 21.31 0 -934.13zm809.28 371.1c0,-95.24 12.96,-176.88 38.69,-244.91 19.05,-50.01 45.37,-96.15 78.55,-138.15 33.19,-42.01 69.52,-74.62 108.99,-98.06 52.63,-31.18 113.31,-51.19 182.05,-59.82 124.5,-15.63 223.87,14.73 298.69,90.79 74.63,76.3 111.94,190.55 111.94,342.98 0,151.13 -37.11,274.07 -111.15,368.61 -74.03,94.75 -173.21,149.82 -297.12,165.38 -125.49,15.75 -225.45,-14.1 -299.48,-89.82 -74.04,-75.51 -111.16,-187.83 -111.16,-337zm175.57 -28.35c0,105.9 22.19,183.34 66.38,232.59 44.18,49.03 100.34,69.38 168.29,60.85 68.15,-8.56 123.92,-42.74 167.71,-102.38 43.6,-59.84 65.4,-143.9 65.4,-252.4 0,-107.2 -21.21,-184.55 -63.83,-231.83 -42.41,-47.51 -98.78,-66.74 -169.28,-57.89 -70.3,8.83 -127.05,42.7 -170.06,101.37 -43.01,58.89 -64.61,142.06 -64.61,249.69zm776.29 370.25l0 -934.13 170.85 -21.45 0 367.91 332.28 -41.72 0 -367.91 170.85 -21.45 0 934.13 -170.85 21.45 0 -408.36 -332.28 41.72 0 408.36 -170.85 21.45zm1717.94 -560.13l164.96 35.39c-25.33,106.03 -67.55,187.66 -126.47,245.06 -58.91,57.2 -133.53,91.57 -224.07,102.94 -112.13,14.08 -204.24,-16.76 -276.5,-92.49 -72.08,-75.75 -108.21,-187.11 -108.21,-334.32 0,-155.47 36.33,-280.93 108.8,-376.14 72.46,-95.2 167.9,-150.24 286.12,-165.08 103.3,-12.97 187.16,10.42 251.57,69.96 38.49,35.17 67.16,88.98 86.41,161.58l-168.5 65.51c-10.01,-47.01 -30.83,-82.67 -62.45,-106.75 -31.81,-24.06 -70.3,-33.14 -115.47,-27.47 -62.64,7.87 -113.51,39.04 -152.39,93.72 -39.08,54.48 -58.52,137.38 -58.52,248.71 0,117.85 19.24,199.59 57.54,244.79 38.49,45.4 88.37,64.14 149.84,56.42 45.36,-5.69 84.44,-26.47 117.04,-62.53 32.6,-36.06 56.16,-89.03 70.3,-159.3zm246.65 -147.95c0,-95.24 12.97,-176.89 38.69,-244.91 19.05,-50.01 45.37,-96.16 78.55,-138.16 33.19,-42 69.52,-74.61 108.99,-98.05 52.63,-31.18 113.31,-51.19 182.05,-59.82 124.5,-15.64 223.87,14.73 298.7,90.79 74.62,76.3 111.93,190.55 111.93,342.98 0,151.12 -37.11,274.07 -111.15,368.6 -74.03,94.75 -173.21,149.82 -297.12,165.38 -125.49,15.76 -225.45,-14.09 -299.48,-89.81 -74.04,-75.51 -111.16,-187.84 -111.16,-337zm175.57 -28.35c0,105.89 22.19,183.34 66.38,232.59 44.18,49.03 100.35,69.38 168.29,60.85 68.15,-8.56 123.92,-42.75 167.71,-102.39 43.6,-59.83 65.4,-143.89 65.4,-252.39 0,-107.2 -21.21,-184.56 -63.82,-231.83 -42.42,-47.51 -98.79,-66.74 -169.29,-57.89 -70.3,8.82 -127.05,42.7 -170.06,101.37 -43.01,58.89 -64.61,142.06 -64.61,249.69zm779.83 -564.33l630.38 -79.15 0 157.87 -459.53 57.69 0 216.58 227.6 -28.58c62.65,-7.87 114.89,-5.95 156.13,5.84 41.44,11.75 76.78,38.63 106.04,80.83 29.26,41.99 43.99,93.85 43.99,155.39 0,63.06 -14.73,119.05 -44.38,167.78 -29.45,48.49 -63.04,83.59 -100.94,104.87 -37.71,21.26 -91.51,36.28 -161.23,45.03l-398.06 49.98 0 -934.13zm170.85 754.82l165.55 -20.79c52.83,-6.63 90.14,-14.14 111.54,-22.48 21.41,-8.35 40.26,-23.54 56.17,-45.76 15.91,-22 23.76,-47.78 23.76,-77.13 0,-42.84 -13.94,-72.18 -41.63,-88.27 -27.89,-15.86 -75.21,-19.7 -142.38,-11.27l-173.01 21.73 0 243.97zm677.32 -861.31l170.85 -21.45 0 373.13 227.6 -28.58c59.71,-7.5 111.16,-4.83 154.17,7.82 43,12.65 78.94,40.32 107.81,83.23 28.67,42.93 43.01,94.62 43.01,155.07 0,63.28 -14.93,119.51 -44.78,169.14 -30.05,49.44 -63.23,83.82 -99.96,103.22 -36.53,19.59 -90.14,33.72 -160.64,42.57l-398.06 49.98 0 -934.13zm170.85 754.81l166.14 -20.86c52.83,-6.63 89.74,-14.09 110.76,-22.38 20.81,-8.27 39.47,-23.66 55.77,-45.93 16.3,-22.27 24.35,-47.85 24.35,-76.99 0,-41.31 -13.35,-70.73 -39.87,-88.06 -26.7,-17.3 -74.82,-21.48 -144.14,-12.77l-173.01 21.72 0 245.27zm630.38 -855.41l170.85 -21.46 0 934.13 -170.85 21.46 0 -934.13zm537.3 866.66l0 -776.26 -249.8 31.36 0 -157.86 669.27 -84.03 0 157.86 -248.62 31.22 0 776.26 -170.85 21.45zm532.39 -1000.97l159.07 -19.97 0 621.88 341.7 -664.79 169.68 -21.3 0 934.13 -159.07 19.97 0 -611.88 -341.71 654.78 -169.67 21.31 0 -934.13zm846.99 -106.35l159.07 -19.97 0 621.88 341.71 -664.78 169.67 -21.31 0 934.13 -159.07 19.97 0 -611.88 -341.7 654.79 -169.68 21.3 0 -934.13zm435.97 -324.8l78.94 -9.91c-4.51,58.19 -22.97,105.95 -54.98,142.8 -32.01,36.86 -73.45,58.58 -124.31,64.97 -51.06,6.41 -92.49,-4.91 -124.51,-33.73 -32.01,-28.81 -50.46,-71.94 -54.98,-128.99l78.94 -9.92c2.75,29.67 12.18,51.31 28.68,64.68 16.49,13.37 40.45,17.97 71.87,14.02 31.22,-3.92 55.18,-14.54 71.68,-32.04 16.49,-17.51 25.92,-41.53 28.67,-71.88zm738.39 177.35l159.07 -19.97 0 621.88 341.71 -664.78 169.67 -21.31 0 934.13 -159.07 19.97 0 -611.88 -341.7 654.79 -169.68 21.3 0 -934.13zm1174.37 -147.45l670.44 -84.18 0 934.13 -170.85 21.45 0 -776.26 -328.74 41.27 0 776.27 -170.85 21.45 0 -934.13zm844.63 828.08l0 -934.13 273.17 -34.3c103.49,-12.99 170.85,-16.88 202.27,-11.48 48.31,8.07 88.77,33.43 121.36,76.31 32.6,42.87 48.9,101.49 48.9,175.86 0,57.4 -9.42,106.64 -28.08,148.12 -18.85,41.51 -42.62,75.15 -71.48,101.17 -28.87,25.81 -58.33,44.29 -88.18,55.21 -40.65,14.02 -99.37,25.96 -176.35,35.63l-110.76 13.9 0 352.26 -170.85 21.45zm170.85 -797.72l0 266.15 92.89 -11.66c66.97,-8.41 111.55,-19.01 134.13,-31.63 22.58,-12.62 40.26,-30.06 53.02,-52.75 12.77,-22.48 19.25,-47.43 19.25,-75.26 0,-34.14 -9.03,-61.06 -26.91,-80.99 -18.06,-19.91 -40.65,-31 -68.34,-33.17 -20.22,-1.6 -60.88,1.34 -122.15,9.03l-81.89 10.28zm1271.57 616.61l-184.01 23.11 -72.86 -203.51 -338.36 42.48 -70.11 221.46 -180.67 22.69 327.56 -975.26 180.47 -22.66 337.98 891.69zm-312.25 -331.31l-117.24 -331.01 -113.9 360.03 231.14 -29.02zm523.36 -374.92l-166.14 -22.19c35.74,-156.7 137.27,-245.55 304.58,-266.56 98.98,-12.42 173.8,2.32 224.27,44.25 50.47,41.94 75.61,95.53 75.61,160.77 0,44.57 -11.59,86.25 -34.57,125.23 -22.97,38.77 -57.53,74.64 -103.49,107.8 55.77,14.31 97.8,39.04 125.69,74.46 27.88,35.64 41.82,81.72 41.82,138.91 0,82.2 -27.1,151.92 -81.49,209.41 -54.2,57.47 -135.5,93.12 -243.71,106.71 -88.18,11.07 -157.89,3.51 -208.95,-22.69 -51.06,-26.21 -89.35,-82.5 -115.08,-168.86l155.53 -75.63c16.1,54.3 37.71,88.12 64.41,101.29 26.72,13.39 59.71,17.51 98.98,12.58 53.81,-6.76 93.09,-24.52 117.83,-53.5 24.55,-28.96 36.92,-60.08 36.92,-93.57 0,-38.27 -13.94,-67.61 -41.83,-87.6 -27.69,-20 -69.71,-26.47 -125.68,-19.44l-38.69 4.86 0 -140.91 19.44 -2.44c52.04,-6.53 91.91,-24.58 119.4,-53.91 27.69,-29.35 41.44,-65.65 41.44,-108.49 0,-34.13 -11.2,-61.43 -33.58,-82.1 -22.39,-20.46 -54.4,-28.18 -96.03,-22.96 -71.29,8.95 -116.85,53.81 -136.68,134.58zm686.35 -340.58l582.07 -73.08 0 776.26 74.23 -9.32 0 361.39 -142.57 17.9 0 -203.52 -529.05 66.42 0 203.53 -142.57 17.9 0 -361.39 71.87 -9.02c34.96,-84.19 58.13,-179.73 69.33,-286.38 11.19,-106.86 16.69,-240.85 16.69,-401.97l0 -98.72zm162.6 137.45c0,282.67 -23.57,491.76 -70.7,627.28l319.32 -40.09 0 -618.41 -248.62 31.22zm608.39 699.88l0 -934.13 170.85 -21.46 0 367.92 332.28 -41.72 0 -367.92 170.85 -21.45 0 934.13 -170.85 21.45 0 -408.35 -332.28 41.72 0 408.35 -170.85 21.46zm853.27 -1041.27l159.07 -19.97 0 621.88 341.7 -664.79 169.68 -21.3 0 934.13 -159.07 19.97 0 -611.88 -341.7 654.79 -169.68 21.3 0 -934.13zm847 -106.35l170.85 -21.45 0 397.92c37.9,-9.11 63.62,-22.99 76.98,-42.28 13.35,-19.08 34.17,-70.18 62.05,-153.26 35.16,-105.53 70.7,-173.05 106.25,-202.08 35.34,-29.01 92.1,-48.53 170.65,-58.39 3.93,-0.5 12.18,-1.75 24.75,-3.76l0 139.6 -24.16 2.38c-34.95,4.38 -60.49,12.37 -76.59,23.96 -16.1,11.59 -29.06,27.79 -39.08,48.62 -10.01,20.82 -24.74,62.9 -44.18,126.22 -10.41,33.71 -21.61,62.08 -33.78,85.35 -11.98,23.25 -33.38,46.38 -64.02,69.36 37.9,6.98 69.13,27.19 93.87,60.19 24.74,32.98 51.84,80.46 81.3,142.65l114.88 241.29 -200.3 25.15 -101.14 -227.8c-1.57,-3.28 -4.91,-9.38 -9.82,-18.55 -1.97,-3.02 -9.04,-16.92 -21.21,-41.26 -21.6,-43.39 -39.28,-69.87 -53.02,-79.67 -13.95,-9.77 -34.96,-13 -63.43,-9.86l0 408.35 -170.85 21.45 0 -934.13zm1476.78 748.71l-184.01 23.11 -72.85 -203.51 -338.37 42.48 -70.11 221.46 -180.67 22.68 327.57 -975.25 180.47 -22.66 337.97 891.69zm-312.24 -331.31l-117.24 -331.02 -113.9 360.04 231.14 -29.02z"/>
  </g>
  <polygon class="fil3" points="21510.34,3157.75 21930.96,4391.31 23300.22,4388.83 22190.92,5148.72 22616.55,6380.74 21510.34,5616.81 20404.13,6380.74 20829.76,5148.72 19720.46,4388.83 21089.72,4391.31 "/>
  <polygon class="fil4" points="19703.9,1195.26 20092.44,2215.05 21357.28,2212.99 20332.58,2841.19 20725.75,3859.71 19703.9,3228.17 18682.05,3859.71 19075.22,2841.19 18050.51,2212.99 19315.35,2215.05 "/>
  <polygon class="fil5" points="16684.25,374.53 16334.64,1367.35 15196.54,1365.35 16118.57,1976.94 15764.79,2968.52 16684.25,2353.68 17603.7,2968.52 17249.92,1976.94 18171.95,1365.35 17033.85,1367.35 "/>
  <polygon class="fil1" points="13802.13,-84.69 14133.35,791.54 15211.58,789.77 14338.05,1329.53 14673.22,2204.66 13802.13,1662.03 12931.03,2204.66 13266.2,1329.53 12392.67,789.77 13470.9,791.54 "/>
 </g>
</svg>
