<?xml version="1.0" encoding="UTF-8"?>
<!DOCTYPE svg PUBLIC "-//W3C//DTD SVG 1.1//EN" "http://www.w3.org/Graphics/SVG/1.1/DTD/svg11.dtd">
<!-- Creator: CorelDRAW 2017 -->
<svg xmlns="http://www.w3.org/2000/svg" xml:space="preserve" width="228.6mm" height="228.6mm" version="1.1" style="shape-rendering:geometricPrecision; text-rendering:geometricPrecision; image-rendering:optimizeQuality; fill-rule:evenodd; clip-rule:evenodd"
viewBox="0 0 22859.98 22859.98"
 xmlns:xlink="http://www.w3.org/1999/xlink">
 <defs>
  <style type="text/css">
   <![CDATA[
    .str0 {stroke:#CCCCFF;stroke-width:7.62;stroke-miterlimit:22.9256}
    .fil0 {fill:#999999}
    .fil1 {fill:red}
   ]]>
  </style>
 </defs>
 <g id="Layer_x0020_1">
  <metadata id="CorelCorpID_0Corel-Layer"/>
  <g id="_695645048">
   <path class="fil0 str0" d="M14117.28 20732.49l1197.95 0 0 878.5 -1197.95 0 0 -878.5zm-7547.09 319.45l878.5 0 0 559.05 -878.5 0 0 -559.05zm-1876.8 0l878.5 0 0 559.05 -878.5 0 0 -559.05zm1876.8 -1277.8l878.5 0 0 598.95 -878.5 0 0 -598.95zm-1876.8 0l878.5 0 0 598.95 -878.5 0 0 -598.95zm9423.89 -519.14c0,-152.29 107.28,-99.69 389.32,-99.62l619.27 -0.59c252.53,-8.04 189.36,-152.63 189.36,898.85l-1197.95 0 0 -798.64zm-7547.09 -718.76l878.5 0 0 559.05 -878.5 0 0 -559.05zm-1876.8 0l878.5 0 0 559.05 -878.5 0 0 -559.05zm9423.89 -958.35l1197.95 0 0 918.41 -1197.95 0 0 -918.41zm-7547.09 -7107.84c266.67,141.12 3768.12,1218.72 4393.6,1476.35l1516.29 480.3 0 9823.19 -1517.4 0 0 -958.35c289.08,-24.07 597.85,-302.43 727.7,-510.2 430.3,-688.41 192.27,-1529.43 -506.66,-1867.15 -1182.79,-571.53 -2391.25,872.78 -1571.24,1930.61 7.14,9.26 28.39,35.05 36.13,43.76 159.5,180.02 410.92,350.69 635.22,402.98l0 958.35 -1517.4 0 0 -5031.39 -2196.24 0 0 -6748.45zm7547.09 5510.55l1197.95 0 0 918.45 -1197.95 0 0 -918.45zm0 -638.9l0 -918.41 1197.95 0 0 918.41 -312.94 -13.42c-205.27,0.94 -770.03,-27.91 -885.01,13.42zm-8225.94 1876.8l-878.46 0 0 -1477.46c0,-136.65 -80.44,-105.23 -148.65,-103.74 -342.65,7.52 -530.2,-53.51 -530.2,103.74l0 1477.46 -958.35 0 0 5710.23 13257.29 0 0 -9783.24c-408.32,-95.14 -2862.61,-39.94 -3474.08,-39.94l0 -1158.01c-177.74,-14.8 -727.74,-263.66 -918.41,-279.54l0.35 -1557.66c4.85,-513.27 111.65,-438.9 -679.19,-438.9l0 1756.96c-175.21,-40.81 -413.28,-156.38 -598.96,-199.65l0 -1557.31c-859.71,0 -678.85,-218.37 -678.85,1317.71l-4392.49 -1437.51 0 7666.86z"/>
   <path class="fil0 str0" d="M7129.24 13544.8l0 559.04 4671.99 0c169.04,0 100.66,-429.09 79.86,-678.84l-4232.79 -0.07c-200.31,-0.63 -519.06,-64.95 -519.06,119.87z"/>
   <path class="fil0 str0" d="M7249.03 15980.6l-119.79 0 0 638.94 4675.6 1.21c130.03,-15.29 97.4,8.32 96.08,-250.79 -0.55,-105.9 24.34,-282.39 -19.83,-389.36 -152.12,-62.83 -3890.52,0 -4632.06,0z"/>
   <path class="fil0 str0" d="M7129.24 15261.85c0,92.02 27.77,119.8 119.79,119.8l2435.81 0 0 -678.85 -2555.6 0 0 559.05z"/>
   <path class="fil0 str0" d="M11881.09 17897.34l17.02 -627.15c-6.31,-33.18 0.59,-19.76 -17.02,-51.69l-2515.7 0 -26.84 592.33c9.75,144.45 150.04,86.65 585.89,86.51 652.21,-0.21 1304.43,0 1956.65,0z"/>
   <path class="fil0 str0" d="M7129.24 12306.9c0,389.84 -54.13,559.05 119.79,559.05l1717.06 0c184.18,0 119.79,-224.44 119.79,-678.85l-1836.85 0c-92.02,0 -119.79,27.81 -119.79,119.8z"/>
   <path class="fil0 str0" d="M10283.83 14822.6l0 559.05 1357.66 0c375.76,0 219.76,19.2 268.38,-435.51 13.59,-127.29 40.95,-243.34 -108.64,-243.34l-1397.6 0c-92.02,0 -119.8,27.81 -119.8,119.8z"/>
  </g>
  <path class="fil1" d="M8956.42 5226.76c-179.04,-1586.89 987.84,-2921.91 2432.61,-3097.63 3764.83,-458.18 4311.6,5164.06 737.74,5567.16 -1738.54,196.16 -3004.58,-999.66 -3170.35,-2469.53zm-1540.51 1254.21c180.8,434.64 467,879.44 597.6,1374.03l3692.42 7871.04c325.41,-343.66 1084.93,-2152.74 1334.71,-2684.57 256.53,-546.15 1048.42,-2419.64 1311.58,-2708.12l499.16 -1075.49c295.94,-1362.2 1689.68,-2571.91 1468.21,-4831.29 -368.45,-3759.85 -4992.49,-5453.68 -7681.31,-2875.33 -1234.61,1183.78 -1838.64,2686.33 -1222.37,4929.73z"/>
 </g>
</svg>
