<?xml version="1.0" encoding="UTF-8"?>
<!DOCTYPE svg PUBLIC "-//W3C//DTD SVG 1.1//EN" "http://www.w3.org/Graphics/SVG/1.1/DTD/svg11.dtd">
<!-- Creator: CorelDRAW 2017 -->
<svg xmlns="http://www.w3.org/2000/svg" xml:space="preserve" width="118.533mm" height="118.533mm" version="1.1" style="shape-rendering:geometricPrecision; text-rendering:geometricPrecision; image-rendering:optimizeQuality; fill-rule:evenodd; clip-rule:evenodd"
viewBox="0 0 11853.32 11853.32"
 xmlns:xlink="http://www.w3.org/1999/xlink">
 <defs>
  <style type="text/css">
   <![CDATA[
    .fil5 {fill:black}
    .fil0 {fill:#00AEBE}
    .fil1 {fill:#B3B3B3}
    .fil3 {fill:#CCCCCC}
    .fil4 {fill:#DD0B29}
    .fil2 {fill:white}
   ]]>
  </style>
 </defs>
 <g id="Layer_x0020_1">
  <metadata id="CorelCorpID_0Corel-Layer"/>
  <path class="fil0" d="M6175.41 10632.79c20.62,650.5 -383.3,309.95 -648.27,412.2l-4.11 -339.28c11.49,11.55 317.64,485.73 476.42,220.4 44.99,-247.07 -135.44,-211.27 -325.19,-336.2 -167.98,-110.53 -234.43,-331.24 -4.29,-464.2 262.61,-141.5 252.93,52.3 452.41,-41.42l3.03 296.41c-364.14,-477.64 -427.87,-122.45 -426.3,-109.57 16.63,136.78 186.42,126.32 476.3,361.66zm-1853.93 -1941.19c88.65,-700.27 476.18,-1803.8 755.54,-2374.01 225.55,292.06 313.1,465.48 856.52,472.19 -119.18,303.31 -535.98,760.44 -747.31,1017.55 -241.99,294.41 -564.53,710.25 -864.75,884.27zm5441.89 -2701.98c-80.06,2137.88 -1719.45,3850.08 -3890.41,3876.56l458.52 -2911.44c220.89,104.91 706.14,482.95 936.58,660.24 259.65,199.78 629.65,491.96 911.06,644.46 -142.4,-316.18 -429.01,-621.66 -636.6,-918.98 -166.28,-238.18 -517.54,-652.87 -631.16,-912.03l2852.01 -438.81zm-6247.79 2267.58c341.33,-179.77 597.78,-460.64 921.52,-630.49 -83.63,474.25 -246.16,786.86 -271.2,1345.04 621.24,-303.13 1032.24,-1085.57 1313.11,-1267.88l330.58 2162.01c-2140.55,41.96 -4013.34,-1833.92 -3922.46,-4024.83 488.15,71.77 1009.32,193.98 1491.31,290.42l1385.91 299.5c5.26,-10.16 22.37,11 32.59,18.02 -289.94,438.2 -1126.69,1477.64 -1281.36,1808.21zm2222.35 -2995.49c852.83,-201.66 1172.89,1176.7 270.23,1373.94 -869.82,190.05 -1279.85,-1135.15 -270.23,-1373.94zm-4524.77 618.88c-4.72,-191.07 -44.63,-254.62 -124.68,-365.04l346.29 8.47c-57.5,137.2 30.11,339.22 122.57,502.66 56.9,-112.16 110.53,-206.31 133.75,-330.21 33.44,-179.04 -80,-155.64 154.86,-180.74 -109.57,217.14 -235.4,667.02 -363.23,858.16 -139.68,-196.46 -79.75,-330.22 -269.56,-493.3zm0 0l-189.99 493.3c-129.76,-177.29 -279.6,-642.47 -392.73,-860.45l326.76 15.29c-50.91,121.18 -2.06,229.18 95.06,417.59 46.31,89.8 40.15,65.13 59.43,97.05l101.47 -162.78zm8811.49 549.71c147.05,-115.73 184.42,-814.79 -5.99,-946.67l770.23 0 -23.04 277.06c-115.43,-206.62 -116.58,-202.99 -391.04,-215.21l22.8 371.21c176.93,-76.97 93,-16.44 178.62,-214.23l-4.48 478.48c-106.96,-174.39 5.08,-132.49 -206.61,-197.79l7.62 368c315.21,4.84 326.58,-37.13 464.63,-215.26 -7.56,399.02 46.98,271.56 -812.74,294.41zm-4205.87 -1363.6c142.7,-243.68 411.66,-573.71 591.37,-794.24 346.9,-425.81 358.15,-537.97 758.08,-601.59 117.36,474.31 15.72,536.83 -144.1,1009.99 -81.2,240.42 -234.85,770.05 -382.27,929.57 -169.25,-194.35 -161.75,-354.52 -582.66,-473.71 -45.11,-12.81 -82.06,-19.16 -124.75,-31.14 -59.62,-16.75 -54.06,32.54 -78.12,-25.15 -6.35,-15.3 -25.82,-7.38 -37.55,-13.73zm1148.94 -1452.12c115.07,-142.22 299.86,-346.42 484.76,-441.71l-164.35 612.05 -75.04 -211.88 -245.37 41.54zm-656.07 564.46c-89.19,84.35 -16.75,20.5 -90.52,84.35l-347.21 -2273.39c838.99,30.78 1608.98,259.41 2240.86,733.47l519.9 452.54c553.46,529.94 1203.67,1625.91 1115.44,2749.75l-2879.88 -473.03c264.61,-478.9 1004.13,-1313.48 1321.64,-1872.07 -320.72,126.8 -534.77,422.97 -855.43,563.19 100.31,-402.11 213.57,-764.43 228.32,-1199.67 -451.75,228.81 -835.54,793.33 -1171.92,1154.32 -4.71,5.02 -77.51,77.04 -81.2,80.54zm-4418.72 1592.23c-27.33,-536.1 161.57,-1116.47 374.36,-1545.49 668.89,-1348.36 1900.24,-2195.81 3557.05,-2234.99l-521.71 2862.95c-269.32,-160.85 -631.34,-446.43 -886.51,-633.64 -223.67,-164.17 -703.3,-555.51 -912.52,-639.44 246.1,432.76 909.37,1242.24 1235.11,1744.12l-2845.78 446.49zm3484.5 -3945.25c203.77,-167.68 174.26,-751.43 -1.03,-942.93 600.44,-13.55 339.04,216.35 768.9,513 0,-255.11 55.93,-364.43 -112.83,-516.33l287.82 3.33c-185.75,175.23 -109.44,668.1 -102.37,943.95 -179.04,-67.12 -478.84,-546.62 -654.01,-711.15 0,135.69 -7.92,290.6 -3.69,423.09 8.28,259.82 -26.91,184.42 121.05,290.72l-303.84 -3.68zm-4773.72 4520.6c194.16,2741.71 2605.78,5080.77 5622.86,4858.07 2752.66,-203.17 5087.42,-2591.45 4863.81,-5620.27 -203.17,-2752.17 -2589.03,-5085.91 -5621.1,-4864.47 -2756.65,201.29 -5080.53,2591.81 -4865.57,5626.67z"/>
  <path class="fil1" d="M413.54 6346.62c-199.06,-3145.03 2171.5,-5617.54 5062.45,-5819.44 3128.46,-218.53 5602.96,2192.3 5808.13,5068.01 223.49,3132.57 -2209.84,5598.13 -5068.31,5803.17 -3117.76,223.73 -5622.14,-2204.7 -5802.27,-5051.74zm-324.65 -775.74l0 652.5c140.1,461.43 18.2,1080.74 517.24,2114.61 316.66,656.01 681.4,1199.61 1084.72,1629.41 1472.87,1569.43 3201.69,1567.62 3635.9,1754.7l869.16 0c539.61,-194.22 2016.71,-37.3 3683.13,-1626.99 399.15,-380.7 797.2,-946.13 1109.27,-1554.31 556.3,-1084.18 448.01,-1658.56 619.49,-2056.56l0 -869.16c-190.05,-527.88 -61.43,-2089.15 -1651.85,-3709.07 -1574.44,-1603.65 -3218.55,-1515.31 -3715.84,-1702.82l-913.36 0c-392.43,170.94 -954.78,63.31 -2023.66,601.53 -1201.48,604.92 -2027.23,1438.94 -2646.47,2681.06 -523.53,1050.02 -439.18,1744.19 -567.73,2085.1z"/>
  <path class="fil2" d="M6911.36 6428.43c113.62,259.16 464.88,673.85 631.16,912.03 207.59,297.32 494.2,602.8 636.6,918.98 -281.41,-152.5 -651.41,-444.68 -911.06,-644.46 -230.44,-177.29 -715.69,-555.33 -936.58,-660.24l-458.52 2911.44c2170.96,-26.48 3810.35,-1738.68 3890.41,-3876.56l-2852.01 438.81z"/>
  <path class="fil2" d="M1892.93 5771.27l2845.78 -446.49c-325.74,-501.88 -989.01,-1311.36 -1235.11,-1744.12 209.22,83.93 688.85,475.27 912.52,639.44 255.17,187.21 617.19,472.79 886.51,633.64l521.71 -2862.95c-1656.81,39.18 -2888.16,886.63 -3557.05,2234.99 -212.79,429.02 -401.69,1009.39 -374.36,1545.49z"/>
  <path class="fil2" d="M5809.59 9865.88l-330.58 -2162.01c-280.87,182.31 -691.87,964.75 -1313.11,1267.88 25.04,-558.18 187.57,-870.79 271.2,-1345.04 -323.74,169.85 -580.19,450.72 -921.52,630.49 154.67,-330.57 991.42,-1370.01 1281.36,-1808.21 -10.22,-7.02 -27.33,-28.18 -32.59,-18.02l-1385.91 -299.5c-481.99,-96.44 -1003.16,-218.65 -1491.31,-290.42 -90.88,2190.91 1781.91,4066.79 3922.46,4024.83z"/>
  <path class="fil2" d="M6221.13 4263.39c73.77,-63.85 1.33,0 90.52,-84.35 3.69,-3.5 76.49,-75.52 81.2,-80.54 336.38,-360.99 720.17,-925.51 1171.92,-1154.32 -14.75,435.24 -128.01,797.56 -228.32,1199.67 320.66,-140.22 534.71,-436.39 855.43,-563.19 -317.51,558.59 -1057.03,1393.17 -1321.64,1872.07l2879.88 473.03c88.23,-1123.84 -561.98,-2219.81 -1115.44,-2749.75l-519.9 -452.54c-631.88,-474.06 -1401.87,-702.69 -2240.86,-733.47l347.21 2273.39z"/>
  <path class="fil2" d="M603.71 6346.62c-214.96,-3034.86 2108.92,-5425.38 4865.57,-5626.67 3032.07,-221.44 5417.93,2112.3 5621.1,4864.47 223.61,3028.82 -2111.15,5417.1 -4863.81,5620.27 -3017.08,222.7 -5428.7,-2116.36 -5622.86,-4858.07zm-190.17 0c180.13,2847.04 2684.51,5275.47 5802.27,5051.74 2858.47,-205.04 5291.8,-2670.6 5068.31,-5803.17 -205.17,-2875.71 -2679.67,-5286.54 -5808.13,-5068.01 -2890.95,201.9 -5261.51,2674.41 -5062.45,5819.44z"/>
  <path class="fil3" d="M4321.48 8691.6c300.22,-174.02 622.76,-589.86 864.75,-884.27 211.33,-257.11 628.13,-714.24 747.31,-1017.55 -543.42,-6.71 -630.97,-180.13 -856.52,-472.19 -279.36,570.21 -666.89,1673.74 -755.54,2374.01z"/>
  <path class="fil4" d="M5818.78 5066.7c11.73,6.35 31.2,-1.57 37.55,13.73 24.06,57.69 18.5,8.4 78.12,25.15 42.69,11.98 79.64,18.33 124.75,31.14 420.91,119.19 413.41,279.36 582.66,473.71 147.42,-159.52 301.07,-689.15 382.27,-929.57 159.82,-473.16 261.46,-535.68 144.1,-1009.99 -399.93,63.62 -411.18,175.78 -758.08,601.59 -179.71,220.53 -448.67,550.56 -591.37,794.24z"/>
  <path class="fil2" d="M6129.94 5772.48c79.34,625.59 -464.15,565.19 -556.54,303.67 -146.81,-415.6 261.4,-522.56 556.54,-303.67zm-392.01 -510.77c-1009.62,238.79 -599.59,1563.99 270.23,1373.94 902.66,-197.24 582.6,-1575.6 -270.23,-1373.94z"/>
  <path class="fil5" d="M10024.65 6430.3c859.72,-22.85 805.18,104.61 812.74,-294.41 -138.05,178.13 -149.42,220.1 -464.63,215.26l-7.62 -368c211.69,65.3 99.65,23.4 206.61,197.79l4.48 -478.48c-85.62,197.79 -1.69,137.26 -178.62,214.23l-22.8 -371.21c274.46,12.22 275.61,8.59 391.04,215.21l23.04 -277.06 -770.23 0c190.41,131.88 153.04,830.94 5.99,946.67z"/>
  <path class="fil5" d="M5377.43 1826.02l303.84 3.68c-147.96,-106.3 -112.77,-30.9 -121.05,-290.72 -4.23,-132.49 3.69,-287.4 3.69,-423.09 175.17,164.53 474.97,644.03 654.01,711.15 -7.07,-275.85 -83.38,-768.72 102.37,-943.95l-287.82 -3.33c168.76,151.9 112.83,261.22 112.83,516.33 -429.86,-296.65 -168.46,-526.55 -768.9,-513 175.29,191.5 204.8,775.25 1.03,942.93z"/>
  <path class="fil5" d="M6175.41 10632.79c-289.88,-235.34 -459.67,-224.88 -476.3,-361.66 -1.57,-12.88 62.16,-368.07 426.3,109.57l-3.03 -296.41c-199.48,93.72 -189.8,-100.08 -452.41,41.42 -230.14,132.96 -163.69,353.67 4.29,464.2 189.75,124.93 370.18,89.13 325.19,336.2 -158.78,265.33 -464.93,-208.85 -476.42,-220.4l4.11 339.28c264.97,-102.25 668.89,238.3 648.27,-412.2z"/>
  <path class="fil5" d="M6129.94 5772.48c-295.14,-218.89 -703.35,-111.93 -556.54,303.67 92.39,261.52 635.88,321.92 556.54,-303.67z"/>
  <path class="fil5" d="M1213.16 5880.59c189.81,163.08 129.88,296.84 269.56,493.3 127.83,-191.14 253.66,-641.02 363.23,-858.16 -234.86,25.1 -121.42,1.7 -154.86,180.74 -23.22,123.9 -76.85,218.05 -133.75,330.21 -92.46,-163.44 -180.07,-365.46 -122.57,-502.66l-346.29 -8.47c80.05,110.42 119.96,173.97 124.68,365.04z"/>
  <path class="fil5" d="M1213.16 5880.59l-101.47 162.78c-19.28,-31.92 -13.12,-7.25 -59.43,-97.05 -97.12,-188.41 -145.97,-296.41 -95.06,-417.59l-326.76 -15.29c113.13,217.98 262.97,683.16 392.73,860.45l189.99 -493.3z"/>
  <path class="fil4" d="M6967.72 3614.58l245.37 -41.54 75.04 211.88 164.35 -612.05c-184.9,95.29 -369.69,299.49 -484.76,441.71z"/>
 </g>
</svg>
