<?xml version="1.0" encoding="UTF-8"?>
<!DOCTYPE svg PUBLIC "-//W3C//DTD SVG 1.1//EN" "http://www.w3.org/Graphics/SVG/1.1/DTD/svg11.dtd">
<!-- Creator: CorelDRAW 2017 -->
<svg xmlns="http://www.w3.org/2000/svg" xml:space="preserve" width="118.533mm" height="118.533mm" version="1.1" style="shape-rendering:geometricPrecision; text-rendering:geometricPrecision; image-rendering:optimizeQuality; fill-rule:evenodd; clip-rule:evenodd"
viewBox="0 0 11853.32 11853.32"
 xmlns:xlink="http://www.w3.org/1999/xlink">
 <defs>
  <style type="text/css">
   <![CDATA[
    .fil5 {fill:black}
    .fil0 {fill:#00AEBE}
    .fil8 {fill:#5A0904}
    .fil7 {fill:#771106}
    .fil13 {fill:#9CA4AB}
    .fil1 {fill:#B3B3B3}
    .fil10 {fill:#C6CBCF}
    .fil3 {fill:#CCCCCC}
    .fil11 {fill:#DCDFE1}
    .fil4 {fill:#DD0B29}
    .fil12 {fill:#E4E6E8}
    .fil6 {fill:#E7321B}
    .fil9 {fill:#ED5442}
    .fil2 {fill:white}
   ]]>
  </style>
 </defs>
 <g id="Layer_x0020_1">
  <metadata id="CorelCorpID_0Corel-Layer"/>
  <path class="fil0" d="M5976.14 10083.39c19.4,612.01 -360.62,291.61 -609.91,387.81l-3.87 -319.2c10.81,10.87 298.85,456.99 448.23,207.36 42.33,-232.45 -127.42,-198.77 -305.94,-316.31 -158.05,-103.99 -220.56,-311.64 -4.04,-436.73 247.07,-133.13 237.96,49.2 425.64,-38.97l2.85 278.87c-342.59,-449.38 -402.55,-115.2 -401.08,-103.09 15.65,128.69 175.39,118.85 448.12,340.26zm-1744.23 -1826.32c83.4,-658.83 448,-1697.07 710.83,-2233.54 212.21,274.78 294.58,437.94 805.84,444.25 -112.12,285.37 -504.26,715.45 -703.09,957.35 -227.67,276.99 -531.13,668.22 -813.58,831.94zm5119.88 -2542.1c-75.32,2011.38 -1617.71,3622.26 -3660.2,3647.17l431.39 -2739.16c207.82,98.71 664.36,454.38 881.16,621.18 244.29,187.96 592.39,462.85 857.15,606.32 -133.97,-297.47 -403.62,-584.87 -598.93,-864.6 -156.44,-224.09 -486.92,-614.24 -593.81,-858.07l2683.25 -412.84 -0.01 0zm-5878.1 2133.41c321.14,-169.14 562.41,-433.39 867,-593.19 -78.68,446.19 -231.6,740.3 -255.16,1265.46 584.49,-285.2 971.17,-1021.34 1235.42,-1192.86l311.02 2034.08c-2013.9,39.48 -3775.86,-1725.41 -3690.36,-3786.67 459.26,67.52 949.6,182.5 1403.07,273.24l1303.9 281.77c4.95,-9.56 21.05,10.35 30.67,16.96 -272.79,412.27 -1060.03,1390.21 -1205.55,1701.22l-0.01 -0.01zm2090.86 -2818.25c802.37,-189.73 1103.49,1107.07 254.24,1292.64 -818.35,178.81 -1204.12,-1067.98 -254.24,-1292.64zm-4257.03 582.26c-4.44,-179.76 -41.99,-239.55 -117.31,-343.44l325.8 7.97c-54.09,129.08 28.33,319.15 115.32,472.92 53.53,-105.53 103.99,-194.11 125.84,-310.68 31.46,-168.44 -75.27,-146.43 145.69,-170.04 -103.08,204.29 -221.47,627.55 -341.73,807.38 -131.42,-184.83 -75.03,-310.68 -253.61,-464.11zm0 0l-178.75 464.11c-122.08,-166.8 -263.06,-604.45 -369.49,-809.54l307.42 14.39c-47.9,114.01 -1.94,215.62 89.44,392.88 43.57,84.49 37.77,61.28 55.91,91.31l95.47 -153.15zm8290.09 517.18c138.35,-108.88 173.51,-766.58 -5.63,-890.65l724.65 0 -21.67 260.66c-108.6,-194.39 -109.68,-190.97 -367.9,-202.47l21.45 349.24c166.46,-72.41 87.49,-15.46 168.05,-201.55l-4.22 450.17c-100.63,-164.07 4.78,-124.65 -194.38,-186.09l7.17 346.23c296.56,4.55 307.25,-34.94 437.14,-202.53 -7.12,375.41 44.2,255.5 -764.66,276.99zm-3957 -1282.91c134.26,-229.26 387.31,-539.77 556.38,-747.25 326.38,-400.61 336.96,-506.14 713.23,-565.99 110.41,446.24 14.79,505.06 -135.58,950.23 -76.39,226.19 -220.95,724.48 -359.65,874.57 -159.23,-182.85 -152.18,-333.55 -548.18,-445.69 -42.44,-12.05 -77.21,-18.02 -117.37,-29.29 -56.09,-15.76 -50.86,30.61 -73.5,-23.66 -5.97,-14.4 -24.29,-6.95 -35.33,-12.92zm1080.96 -1366.2c108.26,-133.81 282.12,-325.92 456.08,-415.57l-154.63 575.83 -70.6 -199.34 -230.85 39.08zm-617.25 531.06c-83.91,79.36 -15.76,19.29 -85.16,79.36l-326.67 -2138.87c789.35,28.95 1513.78,244.06 2108.27,690.07l489.14 425.76c520.71,498.58 1132.45,1529.7 1049.44,2587.05l-2709.47 -445.04c248.95,-450.57 944.71,-1235.77 1243.44,-1761.3 -301.75,119.29 -503.13,397.94 -804.82,529.86 94.38,-378.31 200.94,-719.2 214.81,-1128.68 -425.02,215.27 -786.1,746.39 -1102.57,1086.02 -4.44,4.72 -72.93,72.48 -76.4,75.77l-0.01 0zm-4157.26 1498.02c-25.71,-504.38 152.01,-1050.41 352.21,-1454.05 629.32,-1268.57 1787.81,-2065.88 3346.58,-2102.74l-490.85 2693.55c-253.38,-151.33 -593.98,-420.02 -834.05,-596.15 -210.44,-154.46 -661.69,-522.64 -858.53,-601.6 231.54,407.15 855.57,1168.73 1162.03,1640.92l-2677.39 420.07 0 0zm3278.32 -3711.8c191.71,-157.76 163.95,-706.97 -0.97,-887.14 564.91,-12.75 318.98,203.55 723.4,482.65 0,-240.02 52.62,-342.87 -106.15,-485.78l270.79 3.13c-174.76,164.86 -102.96,628.57 -96.31,888.1 -168.45,-63.15 -450.51,-514.28 -615.32,-669.07 0,127.66 -7.45,273.4 -3.47,398.05 7.79,244.45 -25.31,173.51 113.89,273.52l-285.86 -3.46zm-4491.25 4253.11c182.67,2579.48 2451.59,4780.13 5290.15,4570.61 2589.78,-191.15 4786.38,-2438.12 4576.01,-5287.72 -191.15,-2589.32 -2435.84,-4784.96 -5288.5,-4576.63 -2593.54,189.38 -4779.9,2438.46 -4577.66,5293.74z"/>
  <path class="fil1" d="M555.21 6050.85c-187.28,-2958.93 2043.01,-5285.15 4762.9,-5475.1 2943.34,-205.6 5271.42,2062.58 5464.45,4768.13 210.27,2947.2 -2079.08,5266.88 -4768.41,5459.79 -2933.27,210.49 -5289.47,-2074.25 -5458.94,-4752.82zm-305.44 -729.84l0 613.89c131.81,434.12 17.12,1016.79 486.63,1989.49 297.93,617.19 641.09,1128.63 1020.54,1532.99 1385.72,1476.57 3012.24,1474.87 3420.76,1650.88l817.73 0c507.68,-182.73 1897.38,-35.09 3465.19,-1530.72 375.53,-358.18 750.03,-890.15 1043.64,-1462.34 523.38,-1020.03 421.5,-1560.43 582.83,-1934.88l0 -817.73c-178.8,-496.65 -57.8,-1965.54 -1554.11,-3489.6 -1481.28,-1508.76 -3028.1,-1425.65 -3495.97,-1602.06l-859.31 0c-369.21,160.83 -898.29,59.56 -1903.92,565.94 -1130.39,569.12 -1907.28,1353.8 -2489.88,2522.42 -492.56,987.89 -413.2,1640.99 -534.14,1961.73l0.01 -0.01z"/>
  <path class="fil2" d="M6668.55 6127.81c106.89,243.83 437.37,633.98 593.81,858.07 195.31,279.73 464.96,567.13 598.93,864.6 -264.76,-143.47 -612.86,-418.36 -857.15,-606.32 -216.8,-166.8 -673.34,-522.47 -881.16,-621.18l-431.39 2739.16c2042.5,-24.91 3584.88,-1635.8 3660.2,-3647.17l-2683.25 412.84 0.01 0z"/>
  <path class="fil2" d="M1947.06 5509.54l2677.4 -420.07c-306.47,-472.19 -930.49,-1233.77 -1162.03,-1640.92 196.84,78.96 648.09,447.14 858.53,601.6 240.07,176.13 580.67,444.82 834.05,596.15l490.84 -2693.55c-1558.77,36.86 -2717.25,834.17 -3346.57,2102.74 -200.2,403.64 -377.92,949.67 -352.21,1454.05l-0.01 0z"/>
  <path class="fil2" d="M5631.97 9361.86l-311.02 -2034.08c-264.25,171.52 -650.93,907.66 -1235.42,1192.86 23.56,-525.15 176.48,-819.27 255.16,-1265.46 -304.59,159.8 -545.86,424.05 -867,593.19 145.52,-311.01 932.76,-1288.95 1205.55,-1701.22 -9.62,-6.61 -25.72,-26.51 -30.67,-16.95l-1303.9 -281.78c-453.47,-90.74 -943.81,-205.72 -1403.07,-273.24 -85.5,2061.27 1676.47,3826.15 3690.36,3786.67l0.01 0.01z"/>
  <path class="fil2" d="M6019.16 4090.88c69.4,-60.07 1.25,0 85.16,-79.36 3.47,-3.29 71.97,-71.05 76.4,-75.77 316.47,-339.63 677.55,-870.75 1102.57,-1086.02 -13.87,409.48 -120.43,750.37 -214.81,1128.68 301.69,-131.92 503.08,-410.57 804.82,-529.86 -298.72,525.53 -994.49,1310.73 -1243.44,1761.3l2709.47 445.04c83.01,-1057.35 -528.73,-2088.47 -1049.44,-2587.05l-489.14 -425.76c-594.49,-446.01 -1318.92,-661.12 -2108.27,-690.07l326.67 2138.87 0.01 0z"/>
  <path class="fil2" d="M734.13 6050.85c-202.24,-2855.28 1984.13,-5104.36 4577.66,-5293.74 2852.66,-208.33 5097.35,1987.32 5288.5,4576.63 210.37,2849.6 -1986.24,5096.57 -4576.01,5287.72 -2838.56,209.52 -5107.48,-1991.14 -5290.15,-4570.61zm-178.92 0c169.47,2678.58 2525.67,4963.31 5458.94,4752.82 2689.34,-192.91 4978.68,-2512.59 4768.41,-5459.79 -193.03,-2705.56 -2521.11,-4973.73 -5464.45,-4768.13 -2719.89,189.95 -4950.18,2516.17 -4762.9,5475.1z"/>
  <path class="fil3" d="M4231.91 8257.07c282.45,-163.72 585.91,-554.95 813.58,-831.94 198.83,-241.9 590.97,-671.98 703.09,-957.35 -511.26,-6.31 -593.63,-169.47 -805.84,-444.25 -262.83,536.47 -627.43,1574.71 -710.83,2233.54z"/>
  <path class="fil4" d="M5640.61 4846.66c11.04,5.97 29.36,-1.48 35.33,12.92 22.64,54.27 17.41,7.9 73.5,23.66 40.16,11.27 74.93,17.24 117.37,29.29 396,112.14 388.95,262.84 548.18,445.69 138.7,-150.09 283.26,-648.38 359.65,-874.57 150.37,-445.17 245.99,-503.99 135.58,-950.23 -376.27,59.85 -386.85,165.38 -713.23,565.99 -169.07,207.48 -422.12,517.99 -556.38,747.25z"/>
  <path class="fil2" d="M5933.36 5510.68c74.65,588.57 -436.68,531.74 -523.61,285.7 -138.12,-391.01 245.94,-491.64 523.61,-285.7zm-368.81 -480.55c-949.88,224.66 -564.11,1471.45 254.24,1292.64 849.25,-185.57 548.13,-1482.37 -254.24,-1292.64z"/>
  <path class="fil5" d="M9597.61 6129.57c808.86,-21.49 757.54,98.42 764.66,-276.99 -129.89,167.59 -140.58,207.08 -437.14,202.53l-7.17 -346.23c199.16,61.44 93.75,22.02 194.38,186.09l4.22 -450.17c-80.56,186.09 -1.59,129.14 -168.05,201.55l-21.45 -349.24c258.22,11.5 259.3,8.08 367.9,202.47l21.67 -260.66 -724.65 0c179.14,124.07 143.98,781.77 5.63,890.65z"/>
  <path class="fil5" d="M5225.38 1797.74l285.86 3.46c-139.2,-100.01 -106.1,-29.07 -113.89,-273.52 -3.98,-124.65 3.47,-270.39 3.47,-398.05 164.81,154.79 446.87,605.92 615.32,669.07 -6.65,-259.53 -78.45,-723.24 96.31,-888.1l-270.79 -3.13c158.77,142.91 106.15,245.76 106.15,485.78 -404.42,-279.1 -158.49,-495.4 -723.4,-482.65 164.92,180.17 192.68,729.38 0.97,887.14z"/>
  <path class="fil5" d="M5976.14 10083.39c-272.73,-221.41 -432.47,-211.57 -448.12,-340.26 -1.47,-12.11 58.49,-346.29 401.08,103.09l-2.85 -278.87c-187.68,88.17 -178.57,-94.16 -425.64,38.97 -216.52,125.09 -154.01,332.74 4.04,436.73 178.52,117.54 348.27,83.86 305.94,316.31 -149.38,249.63 -437.42,-196.49 -448.23,-207.36l3.87 319.2c249.29,-96.2 629.31,224.2 609.91,-387.81z"/>
  <path class="fil5" d="M5933.36 5510.68c-277.67,-205.94 -661.73,-105.31 -523.61,285.7 86.93,246.04 598.26,302.87 523.61,-285.7z"/>
  <path class="fil5" d="M1307.52 5612.39c178.58,153.43 122.19,279.28 253.61,464.11 120.26,-179.83 238.65,-603.09 341.73,-807.38 -220.96,23.61 -114.23,1.6 -145.69,170.04 -21.85,116.57 -72.31,205.15 -125.84,310.68 -86.99,-153.77 -169.41,-343.84 -115.32,-472.92l-325.8 -7.97c75.32,103.89 112.87,163.68 117.31,343.44z"/>
  <path class="fil5" d="M1307.52 5612.39l-95.47 153.15c-18.14,-30.03 -12.34,-6.82 -55.91,-91.31 -91.38,-177.26 -137.34,-278.87 -89.44,-392.88l-307.42 -14.39c106.43,205.09 247.41,642.74 369.49,809.54l178.75 -464.11z"/>
  <path class="fil4" d="M6721.57 3480.46l230.85 -39.08 70.6 199.34 154.63 -575.83c-173.96,89.65 -347.82,281.76 -456.08,415.57z"/>
  <g id="_721620976">
   <path class="fil6" d="M8043.52 5739.24c142.67,-366.53 19.57,-447.65 339.4,-721.59 276.63,-325.29 815.78,-506.04 1353.76,-257.59 413.42,190.93 672.65,570.53 660.35,1187.99 -24.67,221.75 -98.64,413.93 -212.61,557.37 -107.09,134.88 -282.48,216.73 -364.2,340.91 -41.72,124.23 39.83,43.16 -137.64,118.82 -431.81,184.05 -797,98.95 -1184.57,-120.46 -253,-143.23 -222.74,-203.09 -311.61,-356.75 -140.89,-243.74 -210.75,-505.96 -158.55,-822.45l15.67 73.75zm1167.17 5171.17l48.82 4.33 34.11 -76.01c5.02,-150.15 679.05,-2314.51 801.98,-2629.71 86.61,-222.09 219.19,-119.94 688.48,-480.98 1753.77,-1349.09 860.67,-4401.52 -1568.2,-4380.62 -1849.42,15.89 -2963.6,1954.87 -2194.52,3539.43 255.25,525.95 679.04,920.75 1166.04,1146.26 220.49,102.11 129.55,-16.58 293.12,507.77 111.33,356.97 708.61,2170.29 730.17,2369.53z"/>
   <path class="fil7" d="M8382.92 5017.65c-319.83,273.94 -196.73,355.06 -339.4,721.59 19.87,261.31 37.44,423.76 155.05,630.01 123.7,216.99 185.73,290.4 387.78,419.77 461.81,295.64 722.55,213.01 1233.87,57.31 81.72,-124.18 257.11,-206.03 364.2,-340.91 113.97,-143.44 187.94,-335.62 212.61,-557.37 -57.48,-62.72 -14.32,3.72 -48.35,-86.79l-52.24 -272c-140.8,-530.67 -723.85,-911.4 -1321.43,-804.53 -456.14,81.55 -381.13,237.16 -592.09,232.92z"/>
   <path class="fil8" d="M8382.92 5017.65c210.96,4.24 135.95,-151.37 592.09,-232.92 597.58,-106.87 1180.63,273.86 1321.43,804.53l52.24 272c34.03,90.51 -9.13,24.07 48.35,86.79 12.3,-617.46 -246.93,-997.06 -660.35,-1187.99 -537.98,-248.45 -1077.13,-67.7 -1353.76,257.59z"/>
   <path class="fil9" d="M9820.22 6846.33c-511.32,155.7 -772.06,238.33 -1233.87,-57.31 -202.05,-129.37 -264.08,-202.78 -387.78,-419.77 -117.61,-206.25 -135.18,-368.7 -155.05,-630.01l-15.67 -73.75c-52.2,316.49 17.66,578.71 158.55,822.45 88.87,153.66 58.61,213.52 311.61,356.75 387.57,219.41 752.76,304.51 1184.57,120.46 177.47,-75.66 95.92,5.41 137.64,-118.82z"/>
   <path class="fil10" d="M9527.23 11123.59c-105.74,58.95 -406.14,48.99 -527.47,22.59 -129.33,-28.18 -117.56,-46.57 -159.33,-85.23 198.72,-76.83 552.7,-83.36 751.68,0 -53.19,60.12 11.6,20 -64.88,62.64zm193.66 55.7l10.21 25.24 146.61 -134.23c-183.4,-159.16 -465.75,-60.51 -618.2,-155.56l-48.82 -4.33c-144.31,122.36 -320.52,-8.14 -643.12,170.84 443.62,212.23 642.17,113.88 1153.32,98.04z"/>
   <path class="fil11" d="M9720.89 11179.29c-511.15,15.84 -709.7,114.19 -1153.32,-98.04 322.6,-178.98 498.81,-48.48 643.12,-170.84 -399.91,-47.96 -605.38,57.39 -877.34,119.9 26.54,106.43 -5.54,77.74 97.27,130.76 135.17,69.73 1121.37,193.91 1290.27,18.22z"/>
   <path class="fil12" d="M9259.51 10914.74c152.45,95.05 434.8,-3.6 618.2,155.56l-146.61 134.23c207.07,22.72 288.8,-19.91 416.4,-82.5 -48.18,-110.29 -12.42,-145.31 -390.26,-201.88 -124.31,-18.61 -404.79,22.81 -463.62,-81.42l-34.11 76.01z"/>
   <path class="fil13" d="M8840.43 11060.95c41.77,38.66 30,57.05 159.33,85.23 121.33,26.4 421.73,36.36 527.47,-22.59 76.48,-42.64 11.69,-2.52 64.88,-62.64 -198.98,-83.36 -552.96,-76.83 -751.68,0z"/>
  </g>
 </g>
</svg>
