<?xml version="1.0" encoding="UTF-8"?>
<!DOCTYPE svg PUBLIC "-//W3C//DTD SVG 1.1//EN" "http://www.w3.org/Graphics/SVG/1.1/DTD/svg11.dtd">
<!-- Creator: CorelDRAW 2017 -->
<svg xmlns="http://www.w3.org/2000/svg" xml:space="preserve" width="132.417mm" height="118.533mm" version="1.1" style="shape-rendering:geometricPrecision; text-rendering:geometricPrecision; image-rendering:optimizeQuality; fill-rule:evenodd; clip-rule:evenodd"
viewBox="0 0 13241.74 11853.32"
 xmlns:xlink="http://www.w3.org/1999/xlink">
 <defs>
  <style type="text/css">
   <![CDATA[
    .str0 {stroke:#DD0B29;stroke-width:7.62;stroke-miterlimit:22.9256}
    .fil3 {fill:black}
    .fil4 {fill:#CCCCCC}
    .fil1 {fill:#DD0B29}
    .fil0 {fill:#FCD5A6}
    .fil2 {fill:red}
   ]]>
  </style>
 </defs>
 <g id="Layer_x0020_1">
  <metadata id="CorelCorpID_0Corel-Layer"/>
  <path class="fil0" d="M8445.18 5049.61l956.74 0c50.89,111.95 346.06,203.55 702.29,203.55 356.24,0 651.41,-91.6 692.11,-203.55l1017.81 0c162.86,0 295.17,91.6 295.17,203.55l0 712.48c0,122.14 -132.31,213.74 -295.17,213.74l-3368.94 0c-162.84,0 -284.98,-91.6 -284.98,-213.74l0 -712.48c0,-111.95 122.14,-203.55 284.98,-203.55l-0.01 0z"/>
  <ellipse class="fil0" cx="9310.33" cy="6047.07" rx="702.29" ry="661.57"/>
  <ellipse class="fil0" cx="10755.63" cy="6047.07" rx="702.29" ry="661.57"/>
  <polygon class="fil1" points="8160.2,5874.05 8862.49,5466.92 10053.33,5955.47 11254.35,5293.89 12160.19,5874.05 11997.34,6739.18 12557.53,12064.99 6541.89,12031.78 8363.76,6952.92 "/>
  <rect class="fil2 str0" x="8770.9" y="5049.62" width="179.45" height="816.08"/>
  <rect class="fil2 str0" x="11254.34" y="5049.62" width="179.45" height="816.08"/>
  <path class="fil0" d="M10114.4 194.67c1170.48,0 2066.14,895.69 2066.14,2157.76 0,1160.3 -895.67,2147.57 -2066.14,2147.57 -1251.91,0 -2157.75,-987.28 -2157.75,-2147.57 0,-1262.08 905.84,-2157.76 2157.75,-2157.76z"/>
  <path class="fil3" d="M10063.51 11.47l0 10.17c-1201.03,71.25 -2758.26,844.79 -2381.68,3623.4l824.43 0c-458.02,-732.82 -407.13,-1781.17 335.87,-2452.92l-30.53 539.45 580.16 40.71c0,-193.39 20.36,-549.61 40.71,-753.19l10.18 753.19 1964.35 -40.71 -30.52 -539.45c743,671.76 793.9,1720.11 325.7,2452.92l834.61 0c376.59,-2778.62 -1180.66,-3552.15 -2381.67,-3623.4l0 -10.17c-10.19,0 -30.53,10.17 -50.89,10.17 -10.19,0 -30.54,-10.17 -40.71,-10.17l-0.01 0z"/>
  <circle class="fil1" cx="8231.44" cy="3248.1" r="254.45"/>
  <circle class="fil1" cx="11956.63" cy="3248.1" r="254.45"/>
  <path class="fil0" d="M4232.95 386.97c1233.05,0 2232.46,999.56 2232.46,2232.68 0,1232.93 -999.42,2232.48 -2232.46,2232.48 -97.11,0 -192.79,-6.22 -286.64,-18.25 -1097.63,-140.69 -1945.91,-1078.4 -1945.91,-2214.23 0,-1233.18 999.51,-2232.66 2232.55,-2232.68z"/>
  <path class="fil3" d="M4232.95 386.97c1007.69,0 1859.03,667.67 2136.75,1584.68 39.26,448.21 -2284.51,-221.95 -2850.48,-1094.65 -119.88,154.51 -1173.73,989.83 -1405.8,1039.64 294.6,-888.73 1132.1,-1529.65 2119.52,-1529.67l0.01 0z"/>
  <path class="fil4" d="M1600.5 5291.83l615.55 11.37 889.51 4.23 2913.63 13.86 88.1 -8.03 -3.22 -4.45 0.04 -0.07 715.56 -16.91c476.52,-11.35 866.51,403.7 866.51,897.01l0 4724 -6952.3 0 0 -4724.04c0,-493.45 390.26,-909.08 866.69,-896.97l-0.02 0 -0.01 0 -0.02 0 -0.01 0 -0.01 0z"/>
  <rect class="fil4" x="733.83" y="10815.97" width="6948.59" height="1169.97"/>
  <path class="fil2" d="M4232.82 11486.73l1169.82 -1187.26c49.34,-50.53 103.82,-96.04 146.76,-146.35 65.81,-77.09 48.18,-80.01 12.12,-190.76l-1040.11 -3414.46c-68.42,-230.74 425.5,-643.48 651.21,-1051.56l-825.7 -478.34 -1166.63 478.7 594.16 594.12c71.02,72.15 267.74,228.63 284.35,297.57 14.59,60.74 -844.77,2937.35 -1003.36,3432.48 -67.52,210.67 25.99,231.47 137.92,378.4l1039.46 1287.46z"/>
 </g>
</svg>
