<?xml version="1.0" encoding="UTF-8"?>
<!DOCTYPE svg PUBLIC "-//W3C//DTD SVG 1.1//EN" "http://www.w3.org/Graphics/SVG/1.1/DTD/svg11.dtd">
<!-- Creator: CorelDRAW 2017 -->
<svg xmlns="http://www.w3.org/2000/svg" xml:space="preserve" width="118.533mm" height="118.533mm" version="1.1" style="shape-rendering:geometricPrecision; text-rendering:geometricPrecision; image-rendering:optimizeQuality; fill-rule:evenodd; clip-rule:evenodd"
viewBox="0 0 11853.32 11853.32"
 xmlns:xlink="http://www.w3.org/1999/xlink">
 <defs>
  <style type="text/css">
   <![CDATA[
    .str1 {stroke:#4D4D4D;stroke-width:42.33;stroke-miterlimit:22.9256}
    .str0 {stroke:black;stroke-width:20;stroke-miterlimit:22.9256}
    .fil4 {fill:none}
    .fil3 {fill:black}
    .fil5 {fill:#1A1A1A}
    .fil6 {fill:#666666}
    .fil8 {fill:#990000}
    .fil9 {fill:#D42626}
    .fil0 {fill:#E6E6E6}
    .fil2 {fill:#FCD5A6}
    .fil7 {fill:red}
    .fil1 {fill:white}
   ]]>
  </style>
   <clipPath id="id0">
    <path d="M7534.98 5015.37l82.83 0 0 -19.12 -82.83 0 0 19.12z"/>
   </clipPath>
   <clipPath id="id1">
    <path d="M7550.91 4999.44l82.83 0 0 -19.12 -82.83 0 0 19.12z"/>
   </clipPath>
   <clipPath id="id2">
    <path d="M7565.59 4984.93l68.6 0 0 -21.03 -68.6 0 0 21.03z"/>
   </clipPath>
   <clipPath id="id3">
    <path d="M7566.84 4967.59l82.83 0 0 -19.12 -82.83 0 0 19.12z"/>
   </clipPath>
   <clipPath id="id4">
    <path d="M7582.77 4951.66l82.82 0 0 -19.12 -82.82 0 0 19.12z"/>
   </clipPath>
   <clipPath id="id5">
    <path d="M7598.69 4935.73l82.83 0 0 -19.12 -82.83 0 0 19.12z"/>
   </clipPath>
   <clipPath id="id6">
    <path d="M7613.28 4921l68.59 0 0 -20.96 -68.59 0 0 20.96z"/>
   </clipPath>
   <clipPath id="id7">
    <path d="M7614.63 4903.88l82.82 0 0 -19.13 -82.82 0 0 19.13z"/>
   </clipPath>
   <clipPath id="id8">
    <path d="M5214.36 5052.35l84.51 0 0 -21.03 -84.51 0 0 21.03z"/>
   </clipPath>
   <clipPath id="id9">
    <path d="M7630.55 4887.94l82.83 0 0 -19.12 -82.83 0 0 19.12z"/>
   </clipPath>
   <clipPath id="id10">
    <path d="M7645.05 4873.07l68.61 0 0 -21.03 -68.61 0 0 21.03z"/>
   </clipPath>
   <clipPath id="id11">
    <path d="M7662.41 4856.09l50.97 0 0 -19.12 -50.97 0 0 19.12z"/>
   </clipPath>
   <clipPath id="id12">
    <path d="M5214.36 5004.45l52.71 0 0 -21.01 -52.71 0 0 21.01z"/>
   </clipPath>
   <clipPath id="id13">
    <path d="M7660.96 4841.16l36.82 0 0 -21.02 -36.82 0 0 21.02z"/>
   </clipPath>
   <clipPath id="id14">
    <path d="M7662.41 4824.23l19.11 0 0 -19.12 -19.11 0 0 19.12z"/>
   </clipPath>
   <clipPath id="id15">
    <path d="M7645.05 4809.2l20.93 0 0 -37 -20.93 0 0 37z"/>
   </clipPath>
   <clipPath id="id16">
    <path d="M7630.55 4776.44l19.12 0 0 -19.12 -19.12 0 0 19.12z"/>
   </clipPath>
   <clipPath id="id17">
    <path d="M7322.58 5136.71l90.8 0 0 -21.01 -90.8 0 0 21.01z"/>
   </clipPath>
   <clipPath id="id18">
    <path d="M7339.67 5120.74l73.71 0 0 -36.99 -73.71 0 0 36.99z"/>
   </clipPath>
   <clipPath id="id19">
    <path d="M7356.76 5088.84l56.62 0 0 -21.02 -56.62 0 0 21.02z"/>
   </clipPath>
 </defs>
 <g id="Layer_x0020_1">
  <metadata id="CorelCorpID_0Corel-Layer"/>
  <circle class="fil0" cx="5923.42" cy="6026.55" r="5892.79"/>
  <rect class="fil1" x="4963.16" y="4450.36" width="2649.87" height="3868.23"/>
  <path class="fil2" d="M6321.94 1291.16c874.57,0 1583.43,708.96 1583.43,1583.58 0,874.48 -708.86,1583.44 -1583.43,1583.44 -68.88,0 -136.74,-4.41 -203.31,-12.94 -778.51,-99.79 -1380.17,-764.88 -1380.17,-1570.5 0,-874.66 708.92,-1583.56 1583.48,-1583.58z"/>
  <path class="fil3" d="M6321.94 1291.16c714.73,0 1318.56,473.56 1515.54,1123.97 27.85,317.9 -1620.35,-157.42 -2021.77,-776.4 -85.03,109.58 -832.48,702.05 -997.08,737.38 208.95,-630.35 802.95,-1084.93 1503.31,-1084.95z"/>
  <g>
  </g>
  <g style="clip-path:url(#id0)">
   <g>
   </g>
  </g>
  <polygon class="fil4" points="7534.98,5015.37 7617.81,5015.37 7617.81,4996.25 7534.98,4996.25 "/>
  <polygon class="fil4" points="7534.98,5015.37 7617.81,5015.37 7617.81,4996.25 7534.98,4996.25 "/>
  <polygon class="fil4" points="7534.98,5015.37 7617.81,5015.37 7617.81,4996.25 7534.98,4996.25 "/>
  <polygon class="fil4" points="7534.98,5015.37 7617.81,5015.37 7617.81,4996.25 7534.98,4996.25 "/>
  <polygon class="fil4" points="7534.98,5015.37 7617.81,5015.37 7617.81,4996.25 7534.98,4996.25 "/>
  <g>
  </g>
  <g style="clip-path:url(#id1)">
   <g>
   </g>
  </g>
  <polygon class="fil4" points="7550.91,4999.44 7633.74,4999.44 7633.74,4980.32 7550.91,4980.32 "/>
  <polygon class="fil4" points="7550.91,4999.44 7633.74,4999.44 7633.74,4980.32 7550.91,4980.32 "/>
  <polygon class="fil4" points="7550.91,4999.44 7633.74,4999.44 7633.74,4980.32 7550.91,4980.32 "/>
  <polygon class="fil4" points="7550.91,4999.44 7633.74,4999.44 7633.74,4980.32 7550.91,4980.32 "/>
  <polygon class="fil4" points="7550.91,4999.44 7633.74,4999.44 7633.74,4980.32 7550.91,4980.32 "/>
  <g>
  </g>
  <g style="clip-path:url(#id2)">
   <g>
   </g>
  </g>
  <polygon class="fil4" points="7565.59,4984.93 7634.19,4984.93 7634.19,4963.9 7565.59,4963.9 "/>
  <polygon class="fil4" points="7565.59,4984.93 7634.19,4984.93 7634.19,4963.9 7565.59,4963.9 "/>
  <polygon class="fil4" points="7565.59,4984.93 7634.19,4984.93 7634.19,4963.9 7565.59,4963.9 "/>
  <polygon class="fil4" points="7565.59,4984.93 7634.19,4984.93 7634.19,4963.9 7565.59,4963.9 "/>
  <polygon class="fil4" points="7565.59,4984.93 7634.19,4984.93 7634.19,4963.9 7565.59,4963.9 "/>
  <g>
  </g>
  <g style="clip-path:url(#id3)">
   <g>
   </g>
  </g>
  <polygon class="fil4" points="7566.84,4967.59 7649.67,4967.59 7649.67,4948.47 7566.84,4948.47 "/>
  <polygon class="fil4" points="7566.84,4967.59 7649.67,4967.59 7649.67,4948.47 7566.84,4948.47 "/>
  <polygon class="fil4" points="7566.84,4967.59 7649.67,4967.59 7649.67,4948.47 7566.84,4948.47 "/>
  <polygon class="fil4" points="7566.84,4967.59 7649.67,4967.59 7649.67,4948.47 7566.84,4948.47 "/>
  <polygon class="fil4" points="7566.84,4967.59 7649.67,4967.59 7649.67,4948.47 7566.84,4948.47 "/>
  <g>
  </g>
  <g style="clip-path:url(#id4)">
   <g>
   </g>
  </g>
  <polygon class="fil4" points="7582.77,4951.66 7665.59,4951.66 7665.59,4932.54 7582.77,4932.54 "/>
  <polygon class="fil4" points="7582.77,4951.66 7665.59,4951.66 7665.59,4932.54 7582.77,4932.54 "/>
  <polygon class="fil4" points="7582.77,4951.66 7665.59,4951.66 7665.59,4932.54 7582.77,4932.54 "/>
  <polygon class="fil4" points="7582.77,4951.66 7665.59,4951.66 7665.59,4932.54 7582.77,4932.54 "/>
  <polygon class="fil4" points="7582.77,4951.66 7665.59,4951.66 7665.59,4932.54 7582.77,4932.54 "/>
  <g>
  </g>
  <g style="clip-path:url(#id5)">
   <g>
   </g>
  </g>
  <polygon class="fil4" points="7598.69,4935.73 7681.52,4935.73 7681.52,4916.61 7598.69,4916.61 "/>
  <polygon class="fil4" points="7598.69,4935.73 7681.52,4935.73 7681.52,4916.61 7598.69,4916.61 "/>
  <polygon class="fil4" points="7598.69,4935.73 7681.52,4935.73 7681.52,4916.61 7598.69,4916.61 "/>
  <polygon class="fil4" points="7598.69,4935.73 7681.52,4935.73 7681.52,4916.61 7598.69,4916.61 "/>
  <polygon class="fil4" points="7598.69,4935.73 7681.52,4935.73 7681.52,4916.61 7598.69,4916.61 "/>
  <g>
  </g>
  <g style="clip-path:url(#id6)">
   <g>
   </g>
  </g>
  <polygon class="fil4" points="7613.28,4921 7681.87,4921 7681.87,4900.04 7613.28,4900.04 "/>
  <polygon class="fil4" points="7613.28,4921 7681.87,4921 7681.87,4900.04 7613.28,4900.04 "/>
  <polygon class="fil4" points="7613.28,4921 7681.87,4921 7681.87,4900.04 7613.28,4900.04 "/>
  <polygon class="fil4" points="7613.28,4921 7681.87,4921 7681.87,4900.04 7613.28,4900.04 "/>
  <polygon class="fil4" points="7613.28,4921 7681.87,4921 7681.87,4900.04 7613.28,4900.04 "/>
  <g>
  </g>
  <g style="clip-path:url(#id7)">
   <g>
   </g>
  </g>
  <polygon class="fil4" points="7614.63,4903.88 7697.45,4903.88 7697.45,4884.75 7614.63,4884.75 "/>
  <polygon class="fil4" points="7614.63,4903.88 7697.45,4903.88 7697.45,4884.75 7614.63,4884.75 "/>
  <polygon class="fil4" points="7614.63,4903.88 7697.45,4903.88 7697.45,4884.75 7614.63,4884.75 "/>
  <polygon class="fil4" points="7614.63,4903.88 7697.45,4903.88 7697.45,4884.75 7614.63,4884.75 "/>
  <polygon class="fil4" points="7614.63,4903.88 7697.45,4903.88 7697.45,4884.75 7614.63,4884.75 "/>
  <g>
  </g>
  <g style="clip-path:url(#id8)">
   <g>
   </g>
  </g>
  <polygon class="fil4" points="5214.36,5052.35 5298.87,5052.35 5298.87,5031.32 5214.36,5031.32 "/>
  <polygon class="fil4" points="5214.36,5052.35 5298.87,5052.35 5298.87,5031.32 5214.36,5031.32 "/>
  <polygon class="fil4" points="5214.36,5052.35 5298.87,5052.35 5298.87,5031.32 5214.36,5031.32 "/>
  <polygon class="fil4" points="5214.36,5052.35 5298.87,5052.35 5298.87,5031.32 5214.36,5031.32 "/>
  <polygon class="fil4" points="5214.36,5052.35 5298.87,5052.35 5298.87,5031.32 5214.36,5031.32 "/>
  <g>
  </g>
  <g style="clip-path:url(#id9)">
   <g>
   </g>
  </g>
  <polygon class="fil4" points="7630.55,4887.94 7713.38,4887.94 7713.38,4868.82 7630.55,4868.82 "/>
  <polygon class="fil4" points="7630.55,4887.94 7713.38,4887.94 7713.38,4868.82 7630.55,4868.82 "/>
  <polygon class="fil4" points="7630.55,4887.94 7713.38,4887.94 7713.38,4868.82 7630.55,4868.82 "/>
  <polygon class="fil4" points="7630.55,4887.94 7713.38,4887.94 7713.38,4868.82 7630.55,4868.82 "/>
  <polygon class="fil4" points="7630.55,4887.94 7713.38,4887.94 7713.38,4868.82 7630.55,4868.82 "/>
  <g>
  </g>
  <g style="clip-path:url(#id10)">
   <g>
   </g>
  </g>
  <polygon class="fil4" points="7645.05,4873.07 7713.66,4873.07 7713.66,4852.04 7645.05,4852.04 "/>
  <polygon class="fil4" points="7645.05,4873.07 7713.66,4873.07 7713.66,4852.04 7645.05,4852.04 "/>
  <polygon class="fil4" points="7645.05,4873.07 7713.66,4873.07 7713.66,4852.04 7645.05,4852.04 "/>
  <polygon class="fil4" points="7645.05,4873.07 7713.66,4873.07 7713.66,4852.04 7645.05,4852.04 "/>
  <polygon class="fil4" points="7645.05,4873.07 7713.66,4873.07 7713.66,4852.04 7645.05,4852.04 "/>
  <g>
  </g>
  <g style="clip-path:url(#id11)">
   <g>
   </g>
  </g>
  <polygon class="fil4" points="7662.41,4856.09 7713.38,4856.09 7713.38,4836.97 7662.41,4836.97 "/>
  <polygon class="fil4" points="7662.41,4856.09 7713.38,4856.09 7713.38,4836.97 7662.41,4836.97 "/>
  <polygon class="fil4" points="7662.41,4856.09 7713.38,4856.09 7713.38,4836.97 7662.41,4836.97 "/>
  <polygon class="fil4" points="7662.41,4856.09 7713.38,4856.09 7713.38,4836.97 7662.41,4836.97 "/>
  <polygon class="fil4" points="7662.41,4856.09 7713.38,4856.09 7713.38,4836.97 7662.41,4836.97 "/>
  <g>
  </g>
  <g style="clip-path:url(#id12)">
   <g>
   </g>
  </g>
  <polygon class="fil4" points="5214.36,5004.45 5267.07,5004.45 5267.07,4983.44 5214.36,4983.44 "/>
  <polygon class="fil4" points="5214.36,5004.45 5267.07,5004.45 5267.07,4983.44 5214.36,4983.44 "/>
  <polygon class="fil4" points="5214.36,5004.45 5267.07,5004.45 5267.07,4983.44 5214.36,4983.44 "/>
  <polygon class="fil4" points="5214.36,5004.45 5267.07,5004.45 5267.07,4983.44 5214.36,4983.44 "/>
  <polygon class="fil4" points="5214.36,5004.45 5267.07,5004.45 5267.07,4983.44 5214.36,4983.44 "/>
  <g>
  </g>
  <g style="clip-path:url(#id13)">
   <g>
   </g>
  </g>
  <polygon class="fil4" points="7660.96,4841.16 7697.78,4841.16 7697.78,4820.14 7660.96,4820.14 "/>
  <polygon class="fil4" points="7660.96,4841.16 7697.78,4841.16 7697.78,4820.14 7660.96,4820.14 "/>
  <polygon class="fil4" points="7660.96,4841.16 7697.78,4841.16 7697.78,4820.14 7660.96,4820.14 "/>
  <polygon class="fil4" points="7660.96,4841.16 7697.78,4841.16 7697.78,4820.14 7660.96,4820.14 "/>
  <polygon class="fil4" points="7660.96,4841.16 7697.78,4841.16 7697.78,4820.14 7660.96,4820.14 "/>
  <g>
  </g>
  <g style="clip-path:url(#id14)">
   <g>
   </g>
  </g>
  <polygon class="fil4" points="7662.41,4824.23 7681.52,4824.23 7681.52,4805.11 7662.41,4805.11 "/>
  <polygon class="fil4" points="7662.41,4824.23 7681.52,4824.23 7681.52,4805.11 7662.41,4805.11 "/>
  <polygon class="fil4" points="7662.41,4824.23 7681.52,4824.23 7681.52,4805.11 7662.41,4805.11 "/>
  <polygon class="fil4" points="7662.41,4824.23 7681.52,4824.23 7681.52,4805.11 7662.41,4805.11 "/>
  <polygon class="fil4" points="7662.41,4824.23 7681.52,4824.23 7681.52,4805.11 7662.41,4805.11 "/>
  <g>
  </g>
  <g style="clip-path:url(#id15)">
   <g>
   </g>
  </g>
  <polygon class="fil4" points="7645.05,4809.2 7665.98,4809.2 7665.98,4772.2 7645.05,4772.2 "/>
  <polygon class="fil4" points="7645.05,4809.2 7665.98,4809.2 7665.98,4772.2 7645.05,4772.2 "/>
  <polygon class="fil4" points="7645.05,4809.2 7665.98,4809.2 7665.98,4772.2 7645.05,4772.2 "/>
  <polygon class="fil4" points="7645.05,4809.2 7665.98,4809.2 7665.98,4772.2 7645.05,4772.2 "/>
  <polygon class="fil4" points="7645.05,4809.2 7665.98,4809.2 7665.98,4772.2 7645.05,4772.2 "/>
  <g>
  </g>
  <g style="clip-path:url(#id16)">
   <g>
   </g>
  </g>
  <polygon class="fil4" points="7630.55,4776.44 7649.67,4776.44 7649.67,4757.32 7630.55,4757.32 "/>
  <polygon class="fil4" points="7630.55,4776.44 7649.67,4776.44 7649.67,4757.32 7630.55,4757.32 "/>
  <polygon class="fil4" points="7630.55,4776.44 7649.67,4776.44 7649.67,4757.32 7630.55,4757.32 "/>
  <polygon class="fil4" points="7630.55,4776.44 7649.67,4776.44 7649.67,4757.32 7630.55,4757.32 "/>
  <polygon class="fil4" points="7630.55,4776.44 7649.67,4776.44 7649.67,4757.32 7630.55,4757.32 "/>
  <path class="fil5" d="M4454.82 4770.04l491.58 12.67 1370.15 3315.74 1327.31 -3302.91 7.5 -10.3 -2.29 -3.15 0.03 -0.05 507.53 -12c337.99,-8.05 614.59,286.33 614.59,636.23l0 3350.59 -4931.07 0 0 -3350.63c0,-349.99 276.8,-644.78 614.72,-636.19l-0.02 0 0 0 -0.01 0 -0.01 0 -0.01 0z"/>
  <ellipse class="fil3 str0" cx="6295.31" cy="7095.03" rx="42.47" ry="47.79"/>
  <rect class="fil6" x="7654.53" y="7079.07" width="807.05" height="106.21"/>
  <polygon class="fil1" points="8272.64,6818.53 8079.3,6611.85 7654.56,7079.08 8440.34,7079.08 "/>
  <polygon class="fil7" points="6284.7,4944.66 5451.27,4584.64 5530.74,5465.01 6238.74,5083.62 "/>
  <polygon class="fil7" points="6213.83,4923.87 7060.66,4627.58 7017.41,5486.24 6170.08,5045.65 "/>
  <rect class="fil8" x="6150.21" y="4824.21" width="239" height="331.41"/>
  <polygon class="fil1 str1" points="4224.6,5369.44 4967.96,4371.23 5847.49,7023.07 5589.14,6794.78 "/>
  <polygon class="fil1 str1" points="4734.32,6314.72 5350.25,5666.75 6173.59,7910.27 5894.17,7618.13 "/>
  <g>
  </g>
  <g style="clip-path:url(#id17)">
   <g>
   </g>
  </g>
  <polygon class="fil4" points="7322.58,5136.71 7413.38,5136.71 7413.38,5115.7 7322.58,5115.7 "/>
  <polygon class="fil4" points="7322.58,5136.71 7413.38,5136.71 7413.38,5115.7 7322.58,5115.7 "/>
  <polygon class="fil4" points="7322.58,5136.71 7413.38,5136.71 7413.38,5115.7 7322.58,5115.7 "/>
  <polygon class="fil4" points="7322.58,5136.71 7413.38,5136.71 7413.38,5115.7 7322.58,5115.7 "/>
  <polygon class="fil4" points="7322.58,5136.71 7413.38,5136.71 7413.38,5115.7 7322.58,5115.7 "/>
  <g>
  </g>
  <g style="clip-path:url(#id18)">
   <g>
   </g>
  </g>
  <polygon class="fil4" points="7339.67,5120.74 7413.38,5120.74 7413.38,5083.75 7339.67,5083.75 "/>
  <polygon class="fil4" points="7339.67,5120.74 7413.38,5120.74 7413.38,5083.75 7339.67,5083.75 "/>
  <polygon class="fil4" points="7339.67,5120.74 7413.38,5120.74 7413.38,5083.75 7339.67,5083.75 "/>
  <polygon class="fil4" points="7339.67,5120.74 7413.38,5120.74 7413.38,5083.75 7339.67,5083.75 "/>
  <polygon class="fil4" points="7339.67,5120.74 7413.38,5120.74 7413.38,5083.75 7339.67,5083.75 "/>
  <g>
  </g>
  <g style="clip-path:url(#id19)">
   <g>
   </g>
  </g>
  <polygon class="fil4" points="7356.76,5088.84 7413.38,5088.84 7413.38,5067.82 7356.76,5067.82 "/>
  <polygon class="fil4" points="7356.76,5088.84 7413.38,5088.84 7413.38,5067.82 7356.76,5067.82 "/>
  <polygon class="fil4" points="7356.76,5088.84 7413.38,5088.84 7413.38,5067.82 7356.76,5067.82 "/>
  <polygon class="fil4" points="7356.76,5088.84 7413.38,5088.84 7413.38,5067.82 7356.76,5067.82 "/>
  <polygon class="fil4" points="7356.76,5088.84 7413.38,5088.84 7413.38,5067.82 7356.76,5067.82 "/>
  <ellipse class="fil3 str0" cx="6251.99" cy="5905.1" rx="45.63" ry="47.79"/>
  <path class="fil8" d="M6174.17 4824.2l210.64 0c12.74,0 23.07,7.64 23.07,17.04l0 173.56c0,9.41 -10.33,17.03 -23.07,17.03l-210.64 0c-12.74,0 -23.07,-7.62 -23.07,-17.03l0 -173.56c0,-9.4 10.33,-17.04 23.07,-17.04z"/>
  <polygon class="fil1 str1" points="8444.92,5317.08 7643.95,4413.73 6757.02,7053.85 7016.51,6805.2 "/>
  <polygon class="fil1 str1" points="7929.13,6407.47 7233.62,5681.47 6438.43,7928.47 6664.46,7730.23 "/>
  <polygon class="fil5" points="3992.03,4985.77 4256.46,6675.56 2944.69,7592.06 2284.17,6933.33 "/>
  <ellipse class="fil3 str0" cx="6251.99" cy="6505.5" rx="45.63" ry="47.79"/>
  <rect class="fil5" x="3840.11" y="8688.16" width="4928.44" height="1251.71"/>
  <path class="fil9" d="M880.52 6519.22l0 250.43c82.72,198.03 36.46,322.48 268.49,656.89 175.51,252.96 450.68,524.05 682.76,705.12 121.33,94.67 711.98,583.07 795.99,612.36l513.36 -406.32c396.29,-305.1 914.34,-740.72 1102.44,-1210.2 45.83,-114.39 69.27,-272.85 104.76,-357.85l0 -250.43 -46.68 -148c-94.55,-305.79 -381.93,-534.51 -714.97,-579.94 -397.72,-54.26 -728.93,117.2 -935.73,437.74l-48.68 51.69c-34.24,-95.18 -83.59,-150.78 -149.91,-218.83 -70.76,-72.58 -117.91,-106.33 -211.54,-158.59 -168.02,-93.78 -390.86,-143.27 -611.64,-110.13 -404.76,60.71 -620.91,310.44 -724.2,662.62 -4.79,16.27 -7.06,22.05 -12.93,37.85 -1.21,3.26 -4.69,15.03 -5.61,12.74 -0.94,-2.33 -3.69,8.68 -5.91,12.85z"/>
  <path class="fil2" d="M1597.3 7758.68l115.06 0c103.11,-0.01 186.72,83.6 186.72,186.71l-0.01 327.44c0.01,103.09 -83.6,186.7 -186.7,186.7l-115.07 0c-103.08,0 -186.69,-83.61 -186.69,-186.71l-0.01 -327.42c0.01,-103.12 83.62,-186.73 186.7,-186.73l0 0.01z"/>
 </g>
</svg>
