<svg xmlns="http://www.w3.org/2000/svg" width="380" height="380" viewBox="0 0 380 380" xmlns:xlink="http://www.w3.org/1999/xlink" shape-rendering="geometricPrecision" text-rendering="geometricPrecision" image-rendering="optimizeQuality" fill-rule="evenodd" clip-rule="evenodd"><defs><style>.str1{stroke:#4d4d4d;stroke-width:4.99963}.str0{stroke:#000;stroke-width:2.36221}.fil2{fill:#c4c5c5}.fil3{fill:#5c5b5b}.fil5{fill:#000}.fil4{fill:#1a1a1a}.fil10{fill:#4d4d4d}.fil6{fill:#666}.fil8{fill:#900}.fil0{fill:#d4e1e6}.fil7{fill:red}.fil1,.fil9{fill:#fff}</style><clipPath id="id0"><path d="M243 167h3.155v.687H243z"/></clipPath><clipPath id="id1"><path d="M244 167h3.156v.687H244z"/></clipPath><clipPath id="id2"><path d="M245 167v-1h2v1h-2z"/></clipPath><clipPath id="id3"><path d="M245 165h3.156v.687H245z"/></clipPath><clipPath id="id4"><path d="M245 165h3.155v.687H245z"/></clipPath><clipPath id="id5"><path d="M246 164h3.155v.687H246z"/></clipPath><clipPath id="id6"><path d="M246 164h3-3z"/></clipPath><clipPath id="id7"><path d="M246 163h3.156v.687H246z"/></clipPath><clipPath id="id8"><path d="M155 169v-1h3v1h-3z"/></clipPath><clipPath id="id9"><path d="M247 163h3.156v.687H247z"/></clipPath><clipPath id="id10"><path d="M248 163v-1h2v1h-2z"/></clipPath><clipPath id="id11"><path d="M248 161h1.942v.687H248z"/></clipPath><clipPath id="id12"><path d="M155 167h2-2z"/></clipPath><clipPath id="id13"><path d="M248 162v-1h2v1h-2z"/></clipPath><clipPath id="id14"><path d="M248 160h.728v.687H248z"/></clipPath><clipPath id="id15"><path d="M248 160v-1 1z"/></clipPath><clipPath id="id16"><path d="M247 159h.73v.687H247z"/></clipPath><clipPath id="id17"><path d="M239 172v-1h-4v1h4z"/></clipPath><clipPath id="id18"><path d="M239 172v-2h-3v2h3z"/></clipPath><clipPath id="id19"><path d="M239 171v-1h-2v1h2z"/></clipPath></defs><g id="Слой_x0020_1"><path class="fil0" d="M0 2h382v376H0z"/><path class="fil1" d="M140 148l22-11 72-1 19 12v154H140z"/><path class="fil2" d="M197 34c34 0 61 25 61 57 0 31-27 57-61 57-33 0-60-26-60-57 0-32 27-57 60-57z"/><path class="fil3" d="M197 34c27 0 50 17 58 40 1 12-62-5-77-28-3 4-32 26-38 27 8-23 31-39 57-39z"/><g clip-path="url(#id0)"><image x="243" y="167" width="3.155" height=".687" xlink:href="image_not_found_Images\image_not_found_ImgID1.png"/></g><g clip-path="url(#id1)"><image x="244" y="167" width="3.155" height=".687" xlink:href="image_not_found_Images\image_not_found_ImgID2.png"/></g><g clip-path="url(#id2)"><image x="245" y="166" width="2.67" height=".687" xlink:href="image_not_found_Images\image_not_found_ImgID3.png"/></g><g clip-path="url(#id3)"><image x="245" y="165" width="3.155" height=".687" xlink:href="image_not_found_Images\image_not_found_ImgID4.png"/></g><g clip-path="url(#id4)"><image x="245" y="165" width="3.155" height=".687" xlink:href="image_not_found_Images\image_not_found_ImgID5.png"/></g><g clip-path="url(#id5)"><image x="246" y="164" width="3.155" height=".687" xlink:href="image_not_found_Images\image_not_found_ImgID6.png"/></g><g clip-path="url(#id6)"><image x="246" y="164" width="2.67" height=".687" xlink:href="image_not_found_Images\image_not_found_ImgID7.png"/></g><g clip-path="url(#id7)"><image x="246" y="163" width="3.155" height=".687" xlink:href="image_not_found_Images\image_not_found_ImgID8.png"/></g><g clip-path="url(#id8)"><image x="155" y="168" width="3.155" height=".687" xlink:href="image_not_found_Images\image_not_found_ImgID9.png"/></g><g clip-path="url(#id9)"><image x="247" y="163" width="3.155" height=".687" xlink:href="image_not_found_Images\image_not_found_ImgID10.png"/></g><g clip-path="url(#id10)"><image x="248" y="162" width="2.67" height=".687" xlink:href="image_not_found_Images\image_not_found_ImgID11.png"/></g><g clip-path="url(#id11)"><image x="248" y="161" width="1.942" height=".687" xlink:href="image_not_found_Images\image_not_found_ImgID12.png"/></g><g clip-path="url(#id12)"><image x="155" y="167" width="1.942" height=".687" xlink:href="image_not_found_Images\image_not_found_ImgID13.png"/></g><g clip-path="url(#id13)"><image x="248" y="161" width="1.456" height=".687" xlink:href="image_not_found_Images\image_not_found_ImgID14.png"/></g><g clip-path="url(#id14)"><image x="248" y="160" width=".728" height=".687" xlink:href="image_not_found_Images\image_not_found_ImgID15.png"/></g><g clip-path="url(#id15)"><image x="248" y="159" width=".728" height="1.375" xlink:href="image_not_found_Images\image_not_found_ImgID16.png"/></g><g clip-path="url(#id16)"><image x="247" y="159" width=".728" height=".687" xlink:href="image_not_found_Images\image_not_found_ImgID17.png"/></g><path class="fil4" d="M126 159l19 1 52 119 51-119v-1h19c13 0 24 10 24 23v120H103V182c0-13 10-23 23-23z"/><circle class="fil5 str0" cx="196" cy="243" r="2"/><path class="fil6" d="M248 242h30.745v3.82H248z"/><path class="fil1" d="M272 233l-8-8-16 17h30z"/><path class="fil7" d="M196 165l-32-13 3 32 27-14z"/><path class="fil7" d="M193 165l32-11-1 31-33-16z"/><path class="fil8" d="M191 161h9.105v11.92H191z"/><path class="fil9 str1" d="M117 181l29-36 33 95-10-8z"/><path class="fil9 str1" d="M137 215l23-24 32 81-11-11z"/><g clip-path="url(#id17)"><image transform="matrix(-.86927 0 0 .76386 238.703 171.517)" width="3.9" height=".9" xlink:href="image_not_found_Images\image_not_found_ImgID18.png"/></g><g clip-path="url(#id18)"><image transform="matrix(-.86927 0 0 .76386 238.833 170.257)" width="3.3" height="1.8" xlink:href="image_not_found_Images\image_not_found_ImgID19.png"/></g><g clip-path="url(#id19)"><image transform="matrix(-.86927 0 0 .76386 238.703 169.798)" width="2.4" height=".9" xlink:href="image_not_found_Images\image_not_found_ImgID20.png"/></g><circle class="fil5 str0" cx="195" cy="200" r="2"/><rect class="fil8" x="191" y="161" width="9.782" height="7.468" rx="1" ry="1"/><path class="fil9 str1" d="M278 179l-30-33-34 95 10-9z"/><path class="fil9 str1" d="M258 218l-26-26-30 81 8-7z"/><path class="fil10" d="M27 331l3-1c0 1 1 2 2 3s2 2 4 2 3 0 4-1 1-2 1-3c0-2 0-3-1-3-1-1-3-2-4-2h-2v-2c2 0 3 0 3-1 1 0 2 0 2-1 1-1 1-1 1-2s0-2-1-3-2-1-3-1-2 0-3 1c-1 0-2 1-2 2v2h-3c0-5 3-8 8-8 2 0 4 1 5 2 2 1 2 3 2 5s-1 4-3 5c2 0 3 1 3 2 1 1 2 2 2 4s-1 3-3 5c-1 1-3 2-6 2-5 0-8-3-9-7zm32 4c-1 1-2 2-3 2-1 1-2 1-3 1-2 0-3-1-4-2s-2-2-2-3 0-2 1-3l1-1c1-1 2-1 2-1 1 0 2 0 3-1 2 0 4 0 5-1 0-2 0-2-1-3 0-1-1-1-3-1-1 0-2 0-3 1-1 0-1 1-1 2h-3c0-1 0-2 1-3s1-1 3-2h7c1 1 2 1 2 2 1 0 1 1 1 2v11c1 1 1 2 1 2h-3s0-1-1-2zm0-6c-1 0-2 0-5 1h-2l-1 1c-1 1-1 1-1 2 0 0 1 1 1 2h6l2-2v-4zm8-9h10v2h-7v15h-3v-17zm12 24v-24h3v2c0-1 1-1 2-2h3c1 0 2 0 3 1 2 1 2 2 3 3s1 3 1 5c0 1 0 3-1 4-1 2-2 3-3 4-1 0-2 1-4 1-1 0-2 0-2-1-1 0-2-1-2-1v8h-3zm3-15c0 2 0 4 1 5s2 1 3 1 3 0 3-1c1-1 2-3 2-5 0-3-1-4-1-5-1-1-2-2-4-2-1 0-2 1-3 2s-1 3-1 5zm15 15v-3l1 1c1 0 1-1 2-1 0 0 1 0 1-1 0 0 0-1 1-2v-1l-7-17h4l3 10c1 1 1 3 1 4 1-1 1-3 2-4l3-10h3l-6 18c-1 2-2 3-2 4l-2 2h-4zm21-14v-3h2c1 0 1 0 1-1 1 0 1-1 1-1 0-1 0-2-1-2 0-1-1-1-2-1-2 0-3 1-3 3h-3c1-4 3-5 6-5 2 0 3 0 4 1 2 1 2 2 2 4 0 1-1 2-2 3 1 1 2 1 2 2s1 2 1 3-1 2-2 3-3 2-5 2c-4 0-6-2-7-6h3c0 1 1 2 2 2 0 1 1 1 2 1h3c0-1 1-2 1-3l-1-1c0-1-1-1-1-1h-3zm11-10h3v13l8-13h3v17h-3v-13l-8 13h-3v-17zm17 0h14v2h-5v15h-3v-15h-6v-2zm28 12h3c0 2-1 3-2 4-2 1-3 2-5 2-3 0-5-1-6-3-2-1-2-3-2-6s0-5 2-7c1-2 3-2 6-2 2 0 4 0 5 2 2 2 2 4 2 7h-12c0 2 0 4 1 5s2 1 4 1c1 0 2 0 3-1 0 0 1-1 1-2zm-9-5h9c0-1 0-2-1-3s-2-2-3-2c-2 0-3 1-4 1-1 1-1 3-1 4zm17 10v-3h3v3c0 2 0 3-1 3 0 1-1 2-2 2v-1l1-1v-3h-1zm29-6h3c-1 2-1 4-3 5-1 1-3 2-4 2-3 0-5-1-6-3-2-1-2-3-2-6 0-2 0-4 1-5 0-2 1-3 2-3 2-1 3-1 5-1 1 0 3 0 4 1s2 2 2 4l-2 1c-1-2-1-2-2-3 0-1-1-1-2-1-2 0-3 1-4 2s-1 2-1 5c0 2 0 4 1 5s2 1 4 1c1 0 2 0 2-1 1 0 2-2 2-3zm5-11h11c0 1 1 1 2 2 0 1 1 2 1 3 0 0-1 1-1 2l-1 1c0 1 1 1 2 2v3c0 1 0 2-1 3s-3 1-5 1h-8v-17zm3 7h6s1 0 1-1c0 0 1 0 1-1s-1-2-1-2c-1 0-2-1-4-1h-3v5zm0 8h4c2 0 3 0 3-1 1 0 1-1 1-2v-1c0-1-1-1-2-1h-6v5zm13-6c0-3 1-6 3-7 2-2 3-2 6-2 2 0 4 0 5 2 2 2 3 4 3 6 0 3-1 4-1 6l-3 3c-2 0-3 1-4 1-3 0-5-1-6-3-2-1-3-3-3-6zm3 0c0 2 1 4 2 5s2 1 4 1c1 0 2 0 3-1s2-3 2-5c0-3-1-4-2-5s-2-2-3-2c-2 0-3 1-4 2s-2 3-2 5zm29 3h3c-1 2-1 3-3 4-1 1-3 2-5 2s-4-1-6-3c-1-1-2-3-2-6s1-5 2-7c2-2 4-2 6-2 3 0 4 0 6 2 1 2 2 4 2 7h-13c0 2 1 4 2 5s2 1 3 1 2 0 3-1c1 0 1-1 2-2zm-10-5h10c0-1-1-2-1-3-1-1-2-2-4-2-1 0-2 1-3 1-1 1-2 3-2 4zm36-14h3v9l2-2h2c2 0 4 1 5 2 1 2 2 4 2 7 0 2-1 5-2 6-1 2-3 3-5 3 0 0-1 0-2-1 0 0-1 0-2-1v8h-3v-8c-1 0-1 1-2 1-1 1-1 1-2 1-2 0-4-1-5-3-1-1-2-4-2-6 0-3 1-5 2-7 1-1 3-2 5-2h2l2 2v-9zm3 16c0 2 0 4 1 5s2 1 3 1 2 0 3-1 1-3 1-5c0-3 0-4-1-5s-2-2-3-2-2 1-3 2-1 3-1 5zm-11-1c0 3 0 5 1 6s2 1 3 1 2 0 3-1 1-3 1-5 0-4-1-5-2-2-3-2-2 1-3 2-1 2-1 4zm24 1c0-3 1-6 3-7 1-2 3-2 5-2 3 0 5 0 6 2 2 2 2 4 2 6 0 3 0 4-1 6 0 1-1 2-2 3-2 0-3 1-5 1s-4-1-6-3c-1-1-2-3-2-6zm3 0c0 2 1 4 2 5s2 1 3 1c2 0 3 0 4-1s1-3 1-5c0-3 0-4-1-5s-2-2-4-2c-1 0-2 1-3 2s-2 3-2 5zm15-9h14v2h-6v15h-3v-15h-5v-2zm15 9c0-3 1-6 3-7 1-2 3-2 5-2s4 0 6 2c1 2 2 4 2 6 0 3 0 4-1 6l-3 3c-1 0-2 1-4 1s-4-1-6-3c-1-1-2-3-2-6zm3 0c0 2 0 4 1 5s3 1 4 1c2 0 3 0 4-1s1-3 1-5c0-3 0-4-1-5s-3-2-4-2-3 1-4 2-1 3-1 5zM105 349h3v13l8-13h3v17h-2v-13l-9 13h-3v-17zm20 0h14v17h-3v-15h-8v13c0 1 0 1-1 2h-3-2v-2h3v-1-14zm18 0h3v13l8-13h4v17h-3v-13l-9 13h-3v-17zm30 0h13v17h-3v-15h-7v9c0 2 0 3-1 4 0 1 0 1-1 2h-5v-2h3c0-1 0-1 1-1v-14zm17 9c0-4 1-6 3-7 1-2 3-2 5-2s4 0 6 2c1 1 2 4 2 6 0 3 0 4-1 6l-3 3c-1 0-2 1-4 1s-4-1-6-3c-1-1-2-3-2-6zm3 0c0 2 0 3 1 5 1 1 3 1 4 1 2 0 3 0 4-1 1-2 1-3 1-5 0-3 0-4-1-5s-3-2-4-2-3 1-4 2-1 2-1 5zm17-9h10v2h-7v15h-3v-17zm10 9c0-4 1-6 3-7 1-2 3-2 5-2s4 0 6 2c1 1 2 4 2 6 0 3 0 4-1 6l-3 3c-1 0-2 1-4 1s-4-1-6-3c-1-1-2-3-2-6zm3 0c0 2 0 3 1 5 1 1 3 1 4 1s3 0 4-1c1-2 1-3 1-5 0-3 0-4-1-5s-3-2-4-2-3 1-4 2-1 2-1 5zm14-9h14v2h-5v15h-3v-15h-6v-2zm17 0h3v13l8-13h3v17h-3v-13l-8 13h-3v-17zm19 0h13v17h-3v-15h-7v15h-3v-17z"/></g></svg>