<?xml version="1.0" encoding="UTF-8"?>
<!DOCTYPE svg PUBLIC "-//W3C//DTD SVG 1.1//EN" "http://www.w3.org/Graphics/SVG/1.1/DTD/svg11.dtd">
<!-- Creator: CorelDRAW X6 -->
<svg xmlns="http://www.w3.org/2000/svg" xml:space="preserve" width="1500px" height="1200px" version="1.1" style="shape-rendering:geometricPrecision; text-rendering:geometricPrecision; image-rendering:optimizeQuality; fill-rule:evenodd; clip-rule:evenodd"
viewBox="0 0 1500 1200"
 xmlns:xlink="http://www.w3.org/1999/xlink">
 <defs>
  <style type="text/css">
   <![CDATA[
    .str1 {stroke:black;stroke-width:7.37953}
    .str0 {stroke:black;stroke-width:15.6189}
    .fil4 {fill:none}
    .fil6 {fill:black}
    .fil2 {fill:#7D7E80}
    .fil7 {fill:#990000}
    .fil11 {fill:#BD0006}
    .fil10 {fill:#CC0007}
    .fil12 {fill:#D40B0B}
    .fil5 {fill:#FCD5A6}
    .fil8 {fill:black;fill-rule:nonzero}
    .fil9 {fill:#F71111;fill-rule:nonzero}
    .fil1 {fill:url(#id0)}
    .fil0 {fill:url(#id1)}
    .fil3 {fill:url(#id2)}
   ]]>
  </style>
  <linearGradient id="id0" gradientUnits="userSpaceOnUse" x1="365.198" y1="778.667" x2="1123.83" y2="20.035">
   <stop offset="0" style="stop-color:#D9DADA"/>
   <stop offset="0.458824" style="stop-color:#FEFEFE"/>
   <stop offset="1" style="stop-color:#D9DADA"/>
  </linearGradient>
  <radialGradient id="id1" gradientUnits="objectBoundingBox" cx="49%" cy="17%" r="50%" fx="49%" fy="17%">
   <stop offset="0" style="stop-color:#D9DADA"/>
   <stop offset="1" style="stop-color:#9FA2A8"/>
   <stop offset="1" style="stop-color:#9FA2A8"/>
  </radialGradient>
  <radialGradient id="id2" gradientUnits="objectBoundingBox" xlink:href="#id1" cx="50%" cy="-50.0002%" r="0%" fx="50%" fy="-50.0002%">
  </radialGradient>
 </defs>
 <g id="Слой_x0020_1">
  <metadata id="CorelCorpID_0Corel-Layer"/>
  <g id="_762606560">
   <g id="_601778264">
    <path class="fil0" d="M917 800c75,0 149,0 224,0 88,0 161,18 164,-61 5,-144 0,-299 0,-444 0,-70 5,-157 0,-226 -6,-73 -72,-55 -167,-55 -148,0 -295,0 -443,0 -105,0 -361,-5 -447,0 -36,2 -52,20 -54,56 -2,35 0,75 0,110l0 447c0,94 -17,164 50,171 60,7 158,1 222,1 148,0 108,-27 118,102 -46,1 -110,-4 -154,1 -43,4 -55,70 14,71 102,2 205,0 307,0 102,0 207,3 307,0 63,-2 59,-69 8,-72 -41,-1 -115,6 -149,-1l3 -101 0 0z"/>
    <path class="fil1" d="M1240 80l0 639c-13,10 -42,5 -59,5l-433 0c-96,0 -426,5 -494,-1 -4,-17 -6,-604 -1,-645 68,-8 175,-2 248,-2 104,0 725,-4 738,4l0 0z"/>
    <polygon class="fil2" points="126,1069 126,1046 1347,1035 1351,1058 "/>
    <polygon class="fil3" points="126,1046 315,836 1189,841 1347,1035 "/>
    <ellipse class="fil4 str0" cx="745" cy="398" rx="224" ry="185"/>
    <path class="fil5" d="M741 225c114,0 208,90 208,200 0,114 -94,204 -208,204 -113,0 -208,-90 -208,-204 0,-110 95,-200 208,-200z"/>
    <path class="fil6" d="M745 225c129,-4 220,134 203,224 -30,219 -464,214 -403,-87 27,-83 105,-136 199,-136l0 0 0 0z"/>
    <polygon class="fil6" points="482,359 520,359 520,500 482,500 "/>
    <polygon class="fil7" points="490,359 497,359 497,500 490,500 "/>
    <polygon class="fil6 str1" points="521,355 545,355 545,503 521,503 "/>
    <polygon class="fil6" points="969,359 1009,359 1009,500 969,500 "/>
    <polygon class="fil7" points="992,359 1000,359 1000,500 992,500 "/>
    <polygon class="fil6 str1" points="941,355 966,355 966,503 941,503 "/>
    <path class="fil8" d="M482 487c15,-4 23,30 32,61 4,14 8,27 12,36l0 1c5,15 -7,51 -21,99 -20,68 -48,158 -42,232 1,9 0,43 -3,85 -4,79 -10,188 -1,190l-2 9c-16,-3 -11,-116 -6,-199 2,-42 4,-75 3,-83l-1 0c-7,-76 21,-167 43,-236 15,-45 25,-80 21,-93 -4,-10 -8,-23 -13,-37 -7,-27 -15,-56 -21,-54l-1 -10 0 0z"/>
    <path class="fil9" d="M439 130l-10 -3c2,-8 8,-12 17,-12 6,0 10,1 13,4 3,2 5,6 5,9 0,2 -1,4 -2,6 -2,2 -4,4 -6,5 3,2 5,3 7,5 2,2 2,5 2,8 0,4 -1,8 -4,11 -4,2 -8,4 -15,4 -5,0 -9,-1 -12,-3 -3,-2 -5,-5 -7,-10l9 -3c1,3 3,5 4,6 2,1 4,1 6,1 3,0 5,0 7,-2 1,-1 2,-3 2,-4 0,-2 -1,-4 -2,-5 -2,-2 -4,-2 -8,-2l-2 0 0 -8 1 0c3,0 6,0 7,-2 2,-1 3,-3 3,-5 0,-2 -1,-4 -2,-5 -2,-1 -4,-2 -6,-2 -4,0 -7,2 -8,7l0 0z"/>
    <path id="_1" class="fil9" d="M480 141l-8 -2c1,-3 2,-6 5,-8 2,-1 6,-2 10,-2 5,0 8,0 10,1 2,1 3,3 4,4 1,2 1,5 1,9l0 11c0,3 0,5 1,7 0,1 1,3 1,5l-9 0c0,-1 -1,-2 -1,-3 0,-1 0,-1 0,-1 -2,1 -4,3 -5,3 -2,1 -4,2 -6,2 -4,0 -7,-1 -9,-3 -2,-2 -3,-5 -3,-8 0,-2 0,-4 1,-6 1,-1 2,-2 4,-3 2,-1 5,-2 8,-2 4,-1 7,-2 9,-3l0 -1c0,-2 0,-3 -1,-4 -1,0 -3,-1 -5,-1 -2,0 -3,1 -4,1 -1,1 -2,2 -3,4l0 0zm13 7c-1,1 -3,1 -6,2 -2,0 -4,1 -5,2 -1,0 -2,2 -2,3 0,1 1,2 2,3 1,1 2,2 4,2 1,0 3,-1 4,-2 2,-1 2,-2 3,-3 0,-1 0,-2 0,-5l0 -2 0 0z"/>
    <polygon id="_2" class="fil9" points="510,130 541,130 541,165 533,165 533,137 520,137 520,165 510,165 "/>
    <path id="_3" class="fil9" d="M549 147c0,-3 1,-6 3,-9 1,-3 4,-5 6,-7 3,-1 6,-2 10,-2 5,0 10,2 13,5 4,4 6,8 6,14 0,5 -2,10 -6,13 -3,4 -8,6 -13,6 -3,0 -6,-1 -9,-3 -3,-1 -6,-3 -7,-6 -2,-3 -3,-7 -3,-11l0 0zm10 1c0,3 1,6 3,8 1,2 4,3 6,3 3,0 5,-1 6,-3 2,-2 3,-5 3,-8 0,-4 -1,-7 -3,-8 -1,-2 -3,-3 -6,-3 -2,0 -5,1 -6,3 -2,1 -3,4 -3,8z"/>
    <path id="_4" class="fil9" d="M594 130l31 0 0 35 -10 0 0 -28 -13 0 0 16c0,4 0,7 -1,8 -1,2 -2,3 -3,3 -1,1 -3,1 -6,1 -1,0 -3,0 -6,0l0 -7c0,0 1,0 2,0 1,0 2,0 2,0 1,0 2,-1 2,-1 1,-1 1,-4 1,-8l0 -19z"/>
    <polygon id="_5" class="fil9" points="633,130 643,130 643,143 655,143 655,130 665,130 665,165 655,165 655,151 643,151 643,165 633,165 "/>
    <polygon id="_6" class="fil9" points="674,130 683,130 683,152 697,130 706,130 706,165 697,165 697,143 683,165 674,165 "/>
    <polygon id="_7" class="fil9" points="712,130 743,130 743,137 732,137 732,165 722,165 722,137 712,137 "/>
    <path id="_8" class="fil9" d="M748 130l10 0 0 15 9 0c4,0 7,0 9,0 2,1 4,2 5,4 1,2 2,4 2,6 0,4 -1,6 -4,8 -2,2 -6,3 -10,3l-20 0 0 -35 0 0zm10 29l9 0c2,0 4,-1 5,-2 1,-1 1,-2 1,-3 0,-2 -1,-3 -2,-4 -1,0 -4,-1 -7,-1l-6 0 0 10 0 0z"/>
    <path id="_9" class="fil9" d="M808 130l20 0c4,0 7,0 9,2 3,2 4,4 4,7 0,2 -1,4 -2,5 -1,2 -3,3 -5,3 3,1 5,2 6,4 1,1 2,3 2,5 0,3 -1,5 -3,7 -2,2 -5,3 -9,3l-22 0 0 -35 0 0zm9 15l7 0c3,0 5,-1 6,-1 1,-1 2,-2 2,-4 0,-2 -1,-3 -2,-3 -1,-1 -3,-1 -6,-1l-7 0 0 9 0 0zm0 15l8 0c3,0 5,-1 6,-1 1,-1 2,-2 2,-4 0,-2 -1,-3 -2,-4 -2,0 -5,-1 -9,-1l-5 0 0 10 0 0z"/>
    <polygon id="_10" class="fil9" points="849,130 858,130 858,152 872,130 881,130 881,165 872,165 872,143 858,165 849,165 "/>
    <path id="_11" class="fil9" d="M900 151l0 -6c1,0 3,0 3,-1 1,0 2,0 3,-1 0,-1 1,-2 1,-3 0,-1 -1,-2 -2,-3 -1,-1 -2,-2 -3,-2 -2,0 -3,1 -4,1 -1,1 -2,2 -3,4l-8 -2c1,-3 3,-5 6,-7 2,-1 5,-2 9,-2 4,0 7,1 10,3 2,2 3,4 3,7 0,2 0,4 -1,5 -1,1 -3,2 -5,4 3,0 5,1 6,3 1,1 2,3 2,5 0,3 -1,6 -4,8 -3,2 -6,3 -11,3 -9,0 -14,-4 -15,-11l9 -1c1,3 3,5 7,5 1,0 3,0 4,-1 1,-1 1,-2 1,-4 0,-1 0,-2 -1,-3 -1,-1 -3,-1 -5,-1l-1 0 0 0z"/>
    <polygon id="_12" class="fil9" points="924,130 933,130 933,152 947,130 956,130 956,165 947,165 947,143 933,165 924,165 "/>
    <polygon id="_13" class="fil9" points="961,130 993,130 993,137 982,137 982,165 972,165 972,137 961,137 "/>
    <path id="_14" class="fil9" d="M998 130l9 0 0 14c2,0 3,0 4,-1 0,-1 1,-3 2,-5 1,-4 3,-6 4,-7 2,-1 3,-2 6,-2 1,0 2,0 4,1l0 6c-3,0 -5,0 -5,1 -1,0 -2,2 -3,4 -1,3 -2,5 -4,6 3,1 5,4 7,8 0,0 1,0 1,1l5 10 -10 0 -5 -11c-1,-2 -2,-3 -2,-4 -1,0 -2,-1 -4,-1l0 15 -9 0 0 -35z"/>
    <path id="_15" class="fil9" d="M1027 130l11 0 8 24 9 -24 9 0 -12 33 -3 7c0,2 -1,3 -2,4 -1,1 -2,2 -3,3 -1,1 -2,1 -3,2 -2,0 -3,0 -5,0 -2,0 -4,0 -5,0l-1 -8c1,1 3,1 4,1 2,0 4,-1 5,-2 1,-2 2,-3 2,-5l-14 -35z"/>
    <g>
     <path class="fil10" d="M1050 713l201 304c18,58 -15,122 -94,97l-92 -110 -15 -290z"/>
     <polygon class="fil11" points="1144,854 1076,1015 1095,1038 1169,892 "/>
     <polygon class="fil11" points="1174,899 1100,1043 1123,1070 1199,936 "/>
    </g>
    <g>
     <path class="fil10" d="M453 713l-201 304c-18,58 15,122 94,97l92 -110 15 -290z"/>
     <polygon class="fil11" points="359,854 427,1015 409,1038 334,892 "/>
     <polygon class="fil11" points="329,899 404,1043 381,1070 304,936 "/>
    </g>
    <g>
     <path class="fil11" d="M509 673l63 4 82 0c27,12 56,18 86,18 31,0 60,-7 86,-18l95 0 67 -4c44,0 78,39 78,82l0 416 -636 0 0 -416c0,-44 35,-82 78,-82l0 0 0 0z"/>
     <polygon class="fil12" points="1067,912 1067,1061 431,1061 431,912 "/>
     <polygon class="fil12" points="1068,1097 1068,1203 431,1203 431,1097 "/>
     <polygon class="fil12" points="1067,747 1067,876 431,876 431,747 "/>
    </g>
   </g>
  </g>
 </g>
</svg>
