<?xml version="1.0" encoding="UTF-8"?>
<!DOCTYPE svg PUBLIC "-//W3C//DTD SVG 1.1//EN" "http://www.w3.org/Graphics/SVG/1.1/DTD/svg11.dtd">
<!-- Creator: CorelDRAW X6 -->
<svg xmlns="http://www.w3.org/2000/svg" xml:space="preserve" width="1500px" height="1200px" version="1.1" style="shape-rendering:geometricPrecision; text-rendering:geometricPrecision; image-rendering:optimizeQuality; fill-rule:evenodd; clip-rule:evenodd"
viewBox="0 0 1500 1200"
 xmlns:xlink="http://www.w3.org/1999/xlink">
 <defs>
  <style type="text/css">
   <![CDATA[
    .str0 {stroke:#CCCCCC;stroke-width:1.00039}
    .str1 {stroke:black;stroke-width:2.3622}
    .str2 {stroke:#4D4D4D;stroke-width:4.99961}
    .fil10 {fill:black}
    .fil5 {fill:#00CCFF}
    .fil9 {fill:#1A1A1A}
    .fil8 {fill:#5B5B5B}
    .fil15 {fill:#660066}
    .fil11 {fill:#666666}
    .fil13 {fill:#990000}
    .fil2 {fill:#BDE8F1}
    .fil1 {fill:#C4D3E2}
    .fil3 {fill:#D9F2EE}
    .fil0 {fill:#F7FAFA}
    .fil7 {fill:#FCD5A6}
    .fil12 {fill:red}
    .fil6 {fill:white}
    .fil4 {fill:#00CCFF;fill-rule:nonzero}
    .fil14 {fill:#4D4D4D;fill-rule:nonzero}
    .fil17 {fill:#660066;fill-rule:nonzero}
    .fil16 {fill:red;fill-rule:nonzero}
   ]]>
  </style>
 </defs>
 <g id="Слой_x0020_1">
  <metadata id="CorelCorpID_0Corel-Layer"/>
  <rect class="fil0 str0" x="-4" y="268" width="1500" height="620"/>
  <rect class="fil1" x="300" y="340" width="920" height="43.9996"/>
  <rect class="fil2" x="380" y="384" width="692" height="388"/>
  <rect class="fil3" x="976" y="384" width="192" height="380"/>
  <path class="fil4" d="M935 830l-21 0 0 -78c-8,7 -16,12 -27,16l0 -19c5,-2 11,-5 17,-10 6,-5 11,-11 13,-17l17 0 0 108z"/>
  <path id="1" class="fil4" d="M1001 722c10,0 19,4 24,11 7,9 10,23 10,44 0,20 -4,35 -11,44 -6,7 -14,11 -24,11 -10,0 -19,-4 -25,-12 -6,-8 -10,-22 -10,-43 0,-20 4,-35 11,-44 6,-7 14,-11 24,-11zm0 17c-2,0 -5,1 -7,2 -2,2 -3,4 -4,9 -1,5 -2,14 -2,27 0,13 1,21 2,26 1,5 3,8 5,9 2,2 4,2 7,2 2,0 5,-1 7,-2 2,-2 3,-4 4,-9 1,-5 2,-14 2,-27 0,-13 -1,-21 -2,-26 -1,-5 -3,-8 -5,-9 -2,-2 -4,-2 -7,-2z"/>
  <path id="2" class="fil4" d="M1084 722c10,0 19,4 24,11 7,9 10,23 10,44 0,20 -4,35 -11,44 -6,7 -14,11 -24,11 -10,0 -19,-4 -25,-12 -6,-8 -10,-22 -10,-43 0,-20 4,-35 11,-44 6,-7 14,-11 24,-11zm0 17c-2,0 -5,1 -7,2 -2,2 -3,4 -4,9 -1,5 -2,14 -2,27 0,13 1,21 2,26 1,5 3,8 5,9 2,2 4,2 7,2 2,0 5,-1 7,-2 2,-2 3,-4 4,-9 1,-5 2,-14 2,-27 0,-13 -1,-21 -2,-26 -1,-5 -3,-8 -5,-9 -2,-2 -4,-2 -7,-2z"/>
  <path id="3" class="fil4" d="M1168 722c10,0 19,4 24,11 7,9 10,23 10,44 0,20 -4,35 -11,44 -6,7 -14,11 -24,11 -10,0 -19,-4 -25,-12 -6,-8 -10,-22 -10,-43 0,-20 4,-35 11,-44 6,-7 14,-11 24,-11zm0 17c-2,0 -5,1 -7,2 -2,2 -3,4 -4,9 -1,5 -2,14 -2,27 0,13 1,21 2,26 1,5 3,8 5,9 2,2 4,2 7,2 2,0 5,-1 7,-2 2,-2 3,-4 4,-9 1,-5 2,-14 2,-27 0,-13 -1,-21 -2,-26 -1,-5 -3,-8 -5,-9 -2,-2 -4,-2 -7,-2z"/>
  <path class="fil4" d="M1180 370l2 -10c10,-4 18,-10 23,-15l7 0 -13 60 -12 0 9 -41c-2,2 -5,3 -8,4 -3,1 -6,2 -9,3z"/>
  <path id="1" class="fil4" d="M1222 384c0,-6 1,-12 3,-18 3,-8 6,-13 10,-17 4,-4 8,-6 13,-6 5,0 9,2 12,5 3,4 5,9 5,15 0,6 -1,13 -3,19 -2,7 -5,12 -9,16 -4,4 -8,5 -13,5 -5,0 -9,-2 -12,-5 -3,-4 -5,-9 -5,-15zm11 2c0,3 1,5 2,7 1,1 2,2 4,2 2,0 4,-1 6,-3 2,-3 4,-8 6,-16 1,-6 2,-11 2,-15 0,-3 -1,-5 -2,-6 -1,-1 -2,-2 -4,-2 -2,0 -4,1 -6,3 -2,3 -4,8 -6,15 -1,6 -2,11 -2,15z"/>
  <path id="2" class="fil4" d="M1268 384c0,-6 1,-12 3,-18 3,-8 6,-13 10,-17 4,-4 8,-6 13,-6 5,0 9,2 12,5 3,4 5,9 5,15 0,6 -1,13 -3,19 -2,7 -5,12 -9,16 -4,4 -8,5 -13,5 -5,0 -9,-2 -12,-5 -3,-4 -5,-9 -5,-15zm11 2c0,3 1,5 2,7 1,1 2,2 4,2 2,0 4,-1 6,-3 2,-3 4,-8 6,-16 1,-6 2,-11 2,-15 0,-3 -1,-5 -2,-6 -1,-1 -2,-2 -4,-2 -2,0 -4,1 -6,3 -2,3 -4,8 -6,15 -1,6 -2,11 -2,15z"/>
  <path id="3" class="fil4" d="M1315 384c0,-6 1,-12 3,-18 3,-8 6,-13 10,-17 4,-4 8,-6 13,-6 5,0 9,2 12,5 3,4 5,9 5,15 0,6 -1,13 -3,19 -2,7 -5,12 -9,16 -4,4 -8,5 -13,5 -5,0 -9,-2 -12,-5 -3,-4 -5,-9 -5,-15zm11 2c0,3 1,5 2,7 1,1 2,2 4,2 2,0 4,-1 6,-3 2,-3 4,-8 6,-16 1,-6 2,-11 2,-15 0,-3 -1,-5 -2,-6 -1,-1 -2,-2 -4,-2 -2,0 -4,1 -6,3 -2,3 -4,8 -6,15 -1,6 -2,11 -2,15z"/>
  <path class="fil4" d="M182 368l2 -10c10,-4 18,-10 23,-15l7 0 -13 60 -12 0 9 -41c-2,2 -5,3 -8,4 -3,1 -6,2 -9,3z"/>
  <path id="1" class="fil4" d="M224 382c0,-6 1,-12 3,-18 3,-8 6,-13 10,-17 4,-4 8,-6 13,-6 5,0 9,2 12,5 3,4 5,9 5,15 0,6 -1,13 -3,19 -2,7 -5,12 -9,16 -4,4 -8,5 -13,5 -5,0 -9,-2 -12,-5 -3,-4 -5,-9 -5,-15zm11 2c0,3 1,5 2,7 1,1 2,2 4,2 2,0 4,-1 6,-3 2,-3 4,-8 6,-16 1,-6 2,-11 2,-15 0,-3 -1,-5 -2,-6 -1,-1 -2,-2 -4,-2 -2,0 -4,1 -6,3 -2,3 -4,8 -6,15 -1,6 -2,11 -2,15z"/>
  <path id="2" class="fil4" d="M270 382c0,-6 1,-12 3,-18 3,-8 6,-13 10,-17 4,-4 8,-6 13,-6 5,0 9,2 12,5 3,4 5,9 5,15 0,6 -1,13 -3,19 -2,7 -5,12 -9,16 -4,4 -8,5 -13,5 -5,0 -9,-2 -12,-5 -3,-4 -5,-9 -5,-15zm11 2c0,3 1,5 2,7 1,1 2,2 4,2 2,0 4,-1 6,-3 2,-3 4,-8 6,-16 1,-6 2,-11 2,-15 0,-3 -1,-5 -2,-6 -1,-1 -2,-2 -4,-2 -2,0 -4,1 -6,3 -2,3 -4,8 -6,15 -1,6 -2,11 -2,15z"/>
  <path id="3" class="fil4" d="M317 382c0,-6 1,-12 3,-18 3,-8 6,-13 10,-17 4,-4 8,-6 13,-6 5,0 9,2 12,5 3,4 5,9 5,15 0,6 -1,13 -3,19 -2,7 -5,12 -9,16 -4,4 -8,5 -13,5 -5,0 -9,-2 -12,-5 -3,-4 -5,-9 -5,-15zm11 2c0,3 1,5 2,7 1,1 2,2 4,2 2,0 4,-1 6,-3 2,-3 4,-8 6,-16 1,-6 2,-11 2,-15 0,-3 -1,-5 -2,-6 -1,-1 -2,-2 -4,-2 -2,0 -4,1 -6,3 -2,3 -4,8 -6,15 -1,6 -2,11 -2,15z"/>
  <polygon class="fil4" points="157,822 146,822 155,777 140,777 141,768 184,768 182,777 166,777 "/>
  <path id="1" class="fil4" d="M230 783l10 0 -8 39 -10 0 8 -39zm-43 0l11 0 -3 16 12 0c4,0 7,1 10,2 2,2 3,4 3,7 0,4 -1,7 -4,9 -3,2 -7,4 -12,4l-24 0 8 -39zm4 32l7 0c4,0 7,0 8,-1 1,-1 2,-2 2,-4 0,-2 -1,-3 -2,-4 -1,-1 -4,-1 -8,-1l-6 0 -2 10z"/>
  <path id="2" class="fil4" d="M269 807l10 2c-2,5 -4,8 -7,10 -3,2 -7,4 -11,4 -5,0 -9,-1 -12,-4 -3,-3 -4,-7 -4,-12 0,-4 1,-8 3,-12 2,-4 4,-7 8,-9 4,-2 7,-3 12,-3 5,0 8,1 11,4 3,2 4,6 5,9l-10 1c0,-2 -1,-4 -2,-5 -1,-1 -2,-2 -4,-2 -2,0 -4,1 -6,2 -2,2 -3,4 -4,7 -1,3 -1,6 -1,9 0,2 1,4 2,5 1,1 3,2 4,2 2,0 3,-1 5,-2 2,-1 3,-3 4,-6z"/>
  <path id="3" class="fil4" d="M326 783l-8 39 -11 0 3 -15 -3 0c-1,0 -3,0 -4,1 -1,1 -3,2 -5,5l-7 9 -13 0 9 -11c2,-2 3,-4 6,-5 -1,0 -3,-1 -5,-3 -2,-2 -2,-4 -2,-7 0,-3 1,-6 3,-9 2,-3 7,-4 14,-4l21 0zm-12 7l-7 0c-3,0 -4,0 -5,1 -1,0 -2,1 -3,2 -1,1 -1,2 -1,3 0,1 1,3 2,4 1,1 4,1 7,1l5 0 2 -11z"/>
  <path id="4" class="fil4" d="M335 783l11 0 -2 8c-1,3 -1,4 -1,5 0,2 1,3 2,4 1,1 3,1 5,1 2,0 4,0 6,-1l3 -17 10 0 -8 39 -10 0 3 -16c-3,1 -7,2 -10,2 -4,0 -6,-1 -8,-3 -2,-2 -3,-4 -3,-8 0,-2 0,-4 1,-6l0 -1 2 -8z"/>
  <path id="5" class="fil4" d="M387 794l-10 -1c1,-3 3,-6 6,-8 3,-2 7,-3 12,-3 5,0 9,1 11,3 2,2 4,4 4,7 0,1 0,2 0,4 0,1 -1,5 -2,10 -1,5 -2,8 -2,10 0,2 0,3 1,6l-10 0c0,-1 -1,-3 -1,-4 -2,2 -3,3 -5,4 -2,1 -4,1 -6,1 -3,0 -6,-1 -8,-3 -2,-2 -3,-5 -3,-8 0,-4 1,-7 3,-9 2,-2 6,-4 12,-4 5,0 8,-1 10,-2 0,-1 1,-3 1,-4 0,-1 0,-2 -1,-3 -1,-1 -2,-1 -4,-1 -2,0 -3,0 -4,1 -1,1 -2,2 -2,3zm10 10c-1,0 -1,0 -3,0 -5,1 -9,2 -10,3 -1,1 -2,2 -2,4 0,1 0,2 1,3 1,1 2,1 3,1 2,0 3,0 4,-1 1,-1 2,-2 3,-3 1,-1 1,-3 2,-6l0 -1z"/>
  <path id="6" class="fil4" d="M442 783l10 0 -1 4c2,-2 4,-3 6,-4 2,-1 4,-1 6,-1 4,0 7,1 10,4 2,3 4,7 4,13 0,7 -2,13 -6,18 -4,4 -8,6 -13,6 -5,0 -9,-2 -12,-6l-4 20 -10 0 11 -54zm6 22c0,3 1,5 2,7 2,2 3,3 5,3 2,0 3,-1 5,-2 2,-1 3,-3 4,-6 1,-3 2,-6 2,-8 0,-3 -1,-5 -2,-7 -1,-2 -3,-2 -5,-2 -2,0 -4,1 -6,2 -2,1 -3,4 -4,6 -1,3 -1,5 -1,7z"/>
  <path id="7" class="fil4" d="M482 783l10 0 3 19c1,5 1,8 1,10 1,-4 3,-8 6,-13l9 -17 11 0 -24 43c-2,4 -4,6 -5,7 -1,1 -3,3 -4,3 -2,1 -4,1 -6,1 -2,0 -5,0 -7,-1l1 -8c1,0 2,1 4,1 3,0 6,-2 8,-7l-7 -39z"/>
  <path id="8" class="fil4" d="M560 766l7 0c0,3 -1,5 -1,7 -1,1 -2,3 -3,3 -2,1 -4,1 -9,1 -4,0 -6,0 -8,1 -2,0 -3,1 -5,3 -1,1 -3,4 -4,6 4,-2 7,-4 11,-4 5,0 9,2 11,5 3,3 4,7 4,12 0,6 -2,11 -6,16 -4,5 -9,7 -16,7 -6,0 -10,-2 -13,-5 -3,-3 -5,-8 -5,-13 0,-5 1,-11 3,-16 2,-6 5,-10 8,-13 3,-3 6,-5 8,-6 3,-1 7,-1 12,-1 2,0 4,0 5,0 1,0 1,-1 1,-2zm-26 40c0,3 1,5 3,7 2,1 4,2 6,2 3,0 6,-2 8,-5 2,-3 3,-7 3,-11 0,-3 -1,-5 -2,-6 -1,-2 -3,-2 -6,-2 -3,0 -6,2 -8,5 -2,3 -3,6 -3,10z"/>
  <path id="9" class="fil4" d="M578 783l33 0 -8 39 -10 0 6 -31 -13 0 -4 21c-1,4 -2,7 -4,9 -2,2 -5,3 -9,3 -2,0 -4,0 -7,-1l2 -9c1,0 3,0 4,0 2,0 3,-1 4,-2 1,-1 1,-4 2,-7l5 -22z"/>
  <path id="10" class="fil4" d="M650 806l-26 0c0,0 0,1 0,1 0,3 1,5 2,6 1,2 3,2 5,2 4,0 6,-2 8,-5l9 2c-2,4 -4,7 -7,8 -3,2 -7,3 -10,3 -5,0 -9,-2 -13,-5 -3,-3 -5,-8 -5,-13 0,-5 1,-10 4,-14 4,-6 10,-8 17,-8 5,0 9,1 11,4 3,3 4,7 4,12 0,3 0,5 -1,7zm-9 -6c0,0 0,-1 0,-1 0,-3 -1,-5 -2,-7 -1,-1 -3,-2 -5,-2 -2,0 -4,1 -6,2 -2,2 -3,4 -3,7l16 0z"/>
  <path id="11" class="fil4" d="M662 783l11 0 -5 23c-1,3 -1,5 -1,5 0,1 0,2 1,3 1,1 2,1 3,1 1,0 2,0 2,-1 1,0 2,-1 3,-2 1,-1 2,-2 2,-3 1,-1 1,-2 2,-4 0,-1 1,-3 1,-5l4 -19 11 0 -9 39 -10 0 1 -5c-4,4 -8,6 -13,6 -3,0 -5,-1 -7,-3 -2,-2 -3,-4 -3,-7 0,-1 0,-4 1,-8l5 -22zm7 -16l5 0c1,2 1,3 2,4 1,1 2,1 4,1 3,0 5,-2 7,-5l5 0c-1,3 -3,6 -5,8 -2,2 -5,3 -7,3 -3,0 -5,-1 -7,-3 -2,-2 -3,-4 -3,-8z"/>
  <polygon class="fil5" points="686,298 746,471 941,469 783,575 845,746 686,640 528,746 588,575 429,469 626,471 "/>
  <polygon class="fil6" points="657,506 722,506 740,519 740,646 641,646 641,515 "/>
  <path class="fil7" d="M692 401c32,0 58,26 58,58 0,32 -26,58 -58,58 -32,0 -58,-26 -58,-58 0,-32 26,-58 58,-58z"/>
  <path class="fil8" d="M692 401c26,0 48,17 55,41 1,12 -59,-6 -74,-28 -3,4 -30,26 -36,27 8,-23 29,-40 55,-40z"/>
  <path class="fil9" d="M624 527l18 0 50 121 48 -120 0 0 0 0 0 0 18 0c12,0 22,10 22,23l0 122 -180 0 0 -122c0,-13 10,-23 22,-23l0 0z"/>
  <circle class="fil10 str1" cx="691" cy="612" r="2"/>
  <rect class="fil11" x="740" y="612" width="29.4034" height="3.86957"/>
  <polygon class="fil6" points="763,602 756,595 740,612 769,612 "/>
  <polygon class="fil12" points="690,534 660,521 663,553 689,539 "/>
  <polygon class="fil12" points="688,533 719,522 717,554 686,538 "/>
  <rect class="fil13" x="686" y="529" width="8.6853" height="12.1011"/>
  <polygon class="fil6 str2" points="615,549 642,513 675,610 665,601 "/>
  <polygon class="fil6 str2" points="634,584 656,560 686,642 676,631 "/>
  <circle class="fil10 str1" cx="689" cy="569" r="2"/>
  <path class="fil13" d="M686 529l8 0c0,0 1,0 1,1l0 6c0,0 0,1 -1,1l-8 0c0,0 -1,0 -1,-1l0 -6c0,0 0,-1 1,-1z"/>
  <g id="_785732096">
   <polygon class="fil6" points="769,547 740,515 708,611 717,602 "/>
   <path id="_1" class="fil14" d="M739 515l0 -1 2 0 29 33 -2 2 -29 -33zm0 -1l1 -2 1 2 -2 0zm-30 97l0 0 -2 -1 32 -96 2 1 -32 96zm0 0l-4 4 2 -5 2 1zm8 -11l2 2 0 0 -9 9 -2 -2 9 -9zm2 2l0 0 0 0 0 0zm50 -56l2 0 0 2 -52 54 -2 -2 52 -54zm2 0l1 1 -1 1 0 -2z"/>
  </g>
  <g id="_785705408">
   <polygon class="fil6" points="750,587 725,561 696,643 704,635 "/>
   <path id="_1_0" class="fil14" d="M724 562l0 -1 2 0 25 26 -2 2 -25 -26zm0 -1l1 -2 1 2 -2 0zm-27 83l0 1 -2 -1 29 -82 2 1 -29 82zm0 1l-4 3 2 -5 2 1zm7 -9l2 2 0 0 -8 7 -2 -2 8 -7zm2 2l0 0 0 0 0 0zm44 -50l2 0 0 2 -46 48 -2 -2 46 -48zm2 0l1 1 -1 1 0 -2z"/>
  </g>
  <polygon class="fil9" points="607,535 617,597 569,630 545,606 "/>
  <polygon class="fil15" points="508,580 572,580 592,673 527,672 "/>
  <polygon class="fil12" points="561,623 555,629 559,638 551,633 545,640 546,630 538,626 547,625 548,616 553,624 "/>
  <path class="fil7" d="M520 636l4 0c4,0 7,3 7,7l0 12c0,4 -3,7 -7,7l-4 0c-4,0 -7,-3 -7,-7l0 -12c0,-4 3,-7 7,-7z"/>
  <path class="fil16" d="M218 1125l0 34 -130 0c1,-13 6,-25 13,-37 7,-12 21,-27 42,-47 17,-16 27,-26 31,-32 5,-8 8,-15 8,-23 0,-8 -2,-15 -7,-19 -4,-4 -11,-7 -18,-7 -8,0 -14,2 -19,7 -5,5 -7,12 -8,23l-37 -4c2,-20 9,-35 21,-44 12,-9 26,-13 44,-13 19,0 34,5 45,16 11,10 16,23 16,39 0,9 -2,17 -5,25 -3,8 -8,16 -15,25 -4,6 -13,14 -24,25 -12,11 -19,18 -22,21 -3,4 -6,7 -8,10l74 0z"/>
  <polygon id="1" class="fil17" points="328,1019 374,1019 409,1117 444,1019 490,1019 490,1160 458,1160 458,1067 424,1160 392,1160 359,1067 359,1160 328,1160 "/>
  <path id="2" class="fil17" d="M608 1115l37 6c-5,14 -12,24 -23,31 -10,7 -23,11 -39,11 -24,0 -43,-8 -54,-24 -9,-13 -14,-29 -14,-49 0,-23 6,-42 18,-55 12,-13 28,-20 46,-20 21,0 37,7 49,21 12,14 18,35 17,64l-93 0c0,11 3,20 9,26 6,6 13,9 21,9 6,0 11,-2 15,-5 4,-3 7,-8 9,-15zm2 -38c0,-11 -3,-19 -8,-25 -5,-6 -12,-8 -19,-8 -8,0 -15,3 -20,9 -5,6 -8,14 -8,24l55 0z"/>
  <path id="3" class="fil17" d="M796 1061l-37 7c-1,-7 -4,-13 -8,-16 -4,-4 -10,-6 -17,-6 -9,0 -17,3 -22,10 -6,6 -8,17 -8,32 0,17 3,28 8,35 6,7 13,10 22,10 7,0 13,-2 17,-6 5,-4 8,-11 10,-21l37 6c-4,17 -11,29 -22,38 -11,9 -25,13 -43,13 -20,0 -37,-6 -49,-19 -12,-13 -18,-31 -18,-54 0,-23 6,-41 18,-54 12,-13 29,-19 50,-19 17,0 31,4 41,11 10,7 17,19 22,34z"/>
  <path id="4" class="fil17" d="M945 1019l0 141 -37 0 0 -58 -3 0c-8,0 -14,1 -18,3 -4,2 -8,6 -13,13l-2 3 -25 39 -43 0 27 -41c8,-12 14,-18 21,-20 -10,-1 -19,-5 -25,-12 -6,-7 -10,-17 -10,-28 0,-9 2,-17 6,-23 4,-6 10,-11 17,-13 7,-2 18,-4 32,-4l73 0zm-37 24l-27 0c-10,0 -17,1 -21,4 -4,3 -6,7 -6,14 0,7 2,11 7,14 5,3 12,4 22,4l24 0 0 -36z"/>
  <polygon id="5" class="fil17" points="981,1019 1018,1019 1018,1130 1072,1130 1072,1019 1109,1019 1109,1130 1123,1130 1123,1197 1093,1197 1093,1160 981,1160 "/>
  <path id="6" class="fil17" d="M1180 1062l-34 -6c4,-14 10,-24 20,-30 9,-7 23,-10 41,-10 17,0 29,2 37,6 8,4 14,9 17,15 3,6 5,17 5,33l-1 43c0,12 1,21 2,27 1,6 3,12 7,19l-37 0c-1,-2 -2,-6 -4,-11 -1,-2 -1,-4 -1,-4 -6,6 -13,11 -20,14 -7,3 -15,5 -23,5 -14,0 -26,-4 -34,-12 -8,-8 -12,-18 -12,-30 0,-8 2,-15 6,-21 4,-6 9,-11 16,-14 7,-3 17,-6 30,-9 17,-3 29,-6 36,-9l0 -4c0,-7 -2,-12 -5,-15 -4,-3 -10,-5 -20,-5 -7,0 -12,1 -15,4 -4,3 -7,7 -9,14zm50 30c-5,2 -12,3 -23,6 -10,2 -17,4 -20,6 -5,3 -7,8 -7,13 0,5 2,10 6,13 4,4 9,6 15,6 7,0 13,-2 19,-7 4,-3 7,-7 9,-12 1,-3 1,-9 1,-18l0 -7z"/>
  <path id="7" class="fil17" d="M1317 1110l-10 -99 0 -46 40 0 0 46 -9 99 -21 0zm-8 50l0 -37 37 0 0 37 -37 0z"/>
  <polygon class="fil17" points="53,112 53,43 28,43 28,28 95,28 95,43 70,43 70,112 "/>
  <path id="1" class="fil17" d="M94 81c0,-5 1,-10 4,-15 3,-5 6,-9 11,-11 5,-3 10,-4 16,-4 9,0 17,3 22,9 6,6 9,13 9,23 0,9 -3,17 -9,23 -6,6 -13,9 -22,9 -6,0 -11,-1 -16,-4 -5,-3 -9,-6 -11,-11 -3,-5 -4,-11 -4,-18zm16 1c0,6 1,11 4,14 3,3 6,5 11,5 4,0 8,-2 10,-5 3,-3 4,-8 4,-14 0,-6 -1,-11 -4,-14 -3,-3 -6,-5 -10,-5 -4,0 -8,2 -11,5 -3,3 -4,8 -4,14z"/>
  <path id="2" class="fil17" d="M169 51l15 0 0 9c2,-3 5,-5 8,-7 3,-2 7,-3 11,-3 7,0 13,3 18,8 5,6 7,13 7,23 0,10 -2,18 -7,24 -5,6 -11,8 -18,8 -3,0 -6,-1 -9,-2 -3,-1 -6,-4 -9,-7l0 30 -16 0 0 -84zm16 29c0,7 1,12 4,15 3,3 6,5 10,5 4,0 7,-1 9,-4 2,-3 4,-8 4,-15 0,-6 -1,-11 -4,-14 -3,-3 -6,-5 -9,-5 -4,0 -7,2 -10,5 -3,3 -4,8 -4,13z"/>
  <polygon id="3" class="fil17" points="240,51 281,51 281,64 256,64 256,112 240,112 "/>
  <path id="4" class="fil17" d="M284 81c0,-5 1,-10 4,-15 3,-5 6,-9 11,-11 5,-3 10,-4 16,-4 9,0 17,3 22,9 6,6 9,13 9,23 0,9 -3,17 -9,23 -6,6 -13,9 -22,9 -6,0 -11,-1 -16,-4 -5,-3 -9,-6 -11,-11 -3,-5 -4,-11 -4,-18zm16 1c0,6 1,11 4,14 3,3 6,5 11,5 4,0 8,-2 10,-5 3,-3 4,-8 4,-14 0,-6 -1,-11 -4,-14 -3,-3 -6,-5 -10,-5 -4,0 -8,2 -11,5 -3,3 -4,8 -4,14z"/>
  <path id="5" class="fil17" d="M359 51l35 0c7,0 13,1 16,4 4,3 5,7 5,12 0,3 -1,6 -3,9 -2,3 -4,4 -7,5 4,1 7,3 9,6 2,3 3,6 3,9 0,5 -2,9 -5,11 -3,3 -9,4 -15,4l-38 0 0 -61zm16 25l10 0c5,0 9,-1 11,-2 2,-1 3,-3 3,-6 0,-3 -1,-4 -3,-5 -2,-1 -6,-2 -11,-2l-10 0 0 15zm0 25l13 0c5,0 8,-1 10,-2 2,-1 3,-3 3,-6 0,-3 -1,-5 -4,-6 -2,-1 -7,-2 -14,-2l-8 0 0 15z"/>
  <path id="6" class="fil17" d="M431 51l16 0 0 25 16 0c6,0 11,0 14,1 3,1 6,3 8,6 2,3 3,7 3,11 0,6 -2,10 -6,13 -4,3 -10,4 -18,4l-34 0 0 -61zm16 50l15 0c4,0 7,-1 8,-2 2,-1 3,-3 3,-6 0,-3 -1,-5 -3,-6 -2,-1 -6,-2 -12,-2l-10 0 0 15zm52 -50l16 0 0 61 -16 0 0 -61z"/>
  <path id="7" class="fil17" d="M530 51l15 0 0 38 25 -38 16 0 0 61 -15 0 0 -39 -25 39 -15 0 0 -61zm38 -24l8 0c0,5 -2,9 -5,12 -3,3 -7,4 -12,4 -5,0 -9,-1 -12,-4 -3,-3 -5,-7 -5,-12l8 0c0,3 1,5 3,6 2,1 4,2 7,2 3,0 5,-1 7,-2 2,-1 3,-3 3,-6z"/>
  <path id="8" class="fil17" d="M635 51l35 0c7,0 13,1 16,4 4,3 5,7 5,12 0,3 -1,6 -3,9 -2,3 -4,4 -7,5 4,1 7,3 9,6 2,3 3,6 3,9 0,5 -2,9 -5,11 -3,3 -9,4 -15,4l-38 0 0 -61zm16 25l10 0c5,0 9,-1 11,-2 2,-1 3,-3 3,-6 0,-3 -1,-4 -3,-5 -2,-1 -6,-2 -11,-2l-10 0 0 15zm0 25l13 0c5,0 8,-1 10,-2 2,-1 3,-3 3,-6 0,-3 -1,-5 -4,-6 -2,-1 -7,-2 -14,-2l-8 0 0 15z"/>
  <path id="9" class="fil17" d="M722 87l0 -10c3,0 5,0 6,-1 1,0 2,-1 4,-3 1,-1 2,-3 2,-5 0,-2 -1,-4 -2,-5 -1,-2 -3,-2 -6,-2 -2,0 -4,0 -6,1 -2,1 -3,3 -5,6l-14 -3c1,-5 4,-9 9,-12 4,-3 10,-4 15,-4 7,0 13,2 17,5 4,3 6,8 6,13 0,3 -1,6 -3,8 -2,2 -4,4 -8,6 4,1 8,3 10,6 2,2 3,6 3,9 0,5 -2,9 -7,12 -4,3 -11,5 -19,5 -14,0 -23,-6 -26,-17l15 -3c2,6 6,9 12,9 3,0 5,-1 7,-2 2,-2 3,-3 3,-6 0,-2 -1,-4 -3,-6 -2,-1 -4,-2 -7,-2l-3 0z"/>
  <polygon id="10" class="fil17" points="763,51 779,51 779,74 802,74 802,51 818,51 818,112 802,112 802,87 779,87 779,112 763,112 "/>
  <path id="11" class="fil17" d="M831 81c0,-5 1,-10 4,-15 3,-5 6,-9 11,-11 5,-3 10,-4 16,-4 9,0 17,3 22,9 6,6 9,13 9,23 0,9 -3,17 -9,23 -6,6 -13,9 -22,9 -6,0 -11,-1 -16,-4 -5,-3 -9,-6 -11,-11 -3,-5 -4,-11 -4,-18zm16 1c0,6 1,11 4,14 3,3 6,5 11,5 4,0 8,-2 10,-5 3,-3 4,-8 4,-14 0,-6 -1,-11 -4,-14 -3,-3 -6,-5 -10,-5 -4,0 -8,2 -11,5 -3,3 -4,8 -4,14z"/>
  <path id="12" class="fil17" d="M957 69l-16 3c-1,-3 -2,-5 -4,-7 -2,-2 -4,-2 -7,-2 -4,0 -7,1 -10,4 -2,3 -4,7 -4,14 0,7 1,12 4,15 2,3 6,4 10,4 3,0 6,-1 7,-3 2,-2 3,-5 4,-9l16 3c-2,7 -5,13 -9,16 -5,4 -11,6 -19,6 -9,0 -16,-3 -21,-8 -5,-6 -8,-13 -8,-23 0,-10 3,-18 8,-23 5,-6 12,-8 21,-8 7,0 13,2 18,5 4,3 7,8 9,14z"/>
  <path id="13" class="fil17" d="M1018 87l0 -10c3,0 5,0 6,-1 1,0 2,-1 4,-3 1,-1 2,-3 2,-5 0,-2 -1,-4 -2,-5 -1,-2 -3,-2 -6,-2 -2,0 -4,0 -6,1 -2,1 -3,3 -5,6l-14 -3c1,-5 4,-9 9,-12 4,-3 10,-4 15,-4 7,0 13,2 17,5 4,3 6,8 6,13 0,3 -1,6 -3,8 -2,2 -4,4 -8,6 4,1 8,3 10,6 2,2 3,6 3,9 0,5 -2,9 -7,12 -4,3 -11,5 -19,5 -14,0 -23,-6 -26,-17l15 -3c2,6 6,9 12,9 3,0 5,-1 7,-2 2,-2 3,-3 3,-6 0,-2 -1,-4 -3,-6 -2,-1 -4,-2 -7,-2l-3 0z"/>
  <path id="14" class="fil17" d="M1070 70l-14 -3c2,-6 4,-10 8,-13 4,-3 10,-4 18,-4 7,0 12,1 16,3 3,2 6,4 7,6 1,3 2,7 2,14l0 19c0,5 0,9 1,12 1,3 1,5 3,8l-16 0c0,-1 -1,-3 -2,-5 0,-1 0,-2 -1,-2 -3,3 -6,5 -9,6 -3,1 -6,2 -10,2 -6,0 -11,-2 -15,-5 -4,-3 -5,-8 -5,-13 0,-3 1,-6 2,-9 2,-3 4,-5 7,-6 3,-1 7,-3 13,-4 7,-1 13,-3 16,-4l0 -2c0,-3 -1,-5 -2,-7 -2,-1 -4,-2 -9,-2 -3,0 -5,1 -7,2 -2,1 -3,3 -4,6zm21 13c-2,1 -5,1 -10,2 -4,1 -7,2 -9,3 -2,1 -3,3 -3,6 0,2 1,4 3,6 2,2 4,2 6,2 3,0 6,-1 8,-3 2,-1 3,-3 4,-5 0,-1 1,-4 1,-8l0 -3z"/>
  <polygon id="15" class="fil17" points="1155,51 1208,51 1208,112 1192,112 1192,64 1171,64 1171,112 1155,112 "/>
  <path id="16" class="fil17" d="M1225 51l15 0 0 9c2,-3 5,-5 8,-7 3,-2 7,-3 11,-3 7,0 13,3 18,8 5,6 7,13 7,23 0,10 -2,18 -7,24 -5,6 -11,8 -18,8 -3,0 -6,-1 -9,-2 -3,-1 -6,-4 -9,-7l0 30 -16 0 0 -84zm16 29c0,7 1,12 4,15 3,3 6,5 10,5 4,0 7,-1 9,-4 2,-3 4,-8 4,-15 0,-6 -1,-11 -4,-14 -3,-3 -6,-5 -9,-5 -4,0 -7,2 -10,5 -3,3 -4,8 -4,13z"/>
  <path id="17" class="fil17" d="M1309 70l-14 -3c2,-6 4,-10 8,-13 4,-3 10,-4 18,-4 7,0 12,1 16,3 3,2 6,4 7,6 1,3 2,7 2,14l0 19c0,5 0,9 1,12 1,3 1,5 3,8l-16 0c0,-1 -1,-3 -2,-5 0,-1 0,-2 -1,-2 -3,3 -6,5 -9,6 -3,1 -6,2 -10,2 -6,0 -11,-2 -15,-5 -4,-3 -5,-8 -5,-13 0,-3 1,-6 2,-9 2,-3 4,-5 7,-6 3,-1 7,-3 13,-4 7,-1 13,-3 16,-4l0 -2c0,-3 -1,-5 -2,-7 -2,-1 -4,-2 -9,-2 -3,0 -5,1 -7,2 -2,1 -3,3 -4,6zm21 13c-2,1 -5,1 -10,2 -4,1 -7,2 -9,3 -2,1 -3,3 -3,6 0,2 1,4 3,6 2,2 4,2 6,2 3,0 6,-1 8,-3 2,-1 3,-3 4,-5 0,-1 1,-4 1,-8l0 -3z"/>
  <path id="18" class="fil17" d="M1362 51l35 0c7,0 13,1 16,4 4,3 5,7 5,12 0,3 -1,6 -3,9 -2,3 -4,4 -7,5 4,1 7,3 9,6 2,3 3,6 3,9 0,5 -2,9 -5,11 -3,3 -9,4 -15,4l-38 0 0 -61zm16 25l10 0c5,0 9,-1 11,-2 2,-1 3,-3 3,-6 0,-3 -1,-4 -3,-5 -2,-1 -6,-2 -11,-2l-10 0 0 15zm0 25l13 0c5,0 8,-1 10,-2 2,-1 3,-3 3,-6 0,-3 -1,-5 -4,-6 -2,-1 -7,-2 -14,-2l-8 0 0 15z"/>
  <path id="19" class="fil17" d="M1428 81c0,-5 1,-10 4,-15 3,-5 6,-9 11,-11 5,-3 10,-4 16,-4 9,0 17,3 22,9 6,6 9,13 9,23 0,9 -3,17 -9,23 -6,6 -13,9 -22,9 -6,0 -11,-1 -16,-4 -5,-3 -9,-6 -11,-11 -3,-5 -4,-11 -4,-18zm16 1c0,6 1,11 4,14 3,3 6,5 11,5 4,0 8,-2 10,-5 3,-3 4,-8 4,-14 0,-6 -1,-11 -4,-14 -3,-3 -6,-5 -10,-5 -4,0 -8,2 -11,5 -3,3 -4,8 -4,14z"/>
  <path id="20" class="fil17" d="M326 182l17 0 15 43 14 -43 17 0 -21 58 -4 11c-1,4 -3,6 -4,8 -1,2 -3,3 -4,5 -2,1 -4,2 -6,3 -2,1 -5,1 -8,1 -3,0 -6,0 -9,-1l-1 -12c3,0 5,1 7,1 4,0 6,-1 8,-3 2,-2 3,-5 4,-8l-23 -61z"/>
  <path id="21" class="fil17" d="M409 200l-14 -3c2,-6 4,-10 8,-13 4,-3 10,-4 18,-4 7,0 12,1 16,3 3,2 6,4 7,6 1,3 2,7 2,14l0 19c0,5 0,9 1,12 1,3 1,5 3,8l-16 0c0,-1 -1,-3 -2,-5 0,-1 0,-2 -1,-2 -3,3 -6,5 -9,6 -3,1 -6,2 -10,2 -6,0 -11,-2 -15,-5 -4,-3 -5,-8 -5,-13 0,-3 1,-6 2,-9 2,-3 4,-5 7,-6 3,-1 7,-3 13,-4 7,-1 13,-3 16,-4l0 -2c0,-3 -1,-5 -2,-7 -2,-1 -4,-2 -9,-2 -3,0 -5,1 -7,2 -2,1 -3,3 -4,6zm21 13c-2,1 -5,1 -10,2 -4,1 -7,2 -9,3 -2,1 -3,3 -3,6 0,2 1,4 3,6 2,2 4,2 6,2 3,0 6,-1 8,-3 2,-1 3,-3 4,-5 0,-1 1,-4 1,-8l0 -3z"/>
  <path id="22" class="fil17" d="M514 200l-16 3c-1,-3 -2,-5 -4,-7 -2,-2 -4,-2 -7,-2 -4,0 -7,1 -10,4 -2,3 -4,7 -4,14 0,7 1,12 4,15 2,3 6,4 10,4 3,0 6,-1 7,-3 2,-2 3,-5 4,-9l16 3c-2,7 -5,13 -9,16 -5,4 -11,6 -19,6 -9,0 -16,-3 -21,-8 -5,-6 -8,-13 -8,-23 0,-10 3,-18 8,-23 5,-6 12,-8 21,-8 7,0 13,2 18,5 4,3 7,8 9,14z"/>
  <polygon id="23" class="fil17" points="519,182 574,182 574,195 555,195 555,242 539,242 539,195 519,195 "/>
  <polygon id="24" class="fil17" points="583,182 599,182 599,220 623,182 639,182 639,242 624,242 624,204 599,242 583,242 "/>
  <path id="25" class="fil17" d="M707 182l0 61 -16 0 0 -25 -1 0c-3,0 -6,0 -8,1 -2,1 -3,3 -5,6l-1 1 -11 17 -19 0 11 -18c3,-5 6,-8 9,-9 -4,0 -8,-2 -11,-5 -3,-3 -4,-7 -4,-12 0,-4 1,-7 3,-10 2,-3 4,-5 7,-6 3,-1 8,-2 14,-2l32 0zm-16 10l-11 0c-4,0 -7,1 -9,2 -2,1 -3,3 -3,6 0,3 1,5 3,6 2,1 5,2 10,2l11 0 0 -16z"/>
  <path id="26" class="fil17" d="M756 182l35 0c7,0 13,1 16,4 4,3 5,7 5,12 0,3 -1,6 -3,9 -2,3 -4,4 -7,5 4,1 7,3 9,6 2,3 3,6 3,9 0,5 -2,9 -5,11 -3,3 -9,4 -15,4l-38 0 0 -61zm16 25l10 0c5,0 9,-1 11,-2 2,-1 3,-3 3,-6 0,-3 -1,-4 -3,-5 -2,-1 -6,-2 -11,-2l-10 0 0 15zm0 25l13 0c5,0 8,-1 10,-2 2,-1 3,-3 3,-6 0,-3 -1,-5 -4,-6 -2,-1 -7,-2 -14,-2l-8 0 0 15z"/>
  <polygon id="27" class="fil17" points="853,182 908,182 908,195 888,195 888,242 872,242 872,195 853,195 "/>
  <path id="28" class="fil17" d="M912 211c0,-5 1,-10 4,-15 3,-5 6,-9 11,-11 5,-3 10,-4 16,-4 9,0 17,3 22,9 6,6 9,13 9,23 0,9 -3,17 -9,23 -6,6 -13,9 -22,9 -6,0 -11,-1 -16,-4 -5,-3 -9,-6 -11,-11 -3,-5 -4,-11 -4,-18zm16 1c0,6 1,11 4,14 3,3 6,5 11,5 4,0 8,-2 10,-5 3,-3 4,-8 4,-14 0,-6 -1,-11 -4,-14 -3,-3 -6,-5 -10,-5 -4,0 -8,2 -11,5 -3,3 -4,8 -4,14z"/>
  <path id="29" class="fil17" d="M986 182l15 0 0 9c2,-3 5,-5 8,-7 3,-2 7,-3 11,-3 7,0 13,3 18,8 5,6 7,13 7,23 0,10 -2,18 -7,24 -5,6 -11,8 -18,8 -3,0 -6,-1 -9,-2 -3,-1 -6,-4 -9,-7l0 30 -16 0 0 -84zm16 29c0,7 1,12 4,15 3,3 6,5 10,5 4,0 7,-1 9,-4 2,-3 4,-8 4,-15 0,-6 -1,-11 -4,-14 -3,-3 -6,-5 -9,-5 -4,0 -7,2 -10,5 -3,3 -4,8 -4,13z"/>
  <polygon id="30" class="fil17" points="1057,182 1098,182 1098,195 1073,195 1073,242 1057,242 "/>
  <path id="31" class="fil17" d="M1119 200l-14 -3c2,-6 4,-10 8,-13 4,-3 10,-4 18,-4 7,0 12,1 16,3 3,2 6,4 7,6 1,3 2,7 2,14l0 19c0,5 0,9 1,12 1,3 1,5 3,8l-16 0c0,-1 -1,-3 -2,-5 0,-1 0,-2 -1,-2 -3,3 -6,5 -9,6 -3,1 -6,2 -10,2 -6,0 -11,-2 -15,-5 -4,-3 -5,-8 -5,-13 0,-3 1,-6 2,-9 2,-3 4,-5 7,-6 3,-1 7,-3 13,-4 7,-1 13,-3 16,-4l0 -2c0,-3 -1,-5 -2,-7 -2,-1 -4,-2 -9,-2 -3,0 -5,1 -7,2 -2,1 -3,3 -4,6zm21 13c-2,1 -5,1 -10,2 -4,1 -7,2 -9,3 -2,1 -3,3 -3,6 0,2 1,4 3,6 2,2 4,2 6,2 3,0 6,-1 8,-3 2,-1 3,-3 4,-5 0,-1 1,-4 1,-8l0 -3z"/>
  <polygon id="32" class="fil17" points="1164,242 1186,211 1165,182 1184,182 1195,198 1206,182 1225,182 1205,210 1227,242 1207,242 1195,224 1183,242 "/>
 </g>
</svg>
