<?xml version="1.0" encoding="UTF-8"?>
<!DOCTYPE svg PUBLIC "-//W3C//DTD SVG 1.1//EN" "http://www.w3.org/Graphics/SVG/1.1/DTD/svg11.dtd">
<!-- Creator: CorelDRAW X6 -->
<svg xmlns="http://www.w3.org/2000/svg" xml:space="preserve" width="144.78mm" height="119.749mm" version="1.1" style="shape-rendering:geometricPrecision; text-rendering:geometricPrecision; image-rendering:optimizeQuality; fill-rule:evenodd; clip-rule:evenodd"
viewBox="0 0 1767 1462"
 xmlns:xlink="http://www.w3.org/1999/xlink">
 <defs>
  <style type="text/css">
   <![CDATA[
    .str0 {stroke:black;stroke-width:7.62832}
    .fil1 {fill:none}
    .fil10 {fill:#2B2A29}
    .fil15 {fill:#FEFEFE}
    .fil6 {fill:black}
    .fil5 {fill:#1A1A1A}
    .fil20 {fill:#58595B}
    .fil0 {fill:#660066}
    .fil7 {fill:#666666}
    .fil19 {fill:#939598}
    .fil18 {fill:#BCBDC0}
    .fil17 {fill:#BD0006}
    .fil21 {fill:#D1D3D4}
    .fil12 {fill:#D40B0B}
    .fil2 {fill:#E81515}
    .fil3 {fill:#FCD5A6}
    .fil16 {fill:#FEFEFE}
    .fil8 {fill:white}
    .fil4 {fill:#58351B}
    .fil14 {fill:#AE4A84;fill-rule:nonzero}
    .fil11 {fill:#D40B0B;fill-rule:nonzero}
    .fil9 {fill:url(#id0)}
    .fil13 {fill:url(#id1)}
   ]]>
  </style>
  <radialGradient id="id0" gradientUnits="objectBoundingBox" cx="49.9998%" cy="49.9995%" r="50.0002%" fx="49.9998%" fy="49.9995%">
   <stop offset="0" style="stop-color:#F71111"/>
   <stop offset="0.811765" style="stop-color:#E50E0E"/>
   <stop offset="1" style="stop-color:#D40B0B"/>
  </radialGradient>
  <radialGradient id="id1" gradientUnits="objectBoundingBox" cx="49.9999%" cy="-4.00035%" r="50.0001%" fx="49.9999%" fy="-4.00035%">
   <stop offset="0" style="stop-color:#50241A"/>
   <stop offset="1" style="stop-color:#6B231C"/>
  </radialGradient>
 </defs>
 <g id="Слой_x0020_1">
  <metadata id="CorelCorpID_0Corel-Layer"/>
  <g id="_601775408">
   <path class="fil0" d="M99 568l74 0 155 211 157 -211 78 0c47,0 86,42 86,95l0 549c0,53 -39,95 -86,95l-464 0c-48,0 -86,-42 -86,-95l0 -549c0,-53 38,-95 86,-95z"/>
   <polygon class="fil0" points="490,822 640,620 859,1174 743,1268 "/>
   <path class="fil1" d="M889 1178l107 0 -996 0m885 0l116 0 -1001 0m885 0l120 0 -1005 0m885 0l124 0 -1009 0m881 0l0 -4 133 0 0 4 -133 0m0 -4l137 0 -1018 0m881 0l141 0 -1022 0m876 0l150 0 -1026 0m876 0l0 -4 155 0 0 4 -155 0m0 -4l155 0 -1031 0m872 0l159 0 -1031 0m872 0l159 0 -1031 0m872 0l159 0 -1031 0m868 0l0 -5 163 0 0 5 -163 0"/>
   <path class="fil1" d="M799 1462l0 -5 232 0 0 5 -232 0m0 -5l232 0 -1031 0m799 0l232 0 -1031 0m794 0l237 0 -1031 0m794 0l237 0 -1031 0m794 0l0 -4 237 0 0 4 -237 0m-4 -4l241 0 -1031 0m790 0l241 0 -1031 0m786 0l245 0 -1031 0m786 0l245 0 -1031 0m786 0l0 -4 245 0 0 4 -245 0m-4 -4l249 0 -1031 0m782 0l249 0 -1031 0m782 0l249 0 -1031 0m777 0l254 0 -1031 0m777 0l0 -5 254 0 0 5 -254 0m0 -5l254 0 -1031 0m773 0l258 0 -1031 0m773 0l258 0 -1031 0m769 0l262 0 -1031 0m769 0l0 -4 262 0 0 4 -262 0m0 -4l262 0 -1031 0m764 0l267 0 -1031 0m764 0l267 0 -1031 0m764 0l267 0 -1031 0m760 0l0 -4 271 0 0 4 -271 0m0 -4l271 0 -1031 0m756 0l275 0 -1031 0m756 0l275 0 -1031 0m756 0l275 0 -1031 0m752 0l0 -4 279 0 0 4 -279 0m0 -4l279 0 -1031 0m752 0l279 0 -1031 0m752 0l0 -5 279 0 0 5 -279 0m0 -5l279 0 -1031 0m752 0l279 0 -1031 0m752 0l279 0 -1031 0m756 0l0 -4 275 0 0 4 -275 0"/>
   <path class="fil1" d="M756 1427l0 -4 275 0 0 4 -275 0m0 -4l275 0 -1031 0m756 0l275 0 -1031 0m756 0l0 -4 275 0 0 4 -275 0"/>
   <path class="fil1" d="M760 1423l0 -4 271 0 0 4 -271 0m0 -4l271 0 -1031 0m760 0l271 0 -1031 0m760 0l0 -5 271 0 0 5 -271 0m0 -5l271 0 -1031 0m764 0l267 0 -1031 0m764 0l267 0 -1031 0m764 0l0 -4 267 0 0 4 -267 0m0 -4l267 0 -1031 0m764 0l267 0 -1031 0m769 0l262 0 -1031 0m769 0l0 -4 262 0 0 4 -262 0m0 -4l262 0 -1031 0m769 0l262 0 -1031 0m769 0l262 0 -1031 0m773 0l0 -4 258 0 0 4 -258 0m0 -4l258 0 -1031 0m773 0l258 0 -1031 0m773 0l258 0 -1031 0m773 0l0 -5 258 0 0 5 -258 0m4 -5l254 0 -1031 0m777 0l254 0 -1031 0m777 0l0 -4 254 0 0 4 -254 0m0 -4l254 0 -1031 0m777 0l254 0 -1031 0m782 0l249 0 -1031 0m782 0l0 -4 249 0 0 4 -249 0m0 -4l249 0 -1031 0m782 0l249 0 -1031 0m782 0l249 0 -1031 0m786 0l0 -5 245 0 0 5 -245 0m0 -5l245 0 -1031 0m786 0l245 0 -1031 0m786 0l245 0 -1031 0m786 0l0 -4 245 0 0 4 -245 0m4 -4l241 0 -1031 0m790 0l241 0 -1031 0m790 0l0 -4 241 0 0 4 -241 0"/>
   <path class="fil1" d="M790 1380l0 -4 241 0 0 4 -241 0m0 -4l241 0 -1031 0m794 0l237 0 -1031 0m794 0l0 -5 237 0 0 5 -237 0"/>
   <path class="fil1" d="M794 1376l0 -5 237 0 0 5 -237 0m0 -5l237 0 -1031 0m794 0l237 0 -1031 0"/>
   <polygon class="fil0" points="13,1045 587,1045 587,1308 13,1308 "/>
   <path class="fil1" d="M794 1126l0 -4 237 0 0 4 -237 0m0 -4l237 0 -1031 0m949 0l77 0 -1026 0m949 0l77 0 -1026 0m949 0l73 0 -1022 0m949 0l0 -4 73 0 0 4 -73 0m0 -4l73 0 -1022 0m949 0l69 0 -1018 0m949 0l69 0 -1018 0m949 0l69 0 -1018 0m949 0l0 -4 65 0 0 4 -65 0m0 -4l65 0 -1014 0m949 0l65 0 -1014 0m949 0l60 0 -1009 0m949 0l60 0 -1009 0m949 0l0 -5 56 0 0 5 -56 0m0 -5l56 0 -1005 0m949 0l56 0 -1005 0m949 0l52 0 -1001 0m949 0l52 0 -1001 0m949 0l0 -4 52 0 0 4 -52 0m0 -4l47 0 -996 0m949 0l47 0 -996 0m949 0l43 0 -992 0m949 0l43 0 -992 0m949 0l0 -4 43 0 0 4 -43 0m0 -4l43 0 -992 0m949 0l39 0 -988 0m949 0l39 0 -988 0m949 0l35 0 -984 0m949 0l0 -5 35 0 0 5 -35 0m0 -5l35 0 -984 0m949 0l30 0 -979 0m949 0l30 0 -979 0m949 0l30 0 -979 0m949 0l0 -4 26 0 0 4 -26 0"/>
   <path class="fil1" d="M958 1161l0 -4 73 0 0 4 -73 0m0 -4l73 0 -1031 0m958 0l73 0 -1031 0m962 0l0 -5 69 0 0 5 -69 0"/>
   <path class="fil1" d="M962 1157l0 -5 69 0 0 5 -69 0m0 -5l69 0 -1031 0m962 0l69 0 -1031 0m962 0l0 -4 69 0 0 4 -69 0"/>
   <path class="fil1" d="M966 1152l0 -4 65 0 0 4 -65 0m0 -4l65 0 -1031 0m966 0l65 0 -1031 0m966 0l0 -4 65 0 0 4 -65 0m0 -4l65 0 -1031 0m971 0l60 0 -1031 0m971 0l60 0 -1031 0m971 0l0 -5 60 0 0 5 -60 0m0 -5l60 0 -1031 0m971 0l60 0 -1031 0m975 0l56 0 -1031 0m975 0l0 -4 56 0 0 4 -56 0m0 -4l56 0 -1031 0m975 0l56 0 -1031 0m975 0l56 0 -1031 0m975 0l51 0 -1026 0m979 0l0 -4 47 0 0 4 -47 0m0 -4l47 0 -1026 0m979 0l43 0 -1022 0m979 0l43 0 -1022 0m979 0l43 0 -1022 0m979 0l0 -5 39 0 0 5 -39 0m0 -5l39 0 -1018 0m984 0l34 0 -1018 0m984 0l30 0 -1014 0m984 0l30 0 -1014 0m984 0l0 -4 30 0 0 4 -30 0m0 -4l25 0 -1009 0m984 0l25 0 -1009 0m984 0l21 0 -1005 0m988 0l17 0 -1005 0m988 0l0 -4 17 0 0 4 -17 0m0 -4l13 0 -1001 0m988 0l13 0 -1001 0m988 0l13 0 -1001 0m988 0l8 0 -996 0m992 0l0 -4 4 0 0 4 -4 0"/>
   <path class="fil1" d="M868 1170l0 -5 163 0 0 5 -163 0m0 -5l163 0 -1031 0m863 0l168 0 -1031 0m863 0l168 0 -1031 0m863 0l0 -4 168 0 0 4 -168 0"/>
   <path class="fil1" d="M859 1165l0 -4 172 0 0 4 -172 0m0 -4l172 0 -1031 0m859 0l172 0 -1031 0m855 0l176 0 -1031 0m855 0l0 -4 176 0 0 4 -176 0"/>
   <path class="fil1" d="M855 1161l0 -4 176 0 0 4 -176 0m-5 -4l181 0 -1031 0m850 0l181 0 -1031 0m850 0l181 0 -1031 0m846 0l185 0 -1031 0m846 0l0 -5 185 0 0 5 -185 0m0 -5l185 0 -1031 0m842 0l189 0 -1031 0m842 0l189 0 -1031 0m842 0l189 0 -1031 0m838 0l0 -4 193 0 0 4 -193 0m0 -4l193 0 -1031 0m838 0l193 0 -1031 0m833 0l198 0 -1031 0m833 0l198 0 -1031 0m833 0l0 -4 198 0 0 4 -198 0m-4 -4l202 0 -1031 0m829 0l202 0 -1031 0m829 0l202 0 -1031 0m825 0l206 0 -1031 0m825 0l0 -5 206 0 0 5 -206 0m0 -5l206 0 -1031 0m820 0l211 0 -1031 0m820 0l211 0 -1031 0m820 0l211 0 -1031 0m816 0l0 -4 215 0 0 4 -215 0m0 -4l215 0 -1031 0m816 0l215 0 -1031 0m812 0l219 0 -1031 0m812 0l219 0 -1031 0m812 0l0 -4 219 0 0 4 -219 0m-5 -4l224 0 -1031 0m807 0l224 0 -1031 0m807 0l224 0 -1031 0m803 0l228 0 -1031 0m803 0l0 -5 228 0 0 5 -228 0"/>
   <path class="fil1" d="M803 1131l0 -5 228 0 0 5 -228 0m-4 -5l232 0 -1031 0m799 0l232 0 -1031 0m799 0l232 0 -1031 0m794 0l0 -4 237 0 0 4 -237 0"/>
   <path class="fil1" d="M949 1096l0 -4 26 0 0 4 -26 0m0 -4l22 0 -971 0m949 0l22 0 -971 0m949 0l22 0 -971 0m949 0l0 -4 17 0 0 4 -17 0"/>
   <path class="fil1" d="M949 1092l0 -4 17 0 0 4 -17 0m0 -4l17 0 -966 0m949 0l13 0 -962 0m949 0l13 0 -962 0m949 0l0 -4 13 0 0 4 -13 0"/>
   <path class="fil1" d="M949 1088l0 -4 9 0 0 4 -9 0m0 -4l9 0 -958 0m949 0l4 0 -953 0m949 0l4 0 -953 0m949 0l4 0 -953 0"/>
   <polygon class="fil2" points="1701,1286 1701,1148 1071,1148 1071,1286 "/>
   <path class="fil3" d="M1391 0c132,0 234,102 234,244 0,132 -102,244 -234,244 -142,0 -243,-112 -243,-244 0,-142 101,-244 243,-244z"/>
   <path class="fil4" d="M1391 0c102,0 203,71 224,173 10,50 -244,-31 -305,-122 -41,53 -132,111 -152,111 30,-91 122,-162 233,-162l0 0z"/>
   <path class="fil5" d="M1097 528l81 10 213 508 203 -508 72 -10c50,0 101,51 101,102l0 656 -762 0 0 -656c0,-51 41,-102 92,-102l0 0 0 0z"/>
   <path class="fil6 str0" d="M1391 894c0,-6 -4,-10 -10,-10 -5,0 -10,4 -10,10 0,5 5,10 10,10 6,0 10,-5 10,-10z"/>
   <polygon class="fil7" points="1594,884 1718,884 1718,900 1594,900 "/>
   <polygon class="fil8" points="1686,843 1655,792 1594,884 1716,884 "/>
   <path class="fil9" d="M1376 557l-127 -49c7,44 0,110 21,132l97 -58 126 58c3,-44 18,-86 10,-132l-127 49z"/>
   <path class="fil6 str0" d="M1391 711c0,-6 -4,-10 -10,-10 -5,0 -10,4 -10,10 0,5 5,10 10,10 6,0 10,-5 10,-10z"/>
   <path class="fil8" d="M1636 728c18,25 30,26 14,44l-284 330 21 -60c63,-179 134,-356 190,-538l3 -11 136 31 -19 193c-2,20 -15,16 -34,14l-27 -3z"/>
   <path class="fil10" d="M1696 533l-116 -26c-55,178 -126,360 -189,539l243 -291 -31 -42 75 9 18 -189z"/>
   <path class="fil8" d="M1142 721c-19,25 -30,26 -14,44l257 300 5 -29c-63,-180 -133,-357 -189,-539l-3 -10 -136 31 18 192c3,20 15,17 34,14l28 -3z"/>
   <path class="fil10" d="M1082 527l116 -27c54,178 126,360 189,539l-244 -291 31 -42 -74 9 -18 -188z"/>
   <path class="fil6" d="M1336 52c91,87 227,131 264,109 -100,-1 -210,-61 -264,-109z"/>
   <path class="fil6" d="M1351 42c73,69 182,105 212,87 -80,-1 -168,-48 -212,-87z"/>
   <path class="fil6" d="M1307 48c-42,48 -105,81 -122,74 46,-10 97,-47 122,-74z"/>
   <path class="fil11" d="M1293 545c6,3 70,9 61,21 -14,-11 -68,-8 -61,-21z"/>
   <path class="fil11" d="M1299 580c5,0 59,-23 57,-10 -15,-2 -57,23 -57,10z"/>
   <path class="fil11" d="M1465 541c-6,4 -79,16 -69,29 16,-13 77,-15 69,-29z"/>
   <path class="fil11" d="M1459 581c-6,0 -67,-21 -65,-6 18,-4 65,21 65,6z"/>
   <path class="fil12" d="M1359 543c13,3 21,0 32,0 3,0 7,4 6,8 -2,15 -2,26 0,36 1,4 -5,6 -9,5 -11,-3 -18,3 -29,3 -4,0 -7,-4 -7,-8 0,-12 3,-22 0,-36 -1,-4 4,-9 7,-8z"/>
   <path class="fil3" d="M334 17c132,0 234,101 234,243 0,132 -102,244 -234,244 -142,0 -244,-112 -244,-244 0,-142 102,-243 244,-243z"/>
   <path class="fil13" d="M334 17c102,0 203,71 223,172 11,51 -243,-30 -304,-122 -41,54 -132,112 -152,112 30,-91 121,-162 233,-162l0 0z"/>
   <path class="fil10" d="M279 69c91,86 227,131 264,108 -100,-1 -210,-60 -264,-108z"/>
   <path class="fil10" d="M294 59c73,69 182,104 212,86 -80,0 -168,-48 -212,-86z"/>
   <path class="fil10" d="M250 65c-42,48 -105,80 -123,73 47,-9 98,-46 123,-73z"/>
   <path class="fil14" d="M226 674l98 151c43,-57 83,-120 121,-188l-8 2 -105 143 -3 5 -3 -5 -111 -151 -1 24 12 19 0 0zm95 160l-98 -156 -17 -20 -1 -1 1 -1 1 -37 0 -12 7 9c37,57 75,109 115,157 31,-36 65,-83 102,-140l1 -1 1 -1 20 -5 10 -2 -5 8 -130 202 -4 6 -3 -6z"/>
   <g>
    <path class="fil15" d="M219 506l-54 63c10,43 15,93 42,109 38,-26 58,-65 116,-78 -37,-10 -65,-55 -104,-94z"/>
    <path class="fil15" d="M439 506l54 63c-10,43 -15,93 -42,109 -38,-26 -58,-65 -116,-78 37,-10 65,-55 104,-94z"/>
   </g>
   <path class="fil16" d="M662 1014l0 6 13 0 0 33c-13,0 -13,-7 -20,6 -6,7 0,7 -13,14 -6,0 0,-7 -6,0l13 0 0 6c6,0 6,7 6,7 7,0 0,0 7,-7 0,0 7,0 7,-6 6,0 13,-7 13,-7 13,-13 19,-13 32,-13 0,-7 0,-7 7,-7l0 7 7 0 6 6 0 -6 7 0 0 6c-7,7 -13,14 -7,27 13,0 0,0 7,-7 6,7 0,0 0,7 0,13 6,6 6,20l-6 -7 0 -7c-20,-19 -27,0 -27,0l0 7c-6,7 -6,0 -6,7 0,6 0,6 6,6l106 158c13,-7 33,-26 46,-33l92 0 59 -178 -92 0c-46,-6 -59,0 -79,-19l-92 -92c-13,6 -66,46 -85,59l-7 7 0 0 0 0z"/>
   <polygon class="fil17" points="576,810 1070,810 1070,1401 576,1401 "/>
   <polygon class="fil18" points="596,823 1056,823 1056,1382 596,1382 "/>
   <polygon class="fil8" points="642,856 1010,856 1010,1342 642,1342 "/>
   <polygon class="fil19" points="708,810 945,810 945,869 708,869 "/>
   <polygon class="fil20" points="879,810 879,790 767,790 767,810 708,810 708,816 945,816 945,810 "/>
   <polygon class="fil21" points="708,961 734,928 747,921 701,987 682,948 695,941 "/>
   <path class="fil21" d="M761 1007l203 0 0 26 -203 0 0 -26zm0 66l203 0 0 26 -203 0 0 -26zm0 65l203 0 0 27 -203 0 0 -27zm0 66l203 0 0 26 -203 0 0 -26zm0 66l203 0 0 26 -203 0 0 -26zm0 -329l203 0 0 26 -203 0 0 -26z"/>
   <polygon class="fil21" points="708,1025 734,992 747,985 701,1051 682,1012 695,1005 "/>
   <polygon class="fil21" points="708,1088 734,1055 747,1049 701,1115 682,1075 695,1069 "/>
   <polygon class="fil21" points="708,1152 734,1119 747,1113 701,1178 682,1139 695,1132 "/>
   <polygon class="fil21" points="708,1216 734,1183 747,1176 701,1242 682,1203 695,1196 "/>
   <polygon class="fil21" points="708,1280 734,1247 747,1240 701,1306 682,1267 695,1260 "/>
  </g>
 </g>
</svg>
