<?xml version="1.0" encoding="UTF-8"?>
<!DOCTYPE svg PUBLIC "-//W3C//DTD SVG 1.1//EN" "http://www.w3.org/Graphics/SVG/1.1/DTD/svg11.dtd">
<!-- Creator: CorelDRAW X7 -->
<svg xmlns="http://www.w3.org/2000/svg" xml:space="preserve" width="118.533mm" height="94.8266mm" version="1.1" style="shape-rendering:geometricPrecision; text-rendering:geometricPrecision; image-rendering:optimizeQuality; fill-rule:evenodd; clip-rule:evenodd"
viewBox="0 0 11853 9483"
 xmlns:xlink="http://www.w3.org/1999/xlink">
 <defs>
  <style type="text/css">
   <![CDATA[
    .str0 {stroke:#7A9E9E;stroke-width:105.81}
    .fil2 {fill:#FCD5A6}
    .fil3 {fill:#5B5B5B}
    .fil9 {fill:#660066}
    .fil6 {fill:#779F9E}
    .fil4 {fill:#7A9C9D}
    .fil1 {fill:#7A9E9E}
    .fil5 {fill:#B1B4B2}
    .fil8 {fill:#E6E6E6}
    .fil7 {fill:#FAFFFD}
    .fil0 {fill:#FEFEFE}
   ]]>
  </style>
 </defs>
 <g id="Слой_x0020_1">
  <metadata id="CorelCorpID_0Corel-Layer"/>
  <path class="fil0" d="M-1741 4199l-926 -1164 -397 26 -53 106c185,212 318,476 318,767l0 80 238 26 846 1191 874 -1191 1005 -53 -873 -979 -1032 1191z"/>
  <path class="fil1" d="M1841 7051c53,-27 159,-27 238,-27l238 -26c0,-212 -26,-450 -26,-662l-212 -3413c0,-159 -79,-1349 -53,-1402 -53,-53 -79,-1270 -105,-1455l-53 0c-80,26 -821,53 -979,79 -53,291 53,1376 79,1720 79,1455 132,2910 238,4366 27,264 53,555 80,846l555 -26 0 0z"/>
  <path class="fil0" d="M2026 1521l0 -212c0,-106 -26,-106 0,-185 27,-53 27,-212 27,-265 -27,-26 0,-79 -27,-105l0 -53 0 -53c0,-53 -26,0 0,-212l0 -212 5768 0 0 80c53,53 1270,26 1429,26l0 900c0,53 0,26 27,26 740,-238 1587,27 1957,530 80,79 186,291 212,423 27,53 27,106 53,159l0 291c0,-27 26,-27 26,-53l27 -159 0 -2381 -9604 0c26,185 52,1402 105,1455l0 0z"/>
  <path class="fil2" d="M8297 2024c-26,132 -26,238 -26,370 52,714 608,1349 1375,1455 556,80 1059,-132 1350,-450 53,-26 53,-52 106,-105 52,-53 132,-159 158,-238 133,-212 159,-344 212,-609l0 -318c-185,0 -1376,-105 -1535,-132 -291,-26 -899,-106 -1137,-291l-106 -79 0 -27c-27,106 -265,397 -397,424l0 0z"/>
  <path class="fil0" d="M598 9114l264 0c-79,-26 -132,-26 -211,-132 -53,-79 -53,-185 -53,-291 0,-106 0,-159 79,-238 53,-53 159,-106 265,-79 -27,-80 -80,-106 -106,-265 -27,-132 0,-1402 0,-1667 0,-185 26,-450 0,-635 53,-26 264,0 317,0l0 2302c80,53 185,79 291,106 0,-27 0,-53 80,-53l1746 0 26 212 53 0c27,-27 27,-27 53,-80 0,-79 0,-106 133,-159l52 -26 -211 0 -27 53 -53 0 53 -26c-53,-27 -106,-27 -132,-27 -53,27 -26,0 -53,27l79 0 -3201 0c106,0 132,0 185,-27l1297 0 -291 0 0 -926 26 -26 27 0c26,-27 52,-53 79,-27l53 27 132 0c27,26 -53,26 53,26l159 -26c-53,0 -27,26 -53,-27l79 0c0,-26 27,0 0,-26 0,-27 27,0 -26,-27 53,27 26,0 79,-26l-555 26c-27,-291 -53,-582 -80,-847 -106,-1455 -159,-2910 -238,-4365 -26,-344 -132,-1429 -79,-1720 158,-26 899,-53 979,-79l-1270 0 0 9048 0 0z"/>
  <path class="fil3" d="M9250 833c-371,159 -662,450 -821,767 -26,80 -53,133 -79,186 -27,52 -27,79 -27,105 -26,53 -26,80 -26,133 132,-27 370,-318 397,-424l0 27 106 79c238,185 846,265 1137,291 159,27 1350,132 1535,132 -26,-52 -26,-132 -53,-211 -26,-132 -132,-371 -212,-476 -370,-609 -1217,-900 -1958,-609l1 0z"/>
  <path class="fil1" d="M942 8374l2354 0 -26 -212 -1746 0c-80,0 -80,26 -80,53l27 0c53,0 0,0 53,-27l1640 0c27,27 0,27 0,27l-1587 0c-27,0 -27,-27 -27,0l53 26 1508 0c80,0 0,27 80,27l0 -27 26 0c0,-26 0,-26 26,-26l0 53c-52,26 0,0 -52,0l-2144 0 27 -27 132 0c-26,-26 -26,0 -79,-53l0 -53c0,-26 0,0 -27,-26 0,0 0,26 0,0l0 -344c0,-79 0,-26 27,-53l0 -397c0,-53 26,-635 -27,-661 -26,-80 0,-27 0,-106 0,-53 -26,-26 -26,-159l53 0 0 185c0,80 0,53 26,80l0 -847c-53,0 -264,-26 -317,0 26,185 0,450 0,635 0,265 -27,1535 0,1667 26,159 79,185 106,265l0 0z"/>
  <path class="fil4" d="M3587 8109l-52 27c-133,52 -133,79 -133,158 -26,53 -26,53 -53,80l80 0c26,-106 0,-159 106,-186l-27 186 1879 0c26,-239 -159,-371 -344,-450l-318 -80c-238,-52 -370,0 -397,-26 -79,0 -185,26 -238,53 -53,0 -79,0 -79,53 -27,53 -27,159 -185,185l-239 0z"/>
  <path class="fil5" d="M4328 7818c27,26 159,-26 397,26l318 80c185,79 370,212 344,450l317 0c0,-80 27,-133 27,-212l0 -212c0,-53 0,-370 -27,-397l0 106c-106,-53 -185,-79 -344,-106 -132,-26 -291,0 -423,27 -132,26 -212,53 -318,106 -106,53 -185,132 -211,132l-80 0z"/>
  <path class="fil0" d="M6180 7315c344,-26 715,0 1059,27l714 0 450 26 159 0 79 -185c0,-26 0,-79 -53,-79l0 53c27,52 27,26 27,26l-1932 0c-132,-26 -53,0 -132,0l-80 0c-185,-26 -158,26 -211,26 -53,-26 0,-26 -53,-26l-27 53 371 0c0,0 0,-53 0,0 0,26 -53,0 -159,0l-212 0 0 79z"/>
  <path class="fil6" d="M1444 8215c-106,-27 -211,-53 -291,-106l0 -1455c-26,-27 -26,0 -26,-80l0 -185 -53 0c0,133 26,106 26,159 0,79 -26,26 0,106 53,26 27,608 27,661l0 397c-27,27 -27,-26 -27,53l0 344c0,27 0,0 0,0 27,27 27,0 27,27l0 52c53,53 53,27 79,53l-132 0 -27 27 2144 0c52,0 0,26 52,0l0 -53c-26,0 -26,0 -26,26l-26 0 0 27c-80,0 0,-27 -80,-27l-1508 0 -53 -26c0,-27 0,0 27,0l1587 0c0,0 27,0 0,-27l-1640 0c-53,27 0,27 -53,27l-27 0z"/>
  <path class="fil7" d="M3429 8374l79 0 27 -186c-106,27 -80,80 -106,186z"/>
  <polygon class="fil8 str0" points="1921,145 5704,727 5995,5437 2317,6892 "/>
  <path class="fil9" d="M9038 4220l1696 0c160,0 291,130 291,291l0 4209c0,161 -131,291 -291,291l-1696 0c-161,0 -291,-130 -291,-291l0 -4209c0,-161 130,-291 291,-291z"/>
  <polygon class="fil9" points="8773,6072 11025,6072 11025,9171 8773,9171 "/>
  <polygon class="fil9" points="5836,7368 7741,6178 9170,4590 9752,5781 8271,7183 5863,8427 "/>
 </g>
</svg>
