<svg xmlns="http://www.w3.org/2000/svg" width="450" height="360" viewBox="0 0 450 360" shape-rendering="geometricPrecision" text-rendering="geometricPrecision" image-rendering="optimizeQuality" fill-rule="evenodd" clip-rule="evenodd"><defs><style>.str0{stroke:#7a9e9e;stroke-width:3.99921}.fil3{fill:#5b5b5b}.fil10,.fil11{fill:#606}.fil7{fill:#779f9e}.fil4{fill:#7a9c9d}.fil0{fill:#7a9e9e}.fil5{fill:#b1b4b2}.fil6{fill:#bd2728}.fil2{fill:#c5c6c5}.fil9{fill:#e6e6e6}.fil8{fill:#fafffd}.fil1{fill:#fefefe}</style></defs><g id="Слой_x0020_1"><path class="fil0" d="M58 279c2-1 6-1 9-1l9-1c0-8-1-17-1-25l-8-129c0-6-3-51-2-53-2-2-3-48-4-55h-2c-3 1-31 2-37 3-2 11 2 52 3 65 3 55 5 110 9 165 1 10 2 21 3 32l21-1z"/><path class="fil1" d="M65 70v-8c0-4-1-4 0-7 1-2 1-8 1-10-1-1 0-3-1-4v-2-2c0-2-1 0 0-8v-8h218v3c2 2 48 1 54 1v34c0 2 0 1 1 1 28-9 60 1 74 20 3 3 7 11 8 16 1 2 1 4 2 6v11c0-1 1-1 1-2l1-6V15H61c1 7 2 53 4 55z"/><path class="fil2" d="M302 89c-1 5-1 9-1 14 2 27 23 51 52 55 21 3 40-5 51-17 2-1 2-2 4-4s5-6 6-9c5-8 6-13 8-23V93c-7 0-52-4-58-5-11-1-34-4-43-11l-4-3v-1c-1 4-10 15-15 16z"/><path class="fil1" d="M11 357h10c-3-1-5-1-8-5-2-3-2-7-2-11s0-6 3-9c2-2 6-4 10-3-1-3-3-4-4-10-1-5 0-53 0-63 0-7 1-17 0-24 2-1 10 0 12 0v87c3 2 7 3 11 4 0-1 0-2 3-2h66l1 8h2c1-1 1-1 2-3 0-3 0-4 5-6l2-1h-8l-1 2h-2l2-1c-2-1-4-1-5-1-2 1-1 0-2 1h3-10c4 0 5 0 7-1H46 35v-35l1-1h1c1-1 2-2 3-1l2 1h5c1 1-2 1 2 1l6-1c-2 0-1 1-2-1h3c0-1 1 0 0-1 0-1 1 0-1-1 2 1 1 0 3-1l-21 1c-1-11-2-22-3-32-4-55-6-110-9-165-1-13-5-54-3-65 6-1 34-2 37-3H11v342z"/><path class="fil3" d="M338 44c-14 6-25 17-31 29-1 3-2 5-3 7s-1 3-1 4c-1 2-1 3-1 5 5-1 14-12 15-16v1l4 3c9 7 32 10 43 11 6 1 51 5 58 5-1-2-1-5-2-8-1-5-5-14-8-18-14-23-46-34-74-23z"/><path class="fil0" d="M24 329h89l-1-8H46c-3 0-3 1-3 2h1c2 0 0 0 2-1h62c1 1 0 1 0 1H48c-1 0-1-1-1 0l2 1h57c3 0 0 1 3 1v-1h1c0-1 0-1 1-1v2c-2 1 0 0-2 0H28l1-1h5c-1-1-1 0-3-2v-2c0-1 0 0-1-1 0 0 0 1 0 0v-13c0-3 0-1 1-2v-15c0-2 1-24-1-25-1-3 0-1 0-4 0-2-1-1-1-6h2v7c0 3 0 2 1 3v-32c-2 0-10-1-12 0 1 7 0 17 0 24 0 10-1 58 0 63 1 6 3 7 4 10z"/><path class="fil4" d="M124 319l-2 1c-5 2-5 3-5 6-1 2-1 2-2 3h3c1-4 0-6 4-7l-1 7h71c1-9-6-14-13-17l-12-3c-9-2-14 0-15-1-3 0-7 1-9 2-2 0-3 0-3 2-1 2-1 6-7 7h-9z"/><path class="fil5" d="M152 308c1 1 6-1 15 1l12 3c7 3 14 8 13 17h12c0-3 1-5 1-8v-8c0-2 0-14-1-15v4c-4-2-7-3-13-4-5-1-11 0-16 1s-8 2-12 4-7 5-8 5h-3z"/><path class="fil1" d="M222 289c13-1 27 0 40 1h27l17 1h6l3-7c0-1 0-3-2-3v2c1 2 1 1 1 1h-73c-5-1-2 0-5 0h-3c-7-1-6 1-8 1-2-1 0-1-2-1l-1 2h14s0-2 0 0c0 1-2 0-6 0h-8v3z"/><path class="fil6" d="M204 298c1 1 1 13 1 15v8c0 3-1 5-1 8 0 1 0 0 1 1s1 1 2 1c3 1 3 1 6 1h-1c-1-1-1-1-2-1 1 0 1 0 2 1 2 0 2-1 2-1-1 0-1 0-2-1 2-1 2 0 3 0h1-3c0-10 1-25 0-34 0-4-1-1 1-4h-2l2-1c-2 0-1 0-1-1-3 0-5 1-7 2-3 2-1 3-2 6z"/><path class="fil7" d="M43 323c-4-1-8-2-11-4v-55c-1-1-1 0-1-3v-7h-2c0 5 1 4 1 6 0 3-1 1 0 4 2 1 1 23 1 25v15c-1 1-1-1-1 2v13c0 1 0 0 0 0 1 1 1 0 1 1v2c2 2 2 1 3 2h-5l-1 1h81c2 0 0 1 2 0v-2c-1 0-1 0-1 1h-1v1c-3 0 0-1-3-1H49l-2-1c0-1 0 0 1 0h60s1 0 0-1H46c-2 1 0 1-2 1h-1z"/><path class="fil8" d="M118 329h3l1-7c-4 1-3 3-4 7z"/><path class="fil9 str0" d="M61 18l143 22 11 178-139 55z"/><rect class="fil10" x="319" y="172" width="86.091" height="181.087" rx="11" ry="11"/><path class="fil11" d="M320 242h85.09v117.124H320z"/><path class="fil11" d="M209 291l72-45 54-60 22 45-56 53-91 47z"/></g></svg>