<?xml version="1.0" encoding="UTF-8"?>
<!DOCTYPE svg PUBLIC "-//W3C//DTD SVG 1.1//EN" "http://www.w3.org/Graphics/SVG/1.1/DTD/svg11.dtd">
<!-- Creator: CorelDRAW X6 -->
<svg xmlns="http://www.w3.org/2000/svg" xml:space="preserve" width="1500px" height="1200px" version="1.1" style="shape-rendering:geometricPrecision; text-rendering:geometricPrecision; image-rendering:optimizeQuality; fill-rule:evenodd; clip-rule:evenodd"
viewBox="0 0 1500 1200"
 xmlns:xlink="http://www.w3.org/1999/xlink">
 <defs>
  <style type="text/css">
   <![CDATA[
    .str0 {stroke:#7A9E9E;stroke-width:12.4972}
    .fil2 {fill:#5B5B5B}
    .fil9 {fill:#660066}
    .fil0 {fill:#669999}
    .fil6 {fill:#779F9E}
    .fil4 {fill:#7A9C9D}
    .fil3 {fill:#7A9E9E}
    .fil8 {fill:#E6E6E6}
    .fil7 {fill:#FAFFFD}
    .fil1 {fill:#FCD5A6}
    .fil5 {fill:#FFCC99}
   ]]>
  </style>
 </defs>
 <g id="Слой_x0020_1">
  <metadata id="CorelCorpID_0Corel-Layer"/>
  <path class="fil0" d="M256 929c7,-3 20,-3 30,-3l30 -3c0,-27 -3,-56 -3,-83l-27 -428c0,-20 -10,-169 -7,-176 -7,-7 -10,-159 -13,-182l-7 0c-10,3 -103,7 -123,10 -7,36 7,173 10,216 10,182 17,365 30,547 3,33 7,70 10,106l70 -3 0 0 0 0z"/>
  <path class="fil1" d="M1065 299c-3,17 -3,30 -3,46 7,90 76,169 172,182 70,10 133,-17 169,-56 7,-3 7,-7 13,-13 7,-7 17,-20 20,-30 17,-27 20,-43 27,-76l0 -40c-23,0 -173,-13 -192,-17 -36,-3 -113,-13 -143,-36l-13 -10 0 -3c-3,13 -33,50 -50,53l0 0 0 0z"/>
  <path class="fil2" d="M1185 150c-47,20 -83,56 -103,96 -3,10 -7,17 -10,23 -3,7 -3,10 -3,13 -3,7 -3,10 -3,17 17,-3 46,-40 50,-53l0 3 13 10c30,23 106,33 143,36 20,3 169,17 192,17 -3,-7 -3,-17 -7,-26 -3,-17 -17,-47 -27,-60 -46,-76 -153,-113 -246,-76l0 0 0 0z"/>
  <path class="fil3" d="M143 1095l295 0 -3 -27 -219 0c-10,0 -10,3 -10,7l3 0c7,0 0,0 7,-3l206 0c3,3 0,3 0,3l-199 0c-3,0 -3,-3 -3,0l7 3 189 0c10,0 0,3 10,3l0 -3 3 0c0,-3 0,-3 3,-3l0 7c-7,3 0,0 -7,0l-269 0 3 -3 17 0c-3,-3 -3,0 -10,-7l0 -7c0,-3 0,0 -3,-3 0,0 0,3 0,0l0 -43c0,-10 0,-3 3,-7l0 -50c0,-7 3,-80 -3,-83 -3,-10 0,-3 0,-13 0,-7 -3,-3 -3,-20l7 0 0 23c0,10 0,7 3,10l0 -106c-7,0 -33,-3 -40,0 3,23 0,56 0,80 0,33 -3,192 0,209 3,20 10,23 13,33l0 0 0 0z"/>
  <path class="fil4" d="M475 1062l-7 3c-17,7 -17,10 -17,20 -3,7 -3,7 -7,10l10 0c3,-13 0,-20 13,-23l-3 23 236 0c3,-30 -20,-47 -43,-56l-40 -10c-30,-7 -46,0 -50,-3 -10,0 -23,3 -30,7 -7,0 -10,0 -10,7 -3,7 -3,20 -23,23l-30 0 0 0z"/>
  <path class="fil5" d="M568 1025c3,3 20,-3 50,3l40 10c23,10 46,27 43,56l40 0c0,-10 3,-17 3,-27l0 -27c0,-7 0,-46 -3,-50l0 13c-13,-7 -23,-10 -43,-13 -17,-3 -36,0 -53,3 -17,3 -27,7 -40,13 -13,7 -23,17 -26,17l-10 0 0 0z"/>
  <path class="fil6" d="M206 1075c-13,-3 -26,-7 -36,-13l0 -182c-3,-3 -3,0 -3,-10l0 -23 -7 0c0,17 3,13 3,20 0,10 -3,3 0,13 7,3 3,76 3,83l0 50c-3,3 -3,-3 -3,7l0 43c0,3 0,0 0,0 3,3 3,0 3,3l0 7c7,7 7,3 10,7l-17 0 -3 3 269 0c7,0 0,3 7,0l0 -7c-3,0 -3,0 -3,3l-3 0 0 3c-10,0 0,-3 -10,-3l-189 0 -7 -3c0,-3 0,0 3,0l199 0c0,0 3,0 0,-3l-206 0c-7,3 0,3 -7,3l-3 0 0 0z"/>
  <path class="fil7" d="M455 1095l10 0 3 -23c-13,3 -10,10 -13,23z"/>
  <polygon class="fil8 str0" points="266,63 740,136 777,727 316,909 "/>
  <path class="fil9" d="M1158 574l213 0c20,0 36,16 36,36l0 528c0,20 -16,36 -36,36l-213 0c-20,0 -36,-16 -36,-36l0 -528c0,-20 16,-36 36,-36z"/>
  <polygon class="fil9" points="1125,806 1408,806 1408,1195 1125,1195 "/>
  <polygon class="fil9" points="757,969 996,820 1175,621 1248,770 1062,946 760,1102 "/>
 </g>
</svg>
