<?xml version="1.0" encoding="UTF-8"?>
<!DOCTYPE svg PUBLIC "-//W3C//DTD SVG 1.1//EN" "http://www.w3.org/Graphics/SVG/1.1/DTD/svg11.dtd">
<!-- Creator: CorelDRAW 2017 -->
<svg xmlns="http://www.w3.org/2000/svg" xml:space="preserve" width="118.533mm" height="118.533mm" version="1.1" style="shape-rendering:geometricPrecision; text-rendering:geometricPrecision; image-rendering:optimizeQuality; fill-rule:evenodd; clip-rule:evenodd"
viewBox="0 0 11853.32 11853.32"
 xmlns:xlink="http://www.w3.org/1999/xlink">
 <defs>
  <style type="text/css">
   <![CDATA[
    .str1 {stroke:black;stroke-width:195.28;stroke-miterlimit:22.9256}
    .str0 {stroke:black;stroke-width:135.47;stroke-miterlimit:22.9256}
    .fil6 {fill:black}
    .fil13 {fill:#1A1A1A}
    .fil4 {fill:#2B2A29}
    .fil20 {fill:#333333}
    .fil14 {fill:#666666}
    .fil8 {fill:#6666CC}
    .fil18 {fill:#6B231C}
    .fil19 {fill:#A30026}
    .fil17 {fill:#B3B3B3}
    .fil7 {fill:#BD0006}
    .fil16 {fill:#CCCCCC}
    .fil10 {fill:#D40B0B}
    .fil0 {fill:#E6E6E6}
    .fil12 {fill:#E81515}
    .fil1 {fill:#F0F0F0}
    .fil21 {fill:#F7F7F7}
    .fil2 {fill:#FCD5A6}
    .fil9 {fill:red}
    .fil22 {fill:#FFED00}
    .fil5 {fill:white}
    .fil11 {fill:black;fill-rule:nonzero}
    .fil15 {fill:url(#id0)}
    .fil3 {fill:url(#id1)}
   ]]>
  </style>
  <radialGradient id="id0" gradientUnits="userSpaceOnUse" gradientTransform="matrix(1.50876 -0 -0 1.56766 -3013 -3458)" cx="5922.21" cy="6092.13" r="1611.26" fx="5922.21" fy="6092.13">
   <stop offset="0" style="stop-opacity:1; stop-color:#F71111"/>
   <stop offset="0.811765" style="stop-opacity:1; stop-color:#E50E0E"/>
   <stop offset="1" style="stop-opacity:1; stop-color:#D40B0B"/>
  </radialGradient>
  <radialGradient id="id1" gradientUnits="userSpaceOnUse" gradientTransform="matrix(1.50605 -0 -0 1.11695 -2150 -182)" cx="4248.11" cy="1556.14" r="2719.02" fx="4248.11" fy="1556.14">
   <stop offset="0" style="stop-opacity:1; stop-color:#50241A"/>
   <stop offset="1" style="stop-opacity:1; stop-color:#6B231C"/>
  </radialGradient>
 </defs>
 <g id="Слой_x0020_1">
  <metadata id="CorelCorpID_0Corel-Layer"/>
  <circle class="fil0" cx="5888.57" cy="6058.32" r="5757.33"/>
  <path class="fil1" d="M7519.7 5489.08l2745.63 0c163.26,0 296.82,141.39 296.82,314.22l0 3071.09c0,172.83 -133.56,314.22 -296.82,314.22l-2745.63 0c-163.25,0 -296.81,-141.39 -296.81,-314.22l0 -3071.09c0,-172.83 133.56,-314.22 296.81,-314.22z"/>
  <path class="fil2" d="M4268.79 1581.93c656.55,0 1156.09,499.54 1156.09,1198.91 0,656.55 -499.54,1206.05 -1156.09,1206.05 -699.37,0 -1206.05,-549.5 -1206.05,-1206.05 0,-699.37 506.68,-1198.91 1206.05,-1198.91z"/>
  <path class="fil3" d="M4268.79 1581.93c506.68,0 1006.23,342.55 1106.14,849.23 49.95,249.77 -1206.05,-157 -1505.78,-606.6 -199.82,264.05 -649.41,549.5 -749.32,549.5 149.87,-449.59 599.46,-799.27 1148.96,-799.27l0 0 0 0 0 7.14z"/>
  <path class="fil4" d="M3997.61 1831.7c449.59,428.19 1127.55,649.41 1305.96,535.23 -485.28,-7.14 -1034.78,-299.73 -1305.96,-535.23l0 0z"/>
  <path class="fil4" d="M4068.97 1781.75c363.95,342.54 899.18,520.95 1041.91,435.32 -392.5,-7.14 -827.82,-242.64 -1041.91,-435.32z"/>
  <path class="fil4" d="M3854.88 1817.43c-206.96,235.5 -520.96,392.5 -606.6,363.96 228.37,-49.96 485.28,-228.37 606.6,-363.96z"/>
  <ellipse class="fil5 str0" cx="2969.7" cy="4529.2" rx="1270.28" ry="1049.05"/>
  <path class="fil2" d="M2962.82 3665.76c642.28,0 1177.51,513.82 1177.51,1134.69 0,649.41 -535.23,1163.23 -1177.5,1163.23 -649.42,0 -1184.65,-513.82 -1184.65,-1163.23 0,-620.87 535.24,-1134.69 1184.65,-1134.69l-0.01 0z"/>
  <polygon class="fil6" points="3112.69,5963.68 2848.64,5963.68 2734.46,5742.45 3226.87,5742.45 "/>
  <path class="fil6" d="M2977.1 3665.76c735.04,-21.41 1256,756.45 1163.23,1270.27 0,42.82 -21.41,556.64 -21.41,492.42 0,-342.55 -1363.05,-1270.28 -1520.05,-1520.05 -71.36,85.63 -649.41,485.27 -756.46,513.82 157,-471 599.46,-756.46 1134.69,-756.46l0 0 0 0 0 0z"/>
  <path class="fil7" d="M1635.46 6199.18l356.82 21.41 984.82 1313.09 1006.23 -1313.09 378.23 -21.41c249.77,0 449.59,221.22 449.59,471l0 2369.29 -3618.15 0 0 -2369.29c0,-249.78 206.96,-471 442.46,-471l0 0 0 0 0 0 -0.01 0 0.01 0z"/>
  <polygon class="fil8" points="1354.37,4429.35 1620.36,4429.35 1620.36,5228.63 1354.37,5228.63 "/>
  <polygon class="fil9" points="1407.57,4429.35 1460.77,4429.35 1460.77,5228.63 1407.57,5228.63 "/>
  <polygon class="fil6 str1" points="1629.23,4400.81 1797.69,4400.81 1797.69,5242.9 1629.23,5242.9 "/>
  <polygon class="fil8" points="4308.4,4429.35 4536.77,4429.35 4536.77,5228.63 4308.4,5228.63 "/>
  <polygon class="fil9" points="4444,4429.35 4493.95,4429.35 4493.95,5228.63 4444,5228.63 "/>
  <polygon class="fil6 str1" points="4158.54,4400.81 4294.13,4400.81 4294.13,5242.9 4158.54,5242.9 "/>
  <path class="fil10" d="M4818.29 8625.56l0 599.45 -3625.29 0 0 -599.45 3625.29 0zm-7.14 -1049.06l0 849.23 -3618.15 0 0 -849.23 3618.15 0zm-2704.69 -1184.64l620.86 849.23 -1541.46 0 0 -528.09c0,-114.18 21.41,-228.37 85.64,-314l827.82 0 0 0 0 0 7.14 -7.14zm1141.82 849.23l620.87 -849.23 827.82 0c64.23,92.78 114.18,206.96 114.18,314l0 528.1 -1562.87 0 0 0 0 0 0 7.13z"/>
  <path class="fil11" d="M1492.73 5164.4c78.5,-21.41 121.32,164.14 171.27,342.55 21.41,71.36 49.96,157 71.36,206.95l0 0c28.55,92.78 -28.54,299.73 -114.17,563.78 -114.19,385.36 -278.33,899.18 -242.64,1320.23 14.27,49.95 0,242.63 -14.28,485.28 -21.41,456.72 -57.09,1070.45 -7.13,1077.59l-14.28 49.96c-92.77,-21.41 -64.23,-663.69 -28.54,-1127.55 14.27,-242.64 21.41,-435.33 14.27,-478.15l0 0c-35.68,-435.31 121.32,-949.13 242.64,-1348.77 78.5,-249.78 142.73,-449.6 114.18,-528.1 -21.41,-49.95 -42.82,-128.45 -71.36,-206.95 -42.82,-157 -85.64,-314 -121.32,-306.87l0 -49.95 0 0 0 0z"/>
  <polygon class="fil12" points="7601.49,9788.79 7601.49,9068.01 4340.15,9068.01 4340.15,9788.79 "/>
  <path class="fil2" d="M5995.79 3101.98c685.1,0 1213.19,528.09 1213.19,1263.14 0,685.1 -528.09,1263.14 -1213.19,1263.14 -742.18,0 -1263.14,-578.04 -1263.14,-1263.14 0,-742.18 528.1,-1263.14 1263.15,-1263.14l-0.01 0z"/>
  <path class="fil6" d="M5995.79 3101.98c528.1,0 1056.19,363.96 1163.24,899.18 49.95,264.05 -1263.14,-164.13 -1584.28,-635.13 -214.09,278.32 -692.23,578.04 -799.28,578.04 164.14,-478.13 635.14,-842.09 1220.33,-842.09l0 0 0 0 -0.01 0z"/>
  <path class="fil13" d="M4468.61 5849.49l421.05 49.96 1113.27 2640.47 1056.19 -2640.47 371.09 -49.96c256.91,0 528.09,264.05 528.09,528.1l0 3418.34 -3960.7 0 0 -3418.34c0,-256.91 206.96,-528.1 478.14,-528.1l0 0 0 0 0 0 -7.14 0 0.01 0z"/>
  <path class="fil6 str1" d="M5995.79 7747.78c0,-28.55 -21.41,-57.1 -57.09,-57.1 -21.41,0 -49.95,21.42 -49.95,57.1 0,21.4 21.41,49.95 49.95,49.95 28.55,0 57.09,-21.41 57.09,-49.95z"/>
  <polygon class="fil14" points="7051.98,6832.82 7694.26,6832.82 7694.26,6918.46 7051.98,6918.46 "/>
  <polygon class="fil5" points="7667.73,7410.7 7517.86,7146.65 7196.72,7624.79 7831.86,7624.79 "/>
  <path class="fil15" d="M5917.3 5999.36l-663.69 -249.77c35.68,228.36 0,570.91 107.05,685.09l506.68 -299.73 656.55 299.73c21.41,-228.36 92.77,-442.46 57.09,-685.09l-663.68 249.77 0 0 0 0z"/>
  <path class="fil6 str1" d="M5995.79 6798.63c0,-28.54 -21.41,-57.09 -57.09,-57.09 -21.41,0 -49.95,21.41 -49.95,57.09 0,21.42 21.41,49.96 49.95,49.96 28.55,0 57.09,-21.41 57.09,-49.96z"/>
  <path class="fil5" d="M7273.21 6884.27c92.77,128.46 149.87,135.59 71.36,228.37l-1470.1 1719.87 107.05 -306.87c335.41,-934.87 699.37,-1862.59 984.82,-2804.6l14.27 -49.96 713.64 164.14 -99.91 999.1c-14.27,99.91 -71.36,85.63 -171.27,71.36l-142.73 -21.41 0 0 -7.13 0 0 0z"/>
  <path class="fil16" d="M7580.07 5870.91l-606.59 -135.6c-278.32,927.73 -656.55,1869.74 -984.82,2804.61l1263.14 -1512.92 -164.13 -214.09 392.49 42.82 92.78 -984.82 0 0 7.13 0 0 0z"/>
  <path class="fil5" d="M4704.11 6848.59c-99.91,128.45 -157,135.59 -71.37,235.5l1334.51 1555.74 28.54 -157c-328.27,-934.87 -692.23,-1855.47 -984.82,-2797.48l-21.41 -57.09 -713.64 164.14 99.92 999.1c14.27,107.04 78.49,85.63 178.41,71.36l142.72 -21.41 0 0 7.14 7.14 0 0z"/>
  <path class="fil17" d="M4382.97 5842.36l606.59 -135.59c285.46,920.59 656.55,1862.6 984.83,2797.47l-1263.15 -1512.92 164.14 -214.09 -385.36 42.82 -99.91 -977.68 0 0 -7.14 0 0 -0.01z"/>
  <path class="fil6" d="M5710.34 3380.3c478.14,442.45 1177.51,677.95 1377.33,563.77 -520.96,-7.13 -1091.87,-314 -1377.33,-563.77z"/>
  <path class="fil6" d="M5788.84 3323.21c385.36,356.82 942,542.36 1099,449.59 -413.91,-7.14 -870.64,-249.77 -1099,-449.59z"/>
  <path class="fil6" d="M5560.47 3351.75c-221.23,249.78 -549.5,421.05 -635.14,385.37 242.64,-49.96 506.69,-242.64 635.14,-385.37z"/>
  <path class="fil10" d="M5489.11 5935.13c28.55,14.27 363.96,49.96 321.14,114.18 -71.36,-57.09 -349.68,-42.82 -321.14,-114.18l0 0z"/>
  <path class="fil10" d="M5517.66 6120.68c28.54,-7.14 306.86,-121.32 299.72,-57.09 -78.49,-7.14 -299.72,121.31 -299.72,57.09z"/>
  <path class="fil10" d="M6381.16 5913.72c-28.54,21.41 -406.77,78.5 -356.82,149.87 78.5,-71.37 392.5,-78.5 356.82,-149.87z"/>
  <path class="fil10" d="M6352.62 6120.68c-35.69,7.13 -342.55,-107.05 -342.55,-28.55 92.77,-21.41 335.41,114.19 342.55,28.55z"/>
  <path class="fil10" d="M5831.66 5928c71.36,14.27 107.04,0 164.13,0 21.42,0 42.82,21.41 35.69,35.68 -14.28,78.5 -14.28,135.59 0,192.68 7.13,21.41 -28.55,28.55 -49.96,21.41 -57.09,-21.41 -92.77,14.28 -149.87,14.28 -21.4,0 -35.67,-21.42 -35.67,-35.69 0,-71.36 14.27,-114.18 0,-192.68 -7.14,-21.41 21.4,-42.82 35.67,-35.68l0 0 0.01 0z"/>
  <ellipse class="fil2" cx="8696.63" cy="3900.15" rx="1243.26" ry="1232.81"/>
  <path class="fil18" d="M8194.55 2752.58c-157.14,80.29 -50.14,15.81 -197.59,115.79l-62.86 38.23c-21.62,17.96 -14.02,12.24 -40.13,31.57 -17.45,12.92 -16.92,15.89 -32.99,31.39 -99.39,132.56 -160.32,138.79 -281.48,382.57 -22.9,46.09 -41.59,113.53 -63.82,154.18 0.1,34.75 -3.82,25.36 36.18,19.8l399.33 -94.6c313.58,-83.37 1017.59,-268.6 1156.83,-505.43l181.76 156.59c133.47,109.7 344.92,272.47 493.05,361.24l82.08 45.6c44.18,9.76 12.53,9.29 28.72,-5.95 -168.84,-489.71 -632.09,-817.88 -1138.36,-835.54 -297.68,-10.39 -357.84,53.96 -560.72,104.56z"/>
  <path class="fil18" d="M8102.42 4217.07c-44.78,62.77 -43.79,161.08 -3.72,232.8 95.74,171.36 449.16,254.04 591.71,18.48 30.22,21.28 136.72,224.23 439.84,109.39 219.76,-83.26 219.45,-313.63 152.82,-359.74 -17.26,33.32 -0.61,49.77 -35.16,78.44 -142.01,117.88 -319.88,-247.96 -546.7,-37.71 -43.51,-16.3 -156.9,-128.78 -335.62,-6.91 -244.93,167.04 -252.25,-16.19 -263.17,-34.75z"/>
  <polygon class="fil19" points="7813.73,2267.43 9632.11,2277.46 9628.06,3006.54 7809.67,2996.51 "/>
  <ellipse class="fil20" cx="9373.8" cy="6111.52" rx="97.07" ry="87.36"/>
  <ellipse class="fil20" cx="9373.8" cy="6857.03" rx="97.07" ry="87.36"/>
  <ellipse class="fil21" cx="9373.8" cy="7639.81" rx="97.07" ry="87.36"/>
  <ellipse class="fil20" cx="9373.8" cy="8422.59" rx="97.07" ry="87.36"/>
  <ellipse class="fil20" cx="7994.61" cy="6111.52" rx="97.07" ry="87.36"/>
  <ellipse class="fil20" cx="7994.61" cy="6857.03" rx="97.07" ry="87.36"/>
  <ellipse class="fil20" cx="7994.61" cy="7639.81" rx="97.07" ry="87.36"/>
  <ellipse class="fil20" cx="7994.61" cy="8422.59" rx="97.07" ry="87.36"/>
  <rect class="fil22" x="9655.28" y="6108.49" width="621.25" height="347.17"/>
  <polygon class="fil19" points="8163.18,5742.11 8191.36,5742.11 9326.76,5532.74 8191.36,5911.23 8191.36,8606.5 8134.99,8606.5 "/>
  <polygon class="fil19" points="8062.97,5163.94 9077.81,5221.19 8031.61,5728.01 8175.4,5387.99 8602.86,5337.84 8635,5389.63 8696.38,5542.41 9207,5524.32 9014.21,5380.81 8078.62,5283.08 "/>
  <polygon class="fil19" points="7958.3,8628.92 10562.15,8628.92 10562.15,9321.42 7958.3,9321.42 "/>
  <ellipse class="fil20" cx="9373.8" cy="7685.14" rx="97.07" ry="87.36"/>
 </g>
</svg>
