<?xml version="1.0" encoding="UTF-8"?>
<!DOCTYPE svg PUBLIC "-//W3C//DTD SVG 1.1//EN" "http://www.w3.org/Graphics/SVG/1.1/DTD/svg11.dtd">
<!-- Creator: CorelDRAW X7 -->
<svg xmlns="http://www.w3.org/2000/svg" xml:space="preserve" width="118.533mm" height="94.8266mm" version="1.1" style="shape-rendering:geometricPrecision; text-rendering:geometricPrecision; image-rendering:optimizeQuality; fill-rule:evenodd; clip-rule:evenodd"
viewBox="0 0 11853 9483"
 xmlns:xlink="http://www.w3.org/1999/xlink">
 <defs>
  <style type="text/css">
   <![CDATA[
    .str1 {stroke:black;stroke-width:62.5}
    .str0 {stroke:black;stroke-width:132.28}
    .str2 {stroke:#4D4D4D;stroke-width:132.28}
    .fil19 {fill:none}
    .fil2 {fill:#FCD5A6}
    .fil29 {fill:#E31E24}
    .fil20 {fill:black}
    .fil25 {fill:#1A1A1A}
    .fil9 {fill:#1C1A17}
    .fil21 {fill:#333333}
    .fil4 {fill:#353432}
    .fil18 {fill:#5C5B5B}
    .fil26 {fill:#666666}
    .fil5 {fill:#6B231C}
    .fil1 {fill:#7EA3A9}
    .fil7 {fill:#81A2AA}
    .fil22 {fill:#990000}
    .fil23 {fill:#BD0006}
    .fil14 {fill:#BD2728}
    .fil17 {fill:#C02628}
    .fil15 {fill:#CA2626}
    .fil11 {fill:#CB2527}
    .fil24 {fill:#CC0007}
    .fil10 {fill:#CD2427}
    .fil12 {fill:#CE2427}
    .fil13 {fill:#D12226}
    .fil16 {fill:#D2222A}
    .fil6 {fill:#FAFEFB}
    .fil8 {fill:#FDFDFD}
    .fil3 {fill:#FDFEFD}
    .fil0 {fill:#FEFEFE}
    .fil28 {fill:red}
    .fil27 {fill:white}
   ]]>
  </style>
 </defs>
 <g id="Слой_x0020_1">
  <metadata id="CorelCorpID_0Corel-Layer"/>
  <path class="fil0" d="M-8652 7034l-926 -1165 -397 27 -53 106c185,211 318,476 318,767l0 79 238 27 847 1191 873 -1191 1005 -53 -873 -979 -1032 1191z"/>
  <path class="fil1" d="M9213 6236c-53,0 -27,0 -53,27l0 26c-27,106 0,1350 0,1482l0 1587 2566 0 0 -3201c27,-80 27,-80 0,-159 -26,-26 -26,-53 -26,-106 0,-26 -27,27 0,0 -27,-79 -53,-106 -132,-158l-27 -27c-106,-26 -106,-53 -238,-53l-265 0c-79,371 -370,662 -688,794 -185,79 -423,79 -661,53 -79,-27 -185,-80 -265,-106 -79,-53 -185,-132 -211,-159l0 0z"/>
  <path class="fil2" d="M3498 1341l0 27c-106,238 -106,529 -27,767 53,185 159,397 265,529 26,27 53,27 53,53 26,27 79,53 132,106 291,238 688,344 1085,265 106,-27 53,-27 79,0 0,0 80,-159 159,-265 53,-79 132,-159 212,-212 211,-211 291,-211 502,-317l27 0c0,-53 26,-159 53,-212 53,-238 26,-397 0,-635 -27,-26 0,-26 -27,-26l0 -27c-26,27 0,0 -26,0l-212 -53c-79,0 -159,-26 -238,-52 -317,-80 -767,-212 -1058,-397 -106,-53 -80,-53 -159,-133 0,0 -529,450 -767,582 -53,27 -53,27 -53,0l0 0z"/>
  <path class="fil2" d="M7652 2109c0,26 0,238 264,53 185,-133 318,0 371,0 238,-212 423,158 555,53 53,-27 27,-53 53,-80 53,27 53,291 -159,371 -317,132 -449,-106 -476,-106 -159,238 -529,159 -635,-27 -26,-79 -26,-185 27,-264l0 0zm-635 -741l-27 53 0 26c-53,318 -53,635 80,873 132,106 291,159 449,291 27,27 53,80 80,106 53,27 53,53 79,80 80,105 132,185 159,238 820,238 1534,-212 1720,-900 53,-185 53,-423 26,-608l-53 -186c0,27 27,27 -26,0l-80 -26c-158,-106 -396,-265 -529,-397l-185 -159c-159,238 -900,450 -1217,530l-423 105c-53,0 -53,0 -53,-26l0 0z"/>
  <path class="fil3" d="M2730 5945l688 0c-26,53 -317,371 -344,424l-344 -424zm-582 -370c-53,26 -53,26 -79,79l-79 80 -424 476 768 26c52,0 52,27 79,80 26,53 79,105 132,158 80,133 159,239 238,371 106,106 186,238 265,344l26 -27 371 -502c344,-477 211,-424 476,-424l0 3122 -2725 0 0 53 10557 0 0 -53 -2673 0 0 -3254 27 26 26 0c-53,-26 -53,-26 -53,-79l0 -53c-26,-26 -26,27 -26,-53l-26 27 -53 0 -8520 0 -53 26 0 27c27,26 0,26 0,26l0 26c-26,27 0,27 0,53l-26 53c26,53 26,318 26,397l0 1191c0,503 -26,1032 0,1508 0,106 0,79 -26,79l3704 0 0 -793c0,-556 26,-1112 0,-1641 0,-53 0,-741 26,-794 0,-53 27,-105 27,-158l-106 0 0 53 -27 -27c0,-26 0,0 0,0l-26 0 0 53c-26,-79 0,-132 53,-212l159 -264 0 -27 -53 0 0 -53 -80 0c0,-53 0,-26 -53,-26 -211,-27 -158,-27 -264,53l-27 53c-53,53 -53,79 -79,106l-26 0 0 79c-53,26 -27,26 -80,53 -26,53 -26,0 -26,53l-27 -27c-26,0 -53,-26 -53,27 -53,-27 0,-27 -79,-27l-635 0c0,27 26,0 53,53 -27,0 -79,27 -106,27 27,-27 27,0 0,-27l0 -53 -79 0 0 -79c-27,-26 0,-26 -27,-53l-132 -106c-27,-26 -27,-53 -53,-79l-53 -27c-26,-53 -26,-53 -106,-53l0 80 -26 0 0 26c0,27 -53,27 26,27 -53,26 0,0 -53,0 27,0 27,53 27,0l-27 0z"/>
  <path class="fil2" d="M8869 3961c-27,79 -27,132 -53,238 0,106 26,185 26,291 106,0 159,26 186,106 26,106 -53,132 -80,185l53 106 -450 0c-26,0 -26,0 -26,-27l0 -846c-27,53 -27,793 0,899l476 0c132,133 212,238 370,344 344,185 794,185 1138,0 265,-158 318,-317 371,-344l79 -158c-26,-80 -53,-80 -26,-186 52,-53 52,-53 105,-79 0,-106 27,-185 27,-291 0,-53 -53,-185 -53,-238 0,-27 -79,-185 -132,-265 -27,-79 -133,-211 -186,-238l0 318 -1455 26 0 -370c-132,105 -238,211 -291,344 -26,53 -53,132 -79,185l0 0z"/>
  <path class="fil4" d="M8789 3326c0,26 0,26 -26,53 -132,185 -238,423 -238,635l0 846c26,-26 26,-79 53,-132l185 -556c26,-52 53,-79 53,-132l26 -79 27 0c26,-53 53,-132 79,-185 53,-133 159,-239 291,-344l0 370 1455 -26 0 -318c53,27 159,159 186,238 53,80 132,238 132,265l0 -27c79,133 159,318 185,450 27,80 132,450 159,476l0 -555 0 -291c0,-80 -27,-185 -27,-238 -26,-27 -132,-397 -396,-635 -186,-133 -371,-265 -688,-318 -291,-79 -609,-26 -874,53 -370,159 -529,397 -582,450l0 0z"/>
  <path class="fil0" d="M6011 1394l0 27c27,0 0,0 27,26 26,238 53,397 0,635 -27,53 -53,159 -53,212 211,-53 317,-79 555,-79 80,0 186,26 265,26 106,26 185,79 265,79 -133,-238 -133,-555 -80,-873 -26,0 0,0 0,-79l-53 26 -26 0c26,0 26,0 53,-26l0 -53c26,-53 26,0 0,-26 -27,0 -27,26 -27,52l0 -105c80,-53 -53,53 27,-27 -27,0 -80,0 -106,-26l-27 0c-317,132 -635,79 -926,-106l-52 -53c-53,-27 26,0 -27,0 79,106 132,212 185,370zm-2831 1403c27,0 159,26 212,26 741,159 952,767 1005,794l27 0 0 -27c26,-26 0,-26 26,-53l476 0 0 106c0,27 27,-79 27,-106l26 -185c0,-26 0,-26 27,-53l0 -26 79 -185c-26,-27 27,-27 -79,0 -397,79 -794,-27 -1085,-265 -53,-53 -106,-79 -132,-106l0 27c-27,53 0,26 -185,26l-291 0 -133 27 0 0z"/>
  <path class="fil5" d="M7652 2109c-53,79 -53,185 -27,264 106,186 476,265 635,27 27,0 159,238 476,106 212,-80 212,-344 159,-371 -26,27 0,53 -53,80 -132,105 -317,-265 -555,-53 -53,0 -186,-133 -371,0 -264,185 -264,-27 -264,-53l0 0z"/>
  <path class="fil6" d="M9345 6104c26,-79 159,-106 212,-53 79,53 79,185 26,212 -26,26 0,26 -53,26 -132,80 -264,-106 -185,-185zm1191 -185l0 -27c53,-26 105,-79 185,-26l53 53c26,26 26,26 26,79 0,106 -79,159 -211,132 -27,-26 -53,-26 -80,-79 0,-53 0,-106 27,-132zm238 -318c185,-79 264,185 106,265 -186,53 -291,-212 -106,-265zm-238 318l-27 -27c0,0 0,-26 -26,-26 -27,26 0,53 0,53 0,26 0,0 -27,26l53 53c-26,-26 0,-26 -53,-26l-238 0c0,53 0,26 27,53l0 26c0,26 0,0 -27,26 0,27 0,27 27,106l0 53c0,-106 26,-185 105,-185 106,-26 159,26 186,79 53,159 -186,265 -265,106l-53 27c0,79 -26,132 -79,158l-106 0c-53,-26 -53,-26 -53,-79 -79,-53 0,-132 26,-185 -26,-27 0,0 -26,0l-132 -27 0 27c79,79 79,185 0,238 -27,53 -106,53 -159,0 -53,-26 -79,-79 -53,-159 0,-26 27,-53 27,-53l52 -53c0,0 -52,-26 -52,-53 0,0 52,-52 0,-52 -27,-27 52,0 0,0l-27 0c0,0 0,26 0,0 -53,-27 -26,0 0,-53l-26 26 -53 0c-53,0 -133,-26 -186,-26l0 -53c-26,0 -26,-27 -26,0 0,53 26,79 0,106 0,0 0,26 -26,26 -27,26 0,26 -27,26 -26,53 -79,53 -132,27 -27,0 -53,-27 -53,-53l-27 0c0,53 0,53 53,79l-26 0c26,53 79,80 106,106 26,27 132,106 211,159 80,26 186,79 265,106 238,26 476,26 661,-53 318,-132 609,-423 688,-794l265 0c132,0 132,27 238,53 0,-26 -26,-106 -26,-106 0,0 -53,27 -80,27l27 -27 0 -26c0,-27 -371,-27 -424,0 0,-53 0,-53 -26,-53 26,53 26,26 0,53 -27,0 0,-27 -27,-53l-158 0c-133,0 -53,26 -106,0l-27 26c-26,53 27,27 0,80 -79,106 -53,26 -53,53l0 0c-26,0 -26,0 -26,53l0 79c-79,0 -26,0 -79,26 0,27 -27,27 0,80l0 0z"/>
  <path class="fil7" d="M9213 6236c-27,-26 -80,-53 -106,-106l-27 -26 0 3254 2673 0 0 -3307c0,-53 -27,-106 -53,-159 -27,27 0,-26 0,0 0,53 0,80 26,106 27,79 27,79 0,159l0 3201 -2566 0 0 -1587c0,-132 -27,-1376 0,-1482l0 -26c26,-27 0,-27 53,-27z"/>
  <path class="fil8" d="M8895 5681c27,-106 185,-133 238,-27 80,106 0,212 -132,212 -26,-53 -79,-106 -106,-185l0 0zm-2011 211c53,53 371,106 450,159 27,-26 27,26 27,-106l0 -106 0 -185 449 0c133,0 424,-26 556,0 159,0 318,106 370,212l27 0 0 26c26,0 26,0 26,27 27,0 27,26 27,53 26,26 26,53 26,79l53 79c0,-26 -26,-26 0,-53l0 -26c0,0 27,0 0,-26l0 -27 53 -26 80 0 26 -27c0,80 0,27 26,53 0,-26 -26,-53 0,-79 0,-27 27,-27 53,-53 0,-27 53,-27 106,-27l-26 -158 0 -53c0,-27 26,-27 0,-80 0,-26 -80,-79 -133,0l0 -26 -52 0 0 26c-53,0 -80,-26 -186,-26 -53,0 -53,0 -53,26l-26 -26 -27 0c27,26 0,26 53,53 -53,53 -26,26 -26,79l-79 53 -27 -26 -53 -27 -79 0c0,27 0,0 0,0l-27 0c0,27 0,0 27,0 0,-26 -27,-26 -27,-26 53,0 27,-27 106,-27 -26,-53 0,0 -26,-26 -27,-27 26,0 -27,-27 -53,-26 -106,0 -132,0 -53,0 -53,-26 -79,-26 -106,0 -239,26 -344,0l-186 0c-105,26 -370,0 -502,0 26,79 238,53 370,53 -26,26 0,26 -79,26l-238 0c0,27 0,27 26,27l291 0 -7514 0c0,0 -53,-80 -53,0l0 26c27,106 0,265 0,344 27,-53 27,-26 -26,-26 0,-106 26,-318 -53,-344l0 185 -27 0 0 53 -26 0 0 -27c-53,-26 -53,-26 -106,0l26 0 27 27c-53,0 -132,-53 -132,26l52 0 0 27 -52 0c-53,-27 -53,-27 -106,-27l7196 0z"/>
  <path class="fil9" d="M8525 4860c0,27 0,27 26,27l450 0 -53 -106c-53,0 -106,0 -132,-26 -27,0 -53,-27 -80,-80 -26,-106 53,-159 106,-185 0,-106 -26,-185 -26,-291 26,-106 26,-159 53,-238l-27 0 -26 79c0,53 -27,80 -53,132l-185 556c-27,53 -27,106 -53,132l0 0zm2487 -899c0,53 53,185 53,238 0,106 -27,185 -27,291 80,26 159,26 159,106 27,106 -26,132 -106,185 -79,0 -79,0 -132,-26l-79 158 476 -26 0 -27c-27,-26 -132,-396 -159,-476 -26,-132 -106,-317 -185,-450l0 27z"/>
  <path class="fil8" d="M3551 1209c26,-26 79,-159 105,-185l80 -79c26,-27 26,-53 53,-80 53,-53 106,-106 159,-132l132 -106c53,0 26,0 53,-26l-238 0 -27 26 -53 27 27 79c26,26 0,-27 26,26 -106,53 -26,27 -79,80l-53 0 0 -80 -80 0c27,53 27,0 27,53 -27,53 0,80 0,106l-27 53c-52,-26 27,0 0,-26l-26 0c-26,-27 26,0 -26,-27l-53 0 0 27c-27,26 -27,0 -27,26 -26,53 0,53 0,79l0 53c-26,27 0,53 0,106 27,-26 0,-26 27,0l0 0z"/>
  <path class="fil10" d="M10245 6236l26 0c79,159 318,53 265,-106 -27,-53 -80,-105 -186,-79 -79,0 -105,79 -105,185zm-1297 -1455c27,-53 106,-79 80,-185 -27,-80 -80,-106 -186,-106 -53,26 -132,79 -106,185 27,53 53,80 80,80 26,26 79,26 132,26l0 0zm1826 820c-185,53 -80,318 106,265 158,-80 79,-344 -106,-265z"/>
  <path class="fil8" d="M6831 1183l27 0c26,26 79,26 106,26 -80,80 53,-26 -27,27l0 105c0,-26 0,-52 27,-52 26,26 26,-27 0,26l0 53c-27,26 -27,26 -53,26l26 0 53 -26c0,79 -26,79 0,79l0 -26 27 -53 79 -159c132,-264 185,-264 291,-397l-79 0c-27,27 -80,133 -185,212 -106,79 -159,106 -292,159z"/>
  <path class="fil10" d="M8895 5681c27,79 80,132 106,185 132,0 212,-106 132,-212 -53,-106 -211,-79 -238,27l0 0zm741 555l0 53c27,0 0,0 27,-26 26,53 26,53 79,79 53,0 53,-26 106,0 26,0 0,-26 0,0 -27,27 0,0 -27,53l27 0c79,-53 79,-159 0,-238 -53,-27 -80,0 -133,-27l-52 53c0,0 -27,27 -27,53z"/>
  <path class="fil11" d="M10933 4569c26,0 26,0 26,27l0 53c26,26 0,0 0,53 26,-27 26,0 26,-27 0,-53 -26,-53 0,-79l0 26 27 27 0 -27c0,-53 0,-26 -27,-26l27 -53 26 53 -26 79 0 27 26 0c27,-27 27,-53 27,-80 0,53 0,53 26,133l0 26c80,-53 133,-79 106,-185 0,-80 -79,-80 -159,-106 -53,26 -53,26 -105,79z"/>
  <path class="fil10" d="M9345 6104l0 26c26,0 26,0 53,27l53 26c53,0 26,0 53,27l26 26 27 27c0,-27 0,0 26,0 53,-27 53,-159 -26,-212 -53,-53 -186,-26 -212,53l0 0z"/>
  <path class="fil12" d="M9980 6342c0,53 0,53 53,79l106 0c53,-26 79,-79 79,-158 0,-53 -26,-106 -79,-106l-27 0 53 53 -26 0 -53 -27 26 27c53,26 27,26 27,53l26 26 -53 0c-26,0 -53,53 -79,53 0,0 -79,-53 -53,0l0 0z"/>
  <path class="fil11" d="M10589 6130c132,27 211,-26 211,-132 0,-53 0,-53 -26,-79 0,26 0,26 -27,53 0,0 -26,-27 -53,0 -26,26 0,-27 0,0 27,26 27,0 27,26 -80,0 -80,-53 -132,-26l0 -53c-27,26 -53,26 -53,53 0,53 26,26 26,105 53,0 0,-26 27,0l52 27c-79,0 -26,0 -52,26z"/>
  <path class="fil12" d="M10536 5919c-27,26 -27,79 -27,132 27,53 53,53 80,79 26,-26 -27,-26 52,-26l-52 -27c-27,-26 26,0 -27,0 0,-79 -26,-52 -26,-105 0,-27 26,-27 53,-53l0 53c52,-27 52,26 132,26 0,-26 0,0 -27,-26 0,-27 -26,26 0,0 27,-27 53,0 53,0 27,-27 27,-27 27,-53l-53 -53c-80,-53 -132,0 -185,26l0 27z"/>
  <path class="fil11" d="M10006 6157c-26,53 -105,132 -26,185 -26,-53 53,0 53,0 26,0 53,-53 79,-53l53 0 -26 -26c0,-27 26,-27 -27,-53l-26 -27 53 27 26 0 -53 -53 27 0c0,0 26,0 -27,-27l-53 0c-26,27 -26,27 -53,27l0 0z"/>
  <path class="fil13" d="M9080 5919c27,132 53,79 80,132l26 0 27 -26 53 26 -27 53 53 -27c27,0 0,0 27,-26 26,0 26,-26 26,-26 26,-27 0,-53 0,-106l-26 -27 -27 0c27,53 0,0 27,80 26,26 0,-53 0,0 0,53 -53,26 -80,26 -26,-26 0,-26 -26,-26 0,0 26,-27 26,-53l-26 0 -27 -27c0,53 27,27 27,53l-53 80 0 -80 26 0c-26,-26 -26,-26 -26,-79l-27 0c-26,26 -53,26 -53,53l0 0z"/>
  <path class="fil14" d="M9583 6263c-26,0 -26,-27 -26,0l-27 -27 -26 -26c-27,-27 0,-27 -53,-27l-53 -26c-27,-27 -27,-27 -53,-27l0 -26c-79,79 53,265 185,185 53,0 27,0 53,-26l0 0z"/>
  <path class="fil15" d="M9133 5866l27 0c0,53 0,53 26,79l-26 0 0 80 53 -80c0,-26 -27,0 -27,-53l27 27 26 0c0,26 -26,53 -26,53 26,0 0,0 26,26 27,0 80,27 80,-26 0,-53 26,26 0,0 -27,-80 0,-27 -27,-80l27 0c-27,-26 0,-26 -27,-26 0,-27 0,-27 -26,-27l-27 0c-53,0 -106,0 -106,27z"/>
  <path class="fil16" d="M10959 4755c53,26 53,26 132,26l0 -26c-26,-80 -26,-80 -26,-133 0,27 0,53 -27,80l-26 0 0 -27 26 -79 -26 -53 -27 53c27,0 27,-27 27,26l0 27 -27 -27 0 -26c-26,26 0,26 0,79 0,27 0,0 -26,27 0,-53 26,-27 0,-53l0 -53c0,-27 0,-27 -26,-27 -27,106 0,106 26,186l0 0z"/>
  <path class="fil17" d="M9848 6395l-27 0c27,-53 0,-26 27,-53 0,-26 26,0 0,0 -53,-26 -53,0 -106,0 -53,-26 -53,-26 -79,-79 -27,26 0,26 -27,26l0 -53c-26,80 0,133 53,159 53,53 132,53 159,0l0 0z"/>
  <path class="fil14" d="M9080 5998l0 53 27 0c0,26 26,53 53,53 53,26 106,26 132,-27l-53 27 27 -53 -53 -26 -27 26 -26 0c-27,-53 -53,0 -80,-132 -26,26 0,53 0,79l0 0z"/>
  <path class="fil2" d="M6567 2267c899,0 1640,688 1640,1535 0,847 -741,1535 -1640,1535 -900,0 -1614,-688 -1614,-1535 0,-847 714,-1535 1614,-1535z"/>
  <path class="fil18" d="M6567 2267c741,0 1376,450 1561,1085 26,291 -1667,-158 -2064,-767 -106,106 -873,688 -1032,714 212,-608 821,-1032 1535,-1032l0 0z"/>
  <ellipse class="fil19 str0" cx="2969" cy="3987" rx="1508" ry="1244"/>
  <path class="fil2" d="M2942 2823c767,0 1402,609 1402,1349 0,768 -635,1376 -1402,1376 -767,0 -1402,-608 -1402,-1376 0,-740 635,-1349 1402,-1349z"/>
  <polygon class="fil20" points="3127,5548 2810,5548 2678,5284 3260,5284 3127,5548 "/>
  <path class="fil21" d="M2969 2823c873,-26 1481,900 1375,1508 0,53 -26,662 -26,582 0,-397 -1614,-1508 -1799,-1799 -80,106 -768,582 -900,609 185,-556 715,-900 1350,-900z"/>
  <polygon class="fil22" points="1699,5892 2148,5892 2148,6236 2810,6051 3101,6051 3762,6236 3762,5892 4239,5892 4344,7824 1699,7691 "/>
  <path class="fil23" d="M1381 5866l423 26 1165 1561 1190 -1561 450 -26c291,0 529,264 529,555l0 2805 -4286 0 0 -2805c0,-291 238,-555 529,-555l0 0z"/>
  <path class="fil24" d="M5138 7453l0 1006 -4286 0 0 -1006 4286 0zm-3201 -1402l741 1005 -1826 0 0 -635c0,-132 26,-264 106,-370l979 0zm1349 1005l741 -1005 979 0c79,106 132,238 132,370l0 635 -1852 0z"/>
  <polygon class="fil21" points="1196,3723 1454,3723 1454,4677 1196,4677 "/>
  <polygon class="fil22" points="1249,3723 1299,3723 1299,4677 1249,4677 "/>
  <polygon class="fil20 str1" points="1460,3696 1621,3696 1621,4693 1460,4693 "/>
  <polygon class="fil21" points="4477,3723 4743,3723 4743,4677 4477,4677 "/>
  <polygon class="fil22" points="4635,3723 4687,3723 4687,4677 4635,4677 "/>
  <polygon class="fil20 str1" points="4291,3696 4456,3696 4456,4693 4291,4693 "/>
  <polygon class="fil24" points="4715,8697 4715,9411 852,9411 852,8697 "/>
  <path class="fil0" d="M-1741 4199l-926 -1164 -397 26 -53 106c185,212 318,476 318,767l0 80 238 26 846 1191 874 -1191 1005 -53 -873 -979 -1032 1191z"/>
  <path class="fil25" d="M4715 5628l503 0 1428 3148 1350 -3122 0 -26 529 0c344,-27 635,264 635,582l0 3201 -5080 0 0 -3201c0,-318 291,-609 635,-582l0 0z"/>
  <ellipse class="fil20 str1" cx="6620" cy="7850" rx="26" ry="53"/>
  <polygon class="fil26" points="7890,7850 8637,7850 8637,7949 7890,7949 "/>
  <polygon class="fil27" points="8445,7612 8260,7400 7890,7850 8604,7850 "/>
  <polygon class="fil28" points="6620,5866 5826,5522 5905,6342 6567,5998 "/>
  <polygon class="fil28" points="6540,5839 7334,5575 7281,6369 6514,5945 "/>
  <polygon class="fil22" points="6488,5760 6709,5760 6709,6067 6488,6067 "/>
  <path class="fil19 str1" d="M1196 4622c106,-26 185,450 264,635 80,238 -502,1376 -423,2223 27,159 -132,1852 0,1878"/>
  <polygon class="fil27 str2" points="4688,6263 5376,5337 6196,7797 5958,7586 "/>
  <polygon class="fil27 str2" points="5165,7136 5747,6527 6514,8617 6249,8353 "/>
  <circle class="fil20 str1" cx="6567" cy="6765" r="53"/>
  <path class="fil22" d="M6514 5760l185 0c15,0 26,12 26,26l0 140c0,14 -11,26 -26,26l-185 0c-15,0 -26,-12 -26,-26l0 -140c0,-14 11,-26 26,-26z"/>
  <polygon class="fil27 str2" points="8604,6210 7863,5363 7043,7824 7281,7586 "/>
  <polygon class="fil27 str2" points="8128,7215 7493,6554 6752,8617 6964,8432 "/>
  <path class="fil5" d="M7731 574c-159,80 -53,27 -212,132l-53 27c-26,26 -26,26 -52,26 0,27 0,27 -27,53 -106,133 -159,133 -291,397l-79 159c0,26 0,26 53,26l423 -105c317,-80 1058,-292 1217,-530l185 159c133,132 371,291 529,397l80 26c53,27 26,27 26,0 -185,-502 -661,-873 -1190,-873 -318,-26 -397,53 -609,106l0 0z"/>
  <rect class="fil29" x="7308" y="62" width="1847" height="750"/>
  <path class="fil5" d="M5293 647c161,78 54,26 215,130l54 26c27,26 27,26 54,26 0,26 0,26 27,52 108,130 162,130 296,389l81 156c0,26 0,26 -54,26l-431 -104c-323,-78 -1077,-285 -1239,-519l-188 156c-135,129 -377,285 -539,389l-81 26c-53,26 -27,26 -27,0 189,-493 674,-856 1212,-856 324,-26 404,52 620,103l0 0z"/>
 </g>
</svg>
