<svg xmlns="http://www.w3.org/2000/svg" width="450" height="360" viewBox="0 0 450 360" xmlns:xlink="http://www.w3.org/1999/xlink" shape-rendering="geometricPrecision" text-rendering="geometricPrecision" image-rendering="optimizeQuality" fill-rule="evenodd" clip-rule="evenodd"><defs><style>.str0{stroke:#000}.str0,.str2{stroke-width:4.99961}.str2{stroke:#4d4d4d}.str1{stroke:#000;stroke-width:2.3622}.fil21{fill:none}.fil27{fill:#fefefe}.fil19{fill:#c4c5c5}.fil20{fill:#5c5b5b}.fil22{fill:#000}.fil28{fill:#1a1a1a}.fil10{fill:#1c1a17}.fil23{fill:#333}.fil4{fill:#353432}.fil29{fill:#666}.fil5{fill:#6b231c}.fil0{fill:#7ea3a9}.fil8{fill:#81a2aa}.fil24{fill:#900}.fil25{fill:#bd0006}.fil15{fill:#bd2728}.fil18{fill:#c02628}.fil2{fill:#c4c6c5}.fil1{fill:#c6c6c6}.fil16{fill:#ca2626}.fil12{fill:#cb2527}.fil26{fill:#cc0007}.fil11{fill:#cd2427}.fil13{fill:#ce2427}.fil14{fill:#d12226}.fil17{fill:#d2222a}.fil7{fill:#fafefb}.fil9{fill:#fdfdfd}.fil3{fill:#fdfefd}.fil6{fill:#fefefe}.fil31{fill:red}.fil30,.fil32{fill:#fff}</style><clipPath id="id0"><path d="M275 226h2.9v.67H275z"/></clipPath><clipPath id="id1"><path d="M276 225h2.9v.67H276z"/></clipPath><clipPath id="id2"><path d="M276 225h3-3z"/></clipPath><clipPath id="id3"><path d="M276 224h2.9v.67H276z"/></clipPath><clipPath id="id4"><path d="M277 223h2.898v.67H277z"/></clipPath><clipPath id="id5"><path d="M278 223h2.9v.67H278z"/></clipPath><clipPath id="id6"><path d="M278 223v-1h2v1h-2z"/></clipPath><clipPath id="id7"><path d="M278 222h2.9v.67H278z"/></clipPath><clipPath id="id8"><path d="M194 228v-1h3v1h-3z"/></clipPath><clipPath id="id9"><path d="M279 221h2.9v.67H279z"/></clipPath><clipPath id="id10"><path d="M279 221h3-3z"/></clipPath><clipPath id="id11"><path d="M280 220h1.785v.67H280z"/></clipPath><clipPath id="id12"><path d="M194 226v-1h2v1h-2z"/></clipPath><clipPath id="id13"><path d="M280 220h1-1z"/></clipPath><clipPath id="id14"><path d="M280 219h.67v.67H280z"/></clipPath><clipPath id="id15"><path d="M279 219v-1h1v1h-1z"/></clipPath><clipPath id="id16"><path d="M279 217h.67v.67H279z"/></clipPath><clipPath id="id17"><path d="M271 231v-1h-3v1h3z"/></clipPath><clipPath id="id18"><path d="M271 230v-1h-3v1h3z"/></clipPath><clipPath id="id19"><path d="M271 229v-1h-2v1h2z"/></clipPath></defs><g id="Слой_x0020_1"><path class="fil0" d="M330 238c-2 0-1 0-2 1v1c-1 4 0 51 0 56v60h97V235c1-3 1-3 0-6-1-1-1-2-1-4 0-1-1 1 0 0-1-3-2-4-5-6l-1-1c-4-1-4-2-9-2h-10c-3 14-14 25-26 30-7 3-16 3-25 2-3-1-7-3-10-4-3-2-7-5-8-6z"/><path class="fil1" d="M114 53v1c-4 9-4 20-1 29 2 7 6 15 10 20 1 1 2 1 2 2 1 1 3 2 5 4 11 9 26 13 41 10 4-1 2-1 3 0 0 0 3-6 6-10 2-3 5-6 8-8 8-8 11-8 19-12h1c0-2 1-6 2-8 2-9 1-15 0-24-1-1 0-1-1-1v-1c-1 1 0 0-1 0l-8-2c-3 0-6-1-9-2-12-3-29-8-40-15-4-2-3-2-6-5 0 0-20 17-29 22-2 1-2 1-2 0z"/><path class="fil2" d="M271 82c0 1 0 9 10 2 7-5 12 0 14 0 9-8 16 6 21 2 2-1 1-2 2-3 2 1 2 11-6 14-12 5-17-4-18-4-6 9-20 6-24-1-1-3-1-7 1-10zm-24-28l-1 2v1c-2 12-2 24 3 33 5 4 11 6 17 11 1 1 2 3 3 4 2 1 2 2 3 3 3 4 5 7 6 9 31 9 58-8 65-34 2-7 2-16 1-23l-2-7c0 1 1 1-1 0l-3-1c-6-4-15-10-20-15l-7-6c-6 9-34 17-46 20l-16 4c-2 0-2 0-2-1z"/><path class="fil3" d="M85 227h26c-1 2-12 14-13 16l-13-16zm-22-14c-2 1-2 1-3 3l-3 3-16 18 29 1c2 0 2 1 3 3s3 4 5 6c3 5 6 9 9 14 4 4 7 9 10 13l1-1 14-19c13-18 8-16 18-16v118H27v2h399v-2H325V233l1 1h1c-2-1-2-1-2-3v-2c-1-1-1 1-1-2l-1 1h-2-1l-2 1v1c1 1 0 1 0 1v1c-1 1 0 1 0 2l-1 2c1 2 1 12 1 15v45c0 19-1 39 0 57 0 4 0 3-1 3H136v-30c0-21 1-42 0-62 0-2 0-28 1-30 0-2 1-4 1-6h-4v2l-1-1c0-1 0 0 0 0h-1v2c-1-3 0-5 2-8l6-10v-1h-2v-2h-3c0-2 0-1-2-1-8-1-6-1-10 2l-1 2c-2 2-2 3-3 4h-1v3c-2 1-1 1-3 2-1 2-1 0-1 2l-1-1c-1 0-2-1-2 1-2-1 0-1-3-1H84c0 1 1 0 2 2-1 0-3 1-4 1 1-1 1 0 0-1v-2h-3v-3c-1-1 0-1-1-2l-5-4c-1-1-1-2-2-3l-2-1c-1-2-1-2-4-2v3h-1v1c0 1-2 1 1 1-2 1 0 0-2 0 1 0 1 2 1 0h-1z"/><path class="fil2" d="M317 152c-1 3-1 5-2 9 0 4 1 7 1 11 4 0 6 1 7 4 1 4-2 5-3 7l2 4h-17c-1 0-1 0-1-1v-32c-1 2-1 30 0 34h18c5 5 8 9 14 13 13 7 30 7 43 0 10-6 12-12 14-13l3-6c-1-3-2-3-1-7 2-2 2-2 4-3 0-4 1-7 1-11 0-2-2-7-2-9 0-1-3-7-5-10-1-3-5-8-7-9v12l-55 1v-14c-5 4-9 8-11 13-1 2-2 5-3 7z"/><path class="fil4" d="M314 128c0 1 0 1-1 2-5 7-9 16-9 24v32c1-1 1-3 2-5l7-21c1-2 2-3 2-5l1-3h1c1-2 2-5 3-7 2-5 6-9 11-13v14l55-1v-12c2 1 6 6 7 9 2 3 5 9 5 10v-1c3 5 6 12 7 17 1 3 5 17 6 18v-21-11c0-3-1-7-1-9-1-1-5-15-15-24-7-5-14-10-26-12-11-3-23-1-33 2-14 6-20 15-22 17z"/><path class="fil5" d="M274 24c-6 3-2 1-8 5l-2 1c-1 1-1 1-2 1 0 1 0 1-1 2-4 5-6 5-11 15l-3 6c0 1 0 1 2 1l16-4c12-3 40-11 46-20l7 6c5 5 14 11 20 15l3 1c2 1 1 1 1 0-7-19-25-33-45-33-12-1-15 2-23 4zM138 25c-1 1 0 1-2 1l-5 4c-2 1-4 3-6 5-1 1-1 2-2 3l-3 3c-1 1-3 6-4 7l-2 5c0 1 0 1 2 0 9-5 29-22 29-22 3 3 2 3 6 5 11 7 28 12 40 15 3 1 6 2 9 2l8 2c1 0 0 1 1 0-2-6-4-10-7-14-3-3-4-6-7-8v-1c-1 0-5-4-9-6h-1-1v-1l-4-2c-8-2-13-4-22-3-4 0-8 1-11 2-2 1-8 3-9 3z"/><path class="fil6" d="M209 55v1c1 0 0 0 1 1 1 9 2 15 0 24-1 2-2 6-2 8 8-2 12-3 21-3 3 0 7 1 10 1 4 1 7 3 10 3-5-9-5-21-3-33-1 0 0 0 0-3l-2 1h-1c1 0 1 0 2-1v-2c1-2 1 0 0-1-1 0-1 1-1 2v-4c3-2-2 2 1-1-1 0-3 0-4-1h-1c-12 5-24 3-35-4l-2-2c-2-1 1 0-1 0 3 4 5 8 7 14zM102 108c1 0 6 1 8 1 28 6 36 29 38 30h1v-1c1-1 0-1 1-2h18v4c0 1 1-3 1-4l1-7c0-1 0-1 1-2v-1l3-7c-1-1 1-1-3 0-15 3-30-1-41-10-2-2-4-3-5-4v1c-1 2 0 1-7 1h-11l-5 1z"/><path class="fil5" d="M271 82c-2 3-2 7-1 10 4 7 18 10 24 1 1 0 6 9 18 4 8-3 8-13 6-14-1 1 0 2-2 3-5 4-12-10-21-2-2 0-7-5-14 0-10 7-10-1-10-2z"/><path class="fil7" d="M335 233c1-3 6-4 8-2 3 2 3 7 1 8-1 1 0 1-2 1-5 3-10-4-7-7zm45-7v-1c2-1 4-3 7-1l2 2c1 1 1 1 1 3 0 4-3 6-8 5-1-1-2-1-3-3 0-2 0-4 1-5zm9-12c7-3 10 7 4 10-7 2-11-8-4-10zm-9 12l-1-1s0-1-1-1c-1 1 0 2 0 2 0 1 0 0-1 1l2 2c-1-1 0-1-2-1h-9c0 2 0 1 1 2v1c0 1 0 0-1 1 0 1 0 1 1 4v2c0-4 1-7 4-7 4-1 6 1 7 3 2 6-7 10-10 4l-2 1c0 3-1 5-3 6h-4c-2-1-2-1-2-3-3-2 0-5 1-7-1-1 0 0-1 0l-5-1v1c3 3 3 7 0 9-1 2-4 2-6 0-2-1-3-3-2-6 0-1 1-2 1-2l2-2s-2-1-2-2c0 0 2-2 0-2-1-1 2 0 0 0h-1s0 1 0 0c-2-1-1 0 0-2l-1 1h-2c-2 0-5-1-7-1v-2c-1 0-1-1-1 0 0 2 1 3 0 4 0 0 0 1-1 1-1 1 0 1-1 1-1 2-3 2-5 1-1 0-2-1-2-2h-1c0 2 0 2 2 3h-1c1 2 3 3 4 4s5 4 8 6c3 1 7 3 10 4 9 1 18 1 25-2 12-5 23-16 26-30h10c5 0 5 1 9 2 0-1-1-4-1-4s-2 1-3 1l1-1v-1c0-1-14-1-16 0 0-2 0-2-1-2 1 2 1 1 0 2-1 0 0-1-1-2h-6c-5 0-2 1-4 0l-1 1c-1 2 1 1 0 3-3 4-2 1-2 2v0c-1 0-1 0-1 2v3c-3 0-1 0-3 1 0 1-1 1 0 3z"/><path class="fil8" d="M330 238c-1-1-3-2-4-4l-1-1v123h101V231c0-2-1-4-2-6-1 1 0-1 0 0 0 2 0 3 1 4 1 3 1 3 0 6v121h-97v-60c0-5-1-52 0-56v-1c1-1 0-1 2-1z"/><path class="fil9" d="M318 217c1-4 7-5 9-1 3 4 0 8-5 8-1-2-3-4-4-7zm-76 8c2 2 14 4 17 6 1-1 1 1 1-4v-4-7h17c5 0 16-1 21 0 6 0 12 4 14 8h1v1c1 0 1 0 1 1 1 0 1 1 1 2 1 1 1 2 1 3l2 3c0-1-1-1 0-2v-1s1 0 0-1v-1l2-1h3l1-1c0 3 0 1 1 2 0-1-1-2 0-3 0-1 1-1 2-2 0-1 2-1 4-1l-1-6v-2c0-1 1-1 0-3 0-1-3-3-5 0v-1h-2v1c-2 0-3-1-7-1-2 0-2 0-2 1l-1-1h-1c1 1 0 1 2 2-2 2-1 1-1 3l-3 2-1-1-2-1h-3c0 1 0 0 0 0h-1c0 1 0 0 1 0 0-1-1-1-1-1 2 0 1-1 4-1-1-2 0 0-1-1s1 0-1-1-4 0-5 0c-2 0-2-1-3-1-4 0-9 1-13 0h-7c-4 1-14 0-19 0 1 3 9 2 14 2-1 1 0 1-3 1h-9c0 1 0 1 1 1h11-12s-2-3-2 0v1c1 4 0 10 0 13 1-2 1-1-1-1 0-4 1-12-2-13v7h-1v2h-1v-1c-2-1-2-1-4 0h1l1 1c-2 0-5-2-5 1h2v1h-2c-2-1-2-1-4-1z"/><path class="fil10" d="M304 186c0 1 0 1 1 1h17l-2-4c-2 0-4 0-5-1-1 0-2-1-3-3-1-4 2-6 4-7 0-4-1-7-1-11 1-4 1-6 2-9h-1l-1 3c0 2-1 3-2 5l-7 21c-1 2-1 4-2 5zM398 152c0 2 2 7 2 9 0 4-1 7-1 11 3 1 6 1 6 4 1 4-1 5-4 7-3 0-3 0-5-1l-3 6 18-1v-1c-1-1-5-15-6-18-1-5-4-12-7-17v1z"/><path class="fil9" d="M116 48c1-1 3-6 4-7l3-3c1-1 1-2 2-3 2-2 4-4 6-5l5-4c2 0 1 0 2-1h-9l-1 1-2 1 1 3c1 1 0-1 1 1-4 2-1 1-3 3h-2v-3h-3c1 2 1 0 1 2-1 2 0 3 0 4l-1 2c-2-1 1 0 0-1h-1c-1-1 1 0-1-1h-2v1c-1 1-1 0-1 1-1 2 0 2 0 3v2c-1 1 0 2 0 4 1-1 0-1 1 0z"/><path class="fil11" d="M369 238h1c3 6 12 2 10-4-1-2-3-4-7-3-3 0-4 3-4 7zM320 183c1-2 4-3 3-7-1-3-3-4-7-4-2 1-5 3-4 7 1 2 2 3 3 3 1 1 3 1 5 1zM389 214c-7 2-3 12 4 10 6-3 3-13-4-10z"/><path class="fil9" d="M240 47h1c1 1 3 1 4 1-3 3 2-1-1 1v4c0-1 0-2 1-2 1 1 1-1 0 1v2c-1 1-1 1-2 1h1l2-1c0 3-1 3 0 3v-1l1-2 3-6c5-10 7-10 11-15h-3c-1 1-3 5-7 8s-6 4-11 6z"/><path class="fil11" d="M318 217c1 3 3 5 4 7 5 0 8-4 5-8-2-4-8-3-9 1zM346 238v2c1 0 0 0 1-1 1 2 1 2 3 3 2 0 2-1 4 0 1 0 0-1 0 0-1 1 0 0-1 2h1c3-2 3-6 0-9-2-1-3 0-5-1l-2 2s-1 1-1 2z"/><path class="fil12" d="M395 175c1 0 1 0 1 1v2c1 1 0 0 0 2 1-1 1 0 1-1 0-2-1-2 0-3v1l1 1v-1c0-2 0-1-1-1l1-2 1 2-1 3v1h1c1-1 1-2 1-3 0 2 0 2 1 5v1c3-2 5-3 4-7 0-3-3-3-6-4-2 1-2 1-4 3z"/><path class="fil11" d="M335 233v1c1 0 1 0 2 1l2 1c2 0 1 0 2 1l1 1 1 1c0-1 0 0 1 0 2-1 2-6-1-8-2-2-7-1-8 2z"/><path class="fil13" d="M359 242c0 2 0 2 2 3h4c2-1 3-3 3-6 0-2-1-4-3-4h-1l2 2h-1l-2-1 1 1c2 1 1 1 1 2l1 1h-2c-1 0-2 2-3 2 0 0-3-2-2 0z"/><path class="fil12" d="M382 234c5 1 8-1 8-5 0-2 0-2-1-3 0 1 0 1-1 2 0 0-1-1-2 0s0-1 0 0c1 1 1 0 1 1-3 0-3-2-5-1v-2c-1 1-2 1-2 2 0 2 1 1 1 4 2 0 0-1 1 0l2 1c-3 0-1 0-2 1z"/><path class="fil13" d="M380 226c-1 1-1 3-1 5 1 2 2 2 3 3 1-1-1-1 2-1l-2-1c-1-1 1 0-1 0 0-3-1-2-1-4 0-1 1-1 2-2v2c2-1 2 1 5 1 0-1 0 0-1-1 0-1-1 1 0 0s2 0 2 0c1-1 1-1 1-2l-2-2c-3-2-5 0-7 1v1z"/><path class="fil12" d="M360 235c-1 2-4 5-1 7-1-2 2 0 2 0 1 0 2-2 3-2h2l-1-1c0-1 1-1-1-2l-1-1 2 1h1l-2-2h1s1 0-1-1h-2c-1 1-1 1-2 1z"/><path class="fil14" d="M325 226c1 5 2 3 3 5h1l1-1 2 1-1 2 2-1c1 0 0 0 1-1 1 0 1-1 1-1 1-1 0-2 0-4l-1-1h-1c1 2 0 0 1 3 1 1 0-2 0 0s-2 1-3 1c-1-1 0-1-1-1 0 0 1-1 1-2h-1l-1-1c0 2 1 1 1 2l-2 3v-3h1c-1-1-1-1-1-3h-1c-1 1-2 1-2 2z"/><path class="fil15" d="M344 239c-1 0-1-1-1 0l-1-1-1-1c-1-1 0-1-2-1l-2-1c-1-1-1-1-2-1v-1c-3 3 2 10 7 7 2 0 1 0 2-1z"/><path class="fil16" d="M327 224h1c0 2 0 2 1 3h-1v3l2-3c0-1-1 0-1-2l1 1h1c0 1-1 2-1 2 1 0 0 0 1 1 1 0 3 1 3-1s1 1 0 0c-1-3 0-1-1-3h1c-1-1 0-1-1-1 0-1 0-1-1-1h-1c-2 0-4 0-4 1z"/><path class="fil17" d="M396 182c2 1 2 1 5 1v-1c-1-3-1-3-1-5 0 1 0 2-1 3h-1v-1l1-3-1-2-1 2c1 0 1-1 1 1v1l-1-1v-1c-1 1 0 1 0 3 0 1 0 0-1 1 0-2 1-1 0-2v-2c0-1 0-1-1-1-1 4 0 4 1 7z"/><path class="fil18" d="M354 244h-1c1-2 0-1 1-2 0-1 1 0 0 0-2-1-2 0-4 0-2-1-2-1-3-3-1 1 0 1-1 1v-2c-1 3 0 5 2 6 2 2 5 2 6 0z"/><path class="fil15" d="M325 229v2h1c0 1 1 2 2 2 2 1 4 1 5-1l-2 1 1-2-2-1-1 1h-1c-1-2-2 0-3-5-1 1 0 2 0 3z"/><path class="fil19" d="M230 88c34 0 62 26 62 58s-28 58-62 58-61-26-61-58 27-58 61-58z"/><path class="fil20" d="M230 88c28 0 52 17 59 41 1 11-63-6-78-29-4 4-33 26-39 27 8-23 31-39 58-39z"/><ellipse class="fil21 str0" cx="94" cy="153" rx="57" ry="47"/><path class="fil19" d="M93 109c29 0 53 23 53 51 0 29-24 52-53 52s-53-23-53-52c0-28 24-51 53-51z"/><path class="fil22" d="M100 212H88l-5-10h22l-5 10z"/><path class="fil23" d="M94 109c33-1 56 34 52 57 0 2-1 25-1 22 0-15-61-57-68-68-3 4-29 22-34 23 7-21 27-34 51-34z"/><path class="fil24" d="M46 225h17v13l25-7h11l25 7v-13h18l4 73-100-5z"/><path class="fil25" d="M34 224l16 1 44 59 45-59 17-1c11 0 20 10 20 21v106H14V245c0-11 9-21 20-21z"/><path class="fil26" d="M176 284v38H14v-38zM55 231l28 38H14v-24c0-5 1-10 4-14h37zm51 38l28-38h37c3 4 5 9 5 14v24h-70z"/><path class="fil23" d="M27 143h9.774v36.08H27z"/><path class="fil24" d="M29 143h1.904v36.08H29z"/><path class="fil22 str1" d="M37 142h6.06v37.69H37z"/><path class="fil23" d="M151 143h10.057v36.08H151z"/><path class="fil24" d="M157 143h1.96v36.08H157z"/><path class="fil22 str1" d="M144 142h6.235v37.69H144z"/><path class="fil26" d="M160 331v27H14v-27z"/><path class="fil24" d="M259 5h73v29h-73z"/><path class="fil27" d="M-84 161l-35-44-15 1-2 4c7 8 12 18 12 29v3l9 1 32 45 33-45 38-2-33-37-39 45z"/><g clip-path="url(#id0)"><image x="275" y="226" width="2.9" height=".669" xlink:href="inf2_Images\inf2_ImgID1.png"/></g><g clip-path="url(#id1)"><image x="276" y="225" width="2.9" height=".669" xlink:href="inf2_Images\inf2_ImgID2.png"/></g><g clip-path="url(#id2)"><image x="276" y="225" width="2.454" height=".669" xlink:href="inf2_Images\inf2_ImgID3.png"/></g><g clip-path="url(#id3)"><image x="276" y="224" width="2.9" height=".669" xlink:href="inf2_Images\inf2_ImgID4.png"/></g><g clip-path="url(#id4)"><image x="277" y="223" width="2.9" height=".669" xlink:href="inf2_Images\inf2_ImgID5.png"/></g><g clip-path="url(#id5)"><image x="278" y="223" width="2.9" height=".669" xlink:href="inf2_Images\inf2_ImgID6.png"/></g><g clip-path="url(#id6)"><image x="278" y="222" width="2.454" height=".669" xlink:href="inf2_Images\inf2_ImgID7.png"/></g><g clip-path="url(#id7)"><image x="278" y="222" width="2.9" height=".669" xlink:href="inf2_Images\inf2_ImgID8.png"/></g><g clip-path="url(#id8)"><image x="194" y="227" width="2.9" height=".669" xlink:href="inf2_Images\inf2_ImgID9.png"/></g><g clip-path="url(#id9)"><image x="279" y="221" width="2.9" height=".669" xlink:href="inf2_Images\inf2_ImgID10.png"/></g><g clip-path="url(#id10)"><image x="279" y="221" width="2.454" height=".669" xlink:href="inf2_Images\inf2_ImgID11.png"/></g><g clip-path="url(#id11)"><image x="280" y="220" width="1.784" height=".669" xlink:href="inf2_Images\inf2_ImgID12.png"/></g><g clip-path="url(#id12)"><image x="194" y="225" width="1.784" height=".669" xlink:href="inf2_Images\inf2_ImgID13.png"/></g><g clip-path="url(#id13)"><image x="280" y="220" width="1.338" height=".669" xlink:href="inf2_Images\inf2_ImgID14.png"/></g><g clip-path="url(#id14)"><image x="280" y="219" width=".669" height=".669" xlink:href="inf2_Images\inf2_ImgID15.png"/></g><g clip-path="url(#id15)"><image x="279" y="218" width=".669" height="1.338" xlink:href="inf2_Images\inf2_ImgID16.png"/></g><g clip-path="url(#id16)"><image x="279" y="217" width=".669" height=".669" xlink:href="inf2_Images\inf2_ImgID17.png"/></g><path class="fil28" d="M160 215h19l54 119 51-118v-1h20c13-1 24 10 24 22v121H136V237c0-12 11-23 24-22z"/><ellipse class="fil22 str1" cx="232" cy="299" rx="1" ry="2"/><path class="fil29" d="M280 299h28.252v3.718H280z"/><path class="fil30" d="M301 290l-7-8-14 17h27z"/><path class="fil31" d="M232 224l-30-13 3 31 25-13z"/><path class="fil31" d="M229 223l30-10-2 30-29-16z"/><path class="fil24" d="M227 220h8.367v11.602H227z"/><path class="fil21 str1" d="M27 177c4-1 7 17 10 24 3 9-19 52-16 84 1 6-5 70 0 71"/><path class="fil32 str2" d="M159 239l26-35 31 93-9-8z"/><path class="fil32 str2" d="M177 272l22-23 29 79-10-10z"/><g clip-path="url(#id17)"><image transform="matrix(-.7988 0 0 .74348 270.986 229.926)" width="3.9" height=".9" xlink:href="inf2_Images\inf2_ImgID18.png"/></g><g clip-path="url(#id18)"><image transform="matrix(-.7988 0 0 .74348 271.105 228.7)" width="3.3" height="1.8" xlink:href="inf2_Images\inf2_ImgID19.png"/></g><g clip-path="url(#id19)"><image transform="matrix(-.7988 0 0 .74348 270.986 228.254)" width="2.4" height=".9" xlink:href="inf2_Images\inf2_ImgID20.png"/></g><circle class="fil22 str1" cx="230" cy="258" r="2"/><rect class="fil24" x="227" y="220" width="8.989" height="7.268" rx="1" ry="1"/><path class="fil32 str2" d="M307 237l-28-32-31 93 9-9z"/><path class="fil32 str2" d="M289 275l-24-25-28 78 8-7z"/></g></svg>