<?xml version="1.0" encoding="UTF-8"?>
<!DOCTYPE svg PUBLIC "-//W3C//DTD SVG 1.1//EN" "http://www.w3.org/Graphics/SVG/1.1/DTD/svg11.dtd">
<!-- Creator: CorelDRAW X6 -->
<svg xmlns="http://www.w3.org/2000/svg" xml:space="preserve" width="126.598mm" height="116.506mm" version="1.1" style="shape-rendering:geometricPrecision; text-rendering:geometricPrecision; image-rendering:optimizeQuality; fill-rule:evenodd; clip-rule:evenodd"
viewBox="0 0 1357 1249"
 xmlns:xlink="http://www.w3.org/1999/xlink">
 <defs>
  <style type="text/css">
   <![CDATA[
    .str0 {stroke:#1A1A1A;stroke-width:6.69947}
    .fil5 {fill:black}
    .fil4 {fill:#1A1A1A}
    .fil6 {fill:#666666}
    .fil9 {fill:#990000}
    .fil0 {fill:#B2B3B3}
    .fil1 {fill:#E81515}
    .fil12 {fill:#F71111}
    .fil2 {fill:#FCD5A6}
    .fil8 {fill:red}
    .fil13 {fill:#FFED00}
    .fil7 {fill:white}
    .fil3 {fill:#58351B}
    .fil11 {fill:#E81515;fill-rule:nonzero}
    .fil10 {fill:#F71111;fill-rule:nonzero}
    .fil14 {fill:#FFED00;fill-rule:nonzero}
   ]]>
  </style>
 </defs>
 <g id="Слой_x0020_1">
  <metadata id="CorelCorpID_0Corel-Layer"/>
  <polygon class="fil0" points="0,1014 0,1249 1357,1249 1357,1101 891,1097 891,931 466,931 466,1014 "/>
  <path class="fil1" d="M579 743l0 130c0,44 47,58 72,37 19,-15 19,-37 19,-69l0 -173 0 -174 32 0c7,4 4,18 4,33l0 328c0,44 14,73 64,62 4,-4 26,-11 26,-40l0 -202c0,-47 3,-90 3,-134l0 -133 -223 0 0 169c3,55 3,112 3,166l0 0 0 0z"/>
  <path class="fil2" d="M689 0c47,0 83,36 83,87 0,47 -36,86 -83,86 -50,0 -86,-39 -86,-86 0,-51 36,-87 86,-87z"/>
  <path class="fil3" d="M689 0c36,0 72,25 80,61 3,18 -87,-11 -108,-43 -15,19 -47,40 -55,40 11,-33 44,-58 83,-58l0 0z"/>
  <path class="fil4" d="M585 188l29 3 75 181 72 -181 26 -3c18,0 36,18 36,36l0 370 -100 0c-20,-2 -33,-14 -36,-31 -6,14 -7,31 -33,31l-102 0 0 -370c0,-18 15,-36 33,-36l0 0 0 0z"/>
  <circle class="fil5 str0" cx="686" cy="318" r="4"/>
  <polygon class="fil6" points="761,314 805,314 805,320 761,320 "/>
  <polygon class="fil7" points="794,300 783,282 761,314 805,314 "/>
  <path class="fil8" d="M684 198l-45 -18c2,16 0,40 7,47l35 -20 44 20c2,-15 7,-30 4,-47l-45 18z"/>
  <circle class="fil5 str0" cx="686" cy="253" r="4"/>
  <path class="fil7" d="M776 259c7,8 11,9 5,15l-101 118 8 -22c22,-63 47,-126 67,-191l1 -4 49 11 -7 69c-1,7 -5,6 -12,5l-10 -1z"/>
  <path class="fil4" d="M798 190l-42 -10c-19,63 -45,128 -67,192l87 -104 -11 -15 26 3 7 -66z"/>
  <ellipse class="fil2" cx="336" cy="123" rx="36" ry="29"/>
  <ellipse class="fil2" cx="1079" cy="123" rx="40" ry="22"/>
  <path class="fil9" d="M575 895l83 0c8,0 14,8 14,17l0 0c0,10 -6,18 -14,18l-83 0c-8,0 -14,-8 -14,-18l0 0c0,-9 6,-17 14,-17z"/>
  <path class="fil9" d="M715 895l82 0c8,0 15,8 15,17l0 0c0,10 -7,18 -15,18l-82 0c-8,0 -15,-8 -15,-18l0 0c0,-9 7,-17 15,-17z"/>
  <path class="fil10" d="M687 1103c0,8 -3,12 -9,12 -6,0 -10,-4 -10,-12l0 -93c0,-8 4,-12 10,-12 6,0 9,4 9,12l0 93z"/>
  <path class="fil10" d="M192 1173c0,8 -4,12 -10,12 -6,0 -9,-4 -9,-12l0 -93c0,-8 3,-13 9,-13 6,0 10,5 10,13l0 93z"/>
  <path class="fil10" d="M235 1173c0,8 -3,12 -9,12 -7,0 -10,-4 -10,-12l0 -93c0,-8 3,-13 10,-13 6,0 9,5 9,13l0 93z"/>
  <path class="fil10" d="M1075 1223c0,8 -3,12 -10,12 -6,0 -9,-4 -9,-12l0 -93c0,-8 3,-12 9,-12 7,0 10,4 10,12l0 93z"/>
  <path class="fil10" d="M1117 1223c0,8 -3,12 -9,12 -7,0 -10,-4 -10,-12l0 -93c0,-8 3,-12 10,-12 6,0 9,4 9,12l0 93z"/>
  <path class="fil10" d="M1160 1223c0,8 -4,12 -10,12 -6,0 -9,-4 -9,-12l0 -93c0,-8 3,-12 9,-12 6,0 10,4 10,12l0 93z"/>
  <path class="fil4" d="M382 90l185 130 -11 105 -210 -163 36 -72zm650 7l-224 123 11 98 260 -152 -47 -69z"/>
  <path class="fil7" d="M601 256c-7,9 -11,9 -5,16l91 106 2 -10c-22,-64 -47,-127 -67,-191l-1 -4 -49 11 7 68c1,7 5,6 12,5l10 -1z"/>
  <path class="fil4" d="M579 187l42 -9c19,63 44,128 67,191l-87 -103 11 -15 -26 3 -7 -67z"/>
  <path class="fil5" d="M670 19c32,30 80,46 94,38 -36,0 -75,-21 -94,-38z"/>
  <path class="fil5" d="M675 15c26,25 65,37 75,31 -28,0 -59,-17 -75,-31z"/>
  <path class="fil5" d="M659 17c-15,17 -37,29 -43,26 16,-3 34,-16 43,-26z"/>
  <path class="fil11" d="M654 194c2,1 25,3 22,7 -5,-4 -24,-3 -22,-7z"/>
  <path class="fil11" d="M656 206c2,0 21,-8 21,-3 -6,-1 -21,8 -21,3z"/>
  <path class="fil11" d="M715 192c-2,1 -27,6 -24,10 6,-4 27,-5 24,-10z"/>
  <path class="fil11" d="M713 206c-2,1 -23,-7 -23,-2 7,-1 23,8 23,2z"/>
  <path class="fil1" d="M678 193c5,1 7,0 11,0 1,0 3,1 2,3 -1,5 0,9 0,13 1,1 -1,2 -3,1 -4,-1 -6,1 -10,1 -1,0 -3,-1 -3,-2 0,-5 1,-8 0,-13 0,-2 2,-3 3,-3z"/>
  <polygon class="fil12" points="434,363 418,349 430,329 410,340 396,324 401,344 380,354 402,355 403,378 412,358 "/>
  <polygon class="fil12" points="349,469 338,459 346,445 333,452 323,441 326,455 311,462 327,463 327,479 334,465 "/>
  <polygon class="fil12" points="416,590 402,577 413,559 395,569 382,554 386,573 367,581 387,583 388,604 397,585 "/>
  <polygon class="fil12" points="486,481 462,459 481,429 451,446 430,421 436,452 405,466 439,469 440,503 454,473 "/>
  <path class="fil10" d="M233 870c5,-115 78,-233 150,-273 -32,14 -150,140 -138,268l0 0c1,1 1,1 1,2l-13 3z"/>
  <path class="fil10" d="M172 874c8,-167 114,-339 220,-398 -46,20 -219,205 -201,391l0 0c0,2 1,3 1,3l-20 4z"/>
  <path class="fil10" d="M110 886c11,-224 153,-454 294,-533 -62,27 -293,274 -269,524l0 0c1,2 1,3 1,4l-26 5z"/>
  <polygon class="fil13" points="590,156 578,146 587,132 573,140 563,128 566,142 552,149 568,150 568,166 575,152 "/>
  <polygon class="fil12" points="330,369 325,364 329,358 323,361 319,356 320,363 314,366 321,366 321,373 324,367 "/>
  <polygon class="fil12" points="505,392 494,382 503,368 489,375 479,364 482,378 468,385 483,386 484,402 490,388 "/>
  <polygon class="fil12" points="465,556 460,552 464,546 458,549 453,544 455,550 448,553 455,554 456,561 458,555 "/>
  <polygon class="fil12" points="867,159 862,155 866,149 860,152 855,147 857,153 850,156 857,157 857,164 860,158 "/>
  <polygon class="fil13" points="983,363 999,349 987,329 1006,340 1020,324 1016,344 1037,354 1014,355 1014,378 1004,358 "/>
  <polygon class="fil13" points="1068,469 1079,459 1070,445 1084,452 1094,441 1091,455 1105,462 1090,463 1089,479 1083,465 "/>
  <polygon class="fil13" points="1000,590 1015,577 1004,559 1022,569 1035,554 1031,573 1050,581 1030,583 1029,604 1020,585 "/>
  <polygon class="fil13" points="931,481 955,459 936,429 966,446 987,421 981,452 1012,466 978,469 977,503 963,473 "/>
  <path class="fil14" d="M1184 870c-5,-115 -78,-233 -150,-273 32,14 150,140 137,268l0 0c0,1 0,1 0,2l13 3z"/>
  <path class="fil14" d="M1244 874c-8,-167 -114,-339 -219,-398 46,20 219,205 201,391l0 0c-1,2 -1,3 -1,3l19 4z"/>
  <path class="fil14" d="M1307 886c-11,-224 -153,-454 -294,-533 62,27 293,274 268,524l0 0c0,2 0,3 0,4l26 5z"/>
  <polygon class="fil13" points="1087,369 1091,364 1088,358 1094,361 1098,356 1097,363 1103,366 1096,366 1096,373 1093,367 "/>
  <polygon class="fil13" points="911,392 923,382 914,368 928,375 938,364 935,378 949,385 933,386 933,402 926,388 "/>
  <polygon class="fil13" points="952,556 957,552 953,546 959,549 963,544 962,550 968,553 961,554 961,561 958,555 "/>
  <polygon class="fil8" points="847,125 836,115 844,100 831,108 821,97 824,111 809,118 825,119 826,135 832,121 "/>
  <polygon class="fil13" points="406,245 399,239 404,230 396,235 389,227 391,237 382,241 392,242 392,252 397,243 "/>
  <polygon class="fil13" points="591,97 586,92 590,86 584,90 580,84 581,91 575,94 582,94 582,101 585,95 "/>
  <polygon class="fil12" points="917,117 912,113 916,107 910,110 906,105 907,111 901,114 908,115 908,122 911,115 "/>
 </g>
</svg>
