<?xml version="1.0" encoding="UTF-8"?>
<!DOCTYPE svg PUBLIC "-//W3C//DTD SVG 1.1//EN" "http://www.w3.org/Graphics/SVG/1.1/DTD/svg11.dtd">
<!-- Creator: CorelDRAW X7 -->
<svg xmlns="http://www.w3.org/2000/svg" xml:space="preserve" width="118.533mm" height="94.8266mm" version="1.1" style="shape-rendering:geometricPrecision; text-rendering:geometricPrecision; image-rendering:optimizeQuality; fill-rule:evenodd; clip-rule:evenodd"
viewBox="0 0 11853 9483"
 xmlns:xlink="http://www.w3.org/1999/xlink">
 <defs>
  <style type="text/css">
   <![CDATA[
    .str1 {stroke:black;stroke-width:62.5}
    .str2 {stroke:#4D4D4D;stroke-width:52.91}
    .str0 {stroke:black;stroke-width:79.34}
    .fil0 {fill:none}
    .fil5 {fill:#FCD5A6}
    .fil8 {fill:black}
    .fil7 {fill:#1A1A1A}
    .fil2 {fill:#5B5B5B}
    .fil6 {fill:#5C5B5B}
    .fil9 {fill:#666666}
    .fil1 {fill:#7A9E9E}
    .fil12 {fill:#990000}
    .fil4 {fill:#E6E6E6}
    .fil3 {fill:#FEFEFE}
    .fil11 {fill:red}
    .fil10 {fill:white}
    .fil14 {fill:#F08143;fill-rule:nonzero}
    .fil13 {fill:#E51A4B;fill-rule:nonzero}
   ]]>
  </style>
 </defs>
 <g id="Слой_x0020_1">
  <metadata id="CorelCorpID_0Corel-Layer"/>
  <path class="fil0" d="M5816 7586l662 0 -7250 0m6562 0l714 0 -7329 0m6615 0l741 0 -7382 0m6641 0l767 0 -7435 0m6642 0l0 -27 820 0 0 27 -820 0m0 -27l846 0 -7567 0m6721 0l873 0 -7620 0m6720 0l926 0 -7699 0m6773 0l0 -26 953 0 0 26 -953 0m0 -26l953 0 -7753 0m6774 0l979 0 -7779 0m6800 0l979 0 -7779 0m6800 0l979 0 -7779 0m6773 0l0 -27 1006 0 0 27 -1006 0"/>
  <path class="fil0" d="M5261 9332l0 -26 1429 0 0 26 -1429 0m0 -26l1429 0 -8229 0m6800 0l1429 0 -8229 0m6773 0l1456 0 -8255 0m6799 0l1456 0 -8255 0m6799 0l0 -27 1456 0 0 27 -1456 0m-26 -27l1482 0 -8282 0m6800 0l1482 0 -8282 0m6773 0l1509 0 -8308 0m6799 0l1509 0 -8308 0m6799 0l0 -26 1509 0 0 26 -1509 0m-26 -26l1535 0 -8335 0m6800 0l1535 0 -8335 0m6800 0l1535 0 -8335 0m6774 0l1561 0 -8361 0m6800 0l0 -27 1561 0 0 27 -1561 0m0 -27l1561 0 -8361 0m6773 0l1588 0 -8388 0m6800 0l1588 0 -8388 0m6774 0l1614 0 -8414 0m6800 0l0 -26 1614 0 0 26 -1614 0m0 -26l1614 0 -8414 0m6773 0l1641 0 -8441 0m6800 0l1641 0 -8441 0m6800 0l1641 0 -8441 0m6774 0l0 -27 1667 0 0 27 -1667 0m0 -27l1667 0 -8467 0m6773 0l1694 0 -8494 0m6800 0l1694 0 -8494 0m6800 0l1694 0 -8494 0m6774 0l0 -26 1720 0 0 26 -1720 0m0 -26l1720 0 -8520 0m6800 0l1720 0 -8520 0m6800 0l0 -27 1720 0 0 27 -1720 0m0 -27l1720 0 -8520 0m6800 0l1720 0 -8520 0m6800 0l1720 0 -8520 0m6826 0l0 -26 1694 0 0 26 -1694 0"/>
  <path class="fil0" d="M4996 9120l0 -26 1694 0 0 26 -1694 0m0 -26l1694 0 -8494 0m6800 0l1694 0 -8494 0m6800 0l0 -27 1694 0 0 27 -1694 0"/>
  <path class="fil0" d="M5023 9094l0 -27 1667 0 0 27 -1667 0m0 -27l1667 0 -8467 0m6800 0l1667 0 -8467 0m6800 0l0 -26 1667 0 0 26 -1667 0m0 -26l1667 0 -8467 0m6826 0l1641 0 -8441 0m6800 0l1641 0 -8441 0m6800 0l0 -27 1641 0 0 27 -1641 0m0 -27l1641 0 -8441 0m6800 0l1641 0 -8441 0m6827 0l1614 0 -8414 0m6800 0l0 -26 1614 0 0 26 -1614 0m0 -26l1614 0 -8414 0m6800 0l1614 0 -8414 0m6800 0l1614 0 -8414 0m6826 0l0 -26 1588 0 0 26 -1588 0m0 -26l1588 0 -8388 0m6800 0l1588 0 -8388 0m6800 0l1588 0 -8388 0m6800 0l0 -27 1588 0 0 27 -1588 0m27 -27l1561 0 -8361 0m6800 0l1561 0 -8361 0m6800 0l0 -26 1561 0 0 26 -1561 0m0 -26l1561 0 -8361 0m6800 0l1561 0 -8361 0m6826 0l1535 0 -8335 0m6800 0l0 -27 1535 0 0 27 -1535 0m0 -27l1535 0 -8335 0m6800 0l1535 0 -8335 0m6800 0l1535 0 -8335 0m6826 0l0 -26 1509 0 0 26 -1509 0m0 -26l1509 0 -8308 0m6799 0l1509 0 -8308 0m6799 0l1509 0 -8308 0m6799 0l0 -27 1509 0 0 27 -1509 0m27 -27l1482 0 -8282 0m6800 0l1482 0 -8282 0m6800 0l0 -26 1482 0 0 26 -1482 0"/>
  <path class="fil0" d="M5208 8829l0 -26 1482 0 0 26 -1482 0m0 -26l1482 0 -8282 0m6826 0l1456 0 -8255 0m6799 0l0 -27 1456 0 0 27 -1456 0"/>
  <path class="fil0" d="M5234 8803l0 -27 1456 0 0 27 -1456 0m0 -27l1456 0 -8255 0m6799 0l1456 0 -8255 0"/>
  <path class="fil0" d="M5234 7268l0 -26 1456 0 0 26 -1456 0m0 -26l1456 0 -8255 0m7752 0l476 0 -7249 0m6773 0l476 0 -7249 0m6773 0l450 0 -7197 0m6747 0l0 -27 450 0 0 27 -450 0m0 -27l450 0 -7197 0m6747 0l423 0 -7144 0m6721 0l423 0 -7144 0m6721 0l423 0 -7144 0m6721 0l0 -26 397 0 0 26 -397 0m0 -26l397 0 -7091 0m6694 0l397 0 -7091 0m6694 0l370 0 -7038 0m6668 0l370 0 -7038 0m6668 0l0 -27 344 0 0 27 -344 0m0 -27l344 0 -6985 0m6641 0l344 0 -6985 0m6641 0l317 0 -6932 0m6615 0l317 0 -6932 0m6615 0l0 -26 317 0 0 26 -317 0m0 -26l291 0 -6879 0m6588 0l291 0 -6879 0m6588 0l264 0 -6826 0m6562 0l264 0 -6826 0m6562 0l0 -27 264 0 0 27 -264 0m0 -27l264 0 -6826 0m6562 0l238 0 -6773 0m6535 0l238 0 -6773 0m6535 0l212 0 -6721 0m6509 0l0 -26 212 0 0 26 -212 0m0 -26l212 0 -6721 0m6509 0l185 0 -6667 0m6482 0l185 0 -6667 0m6482 0l185 0 -6667 0m6482 0l0 -26 159 0 0 26 -159 0"/>
  <path class="fil0" d="M5261 8776l1429 0 -8229 0m6800 0l0 -26 1429 0 0 26 -1429 0m0 -26l1429 0 -8229 0m6800 0l1429 0 -8229 0m6800 0l0 -27 1429 0 0 27 -1429 0m873 -1164l556 0 -7356 0m6800 0l556 0 -7356 0m6826 0l530 0 -7329 0m6799 0l0 -27 530 0 0 27 -530 0m0 -27l530 0 -7329 0m6799 0l530 0 -7329 0m6799 0l530 0 -7329 0m6826 0l0 -26 503 0 0 26 -503 0m0 -26l503 0 -7303 0m6800 0l503 0 -7303 0m6800 0l503 0 -7303 0m6800 0l0 -27 503 0 0 27 -503 0m26 -27l477 0 -7276 0m6799 0l477 0 -7276 0m6799 0l477 0 -7276 0m6799 0l0 -26 477 0 0 26 -477 0m0 -26l477 0 -7276 0m6826 0l450 0 -7250 0m6800 0l0 -27 450 0 0 27 -450 0"/>
  <path class="fil0" d="M6240 7480l0 -27 450 0 0 27 -450 0m0 -27l450 0 -7250 0m6800 0l450 0 -7250 0m6826 0l0 -26 424 0 0 26 -424 0"/>
  <path class="fil0" d="M6266 7453l0 -26 424 0 0 26 -424 0m0 -26l424 0 -7224 0m6800 0l424 0 -7224 0m6800 0l0 -26 424 0 0 26 -424 0"/>
  <path class="fil0" d="M6293 7427l0 -26 397 0 0 26 -397 0m0 -26l397 0 -7197 0m6800 0l397 0 -7197 0m6800 0l0 -27 397 0 0 27 -397 0m0 -27l397 0 -7197 0m6826 0l371 0 -7171 0m6800 0l371 0 -7171 0m6800 0l0 -26 371 0 0 26 -371 0m0 -26l371 0 -7171 0m6800 0l371 0 -7171 0m6827 0l344 0 -7144 0m6800 0l0 -27 344 0 0 27 -344 0m0 -27l344 0 -7144 0m6800 0l344 0 -7144 0m6800 0l344 0 -7144 0m6800 0l317 0 -7091 0m6800 0l0 -26 291 0 0 26 -291 0m0 -26l291 0 -7064 0m6773 0l265 0 -7012 0m6747 0l265 0 -7012 0m6747 0l265 0 -7012 0m6747 0l0 -27 238 0 0 27 -238 0m0 -27l238 0 -6958 0m6747 0l211 0 -6932 0m6721 0l185 0 -6879 0m6694 0l185 0 -6879 0m6694 0l0 -26 185 0 0 26 -185 0m0 -26l158 0 -6826 0m6668 0l158 0 -6826 0m6668 0l132 0 -6774 0m6668 0l106 0 -6747 0m6641 0l0 -27 106 0 0 27 -106 0m0 -27l79 0 -6694 0m6615 0l79 0 -6694 0m6615 0l79 0 -6694 0m6615 0l53 0 -6641 0m6614 0l0 -26 27 0 0 26 -27 0"/>
  <path class="fil0" d="M5684 7533l0 -27 1006 0 0 27 -1006 0m0 -27l1006 0 -7806 0m6774 0l1032 0 -7832 0m6800 0l1032 0 -7832 0m6800 0l0 -26 1032 0 0 26 -1032 0"/>
  <path class="fil0" d="M5631 7506l0 -26 1059 0 0 26 -1059 0m0 -26l1059 0 -7859 0m6800 0l1059 0 -7859 0m6774 0l1085 0 -7885 0m6800 0l0 -27 1085 0 0 27 -1085 0"/>
  <path class="fil0" d="M5605 7480l0 -27 1085 0 0 27 -1085 0m-27 -27l1112 0 -7911 0m6799 0l1112 0 -7911 0m6799 0l1112 0 -7911 0m6773 0l1138 0 -7938 0m6800 0l0 -26 1138 0 0 26 -1138 0m0 -26l1138 0 -7938 0m6773 0l1165 0 -7964 0m6799 0l1165 0 -7964 0m6799 0l1165 0 -7964 0m6773 0l0 -26 1191 0 0 26 -1191 0m0 -26l1191 0 -7991 0m6800 0l1191 0 -7991 0m6773 0l1218 0 -8017 0m6799 0l1218 0 -8017 0m6799 0l0 -27 1218 0 0 27 -1218 0m-26 -27l1244 0 -8044 0m6800 0l1244 0 -8044 0m6800 0l1244 0 -8044 0m6774 0l1270 0 -8070 0m6800 0l0 -26 1270 0 0 26 -1270 0m0 -26l1270 0 -8070 0m6773 0l1297 0 -8097 0m6800 0l1297 0 -8097 0m6800 0l1297 0 -8097 0m6774 0l0 -27 1323 0 0 27 -1323 0m0 -27l1323 0 -8123 0m6800 0l1323 0 -8123 0m6773 0l1350 0 -8150 0m6800 0l1350 0 -8150 0m6800 0l0 -26 1350 0 0 26 -1350 0m-26 -26l1376 0 -8176 0m6800 0l1376 0 -8176 0m6800 0l1376 0 -8176 0m6773 0l1403 0 -8203 0m6800 0l0 -27 1403 0 0 27 -1403 0"/>
  <path class="fil0" d="M5287 7295l0 -27 1403 0 0 27 -1403 0m-26 -27l1429 0 -8229 0m6800 0l1429 0 -8229 0m6800 0l1429 0 -8229 0m6773 0l0 -26 1456 0 0 26 -1456 0"/>
  <polygon class="fil1" points="1020,7705 1020,9425 10968,9425 10968,8340 7555,8313 7555,7096 4433,7096 4433,7705 "/>
  <path class="fil2" d="M5200 5720l0 953c0,317 344,423 529,265 133,-106 133,-265 133,-503l0 -1270 0 -1270 238 0c53,26 26,132 26,238l0 2408c0,317 106,529 476,449 27,-26 186,-79 186,-291l0 -1481c0,-344 26,-662 26,-979l0 -979 -1640 0 0 1243c26,397 26,821 26,1217l0 0z"/>
  <path class="fil3" d="M5200 5720c-26,27 -26,106 -26,53l0 847 -80 0 0 132 80 0 0 133 53 0 0 26c26,79 26,27 26,132l-847 0 -26 53 0 -53c-27,27 -27,582 -27,609l-3333 0 0 53 3413 0 0 -609 3122 0 0 1217 3413 27 0 -132 -3387 0 0 -1138 -26 -27 -873 0 -27 -26c-26,53 27,-27 0,0 -26,53 0,0 -26,26 -53,-26 -27,-26 -27,-53 -370,80 -476,-132 -476,-449l0 -2408c0,-106 27,-212 -26,-238l-238 0 0 2540c0,238 0,397 -133,503 -185,158 -529,52 -529,-265l0 -953z"/>
  <ellipse class="fil4 str0" cx="5888" cy="7917" rx="767" ry="688"/>
  <path class="fil3" d="M6788 2016l-291 -370 -133 0 0 26c53,80 106,159 106,265l0 26 53 0 291 371 265 -371 317 -26 -264 -318 -344 397 0 0z"/>
  <path class="fil5" d="M6073 270c344,0 609,265 609,635 0,344 -265,635 -609,635 -370,0 -635,-291 -635,-635 0,-370 265,-635 635,-635z"/>
  <path class="fil6" d="M6073 270c265,0 529,185 582,450 27,132 -635,-80 -793,-318 -27,53 -344,291 -397,291 79,-238 317,-423 608,-423l0 0z"/>
  <path class="fil7" d="M5306 1646l212 26 555 1323 529 -1323 186 -26c132,0 264,132 264,264l0 1350 -1984 0 0 -1350c0,-132 106,-264 238,-264l0 0z"/>
  <circle class="fil8 str1" cx="6047" cy="2598" r="26"/>
  <polygon class="fil9" points="6602,2572 6924,2572 6924,2615 6602,2615 "/>
  <polygon class="fil10" points="6840,2466 6761,2334 6602,2572 6920,2572 "/>
  <polygon class="fil11" points="6047,1725 5703,1593 5756,1937 6020,1778 "/>
  <polygon class="fil11" points="6020,1725 6364,1593 6338,1937 5994,1778 "/>
  <polygon class="fil12" points="5994,1672 6089,1672 6089,1805 5994,1805 "/>
  <polygon class="fil10 str2" points="5253,1884 5518,1646 5862,2572 5782,2466 "/>
  <polygon class="fil10 str2" points="5438,2281 5650,2043 5994,2889 5888,2810 "/>
  <circle class="fil8 str1" cx="6047" cy="2122" r="26"/>
  <polygon class="fil12" points="5994,1672 6096,1672 6096,1756 5994,1756 "/>
  <polygon class="fil10 str2" points="6840,1858 6549,1646 6232,2572 6338,2466 "/>
  <polygon class="fil10 str2" points="6708,2307 6470,2096 6100,2916 6205,2837 "/>
  <polygon class="fil7" points="5068,3207 7026,3180 7026,4530 5094,4556 "/>
  <polygon class="fil7 str1" points="3824,932 5174,1884 5094,2651 3560,1461 "/>
  <ellipse class="fil5" cx="3480" cy="1170" rx="265" ry="212"/>
  <path class="fil7 str1" d="M3824 932l1350 952 -80 767 -1534 -1190 264 -529zm4763 52l-1641 900 80 714 1905 -1111 -344 -503z"/>
  <ellipse class="fil5" cx="8931" cy="1170" rx="291" ry="159"/>
  <polygon class="fil7 str1" points="8587,984 6946,1884 7026,2598 8931,1487 "/>
  <path class="fil12" d="M5121 6832l606 0c58,0 106,57 106,127l0 0c0,71 -48,128 -106,128l-606 0c-59,0 -106,-57 -106,-128l0 0c0,-70 47,-127 106,-127z"/>
  <path class="fil12" d="M6258 6832l607 0c58,0 105,57 105,127l0 0c0,71 -47,128 -105,128l-607 0c-58,0 -105,-57 -105,-128l0 0c0,-70 47,-127 105,-127z"/>
  <path class="fil13" d="M5994 8287l-159 0 0 -423 -53 26c-26,0 -53,27 -53,27l0 -159c53,-53 106,-106 133,-185l132 0 0 714 0 0z"/>
  <polygon class="fil14" points="1153,8894 1446,8894 1446,9223 1359,9223 1359,8964 1240,8964 1240,9223 1153,9223 "/>
  <path id="1" class="fil14" d="M1520 9055c0,-29 7,-57 22,-85 14,-27 34,-47 60,-62 26,-14 55,-21 88,-21 50,0 90,16 122,48 32,33 48,74 48,123 0,50 -16,92 -48,124 -32,33 -73,50 -122,50 -30,0 -59,-7 -86,-21 -27,-14 -48,-34 -62,-60 -15,-26 -22,-59 -22,-96zm90 4c0,33 7,58 23,75 15,18 35,27 57,27 23,0 42,-9 57,-27 16,-17 23,-42 23,-75 0,-33 -7,-58 -23,-75 -15,-17 -34,-26 -57,-26 -22,0 -42,9 -57,26 -16,17 -23,43 -23,75z"/>
  <path id="2" class="fil14" d="M2176 8758l59 0c-2,26 -9,46 -21,59 -11,14 -41,21 -88,21 -5,0 -11,0 -16,-1l-12 0c-27,0 -50,3 -67,10 -18,6 -32,17 -43,35 -11,18 -17,46 -17,85 13,-24 29,-42 50,-54 20,-12 44,-18 72,-18 44,0 80,17 110,51 30,33 45,72 45,117 0,46 -15,86 -47,119 -32,33 -73,50 -124,50 -35,0 -65,-9 -92,-26 -26,-16 -45,-39 -57,-68 -11,-29 -17,-78 -17,-145 0,-79 15,-136 44,-170 29,-35 80,-52 152,-52l44 0c13,0 21,-5 25,-13zm-175 303c0,30 7,54 22,72 15,17 33,26 55,26 23,0 42,-9 57,-27 15,-18 23,-42 23,-70 0,-30 -8,-53 -23,-71 -15,-18 -34,-27 -56,-27 -22,0 -40,9 -55,26 -16,18 -23,42 -23,71z"/>
  <path id="3" class="fil14" d="M2511 9119l87 15c-11,32 -29,56 -53,73 -24,16 -54,25 -90,25 -57,0 -100,-19 -127,-57 -22,-30 -33,-67 -33,-113 0,-55 14,-98 43,-129 28,-31 65,-46 108,-46 49,0 88,16 116,48 28,33 42,82 41,149l-218 0c0,26 7,46 21,61 13,14 30,21 50,21 13,0 25,-3 34,-11 9,-7 16,-19 21,-36zm5 -88c0,-25 -7,-45 -19,-58 -13,-13 -28,-19 -45,-19 -19,0 -35,7 -47,20 -13,14 -19,33 -19,57l130 0z"/>
  <path id="4" class="fil14" d="M2946 9223l-249 0 0 87 -71 0 0 -158 36 0c15,-16 27,-42 36,-77 10,-36 16,-96 18,-181l266 0 0 258 35 0 0 158 -71 0 0 -87zm-51 -71l1 -186 -106 0c-4,91 -18,153 -43,186l148 0z"/>
  <polygon id="5" class="fil14" points="3074,8894 3158,8894 3158,9101 3292,8894 3378,8894 3378,9223 3294,9223 3294,9013 3158,9223 3074,9223 "/>
  <polygon id="6" class="fil14" points="3428,8894 3726,8894 3726,8964 3620,8964 3620,9223 3533,9223 3533,8964 3428,8964 "/>
  <path id="7" class="fil14" d="M3969 9119l87 15c-11,32 -29,56 -53,73 -24,16 -54,25 -91,25 -57,0 -99,-19 -127,-57 -21,-30 -32,-67 -32,-113 0,-55 14,-98 43,-129 28,-31 64,-46 108,-46 49,0 87,16 116,48 28,33 41,82 40,149l-218 0c1,26 8,46 21,61 14,14 30,21 50,21 14,0 25,-3 35,-11 9,-7 16,-19 21,-36zm5 -88c-1,-25 -7,-45 -20,-58 -12,-13 -27,-19 -45,-19 -19,0 -35,7 -47,20 -12,14 -18,33 -18,57l130 0z"/>
  <path id="8" class="fil14" d="M4155 8894l291 0 0 329 -87 0 0 -259 -118 0 0 149c0,37 -4,64 -13,79 -9,15 -18,25 -29,30 -10,5 -27,7 -51,7 -14,0 -32,-2 -55,-5l0 -64c2,0 7,0 15,0 9,1 16,1 21,1 12,0 19,-4 22,-11 2,-8 4,-30 4,-65l0 -191z"/>
  <path id="9" class="fil14" d="M4537 8894l87 0 0 137 87 0c34,0 61,2 79,7 18,5 34,16 46,32 12,17 18,36 18,58 0,31 -11,55 -33,71 -21,16 -54,24 -98,24l-186 0 0 -329zm87 274l81 0c25,0 42,-5 49,-13 7,-8 11,-18 11,-29 0,-16 -7,-27 -19,-33 -12,-6 -34,-9 -66,-9l-56 0 0 84z"/>
  <path id="10" class="fil14" d="M5166 8995l-78 -14c8,-32 24,-56 45,-71 22,-15 54,-23 97,-23 39,0 68,4 87,14 19,9 32,20 40,35 8,14 12,40 12,78l-1 101c0,29 1,51 4,64 2,14 8,29 15,44l-86 0c-2,-5 -5,-14 -8,-25 -2,-5 -3,-9 -4,-10 -14,14 -30,25 -47,33 -17,7 -35,11 -54,11 -34,0 -61,-10 -80,-28 -20,-18 -29,-42 -29,-70 0,-18 4,-35 13,-49 9,-15 21,-26 37,-34 16,-8 39,-14 70,-20 40,-8 68,-15 84,-22l0 -8c0,-17 -4,-29 -12,-37 -9,-7 -24,-10 -47,-10 -16,0 -28,3 -37,9 -8,6 -15,17 -21,32zm117 71c-11,4 -29,8 -53,13 -24,5 -40,11 -47,15 -12,9 -17,19 -17,31 0,12 4,23 13,32 9,9 21,13 35,13 16,0 31,-5 45,-15 10,-8 17,-18 21,-29 2,-8 3,-22 3,-43l0 -17z"/>
  <path id="11" class="fil14" d="M5413 8894l92 0 80 234 77 -234 90 0 -116 317 -21 57c-8,19 -15,34 -22,44 -7,10 -15,19 -24,25 -9,6 -20,11 -34,14 -13,4 -28,6 -44,6 -17,0 -33,-2 -50,-6l-7 -67c13,2 26,4 37,4 20,0 35,-6 45,-18 10,-12 17,-28 22,-46l-125 -330z"/>
  <path id="12" class="fil14" d="M5804 8894l87 0 0 134c15,-1 25,-6 31,-13 6,-7 13,-23 22,-47 11,-33 23,-53 36,-62 13,-10 31,-14 52,-14 7,0 19,0 35,2l0 57c-23,0 -38,2 -44,6 -6,5 -13,19 -21,41 -10,30 -25,49 -44,56 28,8 51,32 70,72 1,2 2,4 4,7l48 90 -93 0 -44 -95c-9,-19 -16,-32 -23,-37 -6,-6 -16,-9 -29,-9l0 141 -87 0 0 -329z"/>
  <polygon id="13" class="fil14" points="6122,8894 6209,8894 6209,9153 6335,9153 6335,8894 6422,8894 6422,9153 6456,9153 6456,9310 6385,9310 6385,9223 6122,9223 "/>
  <polygon id="14" class="fil14" points="6513,8894 6597,8894 6597,9101 6731,8894 6817,8894 6817,9223 6733,9223 6733,9013 6597,9223 6513,9223 "/>
  <path id="15" class="fil14" d="M6886 9055c0,-29 7,-57 21,-85 15,-27 35,-47 61,-62 26,-14 55,-21 87,-21 50,0 91,16 123,48 32,33 48,74 48,123 0,50 -16,92 -48,124 -33,33 -73,50 -122,50 -30,0 -59,-7 -86,-21 -28,-14 -48,-34 -63,-60 -14,-26 -21,-59 -21,-96zm89 4c0,33 8,58 24,75 15,18 34,27 57,27 23,0 42,-9 57,-27 15,-17 23,-42 23,-75 0,-33 -8,-58 -23,-75 -15,-17 -34,-26 -57,-26 -23,0 -42,9 -57,26 -16,17 -24,43 -24,75z"/>
  <polygon id="16" class="fil14" points="7290,8894 7377,8894 7377,9014 7503,9014 7503,8894 7590,8894 7590,9223 7503,9223 7503,9085 7377,9085 7377,9223 7290,9223 "/>
  <polygon id="17" class="fil14" points="7674,8894 7761,8894 7761,9014 7887,9014 7887,8894 7974,8894 7974,9223 7887,9223 7887,9085 7761,9085 7761,9223 7674,9223 "/>
  <path id="18" class="fil14" d="M8041 9055c0,-29 7,-57 21,-85 15,-27 35,-47 61,-62 26,-14 55,-21 87,-21 50,0 91,16 123,48 32,33 48,74 48,123 0,50 -16,92 -49,124 -32,33 -72,50 -121,50 -30,0 -59,-7 -86,-21 -28,-14 -48,-34 -63,-60 -14,-26 -21,-59 -21,-96zm89 4c0,33 8,58 24,75 15,18 34,27 57,27 23,0 42,-9 57,-27 15,-17 23,-42 23,-75 0,-33 -8,-58 -23,-75 -15,-17 -34,-26 -57,-26 -23,0 -42,9 -57,26 -16,17 -24,43 -24,75z"/>
  <polygon id="19" class="fil14" points="8445,8894 8668,8894 8668,8964 8532,8964 8532,9223 8445,9223 "/>
  <path id="20" class="fil14" d="M8685 9055c0,-29 7,-57 21,-85 15,-27 35,-47 61,-62 26,-14 55,-21 87,-21 50,0 91,16 123,48 32,33 48,74 48,123 0,50 -16,92 -49,124 -32,33 -72,50 -121,50 -30,0 -59,-7 -86,-21 -28,-14 -48,-34 -63,-60 -14,-26 -21,-59 -21,-96zm89 4c0,33 8,58 24,75 15,18 34,27 57,27 23,0 42,-9 57,-27 15,-17 23,-42 23,-75 0,-33 -8,-58 -23,-75 -15,-17 -34,-26 -57,-26 -23,0 -42,9 -57,26 -16,17 -24,43 -24,75z"/>
  <polygon id="21" class="fil14" points="9083,9102 9083,9015 9254,9015 9254,9102 "/>
  <polygon id="22" class="fil14" points="9265,8894 9563,8894 9563,8964 9458,8964 9458,9223 9371,9223 9371,8964 9265,8964 "/>
  <path id="23" class="fil14" d="M9587 9055c0,-29 7,-57 21,-85 14,-27 35,-47 61,-62 26,-14 55,-21 87,-21 50,0 91,16 123,48 32,33 48,74 48,123 0,50 -17,92 -49,124 -32,33 -72,50 -121,50 -30,0 -59,-7 -86,-21 -28,-14 -49,-34 -63,-60 -14,-26 -21,-59 -21,-96zm89 4c0,33 8,58 24,75 15,18 34,27 57,27 23,0 42,-9 57,-27 15,-17 23,-42 23,-75 0,-33 -8,-58 -23,-75 -15,-17 -34,-26 -57,-26 -23,0 -42,9 -57,26 -16,17 -24,43 -24,75z"/>
  <path id="24" class="fil14" d="M9992 8894l82 0 0 48c10,-16 25,-30 43,-40 18,-10 38,-15 59,-15 39,0 71,15 98,45 26,30 40,72 40,125 0,55 -14,98 -41,129 -26,30 -59,46 -97,46 -19,0 -35,-4 -50,-11 -15,-7 -30,-20 -47,-37l0 165 -87 0 0 -455zm86 160c0,37 8,64 22,82 15,18 33,26 54,26 20,0 37,-8 50,-24 14,-16 20,-43 20,-80 0,-35 -7,-61 -20,-77 -14,-17 -31,-26 -52,-26 -21,0 -39,9 -53,25 -14,17 -21,41 -21,74z"/>
  <polygon id="25" class="fil14" points="10379,8894 10602,8894 10602,8964 10466,8964 10466,9223 10379,9223 "/>
  <path id="26" class="fil14" d="M10712 8995l-79 -14c9,-32 25,-56 46,-71 22,-15 54,-23 97,-23 39,0 68,4 87,14 19,9 32,20 40,35 8,14 12,40 12,78l-2 101c0,29 2,51 5,64 2,14 8,29 15,44l-86 0c-2,-5 -5,-14 -9,-25 -1,-5 -2,-9 -3,-10 -14,14 -30,25 -47,33 -17,7 -35,11 -54,11 -34,0 -61,-10 -80,-28 -20,-18 -29,-42 -29,-70 0,-18 4,-35 13,-49 9,-15 21,-26 37,-34 16,-8 39,-14 69,-20 41,-8 69,-15 85,-22l0 -8c0,-17 -4,-29 -12,-37 -9,-7 -24,-10 -47,-10 -16,0 -28,3 -37,9 -8,6 -15,17 -21,32zm117 71c-11,4 -29,8 -53,13 -24,5 -40,11 -47,15 -12,9 -17,19 -17,31 0,12 4,23 13,32 9,9 21,13 35,13 16,0 31,-5 45,-15 10,-8 17,-18 21,-29 2,-8 3,-22 3,-43l0 -17z"/>
 </g>
</svg>
