<svg xmlns="http://www.w3.org/2000/svg" width="450" height="360" viewBox="0 0 450 360" xmlns:xlink="http://www.w3.org/1999/xlink" shape-rendering="geometricPrecision" text-rendering="geometricPrecision" image-rendering="optimizeQuality" fill-rule="evenodd" clip-rule="evenodd"><defs><style>.str2{stroke:#4d4d4d;stroke-width:1.99961}.str1{stroke:#000;stroke-width:2.3622}.str0{stroke:#000;stroke-width:2.99882}.fil4{fill:#fefefe}.fil5{fill:#c4c5c5}.fil6{fill:#5c5b5b}.fil8{fill:#000}.fil7,.fil15,.fil14{fill:#1a1a1a}.fil1{fill:#5b5b5b}.fil9{fill:#666}.fil0{fill:#7a9e9e}.fil12{fill:#900}.fil3{fill:#e6e6e6}.fil2{fill:#fefefe}.fil11{fill:red}.fil13,.fil10{fill:#fff}.fil16{fill:#000}.fil16,.fil17{fill-rule:nonzero}.fil17{fill:#fff}</style><clipPath id="id0"><path d="M254 63h1.248v.29H254z"/></clipPath><clipPath id="id1"><path d="M254 63h1.25v.29H254z"/></clipPath><clipPath id="id2"><path d="M254 63v-1h1v1h-1z"/></clipPath><clipPath id="id3"><path d="M254 62h1.25v.29H254z"/></clipPath><clipPath id="id4"><path d="M255 62h1.25v.29H255z"/></clipPath><clipPath id="id5"><path d="M255 62h1.25v.29H255z"/></clipPath><clipPath id="id6"><path d="M255 62v-1h1v1h-1z"/></clipPath><clipPath id="id7"><path d="M255 61h1.248v.29H255z"/></clipPath><clipPath id="id8"><path d="M219 64v-1h1v1h-1z"/></clipPath><clipPath id="id9"><path d="M255 61h1.25v.29H255z"/></clipPath><clipPath id="id10"><path d="M256 61h1-1z"/></clipPath><clipPath id="id11"><path d="M219 63h1-1z"/></clipPath><clipPath id="id12"><path d="M256 60h.77v.29H256z"/></clipPath><clipPath id="id13"><path d="M219 63h1-1z"/></clipPath><clipPath id="id14"><path d="M256 60z"/></clipPath><clipPath id="id15"><path d="M256 60h.288v.29H256z"/></clipPath><clipPath id="id16"><path d="M256 60v-1 1z"/></clipPath><clipPath id="id17"><path d="M255 59h.288v.29H255z"/></clipPath><clipPath id="id18"><path d="M252 65h-1 1z"/></clipPath><clipPath id="id19"><path d="M252 65v-1h-1v1h1z"/></clipPath><clipPath id="id20"><path d="M252 64h-1 1z"/></clipPath></defs><g id="Слой_x0020_1"><g id="inf3.cdr"><path class="fil0" d="M45 288v65h376v-41l-129-1v-46H174v23z"/><path class="fil1" d="M203 213v36c0 12 13 16 20 10 5-4 5-10 5-19v-48-48h9c2 1 1 5 1 9v91c0 12 4 20 18 17 1-1 7-3 7-11v-56c0-13 1-25 1-37v-37h-62v47c1 15 1 31 1 46z"/><path class="fil2" d="M203 213c-1 1-1 4-1 2v32h-3v5h3v5h2v1c1 3 1 1 1 5h-32l-1 2v-2c-1 1-1 22-1 23H45v2h129v-23h118v46l129 1v-5H293v-43l-1-1h-33l-1-1c-1 2 1-1 0 0-1 2 0 0-1 1-2-1-1-1-1-2-14 3-18-5-18-17v-91c0-4 1-8-1-9h-9v96c0 9 0 15-5 19-7 6-20 2-20-10v-36z"/><ellipse class="fil3 str0" cx="229" cy="296" rx="29" ry="26"/><path class="fil4" d="M263 73l-11-14h-5v1c2 3 4 6 4 10v1h2l11 14 10-14 12-1-10-12-13 15z"/><path class="fil5" d="M236 7c13 0 23 10 23 24 0 13-10 24-23 24-14 0-24-11-24-24 0-14 10-24 24-24z"/><path class="fil6" d="M236 7c10 0 20 7 22 17 1 5-24-3-30-12-1 2-13 11-15 11 3-9 12-16 23-16z"/><g clip-path="url(#id0)"><image x="254" y="63" width="1.249" height=".29" xlink:href="inf3_Images\inf3_ImgID1.png"/></g><g clip-path="url(#id1)"><image x="254" y="63" width="1.249" height=".29" xlink:href="inf3_Images\inf3_ImgID2.png"/></g><g clip-path="url(#id2)"><image x="254" y="62" width="1.057" height=".29" xlink:href="inf3_Images\inf3_ImgID3.png"/></g><g clip-path="url(#id3)"><image x="254" y="62" width="1.249" height=".29" xlink:href="inf3_Images\inf3_ImgID4.png"/></g><g clip-path="url(#id4)"><image x="255" y="62" width="1.249" height=".29" xlink:href="inf3_Images\inf3_ImgID5.png"/></g><g clip-path="url(#id5)"><image x="255" y="62" width="1.249" height=".29" xlink:href="inf3_Images\inf3_ImgID6.png"/></g><g clip-path="url(#id6)"><image x="255" y="61" width="1.057" height=".29" xlink:href="inf3_Images\inf3_ImgID7.png"/></g><g clip-path="url(#id7)"><image x="255" y="61" width="1.249" height=".29" xlink:href="inf3_Images\inf3_ImgID8.png"/></g><g clip-path="url(#id8)"><image x="219" y="63" width="1.249" height=".29" xlink:href="inf3_Images\inf3_ImgID9.png"/></g><g clip-path="url(#id9)"><image x="255" y="61" width="1.249" height=".29" xlink:href="inf3_Images\inf3_ImgID10.png"/></g><g clip-path="url(#id10)"><image x="256" y="61" width="1.057" height=".29" xlink:href="inf3_Images\inf3_ImgID11.png"/></g><g clip-path="url(#id11)"><image x="219" y="63" width="1.057" height=".579" xlink:href="inf3_Images\inf3_ImgID12.png"/></g><g clip-path="url(#id12)"><image x="256" y="60" width=".769" height=".29" xlink:href="inf3_Images\inf3_ImgID13.png"/></g><g clip-path="url(#id13)"><image x="219" y="63" width=".769" height=".29" xlink:href="inf3_Images\inf3_ImgID14.png"/></g><g clip-path="url(#id14)"><image x="256" y="60" width=".577" height=".29" xlink:href="inf3_Images\inf3_ImgID15.png"/></g><g clip-path="url(#id15)"><image x="256" y="60" width=".288" height=".29" xlink:href="inf3_Images\inf3_ImgID16.png"/></g><g clip-path="url(#id16)"><image x="256" y="59" width=".288" height=".579" xlink:href="inf3_Images\inf3_ImgID17.png"/></g><g clip-path="url(#id17)"><image x="255" y="59" width=".288" height=".29" xlink:href="inf3_Images\inf3_ImgID18.png"/></g><path class="fil7" d="M207 59l8 1 21 50 20-50 7-1c5 0 10 5 10 10v51h-75V69c0-5 4-10 9-10z"/><circle class="fil8 str1" cx="235" cy="95" r="1"/><path class="fil9" d="M256 94h12.174v1.61H256z"/><path class="fil10" d="M265 90l-3-5-6 9h12z"/><path class="fil11" d="M235 62l-13-5 2 13 10-6z"/><path class="fil11" d="M234 62l13-5-1 13-13-6z"/><path class="fil12" d="M233 60h3.605v5.02H233z"/><path class="fil13 str2" d="M205 68l10-9 13 35-3-4z"/><path class="fil13 str2" d="M212 83l8-9 13 32-4-3z"/><g clip-path="url(#id18)"><image transform="matrix(-.3442 0 0 .32178 252.036 64.616)" width="3.9" height=".9" xlink:href="inf3_Images\inf3_ImgID19.png"/></g><g clip-path="url(#id19)"><image transform="matrix(-.3442 0 0 .32178 252.088 64.084)" width="3.3" height="1.8" xlink:href="inf3_Images\inf3_ImgID20.png"/></g><g clip-path="url(#id20)"><image transform="matrix(-.3442 0 0 .32178 252.036 63.892)" width="2.4" height=".9" xlink:href="inf3_Images\inf3_ImgID21.png"/></g><circle class="fil8 str1" cx="235" cy="77" r="1"/><path class="fil12" d="M233 60h3.873v3.146H233z"/><path class="fil13 str2" d="M265 67l-11-8-12 35 4-4z"/><path class="fil13 str2" d="M260 84l-9-8-14 31 4-3z"/><path class="fil14" d="M198 118l74-1v51l-73 1z"/><path class="fil15 str1" d="M151 32l51 36-3 29-58-45z"/><ellipse class="fil5" cx="138" cy="41" rx="10" ry="8"/><path class="fil15 str1" d="M151 32l51 36-3 29-58-45zM331 34l-62 34 3 27 72-42z"/><ellipse class="fil5" cx="344" cy="41" rx="11" ry="6"/><path class="fil15 str1" d="M331 34l-62 34 3 27 72-42z"/><rect class="fil12" x="196" y="255" width="30.911" height="9.641" rx="4" ry="5"/><rect class="fil12" x="239" y="255" width="30.911" height="9.641" rx="4" ry="5"/><path class="fil16" d="M233 310h-6v-16l-2 1c-1 0-2 1-2 1v-6c2-2 4-4 5-7h5v27z"/><path class="fil17" d="M79 331h14v17h-3v-15h-8v15h-3z"/><path id="1" class="fil17" d="M96 340c0-4 1-6 3-8 1-1 3-1 5-1s4 0 6 2c1 1 2 4 2 6 0 3 0 4-1 6l-3 3c-1 0-2 1-4 1s-4-1-6-3c-1-1-2-4-2-6zm3 0c0 2 0 3 1 5 1 1 3 1 4 1s3 0 4-1c1-2 1-3 1-6 0-2 0-3-1-4s-3-2-4-2-3 1-4 2-1 2-1 5z"/><path id="2" class="fil17" d="M128 324h3c0 1-1 2-1 2 0 1-1 1-2 1h-3c-3 0-4 1-5 1s-2 1-2 2-1 3-1 4c1-1 2-2 3-2 1-1 2-1 3-1 3 0 4 1 6 2 1 2 2 4 2 7 0 2 0 3-1 5l-3 3c-1 0-2 1-4 1s-3-1-5-2c-1-1-2-2-2-3-1-2-1-4-1-8 0-5 1-8 2-9 2-2 4-3 7-3h4zm0 15c0-1 0-3-1-4s-2-2-4-2c-1 0-3 1-4 2 0 1-1 3-1 5s1 4 2 5 2 1 3 1c2 0 3 0 4-2 1-1 1-2 1-5z"/><path id="3" class="fil17" d="M146 343h3c0 2-1 3-3 4-1 1-2 2-4 2-3 0-5-1-6-3-2-1-3-3-3-6s1-5 3-7c1-2 3-2 5-2 3 0 5 0 6 2 1 1 2 4 2 7h-13c0 2 1 4 2 5s2 1 4 1c1 0 2 0 2-1 1 0 2-1 2-2zm-10-5h10c0-2 0-3-1-3-1-1-2-2-4-2-1 0-2 0-3 1s-1 2-2 4z"/><path id="4" class="fil17" d="M154 331h12v15h2v7h-2v-5h-14v5h-2v-7h1c2-3 3-8 3-15zm3 2c0 6-1 10-3 13h10v-13h-7z"/><path id="5" class="fil17" d="M172 331h2v13l9-13h3v17h-3v-13l-8 13h-3z"/><path id="6" class="fil17" d="M189 331h14v2h-6v15h-3v-15h-5z"/><path id="7" class="fil17" d="M217 343h3c-1 2-1 3-3 4-1 1-3 2-5 2s-4-1-6-3c-1-1-2-3-2-6s1-5 2-7c2-2 4-2 6-2s4 0 6 2c1 1 2 4 2 7h-13c0 2 1 4 2 5s2 1 3 1 2 0 3-1c1 0 1-1 2-2zm-10-5h10c0-2-1-3-1-3-1-1-2-2-4-2-1 0-2 0-3 1s-2 2-2 4z"/><path id="8" class="fil17" d="M224 331h14v17h-3v-15h-8v13c0 1-1 1-1 2h-5v-2h2l1-1v-14z"/><path id="9" class="fil17" d="M242 331h3v7h4c2 0 4 0 5 1s2 2 2 4c0 1 0 3-2 4-1 1-2 1-5 1h-7v-17zm3 15h3c2 0 3 0 4-1 1 0 1-1 1-2s0-1-1-2c0-1-2-1-4-1h-3v6z"/><path id="10" class="fil17" d="M267 331h14v2h-5v15h-3v-15h-6z"/><path id="11" class="fil17" d="M282 340c0-4 1-6 3-8 2-1 3-1 5-1 3 0 5 0 6 2 2 1 3 4 3 6 0 3-1 4-1 6l-3 3c-2 0-3 1-5 1s-4-1-5-3c-2-1-3-4-3-6zm3 0c0 2 1 3 2 5 1 1 2 1 3 1 2 0 3 0 4-1 1-2 2-3 2-6 0-2-1-3-2-4s-2-2-4-2c-1 0-2 1-3 2s-2 2-2 5z"/><path id="12" class="fil17" d="M302 355v-24h3v2c0-1 1-1 2-2h3c1 0 2 0 4 1 1 0 2 2 2 3 1 1 1 3 1 4 0 2 0 4-1 5-1 2-2 3-3 3-1 1-2 2-4 2-1 0-1-1-2-1s-2-1-2-2v9h-3zm3-15c0 2 0 4 1 5s2 1 3 1c2 0 3 0 4-1 1-2 1-3 1-6 0-2 0-3-1-5-1-1-2-1-4-1-1 0-2 0-3 2-1 1-1 2-1 5z"/><path id="13" class="fil17" d="M321 331h10v2h-8v15h-2z"/><path id="14" class="fil17" d="M343 346c-1 1-2 2-3 2s-2 1-3 1c-2 0-3-1-5-2-1-1-1-2-1-3s0-2 1-3c0 0 0-1 1-1 1-1 1-1 2-1s2-1 3-1c2 0 4 0 5-1v-1c0-1 0-2-1-2-1-1-2-1-3-1-2 0-3 0-3 1-1 0-1 1-2 2h-3c1-1 1-2 2-3 0-1 1-1 2-2h8c1 0 2 1 2 1 0 1 1 2 1 2v12c0 1 1 2 1 2h-3s-1-1-1-2zm0-6c-1 0-3 0-5 1h-2c-1 0-1 1-1 1-1 1-1 1-1 2 0 0 0 1 1 2h6c0-1 1-2 2-2v-4z"/></g></g></svg>