<?xml version="1.0" encoding="UTF-8"?>
<!DOCTYPE svg PUBLIC "-//W3C//DTD SVG 1.1//EN" "http://www.w3.org/Graphics/SVG/1.1/DTD/svg11.dtd">
<!-- Creator: CorelDRAW X7 -->
<svg xmlns="http://www.w3.org/2000/svg" xml:space="preserve" width="118.533mm" height="94.8266mm" version="1.1" style="shape-rendering:geometricPrecision; text-rendering:geometricPrecision; image-rendering:optimizeQuality; fill-rule:evenodd; clip-rule:evenodd"
viewBox="0 0 11853 9483"
 xmlns:xlink="http://www.w3.org/1999/xlink">
 <defs>
  <style type="text/css">
   <![CDATA[
    .str0 {stroke:black;stroke-width:62.5}
    .str1 {stroke:#4D4D4D;stroke-width:132.28}
    .fil8 {fill:none}
    .fil1 {fill:#FCD5A6}
    .fil14 {fill:#F08143}
    .fil0 {fill:black}
    .fil12 {fill:#58595B}
    .fil2 {fill:#5B5B5B}
    .fil15 {fill:#5C5B5B}
    .fil6 {fill:#660066}
    .fil16 {fill:#666666}
    .fil11 {fill:#939598}
    .fil18 {fill:#990000}
    .fil9 {fill:#BCBDC0}
    .fil7 {fill:#BD0006}
    .fil13 {fill:#D1D3D4}
    .fil5 {fill:#FAFDFD}
    .fil4 {fill:#FCFCFC}
    .fil3 {fill:#FEFEFE}
    .fil17 {fill:red}
    .fil10 {fill:white}
   ]]>
  </style>
 </defs>
 <g id="Слой_x0020_1">
  <metadata id="CorelCorpID_0Corel-Layer"/>
  <polygon class="fil0 str0" points="7139,4226 7536,6131 6663,7692 5367,7692 "/>
  <path class="fil1" d="M1160 1500c-53,53 -80,265 -80,344 -53,344 53,688 239,953 211,291 555,555 1031,608l-132 -264 609 0c-27,79 -106,185 -133,264 424,-79 741,-238 1006,-582 106,-159 185,-344 238,-555 26,-186 53,-371 0,-556 0,-53 -27,-132 -27,-159 -185,-26 -820,-211 -1031,-264 -186,-80 -477,-186 -662,-291 -132,-80 -106,-106 -159,-159l-53 53 -52 53c-159,106 -715,582 -794,555l0 0z"/>
  <path class="fil2" d="M1160 1500c79,27 635,-449 794,-555l52 -53 53 -53c53,53 27,79 159,159 185,105 476,211 662,291 211,53 846,238 1031,264 -79,-211 -52,-185 -185,-397 -106,-132 -185,-238 -291,-317 -661,-529 -1587,-397 -2090,264 -53,80 -185,291 -185,397z"/>
  <path class="fil3" d="M4494 7215c-27,27 -80,53 -106,80 -27,26 -53,26 -80,53 -79,53 -132,105 -185,132 -79,79 -79,106 -238,106 -106,0 -212,-27 -291,-27l-132 0c-27,27 0,27 -27,53l0 53 -238 635 476 27c53,-27 53,-53 80,-80 26,-26 53,-26 79,-53 53,-26 106,-106 185,-79 53,0 133,79 133,132 26,53 0,27 52,80 53,0 53,26 80,79 0,0 26,0 26,26l0 -53 27 0 106 53 53 0 0 27c0,26 0,0 -27,26l27 0 0 27 26 0 0 -106c0,-27 26,-27 -26,-27l52 0c0,27 0,0 -26,27 26,0 26,0 26,79l0 27c53,0 27,0 27,26 26,-53 26,0 26,-26 -26,0 -26,-27 -26,-53l26 26c0,0 27,0 27,27l0 26 26 27c0,-27 0,-53 27,-80 -53,0 0,27 -53,0l0 -26 -27 -27c-26,-26 0,0 -26,-53l53 0c0,27 0,27 26,53 27,27 53,27 53,53l0 27c0,0 -26,0 0,0 0,-27 0,-27 27,-27 -27,-53 -80,-79 -106,-132 26,-26 53,-53 79,-53l27 0c26,0 26,0 53,27 0,0 -27,0 0,0l26 0c0,-27 0,0 -26,-27l-27 0c53,-53 27,0 27,-53l26 27c26,-53 53,-53 26,-106 0,0 -26,0 0,-27l27 0 26 -26c27,0 27,0 27,26 53,-26 26,-26 79,27 0,26 27,26 27,53 26,0 26,0 26,-27 27,0 0,27 0,0l27 -26c26,0 -27,0 0,0l26 26c0,-53 0,-26 27,-53l0 53c26,-26 26,0 26,-26l-26 -106 0 -26c-27,-27 -27,-53 -53,-80 -27,-26 -133,-185 -159,-185 -27,0 -159,106 -212,132 -79,53 -211,53 -264,-26 -80,-80 -27,-185 26,-238 53,-53 132,-133 212,-159 -27,-53 -53,-53 -53,-79 0,-27 26,-27 53,-53l26 0 27 -27c26,0 26,27 26,27l53 0 -26 -27c0,-26 0,-26 26,-53l-53 0 0 53c-79,-26 -53,0 -79,27 -27,-27 -27,-27 -27,-53 -53,26 -26,26 -53,26 -79,0 0,27 -53,-26 53,0 53,-27 106,0 -106,-80 -53,-27 -132,-53 0,-27 0,-27 26,0l0 -27c-26,0 -26,0 -26,27 -53,-27 -53,26 -27,-27l1 0z"/>
  <path class="fil3" d="M4567 6978l0 40 81 0 0 203c-81,0 -81,-41 -121,40 -41,41 0,41 -81,81 -41,0 0,-40 -41,0l81 0 0 41c41,0 41,40 41,40 40,0 0,0 40,-40 0,0 41,0 41,-41 40,0 81,-40 81,-40 81,-81 121,-81 202,-81 0,-41 0,-41 41,-41l0 41 40 0 41 40 0 -40 40 0 0 40c-40,41 -81,81 -40,162 81,0 0,0 40,-40 41,40 0,0 0,40 0,81 41,41 41,122l-41 -41 0 -40c-121,-122 -162,0 -162,0l0 40c-40,41 -40,0 -40,41 0,40 0,40 40,40l648 972c81,-40 203,-162 284,-202l567 0 364 -1094 -567 0c-283,-40 -364,0 -486,-121l-567 -567c-81,40 -405,283 -526,364l-41 41 0 0z"/>
  <path class="fil4" d="M3960 8719c40,81 283,365 324,446 40,81 121,202 162,243 81,40 162,-41 243,-81 0,-162 -81,-243 -162,-365 -81,-81 -122,-202 -203,-283 -40,0 -40,-41 -40,0 -41,40 0,40 0,40l0 -40c0,-81 -41,-41 -81,-81 -41,-41 -41,-81 -41,-122l-81 41c41,40 0,40 41,81l40 40 0 41 81 0c-40,40 -40,81 -40,121l-41 -40 0 -41 -40 -40c-41,-41 0,-41 -41,-41l0 81c41,41 41,-40 0,41 0,-41 0,-41 -40,-41l0 -40 0 -41c0,-121 -41,-81 -41,-81l0 -40c41,0 0,40 41,0l-81 0c81,0 0,0 40,40l0 162 -40 0zm567 -1296c0,0 0,-40 -41,-40l0 -41 -81 0c41,-40 0,0 41,0 81,-40 40,-40 81,-81 40,-81 40,-40 121,-40l0 -162 0 -41 -81 0 0 -40c-81,40 -243,162 -324,243 -121,81 -405,283 -243,445 122,122 446,-202 527,-243zm-203 972c0,41 162,284 243,324 -40,-81 0,0 0,-40 81,81 0,40 41,81 40,81 0,0 40,40 41,-40 0,-40 0,-81 41,-40 0,0 41,0 40,41 -41,81 81,122l0 81c0,0 0,40 40,40 41,-40 0,-81 -40,-121 0,-41 -122,-203 0,-162 0,0 40,40 40,81 41,40 41,0 41,81 0,40 -41,0 81,81 0,40 -41,40 -41,81 0,-81 0,0 41,-41l0 41 40 0c0,-41 -40,-81 41,0 0,40 40,-41 -41,40l41 41c121,-122 40,-162 0,-243l-324 -446c0,-40 -122,-162 -122,-202 0,-41 41,-41 41,-81l0 -41 -41 0 0 41c-40,40 -40,40 0,40 -81,-40 -40,-40 -81,-40 -40,40 0,40 0,40 81,81 0,122 0,162l-81 -40c41,121 41,40 0,121 81,41 41,0 41,41l-41 0c-40,0 0,0 0,0 -40,-41 0,-81 -81,-41z"/>
  <path class="fil5" d="M3919 6654c0,81 0,40 41,40 40,0 40,0 40,-40l41 0 0 40 -41 0 -40 41c162,40 81,-81 243,40 -81,0 -81,0 -162,41 40,40 -41,40 81,40 40,0 0,-40 81,-40 0,40 0,40 40,40 41,0 0,-40 122,0l0 -81 81 -40c-41,40 -41,40 -41,81l41 40c-41,41 0,41 -81,0 40,41 40,0 -41,-40 0,40 -40,40 -40,81l81 81c40,-41 243,-203 283,-243 -40,-81 -81,-122 -162,-162 -40,-81 -81,-162 -162,-203l-405 284 0 0z"/>
  <path class="fil4" d="M3960 9286l-162 -162 -41 0 0 81 41 0 0 41 -41 40 41 0c81,0 81,41 162,0z"/>
  <path class="fil6" d="M948 3829l2858 0c292,0 529,260 529,582l0 3386c0,322 -237,582 -529,582l-2858 0c-292,0 -529,-260 -529,-582l0 -3386c0,-322 237,-582 529,-582z"/>
  <polygon class="fil6" points="3356,5390 4282,4146 5631,7559 4917,8141 "/>
  <polygon class="fil7" points="4041,5722 7078,5722 7078,9367 4041,9367 "/>
  <path class="fil8" d="M5816 7586l662 0 -7250 0m6562 0l714 0 -7329 0m6615 0l741 0 -7382 0m6641 0l767 0 -7435 0m6642 0l0 -27 820 0 0 27 -820 0m0 -27l846 0 -7567 0m6721 0l873 0 -7620 0m6720 0l926 0 -7699 0m6773 0l0 -26 953 0 0 26 -953 0m0 -26l953 0 -7753 0m6774 0l979 0 -7779 0m6800 0l979 0 -7779 0m6800 0l979 0 -7779 0m6773 0l0 -27 1006 0 0 27 -1006 0"/>
  <polygon class="fil9" points="4162,5803 6997,5803 6997,9246 4162,9246 "/>
  <path class="fil8" d="M5261 9332l0 -26 1429 0 0 26 -1429 0m0 -26l1429 0 -8229 0m6800 0l1429 0 -8229 0m6773 0l1456 0 -8255 0m6799 0l1456 0 -8255 0m6799 0l0 -27 1456 0 0 27 -1456 0m-26 -27l1482 0 -8282 0m6800 0l1482 0 -8282 0m6773 0l1509 0 -8308 0m6799 0l1509 0 -8308 0m6799 0l0 -26 1509 0 0 26 -1509 0m-26 -26l1535 0 -8335 0m6800 0l1535 0 -8335 0m6800 0l1535 0 -8335 0m6774 0l1561 0 -8361 0m6800 0l0 -27 1561 0 0 27 -1561 0m0 -27l1561 0 -8361 0m6773 0l1588 0 -8388 0m6800 0l1588 0 -8388 0m6774 0l1614 0 -8414 0m6800 0l0 -26 1614 0 0 26 -1614 0m0 -26l1614 0 -8414 0m6773 0l1641 0 -8441 0m6800 0l1641 0 -8441 0m6800 0l1641 0 -8441 0m6774 0l0 -27 1667 0 0 27 -1667 0m0 -27l1667 0 -8467 0m6773 0l1694 0 -8494 0m6800 0l1694 0 -8494 0m6800 0l1694 0 -8494 0m6774 0l0 -26 1720 0 0 26 -1720 0m0 -26l1720 0 -8520 0m6800 0l1720 0 -8520 0m6800 0l0 -27 1720 0 0 27 -1720 0m0 -27l1720 0 -8520 0m6800 0l1720 0 -8520 0m6800 0l1720 0 -8520 0m6826 0l0 -26 1694 0 0 26 -1694 0"/>
  <path class="fil8" d="M4996 9120l0 -26 1694 0 0 26 -1694 0m0 -26l1694 0 -8494 0m6800 0l1694 0 -8494 0m6800 0l0 -27 1694 0 0 27 -1694 0"/>
  <path class="fil8" d="M5023 9094l0 -27 1667 0 0 27 -1667 0m0 -27l1667 0 -8467 0m6800 0l1667 0 -8467 0m6800 0l0 -26 1667 0 0 26 -1667 0m0 -26l1667 0 -8467 0m6826 0l1641 0 -8441 0m6800 0l1641 0 -8441 0m6800 0l0 -27 1641 0 0 27 -1641 0m0 -27l1641 0 -8441 0m6800 0l1641 0 -8441 0m6827 0l1614 0 -8414 0m6800 0l0 -26 1614 0 0 26 -1614 0m0 -26l1614 0 -8414 0m6800 0l1614 0 -8414 0m6800 0l1614 0 -8414 0m6826 0l0 -26 1588 0 0 26 -1588 0m0 -26l1588 0 -8388 0m6800 0l1588 0 -8388 0m6800 0l1588 0 -8388 0m6800 0l0 -27 1588 0 0 27 -1588 0m27 -27l1561 0 -8361 0m6800 0l1561 0 -8361 0m6800 0l0 -26 1561 0 0 26 -1561 0m0 -26l1561 0 -8361 0m6800 0l1561 0 -8361 0m6826 0l1535 0 -8335 0m6800 0l0 -27 1535 0 0 27 -1535 0m0 -27l1535 0 -8335 0m6800 0l1535 0 -8335 0m6800 0l1535 0 -8335 0m6826 0l0 -26 1509 0 0 26 -1509 0m0 -26l1509 0 -8308 0m6799 0l1509 0 -8308 0m6799 0l1509 0 -8308 0m6799 0l0 -27 1509 0 0 27 -1509 0m27 -27l1482 0 -8282 0m6800 0l1482 0 -8282 0m6800 0l0 -26 1482 0 0 26 -1482 0"/>
  <path class="fil8" d="M5208 8829l0 -26 1482 0 0 26 -1482 0m0 -26l1482 0 -8282 0m6826 0l1456 0 -8255 0m6799 0l0 -27 1456 0 0 27 -1456 0"/>
  <path class="fil8" d="M5234 8803l0 -27 1456 0 0 27 -1456 0m0 -27l1456 0 -8255 0m6799 0l1456 0 -8255 0"/>
  <polygon class="fil10" points="4446,6006 6714,6006 6714,9003 4446,9003 "/>
  <polygon class="fil6" points="419,6766 3954,6766 3954,8389 419,8389 "/>
  <path class="fil8" d="M5234 7268l0 -26 1456 0 0 26 -1456 0m0 -26l1456 0 -8255 0m7752 0l476 0 -7249 0m6773 0l476 0 -7249 0m6773 0l450 0 -7197 0m6747 0l0 -27 450 0 0 27 -450 0m0 -27l450 0 -7197 0m6747 0l423 0 -7144 0m6721 0l423 0 -7144 0m6721 0l423 0 -7144 0m6721 0l0 -26 397 0 0 26 -397 0m0 -26l397 0 -7091 0m6694 0l397 0 -7091 0m6694 0l370 0 -7038 0m6668 0l370 0 -7038 0m6668 0l0 -27 344 0 0 27 -344 0m0 -27l344 0 -6985 0m6641 0l344 0 -6985 0m6641 0l317 0 -6932 0m6615 0l317 0 -6932 0m6615 0l0 -26 317 0 0 26 -317 0m0 -26l291 0 -6879 0m6588 0l291 0 -6879 0m6588 0l264 0 -6826 0m6562 0l264 0 -6826 0m6562 0l0 -27 264 0 0 27 -264 0m0 -27l264 0 -6826 0m6562 0l238 0 -6773 0m6535 0l238 0 -6773 0m6535 0l212 0 -6721 0m6509 0l0 -26 212 0 0 26 -212 0m0 -26l212 0 -6721 0m6509 0l185 0 -6667 0m6482 0l185 0 -6667 0m6482 0l185 0 -6667 0m6482 0l0 -26 159 0 0 26 -159 0"/>
  <path class="fil8" d="M5261 8776l1429 0 -8229 0m6800 0l0 -26 1429 0 0 26 -1429 0m0 -26l1429 0 -8229 0m6800 0l1429 0 -8229 0m6800 0l0 -27 1429 0 0 27 -1429 0m873 -1164l556 0 -7356 0m6800 0l556 0 -7356 0m6826 0l530 0 -7329 0m6799 0l0 -27 530 0 0 27 -530 0m0 -27l530 0 -7329 0m6799 0l530 0 -7329 0m6799 0l530 0 -7329 0m6826 0l0 -26 503 0 0 26 -503 0m0 -26l503 0 -7303 0m6800 0l503 0 -7303 0m6800 0l503 0 -7303 0m6800 0l0 -27 503 0 0 27 -503 0m26 -27l477 0 -7276 0m6799 0l477 0 -7276 0m6799 0l477 0 -7276 0m6799 0l0 -26 477 0 0 26 -477 0m0 -26l477 0 -7276 0m6826 0l450 0 -7250 0m6800 0l0 -27 450 0 0 27 -450 0"/>
  <path class="fil8" d="M6240 7480l0 -27 450 0 0 27 -450 0m0 -27l450 0 -7250 0m6800 0l450 0 -7250 0m6826 0l0 -26 424 0 0 26 -424 0"/>
  <path class="fil8" d="M6266 7453l0 -26 424 0 0 26 -424 0m0 -26l424 0 -7224 0m6800 0l424 0 -7224 0m6800 0l0 -26 424 0 0 26 -424 0"/>
  <path class="fil8" d="M6293 7427l0 -26 397 0 0 26 -397 0m0 -26l397 0 -7197 0m6800 0l397 0 -7197 0m6800 0l0 -27 397 0 0 27 -397 0m0 -27l397 0 -7197 0m6826 0l371 0 -7171 0m6800 0l371 0 -7171 0m6800 0l0 -26 371 0 0 26 -371 0m0 -26l371 0 -7171 0m6800 0l371 0 -7171 0m6827 0l344 0 -7144 0m6800 0l0 -27 344 0 0 27 -344 0m0 -27l344 0 -7144 0m6800 0l344 0 -7144 0m6800 0l344 0 -7144 0m6800 0l317 0 -7091 0m6800 0l0 -26 291 0 0 26 -291 0m0 -26l291 0 -7064 0m6773 0l265 0 -7012 0m6747 0l265 0 -7012 0m6747 0l265 0 -7012 0m6747 0l0 -27 238 0 0 27 -238 0m0 -27l238 0 -6958 0m6747 0l211 0 -6932 0m6721 0l185 0 -6879 0m6694 0l185 0 -6879 0m6694 0l0 -26 185 0 0 26 -185 0m0 -26l158 0 -6826 0m6668 0l158 0 -6826 0m6668 0l132 0 -6774 0m6668 0l106 0 -6747 0m6641 0l0 -27 106 0 0 27 -106 0m0 -27l79 0 -6694 0m6615 0l79 0 -6694 0m6615 0l79 0 -6694 0m6615 0l53 0 -6641 0m6614 0l0 -26 27 0 0 26 -27 0"/>
  <polygon class="fil11" points="4851,5722 6309,5722 6309,6087 4851,6087 "/>
  <polygon class="fil12" points="5904,5722 5904,5601 5215,5601 5215,5722 4851,5722 4851,5763 6309,5763 6309,5722 "/>
  <path class="fil13" d="M5175 6532l1255 0 0 162 -1255 0 0 -162zm-405 0c0,0 40,81 81,122 40,-81 81,-81 121,-162l41 -41 81 -40c-81,81 -81,81 -162,202 0,41 -41,122 -41,122l-81 81c-40,0 -40,0 -40,-41 0,-40 -81,-202 -81,-202l81 -41 0 0zm0 446c0,0 40,81 81,121 40,-81 81,-81 121,-162l41 0 81 -81 -162 243 -41 81 -81 81c-40,0 -40,0 -40,-40 0,-41 -81,-162 -81,-162l81 -81zm0 445l81 162c40,-81 81,-121 121,-202l41 0 81 -81 0 40c-81,81 -81,81 -162,203 0,40 -41,81 -41,121l-81 41 -40 0c0,-81 -81,-203 -81,-203l81 -81zm0 486c0,0 40,41 81,122 40,-81 81,-81 121,-162l41 -41 81 -40c-81,81 -81,81 -162,202 0,41 -41,122 -41,122l-81 81c-40,0 -40,0 -40,-41 0,-81 -81,-202 -81,-202l81 -41 0 0z"/>
  <path class="fil8" d="M5684 7533l0 -27 1006 0 0 27 -1006 0m0 -27l1006 0 -7806 0m6774 0l1032 0 -7832 0m6800 0l1032 0 -7832 0m6800 0l0 -26 1032 0 0 26 -1032 0"/>
  <path class="fil8" d="M5631 7506l0 -26 1059 0 0 26 -1059 0m0 -26l1059 0 -7859 0m6800 0l1059 0 -7859 0m6774 0l1085 0 -7885 0m6800 0l0 -27 1085 0 0 27 -1085 0"/>
  <path class="fil8" d="M5605 7480l0 -27 1085 0 0 27 -1085 0m-27 -27l1112 0 -7911 0m6799 0l1112 0 -7911 0m6799 0l1112 0 -7911 0m6773 0l1138 0 -7938 0m6800 0l0 -26 1138 0 0 26 -1138 0m0 -26l1138 0 -7938 0m6773 0l1165 0 -7964 0m6799 0l1165 0 -7964 0m6799 0l1165 0 -7964 0m6773 0l0 -26 1191 0 0 26 -1191 0m0 -26l1191 0 -7991 0m6800 0l1191 0 -7991 0m6773 0l1218 0 -8017 0m6799 0l1218 0 -8017 0m6799 0l0 -27 1218 0 0 27 -1218 0m-26 -27l1244 0 -8044 0m6800 0l1244 0 -8044 0m6800 0l1244 0 -8044 0m6774 0l1270 0 -8070 0m6800 0l0 -26 1270 0 0 26 -1270 0m0 -26l1270 0 -8070 0m6773 0l1297 0 -8097 0m6800 0l1297 0 -8097 0m6800 0l1297 0 -8097 0m6774 0l0 -27 1323 0 0 27 -1323 0m0 -27l1323 0 -8123 0m6800 0l1323 0 -8123 0m6773 0l1350 0 -8150 0m6800 0l1350 0 -8150 0m6800 0l0 -26 1350 0 0 26 -1350 0m-26 -26l1376 0 -8176 0m6800 0l1376 0 -8176 0m6800 0l1376 0 -8176 0m6773 0l1403 0 -8203 0m6800 0l0 -27 1403 0 0 27 -1403 0"/>
  <path class="fil8" d="M5287 7295l0 -27 1403 0 0 27 -1403 0m-26 -27l1429 0 -8229 0m6800 0l1429 0 -8229 0m6800 0l1429 0 -8229 0m6773 0l0 -26 1456 0 0 26 -1456 0"/>
  <path class="fil8" d="M6187 7083l0 -26 159 0 0 26 -159 0m0 -26l132 0 -6562 0m6430 0l132 0 -6562 0m6430 0l132 0 -6562 0m6430 0l0 -27 106 0 0 27 -106 0"/>
  <path class="fil8" d="M6187 7057l0 -27 106 0 0 27 -106 0m0 -27l106 0 -6509 0m6403 0l79 0 -6456 0m6377 0l79 0 -6456 0m6377 0l0 -26 79 0 0 26 -79 0"/>
  <path class="fil8" d="M6187 7030l0 -26 53 0 0 26 -53 0m0 -26l53 0 -6403 0m6350 0l26 0 -6350 0m6324 0l26 0 -6350 0m6324 0l26 0 -6350 0"/>
  <path class="fil14" d="M2551 5215l-132 0c0,318 -53,582 -79,847l317 0c-53,-265 -79,-529 -106,-847l0 0zm-238 1535c0,-80 53,-424 186,-424 132,0 158,344 185,424l106 0c-27,-159 -80,-344 -106,-556l106 0 0 -53 -582 0 0 53 105 0c-26,212 -79,397 -105,556l105 0zm503 158l53 0 0 -79 -767 0 0 79 53 0c-159,556 -291,821 -291,821l291 0c26,-609 344,-582 344,-582 0,0 317,-27 344,582l291 0c0,0 -159,-265 -318,-821zm-185 -1825l-265 0 0 106 265 0 0 -106zm-53 -80l-185 0 0 53 185 0 0 -53zm-79 -529l-27 503 53 0 -26 -503z"/>
  <ellipse class="fil1" cx="2536" cy="2929" rx="847" ry="476"/>
  <path class="fil13" d="M5175 6937l1255 0 0 162 -1255 0 0 -162zm0 405l1255 0 0 162 -1255 0 0 -162zm0 405l1255 0 0 162 -1255 0 0 -162zm0 405l1255 0 0 162 -1255 0 0 -162zm0 405l1255 0 0 162 -1255 0 0 -162zm0 -2025l1255 0 0 162 -1255 0 0 -162z"/>
  <path class="fil1" d="M9415 601c846,0 1508,661 1508,1508 0,820 -662,1482 -1508,1482 -820,0 -1482,-662 -1482,-1482 0,-847 662,-1508 1482,-1508z"/>
  <path class="fil15" d="M9415 601c688,0 1243,450 1429,1058 26,318 -1509,-132 -1905,-714 -80,79 -768,661 -927,688 186,-609 741,-1032 1403,-1032l0 0z"/>
  <path class="fil0" d="M7669 3882l449 26 1297 3122 1270 -3122 476 -26c318,0 582,264 582,608l0 3546 -4630 0 -27 -3546c0,-344 265,-608 583,-608l0 0z"/>
  <circle class="fil0 str0" cx="9388" cy="6078" r="53"/>
  <polygon class="fil16" points="10685,6051 11446,6051 11446,6151 10685,6151 "/>
  <polygon class="fil10" points="11267,5813 11082,5628 10685,6051 11426,6051 "/>
  <polygon class="fil17" points="9388,4040 8595,3723 8674,4543 9335,4173 "/>
  <polygon class="fil17" points="9335,4040 10129,3749 10076,4569 9282,4146 "/>
  <polygon class="fil18" points="9256,3934 9481,3934 9481,4247 9256,4247 "/>
  <polygon class="fil10 str1" points="7457,4464 8145,3511 8965,5998 8727,5787 "/>
  <polygon class="fil10 str1" points="7933,5337 8515,4728 9282,6845 9018,6580 "/>
  <circle class="fil0 str0" cx="9362" cy="4966" r="53"/>
  <path class="fil18" d="M9282 3934l190 0c14,0 26,12 26,27l0 143c0,14 -12,26 -26,26l-190 0c-14,0 -26,-12 -26,-26l0 -143c0,-15 12,-27 26,-27z"/>
  <polygon class="fil10 str1" points="11426,4411 10685,3538 9838,6051 10076,5813 "/>
  <polygon class="fil10 str1" points="10949,5443 10288,4755 9547,6871 9759,6686 "/>
 </g>
</svg>
