<svg xmlns="http://www.w3.org/2000/svg" width="450" height="360" viewBox="0 0 450 360" xmlns:xlink="http://www.w3.org/1999/xlink" shape-rendering="geometricPrecision" text-rendering="geometricPrecision" image-rendering="optimizeQuality" fill-rule="evenodd" clip-rule="evenodd"><defs><style>.str1{stroke:#4d4d4d;stroke-width:4.99961}.str0{stroke:#000;stroke-width:2.3622}.fil10{fill:none}.fil16{fill:#c4c5c5}.fil17{fill:#5c5b5b}.fil0,.fil18{fill:#000}.fil15{fill:#0ff}.fil13{fill:#58595b}.fil2{fill:#5b5b5b}.fil7,.fil6{fill:#606}.fil19{fill:#666}.fil12{fill:#939598}.fil22{fill:#900}.fil9{fill:#bcbdc0}.fil8{fill:#bd0006}.fil1{fill:#c5c7c6}.fil14{fill:#d1d3d4}.fil5{fill:#fafdfd}.fil4{fill:#fcfcfc}.fil3{fill:#fefefe}.fil21{fill:red}.fil11,.fil20,.fil23{fill:#fff}</style><clipPath id="id0"><path d="M404 146h2.953v.68H404z"/></clipPath><clipPath id="id1"><path d="M404 146h2.953v.68H404z"/></clipPath><clipPath id="id2"><path d="M405 146v-1h2v1h-2z"/></clipPath><clipPath id="id3"><path d="M405 144h2.953v.68H405z"/></clipPath><clipPath id="id4"><path d="M405 144h2.952v.68H405z"/></clipPath><clipPath id="id5"><path d="M406 143h2.953v.68H406z"/></clipPath><clipPath id="id6"><path d="M406 144v-1h3v1h-3z"/></clipPath><clipPath id="id7"><path d="M406 142h2.953v.68H406z"/></clipPath><clipPath id="id8"><path d="M321 148v-1h3v1h-3z"/></clipPath><clipPath id="id9"><path d="M407 142h2.952v.68H407z"/></clipPath><clipPath id="id10"><path d="M408 142v-1h2v1h-2z"/></clipPath><clipPath id="id11"><path d="M408 141h1.817v.68H408z"/></clipPath><clipPath id="id12"><path d="M321 146h2-2z"/></clipPath><clipPath id="id13"><path d="M408 141v-1h1v1h-1z"/></clipPath><clipPath id="id14"><path d="M408 139h.68v.68H408z"/></clipPath><clipPath id="id15"><path d="M408 140v-2 2z"/></clipPath><clipPath id="id16"><path d="M407 138h.68v.68H407z"/></clipPath><clipPath id="id17"><path d="M399 151v-1h-3v1h3z"/></clipPath><clipPath id="id18"><path d="M399 151v-2h-2v2h2z"/></clipPath><clipPath id="id19"><path d="M399 150v-1h-2v1h2z"/></clipPath></defs><g id="Слой_x0020_1"><path class="fil0 str0" d="M274 151l15 72-33 59h-49z"/><path class="fil1" d="M48 48c-2 2-3 10-3 13-2 13 2 26 9 36 8 11 21 21 39 23l-5-10h23c-1 3-4 7-5 10 16-3 28-9 38-22 4-6 7-13 9-21 1-7 2-14 0-21 0-2-1-5-1-6-7-1-31-8-39-10-7-3-18-7-25-11-5-3-4-4-6-6l-2 2-2 2c-6 4-27 22-30 21z"/><path class="fil2" d="M48 48c3 1 24-17 30-21l2-2 2-2c2 2 1 3 6 6 7 4 18 8 25 11 8 2 32 9 39 10-3-8-2-7-7-15-4-5-7-9-11-12C109 3 74 8 55 33c-2 3-7 11-7 15z"/><path class="fil3" d="M174 264c-1 1-3 2-4 3s-2 1-3 2c-3 2-5 4-7 5-3 3-3 4-9 4-4 0-8-1-11-1h-5c-1 1 0 1-1 2v2l-9 24 18 1c2-1 2-2 3-3s2-1 3-2c2-1 4-4 7-3 2 0 5 3 5 5 1 2 0 1 2 3 2 0 2 1 3 3 0 0 1 0 1 1v-2h1l4 2h2v1c0 1 0 0-1 1h1v1h1v-4c0-1 1-1-1-1h2c0 1 0 0-1 1 1 0 1 0 1 3v1c2 0 1 0 1 1 1-2 1 0 1-1-1 0-1-1-1-2l1 1s1 0 1 1v1l1 1c0-1 0-2 1-3-2 0 0 1-2 0v-1l-1-1c-1-1 0 0-1-2h2c0 1 0 1 1 2s2 1 2 2v1s-1 0 0 0c0-1 0-1 1-1-1-2-3-3-4-5 1-1 2-2 3-2h1c1 0 1 0 2 1 0 0-1 0 0 0h1c0-1 0 0-1-1h-1c2-2 1 0 1-2l1 1c1-2 2-2 1-4 0 0-1 0 0-1h1l1-1c1 0 1 0 1 1 2-1 1-1 3 1 0 1 1 1 1 2 1 0 1 0 1-1 1 0 0 1 0 0l1-1c1 0-1 0 0 0l1 1c0-2 0-1 1-2v2c1-1 1 0 1-1l-1-4v-1c-1-1-1-2-2-3s-5-7-6-7-6 4-8 5c-3 2-8 2-10-1-3-3-1-7 1-9s5-5 8-6c-1-2-2-2-2-3s1-1 2-2h1l1-1c1 0 1 1 1 1h2l-1-1c0-1 0-1 1-2h-2v2c-3-1-2 0-3 1-1-1-1-1-1-2-2 1-1 1-2 1-3 0 0 1-2-1 2 0 2-1 4 0-4-3-2-1-5-2 0-1 0-1 1 0v-1c-1 0-1 0-1 1-2-1-2 1-1-1z"/><path class="fil3" d="M195 287v1h2v5c-2 0-2-1-3 1-1 1 0 1-2 2-1 0 0-1-1 0h2v1c1 0 1 1 1 1 1 0 0 0 1-1 0 0 1 0 1-1 1 0 2-1 2-1 2-2 3-2 5-2 0-1 0-1 1-1v1h1l1 1v-1h1v1c-1 1-2 2-1 4 2 0 0 0 1-1 1 1 0 0 0 1 0 2 1 1 1 3l-1-1v-1c-3-3-4 0-4 0v1c-1 1-1 0-1 1s0 1 1 1l16 24c2-1 5-4 7-5h14l9-27h-14c-7-1-9 0-12-3l-14-14c-2 1-10 7-13 9l-1 1z"/><path class="fil4" d="M180 330c1 2 7 9 8 11s3 5 4 6c2 1 4-1 6-2 0-4-2-6-4-9-2-2-3-5-5-7-1 0-1-1-1 0-1 1 0 1 0 1v-1c0-2-1-1-2-2s-1-2-1-3l-2 1c1 1 0 1 1 2l1 1v1h2c-1 1-1 2-1 3l-1-1v-1l-1-1c-1-1 0-1-1-1v2c1 1 1-1 0 1 0-1 0-1-1-1v-1-1c0-3-1-2-1-2v-1c1 0 0 1 1 0h-2c2 0 0 0 1 1v4h-1zM194 298s0-1-1-1v-1h-2c1-1 0 0 1 0 2-1 1-1 2-2 1-2 1-1 3-1v-4-1h-2v-1c-2 1-6 4-8 6-3 2-10 7-6 11 3 3 11-5 13-6zM189 322c0 1 4 7 6 8-1-2 0 0 0-1 2 2 0 1 1 2 1 2 0 0 1 1 1-1 0-1 0-2 1-1 0 0 1 0 1 1-1 2 2 3v2s0 1 1 1c1-1 0-2-1-3 0-1-3-5 0-4 0 0 1 1 1 2 1 1 1 0 1 2 0 1-1 0 2 2 0 1-1 1-1 2 0-2 0 0 1-1v1h1c0-1-1-2 1 0 0 1 1-1-1 1l1 1c3-3 1-4 0-6l-8-11c0-1-3-4-3-5s1-1 1-2v-1h-1v1c-1 1-1 1 0 1-2-1-1-1-2-1-1 1 0 1 0 1 2 2 0 3 0 4l-2-1c1 3 1 1 0 3 2 1 1 0 1 1h-1c-1 0 0 0 0 0-1-1 0-2-2-1z"/><path class="fil5" d="M179 279c0 2 0 1 1 1s1 0 1-1h1v1h-1l-1 1c4 1 2-2 6 1-2 0-2 0-4 1 1 1-1 1 2 1 1 0 0-1 2-1 0 1 0 1 1 1s0-1 3 0v-2l2-1c-1 1-1 1-1 2l1 1c-1 1 0 1-2 0 1 1 1 0-1-1 0 1-1 1-1 2l2 2c1-1 6-5 7-6-1-2-2-3-4-4-1-2-2-4-4-5l-10 7z"/><path class="fil4" d="M180 344l-4-4h-1v2h1v1l-1 1h1c2 0 2 1 4 0z"/><rect class="fil6" x="20" y="136" width="148" height="172" rx="20" ry="22"/><path class="fil7" d="M131 195l35-47 51 129-27 22z"/><path class="fil8" d="M182 256h75v90h-75z"/><path class="fil9" d="M185 258h70v85h-70z"/><path class="fil10" d="M203 344v-1h54v1h-54M203 343h54-54M203 343h54-54M202 343h55-55M202 343h55-55M202 343v-1h55v1h-55M201 342h56-56M201 342h56-56M200 342h57-57M200 342h57-57M200 342v-1h57v1h-57M199 341h58-58M199 341h58-58M199 341h58-58M198 341h59-59M198 341v-1h59v1h-59M198 340h59-59M197 340h60-60M197 340h60-60M196 340h61-61M196 340v-1h61v1h-61M196 339h61-61M195 339h62-62M195 339h62-62M195 339h62-62M194 339v-1h63v1h-63M194 338h63-63M193 338h64-64M193 338h64-64M193 338h64-64M192 338v-1h65v1h-65M192 337h65-65M192 337h65-65M192 337v-1h65v1h-65M192 336h65-65M192 336h65-65M192 336h65-65M193 336v-1h64v1h-64"/><path class="fil10" d="M193 336v-1h64v1h-64M193 335h64-64M193 335h64-64M193 335v-1h64v1h-64"/><path class="fil10" d="M194 335v-1h63v1h-63M194 334h63-63M194 334h63-63M194 334v-1h63v1h-63M194 333h63-63M195 333h62-62M195 333h62-62M195 333v-1h62v1h-62M195 332h62-62M195 332h62-62M196 332h61-61M196 332v-1h61v1h-61M196 331h61-61M196 331h61-61M196 331h61-61M197 331v-1h60v1h-60M197 330h60-60M197 330h60-60M197 330h60-60M197 330v-1h60v1h-60M198 329h59-59M198 329h59-59M198 329v-1h59v1h-59M198 328h59-59M198 328h59-59M199 328h58-58M199 328v-1h58v1h-58M199 327h58-58M199 327h58-58M199 327h58-58M200 327v-1h57v1h-57M200 326h57-57M200 326h57-57M200 326h57-57M200 326v-1h57v1h-57M201 325h56-56M201 325h56-56M201 325v-1h56v1h-56"/><path class="fil10" d="M201 325v-1h56v1h-56M201 324h56-56M202 324h55-55M202 324v-1h55v1h-55"/><path class="fil10" d="M202 324v-1h55v1h-55M202 323h55-55M202 323h55-55"/><path class="fil11" d="M192 263h56v74h-56z"/><path class="fil10" d="M203 323h54-54M203 323v-1h54v1h-54M203 322h54-54M203 322h54-54M203 322v-1h54v1h-54M236 278h21-21M236 278h21-21M237 278h20-20M237 278v-1h20v1h-20M237 277h20-20M237 277h20-20M237 277h20-20M238 277v-1h19v1h-19M238 276h19-19M238 276h19-19M238 276h19-19M238 276v-1h19v1h-19M239 275h18-18M239 275h18-18M239 275h18-18M239 275v-1h18v1h-18M239 274h18-18M240 274h17-17M240 274v-1h17v1h-17"/><path class="fil10" d="M240 274v-1h17v1h-17M240 273h17-17M240 273h17-17M241 273v-1h16v1h-16"/><path class="fil10" d="M241 273v-1h16v1h-16M241 272h16-16M241 272h16-16M241 272v-1h16v1h-16"/><path class="fil10" d="M242 272v-1h15v1h-15M242 271h15-15M242 271h15-15M242 271v-1h15v1h-15M242 270h15-15M243 270h14-14M243 270h14-14M243 270v-1h14v1h-14M243 269h14-14M243 269h14-14M244 269h13-13M244 269v-1h13v1h-13M244 268h13-13M244 268h13-13M244 268h13-13M244 268h12-12M245 268v-1h11v1h-11M245 267h11-11M245 267h10-10M245 267h10-10M245 267h10-10M245 267v-1h9v1h-9M245 266h9-9M246 266h8-8M246 266h7-7M246 266h7-7M246 266v-1h7v1h-7M246 265h6-6M246 265h6-6M246 265h5-5M247 265h4-4M247 265v-1h4v1h-4M247 264h3-3M247 264h3-3M247 264h3-3M247 264h2-2M248 264v-1h1v1h-1"/><path class="fil12" d="M202 256h36v9h-36z"/><path class="fil13" d="M228 256v-3h-17v3h-9v1h36v-1z"/><path class="fil14" d="M210 276h31v4h-31zM200 276s1 2 2 3c1-2 2-2 3-4l1-1 2-1c-2 2-2 2-4 5 0 1-1 3-1 3l-2 2c-1 0-1 0-1-1s-2-5-2-5l2-1zM200 287s1 2 2 3c1-2 2-2 3-4h1l2-2-4 6-1 2-2 2c-1 0-1 0-1-1s-2-4-2-4l2-2zM200 298l2 4c1-2 2-3 3-5h1l2-2v1c-2 2-2 2-4 5 0 1-1 2-1 3l-2 1h-1c0-2-2-5-2-5l2-2zM200 310s1 1 2 3c1-2 2-2 3-4l1-1 2-1c-2 2-2 2-4 5 0 1-1 3-1 3l-2 2c-1 0-1 0-1-1 0-2-2-5-2-5l2-1z"/><path class="fil10" d="M224 278h25-25M223 278h27-27M223 278h28-28M223 278h29-29M222 278v-1h31v1h-31M222 277h32-32M222 277h33-33M221 277h35-35M221 277v-1h36v1h-36M221 276h36-36M220 276h37-37M220 276h37-37M220 276h37-37M219 276v-1h38v1h-38"/><path class="fil10" d="M219 276v-1h38v1h-38M219 275h38-38M218 275h39-39M218 275h39-39M218 275v-1h39v1h-39"/><path class="fil10" d="M217 275v-1h40v1h-40M217 274h40-40M217 274h40-40M216 274h41-41M216 274v-1h41v1h-41"/><path class="fil10" d="M216 274v-1h41v1h-41M215 273h42-42M215 273h42-42M215 273h42-42M214 273h43-43M214 273v-1h43v1h-43M214 272h43-43M213 272h44-44M213 272h44-44M213 272h44-44M212 272v-1h45v1h-45M212 271h45-45M212 271h45-45M211 271h46-46M211 271h46-46M211 271v-1h46v1h-46M210 270h47-47M210 270h47-47M210 270h47-47M209 270h48-48M209 270v-1h48v1h-48M209 269h48-48M208 269h49-49M208 269h49-49M208 269h49-49M207 269v-1h50v1h-50M207 268h50-50M207 268h50-50M206 268h51-51M206 268h51-51M206 268v-1h51v1h-51M205 267h52-52M205 267h52-52M205 267h52-52M204 267h53-53M204 267v-1h53v1h-53"/><path class="fil10" d="M204 267v-1h53v1h-53M203 266h54-54M203 266h54-54M203 266h54-54M202 266v-1h55v1h-55"/><path class="fil10" d="M202 266v-1h55v1h-55M202 265h55-55M238 265h18-18M238 265h18-18M238 265h17-17M238 265v-1h17v1h-17M238 264h17-17M238 264h16-16M238 264h16-16M238 264h16-16M238 264v-1h15v1h-15M238 263h15-15M238 263h15-15M238 263h14-14M238 263h14-14M238 263v-1h13v1h-13M238 262h13-13M238 262h13-13M238 262h12-12M238 262h12-12M238 262v-1h12v1h-12M238 261h11-11M238 261h11-11M238 261h10-10M238 261h10-10M238 261v-1h10v1h-10M238 260h10-10M238 260h9-9M238 260h9-9M238 260h8-8M238 260v-1h8v1h-8M238 259h8-8M238 259h7-7M238 259h7-7M238 259h7-7M238 259v-1h6v1h-6"/><path class="fil10" d="M238 259v-1h6v1h-6M238 258h5-5M238 258h5-5M238 258h5-5M238 258v-1h4v1h-4"/><path class="fil10" d="M238 258v-1h4v1h-4M238 257h4-4M238 257h3-3M238 257h3-3M238 257v-1h3v1h-3"/><path class="fil10" d="M238 257v-1h2v1h-2M238 256h2-2M238 256h1-1M238 256h1-1M238 256h1-1"/><path class="fil7" d="M20 247h146.848v61.375H20z"/><path class="fil15" d="M91 182h-5c0 12-2 22-3 32h12c-2-10-3-20-4-32zM82 240c0-3 2-16 7-16s6 13 7 16h4c-1-6-3-13-4-21h4v-2H78v2h4c-1 8-3 15-4 21h4zM101 246h2v-3H74v3h2c-6 21-11 31-11 31h11c1-23 13-22 13-22s12-1 13 22h11s-6-10-12-31zM94 177H84v4h10zM92 174h-7v2h7zM89 154l-1 19h2z"/><ellipse class="fil1" cx="100" cy="102" rx="32" ry="18"/><path class="fil14" d="M210 286h31v4h-31zM210 296h31v4h-31zM210 306h31v4h-31zM210 316h31v4h-31zM210 326h31v4h-31zM210 276h31v4h-31z"/><path class="fil16" d="M360 14c32 0 57 25 57 57 0 31-25 56-57 56-31 0-56-25-56-56 0-32 25-57 56-57z"/><path class="fil17" d="M360 14c26 0 47 17 54 40 1 12-57-5-72-27-3 3-29 25-35 26 7-23 28-39 53-39z"/><g clip-path="url(#id0)"><image x="404" y="146" width="2.952" height=".681" xlink:href="inf4_Images\inf4_ImgID1.png"/></g><g clip-path="url(#id1)"><image x="404" y="146" width="2.952" height=".681" xlink:href="inf4_Images\inf4_ImgID2.png"/></g><g clip-path="url(#id2)"><image x="405" y="145" width="2.498" height=".681" xlink:href="inf4_Images\inf4_ImgID3.png"/></g><g clip-path="url(#id3)"><image x="405" y="144" width="2.952" height=".681" xlink:href="inf4_Images\inf4_ImgID4.png"/></g><g clip-path="url(#id4)"><image x="405" y="144" width="2.952" height=".681" xlink:href="inf4_Images\inf4_ImgID5.png"/></g><g clip-path="url(#id5)"><image x="406" y="143" width="2.952" height=".681" xlink:href="inf4_Images\inf4_ImgID6.png"/></g><g clip-path="url(#id6)"><image x="406" y="143" width="2.498" height=".681" xlink:href="inf4_Images\inf4_ImgID7.png"/></g><g clip-path="url(#id7)"><image x="406" y="142" width="2.952" height=".681" xlink:href="inf4_Images\inf4_ImgID8.png"/></g><g clip-path="url(#id8)"><image x="321" y="147" width="2.952" height=".681" xlink:href="inf4_Images\inf4_ImgID9.png"/></g><g clip-path="url(#id9)"><image x="407" y="142" width="2.952" height=".681" xlink:href="inf4_Images\inf4_ImgID10.png"/></g><g clip-path="url(#id10)"><image x="408" y="141" width="2.498" height=".681" xlink:href="inf4_Images\inf4_ImgID11.png"/></g><g clip-path="url(#id11)"><image x="408" y="141" width="1.817" height=".681" xlink:href="inf4_Images\inf4_ImgID12.png"/></g><g clip-path="url(#id12)"><image x="321" y="146" width="1.817" height=".681" xlink:href="inf4_Images\inf4_ImgID13.png"/></g><g clip-path="url(#id13)"><image x="408" y="140" width="1.363" height=".681" xlink:href="inf4_Images\inf4_ImgID14.png"/></g><g clip-path="url(#id14)"><image x="408" y="139" width=".681" height=".681" xlink:href="inf4_Images\inf4_ImgID15.png"/></g><g clip-path="url(#id15)"><image x="408" y="138" width=".681" height="1.363" xlink:href="inf4_Images\inf4_ImgID16.png"/></g><g clip-path="url(#id16)"><image x="407" y="138" width=".681" height=".681" xlink:href="inf4_Images\inf4_ImgID17.png"/></g><path class="fil0" d="M294 138l17 1 49 118 48-118 18-1c12 0 22 10 22 23v134H273l-1-134c0-13 10-23 22-23z"/><circle class="fil18 str0" cx="359" cy="221" r="2"/><path class="fil19" d="M408 220h28.767v3.786H408z"/><path class="fil20" d="M430 211l-7-7-15 16h28z"/><path class="fil21" d="M359 144l-30-12 3 31 25-14z"/><path class="fil21" d="M357 144l30-11-2 31-30-16z"/><path class="fil22" d="M354 140h8.52v11.813H354z"/><path class="fil23 str1" d="M286 160l26-36 31 94-9-8z"/><path class="fil23 str1" d="M304 193l22-23 29 80-10-10z"/><g clip-path="url(#id17)"><image transform="matrix(-.81336 0 0 .75704 399.222 150.488)" width="3.9" height=".9" xlink:href="inf4_Images\inf4_ImgID18.png"/></g><g clip-path="url(#id18)"><image transform="matrix(-.81336 0 0 .75704 399.344 149.24)" width="3.3" height="1.8" xlink:href="inf4_Images\inf4_ImgID19.png"/></g><g clip-path="url(#id19)"><image transform="matrix(-.81336 0 0 .75704 399.222 148.785)" width="2.4" height=".9" xlink:href="inf4_Images\inf4_ImgID20.png"/></g><circle class="fil18 str0" cx="358" cy="179" r="2"/><rect class="fil22" x="354" y="140" width="9.153" height="7.401" rx="1" ry="1"/><path class="fil23 str1" d="M436 158l-28-33-32 95 9-9z"/><path class="fil23 str1" d="M418 197l-25-26-28 80 8-7z"/></g></svg>