<?xml version="1.0" encoding="UTF-8"?>
<!DOCTYPE svg PUBLIC "-//W3C//DTD SVG 1.1//EN" "http://www.w3.org/Graphics/SVG/1.1/DTD/svg11.dtd">
<!-- Creator: CorelDRAW 2017 -->
<svg xmlns="http://www.w3.org/2000/svg" xml:space="preserve" width="118.533mm" height="118.533mm" version="1.1" style="shape-rendering:geometricPrecision; text-rendering:geometricPrecision; image-rendering:optimizeQuality; fill-rule:evenodd; clip-rule:evenodd"
viewBox="0 0 11853.32 11853.32"
 xmlns:xlink="http://www.w3.org/1999/xlink">
 <defs>
  <style type="text/css">
   <![CDATA[
    .str0 {stroke:black;stroke-width:62.48;stroke-miterlimit:22.9256}
    .fil2 {fill:none}
    .fil7 {fill:black}
    .fil6 {fill:#1A1A1A}
    .fil14 {fill:#1A1A1A}
    .fil11 {fill:#2B2A29}
    .fil16 {fill:#333333}
    .fil5 {fill:#58351B}
    .fil20 {fill:#58595B}
    .fil1 {fill:#660066}
    .fil8 {fill:#666666}
    .fil22 {fill:#666666}
    .fil19 {fill:#939598}
    .fil18 {fill:#BCBDC0}
    .fil17 {fill:#BD0006}
    .fil0 {fill:#CCCCCC}
    .fil13 {fill:#D40B0B}
    .fil3 {fill:#E81515}
    .fil4 {fill:#FCD5A6}
    .fil21 {fill:red}
    .fil9 {fill:white}
    .fil15 {fill:#AE4A84;fill-rule:nonzero}
    .fil12 {fill:#D40B0B;fill-rule:nonzero}
    .fil10 {fill:url(#id0)}
   ]]>
  </style>
  <radialGradient id="id0" gradientUnits="userSpaceOnUse" gradientTransform="matrix(1.2269 -0 -0 1.28187 -1922 -1434)" cx="8471.13" cy="5085.95" r="836.47" fx="8471.13" fy="5085.95">
   <stop offset="0" style="stop-opacity:1; stop-color:#F71111"/>
   <stop offset="0.811765" style="stop-opacity:1; stop-color:#E50E0E"/>
   <stop offset="1" style="stop-opacity:1; stop-color:#D40B0B"/>
  </radialGradient>
 </defs>
 <g id="Layer_x0020_1">
  <metadata id="CorelCorpID_0Corel-Layer"/>
  <ellipse class="fil0" cx="5875.36" cy="5905.6" rx="5875.37" ry="5782.85"/>
  <path class="fil1" d="M1585.26 5053.56l399.46 0 836.72 1139.01 847.51 -1139.01 421.06 0c253.72,0 464.25,226.72 464.25,512.83l0 2963.58c0,286.1 -210.53,512.82 -464.25,512.82l-2504.74 0c-259.12,0 -464.24,-226.72 -464.24,-512.82l0 -2963.58c0,-286.11 205.12,-512.83 464.24,-512.83l-0.01 0z"/>
  <polygon class="fil1" points="3695.93,6424.69 4505.66,5334.26 5687.86,8324.84 5061.67,8832.26 "/>
  <path class="fil2" d="M5849.81 8346.43l577.6 0 -5376.56 0m4777.37 0l626.19 0 -5403.56 0m4777.37 0l647.78 0 -5425.15 0m4777.37 0l669.36 0 -5446.73 0m4755.77 0l0 -21.59 717.95 0 0 21.59 -717.95 0m0 -21.59l739.55 0 -5495.33 0m4755.78 0l761.14 0 -5516.91 0m4728.78 0l809.72 0 -5538.51 0m4728.79 0l0 -21.59 836.72 0 0 21.59 -836.72 0m0 -21.59l836.72 0 -5565.5 0m4707.19 0l858.31 0 -5565.5 0m4707.19 0l858.31 0 -5565.5 0m4707.19 0l858.31 0 -5565.5 0m4685.59 0l0 -26.99 879.9 0 0 26.99 -879.9 0"/>
  <path class="fil2" d="M5363.97 9879.51l0 -26.99 1252.38 0 0 26.99 -1252.38 0m0 -26.99l1252.38 0 -5565.5 0m4313.12 0l1252.38 0 -5565.5 0m4286.13 0l1279.37 0 -5565.5 0m4286.13 0l1279.37 0 -5565.5 0m4286.13 0l0 -21.59 1279.37 0 0 21.59 -1279.37 0m-21.59 -21.6l1300.95 0 -5565.5 0m4264.55 0l1300.95 0 -5565.5 0m4242.96 0l1322.55 0 -5565.5 0m4242.95 0l1322.55 0 -5565.5 0m4242.95 0l0 -21.58 1322.55 0 0 21.58 -1322.55 0m-21.6 -21.58l1344.15 0 -5565.5 0m4221.35 0l1344.15 0 -5565.5 0m4221.35 0l1344.15 0 -5565.5 0m4194.36 0l1371.13 0 -5565.5 0m4194.37 0l0 -26.99 1371.13 0 0 26.99 -1371.13 0m0 -26.99l1371.13 0 -5565.5 0m4172.78 0l1392.73 0 -5565.5 0m4172.77 0l1392.73 0 -5565.5 0m4151.18 0l1414.32 0 -5565.5 0m4151.18 0l0 -21.6 1414.32 0 0 21.6 -1414.32 0m0 -21.6l1414.32 0 -5565.5 0m4124.18 0l1441.31 0 -5565.5 0m4124.19 0l1441.31 0 -5565.5 0m4124.19 0l1441.31 0 -5565.5 0m4102.6 0l0 -21.59 1462.91 0 0 21.59 -1462.91 0m0 -21.59l1462.91 0 -5565.5 0m4081 0l1484.5 0 -5565.5 0m4081 0l1484.5 0 -5565.5 0m4081 0l1484.5 0 -5565.5 0m4059.41 0l0 -21.59 1506.08 0 0 21.59 -1506.08 0m0 -21.59l1506.08 0 -5565.5 0m4059.42 0l1506.08 0 -5565.5 0m4059.42 0l0 -27 1506.08 0 0 27 -1506.08 0m0 -27l1506.08 0 -5565.5 0m4059.42 0l1506.08 0 -5565.5 0m4059.42 0l1506.08 0 -5565.5 0m4081.01 0l0 -21.59 1484.5 0 0 21.59 -1484.5 0"/>
  <path class="fil2" d="M5131.85 9690.57l0 -21.59 1484.5 0 0 21.59 -1484.5 0m0 -21.59l1484.5 0 -5565.5 0m4081 0l1484.5 0 -5565.5 0m4081 0l0 -21.59 1484.5 0 0 21.59 -1484.5 0"/>
  <path class="fil2" d="M5153.44 9668.98l0 -21.59 1462.91 0 0 21.59 -1462.91 0m0 -21.59l1462.91 0 -5565.5 0m4102.59 0l1462.91 0 -5565.5 0m4102.59 0l0 -26.99 1462.91 0 0 26.99 -1462.91 0m0 -27l1462.91 0 -5565.5 0m4124.18 0l1441.31 0 -5565.5 0m4124.19 0l1441.31 0 -5565.5 0m4124.19 0l0 -21.58 1441.31 0 0 21.58 -1441.31 0m0 -21.58l1441.31 0 -5565.5 0m4124.19 0l1441.31 0 -5565.5 0m4151.19 0l1414.32 0 -5565.5 0m4151.18 0l0 -21.6 1414.32 0 0 21.6 -1414.32 0m0 -21.6l1414.32 0 -5565.5 0m4151.18 0l1414.32 0 -5565.5 0m4151.18 0l1414.32 0 -5565.5 0m4172.77 0l0 -21.59 1392.73 0 0 21.59 -1392.73 0m0 -21.59l1392.73 0 -5565.5 0m4172.77 0l1392.73 0 -5565.5 0m4172.77 0l1392.73 0 -5565.5 0m4172.77 0l0 -26.99 1392.73 0 0 26.99 -1392.73 0m21.59 -26.99l1371.13 0 -5565.5 0m4194.37 0l1371.13 0 -5565.5 0m4194.37 0l0 -21.59 1371.13 0 0 21.59 -1371.13 0m0 -21.59l1371.13 0 -5565.5 0m4194.37 0l1371.13 0 -5565.5 0m4221.36 0l1344.15 0 -5565.5 0m4221.35 0l0 -21.59 1344.15 0 0 21.59 -1344.15 0m0 -21.6l1344.15 0 -5565.5 0m4221.35 0l1344.15 0 -5565.5 0m4221.35 0l1344.15 0 -5565.5 0m4242.95 0l0 -26.99 1322.55 0 0 26.99 -1322.55 0m0 -26.99l1322.55 0 -5565.5 0m4242.95 0l1322.55 0 -5565.5 0m4242.95 0l1322.55 0 -5565.5 0m4242.95 0l0 -21.59 1322.55 0 0 21.59 -1322.55 0m21.59 -21.59l1300.95 0 -5565.5 0m4264.55 0l1300.95 0 -5565.5 0m4264.55 0l0 -21.59 1300.95 0 0 21.59 -1300.95 0"/>
  <path class="fil2" d="M5315.39 9436.86l0 -21.59 1300.95 0 0 21.59 -1300.95 0m0 -21.59l1300.95 0 -5565.5 0m4286.14 0l1279.37 0 -5565.5 0m4286.13 0l0 -26.99 1279.37 0 0 26.99 -1279.37 0"/>
  <path class="fil2" d="M5336.98 9415.27l0 -26.99 1279.37 0 0 26.99 -1279.37 0m0 -26.99l1279.37 0 -5565.5 0m4286.13 0l1279.37 0 -5565.5 0"/>
  <polygon class="fil1" points="1121.02,7628.48 4219.56,7628.48 4219.56,9048.19 1121.02,9048.19 "/>
  <path class="fil2" d="M5336.98 8065.72l0 -21.59 1279.37 0 0 21.59 -1279.37 0m0 -21.59l1279.37 0 -5565.5 0m5122.85 0l415.66 0 -5538.51 0m5122.85 0l415.66 0 -5538.51 0m5122.85 0l394.07 0 -5516.92 0m5122.85 0l0 -21.59 394.07 0 0 21.59 -394.07 0m0 -21.59l394.07 0 -5516.92 0m5122.85 0l372.47 0 -5495.32 0m5122.85 0l372.47 0 -5495.32 0m5122.85 0l372.47 0 -5495.32 0m5122.85 0l0 -21.59 350.88 0 0 21.59 -350.88 0m0 -21.6l350.88 0 -5473.73 0m5122.85 0l350.88 0 -5473.73 0m5122.85 0l323.89 0 -5446.74 0m5122.85 0l323.89 0 -5446.74 0m5122.85 0l0 -26.98 302.3 0 0 26.98 -302.3 0m0 -26.98l302.3 0 -5425.15 0m5122.85 0l302.3 0 -5425.15 0m5122.85 0l280.71 0 -5403.56 0m5122.85 0l280.71 0 -5403.56 0m5122.85 0l0 -21.59 280.71 0 0 21.59 -280.71 0m0 -21.59l253.72 0 -5376.57 0m5122.85 0l253.72 0 -5376.57 0m5122.85 0l232.12 0 -5354.97 0m5122.85 0l232.12 0 -5354.97 0m5122.85 0l0 -21.6 232.12 0 0 21.6 -232.12 0m0 -21.6l232.12 0 -5354.97 0m5122.85 0l210.53 0 -5333.38 0m5122.85 0l210.53 0 -5333.38 0m5122.85 0l188.94 0 -5311.79 0m5122.85 0l0 -26.99 188.94 0 0 26.99 -188.94 0m0 -26.99l188.94 0 -5311.79 0m5122.85 0l161.94 0 -5284.79 0m5122.85 0l161.94 0 -5284.79 0m5122.85 0l161.94 0 -5284.79 0m5122.85 0l0 -21.59 140.35 0 0 21.59 -140.35 0"/>
  <path class="fil2" d="M6222.28 8254.66l0 -21.59 394.07 0 0 21.59 -394.07 0m0 -21.59l394.07 0 -5565.5 0m5171.43 0l394.07 0 -5565.5 0m5193.03 0l0 -26.99 372.47 0 0 26.99 -372.47 0"/>
  <path class="fil2" d="M6243.88 8233.07l0 -26.99 372.47 0 0 26.99 -372.47 0m0 -27l372.47 0 -5565.5 0m5193.03 0l372.47 0 -5565.5 0m5193.03 0l0 -21.59 372.47 0 0 21.59 -372.47 0"/>
  <path class="fil2" d="M6265.47 8206.07l0 -21.59 350.88 0 0 21.59 -350.88 0m0 -21.59l350.88 0 -5565.5 0m5214.62 0l350.88 0 -5565.5 0m5214.62 0l0 -21.58 350.88 0 0 21.58 -350.88 0m0 -21.58l350.88 0 -5565.5 0m5241.6 0l323.9 0 -5565.5 0m5241.6 0l323.9 0 -5565.5 0m5241.6 0l0 -26.99 323.9 0 0 26.99 -323.9 0m0 -27l323.9 0 -5565.5 0m5241.6 0l323.9 0 -5565.5 0m5263.2 0l302.3 0 -5565.5 0m5263.2 0l0 -21.59 302.3 0 0 21.59 -302.3 0m0 -21.59l302.3 0 -5565.5 0m5263.2 0l302.3 0 -5565.5 0m5263.2 0l302.3 0 -5565.5 0m5263.2 0l275.31 0 -5538.51 0m5284.79 0l0 -21.59 253.72 0 0 21.59 -253.72 0m0 -21.59l253.72 0 -5538.51 0m5284.79 0l232.12 0 -5516.91 0m5284.79 0l232.12 0 -5516.91 0m5284.79 0l232.12 0 -5516.91 0m5284.79 0l0 -26.99 210.53 0 0 26.99 -210.53 0m0 -27l210.53 0 -5495.32 0m5311.78 0l183.54 0 -5495.32 0m5311.78 0l161.94 0 -5473.73 0m5311.79 0l161.94 0 -5473.73 0m5311.79 0l0 -21.59 161.94 0 0 21.59 -161.94 0m0 -21.59l134.95 0 -5446.73 0m5311.78 0l134.95 0 -5446.73 0m5311.78 0l113.37 0 -5425.15 0m5333.38 0l91.77 0 -5425.15 0m5333.38 0l0 -21.59 91.77 0 0 21.59 -91.77 0m0 -21.59l70.18 0 -5403.56 0m5333.38 0l70.18 0 -5403.56 0m5333.38 0l70.18 0 -5403.56 0m5333.38 0l43.19 0 -5376.57 0m5354.97 0l0 -21.59 21.59 0 0 21.59 -21.59 0"/>
  <path class="fil2" d="M5736.44 8303.25l0 -26.99 879.9 0 0 26.99 -879.9 0m0 -27l879.9 0 -5565.5 0m4658.62 0l906.89 0 -5565.5 0m4658.61 0l906.89 0 -5565.5 0m4658.61 0l0 -21.59 906.89 0 0 21.59 -906.89 0"/>
  <path class="fil2" d="M5687.86 8276.25l0 -21.59 928.49 0 0 21.59 -928.49 0m0 -21.59l928.49 0 -5565.5 0m4637.01 0l928.49 0 -5565.5 0m4615.42 0l950.07 0 -5565.5 0m4615.43 0l0 -21.59 950.07 0 0 21.59 -950.07 0"/>
  <path class="fil2" d="M5666.27 8254.66l0 -21.59 950.07 0 0 21.59 -950.07 0m-26.99 -21.59l977.07 0 -5565.5 0m4588.43 0l977.07 0 -5565.5 0m4588.43 0l977.07 0 -5565.5 0m4566.84 0l998.66 0 -5565.5 0m4566.84 0l0 -26.99 998.66 0 0 26.99 -998.66 0m0 -27l998.66 0 -5565.5 0m4545.24 0l1020.25 0 -5565.5 0m4545.25 0l1020.25 0 -5565.5 0m4545.25 0l1020.25 0 -5565.5 0m4523.66 0l0 -21.59 1041.85 0 0 21.59 -1041.85 0m0 -21.59l1041.85 0 -5565.5 0m4523.65 0l1041.85 0 -5565.5 0m4496.66 0l1068.84 0 -5565.5 0m4496.66 0l1068.84 0 -5565.5 0m4496.66 0l0 -21.58 1068.84 0 0 21.58 -1068.84 0m-21.6 -21.58l1090.43 0 -5565.5 0m4475.07 0l1090.43 0 -5565.5 0m4475.07 0l1090.43 0 -5565.5 0m4453.49 0l1112.02 0 -5565.5 0m4453.48 0l0 -26.99 1112.02 0 0 26.99 -1112.02 0m0 -27l1112.02 0 -5565.5 0m4426.49 0l1139.01 0 -5565.5 0m4426.49 0l1139.01 0 -5565.5 0m4426.49 0l1139.01 0 -5565.5 0m4404.89 0l0 -21.59 1160.6 0 0 21.59 -1160.6 0m0 -21.59l1160.6 0 -5565.5 0m4404.9 0l1160.6 0 -5565.5 0m4383.31 0l1182.2 0 -5565.5 0m4383.3 0l1182.2 0 -5565.5 0m4383.3 0l0 -21.59 1182.2 0 0 21.59 -1182.2 0m-26.99 -21.59l1209.19 0 -5565.5 0m4356.31 0l1209.19 0 -5565.5 0m4356.31 0l1209.19 0 -5565.5 0m4334.71 0l1230.78 0 -5565.5 0m4334.72 0l0 -26.99 1230.78 0 0 26.99 -1230.78 0"/>
  <path class="fil2" d="M5385.56 8092.72l0 -26.99 1230.78 0 0 26.99 -1230.78 0m-21.59 -27l1252.38 0 -5565.5 0m4313.12 0l1252.38 0 -5565.5 0m4313.12 0l1252.38 0 -5565.5 0m4286.13 0l0 -21.59 1279.37 0 0 21.59 -1279.37 0"/>
  <path class="fil2" d="M6173.7 7903.78l0 -21.59 140.35 0 0 21.59 -140.35 0m0 -21.59l118.76 0 -5241.61 0m5122.85 0l118.76 0 -5241.61 0m5122.85 0l118.76 0 -5241.61 0m5122.85 0l0 -21.59 91.77 0 0 21.59 -91.77 0"/>
  <path class="fil2" d="M6173.7 7882.19l0 -21.59 91.77 0 0 21.59 -91.77 0m0 -21.6l91.77 0 -5214.62 0m5122.85 0l70.18 0 -5193.03 0m5122.85 0l70.18 0 -5193.03 0m5122.85 0l0 -21.58 70.18 0 0 21.58 -70.18 0"/>
  <path class="fil2" d="M6173.7 7860.59l0 -21.58 48.58 0 0 21.58 -48.58 0m0 -21.58l48.58 0 -5171.43 0m5122.85 0l21.59 0 -5144.44 0m5122.85 0l21.59 0 -5144.44 0m5122.85 0l21.59 0 -5144.44 0"/>
  <polygon class="fil3" points="10233.11,8929.44 10233.11,8184.48 6832.28,8184.48 6832.28,8929.44 "/>
  <path class="fil4" d="M8559.67 1987.4c712.57,0 1263.18,550.62 1263.18,1317.16 0,712.55 -550.61,1317.15 -1263.18,1317.15 -766.54,0 -1311.75,-604.6 -1311.75,-1317.15 0,-766.54 545.21,-1317.16 1311.75,-1317.16z"/>
  <path class="fil5" d="M8559.67 1987.4c550.62,0 1095.83,383.27 1209.2,933.88 53.98,269.92 -1317.16,-167.34 -1646.44,-658.57 -221.33,286.1 -712.57,599.2 -820.53,599.2 161.95,-491.23 658.57,-874.5 1257.77,-874.5l0 0 0 -0.01z"/>
  <path class="fil6" d="M6972.63 4837.63l437.24 53.98 1149.81 2742.26 1095.83 -2742.26 388.67 -53.98c269.92,0 545.23,275.31 545.23,550.61l0 3541.19 -4113.4 0 0 -3541.19c0,-275.3 221.33,-550.61 496.63,-550.61l0 0 0 0 0 0 -0.01 0z"/>
  <path class="fil7 str0" d="M8559.67 6813.35c0,-32.38 -21.58,-53.98 -53.97,-53.98 -26.99,0 -53.99,21.59 -53.99,53.98 0,26.99 26.99,53.99 53.99,53.99 32.38,0 53.97,-26.99 53.97,-53.99z"/>
  <polygon class="fil8" points="9655.5,6759.38 10324.88,6759.38 10324.88,6845.75 9655.5,6845.75 "/>
  <polygon class="fil9" points="10152.14,6538.05 9984.8,6262.75 9655.5,6759.38 10314.08,6759.38 "/>
  <path class="fil10" d="M8478.71 4994.17l-685.58 -264.5c37.79,237.52 0,593.79 113.37,712.55l523.62 -313.09 680.17 313.09c16.19,-237.52 97.17,-464.24 53.98,-712.55l-685.56 264.5z"/>
  <path class="fil7 str0" d="M8559.67 5825.49c0,-32.39 -21.58,-53.98 -53.97,-53.98 -26.99,0 -53.99,21.59 -53.99,53.98 0,26.99 26.99,53.99 53.99,53.99 32.38,0 53.97,-26.99 53.97,-53.99z"/>
  <path class="fil9" d="M9882.23 5917.27c97.17,134.95 161.95,140.35 75.57,237.51l-1533.08 1781.39 113.37 -323.89c340.08,-966.27 723.35,-1921.75 1025.65,-2904.2l16.19 -59.39 734.15 167.34 -102.56 1041.86c-10.79,107.96 -80.97,86.36 -183.54,75.57l-145.75 -16.19 0 0 0 0z"/>
  <path class="fil11" d="M10206.12 4864.62l-626.19 -140.35c-296.89,960.87 -680.17,1943.34 -1020.25,2909.6l1311.76 -1570.86 -167.34 -226.73 404.86 48.59 97.17 -1020.25 -0.01 -0.01 0 0.01z"/>
  <path class="fil9" d="M7215.54 5879.48c-102.56,134.95 -161.94,140.35 -75.57,237.51l1387.33 1619.46 26.99 -156.56c-340.09,-971.67 -717.96,-1927.14 -1020.25,-2909.6l-16.2 -53.98 -734.15 167.34 97.17 1036.45c16.19,107.97 80.97,91.76 183.54,75.58l151.15 -16.2 -0.01 0 0 0z"/>
  <path class="fil11" d="M6891.65 4832.23l626.19 -145.75c291.51,960.87 680.18,1943.34 1020.25,2909.6l-1317.15 -1570.86 167.34 -226.73 -399.47 48.59 -97.16 -1014.85 0 -0.01 0 0.01z"/>
  <path class="fil7" d="M8262.78 2268.1c491.23,469.65 1225.38,707.17 1425.11,588.4 -539.82,-5.39 -1133.61,-329.28 -1425.11,-588.4z"/>
  <path class="fil7" d="M8343.75 2214.13c394.07,372.47 982.47,566.8 1144.41,469.64 -431.86,-5.4 -906.89,-259.11 -1144.41,-469.64z"/>
  <path class="fil7" d="M8106.24 2246.52c-226.72,259.11 -566.8,437.25 -658.57,399.46 248.31,-53.97 523.61,-253.71 658.57,-399.46z"/>
  <path class="fil12" d="M8030.67 4929.4c32.38,16.19 377.87,48.59 329.29,113.37 -75.58,-59.39 -367.07,-43.2 -329.29,-113.37z"/>
  <path class="fil12" d="M8063.05 5118.33c26.99,0 318.5,-124.16 307.7,-53.99 -80.98,-10.79 -307.7,124.17 -307.7,53.99z"/>
  <path class="fil12" d="M8959.15 4907.8c-32.39,21.6 -426.47,86.37 -372.48,156.54 86.37,-70.17 415.66,-80.97 372.48,-156.54z"/>
  <path class="fil12" d="M8926.76 5123.74c-32.38,0 -361.68,-113.37 -350.88,-32.39 97.16,-21.59 350.88,113.36 350.88,32.39z"/>
  <path class="fil13" d="M8386.94 4918.6c70.17,16.2 113.36,0 172.73,0 16.2,0 37.79,21.6 32.39,43.19 -10.79,80.98 -10.79,140.35 0,194.34 5.4,21.59 -26.99,32.39 -48.58,26.99 -59.39,-16.2 -97.17,16.19 -156.55,16.19 -21.59,0 -37.79,-21.59 -37.79,-43.19 0,-64.78 16.2,-118.76 0,-194.34 -5.4,-21.58 21.59,-48.58 37.79,-43.19l0.01 0.01z"/>
  <path class="fil4" d="M2853.83 2079.17c712.56,0 1263.17,545.22 1263.17,1311.75 0,712.57 -550.61,1317.16 -1263.17,1317.16 -766.54,0 -1317.15,-604.59 -1317.15,-1317.16 0,-766.53 550.61,-1311.75 1317.15,-1311.75z"/>
  <path class="fil14" d="M2853.83 2079.17c550.61,0 1095.83,383.27 1203.79,928.49 59.38,275.3 -1311.76,-161.95 -1641.04,-658.58 -221.33,291.5 -712.56,604.6 -820.53,604.6 161.95,-491.23 653.18,-874.5 1257.78,-874.5l0 0 0 -0.01z"/>
  <path class="fil14" d="M2556.93 2359.88c491.24,464.24 1225.39,707.15 1425.11,583 -539.81,-5.4 -1133.61,-323.89 -1425.11,-583z"/>
  <path class="fil14" d="M2637.9 2305.9c394.07,372.47 982.47,561.41 1144.42,464.25 -431.86,0 -906.9,-259.12 -1144.42,-464.25z"/>
  <path class="fil14" d="M2400.38 2338.28c-226.71,259.12 -566.8,431.86 -663.97,394.08 253.72,-48.59 529.03,-248.32 663.97,-394.08z"/>
  <path class="fil15" d="M2270.83 5625.76l529.02 815.13c232.12,-307.69 448.04,-647.78 653.18,-1014.85l-43.19 10.79 -566.8 771.94 -16.2 26.99 -16.19 -26.99 -599.2 -815.12 -5.4 129.55 64.78 102.56 0 0zm512.82 863.71l-529.02 -842.12 -91.77 -107.96 -5.4 -5.4 5.4 -5.39 5.4 -199.74 0 -64.78 37.79 48.58c199.73,307.7 404.86,588.4 620.79,847.52 167.34,-194.34 350.88,-448.04 550.61,-755.75l5.4 -5.39 5.4 -5.4 107.96 -26.99 53.99 -10.79 -26.99 43.18 -701.76 1090.43 -21.59 32.39 -16.19 -32.39 -0.02 0z"/>
  <path class="fil16" d="M4486.05 6948.13l0 46.77 101.36 0 0 257.3c-101.36,0 -101.36,-54.58 -155.94,46.78 -46.77,54.58 0,54.58 -101.36,109.15 -46.77,0 0,-54.58 -46.77,0l101.36 0 0 46.78c46.77,0 46.77,54.58 46.77,54.58 54.58,0 0,0 54.58,-54.58 0,0 54.58,0 54.58,-46.78 46.78,0 101.36,-54.58 101.36,-54.58 101.36,-101.36 148.14,-101.36 249.5,-101.36 0,-54.58 0,-54.58 54.58,-54.58l0 54.58 54.58 0 46.77 46.78 0 -46.78 54.58 0 0 46.78c-54.58,54.58 -101.35,109.15 -54.58,210.51 101.36,0 0,0 54.58,-54.59 46.78,54.59 0,0 0,54.59 0,101.35 46.78,46.77 46.78,155.93l-46.78 -54.58 0 -54.58c-155.93,-148.13 -210.5,0 -210.5,0l0 54.58c-46.78,54.58 -46.78,0 -46.78,54.58 0,46.78 0,46.78 46.78,46.78l826.45 1231.89c101.35,-54.58 257.29,-202.72 358.66,-257.3l717.29 0 460.02 -1387.82 -717.31 0c-358.65,-46.78 -460,0 -615.94,-148.13l-717.3 -717.31c-101.35,46.78 -514.58,358.66 -662.73,460.01l-54.58 54.58 0 0 0 0 -0.01 0.02z"/>
  <polygon class="fil17" points="3815.53,5357.58 7667.13,5357.58 7667.13,9965.45 3815.53,9965.45 "/>
  <polygon class="fil18" points="3971.46,5458.95 7557.97,5458.95 7557.97,9817.32 3971.46,9817.32 "/>
  <polygon class="fil9" points="4330.11,5716.24 7199.32,5716.24 7199.32,9505.44 4330.11,9505.44 "/>
  <polygon class="fil19" points="4844.7,5357.58 6692.53,5357.58 6692.53,5817.6 4844.7,5817.6 "/>
  <polygon class="fil20" points="6177.94,5357.58 6177.94,5201.66 5304.72,5201.66 5304.72,5357.58 4844.7,5357.58 4844.7,5404.37 6692.53,5404.37 6692.53,5357.58 "/>
  <polygon class="fil21" points="4844.7,6534.9 5047.41,6277.6 5148.77,6223.03 4790.13,6737.62 4641.99,6433.54 4743.34,6378.96 "/>
  <path class="fil22" d="M5257.93 6893.54l1582.74 0 0 202.72 -1582.74 0 0 -202.72zm0 514.59l1582.74 0 0 202.71 -1582.74 0 0 -202.71zm0 506.78l1582.74 0 0 210.51 -1582.74 0 0 -210.51zm0 514.59l1582.74 0 0 202.71 -1582.74 0 0 -202.71zm0 514.58l1582.74 0 0 202.72 -1582.74 0 0 -202.72zm0 -2565.12l1582.74 0 0 202.71 -1582.74 0 0 -202.71z"/>
  <polygon class="fil21" points="4844.7,7033.89 5047.41,6776.6 5148.77,6722.02 4790.13,7236.6 4641.99,6932.54 4743.34,6877.95 "/>
  <polygon class="fil21" points="4844.7,7525.08 5047.41,7267.79 5148.77,7221.01 4790.13,7735.59 4641.99,7423.72 4743.34,7376.95 "/>
  <polygon class="fil21" points="4844.7,8024.06 5047.41,7766.78 5148.77,7719.99 4790.13,8226.77 4641.99,7922.71 4743.34,7868.14 "/>
  <polygon class="fil21" points="4844.7,8523.06 5047.41,8265.77 5148.77,8211.18 4790.13,8725.77 4641.99,8421.7 4743.34,8367.12 "/>
  <polygon class="fil21" points="4844.7,9022.05 5047.41,8764.76 5148.77,8710.18 4790.13,9224.76 4641.99,8920.69 4743.34,8866.12 "/>
 </g>
</svg>
