<?xml version="1.0" encoding="UTF-8"?>
<!DOCTYPE svg PUBLIC "-//W3C//DTD SVG 1.1//EN" "http://www.w3.org/Graphics/SVG/1.1/DTD/svg11.dtd">
<!-- Creator: CorelDRAW X6 -->
<svg xmlns="http://www.w3.org/2000/svg" xml:space="preserve" width="451.781mm" height="20.066mm" version="1.1" style="shape-rendering:geometricPrecision; text-rendering:geometricPrecision; image-rendering:optimizeQuality; fill-rule:evenodd; clip-rule:evenodd"
viewBox="0 0 45178 2007"
 xmlns:xlink="http://www.w3.org/1999/xlink">
 <defs>
  <style type="text/css">
   <![CDATA[
    .fil3 {fill:#37AFB4;fill-rule:nonzero}
    .fil0 {fill:#80C688;fill-rule:nonzero}
    .fil1 {fill:#B45A78;fill-rule:nonzero}
    .fil4 {fill:#D8A06E;fill-rule:nonzero}
    .fil2 {fill:#F00C0C;fill-rule:nonzero}
    .fil5 {fill:#F0F2F7;fill-rule:nonzero}
    .fil6 {fill:white;fill-rule:nonzero}
   ]]>
  </style>
 </defs>
 <g id="Слой_x0020_1">
  <metadata id="CorelCorpID_0Corel-Layer"/>
  <polygon class="fil0" points="5939,-17 6760,952 5928,1933 819,1933 819,-17 "/>
  <polygon class="fil1" points="7837,-15 14757,-17 18006,-17 18941,985 18005,1945 8364,1945 7567,1818 8344,795 "/>
  <path class="fil2" d="M8392 1948l-1446 0 850 -1037c51,-63 89,-120 114,-171 24,-51 37,-99 37,-143 0,-69 -21,-125 -63,-168 -42,-43 -97,-64 -165,-64 -81,0 -143,26 -186,80 -44,53 -66,130 -66,231l0 24 -455 0 0 -13c0,-221 62,-395 188,-522 98,-100 225,-161 380,-182l273 0c149,20 271,73 368,160 126,113 189,263 189,451 0,91 -20,180 -59,267 -40,87 -105,181 -197,285l-341 387 579 0 0 415 0 0 0 0z"/>
  <polygon class="fil3" points="19704,-17 30759,-17 31639,950 30759,1946 20396,1946 19678,1956 20152,1536 19933,788 19912,403 "/>
  <path class="fil2" d="M18983 1275l464 0 0 31c0,83 19,146 57,189 37,43 93,65 166,65 77,0 136,-21 177,-62 41,-41 62,-101 62,-179 0,-87 -22,-152 -66,-193 -43,-41 -112,-61 -206,-61 -15,0 -27,0 -35,0 -7,0 -15,1 -21,1l0 -305 26 0c84,0 148,-19 193,-57 45,-38 68,-94 68,-167 0,-58 -19,-105 -57,-142 -38,-36 -87,-54 -146,-54 -64,0 -113,17 -148,53 -35,36 -53,86 -55,152l-443 0c3,-178 63,-316 180,-414 116,-99 279,-148 489,-148 188,0 335,44 442,132 107,88 161,207 161,358 0,96 -24,178 -74,245 -49,67 -121,115 -215,146 114,22 203,73 266,155 64,82 95,186 95,314 0,184 -63,334 -190,449 -126,116 -291,173 -495,173 -214,0 -383,-59 -508,-179 -125,-119 -187,-280 -187,-484l0 -18 0 0z"/>
  <polygon class="fil4" points="32589,-12 44394,-12 45144,995 44394,1952 32838,1962 32566,262 "/>
  <path class="fil2" d="M32575 1126l0 -577c0,-53 1,-98 3,-133 2,-36 6,-67 10,-92 -16,39 -34,78 -54,116 -20,39 -44,83 -73,131l-340 555 454 0zm0 836l0 -444 -842 0 0 -392 689 -1138 575 0 0 1138 205 0 0 392 -205 0 0 444 -422 0 0 0 0 0z"/>
  <polygon class="fil2" points="440,1938 440,421 -21,421 225,-17 977,-17 977,1938 "/>
  <path class="fil5" d="M1347 561l-100 -23c22,-82 83,-123 183,-123 59,0 104,13 134,39 30,26 45,57 45,92 0,24 -7,46 -20,65 -14,20 -35,37 -62,52 33,11 58,27 75,48 17,21 25,47 25,78 0,45 -16,81 -49,108 -32,27 -81,41 -146,41 -52,0 -94,-9 -125,-26 -30,-18 -53,-51 -69,-99l93 -31c10,31 23,50 39,59 16,9 36,14 59,14 32,0 56,-7 71,-21 15,-14 22,-30 22,-48 0,-21 -8,-38 -25,-50 -17,-13 -42,-19 -75,-19l-24 0 0 -77 12 0c31,0 55,-7 72,-21 16,-14 24,-32 24,-55 0,-19 -6,-34 -20,-47 -13,-13 -32,-19 -57,-19 -43,0 -70,21 -82,63z"/>
  <path id="_1" class="fil5" d="M2172 929l-110 0 -44 -115 -202 0 -42 115 -109 0 197 -505 108 0 202 505zm-187 -200l-70 -187 -68 187 138 0z"/>
  <polygon id="_2" class="fil5" points="2219,424 2620,424 2620,929 2518,929 2518,509 2321,509 2321,929 2219,929 "/>
  <path id="_3" class="fil5" d="M2703 679c0,-51 8,-94 23,-129 12,-26 28,-49 47,-70 20,-20 42,-35 66,-45 31,-14 68,-20 109,-20 74,0 134,23 179,69 44,46 67,111 67,193 0,82 -23,146 -67,192 -44,46 -104,69 -178,69 -75,0 -135,-23 -179,-69 -45,-46 -67,-109 -67,-190zm105 -3c0,57 14,101 40,130 27,30 60,45 101,45 41,0 74,-15 100,-44 26,-30 39,-74 39,-132 0,-58 -12,-102 -38,-130 -25,-29 -59,-43 -101,-43 -42,0 -76,15 -102,43 -26,29 -39,73 -39,131z"/>
  <path id="_4" class="fil5" d="M3292 424l354 0 0 505 -102 0 0 -420 -152 0 0 216c0,62 -2,105 -6,129 -4,25 -14,44 -30,57 -16,14 -41,21 -75,21 -12,0 -34,-1 -66,-4l0 -79 23 1c22,0 36,-3 43,-9 8,-6 11,-20 11,-42l0 -87 0 -288z"/>
  <polygon id="_5" class="fil5" points="3751,929 3751,424 3853,424 3853,623 4052,623 4052,424 4154,424 4154,929 4052,929 4052,708 3853,708 3853,929 "/>
  <path id="_6" class="fil5" d="M4562 929l0 -211 -20 0c-33,0 -55,5 -69,14 -13,10 -36,39 -68,87l-73 110 -122 0 62 -99c24,-39 43,-66 58,-82 14,-16 32,-30 54,-42 -47,-7 -81,-24 -102,-49 -20,-26 -31,-56 -31,-91 0,-31 8,-58 23,-82 16,-24 36,-40 62,-48 25,-8 63,-12 114,-12l215 0 0 505 -103 0zm0 -420l-79 0c-41,0 -67,1 -80,3 -13,2 -24,8 -33,19 -9,10 -14,24 -14,41 0,18 5,32 14,42 8,11 20,17 33,20 14,2 42,4 84,4l75 0 0 -129z"/>
  <polygon id="_7" class="fil5" points="4767,929 4767,424 5141,424 5141,509 4870,509 4870,621 5122,621 5122,707 4870,707 4870,844 5151,844 5151,929 "/>
  <polygon id="_8" class="fil5" points="5352,929 5352,509 5202,509 5202,424 5603,424 5603,509 5454,509 5454,929 "/>
  <polygon id="_9" class="fil5" points="5669,929 5669,424 6043,424 6043,509 5771,509 5771,621 6024,621 6024,707 5771,707 5771,844 6053,844 6053,929 "/>
  <path id="_10" class="fil5" d="M1347 1350l-100 -24c22,-82 83,-123 183,-123 59,0 104,13 134,39 30,26 45,57 45,92 0,24 -7,46 -20,65 -14,20 -35,37 -62,52 33,11 58,28 75,49 17,21 25,47 25,78 0,44 -16,80 -49,107 -32,28 -81,41 -146,41 -52,0 -94,-8 -125,-26 -30,-18 -53,-51 -69,-99l93 -31c10,31 23,51 39,60 16,9 36,13 59,13 32,0 56,-7 71,-21 15,-14 22,-30 22,-48 0,-21 -8,-37 -25,-50 -17,-13 -42,-19 -75,-19l-24 0 0 -76 12 0c31,0 55,-7 72,-21 16,-14 24,-33 24,-56 0,-19 -6,-34 -20,-47 -13,-13 -32,-19 -57,-19 -43,0 -70,21 -82,64z"/>
  <path id="_11" class="fil5" d="M2172 1717l-110 0 -44 -115 -202 0 -42 115 -109 0 197 -505 108 0 202 505zm-187 -200l-70 -187 -68 187 138 0z"/>
  <path id="_12" class="fil5" d="M2529 1717l0 -211 -21 0c-33,0 -55,5 -69,15 -13,9 -35,38 -67,86l-74 110 -122 0 62 -98c24,-39 44,-67 58,-83 14,-15 33,-29 54,-42 -47,-7 -81,-23 -101,-49 -21,-25 -32,-56 -32,-91 0,-31 8,-58 24,-82 15,-24 36,-40 61,-48 25,-8 63,-12 114,-12l215 0 0 505 -102 0zm0 -420l-80 0c-41,0 -67,1 -80,3 -13,2 -24,8 -33,19 -9,10 -14,24 -14,41 0,18 5,32 14,43 9,10 20,16 34,19 13,3 41,4 83,4l76 0 0 -129z"/>
  <path id="_13" class="fil5" d="M2734 1212l202 0c40,0 70,2 89,5 20,3 38,10 53,21 16,10 28,24 39,42 10,17 15,37 15,59 0,23 -6,45 -19,65 -12,20 -30,34 -51,44 30,9 54,25 70,46 17,22 25,47 25,76 0,24 -5,46 -16,68 -11,21 -25,39 -44,52 -18,13 -41,21 -68,24 -17,2 -58,3 -123,3l-172 0 0 -505zm102 84l0 116 67 0c39,0 64,0 74,-1 17,-2 31,-8 41,-18 10,-10 15,-23 15,-40 0,-15 -4,-28 -13,-38 -9,-9 -21,-15 -38,-17 -11,-1 -40,-2 -87,-2l-59 0zm0 200l0 136 95 0c36,0 60,-1 70,-3 15,-3 27,-10 37,-20 9,-11 14,-25 14,-43 0,-16 -4,-29 -11,-39 -7,-11 -18,-19 -32,-23 -14,-5 -44,-8 -91,-8l-82 0z"/>
  <path id="_14" class="fil5" d="M3245 1212l102 0 0 215c23,-2 38,-8 46,-17 8,-10 21,-36 37,-79 21,-55 43,-89 64,-102 21,-13 55,-20 102,-20 2,0 7,0 15,0l0 75 -15 0c-21,0 -36,2 -45,7 -10,6 -18,13 -24,24 -6,11 -15,32 -26,65 -7,18 -13,32 -21,44 -7,12 -20,23 -38,33 23,7 41,20 56,39 15,20 31,47 49,83l69 138 -120 0 -61 -130c-1,-2 -3,-5 -6,-11 -1,-1 -5,-9 -12,-23 -13,-25 -24,-41 -32,-47 -8,-6 -21,-9 -38,-10l0 221 -102 0 0 -505z"/>
  <path id="_15" class="fil5" d="M3640 1212l115 0 117 262 101 -262 106 0 -171 384c-18,42 -37,73 -56,95 -20,22 -45,33 -75,33 -30,0 -54,-2 -71,-6l0 -76c15,1 28,1 39,1 24,0 41,-4 51,-13 10,-8 20,-27 29,-56l-185 -362z"/>
  <polygon class="fil5" points="8768,389 8863,389 8863,726 9068,389 9169,389 9169,895 9074,895 9074,564 8869,895 8768,895 "/>
  <path id="_1_0" class="fil5" d="M9597 708l99 31c-16,55 -41,97 -76,124 -35,27 -80,40 -134,40 -68,0 -123,-23 -166,-69 -43,-46 -65,-108 -65,-188 0,-84 22,-149 65,-196 44,-46 101,-70 172,-70 62,0 112,19 150,55 23,22 41,53 52,93l-101 24c-6,-26 -18,-46 -37,-62 -19,-15 -42,-22 -69,-22 -38,0 -68,13 -92,40 -23,27 -35,70 -35,131 0,63 12,109 35,136 23,27 53,41 90,41 27,0 50,-9 70,-26 19,-18 33,-45 42,-82z"/>
  <polygon id="_2_1" class="fil5" points="9785,389 10186,389 10186,895 10084,895 10084,475 9887,475 9887,895 9785,895 "/>
  <path id="_3_2" class="fil5" d="M10269 645c0,-51 8,-95 23,-130 12,-25 27,-49 47,-69 20,-21 42,-36 66,-46 31,-13 67,-20 109,-20 74,0 134,23 178,70 45,46 68,110 68,193 0,81 -23,145 -67,192 -44,46 -104,69 -178,69 -75,0 -135,-23 -179,-69 -45,-46 -67,-109 -67,-190zm105 -3c0,57 14,100 40,130 26,29 60,44 101,44 41,0 74,-14 100,-44 26,-29 39,-73 39,-132 0,-58 -12,-101 -38,-129 -25,-29 -59,-43 -101,-43 -42,0 -76,14 -102,43 -26,29 -39,72 -39,131z"/>
  <path id="_4_3" class="fil5" d="M10858 389l354 0 0 506 -103 0 0 -420 -151 0 0 215c0,62 -2,105 -6,130 -5,24 -15,43 -31,57 -16,14 -40,20 -74,20 -12,0 -34,-1 -66,-3l0 -79 23 0c21,0 36,-3 43,-8 8,-6 11,-20 11,-43l0 -86 0 -289z"/>
  <polygon id="_5_4" class="fil5" points="11317,895 11317,389 11419,389 11419,588 11618,588 11618,389 11720,389 11720,895 11618,895 11618,674 11419,674 11419,895 "/>
  <polygon id="_6_5" class="fil5" points="11828,389 11923,389 11923,726 12127,389 12229,389 12229,895 12134,895 12134,564 11929,895 11828,895 "/>
  <polygon id="_7_6" class="fil5" points="12447,895 12447,475 12297,475 12297,389 12698,389 12698,475 12549,475 12549,895 "/>
  <polygon id="_8_7" class="fil5" points="12764,895 12764,389 13138,389 13138,475 12867,475 12867,587 13119,587 13119,672 12867,672 12867,809 13148,809 13148,895 "/>
  <path id="_9_8" class="fil5" d="M13271 389l354 0 0 506 -102 0 0 -420 -152 0 0 215c0,62 -2,105 -6,130 -4,24 -14,43 -30,57 -16,14 -41,20 -75,20 -12,0 -34,-1 -65,-3l0 -79 23 0c21,0 35,-3 43,-8 7,-6 11,-20 11,-43l-1 -86 0 -289z"/>
  <polygon id="_10_9" class="fil5" points="13731,389 13827,389 13827,726 14031,389 14133,389 14133,895 14038,895 14038,564 13833,895 13731,895 "/>
  <path id="_11_10" class="fil5" d="M14474 389l349 0 0 420 44 0 0 196 -85 0 0 -110 -317 0 0 110 -85 0 0 -196 43 0c21,-43 34,-93 41,-150 7,-57 10,-129 10,-216l0 -54zm98 86c0,153 -15,264 -43,334l191 0 0 -334 -148 0z"/>
  <polygon id="_12_11" class="fil5" points="14936,895 14936,389 15310,389 15310,475 15038,475 15038,587 15291,587 15291,672 15038,672 15038,809 15320,809 15320,895 "/>
  <path id="_13_12" class="fil5" d="M15443 389l354 0 0 506 -103 0 0 -420 -151 0 0 215c0,62 -2,105 -7,130 -4,24 -14,43 -30,57 -16,14 -41,20 -75,20 -12,0 -33,-1 -65,-3l0 -79 23 0c21,0 36,-3 43,-8 7,-6 11,-20 11,-43l0 -86 0 -289z"/>
  <path id="_14_13" class="fil5" d="M16357 895l-111 0 -43 -115 -203 0 -42 115 -108 0 196 -506 108 0 203 506zm-187 -201l-71 -187 -68 187 139 0z"/>
  <path id="_15_14" class="fil5" d="M16411 389l102 0 0 211 82 0c6,-62 28,-114 66,-156 38,-43 93,-64 165,-64 70,0 125,23 166,68 41,45 62,109 62,193 0,55 -9,102 -27,141 -18,39 -43,69 -76,90 -33,21 -73,32 -122,32 -50,0 -89,-8 -118,-24 -30,-15 -55,-41 -77,-75 -22,-35 -35,-75 -39,-119l-82 0 0 209 -102 0 0 -506zm287 253c0,57 11,100 33,131 22,30 53,45 94,45 41,0 72,-15 93,-45 20,-30 31,-76 31,-136 0,-59 -12,-101 -36,-128 -24,-27 -55,-41 -92,-41 -36,0 -66,14 -89,41 -23,28 -34,72 -34,133z"/>
  <polygon id="_16" class="fil5" points="17235,895 17235,475 17085,475 17085,389 17486,389 17486,475 17337,475 17337,895 "/>
  <path id="_17" class="fil5" d="M8766 1178l202 0c41,0 70,1 90,5 20,3 37,10 53,20 15,11 28,25 39,43 10,17 15,37 15,59 0,23 -6,45 -19,64 -13,20 -30,35 -52,45 31,9 54,24 71,46 17,21 25,47 25,76 0,23 -6,45 -16,67 -11,22 -26,39 -44,52 -19,13 -41,21 -69,24 -16,2 -58,3 -123,4l-172 0 0 -505zm103 84l0 116 67 0c39,0 64,-1 73,-2 18,-2 32,-8 42,-18 10,-10 15,-23 15,-39 0,-16 -5,-28 -13,-38 -9,-10 -22,-16 -39,-18 -10,-1 -39,-1 -87,-1l-58 0zm0 200l0 135 94 0c37,0 60,-1 70,-3 15,-2 28,-9 37,-20 10,-11 15,-25 15,-43 0,-15 -4,-28 -11,-39 -8,-10 -18,-18 -32,-23 -14,-5 -44,-7 -91,-7l-82 0z"/>
  <path id="_18" class="fil5" d="M9696 1683l-110 0 -44 -115 -203 0 -42 115 -108 0 196 -505 108 0 203 505zm-187 -201l-70 -187 -69 187 139 0z"/>
  <polygon id="_19" class="fil5" points="9749,1683 9749,1178 9902,1178 9993,1522 10082,1178 10236,1178 10236,1683 10141,1683 10141,1285 10041,1683 9943,1683 9844,1285 9843,1683 "/>
  <polygon id="_20" class="fil5" points="10535,1178 10937,1178 10937,1683 10835,1683 10835,1263 10638,1263 10638,1683 10535,1683 "/>
  <path id="_21" class="fil5" d="M11041 1683l0 -505 164 0c62,0 102,2 121,7 29,8 53,24 73,50 19,25 29,58 29,98 0,31 -6,57 -17,78 -11,21 -25,38 -43,50 -17,12 -35,20 -53,24 -24,5 -59,7 -105,7l-66 0 0 191 -103 0zm103 -420l0 144 55 0c40,0 67,-3 81,-8 13,-5 24,-14 31,-25 8,-11 12,-24 12,-39 0,-19 -6,-34 -16,-46 -11,-12 -25,-19 -41,-23 -12,-2 -37,-3 -73,-3l-49 0z"/>
  <polygon id="_22" class="fil5" points="11512,1683 11512,1178 11886,1178 11886,1263 11614,1263 11614,1375 11867,1375 11867,1461 11614,1461 11614,1597 11896,1597 11896,1683 "/>
  <path id="_23" class="fil5" d="M12023 1178l349 0 0 419 44 0 0 196 -85 0 0 -110 -317 0 0 110 -85 0 0 -196 43 0c21,-43 35,-93 41,-150 7,-57 10,-129 10,-216l0 -53zm98 85c0,153 -14,264 -43,334l192 0 0 -334 -149 0z"/>
  <path id="_24" class="fil5" d="M12521 1178l354 0 0 505 -102 0 0 -420 -152 0 0 216c0,61 -2,105 -6,129 -4,24 -14,44 -30,57 -16,14 -41,21 -75,21 -12,0 -34,-2 -65,-4l0 -79 23 0c21,0 35,-2 43,-8 7,-6 11,-20 11,-42l-1 -87 0 -288z"/>
  <path id="_25" class="fil5" d="M12959 1433c0,-51 8,-94 23,-130 12,-25 27,-48 47,-69 20,-20 42,-36 65,-46 32,-13 68,-20 109,-20 75,0 135,24 179,70 45,46 67,111 67,193 0,82 -22,146 -66,192 -45,46 -104,69 -178,69 -75,0 -135,-23 -179,-69 -45,-46 -67,-109 -67,-190zm105 -3c0,57 13,101 40,130 26,30 60,45 101,45 40,0 74,-15 100,-44 26,-30 39,-74 39,-133 0,-57 -12,-101 -38,-129 -25,-29 -59,-43 -101,-43 -42,0 -76,14 -102,43 -26,29 -39,73 -39,131z"/>
  <path id="_26" class="fil5" d="M13836 1178l0 215c18,-2 30,-8 39,-19 9,-11 21,-37 36,-77 20,-53 41,-87 62,-101 21,-14 56,-22 105,-22 2,0 7,0 15,0l0 76 -15 -1c-21,0 -36,3 -46,8 -9,5 -17,13 -23,24 -6,10 -15,32 -27,65 -6,17 -13,32 -20,44 -7,12 -20,23 -38,33 22,7 41,20 56,39 15,19 31,47 49,83l69 138 -120 0 -61 -130c-1,-2 -3,-6 -6,-11 -2,-3 -6,-11 -13,-24 -12,-24 -23,-39 -31,-46 -8,-7 -18,-10 -31,-10l0 221 -99 0 0 -221c-12,0 -22,3 -30,10 -9,6 -19,22 -32,46 -7,14 -11,22 -13,24 -2,3 -4,7 -5,11l-61 130 -120 0 69 -138c17,-35 33,-62 48,-82 15,-20 34,-33 57,-40 -18,-10 -31,-21 -38,-33 -8,-12 -14,-26 -21,-44 -11,-32 -20,-54 -26,-65 -6,-10 -13,-18 -23,-24 -10,-5 -26,-8 -48,-8 -3,0 -7,0 -13,1l0 -76c7,0 12,0 15,0 49,0 84,8 105,22 21,15 41,48 61,101 16,40 28,66 37,77 8,11 21,17 38,19l0 -215 99 0z"/>
  <polygon id="_27" class="fil5" points="14157,1683 14157,1178 14531,1178 14531,1263 14260,1263 14260,1375 14512,1375 14512,1461 14260,1461 14260,1597 14541,1597 14541,1683 "/>
  <polygon id="_28" class="fil5" points="14628,1683 14628,1178 14730,1178 14730,1377 14929,1377 14929,1178 15032,1178 15032,1683 14929,1683 14929,1462 14730,1462 14730,1683 "/>
  <polygon id="_29" class="fil5" points="15139,1178 15234,1178 15234,1514 15439,1178 15540,1178 15540,1683 15445,1683 15445,1352 15241,1683 15139,1683 "/>
  <path id="_30" class="fil5" d="M15947 1683l0 -211 -21 0c-32,0 -55,5 -68,14 -14,10 -36,39 -68,87l-73 110 -122 0 61 -99c24,-39 44,-66 58,-82 15,-16 33,-30 54,-42 -47,-8 -80,-24 -101,-49 -21,-26 -31,-56 -31,-91 0,-31 7,-58 23,-82 15,-24 36,-40 61,-48 26,-8 64,-12 114,-12l215 0 0 505 -102 0zm0 -420l-80 0c-40,0 -67,1 -80,3 -12,2 -23,8 -33,18 -9,11 -13,25 -13,42 0,18 4,32 13,42 9,11 20,17 34,20 13,2 41,3 83,3l76 0 0 -128z"/>
  <path class="fil5" d="M20728 319l202 0c40,0 70,2 90,5 20,3 37,10 53,21 15,10 28,24 38,42 11,17 16,37 16,59 0,23 -6,45 -19,65 -13,19 -30,34 -52,44 31,9 54,24 71,46 16,22 25,47 25,76 0,23 -6,46 -16,67 -11,22 -26,40 -44,53 -19,13 -42,21 -69,24 -17,1 -58,3 -123,3l-172 0 0 -505zm103 84l0 116 66 0c40,0 65,0 74,-2 18,-2 31,-8 41,-18 10,-10 15,-23 15,-39 0,-15 -4,-28 -13,-38 -8,-10 -21,-15 -38,-17 -10,-2 -39,-2 -87,-2l-58 0zm0 200l0 136 94 0c37,0 60,-1 70,-3 15,-3 28,-10 37,-21 10,-10 14,-25 14,-43 0,-15 -3,-28 -11,-38 -7,-11 -18,-19 -31,-24 -14,-4 -45,-7 -91,-7l-82 0z"/>
  <path id="_1_15" class="fil5" d="M21241 319l102 0 0 202 136 0c36,0 67,5 92,14 26,10 48,28 65,53 17,25 26,54 26,86 0,35 -9,64 -27,89 -18,25 -38,41 -60,49 -22,8 -54,12 -96,12l-238 0 0 -505zm102 420l99 0c32,0 54,-2 67,-5 12,-3 23,-10 33,-21 10,-11 15,-24 15,-40 0,-22 -8,-39 -24,-50 -16,-11 -45,-17 -87,-17l-103 0 0 133zm377 -420l103 0 0 505 -103 0 0 -505z"/>
  <path id="_2_16" class="fil5" d="M21931 319l377 0 0 85 -275 0 0 117 136 0c38,0 69,5 94,14 25,9 46,26 63,51 18,25 27,54 27,87 0,34 -9,63 -27,88 -18,24 -38,41 -60,50 -23,9 -55,13 -97,13l-238 0 0 -505zm102 420l99 0c32,0 54,-2 67,-5 13,-3 24,-10 33,-21 10,-11 15,-24 15,-40 0,-23 -9,-40 -25,-51 -17,-10 -45,-15 -85,-15l-104 0 0 132z"/>
  <polygon id="_3_17" class="fil5" points="22437,319 22532,319 22532,655 22737,319 22839,319 22839,824 22743,824 22743,493 22539,824 22437,824 "/>
  <path id="_4_18" class="fil5" d="M22943 824l0 -505 163 0c62,0 103,2 122,7 28,8 53,24 72,50 20,25 30,58 30,98 0,31 -6,57 -17,79 -12,21 -26,37 -43,49 -17,12 -35,20 -53,24 -24,5 -59,8 -106,8l-66 0 0 190 -102 0zm102 -420l0 144 56 0c40,0 67,-3 80,-8 14,-5 24,-13 32,-25 7,-11 11,-24 11,-39 0,-19 -5,-34 -16,-46 -11,-12 -24,-19 -41,-22 -12,-3 -36,-4 -73,-4l-49 0z"/>
  <path id="_5_19" class="fil5" d="M23807 824l-111 0 -43 -115 -203 0 -42 115 -108 0 196 -505 108 0 203 505zm-187 -200l-71 -187 -68 187 139 0z"/>
  <polygon id="_6_20" class="fil5" points="23861,824 23861,319 24235,319 24235,404 23963,404 23963,516 24216,516 24216,602 23963,602 23963,739 24245,739 24245,824 "/>
  <polygon id="_7_21" class="fil5" points="24445,824 24445,404 24296,404 24296,319 24696,319 24696,404 24548,404 24548,824 "/>
  <polygon id="_8_22" class="fil5" points="24763,824 24763,319 25137,319 25137,404 24865,404 24865,516 25118,516 25118,602 24865,602 24865,739 25146,739 25146,824 "/>
  <path id="_9_23" class="fil5" d="M25752 638l99 30c-15,56 -40,97 -76,124 -35,27 -80,41 -134,41 -67,0 -122,-23 -165,-69 -43,-46 -65,-109 -65,-188 0,-85 22,-150 65,-196 43,-47 101,-70 171,-70 62,0 112,18 151,55 23,21 40,52 52,93l-101 24c-6,-26 -19,-47 -38,-62 -19,-15 -42,-23 -69,-23 -37,0 -68,14 -91,41 -23,26 -35,70 -35,130 0,64 12,109 34,136 24,27 53,41 90,41 27,0 51,-9 70,-26 20,-17 34,-44 42,-81z"/>
  <path id="_10_24" class="fil5" d="M26376 824l-110 0 -43 -115 -203 0 -42 115 -108 0 196 -505 108 0 202 505zm-187 -200l-70 -187 -68 187 138 0z"/>
  <polygon id="_11_25" class="fil5" points="26429,824 26429,319 26583,319 26673,663 26763,319 26916,319 26916,824 26822,824 26821,426 26722,824 26623,824 26524,426 26524,824 "/>
  <path id="_12_26" class="fil5" d="M26997 575c0,-52 8,-95 24,-130 11,-26 27,-49 47,-70 19,-20 41,-35 65,-45 31,-14 68,-20 109,-20 74,0 134,23 179,69 44,46 67,111 67,193 0,82 -22,146 -67,192 -44,46 -104,69 -178,69 -75,0 -135,-23 -179,-69 -44,-46 -67,-109 -67,-189zm105 -4c0,57 14,101 40,130 27,30 60,45 101,45 41,0 74,-15 100,-44 27,-30 40,-74 40,-132 0,-58 -13,-102 -39,-130 -25,-29 -59,-43 -101,-43 -42,0 -76,15 -102,43 -26,29 -39,73 -39,131z"/>
  <polygon id="_13_27" class="fil5" points="27567,824 27567,319 27941,319 27941,404 27670,404 27670,516 27922,516 27922,602 27670,602 27670,739 27951,739 27951,824 "/>
  <path id="_14_28" class="fil5" d="M20728 1107l202 0c40,0 70,2 90,5 20,3 37,10 53,21 15,10 28,24 38,42 11,17 16,37 16,59 0,23 -6,45 -19,65 -13,20 -30,34 -52,44 31,9 54,25 71,46 16,22 25,47 25,77 0,23 -6,45 -16,67 -11,21 -26,39 -44,52 -19,13 -42,21 -69,24 -17,2 -58,3 -123,3l-172 0 0 -505zm103 84l0 116 66 0c40,0 65,0 74,-1 18,-2 31,-8 41,-18 10,-10 15,-23 15,-40 0,-15 -4,-28 -13,-38 -8,-9 -21,-15 -38,-17 -10,-1 -39,-2 -87,-2l-58 0zm0 200l0 136 94 0c37,0 60,-1 70,-3 15,-3 28,-10 37,-20 10,-11 14,-25 14,-43 0,-16 -3,-29 -11,-39 -7,-11 -18,-18 -31,-23 -14,-5 -45,-8 -91,-8l-82 0z"/>
  <path id="_15_29" class="fil5" d="M21241 1107l102 0 0 202 136 0c36,0 67,5 92,15 26,9 48,27 65,52 17,25 26,54 26,87 0,34 -9,63 -27,88 -18,25 -38,41 -60,49 -22,8 -54,12 -96,12l-238 0 0 -505zm102 420l99 0c32,0 54,-2 67,-5 12,-3 23,-10 33,-21 10,-11 15,-24 15,-40 0,-22 -8,-39 -24,-50 -16,-11 -45,-17 -87,-17l-103 0 0 133zm377 -420l103 0 0 505 -103 0 0 -505z"/>
  <polygon id="_16_30" class="fil5" points="21933,1107 22276,1107 22276,1192 22036,1192 22036,1612 21933,1612 "/>
  <path id="_17_31" class="fil5" d="M22298 1363c0,-52 8,-95 23,-130 12,-26 27,-49 47,-69 20,-21 42,-36 65,-46 32,-13 68,-20 109,-20 75,0 135,23 179,69 45,47 67,111 67,193 0,82 -22,146 -66,192 -45,46 -104,69 -178,69 -75,0 -135,-22 -179,-68 -45,-46 -67,-110 -67,-190zm105 -4c0,58 13,101 40,131 26,29 60,44 101,44 40,0 74,-15 100,-44 26,-29 39,-73 39,-132 0,-58 -12,-101 -38,-130 -25,-28 -59,-43 -101,-43 -42,0 -76,15 -102,44 -26,29 -39,72 -39,130z"/>
  <path id="_18_32" class="fil5" d="M22900 1107l348 0 0 420 45 0 0 195 -86 0 0 -110 -317 0 0 110 -85 0 0 -195 43 0c21,-43 35,-93 42,-150 6,-57 10,-129 10,-217l0 -53zm97 85c0,153 -14,265 -42,335l191 0 0 -335 -149 0z"/>
  <polygon id="_19_33" class="fil5" points="23361,1612 23361,1107 23464,1107 23464,1306 23663,1306 23663,1107 23765,1107 23765,1612 23663,1612 23663,1391 23464,1391 23464,1612 "/>
  <path id="_20_34" class="fil5" d="M23850 1363c0,-52 7,-95 23,-130 11,-26 27,-49 47,-69 20,-21 41,-36 65,-46 32,-13 68,-20 109,-20 75,0 134,23 179,69 45,47 67,111 67,193 0,82 -22,146 -67,192 -44,46 -103,69 -177,69 -76,0 -135,-22 -180,-68 -44,-46 -66,-110 -66,-190zm105 -4c0,58 13,101 39,131 27,29 61,44 101,44 41,0 74,-15 101,-44 26,-29 39,-73 39,-132 0,-58 -13,-101 -38,-130 -26,-28 -60,-43 -102,-43 -42,0 -76,15 -102,44 -25,29 -38,72 -38,130z"/>
  <polygon id="_21_35" class="fil5" points="24420,1612 24420,1107 24794,1107 24794,1192 24522,1192 24522,1305 24774,1305 24774,1390 24522,1390 24522,1527 24803,1527 24803,1612 "/>
  <polygon id="_22_36" class="fil5" points="25088,1107 25489,1107 25489,1612 25387,1612 25387,1192 25190,1192 25190,1612 25088,1612 "/>
  <path id="_23_37" class="fil5" d="M25593 1612l0 -505 164 0c62,0 102,3 121,8 29,7 53,24 73,49 19,26 29,58 29,99 0,31 -6,57 -17,78 -11,21 -25,37 -43,50 -17,12 -34,20 -52,23 -25,5 -60,8 -106,8l-66 0 0 190 -103 0zm103 -420l0 144 55 0c40,0 67,-2 81,-8 13,-5 24,-13 31,-25 8,-11 12,-24 12,-39 0,-18 -5,-34 -16,-46 -11,-12 -25,-19 -41,-22 -12,-2 -37,-4 -73,-4l-49 0z"/>
  <polygon id="_24_38" class="fil5" points="26064,1612 26064,1107 26438,1107 26438,1192 26166,1192 26166,1305 26419,1305 26419,1390 26166,1390 26166,1527 26448,1527 26448,1612 "/>
  <path id="_25_39" class="fil5" d="M26576 1107l348 0 0 420 45 0 0 195 -86 0 0 -110 -317 0 0 110 -85 0 0 -195 43 0c21,-43 35,-93 42,-150 6,-57 10,-129 10,-217l0 -53zm97 85c0,153 -14,265 -42,335l191 0 0 -335 -149 0z"/>
  <path id="_26_40" class="fil5" d="M27074 1107l353 0 0 505 -102 0 0 -420 -152 0 0 216c0,62 -2,105 -6,129 -4,25 -14,44 -30,58 -16,13 -41,20 -75,20 -12,0 -33,-1 -65,-3l0 -79 23 0c21,0 36,-3 43,-9 7,-5 11,-20 11,-42l0 -87 0 -288z"/>
  <path id="_27_41" class="fil5" d="M27511 1363c0,-52 8,-95 23,-130 12,-26 27,-49 47,-69 20,-21 42,-36 66,-46 31,-13 67,-20 109,-20 74,0 134,23 178,69 45,47 67,111 67,193 0,82 -22,146 -66,192 -44,46 -104,69 -178,69 -75,0 -135,-22 -179,-68 -45,-46 -67,-110 -67,-190zm105 -4c0,58 14,101 40,131 26,29 60,44 101,44 41,0 74,-15 100,-44 26,-29 39,-73 39,-132 0,-58 -12,-101 -38,-130 -25,-28 -59,-43 -101,-43 -42,0 -76,15 -102,44 -26,29 -39,72 -39,130z"/>
  <path id="_28_42" class="fil5" d="M28389 1107l0 215c17,-1 29,-7 38,-19 9,-11 21,-37 36,-77 21,-53 41,-86 62,-101 21,-14 56,-21 105,-21 2,0 7,0 15,0l0 75 -15 0c-21,0 -36,2 -46,7 -9,6 -17,14 -23,24 -6,11 -15,32 -27,65 -6,18 -13,32 -20,44 -7,12 -20,23 -38,33 22,7 41,20 56,39 15,20 31,47 49,83l69 138 -120 0 -61 -130c-1,-2 -3,-5 -6,-11 -2,-3 -6,-11 -12,-23 -13,-24 -24,-40 -32,-47 -8,-6 -18,-10 -30,-10l0 221 -100 0 0 -221c-12,0 -22,4 -30,10 -9,7 -19,22 -32,47 -7,13 -11,21 -12,23 -3,4 -5,7 -6,11l-61 130 -120 0 69 -138c17,-34 33,-61 48,-82 15,-20 34,-33 57,-40 -18,-10 -31,-21 -38,-33 -7,-11 -14,-26 -21,-44 -11,-32 -20,-53 -26,-64 -6,-11 -13,-19 -23,-24 -10,-6 -26,-8 -48,-8 -3,0 -7,0 -13,0l0 -75c8,0 13,0 15,0 49,0 84,7 105,22 21,14 41,48 61,100 16,41 28,66 37,77 8,12 21,18 38,19l0 -215 100 0z"/>
  <polygon id="_29_43" class="fil5" points="28709,1612 28709,1107 29082,1107 29082,1192 28811,1192 28811,1305 29063,1305 29063,1390 28811,1390 28811,1527 29092,1527 29092,1612 "/>
  <polygon id="_30_44" class="fil5" points="29179,1612 29179,1107 29281,1107 29281,1306 29480,1306 29480,1107 29583,1107 29583,1612 29480,1612 29480,1391 29281,1391 29281,1612 "/>
  <polygon id="_31" class="fil5" points="29690,1107 29785,1107 29785,1443 29990,1107 30092,1107 30092,1612 29996,1612 29996,1281 29792,1612 29690,1612 "/>
  <polygon id="_32" class="fil5" points="30196,1612 30196,1107 30570,1107 30570,1192 30298,1192 30298,1305 30551,1305 30551,1390 30298,1390 30298,1527 30580,1527 30580,1612 "/>
  <path class="fil6" d="M33712 696l89 27c-14,50 -36,87 -68,112 -32,24 -72,36 -121,36 -60,0 -110,-21 -149,-62 -39,-41 -58,-98 -58,-169 0,-76 20,-135 59,-176 39,-42 90,-63 154,-63 56,0 101,17 136,49 21,19 36,47 47,84l-91 22c-5,-23 -17,-42 -34,-56 -17,-14 -38,-20 -62,-20 -34,0 -61,12 -82,36 -21,24 -32,63 -32,117 0,57 10,98 31,123 21,24 48,37 81,37 24,0 46,-8 63,-23 18,-16 30,-40 38,-73z"/>
  <path id="1" class="fil6" d="M33845 639c0,-46 7,-85 21,-117 10,-23 24,-44 42,-62 18,-18 37,-32 59,-41 28,-12 61,-18 98,-18 67,0 121,21 161,62 40,42 60,100 60,174 0,74 -20,131 -60,173 -40,42 -93,62 -160,62 -68,0 -121,-21 -161,-62 -40,-41 -60,-98 -60,-171zm95 -3c0,52 12,91 36,117 24,27 54,40 91,40 37,0 67,-13 90,-40 24,-26 35,-66 35,-119 0,-52 -11,-91 -34,-117 -23,-26 -53,-39 -91,-39 -38,0 -68,13 -92,39 -23,26 -35,65 -35,118z"/>
  <path id="2" class="fil6" d="M34423 533l-90 -21c19,-74 74,-111 164,-111 53,0 94,12 121,35 27,23 41,51 41,83 0,22 -6,41 -19,59 -12,17 -31,33 -56,46 30,10 53,25 68,44 15,19 23,42 23,70 0,40 -15,72 -44,97 -29,25 -73,37 -131,37 -48,0 -85,-8 -113,-24 -28,-16 -48,-46 -62,-89l84 -27c9,27 20,45 35,53 14,8 32,12 53,12 29,0 50,-6 64,-19 13,-13 20,-27 20,-43 0,-19 -8,-34 -23,-45 -15,-11 -38,-17 -68,-17l-21 0 0 -69 10 0c28,0 50,-6 64,-19 15,-13 22,-29 22,-50 0,-17 -6,-31 -18,-42 -12,-11 -29,-17 -52,-17 -38,0 -63,19 -74,57z"/>
  <path id="3" class="fil6" d="M34756 409l182 0c36,0 63,1 81,4 18,3 34,9 48,19 14,10 26,22 35,38 9,16 14,34 14,53 0,21 -6,41 -17,58 -11,18 -27,31 -47,40 28,8 49,22 64,41 15,19 22,42 22,69 0,21 -5,41 -14,60 -10,20 -23,35 -39,47 -17,12 -37,19 -62,22 -15,2 -52,3 -111,3l-155 0 0 -455zm92 76l0 105 60 0c36,0 58,-1 67,-2 16,-2 28,-7 37,-16 9,-9 13,-21 13,-35 0,-14 -4,-25 -12,-34 -8,-9 -19,-14 -35,-16 -9,-1 -35,-2 -78,-2l-53 0zm0 180l0 122 85 0c33,0 54,-1 63,-3 14,-3 25,-9 33,-18 9,-10 13,-23 13,-39 0,-14 -3,-25 -10,-35 -7,-10 -16,-17 -29,-21 -12,-4 -40,-7 -81,-7l-74 0z"/>
  <path id="4" class="fil6" d="M35593 863l-99 0 -39 -104 -182 0 -38 104 -97 0 177 -455 97 0 182 455zm-168 -180l-63 -168 -61 168 125 0z"/>
  <polygon id="5" class="fil6" points="35642,863 35642,409 35734,409 35734,588 35913,588 35913,409 36005,409 36005,863 35913,863 35913,665 35734,665 35734,863 "/>
  <polygon id="6" class="fil6" points="36101,409 36187,409 36187,711 36371,409 36463,409 36463,863 36377,863 36377,566 36193,863 36101,863 "/>
  <path id="7" class="fil6" d="M36557 409l182 0c36,0 63,1 81,4 18,3 34,9 48,19 14,10 26,22 35,38 9,16 14,34 14,53 0,21 -6,41 -17,58 -11,18 -27,31 -47,40 28,8 49,22 64,41 15,19 22,42 22,69 0,21 -5,41 -14,60 -10,20 -23,35 -39,47 -17,12 -37,19 -62,22 -15,2 -52,3 -111,3l-155 0 0 -455zm92 76l0 105 60 0c36,0 58,-1 67,-2 16,-2 28,-7 37,-16 9,-9 13,-21 13,-35 0,-14 -4,-25 -12,-34 -8,-9 -19,-14 -35,-16 -9,-1 -35,-2 -78,-2l-53 0zm0 180l0 122 85 0c33,0 54,-1 63,-3 14,-3 25,-9 33,-18 9,-10 13,-23 13,-39 0,-14 -3,-25 -10,-35 -7,-10 -16,-17 -29,-21 -12,-4 -40,-7 -81,-7l-74 0z"/>
  <path id="8" class="fil6" d="M37393 863l-99 0 -39 -104 -182 0 -38 104 -97 0 177 -455 97 0 182 455zm-168 -180l-63 -168 -61 168 125 0z"/>
  <polygon id="9" class="fil6" points="37442,863 37442,409 37779,409 37779,486 37534,486 37534,587 37762,587 37762,663 37534,663 37534,787 37788,787 37788,863 "/>
  <polygon id="10" class="fil6" points="37968,863 37968,486 37833,486 37833,409 38194,409 38194,486 38060,486 38060,863 "/>
  <polygon id="11" class="fil6" points="38254,863 38254,409 38590,409 38590,486 38346,486 38346,587 38573,587 38573,663 38346,663 38346,787 38599,787 38599,863 "/>
  <path id="12" class="fil6" d="M38968 696l89 27c-14,50 -36,87 -68,112 -32,24 -72,36 -121,36 -60,0 -110,-21 -149,-62 -39,-41 -58,-98 -58,-169 0,-76 20,-135 59,-176 39,-42 90,-63 154,-63 56,0 101,17 136,49 21,19 36,47 47,84l-91 22c-5,-23 -17,-42 -34,-56 -17,-14 -38,-20 -62,-20 -34,0 -61,12 -82,36 -21,24 -32,63 -32,117 0,57 10,98 31,123 21,24 48,37 81,37 24,0 46,-8 63,-23 18,-16 30,-40 38,-73z"/>
  <path id="13" class="fil6" d="M39138 409l92 0 0 182 123 0c58,0 100,14 126,41 26,27 39,60 39,97 0,31 -8,57 -24,79 -16,22 -34,37 -54,44 -20,8 -49,12 -87,12l-215 0 0 -455zm92 378l89 0c29,0 49,-1 60,-4 11,-3 21,-9 30,-19 9,-10 13,-22 13,-36 0,-21 -8,-36 -22,-46 -15,-10 -41,-15 -77,-15l-93 0 0 119z"/>
  <path id="14" class="fil6" d="M39589 776l87 0 0 62c0,25 -2,45 -6,60 -4,15 -13,28 -25,39 -12,12 -27,21 -46,27l-17 -36c17,-6 30,-14 37,-24 7,-10 11,-24 12,-41l-42 0 0 -87z"/>
  <path id="15" class="fil6" d="M40010 533l-90 -21c19,-74 74,-111 164,-111 53,0 94,12 121,35 27,23 41,51 41,83 0,22 -6,41 -19,59 -12,17 -31,33 -56,46 30,10 53,25 68,44 15,19 23,42 23,70 0,40 -15,72 -44,97 -29,25 -73,37 -131,37 -48,0 -85,-8 -113,-24 -28,-16 -48,-46 -62,-89l84 -27c9,27 20,45 35,53 14,8 32,12 53,12 29,0 50,-6 64,-19 13,-13 20,-27 20,-43 0,-19 -8,-34 -23,-45 -15,-11 -38,-17 -68,-17l-21 0 0 -69 10 0c28,0 50,-6 64,-19 15,-13 22,-29 22,-50 0,-17 -6,-31 -18,-42 -12,-11 -29,-17 -52,-17 -38,0 -63,19 -74,57z"/>
  <path id="16" class="fil6" d="M40752 863l-99 0 -39 -104 -182 0 -38 104 -97 0 177 -455 97 0 182 455zm-168 -180l-63 -168 -61 168 125 0z"/>
  <path id="17" class="fil6" d="M40803 409l92 0 0 194c20,-2 34,-7 41,-16 7,-8 18,-32 33,-71 19,-49 38,-80 57,-92 19,-12 50,-18 92,-18 2,0 7,0 13,0l0 68 -13 0c-19,0 -33,2 -41,7 -9,5 -16,12 -21,21 -5,10 -13,29 -24,59 -6,16 -12,29 -18,39 -6,11 -18,21 -35,30 20,6 37,17 51,35 13,18 28,42 44,74l62 124 -108 0 -55 -117c-1,-2 -3,-5 -5,-10 -1,-2 -5,-9 -11,-21 -12,-22 -21,-36 -29,-42 -8,-6 -19,-8 -34,-9l0 199 -92 0 0 -455z"/>
  <path id="18" class="fil6" d="M41222 409l318 0 0 455 -92 0 0 -378 -137 0 0 194c0,56 -2,94 -6,116 -4,22 -13,39 -27,52 -14,12 -37,18 -67,18 -11,0 -30,-1 -59,-3l0 -71 21 0c19,0 32,-3 39,-8 7,-5 10,-18 10,-38l0 -78 0 -259z"/>
  <path id="19" class="fil6" d="M41635 409l92 0 0 190 74 0c5,-56 25,-103 59,-141 34,-38 84,-57 149,-57 63,0 112,20 149,61 37,41 55,99 55,174 0,49 -8,91 -24,126 -16,35 -39,62 -68,81 -29,19 -66,29 -110,29 -45,0 -80,-7 -106,-21 -26,-14 -49,-37 -69,-68 -20,-31 -31,-67 -35,-107l-74 0 0 188 -92 0 0 -455zm258 228c0,51 10,90 30,117 20,28 48,41 84,41 37,0 65,-14 84,-41 19,-27 28,-68 28,-123 0,-52 -11,-91 -32,-115 -21,-24 -49,-36 -83,-36 -33,0 -59,12 -80,37 -21,25 -31,65 -31,120z"/>
  <path id="20" class="fil6" d="M42273 409l92 0 0 108c0,35 1,58 4,70 3,12 10,21 23,30 13,8 32,13 56,13 20,0 37,-2 52,-6 15,-4 28,-10 40,-19l0 -196 92 0 0 455 -92 0 0 -183c-19,8 -37,15 -55,19 -18,4 -36,6 -53,6 -45,0 -83,-11 -114,-32 -30,-21 -46,-58 -46,-111l0 -153z"/>
  <path id="21" class="fil6" d="M43137 863l-99 0 -39 -104 -182 0 -38 104 -97 0 177 -455 97 0 182 455zm-168 -180l-63 -168 -61 168 125 0z"/>
  <polygon id="22" class="fil6" points="43186,863 43186,409 43522,409 43522,486 43278,486 43278,587 43505,587 43505,663 43278,663 43278,787 43531,787 43531,863 "/>
  <polygon id="23" class="fil6" points="43711,863 43711,486 43577,486 43577,409 43938,409 43938,486 43804,486 43804,863 "/>
  <polygon id="24" class="fil6" points="43997,863 43997,409 44334,409 44334,486 44089,486 44089,587 44317,587 44317,663 44089,663 44089,787 44343,787 44343,863 "/>
  <path id="25" class="fil6" d="M33635 1118l314 0 0 378 40 0 0 176 -77 0 0 -99 -285 0 0 99 -77 0 0 -176 39 0c19,-39 31,-84 37,-135 6,-51 9,-116 9,-195l0 -48zm88 77c0,138 -13,238 -38,301l172 0 0 -301 -134 0z"/>
  <path id="26" class="fil6" d="M34031 1348c0,-46 7,-85 21,-117 10,-23 24,-44 42,-62 18,-18 37,-32 59,-41 28,-12 61,-18 98,-18 67,0 121,21 161,62 40,42 60,100 60,174 0,74 -20,131 -60,173 -40,42 -93,62 -160,62 -68,0 -121,-21 -161,-62 -40,-41 -60,-98 -60,-171zm95 -3c0,52 12,91 36,117 24,27 54,40 91,40 37,0 67,-13 90,-40 24,-26 35,-66 35,-119 0,-52 -11,-91 -34,-117 -23,-26 -53,-39 -91,-39 -38,0 -68,13 -92,39 -23,26 -35,65 -35,118z"/>
  <polygon id="27" class="fil6" points="34549,1118 34857,1118 34857,1195 34641,1195 34641,1573 34549,1573 "/>
  <path id="28" class="fil6" d="M34877 1348c0,-46 7,-85 21,-117 10,-23 24,-44 42,-62 18,-18 37,-32 59,-41 28,-12 61,-18 98,-18 67,0 121,21 161,62 40,42 60,100 60,174 0,74 -20,131 -60,173 -40,42 -93,62 -160,62 -68,0 -121,-21 -161,-62 -40,-41 -60,-98 -60,-171zm95 -3c0,52 12,91 36,117 24,27 54,40 91,40 37,0 67,-13 90,-40 24,-26 35,-66 35,-119 0,-52 -11,-91 -34,-117 -23,-26 -53,-39 -91,-39 -38,0 -68,13 -92,39 -23,26 -35,65 -35,118z"/>
  <path id="29" class="fil6" d="M35390 1118l182 0c36,0 63,1 81,4 18,3 34,9 48,19 14,10 26,22 35,38 9,16 14,34 14,53 0,21 -6,41 -17,58 -11,18 -27,31 -47,40 28,8 49,22 64,41 15,19 22,42 22,69 0,21 -5,41 -14,60 -10,20 -23,35 -39,47 -17,12 -37,19 -62,22 -15,2 -52,3 -111,3l-155 0 0 -455zm92 76l0 105 60 0c36,0 58,-1 67,-2 16,-2 28,-7 37,-16 9,-9 13,-21 13,-35 0,-14 -4,-25 -12,-34 -8,-9 -19,-14 -35,-16 -9,-1 -35,-2 -78,-2l-53 0zm0 180l0 122 85 0c33,0 54,-1 63,-3 14,-3 25,-9 33,-18 9,-10 13,-23 13,-39 0,-14 -3,-25 -10,-35 -7,-10 -16,-17 -29,-21 -12,-4 -40,-7 -81,-7l-74 0z"/>
  <path id="30" class="fil6" d="M35813 1348c0,-46 7,-85 21,-117 10,-23 24,-44 42,-62 18,-18 37,-32 59,-41 28,-12 61,-18 98,-18 67,0 121,21 161,62 40,42 60,100 60,174 0,74 -20,131 -60,173 -40,42 -93,62 -160,62 -68,0 -121,-21 -161,-62 -40,-41 -60,-98 -60,-171zm95 -3c0,52 12,91 36,117 24,27 54,40 91,40 37,0 67,-13 90,-40 24,-26 35,-66 35,-119 0,-52 -11,-91 -34,-117 -23,-26 -53,-39 -91,-39 -38,0 -68,13 -92,39 -23,26 -35,65 -35,118z"/>
  <path id="31" class="fil6" d="M36326 1573l0 -455 147 0c56,0 92,2 109,7 26,7 48,22 65,45 18,23 26,52 26,89 0,28 -5,51 -15,70 -10,19 -23,34 -39,45 -16,11 -31,18 -48,21 -22,4 -54,7 -95,7l-60 0 0 171 -92 0zm92 -378l0 130 50 0c36,0 60,-2 72,-7 12,-5 22,-12 29,-22 7,-10 10,-22 10,-35 0,-17 -5,-30 -15,-41 -10,-11 -22,-18 -37,-20 -11,-2 -33,-3 -66,-3l-44 0z"/>
  <path id="32" class="fil6" d="M36659 1486l87 0 0 62c0,25 -2,45 -6,60 -4,15 -13,28 -25,39 -12,12 -27,21 -46,27l-17 -36c17,-6 30,-14 37,-24 7,-10 11,-24 12,-41l-42 0 0 -87z"/>
  <polygon id="33" class="fil6" points="37369,1118 37455,1118 37455,1421 37639,1118 37730,1118 37730,1573 37645,1573 37645,1275 37461,1573 37369,1573 "/>
  <path id="34" class="fil6" d="M38286 1118l0 194c15,-1 27,-7 35,-17 8,-10 19,-33 33,-70 18,-47 37,-78 56,-91 19,-13 50,-19 94,-19 2,0 7,0 13,0l0 68 -13 0c-19,0 -32,2 -41,7 -9,5 -16,12 -21,21 -5,10 -13,29 -24,59 -6,16 -12,29 -18,39 -7,11 -18,21 -35,30 20,6 37,18 51,35 13,17 28,42 44,74l62 124 -108 0 -55 -117c-1,-2 -2,-5 -5,-10 -2,-3 -5,-10 -11,-21 -12,-22 -21,-36 -28,-42 -7,-6 -17,-9 -27,-9l0 199 -90 0 0 -199c-10,0 -20,3 -27,9 -8,6 -17,20 -28,42 -6,12 -10,20 -11,21 -2,3 -4,6 -5,10l-55 117 -108 0 62 -124c15,-31 30,-55 43,-73 14,-18 31,-30 52,-36 -17,-9 -28,-19 -35,-30 -7,-10 -13,-24 -19,-40 -10,-29 -18,-48 -23,-58 -5,-10 -12,-17 -21,-22 -9,-5 -23,-7 -43,-7 -2,0 -6,0 -12,0l0 -68c7,0 11,0 13,0 44,0 76,7 95,20 19,13 37,43 55,90 14,37 25,60 33,70 8,10 19,16 35,17l0 -194 90 0z"/>
  <path id="35" class="fil6" d="M38612 1118l314 0 0 378 40 0 0 176 -77 0 0 -99 -285 0 0 99 -77 0 0 -176 39 0c19,-39 31,-84 37,-135 6,-51 9,-116 9,-195l0 -48zm88 77c0,138 -13,238 -38,301l172 0 0 -301 -134 0z"/>
  <polygon id="36" class="fil6" points="39027,1573 39027,1118 39364,1118 39364,1195 39119,1195 39119,1296 39346,1296 39346,1373 39119,1373 39119,1496 39372,1496 39372,1573 "/>
  <polygon id="37" class="fil6" points="39553,1573 39553,1195 39418,1195 39418,1118 39779,1118 39779,1195 39645,1195 39645,1573 "/>
  <polygon id="38" class="fil6" points="39838,1573 39838,1118 40175,1118 40175,1195 39931,1195 39931,1296 40158,1296 40158,1373 39931,1373 39931,1496 40184,1496 40184,1573 "/>
  <polygon id="39" class="fil6" points="40440,1118 40801,1118 40801,1573 40709,1573 40709,1195 40532,1195 40532,1573 40440,1573 "/>
  <path id="40" class="fil6" d="M40895 1573l0 -455 147 0c56,0 92,2 109,7 26,7 48,22 65,45 18,23 26,52 26,89 0,28 -5,51 -15,70 -10,19 -23,34 -39,45 -16,11 -31,18 -48,21 -22,4 -54,7 -95,7l-60 0 0 171 -92 0zm92 -378l0 130 50 0c36,0 60,-2 72,-7 12,-5 22,-12 29,-22 7,-10 10,-22 10,-35 0,-17 -5,-30 -15,-41 -10,-11 -22,-18 -37,-20 -11,-2 -33,-3 -66,-3l-44 0z"/>
  <path id="41" class="fil6" d="M41672 1573l-99 0 -39 -104 -182 0 -38 104 -97 0 177 -455 97 0 182 455zm-168 -180l-63 -168 -61 168 125 0z"/>
  <path id="42" class="fil6" d="M41786 1242l-90 -21c19,-74 74,-111 164,-111 53,0 94,12 121,35 27,23 41,51 41,83 0,22 -6,41 -19,59 -12,17 -31,33 -56,46 30,10 53,25 68,44 15,19 23,42 23,70 0,40 -15,72 -44,97 -29,25 -73,37 -131,37 -48,0 -85,-8 -113,-24 -28,-16 -48,-46 -62,-89l84 -27c9,27 20,45 35,53 14,8 32,12 53,12 29,0 50,-6 64,-19 13,-13 20,-27 20,-43 0,-19 -8,-34 -23,-45 -15,-11 -38,-17 -68,-17l-21 0 0 -69 10 0c28,0 50,-6 64,-19 15,-13 22,-29 22,-50 0,-17 -6,-31 -18,-42 -12,-11 -29,-17 -52,-17 -38,0 -63,19 -74,57z"/>
  <path id="43" class="fil6" d="M42156 1118l314 0 0 378 40 0 0 176 -77 0 0 -99 -285 0 0 99 -77 0 0 -176 39 0c19,-39 31,-84 37,-135 6,-51 9,-116 9,-195l0 -48zm88 77c0,138 -13,238 -38,301l172 0 0 -301 -134 0z"/>
  <polygon id="44" class="fil6" points="42571,1573 42571,1118 42663,1118 42663,1297 42843,1297 42843,1118 42935,1118 42935,1573 42843,1573 42843,1374 42663,1374 42663,1573 "/>
  <polygon id="45" class="fil6" points="43031,1118 43117,1118 43117,1421 43301,1118 43393,1118 43393,1573 43307,1573 43307,1275 43123,1573 43031,1573 "/>
  <path id="46" class="fil6" d="M43488 1118l92 0 0 194c20,-2 34,-7 41,-16 7,-8 18,-32 33,-71 19,-49 38,-80 57,-92 19,-12 50,-18 92,-18 2,0 7,0 13,0l0 68 -13 0c-19,0 -33,2 -41,7 -9,5 -16,12 -21,21 -5,10 -13,29 -24,59 -6,16 -12,29 -18,39 -6,11 -18,21 -35,30 20,6 37,17 51,35 13,18 28,42 44,74l62 124 -108 0 -55 -117c-1,-2 -3,-5 -5,-10 -1,-2 -5,-9 -11,-21 -12,-22 -21,-36 -29,-42 -8,-6 -19,-8 -34,-9l0 199 -92 0 0 -455z"/>
  <path id="47" class="fil6" d="M43907 1456l-23 -231 0 -107 94 0 0 107 -22 231 -49 0zm-19 117l0 -87 87 0 0 87 -87 0z"/>
 </g>
</svg>
