<svg xmlns="http://www.w3.org/2000/svg" width="6100" height="300" viewBox="0 0 6100 300" shape-rendering="geometricPrecision" text-rendering="geometricPrecision" image-rendering="optimizeQuality" fill-rule="evenodd" clip-rule="evenodd"><defs><style>.fil1{fill:#fefefe;fill-rule:nonzero}.fil0{fill:#41727a}.fil0,.fil2{fill-rule:nonzero}.fil2{fill:#cc0007}</style></defs><g id="_800_x0020_x_x0020_800px"><g id="_863311472"><path class="fil0" d="M1358 23l98 125-99 126H750V23z"/><path class="fil1" d="M816 101c7 2 10 6 10 13 0 5-2 9-6 13-4 3-10 5-17 5-13 0-21-6-24-16l16-1c1 3 3 5 7 5 3 0 5 0 6-2 1-1 1-2 1-4s0-4-2-5c-1-2-3-2-6-2h-4V97h3c2 0 4-1 5-2s2-2 2-4c0-3-2-5-5-5-4 0-6 2-7 5l-15-2c2-9 10-14 22-14 7 0 12 2 16 4 3 3 5 6 5 11s-2 9-7 11zm52 21h-19l-3 9h-17l20-55h19l20 55h-18l-2-9zm-4-12l-6-20-6 20h12zm81 21h-17V90h-18v41h-17V76h52v55zm9-27c0-9 2-16 7-21s12-8 21-8 16 3 21 8c5 4 7 11 7 20 0 7-1 12-3 16s-5 7-9 9c-4 3-10 4-16 4s-11-1-15-3-7-5-9-9c-3-5-4-10-4-16zm17 0c0 5 1 9 3 12 2 2 4 3 8 3s6-1 8-3c2-3 3-7 3-13 0-5-1-9-3-11-2-3-5-4-8-4-4 0-6 1-8 4-2 2-3 6-3 12zm98 27h-17V90h-13v16c0 7-1 13-1 16-1 3-3 5-5 7-3 1-7 2-13 2h-7v-12h3c2 0 4 0 5-1s1-3 1-6V76h47v55zm11-55h16v19h19V76h16v55h-16v-22h-19v22h-16V76zm110 55V76h-28c-5 0-9 1-11 1-3 1-5 3-7 5-2 3-2 6-2 9s0 6 1 8l6 6c1 1 3 1 6 2-2 0-4 1-5 2 0 0-1 1-2 3-2 1-2 2-3 3l-8 16h19l9-17c1-2 2-3 3-4s3-1 4-1h2v22h16zm-16-33h-12c-1-1-2-1-3-2 0-1-1-2-1-3 0-2 1-3 2-4s3-2 6-2h8v11zm27-22h45v12h-28v9h26v11h-26v11h29v12h-46V76zm51 0h51v14h-17v41h-17V90h-17V76zm58 0h45v12h-28v9h26v11h-26v11h29v12h-46V76z"/><path class="fil0" d="M1565 24l822-1h386l111 129-111 123H1627l-94-16 92-131z"/><path class="fil2" d="M1631 275h-172l101-132c6-9 10-16 13-22 3-7 5-13 5-19 0-9-3-16-8-21-5-6-11-9-19-9-10 0-17 4-22 11-6 7-8 16-8 29v3h-54v-1c0-29 7-51 22-67 12-13 27-21 45-24h33c17 3 32 10 43 21 15 15 23 34 23 58 0 12-3 23-7 34-5 11-13 23-24 37l-40 49h69v53z"/><path class="fil1" d="M1713 135h-17V94h-18v41h-16V80h51v55zm10-55h28c6 0 10 2 13 5s4 7 4 12c0 6-1 10-4 13-4 3-9 5-15 5h-9v20h-17V80zm17 24h4c3 0 5-1 7-2 1-1 2-2 2-4s-1-3-2-5c-1-1-3-1-6-1h-5v12zm35 4c0-9 2-16 7-21s12-7 20-7c9 0 16 2 21 7 4 5 7 12 7 20 0 7-1 12-3 16-3 4-6 8-9 10-4 2-9 3-15 3s-11-1-15-3-7-5-10-9c-2-4-3-10-3-16zm16 0c0 5 1 9 3 12 2 2 5 4 8 4 4 0 7-2 8-4 2-2 3-7 3-13 0-5-1-9-3-11s-4-4-8-4c-3 0-6 2-8 4s-3 6-3 12zm103 39h-13v-12h-34v12h-13v-24h5c3-9 5-19 5-30V80h44v43h6v24zm-22-24V94h-13v1c0 7-1 17-4 28h17zm61 3h-19l-2 9h-17l20-55h18l20 55h-17l-3-9zm-4-12l-5-19-6 19h11zm29-34h31c5 0 9 2 11 4 3 3 4 6 4 10 0 3-1 6-3 8-1 2-3 3-5 4 4 1 6 3 8 5s3 5 3 9c0 3-1 5-2 7-1 3-3 4-5 6-2 1-4 1-7 2h-35V80zm16 22h8c2 0 4 0 5-1s1-3 1-4c0-2 0-3-1-4s-3-1-5-1h-8v10zm0 22h9c3 0 5-1 6-2s1-2 1-4 0-3-1-4-3-2-6-2h-9v12zm98 23h-13v-12h-44V80h17v42h18V80h16v43h6v24zm23-45h9c8 0 14 1 18 4s6 7 6 14c0 5-2 9-6 11-3 3-8 4-15 4h-28V80h16v22zm0 22h9c5 0 7-2 7-6s-2-5-7-5h-9v11zm37-44h16v55h-16V80zm102 55h-16V94h-18v41h-16V80h50v55zm11-55h27c6 0 10 2 13 5s5 7 5 12c0 6-2 10-5 13s-8 5-15 5h-9v20h-16V80zm16 24h4c4 0 6-1 7-2s2-2 2-4-1-3-2-5c-1-1-3-1-6-1h-5v12zm37-24h44v12h-27v9h25v11h-25v11h28v12h-45V80zm109 67h-13v-12h-34v12h-13v-24h6c3-9 4-19 4-30V80h45v43h5v24zm-22-24V94h-13v1c0 7-1 17-4 28h17zm77 12h-16V94h-13v17c0 7 0 12-1 15s-2 6-5 7c-3 2-7 3-13 3-1 0-3-1-6-1v-11h3c2 0 4-1 4-2 1-1 2-3 2-5V80h45v55zm44-9h-19l-3 9h-16l20-55h18l19 55h-17l-2-9zm-4-12l-6-19-5 19h11zm70-20h-25v41h-16V80h41v14zm40 32h-18l-3 9h-17l20-55h18l20 55h-17l-3-9zm-3-12l-6-19-6 19h12zm51-14c1-7 4-12 9-15 4-4 10-5 17-5 9 0 16 2 21 7s7 12 7 21-2 16-7 21-11 7-20 7-15-2-20-6c-4-5-7-10-7-17h-6v22h-17V80h17v20h6zm27 24c3 0 6-2 8-4 2-3 3-7 3-13 0-10-4-15-12-15-7 0-10 6-10 16s3 16 11 16zm32-44h50v14h-17v41h-16V94h-17V80zM1660 181h32c6 0 10 1 13 4 3 2 4 6 4 9 0 4-1 6-3 9-1 1-3 3-6 3 4 1 7 3 9 5 2 3 3 6 3 9s-1 5-2 8c-2 2-4 4-6 5-1 1-4 1-6 2-4 0-7 1-8 1h-30v-55zm17 21h8c3 0 5 0 6-1s1-2 1-4 0-3-1-4-3-1-6-1h-8v10zm0 22h9c3 0 5-1 7-2 1-1 1-2 1-4s0-3-1-4c-2-1-4-1-7-1h-9v11zm78 3h-20l-2 9h-18l21-55h19l21 55h-18l-3-9zm-4-12l-6-20-6 20h12zm30-34h23l9 33 8-33h23v55h-14v-42l-11 42h-13l-11-42v42h-14v-55zm137 32l15 5c-1 4-2 7-5 10-2 3-5 5-8 6-3 2-7 3-12 3-6 0-11-1-15-3s-7-5-10-9c-3-5-4-10-4-17 0-9 2-16 7-21s12-7 21-7c7 0 13 1 17 4s7 7 9 13l-16 3c0-1-1-3-1-3-1-2-2-3-4-3-1-1-3-1-4-1-4 0-7 1-10 4-1 2-2 6-2 11 0 6 1 10 3 12 2 3 4 4 8 4 3 0 6-1 7-3 2-2 3-4 4-8zm24-32h32c5 0 9 1 12 4 3 2 5 6 5 9 0 4-1 6-3 9-2 1-4 3-6 3 4 1 6 3 8 5 2 3 3 6 3 9s0 5-2 8c-1 2-3 4-5 5s-4 1-7 2c-4 0-6 1-8 1h-29v-55zm17 21h7c3 0 5 0 6-1s2-2 2-4-1-3-2-4-3-1-5-1h-8v10zm0 22h9c3 0 5-1 6-2s2-2 2-4-1-3-2-4-3-1-6-1h-9v11zm41-16c0-9 2-16 8-21 5-5 12-7 21-7s16 2 21 7 8 12 8 21c0 6-1 11-3 16-3 4-6 7-10 9s-9 4-16 4c-6 0-11-1-15-3s-8-6-10-10c-3-4-4-9-4-16zm17 0c0 6 1 10 3 12 2 3 5 4 9 4s7-1 9-4c2-2 3-6 3-12s-1-9-4-12c-2-2-5-3-8-3-4 0-7 1-9 3-2 3-3 7-3 12zm104-27v55h-17v-31l-20 31h-17v-55h16v30l21-30h17zm32 0h19l7 22 8-22h17l-18 42c-1 4-3 6-4 8-1 1-3 3-5 4s-5 2-9 2c-2 0-5-1-10-1v-12c3 1 5 1 6 1 4 0 7-2 7-5l-18-39zm95 32l15 5c-1 4-3 7-5 10s-5 5-8 6c-3 2-8 3-13 3-6 0-11-1-14-3-4-2-8-5-10-9-3-5-5-10-5-17 0-9 3-16 8-21s12-7 21-7c7 0 12 1 16 4s7 7 9 13l-15 3c-1-1-1-3-2-3-1-2-2-3-3-3-2-1-3-1-5-1-4 0-7 1-9 4-1 2-2 6-2 11 0 6 1 10 3 12 1 3 4 4 7 4 4 0 6-1 8-3s3-4 4-8zm74 23h-17v-42h-13v17c0 7-1 12-1 15-1 4-3 6-6 8-2 1-7 2-13 2-2 0-4 0-7-1v-11h3c2 0 4 0 5-1s1-3 1-6v-36h48v55zm10-28c0-9 2-16 7-21s12-7 21-7c10 0 17 2 22 7s7 12 7 21c0 6-1 11-3 16-2 4-5 7-9 9-5 2-10 4-16 4s-11-1-16-3c-4-2-7-6-10-10-2-4-3-9-3-16zm17 0c0 6 1 10 3 12 2 3 5 4 9 4 3 0 6-1 8-4 2-2 3-6 3-12s-1-9-3-12c-2-2-5-3-9-3-3 0-6 1-8 3-2 3-3 7-3 12zm50-27h32c6 0 10 1 13 4 2 2 4 6 4 9 0 4-1 6-3 9-2 1-4 3-6 3 4 1 7 3 9 5 1 3 2 6 2 9s0 5-2 8c-1 2-3 4-5 5s-4 1-7 2c-4 0-6 1-7 1h-30v-55zm17 21h8c2 0 4 0 5-1s2-2 2-4-1-3-2-4-3-1-5-1h-8v10zm0 22h9c3 0 5-1 6-2 2-1 2-2 2-4s0-3-2-4c-1-1-3-1-6-1h-9v11zm97-43v55h-16v-31l-21 31h-17v-55h17v30l21-30h16zm61 55v-55h-29c-5 0-9 0-12 1s-5 3-7 5c-2 3-3 6-3 9s1 6 2 8c2 2 3 4 6 5 1 1 3 2 6 2-2 1-4 2-5 2 0 1-1 2-2 3-2 2-2 3-3 4l-8 16h19l9-17c2-2 3-4 4-4 1-1 2-2 4-2h1v23h18zm-18-33h-7c-1 0-2 0-4-1-2 0-3 0-3-1-1-1-1-2-1-4 0-1 0-3 1-4s4-1 7-1h7v11z"/><path class="fil0" d="M2974 23h1313l105 124-105 128H3056l-85 2 57-54-27-96-2-50z"/><path class="fil2" d="M2889 189h55v4c0 11 2 19 6 24 5 6 12 9 20 9 9 0 16-3 21-8 5-6 8-13 8-23 0-11-3-20-8-25s-14-8-25-8h-6v-39h3c10 0 17-2 23-7 5-5 8-12 8-21 0-8-2-14-7-19-5-4-10-7-17-7-8 0-14 3-18 7-4 5-6 11-6 20h-53c0-23 7-41 21-53 14-13 33-19 58-19 23 0 40 5 53 17 13 11 19 26 19 45 0 13-3 23-9 32-6 8-14 15-25 19 13 2 24 9 31 19 8 11 12 24 12 41 0 23-8 43-23 57-15 15-35 22-59 22-25 0-45-7-60-22-15-16-22-36-22-63v-2z"/><path class="fil1" d="M3079 77h32c6 0 10 1 12 4 3 3 5 6 5 10 0 3-1 6-3 8s-4 3-6 4c4 1 7 2 8 5 2 2 3 5 3 8s0 6-2 8c-1 2-3 4-5 5s-4 2-7 2c-3 1-6 1-7 1h-30V77zm17 21h8c3 0 4 0 5-1 2-1 2-2 2-4 0-1 0-3-2-4-1 0-2-1-5-1h-8v10zm0 22h9c3 0 5-1 6-2 2-1 2-2 2-4 0-1 0-3-2-4-1-1-3-1-6-1h-9v11zm60-22h9c9 0 15 2 19 5 4 2 6 7 6 13 0 5-2 9-6 12-3 2-9 4-16 4h-29V77h17v21zm0 22h9c5 0 8-2 8-6 0-3-3-5-8-5h-9v11zm38-43h17v55h-17V77zm46 21h9c8 0 14 2 18 5 4 2 6 7 6 13 0 5-2 9-5 12-4 2-9 4-16 4h-29V77h46v11h-29v10zm0 22h8c6 0 8-2 8-6 0-3-2-5-8-5h-8v11zm95-43v55h-16v-30l-20 30h-17V77h17v30l20-30h16zm11 0h29c6 0 11 1 14 4s4 7 4 13c0 5-1 10-5 13-3 3-8 5-15 5h-9v20h-18V77zm18 23h4c3 0 5 0 7-1 1-1 2-3 2-5 0-1-1-3-2-4s-3-2-7-2h-4v12zm72 23h-19l-3 9h-17l20-55h19l21 55h-18l-3-9zm-3-12l-6-20-7 20h13zm29-34h46v12h-29v8h27v12h-27v10h30v13h-47V77zm52 0h52v14h-18v41h-17V91h-17V77zm59 0h46v12h-29v8h27v12h-27v10h30v13h-47V77zm118 32l15 5c-1 4-2 7-4 10-3 3-5 5-8 7-4 1-8 2-13 2-6 0-11-1-14-3-4-2-7-5-10-9s-4-10-4-17c0-9 2-16 7-21s12-7 21-7c7 0 12 1 16 4s7 7 9 13l-15 3c-1-1-1-2-2-3-1-2-2-2-3-3-2-1-3-1-5-1-4 0-7 1-9 4-1 3-2 6-2 11 0 6 1 10 3 13 1 2 4 3 7 3 4 0 6-1 8-3 1-2 3-4 3-8zm58 14h-20l-3 9h-17l21-55h18l21 55h-18l-2-9zm-4-12l-6-20-6 20h12zm29-34h23l8 33 9-33h22v55h-14V90l-10 42h-13l-11-42v42h-14V77zm71 27c0-9 3-15 8-20s12-8 21-8 16 3 21 7c5 5 7 12 7 21 0 6-1 12-3 16s-5 7-9 9c-5 3-10 4-16 4s-11-1-15-3-8-5-10-10c-3-4-4-9-4-16zm17 0c0 6 1 10 3 12 2 3 5 4 9 4 3 0 6-1 8-4 2-2 3-6 3-12 0-5-1-9-3-12-2-2-5-3-8-3-4 0-7 1-9 3-2 3-3 7-3 12zm49-27h46v12h-29v8h27v12h-27v10h30v13h-47V77zM3079 177h32c6 0 10 2 12 4 3 3 5 6 5 10 0 3-1 6-3 8s-4 3-6 4c4 1 7 3 8 5 2 2 3 5 3 9 0 2 0 5-2 7-1 2-3 4-5 6-2 0-4 1-7 1-3 1-6 1-7 1h-30v-55zm17 22h8c3 0 4-1 5-2 2 0 2-2 2-4 0-1 0-2-2-3-1-1-2-2-5-2h-8v11zm0 21h9c3 0 5 0 6-1 2-1 2-3 2-4 0-2 0-3-2-4-1-1-3-2-6-2h-9v11zm60-22h9c9 0 15 2 19 5s6 7 6 13-2 9-6 12c-3 3-9 4-16 4h-29v-55h17v21zm0 22h9c5 0 8-2 8-5 0-4-3-5-8-5h-9v10zm38-43h17v55h-17v-55zm72 14h-26v41h-18v-55h44v14zm6 14c0-9 2-16 7-21s12-8 21-8 16 3 21 8 8 11 8 20c0 7-1 12-3 16-3 4-6 7-10 10-4 2-9 3-15 3s-11-1-16-3c-4-2-7-5-9-9-3-5-4-10-4-16zm17 0c0 5 1 9 3 12 2 2 5 3 8 3 4 0 7-1 9-3 2-3 3-7 3-13 0-5-1-9-3-11-2-3-5-4-9-4-3 0-6 1-8 4-2 2-3 6-3 12zm107 39h-14v-12h-35v12h-14v-25h6c3-8 5-18 5-29v-13h46v42h6v25zm-23-25v-28h-14c0 8-1 17-4 28h18zm30-42h17v19h18v-19h17v55h-17v-22h-18v22h-17v-55zm62 28c0-9 2-16 7-21s12-8 21-8 16 3 21 8 8 11 8 20c0 7-1 12-4 16-2 4-5 7-9 10-4 2-9 3-15 3s-12-1-16-3-7-5-10-9c-2-5-3-10-3-16zm17 0c0 5 1 9 3 12 2 2 5 3 8 3 4 0 7-1 9-3 2-3 3-7 3-13 0-5-1-9-3-11-3-3-5-4-9-4-3 0-6 1-8 4-2 2-3 6-3 12zm49-28h46v12h-29v9h26v11h-26v11h29v12h-46v-55zm134 55h-17v-41h-19v41h-17v-55h53v55zm11-55h29c6 0 10 2 14 5 3 3 4 7 4 12 0 6-2 10-5 13s-8 5-15 5h-10v20h-17v-55zm17 24h5c3 0 5-1 7-2 1-1 2-3 2-4 0-2-1-4-2-5s-4-2-7-2h-5v13zm39-24h46v12h-29v9h27v11h-27v11h29v12h-46v-55zm113 67h-13v-12h-35v12h-14v-25h6c3-8 4-18 4-29v-13h47v42h5v25zm-22-25v-28h-14c0 8-1 17-4 28h18zm80 13h-17v-41h-13v17c0 7-1 12-2 15 0 3-2 6-5 7-3 2-7 2-13 2h-6v-11h2c2 0 4-1 5-2s1-3 1-5v-37h48v55zm9-27c0-9 2-16 7-21 6-5 12-8 21-8 10 0 17 3 22 8s7 11 7 20c0 7-1 12-3 16s-5 7-10 10c-4 2-9 3-15 3s-11-1-15-3-8-5-10-9c-3-5-4-10-4-16zm17 0c0 5 1 9 3 12 2 2 5 3 9 3 3 0 6-1 8-3 2-3 3-7 3-13 0-5-1-9-3-11-2-3-5-4-9-4-3 0-6 1-8 4-2 2-3 6-3 12zm127 27h-19l-7-14c-2-3-3-5-4-6s-2-2-3-2v22h-17v-22c-2 0-3 1-4 2s-2 3-4 6l-6 14h-19l7-15c2-4 4-7 6-9s4-3 6-4c-2-1-3-2-4-3s-2-3-3-6c-1-2-2-4-3-5-2-1-4-2-7-2h-1v-11c7 0 11 0 14 1s5 2 6 3c2 2 3 4 4 7 2 5 3 8 4 9s2 1 4 1v-21h17v21c1 0 2 0 3-1s2-4 4-9c1-3 3-5 4-7 1-1 3-2 6-3s8-1 14-1v11h-1c-3 0-5 1-6 2-2 1-3 3-4 5-1 3-2 5-3 6s-2 2-4 3c3 1 5 2 6 4 2 2 4 5 6 9l8 15zm6-55h46v12h-29v9h26v11h-26v11h29v12h-46v-55zm56 0h17v19h18v-19h17v55h-17v-22h-18v22h-17v-55zm117 0v55h-17v-30l-20 30h-16v-55h16v31l21-31h16zm11 0h46v12h-29v9h26v11h-26v11h29v12h-46v-55z"/><path class="fil0" d="M4505 24h1488l93 124v4l-93 124-1446 1-34-218z"/><path class="fil2" d="M4513 170V96c0-7 0-12 1-17 0-5 0-9 1-12-2 5-4 10-7 15-2 5-5 11-8 17l-41 71h54zm0 107v-57h-100v-50l82-146h68v146h25v50h-25v57h-50z"/><path class="fil1" d="M4681 142h-14v-12h-36v12h-14v-24h6c3-9 5-19 5-30V75h47v43h6v24zm-23-24V89h-14v1c0 7-2 17-4 28h18zm28-15c0-9 2-16 7-21s12-7 21-7c10 0 17 2 22 7s8 12 8 20c0 7-2 12-4 16s-5 8-9 10-10 3-16 3-11-1-16-3c-4-2-7-5-10-9-2-4-3-10-3-16zm17 0c0 5 1 9 3 12 2 2 5 4 9 4 3 0 6-2 8-4s3-7 3-13c0-5-1-9-3-11s-5-4-9-4c-3 0-6 2-8 4s-3 6-3 12zm94-14h-27v41h-17V75h44v14zm6 14c0-9 2-16 8-21 5-5 12-7 21-7s16 2 21 7 8 12 8 20c0 7-1 12-3 16-3 4-6 8-10 10s-9 3-16 3c-6 0-11-1-15-3s-8-5-10-9c-3-4-4-10-4-16zm17 0c0 5 1 9 3 12 2 2 5 4 9 4s7-2 9-4 3-7 3-13c0-5-1-9-4-11-2-2-5-4-8-4-4 0-7 2-9 4s-3 6-3 12zm50-28h33c5 0 9 2 12 4 3 3 5 6 5 10 0 3-2 6-4 8-1 2-3 3-6 4 4 1 7 3 9 5s3 5 3 9c0 3-1 5-2 7-1 3-3 4-5 6-2 1-4 1-7 2h-38V75zm18 22h7c3 0 5 0 6-1s2-3 2-4c0-2-1-3-2-4s-3-1-6-1h-7v10zm0 22h9c3 0 5-1 6-2s2-2 2-4-1-3-2-4-3-2-6-2h-9v12zm78 2h-20l-3 9h-18l22-55h18l21 55h-18l-2-9zm-4-12l-6-19-6 19h12zm30-34h29c6 0 11 2 14 5s4 7 4 12c0 6-1 10-5 13-3 3-8 5-15 5h-10v20h-17V75zm17 24h4c4 0 6-1 8-2 1-1 2-2 2-4s-1-3-2-5c-1-1-4-1-7-1h-5v12zm93-24v55h-16v-30l-21 30h-16V75h16v31l21-31h16zm12 0h32c6 0 10 2 13 4 2 3 4 6 4 10 0 3-1 6-3 8s-4 3-6 4c4 1 7 3 9 5s2 5 2 9c0 3 0 5-2 7-1 3-3 4-5 6-2 1-4 1-7 2h-37V75zm17 22h8c2 0 4 0 5-1s2-3 2-4c0-2-1-3-2-4s-3-1-5-1h-8v10zm0 22h9c3 0 5-1 6-2s2-2 2-4 0-3-2-4c-1-1-3-2-6-2h-9v12zm78 2h-20l-3 9h-17l21-55h19l21 55h-18l-3-9zm-4-12l-6-19-6 19h12zm30-34h47v12h-29v9h27v11h-27v11h29v12h-47V75zm53 0h53v14h-18v41h-17V89h-18V75zm60 0h47v12h-29v9h27v11h-27v11h29v12h-47V75zm94 33l15 4c-1 4-2 8-5 11-2 3-4 5-8 6-3 2-7 2-12 2-6 0-11-1-15-2-4-2-7-5-10-10-3-4-4-9-4-16 0-9 2-16 7-21s12-7 21-7c7 0 13 1 17 4s7 7 9 13l-15 3c-1-2-2-3-2-4-1-1-2-2-4-3-1 0-3-1-4-1-4 0-7 2-9 5-2 2-3 6-3 11 0 6 1 10 3 12s5 4 8 4 6-1 7-3c2-2 3-5 4-8zm41-11h9c9 0 15 1 19 4s6 7 6 14c0 5-2 9-5 11-4 3-9 4-17 4h-29V75h17v22zm0 22h9c5 0 8-2 8-6s-3-5-8-5h-9v11zm67-16c0-9 3-16 8-21s12-7 21-7 17 2 22 7 7 12 7 20c0 7-1 12-3 16s-6 8-10 10-9 3-15 3c-7 0-12-1-16-3s-7-5-10-9-4-10-4-16zm17 0c0 5 1 9 4 12 2 2 5 4 8 4 4 0 7-2 9-4s3-7 3-13c0-5-1-9-3-11s-5-4-9-4c-3 0-6 2-8 4-3 2-4 6-4 12zm114 5l15 4c-1 4-3 8-5 11s-5 5-8 6c-3 2-7 2-12 2-6 0-11-1-15-2-4-2-7-5-10-10-3-4-4-9-4-16 0-9 2-16 7-21s12-7 21-7c7 0 12 1 17 4 4 3 7 7 9 13l-16 3c0-2-1-3-1-4-1-1-3-2-4-3-1 0-3-1-5-1-4 0-7 2-9 5-1 2-2 6-2 11 0 6 1 10 3 12s4 4 8 4c3 0 6-1 7-3 2-2 3-5 4-8zm82 34h-14v-12h-35v12h-14v-24h5c4-9 5-19 5-30V75h47v43h6v24zm-23-24V89h-14v1c0 7-1 17-4 28h18zm30-43h46v12h-29v9h27v11h-27v11h30v12h-47V75zm108 55h-17V89h-14v17c0 7 0 12-1 15s-3 6-5 7c-3 2-7 3-14 3-2 0-4-1-6-1v-11h2c3 0 4-1 5-2s2-3 2-5V75h48v55zm62 0h-19l-7-14c-2-3-3-5-4-6s-2-1-3-1v21h-18V75h18v22c1-1 2-1 3-2s2-4 4-8c1-4 3-6 4-8 1-1 4-2 7-3 2-1 7-1 14-1v12h-1c-3 0-5 0-7 1-1 1-3 3-3 6-1 2-2 4-3 5s-3 2-5 3c3 1 5 2 7 4s4 5 6 9l7 15zm7-55h46v12h-29v9h27v11h-27v11h30v12h-47V75zM4676 238h-17v-41h-19v41h-18v-55h54v55zm9-27c0-9 3-16 8-21s12-7 21-7 17 2 22 7 7 12 7 20c0 7-1 12-3 16s-6 8-10 10-9 3-15 3c-7 0-12-1-16-3s-7-5-10-9-4-10-4-16zm17 0c0 6 1 9 4 12 2 2 5 4 8 4 4 0 7-2 9-4s3-7 3-13c0-5-1-9-3-11s-5-4-9-4c-3 0-6 2-8 4-3 2-4 6-4 12zm73-28h52v14h-17v41h-18v-41h-17v-14zm60 0h46v12h-29v9h27v11h-27v11h30v12h-47v-55zm108 55h-17v-41h-14v17c0 7 0 12-1 15s-2 6-5 7c-3 2-7 3-14 3-1 0-4-1-6-1v-11h3c2 0 4-1 5-2 0-1 1-3 1-5v-37h48v55zm12-55h46v12h-29v9h27v11h-27v11h30v12h-47v-55zm94 5c17 1 26 9 26 22 0 14-9 21-26 23v5h-15v-6c-17-1-26-8-26-22 0-13 9-21 26-22v-5h15v5zm0 33c3-1 5-2 7-4 1-2 2-4 2-7s-1-5-2-7c-2-2-4-4-7-5v23zm-15 0v-22c-3 0-5 2-7 4-1 2-2 4-2 7s1 5 2 7c2 2 4 3 7 4zm47-10c0-9 3-16 8-21s12-7 21-7 17 2 22 7 7 12 7 20c0 7-1 12-3 16s-6 8-10 10-9 3-15 3c-7 0-12-1-16-3s-7-5-10-9-4-10-4-16zm17 0c0 6 1 9 4 12 2 2 5 4 8 4 4 0 7-2 9-4s3-7 3-13c0-5-1-9-3-11s-5-4-9-4-6 2-8 4c-3 2-4 6-4 12zm51-28h17v20h19v-20h17v55h-17v-22h-19v22h-17v-55zm59 0h19l8 23 8-23h17l-18 43c-2 3-3 6-4 7-1 2-3 4-5 5s-5 1-9 1c-2 0-6 0-11-1v-11c3 0 5 1 7 1 4 0 6-2 7-5l-19-40zm138 0v55h-16v-30l-21 30h-17v-55h17v31l21-31h16zm47 25c6 2 10 6 10 13 0 5-2 10-7 13-4 4-10 5-18 5-13 0-21-5-24-16l16-1c1 4 4 6 8 6 3 0 4-1 6-2 1-1 1-3 1-5s0-4-2-5c-1-1-4-2-6-2h-5v-10h4c2 0 4 0 5-1 1-2 2-3 2-5 0-3-2-5-6-5s-6 2-7 6l-15-2c2-10 10-14 22-14 7 0 13 1 17 4 4 2 6 6 6 10 0 6-3 9-7 11zm44-25h33c5 0 9 2 12 4 3 3 5 6 5 10 0 3-1 6-3 8s-4 3-6 4c4 1 6 3 8 5s3 5 3 9c0 3 0 5-2 7-1 3-3 4-5 6-2 1-4 1-7 2h-38v-55zm18 22h7c3 0 5 0 6-1s2-3 2-4c0-2-1-3-2-4s-3-1-5-1h-8v10zm0 22h9c3 0 5-1 6-2s2-2 2-4-1-3-2-4-3-2-6-2h-9v12zm97-44v55h-16v-30l-21 30h-17v-55h17v31l21-31h16zm47 25c6 2 10 6 10 13 0 5-3 10-7 13-4 4-10 5-18 5-13 0-21-5-24-16l16-1c1 4 4 6 8 6 3 0 4-1 6-2 1-1 1-3 1-5s0-4-2-5c-1-1-4-2-6-2h-5v-10h4c2 0 4 0 5-1 1-2 2-3 2-5 0-3-2-5-6-5s-6 2-7 6l-15-2c2-10 10-14 22-14 7 0 13 1 17 4 4 2 6 6 6 10 0 6-3 9-7 11zm72-25v55h-16v-30l-21 30h-17v-55h17v31l21-31h16zm7 0h53v14h-18v41h-17v-41h-18v-14zm112 55h-20l-6-14c-2-3-3-5-4-6s-2-1-4-1v21h-17v-55h17v22c2-1 3-1 4-2s2-4 4-8c1-4 2-6 4-8 1-1 3-2 6-3s8-1 14-1v12h-1c-3 0-5 0-6 1-2 1-3 3-4 6-1 2-2 4-3 5s-2 2-4 3c2 1 4 2 6 4s4 5 6 9l8 15zm60-55v55h-17v-30l-21 30h-16v-55h16v31l21-31h17z"/><path class="fil2" d="M26 28h513l97 126-96 124H26z"/><path class="fil1" d="M207 212h-41l-14-30c-3-7-6-11-8-13-1-2-4-3-7-3v46h-36V96h36v45c3 0 5-2 7-4s5-8 8-17c3-8 6-13 9-16 2-3 7-5 13-7 6-1 16-2 29-2v25h-2c-6 0-10 1-13 3-3 3-6 6-8 12-2 5-4 9-6 11-2 3-5 5-9 6 5 2 10 5 14 9s8 11 12 19l16 32zm84-19h-40l-6 19h-37l44-116h39l44 116h-38l-6-19zm-7-25l-13-42-13 42h26zm168 44h-40l-14-30c-4-7-6-11-8-13s-4-3-8-3v46h-36V96h36v45c3 0 6-2 8-4 1-2 4-8 8-17 3-8 5-13 8-16s7-5 13-7c7-1 16-2 30-2v25h-2c-6 0-11 1-14 3-3 3-5 6-7 12-2 5-4 9-6 11-3 3-6 5-9 6 5 2 9 5 13 9s8 11 13 19l15 32zm11-84h35v32h-35v-32zm0 52h35v32h-35v-32z"/><path class="fil2" d="M686 274V80h-55l30-57h89v251z"/><path class="fil1" d="M816 204c7 2 10 6 10 12s-2 10-6 13c-4 4-10 6-17 6-13 0-21-6-24-17l16-1c1 4 3 6 7 6 3 0 5-1 6-2s1-3 1-5 0-3-2-5c-1-1-3-1-6-1h-4v-10h3c2 0 4-1 5-2s2-3 2-5c0-3-2-4-5-4-4 0-6 2-7 5l-15-2c2-9 10-14 22-14 7 0 12 1 16 4 3 3 5 6 5 11s-2 9-7 11zm52 21h-19l-3 9h-17l20-55h19l20 55h-18l-2-9zm-4-12l-6-20-6 20h12zm77 21v-55h-28c-5 0-9 0-12 1-2 1-5 3-6 5-2 3-3 6-3 9s1 6 2 8 3 4 5 5l6 3c-2 0-3 1-4 2-1 0-2 1-3 2-1 2-2 3-2 4l-8 16h19l9-17c1-2 2-4 3-4 1-1 2-2 4-2h1v23h17zm-17-33h-7c-1 0-2 0-4-1-1 0-2 0-3-1s-1-2-1-4c0-1 0-3 2-4 1-1 3-1 6-1h7v11zm28-22h31c6 0 10 1 12 4 3 2 5 6 5 10 0 3-1 6-3 8-2 1-4 3-6 4 4 0 6 2 8 4 2 3 3 6 3 9s-1 6-2 8-3 4-5 5-4 2-7 2-6 1-7 1h-29v-55zm17 21h7c3 0 5 0 6-1s1-2 1-4 0-3-1-4-3-1-6-1h-7v10zm0 22h8c3 0 5-1 7-2 1-1 1-2 1-4 0-1 0-3-1-4-2-1-4-1-7-1h-8v11zm91 12h-19l-6-14c-2-4-3-6-4-7s-2-1-4-1v22h-16v-55h16v21c2 0 3-1 4-2s2-3 4-8c1-3 2-6 3-7 2-2 4-3 7-4 3 0 7-1 13-1v12h-1c-3 0-5 1-6 2s-3 3-3 5l-3 6c-1 1-3 2-4 2 2 1 4 3 6 5s4 5 6 9l7 15zm1-55h18l7 22 8-22h17l-18 42c-1 4-3 6-4 8s-2 3-5 4c-2 1-5 2-8 2-2 0-6-1-10-1v-12c2 1 4 1 6 1 4 0 6-2 7-4l-18-40z"/></g></g></svg>