<?xml version="1.0" encoding="UTF-8"?>
<!DOCTYPE svg PUBLIC "-//W3C//DTD SVG 1.1//EN" "http://www.w3.org/Graphics/SVG/1.1/DTD/svg11.dtd">
<!-- Creator: CorelDRAW X7 -->
<svg xmlns="http://www.w3.org/2000/svg" xml:space="preserve" width="462.617mm" height="21.3348mm" version="1.1" style="shape-rendering:geometricPrecision; text-rendering:geometricPrecision; image-rendering:optimizeQuality; fill-rule:evenodd; clip-rule:evenodd"
viewBox="0 0 46262 2133"
 xmlns:xlink="http://www.w3.org/1999/xlink">
 <defs>
  <style type="text/css">
   <![CDATA[
    .fil3 {fill:#37AFB4;fill-rule:nonzero}
    .fil0 {fill:#80C688;fill-rule:nonzero}
    .fil1 {fill:#B45A78;fill-rule:nonzero}
    .fil2 {fill:#CC0007;fill-rule:nonzero}
    .fil4 {fill:#D8A06E;fill-rule:nonzero}
    .fil5 {fill:#F0F2F7;fill-rule:nonzero}
    .fil6 {fill:#FEFEFE;fill-rule:nonzero}
   ]]>
  </style>
 </defs>
 <g id="Слой_x0020_1">
  <metadata id="CorelCorpID_0Corel-Layer"/>
  <polygon class="fil0" points="6041,55 6862,1024 6030,2005 921,2005 921,55 "/>
 </g>
 <g id="_800_x0020_x_x0020_800px">
  <metadata id="CorelCorpID_1Corel-Layer"/>
  <polygon class="fil1" points="7939,57 14859,55 18108,55 19043,1057 18107,2017 8466,2017 7669,1890 8446,867 "/>
  <path class="fil2" d="M8494 2020l-1446 0 850 -1037c51,-63 89,-120 114,-171 24,-51 37,-99 37,-143 0,-69 -21,-125 -63,-168 -42,-43 -97,-64 -165,-64 -81,0 -143,26 -186,80 -44,53 -66,130 -66,231l0 24 -455 0 0 -13c0,-221 62,-395 188,-522 98,-100 225,-161 380,-182l273 0c149,20 271,73 368,160 126,113 189,263 189,451 0,91 -20,180 -59,267 -40,87 -105,181 -197,285l-341 387 579 0 0 415 0 0z"/>
  <polygon class="fil3" points="19806,55 30862,55 31742,1022 30862,2018 20498,2018 19780,2028 20254,1608 20035,860 20014,475 "/>
  <path class="fil2" d="M19085 1347l464 0 0 31c0,83 19,146 57,189 37,43 93,65 166,65 77,0 136,-21 177,-62 41,-41 62,-101 62,-179 0,-87 -22,-152 -66,-193 -43,-41 -112,-61 -206,-61 -15,0 -27,0 -35,0 -7,0 -15,1 -21,1l0 -305 26 0c84,0 148,-19 193,-57 45,-38 68,-94 68,-167 0,-58 -19,-105 -57,-142 -38,-36 -87,-54 -146,-54 -64,0 -113,17 -148,53 -35,36 -53,86 -55,152l-443 0c3,-178 63,-316 180,-414 116,-99 279,-148 489,-148 188,0 335,44 442,132 107,88 161,207 161,358 0,96 -24,178 -74,245 -49,67 -121,115 -215,146 114,22 203,73 266,155 64,82 95,186 95,314 0,184 -63,334 -190,449 -126,116 -291,173 -495,173 -214,0 -383,-59 -508,-179 -125,-119 -187,-280 -187,-484l0 -18 0 0z"/>
  <polygon class="fil4" points="32692,60 45218,60 46005,1030 46005,1054 45218,2024 33043,2034 32757,334 "/>
  <path class="fil2" d="M32762 1198l0 -577c0,-53 1,-98 3,-133 2,-36 6,-67 10,-92 -16,39 -34,78 -54,116 -20,39 -44,83 -73,131l-340 555 454 0zm0 836l0 -444 -842 0 0 -392 689 -1138 575 0 0 1138 205 0 0 392 -205 0 0 444 -422 0 0 0z"/>
  <polygon class="fil2" points="542,2010 542,493 81,493 327,55 1079,55 1079,2010 "/>
  <path class="fil5" d="M1449 633l-100 -23c22,-82 83,-123 183,-123 59,0 104,13 134,39 30,26 45,57 45,92 0,24 -7,46 -20,65 -14,20 -35,37 -62,52 33,11 58,27 75,48 17,21 25,47 25,78 0,45 -16,81 -49,108 -32,27 -81,41 -146,41 -52,0 -94,-9 -125,-26 -30,-18 -53,-51 -69,-99l93 -31c10,31 23,50 39,59 16,9 36,14 59,14 32,0 56,-7 71,-21 15,-14 22,-30 22,-48 0,-21 -8,-38 -25,-50 -17,-13 -42,-19 -75,-19l-24 0 0 -77 12 0c31,0 55,-7 72,-21 16,-14 24,-32 24,-55 0,-19 -6,-34 -20,-47 -13,-13 -32,-19 -57,-19 -43,0 -70,21 -82,63z"/>
  <path id="_1" class="fil5" d="M2274 1001l-110 0 -44 -115 -202 0 -42 115 -109 0 197 -505 108 0 202 505zm-187 -200l-70 -187 -68 187 138 0z"/>
  <polygon id="_2" class="fil5" points="2321,496 2722,496 2722,1001 2620,1001 2620,581 2423,581 2423,1001 2321,1001 "/>
  <path id="_3" class="fil5" d="M2805 751c0,-51 8,-94 23,-129 12,-26 28,-49 47,-70 20,-20 42,-35 66,-45 31,-14 68,-20 109,-20 74,0 134,23 179,69 44,46 67,111 67,193 0,82 -23,146 -67,192 -44,46 -104,69 -178,69 -75,0 -135,-23 -179,-69 -45,-46 -67,-109 -67,-190zm105 -3c0,57 14,101 40,130 27,30 60,45 101,45 41,0 74,-15 100,-44 26,-30 39,-74 39,-132 0,-58 -12,-102 -38,-130 -25,-29 -59,-43 -101,-43 -42,0 -76,15 -102,43 -26,29 -39,73 -39,131z"/>
  <path id="_4" class="fil5" d="M3394 496l354 0 0 505 -102 0 0 -420 -152 0 0 216c0,62 -2,105 -6,129 -4,25 -14,44 -30,57 -16,14 -41,21 -75,21 -12,0 -34,-1 -66,-4l0 -79 23 1c22,0 36,-3 43,-9 8,-6 11,-20 11,-42l0 -87 0 -288z"/>
  <polygon id="_5" class="fil5" points="3853,1001 3853,496 3955,496 3955,695 4154,695 4154,496 4256,496 4256,1001 4154,1001 4154,780 3955,780 3955,1001 "/>
  <path id="_6" class="fil5" d="M4664 1001l0 -211 -20 0c-33,0 -55,5 -69,14 -13,10 -36,39 -68,87l-73 110 -122 0 62 -99c24,-39 43,-66 58,-82 14,-16 32,-30 54,-42 -47,-7 -81,-24 -102,-49 -20,-26 -31,-56 -31,-91 0,-31 8,-58 23,-82 16,-24 36,-40 62,-48 25,-8 63,-12 114,-12l215 0 0 505 -103 0zm0 -420l-79 0c-41,0 -67,1 -80,3 -13,2 -24,8 -33,19 -9,10 -14,24 -14,41 0,18 5,32 14,42 8,11 20,17 33,20 14,2 42,4 84,4l75 0 0 -129z"/>
  <polygon id="_7" class="fil5" points="4869,1001 4869,496 5243,496 5243,581 4972,581 4972,693 5224,693 5224,779 4972,779 4972,916 5253,916 5253,1001 "/>
  <polygon id="_8" class="fil5" points="5454,1001 5454,581 5304,581 5304,496 5705,496 5705,581 5556,581 5556,1001 "/>
  <polygon id="_9" class="fil5" points="5771,1001 5771,496 6145,496 6145,581 5873,581 5873,693 6126,693 6126,779 5873,779 5873,916 6155,916 6155,1001 "/>
  <path id="_10" class="fil5" d="M1449 1422l-100 -24c22,-82 83,-123 183,-123 59,0 104,13 134,39 30,26 45,57 45,92 0,24 -7,46 -20,65 -14,20 -35,37 -62,52 33,11 58,28 75,49 17,21 25,47 25,78 0,44 -16,80 -49,107 -32,28 -81,41 -146,41 -52,0 -94,-8 -125,-26 -30,-18 -53,-51 -69,-99l93 -31c10,31 23,51 39,60 16,9 36,13 59,13 32,0 56,-7 71,-21 15,-14 22,-30 22,-48 0,-21 -8,-37 -25,-50 -17,-13 -42,-19 -75,-19l-24 0 0 -76 12 0c31,0 55,-7 72,-21 16,-14 24,-33 24,-56 0,-19 -6,-34 -20,-47 -13,-13 -32,-19 -57,-19 -43,0 -70,21 -82,64z"/>
  <path id="_11" class="fil5" d="M2274 1789l-110 0 -44 -115 -202 0 -42 115 -109 0 197 -505 108 0 202 505zm-187 -200l-70 -187 -68 187 138 0z"/>
  <path id="_12" class="fil5" d="M2631 1789l0 -211 -21 0c-33,0 -55,5 -69,15 -13,9 -35,38 -67,86l-74 110 -122 0 62 -98c24,-39 44,-67 58,-83 14,-15 33,-29 54,-42 -47,-7 -81,-23 -101,-49 -21,-25 -32,-56 -32,-91 0,-31 8,-58 24,-82 15,-24 36,-40 61,-48 25,-8 63,-12 114,-12l215 0 0 505 -102 0zm0 -420l-80 0c-41,0 -67,1 -80,3 -13,2 -24,8 -33,19 -9,10 -14,24 -14,41 0,18 5,32 14,43 9,10 20,16 34,19 13,3 41,4 83,4l76 0 0 -129z"/>
  <path id="_13" class="fil5" d="M2836 1284l202 0c40,0 70,2 89,5 20,3 38,10 53,21 16,10 28,24 39,42 10,17 15,37 15,59 0,23 -6,45 -19,65 -12,20 -30,34 -51,44 30,9 54,25 70,46 17,22 25,47 25,76 0,24 -5,46 -16,68 -11,21 -25,39 -44,52 -18,13 -41,21 -68,24 -17,2 -58,3 -123,3l-172 0 0 -505zm102 84l0 116 67 0c39,0 64,0 74,-1 17,-2 31,-8 41,-18 10,-10 15,-23 15,-40 0,-15 -4,-28 -13,-38 -9,-9 -21,-15 -38,-17 -11,-1 -40,-2 -87,-2l-59 0zm0 200l0 136 95 0c36,0 60,-1 70,-3 15,-3 27,-10 37,-20 9,-11 14,-25 14,-43 0,-16 -4,-29 -11,-39 -7,-11 -18,-19 -32,-23 -14,-5 -44,-8 -91,-8l-82 0z"/>
  <path id="_14" class="fil5" d="M3347 1284l102 0 0 215c23,-2 38,-8 46,-17 8,-10 21,-36 37,-79 21,-55 43,-89 64,-102 21,-13 55,-20 102,-20 2,0 7,0 15,0l0 75 -15 0c-21,0 -36,2 -45,7 -10,6 -18,13 -24,24 -6,11 -15,32 -26,65 -7,18 -13,32 -21,44 -7,12 -20,23 -38,33 23,7 41,20 56,39 15,20 31,47 49,83l69 138 -120 0 -61 -130c-1,-2 -3,-5 -6,-11 -1,-1 -5,-9 -12,-23 -13,-25 -24,-41 -32,-47 -8,-6 -21,-9 -38,-10l0 221 -102 0 0 -505z"/>
  <path id="_15" class="fil5" d="M3742 1284l115 0 117 262 101 -262 106 0 -171 384c-18,42 -37,73 -56,95 -20,22 -45,33 -75,33 -30,0 -54,-2 -71,-6l0 -76c15,1 28,1 39,1 24,0 41,-4 51,-13 10,-8 20,-27 29,-56l-185 -362z"/>
  <polygon class="fil5" points="8870,461 8965,461 8965,798 9170,461 9271,461 9271,967 9176,967 9176,636 8971,967 8870,967 "/>
  <path id="_1_0" class="fil5" d="M9699 780l99 31c-16,55 -41,97 -76,124 -35,27 -80,40 -134,40 -68,0 -123,-23 -166,-69 -43,-46 -65,-108 -65,-188 0,-84 22,-149 65,-196 44,-46 101,-70 172,-70 62,0 112,19 150,55 23,22 41,53 52,93l-101 24c-6,-26 -18,-46 -37,-62 -19,-15 -42,-22 -69,-22 -38,0 -68,13 -92,40 -23,27 -35,70 -35,131 0,63 12,109 35,136 23,27 53,41 90,41 27,0 50,-9 70,-26 19,-18 33,-45 42,-82z"/>
  <polygon id="_2_1" class="fil5" points="9887,461 10288,461 10288,967 10186,967 10186,547 9989,547 9989,967 9887,967 "/>
  <path id="_3_2" class="fil5" d="M10371 717c0,-51 8,-95 23,-130 12,-25 27,-49 47,-69 20,-21 42,-36 66,-46 31,-13 67,-20 109,-20 74,0 134,23 178,70 45,46 68,110 68,193 0,81 -23,145 -67,192 -44,46 -104,69 -178,69 -75,0 -135,-23 -179,-69 -45,-46 -67,-109 -67,-190zm105 -3c0,57 14,100 40,130 26,29 60,44 101,44 41,0 74,-14 100,-44 26,-29 39,-73 39,-132 0,-58 -12,-101 -38,-129 -25,-29 -59,-43 -101,-43 -42,0 -76,14 -102,43 -26,29 -39,72 -39,131z"/>
  <path id="_4_3" class="fil5" d="M10960 461l354 0 0 506 -103 0 0 -420 -151 0 0 215c0,62 -2,105 -6,130 -5,24 -15,43 -31,57 -16,14 -40,20 -74,20 -12,0 -34,-1 -66,-3l0 -79 23 0c21,0 36,-3 43,-8 8,-6 11,-20 11,-43l0 -86 0 -289z"/>
  <polygon id="_5_4" class="fil5" points="11419,967 11419,461 11521,461 11521,660 11720,660 11720,461 11822,461 11822,967 11720,967 11720,746 11521,746 11521,967 "/>
  <polygon id="_6_5" class="fil5" points="11930,461 12025,461 12025,798 12229,461 12331,461 12331,967 12236,967 12236,636 12031,967 11930,967 "/>
  <polygon id="_7_6" class="fil5" points="12549,967 12549,547 12399,547 12399,461 12800,461 12800,547 12651,547 12651,967 "/>
  <polygon id="_8_7" class="fil5" points="12866,967 12866,461 13240,461 13240,547 12969,547 12969,659 13221,659 13221,744 12969,744 12969,881 13250,881 13250,967 "/>
  <path id="_9_8" class="fil5" d="M13373 461l354 0 0 506 -102 0 0 -420 -152 0 0 215c0,62 -2,105 -6,130 -4,24 -14,43 -30,57 -16,14 -41,20 -75,20 -12,0 -34,-1 -65,-3l0 -79 23 0c21,0 35,-3 43,-8 7,-6 11,-20 11,-43l-1 -86 0 -289z"/>
  <polygon id="_10_9" class="fil5" points="13833,461 13929,461 13929,798 14133,461 14235,461 14235,967 14140,967 14140,636 13935,967 13833,967 "/>
  <path id="_11_10" class="fil5" d="M14576 461l349 0 0 420 44 0 0 196 -85 0 0 -110 -317 0 0 110 -85 0 0 -196 43 0c21,-43 34,-93 41,-150 7,-57 10,-129 10,-216l0 -54zm98 86c0,153 -15,264 -43,334l191 0 0 -334 -148 0z"/>
  <polygon id="_12_11" class="fil5" points="15038,967 15038,461 15412,461 15412,547 15140,547 15140,659 15393,659 15393,744 15140,744 15140,881 15422,881 15422,967 "/>
  <path id="_13_12" class="fil5" d="M15545 461l354 0 0 506 -103 0 0 -420 -151 0 0 215c0,62 -2,105 -7,130 -4,24 -14,43 -30,57 -16,14 -41,20 -75,20 -12,0 -33,-1 -65,-3l0 -79 23 0c21,0 36,-3 43,-8 7,-6 11,-20 11,-43l0 -86 0 -289z"/>
  <path id="_14_13" class="fil5" d="M16459 967l-111 0 -43 -115 -203 0 -42 115 -108 0 196 -506 108 0 203 506zm-187 -201l-71 -187 -68 187 139 0z"/>
  <path id="_15_14" class="fil5" d="M16513 461l102 0 0 211 82 0c6,-62 28,-114 66,-156 38,-43 93,-64 165,-64 70,0 125,23 166,68 41,45 62,109 62,193 0,55 -9,102 -27,141 -18,39 -43,69 -76,90 -33,21 -73,32 -122,32 -50,0 -89,-8 -118,-24 -30,-15 -55,-41 -77,-75 -22,-35 -35,-75 -39,-119l-82 0 0 209 -102 0 0 -506zm287 253c0,57 11,100 33,131 22,30 53,45 94,45 41,0 72,-15 93,-45 20,-30 31,-76 31,-136 0,-59 -12,-101 -36,-128 -24,-27 -55,-41 -92,-41 -36,0 -66,14 -89,41 -23,28 -34,72 -34,133z"/>
  <polygon id="_16" class="fil5" points="17337,967 17337,547 17187,547 17187,461 17588,461 17588,547 17439,547 17439,967 "/>
  <path id="_17" class="fil5" d="M8868 1250l202 0c41,0 70,1 90,5 20,3 37,10 53,20 15,11 28,25 39,43 10,17 15,37 15,59 0,23 -6,45 -19,64 -13,20 -30,35 -52,45 31,9 54,24 71,46 17,21 25,47 25,76 0,23 -6,45 -16,67 -11,22 -26,39 -44,52 -19,13 -41,21 -69,24 -16,2 -58,3 -123,4l-172 0 0 -505zm103 84l0 116 67 0c39,0 64,-1 73,-2 18,-2 32,-8 42,-18 10,-10 15,-23 15,-39 0,-16 -5,-28 -13,-38 -9,-10 -22,-16 -39,-18 -10,-1 -39,-1 -87,-1l-58 0zm0 200l0 135 94 0c37,0 60,-1 70,-3 15,-2 28,-9 37,-20 10,-11 15,-25 15,-43 0,-15 -4,-28 -11,-39 -8,-10 -18,-18 -32,-23 -14,-5 -44,-7 -91,-7l-82 0z"/>
  <path id="_18" class="fil5" d="M9798 1755l-110 0 -44 -115 -203 0 -42 115 -108 0 196 -505 108 0 203 505zm-187 -201l-70 -187 -69 187 139 0z"/>
  <polygon id="_19" class="fil5" points="9851,1755 9851,1250 10004,1250 10095,1594 10184,1250 10338,1250 10338,1755 10243,1755 10243,1357 10143,1755 10045,1755 9946,1357 9945,1755 "/>
  <polygon id="_20" class="fil5" points="10637,1250 11039,1250 11039,1755 10937,1755 10937,1335 10740,1335 10740,1755 10637,1755 "/>
  <path id="_21" class="fil5" d="M11143 1755l0 -505 164 0c62,0 102,2 121,7 29,8 53,24 73,50 19,25 29,58 29,98 0,31 -6,57 -17,78 -11,21 -25,38 -43,50 -17,12 -35,20 -53,24 -24,5 -59,7 -105,7l-66 0 0 191 -103 0zm103 -420l0 144 55 0c40,0 67,-3 81,-8 13,-5 24,-14 31,-25 8,-11 12,-24 12,-39 0,-19 -6,-34 -16,-46 -11,-12 -25,-19 -41,-23 -12,-2 -37,-3 -73,-3l-49 0z"/>
  <polygon id="_22" class="fil5" points="11614,1755 11614,1250 11988,1250 11988,1335 11716,1335 11716,1447 11969,1447 11969,1533 11716,1533 11716,1669 11998,1669 11998,1755 "/>
  <path id="_23" class="fil5" d="M12125 1250l349 0 0 419 44 0 0 196 -85 0 0 -110 -317 0 0 110 -85 0 0 -196 43 0c21,-43 35,-93 41,-150 7,-57 10,-129 10,-216l0 -53zm98 85c0,153 -14,264 -43,334l192 0 0 -334 -149 0z"/>
  <path id="_24" class="fil5" d="M12623 1250l354 0 0 505 -102 0 0 -420 -152 0 0 216c0,61 -2,105 -6,129 -4,24 -14,44 -30,57 -16,14 -41,21 -75,21 -12,0 -34,-2 -65,-4l0 -79 23 0c21,0 35,-2 43,-8 7,-6 11,-20 11,-42l-1 -87 0 -288z"/>
  <path id="_25" class="fil5" d="M13061 1505c0,-51 8,-94 23,-130 12,-25 27,-48 47,-69 20,-20 42,-36 65,-46 32,-13 68,-20 109,-20 75,0 135,24 179,70 45,46 67,111 67,193 0,82 -22,146 -66,192 -45,46 -104,69 -178,69 -75,0 -135,-23 -179,-69 -45,-46 -67,-109 -67,-190zm105 -3c0,57 13,101 40,130 26,30 60,45 101,45 40,0 74,-15 100,-44 26,-30 39,-74 39,-133 0,-57 -12,-101 -38,-129 -25,-29 -59,-43 -101,-43 -42,0 -76,14 -102,43 -26,29 -39,73 -39,131z"/>
  <path id="_26" class="fil5" d="M13938 1250l0 215c18,-2 30,-8 39,-19 9,-11 21,-37 36,-77 20,-53 41,-87 62,-101 21,-14 56,-22 105,-22 2,0 7,0 15,0l0 76 -15 -1c-21,0 -36,3 -46,8 -9,5 -17,13 -23,24 -6,10 -15,32 -27,65 -6,17 -13,32 -20,44 -7,12 -20,23 -38,33 22,7 41,20 56,39 15,19 31,47 49,83l69 138 -120 0 -61 -130c-1,-2 -3,-6 -6,-11 -2,-3 -6,-11 -13,-24 -12,-24 -23,-39 -31,-46 -8,-7 -18,-10 -31,-10l0 221 -99 0 0 -221c-12,0 -22,3 -30,10 -9,6 -19,22 -32,46 -7,14 -11,22 -13,24 -2,3 -4,7 -5,11l-61 130 -120 0 69 -138c17,-35 33,-62 48,-82 15,-20 34,-33 57,-40 -18,-10 -31,-21 -38,-33 -8,-12 -14,-26 -21,-44 -11,-32 -20,-54 -26,-65 -6,-10 -13,-18 -23,-24 -10,-5 -26,-8 -48,-8 -3,0 -7,0 -13,1l0 -76c7,0 12,0 15,0 49,0 84,8 105,22 21,15 41,48 61,101 16,40 28,66 37,77 8,11 21,17 38,19l0 -215 99 0z"/>
  <polygon id="_27" class="fil5" points="14259,1755 14259,1250 14633,1250 14633,1335 14362,1335 14362,1447 14614,1447 14614,1533 14362,1533 14362,1669 14643,1669 14643,1755 "/>
  <polygon id="_28" class="fil5" points="14730,1755 14730,1250 14832,1250 14832,1449 15031,1449 15031,1250 15134,1250 15134,1755 15031,1755 15031,1534 14832,1534 14832,1755 "/>
  <polygon id="_29" class="fil5" points="15241,1250 15336,1250 15336,1586 15541,1250 15642,1250 15642,1755 15547,1755 15547,1424 15343,1755 15241,1755 "/>
  <path id="_30" class="fil5" d="M16049 1755l0 -211 -21 0c-32,0 -55,5 -68,14 -14,10 -36,39 -68,87l-73 110 -122 0 61 -99c24,-39 44,-66 58,-82 15,-16 33,-30 54,-42 -47,-8 -80,-24 -101,-49 -21,-26 -31,-56 -31,-91 0,-31 7,-58 23,-82 15,-24 36,-40 61,-48 26,-8 64,-12 114,-12l215 0 0 505 -102 0zm0 -420l-80 0c-40,0 -67,1 -80,3 -12,2 -23,8 -33,18 -9,11 -13,25 -13,42 0,18 4,32 13,42 9,11 20,17 34,20 13,2 41,3 83,3l76 0 0 -128z"/>
  <path class="fil5" d="M20830 391l202 0c40,0 70,2 90,5 20,3 37,10 53,21 15,10 28,24 38,42 11,17 16,37 16,59 0,23 -6,45 -19,65 -13,19 -30,34 -52,44 31,9 54,24 71,46 16,22 25,47 25,76 0,23 -6,46 -16,67 -11,22 -26,40 -44,53 -19,13 -42,21 -69,24 -17,1 -58,3 -123,3l-172 0 0 -505zm103 84l0 116 66 0c40,0 65,0 74,-2 18,-2 31,-8 41,-18 10,-10 15,-23 15,-39 0,-15 -4,-28 -13,-38 -8,-10 -21,-15 -38,-17 -10,-2 -39,-2 -87,-2l-58 0zm0 200l0 136 94 0c37,0 60,-1 70,-3 15,-3 28,-10 37,-21 10,-10 14,-25 14,-43 0,-15 -3,-28 -11,-38 -7,-11 -18,-19 -31,-24 -14,-4 -45,-7 -91,-7l-82 0z"/>
  <path id="_1_15" class="fil5" d="M21343 391l102 0 0 202 136 0c36,0 67,5 92,14 26,10 48,28 65,53 17,25 26,54 26,86 0,35 -9,64 -27,89 -18,25 -38,41 -60,49 -22,8 -54,12 -96,12l-238 0 0 -505zm102 420l99 0c32,0 54,-2 67,-5 12,-3 23,-10 33,-21 10,-11 15,-24 15,-40 0,-22 -8,-39 -24,-50 -16,-11 -45,-17 -87,-17l-103 0 0 133zm377 -420l103 0 0 505 -103 0 0 -505z"/>
  <path id="_2_16" class="fil5" d="M22033 391l377 0 0 85 -275 0 0 117 136 0c38,0 69,5 94,14 25,9 46,26 63,51 18,25 27,54 27,87 0,34 -9,63 -27,88 -18,24 -38,41 -60,50 -23,9 -55,13 -97,13l-238 0 0 -505zm102 420l99 0c32,0 54,-2 67,-5 13,-3 24,-10 33,-21 10,-11 15,-24 15,-40 0,-23 -9,-40 -25,-51 -17,-10 -45,-15 -85,-15l-104 0 0 132z"/>
  <polygon id="_3_17" class="fil5" points="22539,391 22634,391 22634,727 22839,391 22941,391 22941,896 22845,896 22845,565 22641,896 22539,896 "/>
  <path id="_4_18" class="fil5" d="M23045 896l0 -505 163 0c62,0 103,2 122,7 28,8 53,24 72,50 20,25 30,58 30,98 0,31 -6,57 -17,79 -12,21 -26,37 -43,49 -17,12 -35,20 -53,24 -24,5 -59,8 -106,8l-66 0 0 190 -102 0zm102 -420l0 144 56 0c40,0 67,-3 80,-8 14,-5 24,-13 32,-25 7,-11 11,-24 11,-39 0,-19 -5,-34 -16,-46 -11,-12 -24,-19 -41,-22 -12,-3 -36,-4 -73,-4l-49 0z"/>
  <path id="_5_19" class="fil5" d="M23909 896l-111 0 -43 -115 -203 0 -42 115 -108 0 196 -505 108 0 203 505zm-187 -200l-71 -187 -68 187 139 0z"/>
  <polygon id="_6_20" class="fil5" points="23963,896 23963,391 24337,391 24337,476 24065,476 24065,588 24318,588 24318,674 24065,674 24065,811 24347,811 24347,896 "/>
  <polygon id="_7_21" class="fil5" points="24547,896 24547,476 24398,476 24398,391 24798,391 24798,476 24650,476 24650,896 "/>
  <polygon id="_8_22" class="fil5" points="24865,896 24865,391 25239,391 25239,476 24967,476 24967,588 25220,588 25220,674 24967,674 24967,811 25248,811 25248,896 "/>
  <path id="_9_23" class="fil5" d="M25854 710l99 30c-15,56 -40,97 -76,124 -35,27 -80,41 -134,41 -67,0 -122,-23 -165,-69 -43,-46 -65,-109 -65,-188 0,-85 22,-150 65,-196 43,-47 101,-70 171,-70 62,0 112,18 151,55 23,21 40,52 52,93l-101 24c-6,-26 -19,-47 -38,-62 -19,-15 -42,-23 -69,-23 -37,0 -68,14 -91,41 -23,26 -35,70 -35,130 0,64 12,109 34,136 24,27 53,41 90,41 27,0 51,-9 70,-26 20,-17 34,-44 42,-81z"/>
  <path id="_10_24" class="fil5" d="M26478 896l-110 0 -43 -115 -203 0 -42 115 -108 0 196 -505 108 0 202 505zm-187 -200l-70 -187 -68 187 138 0z"/>
  <polygon id="_11_25" class="fil5" points="26531,896 26531,391 26685,391 26775,735 26865,391 27018,391 27018,896 26924,896 26923,498 26824,896 26725,896 26626,498 26626,896 "/>
  <path id="_12_26" class="fil5" d="M27099 647c0,-52 8,-95 24,-130 11,-26 27,-49 47,-70 19,-20 41,-35 65,-45 31,-14 68,-20 109,-20 74,0 134,23 179,69 44,46 67,111 67,193 0,82 -22,146 -67,192 -44,46 -104,69 -178,69 -75,0 -135,-23 -179,-69 -44,-46 -67,-109 -67,-189zm105 -4c0,57 14,101 40,130 27,30 60,45 101,45 41,0 74,-15 100,-44 27,-30 40,-74 40,-132 0,-58 -13,-102 -39,-130 -25,-29 -59,-43 -101,-43 -42,0 -76,15 -102,43 -26,29 -39,73 -39,131z"/>
  <polygon id="_13_27" class="fil5" points="27669,896 27669,391 28043,391 28043,476 27772,476 27772,588 28024,588 28024,674 27772,674 27772,811 28053,811 28053,896 "/>
  <path id="_14_28" class="fil5" d="M20830 1179l202 0c40,0 70,2 90,5 20,3 37,10 53,21 15,10 28,24 38,42 11,17 16,37 16,59 0,23 -6,45 -19,65 -13,20 -30,34 -52,44 31,9 54,25 71,46 16,22 25,47 25,77 0,23 -6,45 -16,67 -11,21 -26,39 -44,52 -19,13 -42,21 -69,24 -17,2 -58,3 -123,3l-172 0 0 -505zm103 84l0 116 66 0c40,0 65,0 74,-1 18,-2 31,-8 41,-18 10,-10 15,-23 15,-40 0,-15 -4,-28 -13,-38 -8,-9 -21,-15 -38,-17 -10,-1 -39,-2 -87,-2l-58 0zm0 200l0 136 94 0c37,0 60,-1 70,-3 15,-3 28,-10 37,-20 10,-11 14,-25 14,-43 0,-16 -3,-29 -11,-39 -7,-11 -18,-18 -31,-23 -14,-5 -45,-8 -91,-8l-82 0z"/>
  <path id="_15_29" class="fil5" d="M21343 1179l102 0 0 202 136 0c36,0 67,5 92,15 26,9 48,27 65,52 17,25 26,54 26,87 0,34 -9,63 -27,88 -18,25 -38,41 -60,49 -22,8 -54,12 -96,12l-238 0 0 -505zm102 420l99 0c32,0 54,-2 67,-5 12,-3 23,-10 33,-21 10,-11 15,-24 15,-40 0,-22 -8,-39 -24,-50 -16,-11 -45,-17 -87,-17l-103 0 0 133zm377 -420l103 0 0 505 -103 0 0 -505z"/>
  <polygon id="_16_30" class="fil5" points="22035,1179 22378,1179 22378,1264 22138,1264 22138,1684 22035,1684 "/>
  <path id="_17_31" class="fil5" d="M22400 1435c0,-52 8,-95 23,-130 12,-26 27,-49 47,-69 20,-21 42,-36 65,-46 32,-13 68,-20 109,-20 75,0 135,23 179,69 45,47 67,111 67,193 0,82 -22,146 -66,192 -45,46 -104,69 -178,69 -75,0 -135,-22 -179,-68 -45,-46 -67,-110 -67,-190zm105 -4c0,58 13,101 40,131 26,29 60,44 101,44 40,0 74,-15 100,-44 26,-29 39,-73 39,-132 0,-58 -12,-101 -38,-130 -25,-28 -59,-43 -101,-43 -42,0 -76,15 -102,44 -26,29 -39,72 -39,130z"/>
  <path id="_18_32" class="fil5" d="M23002 1179l348 0 0 420 45 0 0 195 -86 0 0 -110 -317 0 0 110 -85 0 0 -195 43 0c21,-43 35,-93 42,-150 6,-57 10,-129 10,-217l0 -53zm97 85c0,153 -14,265 -42,335l191 0 0 -335 -149 0z"/>
  <polygon id="_19_33" class="fil5" points="23463,1684 23463,1179 23566,1179 23566,1378 23765,1378 23765,1179 23867,1179 23867,1684 23765,1684 23765,1463 23566,1463 23566,1684 "/>
  <path id="_20_34" class="fil5" d="M23952 1435c0,-52 7,-95 23,-130 11,-26 27,-49 47,-69 20,-21 41,-36 65,-46 32,-13 68,-20 109,-20 75,0 134,23 179,69 45,47 67,111 67,193 0,82 -22,146 -67,192 -44,46 -103,69 -177,69 -76,0 -135,-22 -180,-68 -44,-46 -66,-110 -66,-190zm105 -4c0,58 13,101 39,131 27,29 61,44 101,44 41,0 74,-15 101,-44 26,-29 39,-73 39,-132 0,-58 -13,-101 -38,-130 -26,-28 -60,-43 -102,-43 -42,0 -76,15 -102,44 -25,29 -38,72 -38,130z"/>
  <polygon id="_21_35" class="fil5" points="24522,1684 24522,1179 24896,1179 24896,1264 24624,1264 24624,1377 24876,1377 24876,1462 24624,1462 24624,1599 24905,1599 24905,1684 "/>
  <polygon id="_22_36" class="fil5" points="25190,1179 25591,1179 25591,1684 25489,1684 25489,1264 25292,1264 25292,1684 25190,1684 "/>
  <path id="_23_37" class="fil5" d="M25695 1684l0 -505 164 0c62,0 102,3 121,8 29,7 53,24 73,49 19,26 29,58 29,99 0,31 -6,57 -17,78 -11,21 -25,37 -43,50 -17,12 -34,20 -52,23 -25,5 -60,8 -106,8l-66 0 0 190 -103 0zm103 -420l0 144 55 0c40,0 67,-2 81,-8 13,-5 24,-13 31,-25 8,-11 12,-24 12,-39 0,-18 -5,-34 -16,-46 -11,-12 -25,-19 -41,-22 -12,-2 -37,-4 -73,-4l-49 0z"/>
  <polygon id="_24_38" class="fil5" points="26166,1684 26166,1179 26540,1179 26540,1264 26268,1264 26268,1377 26521,1377 26521,1462 26268,1462 26268,1599 26550,1599 26550,1684 "/>
  <path id="_25_39" class="fil5" d="M26678 1179l348 0 0 420 45 0 0 195 -86 0 0 -110 -317 0 0 110 -85 0 0 -195 43 0c21,-43 35,-93 42,-150 6,-57 10,-129 10,-217l0 -53zm97 85c0,153 -14,265 -42,335l191 0 0 -335 -149 0z"/>
  <path id="_26_40" class="fil5" d="M27176 1179l353 0 0 505 -102 0 0 -420 -152 0 0 216c0,62 -2,105 -6,129 -4,25 -14,44 -30,58 -16,13 -41,20 -75,20 -12,0 -33,-1 -65,-3l0 -79 23 0c21,0 36,-3 43,-9 7,-5 11,-20 11,-42l0 -87 0 -288z"/>
  <path id="_27_41" class="fil5" d="M27613 1435c0,-52 8,-95 23,-130 12,-26 27,-49 47,-69 20,-21 42,-36 66,-46 31,-13 67,-20 109,-20 74,0 134,23 178,69 45,47 67,111 67,193 0,82 -22,146 -66,192 -44,46 -104,69 -178,69 -75,0 -135,-22 -179,-68 -45,-46 -67,-110 -67,-190zm105 -4c0,58 14,101 40,131 26,29 60,44 101,44 41,0 74,-15 100,-44 26,-29 39,-73 39,-132 0,-58 -12,-101 -38,-130 -25,-28 -59,-43 -101,-43 -42,0 -76,15 -102,44 -26,29 -39,72 -39,130z"/>
  <path id="_28_42" class="fil5" d="M28491 1179l0 215c17,-1 29,-7 38,-19 9,-11 21,-37 36,-77 21,-53 41,-86 62,-101 21,-14 56,-21 105,-21 2,0 7,0 15,0l0 75 -15 0c-21,0 -36,2 -46,7 -9,6 -17,14 -23,24 -6,11 -15,32 -27,65 -6,18 -13,32 -20,44 -7,12 -20,23 -38,33 22,7 41,20 56,39 15,20 31,47 49,83l69 138 -120 0 -61 -130c-1,-2 -3,-5 -6,-11 -2,-3 -6,-11 -12,-23 -13,-24 -24,-40 -32,-47 -8,-6 -18,-10 -30,-10l0 221 -100 0 0 -221c-12,0 -22,4 -30,10 -9,7 -19,22 -32,47 -7,13 -11,21 -12,23 -3,4 -5,7 -6,11l-61 130 -120 0 69 -138c17,-34 33,-61 48,-82 15,-20 34,-33 57,-40 -18,-10 -31,-21 -38,-33 -7,-11 -14,-26 -21,-44 -11,-32 -20,-53 -26,-64 -6,-11 -13,-19 -23,-24 -10,-6 -26,-8 -48,-8 -3,0 -7,0 -13,0l0 -75c8,0 13,0 15,0 49,0 84,7 105,22 21,14 41,48 61,100 16,41 28,66 37,77 8,12 21,18 38,19l0 -215 100 0z"/>
  <polygon id="_29_43" class="fil5" points="28812,1684 28812,1179 29185,1179 29185,1264 28914,1264 28914,1377 29166,1377 29166,1462 28914,1462 28914,1599 29195,1599 29195,1684 "/>
  <polygon id="_30_44" class="fil5" points="29282,1684 29282,1179 29384,1179 29384,1378 29583,1378 29583,1179 29686,1179 29686,1684 29583,1684 29583,1463 29384,1463 29384,1684 "/>
  <polygon id="_31" class="fil5" points="29793,1179 29888,1179 29888,1515 30093,1179 30195,1179 30195,1684 30099,1684 30099,1353 29895,1684 29793,1684 "/>
  <polygon id="_32" class="fil5" points="30299,1684 30299,1179 30673,1179 30673,1264 30401,1264 30401,1377 30654,1377 30654,1462 30401,1462 30401,1599 30683,1599 30683,1684 "/>
  <path class="fil6" d="M33795 411l348 0 0 420 45 0 0 196 -85 0 0 -110 -317 0 0 110 -86 0 0 -196 43 0c21,-43 35,-93 42,-150 7,-57 10,-129 10,-216l0 -54zm97 86c0,153 -14,264 -42,334l191 0 0 -334 -149 0z"/>
  <path id="_1_45" class="fil6" d="M34235 667c0,-52 8,-95 24,-130 11,-26 27,-49 47,-69 20,-21 41,-36 65,-46 31,-13 68,-20 109,-20 74,0 134,23 179,70 44,46 67,110 67,193 0,81 -22,145 -67,191 -44,47 -103,70 -178,70 -75,0 -135,-23 -179,-69 -44,-46 -67,-109 -67,-190zm106 -3c0,57 13,100 39,130 27,29 60,44 101,44 41,0 74,-15 101,-44 26,-29 39,-73 39,-132 0,-58 -13,-101 -39,-130 -25,-28 -59,-42 -101,-42 -42,0 -76,14 -102,43 -26,29 -38,72 -38,131z"/>
  <polygon id="_2_46" class="fil6" points="34810,411 35153,411 35153,497 34913,497 34913,917 34810,917 "/>
  <path id="_3_47" class="fil6" d="M35175 667c0,-52 8,-95 23,-130 11,-26 27,-49 47,-69 20,-21 42,-36 65,-46 32,-13 68,-20 109,-20 75,0 134,23 179,70 45,46 67,110 67,193 0,81 -22,145 -66,191 -45,47 -104,70 -178,70 -75,0 -135,-23 -180,-69 -44,-46 -66,-109 -66,-190zm105 -3c0,57 13,100 40,130 26,29 60,44 101,44 40,0 74,-15 100,-44 26,-29 39,-73 39,-132 0,-58 -13,-101 -38,-130 -25,-28 -59,-42 -101,-42 -43,0 -77,14 -102,43 -26,29 -39,72 -39,131z"/>
  <path id="_4_48" class="fil6" d="M35745 411l202 0c40,0 70,2 89,5 20,4 38,11 53,21 16,11 29,25 39,42 10,18 16,37 16,59 0,24 -7,46 -20,65 -12,20 -30,35 -51,44 30,10 54,25 71,46 16,22 24,47 24,77 0,23 -5,45 -16,67 -10,22 -25,39 -44,52 -18,13 -41,21 -68,24 -17,2 -58,3 -123,4l-172 0 0 -506zm102 84l0 117 67 0c40,0 64,-1 74,-2 17,-2 31,-8 41,-18 10,-10 15,-23 15,-39 0,-16 -4,-29 -13,-38 -9,-10 -21,-16 -38,-18 -10,-1 -39,-2 -87,-2l-59 0zm0 201l0 135 95 0c36,0 60,-1 70,-3 15,-3 27,-9 37,-20 9,-11 14,-25 14,-43 0,-15 -4,-28 -11,-39 -7,-10 -18,-18 -32,-23 -14,-5 -44,-7 -90,-7l-83 0z"/>
  <path id="_5_49" class="fil6" d="M36674 917l-110 0 -43 -115 -203 0 -42 115 -108 0 196 -506 108 0 202 506zm-187 -201l-70 -187 -68 187 138 0z"/>
  <path id="_6_50" class="fil6" d="M36729 917l0 -506 163 0c62,0 103,3 121,8 29,8 54,24 73,49 20,26 29,59 29,99 0,31 -5,57 -16,78 -12,21 -26,38 -43,50 -17,12 -35,20 -53,24 -24,5 -60,7 -106,7l-66 0 0 191 -102 0zm102 -420l0 144 56 0c40,0 66,-3 80,-8 14,-6 24,-14 32,-25 7,-12 11,-25 11,-40 0,-18 -5,-33 -16,-45 -11,-12 -24,-20 -41,-23 -12,-2 -36,-3 -73,-3l-49 0z"/>
  <polygon id="_7_51" class="fil6" points="37201,411 37296,411 37296,748 37501,411 37602,411 37602,917 37507,917 37507,586 37302,917 37201,917 "/>
  <path id="_8_52" class="fil6" d="M37707 411l202 0c40,0 69,2 89,5 20,4 37,11 53,21 15,11 28,25 39,42 10,18 15,37 15,59 0,24 -6,46 -19,65 -13,20 -30,35 -52,44 31,10 55,25 71,46 17,22 25,47 25,77 0,23 -5,45 -16,67 -11,22 -25,39 -44,52 -18,13 -41,21 -68,24 -17,2 -58,3 -123,4l-172 0 0 -506zm102 84l0 117 67 0c39,0 64,-1 74,-2 17,-2 31,-8 41,-18 10,-10 15,-23 15,-39 0,-16 -5,-29 -13,-38 -9,-10 -22,-16 -39,-18 -10,-1 -39,-2 -87,-2l-58 0zm0 201l0 135 94 0c37,0 60,-1 70,-3 16,-3 28,-9 37,-20 10,-11 15,-25 15,-43 0,-15 -4,-28 -11,-39 -8,-10 -18,-18 -32,-23 -14,-5 -44,-7 -91,-7l-82 0z"/>
  <path id="_9_53" class="fil6" d="M38636 917l-110 0 -44 -115 -202 0 -42 115 -109 0 197 -506 108 0 202 506zm-187 -201l-70 -187 -68 187 138 0z"/>
  <polygon id="_10_54" class="fil6" points="38690,917 38690,411 39064,411 39064,497 38793,497 38793,609 39045,609 39045,694 38793,694 38793,831 39074,831 39074,917 "/>
  <polygon id="_11_55" class="fil6" points="39275,917 39275,497 39125,497 39125,411 39526,411 39526,497 39377,497 39377,917 "/>
  <polygon id="_12_56" class="fil6" points="39592,917 39592,411 39966,411 39966,497 39694,497 39694,609 39947,609 39947,694 39694,694 39694,831 39976,831 39976,917 "/>
  <path id="_13_57" class="fil6" d="M40386 730l99 31c-16,55 -41,96 -76,124 -35,26 -80,40 -134,40 -67,0 -123,-23 -166,-69 -43,-46 -65,-108 -65,-188 0,-84 22,-149 65,-196 44,-47 101,-70 172,-70 62,0 112,19 150,55 23,22 41,53 52,93l-101 24c-6,-26 -18,-46 -37,-62 -19,-15 -42,-22 -69,-22 -38,0 -68,13 -92,40 -23,27 -35,70 -35,131 0,63 12,109 35,136 23,27 53,40 90,40 27,0 50,-8 70,-25 19,-18 33,-45 42,-82z"/>
  <path id="_14_58" class="fil6" d="M40574 411l103 0 0 202 136 0c64,0 111,15 139,45 29,30 44,66 44,109 0,34 -9,63 -27,87 -17,25 -37,41 -59,50 -23,8 -55,13 -97,13l-239 0 0 -506zm103 420l99 0c32,0 54,-1 67,-4 12,-4 23,-11 33,-21 10,-11 14,-25 14,-41 0,-23 -8,-40 -25,-50 -16,-11 -45,-16 -85,-16l-103 0 0 132z"/>
  <path id="_15_59" class="fil6" d="M41254 667c0,-52 8,-95 23,-130 12,-26 28,-49 47,-69 20,-21 42,-36 66,-46 31,-13 68,-20 109,-20 74,0 134,23 179,70 44,46 67,110 67,193 0,81 -23,145 -67,191 -44,47 -104,70 -178,70 -75,0 -135,-23 -179,-69 -45,-46 -67,-109 -67,-190zm105 -3c0,57 14,100 40,130 27,29 60,44 101,44 41,0 74,-15 100,-44 26,-29 39,-73 39,-132 0,-58 -12,-101 -38,-130 -25,-28 -59,-42 -101,-42 -42,0 -76,14 -102,43 -26,29 -39,72 -39,131z"/>
  <path id="_16_60" class="fil6" d="M42342 730l99 31c-15,55 -40,96 -76,124 -35,26 -80,40 -134,40 -67,0 -122,-23 -165,-69 -43,-46 -65,-108 -65,-188 0,-84 22,-149 65,-196 43,-47 101,-70 171,-70 62,0 112,19 151,55 23,22 40,53 52,93l-101 24c-6,-26 -19,-46 -38,-62 -19,-15 -42,-22 -69,-22 -37,0 -68,13 -91,40 -23,27 -35,70 -35,131 0,63 12,109 34,136 24,27 53,40 90,40 27,0 51,-8 70,-25 20,-18 34,-45 42,-82z"/>
  <path id="_17_61" class="fil6" d="M42560 411l349 0 0 420 44 0 0 196 -85 0 0 -110 -317 0 0 110 -85 0 0 -196 43 0c21,-43 35,-93 41,-150 7,-57 10,-129 10,-216l0 -54zm98 86c0,153 -14,264 -43,334l192 0 0 -334 -149 0z"/>
  <polygon id="_18_62" class="fil6" points="43022,917 43022,411 43396,411 43396,497 43124,497 43124,609 43377,609 43377,694 43124,694 43124,831 43406,831 43406,917 "/>
  <path id="_19_63" class="fil6" d="M43529 411l354 0 0 506 -102 0 0 -420 -152 0 0 215c0,62 -2,105 -6,130 -5,24 -14,43 -30,57 -16,14 -41,20 -75,20 -12,0 -34,-1 -66,-3l0 -79 23 0c22,0 36,-3 43,-8 8,-6 11,-20 11,-43l0 -87 0 -288z"/>
  <path id="_20_64" class="fil6" d="M43989 411l102 0 0 216c23,-3 39,-9 47,-18 8,-10 20,-36 37,-79 21,-54 42,-89 63,-102 21,-13 55,-20 103,-20 2,0 7,0 14,0l0 75 -14 0c-21,0 -36,3 -46,8 -10,5 -17,13 -23,23 -6,11 -15,33 -27,66 -6,17 -13,32 -20,43 -7,12 -20,23 -38,34 22,6 41,19 56,39 15,19 31,47 48,82l69 139 -120 0 -60 -131c-1,-1 -3,-5 -6,-10 -1,-2 -6,-10 -13,-24 -13,-25 -23,-40 -32,-47 -8,-6 -20,-9 -38,-9l0 221 -102 0 0 -506z"/>
  <polygon id="_21_65" class="fil6" points="44418,917 44418,411 44792,411 44792,497 44521,497 44521,609 44773,609 44773,694 44521,694 44521,831 44802,831 44802,917 "/>
  <polygon id="_22_66" class="fil6" points="33755,1200 34157,1200 34157,1705 34055,1705 34055,1285 33858,1285 33858,1705 33755,1705 "/>
  <path id="_23_67" class="fil6" d="M34240 1455c0,-51 8,-95 23,-130 12,-25 27,-49 47,-69 20,-20 42,-36 65,-46 32,-13 68,-20 109,-20 75,0 135,24 179,70 45,46 67,110 67,193 0,82 -22,146 -66,192 -45,46 -104,69 -178,69 -75,0 -135,-23 -179,-69 -45,-46 -67,-109 -67,-190zm105 -3c0,57 13,100 40,130 26,30 60,44 101,44 40,0 74,-14 100,-44 26,-29 39,-73 39,-132 0,-58 -12,-101 -38,-129 -25,-29 -59,-43 -101,-43 -42,0 -76,14 -102,43 -26,29 -39,73 -39,131z"/>
  <polygon id="_24_68" class="fil6" points="35120,1705 35120,1285 34970,1285 34970,1200 35371,1200 35371,1285 35222,1285 35222,1705 "/>
  <polygon id="_25_69" class="fil6" points="35437,1705 35437,1200 35811,1200 35811,1285 35539,1285 35539,1397 35792,1397 35792,1482 35539,1482 35539,1619 35821,1619 35821,1705 "/>
  <path id="_26_70" class="fil6" d="M35944 1200l354 0 0 505 -103 0 0 -420 -151 0 0 216c0,61 -2,104 -6,129 -5,24 -15,43 -31,57 -16,14 -40,21 -74,21 -12,0 -34,-2 -66,-4l0 -79 23 0c21,0 36,-2 43,-8 8,-6 11,-20 11,-43l0 -86 0 -288z"/>
  <polygon id="_27_71" class="fil6" points="36403,1705 36403,1200 36777,1200 36777,1285 36505,1285 36505,1397 36758,1397 36758,1482 36505,1482 36505,1619 36787,1619 36787,1705 "/>
  <path id="_28_72" class="fil6" d="M37173 1645l0 60 -100 0 0 -60c-81,-2 -138,-22 -171,-59 -33,-37 -50,-83 -50,-139 0,-58 18,-105 52,-140 35,-35 91,-54 169,-57l0 -50 100 0 0 50c80,3 137,22 171,59 33,36 50,83 50,139 0,55 -17,101 -50,138 -33,37 -90,57 -171,59zm0 -85c27,0 50,-4 69,-13 19,-9 33,-21 41,-36 8,-15 12,-38 12,-67 0,-73 -40,-109 -122,-109l0 225zm-100 0l0 -225c-43,0 -74,10 -93,29 -20,19 -29,48 -29,87 0,73 41,109 122,109z"/>
  <path id="_29_73" class="fil6" d="M37454 1455c0,-51 8,-95 23,-130 12,-25 28,-49 48,-69 19,-20 41,-36 65,-46 31,-13 68,-20 109,-20 74,0 134,24 179,70 44,46 67,110 67,193 0,82 -23,146 -67,192 -44,46 -104,69 -178,69 -75,0 -135,-23 -179,-69 -44,-46 -67,-109 -67,-190zm105 -3c0,57 14,100 40,130 27,30 60,44 101,44 41,0 74,-14 100,-44 27,-29 40,-73 40,-132 0,-58 -13,-101 -39,-129 -25,-29 -59,-43 -101,-43 -42,0 -76,14 -102,43 -26,29 -39,73 -39,131z"/>
  <polygon id="_30_74" class="fil6" points="38024,1705 38024,1200 38127,1200 38127,1399 38326,1399 38326,1200 38428,1200 38428,1705 38326,1705 38326,1484 38127,1484 38127,1705 "/>
  <path id="_31_75" class="fil6" d="M38482 1200l115 0 117 261 101 -261 107 0 -171 384c-19,41 -38,73 -57,95 -19,21 -44,32 -75,32 -30,0 -53,-2 -70,-6l0 -76c14,1 27,2 39,2 23,0 40,-5 50,-13 11,-9 20,-28 30,-56l-186 -362z"/>
  <polygon id="_32_76" class="fil6" points="39170,1200 39265,1200 39265,1536 39470,1200 39572,1200 39572,1705 39476,1705 39476,1374 39272,1705 39170,1705 "/>
  <path id="_33" class="fil6" d="M39748 1337l-100 -23c22,-82 83,-124 183,-124 59,0 104,13 134,40 30,26 45,56 45,92 0,24 -7,45 -20,65 -14,19 -35,36 -62,51 33,12 58,28 75,49 17,21 25,47 25,78 0,44 -16,80 -49,108 -32,27 -81,41 -146,41 -53,0 -94,-9 -125,-27 -30,-17 -53,-50 -69,-99l93 -30c10,30 23,50 39,59 16,9 36,14 59,14 32,0 56,-7 71,-21 14,-14 22,-30 22,-48 0,-21 -9,-38 -25,-51 -17,-12 -42,-19 -75,-19l-24 0 0 -76 12 0c31,0 55,-7 72,-21 16,-14 24,-33 24,-56 0,-18 -6,-34 -20,-46 -13,-13 -32,-19 -57,-19 -43,0 -70,21 -82,63z"/>
  <path id="_34" class="fil6" d="M40314 1200l202 0c40,0 70,1 89,5 20,3 38,10 53,20 16,11 29,25 39,42 10,18 16,38 16,59 0,24 -7,46 -19,65 -13,20 -30,35 -52,45 31,9 54,24 71,46 16,21 24,47 24,76 0,23 -5,45 -16,67 -10,22 -25,39 -44,52 -18,13 -41,21 -68,24 -17,2 -58,3 -123,4l-172 0 0 -505zm102 84l0 116 67 0c40,0 64,-1 74,-2 17,-2 31,-8 41,-18 10,-10 15,-23 15,-39 0,-16 -4,-28 -13,-38 -8,-10 -21,-16 -38,-18 -10,-1 -39,-1 -87,-1l-59 0zm0 200l0 135 95 0c37,0 60,-1 70,-3 15,-3 27,-9 37,-20 9,-11 14,-25 14,-43 0,-15 -3,-28 -11,-39 -7,-10 -18,-18 -32,-23 -14,-5 -44,-7 -90,-7l-83 0z"/>
  <polygon id="_35" class="fil6" points="40825,1200 40920,1200 40920,1536 41125,1200 41226,1200 41226,1705 41131,1705 41131,1374 40927,1705 40825,1705 "/>
  <path id="_36" class="fil6" d="M41403 1337l-100 -23c22,-82 82,-124 183,-124 59,0 104,13 134,40 30,26 45,56 45,92 0,24 -7,45 -21,65 -13,19 -34,36 -62,51 34,12 59,28 76,49 16,21 25,47 25,78 0,44 -16,80 -49,108 -33,27 -81,41 -146,41 -53,0 -95,-9 -125,-27 -31,-17 -54,-50 -69,-99l93 -30c10,30 23,50 39,59 16,9 35,14 59,14 32,0 56,-7 71,-21 14,-14 22,-30 22,-48 0,-21 -9,-38 -25,-51 -17,-12 -42,-19 -76,-19l-23 0 0 -76 12 0c31,0 55,-7 71,-21 17,-14 25,-33 25,-56 0,-18 -7,-34 -20,-46 -13,-13 -33,-19 -58,-19 -42,0 -69,21 -81,63z"/>
  <polygon id="_37" class="fil6" points="41774,1200 41868,1200 41868,1536 42073,1200 42175,1200 42175,1705 42079,1705 42079,1374 41875,1705 41774,1705 "/>
  <polygon id="_38" class="fil6" points="42392,1705 42392,1285 42243,1285 42243,1200 42644,1200 42644,1285 42495,1285 42495,1705 "/>
  <path id="_39" class="fil6" d="M42711 1200l103 0 0 215c22,-3 38,-8 46,-18 8,-9 20,-36 37,-79 21,-54 42,-88 63,-102 22,-13 56,-20 103,-20 2,0 7,0 14,0l0 76 -14 -1c-21,0 -36,3 -46,8 -10,5 -17,13 -23,24 -6,10 -15,32 -27,65 -6,17 -13,32 -20,44 -7,11 -20,23 -38,33 22,6 41,19 56,39 15,19 31,47 49,82l68 139 -120 0 -60 -130c-1,-2 -3,-6 -6,-11 -1,-2 -5,-10 -13,-24 -13,-25 -23,-40 -31,-46 -9,-7 -21,-10 -38,-10l0 221 -103 0 0 -505z"/>
  <polygon id="_40" class="fil6" points="43142,1200 43237,1200 43237,1536 43442,1200 43543,1200 43543,1705 43448,1705 43448,1374 43244,1705 43142,1705 "/>
 </g>
</svg>
