<?xml version="1.0" encoding="UTF-8"?>
<!DOCTYPE svg PUBLIC "-//W3C//DTD SVG 1.1//EN" "http://www.w3.org/Graphics/SVG/1.1/DTD/svg11.dtd">
<!-- Creator: CorelDRAW 2017 -->
<svg xmlns="http://www.w3.org/2000/svg" xml:space="preserve" width="118.533mm" height="118.533mm" version="1.1" style="shape-rendering:geometricPrecision; text-rendering:geometricPrecision; image-rendering:optimizeQuality; fill-rule:evenodd; clip-rule:evenodd"
viewBox="0 0 11853.32 11853.32"
 xmlns:xlink="http://www.w3.org/1999/xlink">
 <defs>
  <style type="text/css">
   <![CDATA[
    .str0 {stroke:#7A9E9E;stroke-width:330.66;stroke-miterlimit:22.9256}
    .fil2 {fill:black}
    .fil9 {fill:#660066}
    .fil0 {fill:#669999}
    .fil6 {fill:#779F9E}
    .fil3 {fill:#7A9E9E}
    .fil8 {fill:#E6E6E6}
    .fil7 {fill:#FAFFFD}
    .fil1 {fill:#FCD5A6}
    .fil4 {fill:red}
    .fil5 {fill:#FFCC99}
   ]]>
  </style>
 </defs>
 <g id="Layer_x0020_1">
  <metadata id="CorelCorpID_0Corel-Layer"/>
  <path class="fil0" d="M1595.45 9295.7c56.89,-24.38 162.53,-24.38 243.81,-24.38l243.82 -24.38c0,-219.44 -24.38,-455.13 -24.38,-674.57l-219.44 -3478.43c0,-162.54 -81.28,-1373.49 -56.9,-1430.39 -56.88,-56.88 -81.26,-1292.22 -105.64,-1479.16l-56.9 0c-81.28,24.39 -837.1,56.9 -999.65,81.28 -56.88,292.58 56.9,1406 81.28,1755.48 81.27,1479.14 138.15,2966.42 243.82,4445.54 24.38,268.2 56.89,568.9 81.25,861.48l568.92 -24.38 0 0 0 0 0.01 -8.12 0 0.01 0 0.02z"/>
  <path class="fil1" d="M8170.32 4175.56c-24.38,138.17 -24.38,243.83 -24.38,373.87 56.88,731.44 617.66,1373.5 1397.87,1479.15 568.9,81.26 1080.92,-138.16 1373.5,-455.14 56.9,-24.38 56.9,-56.88 105.66,-105.64 56.88,-56.9 138.17,-162.56 162.54,-243.81 138.16,-219.45 162.54,-349.49 219.44,-617.69l0 -325.07c-186.92,0 -1406.01,-105.67 -1560.42,-138.18 -292.59,-24.38 -918.37,-105.64 -1162.19,-292.56l-105.66 -81.28 0 -24.38c-24.38,105.66 -268.2,406.36 -406.36,430.73l0 0 0 0z"/>
  <path class="fil2" d="M9145.57 2964.61c-381.98,162.55 -674.56,455.14 -837.09,780.22 -24.39,81.28 -56.91,138.16 -81.28,186.92 -24.38,56.9 -24.38,81.28 -24.38,105.66 -24.39,56.9 -24.39,81.26 -24.39,138.15 138.16,-24.38 373.86,-325.07 406.36,-430.73l0 24.38 105.67 81.28c243.81,186.92 861.47,268.2 1162.19,292.56 162.54,24.4 1373.49,138.18 1560.41,138.18 -24.38,-56.9 -24.38,-138.18 -56.88,-211.32 -24.38,-138.16 -138.17,-381.98 -219.43,-487.62 -373.86,-617.68 -1243.48,-918.37 -1999.3,-617.68l0 0 0 0 8.12 0z"/>
  <path class="fil3" d="M677.08 10644.78l2397.52 0 -24.39 -219.44 -1779.86 0c-81.26,0 -81.26,24.38 -81.26,56.88l24.38 0c56.88,0 0,0 56.88,-24.38l1674.22 0c24.38,24.38 0,24.38 0,24.38l-1617.32 0c-24.38,0 -24.38,-24.38 -24.38,0l56.88 24.4 1536.05 0c81.28,0 0,24.38 81.28,24.38l0 -24.38 24.36 0c0,-24.4 0,-24.4 24.4,-24.4l0 56.9c-56.89,24.4 0,0 -56.89,0l-2186.22 0 24.39 -24.38 138.15 0c-24.38,-24.38 -24.38,0 -81.26,-56.9l0 -56.88c0,-24.39 0,0 -24.4,-24.39 0,0 0,24.39 0,0l0 -349.45c0,-81.3 0,-24.4 24.4,-56.9l0 -406.36c0,-56.89 24.38,-650.18 -24.4,-674.58 -24.38,-81.25 0,-24.36 0,-105.64 0,-56.89 -24.38,-24.38 -24.38,-162.54l56.9 0 0 186.93c0,81.25 0,56.89 24.39,81.25l0 -861.47c-56.91,0 -268.2,-24.38 -325.11,0 24.4,186.92 0,455.12 0,650.18 0,268.2 -24.38,1560.43 0,1698.58 24.4,162.55 81.29,186.93 105.67,268.2l0 0 0 0 0 0.01z"/>
  <path class="fil4" d="M3375.26 10376.59l-56.88 24.38c-138.16,56.9 -138.16,81.28 -138.16,162.56 -24.4,56.88 -24.4,56.88 -56.89,81.26l81.27 0c24.38,-105.64 0,-162.54 105.64,-186.92l-24.38 186.92 1918.03 0c24.38,-243.82 -162.54,-381.96 -349.48,-455.12l-325.08 -81.28c-243.81,-56.87 -373.85,0 -406.36,-24.36 -81.27,0 -186.93,24.36 -243.81,56.88 -56.9,0 -81.28,0 -81.28,56.88 -24.38,56.9 -24.38,162.56 -186.92,186.94l-243.82 0 0 0 8.12 -8.14z"/>
  <path class="fil5" d="M4131.1 10075.89c24.38,24.39 162.53,-24.37 406.36,24.39l325.09 81.28c186.92,81.27 373.84,219.43 349.47,455.12l325.07 0c0,-81.27 24.4,-138.16 24.4,-219.43l0 -219.44c0,-56.89 0,-373.85 -24.4,-406.36l0 105.64c-105.64,-56.88 -186.92,-81.25 -349.45,-105.64 -138.17,-24.39 -292.58,0 -430.75,24.39 -138.16,24.38 -219.43,56.88 -325.09,105.64 -105.65,56.9 -186.92,138.17 -211.3,138.17l-81.29 0 0 0 -8.11 16.24z"/>
  <path class="fil6" d="M1189.09 10482.24c-105.66,-24.38 -211.32,-56.89 -292.58,-105.66l0 -1479.15c-24.38,-24.39 -24.38,0 -24.38,-81.26l0 -186.94 -56.91 0c0,138.16 24.39,105.65 24.39,162.56 0,81.26 -24.39,24.38 0,105.64 56.9,24.4 24.38,617.67 24.38,674.56l0 406.36c-24.38,24.38 -24.38,-24.38 -24.38,56.89l0 349.48c0,24.39 0,0 0,0 24.38,24.39 24.38,0 24.38,24.39l0 56.88c56.9,56.9 56.9,24.38 81.28,56.9l-138.16 0 -24.38 24.37 2186.22 0c56.89,0 0,24.39 56.89,0l0 -56.89c-24.4,0 -24.4,0 -24.4,24.38l-24.38 0 0 24.4c-81.26,0 0,-24.4 -81.26,-24.4l-1536.05 0 -56.88 -24.38c0,-24.38 0,0 24.38,0l1617.31 0c0,0 24.39,0 0,-24.38l-1674.21 0c-56.88,24.38 0,24.38 -56.88,24.38l-24.39 0 0 0 0.01 -8.13z"/>
  <path class="fil7" d="M3212.73 10644.78l81.26 0 24.39 -186.92c-105.65,24.38 -81.27,81.26 -105.65,186.92z"/>
  <polygon class="fil8 str0" points="1676.72,2257.59 5528.97,2850.83 5829.69,7654.01 2083.08,9133.14 "/>
  <path class="fil9" d="M8926.14 6410.54l1731.09 0c162.56,0 292.58,130.04 292.58,292.58l0 4291.14c0,162.54 -130.02,292.58 -292.58,292.58l-1731.09 0c-162.55,0 -292.58,-130.04 -292.58,-292.58l0 -4291.14c0,-162.54 130.03,-292.58 292.58,-292.58z"/>
  <polygon class="fil9" points="8657.94,8296.07 10957.92,8296.07 10957.92,11457.5 8657.94,11457.5 "/>
  <polygon class="fil9" points="5667.15,9620.79 7609.54,8409.83 9064.31,6792.52 9657.59,8003.47 8145.94,9433.86 5691.51,10701.68 "/>
 </g>
</svg>
