<?xml version="1.0" encoding="UTF-8"?>
<!DOCTYPE svg PUBLIC "-//W3C//DTD SVG 1.1//EN" "http://www.w3.org/Graphics/SVG/1.1/DTD/svg11.dtd">
<!-- Creator: CorelDRAW 2017 -->
<svg xmlns="http://www.w3.org/2000/svg" xml:space="preserve" width="186.267mm" height="76.1998mm" version="1.1" style="shape-rendering:geometricPrecision; text-rendering:geometricPrecision; image-rendering:optimizeQuality; fill-rule:evenodd; clip-rule:evenodd"
viewBox="0 0 18626.66 7619.98"
 xmlns:xlink="http://www.w3.org/1999/xlink">
 <defs>
  <style type="text/css">
   <![CDATA[
    .str5 {stroke:black;stroke-width:33.86;stroke-miterlimit:22.9256}
    .str4 {stroke:black;stroke-width:67.73;stroke-miterlimit:22.9256}
    .str3 {stroke:black;stroke-width:42.33;stroke-miterlimit:22.9256}
    .str2 {stroke:#4D4D4D;stroke-width:42.33;stroke-miterlimit:22.9256}
    .str6 {stroke:black;stroke-width:16.93;stroke-miterlimit:22.9256}
    .str0 {stroke:black;stroke-width:20;stroke-miterlimit:22.9256}
    .str1 {stroke:#FFCC99;stroke-width:20;stroke-miterlimit:22.9256}
    .fil9 {fill:none}
    .fil8 {fill:black}
    .fil28 {fill:black}
    .fil10 {fill:#1A1A1A}
    .fil24 {fill:#1A1A1A}
    .fil2 {fill:#333333}
    .fil27 {fill:#333333}
    .fil20 {fill:#4D4D4D}
    .fil3 {fill:#4D4D4D}
    .fil23 {fill:#4D4D4D}
    .fil0 {fill:#660066}
    .fil14 {fill:#663333}
    .fil11 {fill:#666666}
    .fil5 {fill:#669999}
    .fil17 {fill:#6B231C}
    .fil26 {fill:gray}
    .fil13 {fill:#990000}
    .fil18 {fill:#A30026}
    .fil4 {fill:#B3B3B3}
    .fil15 {fill:#BD0006}
    .fil16 {fill:#CC0007}
    .fil21 {fill:#CCCCCC}
    .fil19 {fill:#E6E6E6}
    .fil7 {fill:#FCD5A6}
    .fil12 {fill:red}
    .fil25 {fill:red}
    .fil1 {fill:#FFCC99}
    .fil6 {fill:white}
    .fil22 {fill:yellow;fill-rule:nonzero}
   ]]>
  </style>
   <clipPath id="id0">
    <path d="M7325.98 4906.61l46.03 0 0 -10.62 -46.03 0 0 10.62z"/>
   </clipPath>
   <clipPath id="id1">
    <path d="M7334.83 4897.76l46.03 0 0 -10.62 -46.03 0 0 10.62z"/>
   </clipPath>
   <clipPath id="id2">
    <path d="M7342.99 4889.7l38.12 0 0 -11.69 -38.12 0 0 11.69z"/>
   </clipPath>
   <clipPath id="id3">
    <path d="M7343.68 4880.06l46.03 0 0 -10.62 -46.03 0 0 10.62z"/>
   </clipPath>
   <clipPath id="id4">
    <path d="M7352.54 4871.21l46.02 0 0 -10.62 -46.02 0 0 10.62z"/>
   </clipPath>
   <clipPath id="id5">
    <path d="M7361.39 4862.36l46.03 0 0 -10.63 -46.03 0 0 10.63z"/>
   </clipPath>
   <clipPath id="id6">
    <path d="M7369.49 4854.17l38.12 0 0 -11.65 -38.12 0 0 11.65z"/>
   </clipPath>
   <clipPath id="id7">
    <path d="M7370.24 4844.66l46.03 0 0 -10.63 -46.03 0 0 10.63z"/>
   </clipPath>
   <clipPath id="id8">
    <path d="M6036.33 4927.16l46.97 0 0 -11.68 -46.97 0 0 11.68z"/>
   </clipPath>
   <clipPath id="id9">
    <path d="M7379.09 4835.8l46.03 0 0 -10.62 -46.03 0 0 10.62z"/>
   </clipPath>
   <clipPath id="id10">
    <path d="M7387.15 4827.54l38.13 0 0 -11.69 -38.13 0 0 11.69z"/>
   </clipPath>
   <clipPath id="id11">
    <path d="M7396.8 4818.1l28.32 0 0 -10.62 -28.32 0 0 10.62z"/>
   </clipPath>
   <clipPath id="id12">
    <path d="M6036.33 4900.55l29.29 0 0 -11.68 -29.29 0 0 11.68z"/>
   </clipPath>
   <clipPath id="id13">
    <path d="M7395.99 4809.8l20.46 0 0 -11.68 -20.46 0 0 11.68z"/>
   </clipPath>
   <clipPath id="id14">
    <path d="M7396.8 4800.39l10.62 0 0 -10.62 -10.62 0 0 10.62z"/>
   </clipPath>
   <clipPath id="id15">
    <path d="M7387.15 4792.04l11.63 0 0 -20.56 -11.63 0 0 20.56z"/>
   </clipPath>
   <clipPath id="id16">
    <path d="M7379.09 4773.83l10.62 0 0 -10.62 -10.62 0 0 10.62z"/>
   </clipPath>
   <clipPath id="id17">
    <path d="M7207.94 4974.05l50.46 0 0 -11.68 -50.46 0 0 11.68z"/>
   </clipPath>
   <clipPath id="id18">
    <path d="M7217.44 4965.17l40.96 0 0 -20.55 -40.96 0 0 20.55z"/>
   </clipPath>
   <clipPath id="id19">
    <path d="M7226.93 4947.45l31.47 0 0 -11.68 -31.47 0 0 11.68z"/>
   </clipPath>
 </defs>
 <g id="Layer_x0020_1">
  <metadata id="CorelCorpID_0Corel-Layer"/>
  <polygon class="fil0" points="11492.35,3920.2 11492.35,5006.49 9209.03,5006.49 9209.03,3920.2 "/>
  <path class="fil1" d="M10315.27 689.16c414.86,0 748.73,333.9 748.73,748.72 0,411.49 -333.91,745.36 -748.73,745.36 -414.85,0 -752.1,-333.91 -752.1,-745.36 0,-414.85 337.28,-748.72 752.1,-748.72z"/>
  <path class="fil2" d="M10325.39 689.16c462.07,-10.12 789.2,499.17 735.24,822.93 -3.37,40.47 -10.12,367.63 -10.12,320.41 -6.75,-212.48 -863.4,-812.81 -964.59,-974.7 -40.47,50.59 -401.36,313.67 -478.94,330.53 97.81,-300.18 387.88,-499.17 718.38,-499.17l0.03 0z"/>
  <polygon class="fil0" points="9660.98,2365.41 9890.3,2365.41 9890.3,2557.62 10244.44,2456.47 10399.59,2456.47 10753.74,2557.62 10753.74,2365.41 10999.92,2365.41 11060.63,3417.69 9660.98,3340.11 "/>
  <path class="fil0" d="M9482.22 2358.66l229.35 6.75 623.94 849.91 623.93 -849.91 236.1 -6.75c155.15,-3.37 283.32,131.54 283.32,290.06l0 1527.85 -2279.95 0 0 -1527.85c0,-158.52 128.16,-293.43 283.31,-290.06z"/>
  <polygon class="fil0" points="11478.86,3225.44 11478.86,3765.05 9198.91,3765.05 9198.91,3225.44 "/>
  <path class="fil0" d="M9779 2459.84l397.99 539.65 -978.08 0 0 -350.77c0,-70.83 23.61,-138.28 67.45,-188.88l512.67 0 -0.03 0zm715.03 539.62l397.99 -539.65 519.41 0c43.85,50.59 67.46,118.05 67.46,188.88l0 350.77 -984.83 0 -0.03 0z"/>
  <rect class="fil3 str0" x="9623.04" y="1012.51" width="731.95" height="257.04" rx="128.52" ry="128.52"/>
  <rect class="fil3 str0" x="9352.39" y="1141.03" width="1187.62" height="815.38" rx="96.56" ry="88.63"/>
  <rect class="fil3 str0" x="9764.17" y="135.45" width="456.77" height="859.35"/>
  <rect class="fil4 str0" x="9810.92" y="154.8" width="363.57" height="178.06"/>
  <ellipse class="fil5 str0" cx="10003.63" cy="1517.7" rx="336.61" ry="332.35"/>
  <rect class="fil4 str0" x="9551.81" y="1141.03" width="70.88" height="815.38"/>
  <path class="fil0 str0" d="M9016 1469.57l390.76 0c41.91,0 76.19,34.28 76.19,76.19l0 1182.17c0,149.36 -122.2,271.56 -271.56,271.56l-195.39 0c-41.91,0 -76.19,-34.28 -76.19,-76.19l0 -1377.54c0,-41.91 34.28,-76.19 76.19,-76.19z"/>
  <rect class="fil1 str1" x="9083.73" y="1229.66" width="268.65" height="239.91" rx="50.6" ry="26.56"/>
  <rect class="fil0 str0" transform="matrix(0.851726 -0.523987 0.523987 0.851726 10145.8 2042.39)" width="440.27" height="1727.2" rx="87.56" ry="87.56"/>
  <rect class="fil6" x="5896.73" y="4592.62" width="1472.62" height="2149.7"/>
  <path class="fil7" d="M6651.86 2836.95c486.02,0 879.95,393.99 879.95,880.04 0,485.98 -393.93,879.97 -879.95,879.97 -38.28,0 -75.99,-2.45 -112.99,-7.19 -432.65,-55.46 -767.01,-425.07 -767.01,-872.78 0,-486.07 393.97,-880.03 880,-880.04z"/>
  <path class="fil8" d="M6651.86 2836.95c397.19,0 732.76,263.17 842.23,624.62 15.47,176.67 -900.48,-87.48 -1123.56,-431.47 -47.26,60.9 -462.65,390.16 -554.12,409.79 116.12,-350.3 446.23,-602.93 835.45,-602.94z"/>
  <g>
  </g>
  <g style="clip-path:url(#id0)">
   <g>
   </g>
  </g>
  <polygon class="fil9" points="7325.98,4906.61 7372.01,4906.61 7372.01,4895.99 7325.98,4895.99 "/>
  <polygon class="fil9" points="7325.98,4906.61 7372.01,4906.61 7372.01,4895.99 7325.98,4895.99 "/>
  <polygon class="fil9" points="7325.98,4906.61 7372.01,4906.61 7372.01,4895.99 7325.98,4895.99 "/>
  <g>
  </g>
  <g style="clip-path:url(#id1)">
   <g>
   </g>
  </g>
  <polygon class="fil9" points="7334.83,4897.76 7380.86,4897.76 7380.86,4887.14 7334.83,4887.14 "/>
  <polygon class="fil9" points="7334.83,4897.76 7380.86,4897.76 7380.86,4887.14 7334.83,4887.14 "/>
  <polygon class="fil9" points="7334.83,4897.76 7380.86,4897.76 7380.86,4887.14 7334.83,4887.14 "/>
  <g>
  </g>
  <g style="clip-path:url(#id2)">
   <g>
   </g>
  </g>
  <polygon class="fil9" points="7342.99,4889.7 7381.11,4889.7 7381.11,4878.01 7342.99,4878.01 "/>
  <polygon class="fil9" points="7342.99,4889.7 7381.11,4889.7 7381.11,4878.01 7342.99,4878.01 "/>
  <polygon class="fil9" points="7342.99,4889.7 7381.11,4889.7 7381.11,4878.01 7342.99,4878.01 "/>
  <g>
  </g>
  <g style="clip-path:url(#id3)">
   <g>
   </g>
  </g>
  <polygon class="fil9" points="7343.68,4880.06 7389.71,4880.06 7389.71,4869.44 7343.68,4869.44 "/>
  <polygon class="fil9" points="7343.68,4880.06 7389.71,4880.06 7389.71,4869.44 7343.68,4869.44 "/>
  <polygon class="fil9" points="7343.68,4880.06 7389.71,4880.06 7389.71,4869.44 7343.68,4869.44 "/>
  <g>
  </g>
  <g style="clip-path:url(#id4)">
   <g>
   </g>
  </g>
  <polygon class="fil9" points="7352.54,4871.21 7398.56,4871.21 7398.56,4860.59 7352.54,4860.59 "/>
  <polygon class="fil9" points="7352.54,4871.21 7398.56,4871.21 7398.56,4860.59 7352.54,4860.59 "/>
  <polygon class="fil9" points="7352.54,4871.21 7398.56,4871.21 7398.56,4860.59 7352.54,4860.59 "/>
  <g>
  </g>
  <g style="clip-path:url(#id5)">
   <g>
   </g>
  </g>
  <polygon class="fil9" points="7361.39,4862.36 7407.42,4862.36 7407.42,4851.73 7361.39,4851.73 "/>
  <polygon class="fil9" points="7361.39,4862.36 7407.42,4862.36 7407.42,4851.73 7361.39,4851.73 "/>
  <polygon class="fil9" points="7361.39,4862.36 7407.42,4862.36 7407.42,4851.73 7361.39,4851.73 "/>
  <g>
  </g>
  <g style="clip-path:url(#id6)">
   <g>
   </g>
  </g>
  <polygon class="fil9" points="7369.49,4854.17 7407.61,4854.17 7407.61,4842.52 7369.49,4842.52 "/>
  <polygon class="fil9" points="7369.49,4854.17 7407.61,4854.17 7407.61,4842.52 7369.49,4842.52 "/>
  <polygon class="fil9" points="7369.49,4854.17 7407.61,4854.17 7407.61,4842.52 7369.49,4842.52 "/>
  <g>
  </g>
  <g style="clip-path:url(#id7)">
   <g>
   </g>
  </g>
  <polygon class="fil9" points="7370.24,4844.66 7416.27,4844.66 7416.27,4834.03 7370.24,4834.03 "/>
  <polygon class="fil9" points="7370.24,4844.66 7416.27,4844.66 7416.27,4834.03 7370.24,4834.03 "/>
  <polygon class="fil9" points="7370.24,4844.66 7416.27,4844.66 7416.27,4834.03 7370.24,4834.03 "/>
  <g>
  </g>
  <g style="clip-path:url(#id8)">
   <g>
   </g>
  </g>
  <polygon class="fil9" points="6036.33,4927.16 6083.3,4927.16 6083.3,4915.48 6036.33,4915.48 "/>
  <polygon class="fil9" points="6036.33,4927.16 6083.3,4927.16 6083.3,4915.48 6036.33,4915.48 "/>
  <polygon class="fil9" points="6036.33,4927.16 6083.3,4927.16 6083.3,4915.48 6036.33,4915.48 "/>
  <g>
  </g>
  <g style="clip-path:url(#id9)">
   <g>
   </g>
  </g>
  <polygon class="fil9" points="7379.09,4835.8 7425.12,4835.8 7425.12,4825.18 7379.09,4825.18 "/>
  <polygon class="fil9" points="7379.09,4835.8 7425.12,4835.8 7425.12,4825.18 7379.09,4825.18 "/>
  <polygon class="fil9" points="7379.09,4835.8 7425.12,4835.8 7425.12,4825.18 7379.09,4825.18 "/>
  <g>
  </g>
  <g style="clip-path:url(#id10)">
   <g>
   </g>
  </g>
  <polygon class="fil9" points="7387.15,4827.54 7425.28,4827.54 7425.28,4815.85 7387.15,4815.85 "/>
  <polygon class="fil9" points="7387.15,4827.54 7425.28,4827.54 7425.28,4815.85 7387.15,4815.85 "/>
  <polygon class="fil9" points="7387.15,4827.54 7425.28,4827.54 7425.28,4815.85 7387.15,4815.85 "/>
  <g>
  </g>
  <g style="clip-path:url(#id11)">
   <g>
   </g>
  </g>
  <polygon class="fil9" points="7396.8,4818.1 7425.12,4818.1 7425.12,4807.48 7396.8,4807.48 "/>
  <polygon class="fil9" points="7396.8,4818.1 7425.12,4818.1 7425.12,4807.48 7396.8,4807.48 "/>
  <polygon class="fil9" points="7396.8,4818.1 7425.12,4818.1 7425.12,4807.48 7396.8,4807.48 "/>
  <g>
  </g>
  <g style="clip-path:url(#id12)">
   <g>
   </g>
  </g>
  <polygon class="fil9" points="6036.33,4900.55 6065.62,4900.55 6065.62,4888.87 6036.33,4888.87 "/>
  <polygon class="fil9" points="6036.33,4900.55 6065.62,4900.55 6065.62,4888.87 6036.33,4888.87 "/>
  <polygon class="fil9" points="6036.33,4900.55 6065.62,4900.55 6065.62,4888.87 6036.33,4888.87 "/>
  <g>
  </g>
  <g style="clip-path:url(#id13)">
   <g>
   </g>
  </g>
  <polygon class="fil9" points="7395.99,4809.8 7416.45,4809.8 7416.45,4798.12 7395.99,4798.12 "/>
  <polygon class="fil9" points="7395.99,4809.8 7416.45,4809.8 7416.45,4798.12 7395.99,4798.12 "/>
  <polygon class="fil9" points="7395.99,4809.8 7416.45,4809.8 7416.45,4798.12 7395.99,4798.12 "/>
  <g>
  </g>
  <g style="clip-path:url(#id14)">
   <g>
   </g>
  </g>
  <polygon class="fil9" points="7396.8,4800.39 7407.42,4800.39 7407.42,4789.77 7396.8,4789.77 "/>
  <polygon class="fil9" points="7396.8,4800.39 7407.42,4800.39 7407.42,4789.77 7396.8,4789.77 "/>
  <polygon class="fil9" points="7396.8,4800.39 7407.42,4800.39 7407.42,4789.77 7396.8,4789.77 "/>
  <g>
  </g>
  <g style="clip-path:url(#id15)">
   <g>
   </g>
  </g>
  <polygon class="fil9" points="7387.15,4792.04 7398.78,4792.04 7398.78,4771.48 7387.15,4771.48 "/>
  <polygon class="fil9" points="7387.15,4792.04 7398.78,4792.04 7398.78,4771.48 7387.15,4771.48 "/>
  <polygon class="fil9" points="7387.15,4792.04 7398.78,4792.04 7398.78,4771.48 7387.15,4771.48 "/>
  <g>
  </g>
  <g style="clip-path:url(#id16)">
   <g>
   </g>
  </g>
  <polygon class="fil9" points="7379.09,4773.83 7389.71,4773.83 7389.71,4763.21 7379.09,4763.21 "/>
  <polygon class="fil9" points="7379.09,4773.83 7389.71,4773.83 7389.71,4763.21 7379.09,4763.21 "/>
  <polygon class="fil9" points="7379.09,4773.83 7389.71,4773.83 7389.71,4763.21 7379.09,4763.21 "/>
  <path class="fil10" d="M5614.23 4770.28l273.19 7.04 761.44 1842.68 737.63 -1835.55 4.16 -5.73 -1.27 -1.75 0.02 -0.02 282.05 -6.67c187.83,-4.47 341.54,159.12 341.54,353.57l0 1862.04 -2740.36 0 0 -1862.06c0,-194.5 153.83,-358.33 341.62,-353.55l-0.01 0 0 0 -0.01 0z"/>
  <ellipse class="fil8 str0" cx="6637.05" cy="6062.36" rx="23.6" ry="26.56"/>
  <rect class="fil11" x="7392.42" y="6053.49" width="448.5" height="59.02"/>
  <polygon class="fil6" points="7735.92,5908.69 7628.48,5793.84 7392.43,6053.49 7829.13,6053.49 "/>
  <polygon class="fil12" points="6631.16,4867.32 6167.99,4667.25 6212.16,5156.49 6605.62,4944.55 "/>
  <polygon class="fil12" points="6591.77,4855.76 7062.38,4691.11 7038.35,5168.29 6567.46,4923.45 "/>
  <rect class="fil13" x="6556.42" y="4800.38" width="132.82" height="184.17"/>
  <polygon class="fil6 str2" points="5486.29,5103.38 5899.4,4548.65 6388.19,6022.36 6244.61,5895.49 "/>
  <polygon class="fil6 str2" points="5769.56,5628.72 6111.85,5268.61 6569.41,6515.41 6414.13,6353.05 "/>
  <g>
  </g>
  <g style="clip-path:url(#id17)">
   <g>
   </g>
  </g>
  <polygon class="fil9" points="7207.94,4974.05 7258.4,4974.05 7258.4,4962.37 7207.94,4962.37 "/>
  <polygon class="fil9" points="7207.94,4974.05 7258.4,4974.05 7258.4,4962.37 7207.94,4962.37 "/>
  <polygon class="fil9" points="7207.94,4974.05 7258.4,4974.05 7258.4,4962.37 7207.94,4962.37 "/>
  <g>
  </g>
  <g style="clip-path:url(#id18)">
   <g>
   </g>
  </g>
  <polygon class="fil9" points="7217.44,4965.17 7258.4,4965.17 7258.4,4944.62 7217.44,4944.62 "/>
  <polygon class="fil9" points="7217.44,4965.17 7258.4,4965.17 7258.4,4944.62 7217.44,4944.62 "/>
  <polygon class="fil9" points="7217.44,4965.17 7258.4,4965.17 7258.4,4944.62 7217.44,4944.62 "/>
  <g>
  </g>
  <g style="clip-path:url(#id19)">
   <g>
   </g>
  </g>
  <polygon class="fil9" points="7226.93,4947.45 7258.4,4947.45 7258.4,4935.77 7226.93,4935.77 "/>
  <polygon class="fil9" points="7226.93,4947.45 7258.4,4947.45 7258.4,4935.77 7226.93,4935.77 "/>
  <polygon class="fil9" points="7226.93,4947.45 7258.4,4947.45 7258.4,4935.77 7226.93,4935.77 "/>
  <ellipse class="fil8 str0" cx="6612.98" cy="5401.07" rx="25.36" ry="26.56"/>
  <path class="fil13" d="M6569.73 4800.38l117.06 0c7.09,0 12.82,4.24 12.82,9.47l0 96.45c0,5.23 -5.73,9.46 -12.82,9.46l-117.06 0c-7.08,0 -12.82,-4.23 -12.82,-9.46l0 -96.45c0,-5.23 5.74,-9.47 12.82,-9.47z"/>
  <polygon class="fil6 str2" points="7831.67,5074.29 7386.53,4572.27 6893.64,6039.47 7037.85,5901.29 "/>
  <polygon class="fil6 str2" points="7545.02,5680.25 7158.5,5276.8 6716.59,6525.53 6842.2,6415.36 "/>
  <polygon class="fil10" points="5357.04,4890.17 5504,5829.24 4774.99,6338.57 4407.92,5972.49 "/>
  <polygon class="fil14" points="3846.78,5570.07 4831.06,5570.07 5126.32,6985.89 4139.9,6976.73 "/>
  <path class="fil7" d="M4026.21 6431.17l63.94 0c57.3,0 103.77,46.46 103.77,103.76l-0.01 181.97c0.01,57.29 -46.46,103.75 -103.75,103.75l-63.95 0.01c-57.29,-0.01 -103.75,-46.47 -103.75,-103.77l-0.01 -181.96c0.01,-57.3 46.47,-103.76 103.76,-103.76l0 0z"/>
  <ellipse class="fil8 str0" cx="6612.98" cy="5734.73" rx="25.36" ry="26.56"/>
  <rect class="fil10" x="5272.62" y="6900.32" width="2738.9" height="461.16"/>
  <polygon class="fil13" points="6974.94,6525.43 11696.73,6518.68 12185.75,7456.29 6438.66,7463.03 "/>
  <path class="fil9 str3" d="M9254.89 2943.61c-441.84,0 -799.32,303.55 -799.32,677.9 0,371.01 357.51,674.53 799.32,674.53 441.84,0 799.32,-303.55 799.32,-674.53 0,-374.38 -357.52,-677.9 -799.32,-677.9z"/>
  <path class="fil1" d="M9248.14 2984.09c414.86,0 748.73,333.9 748.73,748.72 0,411.49 -333.91,745.36 -748.73,745.36 -414.85,0 -752.1,-333.91 -752.1,-745.36 0,-414.85 337.28,-748.72 752.1,-748.72z"/>
  <path class="fil8" d="M9335.83 4465.36c-26.98,0 -53.96,3.37 -80.94,3.37 -26.99,0 -53.97,-3.37 -80.95,-3.37l-77.58 -138.28 317.05 0 -77.58 138.28z"/>
  <path class="fil2" d="M9258.26 2984.09c462.07,-10.12 789.2,499.17 735.24,822.93 -3.37,40.47 -10.12,367.63 -10.12,320.41 -6.75,-212.48 -863.4,-812.81 -964.59,-974.7 -40.47,50.59 -401.36,313.67 -478.94,330.53 97.81,-300.18 387.88,-499.17 718.38,-499.17l0.03 0z"/>
  <polygon class="fil13" points="8593.85,4660.34 8823.17,4660.34 8823.17,4852.55 9177.31,4751.4 9332.46,4751.4 9686.61,4852.55 9686.61,4660.34 9932.79,4660.34 9993.5,5712.62 8593.85,5635.04 "/>
  <path class="fil15" d="M8415.09 4653.59l229.35 6.75 623.94 849.91 623.93 -849.91 236.1 -6.75c155.15,-3.37 283.32,131.54 283.32,290.06l0 1527.85 -2279.95 0 0 -1527.85c0,-158.52 128.16,-293.43 283.31,-290.06z"/>
  <polygon class="fil16" points="10425.22,6215.13 10425.22,6791.88 8141.9,6791.88 8141.9,6215.13 "/>
  <polygon class="fil16" points="10411.73,5520.37 10411.73,6059.98 8131.78,6059.98 8131.78,5520.37 "/>
  <path class="fil16" d="M8711.87 4754.77l397.99 539.65 -978.08 0 0 -350.77c0,-70.83 23.61,-138.28 67.45,-188.88l512.67 0 -0.03 0zm715.03 539.62l397.99 -539.65 519.41 0c43.85,50.59 67.46,118.05 67.46,188.88l0 350.77 -984.83 0 -0.03 0z"/>
  <path class="fil1" d="M11778.75 2998.58c462.07,0 836.42,347.4 836.42,775.71 0,431.72 -374.38,779.09 -836.42,779.09 -462.07,0 -836.42,-347.4 -836.42,-779.09 0,-428.34 374.38,-775.71 836.42,-775.71z"/>
  <path class="fil17" d="M11441.47 3028.94c-104.56,50.59 -33.73,10.11 -131.54,70.82l-43.85 26.99c-13.49,10.12 -10.11,6.74 -26.98,16.86 -10.12,10.12 -10.12,10.12 -20.23,20.24 -67.46,84.32 -107.93,87.69 -192.25,242.84 -13.5,26.98 -26.99,70.83 -40.48,97.81 0,20.24 -3.37,13.49 23.61,10.12l269.83 -57.34c209.11,-53.96 681.27,-172.01 775.71,-320.41l121.42 97.81c91.06,70.83 232.72,172.01 333.91,229.35l53.96 30.35c30.36,3.38 10.12,3.38 20.24,-6.74 -114.68,-306.93 -424.98,-512.67 -765.6,-526.16 -198.99,-6.75 -239.46,33.73 -377.75,67.46z"/>
  <path class="fil17" d="M11380.76 3953.05c-30.36,37.1 -30.36,101.18 -3.37,145.03 64.08,107.93 303.55,161.9 397.99,13.49 20.23,13.49 91.06,141.66 296.8,67.46 148.41,-53.97 145.03,-199 101.19,-225.98 -10.12,20.24 0,30.36 -23.61,47.22 -94.44,77.57 -215.86,-155.15 -367.64,-23.61 -30.35,-10.12 -104.55,-80.95 -225.97,-3.37 -165.27,104.55 -168.64,-10.12 -175.39,-20.24z"/>
  <polygon class="fil18" points="11185.14,2722.01 12409.43,2728.76 12406.06,3187.46 11181.76,3180.71 "/>
  <path class="fil19" d="M10878.21 4698.44l1848.23 0c107.93,0 199,91.07 199,199l0 1935.92c0,107.93 -91.07,198.99 -199,198.99l-1848.23 0c-107.93,0 -198.99,-91.06 -198.99,-198.99l0 -1935.92c0,-107.93 91.06,-199 198.99,-199z"/>
  <path class="fil2" d="M12234.05 5204.33c37.1,0 67.45,26.98 67.45,57.33 0,30.36 -30.35,53.97 -67.45,53.97 -33.73,0 -64.09,-23.61 -64.09,-53.97 0,-30.35 30.36,-57.33 64.09,-57.33z"/>
  <path class="fil2" d="M12234.05 5676.52c37.1,0 67.45,23.61 67.45,53.96 0,30.36 -30.35,53.97 -67.45,53.97 -33.73,0 -64.09,-23.61 -64.09,-53.97 0,-30.35 30.36,-53.96 64.09,-53.96z"/>
  <path class="fil2" d="M12234.05 6168.91c37.1,0 67.45,23.61 67.45,53.97 0,30.35 -30.35,57.34 -67.45,57.34 -33.73,0 -64.09,-26.99 -64.09,-57.34 0,-30.36 30.36,-53.97 64.09,-53.97z"/>
  <path class="fil2" d="M12234.05 6661.34c37.1,0 67.45,26.99 67.45,57.34 0,30.36 -30.35,53.97 -67.45,53.97 -33.73,0 -64.09,-23.61 -64.09,-53.97 0,-30.35 30.36,-57.34 64.09,-57.34z"/>
  <path class="fil2" d="M8253.85 6825.66c37.1,0 67.45,23.61 67.45,53.96 0,30.36 -30.35,53.97 -67.45,53.97 -37.1,0 -64.09,-23.61 -64.09,-53.97 0,-30.35 26.99,-53.96 64.09,-53.96z"/>
  <path class="fil2" d="M11306.56 6168.91c37.1,0 67.45,23.61 67.45,53.97 0,30.35 -30.35,57.34 -67.45,57.34 -37.1,0 -64.09,-26.99 -64.09,-57.34 0,-30.36 26.99,-53.97 64.09,-53.97z"/>
  <path class="fil2" d="M11306.56 6661.34c37.1,0 67.45,26.99 67.45,57.34 0,30.36 -30.35,53.97 -67.45,53.97 -37.1,0 -64.09,-23.61 -64.09,-53.97 0,-30.35 26.99,-57.34 64.09,-57.34z"/>
  <polygon class="fil18" points="10679.25,6846.85 12918.72,6846.85 12918.72,7329.13 10679.25,7329.13 "/>
  <polygon class="fil18" points="11421.23,5025.57 11438.1,5025.57 12203.69,4894.03 11438.1,5133.5 11438.1,6833.36 11401,6833.36 "/>
  <polygon class="fil18" points="11353.78,4661.34 12035.05,4698.44 11333.54,5018.82 11427.98,4802.96 11714.67,4772.61 11738.28,4806.34 11778.75,4900.77 12122.74,4890.66 11994.58,4799.59 11363.9,4738.88 "/>
  <polygon class="fil20" points="9322.34,6417.5 7167.19,6417.5 6536.48,7452.92 9180.69,7452.92 "/>
  <path class="fil8 str0" d="M7770.89 6393.89c539.65,0 978.08,219.23 978.08,485.68 0,269.83 -438.47,485.69 -978.08,485.69 -539.65,0 -978.08,-215.86 -978.08,-485.69 0,-266.45 438.46,-485.68 978.08,-485.68z"/>
  <path class="fil13 str0" d="M7769.37 6624.07c212.49,0 384.5,91.07 384.5,202.37 0,114.67 -172.01,205.74 -384.5,205.74 -212.48,0 -387.87,-91.07 -387.87,-205.74 0,-111.3 175.39,-202.37 387.87,-202.37z"/>
  <polygon class="fil21" points="8988.44,6481.58 9244.77,6481.58 9244.77,6731.17 8988.44,6731.17 "/>
  <polygon class="fil21" points="9163.82,6481.58 8138.52,6481.58 8138.52,6549.04 9163.82,6549.04 "/>
  <path class="fil11 str0" d="M9076.13 6828.98c47.22,0 84.32,20.24 84.32,47.22 0,23.61 -37.1,43.85 -84.32,43.85 -43.85,0 -80.95,-20.24 -80.95,-43.85 0,-26.98 37.1,-47.22 80.95,-47.22z"/>
  <path class="fil11 str0" d="M9008.67 7017.86c57.34,0 104.56,23.61 104.56,50.59 0,30.35 -47.22,53.96 -104.56,53.96 -57.33,0 -104.55,-23.61 -104.55,-53.96 0,-26.98 47.22,-50.59 104.55,-50.59z"/>
  <path class="fil11 str0" d="M8924.35 7230.31c-80.94,0 -141.65,26.98 -141.65,57.34 0,33.73 60.71,60.71 141.65,60.71 77.58,0 141.66,-26.98 141.66,-60.71 0,-30.36 -64.08,-57.34 -141.66,-57.34z"/>
  <polygon class="fil9 str0" points="8167.36,6597.09 8025.71,6597.09 8025.71,6465.55 8167.36,6465.55 "/>
  <polygon class="fil20 str0" points="8211.21,6452.06 7938.01,6452.06 7938.01,6529.63 8211.21,6529.63 "/>
  <polygon class="fil9" points="9062.64,6417.5 12121.7,6417.5 12121.7,7506.88 9062.64,7506.88 "/>
  <polygon class="fil20" points="9430.27,6478.21 11447.14,6417.5 12030.64,7452.92 9356.07,7436.05 "/>
  <path class="fil8 str0" d="M10887.29 6393.89c-499.17,0 -907.25,219.23 -907.25,485.68 0,269.83 408.11,485.69 907.25,485.69 499.18,0 903.88,-215.86 903.88,-485.69 0,-266.45 -404.74,-485.68 -903.88,-485.68z"/>
  <path class="fil13 str0" d="M10880.55 6613.12c-195.63,0 -357.52,91.07 -357.52,202.37 0,114.67 161.89,205.74 357.52,205.74 198.99,0 357.51,-91.07 357.51,-205.74 0,-111.3 -158.52,-202.37 -357.51,-202.37z"/>
  <path class="fil8 str0" d="M10880.55 6771.64c-13.5,0 -23.61,10.12 -23.61,20.24 0,13.49 10.11,23.61 23.61,23.61 13.49,0 23.61,-10.12 23.61,-23.61 0,-10.12 -10.12,-20.24 -23.61,-20.24z"/>
  <polygon class="fil21" points="9760.81,6481.58 9524.71,6481.58 9524.71,6731.17 9760.81,6731.17 "/>
  <polygon class="fil21" points="9598.91,6481.58 10546.64,6481.58 10546.64,6549.04 9598.91,6549.04 "/>
  <path class="fil11 str0" d="M9676.49 6828.98c-40.48,0 -74.2,20.24 -74.2,47.22 0,23.61 33.72,43.85 74.2,43.85 43.84,0 77.57,-20.24 77.57,-43.85 0,-26.98 -33.73,-47.22 -77.57,-47.22z"/>
  <path class="fil11 str0" d="M9740.57 7017.86c-50.59,0 -94.44,23.61 -94.44,50.59 0,30.35 43.85,53.96 94.44,53.96 53.97,0 97.81,-23.61 97.81,-53.96 0,-26.98 -43.84,-50.59 -97.81,-50.59z"/>
  <path class="fil11 str0" d="M9821.52 7230.31c70.83,0 131.54,26.98 131.54,57.34 0,33.73 -60.71,60.71 -131.54,60.71 -74.2,0 -131.54,-26.98 -131.54,-60.71 0,-30.36 57.34,-57.34 131.54,-57.34z"/>
  <polygon class="fil9 str0" points="10512.91,6586.14 10644.45,6586.14 10644.45,6454.6 10512.91,6454.6 "/>
  <polygon class="fil20 str0" points="10472.44,6441.11 10725.4,6441.11 10725.4,6518.68 10472.44,6518.68 "/>
  <polygon class="fil2" points="8455.57,3476.51 8317.28,3476.51 8317.28,3995.89 8455.57,3995.89 "/>
  <polygon class="fil13" points="8357.82,3476.51 8384.81,3476.51 8384.81,3975.72 8357.82,3975.72 "/>
  <polygon class="fil8 str0" points="8539.89,3466.4 8455.57,3466.4 8455.57,4009.38 8539.89,4009.38 "/>
  <polygon class="fil2" points="10063.36,3549.79 10205.02,3549.79 10205.02,4069.17 10063.36,4069.17 "/>
  <polygon class="fil13" points="10178.04,3549.79 10151.05,3549.79 10151.05,4069.17 10178.04,4069.17 "/>
  <polygon class="fil8 str0" points="9972.3,3539.68 10059.99,3539.68 10059.99,4082.66 9972.3,4082.66 "/>
  <polygon class="fil2" points="12891.74,5622.55 14072.19,5622.55 14072.19,7062.67 12891.74,7062.67 "/>
  <path class="fil21" d="M13262.72 6195.9l0 286.69 -23.61 0 0 -199 -121.42 199 -6.75 0 -70.83 -202.37 -57.34 202.37 -30.35 0 80.95 -286.69 3.37 0 80.95 232.72 141.65 -232.72 3.38 0zm266.45 185.5l-182.13 0c0,23.61 6.74,43.85 16.86,57.34 13.49,16.86 30.36,23.61 53.97,23.61 13.49,0 26.98,-3.37 40.47,-10.12 10.12,-6.75 23.61,-13.49 30.35,-23.61l20.24 13.49c-10.12,13.49 -23.61,23.61 -40.47,33.73 -16.87,6.75 -33.73,10.12 -50.59,10.12 -33.73,0 -57.34,-10.12 -74.21,-30.36 -16.86,-20.23 -23.61,-43.84 -23.61,-67.45 0,-20.24 6.75,-40.48 16.87,-60.71 10.12,-20.24 23.61,-33.73 43.84,-43.85 16.87,-13.49 37.11,-16.86 57.34,-16.86 26.98,0 50.59,10.11 67.46,26.98 16.86,16.86 26.98,40.47 26.98,67.45 0,6.75 -3.37,13.5 -3.37,20.24zm-23.61 -23.61c0,-20.24 -6.75,-37.1 -20.24,-47.22 -13.49,-13.49 -26.98,-20.23 -47.22,-20.23 -20.23,0 -37.1,6.74 -53.96,20.23 -16.87,10.12 -26.98,26.98 -33.73,47.22l155.15 0zm91.06 -87.69l26.99 0 -6.75 33.73c20.24,-23.61 47.22,-37.1 74.2,-37.1 20.24,0 37.1,6.74 50.59,20.23 13.5,13.49 20.24,30.36 20.24,53.97 0,6.74 0,23.61 -3.37,43.84l-13.49 97.82 -26.98 0 13.49 -97.82c3.37,-20.23 3.37,-37.1 3.37,-43.84 0,-16.87 -3.37,-26.98 -13.49,-37.1 -6.75,-10.12 -20.24,-13.49 -33.73,-13.49 -13.49,0 -26.98,3.37 -37.1,10.11 -13.49,6.75 -23.61,16.87 -30.36,30.36 -6.74,13.49 -10.11,33.73 -13.49,60.71l-13.49 91.07 -23.61 0 26.98 -212.49zm249.59 0l26.98 0 -13.49 87.69c-3.37,26.98 -6.74,43.85 -6.74,50.59 0,16.87 6.74,26.99 16.86,37.1 10.12,10.12 20.24,16.87 37.1,16.87 13.49,0 23.61,-3.37 33.73,-13.49 10.12,-6.75 16.86,-16.87 20.24,-30.36 3.37,-6.74 6.74,-20.23 6.74,-43.84l16.87 -104.56 23.61 0 -10.12 80.95c-3.38,37.1 -10.12,64.08 -13.49,80.94 -6.75,16.87 -16.87,26.99 -30.36,40.48 -13.49,10.12 -30.35,13.49 -47.22,13.49 -23.61,0 -43.84,-6.75 -57.34,-20.24 -13.49,-16.86 -20.23,-33.73 -20.23,-57.34 0,-10.11 0,-20.23 3.37,-30.35l0 -20.24 0 -6.74 13.49 -80.95z"/>
  <polygon class="fil21" points="12938.96,6057.61 14021.6,6057.61 14021.6,6091.34 12938.96,6091.34 "/>
  <polygon class="fil21" points="12938.96,6583.77 14021.6,6583.77 14021.6,6617.5 12938.96,6617.5 "/>
  <path class="fil8 str0" d="M9200.96 6904.43c-12.6,0 -22.05,9.45 -22.05,18.9 0,12.6 9.45,22.05 22.05,22.05 12.6,0 22.05,-9.45 22.05,-22.05 0,-9.45 -9.45,-18.9 -22.05,-18.9z"/>
  <path class="fil22" d="M12301.5 4998.59l0 0c0,3.37 0,6.74 0,6.74l0 0 0 -3.37c3.37,0 3.37,-3.37 3.37,-3.37l3.38 0 0 3.37c0,0 0,0 0,0l3.37 0c0,0 0,0 3.37,6.74 0,16.87 -3.37,37.1 -10.12,53.97l0 3.37c0,3.37 0,3.37 0,6.75 0,0 0,3.37 0,3.37 0,3.37 -3.37,6.75 -3.37,13.49 0,0 0,0 0,0l0 6.75 -10.12 6.74 -10.12 0 -3.37 0c0,0 0,0 0,0l0 -3.37c0,-3.37 -3.37,-6.75 -3.37,-6.75l0 0c0,-3.37 0,-3.37 0,-3.37 0,-10.12 3.37,-20.24 6.74,-23.61 -3.37,-3.37 -3.37,-6.74 -3.37,-6.74l3.37 0c-3.37,-3.38 -3.37,-6.75 -3.37,-6.75l0 0c0,-6.75 -6.74,-13.49 -10.12,-20.24 -10.12,-3.37 -16.86,-6.74 -20.23,-6.74l-6.75 0c-10.12,0 -16.86,0 -20.24,6.74l-3.37 0 0 0c-10.12,6.75 -13.49,10.12 -13.49,13.49 -3.37,3.38 -6.75,10.12 -6.75,23.61 0,0 -3.37,0 -3.37,3.38l0 3.37c6.75,10.12 13.49,20.24 23.61,23.61 3.37,3.37 16.87,10.12 40.47,20.24 10.12,3.37 20.24,10.11 37.11,20.23 13.49,6.75 16.86,13.49 16.86,20.24l0 0 0 3.37c0,3.38 0,6.75 -3.37,10.12 0,3.37 -10.12,6.75 -30.36,10.12 -3.37,0 -6.74,3.37 -6.74,3.37 0,0 0,0 0,0 -6.75,0 -10.12,0 -10.12,0 0,0 0,0 0,0l-6.75 0 -13.49 0c-30.35,-3.37 -47.22,-6.74 -50.59,-10.12 -13.49,0 -23.61,-3.37 -33.73,-10.11l-3.37 -3.38 0 -3.37c3.37,-6.75 10.12,-10.12 16.86,-10.12 3.37,-3.37 3.37,-3.37 3.37,-3.37l3.38 0 0 0c0,0 0,0 0,0 3.37,-3.37 13.49,-3.37 26.98,-3.37 0,0 3.37,0 3.37,0l3.38 0c3.37,0 6.74,0 6.74,0l0 3.37c-3.37,0 -3.37,0 -3.37,0 0,0 3.37,0 3.37,3.37l0 0c0,0 0,0 0,3.37 -3.37,0 -6.74,0 -6.74,0 -10.12,0 -16.87,0 -16.87,3.38 0,0 0,0 -3.37,3.37l0 0c26.98,13.49 50.59,20.24 70.83,20.24 16.86,0 23.61,-6.75 23.61,-10.12 3.37,-3.37 3.37,-3.37 3.37,-3.37 -3.37,-10.12 -16.86,-16.87 -37.1,-26.99 -3.37,0 -3.37,0 -3.37,0l-3.38 0c-16.86,-6.74 -30.35,-13.49 -40.47,-16.86 -6.75,-3.37 -13.49,-6.75 -20.24,-13.49 -6.74,-6.75 -10.12,-6.75 -10.12,-10.12l0 0 -3.37 0c-3.37,-3.37 -3.37,-10.12 -6.74,-16.86 0,-6.75 -3.38,-6.75 -3.38,-6.75 3.38,-10.12 3.38,-13.49 3.38,-16.86l0 0c0,0 0,-3.38 3.37,-6.75 0,-3.37 3.37,-3.37 3.37,-3.37 0,-3.38 6.75,-6.75 16.87,-16.87 6.74,-3.37 13.49,-6.74 23.61,-10.11 0,-3.38 6.74,-3.38 20.23,-6.75l0 0c3.38,0 10.12,0 16.87,0 0,0 0,0 3.37,0 0,0 0,0 0,0l3.37 0 3.37 0 3.38 0 3.37 0c10.12,3.37 16.86,3.37 23.61,6.75 0,0 0,-3.38 0,-6.75l0 -6.75 0 0c0,-3.37 0,-3.37 0,-3.37l3.37 0c3.38,0 3.38,3.37 3.38,3.37l0 0c0,-3.37 0,-6.74 3.37,-6.74 0,0 0,0 0,3.37l0 0 0 3.37c0,0 0,0 0,0l3.37 0c-3.37,-3.37 -3.37,-6.74 -3.37,-6.74l3.37 -3.37zm-3.37 23.61l0 3.37c0,0 0,0 0,0 0,3.37 0,3.37 0,3.37 0,6.75 0,13.49 0,16.86l0 0 0 0c0,-6.74 3.37,-13.49 3.37,-23.6l0 -3.38 0 -3.37 0 0c0,0 -3.37,3.37 -3.37,6.75zm-30.36 3.37c0,0 6.75,3.37 16.87,6.74 0,0 0,3.38 0,3.38l0 -3.38c0,0 -3.38,-3.37 -16.87,-6.74l0 0zm-3.37 0l0 0c0,0 3.37,3.37 6.75,6.74l0 0c0,-3.37 -3.38,-3.37 -6.75,-6.74l0 0zm10.12 3.37c0,0 3.37,3.37 6.74,6.75l0 0 -6.74 -6.75 0 0zm-74.2 6.75l0 0 6.74 -3.38 0 0c-3.37,0 -6.74,3.38 -6.74,3.38zm104.55 -3.38c0,3.38 0,6.75 0,10.12l0 0c0,0 0,-3.37 3.38,-10.12l-3.38 0zm-10.11 3.38c0,0 0,6.74 -3.38,16.86 3.38,0 3.38,-6.75 3.38,-16.86l0 0zm-16.87 6.74l0 0c3.37,3.37 3.37,6.75 3.37,6.75 0,-6.75 0,-6.75 -3.37,-6.75zm-84.32 0c0,0 -3.37,3.37 -3.37,6.75l0 0c0,0 3.37,-3.38 3.37,-6.75l0 0zm91.07 3.37c0,0 0,3.38 0,3.38l3.37 0c0,-3.38 0,-3.38 0,-3.38 0,0 0,0 0,-3.37l-3.37 0 0 3.37zm-111.31 6.75l3.38 -6.75 3.37 0 0 0 0 0c-3.37,0 -3.37,3.38 -6.75,6.75zm124.8 -6.75l0 3.38 0 3.37 0 0 0 -6.75 0 0 0 0zm-16.87 6.75l0 3.37c0,0 0,0 0,0l3.38 0 0 0c-3.38,-3.37 -3.38,-3.37 -3.38,-3.37l0 0zm-111.3 0l0 3.37 0 3.38 0 0 0 -3.38 0 -3.37 0 0zm20.24 3.37l0 3.38 0 0c0,0 0,0 0,-3.38l0 0zm0 3.38c0,3.37 0,3.37 0,6.74l0 0c0,0 0,3.37 0,3.37l0 0 0 0c0,-3.37 3.37,-6.74 3.37,-10.11l0 0 -3.37 0zm101.18 0l-3.37 10.11 0 0 0 0c0,0 3.37,-3.37 3.37,-6.74l0 -3.37 0 0zm0 3.37c0,0 0,3.37 0,3.37l0 0 3.38 0c0,0 0,0 0,0 0,-3.37 0,-3.37 0,-3.37l-3.38 0zm-104.55 3.37l0 3.37 0 3.38 3.37 0 0 -3.38c0,0 -3.37,-3.37 -3.37,-3.37l0 0zm101.18 20.24c0,6.74 0,10.12 0,13.49l3.37 0c-3.37,-3.37 -3.37,-6.75 -3.37,-6.75 0,-6.74 0,-16.86 3.37,-26.98 -3.37,3.37 -3.37,10.12 -3.37,20.24zm-107.93 -16.87l0 3.38c0,10.12 3.37,16.86 6.75,20.23l0 0c-3.38,-6.74 -3.38,-10.11 -3.38,-13.49l0 0c-3.37,-6.74 -3.37,-10.12 -3.37,-10.12zm-3.37 0l0 3.38c0,0 0,0 0,0l0 0c0,-3.38 0,-3.38 0,-3.38zm114.67 13.5l0 6.74 0 6.75 0 0 0 -3.38c0,-3.37 0,-3.37 0,-6.74l3.38 -13.49c-3.38,3.37 -3.38,6.74 -3.38,10.12zm-121.42 -6.75l0 0c0,3.37 0,6.75 3.37,13.49 3.38,0 3.38,0 3.38,-3.37 -3.38,-6.75 -3.38,-10.12 -6.75,-10.12l0 0zm6.75 0l0 3.37c0,3.38 3.37,3.38 3.37,3.38l0 0c0,-3.38 0,-3.38 0,-6.75l-3.37 0zm10.12 3.37c0,0 0,3.38 0,3.38l0 0c0,0 3.37,0 3.37,0l-3.37 -3.38zm94.43 0c-3.37,3.38 -3.37,3.38 -3.37,3.38l3.37 0 0 -3.38 0 0zm3.38 6.75l0 3.37 0 0 0 -3.37 0 0zm-104.56 3.37l0 3.37c3.37,3.38 6.75,3.38 6.75,6.75l0 0c-3.38,-6.75 -3.38,-6.75 -3.38,-10.12l-3.37 0zm101.18 3.37c0,0 0,3.38 0,3.38 0,0 3.38,0 3.38,0l0 0c0,0 0,0 0,0 0,0 0,-3.38 0,-3.38l-3.38 0zm-91.06 3.38l0 0c0,0 3.37,3.37 3.37,3.37 0,0 0,0 0,-3.37l-3.37 0zm13.49 0c0,3.37 3.37,6.74 10.12,10.12l0 0 0 -3.38c-3.37,0 -6.75,0 -10.12,-6.74l0 0 0 0zm-6.75 6.74l0 0c3.38,3.38 6.75,6.75 10.12,6.75l3.38 6.74 3.37 -3.37 3.37 3.37 0 0 0 -3.37c-3.37,0 -6.74,-3.37 -10.12,-3.37 -3.37,-3.37 -6.74,-6.75 -10.12,-6.75l0 0zm-3.37 0c0,3.38 0,3.38 3.37,3.38 0,0 0,0 -3.37,-3.38l0 0zm-6.74 0l0 3.38c0,0 0,0 3.37,0l0 0 0 0c0,0 0,0 -3.37,-3.38zm3.37 3.38c3.37,3.37 6.74,6.74 10.12,10.11l0 0c0,0 0,-3.37 0,-3.37l0 0c0,0 -3.38,-3.37 -6.75,-3.37l0 -3.37 -3.37 0zm20.24 0l0 3.37c0,0 3.37,0 10.11,6.74l0 0c0,0 3.38,-3.37 3.38,-3.37 -6.75,-3.37 -10.12,-3.37 -10.12,-3.37l0 0 0 -3.37 -3.37 0zm10.11 3.37l0 0c6.75,3.37 6.75,6.74 6.75,6.74l3.37 0c0,0 3.38,0 3.38,0l0 0c0,0 0,0 -3.38,0 0,0 0,0 0,0 -3.37,-3.37 -6.74,-3.37 -10.12,-6.74zm16.87 6.74l0 0 3.37 0 0 3.38 0 0c0,0 0,0 3.37,3.37l0 -3.37c-3.37,0 -3.37,0 -3.37,0l0 0c6.75,3.37 10.12,3.37 10.12,3.37l0 0c3.37,0 3.37,3.37 3.37,3.37l0 0 0 -3.37c-3.37,0 -10.12,-3.37 -13.49,-6.75 0,0 0,0 0,0l-3.37 0zm-30.36 0l0 3.38c0,0 3.38,0 10.12,3.37 0,0 -3.37,-3.37 -10.12,-6.75zm20.24 6.75l0 0c6.75,6.74 16.86,10.12 23.61,13.49l6.74 3.37 3.38 0 0 -3.37 -20.24 -6.75c-3.37,-3.37 -6.74,-3.37 -13.49,-6.74 0,0 0,0 0,0l0 0zm20.24 3.37l0 3.37c0,0 6.74,3.38 16.86,10.12l3.37 0 0 0 0 0c-3.37,-3.37 -10.12,-6.74 -16.86,-10.12 0,0 0,0 -3.37,-3.37l0 0zm20.23 10.12c0,3.37 3.38,3.37 10.12,10.12l0 0c0,-3.37 -3.37,-6.75 -6.74,-10.12l-3.38 0zm-67.45 10.12c0,0 3.37,0 3.37,0l0 0c3.37,0 3.37,0 3.37,0l0 0c0,0 -3.37,0 -3.37,0 0,0 0,0 -3.37,0zm80.94 0c0,3.37 3.38,6.74 6.75,10.12 -3.37,-6.75 -3.37,-6.75 -3.37,-10.12l-3.38 0zm-104.55 6.74l0 0 0 0c3.37,0 6.74,-3.37 16.86,-3.37l0 0 -3.37 0c-6.75,0 -13.49,0 -13.49,3.37zm128.16 0l0 3.38 0 0 0 0c0,3.37 0,3.37 0,3.37l3.38 0 0 0c-3.38,-3.37 -3.38,-6.75 -3.38,-6.75l0 0zm-13.49 0c3.38,3.38 3.38,6.75 6.75,10.12 0,-3.37 -3.37,-3.37 -3.37,-10.12l-3.38 0zm-114.67 6.75l0 0c3.37,3.37 3.37,3.37 3.37,3.37l0 0 0 0 0 0 0 -3.37c3.37,0 3.37,-3.37 3.37,-3.37l0 0c-3.37,0 -3.37,3.37 -3.37,3.37 0,-3.37 0,-3.37 3.37,-3.37l0 0 -3.37 0c-3.37,0 -3.37,0 -3.37,3.37zm-13.49 0c0,0 0,0 0,0l0 0c3.37,0 3.37,0 3.37,0l0 -3.37 -3.37 3.37zm128.16 -3.37c0,3.37 0,6.74 0,10.12l0 0c0,0 0,-3.38 0,-10.12l0 0zm-124.79 3.37c0,3.37 0,3.37 0,3.37l3.37 0 0 -3.37c0,0 -3.37,0 -3.37,0zm10.12 3.37c0,3.38 0,3.38 6.74,3.38 0,0 -3.37,0 -6.74,-3.38l0 0zm16.86 3.38l0 3.37 3.37 0 0 0 0 0c0,0 0,0 -3.37,-3.37zm-6.74 3.37l0 3.37 3.37 0c0,0 0,0 0,0 0,0 -3.37,0 -3.37,-3.37zm23.61 6.74c0,0 3.37,3.38 13.49,3.38 -3.38,-3.38 -6.75,-3.38 -13.49,-3.38zm0 3.38l0 0c0,0 3.37,0 6.74,0l0 0 0 0c0,0 -3.37,0 -6.74,0 0,0 0,0 0,0 0,0 0,0 0,0z"/>
  <path id="_1" class="fil22" d="M12355.47 5039.06l3.37 0c0,0 0,3.37 0,6.74l0 6.75c0,0 0,0 0,0l0 0 0 3.37c0,0 0,0 0,0 0,0 0,0 0,0 0,20.24 -3.37,33.73 -6.75,43.85l-6.74 30.35 0 0 0 0c3.37,-3.37 6.74,-6.74 6.74,-6.74 0,0 3.38,-3.37 10.12,-6.75 6.75,-3.37 6.75,-3.37 10.12,-3.37 3.37,0 10.12,3.37 10.12,10.12 0,0 0,0 0,3.37l0 0c0,3.37 3.37,6.75 3.37,10.12 0,0 0,3.37 -3.37,3.37 3.37,0 3.37,6.75 3.37,13.49l0 0c0,13.5 3.37,20.24 6.75,20.24 0,0 6.74,-3.37 10.12,-10.12l0 3.38c-3.38,10.11 -10.12,13.49 -16.87,13.49l-3.37 0 0 0 0 0c-6.75,-3.38 -10.12,-10.12 -13.49,-16.87 0,0 0,-3.37 0,-6.74l0 -3.38c0,0 -3.38,0 -3.38,0 0,0 3.38,0 3.38,0 -3.38,-16.86 -3.38,-26.98 -3.38,-30.35 -3.37,0 -6.74,6.74 -13.49,13.49 -6.74,10.12 -10.12,20.24 -10.12,33.73l0 0c0,3.37 0,6.74 0,10.12 -3.37,0 -3.37,0 -3.37,0 0,0 -3.37,0 -6.74,0l0 0 0 3.37 0 -3.37 3.37 0 0 0 -3.37 6.74 0 0c0,0 -3.38,-3.37 -3.38,-6.74l0 0 0 3.37 -3.37 0c0,-3.37 0,-3.37 0,-10.12l0 0c0,0 0,-3.37 0,-3.37l0 0 3.37 0 0 0c-3.37,0 -3.37,0 -3.37,-3.37l0 0c0,0 0,-3.38 0,-3.38l0 -3.37 0 -3.37 0 -3.38c0,0 0,-3.37 0,-3.37l0 0 0 0c0,-3.37 0,-10.12 3.37,-23.61l3.38 -13.49c-3.38,0 -3.38,0 -3.38,0 3.38,-3.37 3.38,-3.37 3.38,-3.37l0 0c0,-3.37 3.37,-13.49 6.74,-33.73l0 0c0,0 0,0 0,0 3.37,-16.86 3.37,-23.61 3.37,-26.98l0 -3.38c0,0 0,-3.37 0,-3.37l3.38 0 0 0c0,0 3.37,-3.37 3.37,-3.37 0,3.37 0,3.37 0,6.74l3.37 0c0,-3.37 0,-3.37 0,-3.37l0 0c3.38,0 3.38,-3.37 3.38,-3.37zm-10.12 16.86c0,6.75 -3.38,16.87 -3.38,33.73l0 0 0 -3.37 0 -3.37 -3.37 0c0,0 0,0 0,0 0,0 0,3.37 0,3.37 -3.37,16.86 -6.74,26.98 -6.74,26.98 0,0 0,0 0,0l-3.38 37.1c0,0 0,0 0,0 0,3.37 -3.37,6.75 -3.37,10.12l0 3.37 3.37 0c0,-13.49 3.38,-23.61 3.38,-26.98 0,0 0,0 0,0 0,-3.37 3.37,-10.12 6.74,-23.61 -3.37,-3.37 -3.37,-3.37 -3.37,-3.37 0,0 3.37,-3.37 3.37,-3.37l0 0 0 3.37 0 0c0,0 0,-3.37 0,-6.75 0,0 0,0 0,-3.37l0 0 0 0 0 0c0,0 3.37,-3.37 6.75,-16.86 0,-3.38 0,-6.75 0,-10.12 0,-3.38 0,-3.38 0,-3.38l0 -3.37 0 -6.74 3.37 -3.38 -3.37 0zm10.12 3.38l0 3.37 0 0 0 -6.75c0,0 0,0 0,3.38zm0 13.49l0 3.37 0 3.37 0 0c0,-3.37 0,-3.37 3.37,-3.37 -3.37,0 -3.37,-3.37 -3.37,-3.37l0 0zm-13.5 16.86l0 0 0 0c-3.37,3.37 -3.37,6.75 -3.37,6.75l0 0c0,-3.38 3.37,-6.75 3.37,-6.75zm0 20.24l0 3.37 0 0 0 0 3.38 -3.37 0 0 -3.38 0zm0 3.37l-3.37 13.49 3.37 0 0 -10.12 0 -3.37zm30.36 6.75c0,0 0,0 0,0 0,3.37 3.37,3.37 3.37,3.37l0 0c0,-3.37 0,-3.37 -3.37,-3.37zm-33.73 6.74l0 0c0,0 0,0 0,-3.37 0,0 0,3.37 0,3.37zm-3.37 3.37c0,6.75 0,10.12 0,10.12l0 0c0,0 0,-3.37 3.37,-10.12l0 0 -3.37 0zm37.1 6.75c0,0 0,3.37 0,6.75l0 0 0 -3.38 0 -3.37 0 0zm3.37 3.37l0 10.12 3.38 3.37 -3.38 0c3.38,10.12 3.38,16.87 6.75,16.87l0 0c0,-3.37 0,-3.37 0,-3.37 0,-3.38 0,-3.38 0,-3.38 -3.37,0 -3.37,-3.37 -3.37,-10.12l0 0c0,-6.74 0,-10.11 0,-10.11 0,0 0,0 0,-3.38l0 0c0,0 0,0 -3.38,0zm6.75 6.75l0 0 0 0c0,0 0,3.37 0,3.37l0 3.37c0,0 0,0 0,0 0,0 0,3.38 0,3.38l0 0 0 -10.12c0,0 0,0 0,0zm-10.12 0c0,0 0,3.37 0,6.74l0 0c0,0 0,0 3.37,-3.37l0 0c0,3.37 0,6.75 0,10.12l0 0c0,0 0,3.37 0,3.37l3.38 0c-3.38,0 -3.38,-3.37 -3.38,-3.37l3.38 0c-3.38,-6.75 -3.38,-10.12 -3.38,-10.12 -3.37,-3.37 -3.37,-3.37 -3.37,-3.37zm-37.1 13.49l0 0 0 0 0 -6.75c0,0 0,3.38 0,6.75zm47.22 -3.37l0 0c0,10.12 0,13.49 3.37,13.49l0 0c-3.37,-6.75 -3.37,-10.12 -3.37,-13.49l0 0zm-53.97 26.98l0 0 0 3.37 0 0 0 -3.37z"/>
  <path id="_2" class="fil22" d="M12446.53 5120.01l0 0c0,0 0,0 0,0 10.12,3.37 16.87,3.37 16.87,6.74l0 0c-3.38,0 -3.38,0 -3.38,0l0 0c-6.74,0 -10.12,3.37 -10.12,3.37l-3.37 0c0,0 -3.37,0 -3.37,-3.37 -3.37,0 -3.37,0 -3.37,0 -3.38,0 -6.75,0 -10.12,3.37l0 3.38 -3.37 -3.38c0,3.38 0,3.38 -3.38,6.75 0,3.37 -3.37,6.75 -6.74,10.12 -3.38,3.37 -3.38,6.74 -3.38,10.12 0,3.37 0,3.37 0,6.74l0 0c0,3.38 3.38,6.75 6.75,10.12 6.75,-3.37 10.12,-3.37 10.12,-6.74 3.37,0 6.74,-6.75 10.12,-20.24 0,0 0,-3.37 0,-6.75l0 -3.37 0 0c6.74,0 10.11,0 13.49,-3.37l3.37 0 0 3.37c0,3.37 -3.37,10.12 -3.37,16.86l0 0 0 0c0,0 0,3.38 0,3.38 0,0 0,3.37 0,10.12 0,0 0,0 0,0 3.37,0 3.37,0 3.37,0 0,0 0,0 -3.37,0 3.37,3.37 3.37,3.37 3.37,6.74l6.75 0 10.11 -10.12 3.38 -3.37 3.37 0 0 3.37 -3.37 3.38 0 0c0,0 3.37,0 3.37,3.37l0 0c-3.37,3.37 -6.75,6.74 -13.49,10.12 -3.37,3.37 -10.12,6.74 -13.49,6.74 0,0 -6.75,-6.74 -13.49,-13.49l0 0 3.37 -3.37 0 0c-13.49,10.12 -20.24,13.49 -26.98,13.49 0,0 -3.38,0 -6.75,0 -6.74,0 -13.49,-3.37 -13.49,-6.75 0,0 0,-3.37 0,-10.11 0,-3.38 0,-10.12 0,-13.5l0 0c0,-3.37 3.37,-3.37 3.37,-3.37l0 -3.37c0,-6.75 6.75,-10.12 16.87,-16.87 10.12,-6.74 20.23,-10.11 30.35,-10.11zm-40.47 23.61l-3.37 3.37 0 0c0,0 3.37,0 3.37,0 0,0 0,0 0,-3.37 0,0 0,0 0,0 0,0 0,0 0,0l0 0zm-3.37 6.74l0 3.37 0 3.38c0,0 0,-3.38 0,-3.38l0 -3.37 0 0zm40.47 3.37c0,3.38 0,3.38 0,3.38l0 3.37 0 0 0 -6.75 0 0zm0 10.12l0 0c3.37,-3.37 3.37,-6.74 3.37,-6.74 0,0 0,3.37 -3.37,6.74zm-33.73 -3.37l0 3.37 0 0 0 0 0 -3.37 0 0zm-10.12 3.37l0 6.75c3.38,0 3.38,0 3.38,3.37l0 0 0 -3.37c0,0 0,-3.37 -3.38,-6.75l0 0zm40.48 6.75l0 0 0 0c3.37,-3.37 6.74,-3.37 6.74,-3.37l0 0 -3.37 0c0,0 -3.37,3.37 -3.37,3.37z"/>
  <path id="_3" class="fil22" d="M12507.24 5109.89c0,0 0,0 3.38,3.37 -6.75,6.75 -10.12,23.61 -13.5,50.59l0 6.75c0,0 0,3.37 0,3.37 3.38,0 10.12,-10.12 20.24,-30.35 3.37,-13.5 6.75,-23.61 10.12,-26.99l0 0 3.37 0c0,0 3.37,0 6.75,0 0,0 0,0 0,0l6.74 0 0 0c-3.37,6.75 -6.74,20.24 -10.12,40.48 0,0 0,0 0,3.37l0 0 0 0 0 0c0,0 0,0 0,0 3.38,6.75 3.38,10.12 3.38,13.49l3.37 0c3.37,0 6.75,-6.74 16.86,-16.86 0,0 0,3.37 0,3.37l-3.37 3.37 0 0c3.37,0 3.37,0 6.75,0l0 0 -3.38 3.38 3.38 0c-6.75,10.11 -16.87,13.49 -23.61,13.49 0,0 0,3.37 -3.38,3.37 -10.11,-3.37 -13.49,-6.75 -13.49,-10.12 0,0 -3.37,-3.37 -3.37,-10.12 -10.12,13.49 -16.86,20.24 -23.61,20.24 0,0 -3.37,0 -3.37,0 -10.12,0 -13.49,-3.37 -13.49,-10.12l0 0c0,0 -3.38,-3.37 -3.38,-10.12 3.38,-10.12 3.38,-16.86 6.75,-20.23 0,-10.12 3.37,-16.87 6.75,-16.87l0 -3.37c0,-6.75 3.37,-10.12 3.37,-13.49l3.37 0 0 3.37 3.37 0c3.38,-3.37 6.75,-3.37 10.12,-3.37zm-3.37 3.37l-3.37 10.12 0 0c3.37,-3.37 3.37,-6.75 3.37,-10.12l0 0 0 0zm-13.49 23.61l0 0 3.37 -13.49 0 0c0,0 0,3.37 -3.37,13.49zm40.47 -10.12c-3.37,6.75 -3.37,10.12 -3.37,13.49l0 0 3.37 -13.49 0 0zm-33.73 3.37c0,3.38 0,6.75 0,6.75l0 0c0,0 3.38,0 3.38,-6.75l-3.38 0zm26.99 3.38c0,0 0,3.37 -3.38,3.37l-6.74 16.86 0 0 0 0c3.37,-3.37 6.74,-10.11 10.12,-13.49 0,0 0,0 0,0l0 -3.37c0,0 0,-3.37 0,-3.37l0 0zm6.74 3.37c-3.37,6.75 -3.37,10.12 -3.37,10.12l0 3.37c0,3.37 0,3.37 0,3.37l0 0 0 3.38 0 0 0 0c0,0 0,-3.38 3.37,-6.75l0 0c0,-3.37 0,-6.74 0,-13.49l0 0zm-43.84 0c-3.38,3.37 -3.38,3.37 -3.38,3.37l0 3.38 3.38 0c0,-3.38 0,-3.38 0,-6.75l0 0zm3.37 3.37c0,0 0,0 0,-3.37 0,0 0,3.37 0,3.37zm33.73 3.38l0 0 0 0c0,0 0,0 3.37,-3.38 -3.37,0 -3.37,0 -3.37,3.38zm-3.38 10.11c0,0 -3.37,3.38 -6.74,10.12l0 0 3.37 -3.37c0,0 0,0 0,0 3.37,0 3.37,-3.37 3.37,-6.75l0 0 0 0zm-33.72 0l0 0 0 3.38 0 0 0 6.74 0 0c0,-3.37 0,-3.37 3.37,-6.74l-3.37 0 3.37 -3.38c0,0 -3.37,0 -3.37,0zm43.84 3.38c0,3.37 0,3.37 0,3.37 0,0 0,3.37 0,6.75l0 0 0 0 0 -3.38c0,-3.37 0,-6.74 0,-6.74l0 0 0 0zm-3.37 0c0,0 -3.37,0 -3.37,3.37l3.37 6.75 0 0 0 -6.75c0,-3.37 0,-3.37 0,-3.37zm-47.22 3.37l0 6.75c0,0 3.37,3.37 3.37,6.74 0,0 0,0 0,0 0,3.37 0,3.37 3.38,6.75l0 0 3.37 0c0,0 -3.37,-3.38 -3.37,-3.38 -3.38,-6.74 -3.38,-10.11 -3.38,-13.49l0 -3.37 0 0 -3.37 0zm40.47 0c0,0 0,0 0,0l0 3.37 0 0c0,6.75 3.38,10.12 6.75,10.12 -3.37,-3.37 -3.37,-3.37 -3.37,-6.74l0 0 0 0 0 0 0 0c0,0 0,-3.38 0,-3.38 0,0 0,-3.37 0,-3.37l-3.38 0zm-40.47 6.75c0,0 0,3.37 -3.37,3.37 3.37,0 3.37,3.37 3.37,3.37l0 0 0 0 0 -6.74 0 0zm50.59 3.37l0 0c0,3.37 0,6.74 3.37,6.74l3.38 0 0 0c-3.38,0 -3.38,0 -3.38,-3.37 0,0 -3.37,0 -3.37,-3.37z"/>
  <path id="_4" class="fil22" d="M12574.7 5103.14c20.24,0 33.73,3.38 40.47,13.49 0,3.38 0,6.75 0,10.12 0,3.37 -3.37,13.49 -6.74,26.98 0,0 0,3.38 -3.38,6.75l0 6.75c3.38,3.37 3.38,6.74 3.38,6.74 3.37,0 6.74,-3.37 13.49,-10.12 3.37,-3.37 3.37,-6.74 6.74,-6.74l-3.37 6.74 0 0c0,0 3.37,0 3.37,-3.37l3.38 0 0 0 -3.38 3.37 0 0 3.38 0c-10.12,13.49 -20.24,20.24 -33.73,20.24 -10.12,-3.37 -13.49,-3.37 -13.49,-6.75 0,0 0,-3.37 -3.38,-6.74 0,-10.12 3.38,-26.98 13.5,-47.22l0 -3.37c0,-3.38 -3.38,-3.38 -13.5,-3.38 -6.74,0 -6.74,0 -6.74,3.38 0,0 0,0 0,0l0 3.37c0,3.37 0,3.37 0,3.37 -10.12,3.37 -13.49,3.37 -13.49,3.37l-3.38 0c0,0 0,0 0,-6.74 0,0 -3.37,0 -3.37,-3.37 0,-6.75 3.37,-10.12 10.12,-13.49 3.37,0 6.75,-3.38 10.12,-3.38zm-6.75 13.49l0 0c3.38,-3.37 3.38,-3.37 6.75,-3.37l0 0c-3.37,0 -6.75,3.37 -6.75,3.37zm-3.37 3.38l0 3.37c0,0 0,0 0,0l3.37 0c0,0 0,0 0,0 0,-3.37 0,-3.37 -3.37,-3.37zm33.73 6.74c-3.37,3.37 -3.37,6.75 -3.37,6.75l0 0c3.37,0 3.37,-3.38 3.37,-6.75l0 0 0 0zm6.74 0c-3.37,10.12 -6.74,16.87 -6.74,16.87 3.37,0 3.37,-3.38 6.74,-13.5l0 -3.37zm-6.74 3.37c0,3.38 0,6.75 0,10.12l0 0c0,0 0,-3.37 3.37,-10.12l-3.37 0zm10.12 6.75l0 -3.37c0,3.37 0,3.37 0,3.37 0,0 0,0 0,0 0,3.37 0,3.37 -3.38,3.37l3.38 3.38c0,0 -3.38,3.37 -3.38,3.37l0 3.37 0 0c3.38,-10.12 6.75,-16.86 6.75,-20.24l0 0c0,0 -3.37,3.38 -3.37,6.75zm-10.12 10.12c-3.37,3.37 -3.37,6.74 -3.37,6.74l3.37 0c0,0 0,-3.37 0,-6.74l0 0zm-10.12 3.37c-3.37,10.12 -3.37,13.49 -3.37,13.49 3.37,0 3.37,0 3.37,3.38 0,0 -3.37,3.37 -3.37,3.37 3.37,0 3.37,0 3.37,0l0 0 0 -6.75 0 0c0,0 0,-6.74 0,-13.49l0 0zm13.49 10.12c0,3.37 0,3.37 0,3.37l0 0c0,0 0,-3.37 3.37,-3.37l0 0 0 -6.75c0,0 -3.37,3.38 -3.37,6.75zm-3.37 6.75l0 0 0 3.37 3.37 0c0,0 0,0 0,-3.37l-3.37 0zm-3.37 6.74l0 0c0,3.37 0,3.37 0,3.37l0 0 0 0c0,-3.37 0,-3.37 0,-3.37z"/>
  <path id="_5" class="fil22" d="M12648.9 5103.14c0,0 0,3.38 0,3.38l3.37 -3.38 0 0c0,0 3.38,0 3.38,3.38l0 6.74c0,3.37 -3.38,10.12 -10.12,26.98 -3.38,10.12 -3.38,13.49 -3.38,20.24 0,3.37 0,6.75 0,10.12l3.38 0c3.37,-3.37 6.74,-13.49 13.49,-30.36 6.74,-13.49 10.12,-23.61 10.12,-23.61 0,-6.74 6.74,-10.11 13.49,-10.11 0,0 0,0 3.37,0l0 3.37c0,3.37 -3.37,16.86 -6.74,37.1 -3.38,6.74 -3.38,10.12 -3.38,10.12l3.38 3.37 0 0c0,0 3.37,-3.37 6.74,-10.12 0,0 3.37,-3.37 10.12,-10.12l3.37 -16.86c0,-6.75 6.75,-13.49 20.24,-16.86l0 0 0 3.37 0 3.37c0,3.37 -3.37,13.49 -6.75,33.73 -3.37,3.37 -3.37,3.37 -3.37,6.74l0 6.75c3.37,3.37 3.37,6.75 3.37,6.75 3.38,0 10.12,-6.75 20.24,-20.24l0 0 0 0c0,3.37 -3.37,6.74 -3.37,6.74l3.37 0c0,-3.37 3.37,-3.37 3.37,-6.74l0 0 0 3.37c0,0 0,3.37 -3.37,6.75l3.37 0 3.38 -3.38 3.37 0c0,0 0,3.38 -3.37,3.38l0 0 0 0c-6.75,6.74 -13.5,13.49 -20.24,16.86 -6.75,3.37 -6.75,3.37 -10.12,6.75l0 0c0,-3.38 -3.37,-3.38 -10.12,-3.38 -3.37,-3.37 -6.74,-6.74 -6.74,-13.49l-3.38 -3.37c-6.74,13.49 -10.11,16.86 -16.86,16.86l-6.75 0c0,0 -3.37,-3.37 -6.74,-6.74 0,-3.37 0,-3.37 0,-3.37 -3.37,6.74 -10.12,10.11 -20.24,13.49l-3.37 0 0 0c0,0 -3.37,0 -3.37,0 -6.75,0 -10.12,-3.38 -10.12,-13.49l0 -6.75c0,0 0,-3.37 0,-3.37l0 0c3.37,-13.49 6.74,-23.61 10.12,-37.1 3.37,-3.38 6.74,-6.75 6.74,-13.49l0 0c0,0 3.37,0 3.37,3.37 0,0 3.38,-3.37 6.75,-6.75l0 0zm64.08 10.12l0 3.37 0 0 0 -3.37 0 0zm-40.47 13.49l0 3.37c0,0 0,-6.74 3.37,-13.49 0,0 -3.37,3.38 -3.37,10.12zm-26.98 -10.12c0,0 -3.38,3.38 -3.38,10.12 -6.74,6.75 -6.74,13.49 -6.74,13.49l0 0 0 0c0,0 3.37,-6.74 6.74,-16.86 3.38,0 3.38,-3.37 3.38,-6.75l0 0zm23.61 3.38l-3.38 13.49 0 0 0 0c0,0 3.38,-6.75 6.75,-13.49l-3.37 0zm-30.36 3.37l0 0 0 0c0,0 3.37,0 3.37,-3.37l0 0c-3.37,0 -3.37,0 -3.37,3.37zm70.83 6.74l-3.37 0 0 3.38 3.37 0 0 -3.38 0 0 0 0zm-67.46 0c0,0 0,3.38 0,3.38l0 3.37 0 0 0 -6.75 0 0zm60.71 0c0,3.38 -3.37,6.75 -6.74,13.5l3.37 0 0 0 3.37 -13.5 0 0zm3.38 10.12l3.37 0c0,0 0,-3.37 3.37,-10.12l0 0c-3.37,0 -3.37,3.38 -6.74,10.12zm-33.73 -10.12c-3.37,3.38 -3.37,3.38 -3.37,6.75 -3.38,0 -3.38,0 -3.38,-3.37 0,0 0,3.37 -3.37,10.12l0 0c3.37,0 3.37,0 3.37,-6.75 0,0 0,0 3.38,3.37 -3.38,0 -3.38,3.38 -3.38,10.12l0 0c0,0 3.38,-6.74 6.75,-20.24l0 0zm-37.1 13.5c-3.37,3.37 -3.37,6.74 -3.37,6.74 3.37,0 3.37,-3.37 3.37,-6.74l0 0 0 0zm64.08 3.37c0,0 0,3.37 0,3.37l0 -3.37 0 0c0,3.37 0,3.37 0,6.74 0,0 0,-3.37 0,-6.74l0 0 0 0zm-67.45 13.49c0,3.37 0,10.12 0,13.49l3.37 0c-3.37,-3.37 -3.37,-6.74 -3.37,-10.12l0 -3.37c0,-3.37 0,-3.37 0,-3.37 0,0 0,0 0,0 0,0 0,-3.38 3.37,-6.75l-3.37 0c0,0 0,3.37 0,10.12zm23.61 0l0 0c0,0 3.37,-3.37 6.74,-10.12l0 0c0,0 -3.37,3.37 -6.74,10.12zm10.11 -10.12c0,0 -3.37,3.37 -3.37,3.37l0 0 3.37 -3.37 0 0 0 0zm6.75 3.37c0,3.38 0,6.75 0,6.75 0,3.37 0,3.37 0,3.37l0 0 0 -10.12 0 0zm16.86 0c0,0 0,3.38 -3.37,3.38l0 0 3.37 0c0,0 0,0 0,-3.38l0 0 0 0zm10.12 3.38c0,3.37 0,6.74 3.37,6.74l0 0c-3.37,-3.37 -3.37,-6.74 -3.37,-6.74 0,0 0,0 0,0zm3.37 0c3.38,6.74 3.38,10.12 6.75,10.12l0 0c-3.37,-3.38 -3.37,-6.75 -3.37,-10.12l-3.38 0zm-77.57 3.37l0 6.75c0,3.37 3.37,6.74 3.37,6.74l0 0c0,0 0,-6.74 -3.37,-10.12l3.37 0c-3.37,0 -3.37,-3.37 -3.37,-3.37l0 0zm50.59 6.75c0,0 3.38,0 3.38,0 0,0 3.37,-3.38 10.11,-6.75 -6.74,3.37 -10.11,6.75 -13.49,6.75zm-10.12 -6.75c0,0 0,3.37 0,6.75 0,0 0,3.37 3.38,3.37l0 0c-3.38,-3.37 -3.38,-6.75 -3.38,-10.12l0 0zm33.73 6.75c0,0 0,0 -3.37,0 3.37,3.37 3.37,3.37 6.74,3.37 0,0 0,0 0,0 0,0 0,-3.37 -3.37,-3.37zm10.12 3.37c0,0 0,0 3.37,0l0 0c0,0 0,0 0,0 0,0 0,0 -3.37,0zm-74.2 0l0 0c0,3.37 0,3.37 3.37,3.37l0 0 -3.37 -3.37 0 0zm-3.37 3.37c0,3.37 0,3.37 0,3.37l3.37 0 0 0c-3.37,0 -3.37,0 -3.37,-3.37l0 0z"/>
  <path id="_6" class="fil22" d="M12780.44 5120.01l0 0c0,0 0,0 0,0 10.12,3.37 13.49,3.37 13.49,6.74l0 0c0,0 0,0 0,0l-3.37 0c-6.75,0 -10.12,3.37 -10.12,3.37l0 0c-3.37,0 -3.37,0 -6.75,-3.37 0,0 0,0 0,0 -3.37,0 -6.74,0 -13.49,3.37l0 3.38 0 -3.38c0,3.38 -3.37,3.38 -6.74,6.75 0,3.37 0,6.75 -3.38,10.12 -3.37,3.37 -3.37,6.74 -3.37,10.12 0,3.37 0,3.37 0,6.74l0 0c0,3.38 0,6.75 3.37,10.12 10.12,-3.37 13.5,-3.37 13.5,-6.74 3.37,0 3.37,-6.75 10.11,-20.24 0,0 -3.37,-3.37 -3.37,-6.75l0 -3.37 3.37 0c6.75,0 10.12,0 10.12,-3.37l6.75 0 0 3.37c-3.37,3.37 -3.37,10.12 -3.37,16.86l0 0 0 0c0,0 0,3.38 0,3.38 0,0 0,3.37 0,10.12 0,0 0,0 0,0 0,0 0,0 0,0 0,0 0,0 0,0 3.37,3.37 3.37,3.37 3.37,6.74l6.74 0 10.12 -10.12 3.37 -3.37 0 0 0 3.37 -3.37 3.38 0 0c3.37,0 3.37,0 3.37,3.37l0 0c0,3.37 -3.37,6.74 -10.11,10.12 -6.75,3.37 -10.12,6.74 -13.49,6.74 -3.38,0 -6.75,-6.74 -13.5,-13.49l0 0 0 -3.37 0 0c-10.11,10.12 -20.23,13.49 -23.61,13.49 -3.37,0 -3.37,0 -6.74,0 -10.12,0 -13.49,-3.37 -13.49,-6.75 0,0 0,-3.37 -3.38,-10.11 0,-3.38 3.38,-10.12 3.38,-13.5l0 0c0,-3.37 0,-3.37 3.37,-3.37l0 -3.37c0,-6.75 3.37,-10.12 16.86,-16.87 10.12,-6.74 20.24,-10.11 30.36,-10.11zm-40.47 23.61l-3.38 3.37 0 0c0,0 0,0 0,0 0,0 3.38,0 3.38,-3.37 0,0 0,0 0,0 0,0 0,0 0,0l0 0zm-3.38 6.74l0 3.37 0 3.38c0,0 0,-3.38 0,-3.38l0 -3.37 0 0zm40.48 3.37c0,3.38 0,3.38 -3.38,3.38l0 3.37 0 0 3.38 -6.75 0 0zm0 10.12l0 0c3.37,-3.37 3.37,-6.74 3.37,-6.74 0,0 -3.37,3.37 -3.37,6.74zm-37.1 -3.37l0 3.37 3.37 0 0 0 -3.37 -3.37 0 0zm-6.75 3.37l0 6.75c0,0 0,0 0,3.37l3.37 0 0 -3.37c0,0 -3.37,-3.37 -3.37,-6.75l0 0zm40.47 6.75l0 0 0 0c3.38,-3.37 3.38,-3.37 3.38,-3.37l0 0 0 0c-3.38,0 -3.38,3.37 -3.38,3.37z"/>
  <rect class="fil23 str4" x="15737.72" y="530.6" width="1948.21" height="2942.76" rx="286.1" ry="286.1"/>
  <ellipse class="fil24 str0" cx="16718.64" cy="2430.55" rx="912.8" ry="886.13"/>
  <rect class="fil25 str0" x="16541.53" y="2833.04" width="340.59" height="149.87"/>
  <rect class="fil3 str5" x="16091.94" y="721.34" width="1229.56" height="517.71" rx="77.85" ry="94.88"/>
  <ellipse class="fil26 str0" cx="16722.04" cy="969.97" rx="163.49" ry="156.67"/>
  <rect class="fil27 str0" x="15829.68" y="816.22" width="160.08" height="882.63" rx="80.04" ry="80.04"/>
  <rect class="fil27 str6" x="17430.49" y="816.22" width="160.08" height="882.63" rx="80.04" ry="80.04"/>
  <rect class="fil23 str0" x="16687.98" y="3473.35" width="148.63" height="2135.55"/>
  <rect class="fil24 str0" transform="matrix(0.40228 -0 -0.491676 0.40228 16708.4 5608.9)" width="338.66" height="3386.66"/>
  <rect class="fil24 str0" transform="matrix(-0.392477 -0 0.479695 0.40228 16844.7 5608.9)" width="338.66" height="3386.66"/>
  <rect class="fil27 str0" transform="matrix(0.242336 0.0922663 1.192 3.43056 16722 5701.99)" width="508" height="304.8"/>
  <rect class="fil28 str0" x="16579" y="3885.48" width="381.47" height="490.46"/>
  <path class="fil2" d="M11306.56 5237.24c37.1,0 67.45,23.61 67.45,53.97 0,30.35 -30.35,57.34 -67.45,57.34 -37.1,0 -64.09,-26.99 -64.09,-57.34 0,-30.36 26.99,-53.97 64.09,-53.97z"/>
  <path class="fil2" d="M11306.56 5745.24c37.1,0 67.45,23.61 67.45,53.97 0,30.35 -30.35,57.34 -67.45,57.34 -37.1,0 -64.09,-26.99 -64.09,-57.34 0,-30.36 26.99,-53.97 64.09,-53.97z"/>
  <rect class="fil23 str4" x="873.87" y="580.58" width="1948.21" height="2942.76" rx="286.1" ry="286.1"/>
  <ellipse class="fil24 str0" cx="1854.79" cy="2480.53" rx="912.8" ry="886.13"/>
  <rect class="fil25 str0" x="1677.68" y="2883.02" width="340.59" height="149.87"/>
  <rect class="fil3 str5" x="1228.09" y="771.32" width="1229.56" height="517.71" rx="77.85" ry="94.88"/>
  <ellipse class="fil26 str0" cx="1858.19" cy="1019.95" rx="163.49" ry="156.67"/>
  <rect class="fil27 str0" x="965.83" y="866.2" width="160.08" height="882.63" rx="80.04" ry="80.04"/>
  <rect class="fil27 str6" x="2566.64" y="866.2" width="160.08" height="882.63" rx="80.04" ry="80.04"/>
  <rect class="fil23 str0" x="1824.13" y="3523.33" width="148.63" height="2135.55"/>
  <rect class="fil24 str0" transform="matrix(0.40228 -0 -0.491676 0.40228 1844.57 5658.88)" width="338.66" height="3386.66"/>
  <rect class="fil24 str0" transform="matrix(-0.392477 -0 0.479695 0.40228 1980.81 5658.88)" width="338.66" height="3386.66"/>
  <rect class="fil27 str0" transform="matrix(0.1924 0.0922663 -0.664659 3.43056 1858.12 5666.09)" width="508" height="304.8"/>
  <rect class="fil28 str0" x="1715.15" y="3935.46" width="381.47" height="490.46"/>
 </g>
</svg>
