<?xml version="1.0" encoding="UTF-8"?>
<!DOCTYPE svg PUBLIC "-//W3C//DTD SVG 1.1//EN" "http://www.w3.org/Graphics/SVG/1.1/DTD/svg11.dtd">
<!-- Creator: CorelDRAW 2017 -->
<svg xmlns="http://www.w3.org/2000/svg" xml:space="preserve" width="453.813mm" height="223.52mm" version="1.1" style="shape-rendering:geometricPrecision; text-rendering:geometricPrecision; image-rendering:optimizeQuality; fill-rule:evenodd; clip-rule:evenodd"
viewBox="0 0 45381.32 22351.98"
 xmlns:xlink="http://www.w3.org/1999/xlink">
 <defs>
  <style type="text/css">
   <![CDATA[
    .str10 {stroke:black;stroke-width:7.85;stroke-miterlimit:22.9256}
    .str9 {stroke:black;stroke-width:8.05;stroke-miterlimit:22.9256}
    .str7 {stroke:black;stroke-width:33.86;stroke-miterlimit:22.9256}
    .str6 {stroke:black;stroke-width:67.73;stroke-miterlimit:22.9256}
    .str4 {stroke:black;stroke-width:42.33;stroke-miterlimit:22.9256}
    .str2 {stroke:#4D4D4D;stroke-width:42.33;stroke-miterlimit:22.9256}
    .str8 {stroke:black;stroke-width:16.93;stroke-miterlimit:22.9256}
    .str11 {stroke:black;stroke-width:4.27;stroke-miterlimit:22.9256}
    .str0 {stroke:black;stroke-width:20;stroke-miterlimit:22.9256}
    .str3 {stroke:#1A1A1A;stroke-width:20;stroke-miterlimit:22.9256}
    .str1 {stroke:#FFCC99;stroke-width:20;stroke-miterlimit:22.9256}
    .str12 {stroke:black;stroke-width:7.54;stroke-miterlimit:22.9256}
    .str5 {stroke:#FFDD00;stroke-width:7.62;stroke-miterlimit:22.9256}
    .fil9 {fill:none}
    .fil8 {fill:black}
    .fil30 {fill:#003333}
    .fil28 {fill:#003399}
    .fil35 {fill:lime}
    .fil10 {fill:#1A1A1A}
    .fil26 {fill:#333300}
    .fil2 {fill:#333333}
    .fil3 {fill:#4D4D4D}
    .fil0 {fill:#660066}
    .fil14 {fill:#663333}
    .fil11 {fill:#666666}
    .fil5 {fill:#669999}
    .fil17 {fill:#6B231C}
    .fil23 {fill:gray}
    .fil13 {fill:#990000}
    .fil29 {fill:#999933}
    .fil33 {fill:#999999}
    .fil18 {fill:#A30026}
    .fil25 {fill:#B2D1D1}
    .fil4 {fill:#B3B3B3}
    .fil15 {fill:#BD0006}
    .fil16 {fill:#CC0007}
    .fil32 {fill:#CC3366}
    .fil27 {fill:#CCCC33}
    .fil20 {fill:#CCCCCC}
    .fil34 {fill:#DD0B29}
    .fil19 {fill:#E6E6E6}
    .fil7 {fill:#FCD5A6}
    .fil12 {fill:red}
    .fil1 {fill:#FFCC99}
    .fil24 {fill:#FFDD00}
    .fil6 {fill:white}
    .fil31 {fill:#E6E6E6;fill-rule:nonzero}
    .fil21 {fill:#FFDD00;fill-rule:nonzero}
    .fil22 {fill:yellow;fill-rule:nonzero}
   ]]>
  </style>
   <clipPath id="id0">
    <path d="M17775.28 15435.73l112.97 0 0 -26.06 -112.97 0 0 26.06z"/>
   </clipPath>
   <clipPath id="id1">
    <path d="M17797 15414.01l112.96 0 0 -26.06 -112.96 0 0 26.06z"/>
   </clipPath>
   <clipPath id="id2">
    <path d="M17817.03 15394.23l93.55 0 0 -28.69 -93.55 0 0 28.69z"/>
   </clipPath>
   <clipPath id="id3">
    <path d="M17818.72 15370.57l112.96 0 0 -26.06 -112.96 0 0 26.06z"/>
   </clipPath>
   <clipPath id="id4">
    <path d="M17840.46 15348.85l112.94 0 0 -26.06 -112.94 0 0 26.06z"/>
   </clipPath>
   <clipPath id="id5">
    <path d="M17862.18 15327.14l112.96 0 0 -26.09 -112.96 0 0 26.09z"/>
   </clipPath>
   <clipPath id="id6">
    <path d="M17882.06 15307.04l93.55 0 0 -28.59 -93.55 0 0 28.59z"/>
   </clipPath>
   <clipPath id="id7">
    <path d="M17883.9 15283.7l112.96 0 0 -26.09 -112.96 0 0 26.09z"/>
   </clipPath>
   <clipPath id="id8">
    <path d="M14610.38 15486.16l115.27 0 0 -28.66 -115.27 0 0 28.66z"/>
   </clipPath>
   <clipPath id="id9">
    <path d="M17905.62 15261.95l112.96 0 0 -26.06 -112.96 0 0 26.06z"/>
   </clipPath>
   <clipPath id="id10">
    <path d="M17925.4 15241.68l93.57 0 0 -28.68 -93.57 0 0 28.68z"/>
   </clipPath>
   <clipPath id="id11">
    <path d="M17949.08 15218.52l69.5 0 0 -26.06 -69.5 0 0 26.06z"/>
   </clipPath>
   <clipPath id="id12">
    <path d="M14610.38 15420.86l71.88 0 0 -28.67 -71.88 0 0 28.67z"/>
   </clipPath>
   <clipPath id="id13">
    <path d="M17947.09 15198.15l50.22 0 0 -28.66 -50.22 0 0 28.66z"/>
   </clipPath>
   <clipPath id="id14">
    <path d="M17949.08 15175.06l26.06 0 0 -26.07 -26.06 0 0 26.07z"/>
   </clipPath>
   <clipPath id="id15">
    <path d="M17925.4 15154.56l28.54 0 0 -50.45 -28.54 0 0 50.45z"/>
   </clipPath>
   <clipPath id="id16">
    <path d="M17905.62 15109.88l26.06 0 0 -26.07 -26.06 0 0 26.07z"/>
   </clipPath>
   <clipPath id="id17">
    <path d="M17485.6 15601.23l123.84 0 0 -28.66 -123.84 0 0 28.66z"/>
   </clipPath>
   <clipPath id="id18">
    <path d="M17508.92 15579.44l100.52 0 0 -50.43 -100.52 0 0 50.43z"/>
   </clipPath>
   <clipPath id="id19">
    <path d="M17532.21 15535.95l77.23 0 0 -28.66 -77.23 0 0 28.66z"/>
   </clipPath>
 </defs>
 <g id="Layer_x0020_1">
  <metadata id="CorelCorpID_0Corel-Layer"/>
  <polygon class="fil0" points="27999.9,13015 27999.9,15680.84 22396.44,15680.84 22396.44,13015 "/>
  <path class="fil1" d="M25111.25 5085.76c1018.1,0 1837.44,819.42 1837.44,1837.42 0,1009.83 -819.44,1829.17 -1837.44,1829.17 -1018.08,0 -1845.72,-819.44 -1845.72,-1829.17 0,-1018.08 827.72,-1837.42 1845.72,-1837.42z"/>
  <path class="fil2" d="M25136.08 5085.76c1133.96,-24.84 1936.77,1225 1804.34,2019.54 -8.27,99.31 -24.83,902.19 -24.83,786.31 -16.57,-521.44 -2118.86,-1994.7 -2367.19,-2392 -99.31,124.16 -984.97,769.78 -1175.35,811.15 240.03,-736.66 951.89,-1225 1762.96,-1225l0.07 0z"/>
  <polygon class="fil0" points="23505.57,9199.41 24068.34,9199.41 24068.34,9671.11 24937.43,9422.88 25318.18,9422.88 26187.29,9671.11 26187.29,9199.41 26791.44,9199.41 26940.42,11781.8 23505.57,11591.41 "/>
  <path class="fil0" d="M23066.88 9182.85l562.84 16.56 1531.2 2085.75 1531.17 -2085.75 579.41 -16.56c380.75,-8.27 695.29,322.81 695.29,711.83l0 3749.47 -5595.18 0 0 -3749.47c0,-389.02 314.51,-720.1 695.27,-711.83z"/>
  <polygon class="fil0" points="27966.79,11310 27966.79,12634.25 22371.61,12634.25 22371.61,11310 "/>
  <path class="fil0" d="M23795.2 9431.15l976.7 1324.35 -2400.29 0 0 -860.82c0,-173.82 57.94,-339.35 165.53,-463.53l1258.13 0 -0.07 0zm1754.74 1324.28l976.7 -1324.35 1274.68 0c107.61,124.15 165.55,289.7 165.55,463.53l0 860.82 -2416.86 0 -0.07 0z"/>
  <path class="fil3 str0" d="M23727.86 5879.29l1165.47 0c174.16,0 315.39,141.23 315.39,315.39l0 0c0,174.17 -141.23,315.4 -315.39,315.4l-1165.47 0c-174.17,0 -315.4,-141.23 -315.4,-315.4l0 0c0,-174.16 141.23,-315.39 315.4,-315.39z"/>
  <path class="fil3 str0" d="M22985.23 6194.68l2440.58 0c130.85,0 236.97,97.41 236.97,217.51l0 1566c0,120.1 -106.12,217.5 -236.97,217.5l-2440.58 0c-130.85,0 -236.97,-97.4 -236.97,-217.5l0 -1566c0,-120.1 106.12,-217.51 236.97,-217.51z"/>
  <rect class="fil3 str0" x="23758.79" y="3726.92" width="1120.95" height="2108.92"/>
  <rect class="fil4 str0" x="23873.52" y="3774.39" width="892.23" height="436.97"/>
  <ellipse class="fil5 str0" cx="24346.46" cy="7119.06" rx="826.07" ry="815.61"/>
  <rect class="fil4 str0" x="23237.65" y="6194.68" width="173.95" height="2001.01"/>
  <path class="fil0 str0" d="M21922.73 7000.95l958.96 0c102.85,0 186.98,84.12 186.98,186.98l0 2901.14c0,366.54 -299.89,666.43 -666.43,666.43l-479.51 0c-102.85,0 -186.97,-84.13 -186.97,-186.98l0 -3380.59c0,-102.86 84.12,-186.98 186.97,-186.98z"/>
  <path class="fil1 str1" d="M22213.12 6412.21l410.94 0c68.57,0 124.18,29.18 124.18,65.18l0 458.4c0,36 -55.61,65.18 -124.15,65.18l-410.97 0c-68.54,0 -124.15,-29.18 -124.15,-65.18l-0.02 -458.4c0.02,-36 55.63,-65.18 124.2,-65.18z"/>
  <path class="fil0 str0" d="M24878.38 8294.1l554.21 -340.97c101.08,-62.16 233.45,-30.62 295.61,70.43l1995.84 3244.18c62.18,101.06 30.65,233.43 -70.41,295.62l-554.23 340.94c-101.06,62.19 -233.43,30.63 -295.62,-70.43l-1995.83 -3244.15c-62.16,-101.06 -30.63,-233.46 70.43,-295.62z"/>
  <rect class="fil6" x="14267.79" y="14665.17" width="3613.93" height="5275.54"/>
  <path class="fil7" d="M16120.94 10356.61c1192.73,0 2159.47,966.89 2159.47,2159.69 0,1192.64 -966.74,2159.52 -2159.47,2159.52 -93.94,0 -186.49,-6.01 -277.29,-17.64 -1061.76,-136.11 -1882.3,-1043.16 -1882.3,-2141.88 0,-1192.85 966.83,-2159.66 2159.59,-2159.69z"/>
  <path class="fil8" d="M16120.94 10356.61c974.74,0 1798.25,645.84 2066.9,1532.87 37.96,433.56 -2209.85,-214.68 -2757.31,-1058.86 -115.98,149.45 -1135.38,957.48 -1359.85,1005.66 284.96,-859.67 1095.08,-1479.64 2050.26,-1479.67z"/>
  <g>
  </g>
  <g style="clip-path:url(#id0)">
   <g>
   </g>
  </g>
  <polygon class="fil9" points="17775.28,15435.73 17888.25,15435.73 17888.25,15409.67 17775.28,15409.67 "/>
  <polygon class="fil9" points="17775.28,15435.73 17888.25,15435.73 17888.25,15409.67 17775.28,15409.67 "/>
  <polygon class="fil9" points="17775.28,15435.73 17888.25,15435.73 17888.25,15409.67 17775.28,15409.67 "/>
  <polygon class="fil9" points="17775.28,15435.73 17888.25,15435.73 17888.25,15409.67 17775.28,15409.67 "/>
  <g>
  </g>
  <g style="clip-path:url(#id1)">
   <g>
   </g>
  </g>
  <polygon class="fil9" points="17797,15414.01 17909.96,15414.01 17909.96,15387.95 17797,15387.95 "/>
  <polygon class="fil9" points="17797,15414.01 17909.96,15414.01 17909.96,15387.95 17797,15387.95 "/>
  <polygon class="fil9" points="17797,15414.01 17909.96,15414.01 17909.96,15387.95 17797,15387.95 "/>
  <polygon class="fil9" points="17797,15414.01 17909.96,15414.01 17909.96,15387.95 17797,15387.95 "/>
  <g>
  </g>
  <g style="clip-path:url(#id2)">
   <g>
   </g>
  </g>
  <polygon class="fil9" points="17817.03,15394.23 17910.58,15394.23 17910.58,15365.54 17817.03,15365.54 "/>
  <polygon class="fil9" points="17817.03,15394.23 17910.58,15394.23 17910.58,15365.54 17817.03,15365.54 "/>
  <polygon class="fil9" points="17817.03,15394.23 17910.58,15394.23 17910.58,15365.54 17817.03,15365.54 "/>
  <polygon class="fil9" points="17817.03,15394.23 17910.58,15394.23 17910.58,15365.54 17817.03,15365.54 "/>
  <g>
  </g>
  <g style="clip-path:url(#id3)">
   <g>
   </g>
  </g>
  <polygon class="fil9" points="17818.72,15370.57 17931.68,15370.57 17931.68,15344.51 17818.72,15344.51 "/>
  <polygon class="fil9" points="17818.72,15370.57 17931.68,15370.57 17931.68,15344.51 17818.72,15344.51 "/>
  <polygon class="fil9" points="17818.72,15370.57 17931.68,15370.57 17931.68,15344.51 17818.72,15344.51 "/>
  <polygon class="fil9" points="17818.72,15370.57 17931.68,15370.57 17931.68,15344.51 17818.72,15344.51 "/>
  <g>
  </g>
  <g style="clip-path:url(#id4)">
   <g>
   </g>
  </g>
  <polygon class="fil9" points="17840.46,15348.85 17953.4,15348.85 17953.4,15322.79 17840.46,15322.79 "/>
  <polygon class="fil9" points="17840.46,15348.85 17953.4,15348.85 17953.4,15322.79 17840.46,15322.79 "/>
  <polygon class="fil9" points="17840.46,15348.85 17953.4,15348.85 17953.4,15322.79 17840.46,15322.79 "/>
  <polygon class="fil9" points="17840.46,15348.85 17953.4,15348.85 17953.4,15322.79 17840.46,15322.79 "/>
  <g>
  </g>
  <g style="clip-path:url(#id5)">
   <g>
   </g>
  </g>
  <polygon class="fil9" points="17862.18,15327.14 17975.14,15327.14 17975.14,15301.05 17862.18,15301.05 "/>
  <polygon class="fil9" points="17862.18,15327.14 17975.14,15327.14 17975.14,15301.05 17862.18,15301.05 "/>
  <polygon class="fil9" points="17862.18,15327.14 17975.14,15327.14 17975.14,15301.05 17862.18,15301.05 "/>
  <polygon class="fil9" points="17862.18,15327.14 17975.14,15327.14 17975.14,15301.05 17862.18,15301.05 "/>
  <g>
  </g>
  <g style="clip-path:url(#id6)">
   <g>
   </g>
  </g>
  <polygon class="fil9" points="17882.06,15307.04 17975.61,15307.04 17975.61,15278.45 17882.06,15278.45 "/>
  <polygon class="fil9" points="17882.06,15307.04 17975.61,15307.04 17975.61,15278.45 17882.06,15278.45 "/>
  <polygon class="fil9" points="17882.06,15307.04 17975.61,15307.04 17975.61,15278.45 17882.06,15278.45 "/>
  <polygon class="fil9" points="17882.06,15307.04 17975.61,15307.04 17975.61,15278.45 17882.06,15278.45 "/>
  <g>
  </g>
  <g style="clip-path:url(#id7)">
   <g>
   </g>
  </g>
  <polygon class="fil9" points="17883.9,15283.7 17996.86,15283.7 17996.86,15257.61 17883.9,15257.61 "/>
  <polygon class="fil9" points="17883.9,15283.7 17996.86,15283.7 17996.86,15257.61 17883.9,15257.61 "/>
  <polygon class="fil9" points="17883.9,15283.7 17996.86,15283.7 17996.86,15257.61 17883.9,15257.61 "/>
  <polygon class="fil9" points="17883.9,15283.7 17996.86,15283.7 17996.86,15257.61 17883.9,15257.61 "/>
  <g>
  </g>
  <g style="clip-path:url(#id8)">
   <g>
   </g>
  </g>
  <polygon class="fil9" points="14610.38,15486.16 14725.65,15486.16 14725.65,15457.5 14610.38,15457.5 "/>
  <polygon class="fil9" points="14610.38,15486.16 14725.65,15486.16 14725.65,15457.5 14610.38,15457.5 "/>
  <polygon class="fil9" points="14610.38,15486.16 14725.65,15486.16 14725.65,15457.5 14610.38,15457.5 "/>
  <polygon class="fil9" points="14610.38,15486.16 14725.65,15486.16 14725.65,15457.5 14610.38,15457.5 "/>
  <g>
  </g>
  <g style="clip-path:url(#id9)">
   <g>
   </g>
  </g>
  <polygon class="fil9" points="17905.62,15261.95 18018.58,15261.95 18018.58,15235.89 17905.62,15235.89 "/>
  <polygon class="fil9" points="17905.62,15261.95 18018.58,15261.95 18018.58,15235.89 17905.62,15235.89 "/>
  <polygon class="fil9" points="17905.62,15261.95 18018.58,15261.95 18018.58,15235.89 17905.62,15235.89 "/>
  <polygon class="fil9" points="17905.62,15261.95 18018.58,15261.95 18018.58,15235.89 17905.62,15235.89 "/>
  <g>
  </g>
  <g style="clip-path:url(#id10)">
   <g>
   </g>
  </g>
  <polygon class="fil9" points="17925.4,15241.68 18018.97,15241.68 18018.97,15213 17925.4,15213 "/>
  <polygon class="fil9" points="17925.4,15241.68 18018.97,15241.68 18018.97,15213 17925.4,15213 "/>
  <polygon class="fil9" points="17925.4,15241.68 18018.97,15241.68 18018.97,15213 17925.4,15213 "/>
  <polygon class="fil9" points="17925.4,15241.68 18018.97,15241.68 18018.97,15213 17925.4,15213 "/>
  <g>
  </g>
  <g style="clip-path:url(#id11)">
   <g>
   </g>
  </g>
  <polygon class="fil9" points="17949.08,15218.52 18018.58,15218.52 18018.58,15192.46 17949.08,15192.46 "/>
  <polygon class="fil9" points="17949.08,15218.52 18018.58,15218.52 18018.58,15192.46 17949.08,15192.46 "/>
  <polygon class="fil9" points="17949.08,15218.52 18018.58,15218.52 18018.58,15192.46 17949.08,15192.46 "/>
  <polygon class="fil9" points="17949.08,15218.52 18018.58,15218.52 18018.58,15192.46 17949.08,15192.46 "/>
  <g>
  </g>
  <g style="clip-path:url(#id12)">
   <g>
   </g>
  </g>
  <polygon class="fil9" points="14610.38,15420.86 14682.26,15420.86 14682.26,15392.19 14610.38,15392.19 "/>
  <polygon class="fil9" points="14610.38,15420.86 14682.26,15420.86 14682.26,15392.19 14610.38,15392.19 "/>
  <polygon class="fil9" points="14610.38,15420.86 14682.26,15420.86 14682.26,15392.19 14610.38,15392.19 "/>
  <polygon class="fil9" points="14610.38,15420.86 14682.26,15420.86 14682.26,15392.19 14610.38,15392.19 "/>
  <g>
  </g>
  <g style="clip-path:url(#id13)">
   <g>
   </g>
  </g>
  <polygon class="fil9" points="17947.09,15198.15 17997.31,15198.15 17997.31,15169.49 17947.09,15169.49 "/>
  <polygon class="fil9" points="17947.09,15198.15 17997.31,15198.15 17997.31,15169.49 17947.09,15169.49 "/>
  <polygon class="fil9" points="17947.09,15198.15 17997.31,15198.15 17997.31,15169.49 17947.09,15169.49 "/>
  <polygon class="fil9" points="17947.09,15198.15 17997.31,15198.15 17997.31,15169.49 17947.09,15169.49 "/>
  <g>
  </g>
  <g style="clip-path:url(#id14)">
   <g>
   </g>
  </g>
  <polygon class="fil9" points="17949.08,15175.06 17975.14,15175.06 17975.14,15148.99 17949.08,15148.99 "/>
  <polygon class="fil9" points="17949.08,15175.06 17975.14,15175.06 17975.14,15148.99 17949.08,15148.99 "/>
  <polygon class="fil9" points="17949.08,15175.06 17975.14,15175.06 17975.14,15148.99 17949.08,15148.99 "/>
  <polygon class="fil9" points="17949.08,15175.06 17975.14,15175.06 17975.14,15148.99 17949.08,15148.99 "/>
  <g>
  </g>
  <g style="clip-path:url(#id15)">
   <g>
   </g>
  </g>
  <polygon class="fil9" points="17925.4,15154.56 17953.94,15154.56 17953.94,15104.11 17925.4,15104.11 "/>
  <polygon class="fil9" points="17925.4,15154.56 17953.94,15154.56 17953.94,15104.11 17925.4,15104.11 "/>
  <polygon class="fil9" points="17925.4,15154.56 17953.94,15154.56 17953.94,15104.11 17925.4,15104.11 "/>
  <polygon class="fil9" points="17925.4,15154.56 17953.94,15154.56 17953.94,15104.11 17925.4,15104.11 "/>
  <g>
  </g>
  <g style="clip-path:url(#id16)">
   <g>
   </g>
  </g>
  <polygon class="fil9" points="17905.62,15109.88 17931.68,15109.88 17931.68,15083.81 17905.62,15083.81 "/>
  <polygon class="fil9" points="17905.62,15109.88 17931.68,15109.88 17931.68,15083.81 17905.62,15083.81 "/>
  <polygon class="fil9" points="17905.62,15109.88 17931.68,15109.88 17931.68,15083.81 17905.62,15083.81 "/>
  <polygon class="fil9" points="17905.62,15109.88 17931.68,15109.88 17931.68,15083.81 17905.62,15083.81 "/>
  <path class="fil10" d="M13574.51 15101.16l670.43 17.28 1868.64 4522.09 1810.2 -4504.59 10.21 -14.06 -3.12 -4.3 0.05 -0.05 692.18 -16.37c460.95,-10.97 838.16,390.5 838.16,867.69l0 4569.6 -6725.07 0 0 -4569.65c0,-477.31 377.52,-879.37 838.37,-867.64l-0.03 0 0 0 -0.02 0z"/>
  <ellipse class="fil8 str0" cx="16084.59" cy="18272.03" rx="57.92" ry="65.18"/>
  <rect class="fil11" x="17938.33" y="18250.27" width="1100.66" height="144.84"/>
  <polygon class="fil6" points="18781.31,17894.92 18517.64,17613.06 17938.36,18250.27 19010.06,18250.27 "/>
  <polygon class="fil12" points="16070.14,15339.31 14933.48,14848.32 15041.88,16048.95 16007.46,15528.84 "/>
  <polygon class="fil12" points="15973.47,15310.94 17128.39,14906.87 17069.42,16077.91 15913.81,15477.06 "/>
  <rect class="fil13" x="15886.72" y="15175.02" width="325.95" height="451.97"/>
  <polygon class="fil6 str2" points="13260.53,15918.62 14274.34,14557.27 15473.87,18173.87 15121.51,17862.52 "/>
  <polygon class="fil6 str2" points="13955.7,17207.85 14795.71,16324.11 15918.6,19383.86 15537.53,18985.41 "/>
  <g>
  </g>
  <g style="clip-path:url(#id17)">
   <g>
   </g>
  </g>
  <polygon class="fil9" points="17485.6,15601.23 17609.44,15601.23 17609.44,15572.57 17485.6,15572.57 "/>
  <polygon class="fil9" points="17485.6,15601.23 17609.44,15601.23 17609.44,15572.57 17485.6,15572.57 "/>
  <polygon class="fil9" points="17485.6,15601.23 17609.44,15601.23 17609.44,15572.57 17485.6,15572.57 "/>
  <polygon class="fil9" points="17485.6,15601.23 17609.44,15601.23 17609.44,15572.57 17485.6,15572.57 "/>
  <g>
  </g>
  <g style="clip-path:url(#id18)">
   <g>
   </g>
  </g>
  <polygon class="fil9" points="17508.92,15579.44 17609.44,15579.44 17609.44,15529.01 17508.92,15529.01 "/>
  <polygon class="fil9" points="17508.92,15579.44 17609.44,15579.44 17609.44,15529.01 17508.92,15529.01 "/>
  <polygon class="fil9" points="17508.92,15579.44 17609.44,15579.44 17609.44,15529.01 17508.92,15529.01 "/>
  <polygon class="fil9" points="17508.92,15579.44 17609.44,15579.44 17609.44,15529.01 17508.92,15529.01 "/>
  <g>
  </g>
  <g style="clip-path:url(#id19)">
   <g>
   </g>
  </g>
  <polygon class="fil9" points="17532.21,15535.95 17609.44,15535.95 17609.44,15507.29 17532.21,15507.29 "/>
  <polygon class="fil9" points="17532.21,15535.95 17609.44,15535.95 17609.44,15507.29 17532.21,15507.29 "/>
  <polygon class="fil9" points="17532.21,15535.95 17609.44,15535.95 17609.44,15507.29 17532.21,15507.29 "/>
  <polygon class="fil9" points="17532.21,15535.95 17609.44,15535.95 17609.44,15507.29 17532.21,15507.29 "/>
  <ellipse class="fil8 str0" cx="16025.52" cy="16649.17" rx="62.24" ry="65.18"/>
  <path class="fil13" d="M15919.38 15175.03l287.28 0c17.4,0 31.46,10.41 31.46,23.24l0 236.7c0,12.83 -14.06,23.21 -31.46,23.21l-287.28 0c-17.37,0 -31.46,-10.38 -31.46,-23.21l0 -236.7c0,-12.83 14.09,-23.24 31.46,-23.24z"/>
  <polygon class="fil6 str2" points="19016.29,15847.23 17923.88,14615.23 16714.29,18215.86 17068.19,17876.76 "/>
  <polygon class="fil6 str2" points="18312.83,17334.3 17364.27,16344.21 16279.79,19408.69 16588.05,19138.33 "/>
  <polygon class="fil10" points="12943.34,15395.38 13789.51,17699.94 12263.79,18949.88 11173.7,18051.49 "/>
  <polygon class="fil14" points="9745.11,17319.59 12160.61,17319.59 12885.21,20794.13 10464.45,20771.65 "/>
  <ellipse class="fil8 str0" cx="16025.52" cy="17468" rx="62.24" ry="65.18"/>
  <rect class="fil10 str3" x="12736.17" y="20538.45" width="6721.49" height="1131.72"/>
  <polygon class="fil13" points="16913.8,19408.45 28501.47,19391.88 29701.56,21692.85 15597.73,21709.39 "/>
  <path class="fil9 str4" d="M22508.99 10618.36c-1084.31,0 -1961.6,744.94 -1961.6,1663.63 0,910.49 877.36,1655.35 1961.6,1655.35 1084.31,0 1961.6,-744.94 1961.6,-1655.35 0,-918.76 -877.39,-1663.63 -1961.6,-1663.63z"/>
  <path class="fil1" d="M22492.42 10717.71c1018.1,0 1837.45,819.41 1837.45,1837.42 0,1009.83 -819.44,1829.17 -1837.45,1829.17 -1018.07,0 -1845.71,-819.44 -1845.71,-1829.17 0,-1018.08 827.71,-1837.42 1845.71,-1837.42z"/>
  <path class="fil8" d="M22707.62 14352.86c-66.21,0 -132.42,8.27 -198.63,8.27 -66.24,0 -132.45,-8.27 -198.66,-8.27l-190.39 -339.35 778.07 0 -190.39 339.35z"/>
  <path class="fil2" d="M22517.26 10717.71c1133.96,-24.84 1936.76,1225 1804.34,2019.53 -8.27,99.32 -24.84,902.2 -24.84,786.32 -16.56,-521.45 -2118.85,-1994.71 -2367.18,-2392 -99.32,124.15 -984.97,769.77 -1175.36,811.15 240.04,-736.67 951.89,-1225 1762.97,-1225l0.07 0z"/>
  <polygon class="fil13" points="20886.74,14831.36 21449.51,14831.36 21449.51,15303.06 22318.6,15054.83 22699.35,15054.83 23568.47,15303.06 23568.47,14831.36 24172.61,14831.36 24321.6,17413.74 20886.74,17223.36 "/>
  <path class="fil15" d="M20448.05 14814.8l562.84 16.56 1531.2 2085.75 1531.18 -2085.75 579.41 -16.56c380.75,-8.27 695.29,322.81 695.29,711.83l0 3749.47 -5595.19 0 0 -3749.47c0,-389.02 314.52,-720.1 695.27,-711.83z"/>
  <polygon class="fil16" points="25381.07,18646.94 25381.07,20062.34 19777.62,20062.34 19777.62,18646.94 "/>
  <polygon class="fil16" points="25347.97,16941.95 25347.97,18266.19 19752.78,18266.19 19752.78,16941.95 "/>
  <path class="fil16" d="M21176.37 15063.1l976.7 1324.35 -2400.29 0 0 -860.82c0,-173.83 57.94,-339.35 165.53,-463.53l1258.14 0 -0.08 0zm1754.75 1324.27l976.7 -1324.34 1274.67 0c107.61,124.15 165.55,289.7 165.55,463.52l0 860.82 -2416.85 0 -0.07 0z"/>
  <path class="fil1" d="M28702.75 10753.27c1133.96,0 2052.64,852.54 2052.64,1903.65 0,1059.48 -918.76,1911.95 -2052.64,1911.95 -1133.96,0 -2052.64,-852.55 -2052.64,-1911.95 0,-1051.18 918.75,-1903.65 2052.64,-1903.65z"/>
  <path class="fil17" d="M27875.04 10827.77c-256.6,124.15 -82.78,24.81 -322.81,173.8l-107.62 66.24c-33.1,24.83 -24.81,16.54 -66.21,41.37 -24.83,24.84 -24.83,24.84 -49.64,49.67 -165.55,206.93 -264.87,215.2 -471.8,595.95 -33.13,66.21 -66.24,173.82 -99.34,240.03 0,49.68 -8.27,33.11 57.94,24.84l662.18 -140.72c513.18,-132.42 1671.9,-422.12 1903.66,-786.31l297.98 240.03c223.46,173.83 571.11,422.13 819.44,562.85l132.42 74.48c74.51,8.29 24.84,8.29 49.67,-16.54 -281.43,-753.23 -1042.93,-1258.14 -1878.84,-1291.24 -488.34,-16.57 -587.66,82.78 -927.03,165.55z"/>
  <path class="fil17" d="M27726.05 13095.61c-74.51,91.05 -74.51,248.31 -8.27,355.92 157.26,264.87 744.94,397.32 976.7,33.1 49.64,33.11 223.47,347.65 728.37,165.56 364.21,-132.45 355.92,-488.37 248.33,-554.58 -24.84,49.67 0,74.51 -57.94,115.89 -231.77,190.36 -529.74,-380.76 -902.22,-57.95 -74.48,-24.83 -256.57,-198.65 -554.55,-8.27 -405.59,256.58 -413.86,-24.83 -430.42,-49.67z"/>
  <polygon class="fil18" points="27245.98,10074.54 30250.49,10091.1 30242.22,11216.79 27237.69,11200.23 "/>
  <path class="fil19" d="M26492.75 14924.86l4535.71 0c264.87,0 488.36,223.5 488.36,488.36l0 4750.91c0,264.87 -223.49,488.34 -488.36,488.34l-4535.71 0c-264.87,0 -488.34,-223.47 -488.34,-488.34l0 -4750.91c0,-264.86 223.47,-488.36 488.34,-488.36z"/>
  <path class="fil2" d="M29820.09 16166.36c91.05,0 165.53,66.21 165.53,140.69 0,74.51 -74.48,132.45 -165.53,132.45 -82.77,0 -157.28,-57.94 -157.28,-132.45 0,-74.48 74.51,-140.69 157.28,-140.69z"/>
  <path class="fil2" d="M29820.09 17325.15c91.05,0 165.53,57.94 165.53,132.42 0,74.51 -74.48,132.45 -165.53,132.45 -82.77,0 -157.28,-57.94 -157.28,-132.45 0,-74.48 74.51,-132.42 157.28,-132.42z"/>
  <path class="fil2" d="M29820.09 18533.52c91.05,0 165.53,57.94 165.53,132.44 0,74.48 -74.48,140.72 -165.53,140.72 -82.77,0 -157.28,-66.24 -157.28,-140.72 0,-74.5 74.51,-132.44 157.28,-132.44z"/>
  <path class="fil2" d="M20052.35 20145.24c91.05,0 165.53,57.94 165.53,132.42 0,74.5 -74.48,132.44 -165.53,132.44 -91.04,0 -157.28,-57.94 -157.28,-132.44 0,-74.48 66.24,-132.42 157.28,-132.42z"/>
  <path class="fil2" d="M27543.96 18533.52c91.04,0 165.52,57.94 165.52,132.44 0,74.48 -74.48,140.72 -165.52,140.72 -91.05,0 -157.29,-66.24 -157.29,-140.72 0,-74.5 66.24,-132.44 157.29,-132.44z"/>
  <polygon class="fil18" points="26004.49,20197.24 31500.33,20197.24 31500.33,21380.79 26004.49,21380.79 "/>
  <polygon class="fil18" points="27825.37,15727.67 27866.77,15727.67 29745.59,15404.86 27866.77,15992.54 27866.77,20164.13 27775.72,20164.13 "/>
  <polygon class="fil18" points="27659.84,14833.82 29331.73,14924.86 27610.17,15711.1 27841.93,15181.36 28545.49,15106.88 28603.43,15189.66 28702.75,15421.4 29546.93,15396.59 29232.41,15173.09 27684.67,15024.11 "/>
  <polygon class="fil3" points="22674.52,19143.58 17385.6,19143.58 15837.79,21684.58 22326.9,21684.58 "/>
  <path class="fil8 str0" d="M18867.13 19085.64c1324.35,0 2400.29,538 2400.29,1191.89 0,662.19 -1076.04,1191.93 -2400.29,1191.93 -1324.35,0 -2400.29,-529.74 -2400.29,-1191.93 0,-653.89 1076.02,-1191.89 2400.29,-1191.89z"/>
  <path class="fil13 str0" d="M18863.4 19650.52c521.47,0 943.59,223.49 943.59,496.63 0,281.41 -422.12,504.9 -943.59,504.9 -521.44,0 -951.87,-223.49 -951.87,-504.9 0,-273.14 430.43,-496.63 951.87,-496.63z"/>
  <polygon class="fil20" points="22285.5,19300.83 19769.32,19300.83 19769.32,19466.39 22285.5,19466.39 "/>
  <path class="fil11 str0" d="M21904.74 20616.91c140.72,0 256.6,57.94 256.6,124.15 0,74.48 -115.88,132.42 -256.6,132.42 -140.69,0 -256.57,-57.94 -256.57,-132.42 0,-66.21 115.88,-124.15 256.57,-124.15z"/>
  <path class="fil11 str0" d="M21697.82 21138.28c-198.64,0 -347.62,66.21 -347.62,140.72 0,82.77 148.98,148.98 347.62,148.98 190.38,0 347.64,-66.21 347.64,-148.98 0,-74.51 -157.26,-140.72 -347.64,-140.72z"/>
  <polygon class="fil9 str0" points="19840.1,19584.31 19492.48,19584.31 19492.48,19261.5 19840.1,19261.5 "/>
  <polygon class="fil20 str0" points="19947.71,19228.39 19277.26,19228.39 19277.26,19418.75 19947.71,19418.75 "/>
  <polygon class="fil2" points="20547.39,11926.15 20208.02,11926.15 20208.02,13200.75 20547.39,13200.75 "/>
  <polygon class="fil13" points="20307.5,11926.15 20373.74,11926.15 20373.74,13151.25 20307.5,13151.25 "/>
  <polygon class="fil8 str0" points="20754.32,11901.33 20547.39,11901.33 20547.39,13233.85 20754.32,13233.85 "/>
  <polygon class="fil2" points="24493.04,12105.98 24840.69,12105.98 24840.69,13380.58 24493.04,13380.58 "/>
  <polygon class="fil13" points="24774.47,12105.98 24708.24,12105.98 24708.24,13380.58 24774.47,13380.58 "/>
  <polygon class="fil8 str0" points="24269.57,12081.17 24484.77,12081.17 24484.77,13413.69 24269.57,13413.69 "/>
  <polygon class="fil2" points="31434.12,17192.7 34331.04,17192.7 34331.04,20726.88 31434.12,20726.88 "/>
  <path class="fil20" d="M32344.53 18599.75l0 703.56 -57.94 0 0 -488.36 -297.97 488.36 -16.57 0 -173.82 -496.63 -140.72 496.63 -74.48 0 198.66 -703.56 8.27 0 198.66 571.12 347.62 -571.12 8.29 0zm653.89 455.23l-446.96 0c0,57.95 16.54,107.62 41.38,140.72 33.1,41.38 74.5,57.94 132.44,57.94 33.11,0 66.22,-8.27 99.32,-24.83 24.84,-16.57 57.94,-33.11 74.48,-57.94l49.67 33.1c-24.83,33.11 -57.94,57.94 -99.31,82.78 -41.4,16.56 -82.78,24.83 -124.16,24.83 -82.77,0 -140.71,-24.83 -182.11,-74.5 -41.38,-49.65 -57.94,-107.59 -57.94,-165.53 0,-49.67 16.56,-99.34 41.4,-148.99 24.83,-49.67 57.94,-82.77 107.58,-107.61 41.4,-33.1 91.07,-41.37 140.72,-41.37 66.21,0 124.15,24.81 165.55,66.21 41.38,41.37 66.21,99.31 66.21,165.52 0,16.57 -8.27,33.13 -8.27,49.67zm-57.94 -57.94c0,-49.67 -16.56,-91.04 -49.67,-115.88 -33.1,-33.1 -66.21,-49.64 -115.88,-49.64 -49.65,0 -91.05,16.54 -132.42,49.64 -41.4,24.84 -66.21,66.21 -82.78,115.88l380.75 0zm223.47 -215.19l66.24 0 -16.57 82.77c49.67,-57.94 115.88,-91.04 182.1,-91.04 49.67,0 91.04,16.54 124.15,49.64 33.13,33.11 49.67,74.51 49.67,132.45 0,16.54 0,57.94 -8.27,107.58l-33.11 240.06 -66.21 0 33.11 -240.06c8.27,-49.64 8.27,-91.04 8.27,-107.58 0,-41.4 -8.27,-66.21 -33.11,-91.05 -16.56,-24.83 -49.67,-33.1 -82.77,-33.1 -33.11,0 -66.22,8.27 -91.05,24.81 -33.11,16.56 -57.94,41.4 -74.51,74.5 -16.54,33.11 -24.81,82.78 -33.1,148.99l-33.11 223.49 -57.94 0 66.21 -521.46zm612.52 0l66.21 0 -33.11 215.19c-8.27,66.21 -16.54,107.62 -16.54,124.16 0,41.4 16.54,66.23 41.38,91.04 24.83,24.84 49.67,41.4 91.04,41.4 33.11,0 57.94,-8.27 82.78,-33.1 24.84,-16.57 41.38,-41.4 49.67,-74.51 8.27,-16.54 16.54,-49.64 16.54,-107.59l41.4 -256.59 57.94 0 -24.83 198.65c-8.3,91.05 -24.84,157.26 -33.11,198.64 -16.56,41.4 -41.4,66.23 -74.5,99.34 -33.11,24.83 -74.49,33.1 -115.89,33.1 -57.94,0 -107.58,-16.56 -140.71,-49.67 -33.11,-41.37 -49.65,-82.77 -49.65,-140.71 0,-24.81 0,-49.65 8.27,-74.49l0 -49.67 0 -16.54 33.11 -198.65z"/>
  <polygon class="fil20" points="31550,18260.38 34206.89,18260.38 34206.89,18343.15 31550,18343.15 "/>
  <polygon class="fil20" points="31550,19551.62 34206.89,19551.62 34206.89,19634.39 31550,19634.39 "/>
  <path class="fil21" d="M29985.62 15661.45l0 0c0,8.28 0,16.55 0,16.55l0 0 0 -8.27c8.27,0 8.27,-8.28 8.27,-8.28l8.3 0 0 8.28c0,0 0,0 0,0l8.27 0c0,0 0,0 8.27,16.54 0,41.4 -8.27,91.04 -24.84,132.44l0 8.27c0,8.27 0,8.27 0,16.57 0,0 0,8.27 0,8.27 0,8.27 -8.27,16.56 -8.27,33.1 0,0 0,0 0,0l0 16.57 -24.83 16.54 -24.84 0 -8.27 0c0,0 0,0 0,0l0 -8.27c0,-8.27 -8.27,-16.57 -8.27,-16.57l0 0c0,-8.27 0,-8.27 0,-8.27 0,-24.83 8.27,-49.67 16.54,-57.94 -8.27,-8.27 -8.27,-16.54 -8.27,-16.54l8.27 0c-8.27,-8.29 -8.27,-16.56 -8.27,-16.56l0 0c0,-16.57 -16.54,-33.11 -24.84,-49.67 -24.83,-8.27 -41.37,-16.54 -49.64,-16.54l-16.57 0c-24.83,0 -41.37,0 -49.67,16.54l-8.27 0 0 0c-24.83,16.56 -33.1,24.83 -33.1,33.1 -8.27,8.3 -16.57,24.84 -16.57,57.94 0,0 -8.27,0 -8.27,8.3l0 8.27c16.57,24.83 33.11,49.67 57.94,57.94 8.27,8.27 41.4,24.83 99.32,49.67 24.83,8.27 49.67,24.81 91.07,49.65 33.11,16.56 41.38,33.1 41.38,49.67l0 0 0 8.27c0,8.29 0,16.56 -8.27,24.83 0,8.27 -24.84,16.57 -74.51,24.84 -8.27,0 -16.54,8.27 -16.54,8.27 0,0 0,0 0,0 -16.57,0 -24.84,0 -24.84,0 0,0 0,0 0,0l-16.56 0 -33.11 0c-74.48,-8.27 -115.88,-16.54 -124.15,-24.84 -33.1,0 -57.94,-8.27 -82.77,-24.81l-8.28 -8.29 0 -8.27c8.28,-16.57 24.84,-24.84 41.38,-24.84 8.27,-8.27 8.27,-8.27 8.27,-8.27l8.3 0 0 0c0,0 0,0 0,0 8.27,-8.27 33.1,-8.27 66.21,-8.27 0,0 8.27,0 8.27,0l8.29 0c8.27,0 16.54,0 16.54,0l0 8.27c-8.27,0 -8.27,0 -8.27,0 0,0 8.27,0 8.27,8.27l0 0c0,0 0,0 0,8.27 -8.27,0 -16.54,0 -16.54,0 -24.83,0 -41.4,0 -41.4,8.3 0,0 0,0 -8.27,8.27l0 0c66.21,33.1 124.15,49.67 173.82,49.67 41.38,0 57.94,-16.57 57.94,-24.84 8.28,-8.27 8.28,-8.27 8.28,-8.27 -8.28,-24.83 -41.38,-41.4 -91.05,-66.23 -8.27,0 -8.27,0 -8.27,0l-8.3 0c-41.37,-16.54 -74.48,-33.11 -99.31,-41.38 -16.57,-8.27 -33.11,-16.57 -49.67,-33.11 -16.54,-16.56 -24.84,-16.56 -24.84,-24.83l0 0 -8.27 0c-8.27,-8.27 -8.27,-24.84 -16.54,-41.38 0,-16.56 -8.29,-16.56 -8.29,-16.56 8.29,-24.84 8.29,-33.11 8.29,-41.38l0 0c0,0 0,-8.29 8.27,-16.56 0,-8.27 8.27,-8.27 8.27,-8.27 0,-8.3 16.57,-16.57 41.4,-41.4 16.54,-8.27 33.11,-16.54 57.94,-24.81 0,-8.3 16.54,-8.3 49.65,-16.57l0 0c8.29,0 24.83,0 41.4,0 0,0 0,0 8.27,0 0,0 0,0 0,0l8.27 0 8.27 0 8.29 0 8.27 0c24.84,8.27 41.38,8.27 57.95,16.57 0,0 0,-8.3 0,-16.57l0 -16.56 0 0c0,-8.27 0,-8.27 0,-8.27l8.27 0c8.29,0 8.29,8.27 8.29,8.27l0 0c0,-8.27 0,-16.54 8.27,-16.54 0,0 0,0 0,8.27l0 0 0 8.27c0,0 0,0 0,0l8.27 0c-8.27,-8.27 -8.27,-16.54 -8.27,-16.54l8.27 -8.28zm-8.27 57.95l0 8.27c0,0 0,0 0,0 0,8.27 0,8.27 0,8.27 0,16.56 0,33.1 0,41.37l0 0 0 0c0,-16.54 8.27,-33.1 8.27,-57.91l0 -8.3 0 -8.27 0 0c0,0 -8.27,8.27 -8.27,16.57zm-74.51 8.27c0,0 16.57,8.27 41.4,16.54 0,0 0,8.29 0,8.29l0 -8.29c0,0 -8.29,-8.27 -41.4,-16.54l0 0zm-8.27 0l0 0c0,0 8.27,8.27 16.57,16.54l0 0c0,-8.27 -8.3,-8.27 -16.57,-16.54l0 0zm24.84 8.27c0,0 8.27,8.27 16.54,16.56l0 0 -16.54 -16.56 0 0zm-182.09 16.56l0 0 16.54 -8.29 0 0c-8.27,0 -16.54,8.29 -16.54,8.29zm256.57 -8.29c0,8.29 0,16.56 0,24.83l0 0c0,0 0,-8.27 8.3,-24.83l-8.3 0zm-24.81 8.29c0,0 0,16.54 -8.29,41.38 8.29,0 8.29,-16.57 8.29,-41.38l0 0zm-41.4 16.54l0 0c8.27,8.27 8.27,16.57 8.27,16.57 0,-16.57 0,-16.57 -8.27,-16.57zm-206.93 0c0,0 -8.27,8.27 -8.27,16.57l0 0c0,0 8.27,-8.3 8.27,-16.57l0 0zm223.49 8.27c0,0 0,8.3 0,8.3l8.28 0c0,-8.3 0,-8.3 0,-8.3 0,0 0,0 0,-8.27l-8.28 0 0 8.27zm-273.16 16.57l8.3 -16.57 8.27 0 0 0 0 0c-8.27,0 -8.27,8.3 -16.57,16.57zm306.27 -16.57l0 8.3 0 8.27 0 0 0 -16.57 0 0 0 0zm-41.4 16.57l0 8.27c0,0 0,0 0,0l8.29 0 0 0c-8.29,-8.27 -8.29,-8.27 -8.29,-8.27l0 0zm-273.14 0l0 8.27 0 8.29 0 0 0 -8.29 0 -8.27 0 0zm49.67 8.27l0 8.29 0 0c0,0 0,0 0,-8.29l0 0zm0 8.29c0,8.27 0,8.27 0,16.54l0 0c0,0 0,8.27 0,8.27l0 0 0 0c0,-8.27 8.27,-16.54 8.27,-24.81l0 0 -8.27 0zm248.31 0l-8.27 24.81 0 0 0 0c0,0 8.27,-8.27 8.27,-16.54l0 -8.27 0 0zm0 8.27c0,0 0,8.27 0,8.27l0 0 8.29 0c0,0 0,0 0,0 0,-8.27 0,-8.27 0,-8.27l-8.29 0zm-256.58 8.27l0 8.27 0 8.3 8.27 0 0 -8.3c0,0 -8.27,-8.27 -8.27,-8.27l0 0zm248.31 49.67c0,16.54 0,24.84 0,33.11l8.27 0c-8.27,-8.27 -8.27,-16.57 -8.27,-16.57 0,-16.54 0,-41.37 8.27,-66.21 -8.27,8.27 -8.27,24.84 -8.27,49.67zm-264.87 -41.4l0 8.3c0,24.83 8.27,41.37 16.56,49.64l0 0c-8.29,-16.54 -8.29,-24.81 -8.29,-33.1l0 0c-8.27,-16.54 -8.27,-24.84 -8.27,-24.84zm-8.27 0l0 8.3c0,0 0,0 0,0l0 0c0,-8.3 0,-8.3 0,-8.3zm281.41 33.13l0 16.54 0 16.57 0 0 0 -8.3c0,-8.27 0,-8.27 0,-16.54l8.29 -33.1c-8.29,8.27 -8.29,16.54 -8.29,24.83zm-297.98 -16.56l0 0c0,8.27 0,16.56 8.27,33.1 8.3,0 8.3,0 8.3,-8.27 -8.3,-16.56 -8.3,-24.83 -16.57,-24.83l0 0zm16.57 0l0 8.27c0,8.29 8.27,8.29 8.27,8.29l0 0c0,-8.29 0,-8.29 0,-16.56l-8.27 0zm24.83 8.27c0,0 0,8.29 0,8.29l0 0c0,0 8.27,0 8.27,0l-8.27 -8.29zm231.74 0c-8.27,8.29 -8.27,8.29 -8.27,8.29l8.27 0 0 -8.29 0 0zm8.29 16.56l0 8.27 0 0 0 -8.27 0 0zm-256.59 8.27l0 8.27c8.27,8.3 16.56,8.3 16.56,16.57l0 0c-8.29,-16.57 -8.29,-16.57 -8.29,-24.84l-8.27 0zm248.3 8.27c0,0 0,8.3 0,8.3 0,0 8.29,0 8.29,0l0 0c0,0 0,0 0,0 0,0 0,-8.3 0,-8.3l-8.29 0zm-223.47 8.3l0 0c0,0 8.27,8.27 8.27,8.27 0,0 0,0 0,-8.27l-8.27 0zm33.11 0c0,8.27 8.27,16.54 24.83,24.83l0 0 0 -8.29c-8.27,0 -16.56,0 -24.83,-16.54l0 0 0 0zm-16.57 16.54l0 0c8.3,8.29 16.57,16.56 24.84,16.56l8.29 16.54 8.27 -8.27 8.27 8.27 0 0 0 -8.27c-8.27,0 -16.54,-8.27 -24.83,-8.27 -8.27,-8.27 -16.54,-16.56 -24.84,-16.56l0 0zm-8.27 0c0,8.29 0,8.29 8.27,8.29 0,0 0,0 -8.27,-8.29l0 0zm-16.54 0l0 8.29c0,0 0,0 8.27,0l0 0 0 0c0,0 0,0 -8.27,-8.29zm8.27 8.29c8.27,8.27 16.54,16.54 24.84,24.81l0 0c0,0 0,-8.27 0,-8.27l0 0c0,0 -8.3,-8.27 -16.57,-8.27l0 -8.27 -8.27 0zm49.67 0l0 8.27c0,0 8.27,0 24.81,16.54l0 0c0,0 8.3,-8.27 8.3,-8.27 -16.57,-8.27 -24.84,-8.27 -24.84,-8.27l0 0 0 -8.27 -8.27 0zm24.81 8.27l0 0c16.57,8.27 16.57,16.54 16.57,16.54l8.27 0c0,0 8.29,0 8.29,0l0 0c0,0 0,0 -8.29,0 0,0 0,0 0,0 -8.27,-8.27 -16.54,-8.27 -24.84,-16.54zm41.4 16.54l0 0 8.27 0 0 8.3 0 0c0,0 0,0 8.27,8.27l0 -8.27c-8.27,0 -8.27,0 -8.27,0l0 0c16.57,8.27 24.84,8.27 24.84,8.27l0 0c8.27,0 8.27,8.27 8.27,8.27l0 0 0 -8.27c-8.27,0 -24.84,-8.27 -33.11,-16.57 0,0 0,0 0,0l-8.27 0zm-74.5 0l0 8.3c0,0 8.29,0 24.83,8.27 0,0 -8.27,-8.27 -24.83,-16.57zm49.67 16.57l0 0c16.56,16.54 41.37,24.84 57.94,33.11l16.54 8.27 8.29 0 0 -8.27 -49.67 -16.57c-8.27,-8.27 -16.54,-8.27 -33.1,-16.54 0,0 0,0 0,0l0 0zm49.67 8.27l0 8.27c0,0 16.54,8.3 41.37,24.84l8.27 0 0 0 0 0c-8.27,-8.27 -24.83,-16.54 -41.37,-24.84 0,0 0,0 -8.27,-8.27l0 0zm49.64 24.84c0,8.27 8.3,8.27 24.84,24.83l0 0c0,-8.27 -8.27,-16.56 -16.54,-24.83l-8.3 0zm-165.52 24.83c0,0 8.27,0 8.27,0l0 0c8.27,0 8.27,0 8.27,0l0 0c0,0 -8.27,0 -8.27,0 0,0 0,0 -8.27,0zm198.63 0c0,8.27 8.29,16.54 16.57,24.84 -8.28,-16.57 -8.28,-16.57 -8.28,-24.84l-8.29 0zm-256.57 16.54l0 0 0 0c8.27,0 16.54,-8.27 41.37,-8.27l0 0 -8.27 0c-16.56,0 -33.1,0 -33.1,8.27zm314.51 0l0 8.3 0 0 0 0c0,8.27 0,8.27 0,8.27l8.3 0 0 0c-8.3,-8.27 -8.3,-16.57 -8.3,-16.57l0 0zm-33.1 0c8.29,8.3 8.29,16.57 16.56,24.84 0,-8.27 -8.27,-8.27 -8.27,-24.84l-8.29 0zm-281.41 16.57l0 0c8.27,8.27 8.27,8.27 8.27,8.27l0 0 0 0 0 0 0 -8.27c8.27,0 8.27,-8.27 8.27,-8.27l0 0c-8.27,0 -8.27,8.27 -8.27,8.27 0,-8.27 0,-8.27 8.27,-8.27l0 0 -8.27 0c-8.27,0 -8.27,0 -8.27,8.27zm-33.11 0c0,0 0,0 0,0l0 0c8.27,0 8.27,0 8.27,0l0 -8.27 -8.27 8.27zm314.52 -8.27c0,8.27 0,16.54 0,24.83l0 0c0,0 0,-8.29 0,-24.83l0 0zm-306.25 8.27c0,8.27 0,8.27 0,8.27l8.27 0 0 -8.27c0,0 -8.27,0 -8.27,0zm24.84 8.27c0,8.29 0,8.29 16.54,8.29 0,0 -8.27,0 -16.54,-8.29l0 0zm41.37 8.29l0 8.27 8.27 0 0 0 0 0c0,0 0,0 -8.27,-8.27zm-16.54 8.27l0 8.27 8.27 0c0,0 0,0 0,0 0,0 -8.27,0 -8.27,-8.27zm57.94 16.54c0,0 8.27,8.3 33.11,8.3 -8.3,-8.3 -16.57,-8.3 -33.11,-8.3zm0 8.3l0 0c0,0 8.27,0 16.54,0l0 0 0 0c0,0 -8.27,0 -16.54,0 0,0 0,0 0,0 0,0 0,0 0,0z"/>
  <path id="_1" class="fil22 str5" d="M30118.07 15760.77l8.27 0c0,0 0,8.27 0,16.54l0 16.57c0,0 0,0 0,0l0 0 0 8.27c0,0 0,0 0,0 0,0 0,0 0,0 0,49.67 -8.27,82.77 -16.57,107.61l-16.54 74.48 0 0 0 0c8.27,-8.27 16.54,-16.54 16.54,-16.54 0,0 8.3,-8.27 24.84,-16.57 16.56,-8.27 16.56,-8.27 24.83,-8.27 8.27,0 24.84,8.27 24.84,24.84 0,0 0,0 0,8.27l0 0c0,8.27 8.27,16.57 8.27,24.84 0,0 0,8.27 -8.27,8.27 8.27,0 8.27,16.56 8.27,33.1l0 0c0,33.13 8.27,49.67 16.56,49.67 0,0 16.54,-8.27 24.84,-24.83l0 8.29c-8.3,24.81 -24.84,33.11 -41.4,33.11l-8.27 0 0 0 0 0c-16.57,-8.3 -24.84,-24.84 -33.11,-41.4 0,0 0,-8.27 0,-16.54l0 -8.3c0,0 -8.29,0 -8.29,0 0,0 8.29,0 8.29,0 -8.29,-41.37 -8.29,-66.21 -8.29,-74.48 -8.27,0 -16.54,16.54 -33.11,33.11 -16.54,24.83 -24.83,49.67 -24.83,82.77l0 0c0,8.27 0,16.54 0,24.84 -8.27,0 -8.27,0 -8.27,0 0,0 -8.27,0 -16.54,0l0 0 0 8.27 0 -8.27 8.27 0 0 0 -8.27 16.54 0 0c0,0 -8.3,-8.27 -8.3,-16.54l0 0 0 8.27 -8.27 0c0,-8.27 0,-8.27 0,-24.84l0 0c0,0 0,-8.27 0,-8.27l0 0 8.27 0 0 0c-8.27,0 -8.27,0 -8.27,-8.27l0 0c0,0 0,-8.29 0,-8.29l0 -8.27 0 -8.27 0 -8.3c0,0 0,-8.27 0,-8.27l0 0 0 0c0,-8.27 0,-24.83 8.27,-57.94l8.3 -33.11c-8.3,0 -8.3,0 -8.3,0 8.3,-8.27 8.3,-8.27 8.3,-8.27l0 0c0,-8.27 8.27,-33.1 16.54,-82.77l0 0c0,0 0,0 0,0 8.27,-41.38 8.27,-57.94 8.27,-66.21l0 -8.3c0,0 0,-8.27 0,-8.27l8.29 0 0 0c0,0 8.27,-8.27 8.27,-8.27 0,8.27 0,8.27 0,16.54l8.27 0c0,-8.27 0,-8.27 0,-8.27l0 0c8.3,0 8.3,-8.27 8.3,-8.27zm-24.84 41.38c0,16.56 -8.29,41.4 -8.29,82.77l0 0 0 -8.27 0 -8.27 -8.27 0c0,0 0,0 0,0 0,0 0,8.27 0,8.27 -8.27,41.38 -16.54,66.21 -16.54,66.21 0,0 0,0 0,0l-8.3 91.05c0,0 0,0 0,0 0,8.27 -8.27,16.57 -8.27,24.84l0 8.27 8.27 0c0,-33.11 8.3,-57.94 8.3,-66.21 0,0 0,0 0,0 0,-8.27 8.27,-24.84 16.54,-57.95 -8.27,-8.27 -8.27,-8.27 -8.27,-8.27 0,0 8.27,-8.27 8.27,-8.27l0 0 0 8.27 0 0c0,0 0,-8.27 0,-16.56 0,0 0,0 0,-8.27l0 0 0 0 0 0c0,0 8.27,-8.27 16.56,-41.38 0,-8.29 0,-16.56 0,-24.83 0,-8.3 0,-8.3 0,-8.3l0 -8.27 0 -16.54 8.27 -8.29 -8.27 0zm24.84 8.29l0 8.27 0 0 0 -16.56c0,0 0,0 0,8.29zm0 33.11l0 8.27 0 8.27 0 0c0,-8.27 0,-8.27 8.27,-8.27 -8.27,0 -8.27,-8.27 -8.27,-8.27l0 0zm-33.13 41.37l0 0 0 0c-8.27,8.27 -8.27,16.57 -8.27,16.57l0 0c0,-8.3 8.27,-16.57 8.27,-16.57zm0 49.67l0 8.27 0 0 0 0 8.29 -8.27 0 0 -8.29 0zm0 8.27l-8.27 33.11 8.27 0 0 -24.84 0 -8.27zm74.5 16.57c0,0 0,0 0,0 0,8.27 8.27,8.27 8.27,8.27l0 0c0,-8.27 0,-8.27 -8.27,-8.27zm-82.77 16.54l0 0c0,0 0,0 0,-8.27 0,0 0,8.27 0,8.27zm-8.27 8.27c0,16.57 0,24.84 0,24.84l0 0c0,0 0,-8.27 8.27,-24.84l0 0 -8.27 0zm91.04 16.57c0,0 0,8.27 0,16.56l0 0 0 -8.29 0 -8.27 0 0zm8.27 8.27l0 24.83 8.3 8.27 -8.3 0c8.3,24.84 8.3,41.4 16.57,41.4l0 0c0,-8.27 0,-8.27 0,-8.27 0,-8.29 0,-8.29 0,-8.29 -8.27,0 -8.27,-8.27 -8.27,-24.84l0 0c0,-16.54 0,-24.81 0,-24.81 0,0 0,0 0,-8.29l0 0c0,0 0,0 -8.3,0zm16.57 16.56l0 0 0 0c0,0 0,8.27 0,8.27l0 8.27c0,0 0,0 0,0 0,0 0,8.3 0,8.3l0 0 0 -24.84c0,0 0,0 0,0zm-24.84 0c0,0 0,8.27 0,16.54l0 0c0,0 0,0 8.27,-8.27l0 0c0,8.27 0,16.57 0,24.84l0 0c0,0 0,8.27 0,8.27l8.3 0c-8.3,0 -8.3,-8.27 -8.3,-8.27l8.3 0c-8.3,-16.57 -8.3,-24.84 -8.3,-24.84 -8.27,-8.27 -8.27,-8.27 -8.27,-8.27zm-91.04 33.11l0 0 0 0 0 -16.57c0,0 0,8.3 0,16.57zm115.88 -8.27l0 0c0,24.83 0,33.1 8.27,33.1l0 0c-8.27,-16.56 -8.27,-24.83 -8.27,-33.1l0 0zm-132.45 66.21l0 0 0 8.27 0 0 0 -8.27z"/>
  <path id="_2" class="fil22 str5" d="M30341.54 15959.43l0 0c0,0 0,0 0,0 24.83,8.27 41.4,8.27 41.4,16.54l0 0c-8.3,0 -8.3,0 -8.3,0l0 0c-16.54,0 -24.83,8.27 -24.83,8.27l-8.27 0c0,0 -8.27,0 -8.27,-8.27 -8.27,0 -8.27,0 -8.27,0 -8.3,0 -16.57,0 -24.84,8.27l0 8.3 -8.27 -8.3c0,8.3 0,8.3 -8.29,16.57 0,8.27 -8.27,16.56 -16.55,24.83 -8.29,8.27 -8.29,16.54 -8.29,24.84 0,8.27 0,8.27 0,16.54l0 0c0,8.29 8.29,16.56 16.57,24.83 16.56,-8.27 24.83,-8.27 24.83,-16.54 8.27,0 16.54,-16.56 24.84,-49.67 0,0 0,-8.27 0,-16.56l0 -8.27 0 0c16.54,0 24.81,0 33.1,-8.27l8.27 0 0 8.27c0,8.27 -8.27,24.83 -8.27,41.37l0 0 0 0c0,0 0,8.3 0,8.3 0,0 0,8.27 0,24.83 0,0 0,0 0,0 8.27,0 8.27,0 8.27,0 0,0 0,0 -8.27,0 8.27,8.27 8.27,8.27 8.27,16.54l16.57 0 24.81 -24.83 8.29 -8.27 8.27 0 0 8.27 -8.27 8.29 0 0c0,0 8.27,0 8.27,8.27l0 0c-8.27,8.27 -16.56,16.54 -33.1,24.84 -8.27,8.27 -24.84,16.54 -33.11,16.54 0,0 -16.56,-16.54 -33.1,-33.11l0 0 8.27 -8.27 0 0c-33.11,24.84 -49.67,33.11 -66.22,33.11 0,0 -8.29,0 -16.56,0 -16.54,0 -33.11,-8.27 -33.11,-16.57 0,0 0,-8.27 0,-24.81 0,-8.29 0,-24.83 0,-33.13l0 0c0,-8.27 8.27,-8.27 8.27,-8.27l0 -8.27c0,-16.56 16.57,-24.83 41.4,-41.4 24.84,-16.54 49.65,-24.81 74.49,-24.81zm-99.32 57.94l-8.27 8.27 0 0c0,0 8.27,0 8.27,0 0,0 0,0 0,-8.27 0,0 0,0 0,0 0,0 0,0 0,0l0 0zm-8.27 16.54l0 8.27 0 8.3c0,0 0,-8.3 0,-8.3l0 -8.27 0 0zm99.32 8.27c0,8.3 0,8.3 0,8.3l0 8.27 0 0 0 -16.57 0 0zm0 24.84l0 0c8.27,-8.27 8.27,-16.54 8.27,-16.54 0,0 0,8.27 -8.27,16.54zm-82.78 -8.27l0 8.27 0 0 0 0 0 -8.27 0 0zm-24.84 8.27l0 16.56c8.3,0 8.3,0 8.3,8.27l0 0 0 -8.27c0,0 0,-8.27 -8.3,-16.56l0 0zm99.35 16.56l0 0 0 0c8.27,-8.27 16.54,-8.27 16.54,-8.27l0 0 -8.27 0c0,0 -8.27,8.27 -8.27,8.27z"/>
  <path id="_3" class="fil22 str5" d="M30490.52 15934.59c0,0 0,0 8.3,8.27 -16.57,16.57 -24.84,57.95 -33.13,124.16l0 16.56c0,0 0,8.27 0,8.27 8.29,0 24.83,-24.83 49.67,-74.48 8.27,-33.13 16.56,-57.94 24.83,-66.24l0 0 8.27 0c0,0 8.27,0 16.57,0 0,0 0,0 0,0l16.54 0 0 0c-8.27,16.57 -16.54,49.68 -24.84,99.35 0,0 0,0 0,8.27l0 0 0 0 0 0c0,0 0,0 0,0 8.3,16.56 8.3,24.83 8.3,33.1l8.27 0c8.27,0 16.56,-16.54 41.38,-41.37 0,0 0,8.27 0,8.27l-8.27 8.27 0 0c8.27,0 8.27,0 16.56,0l0 0 -8.29 8.29 8.29 0c-16.56,24.81 -41.4,33.11 -57.94,33.11 0,0 0,8.27 -8.3,8.27 -24.81,-8.27 -33.1,-16.57 -33.1,-24.84 0,0 -8.27,-8.27 -8.27,-24.83 -24.84,33.1 -41.38,49.67 -57.94,49.67 0,0 -8.27,0 -8.27,0 -24.84,0 -33.11,-8.27 -33.11,-24.84l0 0c0,0 -8.29,-8.27 -8.29,-24.83 8.29,-24.84 8.29,-41.38 16.56,-49.65 0,-24.83 8.27,-41.4 16.57,-41.4l0 -8.27c0,-16.57 8.27,-24.84 8.27,-33.11l8.27 0 0 8.27 8.27 0c8.29,-8.27 16.56,-8.27 24.83,-8.27zm-8.27 8.27l-8.27 24.84 0 0c8.27,-8.27 8.27,-16.57 8.27,-24.84l0 0 0 0zm-33.1 57.95l0 0 8.27 -33.11 0 0c0,0 0,8.27 -8.27,33.11zm99.31 -24.84c-8.27,16.57 -8.27,24.84 -8.27,33.11l0 0 8.27 -33.11 0 0zm-82.77 8.27c0,8.3 0,16.57 0,16.57l0 0c0,0 8.29,0 8.29,-16.57l-8.29 0zm66.23 8.3c0,0 0,8.27 -8.29,8.27l-16.54 41.37 0 0 0 0c8.27,-8.27 16.54,-24.81 24.83,-33.1 0,0 0,0 0,0l0 -8.27c0,0 0,-8.27 0,-8.27l0 0zm16.54 8.27c-8.27,16.56 -8.27,24.83 -8.27,24.83l0 8.27c0,8.27 0,8.27 0,8.27l0 0 0 8.3 0 0 0 0c0,0 0,-8.3 8.27,-16.57l0 0c0,-8.27 0,-16.54 0,-33.1l0 0zm-107.58 0c-8.3,8.27 -8.3,8.27 -8.3,8.27l0 8.29 8.3 0c0,-8.29 0,-8.29 0,-16.56l0 0zm8.27 8.27c0,0 0,0 0,-8.27 0,0 0,8.27 0,8.27zm82.77 8.29l0 0 0 0c0,0 0,0 8.27,-8.29 -8.27,0 -8.27,0 -8.27,8.29zm-8.29 24.81c0,0 -8.27,8.3 -16.54,24.84l0 0 8.27 -8.27c0,0 0,0 0,0 8.27,0 8.27,-8.27 8.27,-16.57l0 0 0 0zm-82.75 0l0 0 0 8.3 0 0 0 16.54 0 0c0,-8.27 0,-8.27 8.27,-16.54l-8.27 0 8.27 -8.3c0,0 -8.27,0 -8.27,0zm107.58 8.3c0,8.27 0,8.27 0,8.27 0,0 0,8.27 0,16.56l0 0 0 0 0 -8.29c0,-8.27 0,-16.54 0,-16.54l0 0 0 0zm-8.27 0c0,0 -8.27,0 -8.27,8.27l8.27 16.56 0 0 0 -16.56c0,-8.27 0,-8.27 0,-8.27zm-115.88 8.27l0 16.56c0,0 8.27,8.27 8.27,16.54 0,0 0,0 0,0 0,8.27 0,8.27 8.3,16.57l0 0 8.27 0c0,0 -8.27,-8.3 -8.27,-8.3 -8.3,-16.54 -8.3,-24.81 -8.3,-33.1l0 -8.27 0 0 -8.27 0zm99.32 0c0,0 0,0 0,0l0 8.27 0 0c0,16.56 8.29,24.83 16.56,24.83 -8.27,-8.27 -8.27,-8.27 -8.27,-16.54l0 0 0 0 0 0 0 0c0,0 0,-8.29 0,-8.29 0,0 0,-8.27 0,-8.27l-8.29 0zm-99.32 16.56c0,0 0,8.27 -8.27,8.27 8.27,0 8.27,8.27 8.27,8.27l0 0 0 0 0 -16.54 0 0zm124.15 8.27l0 0c0,8.27 0,16.54 8.27,16.54l8.3 0 0 0c-8.3,0 -8.3,0 -8.3,-8.27 0,0 -8.27,0 -8.27,-8.27z"/>
  <path id="_4" class="fil22" d="M30656.08 15918.03c49.67,0 82.77,8.29 99.31,33.1 0,8.3 0,16.57 0,24.84 0,8.27 -8.27,33.11 -16.54,66.21 0,0 0,8.3 -8.29,16.57l0 16.56c8.29,8.27 8.29,16.54 8.29,16.54 8.27,0 16.54,-8.27 33.11,-24.83 8.27,-8.27 8.27,-16.54 16.54,-16.54l-8.27 16.54 0 0c0,0 8.27,0 8.27,-8.27l8.29 0 0 0 -8.29 8.27 0 0 8.29 0c-24.83,33.1 -49.67,49.67 -82.77,49.67 -24.84,-8.27 -33.11,-8.27 -33.11,-16.57 0,0 0,-8.27 -8.29,-16.54 0,-24.83 8.29,-66.21 33.13,-115.88l0 -8.27c0,-8.3 -8.3,-8.3 -33.13,-8.3 -16.54,0 -16.54,0 -16.54,8.3 0,0 0,0 0,0l0 8.27c0,8.27 0,8.27 0,8.27 -24.84,8.27 -33.11,8.27 -33.11,8.27l-8.29 0c0,0 0,0 0,-16.54 0,0 -8.27,0 -8.27,-8.27 0,-16.57 8.27,-24.84 24.83,-33.11 8.27,0 16.57,-8.29 24.84,-8.29zm-16.57 33.1l0 0c8.3,-8.27 8.3,-8.27 16.57,-8.27l0 0c-8.27,0 -16.57,8.27 -16.57,8.27zm-8.27 8.3l0 8.27c0,0 0,0 0,0l8.27 0c0,0 0,0 0,0 0,-8.27 0,-8.27 -8.27,-8.27zm82.78 16.54c-8.27,8.27 -8.27,16.57 -8.27,16.57l0 0c8.27,0 8.27,-8.3 8.27,-16.57l0 0 0 0zm16.54 0c-8.27,24.84 -16.54,41.4 -16.54,41.4 8.27,0 8.27,-8.29 16.54,-33.13l0 -8.27zm-16.54 8.27c0,8.3 0,16.57 0,24.84l0 0c0,0 0,-8.27 8.27,-24.84l-8.27 0zm24.83 16.57l0 -8.27c0,8.27 0,8.27 0,8.27 0,0 0,0 0,0 0,8.27 0,8.27 -8.29,8.27l8.29 8.29c0,0 -8.29,8.27 -8.29,8.27l0 8.27 0 0c8.29,-24.83 16.56,-41.37 16.56,-49.67l0 0c0,0 -8.27,8.3 -8.27,16.57zm-24.83 24.83c-8.27,8.27 -8.27,16.54 -8.27,16.54l8.27 0c0,0 0,-8.27 0,-16.54l0 0zm-24.84 8.27c-8.27,24.84 -8.27,33.11 -8.27,33.11 8.27,0 8.27,0 8.27,8.29 0,0 -8.27,8.27 -8.27,8.27 8.27,0 8.27,0 8.27,0l0 0 0 -16.56 0 0c0,0 0,-16.54 0,-33.11l0 0zm33.11 24.84c0,8.27 0,8.27 0,8.27l0 0c0,0 0,-8.27 8.27,-8.27l0 0 0 -16.57c0,0 -8.27,8.3 -8.27,16.57zm-8.27 16.56l0 0 0 8.27 8.27 0c0,0 0,0 0,-8.27l-8.27 0zm-8.27 16.54l0 0c0,8.27 0,8.27 0,8.27l0 0 0 0c0,-8.27 0,-8.27 0,-8.27z"/>
  <path id="_5" class="fil22 str5" d="M30838.17 15918.03c0,0 0,8.29 0,8.29l8.27 -8.29 0 0c0,0 8.29,0 8.29,8.29l0 16.54c0,8.27 -8.29,24.84 -24.83,66.22 -8.3,24.83 -8.3,33.1 -8.3,49.67 0,8.27 0,16.56 0,24.83l8.3 0c8.27,-8.27 16.54,-33.1 33.1,-74.5 16.54,-33.11 24.84,-57.95 24.84,-57.95 0,-16.54 16.54,-24.81 33.11,-24.81 0,0 0,0 8.27,0l0 8.27c0,8.27 -8.27,41.38 -16.55,91.05 -8.29,16.54 -8.29,24.84 -8.29,24.84l8.29 8.27 0 0c0,0 8.28,-8.27 16.55,-24.84 0,0 8.27,-8.27 24.83,-24.83l8.27 -41.38c0,-16.57 16.57,-33.11 49.67,-41.38l0 0 0 8.27 0 8.27c0,8.27 -8.27,33.11 -16.56,82.78 -8.27,8.27 -8.27,8.27 -8.27,16.54l0 16.57c8.27,8.27 8.27,16.56 8.27,16.56 8.29,0 24.83,-16.56 49.67,-49.67l0 0 0 0c0,8.27 -8.27,16.54 -8.27,16.54l8.27 0c0,-8.27 8.27,-8.27 8.27,-16.54l0 0 0 8.27c0,0 0,8.27 -8.27,16.57l8.27 0 8.29 -8.3 8.27 0c0,0 0,8.3 -8.27,8.3l0 0 0 0c-16.56,16.54 -33.13,33.1 -49.67,41.37 -16.56,8.27 -16.56,8.27 -24.83,16.57l0 0c0,-8.3 -8.27,-8.3 -24.84,-8.3 -8.27,-8.27 -16.54,-16.54 -16.54,-33.1l-8.29 -8.27c-16.54,33.1 -24.82,41.37 -41.38,41.37l-16.57 0c0,0 -8.27,-8.27 -16.54,-16.54 0,-8.27 0,-8.27 0,-8.27 -8.27,16.54 -24.83,24.81 -49.67,33.11l-8.27 0 0 0c0,0 -8.27,0 -8.27,0 -16.56,0 -24.83,-8.3 -24.83,-33.11l0 -16.56c0,0 0,-8.27 0,-8.27l0 0c8.27,-33.11 16.54,-57.94 24.83,-91.05 8.27,-8.3 16.54,-16.57 16.54,-33.11l0 0c0,0 8.27,0 8.27,8.27 0,0 8.3,-8.27 16.57,-16.56l0 0zm157.26 24.83l0 8.27 0 0 0 -8.27 0 0zm-99.32 33.11l0 8.27c0,0 0,-16.54 8.27,-33.11 0,0 -8.27,8.3 -8.27,24.84zm-66.21 -24.84c0,0 -8.3,8.3 -8.3,24.84 -16.54,16.57 -16.54,33.11 -16.54,33.11l0 0 0 0c0,0 8.27,-16.54 16.54,-41.38 8.3,0 8.3,-8.27 8.3,-16.57l0 0zm57.94 8.3l-8.3 33.11 0 0 0 0c0,0 8.3,-16.57 16.57,-33.11l-8.27 0zm-74.51 8.27l0 0 0 0c0,0 8.27,0 8.27,-8.27l0 0c-8.27,0 -8.27,0 -8.27,8.27zm173.83 16.54l-8.27 0 0 8.3 8.27 0 0 -8.3 0 0 0 0zm-165.56 0c0,0 0,8.3 0,8.3l0 8.27 0 0 0 -16.57 0 0zm148.99 0c0,8.3 -8.27,16.57 -16.54,33.13l8.27 0 0 0 8.27 -33.13 0 0zm8.3 24.84l8.27 0c0,0 0,-8.27 8.27,-24.84l0 0c-8.27,0 -8.27,8.3 -16.54,24.84zm-82.78 -24.84c-8.27,8.3 -8.27,8.3 -8.27,16.57 -8.3,0 -8.3,0 -8.3,-8.27 0,0 0,8.27 -8.27,24.83l0 0c8.27,0 8.27,0 8.27,-16.56 0,0 0,0 8.3,8.27 -8.3,0 -8.3,8.29 -8.3,24.83l0 0c0,0 8.3,-16.54 16.57,-49.67l0 0zm-91.05 33.13c-8.27,8.27 -8.27,16.54 -8.27,16.54 8.27,0 8.27,-8.27 8.27,-16.54l0 0 0 0zm157.26 8.27c0,0 0,8.27 0,8.27l0 -8.27 0 0c0,8.27 0,8.27 0,16.54 0,0 0,-8.27 0,-16.54l0 0 0 0zm-165.53 33.11c0,8.27 0,24.83 0,33.1l8.27 0c-8.27,-8.27 -8.27,-16.54 -8.27,-24.83l0 -8.27c0,-8.27 0,-8.27 0,-8.27 0,0 0,0 0,0 0,0 0,-8.3 8.27,-16.57l-8.27 0c0,0 0,8.27 0,24.84zm57.94 0l0 0c0,0 8.27,-8.27 16.54,-24.84l0 0c0,0 -8.27,8.27 -16.54,24.84zm24.81 -24.84c0,0 -8.27,8.27 -8.27,8.27l0 0 8.27 -8.27 0 0 0 0zm16.57 8.27c0,8.3 0,16.57 0,16.57 0,8.27 0,8.27 0,8.27l0 0 0 -24.84 0 0zm41.38 0c0,0 0,8.3 -8.27,8.3l0 0 8.27 0c0,0 0,0 0,-8.3l0 0 0 0zm24.83 8.3c0,8.27 0,16.54 8.27,16.54l0 0c-8.27,-8.27 -8.27,-16.54 -8.27,-16.54 0,0 0,0 0,0zm8.27 0c8.3,16.54 8.3,24.83 16.57,24.83l0 0c-8.27,-8.29 -8.27,-16.56 -8.27,-24.83l-8.3 0zm-190.36 8.27l0 16.56c0,8.27 8.27,16.54 8.27,16.54l0 0c0,0 0,-16.54 -8.27,-24.83l8.27 0c-8.27,0 -8.27,-8.27 -8.27,-8.27l0 0zm124.15 16.56c0,0 8.29,0 8.29,0 0,0 8.28,-8.29 24.82,-16.56 -16.54,8.27 -24.82,16.56 -33.11,16.56zm-24.84 -16.56c0,0 0,8.27 0,16.56 0,0 0,8.27 8.3,8.27l0 0c-8.3,-8.27 -8.3,-16.56 -8.3,-24.83l0 0zm82.78 16.56c0,0 0,0 -8.27,0 8.27,8.27 8.27,8.27 16.54,8.27 0,0 0,0 0,0 0,0 0,-8.27 -8.27,-8.27zm24.84 8.27c0,0 0,0 8.27,0l0 0c0,0 0,0 0,0 0,0 0,0 -8.27,0zm-182.1 0l0 0c0,8.27 0,8.27 8.27,8.27l0 0 -8.27 -8.27 0 0zm-8.27 8.27c0,8.27 0,8.27 0,8.27l8.27 0 0 0c-8.27,0 -8.27,0 -8.27,-8.27l0 0z"/>
  <path id="_6" class="fil22 str5" d="M31160.98 15959.43l0 0c0,0 0,0 0,0 24.83,8.27 33.1,8.27 33.1,16.54l0 0c0,0 0,0 0,0l-8.27 0c-16.56,0 -24.83,8.27 -24.83,8.27l0 0c-8.27,0 -8.27,0 -16.57,-8.27 0,0 0,0 0,0 -8.27,0 -16.54,0 -33.1,8.27l0 8.3 0 -8.3c0,8.3 -8.27,8.3 -16.54,16.57 0,8.27 0,16.56 -8.3,24.83 -8.27,8.27 -8.27,16.54 -8.27,24.84 0,8.27 0,8.27 0,16.54l0 0c0,8.29 0,16.56 8.27,24.83 24.84,-8.27 33.13,-8.27 33.13,-16.54 8.27,0 8.27,-16.56 24.81,-49.67 0,0 -8.27,-8.27 -8.27,-16.56l0 -8.27 8.27 0c16.57,0 24.84,0 24.84,-8.27l16.56 0 0 8.27c-8.27,8.27 -8.27,24.83 -8.27,41.37l0 0 0 0c0,0 0,8.3 0,8.3 0,0 0,8.27 0,24.83 0,0 0,0 0,0 0,0 0,0 0,0 0,0 0,0 0,0 8.27,8.27 8.27,8.27 8.27,16.54l16.54 0 24.84 -24.83 8.27 -8.27 0 0 0 8.27 -8.27 8.29 0 0c8.27,0 8.27,0 8.27,8.27l0 0c0,8.27 -8.27,16.54 -24.81,24.84 -16.57,8.27 -24.84,16.54 -33.11,16.54 -8.29,0 -16.56,-16.54 -33.13,-33.11l0 0 0 -8.27 0 0c-24.81,24.84 -49.64,33.11 -57.94,33.11 -8.27,0 -8.27,0 -16.54,0 -24.83,0 -33.1,-8.27 -33.1,-16.57 0,0 0,-8.27 -8.3,-24.81 0,-8.29 8.3,-24.83 8.3,-33.13l0 0c0,-8.27 0,-8.27 8.27,-8.27l0 -8.27c0,-16.56 8.27,-24.83 41.37,-41.4 24.84,-16.54 49.67,-24.81 74.51,-24.81zm-99.32 57.94l-8.29 8.27 0 0c0,0 0,0 0,0 0,0 8.29,0 8.29,-8.27 0,0 0,0 0,0 0,0 0,0 0,0l0 0zm-8.29 16.54l0 8.27 0 8.3c0,0 0,-8.3 0,-8.3l0 -8.27 0 0zm99.34 8.27c0,8.3 0,8.3 -8.3,8.3l0 8.27 0 0 8.3 -16.57 0 0zm0 24.84l0 0c8.27,-8.27 8.27,-16.54 8.27,-16.54 0,0 -8.27,8.27 -8.27,16.54zm-91.05 -8.27l0 8.27 8.27 0 0 0 -8.27 -8.27 0 0zm-16.56 8.27l0 16.56c0,0 0,0 0,8.27l8.27 0 0 -8.27c0,0 -8.27,-8.27 -8.27,-16.56l0 0zm99.31 16.56l0 0 0 0c8.3,-8.27 8.3,-8.27 8.3,-8.27l0 0 0 0c-8.3,0 -8.3,8.27 -8.3,8.27z"/>
  <path class="fil3 str6" d="M39120.5 4696.64l3376.84 0c387.7,0 702.12,314.42 702.12,702.11l0 5817.55c0,387.7 -314.42,702.11 -702.12,702.11l-3376.84 0c-387.7,0 -702.11,-314.41 -702.11,-702.11l0 -5817.55c0,-387.69 314.41,-702.11 702.11,-702.11z"/>
  <ellipse class="fil10 str0" cx="40825.65" cy="9359.27" rx="2240.09" ry="2174.64"/>
  <rect class="fil12 str0" x="40390.99" y="10347" width="835.84" height="367.79"/>
  <path class="fil3 str7" d="M39478.72 5164.73l2635.34 0c105.51,0 191.05,104.27 191.05,232.84l0 804.82c0,128.57 -85.54,232.84 -191.05,232.84l-2635.34 0c-105.5,0 -191.05,-104.27 -191.05,-232.84l0 -804.82c0,-128.57 85.55,-232.84 191.05,-232.84z"/>
  <ellipse class="fil23 str0" cx="40833.99" cy="5774.89" rx="401.22" ry="384.48"/>
  <path class="fil2 str0" d="M38840.49 5397.57l0 0c108.47,0 196.42,87.96 196.42,196.43l0 1773.2c0,108.47 -87.95,196.42 -196.42,196.42l0 0c-108.47,0 -196.42,-87.95 -196.42,-196.42l0 -1773.2c0,-108.47 87.95,-196.43 196.42,-196.43z"/>
  <path class="fil2 str8" d="M42769.01 5397.57l0 0c108.47,0 196.42,87.96 196.42,196.43l0 1773.2c0,108.47 -87.95,196.42 -196.42,196.42l0 0c-108.47,0 -196.42,-87.95 -196.42,-196.42l0 -1773.2c0,-108.47 87.95,-196.43 196.42,-196.43z"/>
  <rect class="fil3 str0" x="40750.42" y="11918.38" width="364.75" height="5240.82"/>
  <rect class="fil10 str9" transform="matrix(0.987228 -0 -1.20661 0.987228 40800.5 17159.2)" width="338.66" height="3386.66"/>
  <rect class="fil10 str10" transform="matrix(-0.963171 -0 1.17721 0.987228 41135 17159.2)" width="338.66" height="3386.66"/>
  <rect class="fil2 str11" transform="matrix(0.472165 0.226429 -1.63113 8.41888 40833.9 17176.9)" width="508" height="304.8"/>
  <rect class="fil8 str0" x="40482.95" y="12929.79" width="936.16" height="1203.63"/>
  <path class="fil2" d="M27543.96 16247.12c91.04,0 165.52,57.94 165.52,132.45 0,74.48 -74.48,140.72 -165.52,140.72 -91.05,0 -157.29,-66.24 -157.29,-140.72 0,-74.51 66.24,-132.45 157.29,-132.45z"/>
  <path class="fil2" d="M27543.96 17493.8c91.04,0 165.52,57.94 165.52,132.44 0,74.48 -74.48,140.72 -165.52,140.72 -91.05,0 -157.29,-66.24 -157.29,-140.72 0,-74.5 66.24,-132.44 157.29,-132.44z"/>
  <path class="fil3 str6" d="M2643.39 4819.29l3376.84 0c387.72,0 702.14,314.42 702.14,702.12l-0.03 5817.55c0.03,387.69 -314.39,702.11 -702.09,702.11l-3376.86 0c-387.67,0 -702.09,-314.42 -702.09,-702.11l-0.03 -5817.55c0.03,-387.7 314.45,-702.12 702.14,-702.12z"/>
  <ellipse class="fil10 str0" cx="4348.53" cy="9481.93" rx="2240.09" ry="2174.64"/>
  <rect class="fil12 str0" x="3913.9" y="10469.66" width="835.84" height="367.79"/>
  <path class="fil3 str7" d="M3001.61 5287.39l2635.34 0c105.53,0 191.08,104.27 191.08,232.84l-0.03 804.82c0.03,128.56 -85.52,232.84 -191.02,232.84l-2635.37 0c-105.48,0 -191.03,-104.28 -191.03,-232.84l-0.02 -804.82c0.02,-128.57 85.57,-232.84 191.07,-232.84z"/>
  <ellipse class="fil23 str0" cx="4356.88" cy="5897.54" rx="401.22" ry="384.48"/>
  <path class="fil2 str0" d="M2363.38 5520.23l0 0c108.49,0 196.45,87.95 196.45,196.42l-0.03 1773.2c0.03,108.47 -87.93,196.43 -196.4,196.43l-0.02 0c-108.45,0 -196.4,-87.96 -196.4,-196.43l-0.03 -1773.2c0.03,-108.47 87.98,-196.42 196.45,-196.42z"/>
  <path class="fil2 str8" d="M6291.9 5520.23l0 0c108.49,0 196.45,87.95 196.45,196.42l-0.03 1773.2c0.03,108.47 -87.93,196.43 -196.4,196.43l-0.02 0c-108.45,0 -196.4,-87.96 -196.4,-196.43l-0.03 -1773.2c0.03,-108.47 87.98,-196.42 196.45,-196.42z"/>
  <rect class="fil3 str0" x="4273.3" y="12041.03" width="364.75" height="5240.82"/>
  <rect class="fil10 str9" transform="matrix(0.987228 -0 -1.20661 0.987228 4323.45 17281.9)" width="338.66" height="3386.66"/>
  <rect class="fil10 str10" transform="matrix(-0.963171 -0 1.17721 0.987228 4657.8 17281.9)" width="338.66" height="3386.66"/>
  <rect class="fil2 str11" transform="matrix(0.472165 0.226429 -1.63113 8.41888 4356.71 17299.6)" width="508" height="304.8"/>
  <rect class="fil8 str0" x="4005.86" y="13052.45" width="936.16" height="1203.63"/>
  <polygon class="fil24" points="24565.63,3039.52 24361.62,4059.61 23979.08,3989.47 24157.62,4340.13 23462.67,4505.91 24265.99,4646.16 24042.84,5309.2 24565.63,4856.55 25388.09,5647.11 25031.05,4601.52 25617.6,4059.61 24903.56,4059.61 "/>
  <ellipse class="fil25" cx="24554.86" cy="6758.78" rx="292.18" ry="259.74"/>
  <path class="fil5 str0" d="M29384.42 21032.8c-596.27,5.97 -1191.68,11.93 -1786.97,17.38 -593.71,5.45 -1189.44,10.89 -1785.05,16.51 -597.61,5.65 -1196.56,11.22 -1794.64,16.57 -595.8,5.32 -1193.64,10.9 -1791.31,16.2 43.76,-239.47 86.56,-467.78 126.78,-685.33 40.47,-219 79.56,-427.08 116.47,-624.81 33.47,-179.32 64.86,-351.4 95.88,-515.9 31.19,-165.35 61.5,-324.03 89.82,-475.55 453.12,-3.24 904.79,-6.63 1356.49,-10.01 452.51,-3.36 905.81,-6.9 1357.63,-10.53 450.39,-3.63 901.6,-6.92 1351.36,-10.33 451.26,-3.41 901.83,-6.85 1353.92,-10.63 86.04,150.31 176.08,307.03 269.21,470.5 92.84,162.97 191.54,333.04 294.17,510.79 112.57,195.03 230.91,401.19 354.81,617.45 123.15,214.95 253.95,440.65 391.43,677.69z"/>
  <path class="fil26 str0" d="M28378.81 19724.21c-33.55,0.42 -65.62,0.84 -98.43,0.79 -88.3,-163.98 -172.18,-322.22 -252.31,-473.3 -77.35,-145.84 -153.06,-285.95 -224.2,-421.04 28.78,0 59.04,-0.25 87.83,-0.47 73.18,135.15 149.77,275.25 228.84,420.66 82.44,151.53 168.75,309.6 258.27,473.36z"/>
  <path class="fil6 str0" d="M28224.06 19193.64c-111.64,0.86 -223.28,1.72 -334.91,2.82 -50.63,-96.79 -98.44,-190.26 -146.39,-282.07 107.64,-0.69 215.27,-1.37 322.91,-2.28 50.5,91.61 103.81,184.89 158.39,281.53z"/>
  <path class="fil26 str0" d="M27804.14 19729.42c-32.08,0.41 -64.15,0.61 -97.7,0.54 -77.11,-164.26 -149.53,-322.54 -219.22,-473.74 -67.17,-145.65 -132.28,-286.15 -194.02,-421.61 28.76,-0.22 58.28,-0.47 87.07,-0.69 64.54,135.25 130.02,275.37 199.42,421.2 72.22,151.78 146.83,309.53 224.45,474.3z"/>
  <path class="fil6 str0" d="M27884.95 19580.72c-117.62,1.25 -235.27,2.29 -352.16,3.07 -47.83,-106.73 -94.36,-210.09 -139.54,-310.86 112.99,-1.08 225.24,-1.91 338.25,-3.02 49.84,101.31 101.01,204.5 153.45,310.81z"/>
  <path class="fil26 str0" d="M27193.86 19734.32c-32.81,0.42 -64.91,0.62 -97.7,0.79 -64.59,-164.55 -124.84,-322.76 -183.47,-474.64 -56.29,-145.85 -110.19,-286.35 -162.58,-421.44 29.52,-0.25 59.02,-0.72 88.54,-0.69 52.99,135.12 108.6,275.98 166.49,421.49 60.32,151.56 124.37,309.92 188.72,474.49z"/>
  <path class="fil6 str0" d="M27162.17 19288.32c-113.69,1.1 -225.89,1.94 -338.83,3.02 -37.99,-98.51 -73.84,-194.91 -108.27,-289.14 109.69,-0.44 217.92,-1.35 326.88,-2.24 39.19,93.82 79.02,189.8 120.22,288.36z"/>
  <path class="fil26 str0" d="M26584.36 19739.45c-33.52,0.17 -66.33,0.59 -99.14,0.79 -52.01,-164.62 -100.62,-323.03 -147.72,-475.06 -45.18,-145.85 -88.81,-286.54 -130.41,-422.23 29.5,-0.22 58.29,-0.44 87.79,-0.69 43.66,135.47 88.98,276.04 135.78,422.06 48.79,152.18 100.45,310.27 153.7,475.13z"/>
  <path class="fil6 str0" d="M26529.98 19132.66c-110.98,0.88 -221.21,1.76 -332.19,2.87 -28.51,-94.88 -55.58,-186.88 -81.96,-277.24 106.95,-0.93 213.89,-1.62 320.13,-2.55 30.41,89.94 61.5,182.48 94.02,276.92z"/>
  <path class="fil26 str0" d="M26008.51 19743.92c-33.52,0.42 -66.31,0.83 -98.38,1.25 -39.42,-165.13 -77.82,-323.32 -114,-475.5 -34.8,-146.36 -67.34,-287.2 -100.29,-423.01 30.25,0.24 59.02,-0.25 88.54,-0.47 32.79,135.59 68.1,276.31 104.91,422.59 38.16,151.84 77.82,310.45 119.22,475.14z"/>
  <path class="fil6 str0" d="M26008.83 19176.44c-110.9,0.88 -222.54,1.96 -334.15,2.6 -21.84,-95.49 -43.68,-189.06 -63.29,-280.06 108.37,-0.69 215.25,-1.6 322.15,-2.53 24.39,91.05 48.74,184.2 75.29,279.99z"/>
  <path class="fil26 str0" d="M25397.05 19749.49c-32.79,0.42 -65.57,0.59 -99.09,0.54 -26.93,-164.94 -51.84,-323.57 -76.87,-475.92 -24.02,-146.12 -47.46,-287.15 -68.88,-423.06 29.52,-0.22 59.02,-0.69 88.52,-0.69 22.72,135.69 47.83,276.58 73.5,423.11 26.67,152.2 54.67,310.59 82.82,476.02z"/>
  <path class="fil6 str0" d="M25440.41 19181c-110.87,1.08 -222.51,1.94 -334.85,2.8 -14.48,-95.86 -28.91,-189.36 -41.85,-280.72 107.61,-0.69 215.23,-1.6 322.1,-2.51 17.7,91.2 36.13,184.5 54.6,280.43z"/>
  <path class="fil26 str0" d="M24784.98 19754.57c-33.52,0.42 -67.05,0.59 -99.83,1.01 -14.41,-165.46 -28.86,-324.29 -41.94,-476.56 -12.64,-146.83 -24.69,-288.04 -35.29,-423.58 29.49,-0.24 58.26,-0.24 88.49,-0.71 12.66,135.57 26.09,277.04 40.66,423.43 15.15,152.3 30.78,311.18 47.91,476.41z"/>
  <path class="fil6 str0" d="M24898.38 19417.89c-114.9,1.06 -230.54,2.09 -345.46,2.92 -8.05,-101.64 -15.29,-201.18 -21.72,-298.34 110.98,-0.88 221.95,-1.52 332.19,-2.4 11.11,96.52 22.28,195.88 34.99,297.82z"/>
  <path class="fil26 str0" d="M23486.35 19756.36c-33.5,0.42 -66.28,0.59 -99.09,0.54 11.9,-165.06 23.82,-323.74 34.75,-476.14 10.5,-146.73 22.11,-287.89 31.48,-423.65 29.5,-0.22 59.73,-0.46 87.76,-0.69 -8.05,135.76 -16.93,276.43 -26.16,423.24 -9.6,152.62 -18.82,311.39 -28.74,476.7z"/>
  <path class="fil27 str0" d="M23646.04 19607.23c-118.24,1 -235.77,1.76 -354.71,3.02 9.66,-106.81 18.82,-210.81 27.41,-312.43 113.62,-0.86 227.22,-1.92 340.87,-2.75 -4.69,101.47 -9.2,205.28 -13.57,312.16z"/>
  <path class="fil26 str0" d="M23015.58 19769.39c-32.76,0.42 -66.26,0.62 -99.75,0.79 22.45,-165.85 43.38,-324.65 63.8,-477.86 19.64,-147.32 38.04,-288.6 56.18,-424.95 29.49,0 58.99,-0.22 87.73,-0.44 -16.1,135.88 -33.47,277.7 -50.8,424.78 -18.01,152.81 -37.38,311.84 -57.16,477.68z"/>
  <path class="fil27 str0" d="M23183.76 19619.47c-117.5,1.01 -235.71,2.24 -353.95,3.02 15.61,-106.97 29.94,-211.32 45.2,-313.36 113.6,-0.61 227.2,-1.67 341.54,-2.5 -11.36,101.62 -21.82,205.82 -32.79,312.84z"/>
  <path class="fil24 str0" d="M28463.82 20045.53c78.06,-0.67 124.72,-29.35 106.46,-63.74 -18.29,-33.91 -95.61,-60.83 -172.72,-60.05 -77.11,0.57 -124.79,28.42 -107.83,62.31 16.95,34.36 96.05,62.14 174.09,61.48z"/>
  <path class="fil24 str0" d="M27829.19 20050.51c78.41,-0.66 128.08,-29.06 112.43,-63.17 -15.66,-34.33 -91.76,-60.98 -169.58,-60.44 -75.64,0.81 -125.99,28.83 -111.64,62.7 15.05,34.33 90.39,61.57 168.79,60.91z"/>
  <path class="fil24 str0" d="M27307.19 20055.29c78.4,-0.78 130.04,-29.27 115.58,-63.58 -13.69,-34.09 -87.8,-60.94 -164.15,-60.4 -78.53,0.79 -130.14,28.59 -117.01,62.63 12.37,34.53 87.17,62.11 165.58,61.35z"/>
  <path class="fil24 str0" d="M26634.28 20060.86c78.38,-0.63 132.66,-29.2 121.55,-63.24 -10.38,-34.5 -82.53,-61.1 -160.33,-60.29 -77.06,0.54 -131.32,28.29 -121.52,62.53 10.5,34.25 81.91,61.67 160.3,61z"/>
  <path class="fil24 str0" d="M26036.24 20066.14c78.38,-0.64 135.32,-29.65 126.12,-63.39 -9.21,-34.48 -78.66,-61.03 -155.71,-60.49 -77.77,0.81 -133.97,28.27 -126.1,62.7 7.88,34.21 77.33,61.84 155.69,61.18z"/>
  <path class="fil24 str0" d="M25400.58 20071.32c78.36,-0.64 137.26,-28.91 130.66,-63.56 -5.87,-34.19 -74.09,-60.96 -151.12,-60.15 -77.77,0.78 -136.65,28.69 -132.11,62.6 5.28,34.41 74.24,61.77 152.57,61.11z"/>
  <path class="fil24 str0" d="M24725.91 20077.11c78.7,-0.74 139.83,-29.11 136.54,-63.71 -3.97,-33.91 -69.52,-60.88 -147.29,-60.34 -77.01,0.78 -138.53,28.91 -135.86,62.55 2.7,34.82 67.91,62.26 146.61,61.5z"/>
  <path class="fil28 str0" d="M28579.6 20265.39c80.01,-0.74 129.48,-30.95 109.92,-67.02 -20.32,-35.83 -100.25,-63.98 -178.61,-63.44 -79.04,1 -128.1,30.23 -109.82,65.82 18.24,36.27 98.49,65.37 178.51,64.64z"/>
  <path class="fil28 str0" d="M27930.15 20270.81c80.35,-0.61 131.37,-30.68 114.41,-66.92 -17,-36.03 -95.02,-63.66 -174.06,-63.15 -79.76,0.79 -130.02,29.75 -114.32,65.75 14.93,36 93.63,64.93 173.97,64.32z"/>
  <path class="fil28 str0" d="M27394.48 20275.35c80,-0.74 132.59,-30.65 118.26,-66.63 -15.09,-35.97 -90.38,-64.29 -169.41,-63.78 -79.78,1.01 -132.69,30.43 -120.39,66.14 14.48,36.2 91.56,65.01 171.54,64.27z"/>
  <path class="fil28 str0" d="M26702.6 20281.56c81.03,-0.83 137.33,-30.58 124.84,-66.97 -11.78,-35.93 -85.16,-64.2 -164.89,-63.46 -79.02,0.51 -134.58,30.38 -124.11,65.81 11.2,36.62 83.1,65.48 164.16,64.62z"/>
  <path class="fil28 str0" d="M26090.43 20286.81c79.95,-0.61 137.79,-30.31 128.64,-66.65 -9.91,-36.13 -80.62,-64.62 -160.35,-63.86 -79,0.98 -137.21,30.09 -130.07,66.19 9.33,36.34 81.82,64.96 161.78,64.32z"/>
  <path class="fil28 str0" d="M25437.15 20292.65c81.01,-0.71 140.4,-30.72 133.8,-67.29 -5.87,-35.83 -76.08,-64.03 -155.81,-63.54 -78.97,1.01 -139.08,30.53 -133.8,66.36 4.57,36.03 74.8,65.21 155.81,64.47z"/>
  <path class="fil28 str0" d="M24744.98 20298.84c80.61,-0.84 143.68,-30.93 139.63,-67.2 -3.31,-36.24 -71.61,-64.42 -151.29,-64.15 -78.97,0.99 -140.96,30.95 -138.24,66.71 2.01,36.24 69.26,65.47 149.9,64.64z"/>
  <path class="fil29 str0" d="M28713.52 20515.24c82.63,-0.81 132.06,-32.79 111.93,-70.53 -21.57,-38.21 -104.07,-67.59 -185.77,-67.12 -80.96,0.49 -131.39,31.63 -111.1,69.82 19.54,37.96 102.31,68.64 184.94,67.83z"/>
  <path class="fil29 str0" d="M28044.61 20521.05c82.61,-0.81 135.35,-32.27 117.06,-70.67 -19.02,-37.92 -99.61,-67.74 -179.83,-67.03 -81.7,0.96 -134,32.06 -117.7,69.73 17.69,38.13 97.87,68.78 180.47,67.97z"/>
  <path class="fil29 str0" d="M27492.71 20526.23c82.58,-0.81 137.24,-32.91 121.58,-70.8 -16.42,-38.14 -94.31,-67.9 -175.98,-66.95 -80.96,0.72 -136.65,31.51 -121.53,69.41 14.38,38.55 93.33,69.15 175.93,68.34z"/>
  <path class="fil29 str0" d="M26782.94 20532.37c83.69,-0.94 139.81,-32.42 126.66,-70.73 -12.44,-38.09 -89.16,-68.05 -170.09,-67.34 -82.36,0.74 -139.2,31.73 -128.06,70.02 11.15,38.28 87.86,68.95 171.49,68.05z"/>
  <path class="fil29 str0" d="M26151.24 20538.21c82.92,-0.69 141.65,-32.84 131.07,-70.85 -9.15,-38.26 -83.24,-68.2 -164.86,-67.46 -81.63,0.71 -141.09,31.68 -131.79,69.89 7.88,38.7 82.66,69.1 165.58,68.42z"/>
  <path class="fil29 str0" d="M25479.29 20544.17c82.9,-0.81 144.22,-32.79 137.62,-71 -7.34,-38.18 -78.8,-68.54 -160.4,-67.85 -81.62,0.96 -143.66,32.59 -138.36,70.28 5.33,38.41 78.24,69.38 161.14,68.57z"/>
  <path class="fil29 str0" d="M24766.4 20550.45c83.24,-0.9 148.2,-32.49 144.1,-71.12 -4.07,-38.13 -74.38,-68.46 -155.95,-67.29 -81.6,0.71 -146.22,31.83 -143.44,69.94 3.53,38.36 72.05,69.41 155.29,68.47z"/>
  <path class="fil26 str0" d="M28907.2 20878.76c86.16,-0.64 137.28,-35.56 114.58,-76.17 -22.72,-41.36 -108.99,-73.41 -193.9,-72.74 -84.2,0.9 -135.93,34.13 -115.22,75.44 20.72,41.3 108.35,74.08 194.54,73.47z"/>
  <path class="fil26 str0" d="M28210.66 20884.97c86.16,-0.61 139.81,-35.02 121.06,-76.52 -20.23,-40.81 -103.91,-73.3 -188.08,-72.39 -85.63,0.66 -139.94,34.33 -121.68,75.31 18.21,41.5 102.56,74.24 188.7,73.6z"/>
  <path class="fil26 str0" d="M27636.33 20890.44c86.5,-0.86 142.41,-35.43 124.76,-76.2 -16.95,-41.2 -98.72,-73.67 -183.59,-72.76 -84.15,0.42 -141.08,34.04 -125.4,75 15.68,41.89 97.75,74.82 184.23,73.96z"/>
  <path class="fil26 str0" d="M26897.06 20897.41c86.14,-0.86 145.63,-35.61 131.15,-76.79 -13.06,-40.91 -92.25,-73.55 -177.09,-72.88 -86.31,1.13 -144.33,34.45 -133.26,75.58 12.49,41.6 93.09,74.95 179.2,74.09z"/>
  <path class="fil26 str0" d="M26239.05 20903.47c87.19,-0.86 148.15,-35.31 136.91,-77.35 -9.82,-40.64 -87.86,-73.23 -172.69,-72.35 -85.55,0.89 -146.86,34.41 -137.6,75.47 9.3,41.79 86.21,75.09 173.38,74.23z"/>
  <path class="fil26 str0" d="M25538.9 20910.07c86.43,-0.73 151.36,-35.48 143.32,-77.25 -7.34,-41.28 -82.09,-74.04 -167.62,-72.94 -84.81,0.67 -148.64,35.07 -142.61,75.86 6.09,41.47 80.47,75.07 166.91,74.33z"/>
  <path class="fil26 str0" d="M24798.75 20916.97c86.4,-0.74 152.39,-35.44 148.96,-77.11 -4.15,-41.45 -77.06,-74.18 -161.87,-73.55 -84.79,0.89 -152.6,34.78 -148.99,76.18 2.21,41.65 75.49,75.22 161.9,74.48z"/>
  <path class="fil30 str0" d="M22599.84 20613.62c516.85,-4.44 1033.04,-9.13 1549.36,-13.81 -3.44,-202.2 -6.46,-394.96 -9.11,-580.22 -483.4,4.36 -966.02,8.49 -1449.33,12.36 -14.57,92.82 -30.43,188.21 -45.35,285.02 -14.92,96.55 -29.62,195.91 -45.57,296.65z"/>
  <polygon class="fil5 str0" points="22226.45,21099.46 29384.42,21032.8 29358.58,21822.75 22226.45,21822.75 "/>
  <path class="fil31" d="M24356.4 21520.99l68.32 -6.77c4.12,22.85 12.34,39.56 24.88,50.31 12.52,10.72 29.38,16.05 50.63,16.05 22.46,0 39.39,-4.76 50.78,-14.28 11.41,-9.53 17.13,-20.67 17.13,-33.43 0,-8.24 -2.41,-15.19 -7.19,-21.01 -4.77,-5.71 -13.16,-10.74 -25.11,-14.94 -8.15,-2.9 -26.73,-7.9 -55.81,-15.17 -37.37,-9.37 -63.63,-20.83 -78.72,-34.48 -21.26,-19.14 -31.83,-42.48 -31.83,-70.01 0,-17.7 5,-34.33 14.94,-49.75 10.02,-15.43 24.4,-27.14 43.19,-35.21 18.83,-8.08 41.43,-12.13 68.11,-12.13 43.33,0 76.05,9.62 97.94,28.91 21.96,19.32 33.42,44.99 34.55,77.21l-70.23 2.43c-3,-17.92 -9.38,-30.78 -19.15,-38.6 -9.76,-7.83 -24.46,-11.78 -44.02,-11.78 -20.18,0 -36,4.19 -47.39,12.59 -7.36,5.42 -11.07,12.59 -11.07,21.64 0,8.25 3.46,15.27 10.41,21.08 8.81,7.51 30.21,15.27 64.2,23.34 34.01,7.98 59.11,16.39 75.34,24.96 16.32,8.64 29.08,20.34 38.28,35.29 9.2,14.92 13.82,33.35 13.82,55.21 0,19.88 -5.5,38.53 -16.57,55.88 -11.07,17.38 -26.65,30.29 -46.82,38.7 -20.2,8.47 -45.38,12.67 -75.52,12.67 -43.85,0 -77.52,-10.09 -101.03,-30.36 -23.49,-20.2 -37.45,-49.67 -42.06,-88.35zm654.11 112.43l-75.66 0 -29.97 -79 -139.14 0 -28.81 79 -74.31 0 134.7 -346.94 74.21 0 138.98 346.94zm-128.4 -137.63l-48.22 -128.4 -46.83 128.4 95.05 0zm165.8 -209.31l70.23 0 0 188.01c0,29.87 0.89,49.18 2.61,57.96 2.97,14.21 10.01,25.7 21.15,34.24 11.22,8.66 26.48,12.93 45.87,12.93 19.63,0 34.48,-4.05 44.49,-12.19 10.01,-8.15 16,-18.09 18.01,-29.97 2.01,-11.85 3.07,-31.48 3.07,-58.95l0 -192.03 70.26 0 0 182.44c0,41.67 -1.86,71.14 -5.67,88.35 -3.78,17.17 -10.72,31.73 -20.91,43.58 -10.08,11.88 -23.65,21.25 -40.61,28.27 -17.03,7.02 -39.17,10.58 -66.56,10.58 -33.03,0 -58.04,-3.81 -75.09,-11.46 -17.03,-7.68 -30.53,-17.62 -40.45,-29.89 -9.93,-12.27 -16.39,-25.03 -19.55,-38.51 -4.59,-19.88 -6.85,-49.25 -6.85,-88.1l0 -185.26zm349.9 346.94l0 -346.94 68 0 142.76 232.5 0 -232.5 64.93 0 0 346.94 -70.18 0 -140.57 -228.06 0 228.06 -64.94 0zm349.9 -346.94l127.76 0c28.82,0 50.78,2.19 65.9,6.63 20.27,5.99 37.72,16.64 52.15,31.97 14.55,15.27 25.52,33.99 33.1,56.2 7.54,22.14 11.31,49.5 11.31,81.97 0,28.59 -3.55,53.15 -10.65,73.82 -8.63,25.28 -21,45.69 -37.08,61.28 -12.1,11.87 -28.49,21.08 -49.08,27.7 -15.44,4.94 -36.02,7.37 -61.87,7.37l-131.54 0 0 -346.94zm70.27 58.63l0 229.65 52.07 0c19.46,0 33.52,-1.13 42.16,-3.29 11.39,-2.84 20.76,-7.68 28.17,-14.45 7.51,-6.8 13.58,-17.94 18.26,-33.45 4.76,-15.48 7.12,-36.74 7.12,-63.54 0,-26.82 -2.36,-47.33 -7.12,-61.69 -4.68,-14.38 -11.31,-25.52 -19.78,-33.6 -8.49,-8 -19.24,-13.49 -32.29,-16.32 -9.7,-2.18 -28.84,-3.31 -57.28,-3.31l-31.31 0zm279.64 -58.63l70.26 0 0 188.01c0,29.87 0.88,49.18 2.58,57.96 2.99,14.21 10.01,25.7 21.15,34.24 11.24,8.66 26.5,12.93 45.87,12.93 19.63,0 34.48,-4.05 44.49,-12.19 10.04,-8.15 16,-18.09 18.01,-29.97 2.04,-11.85 3.07,-31.48 3.07,-58.95l0 -192.03 70.26 0 0 182.44c0,41.67 -1.84,71.14 -5.64,88.35 -3.81,17.17 -10.75,31.73 -20.94,43.58 -10.08,11.88 -23.66,21.25 -40.61,28.27 -17.03,7.02 -39.15,10.58 -66.53,10.58 -33.04,0 -58.07,-3.81 -75.1,-11.46 -17.05,-7.68 -30.53,-17.62 -40.47,-29.89 -9.91,-12.27 -16.39,-25.03 -19.53,-38.51 -4.61,-19.88 -6.87,-49.25 -6.87,-88.1l0 -185.26zm511.26 219.5l0 -58.63 150.68 0 0 138.41c-14.63,14.28 -35.86,26.8 -63.71,37.72 -27.78,10.82 -55.98,16.22 -84.54,16.22 -36.27,0 -67.83,-7.59 -94.8,-22.85 -26.9,-15.26 -47.17,-37.15 -60.74,-65.5 -13.57,-28.34 -20.35,-59.27 -20.35,-92.62 0,-36.17 7.59,-68.32 22.68,-96.49 15.19,-28.1 37.3,-49.74 66.45,-64.76 22.31,-11.56 49.92,-17.31 83.03,-17.31 43.04,0 76.71,9.06 100.93,27.15 24.15,18.18 39.73,43.12 46.68,75.09l-69.77 13.08c-4.83,-17.03 -14.04,-30.5 -27.54,-40.44 -13.39,-9.87 -30.18,-14.77 -50.38,-14.77 -30.53,0 -54.82,9.66 -72.83,29.15 -18.02,19.46 -27.05,48.27 -27.05,86.48 0,41.25 9.11,72.2 27.36,92.79 18.34,20.59 42.24,30.92 71.86,30.92 14.63,0 29.33,-2.92 44.03,-8.64 14.77,-5.74 27.36,-12.76 37.96,-21l0 -44 -79.95 0zm528.04 127.44l-75.68 0 -29.94 -79 -139.15 0 -28.83 79 -74.29 0 134.71 -346.94 74.21 0 138.97 346.94zm-128.4 -137.63l-48.22 -128.4 -46.82 128.4 95.04 0zm387.7 9.69l67.83 20.84c-10.43,38.21 -27.78,66.55 -52,85.11 -24.22,18.5 -54.92,27.78 -92.15,27.78 -46.11,0 -83.98,-15.73 -113.7,-47.22 -29.62,-31.51 -44.49,-74.55 -44.49,-129.23 0,-57.72 14.94,-102.63 44.74,-134.61 29.79,-31.97 69.03,-47.98 117.67,-47.98 42.45,0 76.93,12.62 103.44,37.72 15.83,14.88 27.61,36.18 35.53,64.06l-69.3 16.46c-4.12,-17.94 -12.69,-32.15 -25.67,-42.55 -13.08,-10.43 -28.91,-15.58 -47.49,-15.58 -25.76,0 -46.67,9.2 -62.67,27.7 -16.05,18.41 -24.05,48.27 -24.05,89.63 0,43.75 7.9,75.02 23.65,93.59 15.83,18.65 36.35,27.93 61.63,27.93 18.65,0 34.72,-5.89 48.12,-17.77 13.4,-11.85 23.09,-30.43 28.91,-55.88zm128.01 127.94l0 -346.94 70.23 0 0 136.65 136.64 0 0 -136.65 70.26 0 0 346.94 -70.26 0 0 -151.67 -136.64 0 0 151.67 -70.23 0zm341.65 -92.57l0 -66.36 130.83 0 0 66.36 -130.83 0zm152.62 0.59l64.45 -7.86c2.03,16.49 7.51,29.08 16.49,37.8 8.95,8.73 19.78,13.08 32.44,13.08 13.67,0 25.13,-5.23 34.48,-15.66 9.3,-10.41 13.99,-24.47 13.99,-42.24 0,-16.71 -4.44,-30.03 -13.43,-39.8 -8.95,-9.77 -19.85,-14.7 -32.78,-14.7 -8.47,0 -18.55,1.69 -30.36,5.01l7.36 -53.94c17.92,0.46 31.56,-3.49 41.01,-11.78 9.45,-8.25 14.14,-19.32 14.14,-33.13 0,-11.71 -3.46,-20.99 -10.41,-28.03 -6.94,-6.95 -16.15,-10.41 -27.71,-10.41 -11.38,0 -21.08,3.96 -29.08,11.88 -8.07,7.9 -12.9,19.46 -14.67,34.63l-61.06 -10.41c4.27,-21.15 10.65,-38.03 19.29,-50.72 8.56,-12.59 20.59,-22.53 35.95,-29.79 15.34,-7.19 32.62,-10.83 51.66,-10.83 32.64,0 58.8,10.43 78.51,31.34 16.24,17.13 24.39,36.49 24.39,58.07 0,30.52 -16.64,54.99 -49.99,73.15 19.85,4.3 35.68,13.82 47.63,28.67 11.88,14.87 17.87,32.78 17.87,53.79 0,30.43 -11.17,56.44 -33.35,77.92 -22.21,21.49 -49.84,32.22 -82.95,32.22 -31.34,0 -57.33,-9.03 -77.92,-27.22 -20.68,-18.08 -32.64,-41.74 -35.95,-71.04zm384.09 -256.9c33.57,0 59.83,12.05 78.8,36.1 22.53,28.42 33.84,75.66 33.84,141.55 0,65.82 -11.38,113.16 -34.08,141.9 -18.83,23.75 -44.99,35.61 -78.56,35.61 -33.77,0 -60.98,-12.98 -81.65,-39 -20.68,-26.01 -31.02,-72.44 -31.02,-139.14 0,-65.48 11.39,-112.65 34.09,-141.41 18.8,-23.73 44.98,-35.61 78.58,-35.61zm0 55.24c-7.93,0 -15.04,2.58 -21.18,7.76 -6.21,5.08 -11.04,14.28 -14.43,27.61 -4.54,17.2 -6.8,46.28 -6.8,87.04 0,40.86 2.02,68.89 6.07,84.15 4.02,15.27 9.12,25.45 15.26,30.53 6.13,5.08 13.15,7.59 21.08,7.59 7.9,0 14.99,-2.58 21.23,-7.76 6.13,-5.08 10.99,-14.28 14.38,-27.61 4.51,-17.03 6.77,-46.04 6.77,-86.9 0,-40.76 -2.01,-68.78 -6.06,-84.05 -4.02,-15.26 -9.13,-25.52 -15.26,-30.6 -6.14,-5.18 -13.16,-7.76 -21.06,-7.76zm269.46 -55.24c33.59,0 59.85,12.05 78.82,36.1 22.53,28.42 33.85,75.66 33.85,141.55 0,65.82 -11.39,113.16 -34.09,141.9 -18.82,23.75 -44.99,35.61 -78.58,35.61 -33.75,0 -60.96,-12.98 -81.65,-39 -20.66,-26.01 -30.99,-72.44 -30.99,-139.14 0,-65.48 11.38,-112.65 34.06,-141.41 18.82,-23.73 44.98,-35.61 78.58,-35.61zm0 55.24c-7.9,0 -15.02,2.58 -21.16,7.76 -6.2,5.08 -11.06,14.28 -14.45,27.61 -4.52,17.2 -6.77,46.28 -6.77,87.04 0,40.86 2.01,68.89 6.03,84.15 4.05,15.27 9.13,25.45 15.29,30.53 6.14,5.08 13.16,7.59 21.06,7.59 7.93,0 15.02,-2.58 21.25,-7.76 6.14,-5.08 10.97,-14.28 14.36,-27.61 4.54,-17.03 6.8,-46.04 6.8,-86.9 0,-40.76 -2.04,-68.78 -6.07,-84.05 -4.05,-15.26 -9.13,-25.52 -15.26,-30.6 -6.14,-5.18 -13.15,-7.76 -21.08,-7.76zm269.48 -55.24c33.6,0 59.83,12.05 78.83,36.1 22.52,28.42 33.84,75.66 33.84,141.55 0,65.82 -11.41,113.16 -34.09,141.9 -18.82,23.75 -44.98,35.61 -78.58,35.61 -33.74,0 -60.96,-12.98 -81.65,-39 -20.66,-26.01 -30.99,-72.44 -30.99,-139.14 0,-65.48 11.39,-112.65 34.06,-141.41 18.82,-23.73 44.98,-35.61 78.58,-35.61zm0 55.24c-7.9,0 -15.02,2.58 -21.15,7.76 -6.21,5.08 -11.07,14.28 -14.46,27.61 -4.51,17.2 -6.77,46.28 -6.77,87.04 0,40.86 2.01,68.89 6.04,84.15 4.05,15.27 9.13,25.45 15.26,30.53 6.14,5.08 13.18,7.59 21.08,7.59 7.93,0 15.02,-2.58 21.23,-7.76 6.16,-5.08 10.99,-14.28 14.38,-27.61 4.54,-17.03 6.8,-46.04 6.8,-86.9 0,-40.76 -2.04,-68.78 -6.06,-84.05 -4.05,-15.26 -9.13,-25.52 -15.27,-30.6 -6.13,-5.18 -13.15,-7.76 -21.08,-7.76z"/>
  <path class="fil10 str0" d="M22678.66 21383.47c107.05,0 193.83,80.98 193.83,180.86 0,99.91 -86.78,180.89 -193.83,180.89 -107.02,0 -193.8,-80.98 -193.8,-180.89 0,-99.88 86.78,-180.86 193.8,-180.86z"/>
  <path class="fil10 str0" d="M23324.7 21383.47c107.02,0 193.8,80.98 193.8,180.89 0,99.9 -86.78,180.89 -193.8,180.89 -107.05,0 -193.82,-80.99 -193.82,-180.89 0,-99.91 86.77,-180.89 193.82,-180.89z"/>
  <path class="fil26 str0" d="M24140.51 19754.57c-33.52,0.42 -67.04,0.59 -99.83,1.01 -14.43,-165.46 -28.86,-324.29 -41.97,-476.56 -12.63,-146.83 -24.66,-288.04 -35.28,-423.58 29.49,-0.24 58.28,-0.24 88.51,-0.71 12.67,135.57 26.09,277.04 40.64,423.43 15.17,152.3 30.8,311.18 47.93,476.41z"/>
  <path class="fil32 str0" d="M24253.91 19417.89c-114.92,1.06 -230.56,2.09 -345.46,2.92 -8.05,-101.64 -15.29,-201.18 -21.72,-298.34 110.98,-0.88 221.95,-1.52 332.19,-2.4 11.12,96.52 22.28,195.88 34.99,297.82z"/>
  <rect class="fil10 str12" transform="matrix(0.584462 -0.717738 0.559835 0.45588 9627.38 19767.6)" width="733.77" height="3951.11"/>
  <ellipse class="fil33" transform="matrix(0.337689 -0.414693 0.414693 0.337689 9364.56 19086.4)" rx="1227.66" ry="1467.55"/>
  <rect class="fil34" transform="matrix(0.303918 -0.373222 0.414693 0.337689 11488.3 21282.9)" width="1411.11" height="141.11"/>
  <path class="fil11 str0" d="M10108.89 19752.18l31.29 -38.38c29.62,-36.37 83.09,-41.85 119.44,-12.25l455.33 370.81c36.37,29.57 41.84,83.07 12.24,119.42l-31.29 38.4c-29.59,36.35 -83.07,41.82 -119.41,12.23l-455.36 -370.79c-36.34,-29.6 -41.81,-83.1 -12.22,-119.44z"/>
  <ellipse class="fil35" transform="matrix(0.450258 -0.552932 0.552932 0.450258 10260.2 19835.2)" rx="79.37" ry="99.22"/>
  <path class="fil9" d="M9815.75 18558.83c82.99,67.61 -739.34,1077.44 -822.34,1009.86"/>
  <path class="fil7" d="M10136.64 19728.72l156.92 0c140.62,0 254.66,114.01 254.66,254.63l-0.03 446.57c0.03,140.6 -114.01,254.61 -254.61,254.61l-156.94 0.03c-140.59,-0.03 -254.61,-114.04 -254.61,-254.66l-0.02 -446.55c0.02,-140.62 114.04,-254.63 254.63,-254.63l0 0z"/>
 </g>
</svg>
