<?xml version="1.0" encoding="UTF-8"?>
<!DOCTYPE svg PUBLIC "-//W3C//DTD SVG 1.1//EN" "http://www.w3.org/Graphics/SVG/1.1/DTD/svg11.dtd">
<!-- Creator: CorelDRAW 2017 -->
<svg xmlns="http://www.w3.org/2000/svg" xml:space="preserve" width="118.533mm" height="118.533mm" version="1.1" style="shape-rendering:geometricPrecision; text-rendering:geometricPrecision; image-rendering:optimizeQuality; fill-rule:evenodd; clip-rule:evenodd"
viewBox="0 0 11853.32 11853.32"
 xmlns:xlink="http://www.w3.org/1999/xlink">
 <defs>
  <style type="text/css">
   <![CDATA[
    .str4 {stroke:black;stroke-width:42.33;stroke-miterlimit:22.9256}
    .str2 {stroke:#4D4D4D;stroke-width:42.33;stroke-miterlimit:22.9256}
    .str0 {stroke:black;stroke-width:20;stroke-miterlimit:22.9256}
    .str3 {stroke:#1A1A1A;stroke-width:20;stroke-miterlimit:22.9256}
    .str1 {stroke:#FFCC99;stroke-width:20;stroke-miterlimit:22.9256}
    .fil9 {fill:none}
    .fil8 {fill:black}
    .fil10 {fill:#1A1A1A}
    .fil2 {fill:#333333}
    .fil19 {fill:#4D4D4D}
    .fil3 {fill:#4D4D4D}
    .fil0 {fill:#660066}
    .fil11 {fill:#666666}
    .fil5 {fill:#669999}
    .fil16 {fill:#6B231C}
    .fil13 {fill:#990000}
    .fil17 {fill:#A30026}
    .fil4 {fill:#B3B3B3}
    .fil14 {fill:#BD0006}
    .fil15 {fill:#CC0007}
    .fil20 {fill:#CCCCCC}
    .fil18 {fill:#E6E6E6}
    .fil7 {fill:#FCD5A6}
    .fil12 {fill:red}
    .fil1 {fill:#FFCC99}
    .fil6 {fill:white}
    .fil21 {fill:yellow;fill-rule:nonzero}
   ]]>
  </style>
   <clipPath id="id0">
    <path d="M3235.19 7862.17l69.16 0 0 -15.95 -69.16 0 0 15.95z"/>
   </clipPath>
   <clipPath id="id1">
    <path d="M3248.49 7848.87l69.16 0 0 -15.95 -69.16 0 0 15.95z"/>
   </clipPath>
   <clipPath id="id2">
    <path d="M3260.75 7836.76l57.27 0 0 -17.56 -57.27 0 0 17.56z"/>
   </clipPath>
   <clipPath id="id3">
    <path d="M3261.79 7822.28l69.15 0 0 -15.96 -69.15 0 0 15.96z"/>
   </clipPath>
   <clipPath id="id4">
    <path d="M3275.09 7808.98l69.14 0 0 -15.96 -69.14 0 0 15.96z"/>
   </clipPath>
   <clipPath id="id5">
    <path d="M3288.38 7795.68l69.16 0 0 -15.95 -69.16 0 0 15.95z"/>
   </clipPath>
   <clipPath id="id6">
    <path d="M3300.56 7783.38l57.27 0 0 -17.5 -57.27 0 0 17.5z"/>
   </clipPath>
   <clipPath id="id7">
    <path d="M3301.69 7769.09l69.15 0 0 -15.96 -69.15 0 0 15.96z"/>
   </clipPath>
   <clipPath id="id8">
    <path d="M1297.7 7893.05l70.56 0 0 -17.56 -70.56 0 0 17.56z"/>
   </clipPath>
   <clipPath id="id9">
    <path d="M3314.98 7755.78l69.16 0 0 -15.95 -69.16 0 0 15.95z"/>
   </clipPath>
   <clipPath id="id10">
    <path d="M3327.08 7743.37l57.29 0 0 -17.55 -57.29 0 0 17.55z"/>
   </clipPath>
   <clipPath id="id11">
    <path d="M3341.58 7729.19l42.56 0 0 -15.96 -42.56 0 0 15.96z"/>
   </clipPath>
   <clipPath id="id12">
    <path d="M1297.7 7853.06l44.01 0 0 -17.55 -44.01 0 0 17.55z"/>
   </clipPath>
   <clipPath id="id13">
    <path d="M3340.37 7716.73l30.74 0 0 -17.55 -30.74 0 0 17.55z"/>
   </clipPath>
   <clipPath id="id14">
    <path d="M3341.58 7702.59l15.96 0 0 -15.96 -15.96 0 0 15.96z"/>
   </clipPath>
   <clipPath id="id15">
    <path d="M3327.08 7690.04l17.48 0 0 -30.88 -17.48 0 0 30.88z"/>
   </clipPath>
   <clipPath id="id16">
    <path d="M3314.98 7662.69l15.96 0 0 -15.96 -15.96 0 0 15.96z"/>
   </clipPath>
   <clipPath id="id17">
    <path d="M3057.86 7963.48l75.8 0 0 -17.54 -75.8 0 0 17.54z"/>
   </clipPath>
   <clipPath id="id18">
    <path d="M3072.12 7950.15l61.54 0 0 -30.88 -61.54 0 0 30.88z"/>
   </clipPath>
   <clipPath id="id19">
    <path d="M3086.39 7923.52l47.27 0 0 -17.55 -47.27 0 0 17.55z"/>
   </clipPath>
 </defs>
 <g id="Layer_x0020_1">
  <metadata id="CorelCorpID_0Corel-Layer"/>
  <polygon class="fil0" points="9494.49,6380.24 9494.49,8012.22 6064.17,8012.22 6064.17,6380.24 "/>
  <path class="fil1" d="M7726.13 1526.11c623.25,0 1124.84,501.65 1124.84,1124.85 0,618.19 -501.64,1119.78 -1124.84,1119.78 -623.26,0 -1129.92,-501.64 -1129.92,-1119.78 0,-623.25 506.71,-1124.85 1129.92,-1124.85z"/>
  <path class="fil2" d="M7741.33 1526.11c694.19,-15.2 1185.65,749.94 1104.57,1236.33 -5.06,60.8 -15.2,552.31 -15.2,481.37 -10.13,-319.23 -1297.12,-1221.12 -1449.14,-1464.34 -60.8,76.01 -602.98,471.24 -719.52,496.58 146.94,-450.98 582.71,-749.94 1079.24,-749.94l0.05 0z"/>
  <polygon class="fil0" points="6743.16,4044.41 7087.67,4044.41 7087.67,4333.19 7619.72,4181.22 7852.8,4181.22 8384.85,4333.19 8384.85,4044.41 8754.7,4044.41 8845.9,5625.3 6743.16,5508.75 "/>
  <path class="fil0" d="M6474.6 4034.28l344.57 10.13 937.36 1276.86 937.36 -1276.86 354.7 -10.13c233.09,-5.07 425.64,197.62 425.64,435.77l0 2295.34 -3425.26 0 0 -2295.34c0,-238.15 192.55,-440.84 425.63,-435.77z"/>
  <polygon class="fil0" points="9474.23,5336.47 9474.23,6147.16 6048.97,6147.16 6048.97,5336.47 "/>
  <path class="fil0" d="M6920.46 4186.29l597.92 810.74 -1469.41 0 0 -526.98c0,-106.41 35.47,-207.75 101.34,-283.76l770.2 0 -0.05 0zm1074.22 810.69l597.92 -810.74 780.33 0c65.88,76.01 101.35,177.35 101.35,283.76l0 526.98 -1479.55 0 -0.05 0z"/>
  <rect class="fil3 str0" x="6686.16" y="2011.9" width="1099.64" height="386.16" rx="193.08" ry="193.08"/>
  <rect class="fil3 str0" x="6279.55" y="2204.99" width="1784.2" height="1224.97" rx="145.06" ry="133.15"/>
  <rect class="fil3 str0" x="6898.19" y="694.26" width="686.23" height="1291.04"/>
  <rect class="fil4 str0" x="6968.42" y="723.34" width="546.21" height="267.51"/>
  <ellipse class="fil5 str0" cx="7257.94" cy="2770.88" rx="505.71" ry="499.31"/>
  <rect class="fil4 str0" x="6579.15" y="2204.98" width="106.48" height="1224.98"/>
  <path class="fil0 str0" d="M5774.18 2698.56l587.04 0c62.96,0 114.47,51.52 114.47,114.47l0 1776c0,224.41 -183.58,407.99 -407.99,407.99l-293.52 0c-62.95,0 -114.47,-51.51 -114.47,-114.47l0 -2069.52c0,-62.95 51.52,-114.47 114.47,-114.47z"/>
  <rect class="fil1 str1" x="5875.93" y="2338.14" width="403.6" height="360.43" rx="76.02" ry="39.9"/>
  <rect class="fil0 str0" transform="matrix(1.27958 -0.787207 0.787207 1.27958 7471.54 3559.13)" width="440.27" height="1727.2" rx="87.56" ry="87.56"/>
  <rect class="fil6" x="1087.97" y="7390.46" width="2212.38" height="3229.58"/>
  <path class="fil7" d="M2222.43 4752.83c730.17,0 1321.99,591.91 1321.99,1322.13 0,730.1 -591.82,1322.01 -1321.99,1322.01 -57.51,0 -114.17,-3.68 -169.75,-10.81 -649.98,-83.31 -1152.31,-638.59 -1152.31,-1311.2 0,-730.25 591.88,-1322.11 1322.06,-1322.13z"/>
  <path class="fil8" d="M2222.43 4752.83c596.72,0 1100.86,395.38 1265.32,938.4 23.25,265.42 -1352.83,-131.43 -1687.97,-648.21 -70.99,91.49 -695.05,586.14 -832.48,615.63 174.45,-526.27 670.4,-905.8 1255.13,-905.82z"/>
  <g>
  </g>
  <g style="clip-path:url(#id0)">
   <g>
   </g>
  </g>
  <polygon class="fil9" points="3235.19,7862.17 3304.35,7862.17 3304.35,7846.22 3235.19,7846.22 "/>
  <polygon class="fil9" points="3235.19,7862.17 3304.35,7862.17 3304.35,7846.22 3235.19,7846.22 "/>
  <polygon class="fil9" points="3235.19,7862.17 3304.35,7862.17 3304.35,7846.22 3235.19,7846.22 "/>
  <g>
  </g>
  <g style="clip-path:url(#id1)">
   <g>
   </g>
  </g>
  <polygon class="fil9" points="3248.49,7848.87 3317.65,7848.87 3317.65,7832.92 3248.49,7832.92 "/>
  <polygon class="fil9" points="3248.49,7848.87 3317.65,7848.87 3317.65,7832.92 3248.49,7832.92 "/>
  <polygon class="fil9" points="3248.49,7848.87 3317.65,7848.87 3317.65,7832.92 3248.49,7832.92 "/>
  <g>
  </g>
  <g style="clip-path:url(#id2)">
   <g>
   </g>
  </g>
  <polygon class="fil9" points="3260.75,7836.76 3318.02,7836.76 3318.02,7819.2 3260.75,7819.2 "/>
  <polygon class="fil9" points="3260.75,7836.76 3318.02,7836.76 3318.02,7819.2 3260.75,7819.2 "/>
  <polygon class="fil9" points="3260.75,7836.76 3318.02,7836.76 3318.02,7819.2 3260.75,7819.2 "/>
  <g>
  </g>
  <g style="clip-path:url(#id3)">
   <g>
   </g>
  </g>
  <polygon class="fil9" points="3261.79,7822.28 3330.94,7822.28 3330.94,7806.32 3261.79,7806.32 "/>
  <polygon class="fil9" points="3261.79,7822.28 3330.94,7822.28 3330.94,7806.32 3261.79,7806.32 "/>
  <polygon class="fil9" points="3261.79,7822.28 3330.94,7822.28 3330.94,7806.32 3261.79,7806.32 "/>
  <g>
  </g>
  <g style="clip-path:url(#id4)">
   <g>
   </g>
  </g>
  <polygon class="fil9" points="3275.09,7808.98 3344.23,7808.98 3344.23,7793.02 3275.09,7793.02 "/>
  <polygon class="fil9" points="3275.09,7808.98 3344.23,7808.98 3344.23,7793.02 3275.09,7793.02 "/>
  <polygon class="fil9" points="3275.09,7808.98 3344.23,7808.98 3344.23,7793.02 3275.09,7793.02 "/>
  <g>
  </g>
  <g style="clip-path:url(#id5)">
   <g>
   </g>
  </g>
  <polygon class="fil9" points="3288.38,7795.68 3357.54,7795.68 3357.54,7779.73 3288.38,7779.73 "/>
  <polygon class="fil9" points="3288.38,7795.68 3357.54,7795.68 3357.54,7779.73 3288.38,7779.73 "/>
  <polygon class="fil9" points="3288.38,7795.68 3357.54,7795.68 3357.54,7779.73 3288.38,7779.73 "/>
  <g>
  </g>
  <g style="clip-path:url(#id6)">
   <g>
   </g>
  </g>
  <polygon class="fil9" points="3300.56,7783.38 3357.83,7783.38 3357.83,7765.88 3300.56,7765.88 "/>
  <polygon class="fil9" points="3300.56,7783.38 3357.83,7783.38 3357.83,7765.88 3300.56,7765.88 "/>
  <polygon class="fil9" points="3300.56,7783.38 3357.83,7783.38 3357.83,7765.88 3300.56,7765.88 "/>
  <g>
  </g>
  <g style="clip-path:url(#id7)">
   <g>
   </g>
  </g>
  <polygon class="fil9" points="3301.69,7769.09 3370.84,7769.09 3370.84,7753.13 3301.69,7753.13 "/>
  <polygon class="fil9" points="3301.69,7769.09 3370.84,7769.09 3370.84,7753.13 3301.69,7753.13 "/>
  <polygon class="fil9" points="3301.69,7769.09 3370.84,7769.09 3370.84,7753.13 3301.69,7753.13 "/>
  <g>
  </g>
  <g style="clip-path:url(#id8)">
   <g>
   </g>
  </g>
  <polygon class="fil9" points="1297.7,7893.05 1368.26,7893.05 1368.26,7875.49 1297.7,7875.49 "/>
  <polygon class="fil9" points="1297.7,7893.05 1368.26,7893.05 1368.26,7875.49 1297.7,7875.49 "/>
  <polygon class="fil9" points="1297.7,7893.05 1368.26,7893.05 1368.26,7875.49 1297.7,7875.49 "/>
  <g>
  </g>
  <g style="clip-path:url(#id9)">
   <g>
   </g>
  </g>
  <polygon class="fil9" points="3314.98,7755.78 3384.14,7755.78 3384.14,7739.83 3314.98,7739.83 "/>
  <polygon class="fil9" points="3314.98,7755.78 3384.14,7755.78 3384.14,7739.83 3314.98,7739.83 "/>
  <polygon class="fil9" points="3314.98,7755.78 3384.14,7755.78 3384.14,7739.83 3314.98,7739.83 "/>
  <g>
  </g>
  <g style="clip-path:url(#id10)">
   <g>
   </g>
  </g>
  <polygon class="fil9" points="3327.08,7743.37 3384.37,7743.37 3384.37,7725.82 3327.08,7725.82 "/>
  <polygon class="fil9" points="3327.08,7743.37 3384.37,7743.37 3384.37,7725.82 3327.08,7725.82 "/>
  <polygon class="fil9" points="3327.08,7743.37 3384.37,7743.37 3384.37,7725.82 3327.08,7725.82 "/>
  <g>
  </g>
  <g style="clip-path:url(#id11)">
   <g>
   </g>
  </g>
  <polygon class="fil9" points="3341.58,7729.19 3384.14,7729.19 3384.14,7713.23 3341.58,7713.23 "/>
  <polygon class="fil9" points="3341.58,7729.19 3384.14,7729.19 3384.14,7713.23 3341.58,7713.23 "/>
  <polygon class="fil9" points="3341.58,7729.19 3384.14,7729.19 3384.14,7713.23 3341.58,7713.23 "/>
  <g>
  </g>
  <g style="clip-path:url(#id12)">
   <g>
   </g>
  </g>
  <polygon class="fil9" points="1297.7,7853.06 1341.71,7853.06 1341.71,7835.51 1297.7,7835.51 "/>
  <polygon class="fil9" points="1297.7,7853.06 1341.71,7853.06 1341.71,7835.51 1297.7,7835.51 "/>
  <polygon class="fil9" points="1297.7,7853.06 1341.71,7853.06 1341.71,7835.51 1297.7,7835.51 "/>
  <g>
  </g>
  <g style="clip-path:url(#id13)">
   <g>
   </g>
  </g>
  <polygon class="fil9" points="3340.37,7716.73 3371.11,7716.73 3371.11,7699.18 3340.37,7699.18 "/>
  <polygon class="fil9" points="3340.37,7716.73 3371.11,7716.73 3371.11,7699.18 3340.37,7699.18 "/>
  <polygon class="fil9" points="3340.37,7716.73 3371.11,7716.73 3371.11,7699.18 3340.37,7699.18 "/>
  <g>
  </g>
  <g style="clip-path:url(#id14)">
   <g>
   </g>
  </g>
  <polygon class="fil9" points="3341.58,7702.59 3357.54,7702.59 3357.54,7686.63 3341.58,7686.63 "/>
  <polygon class="fil9" points="3341.58,7702.59 3357.54,7702.59 3357.54,7686.63 3341.58,7686.63 "/>
  <polygon class="fil9" points="3341.58,7702.59 3357.54,7702.59 3357.54,7686.63 3341.58,7686.63 "/>
  <g>
  </g>
  <g style="clip-path:url(#id15)">
   <g>
   </g>
  </g>
  <polygon class="fil9" points="3327.08,7690.04 3344.56,7690.04 3344.56,7659.16 3327.08,7659.16 "/>
  <polygon class="fil9" points="3327.08,7690.04 3344.56,7690.04 3344.56,7659.16 3327.08,7659.16 "/>
  <polygon class="fil9" points="3327.08,7690.04 3344.56,7690.04 3344.56,7659.16 3327.08,7659.16 "/>
  <g>
  </g>
  <g style="clip-path:url(#id16)">
   <g>
   </g>
  </g>
  <polygon class="fil9" points="3314.98,7662.69 3330.94,7662.69 3330.94,7646.73 3314.98,7646.73 "/>
  <polygon class="fil9" points="3314.98,7662.69 3330.94,7662.69 3330.94,7646.73 3314.98,7646.73 "/>
  <polygon class="fil9" points="3314.98,7662.69 3330.94,7662.69 3330.94,7646.73 3314.98,7646.73 "/>
  <path class="fil10" d="M663.56 7657.35l410.42 10.58 1143.94 2768.33 1108.18 -2757.62 6.25 -8.6 -1.91 -2.63 0.03 -0.04 423.73 -10.02c282.18,-6.72 513.12,239.06 513.12,531.18l0 2797.43 -4116.96 0 0 -2797.45c0,-292.21 231.1,-538.33 513.23,-531.16l-0.01 0 -0.01 0 -0.01 0z"/>
  <ellipse class="fil8 str0" cx="2200.19" cy="9598.49" rx="35.45" ry="39.9"/>
  <rect class="fil11" x="3335" y="9585.17" width="673.8" height="88.67"/>
  <polygon class="fil6" points="3851.06,9367.64 3689.65,9195.09 3335.02,9585.17 3991.09,9585.17 "/>
  <polygon class="fil12" points="2191.34,7803.14 1495.5,7502.56 1561.86,8237.58 2152.96,7919.16 "/>
  <polygon class="fil12" points="2132.16,7785.78 2839.18,7538.41 2803.07,8255.3 2095.63,7887.46 "/>
  <rect class="fil13" x="2079.05" y="7702.58" width="199.54" height="276.69"/>
  <polygon class="fil6 str2" points="471.35,8157.79 1091.98,7324.39 1826.31,9538.41 1610.61,9347.81 "/>
  <polygon class="fil6 str2" points="896.91,8947.02 1411.15,8406.02 2098.57,10279.14 1865.28,10035.22 "/>
  <g>
  </g>
  <g style="clip-path:url(#id17)">
   <g>
   </g>
  </g>
  <polygon class="fil9" points="3057.86,7963.48 3133.66,7963.48 3133.66,7945.94 3057.86,7945.94 "/>
  <polygon class="fil9" points="3057.86,7963.48 3133.66,7963.48 3133.66,7945.94 3057.86,7945.94 "/>
  <polygon class="fil9" points="3057.86,7963.48 3133.66,7963.48 3133.66,7945.94 3057.86,7945.94 "/>
  <g>
  </g>
  <g style="clip-path:url(#id18)">
   <g>
   </g>
  </g>
  <polygon class="fil9" points="3072.12,7950.15 3133.66,7950.15 3133.66,7919.27 3072.12,7919.27 "/>
  <polygon class="fil9" points="3072.12,7950.15 3133.66,7950.15 3133.66,7919.27 3072.12,7919.27 "/>
  <polygon class="fil9" points="3072.12,7950.15 3133.66,7950.15 3133.66,7919.27 3072.12,7919.27 "/>
  <g>
  </g>
  <g style="clip-path:url(#id19)">
   <g>
   </g>
  </g>
  <polygon class="fil9" points="3086.39,7923.52 3133.66,7923.52 3133.66,7905.97 3086.39,7905.97 "/>
  <polygon class="fil9" points="3086.39,7923.52 3133.66,7923.52 3133.66,7905.97 3086.39,7905.97 "/>
  <polygon class="fil9" points="3086.39,7923.52 3133.66,7923.52 3133.66,7905.97 3086.39,7905.97 "/>
  <ellipse class="fil8 str0" cx="2164.03" cy="8605.02" rx="38.1" ry="39.9"/>
  <path class="fil13" d="M2099.05 7702.57l175.86 0c10.65,0 19.26,6.38 19.26,14.23l0 144.9c0,7.85 -8.61,14.22 -19.26,14.22l-175.86 0c-10.63,0 -19.26,-6.37 -19.26,-14.22l0 -144.9c0,-7.85 8.63,-14.23 19.26,-14.23z"/>
  <polygon class="fil6 str2" points="3994.91,8114.07 3326.16,7359.87 2585.68,9564.11 2802.32,9356.51 "/>
  <polygon class="fil6 str2" points="3564.27,9024.45 2983.58,8418.31 2319.68,10294.33 2508.39,10128.82 "/>
  <ellipse class="fil8 str0" cx="2164.03" cy="9106.29" rx="38.1" ry="39.9"/>
  <rect class="fil10 str3" x="150.34" y="10985.96" width="4114.76" height="692.82"/>
  <polygon class="fil13" points="2707.81,10294.18 9801.55,10284.05 10536.23,11692.65 1902.14,11702.79 "/>
  <path class="fil9 str4" d="M6133.07 4913.08c-663.79,0 -1200.85,456.04 -1200.85,1018.43 0,557.38 537.11,1013.37 1200.85,1013.37 663.79,0 1200.85,-456.04 1200.85,-1013.37 0,-562.45 -537.11,-1018.43 -1200.85,-1018.43z"/>
  <path class="fil1" d="M6122.93 4973.88c623.26,0 1124.85,501.64 1124.85,1124.85 0,618.18 -501.64,1119.78 -1124.85,1119.78 -623.25,0 -1129.91,-501.65 -1129.91,-1119.78 0,-623.26 506.71,-1124.85 1129.91,-1124.85z"/>
  <path class="fil8" d="M6254.68 7199.26c-40.54,0 -81.08,5.07 -121.61,5.07 -40.54,0 -81.08,-5.07 -121.61,-5.07l-116.55 -207.75 476.31 0 -116.54 207.75z"/>
  <path class="fil2" d="M6138.13 4973.88c694.2,-15.2 1185.66,749.93 1104.58,1236.32 -5.06,60.81 -15.2,552.32 -15.2,481.38 -10.13,-319.23 -1297.13,-1221.12 -1449.14,-1464.34 -60.8,76 -602.98,471.24 -719.53,496.57 146.95,-450.97 582.72,-749.93 1079.24,-749.93l0.05 0z"/>
  <polygon class="fil13" points="5139.97,7492.18 5484.48,7492.18 5484.48,7780.95 6016.52,7628.99 6249.61,7628.99 6781.66,7780.95 6781.66,7492.18 7151.5,7492.18 7242.71,9073.06 5139.97,8956.52 "/>
  <path class="fil14" d="M4871.41 7482.05l344.56 10.13 937.37 1276.86 937.36 -1276.86 354.7 -10.13c233.08,-5.07 425.63,197.61 425.63,435.77l0 2295.34 -3425.26 0 0 -2295.34c0,-238.16 192.55,-440.84 425.64,-435.77z"/>
  <polygon class="fil15" points="7891.3,9828.01 7891.3,10694.49 4460.98,10694.49 4460.98,9828.01 "/>
  <polygon class="fil15" points="7871.03,8784.24 7871.03,9594.92 4445.77,9594.92 4445.77,8784.24 "/>
  <path class="fil15" d="M5317.26 7634.06l597.92 810.73 -1469.41 0 0 -526.97c0,-106.41 35.47,-207.76 101.35,-283.76l770.2 0 -0.06 0zm1074.23 810.68l597.92 -810.73 780.33 0c65.87,76 101.34,177.35 101.34,283.76l0 526.97 -1479.54 0 -0.05 0z"/>
  <path class="fil1" d="M9924.77 4995.66c694.19,0 1256.59,521.91 1256.59,1165.38 0,648.59 -562.45,1170.45 -1256.59,1170.45 -694.19,0 -1256.59,-521.91 -1256.59,-1170.45 0,-643.52 562.45,-1165.38 1256.59,-1165.38z"/>
  <path class="fil16" d="M9418.06 5041.26c-157.08,76.01 -50.67,15.2 -197.62,106.41l-65.87 40.54c-20.27,15.2 -15.2,10.13 -40.54,25.33 -15.2,15.2 -15.2,15.2 -30.4,30.41 -101.34,126.67 -162.15,131.74 -288.82,364.83 -20.27,40.53 -40.54,106.41 -60.81,146.94 0,30.41 -5.07,20.27 35.47,15.2l405.37 -86.14c314.16,-81.07 1023.5,-258.42 1165.38,-481.37l182.42 146.94c136.81,106.41 349.63,258.43 501.64,344.57l81.07 45.6c45.61,5.07 15.2,5.07 30.41,-10.13 -172.29,-461.11 -638.46,-770.2 -1150.19,-790.47 -298.95,-10.13 -359.76,50.67 -567.51,101.34z"/>
  <path class="fil16" d="M9326.85 6429.6c-45.6,55.73 -45.6,152.01 -5.07,217.88 96.28,162.15 456.04,243.22 597.92,20.27 30.4,20.27 136.81,212.82 445.91,101.34 222.95,-81.07 217.88,-298.96 152.01,-339.49 -15.2,30.4 0,45.6 -35.47,70.94 -141.88,116.54 -324.29,-233.09 -552.31,-35.47 -45.61,-15.21 -157.08,-121.61 -339.5,-5.07 -248.29,157.08 -253.35,-15.2 -263.49,-30.4z"/>
  <polygon class="fil17" points="9032.96,4580.16 10872.27,4590.29 10867.2,5279.42 9027.89,5269.28 "/>
  <path class="fil18" d="M8571.85 7549.43l2776.67 0c162.15,0 298.96,136.81 298.96,298.95l0 2908.42c0,162.15 -136.81,298.96 -298.96,298.96l-2776.67 0c-162.14,0 -298.96,-136.81 -298.96,-298.96l0 -2908.42c0,-162.14 136.82,-298.95 298.96,-298.95z"/>
  <path class="fil2" d="M10608.78 8309.44c55.74,0 101.34,40.54 101.34,86.14 0,45.6 -45.6,81.07 -101.34,81.07 -50.67,0 -96.28,-35.47 -96.28,-81.07 0,-45.6 45.61,-86.14 96.28,-86.14z"/>
  <path class="fil2" d="M10608.78 9018.83c55.74,0 101.34,35.47 101.34,81.08 0,45.6 -45.6,81.07 -101.34,81.07 -50.67,0 -96.28,-35.47 -96.28,-81.07 0,-45.61 45.61,-81.08 96.28,-81.08z"/>
  <path class="fil2" d="M10608.78 9758.58c55.74,0 101.34,35.47 101.34,81.07 0,45.61 -45.6,86.14 -101.34,86.14 -50.67,0 -96.28,-40.53 -96.28,-86.14 0,-45.6 45.61,-81.07 96.28,-81.07z"/>
  <path class="fil2" d="M10608.78 10498.38c55.74,0 101.34,40.53 101.34,86.14 0,45.6 -45.6,81.07 -101.34,81.07 -50.67,0 -96.28,-35.47 -96.28,-81.07 0,-45.61 45.61,-86.14 96.28,-86.14z"/>
  <path class="fil2" d="M4629.16 10745.23c55.74,0 101.35,35.47 101.35,81.08 0,45.6 -45.61,81.07 -101.35,81.07 -55.73,0 -96.27,-35.47 -96.27,-81.07 0,-45.61 40.54,-81.08 96.27,-81.08z"/>
  <path class="fil2" d="M9215.38 9758.58c55.73,0 101.34,35.47 101.34,81.07 0,45.61 -45.61,86.14 -101.34,86.14 -55.74,0 -96.28,-40.53 -96.28,-86.14 0,-45.6 40.54,-81.07 96.28,-81.07z"/>
  <path class="fil2" d="M9215.38 10498.38c55.73,0 101.34,40.53 101.34,86.14 0,45.6 -45.61,81.07 -101.34,81.07 -55.74,0 -96.28,-35.47 -96.28,-81.07 0,-45.61 40.54,-86.14 96.28,-86.14z"/>
  <polygon class="fil17" points="8272.95,10777.07 11637.4,10777.07 11637.4,11501.61 8272.95,11501.61 "/>
  <polygon class="fil17" points="9387.66,8040.88 9412.99,8040.88 10563.17,7843.27 9412.99,8203.03 9412.99,10756.8 9357.25,10756.8 "/>
  <polygon class="fil17" points="9286.31,7493.69 10309.82,7549.43 9255.91,8030.75 9397.79,7706.45 9828.49,7660.85 9863.96,7711.52 9924.77,7853.4 10441.56,7838.2 10249.01,7701.39 9301.52,7610.18 "/>
  <polygon class="fil19" points="6234.41,10132.04 2996.63,10132.04 2049.09,11687.59 6021.59,11687.59 "/>
  <path class="fil8 str0" d="M3903.59 10096.57c810.74,0 1469.41,329.36 1469.41,729.66 0,405.37 -658.72,729.66 -1469.41,729.66 -810.73,0 -1469.4,-324.29 -1469.4,-729.66 0,-400.3 658.72,-729.66 1469.4,-729.66z"/>
  <path class="fil13 str0" d="M3901.32 10442.38c319.23,0 577.65,136.81 577.65,304.03 0,172.28 -258.42,309.09 -577.65,309.09 -319.23,0 -582.72,-136.81 -582.72,-309.09 0,-167.22 263.49,-304.03 582.72,-304.03z"/>
  <polygon class="fil20" points="5732.77,10228.31 6117.87,10228.31 6117.87,10603.28 5732.77,10603.28 "/>
  <polygon class="fil20" points="5996.26,10228.31 4455.91,10228.31 4455.91,10329.65 5996.26,10329.65 "/>
  <path class="fil11 str0" d="M5864.51 10750.22c70.94,0 126.68,30.41 126.68,70.94 0,35.47 -55.74,65.88 -126.68,65.88 -65.87,0 -121.61,-30.41 -121.61,-65.88 0,-40.53 55.74,-70.94 121.61,-70.94z"/>
  <path class="fil11 str0" d="M5763.17 11033.98c86.14,0 157.08,35.47 157.08,76.01 0,45.6 -70.94,81.07 -157.08,81.07 -86.14,0 -157.08,-35.47 -157.08,-81.07 0,-40.54 70.94,-76.01 157.08,-76.01z"/>
  <path class="fil11 str0" d="M5636.49 11353.16c-121.61,0 -212.82,40.53 -212.82,86.14 0,50.67 91.21,91.21 212.82,91.21 116.55,0 212.82,-40.54 212.82,-91.21 0,-45.61 -96.27,-86.14 -212.82,-86.14z"/>
  <polygon class="fil9 str0" points="4499.24,10401.84 4286.42,10401.84 4286.42,10204.23 4499.24,10204.23 "/>
  <polygon class="fil19 str0" points="4565.11,10183.96 4154.67,10183.96 4154.67,10300.5 4565.11,10300.5 "/>
  <polygon class="fil9" points="5844.24,10132.04 10440,10132.04 10440,11768.66 5844.24,11768.66 "/>
  <polygon class="fil19" points="6396.56,10223.24 9426.58,10132.04 10303.19,11687.59 6285.08,11662.25 "/>
  <path class="fil8 str0" d="M8585.49 10096.57c-749.93,0 -1363,329.36 -1363,729.66 0,405.37 613.12,729.66 1363,729.66 749.93,0 1357.94,-324.29 1357.94,-729.66 0,-400.3 -608.06,-729.66 -1357.94,-729.66z"/>
  <path class="fil13 str0" d="M8575.36 10425.93c-293.89,0 -537.11,136.81 -537.11,304.03 0,172.28 243.22,309.09 537.11,309.09 298.96,0 537.11,-136.81 537.11,-309.09 0,-167.22 -238.15,-304.03 -537.11,-304.03z"/>
  <path class="fil8 str0" d="M8575.36 10664.08c-20.27,0 -35.47,15.2 -35.47,30.41 0,20.26 15.2,35.47 35.47,35.47 20.27,0 35.47,-15.21 35.47,-35.47 0,-15.21 -15.2,-30.41 -35.47,-30.41z"/>
  <polygon class="fil20" points="6893.13,10228.31 6538.44,10228.31 6538.44,10603.28 6893.13,10603.28 "/>
  <polygon class="fil20" points="6649.91,10228.31 8073.72,10228.31 8073.72,10329.65 6649.91,10329.65 "/>
  <path class="fil11 str0" d="M6766.46 10750.22c-60.81,0 -111.48,30.41 -111.48,70.94 0,35.47 50.67,65.88 111.48,65.88 65.87,0 116.54,-30.41 116.54,-65.88 0,-40.53 -50.67,-70.94 -116.54,-70.94z"/>
  <path class="fil11 str0" d="M6862.73 11033.98c-76.01,0 -141.88,35.47 -141.88,76.01 0,45.6 65.87,81.07 141.88,81.07 81.07,0 146.95,-35.47 146.95,-81.07 0,-40.54 -65.88,-76.01 -146.95,-76.01z"/>
  <path class="fil11 str0" d="M6984.34 11353.16c106.41,0 197.62,40.53 197.62,86.14 0,50.67 -91.21,91.21 -197.62,91.21 -111.48,0 -197.62,-40.54 -197.62,-91.21 0,-45.61 86.14,-86.14 197.62,-86.14z"/>
  <polygon class="fil9 str0" points="8023.05,10385.39 8220.66,10385.39 8220.66,10187.78 8023.05,10187.78 "/>
  <polygon class="fil19 str0" points="7962.24,10167.51 8342.27,10167.51 8342.27,10284.05 7962.24,10284.05 "/>
  <polygon class="fil2" points="4932.22,5713.68 4724.46,5713.68 4724.46,6493.96 4932.22,6493.96 "/>
  <polygon class="fil13" points="4785.37,5713.68 4825.91,5713.68 4825.91,6463.66 4785.37,6463.66 "/>
  <polygon class="fil8 str0" points="5058.89,5698.48 4932.22,5698.48 4932.22,6514.23 5058.89,6514.23 "/>
  <polygon class="fil2" points="7347.67,5823.77 7560.49,5823.77 7560.49,6604.05 7347.67,6604.05 "/>
  <polygon class="fil13" points="7519.95,5823.77 7479.42,5823.77 7479.42,6604.05 7519.95,6604.05 "/>
  <polygon class="fil8 str0" points="7210.86,5808.57 7342.6,5808.57 7342.6,6624.32 7210.86,6624.32 "/>
  <path class="fil8 str0" d="M6052.05 10863.57c-18.93,0 -33.13,14.2 -33.13,28.4 0,18.93 14.2,33.13 33.13,33.13 18.93,0 33.13,-14.2 33.13,-33.13 0,-14.2 -14.2,-28.4 -33.13,-28.4z"/>
  <path class="fil21" d="M10710.12 8000.35l0 0c0,5.06 0,10.13 0,10.13l0 0 0 -5.07c5.07,0 5.07,-5.06 5.07,-5.06l5.06 0 0 5.06c0,0 0,0 0,0l5.07 0c0,0 0,0 5.07,10.14 0,25.33 -5.07,55.74 -15.2,81.07l0 5.07c0,5.07 0,5.07 0,10.13 0,0 0,5.07 0,5.07 0,5.07 -5.07,10.13 -5.07,20.27 0,0 0,0 0,0l0 10.13 -15.2 10.14 -15.2 0 -5.07 0c0,0 0,0 0,0l0 -5.07c0,-5.07 -5.07,-10.13 -5.07,-10.13l0 0c0,-5.07 0,-5.07 0,-5.07 0,-15.2 5.07,-30.4 10.14,-35.47 -5.07,-5.07 -5.07,-10.14 -5.07,-10.14l5.07 0c-5.07,-5.06 -5.07,-10.13 -5.07,-10.13l0 0c0,-10.13 -10.13,-20.27 -15.2,-30.4 -15.2,-5.07 -25.34,-10.14 -30.4,-10.14l-10.14 0c-15.2,0 -25.33,0 -30.4,10.14l-5.07 0 0 0c-15.2,10.13 -20.27,15.2 -20.27,20.27 -5.06,5.06 -10.13,15.2 -10.13,35.47 0,0 -5.07,0 -5.07,5.06l0 5.07c10.14,15.2 20.27,30.4 35.47,35.47 5.07,5.07 25.34,15.2 60.81,30.4 15.2,5.07 30.4,15.2 55.74,30.4 20.26,10.14 25.33,20.27 25.33,30.41l0 0 0 5.06c0,5.07 0,10.14 -5.07,15.21 0,5.06 -15.2,10.13 -45.6,15.2 -5.07,0 -10.13,5.06 -10.13,5.06 0,0 0,0 0,0 -10.14,0 -15.21,0 -15.21,0 0,0 0,0 0,0l-10.13 0 -20.27 0c-45.6,-5.06 -70.94,-10.13 -76.01,-15.2 -20.26,0 -35.46,-5.06 -50.67,-15.2l-5.06 -5.07 0 -5.06c5.06,-10.14 15.2,-15.2 25.33,-15.2 5.07,-5.07 5.07,-5.07 5.07,-5.07l5.07 0 0 0c0,0 0,0 0,0 5.06,-5.07 20.26,-5.07 40.53,-5.07 0,0 5.07,0 5.07,0l5.07 0c5.06,0 10.13,0 10.13,0l0 5.07c-5.07,0 -5.07,0 -5.07,0 0,0 5.07,0 5.07,5.07l0 0c0,0 0,0 0,5.06 -5.07,0 -10.13,0 -10.13,0 -15.2,0 -25.34,0 -25.34,5.07 0,0 0,0 -5.07,5.07l0 0c40.54,20.27 76.01,30.4 106.41,30.4 25.34,0 35.47,-10.13 35.47,-15.2 5.07,-5.07 5.07,-5.07 5.07,-5.07 -5.07,-15.2 -25.33,-25.33 -55.74,-40.54 -5.06,0 -5.06,0 -5.06,0l-5.07 0c-25.34,-10.13 -45.61,-20.26 -60.81,-25.33 -10.13,-5.07 -20.27,-10.13 -30.4,-20.27 -10.13,-10.13 -15.2,-10.13 -15.2,-15.2l0 0 -5.07 0c-5.06,-5.07 -5.06,-15.2 -10.13,-25.34 0,-10.13 -5.07,-10.13 -5.07,-10.13 5.07,-15.2 5.07,-20.27 5.07,-25.34l0 0c0,0 0,-5.06 5.07,-10.13 0,-5.07 5.06,-5.07 5.06,-5.07 0,-5.06 10.14,-10.13 25.34,-25.33 10.13,-5.07 20.27,-10.14 35.47,-15.2 0,-5.07 10.13,-5.07 30.4,-10.14l0 0c5.07,0 15.2,0 25.34,0 0,0 0,0 5.06,0 0,0 0,0 0,0l5.07 0 5.07 0 5.06 0 5.07 0c15.2,5.07 25.34,5.07 35.47,10.14 0,0 0,-5.07 0,-10.14l0 -10.13 0 0c0,-5.07 0,-5.07 0,-5.07l5.07 0c5.07,0 5.07,5.07 5.07,5.07l0 0c0,-5.07 0,-10.14 5.06,-10.14 0,0 0,0 0,5.07l0 0 0 5.07c0,0 0,0 0,0l5.07 0c-5.07,-5.07 -5.07,-10.14 -5.07,-10.14l5.07 -5.06zm-5.07 35.47l0 5.06c0,0 0,0 0,0 0,5.07 0,5.07 0,5.07 0,10.13 0,20.27 0,25.34l0 0 0 0c0,-10.14 5.07,-20.27 5.07,-35.47l0 -5.07 0 -5.07 0 0c0,0 -5.07,5.07 -5.07,10.14zm-45.6 5.06c0,0 10.13,5.07 25.33,10.14 0,0 0,5.06 0,5.06l0 -5.06c0,0 -5.06,-5.07 -25.33,-10.14l0 0zm-5.07 0l0 0c0,0 5.07,5.07 10.14,10.14l0 0c0,-5.07 -5.07,-5.07 -10.14,-10.14l0 0zm15.2 5.07c0,0 5.07,5.07 10.14,10.13l0 0 -10.14 -10.13 0 0zm-111.47 10.13l0 0 10.13 -5.06 0 0c-5.07,0 -10.13,5.06 -10.13,5.06zm157.08 -5.06c0,5.06 0,10.13 0,15.2l0 0c0,0 0,-5.07 5.06,-15.2l-5.06 0zm-15.2 5.06c0,0 0,10.14 -5.07,25.34 5.07,0 5.07,-10.13 5.07,-25.34l0 0zm-25.34 10.14l0 0c5.07,5.07 5.07,10.13 5.07,10.13 0,-10.13 0,-10.13 -5.07,-10.13zm-126.68 0c0,0 -5.07,5.07 -5.07,10.13l0 0c0,0 5.07,-5.06 5.07,-10.13l0 0zm136.81 5.07c0,0 0,5.06 0,5.06l5.07 0c0,-5.06 0,-5.06 0,-5.06 0,0 0,0 0,-5.07l-5.07 0 0 5.07zm-167.21 10.13l5.07 -10.13 5.06 0 0 0 0 0c-5.06,0 -5.06,5.06 -10.13,10.13zm187.48 -10.13l0 5.06 0 5.07 0 0 0 -10.13 0 0 0 0zm-25.33 10.13l0 5.07c0,0 0,0 0,0l5.06 0 0 0c-5.06,-5.07 -5.06,-5.07 -5.06,-5.07l0 0zm-167.22 0l0 5.07 0 5.06 0 0 0 -5.06 0 -5.07 0 0zm30.4 5.07l0 5.06 0 0c0,0 0,0 0,-5.06l0 0zm0 5.06c0,5.07 0,5.07 0,10.14l0 0c0,0 0,5.07 0,5.07l0 0 0 0c0,-5.07 5.07,-10.14 5.07,-15.21l0 0 -5.07 0zm152.02 0l-5.07 15.21 0 0 0 0c0,0 5.07,-5.07 5.07,-10.14l0 -5.07 0 0zm0 5.07c0,0 0,5.07 0,5.07l0 0 5.07 0c0,0 0,0 0,0 0,-5.07 0,-5.07 0,-5.07l-5.07 0zm-157.08 5.07l0 5.07 0 5.06 5.06 0 0 -5.06c0,0 -5.06,-5.07 -5.06,-5.07l0 0zm152.01 30.4c0,10.14 0,15.2 0,20.27l5.07 0c-5.07,-5.07 -5.07,-10.13 -5.07,-10.13 0,-10.14 0,-25.34 5.07,-40.54 -5.07,5.07 -5.07,15.2 -5.07,30.4zm-162.15 -25.33l0 5.06c0,15.2 5.07,25.34 10.14,30.41l0 0c-5.07,-10.14 -5.07,-15.21 -5.07,-20.27l0 0c-5.07,-10.14 -5.07,-15.2 -5.07,-15.2zm-5.06 0l0 5.06c0,0 0,0 0,0l0 0c0,-5.06 0,-5.06 0,-5.06zm172.28 20.26l0 10.14 0 10.13 0 0 0 -5.06c0,-5.07 0,-5.07 0,-10.14l5.07 -20.27c-5.07,5.07 -5.07,10.14 -5.07,15.2zm-182.42 -10.13l0 0c0,5.07 0,10.13 5.07,20.27 5.07,0 5.07,0 5.07,-5.07 -5.07,-10.13 -5.07,-15.2 -10.14,-15.2l0 0zm10.14 0l0 5.07c0,5.06 5.06,5.06 5.06,5.06l0 0c0,-5.06 0,-5.06 0,-10.13l-5.06 0zm15.2 5.07c0,0 0,5.06 0,5.06l0 0c0,0 5.06,0 5.06,0l-5.06 -5.06zm141.88 0c-5.07,5.06 -5.07,5.06 -5.07,5.06l5.07 0 0 -5.06 0 0zm5.06 10.13l0 5.07 0 0 0 -5.07 0 0zm-157.08 5.07l0 5.07c5.07,5.06 10.14,5.06 10.14,10.13l0 0c-5.07,-10.13 -5.07,-10.13 -5.07,-15.2l-5.07 0zm152.02 5.07c0,0 0,5.06 0,5.06 0,0 5.06,0 5.06,0l0 0c0,0 0,0 0,0 0,0 0,-5.06 0,-5.06l-5.06 0zm-136.82 5.06l0 0c0,0 5.07,5.07 5.07,5.07 0,0 0,0 0,-5.07l-5.07 0zm20.27 0c0,5.07 5.07,10.14 15.2,15.2l0 0 0 -5.06c-5.06,0 -10.13,0 -15.2,-10.14l0 0 0 0zm-10.13 10.14l0 0c5.07,5.06 10.13,10.13 15.2,10.13l5.07 10.14 5.06 -5.07 5.07 5.07 0 0 0 -5.07c-5.07,0 -10.13,-5.07 -15.2,-5.07 -5.07,-5.07 -10.13,-10.13 -15.2,-10.13l0 0zm-5.07 0c0,5.06 0,5.06 5.07,5.06 0,0 0,0 -5.07,-5.06l0 0zm-10.13 0l0 5.06c0,0 0,0 5.06,0l0 0 0 0c0,0 0,0 -5.06,-5.06zm5.06 5.06c5.07,5.07 10.14,10.14 15.21,15.21l0 0c0,0 0,-5.07 0,-5.07l0 0c0,0 -5.07,-5.07 -10.14,-5.07l0 -5.07 -5.07 0zm30.41 0l0 5.07c0,0 5.06,0 15.2,10.14l0 0c0,0 5.07,-5.07 5.07,-5.07 -10.14,-5.07 -15.21,-5.07 -15.21,-5.07l0 0 0 -5.07 -5.06 0zm15.2 5.07l0 0c10.13,5.07 10.13,10.14 10.13,10.14l5.07 0c0,0 5.07,0 5.07,0l0 0c0,0 0,0 -5.07,0 0,0 0,0 0,0 -5.07,-5.07 -10.13,-5.07 -15.2,-10.14zm25.33 10.14l0 0 5.07 0 0 5.06 0 0c0,0 0,0 5.07,5.07l0 -5.07c-5.07,0 -5.07,0 -5.07,0l0 0c10.14,5.07 15.2,5.07 15.2,5.07l0 0c5.07,0 5.07,5.07 5.07,5.07l0 0 0 -5.07c-5.07,0 -15.2,-5.07 -20.27,-10.13 0,0 0,0 0,0l-5.07 0zm-45.6 0l0 5.06c0,0 5.07,0 15.2,5.07 0,0 -5.07,-5.07 -15.2,-10.13zm30.4 10.13l0 0c10.14,10.13 25.34,15.2 35.47,20.27l10.14 5.06 5.06 0 0 -5.06 -30.4 -10.14c-5.07,-5.06 -10.13,-5.06 -20.27,-10.13 0,0 0,0 0,0l0 0zm30.41 5.07l0 5.06c0,0 10.13,5.07 25.33,15.2l5.07 0 0 0 0 0c-5.07,-5.06 -15.2,-10.13 -25.34,-15.2 0,0 0,0 -5.06,-5.06l0 0zm30.4 15.2c0,5.06 5.07,5.06 15.2,15.2l0 0c0,-5.07 -5.07,-10.14 -10.13,-15.2l-5.07 0zm-101.34 15.2c0,0 5.06,0 5.06,0l0 0c5.07,0 5.07,0 5.07,0l0 0c0,0 -5.07,0 -5.07,0 0,0 0,0 -5.06,0zm121.61 0c0,5.07 5.06,10.13 10.13,15.2 -5.07,-10.13 -5.07,-10.13 -5.07,-15.2l-5.06 0zm-157.08 10.13l0 0 0 0c5.06,0 10.13,-5.06 25.33,-5.06l0 0 -5.07 0c-10.13,0 -20.26,0 -20.26,5.06zm192.55 0l0 5.07 0 0 0 0c0,5.07 0,5.07 0,5.07l5.06 0 0 0c-5.06,-5.07 -5.06,-10.14 -5.06,-10.14l0 0zm-20.27 0c5.07,5.07 5.07,10.14 10.13,15.2 0,-5.06 -5.06,-5.06 -5.06,-15.2l-5.07 0zm-172.28 10.14l0 0c5.06,5.06 5.06,5.06 5.06,5.06l0 0 0 0 0 0 0 -5.06c5.07,0 5.07,-5.07 5.07,-5.07l0 0c-5.07,0 -5.07,5.07 -5.07,5.07 0,-5.07 0,-5.07 5.07,-5.07l0 0 -5.07 0c-5.06,0 -5.06,0 -5.06,5.07zm-20.27 0c0,0 0,0 0,0l0 0c5.07,0 5.07,0 5.07,0l0 -5.07 -5.07 5.07zm192.55 -5.07c0,5.07 0,10.13 0,15.2l0 0c0,0 0,-5.07 0,-15.2l0 0zm-187.48 5.07c0,5.06 0,5.06 0,5.06l5.06 0 0 -5.06c0,0 -5.06,0 -5.06,0zm15.2 5.06c0,5.07 0,5.07 10.13,5.07 0,0 -5.07,0 -10.13,-5.07l0 0zm25.33 5.07l0 5.07 5.07 0 0 0 0 0c0,0 0,0 -5.07,-5.07zm-10.13 5.07l0 5.07 5.06 0c0,0 0,0 0,0 0,0 -5.06,0 -5.06,-5.07zm35.47 10.13c0,0 5.06,5.07 20.27,5.07 -5.07,-5.07 -10.14,-5.07 -20.27,-5.07zm0 5.07l0 0c0,0 5.06,0 10.13,0l0 0 0 0c0,0 -5.07,0 -10.13,0 0,0 0,0 0,0 0,0 0,0 0,0z"/>
  <path id="_1" class="fil21" d="M10791.19 8061.15l5.07 0c0,0 0,5.07 0,10.14l0 10.13c0,0 0,0 0,0l0 0 0 5.07c0,0 0,0 0,0 0,0 0,0 0,0 0,30.4 -5.07,50.67 -10.13,65.87l-10.14 45.6 0 0 0 0c5.07,-5.06 10.14,-10.13 10.14,-10.13 0,0 5.06,-5.07 15.2,-10.13 10.13,-5.07 10.13,-5.07 15.2,-5.07 5.07,0 15.2,5.07 15.2,15.2 0,0 0,0 0,5.07l0 0c0,5.06 5.07,10.13 5.07,15.2 0,0 0,5.06 -5.07,5.06 5.07,0 5.07,10.14 5.07,20.27l0 0c0,20.27 5.06,30.41 10.13,30.41 0,0 10.14,-5.07 15.2,-15.21l0 5.07c-5.06,15.2 -15.2,20.27 -25.33,20.27l-5.07 0 0 0 0 0c-10.13,-5.07 -15.2,-15.2 -20.27,-25.34 0,0 0,-5.06 0,-10.13l0 -5.07c0,0 -5.07,0 -5.07,0 0,0 5.07,0 5.07,0 -5.07,-25.33 -5.07,-40.53 -5.07,-45.6 -5.06,0 -10.13,10.13 -20.26,20.27 -10.14,15.2 -15.21,30.4 -15.21,50.67l0 0c0,5.07 0,10.13 0,15.2 -5.06,0 -5.06,0 -5.06,0 0,0 -5.07,0 -10.14,0l0 0 0 5.07 0 -5.07 5.07 0 0 0 -5.07 10.13 0 0c0,0 -5.06,-5.06 -5.06,-10.13l0 0 0 5.07 -5.07 0c0,-5.07 0,-5.07 0,-15.2l0 0c0,0 0,-5.07 0,-5.07l0 0 5.07 0 0 0c-5.07,0 -5.07,0 -5.07,-5.07l0 0c0,0 0,-5.07 0,-5.07l0 -5.06 0 -5.07 0 -5.07c0,0 0,-5.06 0,-5.06l0 0 0 0c0,-5.07 0,-15.21 5.07,-35.47l5.06 -20.27c-5.06,0 -5.06,0 -5.06,0 5.06,-5.07 5.06,-5.07 5.06,-5.07l0 0c0,-5.07 5.07,-20.27 10.14,-50.67l0 0c0,0 0,0 0,0 5.06,-25.34 5.06,-35.47 5.06,-40.54l0 -5.06c0,0 0,-5.07 0,-5.07l5.07 0 0 0c0,0 5.07,-5.07 5.07,-5.07 0,5.07 0,5.07 0,10.14l5.07 0c0,-5.07 0,-5.07 0,-5.07l0 0c5.06,0 5.06,-5.07 5.06,-5.07zm-15.2 25.34c0,10.13 -5.07,25.33 -5.07,50.67l0 0 0 -5.07 0 -5.07 -5.06 0c0,0 0,0 0,0 0,0 0,5.07 0,5.07 -5.07,25.34 -10.14,40.54 -10.14,40.54 0,0 0,0 0,0l-5.06 55.74c0,0 0,0 0,0 0,5.06 -5.07,10.13 -5.07,15.2l0 5.06 5.07 0c0,-20.26 5.06,-35.47 5.06,-40.53 0,0 0,0 0,0 0,-5.07 5.07,-15.2 10.14,-35.47 -5.07,-5.07 -5.07,-5.07 -5.07,-5.07 0,0 5.07,-5.07 5.07,-5.07l0 0 0 5.07 0 0c0,0 0,-5.07 0,-10.13 0,0 0,0 0,-5.07l0 0 0 0 0 0c0,0 5.06,-5.07 10.13,-25.34 0,-5.06 0,-10.13 0,-15.2 0,-5.06 0,-5.06 0,-5.06l0 -5.07 0 -10.14 5.07 -5.06 -5.07 0zm15.2 5.06l0 5.07 0 0 0 -10.13c0,0 0,0 0,5.06zm0 20.27l0 5.07 0 5.07 0 0c0,-5.07 0,-5.07 5.07,-5.07 -5.07,0 -5.07,-5.07 -5.07,-5.07l0 0zm-20.27 25.34l0 0 0 0c-5.06,5.07 -5.06,10.13 -5.06,10.13l0 0c0,-5.06 5.06,-10.13 5.06,-10.13zm0 30.4l0 5.07 0 0 0 0 5.07 -5.07 0 0 -5.07 0zm0 5.07l-5.06 20.27 5.06 0 0 -15.2 0 -5.07zm45.61 10.13c0,0 0,0 0,0 0,5.07 5.07,5.07 5.07,5.07l0 0c0,-5.07 0,-5.07 -5.07,-5.07zm-50.67 10.14l0 0c0,0 0,0 0,-5.07 0,0 0,5.07 0,5.07zm-5.07 5.06c0,10.14 0,15.2 0,15.2l0 0c0,0 0,-5.06 5.07,-15.2l0 0 -5.07 0zm55.74 10.14c0,0 0,5.06 0,10.13l0 0 0 -5.07 0 -5.06 0 0zm5.07 5.06l0 15.21 5.06 5.06 -5.06 0c5.06,15.2 5.06,25.34 10.13,25.34l0 0c0,-5.07 0,-5.07 0,-5.07 0,-5.07 0,-5.07 0,-5.07 -5.07,0 -5.07,-5.06 -5.07,-15.2l0 0c0,-10.13 0,-15.2 0,-15.2 0,0 0,0 0,-5.07l0 0c0,0 0,0 -5.06,0zm10.13 10.14l0 0 0 0c0,0 0,5.07 0,5.07l0 5.06c0,0 0,0 0,0 0,0 0,5.07 0,5.07l0 0 0 -15.2c0,0 0,0 0,0zm-15.2 0c0,0 0,5.07 0,10.13l0 0c0,0 0,0 5.07,-5.06l0 0c0,5.06 0,10.13 0,15.2l0 0c0,0 0,5.06 0,5.06l5.06 0c-5.06,0 -5.06,-5.06 -5.06,-5.06l5.06 0c-5.06,-10.14 -5.06,-15.2 -5.06,-15.2 -5.07,-5.07 -5.07,-5.07 -5.07,-5.07zm-55.74 20.27l0 0 0 0 0 -10.14c0,0 0,5.07 0,10.14zm70.94 -5.07l0 0c0,15.2 0,20.27 5.07,20.27l0 0c-5.07,-10.14 -5.07,-15.2 -5.07,-20.27l0 0zm-81.07 40.54l0 0 0 5.06 0 0 0 -5.06z"/>
  <path id="_2" class="fil21" d="M10928 8182.76l0 0c0,0 0,0 0,0 15.21,5.07 25.34,5.07 25.34,10.14l0 0c-5.07,0 -5.07,0 -5.07,0l0 0c-10.13,0 -15.2,5.06 -15.2,5.06l-5.07 0c0,0 -5.06,0 -5.06,-5.06 -5.07,0 -5.07,0 -5.07,0 -5.07,0 -10.13,0 -15.2,5.06l0 5.07 -5.07 -5.07c0,5.07 0,5.07 -5.07,10.14 0,5.06 -5.06,10.13 -10.13,15.2 -5.07,5.07 -5.07,10.13 -5.07,15.2 0,5.07 0,5.07 0,10.13l0 0c0,5.07 5.07,10.14 10.14,15.21 10.13,-5.07 15.2,-5.07 15.2,-10.14 5.07,0 10.13,-10.13 15.2,-30.4 0,0 0,-5.07 0,-10.14l0 -5.06 0 0c10.13,0 15.2,0 20.27,-5.07l5.07 0 0 5.07c0,5.06 -5.07,15.2 -5.07,25.33l0 0 0 0c0,0 0,5.07 0,5.07 0,0 0,5.07 0,15.2 0,0 0,0 0,0 5.07,0 5.07,0 5.07,0 0,0 0,0 -5.07,0 5.07,5.07 5.07,5.07 5.07,10.14l10.13 0 15.2 -15.21 5.07 -5.06 5.07 0 0 5.06 -5.07 5.07 0 0c0,0 5.07,0 5.07,5.07l0 0c-5.07,5.07 -10.14,10.13 -20.27,15.2 -5.07,5.07 -15.2,10.13 -20.27,10.13 0,0 -10.14,-10.13 -20.27,-20.26l0 0 5.07 -5.07 0 0c-20.27,15.2 -30.41,20.27 -40.54,20.27 0,0 -5.07,0 -10.13,0 -10.14,0 -20.27,-5.07 -20.27,-10.14 0,0 0,-5.06 0,-15.2 0,-5.07 0,-15.2 0,-20.27l0 0c0,-5.06 5.07,-5.06 5.07,-5.06l0 -5.07c0,-10.14 10.13,-15.2 25.33,-25.34 15.2,-10.13 30.4,-15.2 45.6,-15.2zm-60.8 35.47l-5.07 5.07 0 0c0,0 5.07,0 5.07,0 0,0 0,0 0,-5.07 0,0 0,0 0,0 0,0 0,0 0,0l0 0zm-5.07 10.14l0 5.06 0 5.07c0,0 0,-5.07 0,-5.07l0 -5.06 0 0zm60.81 5.06c0,5.07 0,5.07 0,5.07l0 5.07 0 0 0 -10.14 0 0zm0 15.2l0 0c5.06,-5.06 5.06,-10.13 5.06,-10.13 0,0 0,5.07 -5.06,10.13zm-50.67 -5.06l0 5.06 0 0 0 0 0 -5.06 0 0zm-15.2 5.06l0 10.14c5.06,0 5.06,0 5.06,5.07l0 0 0 -5.07c0,0 0,-5.07 -5.06,-10.14l0 0zm60.8 10.14l0 0 0 0c5.07,-5.07 10.13,-5.07 10.13,-5.07l0 0 -5.06 0c0,0 -5.07,5.07 -5.07,5.07z"/>
  <path id="_3" class="fil21" d="M11019.21 8167.56c0,0 0,0 5.07,5.07 -10.13,10.13 -15.2,35.47 -20.27,76l0 10.14c0,0 0,5.07 0,5.07 5.07,0 15.2,-15.21 30.4,-45.61 5.07,-20.27 10.14,-35.47 15.21,-40.53l0 0 5.06 0c0,0 5.07,0 10.14,0 0,0 0,0 0,0l10.13 0 0 0c-5.07,10.13 -10.13,30.4 -15.2,60.8 0,0 0,0 0,5.07l0 0 0 0 0 0c0,0 0,0 0,0 5.07,10.13 5.07,15.2 5.07,20.27l5.06 0c5.07,0 10.14,-10.14 25.34,-25.34 0,0 0,5.07 0,5.07l-5.07 5.06 0 0c5.07,0 5.07,0 10.14,0l0 0 -5.07 5.07 5.07 0c-10.14,15.2 -25.34,20.27 -35.47,20.27 0,0 0,5.07 -5.07,5.07 -15.2,-5.07 -20.27,-10.14 -20.27,-15.2 0,0 -5.07,-5.07 -5.07,-15.21 -15.2,20.27 -25.33,30.41 -35.47,30.41 0,0 -5.06,0 -5.06,0 -15.2,0 -20.27,-5.07 -20.27,-15.2l0 0c0,0 -5.07,-5.07 -5.07,-15.21 5.07,-15.2 5.07,-25.33 10.14,-30.4 0,-15.2 5.06,-25.33 10.13,-25.33l0 -5.07c0,-10.13 5.07,-15.2 5.07,-20.27l5.06 0 0 5.07 5.07 0c5.07,-5.07 10.14,-5.07 15.2,-5.07zm-5.06 5.07l-5.07 15.2 0 0c5.07,-5.07 5.07,-10.13 5.07,-15.2l0 0 0 0zm-20.27 35.47l0 0 5.06 -20.27 0 0c0,0 0,5.07 -5.06,20.27zm60.8 -15.2c-5.06,10.13 -5.06,15.2 -5.06,20.26l0 0 5.06 -20.26 0 0zm-50.67 5.06c0,5.07 0,10.14 0,10.14l0 0c0,0 5.07,0 5.07,-10.14l-5.07 0zm40.54 5.07c0,0 0,5.07 -5.07,5.07l-10.13 25.33 0 0 0 0c5.06,-5.06 10.13,-15.2 15.2,-20.27 0,0 0,0 0,0l0 -5.06c0,0 0,-5.07 0,-5.07l0 0zm10.13 5.07c-5.06,10.13 -5.06,15.2 -5.06,15.2l0 5.07c0,5.06 0,5.06 0,5.06l0 0 0 5.07 0 0 0 0c0,0 0,-5.07 5.06,-10.13l0 0c0,-5.07 0,-10.14 0,-20.27l0 0zm-65.87 0c-5.07,5.06 -5.07,5.06 -5.07,5.06l0 5.07 5.07 0c0,-5.07 0,-5.07 0,-10.13l0 0zm5.07 5.06c0,0 0,0 0,-5.06 0,0 0,5.06 0,5.06zm50.67 5.07l0 0 0 0c0,0 0,0 5.07,-5.07 -5.07,0 -5.07,0 -5.07,5.07zm-5.07 15.2c0,0 -5.07,5.07 -10.13,15.2l0 0 5.06 -5.06c0,0 0,0 0,0 5.07,0 5.07,-5.07 5.07,-10.14l0 0 0 0zm-50.67 0l0 0 0 5.07 0 0 0 10.13 0 0c0,-5.06 0,-5.06 5.07,-10.13l-5.07 0 5.07 -5.07c0,0 -5.07,0 -5.07,0zm65.87 5.07c0,5.07 0,5.07 0,5.07 0,0 0,5.06 0,10.13l0 0 0 0 0 -5.07c0,-5.06 0,-10.13 0,-10.13l0 0 0 0zm-5.06 0c0,0 -5.07,0 -5.07,5.07l5.07 10.13 0 0 0 -10.13c0,-5.07 0,-5.07 0,-5.07zm-70.94 5.07l0 10.13c0,0 5.06,5.07 5.06,10.14 0,0 0,0 0,0 0,5.06 0,5.06 5.07,10.13l0 0 5.07 0c0,0 -5.07,-5.07 -5.07,-5.07 -5.07,-10.13 -5.07,-15.2 -5.07,-20.27l0 -5.06 0 0 -5.06 0zm60.8 0c0,0 0,0 0,0l0 5.06 0 0c0,10.14 5.07,15.21 10.14,15.21 -5.07,-5.07 -5.07,-5.07 -5.07,-10.14l0 0 0 0 0 0 0 0c0,0 0,-5.07 0,-5.07 0,0 0,-5.06 0,-5.06l-5.07 0zm-60.8 10.13c0,0 0,5.07 -5.07,5.07 5.07,0 5.07,5.07 5.07,5.07l0 0 0 0 0 -10.14 0 0zm76 5.07l0 0c0,5.07 0,10.13 5.07,10.13l5.07 0 0 0c-5.07,0 -5.07,0 -5.07,-5.06 0,0 -5.07,0 -5.07,-5.07z"/>
  <path id="_4" class="fil21" d="M11120.55 8157.43c30.41,0 50.68,5.06 60.81,20.27 0,5.06 0,10.13 0,15.2 0,5.06 -5.07,20.26 -10.13,40.53 0,0 0,5.07 -5.07,10.14l0 10.13c5.07,5.07 5.07,10.14 5.07,10.14 5.06,0 10.13,-5.07 20.26,-15.21 5.07,-5.06 5.07,-10.13 10.14,-10.13l-5.07 10.13 0 0c0,0 5.07,0 5.07,-5.06l5.07 0 0 0 -5.07 5.06 0 0 5.07 0c-15.21,20.27 -30.41,30.41 -50.68,30.41 -15.2,-5.07 -20.26,-5.07 -20.26,-10.14 0,0 0,-5.06 -5.07,-10.13 0,-15.2 5.07,-40.54 20.27,-70.94l0 -5.07c0,-5.06 -5.07,-5.06 -20.27,-5.06 -10.14,0 -10.14,0 -10.14,5.06 0,0 0,0 0,0l0 5.07c0,5.07 0,5.07 0,5.07 -15.2,5.06 -20.26,5.06 -20.26,5.06l-5.07 0c0,0 0,0 0,-10.13 0,0 -5.07,0 -5.07,-5.07 0,-10.13 5.07,-15.2 15.2,-20.27 5.07,0 10.14,-5.06 15.2,-5.06zm-10.13 20.27l0 0c5.07,-5.07 5.07,-5.07 10.13,-5.07l0 0c-5.06,0 -10.13,5.07 -10.13,5.07zm-5.07 5.06l0 5.07c0,0 0,0 0,0l5.07 0c0,0 0,0 0,0 0,-5.07 0,-5.07 -5.07,-5.07zm50.67 10.14c-5.06,5.06 -5.06,10.13 -5.06,10.13l0 0c5.06,0 5.06,-5.07 5.06,-10.13l0 0 0 0zm10.14 0c-5.07,15.2 -10.14,25.33 -10.14,25.33 5.07,0 5.07,-5.07 10.14,-20.27l0 -5.06zm-10.14 5.06c0,5.07 0,10.14 0,15.2l0 0c0,0 0,-5.06 5.07,-15.2l-5.07 0zm15.21 10.14l0 -5.07c0,5.07 0,5.07 0,5.07 0,0 0,0 0,0 0,5.06 0,5.06 -5.07,5.06l5.07 5.07c0,0 -5.07,5.07 -5.07,5.07l0 5.07 0 0c5.07,-15.21 10.13,-25.34 10.13,-30.41l0 0c0,0 -5.06,5.07 -5.06,10.14zm-15.21 15.2c-5.06,5.07 -5.06,10.13 -5.06,10.13l5.06 0c0,0 0,-5.06 0,-10.13l0 0zm-15.2 5.07c-5.06,15.2 -5.06,20.26 -5.06,20.26 5.06,0 5.06,0 5.06,5.07 0,0 -5.06,5.07 -5.06,5.07 5.06,0 5.06,0 5.06,0l0 0 0 -10.14 0 0c0,0 0,-10.13 0,-20.26l0 0zm20.27 15.2c0,5.06 0,5.06 0,5.06l0 0c0,0 0,-5.06 5.07,-5.06l0 0 0 -10.14c0,0 -5.07,5.07 -5.07,10.14zm-5.07 10.13l0 0 0 5.07 5.07 0c0,0 0,0 0,-5.07l-5.07 0zm-5.06 10.14l0 0c0,5.06 0,5.06 0,5.06l0 0 0 0c0,-5.06 0,-5.06 0,-5.06z"/>
  <path id="_5" class="fil21" d="M11232.03 8157.43c0,0 0,5.06 0,5.06l5.07 -5.06 0 0c0,0 5.06,0 5.06,5.06l0 10.14c0,5.07 -5.06,15.2 -15.2,40.53 -5.06,15.21 -5.06,20.27 -5.06,30.41 0,5.06 0,10.13 0,15.2l5.06 0c5.07,-5.07 10.14,-20.27 20.27,-45.61 10.14,-20.26 15.2,-35.46 15.2,-35.46 0,-10.14 10.14,-15.21 20.27,-15.21 0,0 0,0 5.07,0l0 5.07c0,5.07 -5.07,25.34 -10.14,55.74 -5.06,10.13 -5.06,15.2 -5.06,15.2l5.06 5.07 0 0c0,0 5.07,-5.07 10.14,-15.2 0,0 5.07,-5.07 15.2,-15.21l5.07 -25.33c0,-10.13 10.13,-20.27 30.4,-25.34l0 0 0 5.07 0 5.07c0,5.07 -5.07,20.27 -10.13,50.67 -5.07,5.07 -5.07,5.07 -5.07,10.13l0 10.14c5.07,5.06 5.07,10.13 5.07,10.13 5.06,0 15.2,-10.13 30.4,-30.4l0 0 0 0c0,5.07 -5.07,10.13 -5.07,10.13l5.07 0c0,-5.06 5.07,-5.06 5.07,-10.13l0 0 0 5.07c0,0 0,5.06 -5.07,10.13l5.07 0 5.06 -5.07 5.07 0c0,0 0,5.07 -5.07,5.07l0 0 0 0c-10.13,10.13 -20.27,20.27 -30.4,25.34 -10.13,5.06 -10.13,5.06 -15.2,10.13l0 0c0,-5.07 -5.07,-5.07 -15.2,-5.07 -5.07,-5.06 -10.14,-10.13 -10.14,-20.27l-5.06 -5.06c-10.14,20.27 -15.21,25.33 -25.34,25.33l-10.13 0c0,0 -5.07,-5.06 -10.14,-10.13 0,-5.07 0,-5.07 0,-5.07 -5.07,10.14 -15.2,15.2 -30.4,20.27l-5.07 0 0 0c0,0 -5.06,0 -5.06,0 -10.14,0 -15.21,-5.07 -15.21,-20.27l0 -10.13c0,0 0,-5.07 0,-5.07l0 0c5.07,-20.27 10.14,-35.47 15.21,-55.74 5.06,-5.06 10.13,-10.13 10.13,-20.27l0 0c0,0 5.07,0 5.07,5.07 0,0 5.06,-5.07 10.13,-10.13l0 0zm96.28 15.2l0 5.07 0 0 0 -5.07 0 0zm-60.81 20.27l0 5.06c0,0 0,-10.13 5.07,-20.26 0,0 -5.07,5.06 -5.07,15.2zm-40.54 -15.2c0,0 -5.06,5.06 -5.06,15.2 -10.14,10.13 -10.14,20.26 -10.14,20.26l0 0 0 0c0,0 5.07,-10.13 10.14,-25.33 5.06,0 5.06,-5.07 5.06,-10.13l0 0zm35.47 5.06l-5.06 20.27 0 0 0 0c0,0 5.06,-10.13 10.13,-20.27l-5.07 0zm-45.6 5.07l0 0 0 0c0,0 5.07,0 5.07,-5.07l0 0c-5.07,0 -5.07,0 -5.07,5.07zm106.41 10.13l-5.07 0 0 5.07 5.07 0 0 -5.07 0 0 0 0zm-101.34 0c0,0 0,5.07 0,5.07l0 5.07 0 0 0 -10.14 0 0zm91.2 0c0,5.07 -5.06,10.14 -10.13,20.27l5.07 0 0 0 5.06 -20.27 0 0zm5.07 15.2l5.07 0c0,0 0,-5.06 5.07,-15.2l0 0c-5.07,0 -5.07,5.07 -10.14,15.2zm-50.67 -15.2c-5.07,5.07 -5.07,5.07 -5.07,10.14 -5.06,0 -5.06,0 -5.06,-5.07 0,0 0,5.07 -5.07,15.2l0 0c5.07,0 5.07,0 5.07,-10.13 0,0 0,0 5.06,5.06 -5.06,0 -5.06,5.07 -5.06,15.21l0 0c0,0 5.06,-10.14 10.13,-30.41l0 0zm-55.74 20.27c-5.06,5.07 -5.06,10.14 -5.06,10.14 5.06,0 5.06,-5.07 5.06,-10.14l0 0 0 0zm96.28 5.07c0,0 0,5.07 0,5.07l0 -5.07 0 0c0,5.07 0,5.07 0,10.13 0,0 0,-5.06 0,-10.13l0 0 0 0zm-101.34 20.27c0,5.06 0,15.2 0,20.27l5.06 0c-5.06,-5.07 -5.06,-10.14 -5.06,-15.21l0 -5.06c0,-5.07 0,-5.07 0,-5.07 0,0 0,0 0,0 0,0 0,-5.07 5.06,-10.13l-5.06 0c0,0 0,5.06 0,15.2zm35.46 0l0 0c0,0 5.07,-5.07 10.14,-15.2l0 0c0,0 -5.07,5.06 -10.14,15.2zm15.21 -15.2c0,0 -5.07,5.06 -5.07,5.06l0 0 5.07 -5.06 0 0 0 0zm10.13 5.06c0,5.07 0,10.14 0,10.14 0,5.06 0,5.06 0,5.06l0 0 0 -15.2 0 0zm25.34 0c0,0 0,5.07 -5.07,5.07l0 0 5.07 0c0,0 0,0 0,-5.07l0 0 0 0zm15.2 5.07c0,5.07 0,10.13 5.06,10.13l0 0c-5.06,-5.06 -5.06,-10.13 -5.06,-10.13 0,0 0,0 0,0zm5.06 0c5.07,10.13 5.07,15.2 10.14,15.2l0 0c-5.07,-5.07 -5.07,-10.13 -5.07,-15.2l-5.07 0zm-116.54 5.07l0 10.13c0,5.07 5.07,10.14 5.07,10.14l0 0c0,0 0,-10.14 -5.07,-15.21l5.07 0c-5.07,0 -5.07,-5.06 -5.07,-5.06l0 0zm76.01 10.13c0,0 5.06,0 5.06,0 0,0 5.07,-5.07 15.21,-10.13 -10.14,5.06 -15.21,10.13 -20.27,10.13zm-15.2 -10.13c0,0 0,5.06 0,10.13 0,0 0,5.07 5.06,5.07l0 0c-5.06,-5.07 -5.06,-10.14 -5.06,-15.2l0 0zm50.67 10.13c0,0 0,0 -5.07,0 5.07,5.07 5.07,5.07 10.13,5.07 0,0 0,0 0,0 0,0 0,-5.07 -5.06,-5.07zm15.2 5.07c0,0 0,0 5.07,0l0 0c0,0 0,0 0,0 0,0 0,0 -5.07,0zm-111.48 0l0 0c0,5.07 0,5.07 5.07,5.07l0 0 -5.07 -5.07 0 0zm-5.06 5.07c0,5.06 0,5.06 0,5.06l5.06 0 0 0c-5.06,0 -5.06,0 -5.06,-5.06l0 0z"/>
  <path id="_6" class="fil21" d="M11429.65 8182.76l0 0c0,0 0,0 0,0 15.2,5.07 20.27,5.07 20.27,10.14l0 0c0,0 0,0 0,0l-5.07 0c-10.14,0 -15.2,5.06 -15.2,5.06l0 0c-5.07,0 -5.07,0 -10.14,-5.06 0,0 0,0 0,0 -5.06,0 -10.13,0 -20.27,5.06l0 5.07 0 -5.07c0,5.07 -5.06,5.07 -10.13,10.14 0,5.06 0,10.13 -5.07,15.2 -5.06,5.07 -5.06,10.13 -5.06,15.2 0,5.07 0,5.07 0,10.13l0 0c0,5.07 0,10.14 5.06,15.21 15.2,-5.07 20.27,-5.07 20.27,-10.14 5.07,0 5.07,-10.13 15.2,-30.4 0,0 -5.06,-5.07 -5.06,-10.14l0 -5.06 5.06 0c10.14,0 15.2,0 15.2,-5.07l10.14 0 0 5.07c-5.07,5.06 -5.07,15.2 -5.07,25.33l0 0 0 0c0,0 0,5.07 0,5.07 0,0 0,5.07 0,15.2 0,0 0,0 0,0 0,0 0,0 0,0 0,0 0,0 0,0 5.07,5.07 5.07,5.07 5.07,10.14l10.13 0 15.2 -15.21 5.07 -5.06 0 0 0 5.06 -5.07 5.07 0 0c5.07,0 5.07,0 5.07,5.07l0 0c0,5.07 -5.07,10.13 -15.2,15.2 -10.13,5.07 -15.2,10.13 -20.27,10.13 -5.07,0 -10.13,-10.13 -20.27,-20.26l0 0 0 -5.07 0 0c-15.2,15.2 -30.4,20.27 -35.47,20.27 -5.06,0 -5.06,0 -10.13,0 -15.2,0 -20.27,-5.07 -20.27,-10.14 0,0 0,-5.06 -5.07,-15.2 0,-5.07 5.07,-15.2 5.07,-20.27l0 0c0,-5.06 0,-5.06 5.07,-5.06l0 -5.07c0,-10.14 5.07,-15.2 25.33,-25.34 15.2,-10.13 30.41,-15.2 45.61,-15.2zm-60.81 35.47l-5.06 5.07 0 0c0,0 0,0 0,0 0,0 5.06,0 5.06,-5.07 0,0 0,0 0,0 0,0 0,0 0,0l0 0zm-5.06 10.14l0 5.06 0 5.07c0,0 0,-5.07 0,-5.07l0 -5.06 0 0zm60.8 5.06c0,5.07 0,5.07 -5.07,5.07l0 5.07 0 0 5.07 -10.14 0 0zm0 15.2l0 0c5.07,-5.06 5.07,-10.13 5.07,-10.13 0,0 -5.07,5.07 -5.07,10.13zm-55.74 -5.06l0 5.06 5.07 0 0 0 -5.07 -5.06 0 0zm-10.13 5.06l0 10.14c0,0 0,0 0,5.07l5.07 0 0 -5.07c0,0 -5.07,-5.07 -5.07,-10.14l0 0zm60.8 10.14l0 0 0 0c5.07,-5.07 5.07,-5.07 5.07,-5.07l0 0 0 0c-5.07,0 -5.07,5.07 -5.07,5.07z"/>
  <path class="fil2" d="M9215.38 8358.89c55.73,0 101.34,35.47 101.34,81.08 0,45.6 -45.61,86.14 -101.34,86.14 -55.74,0 -96.28,-40.54 -96.28,-86.14 0,-45.61 40.54,-81.08 96.28,-81.08z"/>
  <path class="fil2" d="M9215.38 9122.08c55.73,0 101.34,35.47 101.34,81.08 0,45.6 -45.61,86.14 -101.34,86.14 -55.74,0 -96.28,-40.54 -96.28,-86.14 0,-45.61 40.54,-81.08 96.28,-81.08z"/>
 </g>
</svg>
