<?xml version="1.0" encoding="UTF-8"?>
<!DOCTYPE svg PUBLIC "-//W3C//DTD SVG 1.1//EN" "http://www.w3.org/Graphics/SVG/1.1/DTD/svg11.dtd">
<!-- Creator: CorelDRAW 2017 -->
<svg xmlns="http://www.w3.org/2000/svg" xml:space="preserve" width="118.533mm" height="118.533mm" version="1.1" style="shape-rendering:geometricPrecision; text-rendering:geometricPrecision; image-rendering:optimizeQuality; fill-rule:evenodd; clip-rule:evenodd"
viewBox="0 0 11853.32 11853.32"
 xmlns:xlink="http://www.w3.org/1999/xlink">
 <defs>
  <style type="text/css">
   <![CDATA[
    .str4 {stroke:black;stroke-width:42.33;stroke-miterlimit:22.9256}
    .str2 {stroke:#4D4D4D;stroke-width:42.33;stroke-miterlimit:22.9256}
    .str0 {stroke:black;stroke-width:20;stroke-miterlimit:22.9256}
    .str3 {stroke:#1A1A1A;stroke-width:20;stroke-miterlimit:22.9256}
    .str1 {stroke:#FFCC99;stroke-width:20;stroke-miterlimit:22.9256}
    .str5 {stroke:#FFDD00;stroke-width:7.62;stroke-miterlimit:22.9256}
    .fil9 {fill:none}
    .fil8 {fill:black}
    .fil33 {fill:#003333}
    .fil30 {fill:#003399}
    .fil10 {fill:#1A1A1A}
    .fil19 {fill:#1A1A1A}
    .fil32 {fill:#333300}
    .fil26 {fill:#333300}
    .fil2 {fill:#333333}
    .fil3 {fill:#4D4D4D}
    .fil0 {fill:#660066}
    .fil11 {fill:#666666}
    .fil5 {fill:#669999}
    .fil25 {fill:#669999}
    .fil16 {fill:#6B231C}
    .fil36 {fill:#72B3B3}
    .fil13 {fill:#990000}
    .fil31 {fill:#999933}
    .fil17 {fill:#A30026}
    .fil4 {fill:#B3B3B3}
    .fil21 {fill:#B3B3B3}
    .fil14 {fill:#BD0006}
    .fil15 {fill:#CC0007}
    .fil35 {fill:#CC3366}
    .fil28 {fill:#CCCC33}
    .fil20 {fill:#CCCCCC}
    .fil18 {fill:#E6E6E6}
    .fil7 {fill:#FCD5A6}
    .fil12 {fill:red}
    .fil22 {fill:red}
    .fil1 {fill:#FFCC99}
    .fil29 {fill:#FFDD00}
    .fil6 {fill:white}
    .fil27 {fill:white}
    .fil34 {fill:#E6E6E6;fill-rule:nonzero}
    .fil23 {fill:#FFDD00;fill-rule:nonzero}
    .fil24 {fill:yellow;fill-rule:nonzero}
   ]]>
  </style>
   <clipPath id="id0">
    <path d="M3364.84 7819.82l69.16 0 0 -15.95 -69.16 0 0 15.95z"/>
   </clipPath>
   <clipPath id="id1">
    <path d="M3378.14 7806.52l69.16 0 0 -15.95 -69.16 0 0 15.95z"/>
   </clipPath>
   <clipPath id="id2">
    <path d="M3390.4 7794.41l57.27 0 0 -17.56 -57.27 0 0 17.56z"/>
   </clipPath>
   <clipPath id="id3">
    <path d="M3391.44 7779.93l69.15 0 0 -15.96 -69.15 0 0 15.96z"/>
   </clipPath>
   <clipPath id="id4">
    <path d="M3404.74 7766.63l69.14 0 0 -15.96 -69.14 0 0 15.96z"/>
   </clipPath>
   <clipPath id="id5">
    <path d="M3418.03 7753.33l69.16 0 0 -15.95 -69.16 0 0 15.95z"/>
   </clipPath>
   <clipPath id="id6">
    <path d="M3430.21 7741.03l57.27 0 0 -17.5 -57.27 0 0 17.5z"/>
   </clipPath>
   <clipPath id="id7">
    <path d="M3431.34 7726.74l69.15 0 0 -15.96 -69.15 0 0 15.96z"/>
   </clipPath>
   <clipPath id="id8">
    <path d="M1427.36 7850.7l70.56 0 0 -17.56 -70.56 0 0 17.56z"/>
   </clipPath>
   <clipPath id="id9">
    <path d="M3444.63 7713.43l69.16 0 0 -15.95 -69.16 0 0 15.95z"/>
   </clipPath>
   <clipPath id="id10">
    <path d="M3456.73 7701.02l57.29 0 0 -17.55 -57.29 0 0 17.55z"/>
   </clipPath>
   <clipPath id="id11">
    <path d="M3471.23 7686.84l42.56 0 0 -15.96 -42.56 0 0 15.96z"/>
   </clipPath>
   <clipPath id="id12">
    <path d="M1427.36 7810.71l44.01 0 0 -17.55 -44.01 0 0 17.55z"/>
   </clipPath>
   <clipPath id="id13">
    <path d="M3470.02 7674.38l30.74 0 0 -17.55 -30.74 0 0 17.55z"/>
   </clipPath>
   <clipPath id="id14">
    <path d="M3471.23 7660.24l15.96 0 0 -15.96 -15.96 0 0 15.96z"/>
   </clipPath>
   <clipPath id="id15">
    <path d="M3456.73 7647.69l17.48 0 0 -30.88 -17.48 0 0 30.88z"/>
   </clipPath>
   <clipPath id="id16">
    <path d="M3444.63 7620.34l15.96 0 0 -15.96 -15.96 0 0 15.96z"/>
   </clipPath>
   <clipPath id="id17">
    <path d="M3187.51 7921.13l75.8 0 0 -17.54 -75.8 0 0 17.54z"/>
   </clipPath>
   <clipPath id="id18">
    <path d="M3201.77 7907.8l61.54 0 0 -30.88 -61.54 0 0 30.88z"/>
   </clipPath>
   <clipPath id="id19">
    <path d="M3216.04 7881.17l47.27 0 0 -17.55 -47.27 0 0 17.55z"/>
   </clipPath>
 </defs>
 <g id="Layer_x0020_1">
  <metadata id="CorelCorpID_0Corel-Layer"/>
  <polygon class="fil0" points="9624.13,6337.89 9624.13,7969.87 6193.82,7969.87 6193.82,6337.89 "/>
  <path class="fil1" d="M7855.78 1483.77c623.25,0 1124.84,501.65 1124.84,1124.85 0,618.19 -501.64,1119.78 -1124.84,1119.78 -623.26,0 -1129.92,-501.64 -1129.92,-1119.78 0,-623.25 506.71,-1124.85 1129.92,-1124.85z"/>
  <path class="fil2" d="M7870.98 1483.77c694.19,-15.2 1185.65,749.94 1104.57,1236.33 -5.06,60.8 -15.2,552.31 -15.2,481.37 -10.13,-319.23 -1297.12,-1221.12 -1449.14,-1464.34 -60.8,76.01 -602.98,471.24 -719.52,496.58 146.94,-450.98 582.71,-749.94 1079.24,-749.94l0.05 0z"/>
  <polygon class="fil0" points="6872.81,4002.06 7217.32,4002.06 7217.32,4290.84 7749.37,4138.87 7982.45,4138.87 8514.5,4290.84 8514.5,4002.06 8884.34,4002.06 8975.54,5582.95 6872.81,5466.4 "/>
  <path class="fil0" d="M6604.25 3991.93l344.57 10.13 937.36 1276.86 937.36 -1276.86 354.7 -10.13c233.09,-5.07 425.64,197.62 425.64,435.77l0 2295.34 -3425.25 0 0 -2295.34c0,-238.15 192.55,-440.84 425.63,-435.77l-0.01 0z"/>
  <polygon class="fil0" points="9603.87,5294.12 9603.87,6104.81 6178.62,6104.81 6178.62,5294.12 "/>
  <path class="fil0" d="M7050.11 4143.94l597.92 810.74 -1469.41 0 0 -526.98c0,-106.41 35.47,-207.75 101.34,-283.76l770.2 0 -0.05 0zm1074.22 810.69l597.92 -810.74 780.33 0c65.88,76.01 101.35,177.35 101.35,283.76l0 526.98 -1479.55 0 -0.05 0z"/>
  <path class="fil3 str0" d="M7008.89 1969.56l713.48 0c106.62,0 193.08,86.46 193.08,193.08l0 0c0,106.62 -86.46,193.08 -193.08,193.08l-713.48 0c-106.62,0 -193.08,-86.46 -193.08,-193.08l0 0c0,-106.62 86.46,-193.08 193.08,-193.08z"/>
  <path class="fil3 str0" d="M6554.26 2162.65l1494.08 0c80.1,0 145.06,59.63 145.06,133.15l0 958.66c0,73.52 -64.96,133.15 -145.06,133.15l-1494.08 0c-80.1,0 -145.06,-59.63 -145.06,-133.15l0 -958.66c0,-73.52 64.96,-133.15 145.06,-133.15z"/>
  <rect class="fil3 str0" x="7027.84" y="651.92" width="686.23" height="1291.04"/>
  <rect class="fil4 str0" x="7098.06" y="680.99" width="546.21" height="267.51"/>
  <ellipse class="fil5 str0" cx="7387.59" cy="2728.54" rx="505.71" ry="499.31"/>
  <rect class="fil4 str0" x="6708.8" y="2162.64" width="106.48" height="1224.98"/>
  <path class="fil0 str0" d="M5903.83 2656.22l587.04 0c62.96,0 114.47,51.52 114.47,114.47l0 1776c0,224.41 -183.58,407.99 -407.99,407.99l-293.52 0c-62.95,0 -114.47,-51.51 -114.47,-114.47l0 -2069.52c0,-62.95 51.52,-114.47 114.47,-114.47z"/>
  <path class="fil1 str1" d="M6081.6 2295.8l251.56 0c41.98,0 76.02,17.87 76.02,39.9l0 280.63c0,22.03 -34.04,39.9 -76.02,39.9l-251.56 0c-41.97,0 -76.01,-17.87 -76.01,-39.9l-0.01 -280.63c0.01,-22.03 34.05,-39.9 76.02,-39.9z"/>
  <path class="fil0 str0" d="M7713.23 3447.86l339.28 -208.73c61.87,-38.07 142.91,-18.76 180.97,43.11l1221.8 1986.01c38.07,61.87 18.77,142.9 -43.1,180.97l-339.29 208.72c-61.86,38.07 -142.9,18.76 -180.96,-43.11l-1221.82 -1986.01c-38.05,-61.87 -18.74,-142.91 43.12,-180.97z"/>
  <rect class="fil6" x="1217.63" y="7348.1" width="2212.38" height="3229.57"/>
  <path class="fil7" d="M2352.09 4710.48c730.17,0 1321.99,591.91 1321.99,1322.13 0,730.1 -591.82,1322.01 -1321.99,1322.01 -57.51,0 -114.17,-3.68 -169.75,-10.81 -649.98,-83.31 -1152.31,-638.59 -1152.31,-1311.2 0,-730.25 591.88,-1322.11 1322.06,-1322.13z"/>
  <path class="fil8" d="M2352.09 4710.48c596.72,0 1100.86,395.38 1265.32,938.4 23.25,265.42 -1352.83,-131.43 -1687.97,-648.21 -70.99,91.49 -695.05,586.14 -832.48,615.63 174.45,-526.27 670.4,-905.8 1255.13,-905.82z"/>
  <g>
  </g>
  <g style="clip-path:url(#id0)">
   <g>
   </g>
  </g>
  <polygon class="fil9" points="3364.84,7819.82 3434,7819.82 3434,7803.87 3364.84,7803.87 "/>
  <polygon class="fil9" points="3364.84,7819.82 3434,7819.82 3434,7803.87 3364.84,7803.87 "/>
  <polygon class="fil9" points="3364.84,7819.82 3434,7819.82 3434,7803.87 3364.84,7803.87 "/>
  <polygon class="fil9" points="3364.84,7819.82 3434,7819.82 3434,7803.87 3364.84,7803.87 "/>
  <g>
  </g>
  <g style="clip-path:url(#id1)">
   <g>
   </g>
  </g>
  <polygon class="fil9" points="3378.14,7806.52 3447.3,7806.52 3447.3,7790.57 3378.14,7790.57 "/>
  <polygon class="fil9" points="3378.14,7806.52 3447.3,7806.52 3447.3,7790.57 3378.14,7790.57 "/>
  <polygon class="fil9" points="3378.14,7806.52 3447.3,7806.52 3447.3,7790.57 3378.14,7790.57 "/>
  <polygon class="fil9" points="3378.14,7806.52 3447.3,7806.52 3447.3,7790.57 3378.14,7790.57 "/>
  <g>
  </g>
  <g style="clip-path:url(#id2)">
   <g>
   </g>
  </g>
  <polygon class="fil9" points="3390.4,7794.41 3447.67,7794.41 3447.67,7776.85 3390.4,7776.85 "/>
  <polygon class="fil9" points="3390.4,7794.41 3447.67,7794.41 3447.67,7776.85 3390.4,7776.85 "/>
  <polygon class="fil9" points="3390.4,7794.41 3447.67,7794.41 3447.67,7776.85 3390.4,7776.85 "/>
  <polygon class="fil9" points="3390.4,7794.41 3447.67,7794.41 3447.67,7776.85 3390.4,7776.85 "/>
  <g>
  </g>
  <g style="clip-path:url(#id3)">
   <g>
   </g>
  </g>
  <polygon class="fil9" points="3391.44,7779.93 3460.59,7779.93 3460.59,7763.97 3391.44,7763.97 "/>
  <polygon class="fil9" points="3391.44,7779.93 3460.59,7779.93 3460.59,7763.97 3391.44,7763.97 "/>
  <polygon class="fil9" points="3391.44,7779.93 3460.59,7779.93 3460.59,7763.97 3391.44,7763.97 "/>
  <polygon class="fil9" points="3391.44,7779.93 3460.59,7779.93 3460.59,7763.97 3391.44,7763.97 "/>
  <g>
  </g>
  <g style="clip-path:url(#id4)">
   <g>
   </g>
  </g>
  <polygon class="fil9" points="3404.74,7766.63 3473.88,7766.63 3473.88,7750.67 3404.74,7750.67 "/>
  <polygon class="fil9" points="3404.74,7766.63 3473.88,7766.63 3473.88,7750.67 3404.74,7750.67 "/>
  <polygon class="fil9" points="3404.74,7766.63 3473.88,7766.63 3473.88,7750.67 3404.74,7750.67 "/>
  <polygon class="fil9" points="3404.74,7766.63 3473.88,7766.63 3473.88,7750.67 3404.74,7750.67 "/>
  <g>
  </g>
  <g style="clip-path:url(#id5)">
   <g>
   </g>
  </g>
  <polygon class="fil9" points="3418.03,7753.33 3487.19,7753.33 3487.19,7737.38 3418.03,7737.38 "/>
  <polygon class="fil9" points="3418.03,7753.33 3487.19,7753.33 3487.19,7737.38 3418.03,7737.38 "/>
  <polygon class="fil9" points="3418.03,7753.33 3487.19,7753.33 3487.19,7737.38 3418.03,7737.38 "/>
  <polygon class="fil9" points="3418.03,7753.33 3487.19,7753.33 3487.19,7737.38 3418.03,7737.38 "/>
  <g>
  </g>
  <g style="clip-path:url(#id6)">
   <g>
   </g>
  </g>
  <polygon class="fil9" points="3430.21,7741.03 3487.48,7741.03 3487.48,7723.53 3430.21,7723.53 "/>
  <polygon class="fil9" points="3430.21,7741.03 3487.48,7741.03 3487.48,7723.53 3430.21,7723.53 "/>
  <polygon class="fil9" points="3430.21,7741.03 3487.48,7741.03 3487.48,7723.53 3430.21,7723.53 "/>
  <polygon class="fil9" points="3430.21,7741.03 3487.48,7741.03 3487.48,7723.53 3430.21,7723.53 "/>
  <g>
  </g>
  <g style="clip-path:url(#id7)">
   <g>
   </g>
  </g>
  <polygon class="fil9" points="3431.34,7726.74 3500.49,7726.74 3500.49,7710.78 3431.34,7710.78 "/>
  <polygon class="fil9" points="3431.34,7726.74 3500.49,7726.74 3500.49,7710.78 3431.34,7710.78 "/>
  <polygon class="fil9" points="3431.34,7726.74 3500.49,7726.74 3500.49,7710.78 3431.34,7710.78 "/>
  <polygon class="fil9" points="3431.34,7726.74 3500.49,7726.74 3500.49,7710.78 3431.34,7710.78 "/>
  <g>
  </g>
  <g style="clip-path:url(#id8)">
   <g>
   </g>
  </g>
  <polygon class="fil9" points="1427.36,7850.7 1497.92,7850.7 1497.92,7833.14 1427.36,7833.14 "/>
  <polygon class="fil9" points="1427.36,7850.7 1497.92,7850.7 1497.92,7833.14 1427.36,7833.14 "/>
  <polygon class="fil9" points="1427.36,7850.7 1497.92,7850.7 1497.92,7833.14 1427.36,7833.14 "/>
  <polygon class="fil9" points="1427.36,7850.7 1497.92,7850.7 1497.92,7833.14 1427.36,7833.14 "/>
  <g>
  </g>
  <g style="clip-path:url(#id9)">
   <g>
   </g>
  </g>
  <polygon class="fil9" points="3444.63,7713.43 3513.79,7713.43 3513.79,7697.48 3444.63,7697.48 "/>
  <polygon class="fil9" points="3444.63,7713.43 3513.79,7713.43 3513.79,7697.48 3444.63,7697.48 "/>
  <polygon class="fil9" points="3444.63,7713.43 3513.79,7713.43 3513.79,7697.48 3444.63,7697.48 "/>
  <polygon class="fil9" points="3444.63,7713.43 3513.79,7713.43 3513.79,7697.48 3444.63,7697.48 "/>
  <g>
  </g>
  <g style="clip-path:url(#id10)">
   <g>
   </g>
  </g>
  <polygon class="fil9" points="3456.73,7701.02 3514.02,7701.02 3514.02,7683.47 3456.73,7683.47 "/>
  <polygon class="fil9" points="3456.73,7701.02 3514.02,7701.02 3514.02,7683.47 3456.73,7683.47 "/>
  <polygon class="fil9" points="3456.73,7701.02 3514.02,7701.02 3514.02,7683.47 3456.73,7683.47 "/>
  <polygon class="fil9" points="3456.73,7701.02 3514.02,7701.02 3514.02,7683.47 3456.73,7683.47 "/>
  <g>
  </g>
  <g style="clip-path:url(#id11)">
   <g>
   </g>
  </g>
  <polygon class="fil9" points="3471.23,7686.84 3513.79,7686.84 3513.79,7670.88 3471.23,7670.88 "/>
  <polygon class="fil9" points="3471.23,7686.84 3513.79,7686.84 3513.79,7670.88 3471.23,7670.88 "/>
  <polygon class="fil9" points="3471.23,7686.84 3513.79,7686.84 3513.79,7670.88 3471.23,7670.88 "/>
  <polygon class="fil9" points="3471.23,7686.84 3513.79,7686.84 3513.79,7670.88 3471.23,7670.88 "/>
  <g>
  </g>
  <g style="clip-path:url(#id12)">
   <g>
   </g>
  </g>
  <polygon class="fil9" points="1427.36,7810.71 1471.37,7810.71 1471.37,7793.16 1427.36,7793.16 "/>
  <polygon class="fil9" points="1427.36,7810.71 1471.37,7810.71 1471.37,7793.16 1427.36,7793.16 "/>
  <polygon class="fil9" points="1427.36,7810.71 1471.37,7810.71 1471.37,7793.16 1427.36,7793.16 "/>
  <polygon class="fil9" points="1427.36,7810.71 1471.37,7810.71 1471.37,7793.16 1427.36,7793.16 "/>
  <g>
  </g>
  <g style="clip-path:url(#id13)">
   <g>
   </g>
  </g>
  <polygon class="fil9" points="3470.02,7674.38 3500.76,7674.38 3500.76,7656.83 3470.02,7656.83 "/>
  <polygon class="fil9" points="3470.02,7674.38 3500.76,7674.38 3500.76,7656.83 3470.02,7656.83 "/>
  <polygon class="fil9" points="3470.02,7674.38 3500.76,7674.38 3500.76,7656.83 3470.02,7656.83 "/>
  <polygon class="fil9" points="3470.02,7674.38 3500.76,7674.38 3500.76,7656.83 3470.02,7656.83 "/>
  <g>
  </g>
  <g style="clip-path:url(#id14)">
   <g>
   </g>
  </g>
  <polygon class="fil9" points="3471.23,7660.24 3487.19,7660.24 3487.19,7644.28 3471.23,7644.28 "/>
  <polygon class="fil9" points="3471.23,7660.24 3487.19,7660.24 3487.19,7644.28 3471.23,7644.28 "/>
  <polygon class="fil9" points="3471.23,7660.24 3487.19,7660.24 3487.19,7644.28 3471.23,7644.28 "/>
  <polygon class="fil9" points="3471.23,7660.24 3487.19,7660.24 3487.19,7644.28 3471.23,7644.28 "/>
  <g>
  </g>
  <g style="clip-path:url(#id15)">
   <g>
   </g>
  </g>
  <polygon class="fil9" points="3456.73,7647.69 3474.21,7647.69 3474.21,7616.81 3456.73,7616.81 "/>
  <polygon class="fil9" points="3456.73,7647.69 3474.21,7647.69 3474.21,7616.81 3456.73,7616.81 "/>
  <polygon class="fil9" points="3456.73,7647.69 3474.21,7647.69 3474.21,7616.81 3456.73,7616.81 "/>
  <polygon class="fil9" points="3456.73,7647.69 3474.21,7647.69 3474.21,7616.81 3456.73,7616.81 "/>
  <g>
  </g>
  <g style="clip-path:url(#id16)">
   <g>
   </g>
  </g>
  <polygon class="fil9" points="3444.63,7620.34 3460.59,7620.34 3460.59,7604.38 3444.63,7604.38 "/>
  <polygon class="fil9" points="3444.63,7620.34 3460.59,7620.34 3460.59,7604.38 3444.63,7604.38 "/>
  <polygon class="fil9" points="3444.63,7620.34 3460.59,7620.34 3460.59,7604.38 3444.63,7604.38 "/>
  <polygon class="fil9" points="3444.63,7620.34 3460.59,7620.34 3460.59,7604.38 3444.63,7604.38 "/>
  <path class="fil10" d="M793.22 7615l410.42 10.58 1143.94 2768.33 1108.18 -2757.62 6.25 -8.6 -1.91 -2.63 0.03 -0.04 423.73 -10.02c282.18,-6.72 513.12,239.06 513.12,531.18l0 2797.43 -4116.95 0 0 -2797.45c0,-292.21 231.1,-538.33 513.23,-531.16l-0.01 0 -0.01 0 -0.01 0 -0.01 0z"/>
  <ellipse class="fil8 str0" cx="2329.85" cy="9556.13" rx="35.45" ry="39.9"/>
  <rect class="fil11" x="3464.65" y="9542.82" width="673.8" height="88.67"/>
  <polygon class="fil6" points="3980.71,9325.28 3819.3,9152.73 3464.67,9542.81 4120.74,9542.81 "/>
  <polygon class="fil12" points="2321,7760.79 1625.16,7460.21 1691.52,8195.23 2282.62,7876.81 "/>
  <polygon class="fil12" points="2261.82,7743.43 2968.84,7496.06 2932.73,8212.95 2225.29,7845.11 "/>
  <rect class="fil13" x="2208.71" y="7660.23" width="199.54" height="276.69"/>
  <polygon class="fil6 str2" points="601.01,8115.44 1221.64,7282.04 1955.97,9496.05 1740.27,9305.45 "/>
  <polygon class="fil6 str2" points="1026.57,8904.66 1540.81,8363.67 2228.23,10236.78 1994.94,9992.86 "/>
  <g>
  </g>
  <g style="clip-path:url(#id17)">
   <g>
   </g>
  </g>
  <polygon class="fil9" points="3187.51,7921.13 3263.31,7921.13 3263.31,7903.59 3187.51,7903.59 "/>
  <polygon class="fil9" points="3187.51,7921.13 3263.31,7921.13 3263.31,7903.59 3187.51,7903.59 "/>
  <polygon class="fil9" points="3187.51,7921.13 3263.31,7921.13 3263.31,7903.59 3187.51,7903.59 "/>
  <polygon class="fil9" points="3187.51,7921.13 3263.31,7921.13 3263.31,7903.59 3187.51,7903.59 "/>
  <g>
  </g>
  <g style="clip-path:url(#id18)">
   <g>
   </g>
  </g>
  <polygon class="fil9" points="3201.77,7907.8 3263.31,7907.8 3263.31,7876.92 3201.77,7876.92 "/>
  <polygon class="fil9" points="3201.77,7907.8 3263.31,7907.8 3263.31,7876.92 3201.77,7876.92 "/>
  <polygon class="fil9" points="3201.77,7907.8 3263.31,7907.8 3263.31,7876.92 3201.77,7876.92 "/>
  <polygon class="fil9" points="3201.77,7907.8 3263.31,7907.8 3263.31,7876.92 3201.77,7876.92 "/>
  <g>
  </g>
  <g style="clip-path:url(#id19)">
   <g>
   </g>
  </g>
  <polygon class="fil9" points="3216.04,7881.17 3263.31,7881.17 3263.31,7863.62 3216.04,7863.62 "/>
  <polygon class="fil9" points="3216.04,7881.17 3263.31,7881.17 3263.31,7863.62 3216.04,7863.62 "/>
  <polygon class="fil9" points="3216.04,7881.17 3263.31,7881.17 3263.31,7863.62 3216.04,7863.62 "/>
  <polygon class="fil9" points="3216.04,7881.17 3263.31,7881.17 3263.31,7863.62 3216.04,7863.62 "/>
  <ellipse class="fil8 str0" cx="2293.69" cy="8562.66" rx="38.1" ry="39.9"/>
  <path class="fil13" d="M2228.71 7660.22l175.86 0c10.65,0 19.26,6.38 19.26,14.23l0 144.9c0,7.85 -8.61,14.22 -19.26,14.22l-175.86 0c-10.63,0 -19.26,-6.37 -19.26,-14.22l0 -144.9c0,-7.85 8.63,-14.23 19.26,-14.23z"/>
  <polygon class="fil6 str2" points="4124.56,8071.72 3455.81,7317.52 2715.34,9521.75 2931.98,9314.15 "/>
  <polygon class="fil6 str2" points="3693.92,8982.09 3113.23,8375.96 2449.34,10251.97 2638.05,10086.46 "/>
  <ellipse class="fil8 str0" cx="2293.69" cy="9063.93" rx="38.1" ry="39.9"/>
  <rect class="fil10 str3" x="280.01" y="10858.93" width="4114.75" height="692.82"/>
  <polygon class="fil13" points="2837.47,10251.82 9931.19,10241.69 10665.87,11650.29 2031.8,11660.43 "/>
  <path class="fil9 str4" d="M6262.72 4870.73c-663.79,0 -1200.85,456.04 -1200.85,1018.43 0,557.38 537.11,1013.37 1200.85,1013.37 663.79,0 1200.85,-456.04 1200.85,-1013.37 0,-562.45 -537.11,-1018.43 -1200.85,-1018.43z"/>
  <path class="fil1" d="M6252.58 4931.53c623.26,0 1124.85,501.64 1124.85,1124.85 0,618.18 -501.64,1119.78 -1124.85,1119.78 -623.25,0 -1129.91,-501.65 -1129.91,-1119.78 0,-623.26 506.71,-1124.85 1129.91,-1124.85z"/>
  <path class="fil8" d="M6384.33 7156.91c-40.54,0 -81.08,5.07 -121.61,5.07 -40.54,0 -81.08,-5.07 -121.61,-5.07l-116.55 -207.75 476.31 0 -116.54 207.75z"/>
  <path class="fil2" d="M6267.78 4931.53c694.2,-15.2 1185.66,749.93 1104.58,1236.32 -5.06,60.81 -15.2,552.32 -15.2,481.38 -10.13,-319.23 -1297.13,-1221.12 -1449.14,-1464.34 -60.8,76 -602.98,471.24 -719.53,496.57 146.95,-450.97 582.72,-749.93 1079.24,-749.93l0.05 0z"/>
  <polygon class="fil13" points="5269.62,7449.83 5614.13,7449.83 5614.13,7738.6 6146.17,7586.64 6379.26,7586.64 6911.31,7738.6 6911.31,7449.83 7281.15,7449.83 7372.36,9030.7 5269.62,8914.16 "/>
  <path class="fil14" d="M5001.06 7439.7l344.56 10.13 937.37 1276.86 937.36 -1276.86 354.7 -10.13c233.08,-5.07 425.63,197.61 425.63,435.77l0 2295.34 -3425.25 0 0 -2295.34c0,-238.16 192.55,-440.84 425.64,-435.77l-0.01 0z"/>
  <polygon class="fil15" points="8020.95,9785.65 8020.95,10652.13 4590.63,10652.13 4590.63,9785.65 "/>
  <polygon class="fil15" points="8000.68,8741.88 8000.68,9552.56 4575.42,9552.56 4575.42,8741.88 "/>
  <path class="fil15" d="M5446.91 7591.71l597.92 810.73 -1469.41 0 0 -526.97c0,-106.41 35.47,-207.76 101.35,-283.76l770.2 0 -0.06 0zm1074.23 810.68l597.92 -810.73 780.33 0c65.87,76 101.34,177.35 101.34,283.76l0 526.97 -1479.54 0 -0.05 0z"/>
  <path class="fil1" d="M10054.41 4953.31c694.19,0 1256.59,521.91 1256.59,1165.38 0,648.59 -562.45,1170.45 -1256.59,1170.45 -694.19,0 -1256.59,-521.91 -1256.59,-1170.45 0,-643.52 562.45,-1165.38 1256.59,-1165.38z"/>
  <path class="fil16" d="M9547.7 4998.91c-157.08,76.01 -50.67,15.2 -197.62,106.41l-65.87 40.54c-20.27,15.2 -15.2,10.13 -40.54,25.33 -15.2,15.2 -15.2,15.2 -30.4,30.41 -101.34,126.67 -162.15,131.74 -288.82,364.83 -20.27,40.53 -40.54,106.41 -60.81,146.94 0,30.41 -5.07,20.27 35.47,15.2l405.37 -86.14c314.16,-81.07 1023.5,-258.42 1165.38,-481.37l182.42 146.94c136.81,106.41 349.63,258.43 501.64,344.57l81.07 45.6c45.61,5.07 15.2,5.07 30.41,-10.13 -172.29,-461.11 -638.46,-770.2 -1150.19,-790.47 -298.95,-10.13 -359.76,50.67 -567.51,101.34z"/>
  <path class="fil16" d="M9456.49 6387.25c-45.6,55.73 -45.6,152.01 -5.07,217.88 96.28,162.15 456.04,243.22 597.92,20.27 30.4,20.27 136.81,212.82 445.91,101.34 222.95,-81.07 217.88,-298.96 152.01,-339.49 -15.2,30.4 0,45.6 -35.47,70.94 -141.88,116.54 -324.29,-233.09 -552.31,-35.47 -45.61,-15.21 -157.08,-121.61 -339.5,-5.07 -248.29,157.08 -253.35,-15.2 -263.49,-30.4z"/>
  <polygon class="fil17" points="9162.6,4537.81 11001.91,4547.94 10996.84,5237.07 9157.53,5226.93 "/>
  <path class="fil18" d="M8701.5 7507.08l2776.67 0c162.15,0 298.96,136.81 298.96,298.95l0 2908.41c0,162.15 -136.81,298.96 -298.96,298.96l-2776.67 0c-162.14,0 -298.96,-136.81 -298.96,-298.96l0 -2908.41c0,-162.14 136.82,-298.95 298.96,-298.95z"/>
  <path class="fil2" d="M10738.42 8267.09c55.74,0 101.34,40.54 101.34,86.14 0,45.6 -45.6,81.07 -101.34,81.07 -50.67,0 -96.28,-35.47 -96.28,-81.07 0,-45.6 45.61,-86.14 96.28,-86.14z"/>
  <path class="fil2" d="M10738.42 8976.47c55.74,0 101.34,35.47 101.34,81.08 0,45.6 -45.6,81.07 -101.34,81.07 -50.67,0 -96.28,-35.47 -96.28,-81.07 0,-45.61 45.61,-81.08 96.28,-81.08z"/>
  <path class="fil2" d="M10738.42 9716.22c55.74,0 101.34,35.47 101.34,81.07 0,45.61 -45.6,86.14 -101.34,86.14 -50.67,0 -96.28,-40.53 -96.28,-86.14 0,-45.6 45.61,-81.07 96.28,-81.07z"/>
  <path class="fil2" d="M10738.42 10456.02c55.74,0 101.34,40.53 101.34,86.14 0,45.6 -45.6,81.07 -101.34,81.07 -50.67,0 -96.28,-35.47 -96.28,-81.07 0,-45.61 45.61,-86.14 96.28,-86.14z"/>
  <path class="fil2" d="M4758.81 10702.87c55.74,0 101.35,35.47 101.35,81.08 0,45.6 -45.61,81.07 -101.35,81.07 -55.73,0 -96.27,-35.47 -96.27,-81.07 0,-45.61 40.54,-81.08 96.27,-81.08z"/>
  <path class="fil2" d="M9345.02 9716.22c55.73,0 101.34,35.47 101.34,81.07 0,45.61 -45.61,86.14 -101.34,86.14 -55.74,0 -96.28,-40.53 -96.28,-86.14 0,-45.6 40.54,-81.07 96.28,-81.07z"/>
  <path class="fil2" d="M9345.02 10456.02c55.73,0 101.34,40.53 101.34,86.14 0,45.6 -45.61,81.07 -101.34,81.07 -55.74,0 -96.28,-35.47 -96.28,-81.07 0,-45.61 40.54,-86.14 96.28,-86.14z"/>
  <polygon class="fil17" points="8402.6,10734.71 11767.04,10734.71 11767.04,11459.25 8402.6,11459.25 "/>
  <polygon class="fil17" points="9517.3,7998.53 9542.63,7998.53 10692.81,7800.92 9542.63,8160.68 9542.63,10714.44 9486.89,10714.44 "/>
  <polygon class="fil17" points="9415.95,7451.34 10439.46,7507.08 9385.55,7988.4 9527.43,7664.1 9958.13,7618.5 9993.6,7669.17 10054.41,7811.05 10571.2,7795.85 10378.65,7659.04 9431.16,7567.83 "/>
  <polygon class="fil3" points="6364.06,10089.68 3126.28,10089.68 2178.75,11645.23 6151.24,11645.23 "/>
  <path class="fil19 str0" d="M4033.24 10054.21c810.74,0 1469.41,329.36 1469.41,729.66 0,405.37 -658.72,729.66 -1469.41,729.66 -810.73,0 -1469.4,-324.29 -1469.4,-729.66 0,-400.3 658.72,-729.66 1469.4,-729.66z"/>
  <path class="fil13 str0" d="M4030.97 10400.02c319.23,0 577.65,136.81 577.65,304.03 0,172.28 -258.42,309.09 -577.65,309.09 -319.23,0 -582.72,-136.81 -582.72,-309.09 0,-167.22 263.49,-304.03 582.72,-304.03z"/>
  <polygon class="fil20" points="5862.42,10185.95 6247.52,10185.95 6247.52,10560.92 5862.42,10560.92 "/>
  <polygon class="fil20" points="6125.91,10185.95 4585.56,10185.95 4585.56,10287.29 6125.91,10287.29 "/>
  <path class="fil11 str0" d="M5994.16 10707.86c70.94,0 126.68,30.41 126.68,70.94 0,35.47 -55.74,65.88 -126.68,65.88 -65.87,0 -121.61,-30.41 -121.61,-65.88 0,-40.53 55.74,-70.94 121.61,-70.94z"/>
  <path class="fil11 str0" d="M5892.82 10991.62c86.14,0 157.08,35.47 157.08,76.01 0,45.6 -70.94,81.07 -157.08,81.07 -86.14,0 -157.08,-35.47 -157.08,-81.07 0,-40.54 70.94,-76.01 157.08,-76.01z"/>
  <path class="fil11 str0" d="M5766.14 11310.8c-121.61,0 -212.82,40.53 -212.82,86.14 0,50.67 91.21,91.21 212.82,91.21 116.55,0 212.82,-40.54 212.82,-91.21 0,-45.61 -96.27,-86.14 -212.82,-86.14z"/>
  <polygon class="fil9 str0" points="4628.89,10359.48 4416.07,10359.48 4416.07,10161.87 4628.89,10161.87 "/>
  <polygon class="fil21 str0" points="4694.76,10141.6 4284.32,10141.6 4284.32,10258.14 4694.76,10258.14 "/>
  <polygon class="fil9" points="5973.89,10089.68 10569.64,10089.68 10569.64,11726.3 5973.89,11726.3 "/>
  <path class="fil11 str0" d="M6896.11 10707.86c-60.81,0 -111.48,30.41 -111.48,70.94 0,35.47 50.67,65.88 111.48,65.88 65.87,0 116.54,-30.41 116.54,-65.88 0,-40.53 -50.67,-70.94 -116.54,-70.94z"/>
  <path class="fil11 str0" d="M6992.38 10991.62c-76.01,0 -141.88,35.47 -141.88,76.01 0,45.6 65.87,81.07 141.88,81.07 81.07,0 146.95,-35.47 146.95,-81.07 0,-40.54 -65.88,-76.01 -146.95,-76.01z"/>
  <path class="fil11 str0" d="M7113.99 11310.8c106.41,0 197.62,40.53 197.62,86.14 0,50.67 -91.21,91.21 -197.62,91.21 -111.48,0 -197.62,-40.54 -197.62,-91.21 0,-45.61 86.14,-86.14 197.62,-86.14z"/>
  <polygon class="fil2" points="5061.87,5671.33 4854.11,5671.33 4854.11,6451.61 5061.87,6451.61 "/>
  <polygon class="fil22" points="4915.02,5671.33 4955.56,5671.33 4955.56,6421.31 4915.02,6421.31 "/>
  <polygon class="fil8 str0" points="5188.54,5656.13 5061.87,5656.13 5061.87,6471.88 5188.54,6471.88 "/>
  <polygon class="fil2" points="7477.32,5781.42 7690.14,5781.42 7690.14,6561.7 7477.32,6561.7 "/>
  <polygon class="fil13" points="7649.6,5781.42 7609.07,5781.42 7609.07,6561.7 7649.6,6561.7 "/>
  <polygon class="fil8 str0" points="7340.51,5766.22 7472.25,5766.22 7472.25,6581.97 7340.51,6581.97 "/>
  <path class="fil8 str0" d="M6181.7 10821.21c-18.93,0 -33.13,14.2 -33.13,28.4 0,18.93 14.2,33.13 33.13,33.13 18.93,0 33.13,-14.2 33.13,-33.13 0,-14.2 -14.2,-28.4 -33.13,-28.4z"/>
  <path class="fil23" d="M10839.76 7958l0 0c0,5.06 0,10.13 0,10.13l0 0 0 -5.07c5.07,0 5.07,-5.06 5.07,-5.06l5.06 0 0 5.06c0,0 0,0 0,0l5.07 0c0,0 0,0 5.07,10.14 0,25.33 -5.07,55.74 -15.2,81.07l0 5.07c0,5.07 0,5.07 0,10.13 0,0 0,5.07 0,5.07 0,5.07 -5.07,10.13 -5.07,20.27 0,0 0,0 0,0l0 10.13 -15.2 10.14 -15.2 0 -5.07 0c0,0 0,0 0,0l0 -5.07c0,-5.07 -5.07,-10.13 -5.07,-10.13l0 0c0,-5.07 0,-5.07 0,-5.07 0,-15.2 5.07,-30.4 10.14,-35.47 -5.07,-5.07 -5.07,-10.14 -5.07,-10.14l5.07 0c-5.07,-5.06 -5.07,-10.13 -5.07,-10.13l0 0c0,-10.13 -10.13,-20.27 -15.2,-30.4 -15.2,-5.07 -25.34,-10.14 -30.4,-10.14l-10.14 0c-15.2,0 -25.33,0 -30.4,10.14l-5.07 0 0 0c-15.2,10.13 -20.27,15.2 -20.27,20.27 -5.06,5.06 -10.13,15.2 -10.13,35.47 0,0 -5.07,0 -5.07,5.06l0 5.07c10.14,15.2 20.27,30.4 35.47,35.47 5.07,5.07 25.34,15.2 60.81,30.4 15.2,5.07 30.4,15.2 55.74,30.4 20.26,10.14 25.33,20.27 25.33,30.41l0 0 0 5.06c0,5.07 0,10.14 -5.07,15.21 0,5.06 -15.2,10.13 -45.6,15.2 -5.07,0 -10.13,5.06 -10.13,5.06 0,0 0,0 0,0 -10.14,0 -15.21,0 -15.21,0 0,0 0,0 0,0l-10.13 0 -20.27 0c-45.6,-5.06 -70.94,-10.13 -76.01,-15.2 -20.26,0 -35.46,-5.06 -50.67,-15.2l-5.06 -5.07 0 -5.06c5.06,-10.14 15.2,-15.2 25.33,-15.2 5.07,-5.07 5.07,-5.07 5.07,-5.07l5.07 0 0 0c0,0 0,0 0,0 5.06,-5.07 20.26,-5.07 40.53,-5.07 0,0 5.07,0 5.07,0l5.07 0c5.06,0 10.13,0 10.13,0l0 5.07c-5.07,0 -5.07,0 -5.07,0 0,0 5.07,0 5.07,5.07l0 0c0,0 0,0 0,5.06 -5.07,0 -10.13,0 -10.13,0 -15.2,0 -25.34,0 -25.34,5.07 0,0 0,0 -5.07,5.07l0 0c40.54,20.27 76.01,30.4 106.41,30.4 25.34,0 35.47,-10.13 35.47,-15.2 5.07,-5.07 5.07,-5.07 5.07,-5.07 -5.07,-15.2 -25.33,-25.33 -55.74,-40.54 -5.06,0 -5.06,0 -5.06,0l-5.07 0c-25.34,-10.13 -45.61,-20.26 -60.81,-25.33 -10.13,-5.07 -20.27,-10.13 -30.4,-20.27 -10.13,-10.13 -15.2,-10.13 -15.2,-15.2l0 0 -5.07 0c-5.06,-5.07 -5.06,-15.2 -10.13,-25.34 0,-10.13 -5.07,-10.13 -5.07,-10.13 5.07,-15.2 5.07,-20.27 5.07,-25.34l0 0c0,0 0,-5.06 5.07,-10.13 0,-5.07 5.06,-5.07 5.06,-5.07 0,-5.06 10.14,-10.13 25.34,-25.33 10.13,-5.07 20.27,-10.14 35.47,-15.2 0,-5.07 10.13,-5.07 30.4,-10.14l0 0c5.07,0 15.2,0 25.34,0 0,0 0,0 5.06,0 0,0 0,0 0,0l5.07 0 5.07 0 5.06 0 5.07 0c15.2,5.07 25.34,5.07 35.47,10.14 0,0 0,-5.07 0,-10.14l0 -10.13 0 0c0,-5.07 0,-5.07 0,-5.07l5.07 0c5.07,0 5.07,5.07 5.07,5.07l0 0c0,-5.07 0,-10.14 5.06,-10.14 0,0 0,0 0,5.07l0 0 0 5.07c0,0 0,0 0,0l5.07 0c-5.07,-5.07 -5.07,-10.14 -5.07,-10.14l5.07 -5.06zm-5.07 35.47l0 5.06c0,0 0,0 0,0 0,5.07 0,5.07 0,5.07 0,10.13 0,20.27 0,25.34l0 0 0 0c0,-10.14 5.07,-20.27 5.07,-35.47l0 -5.07 0 -5.07 0 0c0,0 -5.07,5.07 -5.07,10.14zm-45.6 5.06c0,0 10.13,5.07 25.33,10.14 0,0 0,5.06 0,5.06l0 -5.06c0,0 -5.06,-5.07 -25.33,-10.14l0 0zm-5.07 0l0 0c0,0 5.07,5.07 10.14,10.14l0 0c0,-5.07 -5.07,-5.07 -10.14,-10.14l0 0zm15.2 5.07c0,0 5.07,5.07 10.14,10.13l0 0 -10.14 -10.13 0 0zm-111.47 10.13l0 0 10.13 -5.06 0 0c-5.07,0 -10.13,5.06 -10.13,5.06zm157.08 -5.06c0,5.06 0,10.13 0,15.2l0 0c0,0 0,-5.07 5.06,-15.2l-5.06 0zm-15.2 5.06c0,0 0,10.14 -5.07,25.34 5.07,0 5.07,-10.13 5.07,-25.34l0 0zm-25.34 10.14l0 0c5.07,5.07 5.07,10.13 5.07,10.13 0,-10.13 0,-10.13 -5.07,-10.13zm-126.68 0c0,0 -5.07,5.07 -5.07,10.13l0 0c0,0 5.07,-5.06 5.07,-10.13l0 0zm136.81 5.07c0,0 0,5.06 0,5.06l5.07 0c0,-5.06 0,-5.06 0,-5.06 0,0 0,0 0,-5.07l-5.07 0 0 5.07zm-167.21 10.13l5.07 -10.13 5.06 0 0 0 0 0c-5.06,0 -5.06,5.06 -10.13,10.13zm187.48 -10.13l0 5.06 0 5.07 0 0 0 -10.13 0 0 0 0zm-25.33 10.13l0 5.07c0,0 0,0 0,0l5.06 0 0 0c-5.06,-5.07 -5.06,-5.07 -5.06,-5.07l0 0zm-167.22 0l0 5.07 0 5.06 0 0 0 -5.06 0 -5.07 0 0zm30.4 5.07l0 5.06 0 0c0,0 0,0 0,-5.06l0 0zm0 5.06c0,5.07 0,5.07 0,10.14l0 0c0,0 0,5.07 0,5.07l0 0 0 0c0,-5.07 5.07,-10.14 5.07,-15.21l0 0 -5.07 0zm152.02 0l-5.07 15.21 0 0 0 0c0,0 5.07,-5.07 5.07,-10.14l0 -5.07 0 0zm0 5.07c0,0 0,5.07 0,5.07l0 0 5.07 0c0,0 0,0 0,0 0,-5.07 0,-5.07 0,-5.07l-5.07 0zm-157.08 5.07l0 5.07 0 5.06 5.06 0 0 -5.06c0,0 -5.06,-5.07 -5.06,-5.07l0 0zm152.01 30.4c0,10.14 0,15.2 0,20.27l5.07 0c-5.07,-5.07 -5.07,-10.13 -5.07,-10.13 0,-10.14 0,-25.34 5.07,-40.54 -5.07,5.07 -5.07,15.2 -5.07,30.4zm-162.15 -25.33l0 5.06c0,15.2 5.07,25.34 10.14,30.41l0 0c-5.07,-10.14 -5.07,-15.21 -5.07,-20.27l0 0c-5.07,-10.14 -5.07,-15.2 -5.07,-15.2zm-5.06 0l0 5.06c0,0 0,0 0,0l0 0c0,-5.06 0,-5.06 0,-5.06zm172.28 20.26l0 10.14 0 10.13 0 0 0 -5.06c0,-5.07 0,-5.07 0,-10.14l5.07 -20.27c-5.07,5.07 -5.07,10.14 -5.07,15.2zm-182.42 -10.13l0 0c0,5.07 0,10.13 5.07,20.27 5.07,0 5.07,0 5.07,-5.07 -5.07,-10.13 -5.07,-15.2 -10.14,-15.2l0 0zm10.14 0l0 5.07c0,5.06 5.06,5.06 5.06,5.06l0 0c0,-5.06 0,-5.06 0,-10.13l-5.06 0zm15.2 5.07c0,0 0,5.06 0,5.06l0 0c0,0 5.06,0 5.06,0l-5.06 -5.06zm141.88 0c-5.07,5.06 -5.07,5.06 -5.07,5.06l5.07 0 0 -5.06 0 0zm5.06 10.13l0 5.07 0 0 0 -5.07 0 0zm-157.08 5.07l0 5.07c5.07,5.06 10.14,5.06 10.14,10.13l0 0c-5.07,-10.13 -5.07,-10.13 -5.07,-15.2l-5.07 0zm152.02 5.07c0,0 0,5.06 0,5.06 0,0 5.06,0 5.06,0l0 0c0,0 0,0 0,0 0,0 0,-5.06 0,-5.06l-5.06 0zm-136.82 5.06l0 0c0,0 5.07,5.07 5.07,5.07 0,0 0,0 0,-5.07l-5.07 0zm20.27 0c0,5.07 5.07,10.14 15.2,15.2l0 0 0 -5.06c-5.06,0 -10.13,0 -15.2,-10.14l0 0 0 0zm-10.13 10.14l0 0c5.07,5.06 10.13,10.13 15.2,10.13l5.07 10.14 5.06 -5.07 5.07 5.07 0 0 0 -5.07c-5.07,0 -10.13,-5.07 -15.2,-5.07 -5.07,-5.07 -10.13,-10.13 -15.2,-10.13l0 0zm-5.07 0c0,5.06 0,5.06 5.07,5.06 0,0 0,0 -5.07,-5.06l0 0zm-10.13 0l0 5.06c0,0 0,0 5.06,0l0 0 0 0c0,0 0,0 -5.06,-5.06zm5.06 5.06c5.07,5.07 10.14,10.14 15.21,15.21l0 0c0,0 0,-5.07 0,-5.07l0 0c0,0 -5.07,-5.07 -10.14,-5.07l0 -5.07 -5.07 0zm30.41 0l0 5.07c0,0 5.06,0 15.2,10.14l0 0c0,0 5.07,-5.07 5.07,-5.07 -10.14,-5.07 -15.21,-5.07 -15.21,-5.07l0 0 0 -5.07 -5.06 0zm15.2 5.07l0 0c10.13,5.07 10.13,10.14 10.13,10.14l5.07 0c0,0 5.07,0 5.07,0l0 0c0,0 0,0 -5.07,0 0,0 0,0 0,0 -5.07,-5.07 -10.13,-5.07 -15.2,-10.14zm25.33 10.14l0 0 5.07 0 0 5.06 0 0c0,0 0,0 5.07,5.07l0 -5.07c-5.07,0 -5.07,0 -5.07,0l0 0c10.14,5.07 15.2,5.07 15.2,5.07l0 0c5.07,0 5.07,5.07 5.07,5.07l0 0 0 -5.07c-5.07,0 -15.2,-5.07 -20.27,-10.13 0,0 0,0 0,0l-5.07 0zm-45.6 0l0 5.06c0,0 5.07,0 15.2,5.07 0,0 -5.07,-5.07 -15.2,-10.13zm30.4 10.13l0 0c10.14,10.13 25.34,15.2 35.47,20.27l10.14 5.06 5.06 0 0 -5.06 -30.4 -10.14c-5.07,-5.06 -10.13,-5.06 -20.27,-10.13 0,0 0,0 0,0l0 0zm30.41 5.07l0 5.06c0,0 10.13,5.07 25.33,15.2l5.07 0 0 0 0 0c-5.07,-5.06 -15.2,-10.13 -25.34,-15.2 0,0 0,0 -5.06,-5.06l0 0zm30.4 15.2c0,5.06 5.07,5.06 15.2,15.2l0 0c0,-5.07 -5.07,-10.14 -10.13,-15.2l-5.07 0zm-101.34 15.2c0,0 5.06,0 5.06,0l0 0c5.07,0 5.07,0 5.07,0l0 0c0,0 -5.07,0 -5.07,0 0,0 0,0 -5.06,0zm121.61 0c0,5.07 5.06,10.13 10.13,15.2 -5.07,-10.13 -5.07,-10.13 -5.07,-15.2l-5.06 0zm-157.08 10.13l0 0 0 0c5.06,0 10.13,-5.06 25.33,-5.06l0 0 -5.07 0c-10.13,0 -20.26,0 -20.26,5.06zm192.55 0l0 5.07 0 0 0 0c0,5.07 0,5.07 0,5.07l5.06 0 0 0c-5.06,-5.07 -5.06,-10.14 -5.06,-10.14l0 0zm-20.27 0c5.07,5.07 5.07,10.14 10.13,15.2 0,-5.06 -5.06,-5.06 -5.06,-15.2l-5.07 0zm-172.28 10.14l0 0c5.06,5.06 5.06,5.06 5.06,5.06l0 0 0 0 0 0 0 -5.06c5.07,0 5.07,-5.07 5.07,-5.07l0 0c-5.07,0 -5.07,5.07 -5.07,5.07 0,-5.07 0,-5.07 5.07,-5.07l0 0 -5.07 0c-5.06,0 -5.06,0 -5.06,5.07zm-20.27 0c0,0 0,0 0,0l0 0c5.07,0 5.07,0 5.07,0l0 -5.07 -5.07 5.07zm192.55 -5.07c0,5.07 0,10.13 0,15.2l0 0c0,0 0,-5.07 0,-15.2l0 0zm-187.48 5.07c0,5.06 0,5.06 0,5.06l5.06 0 0 -5.06c0,0 -5.06,0 -5.06,0zm15.2 5.06c0,5.07 0,5.07 10.13,5.07 0,0 -5.07,0 -10.13,-5.07l0 0zm25.33 5.07l0 5.07 5.07 0 0 0 0 0c0,0 0,0 -5.07,-5.07zm-10.13 5.07l0 5.07 5.06 0c0,0 0,0 0,0 0,0 -5.06,0 -5.06,-5.07zm35.47 10.13c0,0 5.06,5.07 20.27,5.07 -5.07,-5.07 -10.14,-5.07 -20.27,-5.07zm0 5.07l0 0c0,0 5.06,0 10.13,0l0 0 0 0c0,0 -5.07,0 -10.13,0 0,0 0,0 0,0 0,0 0,0 0,0z"/>
  <path id="_1" class="fil24 str5" d="M10920.83 8018.8l5.07 0c0,0 0,5.07 0,10.14l0 10.13c0,0 0,0 0,0l0 0 0 5.07c0,0 0,0 0,0 0,0 0,0 0,0 0,30.4 -5.07,50.67 -10.13,65.87l-10.14 45.6 0 0 0 0c5.07,-5.06 10.14,-10.13 10.14,-10.13 0,0 5.06,-5.07 15.2,-10.13 10.13,-5.07 10.13,-5.07 15.2,-5.07 5.07,0 15.2,5.07 15.2,15.2 0,0 0,0 0,5.07l0 0c0,5.06 5.07,10.13 5.07,15.2 0,0 0,5.06 -5.07,5.06 5.07,0 5.07,10.14 5.07,20.27l0 0c0,20.27 5.06,30.41 10.13,30.41 0,0 10.14,-5.07 15.2,-15.21l0 5.07c-5.06,15.2 -15.2,20.27 -25.33,20.27l-5.07 0 0 0 0 0c-10.13,-5.07 -15.2,-15.2 -20.27,-25.34 0,0 0,-5.06 0,-10.13l0 -5.07c0,0 -5.07,0 -5.07,0 0,0 5.07,0 5.07,0 -5.07,-25.33 -5.07,-40.53 -5.07,-45.6 -5.06,0 -10.13,10.13 -20.26,20.27 -10.14,15.2 -15.21,30.4 -15.21,50.67l0 0c0,5.07 0,10.13 0,15.2 -5.06,0 -5.06,0 -5.06,0 0,0 -5.07,0 -10.14,0l0 0 0 5.07 0 -5.07 5.07 0 0 0 -5.07 10.13 0 0c0,0 -5.06,-5.06 -5.06,-10.13l0 0 0 5.07 -5.07 0c0,-5.07 0,-5.07 0,-15.2l0 0c0,0 0,-5.07 0,-5.07l0 0 5.07 0 0 0c-5.07,0 -5.07,0 -5.07,-5.07l0 0c0,0 0,-5.07 0,-5.07l0 -5.06 0 -5.07 0 -5.07c0,0 0,-5.06 0,-5.06l0 0 0 0c0,-5.07 0,-15.21 5.07,-35.47l5.06 -20.27c-5.06,0 -5.06,0 -5.06,0 5.06,-5.07 5.06,-5.07 5.06,-5.07l0 0c0,-5.07 5.07,-20.27 10.14,-50.67l0 0c0,0 0,0 0,0 5.06,-25.34 5.06,-35.47 5.06,-40.54l0 -5.06c0,0 0,-5.07 0,-5.07l5.07 0 0 0c0,0 5.07,-5.07 5.07,-5.07 0,5.07 0,5.07 0,10.14l5.07 0c0,-5.07 0,-5.07 0,-5.07l0 0c5.06,0 5.06,-5.07 5.06,-5.07zm-15.2 25.34c0,10.13 -5.07,25.33 -5.07,50.67l0 0 0 -5.07 0 -5.07 -5.06 0c0,0 0,0 0,0 0,0 0,5.07 0,5.07 -5.07,25.34 -10.14,40.54 -10.14,40.54 0,0 0,0 0,0l-5.06 55.74c0,0 0,0 0,0 0,5.06 -5.07,10.13 -5.07,15.2l0 5.06 5.07 0c0,-20.26 5.06,-35.47 5.06,-40.53 0,0 0,0 0,0 0,-5.07 5.07,-15.2 10.14,-35.47 -5.07,-5.07 -5.07,-5.07 -5.07,-5.07 0,0 5.07,-5.07 5.07,-5.07l0 0 0 5.07 0 0c0,0 0,-5.07 0,-10.13 0,0 0,0 0,-5.07l0 0 0 0 0 0c0,0 5.06,-5.07 10.13,-25.34 0,-5.06 0,-10.13 0,-15.2 0,-5.06 0,-5.06 0,-5.06l0 -5.07 0 -10.14 5.07 -5.06 -5.07 0zm15.2 5.06l0 5.07 0 0 0 -10.13c0,0 0,0 0,5.06zm0 20.27l0 5.07 0 5.07 0 0c0,-5.07 0,-5.07 5.07,-5.07 -5.07,0 -5.07,-5.07 -5.07,-5.07l0 0zm-20.27 25.34l0 0 0 0c-5.06,5.07 -5.06,10.13 -5.06,10.13l0 0c0,-5.06 5.06,-10.13 5.06,-10.13zm0 30.4l0 5.07 0 0 0 0 5.07 -5.07 0 0 -5.07 0zm0 5.07l-5.06 20.27 5.06 0 0 -15.2 0 -5.07zm45.61 10.13c0,0 0,0 0,0 0,5.07 5.07,5.07 5.07,5.07l0 0c0,-5.07 0,-5.07 -5.07,-5.07zm-50.67 10.14l0 0c0,0 0,0 0,-5.07 0,0 0,5.07 0,5.07zm-5.07 5.06c0,10.14 0,15.2 0,15.2l0 0c0,0 0,-5.06 5.07,-15.2l0 0 -5.07 0zm55.74 10.14c0,0 0,5.06 0,10.13l0 0 0 -5.07 0 -5.06 0 0zm5.07 5.06l0 15.21 5.06 5.06 -5.06 0c5.06,15.2 5.06,25.34 10.13,25.34l0 0c0,-5.07 0,-5.07 0,-5.07 0,-5.07 0,-5.07 0,-5.07 -5.07,0 -5.07,-5.06 -5.07,-15.2l0 0c0,-10.13 0,-15.2 0,-15.2 0,0 0,0 0,-5.07l0 0c0,0 0,0 -5.06,0zm10.13 10.14l0 0 0 0c0,0 0,5.07 0,5.07l0 5.06c0,0 0,0 0,0 0,0 0,5.07 0,5.07l0 0 0 -15.2c0,0 0,0 0,0zm-15.2 0c0,0 0,5.07 0,10.13l0 0c0,0 0,0 5.07,-5.06l0 0c0,5.06 0,10.13 0,15.2l0 0c0,0 0,5.06 0,5.06l5.06 0c-5.06,0 -5.06,-5.06 -5.06,-5.06l5.06 0c-5.06,-10.14 -5.06,-15.2 -5.06,-15.2 -5.07,-5.07 -5.07,-5.07 -5.07,-5.07zm-55.74 20.27l0 0 0 0 0 -10.14c0,0 0,5.07 0,10.14zm70.94 -5.07l0 0c0,15.2 0,20.27 5.07,20.27l0 0c-5.07,-10.14 -5.07,-15.2 -5.07,-20.27l0 0zm-81.07 40.54l0 0 0 5.06 0 0 0 -5.06z"/>
  <path id="_2" class="fil24" d="M11057.64 8140.41l0 0c0,0 0,0 0,0 15.21,5.07 25.34,5.07 25.34,10.14l0 0c-5.07,0 -5.07,0 -5.07,0l0 0c-10.13,0 -15.2,5.06 -15.2,5.06l-5.07 0c0,0 -5.06,0 -5.06,-5.06 -5.07,0 -5.07,0 -5.07,0 -5.07,0 -10.13,0 -15.2,5.06l0 5.07 -5.07 -5.07c0,5.07 0,5.07 -5.07,10.14 0,5.06 -5.06,10.13 -10.13,15.2 -5.07,5.07 -5.07,10.13 -5.07,15.2 0,5.07 0,5.07 0,10.13l0 0c0,5.07 5.07,10.14 10.14,15.21 10.13,-5.07 15.2,-5.07 15.2,-10.14 5.07,0 10.13,-10.13 15.2,-30.4 0,0 0,-5.07 0,-10.14l0 -5.06 0 0c10.13,0 15.2,0 20.27,-5.07l5.07 0 0 5.07c0,5.06 -5.07,15.2 -5.07,25.33l0 0 0 0c0,0 0,5.07 0,5.07 0,0 0,5.07 0,15.2 0,0 0,0 0,0 5.07,0 5.07,0 5.07,0 0,0 0,0 -5.07,0 5.07,5.07 5.07,5.07 5.07,10.14l10.13 0 15.2 -15.21 5.07 -5.06 5.07 0 0 5.06 -5.07 5.07 0 0c0,0 5.07,0 5.07,5.07l0 0c-5.07,5.07 -10.14,10.13 -20.27,15.2 -5.07,5.07 -15.2,10.13 -20.27,10.13 0,0 -10.14,-10.13 -20.27,-20.26l0 0 5.07 -5.07 0 0c-20.27,15.2 -30.41,20.27 -40.54,20.27 0,0 -5.07,0 -10.13,0 -10.14,0 -20.27,-5.07 -20.27,-10.14 0,0 0,-5.06 0,-15.2 0,-5.07 0,-15.2 0,-20.27l0 0c0,-5.06 5.07,-5.06 5.07,-5.06l0 -5.07c0,-10.14 10.13,-15.2 25.33,-25.34 15.2,-10.13 30.4,-15.2 45.6,-15.2zm-60.8 35.47l-5.07 5.07 0 0c0,0 5.07,0 5.07,0 0,0 0,0 0,-5.07 0,0 0,0 0,0 0,0 0,0 0,0l0 0zm-5.07 10.14l0 5.06 0 5.07c0,0 0,-5.07 0,-5.07l0 -5.06 0 0zm60.81 5.06c0,5.07 0,5.07 0,5.07l0 5.07 0 0 0 -10.14 0 0zm0 15.2l0 0c5.06,-5.06 5.06,-10.13 5.06,-10.13 0,0 0,5.07 -5.06,10.13zm-50.67 -5.06l0 5.06 0 0 0 0 0 -5.06 0 0zm-15.2 5.06l0 10.14c5.06,0 5.06,0 5.06,5.07l0 0 0 -5.07c0,0 0,-5.07 -5.06,-10.14l0 0zm60.8 10.14l0 0 0 0c5.07,-5.07 10.13,-5.07 10.13,-5.07l0 0 -5.06 0c0,0 -5.07,5.07 -5.07,5.07z"/>
  <path id="_3" class="fil24 str5" d="M11148.85 8125.21c0,0 0,0 5.07,5.07 -10.13,10.13 -15.2,35.47 -20.27,76l0 10.14c0,0 0,5.07 0,5.07 5.07,0 15.2,-15.21 30.4,-45.61 5.07,-20.27 10.14,-35.47 15.21,-40.53l0 0 5.06 0c0,0 5.07,0 10.14,0 0,0 0,0 0,0l10.13 0 0 0c-5.07,10.13 -10.13,30.4 -15.2,60.8 0,0 0,0 0,5.07l0 0 0 0 0 0c0,0 0,0 0,0 5.07,10.13 5.07,15.2 5.07,20.27l5.06 0c5.07,0 10.14,-10.14 25.34,-25.34 0,0 0,5.07 0,5.07l-5.07 5.06 0 0c5.07,0 5.07,0 10.14,0l0 0 -5.07 5.07 5.07 0c-10.14,15.2 -25.34,20.27 -35.47,20.27 0,0 0,5.07 -5.07,5.07 -15.2,-5.07 -20.27,-10.14 -20.27,-15.2 0,0 -5.07,-5.07 -5.07,-15.21 -15.2,20.27 -25.33,30.41 -35.47,30.41 0,0 -5.06,0 -5.06,0 -15.2,0 -20.27,-5.07 -20.27,-15.2l0 0c0,0 -5.07,-5.07 -5.07,-15.21 5.07,-15.2 5.07,-25.33 10.14,-30.4 0,-15.2 5.06,-25.33 10.13,-25.33l0 -5.07c0,-10.13 5.07,-15.2 5.07,-20.27l5.06 0 0 5.07 5.07 0c5.07,-5.07 10.14,-5.07 15.2,-5.07zm-5.06 5.07l-5.07 15.2 0 0c5.07,-5.07 5.07,-10.13 5.07,-15.2l0 0 0 0zm-20.27 35.47l0 0 5.06 -20.27 0 0c0,0 0,5.07 -5.06,20.27zm60.8 -15.2c-5.06,10.13 -5.06,15.2 -5.06,20.26l0 0 5.06 -20.26 0 0zm-50.67 5.06c0,5.07 0,10.14 0,10.14l0 0c0,0 5.07,0 5.07,-10.14l-5.07 0zm40.54 5.07c0,0 0,5.07 -5.07,5.07l-10.13 25.33 0 0 0 0c5.06,-5.06 10.13,-15.2 15.2,-20.27 0,0 0,0 0,0l0 -5.06c0,0 0,-5.07 0,-5.07l0 0zm10.13 5.07c-5.06,10.13 -5.06,15.2 -5.06,15.2l0 5.07c0,5.06 0,5.06 0,5.06l0 0 0 5.07 0 0 0 0c0,0 0,-5.07 5.06,-10.13l0 0c0,-5.07 0,-10.14 0,-20.27l0 0zm-65.87 0c-5.07,5.06 -5.07,5.06 -5.07,5.06l0 5.07 5.07 0c0,-5.07 0,-5.07 0,-10.13l0 0zm5.07 5.06c0,0 0,0 0,-5.06 0,0 0,5.06 0,5.06zm50.67 5.07l0 0 0 0c0,0 0,0 5.07,-5.07 -5.07,0 -5.07,0 -5.07,5.07zm-5.07 15.2c0,0 -5.07,5.07 -10.13,15.2l0 0 5.06 -5.06c0,0 0,0 0,0 5.07,0 5.07,-5.07 5.07,-10.14l0 0 0 0zm-50.67 0l0 0 0 5.07 0 0 0 10.13 0 0c0,-5.06 0,-5.06 5.07,-10.13l-5.07 0 5.07 -5.07c0,0 -5.07,0 -5.07,0zm65.87 5.07c0,5.07 0,5.07 0,5.07 0,0 0,5.06 0,10.13l0 0 0 0 0 -5.07c0,-5.06 0,-10.13 0,-10.13l0 0 0 0zm-5.06 0c0,0 -5.07,0 -5.07,5.07l5.07 10.13 0 0 0 -10.13c0,-5.07 0,-5.07 0,-5.07zm-70.94 5.07l0 10.13c0,0 5.06,5.07 5.06,10.14 0,0 0,0 0,0 0,5.06 0,5.06 5.07,10.13l0 0 5.07 0c0,0 -5.07,-5.07 -5.07,-5.07 -5.07,-10.13 -5.07,-15.2 -5.07,-20.27l0 -5.06 0 0 -5.06 0zm60.8 0c0,0 0,0 0,0l0 5.06 0 0c0,10.14 5.07,15.21 10.14,15.21 -5.07,-5.07 -5.07,-5.07 -5.07,-10.14l0 0 0 0 0 0 0 0c0,0 0,-5.07 0,-5.07 0,0 0,-5.06 0,-5.06l-5.07 0zm-60.8 10.13c0,0 0,5.07 -5.07,5.07 5.07,0 5.07,5.07 5.07,5.07l0 0 0 0 0 -10.14 0 0zm76 5.07l0 0c0,5.07 0,10.13 5.07,10.13l5.07 0 0 0c-5.07,0 -5.07,0 -5.07,-5.06 0,0 -5.07,0 -5.07,-5.07z"/>
  <path id="_4" class="fil24" d="M11250.19 8115.08c30.41,0 50.68,5.06 60.81,20.27 0,5.06 0,10.13 0,15.2 0,5.06 -5.07,20.26 -10.13,40.53 0,0 0,5.07 -5.07,10.14l0 10.13c5.07,5.07 5.07,10.14 5.07,10.14 5.06,0 10.13,-5.07 20.26,-15.21 5.07,-5.06 5.07,-10.13 10.14,-10.13l-5.07 10.13 0 0c0,0 5.07,0 5.07,-5.06l5.07 0 0 0 -5.07 5.06 0 0 5.07 0c-15.21,20.27 -30.41,30.41 -50.68,30.41 -15.2,-5.07 -20.26,-5.07 -20.26,-10.14 0,0 0,-5.06 -5.07,-10.13 0,-15.2 5.07,-40.54 20.27,-70.94l0 -5.07c0,-5.06 -5.07,-5.06 -20.27,-5.06 -10.14,0 -10.14,0 -10.14,5.06 0,0 0,0 0,0l0 5.07c0,5.07 0,5.07 0,5.07 -15.2,5.06 -20.26,5.06 -20.26,5.06l-5.07 0c0,0 0,0 0,-10.13 0,0 -5.07,0 -5.07,-5.07 0,-10.13 5.07,-15.2 15.2,-20.27 5.07,0 10.14,-5.06 15.2,-5.06zm-10.13 20.27l0 0c5.07,-5.07 5.07,-5.07 10.13,-5.07l0 0c-5.06,0 -10.13,5.07 -10.13,5.07zm-5.07 5.06l0 5.07c0,0 0,0 0,0l5.07 0c0,0 0,0 0,0 0,-5.07 0,-5.07 -5.07,-5.07zm50.67 10.14c-5.06,5.06 -5.06,10.13 -5.06,10.13l0 0c5.06,0 5.06,-5.07 5.06,-10.13l0 0 0 0zm10.14 0c-5.07,15.2 -10.14,25.33 -10.14,25.33 5.07,0 5.07,-5.07 10.14,-20.27l0 -5.06zm-10.14 5.06c0,5.07 0,10.14 0,15.2l0 0c0,0 0,-5.06 5.07,-15.2l-5.07 0zm15.21 10.14l0 -5.07c0,5.07 0,5.07 0,5.07 0,0 0,0 0,0 0,5.06 0,5.06 -5.07,5.06l5.07 5.07c0,0 -5.07,5.07 -5.07,5.07l0 5.07 0 0c5.07,-15.21 10.13,-25.34 10.13,-30.41l0 0c0,0 -5.06,5.07 -5.06,10.14zm-15.21 15.2c-5.06,5.07 -5.06,10.13 -5.06,10.13l5.06 0c0,0 0,-5.06 0,-10.13l0 0zm-15.2 5.07c-5.06,15.2 -5.06,20.26 -5.06,20.26 5.06,0 5.06,0 5.06,5.07 0,0 -5.06,5.07 -5.06,5.07 5.06,0 5.06,0 5.06,0l0 0 0 -10.14 0 0c0,0 0,-10.13 0,-20.26l0 0zm20.27 15.2c0,5.06 0,5.06 0,5.06l0 0c0,0 0,-5.06 5.07,-5.06l0 0 0 -10.14c0,0 -5.07,5.07 -5.07,10.14zm-5.07 10.13l0 0 0 5.07 5.07 0c0,0 0,0 0,-5.07l-5.07 0zm-5.06 10.14l0 0c0,5.06 0,5.06 0,5.06l0 0 0 0c0,-5.06 0,-5.06 0,-5.06z"/>
  <path id="_5" class="fil24 str5" d="M11361.67 8115.08c0,0 0,5.06 0,5.06l5.07 -5.06 0 0c0,0 5.06,0 5.06,5.06l0 10.14c0,5.07 -5.06,15.2 -15.2,40.53 -5.06,15.21 -5.06,20.27 -5.06,30.41 0,5.06 0,10.13 0,15.2l5.06 0c5.07,-5.07 10.14,-20.27 20.27,-45.61 10.14,-20.26 15.2,-35.46 15.2,-35.46 0,-10.14 10.14,-15.21 20.27,-15.21 0,0 0,0 5.07,0l0 5.07c0,5.07 -5.07,25.34 -10.14,55.74 -5.06,10.13 -5.06,15.2 -5.06,15.2l5.06 5.07 0 0c0,0 5.07,-5.07 10.14,-15.2 0,0 5.07,-5.07 15.2,-15.21l5.07 -25.33c0,-10.13 10.13,-20.27 30.4,-25.34l0 0 0 5.07 0 5.07c0,5.07 -5.07,20.27 -10.13,50.67 -5.07,5.07 -5.07,5.07 -5.07,10.13l0 10.14c5.07,5.06 5.07,10.13 5.07,10.13 5.06,0 15.2,-10.13 30.4,-30.4l0 0 0 0c0,5.07 -5.07,10.13 -5.07,10.13l5.07 0c0,-5.06 5.07,-5.06 5.07,-10.13l0 0 0 5.07c0,0 0,5.06 -5.07,10.13l5.07 0 5.06 -5.07 5.07 0c0,0 0,5.07 -5.07,5.07l0 0 0 0c-10.13,10.13 -20.27,20.27 -30.4,25.34 -10.13,5.06 -10.13,5.06 -15.2,10.13l0 0c0,-5.07 -5.07,-5.07 -15.2,-5.07 -5.07,-5.06 -10.14,-10.13 -10.14,-20.27l-5.06 -5.06c-10.14,20.27 -15.21,25.33 -25.34,25.33l-10.13 0c0,0 -5.07,-5.06 -10.14,-10.13 0,-5.07 0,-5.07 0,-5.07 -5.07,10.14 -15.2,15.2 -30.4,20.27l-5.07 0 0 0c0,0 -5.06,0 -5.06,0 -10.14,0 -15.21,-5.07 -15.21,-20.27l0 -10.13c0,0 0,-5.07 0,-5.07l0 0c5.07,-20.27 10.14,-35.47 15.21,-55.74 5.06,-5.06 10.13,-10.13 10.13,-20.27l0 0c0,0 5.07,0 5.07,5.07 0,0 5.06,-5.07 10.13,-10.13l0 0zm96.28 15.2l0 5.07 0 0 0 -5.07 0 0zm-60.81 20.27l0 5.06c0,0 0,-10.13 5.07,-20.26 0,0 -5.07,5.06 -5.07,15.2zm-40.54 -15.2c0,0 -5.06,5.06 -5.06,15.2 -10.14,10.13 -10.14,20.26 -10.14,20.26l0 0 0 0c0,0 5.07,-10.13 10.14,-25.33 5.06,0 5.06,-5.07 5.06,-10.13l0 0zm35.47 5.06l-5.06 20.27 0 0 0 0c0,0 5.06,-10.13 10.13,-20.27l-5.07 0zm-45.6 5.07l0 0 0 0c0,0 5.07,0 5.07,-5.07l0 0c-5.07,0 -5.07,0 -5.07,5.07zm106.41 10.13l-5.07 0 0 5.07 5.07 0 0 -5.07 0 0 0 0zm-101.34 0c0,0 0,5.07 0,5.07l0 5.07 0 0 0 -10.14 0 0zm91.2 0c0,5.07 -5.06,10.14 -10.13,20.27l5.07 0 0 0 5.06 -20.27 0 0zm5.07 15.2l5.07 0c0,0 0,-5.06 5.07,-15.2l0 0c-5.07,0 -5.07,5.07 -10.14,15.2zm-50.67 -15.2c-5.07,5.07 -5.07,5.07 -5.07,10.14 -5.06,0 -5.06,0 -5.06,-5.07 0,0 0,5.07 -5.07,15.2l0 0c5.07,0 5.07,0 5.07,-10.13 0,0 0,0 5.06,5.06 -5.06,0 -5.06,5.07 -5.06,15.21l0 0c0,0 5.06,-10.14 10.13,-30.41l0 0zm-55.74 20.27c-5.06,5.07 -5.06,10.14 -5.06,10.14 5.06,0 5.06,-5.07 5.06,-10.14l0 0 0 0zm96.28 5.07c0,0 0,5.07 0,5.07l0 -5.07 0 0c0,5.07 0,5.07 0,10.13 0,0 0,-5.06 0,-10.13l0 0 0 0zm-101.34 20.27c0,5.06 0,15.2 0,20.27l5.06 0c-5.06,-5.07 -5.06,-10.14 -5.06,-15.21l0 -5.06c0,-5.07 0,-5.07 0,-5.07 0,0 0,0 0,0 0,0 0,-5.07 5.06,-10.13l-5.06 0c0,0 0,5.06 0,15.2zm35.46 0l0 0c0,0 5.07,-5.07 10.14,-15.2l0 0c0,0 -5.07,5.06 -10.14,15.2zm15.21 -15.2c0,0 -5.07,5.06 -5.07,5.06l0 0 5.07 -5.06 0 0 0 0zm10.13 5.06c0,5.07 0,10.14 0,10.14 0,5.06 0,5.06 0,5.06l0 0 0 -15.2 0 0zm25.34 0c0,0 0,5.07 -5.07,5.07l0 0 5.07 0c0,0 0,0 0,-5.07l0 0 0 0zm15.2 5.07c0,5.07 0,10.13 5.06,10.13l0 0c-5.06,-5.06 -5.06,-10.13 -5.06,-10.13 0,0 0,0 0,0zm5.06 0c5.07,10.13 5.07,15.2 10.14,15.2l0 0c-5.07,-5.07 -5.07,-10.13 -5.07,-15.2l-5.07 0zm-116.54 5.07l0 10.13c0,5.07 5.07,10.14 5.07,10.14l0 0c0,0 0,-10.14 -5.07,-15.21l5.07 0c-5.07,0 -5.07,-5.06 -5.07,-5.06l0 0zm76.01 10.13c0,0 5.06,0 5.06,0 0,0 5.07,-5.07 15.21,-10.13 -10.14,5.06 -15.21,10.13 -20.27,10.13zm-15.2 -10.13c0,0 0,5.06 0,10.13 0,0 0,5.07 5.06,5.07l0 0c-5.06,-5.07 -5.06,-10.14 -5.06,-15.2l0 0zm50.67 10.13c0,0 0,0 -5.07,0 5.07,5.07 5.07,5.07 10.13,5.07 0,0 0,0 0,0 0,0 0,-5.07 -5.06,-5.07zm15.2 5.07c0,0 0,0 5.07,0l0 0c0,0 0,0 0,0 0,0 0,0 -5.07,0zm-111.48 0l0 0c0,5.07 0,5.07 5.07,5.07l0 0 -5.07 -5.07 0 0zm-5.06 5.07c0,5.06 0,5.06 0,5.06l5.06 0 0 0c-5.06,0 -5.06,0 -5.06,-5.06l0 0z"/>
  <path id="_6" class="fil24" d="M11559.29 8140.41l0 0c0,0 0,0 0,0 15.2,5.07 20.27,5.07 20.27,10.14l0 0c0,0 0,0 0,0l-5.07 0c-10.14,0 -15.2,5.06 -15.2,5.06l0 0c-5.07,0 -5.07,0 -10.14,-5.06 0,0 0,0 0,0 -5.06,0 -10.13,0 -20.27,5.06l0 5.07 0 -5.07c0,5.07 -5.06,5.07 -10.13,10.14 0,5.06 0,10.13 -5.07,15.2 -5.06,5.07 -5.06,10.13 -5.06,15.2 0,5.07 0,5.07 0,10.13l0 0c0,5.07 0,10.14 5.06,15.21 15.2,-5.07 20.27,-5.07 20.27,-10.14 5.07,0 5.07,-10.13 15.2,-30.4 0,0 -5.06,-5.07 -5.06,-10.14l0 -5.06 5.06 0c10.14,0 15.2,0 15.2,-5.07l10.14 0 0 5.07c-5.07,5.06 -5.07,15.2 -5.07,25.33l0 0 0 0c0,0 0,5.07 0,5.07 0,0 0,5.07 0,15.2 0,0 0,0 0,0 0,0 0,0 0,0 0,0 0,0 0,0 5.07,5.07 5.07,5.07 5.07,10.14l10.13 0 15.2 -15.21 5.07 -5.06 0 0 0 5.06 -5.07 5.07 0 0c5.07,0 5.07,0 5.07,5.07l0 0c0,5.07 -5.07,10.13 -15.2,15.2 -10.13,5.07 -15.2,10.13 -20.27,10.13 -5.07,0 -10.13,-10.13 -20.27,-20.26l0 0 0 -5.07 0 0c-15.2,15.2 -30.4,20.27 -35.47,20.27 -5.06,0 -5.06,0 -10.13,0 -15.2,0 -20.27,-5.07 -20.27,-10.14 0,0 0,-5.06 -5.07,-15.2 0,-5.07 5.07,-15.2 5.07,-20.27l0 0c0,-5.06 0,-5.06 5.07,-5.06l0 -5.07c0,-10.14 5.07,-15.2 25.33,-25.34 15.2,-10.13 30.41,-15.2 45.61,-15.2zm-60.81 35.47l-5.06 5.07 0 0c0,0 0,0 0,0 0,0 5.06,0 5.06,-5.07 0,0 0,0 0,0 0,0 0,0 0,0l0 0zm-5.06 10.14l0 5.06 0 5.07c0,0 0,-5.07 0,-5.07l0 -5.06 0 0zm60.8 5.06c0,5.07 0,5.07 -5.07,5.07l0 5.07 0 0 5.07 -10.14 0 0zm0 15.2l0 0c5.07,-5.06 5.07,-10.13 5.07,-10.13 0,0 -5.07,5.07 -5.07,10.13zm-55.74 -5.06l0 5.06 5.07 0 0 0 -5.07 -5.06 0 0zm-10.13 5.06l0 10.14c0,0 0,0 0,5.07l5.07 0 0 -5.07c0,0 -5.07,-5.07 -5.07,-10.14l0 0zm60.8 10.14l0 0 0 0c5.07,-5.07 5.07,-5.07 5.07,-5.07l0 0 0 0c-5.07,0 -5.07,5.07 -5.07,5.07z"/>
  <path class="fil2" d="M9345.02 8316.54c55.73,0 101.34,35.47 101.34,81.08 0,45.6 -45.61,86.14 -101.34,86.14 -55.74,0 -96.28,-40.54 -96.28,-86.14 0,-45.61 40.54,-81.08 96.28,-81.08z"/>
  <path class="fil2" d="M9345.02 9079.72c55.73,0 101.34,35.47 101.34,81.08 0,45.6 -45.61,86.14 -101.34,86.14 -55.74,0 -96.28,-40.54 -96.28,-86.14 0,-45.61 40.54,-81.08 96.28,-81.08z"/>
  <path class="fil2" d="M4014.8 10591.07c55.73,0 101.34,40.53 101.34,86.14 0,45.6 -45.61,81.07 -101.34,81.07 -55.74,0 -96.28,-35.47 -96.28,-81.07 0,-45.61 40.54,-86.14 96.28,-86.14z"/>
  <g>
   <path class="fil25 str0" d="M9986.75 11280.28c-324.63,3.24 -648.78,6.49 -972.87,9.46 -323.24,2.96 -647.58,5.92 -971.84,8.99 -325.37,3.07 -651.44,6.1 -977.06,9.02 -324.37,2.9 -649.85,5.93 -975.24,8.82 23.82,-130.38 47.12,-254.67 69.02,-373.11 22.04,-119.24 43.32,-232.53 63.41,-340.17 18.22,-97.63 35.31,-191.31 52.2,-280.87 16.98,-90.02 33.48,-176.42 48.9,-258.9 246.69,-1.78 492.6,-3.61 738.52,-5.45 246.36,-1.84 493.14,-3.76 739.13,-5.74 245.21,-1.97 490.86,-3.77 735.71,-5.63 245.69,-1.86 490.99,-3.72 737.13,-5.78 46.83,81.84 95.86,167.15 146.56,256.15 50.54,88.73 104.29,181.32 160.15,278.1 61.29,106.17 125.72,218.42 193.18,336.15 67.05,117.02 138.25,239.91 213.1,368.96z"/>
   <path class="fil26 str0" d="M9439.27 10567.84c-18.26,0.23 -35.74,0.45 -53.6,0.43 -48.06,-89.27 -93.73,-175.43 -137.35,-257.67 -42.12,-79.4 -83.34,-155.68 -122.07,-229.24 15.67,0 32.14,-0.13 47.81,-0.25 39.85,73.57 81.55,149.85 124.6,229.01 44.88,82.51 91.87,168.56 140.61,257.72z"/>
   <path class="fil27 str0" d="M9355.01 10278.98c-60.78,0.47 -121.56,0.94 -182.33,1.54 -27.56,-52.7 -53.59,-103.59 -79.69,-153.58 58.6,-0.36 117.19,-0.74 175.79,-1.23 27.49,49.87 56.52,100.66 86.23,153.27z"/>
   <path class="fil26 str0" d="M9126.4 10570.68c-17.46,0.23 -34.93,0.32 -53.19,0.29 -41.99,-89.43 -81.41,-175.6 -119.35,-257.91 -36.57,-79.31 -72.02,-155.8 -105.63,-229.54 15.66,-0.13 31.73,-0.26 47.4,-0.39 35.14,73.64 70.79,149.93 108.57,229.32 39.33,82.64 79.94,168.52 122.2,258.23z"/>
   <path class="fil27 str0" d="M9170.4 10489.72c-64.05,0.68 -128.09,1.24 -191.73,1.66 -26.05,-58.09 -51.37,-114.37 -75.97,-169.23 61.51,-0.59 122.63,-1.05 184.14,-1.64 27.14,55.15 55,111.33 83.56,169.21z"/>
   <path class="fil26 str0" d="M8794.14 10573.35c-17.87,0.22 -35.33,0.32 -53.19,0.42 -35.15,-89.58 -67.97,-175.72 -99.88,-258.4 -30.65,-79.41 -59.99,-155.9 -88.52,-229.45 16.08,-0.13 32.14,-0.38 48.21,-0.38 28.84,73.56 59.12,150.26 90.64,229.48 32.84,82.51 67.7,168.73 102.74,258.33z"/>
   <path class="fil27 str0" d="M8776.9 10330.53c-61.9,0.59 -122.99,1.05 -184.48,1.64 -20.67,-53.63 -40.19,-106.11 -58.95,-157.42 59.72,-0.23 118.65,-0.72 177.97,-1.21 21.34,51.08 43.02,103.33 65.46,156.99z"/>
   <path class="fil26 str0" d="M8462.32 10576.13c-18.26,0.11 -36.11,0.33 -53.98,0.43 -28.32,-89.61 -54.79,-175.86 -80.42,-258.63 -24.6,-79.41 -48.35,-156 -71,-229.87 16.07,-0.13 31.73,-0.25 47.8,-0.38 23.76,73.75 48.44,150.29 73.92,229.78 26.55,82.85 54.68,168.92 83.68,258.67z"/>
   <path class="fil27 str0" d="M8432.7 10245.78c-60.41,0.48 -120.43,0.96 -180.84,1.56 -15.53,-51.65 -30.27,-101.74 -44.63,-150.94 58.23,-0.5 116.46,-0.88 174.29,-1.38 16.56,48.96 33.48,99.35 51.18,150.76z"/>
   <path class="fil26 str0" d="M8148.81 10578.57c-18.25,0.23 -36.11,0.45 -53.57,0.68 -21.46,-89.9 -42.37,-176.02 -62.06,-258.88 -18.94,-79.67 -36.66,-156.36 -54.6,-230.29 16.47,0.12 32.13,-0.13 48.2,-0.25 17.85,73.81 37.08,150.41 57.11,230.07 20.79,82.65 42.38,169.01 64.92,258.67z"/>
   <path class="fil27 str0" d="M8148.98 10269.62c-60.38,0.47 -121.15,1.07 -181.93,1.41 -11.88,-51.98 -23.77,-102.94 -34.45,-152.47 59,-0.38 117.19,-0.87 175.39,-1.37 13.27,49.56 26.54,100.28 40.99,152.43z"/>
   <path class="fil26 str0" d="M7815.92 10581.6c-17.86,0.23 -35.71,0.33 -53.97,0.3 -14.65,-89.8 -28.21,-176.17 -41.84,-259.11 -13.08,-79.55 -25.83,-156.33 -37.5,-230.33 16.07,-0.12 32.13,-0.37 48.2,-0.37 12.36,73.87 26.03,150.57 40.01,230.36 14.52,82.86 29.76,169.08 45.1,259.15z"/>
   <path class="fil27 str0" d="M7839.51 10272.1c-60.36,0.59 -121.13,1.06 -182.3,1.53 -7.88,-52.19 -15.74,-103.09 -22.78,-152.84 58.59,-0.37 117.18,-0.87 175.37,-1.37 9.63,49.65 19.66,100.46 29.71,152.68z"/>
   <path class="fil26 str0" d="M7482.68 10584.37c-18.25,0.23 -36.5,0.32 -54.35,0.55 -7.85,-90.08 -15.72,-176.56 -22.84,-259.46 -6.88,-79.94 -13.43,-156.82 -19.21,-230.61 16.05,-0.13 31.72,-0.12 48.18,-0.38 6.89,73.81 14.2,150.83 22.13,230.52 8.26,82.92 16.77,169.41 26.09,259.38z"/>
   <path class="fil27 str0" d="M7544.42 10401.07c-62.56,0.57 -125.52,1.14 -188.08,1.59 -4.38,-55.34 -8.32,-109.53 -11.82,-162.43 60.41,-0.47 120.83,-0.83 180.84,-1.3 6.06,52.55 12.14,106.65 19.06,162.14z"/>
   <path class="fil26 str0" d="M6775.66 10585.35c-18.24,0.22 -36.09,0.32 -53.94,0.28 6.48,-89.85 12.98,-176.25 18.91,-259.22 5.72,-79.89 12.05,-156.74 17.15,-230.64 16.06,-0.12 32.52,-0.25 47.77,-0.37 -4.38,73.91 -9.21,150.49 -14.24,230.41 -5.23,83.09 -10.24,169.53 -15.65,259.54z"/>
   <path class="fil28 str0" d="M6862.61 10504.15c-64.38,0.55 -128.36,0.97 -193.12,1.64 5.27,-58.14 10.25,-114.76 14.93,-170.1 61.85,-0.46 123.71,-1.04 185.57,-1.49 -2.54,55.25 -5.01,111.77 -7.38,169.95z"/>
   <path class="fil26 str0" d="M6519.37 10592.44c-17.84,0.23 -36.08,0.33 -54.32,0.42 12.24,-90.28 23.63,-176.74 34.74,-260.15 10.7,-80.21 20.71,-157.13 30.59,-231.36 16.06,0 32.12,-0.12 47.76,-0.25 -8.76,73.99 -18.22,151.2 -27.65,231.27 -9.81,83.2 -20.35,169.77 -31.12,260.07z"/>
   <path class="fil28 str0" d="M6610.92 10510.82c-63.96,0.55 -128.32,1.22 -192.69,1.63 8.5,-58.22 16.29,-115.04 24.61,-170.6 61.85,-0.32 123.69,-0.9 185.93,-1.36 -6.18,55.33 -11.87,112.07 -17.85,170.33z"/>
   <path class="fil29 str0" d="M9485.55 10742.77c42.5,-0.36 67.9,-15.98 57.96,-34.69 -9.96,-18.47 -52.06,-33.13 -94.04,-32.7 -41.98,0.31 -67.93,15.47 -58.7,33.92 9.22,18.72 52.29,33.83 94.78,33.47z"/>
   <path class="fil29 str0" d="M9140.04 10745.49c42.69,-0.36 69.72,-15.82 61.21,-34.39 -8.53,-18.7 -49.96,-33.21 -92.33,-32.91 -41.18,0.44 -68.59,15.7 -60.78,34.14 8.19,18.68 49.21,33.52 91.9,33.16z"/>
   <path class="fil29 str0" d="M8855.84 10748.08c42.69,-0.41 70.8,-15.93 62.94,-34.61 -7.47,-18.55 -47.81,-33.18 -89.38,-32.87 -42.75,0.42 -70.84,15.55 -63.71,34.09 6.75,18.8 47.46,33.81 90.15,33.39z"/>
   <path class="fil29 str0" d="M8489.49 10751.13c42.68,-0.35 72.22,-15.91 66.18,-34.44 -5.66,-18.78 -44.94,-33.26 -87.29,-32.83 -41.95,0.3 -71.49,15.41 -66.16,34.05 5.72,18.65 44.6,33.57 87.27,33.22z"/>
   <path class="fil29 str0" d="M8163.91 10754c42.67,-0.35 73.66,-16.14 68.66,-34.52 -5.01,-18.76 -42.83,-33.23 -84.78,-32.93 -42.34,0.44 -72.94,15.39 -68.64,34.14 4.28,18.63 42.09,33.66 84.76,33.31z"/>
   <path class="fil29 str0" d="M7817.84 10756.82c42.66,-0.35 74.71,-15.74 71.12,-34.61 -3.19,-18.61 -40.34,-33.18 -82.27,-32.75 -42.34,0.43 -74.39,15.62 -71.92,34.09 2.87,18.73 40.41,33.62 83.07,33.27z"/>
   <path class="fil29 str0" d="M7450.52 10759.97c42.85,-0.41 76.13,-15.84 74.34,-34.69 -2.17,-18.46 -37.86,-33.14 -80.19,-32.84 -41.93,0.42 -75.42,15.73 -73.97,34.05 1.47,18.96 36.96,33.89 79.82,33.48z"/>
   <path class="fil30 str0" d="M9548.58 10862.47c43.56,-0.4 70.49,-16.85 59.84,-36.48 -11.06,-19.51 -54.58,-34.83 -97.23,-34.55 -43.04,0.55 -69.75,16.47 -59.8,35.84 9.94,19.75 53.63,35.59 97.19,35.19z"/>
   <path class="fil30 str0" d="M9195.01 10865.43c43.74,-0.34 71.52,-16.7 62.28,-36.44 -9.25,-19.61 -51.72,-34.65 -94.76,-34.37 -43.43,0.41 -70.78,16.19 -62.24,35.79 8.13,19.6 50.97,35.35 94.72,35.02z"/>
   <path class="fil30 str0" d="M8903.37 10867.89c43.55,-0.4 72.19,-16.68 64.38,-36.26 -8.21,-19.59 -49.21,-35.01 -92.23,-34.73 -43.43,0.54 -72.24,16.56 -65.54,36.01 7.88,19.7 49.85,35.38 93.39,34.98z"/>
   <path class="fil30 str0" d="M8526.68 10871.28c44.13,-0.46 74.78,-16.65 67.98,-36.47 -6.42,-19.55 -46.37,-34.95 -89.78,-34.54 -43.02,0.28 -73.27,16.53 -67.57,35.82 6.1,19.94 45.25,35.66 89.37,35.19z"/>
   <path class="fil30 str0" d="M8193.4 10874.14c43.53,-0.33 75.03,-16.5 70.03,-36.29 -5.39,-19.67 -43.88,-35.18 -87.29,-34.77 -43.01,0.54 -74.7,16.39 -70.81,36.04 5.08,19.78 44.55,35.36 88.07,35.02z"/>
   <path class="fil30 str0" d="M7837.74 10877.32c44.11,-0.4 76.44,-16.74 72.84,-36.64 -3.19,-19.51 -41.42,-34.86 -84.82,-34.59 -43,0.54 -75.72,16.62 -72.85,36.12 2.49,19.63 40.72,35.5 84.83,35.11z"/>
   <path class="fil30 str0" d="M7460.9 10880.68c43.9,-0.46 78.23,-16.84 76.02,-36.58 -1.8,-19.74 -38.98,-35.07 -82.37,-34.92 -42.99,0.54 -76.75,16.84 -75.26,36.31 1.09,19.73 37.7,35.65 81.61,35.19z"/>
   <path class="fil31 str0" d="M9621.49 10998.5c44.99,-0.44 71.89,-17.85 60.94,-38.4 -11.74,-20.8 -56.66,-36.8 -101.13,-36.54 -44.09,0.27 -71.54,17.22 -60.5,38.01 10.64,20.67 55.7,37.37 100.69,36.93z"/>
   <path class="fil31 str0" d="M9257.32 11001.66c44.98,-0.44 73.68,-17.57 63.73,-38.47 -10.36,-20.65 -54.22,-36.89 -97.91,-36.49 -44.47,0.52 -72.95,17.44 -64.08,37.95 9.64,20.77 53.28,37.46 98.26,37.01z"/>
   <path class="fil31 str0" d="M8956.85 11004.49c44.96,-0.44 74.72,-17.93 66.18,-38.55 -8.93,-20.76 -51.34,-36.98 -95.8,-36.45 -44.07,0.38 -74.39,17.16 -66.16,37.78 7.83,20.99 50.81,37.66 95.78,37.22z"/>
   <path class="fil31 str0" d="M8570.44 11007.82c45.55,-0.5 76.1,-17.65 68.95,-38.5 -6.77,-20.73 -48.55,-37.05 -92.61,-36.66 -44.84,0.39 -75.78,17.27 -69.71,38.11 6.06,20.85 47.82,37.55 93.37,37.05z"/>
   <path class="fil31 str0" d="M8226.51 11011.01c45.15,-0.38 77.12,-17.88 71.36,-38.58 -4.98,-20.82 -45.31,-37.12 -89.76,-36.73 -44.44,0.38 -76.8,17.25 -71.74,38.06 4.28,21.06 45,37.62 90.14,37.25z"/>
   <path class="fil31 str0" d="M7860.68 11014.25c45.13,-0.43 78.52,-17.85 74.92,-38.65 -3.99,-20.79 -42.89,-37.32 -87.32,-36.94 -44.44,0.51 -78.21,17.73 -75.32,38.27 2.9,20.9 42.59,37.76 87.72,37.32z"/>
   <path class="fil31 str0" d="M7472.56 11017.67c45.32,-0.49 80.69,-17.69 78.46,-38.72 -2.22,-20.76 -40.5,-37.27 -84.91,-36.63 -44.43,0.39 -79.61,17.33 -78.09,38.08 1.92,20.88 39.22,37.78 84.54,37.27z"/>
   <path class="fil32 str0" d="M9726.93 11196.41c46.92,-0.34 74.75,-19.36 62.39,-41.47 -12.37,-22.51 -59.34,-39.96 -105.57,-39.6 -45.84,0.49 -74.01,18.58 -62.72,41.07 11.27,22.49 58.99,40.34 105.9,40z"/>
   <path class="fil32 str0" d="M9347.72 11199.79c46.91,-0.34 76.12,-19.06 65.91,-41.66 -11.01,-22.21 -56.57,-39.9 -102.4,-39.41 -46.61,0.36 -76.18,18.69 -66.25,41.01 9.92,22.58 55.84,40.4 102.74,40.06z"/>
   <path class="fil32 str0" d="M9035.04 11202.77c47.1,-0.47 77.53,-19.3 67.92,-41.48 -9.22,-22.44 -53.74,-40.11 -99.95,-39.62 -45.82,0.23 -76.81,18.53 -68.27,40.83 8.53,22.81 53.21,40.74 100.3,40.27z"/>
   <path class="fil32 str0" d="M8632.56 11206.57c46.89,-0.47 79.28,-19.39 71.4,-41.81 -7.1,-22.27 -50.22,-40.04 -96.42,-39.68 -46.98,0.61 -78.56,18.75 -72.54,41.15 6.8,22.64 50.68,40.8 97.56,40.34z"/>
   <path class="fil32 str0" d="M8274.32 11209.87c47.46,-0.47 80.66,-19.23 74.53,-42.12 -5.34,-22.12 -47.82,-39.87 -94.01,-39.38 -46.58,0.48 -79.95,18.73 -74.91,41.08 5.05,22.76 46.93,40.89 94.39,40.42z"/>
   <path class="fil32 str0" d="M7893.13 11213.46c47.06,-0.4 82.41,-19.33 78.02,-42.05 -3.99,-22.48 -44.68,-40.32 -91.24,-39.71 -46.18,0.35 -80.94,19.09 -77.64,41.29 3.31,22.58 43.81,40.87 90.86,40.47z"/>
   <path class="fil32 str0" d="M7490.17 11217.21c47.05,-0.39 82.97,-19.29 81.1,-41.98 -2.26,-22.56 -41.95,-40.39 -88.12,-40.04 -46.16,0.49 -83.08,18.93 -81.11,41.48 1.2,22.67 41.09,40.95 88.13,40.54z"/>
   <path class="fil33 str0" d="M6293.02 11052.07c281.39,-2.43 562.43,-4.98 843.52,-7.53 -1.86,-110.08 -3.51,-215.02 -4.95,-315.88 -263.18,2.37 -525.94,4.61 -789.07,6.72 -7.93,50.54 -16.56,102.47 -24.69,155.17 -8.12,52.57 -16.12,106.66 -24.81,161.52z"/>
   <polygon class="fil25 str0" points="6089.74,11316.57 9986.75,11280.28 9972.68,11710.35 6089.74,11710.35 "/>
   <path class="fil34" d="M7249.35 11546.06l37.19 -3.69c2.25,12.44 6.73,21.54 13.55,27.39 6.81,5.85 16,8.75 27.56,8.75 12.22,0 21.45,-2.6 27.65,-7.78 6.2,-5.19 9.32,-11.26 9.32,-18.2 0,-4.49 -1.31,-8.27 -3.91,-11.44 -2.59,-3.12 -7.17,-5.84 -13.67,-8.13 -4.44,-1.58 -14.55,-4.31 -30.38,-8.27 -20.35,-5.09 -34.65,-11.34 -42.87,-18.77 -11.56,-10.42 -17.32,-23.12 -17.32,-38.11 0,-9.63 2.73,-18.69 8.14,-27.09 5.45,-8.39 13.27,-14.77 23.52,-19.16 10.24,-4.4 22.55,-6.6 37.06,-6.6 23.61,0 41.41,5.23 53.33,15.74 11.95,10.51 18.2,24.49 18.81,42.03l-38.24 1.32c-1.63,-9.76 -5.1,-16.75 -10.43,-21.01 -5.31,-4.27 -13.31,-6.43 -23.96,-6.43 -10.98,0 -19.6,2.29 -25.8,6.86 -4,2.95 -6.03,6.86 -6.03,11.79 0,4.48 1.89,8.3 5.67,11.47 4.8,4.09 16.45,8.31 34.96,12.71 18.51,4.35 32.18,8.92 41.01,13.58 8.89,4.7 15.83,11.08 20.85,19.21 5.01,8.14 7.51,18.16 7.51,30.08 0,10.81 -2.99,20.97 -9.01,30.42 -6.02,9.45 -14.51,16.48 -25.5,21.06 -10.99,4.61 -24.71,6.9 -41.11,6.9 -23.87,0 -42.2,-5.49 -55,-16.53 -12.79,-10.99 -20.39,-27.04 -22.9,-48.1zm356.11 61.2l-41.19 0 -16.31 -43 -75.75 0 -15.7 43 -40.45 0 73.34 -188.87 40.4 0 75.66 188.87zm-69.9 -74.91l-26.25 -69.91 -25.5 69.91 51.75 0zm90.26 -113.96l38.25 0 0 102.35c0,16.27 0.48,26.77 1.41,31.57 1.62,7.73 5.45,13.98 11.52,18.64 6.11,4.7 14.42,7.03 24.97,7.03 10.68,0 18.77,-2.2 24.22,-6.64 5.45,-4.44 8.71,-9.84 9.8,-16.31 1.1,-6.46 1.68,-17.15 1.68,-32.09l0 -104.55 38.25 0 0 99.32c0,22.68 -1.01,38.73 -3.08,48.09 -2.07,9.37 -5.85,17.28 -11.39,23.74 -5.5,6.47 -12.88,11.56 -22.11,15.39 -9.28,3.83 -21.32,5.76 -36.23,5.76 -17.98,0 -31.61,-2.07 -40.88,-6.24 -9.29,-4.18 -16.63,-9.59 -22.03,-16.27 -5.41,-6.68 -8.93,-13.63 -10.64,-20.97 -2.51,-10.82 -3.74,-26.82 -3.74,-47.97l0 -100.85zm190.5 188.87l0 -188.87 37.02 0 77.73 126.57 0 -126.57 35.35 0 0 188.87 -38.21 0 -76.54 -124.15 0 124.15 -35.35 0zm190.5 -188.87l69.55 0c15.7,0 27.65,1.19 35.88,3.61 11.03,3.25 20.53,9.05 28.4,17.41 7.91,8.3 13.89,18.5 18.02,30.59 4.09,12.05 6.16,26.95 6.16,44.63 0,15.56 -1.94,28.93 -5.8,40.18 -4.71,13.76 -11.44,24.88 -20.19,33.37 -6.59,6.47 -15.52,11.48 -26.72,15.08 -8.4,2.68 -19.61,4 -33.68,4l-71.62 0 0 -188.87zm38.25 31.92l0 125.03 28.36 0c10.59,0 18.24,-0.61 22.95,-1.8 6.19,-1.54 11.3,-4.18 15.34,-7.87 4.09,-3.69 7.38,-9.76 9.93,-18.2 2.6,-8.44 3.88,-20.01 3.88,-34.6 0,-14.6 -1.28,-25.76 -3.88,-33.59 -2.55,-7.83 -6.15,-13.89 -10.77,-18.29 -4.61,-4.35 -10.46,-7.34 -17.58,-8.88 -5.28,-1.18 -15.7,-1.8 -31.17,-1.8l-17.06 0zm152.25 -31.92l38.25 0 0 102.35c0,16.27 0.48,26.77 1.41,31.57 1.62,7.73 5.45,13.98 11.52,18.64 6.11,4.7 14.42,7.03 24.97,7.03 10.68,0 18.77,-2.2 24.22,-6.64 5.45,-4.44 8.71,-9.84 9.8,-16.31 1.1,-6.46 1.68,-17.15 1.68,-32.09l0 -104.55 38.24 0 0 99.32c0,22.68 -1,38.73 -3.07,48.09 -2.07,9.37 -5.85,17.28 -11.39,23.74 -5.5,6.47 -12.88,11.56 -22.11,15.39 -9.28,3.83 -21.33,5.76 -36.23,5.76 -17.98,0 -31.61,-2.07 -40.89,-6.24 -9.28,-4.18 -16.62,-9.59 -22.02,-16.27 -5.41,-6.68 -8.93,-13.63 -10.64,-20.97 -2.51,-10.82 -3.74,-26.82 -3.74,-47.97l0 -100.85zm278.34 119.49l0 -31.91 82.04 0 0 75.35c-7.96,7.78 -19.52,14.6 -34.69,20.53 -15.12,5.89 -30.47,8.84 -46.03,8.84 -19.74,0 -36.93,-4.13 -51.61,-12.44 -14.65,-8.31 -25.68,-20.23 -33.07,-35.66 -7.38,-15.43 -11.07,-32.27 -11.07,-50.42 0,-19.7 4.13,-37.2 12.35,-52.54 8.27,-15.3 20.31,-27.08 36.18,-35.26 12.14,-6.29 27.17,-9.41 45.2,-9.41 23.43,0 41.76,4.93 54.95,14.77 13.15,9.9 21.63,23.48 25.41,40.89l-37.98 7.12c-2.64,-9.28 -7.65,-16.62 -14.99,-22.03 -7.3,-5.36 -16.45,-8.04 -27.44,-8.04 -16.61,0 -29.85,5.27 -39.65,15.87 -9.81,10.6 -14.73,26.29 -14.73,47.09 0,22.46 4.97,39.3 14.9,50.51 9.98,11.21 23,16.84 39.13,16.84 7.96,0 15.96,-1.58 23.96,-4.7 8.05,-3.12 14.91,-6.95 20.67,-11.44l0 -23.96 -43.53 0zm287.48 69.38l-41.19 0 -16.31 -43 -75.75 0 -15.7 43 -40.45 0 73.34 -188.87 40.4 0 75.66 188.87zm-69.9 -74.91l-26.25 -69.91 -25.5 69.91 51.75 0zm211.08 5.27l36.93 11.34c-5.68,20.8 -15.13,36.23 -28.32,46.34 -13.19,10.07 -29.9,15.13 -50.16,15.13 -25.11,0 -45.72,-8.58 -61.9,-25.72 -16.14,-17.15 -24.23,-40.58 -24.23,-70.35 0,-31.43 8.13,-55.87 24.36,-73.28 16.22,-17.41 37.59,-26.12 64.06,-26.12 23.12,0 41.89,6.86 56.31,20.53 8.62,8.09 15.04,19.7 19.35,34.86l-37.72 8.97c-2.25,-9.76 -6.91,-17.49 -13.98,-23.16 -7.13,-5.68 -15.74,-8.49 -25.85,-8.49 -14.03,0 -25.42,5.01 -34.12,15.08 -8.75,10.03 -13.1,26.29 -13.1,48.8 0,23.83 4.3,40.84 12.88,50.95 8.61,10.16 19.78,15.22 33.54,15.22 10.16,0 18.91,-3.21 26.21,-9.67 7.3,-6.47 12.57,-16.58 15.74,-30.43zm69.68 69.64l0 -188.87 38.25 0 0 74.39 74.39 0 0 -74.39 38.25 0 0 188.87 -38.25 0 0 -82.57 -74.39 0 0 82.57 -38.25 0zm186.02 -50.38l0 -36.14 71.22 0 0 36.14 -71.22 0zm83.09 0.31l35.09 -4.27c1.09,8.97 4.08,15.83 8.96,20.58 4.88,4.74 10.77,7.12 17.68,7.12 7.43,0 13.67,-2.86 18.77,-8.53 5.05,-5.67 7.6,-13.32 7.6,-22.99 0,-9.11 -2.41,-16.36 -7.29,-21.68 -4.88,-5.32 -10.82,-8 -17.85,-8 -4.62,0 -10.12,0.92 -16.53,2.73l4 -29.37c9.76,0.26 17.19,-1.89 22.33,-6.42 5.15,-4.49 7.7,-10.51 7.7,-18.03 0,-6.37 -1.9,-11.43 -5.68,-15.25 -3.78,-3.78 -8.79,-5.67 -15.08,-5.67 -6.19,0 -11.47,2.15 -15.82,6.46 -4.4,4.31 -7.04,10.59 -8,18.86l-33.24 -5.67c2.33,-11.52 5.8,-20.71 10.5,-27.61 4.66,-6.86 11.22,-12.27 19.57,-16.22 8.35,-3.92 17.76,-5.9 28.14,-5.9 17.76,0 32,5.68 42.73,17.06 8.84,9.32 13.28,19.87 13.28,31.61 0,16.62 -9.06,29.94 -27.22,39.83 10.82,2.33 19.43,7.52 25.94,15.61 6.46,8.09 9.72,17.85 9.72,29.28 0,16.58 -6.07,30.74 -18.16,42.43 -12.09,11.69 -27.12,17.54 -45.15,17.54 -17.06,0 -31.22,-4.92 -42.42,-14.82 -11.26,-9.84 -17.77,-22.73 -19.57,-38.68zm209.1 -139.86c18.28,0 32.57,6.56 42.91,19.66 12.26,15.47 18.42,41.19 18.42,77.07 0,35.83 -6.2,61.59 -18.56,77.24 -10.24,12.93 -24.49,19.39 -42.77,19.39 -18.38,0 -33.2,-7.08 -44.45,-21.23 -11.25,-14.16 -16.88,-39.44 -16.88,-75.75 0,-35.66 6.19,-61.34 18.55,-76.99 10.24,-12.92 24.49,-19.39 42.78,-19.39zm0 30.08c-4.31,0 -8.18,1.4 -11.52,4.22 -3.39,2.77 -6.02,7.78 -7.87,15.03 -2.46,9.37 -3.69,25.2 -3.69,47.4 0,22.24 1.09,37.5 3.29,45.81 2.2,8.31 4.97,13.85 8.31,16.62 3.34,2.76 7.17,4.13 11.48,4.13 4.31,0 8.17,-1.41 11.56,-4.22 3.34,-2.77 5.98,-7.78 7.83,-15.04 2.46,-9.27 3.69,-25.06 3.69,-47.3 0,-22.2 -1.1,-37.46 -3.3,-45.77 -2.2,-8.31 -4.97,-13.89 -8.31,-16.66 -3.34,-2.82 -7.16,-4.22 -11.47,-4.22zm146.71 -30.08c18.29,0 32.58,6.56 42.91,19.66 12.26,15.47 18.42,41.19 18.42,77.07 0,35.83 -6.2,61.59 -18.56,77.24 -10.24,12.93 -24.48,19.39 -42.77,19.39 -18.38,0 -33.2,-7.08 -44.45,-21.23 -11.25,-14.16 -16.88,-39.44 -16.88,-75.75 0,-35.66 6.2,-61.34 18.55,-76.99 10.24,-12.92 24.49,-19.39 42.78,-19.39zm0 30.08c-4.31,0 -8.18,1.4 -11.52,4.22 -3.39,2.77 -6.02,7.78 -7.87,15.03 -2.46,9.37 -3.69,25.2 -3.69,47.4 0,22.24 1.1,37.5 3.29,45.81 2.2,8.31 4.97,13.85 8.32,16.62 3.34,2.76 7.16,4.13 11.47,4.13 4.31,0 8.17,-1.41 11.56,-4.22 3.34,-2.77 5.98,-7.78 7.83,-15.04 2.46,-9.27 3.69,-25.06 3.69,-47.3 0,-22.2 -1.1,-37.46 -3.3,-45.77 -2.2,-8.31 -4.97,-13.89 -8.31,-16.66 -3.34,-2.82 -7.16,-4.22 -11.47,-4.22zm146.71 -30.08c18.29,0 32.58,6.56 42.91,19.66 12.27,15.47 18.42,41.19 18.42,77.07 0,35.83 -6.2,61.59 -18.55,77.24 -10.25,12.93 -24.49,19.39 -42.78,19.39 -18.38,0 -33.2,-7.08 -44.45,-21.23 -11.25,-14.16 -16.88,-39.44 -16.88,-75.75 0,-35.66 6.2,-61.34 18.55,-76.99 10.25,-12.92 24.49,-19.39 42.78,-19.39zm0 30.08c-4.31,0 -8.18,1.4 -11.52,4.22 -3.38,2.77 -6.02,7.78 -7.87,15.03 -2.46,9.37 -3.69,25.2 -3.69,47.4 0,22.24 1.1,37.5 3.29,45.81 2.2,8.31 4.97,13.85 8.32,16.62 3.34,2.76 7.16,4.13 11.47,4.13 4.31,0 8.18,-1.41 11.56,-4.22 3.35,-2.77 5.98,-7.78 7.83,-15.04 2.46,-9.27 3.69,-25.06 3.69,-47.3 0,-22.2 -1.1,-37.46 -3.3,-45.77 -2.2,-8.31 -4.97,-13.89 -8.31,-16.66 -3.34,-2.82 -7.16,-4.22 -11.47,-4.22z"/>
   <path class="fil19 str0" d="M6335.94 11471.18c58.28,0 105.52,44.1 105.52,98.48 0,54.39 -47.24,98.48 -105.52,98.48 -58.27,0 -105.51,-44.09 -105.51,-98.48 0,-54.38 47.24,-98.48 105.51,-98.48z"/>
   <path class="fil19 str0" d="M6687.66 11471.19c58.27,0 105.51,44.09 105.51,98.48 0,54.39 -47.24,98.48 -105.51,98.48 -58.28,0 -105.52,-44.09 -105.52,-98.48 0,-54.39 47.24,-98.48 105.52,-98.48z"/>
   <path class="fil26 str0" d="M7131.81 10584.37c-18.25,0.23 -36.5,0.32 -54.35,0.55 -7.85,-90.08 -15.72,-176.56 -22.84,-259.46 -6.88,-79.94 -13.43,-156.82 -19.21,-230.61 16.06,-0.13 31.72,-0.12 48.18,-0.38 6.89,73.81 14.2,150.83 22.13,230.52 8.26,82.92 16.77,169.41 26.09,259.38z"/>
   <path class="fil35 str0" d="M7193.55 10401.07c-62.56,0.57 -125.52,1.14 -188.08,1.59 -4.38,-55.34 -8.32,-109.53 -11.82,-162.43 60.41,-0.47 120.83,-0.83 180.84,-1.3 6.06,52.55 12.14,106.65 19.06,162.14z"/>
  </g>
  <polygon class="fil29" points="7567.11,-269.34 7417.43,479.04 7136.79,427.59 7267.76,684.84 6757.92,806.45 7347.27,909.36 7183.56,1395.8 7567.11,1063.71 8170.49,1643.7 7908.55,876.61 8338.87,479.04 7815.01,479.04 "/>
  <ellipse class="fil36" cx="7513.82" cy="2521.41" rx="238.12" ry="211.67"/>
 </g>
</svg>
