<?xml version="1.0" encoding="UTF-8"?>
<!DOCTYPE svg PUBLIC "-//W3C//DTD SVG 1.1//EN" "http://www.w3.org/Graphics/SVG/1.1/DTD/svg11.dtd">
<!-- Creator: CorelDRAW 2017 -->
<svg xmlns="http://www.w3.org/2000/svg" xml:space="preserve" width="118.533mm" height="118.533mm" version="1.1" style="shape-rendering:geometricPrecision; text-rendering:geometricPrecision; image-rendering:optimizeQuality; fill-rule:evenodd; clip-rule:evenodd"
viewBox="0 0 11853.32 11853.32"
 xmlns:xlink="http://www.w3.org/1999/xlink">
 <defs>
  <style type="text/css">
   <![CDATA[
    .str1 {stroke:black;stroke-width:195.28;stroke-miterlimit:22.9256}
    .str3 {stroke:#C2B994;stroke-width:67.73;stroke-miterlimit:22.9256}
    .str4 {stroke:#DED3BF;stroke-width:67.73;stroke-miterlimit:22.9256}
    .str2 {stroke:black;stroke-width:20;stroke-miterlimit:22.9256}
    .str0 {stroke:black;stroke-width:135.47;stroke-miterlimit:22.9256}
    .fil5 {fill:black}
    .fil25 {fill:black}
    .fil12 {fill:#1A1A1A}
    .fil3 {fill:#2B2A29}
    .fil19 {fill:#333333}
    .fil22 {fill:#400A40}
    .fil24 {fill:#4D4D4D}
    .fil13 {fill:#666666}
    .fil7 {fill:#6666CC}
    .fil17 {fill:#6B231C}
    .fil18 {fill:#A30026}
    .fil23 {fill:#AFBFC7}
    .fil16 {fill:#B3B3B3}
    .fil6 {fill:#BD0006}
    .fil15 {fill:#CCCCCC}
    .fil9 {fill:#D40B0B}
    .fil11 {fill:#E81515}
    .fil0 {fill:#F0F0F0}
    .fil20 {fill:#F7F7F7}
    .fil1 {fill:#FCD5A6}
    .fil8 {fill:red}
    .fil21 {fill:#FFED00}
    .fil4 {fill:white}
    .fil10 {fill:black;fill-rule:nonzero}
    .fil14 {fill:url(#id0)}
    .fil2 {fill:url(#id1)}
   ]]>
  </style>
  <radialGradient id="id0" gradientUnits="userSpaceOnUse" gradientTransform="matrix(3.56641 -0 -0 3.77731 -15328 -20262)" cx="5972.39" cy="7295.48" r="668.6" fx="5972.39" fy="7295.48">
   <stop offset="0" style="stop-opacity:1; stop-color:#F71111"/>
   <stop offset="0.811765" style="stop-opacity:1; stop-color:#E50E0E"/>
   <stop offset="1" style="stop-opacity:1; stop-color:#D40B0B"/>
  </radialGradient>
  <radialGradient id="id1" gradientUnits="userSpaceOnUse" gradientTransform="matrix(3.55301 -0 -0 2.26931 -10523 -942)" cx="4121.9" cy="741.92" r="1128.28" fx="4121.9" fy="741.92">
   <stop offset="0" style="stop-opacity:1; stop-color:#50241A"/>
   <stop offset="1" style="stop-opacity:1; stop-color:#6B231C"/>
  </radialGradient>
 </defs>
 <g id="Слой_x0020_1">
  <metadata id="CorelCorpID_0Corel-Layer"/>
  <path class="fil0" d="M7956.51 6546.48l3410.13 0c202.77,0 368.65,175.61 368.65,390.26l0 3814.35c0,214.66 -165.88,390.27 -368.65,390.27l-3410.13 0c-202.76,0 -368.65,-175.61 -368.65,-390.27l0 -3814.35c0,-214.65 165.89,-390.26 368.65,-390.26z"/>
  <path class="fil1" d="M4174.18 761.98c815.45,0 1435.89,620.44 1435.89,1489.07 0,815.45 -620.44,1497.94 -1435.89,1497.94 -868.63,0 -1497.94,-682.49 -1497.94,-1497.94 0,-868.63 629.31,-1489.07 1497.94,-1489.07z"/>
  <path class="fil2" d="M4175.62 762.38c629.31,0 1249.76,425.45 1373.85,1054.76 62.04,310.22 -1497.94,-195 -1870.21,-753.41 -248.18,327.95 -806.58,682.49 -930.67,682.49 186.14,-558.4 744.54,-992.71 1427.03,-992.71l0 0 0 0 0 8.87z"/>
  <path class="fil3" d="M3838.81 901.67c558.4,531.82 1400.44,806.58 1622.03,664.76 -602.73,-8.86 -1285.22,-372.27 -1622.03,-664.76l0 0z"/>
  <path class="fil3" d="M4011.19 841.22c452.03,425.44 1116.8,647.03 1294.07,540.67 -487.49,-8.86 -1028.17,-301.36 -1294.07,-540.67z"/>
  <path class="fil3" d="M3745.29 885.53c-257.05,292.5 -647.05,487.5 -753.41,452.05 283.64,-62.05 602.72,-283.64 753.41,-452.05z"/>
  <ellipse class="fil4 str0" cx="2305.31" cy="5354.29" rx="1577.71" ry="1302.94"/>
  <path class="fil1" d="M2296.77 4281.88c797.72,0 1462.49,638.17 1462.49,1409.3 0,806.58 -664.77,1444.76 -1462.48,1444.76 -806.59,0 -1471.36,-638.18 -1471.36,-1444.76 0,-771.13 664.78,-1409.3 1471.36,-1409.3l-0.01 0z"/>
  <polygon class="fil5" points="2482.91,7135.94 2154.97,7135.94 2013.15,6861.17 2624.73,6861.17 "/>
  <path class="fil5" d="M2314.51 4281.88c912.93,-26.6 1559.97,939.52 1444.75,1577.7 0,53.18 -26.59,691.35 -26.59,611.59 0,-425.45 -1692.94,-1577.71 -1887.93,-1887.93 -88.63,106.35 -806.58,602.71 -939.54,638.17 194.99,-584.99 744.54,-939.53 1409.31,-939.53l0 0 0 0 0 0z"/>
  <path class="fil6" d="M648.17 7428.43l443.18 26.6 1223.17 1630.88 1249.76 -1630.88 469.77 -26.6c310.22,0 558.4,274.76 558.4,585l0 2942.7 -4493.81 0 0 -2942.7c0,-310.24 257.05,-585 549.55,-585l0 0 0 0 0 0 -0.02 0 0.02 0 -0.02 0z"/>
  <polygon class="fil7" points="299.05,5230.27 629.42,5230.27 629.42,6222.99 299.05,6222.99 "/>
  <polygon class="fil8" points="365.13,5230.27 431.21,5230.27 431.21,6222.99 365.13,6222.99 "/>
  <polygon class="fil5 str1" points="640.44,5194.82 849.67,5194.82 849.67,6240.72 640.44,6240.72 "/>
  <polygon class="fil7" points="3968.01,5230.27 4251.65,5230.27 4251.65,6222.99 3968.01,6222.99 "/>
  <polygon class="fil8" points="4136.43,5230.27 4198.46,5230.27 4198.46,6222.99 4136.43,6222.99 "/>
  <polygon class="fil5 str1" points="3781.88,5194.82 3950.28,5194.82 3950.28,6240.72 3781.88,6240.72 "/>
  <path class="fil9" d="M4601.3 10442.05l0 744.53 -4502.67 0 0 -744.53 4502.67 0zm-8.87 -1302.96l0 1054.77 -4493.8 0 0 -1054.77 4493.8 0zm-3359.26 -1471.34l771.12 1054.76 -1914.53 0 0 -655.9c0,-141.81 26.59,-283.64 106.37,-389.99l1028.17 0 0 0 0 0 8.87 -8.87zm1418.15 1054.76l771.13 -1054.76 1028.17 0c79.77,115.23 141.81,257.05 141.81,389.99l0 655.91 -1941.11 0 0 0 0 0 0 8.86z"/>
  <path class="fil10" d="M470.9 6143.22c97.5,-26.59 150.68,203.86 212.72,425.45 26.59,88.63 62.05,195 88.63,257.04l0 0c35.46,115.23 -35.45,372.27 -141.8,700.22 -141.83,478.63 -345.69,1116.8 -301.36,1639.76 17.72,62.04 0,301.35 -17.74,602.72 -26.59,567.26 -70.91,1329.52 -8.86,1338.39l-17.73 62.05c-115.22,-26.59 -79.78,-824.31 -35.45,-1400.44 17.72,-301.36 26.59,-540.68 17.72,-593.87l0 0c-44.31,-540.66 150.69,-1178.84 301.37,-1675.2 97.5,-310.23 177.27,-558.41 141.81,-655.91 -26.59,-62.04 -53.18,-159.54 -88.63,-257.04 -53.18,-194.99 -106.36,-389.99 -150.68,-381.13l0 -62.04 0 0 0 0z"/>
  <polygon class="fil11" points="8058.09,11886.79 8058.09,10991.57 4007.44,10991.57 4007.44,11886.79 "/>
  <path class="fil1" d="M6063.78 3581.65c850.91,0 1506.81,655.9 1506.81,1568.84 0,850.91 -655.9,1568.85 -1506.81,1568.85 -921.8,0 -1568.85,-717.94 -1568.85,-1568.85 0,-921.8 655.92,-1568.84 1568.86,-1568.84l-0.01 0z"/>
  <path class="fil5" d="M6063.78 3581.65c655.91,0 1311.81,452.04 1444.77,1116.8 62.04,327.95 -1568.85,-203.85 -1967.71,-788.85 -265.9,345.68 -859.76,717.94 -992.72,717.94 203.86,-593.85 788.86,-1045.89 1515.67,-1045.89l0 0 0 0 -0.01 0z"/>
  <path class="fil12" d="M4166.99 6994.11l522.95 62.05 1382.71 3279.52 1311.81 -3279.52 460.9 -62.05c319.09,0 655.9,327.96 655.9,655.91l0 4245.64 -4919.26 0 0 -4245.64c0,-319.08 257.05,-655.91 593.86,-655.91l0 0 0 0 0 0 -8.87 0 0.01 0 -0.01 0z"/>
  <path class="fil5 str1" d="M6063.78 9351.83c0,-35.46 -26.59,-70.92 -70.91,-70.92 -26.59,0 -62.04,26.6 -62.04,70.92 0,26.58 26.6,62.04 62.04,62.04 35.46,0 70.91,-26.59 70.91,-62.04z"/>
  <polygon class="fil13" points="7375.59,8215.43 8173.32,8215.43 8173.32,8321.8 7375.59,8321.8 "/>
  <polygon class="fil4" points="8140.36,8933.17 7954.22,8605.21 7555.36,9199.07 8344.22,9199.07 "/>
  <path class="fil14" d="M5966.29 7180.25l-824.31 -310.22c44.31,283.63 0,709.09 132.96,850.9l629.3 -372.27 815.45 372.27c26.59,-283.63 115.22,-549.54 70.91,-850.9l-824.31 310.22 0 0 0 0z"/>
  <path class="fil5 str1" d="M6063.78 8172.96c0,-35.44 -26.59,-70.9 -70.91,-70.9 -26.59,0 -62.04,26.59 -62.04,70.9 0,26.61 26.6,62.06 62.04,62.06 35.46,0 70.91,-26.6 70.91,-62.06z"/>
  <path class="fil4" d="M7650.36 8279.33c115.22,159.55 186.14,168.41 88.63,283.64l-1825.89 2136.11 132.96 -381.13c416.58,-1161.13 868.63,-2313.38 1223.16,-3483.37l17.73 -62.06 886.35 203.87 -124.09 1240.9c-17.72,124.09 -88.63,106.36 -212.72,88.63l-177.27 -26.59 0 0 -8.86 0 0 0z"/>
  <path class="fil15" d="M8031.49 7020.72l-753.4 -168.42c-345.68,1152.26 -815.45,2322.25 -1223.16,3483.38l1568.84 -1879.08 -203.85 -265.9 487.48 53.18 115.23 -1223.16 0 0 8.86 0 0 0z"/>
  <path class="fil4" d="M4459.49 8235.02c-124.09,159.53 -195,168.4 -88.65,292.49l1657.49 1932.26 35.45 -194.99c-407.72,-1161.13 -859.76,-2304.54 -1223.17,-3474.53l-26.59 -70.91 -886.35 203.87 124.1 1240.9c17.72,132.94 97.49,106.35 221.59,88.63l177.26 -26.59 0 0 8.87 8.87 0 0z"/>
  <path class="fil16" d="M4060.63 6985.26l753.39 -168.41c354.55,1143.39 815.45,2313.39 1223.18,3474.52l-1568.86 -1879.08 203.87 -265.91 -478.63 53.19 -124.09 -1214.3 0 0 -8.86 0 0 -0.01z"/>
  <path class="fil5" d="M5709.25 3927.33c593.86,549.53 1462.49,842.03 1710.67,700.21 -647.04,-8.85 -1356.13,-389.99 -1710.67,-700.21z"/>
  <path class="fil5" d="M5806.74 3856.42c478.63,443.18 1169.99,673.62 1364.99,558.4 -514.09,-8.87 -1081.36,-310.22 -1364.99,-558.4z"/>
  <path class="fil9" d="M5434.47 7100.48c35.46,17.72 452.05,62.05 398.87,141.81 -88.63,-70.9 -434.31,-53.18 -398.87,-141.81l0 0z"/>
  <path class="fil9" d="M5469.93 7330.94c35.45,-8.87 381.13,-150.69 372.26,-70.91 -97.48,-8.87 -372.26,150.67 -372.26,70.91z"/>
  <path class="fil9" d="M6542.42 7073.89c-35.45,26.59 -505.22,97.5 -443.18,186.14 97.5,-88.64 487.49,-97.5 443.18,-186.14z"/>
  <path class="fil9" d="M6506.97 7330.94c-44.33,8.85 -425.45,-132.96 -425.45,-35.46 115.22,-26.6 416.58,141.82 425.45,35.46z"/>
  <path class="fil9" d="M5859.93 7091.62c88.63,17.73 132.94,0 203.85,0 26.6,0 53.18,26.6 44.33,44.32 -17.74,97.5 -17.74,168.4 0,239.31 8.85,26.59 -35.46,35.46 -62.05,26.59 -70.91,-26.59 -115.23,17.74 -186.14,17.74 -26.58,0 -44.31,-26.6 -44.31,-44.33 0,-88.63 17.73,-141.81 0,-239.31 -8.87,-26.59 26.58,-53.18 44.31,-44.32l0 0 0.01 0z"/>
  <ellipse class="fil1" cx="9418.27" cy="4572.99" rx="1544.15" ry="1531.18"/>
  <path class="fil17" d="M8794.69 3147.7c-195.18,99.72 -62.28,19.64 -245.42,143.81l-78.07 47.49c-26.85,22.3 -17.41,15.2 -49.84,39.21 -21.67,16.04 -21.02,19.73 -40.97,38.98 -123.45,164.65 -199.13,172.38 -349.61,475.16 -28.44,57.25 -51.65,141.01 -79.26,191.5 0.12,43.16 -4.75,31.5 44.93,24.59l495.98 -117.5c389.47,-103.54 1263.87,-333.6 1436.8,-627.75l225.75 194.49c165.78,136.25 428.4,338.41 612.38,448.67l101.95 56.63c54.87,12.12 15.56,11.54 35.67,-7.39 -209.7,-608.23 -785.07,-1015.82 -1413.87,-1037.76 -369.72,-12.9 -444.44,67.02 -696.42,129.87z"/>
  <path class="fil17" d="M8680.26 4966.61c-55.62,77.97 -54.39,200.07 -4.62,289.15 118.91,212.83 557.86,315.52 734.91,22.95 37.54,26.43 169.81,278.5 546.29,135.86 272.95,-103.41 272.57,-389.53 189.81,-446.8 -21.44,41.38 -0.76,61.81 -43.67,97.42 -176.38,146.41 -397.3,-307.97 -679.01,-46.83 -54.04,-20.25 -194.88,-159.95 -416.85,-8.59 -304.21,207.47 -313.3,-20.1 -326.86,-43.16z"/>
  <polygon class="fil18" points="8321.7,2545.13 10580.15,2557.59 10575.12,3463.11 8316.66,3450.65 "/>
  <ellipse class="fil19" cx="10259.33" cy="7319.56" rx="120.56" ry="108.5"/>
  <ellipse class="fil19" cx="10259.33" cy="8245.5" rx="120.56" ry="108.5"/>
  <ellipse class="fil20" cx="10259.33" cy="9217.73" rx="120.56" ry="108.5"/>
  <ellipse class="fil19" cx="10259.33" cy="10189.96" rx="120.56" ry="108.5"/>
  <ellipse class="fil19" cx="8546.36" cy="7319.56" rx="120.56" ry="108.5"/>
  <ellipse class="fil19" cx="8546.36" cy="8245.5" rx="120.56" ry="108.5"/>
  <ellipse class="fil19" cx="8546.36" cy="9217.73" rx="120.56" ry="108.5"/>
  <ellipse class="fil19" cx="8546.36" cy="10189.96" rx="120.56" ry="108.5"/>
  <rect class="fil21" x="10608.94" y="7315.79" width="771.61" height="431.19"/>
  <polygon class="fil18" points="8755.72,6860.74 8790.72,6860.74 10200.9,6600.7 8790.72,7070.8 8790.72,10418.38 8720.71,10418.38 "/>
  <polygon class="fil18" points="8631.26,6142.65 9891.7,6213.75 8592.31,6843.23 8770.9,6420.92 9301.82,6358.63 9341.73,6422.96 9417.97,6612.71 10052.16,6590.24 9812.71,6412 8650.7,6290.62 "/>
  <polygon class="fil18" points="8501.26,10446.22 11735.28,10446.22 11735.28,11306.31 8501.26,11306.31 "/>
  <ellipse class="fil19" cx="10259.33" cy="9274.03" rx="120.56" ry="108.5"/>
  <rect class="fil22 str2" x="2263.31" y="2039.56" width="2490.63" height="1541.82" rx="310.99" ry="310.99"/>
  <ellipse class="fil23 str3" cx="3486.48" cy="2810.47" rx="668.12" ry="606.44"/>
  <rect class="fil24" x="3065.05" y="-8.48" width="966.21" height="1893.86"/>
  <rect class="fil25 str4" x="4209.46" y="2217.35" width="318.64" height="154.19"/>
  <rect class="fil25" x="2099.73" y="1875.1" width="574.74" height="1696.96"/>
  <rect class="fil23" x="3136.37" y="130.09" width="821.77" height="390.6"/>
 </g>
</svg>
