<?xml version="1.0" encoding="UTF-8"?>
<!DOCTYPE svg PUBLIC "-//W3C//DTD SVG 1.1//EN" "http://www.w3.org/Graphics/SVG/1.1/DTD/svg11.dtd">
<!-- Creator: CorelDRAW 2017 -->
<svg xmlns="http://www.w3.org/2000/svg" xml:space="preserve" width="118.533mm" height="118.533mm" version="1.1" style="shape-rendering:geometricPrecision; text-rendering:geometricPrecision; image-rendering:optimizeQuality; fill-rule:evenodd; clip-rule:evenodd"
viewBox="0 0 11853.32 11853.32"
 xmlns:xlink="http://www.w3.org/1999/xlink">
 <defs>
  <style type="text/css">
   <![CDATA[
    .str4 {stroke:black;stroke-width:42.33;stroke-miterlimit:22.9256}
    .str2 {stroke:#4D4D4D;stroke-width:42.33;stroke-miterlimit:22.9256}
    .str0 {stroke:black;stroke-width:20;stroke-miterlimit:22.9256}
    .str3 {stroke:#1A1A1A;stroke-width:20;stroke-miterlimit:22.9256}
    .str1 {stroke:#FFCC99;stroke-width:20;stroke-miterlimit:22.9256}
    .fil10 {fill:none}
    .fil9 {fill:black}
    .fil11 {fill:#1A1A1A}
    .fil3 {fill:#333333}
    .fil4 {fill:#4D4D4D}
    .fil1 {fill:#660066}
    .fil12 {fill:#666666}
    .fil6 {fill:#669999}
    .fil17 {fill:#6B231C}
    .fil14 {fill:#990000}
    .fil18 {fill:#A30026}
    .fil5 {fill:#B3B3B3}
    .fil15 {fill:#BD0006}
    .fil16 {fill:#CC0007}
    .fil20 {fill:#CCCCCC}
    .fil0 {fill:#E6E6E6}
    .fil8 {fill:#FCD5A6}
    .fil13 {fill:red}
    .fil2 {fill:#FFCC99}
    .fil7 {fill:white}
    .fil19 {fill:white}
    .fil21 {fill:yellow;fill-rule:nonzero}
   ]]>
  </style>
   <clipPath id="id0">
    <path d="M4093.82 6105.67l55.14 0 0 -12.72 -55.14 0 0 12.72z"/>
   </clipPath>
   <clipPath id="id1">
    <path d="M4104.43 6095.06l55.14 0 0 -12.71 -55.14 0 0 12.71z"/>
   </clipPath>
   <clipPath id="id2">
    <path d="M4114.2 6085.41l45.66 0 0 -14 -45.66 0 0 14z"/>
   </clipPath>
   <clipPath id="id3">
    <path d="M4115.03 6073.86l55.13 0 0 -12.72 -55.13 0 0 12.72z"/>
   </clipPath>
   <clipPath id="id4">
    <path d="M4125.63 6063.26l55.13 0 0 -12.72 -55.13 0 0 12.72z"/>
   </clipPath>
   <clipPath id="id5">
    <path d="M4136.23 6052.66l55.14 0 0 -12.72 -55.14 0 0 12.72z"/>
   </clipPath>
   <clipPath id="id6">
    <path d="M4145.94 6042.85l45.66 0 0 -13.95 -45.66 0 0 13.95z"/>
   </clipPath>
   <clipPath id="id7">
    <path d="M4146.84 6031.46l55.13 0 0 -12.73 -55.13 0 0 12.73z"/>
   </clipPath>
   <clipPath id="id8">
    <path d="M2549.12 6130.29l56.26 0 0 -14 -56.26 0 0 14z"/>
   </clipPath>
   <clipPath id="id9">
    <path d="M4157.44 6020.85l55.14 0 0 -12.72 -55.14 0 0 12.72z"/>
   </clipPath>
   <clipPath id="id10">
    <path d="M4167.08 6010.95l45.68 0 0 -13.99 -45.68 0 0 13.99z"/>
   </clipPath>
   <clipPath id="id11">
    <path d="M4178.65 5999.65l33.93 0 0 -12.73 -33.93 0 0 12.73z"/>
   </clipPath>
   <clipPath id="id12">
    <path d="M2549.12 6098.4l35.09 0 0 -13.99 -35.09 0 0 13.99z"/>
   </clipPath>
   <clipPath id="id13">
    <path d="M4177.68 5989.71l24.51 0 0 -13.99 -24.51 0 0 13.99z"/>
   </clipPath>
   <clipPath id="id14">
    <path d="M4178.65 5978.44l12.72 0 0 -12.73 -12.72 0 0 12.73z"/>
   </clipPath>
   <clipPath id="id15">
    <path d="M4167.08 5968.43l13.94 0 0 -24.62 -13.94 0 0 24.62z"/>
   </clipPath>
   <clipPath id="id16">
    <path d="M4157.44 5946.63l12.72 0 0 -12.73 -12.72 0 0 12.73z"/>
   </clipPath>
   <clipPath id="id17">
    <path d="M3952.44 6186.44l60.44 0 0 -13.99 -60.44 0 0 13.99z"/>
   </clipPath>
   <clipPath id="id18">
    <path d="M3963.81 6175.81l49.07 0 0 -24.62 -49.07 0 0 24.62z"/>
   </clipPath>
   <clipPath id="id19">
    <path d="M3975.19 6154.58l37.69 0 0 -13.99 -37.69 0 0 13.99z"/>
   </clipPath>
 </defs>
 <g id="Layer_x0020_1">
  <metadata id="CorelCorpID_0Corel-Layer"/>
  <circle class="fil0" cx="5926.66" cy="5943.6" r="5892.8"/>
  <polygon class="fil1" points="9084.19,4924.16 9084.19,6225.3 6349.29,6225.3 6349.29,4924.16 "/>
  <path class="fil2" d="M7674.33 1054.1c496.9,0 896.81,399.95 896.81,896.82 0,492.86 -399.95,892.77 -896.81,892.77 -496.91,0 -900.85,-399.95 -900.85,-892.77 0,-496.91 403.98,-896.82 900.85,-896.82z"/>
  <path class="fil3" d="M7686.45 1054.1c553.46,-12.12 945.29,597.91 880.64,985.7 -4.03,48.47 -12.11,440.34 -12.11,383.78 -8.08,-254.51 -1034.16,-973.57 -1155.37,-1167.48 -48.47,60.6 -480.74,375.71 -573.65,395.91 117.15,-359.56 464.58,-597.91 860.45,-597.91l0.04 0z"/>
  <polygon class="fil1" points="6890.64,3061.87 7165.3,3061.87 7165.3,3292.1 7589.49,3170.94 7775.32,3170.94 8199.51,3292.1 8199.51,3061.87 8494.37,3061.87 8567.09,4322.27 6890.64,4229.35 "/>
  <path class="fil1" d="M6676.52 3053.79l274.72 8.08 747.33 1018 747.33 -1018 282.79 -8.08c185.84,-4.04 339.36,157.56 339.36,347.43l0 1830.01 -2730.87 0 0 -1830.01c0,-189.87 153.52,-351.47 339.35,-347.43l-0.01 0z"/>
  <polygon class="fil1" points="9068.04,4091.99 9068.04,4738.34 6337.18,4738.34 6337.18,4091.99 "/>
  <path class="fil1" d="M7031.99 3174.99l476.71 646.38 -1171.52 0 0 -420.15c0,-84.84 28.28,-165.63 80.79,-226.23l614.06 0 -0.04 0zm856.45 646.34l476.7 -646.38 622.14 0c52.53,60.6 80.81,141.39 80.81,226.23l0 420.15 -1179.61 0 -0.04 0z"/>
  <path class="fil4 str0" d="M6999.13 1441.41l568.84 0c85,0 153.93,68.93 153.93,153.94l0 0c0,85 -68.93,153.93 -153.93,153.93l-568.84 0c-85.01,0 -153.94,-68.93 -153.94,-153.93l0 0c0,-85.01 68.93,-153.94 153.94,-153.94z"/>
  <path class="fil4 str0" d="M6636.66 1595.36l1191.19 0c63.87,0 115.66,47.54 115.66,106.15l0 764.32c0,58.61 -51.79,106.15 -115.66,106.15l-1191.19 0c-63.86,0 -115.65,-47.54 -115.65,-106.15l0 -764.32c0,-58.61 51.79,-106.15 115.65,-106.15z"/>
  <rect class="fil4 str0" x="7014.23" y="390.89" width="547.11" height="1029.31"/>
  <rect class="fil5 str0" x="7070.23" y="414.07" width="435.48" height="213.28"/>
  <ellipse class="fil6 str0" cx="7301.06" cy="2046.52" rx="403.19" ry="398.09"/>
  <rect class="fil5 str0" x="6759.87" y="1595.35" width="84.89" height="976.64"/>
  <path class="fil1 str0" d="M6118.09 1988.87l468.03 0c50.2,0 91.27,41.07 91.27,91.26l0 1415.96c0,178.91 -146.37,325.28 -325.28,325.28l-234.02 0c-50.19,0 -91.26,-41.07 -91.26,-91.27l0 -1649.97c0,-50.19 41.07,-91.26 91.26,-91.26z"/>
  <path class="fil2 str1" d="M6259.82 1701.51l200.57 0c33.47,0 60.61,14.25 60.61,31.81l0 223.74c0,17.57 -27.14,31.81 -60.61,31.81l-200.57 0c-33.46,0 -60.6,-14.24 -60.6,-31.81l0 -223.74c0,-17.56 27.14,-31.81 60.6,-31.81z"/>
  <path class="fil1 str0" d="M7560.68 2620.02l270.5 -166.42c49.33,-30.35 113.94,-14.95 144.28,34.37l974.11 1583.4c30.35,49.33 14.97,113.93 -34.36,144.28l-270.51 166.41c-49.32,30.35 -113.93,14.95 -144.27,-34.37l-974.13 -1583.4c-30.33,-49.32 -14.94,-113.93 34.38,-144.28z"/>
  <rect class="fil7" x="2381.91" y="5729.58" width="1763.87" height="2574.85"/>
  <path class="fil8" d="M3286.38 3626.67c582.15,0 1053.99,471.92 1053.99,1054.1 0,582.09 -471.84,1054.01 -1053.99,1054.01 -45.85,0 -91.02,-2.94 -135.33,-8.62 -518.21,-66.42 -918.71,-509.13 -918.71,-1045.39 0,-582.21 471.89,-1054.08 1054.04,-1054.1z"/>
  <path class="fil9" d="M3286.38 3626.67c475.75,0 877.69,315.23 1008.81,748.16 18.54,211.62 -1078.57,-104.78 -1345.77,-516.8 -56.6,72.95 -554.15,467.32 -663.72,490.83 139.09,-419.58 534.49,-722.17 1000.68,-722.19z"/>
  <g>
  </g>
  <g style="clip-path:url(#id0)">
   <g>
   </g>
  </g>
  <polygon class="fil10" points="4093.82,6105.67 4148.96,6105.67 4148.96,6092.95 4093.82,6092.95 "/>
  <polygon class="fil10" points="4093.82,6105.67 4148.96,6105.67 4148.96,6092.95 4093.82,6092.95 "/>
  <polygon class="fil10" points="4093.82,6105.67 4148.96,6105.67 4148.96,6092.95 4093.82,6092.95 "/>
  <polygon class="fil10" points="4093.82,6105.67 4148.96,6105.67 4148.96,6092.95 4093.82,6092.95 "/>
  <g>
  </g>
  <g style="clip-path:url(#id1)">
   <g>
   </g>
  </g>
  <polygon class="fil10" points="4104.43,6095.06 4159.57,6095.06 4159.57,6082.35 4104.43,6082.35 "/>
  <polygon class="fil10" points="4104.43,6095.06 4159.57,6095.06 4159.57,6082.35 4104.43,6082.35 "/>
  <polygon class="fil10" points="4104.43,6095.06 4159.57,6095.06 4159.57,6082.35 4104.43,6082.35 "/>
  <polygon class="fil10" points="4104.43,6095.06 4159.57,6095.06 4159.57,6082.35 4104.43,6082.35 "/>
  <g>
  </g>
  <g style="clip-path:url(#id2)">
   <g>
   </g>
  </g>
  <polygon class="fil10" points="4114.2,6085.41 4159.86,6085.41 4159.86,6071.41 4114.2,6071.41 "/>
  <polygon class="fil10" points="4114.2,6085.41 4159.86,6085.41 4159.86,6071.41 4114.2,6071.41 "/>
  <polygon class="fil10" points="4114.2,6085.41 4159.86,6085.41 4159.86,6071.41 4114.2,6071.41 "/>
  <polygon class="fil10" points="4114.2,6085.41 4159.86,6085.41 4159.86,6071.41 4114.2,6071.41 "/>
  <g>
  </g>
  <g style="clip-path:url(#id3)">
   <g>
   </g>
  </g>
  <polygon class="fil10" points="4115.03,6073.86 4170.16,6073.86 4170.16,6061.14 4115.03,6061.14 "/>
  <polygon class="fil10" points="4115.03,6073.86 4170.16,6073.86 4170.16,6061.14 4115.03,6061.14 "/>
  <polygon class="fil10" points="4115.03,6073.86 4170.16,6073.86 4170.16,6061.14 4115.03,6061.14 "/>
  <polygon class="fil10" points="4115.03,6073.86 4170.16,6073.86 4170.16,6061.14 4115.03,6061.14 "/>
  <g>
  </g>
  <g style="clip-path:url(#id4)">
   <g>
   </g>
  </g>
  <polygon class="fil10" points="4125.63,6063.26 4180.76,6063.26 4180.76,6050.54 4125.63,6050.54 "/>
  <polygon class="fil10" points="4125.63,6063.26 4180.76,6063.26 4180.76,6050.54 4125.63,6050.54 "/>
  <polygon class="fil10" points="4125.63,6063.26 4180.76,6063.26 4180.76,6050.54 4125.63,6050.54 "/>
  <polygon class="fil10" points="4125.63,6063.26 4180.76,6063.26 4180.76,6050.54 4125.63,6050.54 "/>
  <g>
  </g>
  <g style="clip-path:url(#id5)">
   <g>
   </g>
  </g>
  <polygon class="fil10" points="4136.23,6052.66 4191.37,6052.66 4191.37,6039.94 4136.23,6039.94 "/>
  <polygon class="fil10" points="4136.23,6052.66 4191.37,6052.66 4191.37,6039.94 4136.23,6039.94 "/>
  <polygon class="fil10" points="4136.23,6052.66 4191.37,6052.66 4191.37,6039.94 4136.23,6039.94 "/>
  <polygon class="fil10" points="4136.23,6052.66 4191.37,6052.66 4191.37,6039.94 4136.23,6039.94 "/>
  <g>
  </g>
  <g style="clip-path:url(#id6)">
   <g>
   </g>
  </g>
  <polygon class="fil10" points="4145.94,6042.85 4191.6,6042.85 4191.6,6028.9 4145.94,6028.9 "/>
  <polygon class="fil10" points="4145.94,6042.85 4191.6,6042.85 4191.6,6028.9 4145.94,6028.9 "/>
  <polygon class="fil10" points="4145.94,6042.85 4191.6,6042.85 4191.6,6028.9 4145.94,6028.9 "/>
  <polygon class="fil10" points="4145.94,6042.85 4191.6,6042.85 4191.6,6028.9 4145.94,6028.9 "/>
  <g>
  </g>
  <g style="clip-path:url(#id7)">
   <g>
   </g>
  </g>
  <polygon class="fil10" points="4146.84,6031.46 4201.97,6031.46 4201.97,6018.73 4146.84,6018.73 "/>
  <polygon class="fil10" points="4146.84,6031.46 4201.97,6031.46 4201.97,6018.73 4146.84,6018.73 "/>
  <polygon class="fil10" points="4146.84,6031.46 4201.97,6031.46 4201.97,6018.73 4146.84,6018.73 "/>
  <polygon class="fil10" points="4146.84,6031.46 4201.97,6031.46 4201.97,6018.73 4146.84,6018.73 "/>
  <g>
  </g>
  <g style="clip-path:url(#id8)">
   <g>
   </g>
  </g>
  <polygon class="fil10" points="2549.12,6130.29 2605.38,6130.29 2605.38,6116.29 2549.12,6116.29 "/>
  <polygon class="fil10" points="2549.12,6130.29 2605.38,6130.29 2605.38,6116.29 2549.12,6116.29 "/>
  <polygon class="fil10" points="2549.12,6130.29 2605.38,6130.29 2605.38,6116.29 2549.12,6116.29 "/>
  <polygon class="fil10" points="2549.12,6130.29 2605.38,6130.29 2605.38,6116.29 2549.12,6116.29 "/>
  <g>
  </g>
  <g style="clip-path:url(#id9)">
   <g>
   </g>
  </g>
  <polygon class="fil10" points="4157.44,6020.85 4212.58,6020.85 4212.58,6008.13 4157.44,6008.13 "/>
  <polygon class="fil10" points="4157.44,6020.85 4212.58,6020.85 4212.58,6008.13 4157.44,6008.13 "/>
  <polygon class="fil10" points="4157.44,6020.85 4212.58,6020.85 4212.58,6008.13 4157.44,6008.13 "/>
  <polygon class="fil10" points="4157.44,6020.85 4212.58,6020.85 4212.58,6008.13 4157.44,6008.13 "/>
  <g>
  </g>
  <g style="clip-path:url(#id10)">
   <g>
   </g>
  </g>
  <polygon class="fil10" points="4167.08,6010.95 4212.76,6010.95 4212.76,5996.96 4167.08,5996.96 "/>
  <polygon class="fil10" points="4167.08,6010.95 4212.76,6010.95 4212.76,5996.96 4167.08,5996.96 "/>
  <polygon class="fil10" points="4167.08,6010.95 4212.76,6010.95 4212.76,5996.96 4167.08,5996.96 "/>
  <polygon class="fil10" points="4167.08,6010.95 4212.76,6010.95 4212.76,5996.96 4167.08,5996.96 "/>
  <g>
  </g>
  <g style="clip-path:url(#id11)">
   <g>
   </g>
  </g>
  <polygon class="fil10" points="4178.65,5999.65 4212.58,5999.65 4212.58,5986.92 4178.65,5986.92 "/>
  <polygon class="fil10" points="4178.65,5999.65 4212.58,5999.65 4212.58,5986.92 4178.65,5986.92 "/>
  <polygon class="fil10" points="4178.65,5999.65 4212.58,5999.65 4212.58,5986.92 4178.65,5986.92 "/>
  <polygon class="fil10" points="4178.65,5999.65 4212.58,5999.65 4212.58,5986.92 4178.65,5986.92 "/>
  <g>
  </g>
  <g style="clip-path:url(#id12)">
   <g>
   </g>
  </g>
  <polygon class="fil10" points="2549.12,6098.4 2584.21,6098.4 2584.21,6084.41 2549.12,6084.41 "/>
  <polygon class="fil10" points="2549.12,6098.4 2584.21,6098.4 2584.21,6084.41 2549.12,6084.41 "/>
  <polygon class="fil10" points="2549.12,6098.4 2584.21,6098.4 2584.21,6084.41 2549.12,6084.41 "/>
  <polygon class="fil10" points="2549.12,6098.4 2584.21,6098.4 2584.21,6084.41 2549.12,6084.41 "/>
  <g>
  </g>
  <g style="clip-path:url(#id13)">
   <g>
   </g>
  </g>
  <polygon class="fil10" points="4177.68,5989.71 4202.19,5989.71 4202.19,5975.72 4177.68,5975.72 "/>
  <polygon class="fil10" points="4177.68,5989.71 4202.19,5989.71 4202.19,5975.72 4177.68,5975.72 "/>
  <polygon class="fil10" points="4177.68,5989.71 4202.19,5989.71 4202.19,5975.72 4177.68,5975.72 "/>
  <polygon class="fil10" points="4177.68,5989.71 4202.19,5989.71 4202.19,5975.72 4177.68,5975.72 "/>
  <g>
  </g>
  <g style="clip-path:url(#id14)">
   <g>
   </g>
  </g>
  <polygon class="fil10" points="4178.65,5978.44 4191.37,5978.44 4191.37,5965.71 4178.65,5965.71 "/>
  <polygon class="fil10" points="4178.65,5978.44 4191.37,5978.44 4191.37,5965.71 4178.65,5965.71 "/>
  <polygon class="fil10" points="4178.65,5978.44 4191.37,5978.44 4191.37,5965.71 4178.65,5965.71 "/>
  <polygon class="fil10" points="4178.65,5978.44 4191.37,5978.44 4191.37,5965.71 4178.65,5965.71 "/>
  <g>
  </g>
  <g style="clip-path:url(#id15)">
   <g>
   </g>
  </g>
  <polygon class="fil10" points="4167.08,5968.43 4181.02,5968.43 4181.02,5943.81 4167.08,5943.81 "/>
  <polygon class="fil10" points="4167.08,5968.43 4181.02,5968.43 4181.02,5943.81 4167.08,5943.81 "/>
  <polygon class="fil10" points="4167.08,5968.43 4181.02,5968.43 4181.02,5943.81 4167.08,5943.81 "/>
  <polygon class="fil10" points="4167.08,5968.43 4181.02,5968.43 4181.02,5943.81 4167.08,5943.81 "/>
  <g>
  </g>
  <g style="clip-path:url(#id16)">
   <g>
   </g>
  </g>
  <polygon class="fil10" points="4157.44,5946.63 4170.16,5946.63 4170.16,5933.9 4157.44,5933.9 "/>
  <polygon class="fil10" points="4157.44,5946.63 4170.16,5946.63 4170.16,5933.9 4157.44,5933.9 "/>
  <polygon class="fil10" points="4157.44,5946.63 4170.16,5946.63 4170.16,5933.9 4157.44,5933.9 "/>
  <polygon class="fil10" points="4157.44,5946.63 4170.16,5946.63 4170.16,5933.9 4157.44,5933.9 "/>
  <path class="fil11" d="M2043.54 5942.37l327.22 8.43 912.03 2207.12 883.52 -2198.58 4.98 -6.85 -1.52 -2.1 0.03 -0.03 337.82 -7.99c224.98,-5.36 409.1,190.6 409.1,423.5l0 2230.31 -3282.33 0 0 -2230.33c0,-232.97 184.25,-429.2 409.18,-423.48l-0.01 0 -0.01 0 0 0 -0.01 0z"/>
  <ellipse class="fil9 str0" cx="3268.65" cy="7489.98" rx="28.26" ry="31.81"/>
  <rect class="fil12" x="4173.4" y="7479.37" width="537.2" height="70.69"/>
  <polygon class="fil7" points="4584.84,7305.93 4456.15,7168.36 4173.42,7479.36 4696.48,7479.36 "/>
  <polygon class="fil13" points="3261.6,6058.6 2706.82,5818.96 2759.73,6404.97 3231,6151.1 "/>
  <polygon class="fil13" points="3214.41,6044.76 3778.1,5847.54 3749.31,6419.1 3185.29,6125.83 "/>
  <rect class="fil14" x="3172.07" y="5978.43" width="159.09" height="220.6"/>
  <polygon class="fil7 str2" points="1890.29,6341.36 2385.11,5676.91 2970.57,7442.08 2798.6,7290.12 "/>
  <polygon class="fil7 str2" points="2229.58,6970.58 2639.57,6539.26 3187.63,8032.65 3001.64,7838.17 "/>
  <g>
  </g>
  <g style="clip-path:url(#id17)">
   <g>
   </g>
  </g>
  <polygon class="fil10" points="3952.44,6186.44 4012.88,6186.44 4012.88,6172.45 3952.44,6172.45 "/>
  <polygon class="fil10" points="3952.44,6186.44 4012.88,6186.44 4012.88,6172.45 3952.44,6172.45 "/>
  <polygon class="fil10" points="3952.44,6186.44 4012.88,6186.44 4012.88,6172.45 3952.44,6172.45 "/>
  <polygon class="fil10" points="3952.44,6186.44 4012.88,6186.44 4012.88,6172.45 3952.44,6172.45 "/>
  <g>
  </g>
  <g style="clip-path:url(#id18)">
   <g>
   </g>
  </g>
  <polygon class="fil10" points="3963.81,6175.81 4012.88,6175.81 4012.88,6151.19 3963.81,6151.19 "/>
  <polygon class="fil10" points="3963.81,6175.81 4012.88,6175.81 4012.88,6151.19 3963.81,6151.19 "/>
  <polygon class="fil10" points="3963.81,6175.81 4012.88,6175.81 4012.88,6151.19 3963.81,6151.19 "/>
  <polygon class="fil10" points="3963.81,6175.81 4012.88,6175.81 4012.88,6151.19 3963.81,6151.19 "/>
  <g>
  </g>
  <g style="clip-path:url(#id19)">
   <g>
   </g>
  </g>
  <polygon class="fil10" points="3975.19,6154.58 4012.88,6154.58 4012.88,6140.59 3975.19,6140.59 "/>
  <polygon class="fil10" points="3975.19,6154.58 4012.88,6154.58 4012.88,6140.59 3975.19,6140.59 "/>
  <polygon class="fil10" points="3975.19,6154.58 4012.88,6154.58 4012.88,6140.59 3975.19,6140.59 "/>
  <polygon class="fil10" points="3975.19,6154.58 4012.88,6154.58 4012.88,6140.59 3975.19,6140.59 "/>
  <ellipse class="fil9 str0" cx="3239.82" cy="6697.91" rx="30.38" ry="31.81"/>
  <path class="fil14" d="M3188.02 5978.42l140.21 0c8.49,0 15.35,5.09 15.35,11.35l0 115.52c0,6.26 -6.86,11.34 -15.35,11.34l-140.21 0c-8.48,0 -15.36,-5.08 -15.36,-11.34l0 -115.52c0,-6.26 6.88,-11.35 15.36,-11.35z"/>
  <polygon class="fil7 str2" points="4699.53,6306.5 4166.35,5705.2 3575.99,7462.57 3748.72,7297.06 "/>
  <polygon class="fil7 str2" points="4356.19,7032.31 3893.22,6549.06 3363.92,8044.76 3514.37,7912.8 "/>
  <ellipse class="fil9 str0" cx="3239.82" cy="7097.56" rx="30.38" ry="31.81"/>
  <rect class="fil11 str3" x="1634.37" y="8596.17" width="3280.58" height="552.37"/>
  <polygon class="fil14" points="3673.37,8044.64 9329,8036.56 9914.74,9159.6 3031.03,9167.68 "/>
  <path class="fil10 str4" d="M6404.23 3754.44c-529.23,0 -957.41,363.58 -957.41,811.96 0,444.39 428.22,807.94 957.41,807.94 529.22,0 957.4,-363.59 957.4,-807.94 0,-448.42 -428.22,-811.96 -957.4,-811.96z"/>
  <path class="fil2" d="M6396.14 3802.91c496.91,0 896.82,399.94 896.82,896.81 0,492.86 -399.95,892.77 -896.82,892.77 -496.9,0 -900.85,-399.95 -900.85,-892.77 0,-496.91 403.99,-896.81 900.85,-896.81z"/>
  <path class="fil9" d="M6501.18 5577.15c-32.32,0 -64.64,4.04 -96.95,4.04 -32.32,0 -64.65,-4.04 -96.96,-4.04l-92.92 -165.64 379.75 0 -92.92 165.64z"/>
  <path class="fil3" d="M6408.26 3802.91c553.47,-12.12 945.3,597.9 880.65,985.69 -4.03,48.48 -12.12,440.35 -12.12,383.79 -8.07,-254.52 -1034.16,-973.57 -1155.36,-1167.48 -48.47,60.59 -480.74,375.7 -573.66,395.9 117.16,-359.55 464.59,-597.9 860.45,-597.9l0.04 0z"/>
  <polygon class="fil14" points="5612.45,5810.68 5887.12,5810.68 5887.12,6040.91 6311.3,5919.76 6497.14,5919.76 6921.33,6040.91 6921.33,5810.68 7216.19,5810.68 7288.91,7071.07 5612.45,6978.16 "/>
  <path class="fil15" d="M5398.34 5802.61l274.71 8.07 747.34 1018.01 747.33 -1018.01 282.79 -8.07c185.83,-4.04 339.35,157.55 339.35,347.43l0 1830.01 -2730.87 0 0 -1830.01c0,-189.88 153.52,-351.47 339.36,-347.43l-0.01 0z"/>
  <polygon class="fil16" points="7806.02,7672.97 7806.02,8363.79 5071.11,8363.79 5071.11,7672.97 "/>
  <polygon class="fil16" points="7789.86,6840.8 7789.86,7487.14 5058.99,7487.14 5058.99,6840.8 "/>
  <path class="fil16" d="M5753.8 5923.8l476.71 646.37 -1171.52 0 0 -420.13c0,-84.84 28.28,-165.65 80.8,-226.24l614.06 0 -0.05 0zm856.46 646.33l476.7 -646.37 622.14 0c52.52,60.59 80.8,141.4 80.8,226.24l0 420.13 -1179.6 0 -0.04 0z"/>
  <path class="fil2" d="M9427.24 3820.27c553.46,0 1001.85,416.11 1001.85,929.13 0,517.1 -448.43,933.17 -1001.85,933.17 -553.46,0 -1001.85,-416.1 -1001.85,-933.17 0,-513.06 448.43,-929.13 1001.85,-929.13z"/>
  <path class="fil17" d="M9023.25 3856.63c-125.23,60.6 -40.39,12.12 -157.55,84.84l-52.52 32.32c-16.16,12.12 -12.12,8.08 -32.32,20.19 -12.12,12.12 -12.12,12.12 -24.24,24.25 -80.79,100.99 -129.28,105.03 -230.27,290.87 -16.16,32.31 -32.32,84.84 -48.48,117.15 0,24.25 -4.04,16.16 28.28,12.12l323.19 -68.68c250.47,-64.63 816.01,-206.03 929.13,-383.78l145.44 117.15c109.07,84.84 278.75,206.04 399.94,274.72l64.64 36.35c36.36,4.04 12.11,4.04 24.24,-8.07 -137.36,-367.64 -509.03,-614.06 -917.01,-630.23 -238.35,-8.07 -286.83,40.4 -452.47,80.8z"/>
  <path class="fil17" d="M8950.54 4963.52c-36.36,44.43 -36.36,121.19 -4.05,173.71 76.76,129.27 363.59,193.91 476.71,16.16 24.24,16.16 109.07,169.67 355.51,80.79 177.75,-64.63 173.71,-238.35 121.19,-270.66 -12.11,24.23 0,36.35 -28.27,56.56 -113.12,92.91 -258.55,-185.84 -440.35,-28.28 -36.36,-12.13 -125.23,-96.96 -270.67,-4.05 -197.96,125.24 -201.99,-12.11 -210.07,-24.23z"/>
  <polygon class="fil18" points="8716.22,3489.01 10182.66,3497.08 10178.62,4046.51 8712.18,4038.42 "/>
  <path class="fil19" d="M8348.6 5856.33l2213.77 0c129.27,0 238.35,109.07 238.35,238.34l0 2318.8c0,129.28 -109.08,238.35 -238.35,238.35l-2213.77 0c-129.27,0 -238.35,-109.07 -238.35,-238.35l0 -2318.8c0,-129.27 109.08,-238.34 238.35,-238.34z"/>
  <path class="fil3" d="M9972.58 6462.26c44.44,0 80.8,32.33 80.8,68.68 0,36.36 -36.36,64.64 -80.8,64.64 -40.39,0 -76.76,-28.28 -76.76,-64.64 0,-36.35 36.37,-68.68 76.76,-68.68z"/>
  <path class="fil3" d="M9972.58 7027.83c44.44,0 80.8,28.28 80.8,64.65 0,36.35 -36.36,64.63 -80.8,64.63 -40.39,0 -76.76,-28.28 -76.76,-64.63 0,-36.37 36.37,-64.65 76.76,-64.65z"/>
  <path class="fil3" d="M9972.58 7617.62c44.44,0 80.8,28.28 80.8,64.63 0,36.37 -36.36,68.68 -80.8,68.68 -40.39,0 -76.76,-32.31 -76.76,-68.68 0,-36.35 36.37,-64.63 76.76,-64.63z"/>
  <path class="fil3" d="M9972.58 8207.44c44.44,0 80.8,32.31 80.8,68.68 0,36.35 -36.36,64.63 -80.8,64.63 -40.39,0 -76.76,-28.28 -76.76,-64.63 0,-36.37 36.37,-68.68 76.76,-68.68z"/>
  <path class="fil3" d="M5205.2 8404.25c44.44,0 80.8,28.28 80.8,64.64 0,36.36 -36.36,64.63 -80.8,64.63 -44.43,0 -76.75,-28.27 -76.75,-64.63 0,-36.36 32.32,-64.64 76.75,-64.64z"/>
  <path class="fil3" d="M8861.66 7617.62c44.43,0 80.8,28.28 80.8,64.63 0,36.37 -36.37,68.68 -80.8,68.68 -44.44,0 -76.76,-32.31 -76.76,-68.68 0,-36.35 32.32,-64.63 76.76,-64.63z"/>
  <path class="fil3" d="M8861.66 8207.44c44.43,0 80.8,32.31 80.8,68.68 0,36.35 -36.37,64.63 -80.8,64.63 -44.44,0 -76.76,-28.28 -76.76,-64.63 0,-36.37 32.32,-68.68 76.76,-68.68z"/>
  <polygon class="fil18" points="8110.3,8429.63 10792.68,8429.63 10792.68,9007.29 8110.3,9007.29 "/>
  <polygon class="fil18" points="8999.02,6248.15 9019.21,6248.15 9936.22,6090.6 9019.21,6377.43 9019.21,8413.47 8974.77,8413.47 "/>
  <polygon class="fil18" points="8918.21,5811.89 9734.23,5856.33 8893.98,6240.07 9007.09,5981.52 9350.48,5945.16 9378.76,5985.56 9427.24,6098.68 9839.26,6086.56 9685.75,5977.48 8930.34,5904.76 "/>
  <polygon class="fil4" points="6485.02,7915.37 3903.63,7915.37 3148.19,9155.57 6315.35,9155.57 "/>
  <path class="fil9 str0" d="M4626.72 7887.09c646.38,0 1171.52,262.59 1171.52,581.74 0,323.19 -525.18,581.73 -1171.52,581.73 -646.37,0 -1171.51,-258.54 -1171.51,-581.73 0,-319.15 525.18,-581.74 1171.51,-581.74z"/>
  <path class="fil14 str0" d="M4624.91 8162.79c254.51,0 460.55,109.08 460.55,242.4 0,137.35 -206.04,246.43 -460.55,246.43 -254.51,0 -464.59,-109.08 -464.59,-246.43 0,-133.32 210.08,-242.4 464.59,-242.4z"/>
  <polygon class="fil20" points="6085.08,7992.12 6392.11,7992.12 6392.11,8291.07 6085.08,8291.07 "/>
  <polygon class="fil20" points="6295.15,7992.12 5067.07,7992.12 5067.07,8072.92 6295.15,8072.92 "/>
  <path class="fil12 str0" d="M6190.11 8408.23c56.56,0 101,24.24 101,56.55 0,28.28 -44.44,52.53 -101,52.53 -52.52,0 -96.96,-24.25 -96.96,-52.53 0,-32.31 44.44,-56.55 96.96,-56.55z"/>
  <path class="fil12 str0" d="M6109.32 8634.46c68.67,0 125.23,28.28 125.23,60.6 0,36.36 -56.56,64.64 -125.23,64.64 -68.68,0 -125.24,-28.28 -125.24,-64.64 0,-32.32 56.56,-60.6 125.24,-60.6z"/>
  <path class="fil12 str0" d="M6008.32 8888.93c-96.96,0 -169.68,32.32 -169.68,68.68 0,40.4 72.72,72.72 169.68,72.72 92.92,0 169.67,-32.32 169.67,-72.72 0,-36.36 -76.75,-68.68 -169.67,-68.68z"/>
  <polygon class="fil10 str0" points="5101.62,8130.47 4931.94,8130.47 4931.94,7972.92 5101.62,7972.92 "/>
  <polygon class="fil4 str0" points="5154.13,7956.76 4826.9,7956.76 4826.9,8049.68 5154.13,8049.68 "/>
  <polygon class="fil10" points="6173.95,7915.37 9838.02,7915.37 9838.02,9220.2 6173.95,9220.2 "/>
  <polygon class="fil4" points="6614.3,7988.08 9030.05,7915.37 9728.95,9155.57 6525.42,9135.36 "/>
  <path class="fil9 str0" d="M8359.48 7887.09c-597.9,0 -1086.69,262.59 -1086.69,581.74 0,323.19 488.83,581.73 1086.69,581.73 597.9,0 1082.65,-258.54 1082.65,-581.73 0,-319.15 -484.79,-581.74 -1082.65,-581.74z"/>
  <path class="fil14 str0" d="M8351.4 8149.68c-234.31,0 -428.22,109.07 -428.22,242.39 0,137.36 193.91,246.43 428.22,246.43 238.35,0 428.22,-109.07 428.22,-246.43 0,-133.32 -189.87,-242.39 -428.22,-242.39z"/>
  <path class="fil9 str0" d="M8351.4 8339.55c-16.16,0 -28.28,12.12 -28.28,24.24 0,16.16 12.12,28.28 28.28,28.28 16.16,0 28.28,-12.12 28.28,-28.28 0,-12.12 -12.12,-24.24 -28.28,-24.24z"/>
  <polygon class="fil20" points="7010.2,7992.12 6727.42,7992.12 6727.42,8291.07 7010.2,8291.07 "/>
  <polygon class="fil20" points="6816.29,7992.12 7951.46,7992.12 7951.46,8072.92 6816.29,8072.92 "/>
  <path class="fil12 str0" d="M6909.21 8408.23c-48.48,0 -88.88,24.24 -88.88,56.55 0,28.28 40.4,52.53 88.88,52.53 52.52,0 92.92,-24.25 92.92,-52.53 0,-32.31 -40.4,-56.55 -92.92,-56.55z"/>
  <path class="fil12 str0" d="M6985.97 8634.46c-60.61,0 -113.12,28.28 -113.12,60.6 0,36.36 52.51,64.64 113.12,64.64 64.63,0 117.15,-28.28 117.15,-64.64 0,-32.32 -52.52,-60.6 -117.15,-60.6z"/>
  <path class="fil12 str0" d="M7082.92 8888.93c84.84,0 157.56,32.32 157.56,68.68 0,40.4 -72.72,72.72 -157.56,72.72 -88.88,0 -157.56,-32.32 -157.56,-72.72 0,-36.36 68.68,-68.68 157.56,-68.68z"/>
  <polygon class="fil10 str0" points="7911.06,8117.36 8068.61,8117.36 8068.61,7959.81 7911.06,7959.81 "/>
  <polygon class="fil4 str0" points="7862.58,7943.65 8165.56,7943.65 8165.56,8036.56 7862.58,8036.56 "/>
  <polygon class="fil3" points="5446.82,4392.73 5281.18,4392.73 5281.18,5014.83 5446.82,5014.83 "/>
  <polygon class="fil14" points="5329.74,4392.73 5362.06,4392.73 5362.06,4990.67 5329.74,4990.67 "/>
  <polygon class="fil9 str0" points="5547.81,4380.61 5446.82,4380.61 5446.82,5030.99 5547.81,5030.99 "/>
  <polygon class="fil3" points="7372.6,4480.5 7542.27,4480.5 7542.27,5102.6 7372.6,5102.6 "/>
  <polygon class="fil14" points="7509.95,4480.5 7477.64,4480.5 7477.64,5102.6 7509.95,5102.6 "/>
  <polygon class="fil9 str0" points="7263.52,4468.39 7368.55,4468.39 7368.55,5118.76 7263.52,5118.76 "/>
  <path class="fil9 str0" d="M6339.63 8498.6c-15.09,0 -26.41,11.32 -26.41,22.64 0,15.09 11.32,26.41 26.41,26.41 15.09,0 26.42,-11.32 26.42,-26.41 0,-11.32 -11.33,-22.64 -26.42,-22.64z"/>
  <path class="fil21" d="M10053.38 6215.83l0 0c0,4.04 0,8.08 0,8.08l0 0 0 -4.04c4.04,0 4.04,-4.04 4.04,-4.04l4.04 0 0 4.04c0,0 0,0 0,0l4.04 0c0,0 0,0 4.04,8.08 0,20.2 -4.04,44.44 -12.12,64.64l0 4.04c0,4.04 0,4.04 0,8.08 0,0 0,4.04 0,4.04 0,4.04 -4.04,8.08 -4.04,16.16 0,0 0,0 0,0l0 8.08 -12.12 8.08 -12.12 0 -4.04 0c0,0 0,0 0,0l0 -4.04c0,-4.04 -4.04,-8.08 -4.04,-8.08l0 0c0,-4.04 0,-4.04 0,-4.04 0,-12.12 4.04,-24.24 8.08,-28.28 -4.04,-4.04 -4.04,-8.08 -4.04,-8.08l4.04 0c-4.04,-4.04 -4.04,-8.08 -4.04,-8.08l0 0c0,-8.08 -8.08,-16.16 -12.12,-24.24 -12.12,-4.04 -20.2,-8.08 -24.24,-8.08l-8.08 0c-12.12,0 -20.19,0 -24.24,8.08l-4.04 0 0 0c-12.12,8.08 -16.16,12.12 -16.16,16.16 -4.03,4.04 -8.08,12.12 -8.08,28.28 0,0 -4.04,0 -4.04,4.04l0 4.04c8.09,12.12 16.16,24.24 28.28,28.28 4.04,4.04 20.2,12.12 48.48,24.24 12.12,4.04 24.24,12.11 44.44,24.23 16.16,8.09 20.2,16.16 20.2,24.25l0 0 0 4.03c0,4.04 0,8.09 -4.04,12.13 0,4.03 -12.12,8.07 -36.36,12.12 -4.04,0 -8.08,4.03 -8.08,4.03 0,0 0,0 0,0 -8.08,0 -12.12,0 -12.12,0 0,0 0,0 0,0l-8.08 0 -16.16 0c-36.36,-4.03 -56.56,-8.08 -60.6,-12.12 -16.15,0 -28.27,-4.03 -40.4,-12.12l-4.03 -4.04 0 -4.03c4.03,-8.09 12.12,-12.12 20.19,-12.12 4.04,-4.04 4.04,-4.04 4.04,-4.04l4.05 0 0 0c0,0 0,0 0,0 4.03,-4.05 16.15,-4.05 32.31,-4.05 0,0 4.04,0 4.04,0l4.04 0c4.04,0 8.08,0 8.08,0l0 4.05c-4.04,0 -4.04,0 -4.04,0 0,0 4.04,0 4.04,4.04l0 0c0,0 0,0 0,4.03 -4.04,0 -8.08,0 -8.08,0 -12.11,0 -20.2,0 -20.2,4.05 0,0 0,0 -4.04,4.04l0 0c32.32,16.16 60.6,24.23 84.84,24.23 20.2,0 28.28,-8.07 28.28,-12.11 4.04,-4.05 4.04,-4.05 4.04,-4.05 -4.04,-12.11 -20.2,-20.19 -44.44,-32.32 -4.04,0 -4.04,0 -4.04,0l-4.04 0c-20.2,-8.07 -36.36,-16.15 -48.48,-20.19 -8.08,-4.04 -16.16,-8.08 -24.24,-16.16 -8.07,-8.08 -12.12,-8.08 -12.12,-12.12l0 0 -4.04 0c-4.03,-4.04 -4.03,-12.12 -8.07,-20.2 0,-8.08 -4.05,-8.08 -4.05,-8.08 4.05,-12.12 4.05,-16.16 4.05,-20.2l0 0c0,0 0,-4.04 4.04,-8.08 0,-4.04 4.03,-4.04 4.03,-4.04 0,-4.04 8.09,-8.08 20.21,-20.2 8.07,-4.04 16.16,-8.08 28.27,-12.12 0,-4.04 8.08,-4.04 24.24,-8.08l0 0c4.04,0 12.12,0 20.2,0 0,0 0,0 4.04,0 0,0 0,0 0,0l4.04 0 4.04 0 4.04 0 4.04 0c12.12,4.04 20.2,4.04 28.28,8.08 0,0 0,-4.04 0,-8.08l0 -8.08 0 0c0,-4.04 0,-4.04 0,-4.04l4.04 0c4.04,0 4.04,4.04 4.04,4.04l0 0c0,-4.04 0,-8.08 4.04,-8.08 0,0 0,0 0,4.04l0 0 0 4.04c0,0 0,0 0,0l4.04 0c-4.04,-4.04 -4.04,-8.08 -4.04,-8.08l4.04 -4.04zm-4.04 28.28l0 4.04c0,0 0,0 0,0 0,4.04 0,4.04 0,4.04 0,8.08 0,16.16 0,20.2l0 0 0 0c0,-8.08 4.04,-16.16 4.04,-28.28l0 -4.04 0 -4.04 0 0c0,0 -4.04,4.04 -4.04,8.08zm-36.36 4.04c0,0 8.08,4.04 20.2,8.08 0,0 0,4.04 0,4.04l0 -4.04c0,0 -4.04,-4.04 -20.2,-8.08l0 0zm-4.04 0l0 0c0,0 4.04,4.04 8.08,8.08l0 0c0,-4.04 -4.04,-4.04 -8.08,-8.08l0 0zm12.12 4.04c0,0 4.04,4.04 8.08,8.08l0 0 -8.08 -8.08 0 0zm-88.87 8.08l0 0 8.07 -4.04 0 0c-4.04,0 -8.07,4.04 -8.07,4.04zm125.23 -4.04c0,4.04 0,8.08 0,12.12l0 0c0,0 0,-4.04 4.04,-12.12l-4.04 0zm-12.12 4.04c0,0 0,8.08 -4.04,20.2 4.04,0 4.04,-8.08 4.04,-20.2l0 0zm-20.2 8.08l0 0c4.04,4.04 4.04,8.08 4.04,8.08 0,-8.08 0,-8.08 -4.04,-8.08zm-101 0c0,0 -4.04,4.04 -4.04,8.08l0 0c0,0 4.04,-4.04 4.04,-8.08l0 0zm109.08 4.04c0,0 0,4.04 0,4.04l4.04 0c0,-4.04 0,-4.04 0,-4.04 0,0 0,0 0,-4.04l-4.04 0 0 4.04zm-133.32 8.08l4.05 -8.08 4.03 0 0 0 0 0c-4.03,0 -4.03,4.04 -8.08,8.08zm149.48 -8.08l0 4.04 0 4.04 0 0 0 -8.08 0 0 0 0zm-20.2 8.08l0 4.04c0,0 0,0 0,0l4.04 0 0 0c-4.04,-4.04 -4.04,-4.04 -4.04,-4.04l0 0zm-133.32 0l0 4.04 0 4.04 0 0 0 -4.04 0 -4.04 0 0zm24.24 4.04l0 4.04 0 0c0,0 0,0 0,-4.04l0 0zm0 4.04c0,4.04 0,4.04 0,8.08l0 0c0,0 0,4.04 0,4.04l0 0 0 0c0,-4.04 4.04,-8.08 4.04,-12.12l0 0 -4.04 0zm121.2 0l-4.04 12.12 0 0 0 0c0,0 4.04,-4.04 4.04,-8.08l0 -4.04 0 0zm0 4.04c0,0 0,4.04 0,4.04l0 0 4.04 0c0,0 0,0 0,0 0,-4.04 0,-4.04 0,-4.04l-4.04 0zm-125.23 4.04l0 4.04 0 4.04 4.03 0 0 -4.04c0,0 -4.03,-4.04 -4.03,-4.04l0 0zm121.19 24.24c0,8.08 0,12.12 0,16.16l4.04 0c-4.04,-4.04 -4.04,-8.08 -4.04,-8.08 0,-8.08 0,-20.2 4.04,-32.32 -4.04,4.04 -4.04,12.12 -4.04,24.24zm-129.28 -20.2l0 4.04c0,12.12 4.04,20.2 8.09,24.24l0 0c-4.05,-8.08 -4.05,-12.12 -4.05,-16.16l0 0c-4.04,-8.08 -4.04,-12.12 -4.04,-12.12zm-4.03 0l0 4.04c0,0 0,0 0,0l0 0c0,-4.04 0,-4.04 0,-4.04zm137.35 16.16l0 8.08 0 8.08 0 0 0 -4.04c0,-4.04 0,-4.04 0,-8.08l4.04 -16.16c-4.04,4.04 -4.04,8.08 -4.04,12.12zm-145.44 -8.08l0 0c0,4.04 0,8.08 4.04,16.16 4.05,0 4.05,0 4.05,-4.04 -4.05,-8.08 -4.05,-12.12 -8.09,-12.12l0 0zm8.09 0l0 4.04c0,4.04 4.03,4.04 4.03,4.04l0 0c0,-4.04 0,-4.04 0,-8.08l-4.03 0zm12.12 4.04c0,0 0,4.04 0,4.04l0 0c0,0 4.03,0 4.03,0l-4.03 -4.04zm113.11 0c-4.04,4.04 -4.04,4.04 -4.04,4.04l4.04 0 0 -4.04 0 0zm4.04 8.08l0 4.04 0 0 0 -4.04 0 0zm-125.24 4.04l0 4.04c4.04,4.04 8.09,4.04 8.09,8.08l0 0c-4.05,-8.08 -4.05,-8.08 -4.05,-12.12l-4.04 0zm121.2 4.04c0,0 0,4.04 0,4.04 0,0 4.04,0 4.04,0l0 0c0,0 0,0 0,0 0,0 0,-4.04 0,-4.04l-4.04 0zm-109.08 4.04l0 0c0,0 4.04,4.04 4.04,4.04 0,0 0,0 0,-4.04l-4.04 0zm16.16 0c0,4.04 4.04,8.08 12.12,12.11l0 0 0 -4.03c-4.04,0 -8.08,0 -12.12,-8.08l0 0 0 0zm-8.08 8.08l0 0c4.05,4.03 8.08,8.08 12.12,8.08l4.04 8.08 4.04 -4.04 4.04 4.04 0 0 0 -4.04c-4.04,0 -8.08,-4.04 -12.12,-4.04 -4.04,-4.05 -8.07,-8.08 -12.12,-8.08l0 0zm-4.04 0c0,4.03 0,4.03 4.04,4.03 0,0 0,0 -4.04,-4.03l0 0zm-8.07 0l0 4.03c0,0 0,0 4.03,0l0 0 0 0c0,0 0,0 -4.03,-4.03zm4.03 4.03c4.04,4.05 8.08,8.09 12.13,12.13l0 0c0,0 0,-4.04 0,-4.04l0 0c0,0 -4.05,-4.04 -8.09,-4.04l0 -4.05 -4.04 0zm24.24 0l0 4.05c0,0 4.04,0 12.12,8.08l0 0c0,0 4.05,-4.04 4.05,-4.04 -8.09,-4.04 -12.13,-4.04 -12.13,-4.04l0 0 0 -4.05 -4.04 0zm12.12 4.05l0 0c8.08,4.04 8.08,8.08 8.08,8.08l4.04 0c0,0 4.04,0 4.04,0l0 0c0,0 0,0 -4.04,0 0,0 0,0 0,0 -4.04,-4.04 -8.07,-4.04 -12.12,-8.08zm20.2 8.08l0 0 4.04 0 0 4.04 0 0c0,0 0,0 4.04,4.04l0 -4.04c-4.04,0 -4.04,0 -4.04,0l0 0c8.08,4.04 12.12,4.04 12.12,4.04l0 0c4.04,0 4.04,4.04 4.04,4.04l0 0 0 -4.04c-4.04,0 -12.12,-4.04 -16.16,-8.08 0,0 0,0 0,0l-4.04 0zm-36.36 0l0 4.04c0,0 4.04,0 12.12,4.04 0,0 -4.04,-4.04 -12.12,-8.08zm24.24 8.08l0 0c8.08,8.07 20.2,12.12 28.28,16.16l8.08 4.03 4.04 0 0 -4.03 -24.24 -8.09c-4.04,-4.03 -8.08,-4.03 -16.16,-8.07 0,0 0,0 0,0l0 0zm24.24 4.04l0 4.03c0,0 8.08,4.05 20.2,12.12l4.04 0 0 0 0 0c-4.04,-4.03 -12.12,-8.07 -20.2,-12.12 0,0 0,0 -4.04,-4.03l0 0zm24.24 12.12c0,4.03 4.04,4.03 12.12,12.12l0 0c0,-4.05 -4.04,-8.09 -8.08,-12.12l-4.04 0zm-80.79 12.12c0,0 4.03,0 4.03,0l0 0c4.04,0 4.04,0 4.04,0l0 0c0,0 -4.04,0 -4.04,0 0,0 0,0 -4.03,0zm96.95 0c0,4.04 4.04,8.07 8.08,12.12 -4.04,-8.08 -4.04,-8.08 -4.04,-12.12l-4.04 0zm-125.23 8.07l0 0 0 0c4.03,0 8.07,-4.03 20.19,-4.03l0 0 -4.04 0c-8.08,0 -16.15,0 -16.15,4.03zm153.51 0l0 4.05 0 0 0 0c0,4.04 0,4.04 0,4.04l4.04 0 0 0c-4.04,-4.04 -4.04,-8.09 -4.04,-8.09l0 0zm-16.16 0c4.04,4.05 4.04,8.09 8.08,12.12 0,-4.03 -4.04,-4.03 -4.04,-12.12l-4.04 0zm-137.35 8.09l0 0c4.03,4.03 4.03,4.03 4.03,4.03l0 0 0 0 0 0 0 -4.03c4.04,0 4.04,-4.04 4.04,-4.04l0 0c-4.04,0 -4.04,4.04 -4.04,4.04 0,-4.04 0,-4.04 4.04,-4.04l0 0 -4.04 0c-4.03,0 -4.03,0 -4.03,4.04zm-16.16 0c0,0 0,0 0,0l0 0c4.04,0 4.04,0 4.04,0l0 -4.04 -4.04 4.04zm153.51 -4.04c0,4.04 0,8.07 0,12.11l0 0c0,0 0,-4.04 0,-12.11l0 0zm-149.47 4.04c0,4.03 0,4.03 0,4.03l4.03 0 0 -4.03c0,0 -4.03,0 -4.03,0zm12.12 4.03c0,4.04 0,4.04 8.07,4.04 0,0 -4.04,0 -8.07,-4.04l0 0zm20.19 4.04l0 4.05 4.04 0 0 0 0 0c0,0 0,0 -4.04,-4.05zm-8.07 4.05l0 4.04 4.03 0c0,0 0,0 0,0 0,0 -4.03,0 -4.03,-4.04zm28.27 8.07c0,0 4.04,4.04 16.17,4.04 -4.05,-4.04 -8.09,-4.04 -16.17,-4.04zm0 4.04l0 0c0,0 4.04,0 8.08,0l0 0 0 0c0,0 -4.04,0 -8.08,0 0,0 0,0 0,0 0,0 0,0 0,0z"/>
  <path id="_1" class="fil21" d="M10118.01 6264.31l4.05 0c0,0 0,4.04 0,8.08l0 8.08c0,0 0,0 0,0l0 0 0 4.04c0,0 0,0 0,0 0,0 0,0 0,0 0,24.24 -4.05,40.4 -8.08,52.52l-8.08 36.35 0 0 0 0c4.04,-4.03 8.08,-8.07 8.08,-8.07 0,0 4.03,-4.04 12.12,-8.08 8.08,-4.04 8.08,-4.04 12.12,-4.04 4.04,0 12.12,4.04 12.12,12.12 0,0 0,0 0,4.04l0 0c0,4.03 4.04,8.08 4.04,12.12 0,0 0,4.03 -4.04,4.03 4.04,0 4.04,8.09 4.04,16.16l0 0c0,16.16 4.03,24.25 8.07,24.25 0,0 8.09,-4.04 12.12,-12.13l0 4.04c-4.03,12.12 -12.12,16.16 -20.19,16.16l-4.04 0 0 0 0 0c-8.08,-4.04 -12.12,-12.11 -16.16,-20.2 0,0 0,-4.03 0,-8.07l0 -4.05c0,0 -4.05,0 -4.05,0 0,0 4.05,0 4.05,0 -4.05,-20.19 -4.05,-32.31 -4.05,-36.35 -4.03,0 -8.07,8.07 -16.15,16.16 -8.08,12.12 -12.13,24.24 -12.13,40.4l0 0c0,4.04 0,8.07 0,12.11 -4.03,0 -4.03,0 -4.03,0 0,0 -4.04,0 -8.08,0l0 0 0 4.05 0 -4.05 4.04 0 0 0 -4.04 8.08 0 0c0,0 -4.04,-4.03 -4.04,-8.08l0 0 0 4.05 -4.04 0c0,-4.05 0,-4.05 0,-12.12l0 0c0,0 0,-4.04 0,-4.04l0 0 4.04 0 0 0c-4.04,0 -4.04,0 -4.04,-4.05l0 0c0,0 0,-4.04 0,-4.04l0 -4.03 0 -4.04 0 -4.05c0,0 0,-4.03 0,-4.03l0 0 0 0c0,-4.04 0,-12.13 4.04,-28.28l4.04 -16.16c-4.04,0 -4.04,0 -4.04,0 4.04,-4.04 4.04,-4.04 4.04,-4.04l0 0c0,-4.05 4.04,-16.16 8.08,-40.4l0 0c0,0 0,0 0,0 4.03,-20.2 4.03,-28.28 4.03,-32.32l0 -4.04c0,0 0,-4.04 0,-4.04l4.05 0 0 0c0,0 4.04,-4.04 4.04,-4.04 0,4.04 0,4.04 0,8.08l4.04 0c0,-4.04 0,-4.04 0,-4.04l0 0c4.03,0 4.03,-4.04 4.03,-4.04zm-12.11 20.2c0,8.08 -4.05,20.2 -4.05,40.4l0 0 0 -4.04 0 -4.04 -4.03 0c0,0 0,0 0,0 0,0 0,4.04 0,4.04 -4.04,20.2 -8.08,32.32 -8.08,32.32 0,0 0,0 0,0l-4.04 44.44c0,0 0,0 0,0 0,4.03 -4.04,8.08 -4.04,12.12l0 4.03 4.04 0c0,-16.15 4.04,-28.28 4.04,-32.31 0,0 0,0 0,0 0,-4.04 4.04,-12.12 8.08,-28.28 -4.04,-4.04 -4.04,-4.04 -4.04,-4.04 0,0 4.04,-4.05 4.04,-4.05l0 0 0 4.05 0 0c0,0 0,-4.05 0,-8.08 0,0 0,0 0,-4.04l0 0 0 0 0 0c0,0 4.03,-4.04 8.08,-20.2 0,-4.04 0,-8.08 0,-12.12 0,-4.04 0,-4.04 0,-4.04l0 -4.04 0 -8.08 4.04 -4.04 -4.04 0zm12.11 4.04l0 4.04 0 0 0 -8.08c0,0 0,0 0,4.04zm0 16.16l0 4.04 0 4.04 0 0c0,-4.04 0,-4.04 4.05,-4.04 -4.05,0 -4.05,-4.04 -4.05,-4.04l0 0zm-16.16 20.2l0 0 0 0c-4.03,4.04 -4.03,8.08 -4.03,8.08l0 0c0,-4.04 4.03,-8.08 4.03,-8.08zm0 24.24l0 4.04 0 0 0 0 4.05 -4.04 0 0 -4.05 0zm0 4.04l-4.03 16.16 4.03 0 0 -12.12 0 -4.04zm36.37 8.08c0,0 0,0 0,0 0,4.04 4.04,4.04 4.04,4.04l0 0c0,-4.04 0,-4.04 -4.04,-4.04zm-40.4 8.08l0 0c0,0 0,0 0,-4.04 0,0 0,4.04 0,4.04zm-4.04 4.03c0,8.09 0,12.12 0,12.12l0 0c0,0 0,-4.03 4.04,-12.12l0 0 -4.04 0zm44.44 8.09c0,0 0,4.03 0,8.07l0 0 0 -4.04 0 -4.03 0 0zm4.04 4.03l0 12.13 4.03 4.03 -4.03 0c4.03,12.12 4.03,20.21 8.08,20.21l0 0c0,-4.05 0,-4.05 0,-4.05 0,-4.04 0,-4.04 0,-4.04 -4.05,0 -4.05,-4.03 -4.05,-12.12l0 0c0,-8.07 0,-12.12 0,-12.12 0,0 0,0 0,-4.04l0 0c0,0 0,0 -4.03,0zm8.08 8.09l0 0 0 0c0,0 0,4.04 0,4.04l0 4.03c0,0 0,0 0,0 0,0 0,4.05 0,4.05l0 0 0 -12.12c0,0 0,0 0,0zm-12.12 0c0,0 0,4.04 0,8.07l0 0c0,0 0,0 4.04,-4.03l0 0c0,4.03 0,8.08 0,12.12l0 0c0,0 0,4.03 0,4.03l4.03 0c-4.03,0 -4.03,-4.03 -4.03,-4.03l4.03 0c-4.03,-8.09 -4.03,-12.12 -4.03,-12.12 -4.04,-4.04 -4.04,-4.04 -4.04,-4.04zm-44.44 16.16l0 0 0 0 0 -8.09c0,0 0,4.05 0,8.09zm56.56 -4.04l0 0c0,12.11 0,16.16 4.04,16.16l0 0c-4.04,-8.09 -4.04,-12.12 -4.04,-16.16l0 0zm-64.64 32.32l0 0 0 4.03 0 0 0 -4.03z"/>
  <path id="_2" class="fil21" d="M10227.09 6361.27l0 0c0,0 0,0 0,0 12.13,4.04 20.2,4.04 20.2,8.08l0 0c-4.04,0 -4.04,0 -4.04,0l0 0c-8.08,0 -12.12,4.03 -12.12,4.03l-4.04 0c0,0 -4.03,0 -4.03,-4.03 -4.05,0 -4.05,0 -4.05,0 -4.04,0 -8.07,0 -12.12,4.03l0 4.05 -4.04 -4.05c0,4.05 0,4.05 -4.04,8.09 0,4.03 -4.03,8.07 -8.08,12.12 -4.04,4.04 -4.04,8.07 -4.04,12.12 0,4.04 0,4.04 0,8.07l0 0c0,4.04 4.04,8.09 8.09,12.13 8.07,-4.04 12.11,-4.04 12.11,-8.09 4.05,0 8.08,-8.07 12.12,-24.23 0,0 0,-4.05 0,-8.09l0 -4.03 0 0c8.08,0 12.12,0 16.16,-4.04l4.05 0 0 4.04c0,4.03 -4.05,12.12 -4.05,20.19l0 0 0 0c0,0 0,4.05 0,4.05 0,0 0,4.04 0,12.11 0,0 0,0 0,0 4.05,0 4.05,0 4.05,0 0,0 0,0 -4.05,0 4.05,4.05 4.05,4.05 4.05,8.09l8.07 0 12.12 -12.13 4.04 -4.03 4.05 0 0 4.03 -4.05 4.04 0 0c0,0 4.05,0 4.05,4.05l0 0c-4.05,4.04 -8.09,8.07 -16.17,12.11 -4.04,4.05 -12.11,8.08 -16.16,8.08 0,0 -8.08,-8.08 -16.16,-16.15l0 0 4.05 -4.04 0 0c-16.17,12.11 -24.25,16.16 -32.33,16.16 0,0 -4.04,0 -8.07,0 -8.09,0 -16.16,-4.05 -16.16,-8.09 0,0 0,-4.03 0,-12.12 0,-4.04 0,-12.11 0,-16.16l0 0c0,-4.03 4.04,-4.03 4.04,-4.03l0 -4.04c0,-8.09 8.08,-12.12 20.19,-20.21 12.12,-8.07 24.24,-12.11 36.36,-12.11zm-48.47 28.27l-4.05 4.05 0 0c0,0 4.05,0 4.05,0 0,0 0,0 0,-4.05 0,0 0,0 0,0 0,0 0,0 0,0l0 0zm-4.05 8.09l0 4.03 0 4.05c0,0 0,-4.05 0,-4.05l0 -4.03 0 0zm48.49 4.03c0,4.05 0,4.05 0,4.05l0 4.04 0 0 0 -8.09 0 0zm0 12.12l0 0c4.03,-4.03 4.03,-8.07 4.03,-8.07 0,0 0,4.04 -4.03,8.07zm-40.4 -4.03l0 4.03 0 0 0 0 0 -4.03 0 0zm-12.12 4.03l0 8.09c4.03,0 4.03,0 4.03,4.04l0 0 0 -4.04c0,0 0,-4.05 -4.03,-8.09l0 0zm48.47 8.09l0 0 0 0c4.05,-4.05 8.08,-4.05 8.08,-4.05l0 0 -4.03 0c0,0 -4.05,4.05 -4.05,4.05z"/>
  <path id="_3" class="fil21" d="M10299.81 6349.15c0,0 0,0 4.04,4.04 -8.08,8.08 -12.12,28.28 -16.16,60.59l0 8.09c0,0 0,4.04 0,4.04 4.04,0 12.12,-12.13 24.24,-36.37 4.04,-16.16 8.08,-28.27 12.12,-32.31l0 0 4.04 0c0,0 4.04,0 8.08,0 0,0 0,0 0,0l8.08 0 0 0c-4.04,8.08 -8.08,24.24 -12.12,48.48 0,0 0,0 0,4.04l0 0 0 0 0 0c0,0 0,0 0,0 4.04,8.07 4.04,12.12 4.04,16.16l4.04 0c4.04,0 8.08,-8.09 20.2,-20.2 0,0 0,4.04 0,4.04l-4.04 4.03 0 0c4.04,0 4.04,0 8.08,0l0 0 -4.04 4.04 4.04 0c-8.08,12.12 -20.2,16.16 -28.28,16.16 0,0 0,4.05 -4.04,4.05 -12.12,-4.05 -16.16,-8.09 -16.16,-12.12 0,0 -4.04,-4.04 -4.04,-12.13 -12.12,16.16 -20.2,24.25 -28.28,24.25 0,0 -4.04,0 -4.04,0 -12.11,0 -16.16,-4.05 -16.16,-12.12l0 0c0,0 -4.04,-4.04 -4.04,-12.13 4.04,-12.12 4.04,-20.19 8.09,-24.24 0,-12.11 4.03,-20.19 8.07,-20.19l0 -4.04c0,-8.08 4.04,-12.12 4.04,-16.16l4.04 0 0 4.04 4.04 0c4.04,-4.04 8.08,-4.04 12.12,-4.04zm-4.04 4.04l-4.04 12.12 0 0c4.04,-4.04 4.04,-8.08 4.04,-12.12l0 0 0 0zm-16.16 28.28l0 0 4.04 -16.16 0 0c0,0 0,4.04 -4.04,16.16zm48.48 -12.12c-4.04,8.08 -4.04,12.12 -4.04,16.15l0 0 4.04 -16.15 0 0zm-40.4 4.03c0,4.05 0,8.09 0,8.09l0 0c0,0 4.04,0 4.04,-8.09l-4.04 0zm32.32 4.05c0,0 0,4.04 -4.04,4.04l-8.08 20.19 0 0 0 0c4.04,-4.03 8.08,-12.12 12.12,-16.16 0,0 0,0 0,0l0 -4.03c0,0 0,-4.04 0,-4.04l0 0zm8.08 4.04c-4.04,8.07 -4.04,12.12 -4.04,12.12l0 4.04c0,4.03 0,4.03 0,4.03l0 0 0 4.05 0 0 0 0c0,0 0,-4.05 4.04,-8.08l0 0c0,-4.04 0,-8.09 0,-16.16l0 0zm-52.52 0c-4.04,4.03 -4.04,4.03 -4.04,4.03l0 4.04 4.04 0c0,-4.04 0,-4.04 0,-8.07l0 0zm4.04 4.03c0,0 0,0 0,-4.03 0,0 0,4.03 0,4.03zm40.4 4.04l0 0 0 0c0,0 0,0 4.04,-4.04 -4.04,0 -4.04,0 -4.04,4.04zm-4.04 12.12c0,0 -4.04,4.05 -8.08,12.12l0 0 4.04 -4.03c0,0 0,0 0,0 4.04,0 4.04,-4.04 4.04,-8.09l0 0 0 0zm-40.4 0l0 0 0 4.05 0 0 0 8.07 0 0c0,-4.03 0,-4.03 4.04,-8.07l-4.04 0 4.04 -4.05c0,0 -4.04,0 -4.04,0zm52.52 4.05c0,4.04 0,4.04 0,4.04 0,0 0,4.03 0,8.07l0 0 0 0 0 -4.04c0,-4.03 0,-8.07 0,-8.07l0 0 0 0zm-4.04 0c0,0 -4.04,0 -4.04,4.04l4.04 8.07 0 0 0 -8.07c0,-4.04 0,-4.04 0,-4.04zm-56.55 4.04l0 8.07c0,0 4.03,4.05 4.03,8.09 0,0 0,0 0,0 0,4.03 0,4.03 4.04,8.07l0 0 4.04 0c0,0 -4.04,-4.04 -4.04,-4.04 -4.04,-8.07 -4.04,-12.12 -4.04,-16.16l0 -4.03 0 0 -4.03 0zm48.47 0c0,0 0,0 0,0l0 4.03 0 0c0,8.09 4.04,12.13 8.08,12.13 -4.04,-4.04 -4.04,-4.04 -4.04,-8.09l0 0 0 0 0 0 0 0c0,0 0,-4.04 0,-4.04 0,0 0,-4.03 0,-4.03l-4.04 0zm-48.47 8.07c0,0 0,4.05 -4.05,4.05 4.05,0 4.05,4.04 4.05,4.04l0 0 0 0 0 -8.09 0 0zm60.59 4.05l0 0c0,4.04 0,8.07 4.04,8.07l4.04 0 0 0c-4.04,0 -4.04,0 -4.04,-4.03 0,0 -4.04,0 -4.04,-4.04z"/>
  <path id="_4" class="fil21" d="M10380.6 6341.07c24.25,0 40.41,4.03 48.49,16.16 0,4.04 0,8.08 0,12.12 0,4.03 -4.05,16.15 -8.08,32.31 0,0 0,4.05 -4.04,8.09l0 8.07c4.04,4.05 4.04,8.09 4.04,8.09 4.03,0 8.08,-4.04 16.15,-12.13 4.05,-4.03 4.05,-8.07 8.09,-8.07l-4.04 8.07 0 0c0,0 4.04,0 4.04,-4.03l4.04 0 0 0 -4.04 4.03 0 0 4.04 0c-12.13,16.16 -24.25,24.25 -40.41,24.25 -12.11,-4.05 -16.15,-4.05 -16.15,-8.09 0,0 0,-4.03 -4.04,-8.07 0,-12.12 4.04,-32.33 16.16,-56.56l0 -4.04c0,-4.04 -4.04,-4.04 -16.16,-4.04 -8.09,0 -8.09,0 -8.09,4.04 0,0 0,0 0,0l0 4.04c0,4.04 0,4.04 0,4.04 -12.11,4.03 -16.15,4.03 -16.15,4.03l-4.04 0c0,0 0,0 0,-8.07 0,0 -4.04,0 -4.04,-4.04 0,-8.08 4.04,-12.12 12.12,-16.17 4.04,0 8.08,-4.03 12.11,-4.03zm-8.07 16.16l0 0c4.04,-4.04 4.04,-4.04 8.07,-4.04l0 0c-4.03,0 -8.07,4.04 -8.07,4.04zm-4.04 4.04l0 4.04c0,0 0,0 0,0l4.04 0c0,0 0,0 0,0 0,-4.04 0,-4.04 -4.04,-4.04zm40.39 8.08c-4.03,4.03 -4.03,8.08 -4.03,8.08l0 0c4.03,0 4.03,-4.05 4.03,-8.08l0 0 0 0zm8.09 0c-4.04,12.12 -8.09,20.19 -8.09,20.19 4.05,0 4.05,-4.04 8.09,-16.16l0 -4.03zm-8.09 4.03c0,4.05 0,8.09 0,12.12l0 0c0,0 0,-4.03 4.05,-12.12l-4.05 0zm12.13 8.09l0 -4.04c0,4.04 0,4.04 0,4.04 0,0 0,0 0,0 0,4.03 0,4.03 -4.04,4.03l4.04 4.04c0,0 -4.04,4.05 -4.04,4.05l0 4.04 0 0c4.04,-12.13 8.07,-20.2 8.07,-24.25l0 0c0,0 -4.03,4.05 -4.03,8.09zm-12.13 12.12c-4.03,4.04 -4.03,8.07 -4.03,8.07l4.03 0c0,0 0,-4.03 0,-8.07l0 0zm-12.11 4.04c-4.04,12.12 -4.04,16.15 -4.04,16.15 4.04,0 4.04,0 4.04,4.04 0,0 -4.04,4.05 -4.04,4.05 4.04,0 4.04,0 4.04,0l0 0 0 -8.09 0 0c0,0 0,-8.07 0,-16.15l0 0zm16.16 12.12c0,4.03 0,4.03 0,4.03l0 0c0,0 0,-4.03 4.04,-4.03l0 0 0 -8.09c0,0 -4.04,4.05 -4.04,8.09zm-4.05 8.07l0 0 0 4.05 4.05 0c0,0 0,0 0,-4.05l-4.05 0zm-4.03 8.09l0 0c0,4.03 0,4.03 0,4.03l0 0 0 0c0,-4.03 0,-4.03 0,-4.03z"/>
  <path id="_5" class="fil21" d="M10469.48 6341.07c0,0 0,4.03 0,4.03l4.05 -4.03 0 0c0,0 4.03,0 4.03,4.03l0 8.09c0,4.04 -4.03,12.12 -12.12,32.31 -4.03,12.13 -4.03,16.16 -4.03,24.25 0,4.03 0,8.07 0,12.12l4.03 0c4.04,-4.05 8.09,-16.16 16.16,-36.37 8.09,-16.15 12.12,-28.27 12.12,-28.27 0,-8.08 8.09,-12.13 16.16,-12.13 0,0 0,0 4.04,0l0 4.05c0,4.04 -4.04,20.2 -8.08,44.44 -4.03,8.07 -4.03,12.12 -4.03,12.12l4.03 4.04 0 0c0,0 4.04,-4.04 8.08,-12.12 0,0 4.05,-4.04 12.12,-12.13l4.05 -20.19c0,-8.08 8.07,-16.16 24.23,-20.21l0 0 0 4.05 0 4.04c0,4.04 -4.04,16.16 -8.07,40.4 -4.05,4.04 -4.05,4.04 -4.05,8.07l0 8.09c4.05,4.03 4.05,8.07 4.05,8.07 4.03,0 12.11,-8.07 24.23,-24.23l0 0 0 0c0,4.04 -4.04,8.07 -4.04,8.07l4.04 0c0,-4.03 4.05,-4.03 4.05,-8.07l0 0 0 4.04c0,0 0,4.03 -4.05,8.08l4.05 0 4.03 -4.05 4.04 0c0,0 0,4.05 -4.04,4.05l0 0 0 0c-8.08,8.07 -16.16,16.16 -24.24,20.2 -8.07,4.03 -8.07,4.03 -12.12,8.07l0 0c0,-4.04 -4.04,-4.04 -12.11,-4.04 -4.05,-4.03 -8.09,-8.07 -8.09,-16.16l-4.03 -4.03c-8.09,16.16 -12.13,20.19 -20.21,20.19l-8.07 0c0,0 -4.04,-4.03 -8.09,-8.07 0,-4.05 0,-4.05 0,-4.05 -4.04,8.09 -12.12,12.12 -24.23,16.16l-4.05 0 0 0c0,0 -4.03,0 -4.03,0 -8.08,0 -12.13,-4.04 -12.13,-16.16l0 -8.07c0,0 0,-4.04 0,-4.04l0 0c4.05,-16.17 8.09,-28.28 12.13,-44.44 4.03,-4.04 8.08,-8.08 8.08,-16.17l0 0c0,0 4.04,0 4.04,4.05 0,0 4.03,-4.05 8.07,-8.08l0 0zm76.77 12.12l0 4.04 0 0 0 -4.04 0 0zm-48.49 16.16l0 4.03c0,0 0,-8.07 4.05,-16.15 0,0 -4.05,4.04 -4.05,12.12zm-32.32 -12.12c0,0 -4.03,4.04 -4.03,12.12 -8.09,8.08 -8.09,16.15 -8.09,16.15l0 0 0 0c0,0 4.05,-8.07 8.09,-20.19 4.03,0 4.03,-4.04 4.03,-8.08l0 0zm28.28 4.04l-4.03 16.16 0 0 0 0c0,0 4.03,-8.08 8.07,-16.16l-4.04 0zm-36.35 4.04l0 0 0 0c0,0 4.04,0 4.04,-4.04l0 0c-4.04,0 -4.04,0 -4.04,4.04zm84.83 8.07l-4.04 0 0 4.05 4.04 0 0 -4.05 0 0 0 0zm-80.79 0c0,0 0,4.05 0,4.05l0 4.04 0 0 0 -8.09 0 0zm72.71 0c0,4.05 -4.03,8.09 -8.08,16.16l4.05 0 0 0 4.03 -16.16 0 0zm4.04 12.12l4.04 0c0,0 0,-4.03 4.05,-12.12l0 0c-4.05,0 -4.05,4.05 -8.09,12.12zm-40.4 -12.12c-4.04,4.05 -4.04,4.05 -4.04,8.09 -4.03,0 -4.03,0 -4.03,-4.04 0,0 0,4.04 -4.04,12.11l0 0c4.04,0 4.04,0 4.04,-8.07 0,0 0,0 4.03,4.03 -4.03,0 -4.03,4.04 -4.03,12.13l0 0c0,0 4.03,-8.09 8.07,-24.25l0 0zm-44.44 16.16c-4.03,4.05 -4.03,8.09 -4.03,8.09 4.03,0 4.03,-4.04 4.03,-8.09l0 0 0 0zm76.77 4.05c0,0 0,4.04 0,4.04l0 -4.04 0 0c0,4.04 0,4.04 0,8.07 0,0 0,-4.03 0,-8.07l0 0 0 0zm-80.8 16.16c0,4.03 0,12.12 0,16.16l4.03 0c-4.03,-4.04 -4.03,-8.09 -4.03,-12.13l0 -4.03c0,-4.04 0,-4.04 0,-4.04 0,0 0,0 0,0 0,0 0,-4.05 4.03,-8.08l-4.03 0c0,0 0,4.03 0,12.12zm28.27 0l0 0c0,0 4.04,-4.04 8.09,-12.12l0 0c0,0 -4.05,4.03 -8.09,12.12zm12.13 -12.12c0,0 -4.04,4.03 -4.04,4.03l0 0 4.04 -4.03 0 0 0 0zm8.07 4.03c0,4.05 0,8.09 0,8.09 0,4.03 0,4.03 0,4.03l0 0 0 -12.12 0 0zm20.21 0c0,0 0,4.05 -4.05,4.05l0 0 4.05 0c0,0 0,0 0,-4.05l0 0 0 0zm12.12 4.05c0,4.04 0,8.07 4.03,8.07l0 0c-4.03,-4.03 -4.03,-8.07 -4.03,-8.07 0,0 0,0 0,0zm4.03 0c4.04,8.07 4.04,12.11 8.08,12.11l0 0c-4.04,-4.04 -4.04,-8.07 -4.04,-12.11l-4.04 0zm-92.91 4.04l0 8.07c0,4.05 4.04,8.09 4.04,8.09l0 0c0,0 0,-8.09 -4.04,-12.13l4.04 0c-4.04,0 -4.04,-4.03 -4.04,-4.03l0 0zm60.6 8.07c0,0 4.03,0 4.03,0 0,0 4.04,-4.04 12.13,-8.07 -8.09,4.03 -12.13,8.07 -16.16,8.07zm-12.12 -8.07c0,0 0,4.03 0,8.07 0,0 0,4.05 4.03,4.05l0 0c-4.03,-4.05 -4.03,-8.09 -4.03,-12.12l0 0zm40.4 8.07c0,0 0,0 -4.05,0 4.05,4.05 4.05,4.05 8.08,4.05 0,0 0,0 0,0 0,0 0,-4.05 -4.03,-4.05zm12.11 4.05c0,0 0,0 4.05,0l0 0c0,0 0,0 0,0 0,0 0,0 -4.05,0zm-88.88 0l0 0c0,4.04 0,4.04 4.05,4.04l0 0 -4.05 -4.04 0 0zm-4.03 4.04c0,4.03 0,4.03 0,4.03l4.03 0 0 0c-4.03,0 -4.03,0 -4.03,-4.03l0 0z"/>
  <path id="_6" class="fil21" d="M10627.04 6361.27l0 0c0,0 0,0 0,0 12.12,4.04 16.16,4.04 16.16,8.08l0 0c0,0 0,0 0,0l-4.04 0c-8.08,0 -12.12,4.03 -12.12,4.03l0 0c-4.04,0 -4.04,0 -8.08,-4.03 0,0 0,0 0,0 -4.04,0 -8.08,0 -16.16,4.03l0 4.05 0 -4.05c0,4.05 -4.04,4.05 -8.08,8.09 0,4.03 0,8.07 -4.04,12.12 -4.04,4.04 -4.04,8.07 -4.04,12.12 0,4.04 0,4.04 0,8.07l0 0c0,4.04 0,8.09 4.04,12.13 12.12,-4.04 16.16,-4.04 16.16,-8.09 4.04,0 4.04,-8.07 12.12,-24.23 0,0 -4.04,-4.05 -4.04,-8.09l0 -4.03 4.04 0c8.08,0 12.12,0 12.12,-4.04l8.08 0 0 4.04c-4.04,4.03 -4.04,12.12 -4.04,20.19l0 0 0 0c0,0 0,4.05 0,4.05 0,0 0,4.04 0,12.11 0,0 0,0 0,0 0,0 0,0 0,0 0,0 0,0 0,0 4.04,4.05 4.04,4.05 4.04,8.09l8.08 0 12.12 -12.13 4.04 -4.03 0 0 0 4.03 -4.04 4.04 0 0c4.04,0 4.04,0 4.04,4.05l0 0c0,4.04 -4.04,8.07 -12.12,12.11 -8.08,4.05 -12.12,8.08 -16.16,8.08 -4.04,0 -8.08,-8.08 -16.16,-16.15l0 0 0 -4.04 0 0c-12.12,12.11 -24.24,16.16 -28.28,16.16 -4.04,0 -4.04,0 -8.08,0 -12.12,0 -16.16,-4.05 -16.16,-8.09 0,0 0,-4.03 -4.04,-12.12 0,-4.04 4.04,-12.11 4.04,-16.16l0 0c0,-4.03 0,-4.03 4.04,-4.03l0 -4.04c0,-8.09 4.05,-12.12 20.2,-20.21 12.12,-8.07 24.24,-12.11 36.36,-12.11zm-48.48 28.27l-4.03 4.05 0 0c0,0 0,0 0,0 0,0 4.03,0 4.03,-4.05 0,0 0,0 0,0 0,0 0,0 0,0l0 0zm-4.03 8.09l0 4.03 0 4.05c0,0 0,-4.05 0,-4.05l0 -4.03 0 0zm48.47 4.03c0,4.05 0,4.05 -4.04,4.05l0 4.04 0 0 4.04 -8.09 0 0zm0 12.12l0 0c4.04,-4.03 4.04,-8.07 4.04,-8.07 0,0 -4.04,4.04 -4.04,8.07zm-44.44 -4.03l0 4.03 4.04 0 0 0 -4.04 -4.03 0 0zm-8.08 4.03l0 8.09c0,0 0,0 0,4.04l4.05 0 0 -4.04c0,0 -4.05,-4.05 -4.05,-8.09l0 0zm48.48 8.09l0 0 0 0c4.04,-4.05 4.04,-4.05 4.04,-4.05l0 0 0 0c-4.04,0 -4.04,4.05 -4.04,4.05z"/>
  <path class="fil3" d="M8861.66 6501.69c44.43,0 80.8,28.28 80.8,64.64 0,36.36 -36.37,68.68 -80.8,68.68 -44.44,0 -76.76,-32.32 -76.76,-68.68 0,-36.36 32.32,-64.64 76.76,-64.64z"/>
  <path class="fil3" d="M8861.66 7110.15c44.43,0 80.8,28.28 80.8,64.65 0,36.35 -36.37,68.67 -80.8,68.67 -44.44,0 -76.76,-32.32 -76.76,-68.67 0,-36.37 32.32,-64.65 76.76,-64.65z"/>
 </g>
</svg>
