<?xml version="1.0" encoding="UTF-8"?>
<!DOCTYPE svg PUBLIC "-//W3C//DTD SVG 1.1//EN" "http://www.w3.org/Graphics/SVG/1.1/DTD/svg11.dtd">
<!-- Creator: CorelDRAW 2017 -->
<svg xmlns="http://www.w3.org/2000/svg" xml:space="preserve" width="118.533mm" height="118.533mm" version="1.1" style="shape-rendering:geometricPrecision; text-rendering:geometricPrecision; image-rendering:optimizeQuality; fill-rule:evenodd; clip-rule:evenodd"
viewBox="0 0 11853.32 11853.32"
 xmlns:xlink="http://www.w3.org/1999/xlink">
 <defs>
  <style type="text/css">
   <![CDATA[
    .str1 {stroke:#4D4D4D;stroke-width:42.33;stroke-miterlimit:22.9256}
    .str0 {stroke:black;stroke-width:20;stroke-miterlimit:22.9256}
    .fil3 {fill:none}
    .fil2 {fill:black}
    .fil12 {fill:black}
    .fil8 {fill:#00AEBE}
    .fil4 {fill:#1A1A1A}
    .fil5 {fill:#666666}
    .fil7 {fill:#990000}
    .fil9 {fill:#B3B3B3}
    .fil10 {fill:#CCCCCC}
    .fil11 {fill:#DD0B29}
    .fil1 {fill:#FCD5A6}
    .fil6 {fill:red}
    .fil0 {fill:white}
   ]]>
  </style>
   <clipPath id="id0">
    <path d="M9236.34 5362.68l118.05 0 0 -27.24 -118.05 0 0 27.24z"/>
   </clipPath>
   <clipPath id="id1">
    <path d="M9259.05 5339.98l118.05 0 0 -27.24 -118.05 0 0 27.24z"/>
   </clipPath>
   <clipPath id="id2">
    <path d="M9279.97 5319.3l97.76 0 0 -29.97 -97.76 0 0 29.97z"/>
   </clipPath>
   <clipPath id="id3">
    <path d="M9281.75 5294.59l118.04 0 0 -27.24 -118.04 0 0 27.24z"/>
   </clipPath>
   <clipPath id="id4">
    <path d="M9304.45 5271.88l118.03 0 0 -27.24 -118.03 0 0 27.24z"/>
   </clipPath>
   <clipPath id="id5">
    <path d="M9327.14 5249.18l118.05 0 0 -27.24 -118.05 0 0 27.24z"/>
   </clipPath>
   <clipPath id="id6">
    <path d="M9347.93 5228.19l97.76 0 0 -29.88 -97.76 0 0 29.88z"/>
   </clipPath>
   <clipPath id="id7">
    <path d="M9349.86 5203.79l118.03 0 0 -27.25 -118.03 0 0 27.25z"/>
   </clipPath>
   <clipPath id="id8">
    <path d="M5929.04 5415.39l120.44 0 0 -29.97 -120.44 0 0 29.97z"/>
   </clipPath>
   <clipPath id="id9">
    <path d="M9372.55 5181.07l118.05 0 0 -27.24 -118.05 0 0 27.24z"/>
   </clipPath>
   <clipPath id="id10">
    <path d="M9393.21 5159.88l97.78 0 0 -29.96 -97.78 0 0 29.96z"/>
   </clipPath>
   <clipPath id="id11">
    <path d="M9417.95 5135.68l72.65 0 0 -27.24 -72.65 0 0 27.24z"/>
   </clipPath>
   <clipPath id="id12">
    <path d="M5929.04 5347.13l75.12 0 0 -29.96 -75.12 0 0 29.96z"/>
   </clipPath>
   <clipPath id="id13">
    <path d="M9415.88 5114.41l52.48 0 0 -29.97 -52.48 0 0 29.97z"/>
   </clipPath>
   <clipPath id="id14">
    <path d="M9417.95 5090.28l27.24 0 0 -27.25 -27.24 0 0 27.25z"/>
   </clipPath>
   <clipPath id="id15">
    <path d="M9393.21 5068.85l29.82 0 0 -52.72 -29.82 0 0 52.72z"/>
   </clipPath>
   <clipPath id="id16">
    <path d="M9372.55 5022.17l27.24 0 0 -27.25 -27.24 0 0 27.25z"/>
   </clipPath>
   <clipPath id="id17">
    <path d="M8933.64 5535.62l129.4 0 0 -29.94 -129.4 0 0 29.94z"/>
   </clipPath>
   <clipPath id="id18">
    <path d="M8957.99 5512.86l105.05 0 0 -52.72 -105.05 0 0 52.72z"/>
   </clipPath>
   <clipPath id="id19">
    <path d="M8982.34 5467.4l80.7 0 0 -29.96 -80.7 0 0 29.96z"/>
   </clipPath>
 </defs>
 <g id="Layer_x0020_1">
  <metadata id="CorelCorpID_0Corel-Layer"/>
  <rect class="fil0" x="5571.03" y="4557.45" width="3776.54" height="5512.92"/>
  <path class="fil1" d="M7507.55 55.02c1246.41,0 2256.66,1010.39 2256.66,2256.88 0,1246.29 -1010.25,2256.68 -2256.66,2256.68 -98.17,0 -194.88,-6.28 -289.75,-18.44 -1109.53,-142.22 -1967,-1090.09 -1967,-2238.24 0,-1246.54 1010.34,-2256.86 2256.75,-2256.88z"/>
  <path class="fil2" d="M7507.55 55.02c1018.61,0 1879.18,674.91 2159.91,1601.85 39.69,453.07 -2309.28,-224.35 -2881.38,-1106.51 -121.18,156.18 -1186.44,1000.55 -1421.03,1050.9 297.79,-898.35 1144.36,-1546.22 2142.5,-1546.24z"/>
  <g>
  </g>
  <g style="clip-path:url(#id0)">
   <g>
   </g>
  </g>
  <polygon class="fil3" points="9236.34,5362.68 9354.39,5362.68 9354.39,5335.44 9236.34,5335.44 "/>
  <polygon class="fil3" points="9236.34,5362.68 9354.39,5362.68 9354.39,5335.44 9236.34,5335.44 "/>
  <polygon class="fil3" points="9236.34,5362.68 9354.39,5362.68 9354.39,5335.44 9236.34,5335.44 "/>
  <polygon class="fil3" points="9236.34,5362.68 9354.39,5362.68 9354.39,5335.44 9236.34,5335.44 "/>
  <g>
  </g>
  <g style="clip-path:url(#id1)">
   <g>
   </g>
  </g>
  <polygon class="fil3" points="9259.05,5339.98 9377.1,5339.98 9377.1,5312.74 9259.05,5312.74 "/>
  <polygon class="fil3" points="9259.05,5339.98 9377.1,5339.98 9377.1,5312.74 9259.05,5312.74 "/>
  <polygon class="fil3" points="9259.05,5339.98 9377.1,5339.98 9377.1,5312.74 9259.05,5312.74 "/>
  <polygon class="fil3" points="9259.05,5339.98 9377.1,5339.98 9377.1,5312.74 9259.05,5312.74 "/>
  <g>
  </g>
  <g style="clip-path:url(#id2)">
   <g>
   </g>
  </g>
  <polygon class="fil3" points="9279.97,5319.3 9377.73,5319.3 9377.73,5289.33 9279.97,5289.33 "/>
  <polygon class="fil3" points="9279.97,5319.3 9377.73,5319.3 9377.73,5289.33 9279.97,5289.33 "/>
  <polygon class="fil3" points="9279.97,5319.3 9377.73,5319.3 9377.73,5289.33 9279.97,5289.33 "/>
  <polygon class="fil3" points="9279.97,5319.3 9377.73,5319.3 9377.73,5289.33 9279.97,5289.33 "/>
  <g>
  </g>
  <g style="clip-path:url(#id3)">
   <g>
   </g>
  </g>
  <polygon class="fil3" points="9281.75,5294.59 9399.79,5294.59 9399.79,5267.35 9281.75,5267.35 "/>
  <polygon class="fil3" points="9281.75,5294.59 9399.79,5294.59 9399.79,5267.35 9281.75,5267.35 "/>
  <polygon class="fil3" points="9281.75,5294.59 9399.79,5294.59 9399.79,5267.35 9281.75,5267.35 "/>
  <polygon class="fil3" points="9281.75,5294.59 9399.79,5294.59 9399.79,5267.35 9281.75,5267.35 "/>
  <g>
  </g>
  <g style="clip-path:url(#id4)">
   <g>
   </g>
  </g>
  <polygon class="fil3" points="9304.45,5271.88 9422.48,5271.88 9422.48,5244.64 9304.45,5244.64 "/>
  <polygon class="fil3" points="9304.45,5271.88 9422.48,5271.88 9422.48,5244.64 9304.45,5244.64 "/>
  <polygon class="fil3" points="9304.45,5271.88 9422.48,5271.88 9422.48,5244.64 9304.45,5244.64 "/>
  <polygon class="fil3" points="9304.45,5271.88 9422.48,5271.88 9422.48,5244.64 9304.45,5244.64 "/>
  <g>
  </g>
  <g style="clip-path:url(#id5)">
   <g>
   </g>
  </g>
  <polygon class="fil3" points="9327.14,5249.18 9445.19,5249.18 9445.19,5221.94 9327.14,5221.94 "/>
  <polygon class="fil3" points="9327.14,5249.18 9445.19,5249.18 9445.19,5221.94 9327.14,5221.94 "/>
  <polygon class="fil3" points="9327.14,5249.18 9445.19,5249.18 9445.19,5221.94 9327.14,5221.94 "/>
  <polygon class="fil3" points="9327.14,5249.18 9445.19,5249.18 9445.19,5221.94 9327.14,5221.94 "/>
  <g>
  </g>
  <g style="clip-path:url(#id6)">
   <g>
   </g>
  </g>
  <polygon class="fil3" points="9347.93,5228.19 9445.69,5228.19 9445.69,5198.31 9347.93,5198.31 "/>
  <polygon class="fil3" points="9347.93,5228.19 9445.69,5228.19 9445.69,5198.31 9347.93,5198.31 "/>
  <polygon class="fil3" points="9347.93,5228.19 9445.69,5228.19 9445.69,5198.31 9347.93,5198.31 "/>
  <polygon class="fil3" points="9347.93,5228.19 9445.69,5228.19 9445.69,5198.31 9347.93,5198.31 "/>
  <g>
  </g>
  <g style="clip-path:url(#id7)">
   <g>
   </g>
  </g>
  <polygon class="fil3" points="9349.86,5203.79 9467.89,5203.79 9467.89,5176.54 9349.86,5176.54 "/>
  <polygon class="fil3" points="9349.86,5203.79 9467.89,5203.79 9467.89,5176.54 9349.86,5176.54 "/>
  <polygon class="fil3" points="9349.86,5203.79 9467.89,5203.79 9467.89,5176.54 9349.86,5176.54 "/>
  <polygon class="fil3" points="9349.86,5203.79 9467.89,5203.79 9467.89,5176.54 9349.86,5176.54 "/>
  <g>
  </g>
  <g style="clip-path:url(#id8)">
   <g>
   </g>
  </g>
  <polygon class="fil3" points="5929.04,5415.39 6049.48,5415.39 6049.48,5385.42 5929.04,5385.42 "/>
  <polygon class="fil3" points="5929.04,5415.39 6049.48,5415.39 6049.48,5385.42 5929.04,5385.42 "/>
  <polygon class="fil3" points="5929.04,5415.39 6049.48,5415.39 6049.48,5385.42 5929.04,5385.42 "/>
  <polygon class="fil3" points="5929.04,5415.39 6049.48,5415.39 6049.48,5385.42 5929.04,5385.42 "/>
  <g>
  </g>
  <g style="clip-path:url(#id9)">
   <g>
   </g>
  </g>
  <polygon class="fil3" points="9372.55,5181.07 9490.6,5181.07 9490.6,5153.83 9372.55,5153.83 "/>
  <polygon class="fil3" points="9372.55,5181.07 9490.6,5181.07 9490.6,5153.83 9372.55,5153.83 "/>
  <polygon class="fil3" points="9372.55,5181.07 9490.6,5181.07 9490.6,5153.83 9372.55,5153.83 "/>
  <polygon class="fil3" points="9372.55,5181.07 9490.6,5181.07 9490.6,5153.83 9372.55,5153.83 "/>
  <g>
  </g>
  <g style="clip-path:url(#id10)">
   <g>
   </g>
  </g>
  <polygon class="fil3" points="9393.21,5159.88 9490.99,5159.88 9490.99,5129.92 9393.21,5129.92 "/>
  <polygon class="fil3" points="9393.21,5159.88 9490.99,5159.88 9490.99,5129.92 9393.21,5129.92 "/>
  <polygon class="fil3" points="9393.21,5159.88 9490.99,5159.88 9490.99,5129.92 9393.21,5129.92 "/>
  <polygon class="fil3" points="9393.21,5159.88 9490.99,5159.88 9490.99,5129.92 9393.21,5129.92 "/>
  <g>
  </g>
  <g style="clip-path:url(#id11)">
   <g>
   </g>
  </g>
  <polygon class="fil3" points="9417.95,5135.68 9490.6,5135.68 9490.6,5108.44 9417.95,5108.44 "/>
  <polygon class="fil3" points="9417.95,5135.68 9490.6,5135.68 9490.6,5108.44 9417.95,5108.44 "/>
  <polygon class="fil3" points="9417.95,5135.68 9490.6,5135.68 9490.6,5108.44 9417.95,5108.44 "/>
  <polygon class="fil3" points="9417.95,5135.68 9490.6,5135.68 9490.6,5108.44 9417.95,5108.44 "/>
  <g>
  </g>
  <g style="clip-path:url(#id12)">
   <g>
   </g>
  </g>
  <polygon class="fil3" points="5929.04,5347.13 6004.16,5347.13 6004.16,5317.17 5929.04,5317.17 "/>
  <polygon class="fil3" points="5929.04,5347.13 6004.16,5347.13 6004.16,5317.17 5929.04,5317.17 "/>
  <polygon class="fil3" points="5929.04,5347.13 6004.16,5347.13 6004.16,5317.17 5929.04,5317.17 "/>
  <polygon class="fil3" points="5929.04,5347.13 6004.16,5347.13 6004.16,5317.17 5929.04,5317.17 "/>
  <g>
  </g>
  <g style="clip-path:url(#id13)">
   <g>
   </g>
  </g>
  <polygon class="fil3" points="9415.88,5114.41 9468.36,5114.41 9468.36,5084.44 9415.88,5084.44 "/>
  <polygon class="fil3" points="9415.88,5114.41 9468.36,5114.41 9468.36,5084.44 9415.88,5084.44 "/>
  <polygon class="fil3" points="9415.88,5114.41 9468.36,5114.41 9468.36,5084.44 9415.88,5084.44 "/>
  <polygon class="fil3" points="9415.88,5114.41 9468.36,5114.41 9468.36,5084.44 9415.88,5084.44 "/>
  <g>
  </g>
  <g style="clip-path:url(#id14)">
   <g>
   </g>
  </g>
  <polygon class="fil3" points="9417.95,5090.28 9445.19,5090.28 9445.19,5063.03 9417.95,5063.03 "/>
  <polygon class="fil3" points="9417.95,5090.28 9445.19,5090.28 9445.19,5063.03 9417.95,5063.03 "/>
  <polygon class="fil3" points="9417.95,5090.28 9445.19,5090.28 9445.19,5063.03 9417.95,5063.03 "/>
  <polygon class="fil3" points="9417.95,5090.28 9445.19,5090.28 9445.19,5063.03 9417.95,5063.03 "/>
  <g>
  </g>
  <g style="clip-path:url(#id15)">
   <g>
   </g>
  </g>
  <polygon class="fil3" points="9393.21,5068.85 9423.03,5068.85 9423.03,5016.13 9393.21,5016.13 "/>
  <polygon class="fil3" points="9393.21,5068.85 9423.03,5068.85 9423.03,5016.13 9393.21,5016.13 "/>
  <polygon class="fil3" points="9393.21,5068.85 9423.03,5068.85 9423.03,5016.13 9393.21,5016.13 "/>
  <polygon class="fil3" points="9393.21,5068.85 9423.03,5068.85 9423.03,5016.13 9393.21,5016.13 "/>
  <g>
  </g>
  <g style="clip-path:url(#id16)">
   <g>
   </g>
  </g>
  <polygon class="fil3" points="9372.55,5022.17 9399.79,5022.17 9399.79,4994.92 9372.55,4994.92 "/>
  <polygon class="fil3" points="9372.55,5022.17 9399.79,5022.17 9399.79,4994.92 9372.55,4994.92 "/>
  <polygon class="fil3" points="9372.55,5022.17 9399.79,5022.17 9399.79,4994.92 9372.55,4994.92 "/>
  <polygon class="fil3" points="9372.55,5022.17 9399.79,5022.17 9399.79,4994.92 9372.55,4994.92 "/>
  <path class="fil4" d="M4846.56 5013.05l700.59 18.06 1952.71 4725.53 1891.66 -4707.25 10.68 -14.68 -3.26 -4.49 0.04 -0.07 723.33 -17.1c481.68,-11.47 875.89,408.07 875.89,906.73l0 4775.21 -7027.66 0 0 -4775.25c0,-498.8 394.49,-918.93 876.08,-906.69l-0.02 0 -0.02 0 -0.01 0 -0.01 0z"/>
  <ellipse class="fil2 str0" cx="7469.59" cy="8326.58" rx="60.52" ry="68.11"/>
  <rect class="fil5" x="9406.73" y="8303.83" width="1150.18" height="151.37"/>
  <polygon class="fil0" points="10287.64,7932.51 10012.11,7637.97 9406.76,8303.85 10526.66,8303.85 "/>
  <polygon class="fil6" points="7454.47,5261.92 6266.68,4748.83 6379.95,6003.5 7388.96,5459.96 "/>
  <polygon class="fil6" points="7353.47,5232.28 8560.35,4810.02 8498.71,6033.76 7291.11,5405.85 "/>
  <rect class="fil7" x="7262.8" y="5090.25" width="340.62" height="472.32"/>
  <polygon class="fil0 str1" points="4518.46,5867.3 5577.88,4444.67 6831.37,8224.02 6463.17,7898.67 "/>
  <polygon class="fil0 str1" points="5244.89,7214.51 6122.71,6291.03 7296.12,9488.44 6897.89,9072.08 "/>
  <g>
  </g>
  <g style="clip-path:url(#id17)">
   <g>
   </g>
  </g>
  <polygon class="fil3" points="8933.64,5535.62 9063.04,5535.62 9063.04,5505.68 8933.64,5505.68 "/>
  <polygon class="fil3" points="8933.64,5535.62 9063.04,5535.62 9063.04,5505.68 8933.64,5505.68 "/>
  <polygon class="fil3" points="8933.64,5535.62 9063.04,5535.62 9063.04,5505.68 8933.64,5505.68 "/>
  <polygon class="fil3" points="8933.64,5535.62 9063.04,5535.62 9063.04,5505.68 8933.64,5505.68 "/>
  <g>
  </g>
  <g style="clip-path:url(#id18)">
   <g>
   </g>
  </g>
  <polygon class="fil3" points="8957.99,5512.86 9063.04,5512.86 9063.04,5460.14 8957.99,5460.14 "/>
  <polygon class="fil3" points="8957.99,5512.86 9063.04,5512.86 9063.04,5460.14 8957.99,5460.14 "/>
  <polygon class="fil3" points="8957.99,5512.86 9063.04,5512.86 9063.04,5460.14 8957.99,5460.14 "/>
  <polygon class="fil3" points="8957.99,5512.86 9063.04,5512.86 9063.04,5460.14 8957.99,5460.14 "/>
  <g>
  </g>
  <g style="clip-path:url(#id19)">
   <g>
   </g>
  </g>
  <polygon class="fil3" points="8982.34,5467.4 9063.04,5467.4 9063.04,5437.44 8982.34,5437.44 "/>
  <polygon class="fil3" points="8982.34,5467.4 9063.04,5467.4 9063.04,5437.44 8982.34,5437.44 "/>
  <polygon class="fil3" points="8982.34,5467.4 9063.04,5467.4 9063.04,5437.44 8982.34,5437.44 "/>
  <polygon class="fil3" points="8982.34,5467.4 9063.04,5467.4 9063.04,5437.44 8982.34,5437.44 "/>
  <ellipse class="fil2 str0" cx="7407.86" cy="6630.72" rx="65.04" ry="68.11"/>
  <path class="fil7" d="M7296.94 5090.24l300.2 0c18.17,0 32.88,10.88 32.88,24.29l0 247.34c0,13.41 -14.71,24.28 -32.88,24.28l-300.2 0c-18.15,0 -32.87,-10.87 -32.87,-24.28l0 -247.34c0,-13.41 14.72,-24.29 32.87,-24.29z"/>
  <polygon class="fil0 str1" points="10533.18,5792.68 9391.63,4505.24 8127.62,8267.89 8497.43,7913.52 "/>
  <polygon class="fil0 str1" points="9798.09,7346.68 8806.84,6312.01 7673.57,9514.38 7995.7,9231.85 "/>
  <polygon class="fil4" points="4187,5320.5 4563.87,7728.77 2694.34,9034.93 1752.98,8096.13 "/>
  <ellipse class="fil2 str0" cx="7407.86" cy="7486.39" rx="65.04" ry="68.11"/>
  <rect class="fil4" x="3970.49" y="10597.07" width="7023.92" height="1182.64"/>
  <path class="fil8" d="M2861.44 10272.23c8.25,260.18 -153.31,123.97 -259.28,164.87l-1.65 -135.7c4.6,4.62 127.04,194.28 190.55,88.15 18,-98.82 -54.17,-84.5 -130.06,-134.47 -67.19,-44.21 -93.77,-132.48 -1.72,-185.66 105.04,-56.6 101.17,20.92 180.95,-16.57l1.21 118.55c-145.64,-191.03 -171.13,-48.97 -170.5,-43.82 6.65,54.71 74.56,50.52 190.5,144.65zm-741.51 -776.41c35.46,-280.08 190.46,-721.46 302.19,-949.52 90.21,116.81 125.23,186.18 342.58,188.86 -47.67,121.31 -214.37,304.15 -298.9,406.98 -96.79,117.76 -225.79,284.08 -345.87,353.68zm2176.57 -1080.7c-32.02,855.08 -687.72,1539.9 -1556.03,1550.5l183.39 -1164.48c88.35,41.96 282.43,193.16 374.6,264.07 103.85,79.91 251.84,196.77 364.4,257.76 -56.96,-126.46 -171.6,-248.64 -254.62,-367.56 -66.51,-95.26 -207,-261.12 -252.44,-364.78l1140.7 -175.51zm-2498.9 906.96c136.52,-71.9 239.09,-184.24 368.57,-252.18 -33.44,189.69 -98.45,314.72 -108.46,537.97 248.47,-121.24 412.86,-434.19 525.19,-507.11l132.22 864.73c-856.14,16.79 -1605.2,-733.5 -1568.85,-1609.79 195.25,28.71 403.7,77.59 596.48,116.16l554.31 119.79c2.11,-4.07 8.95,4.4 13.04,7.21 -115.97,175.26 -450.64,591 -512.5,723.22zm888.86 -1198.1c341.11,-80.65 469.12,470.64 108.09,549.53 -347.9,76.02 -511.9,-454.02 -108.09,-549.53zm-1809.75 247.54c-1.89,-76.43 -17.85,-101.85 -49.87,-146.01l138.51 3.39c-23,54.87 12.04,135.68 49.02,201.05 22.76,-44.87 44.21,-82.52 53.5,-132.08 13.37,-71.61 -32,-62.25 61.93,-72.28 -43.82,86.84 -94.15,266.78 -145.27,343.23 -55.87,-78.58 -31.9,-132.08 -107.82,-197.3zm0 0l-75.99 197.3c-51.9,-70.91 -111.83,-256.97 -157.08,-344.15l130.69 6.12c-20.36,48.46 -0.82,91.66 38.02,167.02 18.53,35.91 16.06,26.04 23.78,38.81l40.58 -65.1zm3524.29 219.86c58.82,-46.29 73.77,-325.89 -2.39,-378.64l308.07 0 -9.22 110.82c-46.17,-82.64 -46.63,-81.19 -156.4,-86.08l9.12 148.48c70.76,-30.79 37.19,-6.58 71.44,-85.69l-1.79 191.37c-42.79,-69.75 2.03,-52.99 -82.64,-79.11l3.05 147.19c126.07,1.94 130.62,-14.85 185.83,-86.09 -3.02,159.59 18.79,108.61 -325.07,117.75zm-1682.2 -545.39c57.08,-97.47 164.65,-229.47 236.53,-317.67 138.75,-170.31 143.24,-215.17 303.2,-240.62 46.95,189.71 6.29,214.72 -57.63,403.97 -32.48,96.15 -93.93,307.99 -152.9,371.79 -67.69,-77.73 -64.69,-141.8 -233.04,-189.47 -18.04,-5.12 -32.82,-7.66 -49.9,-12.45 -23.84,-6.7 -21.62,13.01 -31.24,-10.06 -2.54,-6.12 -10.33,-2.95 -15.02,-5.49zm459.54 -580.8c46.02,-56.88 119.93,-138.56 193.89,-176.67l-65.74 244.8 -30.01 -84.75 -98.14 16.62zm-262.41 225.76c-35.67,33.74 -6.7,8.2 -36.2,33.74l-138.87 -909.28c335.56,12.31 643.53,103.76 896.26,293.37l207.94 181c221.37,211.95 481.43,650.3 446.14,1099.8l-1151.85 -189.19c105.83,-191.55 401.61,-525.35 528.61,-748.77 -128.28,50.72 -213.89,169.17 -342.14,225.26 40.12,-160.83 85.42,-305.75 91.32,-479.83 -180.69,91.52 -334.19,317.31 -468.73,461.69 -1.89,2.01 -31,30.81 -32.48,32.21zm-1767.33 636.84c-10.94,-214.42 64.62,-446.55 149.72,-618.14 267.54,-539.3 760.04,-878.25 1422.7,-893.92l-208.66 1145.08c-107.72,-64.33 -252.52,-178.56 -354.58,-253.43 -89.46,-65.67 -281.29,-222.19 -364.97,-255.76 98.43,173.09 363.71,496.86 494,697.59l-1138.21 178.58zm1393.67 -1577.97c81.51,-67.06 69.7,-300.54 -0.41,-377.13 240.16,-5.42 135.61,86.53 307.54,205.18 0,-102.04 22.37,-145.76 -45.13,-206.51l115.12 1.33c-74.3,70.08 -43.78,267.21 -40.95,377.55 -71.61,-26.85 -191.52,-218.64 -261.58,-284.44 0,54.27 -3.17,116.23 -1.48,169.22 3.32,103.92 -10.76,73.76 48.42,116.28l-121.53 -1.48zm-1909.32 1808.09c77.66,1096.59 1042.22,2032.13 2248.95,1943.06 1100.97,-81.26 2034.8,-1036.49 1945.36,-2247.91 -81.26,-1100.78 -1035.52,-2034.19 -2248.25,-1945.63 -1102.56,80.52 -2032.04,1036.64 -1946.06,2250.48z"/>
  <path class="fil9" d="M556.89 8557.91c-79.62,-1257.9 868.53,-2246.82 2024.8,-2327.58 1251.28,-87.4 2241,876.85 2323.06,2027.03 89.39,1252.93 -883.86,2239.07 -2027.15,2321.08 -1247,89.48 -2248.66,-881.81 -2320.71,-2020.53zm-129.85 -310.27l0 260.98c56.04,184.56 7.28,432.26 206.88,845.77 126.65,262.38 272.54,479.8 433.85,651.71 589.1,627.72 1280.57,626.99 1454.24,701.82l347.63 0c215.83,-77.68 806.61,-14.92 1473.13,-650.74 159.64,-152.27 318.85,-378.42 443.67,-621.67 222.5,-433.64 179.18,-663.37 247.77,-822.56l0 -347.63c-76.01,-211.13 -24.57,-835.59 -660.68,-1483.5 -629.73,-641.41 -1287.31,-606.07 -1486.21,-681.07l-365.31 0c-156.96,68.37 -381.88,25.32 -809.4,240.59 -480.55,241.95 -810.82,575.53 -1058.5,1072.34 -209.39,419.97 -175.65,697.61 -227.07,833.96z"/>
  <path class="fil0" d="M3155.8 8590.63c45.44,103.66 185.93,269.52 252.44,364.78 83.02,118.92 197.66,241.1 254.62,367.56 -112.56,-60.99 -260.55,-177.85 -364.4,-257.76 -92.17,-70.91 -286.25,-222.11 -374.6,-264.07l-183.39 1164.48c868.31,-10.6 1524.01,-695.42 1556.03,-1550.5l-1140.7 175.51z"/>
  <path class="fil0" d="M1148.6 8327.79l1138.21 -178.58c-130.29,-200.73 -395.57,-524.5 -494,-697.59 83.68,33.57 275.51,190.09 364.97,255.76 102.06,74.87 246.86,189.1 354.58,253.43l208.66 -1145.08c-662.66,15.67 -1155.16,354.62 -1422.7,893.92 -85.1,171.59 -160.66,403.72 -149.72,618.14z"/>
  <path class="fil0" d="M2715.12 9965.49l-132.22 -864.73c-112.33,72.92 -276.72,385.87 -525.19,507.11 10.01,-223.25 75.02,-348.28 108.46,-537.97 -129.48,67.94 -232.05,180.28 -368.57,252.18 61.86,-132.22 396.53,-547.96 512.5,-723.22 -4.09,-2.81 -10.93,-11.28 -13.04,-7.21l-554.31 -119.79c-192.78,-38.57 -401.23,-87.45 -596.48,-116.16 -36.35,876.29 712.71,1626.58 1568.85,1609.79z"/>
  <path class="fil0" d="M2879.73 7724.69c29.5,-25.54 0.53,0 36.2,-33.74 1.48,-1.4 30.59,-30.2 32.48,-32.21 134.54,-144.38 288.04,-370.17 468.73,-461.69 -5.9,174.08 -51.2,319 -91.32,479.83 128.25,-56.09 213.86,-174.54 342.14,-225.26 -127,223.42 -422.78,557.22 -528.61,748.77l1151.85 189.19c35.29,-449.5 -224.77,-887.85 -446.14,-1099.8l-207.94 -181c-252.73,-189.61 -560.7,-281.06 -896.26,-293.37l138.87 909.28z"/>
  <path class="fil0" d="M632.95 8557.91c-85.98,-1213.84 843.5,-2169.96 1946.06,-2250.48 1212.73,-88.56 2166.99,844.85 2248.25,1945.63 89.44,1211.42 -844.39,2166.65 -1945.36,2247.91 -1206.73,89.07 -2171.29,-846.47 -2248.95,-1943.06zm-76.06 0c72.05,1138.72 1073.71,2110.01 2320.71,2020.53 1143.29,-82.01 2116.54,-1068.15 2027.15,-2321.08 -82.06,-1150.18 -1071.78,-2114.43 -2323.05,-2027.03 -1156.28,80.76 -2104.43,1069.68 -2024.81,2327.58z"/>
  <path class="fil10" d="M2119.93 9495.82c120.08,-69.6 249.08,-235.92 345.87,-353.68 84.53,-102.83 251.23,-285.67 298.9,-406.98 -217.35,-2.68 -252.37,-72.05 -342.58,-188.86 -111.73,228.06 -266.73,669.44 -302.19,949.52z"/>
  <path class="fil11" d="M2718.8 8045.99c4.69,2.54 12.48,-0.63 15.02,5.49 9.62,23.07 7.4,3.36 31.24,10.06 17.08,4.79 31.86,7.33 49.9,12.45 168.35,47.67 165.35,111.74 233.04,189.47 58.97,-63.8 120.42,-275.64 152.9,-371.79 63.92,-189.25 104.58,-214.26 57.63,-403.97 -159.96,25.45 -164.45,70.31 -303.2,240.62 -71.88,88.2 -179.45,220.2 -236.53,317.67z"/>
  <path class="fil0" d="M2843.25 8328.27c31.74,250.22 -185.64,226.06 -222.59,121.46 -58.72,-166.22 104.55,-209 222.59,-121.46zm-156.79 -204.29c-403.81,95.51 -239.81,625.55 108.09,549.53 361.03,-78.89 233.02,-630.18 -108.09,-549.53z"/>
  <path class="fil12" d="M4401 8591.38c343.86,-9.14 322.05,41.84 325.07,-117.75 -55.21,71.24 -59.76,88.03 -185.83,86.09l-3.05 -147.19c84.67,26.12 39.85,9.36 82.64,79.11l1.79 -191.37c-34.25,79.11 -0.68,54.9 -71.44,85.69l-9.12 -148.48c109.77,4.89 110.23,3.44 156.4,86.08l9.22 -110.82 -308.07 0c76.16,52.75 61.21,332.35 2.39,378.64z"/>
  <path class="fil12" d="M2542.27 6749.82l121.53 1.48c-59.18,-42.52 -45.1,-12.36 -48.42,-116.28 -1.69,-52.99 1.48,-114.95 1.48,-169.22 70.06,65.8 189.97,257.59 261.58,284.44 -2.83,-110.34 -33.35,-307.47 40.95,-377.55l-115.12 -1.33c67.5,60.75 45.13,104.47 45.13,206.51 -171.93,-118.65 -67.38,-210.6 -307.54,-205.18 70.11,76.59 81.92,310.07 0.41,377.13z"/>
  <path class="fil12" d="M2861.44 10272.23c-115.94,-94.13 -183.85,-89.94 -190.5,-144.65 -0.63,-5.15 24.86,-147.21 170.5,43.82l-1.21 -118.55c-79.78,37.49 -75.91,-40.03 -180.95,16.57 -92.05,53.18 -65.47,141.45 1.72,185.66 75.89,49.97 148.06,35.65 130.06,134.47 -63.51,106.13 -185.95,-83.53 -190.55,-88.15l1.65 135.7c105.97,-40.9 267.53,95.31 259.28,-164.87z"/>
  <path class="fil12" d="M2843.25 8328.27c-118.04,-87.54 -281.31,-44.76 -222.59,121.46 36.95,104.6 254.33,128.76 222.59,-121.46z"/>
  <path class="fil12" d="M876.71 8371.52c75.92,65.22 51.95,118.72 107.82,197.3 51.12,-76.45 101.45,-256.39 145.27,-343.23 -93.93,10.03 -48.56,0.67 -61.93,72.28 -9.29,49.56 -30.74,87.21 -53.5,132.08 -36.98,-65.37 -72.02,-146.18 -49.02,-201.05l-138.51 -3.39c32.02,44.16 47.98,69.58 49.87,146.01z"/>
  <path class="fil12" d="M876.71 8371.52l-40.58 65.1c-7.72,-12.77 -5.25,-2.9 -23.78,-38.81 -38.84,-75.36 -58.38,-118.56 -38.02,-167.02l-130.69 -6.12c45.25,87.18 105.18,273.24 157.08,344.15l75.99 -197.3z"/>
  <path class="fil11" d="M3178.34 7465.19l98.14 -16.62 30.01 84.75 65.74 -244.8c-73.96,38.11 -147.87,119.79 -193.89,176.67z"/>
  <path class="fil1" d="M1093.91 9630.83l163.99 0c146.94,-0.01 266.1,119.15 266.1,266.09l-0.01 466.66c0.01,146.92 -119.15,266.08 -266.08,266.08l-164 0.01c-146.91,-0.01 -266.07,-119.17 -266.07,-266.1l-0.01 -466.64c0.01,-146.95 119.17,-266.11 266.09,-266.11l-0.01 0.01z"/>
 </g>
</svg>
