<?xml version="1.0" encoding="UTF-8"?>
<!DOCTYPE svg PUBLIC "-//W3C//DTD SVG 1.1//EN" "http://www.w3.org/Graphics/SVG/1.1/DTD/svg11.dtd">
<!-- Creator: CorelDRAW 2017 -->
<svg xmlns="http://www.w3.org/2000/svg" xml:space="preserve" width="118.533mm" height="118.533mm" version="1.1" style="shape-rendering:geometricPrecision; text-rendering:geometricPrecision; image-rendering:optimizeQuality; fill-rule:evenodd; clip-rule:evenodd"
viewBox="0 0 11853.32 11853.32"
 xmlns:xlink="http://www.w3.org/1999/xlink">
 <defs>
  <style type="text/css">
   <![CDATA[
    .fil8 {fill:#7C898A}
    .fil11 {fill:#7E8B8C}
    .fil10 {fill:#7F8C8D}
    .fil9 {fill:#8FA1A1}
    .fil6 {fill:#94A4A5}
    .fil5 {fill:#95A5A6}
    .fil7 {fill:#BCC3CB}
    .fil4 {fill:#BDC3C7}
    .fil12 {fill:#C7C3A4}
    .fil3 {fill:#E57A23}
    .fil0 {fill:#F1C40F}
    .fil2 {fill:#F1C60E}
    .fil1 {fill:#F39C12}
   ]]>
  </style>
 </defs>
 <g id="Слой_x0020_1">
  <metadata id="CorelCorpID_0Corel-Layer"/>
  <g id="_695631968">
   <path class="fil0" d="M5104.17 3687.13c289.83,159.33 347.01,-73.31 741.02,-286.6l409.45 456.45c317.83,-239.76 250.63,-264.54 564.21,-475.12l592.21 573.37 -1417.9 4308.67 979.77 23.93c126.75,-531.97 354.3,-690.12 657.53,-1101.77 788.53,-1070.89 1714.68,-2337.09 1466.77,-3783.5 -301.03,-1757.77 -1768.64,-3338.74 -3898.37,-3338.74l-94.69 3623.31z"/>
   <path class="fil1" d="M3525.07 8295.63l941.93 -19c-159.5,-624.79 -1461.84,-3969.64 -1328.98,-4442.55 213.46,-759.69 653.97,-189.71 961.61,45.81l1004.54 -192.76 94.69 -3623.31c-2000.6,0 -3631.79,1488.15 -3828.8,3383.2l0 775.98c63.63,620.54 281.68,1267.04 686.72,1906.25 259.79,409.79 451.36,601.88 722.86,1000.98 280.66,412.51 510.93,747.64 745.43,1165.4z"/>
   <path class="fil1" d="M4691.67 8278.5l491.75 -6.79 73.13 -3884.46 -582.19 -446.1 -574.73 446.27c-390.28,-415.56 -134.22,-392.31 -673.65,-404.19 -69.07,964.16 1018.11,3157.01 1265.69,4295.27z"/>
   <path class="fil2" d="M5256.55 4387.25l-73.13 3884.46 573.2 -8.66c122.68,-1012.68 1313.71,-3404.75 1257.2,-4193.45 -291.52,-98.25 -490.73,326.99 -521.28,375.69 -622.23,-397.41 -202.26,-341.07 -845.03,-509.4l-390.96 451.36z"/>
   <path class="fil3" d="M4467 8276.63l224.67 1.87c-247.58,-1138.26 -1334.76,-3331.11 -1265.69,-4295.27 539.43,11.88 283.37,-11.37 673.65,404.19l574.73 -446.27 582.19 446.1 390.96 -451.36c642.77,168.33 222.8,111.99 845.03,509.4 30.55,-48.7 229.76,-473.94 521.28,-375.69 56.51,788.7 -1134.52,3180.77 -1257.2,4193.45l236.54 0.85 1417.9 -4308.67 -592.21 -573.37c-313.58,210.58 -246.38,235.36 -564.21,475.12l-409.45 -456.45c-394.01,213.29 -451.19,445.93 -741.02,286.6l-1004.54 192.76c-307.64,-235.52 -748.15,-805.5 -961.61,-45.81 -132.86,472.91 1169.48,3817.76 1328.98,4442.55z"/>
   <path class="fil4" d="M5155.08 11077.47l955.84 -26.13c553.69,112.84 840.63,238.74 862.01,-597.64l-1731.82 -48.36 -86.03 672.13z"/>
   <polygon class="fil4" points="5255.02,9966.36 6972.93,9916.31 6972.93,9342.26 5131.66,9285.58 "/>
   <path class="fil5" d="M4415.42 11126l739.66 -48.53 86.03 -672.13 -1716.04 51.93c20.2,788.19 120.48,668.73 890.35,668.73z"/>
   <polygon class="fil6" points="3525.07,9918 5255.02,9966.36 5131.66,9285.58 3525.07,9335.81 "/>
   <polygon class="fil5" points="3525.07,8827.43 5192.24,8886.82 5165.43,8307.51 5183.42,8271.71 4691.67,8278.5 4467,8276.63 3525.07,8295.63 "/>
   <polygon class="fil7" points="5192.24,8886.82 6972.93,8823.19 6972.93,8385.23 5165.43,8307.51 "/>
   <polygon class="fil8" points="3525.07,10457.27 5241.11,10405.34 5255.02,9966.36 3525.07,9918 "/>
   <polygon class="fil9" points="5241.11,10405.34 6972.93,10453.7 6972.93,9916.31 5255.02,9966.36 "/>
   <polygon class="fil5" points="5131.66,9285.58 6972.93,9342.26 6972.93,8823.19 5192.24,8886.82 "/>
   <polygon class="fil10" points="3525.07,9335.81 5131.66,9285.58 5192.24,8886.82 3525.07,8827.43 "/>
   <path class="fil11" d="M6110.92 11051.34l-955.84 26.13 -739.66 48.53c220.93,224.32 -143.39,-76.53 205.32,199.04 155.6,123.02 218.55,150 340.9,231.96l574.55 0 574.73 -505.66z"/>
   <polygon class="fil12" points="6972.93,8385.23 6972.93,8287.83 5993.16,8263.9 5756.62,8263.05 5183.42,8271.71 5165.43,8307.51 "/>
  </g>
 </g>
</svg>
