<?xml version="1.0" encoding="UTF-8"?>
<!DOCTYPE svg PUBLIC "-//W3C//DTD SVG 1.1//EN" "http://www.w3.org/Graphics/SVG/1.1/DTD/svg11.dtd">
<!-- Creator: CorelDRAW X7 -->
<svg xmlns="http://www.w3.org/2000/svg" xml:space="preserve" width="168.485mm" height="35.3894mm" version="1.1" style="shape-rendering:geometricPrecision; text-rendering:geometricPrecision; image-rendering:optimizeQuality; fill-rule:evenodd; clip-rule:evenodd"
viewBox="0 0 16848 3539"
 xmlns:xlink="http://www.w3.org/1999/xlink">
 <defs>
  <style type="text/css">
   <![CDATA[
    .fil1 {fill:#BF0404}
    .fil0 {fill:black;fill-rule:nonzero}
    .fil2 {fill:#333333;fill-rule:nonzero}
   ]]>
  </style>
 </defs>
 <g id="Слой_x0020_1">
  <metadata id="CorelCorpID_0Corel-Layer"/>
  <path class="fil0" d="M2958 2959l-36 28c-20,-26 -44,-45 -71,-59 -28,-13 -59,-20 -92,-20 -36,0 -70,9 -101,27 -31,17 -55,40 -72,70 -17,29 -26,63 -26,99 0,56 19,102 58,140 38,37 86,55 144,55 64,0 117,-25 160,-75l36 28c-23,29 -51,51 -85,67 -34,16 -72,24 -114,24 -80,0 -143,-27 -189,-80 -38,-45 -58,-99 -58,-162 0,-67 24,-123 70,-169 47,-45 106,-68 176,-68 43,0 81,8 116,25 34,17 62,40 84,70z"/>
  <path id="1" class="fil0" d="M3267 2864c69,0 127,23 173,69 46,46 70,103 70,170 0,67 -23,123 -70,170 -46,46 -103,70 -170,70 -67,0 -124,-24 -171,-70 -46,-46 -69,-102 -69,-168 0,-44 10,-84 31,-122 22,-37 50,-66 87,-87 37,-22 76,-32 119,-32zm2 44c-34,0 -66,9 -96,27 -30,17 -54,41 -71,71 -17,29 -25,62 -25,99 0,54 18,100 56,137 38,38 83,56 136,56 35,0 68,-8 98,-26 30,-17 54,-40 70,-70 17,-30 26,-63 26,-99 0,-36 -9,-69 -26,-98 -16,-29 -40,-53 -71,-70 -30,-18 -63,-27 -97,-27z"/>
  <path id="2" class="fil0" d="M3601 3331l0 -456 229 0 0 45 -183 0 0 146 21 0c57,0 98,5 124,15 25,10 46,26 60,47 15,22 22,46 22,72 0,35 -13,66 -39,92 -26,26 -62,39 -109,39l-125 0zm46 -220l0 176 56 0c33,0 57,-4 72,-10 16,-7 28,-17 37,-30 10,-14 14,-29 14,-46 0,-21 -6,-39 -19,-53 -13,-15 -29,-25 -49,-30 -19,-4 -48,-7 -86,-7l-25 0z"/>
  <path id="3" class="fil0" d="M3965 2875l46 0 0 196 33 0c59,0 102,3 128,9 26,5 47,19 63,39 16,21 24,48 24,81 0,32 -8,59 -23,80 -16,21 -35,35 -59,41 -24,7 -65,10 -121,10l-91 0 0 -456zm46 412l48 0c52,0 85,-3 101,-8 15,-4 28,-13 37,-27 9,-13 14,-30 14,-50 0,-23 -6,-42 -18,-56 -11,-14 -26,-23 -44,-26 -18,-3 -51,-5 -100,-5l-38 0 0 172zm301 -412l46 0 0 456 -46 0 0 -456z"/>
  <polygon id="4" class="fil0" points="4424,2920 4424,2875 4673,2875 4673,2920 4571,2920 4571,3331 4525,3331 4525,2920 "/>
  <polygon id="5" class="fil0" points="5098,3331 5051,3331 5051,2981 4750,3331 4740,3331 4740,2875 4785,2875 4785,3231 5088,2875 5098,2875 "/>
  <path id="6" class="fil0" d="M5468 2875l-91 0c-51,0 -85,2 -103,6 -28,7 -50,20 -66,40 -18,21 -26,46 -26,75 0,25 6,47 18,66 11,19 28,33 50,42 21,10 52,15 90,15l-164 212 56 0 164 -212 26 0 0 212 46 0 0 -456zm-46 45l0 155 -79 0c-30,0 -53,-3 -67,-8 -15,-6 -26,-15 -35,-28 -8,-13 -12,-27 -12,-43 0,-15 4,-29 13,-41 8,-13 19,-22 32,-27 14,-6 36,-8 67,-8l81 0z"/>
  <path id="7" class="fil0" d="M6109 3331l0 -456 228 0 0 45 -182 0 0 146 21 0c56,0 98,5 123,15 26,10 46,26 61,47 14,22 22,46 22,72 0,35 -13,66 -39,92 -26,26 -63,39 -109,39l-125 0zm46 -220l0 176 55 0c33,0 58,-4 73,-10 15,-7 28,-17 37,-30 9,-14 14,-29 14,-46 0,-21 -7,-39 -20,-53 -13,-15 -29,-25 -48,-30 -20,-4 -48,-7 -86,-7l-25 0z"/>
  <path id="8" class="fil0" d="M6659 2875l213 456 -49 0 -71 -150 -198 0 -71 150 -50 0 215 -456 11 0zm-5 96l-79 166 157 0 -78 -166z"/>
  <polygon id="9" class="fil0" points="6942,2875 6987,2875 6987,3066 7220,3066 7220,2875 7265,2875 7265,3331 7220,3331 7220,3111 6987,3111 6987,3331 6942,3331 "/>
  <polygon id="10" class="fil0" points="7376,2875 7422,2875 7422,3046 7605,2875 7667,2875 7447,3080 7684,3331 7623,3331 7422,3118 7422,3331 7376,3331 "/>
  <polygon id="11" class="fil0" points="7752,2875 8013,2875 8013,2920 7798,2920 7798,3063 8011,3063 8011,3107 7798,3107 7798,3287 8011,3287 8011,3331 7752,3331 "/>
  <polygon id="12" class="fil0" points="8047,2920 8047,2875 8296,2875 8296,2920 8195,2920 8195,3331 8148,3331 8148,2920 "/>
  <path id="13" class="fil0" d="M8362 2875l46 0 0 196 33 0c59,0 102,3 128,9 26,5 47,19 63,39 16,21 24,48 24,81 0,32 -8,59 -23,80 -16,21 -35,35 -59,41 -24,7 -65,10 -121,10l-91 0 0 -456zm46 412l49 0c51,0 84,-3 100,-8 15,-4 28,-13 37,-27 9,-13 14,-30 14,-50 0,-23 -6,-42 -18,-56 -11,-14 -26,-23 -44,-26 -18,-3 -51,-5 -100,-5l-38 0 0 172zm301 -412l46 0 0 456 -46 0 0 -456z"/>
  <path id="14" class="fil0" d="M9581 2875l213 456 -49 0 -72 -150 -197 0 -71 150 -51 0 216 -456 11 0zm-6 96l-78 166 156 0 -78 -166z"/>
  <path id="15" class="fil0" d="M9864 2875l91 0c52,0 87,2 105,7 26,6 48,20 64,40 17,19 25,45 25,75 0,30 -8,55 -24,75 -16,20 -38,33 -67,40 -20,5 -59,7 -116,7l-32 0 0 212 -46 0 0 -456zm46 45l0 155 77 1c31,0 54,-3 69,-9 14,-6 25,-15 34,-28 8,-12 12,-26 12,-42 0,-15 -4,-29 -12,-42 -9,-13 -20,-22 -33,-27 -14,-6 -36,-8 -67,-8l-80 0z"/>
  <polygon id="16" class="fil0" points="10195,2920 10195,2875 10444,2875 10444,2920 10343,2920 10343,3331 10296,3331 10296,2920 "/>
  <polygon id="17" class="fil0" points="10870,3331 10822,3331 10822,2981 10521,3331 10511,3331 10511,2875 10557,2875 10557,3231 10859,2875 10870,2875 "/>
  <path id="18" class="fil0" d="M11405 2959l-36 28c-20,-26 -44,-45 -72,-59 -27,-13 -58,-20 -91,-20 -37,0 -70,9 -101,27 -31,17 -55,40 -72,70 -17,29 -26,63 -26,99 0,56 19,102 57,140 38,37 86,55 145,55 63,0 117,-25 160,-75l36 28c-23,29 -51,51 -85,67 -34,16 -72,24 -114,24 -80,0 -143,-27 -189,-80 -39,-45 -58,-99 -58,-162 0,-67 23,-123 70,-169 47,-45 106,-68 176,-68 43,0 81,8 115,25 35,17 63,40 85,70z"/>
  <polygon id="19" class="fil0" points="11451,2920 11451,2875 11701,2875 11701,2920 11599,2920 11599,3331 11553,3331 11553,2920 "/>
  <path id="20" class="fil0" d="M11767 2875l45 0 0 196 33 0c60,0 103,3 129,9 26,5 47,19 63,39 16,21 24,48 24,81 0,32 -8,59 -24,80 -15,21 -35,35 -59,41 -24,7 -64,10 -121,10l-90 0 0 -456zm45 412l49 0c51,0 85,-3 100,-8 16,-4 28,-13 38,-27 9,-13 13,-30 13,-50 0,-23 -6,-42 -17,-56 -12,-14 -26,-23 -44,-26 -18,-3 -52,-5 -100,-5l-39 0 0 172zm302 -412l46 0 0 456 -46 0 0 -456z"/>
  <polygon id="21" class="fil0" points="12844,3288 13039,3288 13039,2875 13084,2875 13084,3288 13283,3288 13283,2875 13328,2875 13328,3331 12798,3331 12798,2875 12844,2875 "/>
  <path id="22" class="fil0" d="M13656 2864c69,0 127,23 173,69 47,46 70,103 70,170 0,67 -23,123 -69,170 -47,46 -103,70 -170,70 -68,0 -125,-24 -171,-70 -47,-46 -70,-102 -70,-168 0,-44 11,-84 32,-122 21,-37 50,-66 86,-87 37,-22 77,-32 119,-32zm2 44c-34,0 -66,9 -96,27 -30,17 -54,41 -71,71 -17,29 -25,62 -25,99 0,54 19,100 56,137 38,38 83,56 136,56 36,0 68,-8 98,-26 30,-17 54,-40 71,-70 17,-30 25,-63 25,-99 0,-36 -8,-69 -25,-98 -17,-29 -41,-53 -71,-70 -31,-18 -64,-27 -98,-27z"/>
  <path id="23" class="fil0" d="M13956 2877l51 0 139 309 126 -311 50 0 -173 410c-17,38 -45,58 -86,58 -17,0 -32,-4 -47,-10 -15,-7 -33,-23 -56,-48l33 -27c23,22 38,35 46,38 8,3 16,5 23,5 12,0 23,-3 31,-10 9,-6 19,-22 29,-48l-166 -366z"/>
  <rect class="fil1" x="197" y="3079" width="2215.89" height="59.27"/>
  <polygon class="fil1" points="5809,2906 5765,3035 5619,3035 5737,3115 5692,3244 5809,3164 5927,3244 5882,3115 6000,3035 5854,3035 "/>
  <polygon class="fil1" points="9112,2906 9067,3035 8921,3035 9039,3115 8994,3244 9112,3164 9229,3244 9184,3115 9302,3035 9156,3035 "/>
  <polygon class="fil1" points="12498,2906 12454,3035 12308,3035 12426,3115 12381,3244 12498,3164 12616,3244 12571,3115 12689,3035 12543,3035 "/>
  <rect class="fil1" x="14422" y="3079" width="2215.89" height="59.27"/>
  <path class="fil2" d="M2376 2500l-902 -1965 0 1560c0,144 15,233 47,269 43,48 110,72 202,72l83 0 0 64 -815 0 0 -64 83 0c99,0 169,-30 210,-89 26,-36 39,-120 39,-252l0 -1526c0,-101 -12,-176 -35,-224 -8,-17 -19,-33 -33,-47 -14,-15 -32,-27 -56,-37 -23,-11 -52,-19 -85,-24 -34,-6 -75,-9 -123,-9l0 -64 663 0 845 1828 834 -1828 664 0 0 64 -82 0c-100,0 -171,30 -212,89 -25,36 -38,119 -38,252l0 1526c0,144 16,233 48,269 43,48 110,72 202,72l82 0 0 64 -995 0 0 -64 83 0c98,0 169,-30 210,-89 25,-36 38,-120 38,-252l0 -1560 -901 1965 -56 0z"/>
  <path id="1" class="fil2" d="M5754 164l815 0 0 64 -45 0c-13,0 -32,3 -56,10 -23,7 -48,17 -74,29 -27,13 -54,29 -81,48 -27,20 -53,42 -76,66 -24,25 -50,58 -78,98 -28,40 -60,88 -96,143l-563 887 0 586c0,144 16,233 48,269 43,48 112,72 208,72l76 0 0 64 -995 0 0 -64 83 0c98,0 169,-30 210,-89 25,-36 38,-120 38,-252l0 -553 -640 -979c-38,-58 -69,-105 -95,-140 -26,-35 -46,-60 -60,-75 -7,-7 -18,-17 -34,-30 -16,-13 -36,-27 -60,-40 -24,-14 -51,-26 -80,-36 -30,-10 -60,-14 -92,-14l0 -64 998 0 0 64 -52 0c-25,0 -50,3 -76,9 -26,5 -49,14 -70,27 -20,12 -37,28 -50,47 -14,19 -20,42 -20,68 0,42 35,116 105,224l487 753 458 -720c69,-108 103,-188 103,-241 -2,-24 -7,-47 -15,-67 -8,-21 -21,-39 -38,-54 -17,-15 -41,-26 -71,-34 -30,-8 -67,-12 -112,-12l0 -64z"/>
  <path id="2" class="fil2" d="M9349 164l0 547 -39 0c-9,-73 -25,-135 -46,-186 -21,-50 -49,-92 -83,-123 -35,-31 -77,-54 -127,-68 -49,-15 -107,-22 -173,-22l-329 0 0 1783c0,144 15,233 46,269 42,48 109,72 201,72l81 0 0 64 -992 0 0 -64 83 0c99,0 170,-30 211,-89 25,-36 38,-120 38,-252l0 -1783 -281 0c-70,0 -132,6 -185,16 -53,10 -97,30 -134,58 -37,29 -66,69 -89,122 -23,52 -40,119 -52,203l-67 0 0 -547 1937 0z"/>
  <path id="3" class="fil2" d="M10198 291l0 921 515 0c75,0 135,-7 182,-20 47,-13 83,-34 109,-62 27,-28 45,-63 56,-106 10,-42 17,-93 20,-151l64 0 0 812 -64 0c-8,-57 -16,-104 -24,-140 -8,-36 -16,-62 -24,-78 -10,-20 -23,-38 -40,-53 -16,-16 -36,-29 -62,-41 -25,-11 -55,-20 -91,-25 -36,-6 -78,-9 -126,-9l-515 0 0 771c0,103 5,166 14,190 5,10 10,20 18,30 6,8 17,16 30,23 12,6 30,11 51,14 21,4 48,6 80,6l397 0c68,0 124,-2 169,-6 46,-4 86,-11 119,-21 34,-10 64,-24 90,-42 26,-17 53,-40 82,-68 35,-34 72,-79 109,-132 36,-54 73,-118 110,-190l68 0 -201 586 -1802 0 0 -64 83 0c21,0 44,-2 69,-7 24,-5 46,-12 68,-22 21,-10 41,-23 58,-39 17,-15 29,-34 36,-54 14,-36 21,-111 21,-226l0 -1518c0,-147 -15,-238 -45,-274 -42,-45 -110,-68 -207,-68l-83 0 0 -64 1802 0 0 512 -42 0c-12,-63 -25,-114 -38,-154 -13,-40 -27,-73 -43,-100 -16,-26 -34,-47 -55,-63 -21,-15 -46,-30 -74,-42 -47,-17 -128,-26 -243,-26l-641 0z"/>
  <path id="4" class="fil2" d="M11570 164l632 0 1428 1753 0 -1348c0,-144 -16,-233 -48,-269 -44,-48 -111,-72 -202,-72l-81 0 0 -64 815 0 0 64 -83 0c-99,0 -170,30 -211,89 -25,36 -38,120 -38,252l0 1969 -63 0 -1539 -1880 0 1437c0,144 16,233 47,269 43,48 110,72 202,72l83 0 0 64 -815 0 0 -64 81 0c100,0 171,-30 212,-89 26,-36 39,-120 39,-252l0 -1624c-34,-40 -63,-73 -86,-97 -23,-24 -45,-44 -65,-59 -21,-16 -43,-29 -67,-39 -25,-9 -55,-20 -90,-33 -33,-10 -83,-15 -151,-15l0 -64z"/>
  <path id="5" class="fil2" d="M14224 2500l0 -64 87 0c98,0 168,-32 210,-95 25,-37 38,-121 38,-255l0 -1508c0,-147 -16,-239 -48,-274 -45,-51 -112,-76 -200,-76l-87 0 0 -64 950 0c350,0 615,40 796,119 183,79 329,211 440,396 111,184 167,397 167,641 0,172 -28,331 -84,475 -56,145 -138,269 -248,373 -109,104 -246,185 -410,244 -164,58 -353,88 -568,88l-1043 0zm666 -169c144,33 267,49 368,49 132,0 254,-25 368,-74 113,-49 211,-118 293,-208 83,-91 148,-200 195,-328 47,-129 71,-273 71,-433 0,-161 -24,-306 -70,-434 -46,-129 -111,-238 -195,-328 -83,-90 -182,-160 -298,-208 -115,-48 -241,-72 -378,-72 -52,0 -107,4 -166,13 -58,8 -121,21 -188,37l0 1986z"/>
 </g>
</svg>
