<?xml version="1.0" encoding="UTF-8"?>
<!DOCTYPE svg PUBLIC "-//W3C//DTD SVG 1.1//EN" "http://www.w3.org/Graphics/SVG/1.1/DTD/svg11.dtd">
<!-- Creator: CorelDRAW X7 -->
<svg xmlns="http://www.w3.org/2000/svg" xml:space="preserve" width="76.1998mm" height="18.964mm" version="1.1" style="shape-rendering:geometricPrecision; text-rendering:geometricPrecision; image-rendering:optimizeQuality; fill-rule:evenodd; clip-rule:evenodd"
viewBox="0 0 7620 1896"
 xmlns:xlink="http://www.w3.org/1999/xlink">
 <defs>
  <style type="text/css">
   <![CDATA[
    .str0 {stroke:#4D4D4D;stroke-width:33.86}
    .str8 {stroke:black;stroke-width:42.33}
    .str4 {stroke:#BD4D02;stroke-width:16.93}
    .str3 {stroke:#C75204;stroke-width:16.93}
    .str1 {stroke:#E35D04;stroke-width:16.93}
    .str5 {stroke:black;stroke-width:20}
    .str2 {stroke:#333333;stroke-width:20}
    .str6 {stroke:white;stroke-width:20}
    .str7 {stroke:#4D4D4D;stroke-width:25.39}
    .fil14 {fill:none}
    .fil6 {fill:#C5C6C6}
    .fil7 {fill:#5B5B5B}
    .fil22 {fill:black}
    .fil0 {fill:black}
    .fil5 {fill:#00CCFF}
    .fil8 {fill:#1A1A1A}
    .fil1 {fill:#1A1A1A}
    .fil2 {fill:#333333}
    .fil3 {fill:#4D4D4D}
    .fil9 {fill:#666666}
    .fil18 {fill:#6B231C}
    .fil12 {fill:#990000}
    .fil29 {fill:#9D9E9E}
    .fil19 {fill:#A30026}
    .fil28 {fill:#ABACAC}
    .fil27 {fill:#BBBBBB}
    .fil15 {fill:#BD0006}
    .fil17 {fill:#C4C6C5}
    .fil16 {fill:#CC0007}
    .fil23 {fill:#CCCCCC}
    .fil21 {fill:#CCCCCC}
    .fil4 {fill:#CCFFCC}
    .fil26 {fill:#D9DADA}
    .fil20 {fill:#E6E6E6}
    .fil25 {fill:#EBECEC}
    .fil11 {fill:red}
    .fil13 {fill:white}
    .fil10 {fill:white}
    .fil34 {fill:#CCAAAA;fill-rule:nonzero}
    .fil35 {fill:#D9A1A1;fill-rule:nonzero}
    .fil33 {fill:#FEFEFE;fill-rule:nonzero}
    .fil24 {fill:yellow;fill-rule:nonzero}
    .fil32 {fill:url(#id20)}
    .fil31 {fill:url(#id21)}
    .fil30 {fill:url(#id22)}
   ]]>
  </style>
   <clipPath id="id0">
    <rect x="3082" y="1155" width="13.39" height="3.15"/>
   </clipPath>
   <clipPath id="id1">
    <rect x="3085" y="1153" width="13.38" height="3.15"/>
   </clipPath>
   <clipPath id="id2">
    <path d="M3087 1153l0 -3 11 0 0 3 -11 0z"/>
   </clipPath>
   <clipPath id="id3">
    <rect x="3087" y="1147" width="13.39" height="3.15"/>
   </clipPath>
   <clipPath id="id4">
    <rect x="3090" y="1145" width="13.38" height="3.15"/>
   </clipPath>
   <clipPath id="id5">
    <rect x="3093" y="1142" width="13.39" height="3.15"/>
   </clipPath>
   <clipPath id="id6">
    <path d="M3095 1143l0 -4 11 0 0 4 -11 0z"/>
   </clipPath>
   <clipPath id="id7">
    <rect x="3095" y="1137" width="13.39" height="3.15"/>
   </clipPath>
   <clipPath id="id8">
    <path d="M2707 1164l0 -3 14 0 0 3 -14 0z"/>
   </clipPath>
   <clipPath id="id9">
    <rect x="3098" y="1134" width="13.38" height="3.15"/>
   </clipPath>
   <clipPath id="id10">
    <path d="M3100 1135l0 -4 11 0 0 4 -11 0z"/>
   </clipPath>
   <clipPath id="id11">
    <rect x="3103" y="1129" width="8.23" height="3.15"/>
   </clipPath>
   <clipPath id="id12">
    <path d="M2707 1157l0 -4 9 0 0 4 -9 0z"/>
   </clipPath>
   <clipPath id="id13">
    <path d="M3103 1130l0 -4 6 0 0 4 -6 0z"/>
   </clipPath>
   <clipPath id="id14">
    <rect x="3103" y="1124" width="3.09" height="3.15"/>
   </clipPath>
   <clipPath id="id15">
    <path d="M3100 1124l0 -6 3 0 0 6 -3 0z"/>
   </clipPath>
   <clipPath id="id16">
    <rect x="3098" y="1116" width="3.09" height="3.15"/>
   </clipPath>
   <clipPath id="id17">
    <path d="M3063 1178l0 -3 -15 0 0 3 15 0z"/>
   </clipPath>
   <clipPath id="id18">
    <path d="M3063 1176l0 -6 -12 0 0 6 12 0z"/>
   </clipPath>
   <clipPath id="id19">
    <path d="M3063 1170l0 -3 -10 0 0 3 10 0z"/>
   </clipPath>
  <linearGradient id="id20" gradientUnits="userSpaceOnUse" x1="8667.58" y1="-1627.47" x2="8557.11" y2="-1670.38">
   <stop offset="0" style="stop-opacity:1; stop-color:#BF0007"/>
   <stop offset="0.360784" style="stop-opacity:1; stop-color:#DD0912"/>
   <stop offset="1" style="stop-opacity:1; stop-color:#FF141E"/>
  </linearGradient>
  <linearGradient id="id21" gradientUnits="userSpaceOnUse" x1="8548.51" y1="-1693.28" x2="8566.63" y2="-1806.78">
   <stop offset="0" style="stop-opacity:1; stop-color:#C44E4C"/>
   <stop offset="1" style="stop-opacity:1; stop-color:#CF0007"/>
  </linearGradient>
  <linearGradient id="id22" gradientUnits="userSpaceOnUse" x1="8541.22" y1="-1576.73" x2="8472.7" y2="-1648.17">
   <stop offset="0" style="stop-opacity:1; stop-color:#BF0007"/>
   <stop offset="1" style="stop-opacity:1; stop-color:#EE0009"/>
  </linearGradient>
 </defs>
 <g id="Слой_x0020_1">
  <metadata id="CorelCorpID_0Corel-Layer"/>
  <polygon class="fil0 str0" points="719,237 11,237 11,1887 719,1887 "/>
  <path class="fil1 str1" d="M358 1204c148,0 268,123 268,274 0,151 -120,274 -268,274 -148,0 -269,-123 -269,-274 0,-151 121,-274 269,-274z"/>
  <polygon class="fil2" points="736,222 977,410 974,1778 736,1902 "/>
  <path class="fil2 str2" d="M354 1365c59,0 107,49 107,110 0,60 -48,109 -107,109 -60,0 -108,-49 -108,-109 0,-61 48,-110 108,-110z"/>
  <path class="fil1 str3" d="M358 584c148,0 268,123 268,274 0,151 -120,273 -268,273 -148,0 -269,-122 -269,-273 0,-151 121,-274 269,-274z"/>
  <path class="fil2 str2" d="M354 745c59,0 107,49 107,109 0,61 -48,110 -107,110 -60,0 -108,-49 -108,-110 0,-60 48,-109 108,-109z"/>
  <polygon class="fil1 str4" points="637,303 82,303 82,522 637,522 "/>
  <path class="fil2 str5" d="M361 361c-35,0 -64,27 -64,59 0,32 29,58 64,58 36,0 65,-26 65,-58 0,-32 -29,-59 -65,-59z"/>
  <polygon class="fil3" points="11,1887 720,1887 720,1820 11,1820 "/>
  <path class="fil4 str6" d="M505 1402c3,0 4,3 4,7 0,5 -1,8 -4,8 -2,0 -3,-3 -3,-8 0,-4 1,-7 3,-7z"/>
  <path class="fil4 str6" d="M505 1511c3,0 4,2 4,4 0,2 -1,4 -4,4 -2,0 -3,-2 -3,-4 0,-2 1,-4 3,-4z"/>
  <path class="fil4 str6" d="M490 784c2,0 4,2 4,4 0,2 -2,4 -4,4 -2,0 -4,-2 -4,-4 0,-2 2,-4 4,-4z"/>
  <path class="fil4 str6" d="M490 901c2,0 4,2 4,4 0,2 -2,4 -4,4 -2,0 -4,-2 -4,-4 0,-2 2,-4 4,-4z"/>
  <polygon class="fil5" points="3749,-23 4029,644 4939,642 4201,1053 4484,1719 3749,1306 3014,1719 3297,1053 2560,642 3470,644 "/>
  <path class="fil6" d="M2886 545c142,0 256,116 256,261 0,144 -114,261 -256,261 -141,-1 -256,-117 -256,-261 0,-145 115,-261 256,-261z"/>
  <path class="fil7" d="M2886 545c116,0 213,78 245,185 5,52 -262,-26 -327,-128 -13,18 -134,116 -161,121 34,-103 130,-178 243,-178z"/>
  <g style="clip-path:url(#id0)">
   <image x="3082" y="1155" width="13.3861" height="3.14967" xlink:href="logobanner_Images\logobanner_ImgID1.png"/>
  </g>
  <g style="clip-path:url(#id1)">
   <image x="3085" y="1153" width="13.3861" height="3.14967" xlink:href="logobanner_Images\logobanner_ImgID2.png"/>
  </g>
  <g style="clip-path:url(#id2)">
   <image x="3087" y="1150" width="11.3267" height="3.14967" xlink:href="logobanner_Images\logobanner_ImgID3.png"/>
  </g>
  <g style="clip-path:url(#id3)">
   <image x="3087" y="1147" width="13.3861" height="3.14967" xlink:href="logobanner_Images\logobanner_ImgID4.png"/>
  </g>
  <g style="clip-path:url(#id4)">
   <image x="3090" y="1145" width="13.3861" height="3.14967" xlink:href="logobanner_Images\logobanner_ImgID5.png"/>
  </g>
  <g style="clip-path:url(#id5)">
   <image x="3093" y="1142" width="13.3861" height="3.14967" xlink:href="logobanner_Images\logobanner_ImgID6.png"/>
  </g>
  <g style="clip-path:url(#id6)">
   <image x="3095" y="1139" width="11.3267" height="3.14967" xlink:href="logobanner_Images\logobanner_ImgID7.png"/>
  </g>
  <g style="clip-path:url(#id7)">
   <image x="3095" y="1137" width="13.3861" height="3.14967" xlink:href="logobanner_Images\logobanner_ImgID8.png"/>
  </g>
  <g style="clip-path:url(#id8)">
   <image x="2708" y="1161" width="13.3861" height="3.14967" xlink:href="logobanner_Images\logobanner_ImgID9.png"/>
  </g>
  <g style="clip-path:url(#id9)">
   <image x="3098" y="1134" width="13.3861" height="3.14967" xlink:href="logobanner_Images\logobanner_ImgID10.png"/>
  </g>
  <g style="clip-path:url(#id10)">
   <image x="3100" y="1132" width="11.3267" height="3.14967" xlink:href="logobanner_Images\logobanner_ImgID11.png"/>
  </g>
  <g style="clip-path:url(#id11)">
   <image x="3103" y="1129" width="8.23762" height="3.14967" xlink:href="logobanner_Images\logobanner_ImgID12.png"/>
  </g>
  <g style="clip-path:url(#id12)">
   <image x="2708" y="1153" width="8.23762" height="3.14967" xlink:href="logobanner_Images\logobanner_ImgID13.png"/>
  </g>
  <g style="clip-path:url(#id13)">
   <image x="3102" y="1126" width="6.17822" height="3.14967" xlink:href="logobanner_Images\logobanner_ImgID14.png"/>
  </g>
  <g style="clip-path:url(#id14)">
   <image x="3103" y="1124" width="3.08911" height="3.14967" xlink:href="logobanner_Images\logobanner_ImgID15.png"/>
  </g>
  <g style="clip-path:url(#id15)">
   <image x="3100" y="1118" width="3.08911" height="6.29934" xlink:href="logobanner_Images\logobanner_ImgID16.png"/>
  </g>
  <g style="clip-path:url(#id16)">
   <image x="3098" y="1116" width="3.08911" height="3.14967" xlink:href="logobanner_Images\logobanner_ImgID17.png"/>
  </g>
  <path class="fil8" d="M2584 1118l80 2 221 546 215 -544 1 -2 0 0 0 0 82 -2c54,-1 99,47 99,105l0 552 -797 0 0 -552c0,-58 45,-107 99,-105z"/>
  <path class="fil0 str5" d="M2882 1493c4,0 7,4 7,8 0,4 -3,8 -7,8 -4,0 -7,-4 -7,-8 0,-4 3,-8 7,-8z"/>
  <polygon class="fil9" points="3102,1498 3232,1498 3232,1516 3102,1516 "/>
  <polygon class="fil10" points="3201,1455 3170,1421 3102,1498 3229,1498 "/>
  <polygon class="fil11" points="2880,1147 2746,1087 2758,1232 2873,1170 "/>
  <polygon class="fil11" points="2869,1143 3006,1094 2999,1236 2862,1163 "/>
  <polygon class="fil12" points="2858,1127 2897,1127 2897,1181 2858,1181 "/>
  <polygon class="fil13 str7" points="2547,1217 2667,1052 2810,1489 2768,1452 "/>
  <polygon class="fil13 str7" points="2630,1372 2729,1266 2862,1635 2817,1587 "/>
  <g style="clip-path:url(#id17)">
   <image transform="matrix(-0.435554 -0 -0 0.413342 3062.19 1174.99)" x="0" y="0" width="33.02" height="7.62" xlink:href="logobanner_Images\logobanner_ImgID18.png"/>
  </g>
  <g style="clip-path:url(#id18)">
   <image transform="matrix(-0.435554 -0 -0 0.413342 3062.75 1169.22)" x="0" y="0" width="27.94" height="15.24" xlink:href="logobanner_Images\logobanner_ImgID19.png"/>
  </g>
  <g style="clip-path:url(#id19)">
   <image transform="matrix(-0.435554 -0 -0 0.413342 3062.19 1167.12)" x="0" y="0" width="20.32" height="7.62" xlink:href="logobanner_Images\logobanner_ImgID20.png"/>
  </g>
  <path class="fil0 str5" d="M2875 1297c-4,0 -7,4 -7,8 0,4 3,8 7,8 4,0 7,-4 7,-8 0,-4 -3,-8 -7,-8z"/>
  <path class="fil12" d="M2897 1127l-35 0c-2,0 -3,1 -3,3l0 28c0,2 1,3 3,3l35 0c2,0 3,-1 3,-3l0 -28c0,-2 -1,-3 -3,-3z"/>
  <polygon class="fil13 str7" points="3229,1208 3100,1059 2957,1494 2998,1453 "/>
  <polygon class="fil13 str7" points="3146,1388 3034,1268 2905,1638 2942,1606 "/>
  <polygon class="fil12" points="3080,1643 4480,1641 4625,1919 2921,1921 "/>
  <path class="fil14 str8" d="M3756 581c-131,0 -237,90 -237,201 0,110 106,200 237,200 131,0 237,-90 237,-200 0,-111 -106,-201 -237,-201z"/>
  <polygon class="fil0 str0" points="6833,196 7556,196 7556,1879 6833,1879 "/>
  <path class="fil1 str1" d="M7202 1183c-151,0 -274,125 -274,279 0,155 123,280 274,280 151,0 274,-125 274,-280 0,-154 -123,-279 -274,-279z"/>
  <path class="fil2 str2" d="M7202 1351c-60,0 -109,50 -109,111 0,62 49,112 109,112 61,0 110,-50 110,-112 0,-61 -49,-111 -110,-111z"/>
  <path class="fil1 str3" d="M7202 550c-151,0 -274,125 -274,279 0,155 123,280 274,280 151,0 274,-125 274,-280 0,-154 -123,-279 -274,-279z"/>
  <path class="fil2 str2" d="M7206 714c-60,0 -109,50 -109,112 0,62 49,112 109,112 61,0 110,-50 110,-112 0,-62 -49,-112 -110,-112z"/>
  <polygon class="fil1 str4" points="6917,263 7483,263 7483,487 6917,487 "/>
  <path class="fil2 str5" d="M7198 323c37,0 66,27 66,60 0,32 -29,59 -66,59 -36,0 -65,-27 -65,-59 0,-33 29,-60 65,-60z"/>
  <polygon class="fil2" points="6818,181 6570,372 6574,1768 6828,1898 "/>
  <polygon class="fil3" points="7556,1879 6833,1879 6833,1811 7556,1811 "/>
  <path class="fil6" d="M3754 593c123,0 222,99 222,222 0,122 -99,221 -222,221 -123,0 -223,-99 -223,-221 0,-123 100,-222 223,-222z"/>
  <path class="fil0" d="M3783 1035c-8,0 -16,1 -24,1 -8,0 -16,-1 -24,-1l-23 -41 94 0 -23 41z"/>
  <path class="fil2" d="M3757 593c137,-3 234,148 218,244 -1,12 -3,109 -3,95 -2,-63 -256,-241 -286,-289 -12,15 -119,93 -142,98 29,-89 115,-148 213,-148z"/>
  <polygon class="fil12" points="3560,1090 3628,1090 3628,1147 3733,1117 3779,1117 3884,1147 3884,1090 3957,1090 3975,1402 3560,1379 "/>
  <path class="fil15" d="M3507 1088l68 2 185 252 185 -252 70 -2c46,-1 84,39 84,86l0 453 -676 0 0 -453c0,-47 38,-87 84,-86z"/>
  <polygon class="fil16" points="4103,1551 4103,1722 3426,1722 3426,1551 "/>
  <polygon class="fil16" points="4099,1345 4099,1505 3423,1505 3423,1345 "/>
  <path class="fil16" d="M3595 1118l118 160 -290 0 0 -104c0,-21 7,-41 20,-56l152 0zm212 160l118 -160 154 0c13,15 20,35 20,56l0 104 -292 0z"/>
  <line class="fil14" x1="9755" y1="-1420" x2="9756" y2= "-1420" />
  <line class="fil14" x1="9756" y1="-1420" x2="9757" y2= "-1420" />
  <line class="fil14" x1="9759" y1="-1420" x2="9759" y2= "-1420" />
  <line class="fil14" x1="9765" y1="-1420" x2="9765" y2= "-1420" />
  <line class="fil14" x1="9766" y1="-1420" x2="9766" y2= "-1420" />
  <line class="fil14" x1="9768" y1="-1420" x2="9769" y2= "-1420" />
  <line class="fil14" x1="9769" y1="-1420" x2="9769" y2= "-1420" />
  <line class="fil14" x1="9769" y1="-1420" x2="9769" y2= "-1420" />
  <line class="fil14" x1="9769" y1="-1420" x2="9769" y2= "-1420" />
  <path class="fil17" d="M4580 634c137,0 248,103 248,230 0,128 -111,231 -248,231 -137,0 -248,-103 -248,-231 0,-127 111,-230 248,-230z"/>
  <path class="fil18" d="M4480 643c-31,15 -10,3 -39,21l-13 8c-4,3 -3,2 -8,5 -3,3 -3,3 -6,6 -20,25 -32,26 -57,72 -4,8 -8,21 -12,29 0,6 -1,4 7,3l80 -17c62,-16 202,-51 230,-95l36 29c27,21 69,51 99,68l16 9c9,1 3,1 6,-2 -34,-91 -126,-152 -227,-156 -59,-2 -71,10 -112,20z"/>
  <path class="fil18" d="M4462 917c-9,11 -9,30 -1,43 19,32 90,48 118,4 6,4 27,42 88,20 44,-16 43,-59 30,-67 -3,6 0,9 -7,14 -28,23 -64,-46 -109,-7 -9,-3 -31,-24 -67,-1 -49,31 -50,-3 -52,-6z"/>
  <polygon class="fil19" points="4404,552 4767,554 4766,690 4403,688 "/>
  <path class="fil20" d="M4313 1138l548 0c32,0 59,27 59,59l0 574c0,32 -27,59 -59,59l-548 0c-32,0 -59,-27 -59,-59l0 -574c0,-32 27,-59 59,-59z"/>
  <path class="fil2" d="M4715 1288c11,0 20,8 20,17 0,9 -9,16 -20,16 -10,0 -19,-7 -19,-16 0,-9 9,-17 19,-17z"/>
  <path class="fil2" d="M4715 1428c11,0 20,7 20,16 0,9 -9,16 -20,16 -10,0 -19,-7 -19,-16 0,-9 9,-16 19,-16z"/>
  <path class="fil2" d="M4715 1574c11,0 20,7 20,16 0,9 -9,17 -20,17 -10,0 -19,-8 -19,-17 0,-9 9,-16 19,-16z"/>
  <path class="fil2" d="M4715 1720c11,0 20,8 20,17 0,9 -9,16 -20,16 -10,0 -19,-7 -19,-16 0,-9 9,-17 19,-17z"/>
  <path class="fil2" d="M4440 1288c11,0 20,8 20,17 0,9 -9,16 -20,16 -11,0 -19,-7 -19,-16 0,-9 8,-17 19,-17z"/>
  <path class="fil2" d="M4440 1428c11,0 20,7 20,16 0,9 -9,16 -20,16 -11,0 -19,-7 -19,-16 0,-9 8,-16 19,-16z"/>
  <path class="fil2" d="M4440 1574c11,0 20,7 20,16 0,9 -9,17 -20,17 -11,0 -19,-8 -19,-17 0,-9 8,-16 19,-16z"/>
  <path class="fil2" d="M4440 1720c11,0 20,8 20,17 0,9 -9,16 -20,16 -11,0 -19,-7 -19,-16 0,-9 8,-17 19,-17z"/>
  <polygon class="fil19" points="4254,1775 4918,1775 4918,1918 4254,1918 "/>
  <polygon class="fil19" points="4474,1235 4479,1235 4706,1196 4479,1267 4479,1771 4468,1771 "/>
  <polygon class="fil19" points="4454,1127 4656,1138 4448,1233 4476,1169 4561,1160 4568,1170 4580,1198 4682,1195 4644,1168 4457,1150 "/>
  <rect class="fil8" x="2485" y="1722" width="542" height="196"/>
  <polygon class="fil3" points="3776,1611 3137,1611 2950,1918 3734,1918 "/>
  <path class="fil0 str5" d="M3316 1604c160,0 290,65 290,144 0,80 -130,144 -290,144 -160,0 -290,-64 -290,-144 0,-79 130,-144 290,-144z"/>
  <path class="fil12 str5" d="M3318 1669c63,0 114,27 114,60 0,34 -51,61 -114,61 -63,0 -115,-27 -115,-61 0,-33 52,-60 115,-60z"/>
  <polygon class="fil21" points="3677,1630 3753,1630 3753,1704 3677,1704 "/>
  <polygon class="fil21" points="3729,1630 3425,1630 3425,1650 3729,1650 "/>
  <path class="fil9 str5" d="M3703 1733c14,0 25,6 25,14 0,7 -11,13 -25,13 -13,0 -24,-6 -24,-13 0,-8 11,-14 24,-14z"/>
  <path class="fil9 str5" d="M3683 1789c17,0 31,7 31,15 0,9 -14,16 -31,16 -17,0 -31,-7 -31,-16 0,-8 14,-15 31,-15z"/>
  <path class="fil9 str5" d="M3658 1852c-24,0 -42,8 -42,17 0,10 18,18 42,18 23,0 42,-8 42,-18 0,-9 -19,-17 -42,-17z"/>
  <polygon class="fil14 str5" points="3436,1661 3394,1661 3394,1622 3436,1622 "/>
  <polygon class="fil3 str5" points="3449,1618 3368,1618 3368,1641 3449,1641 "/>
  <polygon class="fil14" points="3699,1611 4606,1611 4606,1934 3699,1934 "/>
  <polygon class="fil3" points="3808,1629 4406,1611 4579,1918 3786,1913 "/>
  <path class="fil0 str5" d="M4240 1604c-148,0 -269,65 -269,144 0,80 121,144 269,144 148,0 268,-64 268,-144 0,-79 -120,-144 -268,-144z"/>
  <path class="fil12 str5" d="M4238 1669c-58,0 -106,27 -106,60 0,34 48,61 106,61 59,0 106,-27 106,-61 0,-33 -47,-60 -106,-60z"/>
  <path class="fil22 str5" d="M4238 1716c-4,0 -7,3 -7,6 0,4 3,7 7,7 4,0 7,-3 7,-7 0,-3 -3,-6 -7,-6z"/>
  <polygon class="fil21" points="3906,1630 3836,1630 3836,1704 3906,1704 "/>
  <polygon class="fil21" points="3858,1630 4139,1630 4139,1650 3858,1650 "/>
  <path class="fil9 str5" d="M3881 1733c-12,0 -22,6 -22,14 0,7 10,13 22,13 13,0 23,-6 23,-13 0,-8 -10,-14 -23,-14z"/>
  <path class="fil9 str5" d="M3900 1789c-15,0 -28,7 -28,15 0,9 13,16 28,16 16,0 29,-7 29,-16 0,-8 -13,-15 -29,-15z"/>
  <path class="fil9 str5" d="M3924 1852c21,0 39,8 39,17 0,10 -18,18 -39,18 -22,0 -39,-8 -39,-18 0,-9 17,-17 39,-17z"/>
  <polygon class="fil14 str5" points="4129,1661 4168,1661 4168,1622 4129,1622 "/>
  <polygon class="fil3 str5" points="4117,1618 4192,1618 4192,1641 4117,1641 "/>
  <polygon class="fil2" points="3519,739 3478,739 3478,893 3519,893 "/>
  <polygon class="fil12" points="3486,739 3494,739 3494,893 3486,893 "/>
  <polygon class="fil0 str5" points="3544,736 3519,736 3519,897 3544,897 "/>
  <polygon class="fil2" points="3994,739 4036,739 4036,893 3994,893 "/>
  <polygon class="fil12" points="4028,739 4020,739 4020,893 4028,893 "/>
  <polygon class="fil0 str5" points="3967,736 3993,736 3993,897 3967,897 "/>
  <path class="fil4 str6" d="M7039 756c2,0 3,2 3,4 0,2 -1,4 -3,4 -2,0 -4,-2 -4,-4 0,-2 2,-4 4,-4z"/>
  <path class="fil4 str6" d="M7039 881c2,0 3,4 3,8 0,4 -1,8 -3,8 -2,0 -4,-4 -4,-8 0,-4 2,-8 4,-8z"/>
  <path class="fil4 str6" d="M7031 1522c2,0 4,2 4,4 0,2 -2,4 -4,4 -2,0 -4,-2 -4,-4 0,-2 2,-4 4,-4z"/>
  <path class="fil4 str6" d="M7031 1374c2,0 4,1 4,4 0,2 -2,3 -4,3 -2,0 -4,-1 -4,-3 0,-3 2,-4 4,-4z"/>
  <polygon class="fil2" points="4910,1412 5260,1412 5260,1839 4910,1839 "/>
  <path class="fil23" d="M5020 1582l0 85 -7 0 0 -59 -36 59 -2 0 -21 -60 -17 60 -9 0 24 -85 1 0 24 69 42 -69 1 0zm79 55l-54 0c0,7 2,13 5,17 4,5 9,7 16,7 4,0 8,-1 12,-3 3,-2 7,-4 9,-7l6 4c-3,4 -7,7 -12,10 -5,2 -10,3 -15,3 -10,0 -17,-3 -22,-9 -5,-6 -7,-13 -7,-20 0,-6 2,-12 5,-18 3,-6 7,-10 13,-13 5,-4 11,-5 17,-5 8,0 15,3 20,8 5,5 8,12 8,20 0,2 -1,4 -1,6zm-7 -7c0,-6 -2,-11 -6,-14 -4,-4 -8,-6 -14,-6 -6,0 -11,2 -16,6 -5,3 -8,8 -10,14l46 0zm27 -26l8 0 -2 10c6,-7 14,-11 22,-11 6,0 11,2 15,6 4,4 6,9 6,16 0,2 0,7 -1,13l-4 29 -8 0 4 -29c1,-6 1,-11 1,-13 0,-5 -1,-8 -4,-11 -2,-3 -6,-4 -10,-4 -4,0 -8,1 -11,3 -4,2 -7,5 -9,9 -2,4 -3,10 -4,18l-4 27 -7 0 8 -63zm74 0l8 0 -4 26c-1,8 -2,13 -2,15 0,5 2,8 5,11 3,3 6,5 11,5 4,0 7,-1 10,-4 3,-2 5,-5 6,-9 1,-2 2,-6 2,-13l5 -31 7 0 -3 24c-1,11 -3,19 -4,24 -2,5 -5,8 -9,12 -4,3 -9,4 -14,4 -7,0 -13,-2 -17,-6 -4,-5 -6,-10 -6,-17 0,-3 0,-6 1,-9l0 -6 0 -2 4 -24z"/>
  <polygon class="fil23" points="4924,1541 5245,1541 5245,1551 4924,1551 "/>
  <polygon class="fil23" points="4924,1697 5245,1697 5245,1707 4924,1707 "/>
  <path class="fil22 str5" d="M3315 1716c-4,0 -7,3 -7,6 0,4 3,7 7,7 4,0 7,-3 7,-7 0,-3 -3,-6 -7,-6z"/>
  <path class="fil24" d="M4735 1227l0 0c0,1 0,2 0,2l0 0 0 -1c1,0 1,-1 1,-1l1 0 0 1c0,0 0,0 0,0l1 0c0,0 0,0 1,2 0,5 -1,11 -3,16l0 1c0,1 0,1 0,2 0,0 0,1 0,1 0,1 -1,2 -1,4 0,0 0,0 0,0l0 2 -3 2 -3 0 -1 0c0,0 0,0 0,0l0 -1c0,-1 -1,-2 -1,-2l0 0c0,-1 0,-1 0,-1 0,-3 1,-6 2,-7 -1,-1 -1,-2 -1,-2l1 0c-1,-1 -1,-2 -1,-2l0 0c0,-2 -2,-4 -3,-6 -3,-1 -5,-2 -6,-2l-2 0c-3,0 -5,0 -6,2l-1 0 0 0c-3,2 -4,3 -4,4 -1,1 -2,3 -2,7 0,0 -1,0 -1,1l0 1c2,3 4,6 7,7 1,1 5,3 12,6 3,1 6,3 11,6 4,2 5,4 5,6l0 0 0 1c0,1 0,2 -1,3 0,1 -3,2 -9,3 -1,0 -2,1 -2,1 0,0 0,0 0,0 -2,0 -3,0 -3,0 0,0 0,0 0,0l-2 0 -4 0c-9,-1 -14,-2 -15,-3 -4,0 -7,-1 -10,-3l-1 -1 0 -1c1,-2 3,-3 5,-3 1,-1 1,-1 1,-1l1 0 0 0c0,0 0,0 0,0 1,-1 4,-1 8,-1 0,0 1,0 1,0l1 0c1,0 2,0 2,0l0 1c-1,0 -1,0 -1,0 0,0 1,0 1,1l0 0c0,0 0,0 0,1 -1,0 -2,0 -2,0 -3,0 -5,0 -5,1 0,0 0,0 -1,1l0 0c8,4 15,6 21,6 5,0 7,-2 7,-3 1,-1 1,-1 1,-1 -1,-3 -5,-5 -11,-8 -1,0 -1,0 -1,0l-1 0c-5,-2 -9,-4 -12,-5 -2,-1 -4,-2 -6,-4 -2,-2 -3,-2 -3,-3l0 0 -1 0c-1,-1 -1,-3 -2,-5 0,-2 -1,-2 -1,-2 1,-3 1,-4 1,-5l0 0c0,0 0,-1 1,-2 0,-1 1,-1 1,-1 0,-1 2,-2 5,-5 2,-1 4,-2 7,-3 0,-1 2,-1 6,-2l0 0c1,0 3,0 5,0 0,0 0,0 1,0 0,0 0,0 0,0l1 0 1 0 1 0 1 0c3,1 5,1 7,2 0,0 0,-1 0,-2l0 -2 0 0c0,-1 0,-1 0,-1l1 0c1,0 1,1 1,1l0 0c0,-1 0,-2 1,-2 0,0 0,0 0,1l0 0 0 1c0,0 0,0 0,0l1 0c-1,-1 -1,-2 -1,-2l1 -1zm-1 7l0 1c0,0 0,0 0,0 0,1 0,1 0,1 0,2 0,4 0,5l0 0 0 0c0,-2 1,-4 1,-7l0 -1 0 -1 0 0c0,0 -1,1 -1,2zm-9 1c0,0 2,1 5,2 0,0 0,1 0,1l0 -1c0,0 -1,-1 -5,-2l0 0zm-1 0l0 0c0,0 1,1 2,2l0 0c0,-1 -1,-1 -2,-2l0 0zm3 1c0,0 1,1 2,2l0 0 -2 -2 0 0zm-22 2l0 0 2 -1 0 0c-1,0 -2,1 -2,1zm31 -1c0,1 0,2 0,3l0 0c0,0 0,-1 1,-3l-1 0zm-3 1c0,0 0,2 -1,5 1,0 1,-2 1,-5l0 0zm-5 2l0 0c1,1 1,2 1,2 0,-2 0,-2 -1,-2zm-25 0c0,0 -1,1 -1,2l0 0c0,0 1,-1 1,-2l0 0zm27 1c0,0 0,1 0,1l1 0c0,-1 0,-1 0,-1 0,0 0,0 0,-1l-1 0 0 1zm-33 2l1 -2 1 0 0 0 0 0c-1,0 -1,1 -2,2zm37 -2l0 1 0 1 0 0 0 -2 0 0 0 0zm-5 2l0 1c0,0 0,0 0,0l1 0 0 0c-1,-1 -1,-1 -1,-1l0 0zm-33 0l0 1 0 1 0 0 0 -1 0 -1 0 0zm6 1l0 1 0 0c0,0 0,0 0,-1l0 0zm0 1c0,1 0,1 0,2l0 0c0,0 0,1 0,1l0 0 0 0c0,-1 1,-2 1,-3l0 0 -1 0zm30 0l-1 3 0 0 0 0c0,0 1,-1 1,-2l0 -1 0 0zm0 1c0,0 0,1 0,1l0 0 1 0c0,0 0,0 0,0 0,-1 0,-1 0,-1l-1 0zm-31 1l0 1 0 1 1 0 0 -1c0,0 -1,-1 -1,-1l0 0zm30 6c0,2 0,3 0,4l1 0c-1,-1 -1,-2 -1,-2 0,-2 0,-5 1,-8 -1,1 -1,3 -1,6zm-32 -5l0 1c0,3 1,5 2,6l0 0c-1,-2 -1,-3 -1,-4l0 0c-1,-2 -1,-3 -1,-3zm-1 0l0 1c0,0 0,0 0,0l0 0c0,-1 0,-1 0,-1zm34 4l0 2 0 2 0 0 0 -1c0,-1 0,-1 0,-2l1 -4c-1,1 -1,2 -1,3zm-36 -2l0 0c0,1 0,2 1,4 1,0 1,0 1,-1 -1,-2 -1,-3 -2,-3l0 0zm2 0l0 1c0,1 1,1 1,1l0 0c0,-1 0,-1 0,-2l-1 0zm3 1c0,0 0,1 0,1l0 0c0,0 1,0 1,0l-1 -1zm28 0c-1,1 -1,1 -1,1l1 0 0 -1 0 0zm1 2l0 1 0 0 0 -1 0 0zm-31 1l0 1c1,1 2,1 2,2l0 0c-1,-2 -1,-2 -1,-3l-1 0zm30 1c0,0 0,1 0,1 0,0 1,0 1,0l0 0c0,0 0,0 0,0 0,0 0,-1 0,-1l-1 0zm-27 1l0 0c0,0 1,1 1,1 0,0 0,0 0,-1l-1 0zm4 0c0,1 1,2 3,3l0 0 0 -1c-1,0 -2,0 -3,-2l0 0 0 0zm-2 2l0 0c1,1 2,2 3,2l1 2 1 -1 1 1 0 0 0 -1c-1,0 -2,-1 -3,-1 -1,-1 -2,-2 -3,-2l0 0zm-1 0c0,1 0,1 1,1 0,0 0,0 -1,-1l0 0zm-2 0l0 1c0,0 0,0 1,0l0 0 0 0c0,0 0,0 -1,-1zm1 1c1,1 2,2 3,3l0 0c0,0 0,-1 0,-1l0 0c0,0 -1,-1 -2,-1l0 -1 -1 0zm6 0l0 1c0,0 1,0 3,2l0 0c0,0 1,-1 1,-1 -2,-1 -3,-1 -3,-1l0 0 0 -1 -1 0zm3 1l0 0c2,1 2,2 2,2l1 0c0,0 1,0 1,0l0 0c0,0 0,0 -1,0 0,0 0,0 0,0 -1,-1 -2,-1 -3,-2zm5 2l0 0 1 0 0 1 0 0c0,0 0,0 1,1l0 -1c-1,0 -1,0 -1,0l0 0c2,1 3,1 3,1l0 0c1,0 1,1 1,1l0 0 0 -1c-1,0 -3,-1 -4,-2 0,0 0,0 0,0l-1 0zm-9 0l0 1c0,0 1,0 3,1 0,0 -1,-1 -3,-2zm6 2l0 0c2,2 5,3 7,4l2 1 1 0 0 -1 -6 -2c-1,-1 -2,-1 -4,-2 0,0 0,0 0,0l0 0zm6 1l0 1c0,0 2,1 5,3l1 0 0 0 0 0c-1,-1 -3,-2 -5,-3 0,0 0,0 -1,-1l0 0zm6 3c0,1 1,1 3,3l0 0c0,-1 -1,-2 -2,-3l-1 0zm-20 3c0,0 1,0 1,0l0 0c1,0 1,0 1,0l0 0c0,0 -1,0 -1,0 0,0 0,0 -1,0zm24 0c0,1 1,2 2,3 -1,-2 -1,-2 -1,-3l-1 0zm-31 2l0 0 0 0c1,0 2,-1 5,-1l0 0 -1 0c-2,0 -4,0 -4,1zm38 0l0 1 0 0 0 0c0,1 0,1 0,1l1 0 0 0c-1,-1 -1,-2 -1,-2l0 0zm-4 0c1,1 1,2 2,3 0,-1 -1,-1 -1,-3l-1 0zm-34 2l0 0c1,1 1,1 1,1l0 0 0 0 0 0 0 -1c1,0 1,-1 1,-1l0 0c-1,0 -1,1 -1,1 0,-1 0,-1 1,-1l0 0 -1 0c-1,0 -1,0 -1,1zm-4 0c0,0 0,0 0,0l0 0c1,0 1,0 1,0l0 -1 -1 1zm38 -1c0,1 0,2 0,3l0 0c0,0 0,-1 0,-3l0 0zm-37 1c0,1 0,1 0,1l1 0 0 -1c0,0 -1,0 -1,0zm3 1c0,1 0,1 2,1 0,0 -1,0 -2,-1l0 0zm5 1l0 1 1 0 0 0 0 0c0,0 0,0 -1,-1zm-2 1l0 1 1 0c0,0 0,0 0,0 0,0 -1,0 -1,-1zm7 2c0,0 1,1 4,1 -1,-1 -2,-1 -4,-1zm0 1l0 0c0,0 1,0 2,0l0 0 0 0c0,0 -1,0 -2,0 0,0 0,0 0,0 0,0 0,0 0,0z"/>
  <path id="1" class="fil24" d="M4751 1239l1 0c0,0 0,1 0,2l0 2c0,0 0,0 0,0l0 0 0 1c0,0 0,0 0,0 0,0 0,0 0,0 0,6 -1,10 -2,13l-2 9 0 0 0 0c1,-1 2,-2 2,-2 0,0 1,-1 3,-2 2,-1 2,-1 3,-1 1,0 3,1 3,3 0,0 0,0 0,1l0 0c0,1 1,2 1,3 0,0 0,1 -1,1 1,0 1,2 1,4l0 0c0,4 1,6 2,6 0,0 2,-1 3,-3l0 1c-1,3 -3,4 -5,4l-1 0 0 0 0 0c-2,-1 -3,-3 -4,-5 0,0 0,-1 0,-2l0 -1c0,0 -1,0 -1,0 0,0 1,0 1,0 -1,-5 -1,-8 -1,-9 -1,0 -2,2 -4,4 -2,3 -3,6 -3,10l0 0c0,1 0,2 0,3 -1,0 -1,0 -1,0 0,0 -1,0 -2,0l0 0 0 1 0 -1 1 0 0 0 -1 2 0 0c0,0 -1,-1 -1,-2l0 0 0 1 -1 0c0,-1 0,-1 0,-3l0 0c0,0 0,-1 0,-1l0 0 1 0 0 0c-1,0 -1,0 -1,-1l0 0c0,0 0,-1 0,-1l0 -1 0 -1 0 -1c0,0 0,-1 0,-1l0 0 0 0c0,-1 0,-3 1,-7l1 -4c-1,0 -1,0 -1,0 1,-1 1,-1 1,-1l0 0c0,-1 1,-4 2,-10l0 0c0,0 0,0 0,0 1,-5 1,-7 1,-8l0 -1c0,0 0,-1 0,-1l1 0 0 0c0,0 1,-1 1,-1 0,1 0,1 0,2l1 0c0,-1 0,-1 0,-1l0 0c1,0 1,-1 1,-1zm-3 5c0,2 -1,5 -1,10l0 0 0 -1 0 -1 -1 0c0,0 0,0 0,0 0,0 0,1 0,1 -1,5 -2,8 -2,8 0,0 0,0 0,0l-1 11c0,0 0,0 0,0 0,1 -1,2 -1,3l0 1 1 0c0,-4 1,-7 1,-8 0,0 0,0 0,0 0,-1 1,-3 2,-7 -1,-1 -1,-1 -1,-1 0,0 1,-1 1,-1l0 0 0 1 0 0c0,0 0,-1 0,-2 0,0 0,0 0,-1l0 0 0 0 0 0c0,0 1,-1 2,-5 0,-1 0,-2 0,-3 0,-1 0,-1 0,-1l0 -1 0 -2 1 -1 -1 0zm3 1l0 1 0 0 0 -2c0,0 0,0 0,1zm0 4l0 1 0 1 0 0c0,-1 0,-1 1,-1 -1,0 -1,-1 -1,-1l0 0zm-4 5l0 0 0 0c-1,1 -1,2 -1,2l0 0c0,-1 1,-2 1,-2zm0 6l0 1 0 0 0 0 1 -1 0 0 -1 0zm0 1l-1 4 1 0 0 -3 0 -1zm9 2c0,0 0,0 0,0 0,1 1,1 1,1l0 0c0,-1 0,-1 -1,-1zm-10 2l0 0c0,0 0,0 0,-1 0,0 0,1 0,1zm-1 1c0,2 0,3 0,3l0 0c0,0 0,-1 1,-3l0 0 -1 0zm11 2c0,0 0,1 0,2l0 0 0 -1 0 -1 0 0zm1 1l0 3 1 1 -1 0c1,3 1,5 2,5l0 0c0,-1 0,-1 0,-1 0,-1 0,-1 0,-1 -1,0 -1,-1 -1,-3l0 0c0,-2 0,-3 0,-3 0,0 0,0 0,-1l0 0c0,0 0,0 -1,0zm2 2l0 0 0 0c0,0 0,1 0,1l0 1c0,0 0,0 0,0 0,0 0,1 0,1l0 0 0 -3c0,0 0,0 0,0zm-3 0c0,0 0,1 0,2l0 0c0,0 0,0 1,-1l0 0c0,1 0,2 0,3l0 0c0,0 0,1 0,1l1 0c-1,0 -1,-1 -1,-1l1 0c-1,-2 -1,-3 -1,-3 -1,-1 -1,-1 -1,-1zm-11 4l0 0 0 0 0 -2c0,0 0,1 0,2zm14 -1l0 0c0,3 0,4 1,4l0 0c-1,-2 -1,-3 -1,-4l0 0zm-16 8l0 0 0 1 0 0 0 -1z"/>
  <path id="2" class="fil24" d="M4778 1263l0 0c0,0 0,0 0,0 3,1 5,1 5,2l0 0c-1,0 -1,0 -1,0l0 0c-2,0 -3,1 -3,1l-1 0c0,0 -1,0 -1,-1 -1,0 -1,0 -1,0 -1,0 -2,0 -3,1l0 1 -1 -1c0,1 0,1 -1,2 0,1 -1,2 -2,3 -1,1 -1,2 -1,3 0,1 0,1 0,2l0 0c0,1 1,2 2,3 2,-1 3,-1 3,-2 1,0 2,-2 3,-6 0,0 0,-1 0,-2l0 -1 0 0c2,0 3,0 4,-1l1 0 0 1c0,1 -1,3 -1,5l0 0 0 0c0,0 0,1 0,1 0,0 0,1 0,3 0,0 0,0 0,0 1,0 1,0 1,0 0,0 0,0 -1,0 1,1 1,1 1,2l2 0 3 -3 1 -1 1 0 0 1 -1 1 0 0c0,0 1,0 1,1l0 0c-1,1 -2,2 -4,3 -1,1 -3,2 -4,2 0,0 -2,-2 -4,-4l0 0 1 -1 0 0c-4,3 -6,4 -8,4 0,0 -1,0 -2,0 -2,0 -4,-1 -4,-2 0,0 0,-1 0,-3 0,-1 0,-3 0,-4l0 0c0,-1 1,-1 1,-1l0 -1c0,-2 2,-3 5,-5 3,-2 6,-3 9,-3zm-12 7l-1 1 0 0c0,0 1,0 1,0 0,0 0,0 0,-1 0,0 0,0 0,0 0,0 0,0 0,0l0 0zm-1 2l0 1 0 1c0,0 0,-1 0,-1l0 -1 0 0zm12 1c0,1 0,1 0,1l0 1 0 0 0 -2 0 0zm0 3l0 0c1,-1 1,-2 1,-2 0,0 0,1 -1,2zm-10 -1l0 1 0 0 0 0 0 -1 0 0zm-3 1l0 2c1,0 1,0 1,1l0 0 0 -1c0,0 0,-1 -1,-2l0 0zm12 2l0 0 0 0c1,-1 2,-1 2,-1l0 0 -1 0c0,0 -1,1 -1,1z"/>
  <path id="3" class="fil24" d="M4796 1260c0,0 0,0 1,1 -2,2 -3,7 -4,15l0 2c0,0 0,1 0,1 1,0 3,-3 6,-9 1,-4 2,-7 3,-8l0 0 1 0c0,0 1,0 2,0 0,0 0,0 0,0l2 0 0 0c-1,2 -2,6 -3,12 0,0 0,0 0,1l0 0 0 0 0 0c0,0 0,0 0,0 1,2 1,3 1,4l1 0c1,0 2,-2 5,-5 0,0 0,1 0,1l-1 1 0 0c1,0 1,0 2,0l0 0 -1 1 1 0c-2,3 -5,4 -7,4 0,0 0,1 -1,1 -3,-1 -4,-2 -4,-3 0,0 -1,-1 -1,-3 -3,4 -5,6 -7,6 0,0 -1,0 -1,0 -3,0 -4,-1 -4,-3l0 0c0,0 -1,-1 -1,-3 1,-3 1,-5 2,-6 0,-3 1,-5 2,-5l0 -1c0,-2 1,-3 1,-4l1 0 0 1 1 0c1,-1 2,-1 3,-1zm-1 1l-1 3 0 0c1,-1 1,-2 1,-3l0 0 0 0zm-4 7l0 0 1 -4 0 0c0,0 0,1 -1,4zm12 -3c-1,2 -1,3 -1,4l0 0 1 -4 0 0zm-10 1c0,1 0,2 0,2l0 0c0,0 1,0 1,-2l-1 0zm8 1c0,0 0,1 -1,1l-2 5 0 0 0 0c1,-1 2,-3 3,-4 0,0 0,0 0,0l0 -1c0,0 0,-1 0,-1l0 0zm2 1c-1,2 -1,3 -1,3l0 1c0,1 0,1 0,1l0 0 0 1 0 0 0 0c0,0 0,-1 1,-2l0 0c0,-1 0,-2 0,-4l0 0zm-13 0c-1,1 -1,1 -1,1l0 1 1 0c0,-1 0,-1 0,-2l0 0zm1 1c0,0 0,0 0,-1 0,0 0,1 0,1zm10 1l0 0 0 0c0,0 0,0 1,-1 -1,0 -1,0 -1,1zm-1 3c0,0 -1,1 -2,3l0 0 1 -1c0,0 0,0 0,0 1,0 1,-1 1,-2l0 0 0 0zm-10 0l0 0 0 1 0 0 0 2 0 0c0,-1 0,-1 1,-2l-1 0 1 -1c0,0 -1,0 -1,0zm13 1c0,1 0,1 0,1 0,0 0,1 0,2l0 0 0 0 0 -1c0,-1 0,-2 0,-2l0 0 0 0zm-1 0c0,0 -1,0 -1,1l1 2 0 0 0 -2c0,-1 0,-1 0,-1zm-14 1l0 2c0,0 1,1 1,2 0,0 0,0 0,0 0,1 0,1 1,2l0 0 1 0c0,0 -1,-1 -1,-1 -1,-2 -1,-3 -1,-4l0 -1 0 0 -1 0zm12 0c0,0 0,0 0,0l0 1 0 0c0,2 1,3 2,3 -1,-1 -1,-1 -1,-2l0 0 0 0 0 0 0 0c0,0 0,-1 0,-1 0,0 0,-1 0,-1l-1 0zm-12 2c0,0 0,1 -1,1 1,0 1,1 1,1l0 0 0 0 0 -2 0 0zm15 1l0 0c0,1 0,2 1,2l1 0 0 0c-1,0 -1,0 -1,-1 0,0 -1,0 -1,-1z"/>
  <path id="4" class="fil24" d="M4816 1258c6,0 10,1 12,4 0,1 0,2 0,3 0,1 -1,4 -2,8 0,0 0,1 -1,2l0 2c1,1 1,2 1,2 1,0 2,-1 4,-3 1,-1 1,-2 2,-2l-1 2 0 0c0,0 1,0 1,-1l1 0 0 0 -1 1 0 0 1 0c-3,4 -6,6 -10,6 -3,-1 -4,-1 -4,-2 0,0 0,-1 -1,-2 0,-3 1,-8 4,-14l0 -1c0,-1 -1,-1 -4,-1 -2,0 -2,0 -2,1 0,0 0,0 0,0l0 1c0,1 0,1 0,1 -3,1 -4,1 -4,1l-1 0c0,0 0,0 0,-2 0,0 -1,0 -1,-1 0,-2 1,-3 3,-4 1,0 2,-1 3,-1zm-2 4l0 0c1,-1 1,-1 2,-1l0 0c-1,0 -2,1 -2,1zm-1 1l0 1c0,0 0,0 0,0l1 0c0,0 0,0 0,0 0,-1 0,-1 -1,-1zm10 2c-1,1 -1,2 -1,2l0 0c1,0 1,-1 1,-2l0 0 0 0zm2 0c-1,3 -2,5 -2,5 1,0 1,-1 2,-4l0 -1zm-2 1c0,1 0,2 0,3l0 0c0,0 0,-1 1,-3l-1 0zm3 2l0 -1c0,1 0,1 0,1 0,0 0,0 0,0 0,1 0,1 -1,1l1 1c0,0 -1,1 -1,1l0 1 0 0c1,-3 2,-5 2,-6l0 0c0,0 -1,1 -1,2zm-3 3c-1,1 -1,2 -1,2l1 0c0,0 0,-1 0,-2l0 0zm-3 1c-1,3 -1,4 -1,4 1,0 1,0 1,1 0,0 -1,1 -1,1 1,0 1,0 1,0l0 0 0 -2 0 0c0,0 0,-2 0,-4l0 0zm4 3c0,1 0,1 0,1l0 0c0,0 0,-1 1,-1l0 0 0 -2c0,0 -1,1 -1,2zm-1 2l0 0 0 1 1 0c0,0 0,0 0,-1l-1 0zm-1 2l0 0c0,1 0,1 0,1l0 0 0 0c0,-1 0,-1 0,-1z"/>
  <path id="5" class="fil24" d="M4838 1258c0,0 0,1 0,1l1 -1 0 0c0,0 1,0 1,1l0 2c0,1 -1,3 -3,8 -1,3 -1,4 -1,6 0,1 0,2 0,3l1 0c1,-1 2,-4 4,-9 2,-4 3,-7 3,-7 0,-2 2,-3 4,-3 0,0 0,0 1,0l0 1c0,1 -1,5 -2,11 -1,2 -1,3 -1,3l1 1 0 0c0,0 1,-1 2,-3 0,0 1,-1 3,-3l1 -5c0,-2 2,-4 6,-5l0 0 0 1 0 1c0,1 -1,4 -2,10 -1,1 -1,1 -1,2l0 2c1,1 1,2 1,2 1,0 3,-2 6,-6l0 0 0 0c0,1 -1,2 -1,2l1 0c0,-1 1,-1 1,-2l0 0 0 1c0,0 0,1 -1,2l1 0 1 -1 1 0c0,0 0,1 -1,1l0 0 0 0c-2,2 -4,4 -6,5 -2,1 -2,1 -3,2l0 0c0,-1 -1,-1 -3,-1 -1,-1 -2,-2 -2,-4l-1 -1c-2,4 -3,5 -5,5l-2 0c0,0 -1,-1 -2,-2 0,-1 0,-1 0,-1 -1,2 -3,3 -6,4l-1 0 0 0c0,0 -1,0 -1,0 -2,0 -3,-1 -3,-4l0 -2c0,0 0,-1 0,-1l0 0c1,-4 2,-7 3,-11 1,-1 2,-2 2,-4l0 0c0,0 1,0 1,1 0,0 1,-1 2,-2l0 0zm19 3l0 1 0 0 0 -1 0 0zm-12 4l0 1c0,0 0,-2 1,-4 0,0 -1,1 -1,3zm-8 -3c0,0 -1,1 -1,3 -2,2 -2,4 -2,4l0 0 0 0c0,0 1,-2 2,-5 1,0 1,-1 1,-2l0 0zm7 1l-1 4 0 0 0 0c0,0 1,-2 2,-4l-1 0zm-9 1l0 0 0 0c0,0 1,0 1,-1l0 0c-1,0 -1,0 -1,1zm21 2l-1 0 0 1 1 0 0 -1 0 0 0 0zm-20 0c0,0 0,1 0,1l0 1 0 0 0 -2 0 0zm18 0c0,1 -1,2 -2,4l1 0 0 0 1 -4 0 0zm1 3l1 0c0,0 0,-1 1,-3l0 0c-1,0 -1,1 -2,3zm-10 -3c-1,1 -1,1 -1,2 -1,0 -1,0 -1,-1 0,0 0,1 -1,3l0 0c1,0 1,0 1,-2 0,0 0,0 1,1 -1,0 -1,1 -1,3l0 0c0,0 1,-2 2,-6l0 0zm-11 4c-1,1 -1,2 -1,2 1,0 1,-1 1,-2l0 0 0 0zm19 1c0,0 0,1 0,1l0 -1 0 0c0,1 0,1 0,2 0,0 0,-1 0,-2l0 0 0 0zm-20 4c0,1 0,3 0,4l1 0c-1,-1 -1,-2 -1,-3l0 -1c0,-1 0,-1 0,-1 0,0 0,0 0,0 0,0 0,-1 1,-2l-1 0c0,0 0,1 0,3zm7 0l0 0c0,0 1,-1 2,-3l0 0c0,0 -1,1 -2,3zm3 -3c0,0 -1,1 -1,1l0 0 1 -1 0 0 0 0zm2 1c0,1 0,2 0,2 0,1 0,1 0,1l0 0 0 -3 0 0zm5 0c0,0 0,1 -1,1l0 0 1 0c0,0 0,0 0,-1l0 0 0 0zm3 1c0,1 0,2 1,2l0 0c-1,-1 -1,-2 -1,-2 0,0 0,0 0,0zm1 0c1,2 1,3 2,3l0 0c-1,-1 -1,-2 -1,-3l-1 0zm-23 1l0 2c0,1 1,2 1,2l0 0c0,0 0,-2 -1,-3l1 0c-1,0 -1,-1 -1,-1l0 0zm15 2c0,0 1,0 1,0 0,0 1,-1 3,-2 -2,1 -3,2 -4,2zm-3 -2c0,0 0,1 0,2 0,0 0,1 1,1l0 0c-1,-1 -1,-2 -1,-3l0 0zm10 2c0,0 0,0 -1,0 1,1 1,1 2,1 0,0 0,0 0,0 0,0 0,-1 -1,-1zm3 1c0,0 0,0 1,0l0 0c0,0 0,0 0,0 0,0 0,0 -1,0zm-22 0l0 0c0,1 0,1 1,1l0 0 -1 -1 0 0zm-1 1c0,1 0,1 0,1l1 0 0 0c-1,0 -1,0 -1,-1l0 0z"/>
  <path id="6" class="fil24" d="M4877 1263l0 0c0,0 0,0 0,0 3,1 4,1 4,2l0 0c0,0 0,0 0,0l-1 0c-2,0 -3,1 -3,1l0 0c-1,0 -1,0 -2,-1 0,0 0,0 0,0 -1,0 -2,0 -4,1l0 1 0 -1c0,1 -1,1 -2,2 0,1 0,2 -1,3 -1,1 -1,2 -1,3 0,1 0,1 0,2l0 0c0,1 0,2 1,3 3,-1 4,-1 4,-2 1,0 1,-2 3,-6 0,0 -1,-1 -1,-2l0 -1 1 0c2,0 3,0 3,-1l2 0 0 1c-1,1 -1,3 -1,5l0 0 0 0c0,0 0,1 0,1 0,0 0,1 0,3 0,0 0,0 0,0 0,0 0,0 0,0 0,0 0,0 0,0 1,1 1,1 1,2l2 0 3 -3 1 -1 0 0 0 1 -1 1 0 0c1,0 1,0 1,1l0 0c0,1 -1,2 -3,3 -2,1 -3,2 -4,2 -1,0 -2,-2 -4,-4l0 0 0 -1 0 0c-3,3 -6,4 -7,4 -1,0 -1,0 -2,0 -3,0 -4,-1 -4,-2 0,0 0,-1 -1,-3 0,-1 1,-3 1,-4l0 0c0,-1 0,-1 1,-1l0 -1c0,-2 1,-3 5,-5 3,-2 6,-3 9,-3zm-12 7l-1 1 0 0c0,0 0,0 0,0 0,0 1,0 1,-1 0,0 0,0 0,0 0,0 0,0 0,0l0 0zm-1 2l0 1 0 1c0,0 0,-1 0,-1l0 -1 0 0zm12 1c0,1 0,1 -1,1l0 1 0 0 1 -2 0 0zm0 3l0 0c1,-1 1,-2 1,-2 0,0 -1,1 -1,2zm-11 -1l0 1 1 0 0 0 -1 -1 0 0zm-2 1l0 2c0,0 0,0 0,1l1 0 0 -1c0,0 -1,-1 -1,-2l0 0zm12 2l0 0 0 0c1,-1 1,-1 1,-1l0 0 0 0c-1,0 -1,1 -1,1z"/>
  <polygon class="fil14" points="8433,-1789 8728,-1789 8728,-1494 8433,-1494 "/>
  <path class="fil25" d="M8577 -1521c65,0 116,6 116,14 0,7 -51,13 -116,13 -64,0 -115,-6 -115,-13 0,-8 51,-14 115,-14z"/>
  <path class="fil26" d="M8581 -1517c54,0 98,4 98,8 0,5 -44,8 -98,8 -54,0 -98,-3 -98,-8 0,-4 44,-8 98,-8z"/>
  <path class="fil27" d="M8580 -1517c41,0 74,3 74,6 0,4 -33,7 -74,7 -41,0 -75,-3 -75,-7 0,-3 34,-6 75,-6z"/>
  <path class="fil28" d="M8580 -1515c32,0 58,1 58,4 0,2 -26,4 -58,4 -32,0 -58,-2 -58,-4 0,-3 26,-4 58,-4z"/>
  <path class="fil29" d="M8580 -1515c22,0 40,1 40,3 0,2 -18,4 -40,4 -23,0 -41,-2 -41,-4 0,-2 18,-3 41,-3z"/>
  <polygon class="fil30" points="8499,-1711 8436,-1716 8498,-1568 8578,-1509 "/>
  <polygon class="fil31" points="8499,-1711 8436,-1716 8577,-1775 8679,-1789 "/>
  <polygon class="fil32" points="8499,-1711 8679,-1789 8725,-1612 8578,-1509 "/>
  <path class="fil33" d="M8692 -1621c-5,-19 -10,-38 -15,-57 -7,-22 -13,-45 -19,-68 0,-2 -2,-3 -5,-2l-65 30c-9,5 -23,19 -26,35 -1,10 -1,20 2,28 3,5 6,11 9,16 4,4 9,8 11,9 4,2 8,4 12,5 1,0 3,1 2,3 -1,19 -3,38 -4,58 0,6 -1,13 5,8l12 -7c5,-3 6,-6 7,-12 0,0 0,0 0,0 1,-18 3,-35 4,-53 0,-3 1,-5 3,-7 9,-5 18,-10 28,-16 2,-1 3,0 4,2l13 43c0,2 2,3 4,2 0,0 0,0 0,0 6,-4 11,-7 16,-11 2,-1 3,-4 2,-6zm-45 -51l-35 20c-1,1 -3,1 -4,1 -2,0 -4,-1 -6,-2 -2,0 -2,-1 -4,-1 -3,-2 -7,-6 -9,-12 -1,-2 -3,-10 -1,-18 1,-6 6,-11 11,-15l1 0 35 -17c1,-1 2,0 2,0 1,0 1,0 2,2l10 37c1,1 1,2 0,3 0,1 -1,2 -2,2z"/>
  <path class="fil34" d="M8547 -1551l-25 -63c-9,-22 -18,-44 -27,-66 -1,-3 -3,-5 -5,-5 -6,0 -13,-1 -19,-2 -3,0 -5,3 -4,11 2,14 8,27 15,39 4,7 6,10 10,16 1,2 3,5 3,7 1,6 3,12 4,18 1,3 1,7 2,10 0,3 1,6 3,8 2,2 5,3 7,5 2,2 2,0 1,-4 -2,-10 -4,-20 -6,-30 -1,-2 -1,-2 1,-2 3,2 6,4 9,5 2,1 3,3 4,5 6,15 12,29 18,44 1,1 2,2 3,3 2,2 4,3 6,5 2,1 2,0 0,-4zm-39 -73c-4,-1 -8,-3 -11,-5 -2,0 -3,-1 -4,-2 -1,-1 -4,-5 -6,-10 -2,-3 -4,-6 -5,-9 -2,-4 -3,-11 -4,-14 0,-5 1,-5 4,-4 3,0 6,1 8,2 2,0 3,0 5,5 5,12 9,22 14,34 2,4 1,5 -1,3z"/>
  <path class="fil35" d="M8503 -1723c17,-7 32,-13 49,-20 26,-10 51,-21 77,-31 4,-2 4,-2 0,-2 -11,2 -22,3 -32,4 -6,1 -11,3 -17,4 -8,3 -16,5 -24,8 -6,3 -12,5 -18,8 -4,2 -9,5 -13,7 -2,2 -3,3 -5,3 -15,6 -31,11 -47,17 -1,0 -2,1 -1,1 2,0 2,0 4,0 1,0 3,0 4,0 15,-6 31,-11 47,-17 1,0 2,-1 4,-1 3,0 5,0 8,0 2,0 2,0 0,1 -14,6 -28,12 -42,18 -1,0 -3,0 -1,1 1,0 2,0 4,0 1,0 3,-1 3,-1zm43 -28c6,-3 11,-6 17,-8 6,-2 11,-4 16,-5 2,-1 4,-1 6,-1 5,-1 9,-1 13,-1 3,-1 4,-1 2,0 -4,2 -8,3 -12,5 -9,3 -17,7 -26,11 -1,0 -3,0 -5,0 -4,1 -8,1 -11,1 -4,0 -3,0 0,-2z"/>
  <path class="fil22" d="M8749 -1705l85 0 0 108 -22 0 0 -89 -42 0 0 89 -21 0 0 -108zm107 108l0 -108 35 0c13,0 22,1 26,2 6,2 11,5 16,10 4,6 6,13 6,21 0,7 -1,13 -4,17 -2,5 -5,8 -9,11 -4,2 -7,4 -11,5 -5,1 -13,1 -23,1l-14 0 0 41 -22 0zm22 -89l0 30 12 0c9,0 14,0 17,-2 3,-1 5,-2 7,-5 2,-2 2,-5 2,-8 0,-4 -1,-7 -3,-10 -2,-2 -5,-4 -9,-5 -2,0 -8,0 -15,0l-11 0zm79 89l0 -108 79 0 0 19 -58 0 0 23 54 0 0 19 -54 0 0 29 60 0 0 18 -81 0zm109 -108l74 0 0 90 9 0 0 41 -18 0 0 -23 -67 0 0 23 -19 0 0 -41 10 0c4,-9 7,-20 8,-32 2,-12 3,-28 3,-46l0 -12zm20 19c0,32 -3,56 -9,71l41 0 0 -71 -32 0zm86 -19l75 0 0 108 -22 0 0 -89 -32 0 0 45c0,14 -1,23 -1,28 -1,5 -3,9 -7,12 -3,3 -9,5 -16,5 -2,0 -7,-1 -14,-1l0 -17 5 0c5,0 8,-1 9,-2 2,-1 3,-4 3,-9l0 -18 0 -62zm194 108l-23 0 -9 -25 -44 0 -9 25 -23 0 42 -108 23 0 43 108zm-40 -43l-14 -40 -15 40 29 0zm53 -65l73 0 0 19 -51 0 0 89 -22 0 0 -108zm172 108l-24 0 -9 -25 -43 0 -9 25 -23 0 41 -108 23 0 44 108zm-40 -43l-15 -40 -15 40 30 0zm51 -65l22 0 0 45 17 0c2,-13 6,-24 14,-33 8,-9 20,-14 36,-14 14,0 26,5 35,15 9,9 13,23 13,41 0,12 -2,22 -6,30 -3,8 -9,15 -16,19 -7,5 -15,7 -26,7 -10,0 -19,-2 -25,-5 -6,-3 -12,-9 -16,-16 -5,-8 -8,-16 -9,-26l-17 0 0 45 -22 0 0 -108zm61 54c0,12 3,21 7,28 5,6 12,10 20,10 9,0 16,-4 20,-10 4,-6 7,-16 7,-29 0,-12 -3,-21 -8,-27 -5,-6 -12,-9 -20,-9 -7,0 -14,3 -19,9 -4,6 -7,15 -7,28z"/>
 </g>
</svg>
