<?xml version="1.0" encoding="UTF-8"?>
<!DOCTYPE svg PUBLIC "-//W3C//DTD SVG 1.1//EN" "http://www.w3.org/Graphics/SVG/1.1/DTD/svg11.dtd">
<!-- Creator: CorelDRAW X7 -->
<svg xmlns="http://www.w3.org/2000/svg" xml:space="preserve" width="75.4378mm" height="19.6426mm" version="1.1" style="shape-rendering:geometricPrecision; text-rendering:geometricPrecision; image-rendering:optimizeQuality; fill-rule:evenodd; clip-rule:evenodd"
viewBox="0 0 7544 1964"
 xmlns:xlink="http://www.w3.org/1999/xlink">
 <defs>
  <style type="text/css">
   <![CDATA[
    .str0 {stroke:#4D4D4D;stroke-width:33.86}
    .str8 {stroke:black;stroke-width:42.33}
    .str4 {stroke:#BD4D02;stroke-width:16.93}
    .str3 {stroke:#C75204;stroke-width:16.93}
    .str1 {stroke:#E35D04;stroke-width:16.93}
    .str5 {stroke:black;stroke-width:20}
    .str2 {stroke:#333333;stroke-width:20}
    .str6 {stroke:white;stroke-width:20}
    .str7 {stroke:#4D4D4D;stroke-width:25.39}
    .fil12 {fill:none}
    .fil0 {fill:black}
    .fil5 {fill:#00CCFF}
    .fil1 {fill:#1A1A1A}
    .fil2 {fill:#333333}
    .fil3 {fill:#4D4D4D}
    .fil7 {fill:#5B5B5B}
    .fil8 {fill:#666666}
    .fil15 {fill:#6B231C}
    .fil11 {fill:#990000}
    .fil16 {fill:#A30026}
    .fil13 {fill:#BD0006}
    .fil14 {fill:#CC0007}
    .fil18 {fill:#CCCCCC}
    .fil4 {fill:#CCFFCC}
    .fil17 {fill:#E6E6E6}
    .fil10 {fill:red}
    .fil6 {fill:#FFCC99}
    .fil9 {fill:white}
    .fil19 {fill:yellow;fill-rule:nonzero}
   ]]>
  </style>
 </defs>
 <g id="Слой_x0020_1">
  <metadata id="CorelCorpID_0Corel-Layer"/>
  <polygon class="fil0 str0" points="736,251 28,251 28,1901 736,1901 "/>
  <path class="fil1 str1" d="M375 1218c148,0 268,123 268,274 0,151 -120,274 -268,274 -148,0 -269,-123 -269,-274 0,-151 121,-274 269,-274z"/>
  <polygon class="fil2" points="753,236 994,424 991,1792 753,1916 "/>
  <path class="fil2 str2" d="M371 1379c59,0 107,49 107,110 0,60 -48,109 -107,109 -60,0 -108,-49 -108,-109 0,-61 48,-110 108,-110z"/>
  <path class="fil1 str3" d="M375 598c148,0 268,123 268,274 0,151 -120,273 -268,273 -148,0 -269,-122 -269,-273 0,-151 121,-274 269,-274z"/>
  <path class="fil2 str2" d="M371 759c59,0 107,49 107,109 0,61 -48,110 -107,110 -60,0 -108,-49 -108,-110 0,-60 48,-109 108,-109z"/>
  <polygon class="fil1 str4" points="654,317 99,317 99,536 654,536 "/>
  <path class="fil2 str5" d="M378 375c-35,0 -64,27 -64,59 0,32 29,58 64,58 36,0 65,-26 65,-58 0,-32 -29,-59 -65,-59z"/>
  <polygon class="fil3" points="28,1901 737,1901 737,1834 28,1834 "/>
  <path class="fil4 str6" d="M522 1416c3,0 4,3 4,7 0,5 -1,8 -4,8 -2,0 -3,-3 -3,-8 0,-4 1,-7 3,-7z"/>
  <path class="fil4 str6" d="M522 1525c3,0 4,2 4,4 0,2 -1,4 -4,4 -2,0 -3,-2 -3,-4 0,-2 1,-4 3,-4z"/>
  <path class="fil4 str6" d="M507 798c2,0 4,2 4,4 0,2 -2,4 -4,4 -2,0 -4,-2 -4,-4 0,-2 2,-4 4,-4z"/>
  <path class="fil4 str6" d="M507 915c2,0 4,2 4,4 0,2 -2,4 -4,4 -2,0 -4,-2 -4,-4 0,-2 2,-4 4,-4z"/>
  <polygon class="fil5" points="3766,-9 4046,658 4956,656 4218,1067 4501,1733 3766,1320 3031,1733 3314,1067 2577,656 3487,658 "/>
  <path class="fil6" d="M2903 559c142,0 256,116 256,261 0,144 -114,261 -256,261 -141,-1 -256,-117 -256,-261 0,-145 115,-261 256,-261z"/>
  <path class="fil7" d="M2903 559c116,0 213,78 245,185 5,52 -262,-26 -327,-128 -13,18 -134,116 -161,121 34,-103 130,-178 243,-178z"/>
  <path class="fil1" d="M2601 1132l80 2 221 546 215 -544 1 -2 0 0 0 0 82 -2c54,-1 99,47 99,105l0 552 -797 0 0 -552c0,-58 45,-107 99,-105z"/>
  <path class="fil0 str5" d="M2899 1507c4,0 7,4 7,8 0,4 -3,8 -7,8 -4,0 -7,-4 -7,-8 0,-4 3,-8 7,-8z"/>
  <polygon class="fil8" points="3119,1512 3249,1512 3249,1530 3119,1530 "/>
  <polygon class="fil9" points="3218,1469 3187,1435 3119,1512 3246,1512 "/>
  <polygon class="fil10" points="2897,1161 2763,1101 2775,1246 2890,1184 "/>
  <polygon class="fil10" points="2886,1157 3023,1108 3016,1250 2879,1177 "/>
  <polygon class="fil11" points="2875,1141 2914,1141 2914,1195 2875,1195 "/>
  <polygon class="fil9 str7" points="2564,1231 2684,1066 2827,1503 2785,1466 "/>
  <polygon class="fil9 str7" points="2647,1386 2746,1280 2879,1649 2834,1601 "/>
  <path class="fil0 str5" d="M2892 1311c-4,0 -7,4 -7,8 0,4 3,8 7,8 4,0 7,-4 7,-8 0,-4 -3,-8 -7,-8z"/>
  <path class="fil11" d="M2914 1141l-35 0c-2,0 -3,1 -3,3l0 28c0,2 1,3 3,3l35 0c2,0 3,-1 3,-3l0 -28c0,-2 -1,-3 -3,-3z"/>
  <polygon class="fil9 str7" points="3246,1222 3117,1073 2974,1508 3015,1467 "/>
  <polygon class="fil9 str7" points="3163,1402 3051,1282 2922,1652 2959,1620 "/>
  <polygon class="fil11" points="3097,1657 4497,1655 4642,1933 2938,1935 "/>
  <path class="fil12 str8" d="M3773 595c-131,0 -237,90 -237,201 0,110 106,200 237,200 131,0 237,-90 237,-200 0,-111 -106,-201 -237,-201z"/>
  <polygon class="fil0 str0" points="6850,210 7573,210 7573,1893 6850,1893 "/>
  <path class="fil1 str1" d="M7219 1197c-151,0 -274,125 -274,279 0,155 123,280 274,280 151,0 274,-125 274,-280 0,-154 -123,-279 -274,-279z"/>
  <path class="fil2 str2" d="M7219 1365c-60,0 -109,50 -109,111 0,62 49,112 109,112 61,0 110,-50 110,-112 0,-61 -49,-111 -110,-111z"/>
  <path class="fil1 str3" d="M7219 564c-151,0 -274,125 -274,279 0,155 123,280 274,280 151,0 274,-125 274,-280 0,-154 -123,-279 -274,-279z"/>
  <path class="fil2 str2" d="M7223 728c-60,0 -109,50 -109,112 0,62 49,112 109,112 61,0 110,-50 110,-112 0,-62 -49,-112 -110,-112z"/>
  <polygon class="fil1 str4" points="6934,277 7500,277 7500,501 6934,501 "/>
  <path class="fil2 str5" d="M7215 337c37,0 66,27 66,60 0,32 -29,59 -66,59 -36,0 -65,-27 -65,-59 0,-33 29,-60 65,-60z"/>
  <polygon class="fil2" points="6835,195 6587,386 6591,1782 6845,1912 "/>
  <polygon class="fil3" points="7573,1893 6850,1893 6850,1825 7573,1825 "/>
  <path class="fil6" d="M3771 607c123,0 222,99 222,222 0,122 -99,221 -222,221 -123,0 -223,-99 -223,-221 0,-123 100,-222 223,-222z"/>
  <path class="fil0" d="M3800 1049c-8,0 -16,1 -24,1 -8,0 -16,-1 -24,-1l-23 -41 94 0 -23 41z"/>
  <path class="fil2" d="M3774 607c137,-3 234,148 218,244 -1,12 -3,109 -3,95 -2,-63 -256,-241 -286,-289 -12,15 -119,93 -142,98 29,-89 115,-148 213,-148z"/>
  <polygon class="fil11" points="3577,1104 3645,1104 3645,1161 3750,1131 3796,1131 3901,1161 3901,1104 3974,1104 3992,1416 3577,1393 "/>
  <path class="fil13" d="M3524 1102l68 2 185 252 185 -252 70 -2c46,-1 84,39 84,86l0 453 -676 0 0 -453c0,-47 38,-87 84,-86z"/>
  <polygon class="fil14" points="4120,1565 4120,1736 3443,1736 3443,1565 "/>
  <polygon class="fil14" points="4116,1359 4116,1519 3440,1519 3440,1359 "/>
  <path class="fil14" d="M3612 1132l118 160 -290 0 0 -104c0,-21 7,-41 20,-56l152 0zm212 160l118 -160 154 0c13,15 20,35 20,56l0 104 -292 0z"/>
  <path class="fil6" d="M4597 648c137,0 248,103 248,230 0,128 -111,231 -248,231 -137,0 -248,-103 -248,-231 0,-127 111,-230 248,-230z"/>
  <path class="fil15" d="M4497 657c-31,15 -10,3 -39,21l-13 8c-4,3 -3,2 -8,5 -3,3 -3,3 -6,6 -20,25 -32,26 -57,72 -4,8 -8,21 -12,29 0,6 -1,4 7,3l80 -17c62,-16 202,-51 230,-95l36 29c27,21 69,51 99,68l16 9c9,1 3,1 6,-2 -34,-91 -126,-152 -227,-156 -59,-2 -71,10 -112,20z"/>
  <path class="fil15" d="M4479 931c-9,11 -9,30 -1,43 19,32 90,48 118,4 6,4 27,42 88,20 44,-16 43,-59 30,-67 -3,6 0,9 -7,14 -28,23 -64,-46 -109,-7 -9,-3 -31,-24 -67,-1 -49,31 -50,-3 -52,-6z"/>
  <polygon class="fil16" points="4421,566 4784,568 4783,704 4420,702 "/>
  <path class="fil17" d="M4330 1152l548 0c32,0 59,27 59,59l0 574c0,32 -27,59 -59,59l-548 0c-32,0 -59,-27 -59,-59l0 -574c0,-32 27,-59 59,-59z"/>
  <path class="fil2" d="M4732 1302c11,0 20,8 20,17 0,9 -9,16 -20,16 -10,0 -19,-7 -19,-16 0,-9 9,-17 19,-17z"/>
  <path class="fil2" d="M4732 1442c11,0 20,7 20,16 0,9 -9,16 -20,16 -10,0 -19,-7 -19,-16 0,-9 9,-16 19,-16z"/>
  <path class="fil2" d="M4732 1588c11,0 20,7 20,16 0,9 -9,17 -20,17 -10,0 -19,-8 -19,-17 0,-9 9,-16 19,-16z"/>
  <path class="fil2" d="M4732 1734c11,0 20,8 20,17 0,9 -9,16 -20,16 -10,0 -19,-7 -19,-16 0,-9 9,-17 19,-17z"/>
  <path class="fil2" d="M4457 1302c11,0 20,8 20,17 0,9 -9,16 -20,16 -11,0 -19,-7 -19,-16 0,-9 8,-17 19,-17z"/>
  <path class="fil2" d="M4457 1442c11,0 20,7 20,16 0,9 -9,16 -20,16 -11,0 -19,-7 -19,-16 0,-9 8,-16 19,-16z"/>
  <path class="fil2" d="M4457 1588c11,0 20,7 20,16 0,9 -9,17 -20,17 -11,0 -19,-8 -19,-17 0,-9 8,-16 19,-16z"/>
  <path class="fil2" d="M4457 1734c11,0 20,8 20,17 0,9 -9,16 -20,16 -11,0 -19,-7 -19,-16 0,-9 8,-17 19,-17z"/>
  <polygon class="fil16" points="4271,1789 4935,1789 4935,1932 4271,1932 "/>
  <polygon class="fil16" points="4491,1249 4496,1249 4723,1210 4496,1281 4496,1785 4485,1785 "/>
  <polygon class="fil16" points="4471,1141 4673,1152 4465,1247 4493,1183 4578,1174 4585,1184 4597,1212 4699,1209 4661,1182 4474,1164 "/>
  <rect class="fil1" x="2502" y="1736" width="542" height="196"/>
  <polygon class="fil3" points="3793,1625 3154,1625 2967,1932 3751,1932 "/>
  <path class="fil0 str5" d="M3333 1618c160,0 290,65 290,144 0,80 -130,144 -290,144 -160,0 -290,-64 -290,-144 0,-79 130,-144 290,-144z"/>
  <path class="fil11 str5" d="M3335 1683c63,0 114,27 114,60 0,34 -51,61 -114,61 -63,0 -115,-27 -115,-61 0,-33 52,-60 115,-60z"/>
  <polygon class="fil18" points="3694,1644 3770,1644 3770,1718 3694,1718 "/>
  <polygon class="fil18" points="3746,1644 3442,1644 3442,1664 3746,1664 "/>
  <path class="fil8 str5" d="M3720 1747c14,0 25,6 25,14 0,7 -11,13 -25,13 -13,0 -24,-6 -24,-13 0,-8 11,-14 24,-14z"/>
  <path class="fil8 str5" d="M3700 1803c17,0 31,7 31,15 0,9 -14,16 -31,16 -17,0 -31,-7 -31,-16 0,-8 14,-15 31,-15z"/>
  <path class="fil8 str5" d="M3675 1866c-24,0 -42,8 -42,17 0,10 18,18 42,18 23,0 42,-8 42,-18 0,-9 -19,-17 -42,-17z"/>
  <polygon class="fil12 str5" points="3453,1675 3411,1675 3411,1636 3453,1636 "/>
  <polygon class="fil3 str5" points="3466,1632 3385,1632 3385,1655 3466,1655 "/>
  <polygon class="fil12" points="3716,1625 4623,1625 4623,1948 3716,1948 "/>
  <polygon class="fil3" points="3825,1643 4423,1625 4596,1932 3803,1927 "/>
  <path class="fil0 str5" d="M4257 1618c-148,0 -269,65 -269,144 0,80 121,144 269,144 148,0 268,-64 268,-144 0,-79 -120,-144 -268,-144z"/>
  <path class="fil11 str5" d="M4255 1683c-58,0 -106,27 -106,60 0,34 48,61 106,61 59,0 106,-27 106,-61 0,-33 -47,-60 -106,-60z"/>
  <path class="fil0 str5" d="M4255 1730c-4,0 -7,3 -7,6 0,4 3,7 7,7 4,0 7,-3 7,-7 0,-3 -3,-6 -7,-6z"/>
  <polygon class="fil18" points="3923,1644 3853,1644 3853,1718 3923,1718 "/>
  <polygon class="fil18" points="3875,1644 4156,1644 4156,1664 3875,1664 "/>
  <path class="fil8 str5" d="M3898 1747c-12,0 -22,6 -22,14 0,7 10,13 22,13 13,0 23,-6 23,-13 0,-8 -10,-14 -23,-14z"/>
  <path class="fil8 str5" d="M3917 1803c-15,0 -28,7 -28,15 0,9 13,16 28,16 16,0 29,-7 29,-16 0,-8 -13,-15 -29,-15z"/>
  <path class="fil8 str5" d="M3941 1866c21,0 39,8 39,17 0,10 -18,18 -39,18 -22,0 -39,-8 -39,-18 0,-9 17,-17 39,-17z"/>
  <polygon class="fil12 str5" points="4146,1675 4185,1675 4185,1636 4146,1636 "/>
  <polygon class="fil3 str5" points="4134,1632 4209,1632 4209,1655 4134,1655 "/>
  <polygon class="fil2" points="3536,753 3495,753 3495,907 3536,907 "/>
  <polygon class="fil11" points="3503,753 3511,753 3511,907 3503,907 "/>
  <polygon class="fil0 str5" points="3561,750 3536,750 3536,911 3561,911 "/>
  <polygon class="fil2" points="4011,753 4053,753 4053,907 4011,907 "/>
  <polygon class="fil11" points="4045,753 4037,753 4037,907 4045,907 "/>
  <polygon class="fil0 str5" points="3984,750 4010,750 4010,911 3984,911 "/>
  <path class="fil4 str6" d="M7056 770c2,0 3,2 3,4 0,2 -1,4 -3,4 -2,0 -4,-2 -4,-4 0,-2 2,-4 4,-4z"/>
  <path class="fil4 str6" d="M7056 895c2,0 3,4 3,8 0,4 -1,8 -3,8 -2,0 -4,-4 -4,-8 0,-4 2,-8 4,-8z"/>
  <path class="fil4 str6" d="M7048 1536c2,0 4,2 4,4 0,2 -2,4 -4,4 -2,0 -4,-2 -4,-4 0,-2 2,-4 4,-4z"/>
  <path class="fil4 str6" d="M7048 1388c2,0 4,1 4,4 0,2 -2,3 -4,3 -2,0 -4,-1 -4,-3 0,-3 2,-4 4,-4z"/>
  <polygon class="fil2" points="4927,1426 5277,1426 5277,1853 4927,1853 "/>
  <path class="fil18" d="M5037 1596l0 85 -7 0 0 -59 -36 59 -2 0 -21 -60 -17 60 -9 0 24 -85 1 0 24 69 42 -69 1 0zm79 55l-54 0c0,7 2,13 5,17 4,5 9,7 16,7 4,0 8,-1 12,-3 3,-2 7,-4 9,-7l6 4c-3,4 -7,7 -12,10 -5,2 -10,3 -15,3 -10,0 -17,-3 -22,-9 -5,-6 -7,-13 -7,-20 0,-6 2,-12 5,-18 3,-6 7,-10 13,-13 5,-4 11,-5 17,-5 8,0 15,3 20,8 5,5 8,12 8,20 0,2 -1,4 -1,6zm-7 -7c0,-6 -2,-11 -6,-14 -4,-4 -8,-6 -14,-6 -6,0 -11,2 -16,6 -5,3 -8,8 -10,14l46 0zm27 -26l8 0 -2 10c6,-7 14,-11 22,-11 6,0 11,2 15,6 4,4 6,9 6,16 0,2 0,7 -1,13l-4 29 -8 0 4 -29c1,-6 1,-11 1,-13 0,-5 -1,-8 -4,-11 -2,-3 -6,-4 -10,-4 -4,0 -8,1 -11,3 -4,2 -7,5 -9,9 -2,4 -3,10 -4,18l-4 27 -7 0 8 -63zm74 0l8 0 -4 26c-1,8 -2,13 -2,15 0,5 2,8 5,11 3,3 6,5 11,5 4,0 7,-1 10,-4 3,-2 5,-5 6,-9 1,-2 2,-6 2,-13l5 -31 7 0 -3 24c-1,11 -3,19 -4,24 -2,5 -5,8 -9,12 -4,3 -9,4 -14,4 -7,0 -13,-2 -17,-6 -4,-5 -6,-10 -6,-17 0,-3 0,-6 1,-9l0 -6 0 -2 4 -24z"/>
  <polygon class="fil18" points="4941,1555 5262,1555 5262,1565 4941,1565 "/>
  <polygon class="fil18" points="4941,1711 5262,1711 5262,1721 4941,1721 "/>
  <path class="fil0 str5" d="M3332 1730c-4,0 -7,3 -7,6 0,4 3,7 7,7 4,0 7,-3 7,-7 0,-3 -3,-6 -7,-6z"/>
  <path class="fil19" d="M4752 1241l0 0c0,1 0,2 0,2l0 0 0 -1c1,0 1,-1 1,-1l1 0 0 1c0,0 0,0 0,0l1 0c0,0 0,0 1,2 0,5 -1,11 -3,16l0 1c0,1 0,1 0,2 0,0 0,1 0,1 0,1 -1,2 -1,4 0,0 0,0 0,0l0 2 -3 2 -3 0 -1 0c0,0 0,0 0,0l0 -1c0,-1 -1,-2 -1,-2l0 0c0,-1 0,-1 0,-1 0,-3 1,-6 2,-7 -1,-1 -1,-2 -1,-2l1 0c-1,-1 -1,-2 -1,-2l0 0c0,-2 -2,-4 -3,-6 -3,-1 -5,-2 -6,-2l-2 0c-3,0 -5,0 -6,2l-1 0 0 0c-3,2 -4,3 -4,4 -1,1 -2,3 -2,7 0,0 -1,0 -1,1l0 1c2,3 4,6 7,7 1,1 5,3 12,6 3,1 6,3 11,6 4,2 5,4 5,6l0 0 0 1c0,1 0,2 -1,3 0,1 -3,2 -9,3 -1,0 -2,1 -2,1 0,0 0,0 0,0 -2,0 -3,0 -3,0 0,0 0,0 0,0l-2 0 -4 0c-9,-1 -14,-2 -15,-3 -4,0 -7,-1 -10,-3l-1 -1 0 -1c1,-2 3,-3 5,-3 1,-1 1,-1 1,-1l1 0 0 0c0,0 0,0 0,0 1,-1 4,-1 8,-1 0,0 1,0 1,0l1 0c1,0 2,0 2,0l0 1c-1,0 -1,0 -1,0 0,0 1,0 1,1l0 0c0,0 0,0 0,1 -1,0 -2,0 -2,0 -3,0 -5,0 -5,1 0,0 0,0 -1,1l0 0c8,4 15,6 21,6 5,0 7,-2 7,-3 1,-1 1,-1 1,-1 -1,-3 -5,-5 -11,-8 -1,0 -1,0 -1,0l-1 0c-5,-2 -9,-4 -12,-5 -2,-1 -4,-2 -6,-4 -2,-2 -3,-2 -3,-3l0 0 -1 0c-1,-1 -1,-3 -2,-5 0,-2 -1,-2 -1,-2 1,-3 1,-4 1,-5l0 0c0,0 0,-1 1,-2 0,-1 1,-1 1,-1 0,-1 2,-2 5,-5 2,-1 4,-2 7,-3 0,-1 2,-1 6,-2l0 0c1,0 3,0 5,0 0,0 0,0 1,0 0,0 0,0 0,0l1 0 1 0 1 0 1 0c3,1 5,1 7,2 0,0 0,-1 0,-2l0 -2 0 0c0,-1 0,-1 0,-1l1 0c1,0 1,1 1,1l0 0c0,-1 0,-2 1,-2 0,0 0,0 0,1l0 0 0 1c0,0 0,0 0,0l1 0c-1,-1 -1,-2 -1,-2l1 -1zm-1 7l0 1c0,0 0,0 0,0 0,1 0,1 0,1 0,2 0,4 0,5l0 0 0 0c0,-2 1,-4 1,-7l0 -1 0 -1 0 0c0,0 -1,1 -1,2zm-9 1c0,0 2,1 5,2 0,0 0,1 0,1l0 -1c0,0 -1,-1 -5,-2l0 0zm-1 0l0 0c0,0 1,1 2,2l0 0c0,-1 -1,-1 -2,-2l0 0zm3 1c0,0 1,1 2,2l0 0 -2 -2 0 0zm-22 2l0 0 2 -1 0 0c-1,0 -2,1 -2,1zm31 -1c0,1 0,2 0,3l0 0c0,0 0,-1 1,-3l-1 0zm-3 1c0,0 0,2 -1,5 1,0 1,-2 1,-5l0 0zm-5 2l0 0c1,1 1,2 1,2 0,-2 0,-2 -1,-2zm-25 0c0,0 -1,1 -1,2l0 0c0,0 1,-1 1,-2l0 0zm27 1c0,0 0,1 0,1l1 0c0,-1 0,-1 0,-1 0,0 0,0 0,-1l-1 0 0 1zm-33 2l1 -2 1 0 0 0 0 0c-1,0 -1,1 -2,2zm37 -2l0 1 0 1 0 0 0 -2 0 0 0 0zm-5 2l0 1c0,0 0,0 0,0l1 0 0 0c-1,-1 -1,-1 -1,-1l0 0zm-33 0l0 1 0 1 0 0 0 -1 0 -1 0 0zm6 1l0 1 0 0c0,0 0,0 0,-1l0 0zm0 1c0,1 0,1 0,2l0 0c0,0 0,1 0,1l0 0 0 0c0,-1 1,-2 1,-3l0 0 -1 0zm30 0l-1 3 0 0 0 0c0,0 1,-1 1,-2l0 -1 0 0zm0 1c0,0 0,1 0,1l0 0 1 0c0,0 0,0 0,0 0,-1 0,-1 0,-1l-1 0zm-31 1l0 1 0 1 1 0 0 -1c0,0 -1,-1 -1,-1l0 0zm30 6c0,2 0,3 0,4l1 0c-1,-1 -1,-2 -1,-2 0,-2 0,-5 1,-8 -1,1 -1,3 -1,6zm-32 -5l0 1c0,3 1,5 2,6l0 0c-1,-2 -1,-3 -1,-4l0 0c-1,-2 -1,-3 -1,-3zm-1 0l0 1c0,0 0,0 0,0l0 0c0,-1 0,-1 0,-1zm34 4l0 2 0 2 0 0 0 -1c0,-1 0,-1 0,-2l1 -4c-1,1 -1,2 -1,3zm-36 -2l0 0c0,1 0,2 1,4 1,0 1,0 1,-1 -1,-2 -1,-3 -2,-3l0 0zm2 0l0 1c0,1 1,1 1,1l0 0c0,-1 0,-1 0,-2l-1 0zm3 1c0,0 0,1 0,1l0 0c0,0 1,0 1,0l-1 -1zm28 0c-1,1 -1,1 -1,1l1 0 0 -1 0 0zm1 2l0 1 0 0 0 -1 0 0zm-31 1l0 1c1,1 2,1 2,2l0 0c-1,-2 -1,-2 -1,-3l-1 0zm30 1c0,0 0,1 0,1 0,0 1,0 1,0l0 0c0,0 0,0 0,0 0,0 0,-1 0,-1l-1 0zm-27 1l0 0c0,0 1,1 1,1 0,0 0,0 0,-1l-1 0zm4 0c0,1 1,2 3,3l0 0 0 -1c-1,0 -2,0 -3,-2l0 0 0 0zm-2 2l0 0c1,1 2,2 3,2l1 2 1 -1 1 1 0 0 0 -1c-1,0 -2,-1 -3,-1 -1,-1 -2,-2 -3,-2l0 0zm-1 0c0,1 0,1 1,1 0,0 0,0 -1,-1l0 0zm-2 0l0 1c0,0 0,0 1,0l0 0 0 0c0,0 0,0 -1,-1zm1 1c1,1 2,2 3,3l0 0c0,0 0,-1 0,-1l0 0c0,0 -1,-1 -2,-1l0 -1 -1 0zm6 0l0 1c0,0 1,0 3,2l0 0c0,0 1,-1 1,-1 -2,-1 -3,-1 -3,-1l0 0 0 -1 -1 0zm3 1l0 0c2,1 2,2 2,2l1 0c0,0 1,0 1,0l0 0c0,0 0,0 -1,0 0,0 0,0 0,0 -1,-1 -2,-1 -3,-2zm5 2l0 0 1 0 0 1 0 0c0,0 0,0 1,1l0 -1c-1,0 -1,0 -1,0l0 0c2,1 3,1 3,1l0 0c1,0 1,1 1,1l0 0 0 -1c-1,0 -3,-1 -4,-2 0,0 0,0 0,0l-1 0zm-9 0l0 1c0,0 1,0 3,1 0,0 -1,-1 -3,-2zm6 2l0 0c2,2 5,3 7,4l2 1 1 0 0 -1 -6 -2c-1,-1 -2,-1 -4,-2 0,0 0,0 0,0l0 0zm6 1l0 1c0,0 2,1 5,3l1 0 0 0 0 0c-1,-1 -3,-2 -5,-3 0,0 0,0 -1,-1l0 0zm6 3c0,1 1,1 3,3l0 0c0,-1 -1,-2 -2,-3l-1 0zm-20 3c0,0 1,0 1,0l0 0c1,0 1,0 1,0l0 0c0,0 -1,0 -1,0 0,0 0,0 -1,0zm24 0c0,1 1,2 2,3 -1,-2 -1,-2 -1,-3l-1 0zm-31 2l0 0 0 0c1,0 2,-1 5,-1l0 0 -1 0c-2,0 -4,0 -4,1zm38 0l0 1 0 0 0 0c0,1 0,1 0,1l1 0 0 0c-1,-1 -1,-2 -1,-2l0 0zm-4 0c1,1 1,2 2,3 0,-1 -1,-1 -1,-3l-1 0zm-34 2l0 0c1,1 1,1 1,1l0 0 0 0 0 0 0 -1c1,0 1,-1 1,-1l0 0c-1,0 -1,1 -1,1 0,-1 0,-1 1,-1l0 0 -1 0c-1,0 -1,0 -1,1zm-4 0c0,0 0,0 0,0l0 0c1,0 1,0 1,0l0 -1 -1 1zm38 -1c0,1 0,2 0,3l0 0c0,0 0,-1 0,-3l0 0zm-37 1c0,1 0,1 0,1l1 0 0 -1c0,0 -1,0 -1,0zm3 1c0,1 0,1 2,1 0,0 -1,0 -2,-1l0 0zm5 1l0 1 1 0 0 0 0 0c0,0 0,0 -1,-1zm-2 1l0 1 1 0c0,0 0,0 0,0 0,0 -1,0 -1,-1zm7 2c0,0 1,1 4,1 -1,-1 -2,-1 -4,-1zm0 1l0 0c0,0 1,0 2,0l0 0 0 0c0,0 -1,0 -2,0 0,0 0,0 0,0 0,0 0,0 0,0z"/>
  <path id="_1" class="fil19" d="M4768 1253l1 0c0,0 0,1 0,2l0 2c0,0 0,0 0,0l0 0 0 1c0,0 0,0 0,0 0,0 0,0 0,0 0,6 -1,10 -2,13l-2 9 0 0 0 0c1,-1 2,-2 2,-2 0,0 1,-1 3,-2 2,-1 2,-1 3,-1 1,0 3,1 3,3 0,0 0,0 0,1l0 0c0,1 1,2 1,3 0,0 0,1 -1,1 1,0 1,2 1,4l0 0c0,4 1,6 2,6 0,0 2,-1 3,-3l0 1c-1,3 -3,4 -5,4l-1 0 0 0 0 0c-2,-1 -3,-3 -4,-5 0,0 0,-1 0,-2l0 -1c0,0 -1,0 -1,0 0,0 1,0 1,0 -1,-5 -1,-8 -1,-9 -1,0 -2,2 -4,4 -2,3 -3,6 -3,10l0 0c0,1 0,2 0,3 -1,0 -1,0 -1,0 0,0 -1,0 -2,0l0 0 0 1 0 -1 1 0 0 0 -1 2 0 0c0,0 -1,-1 -1,-2l0 0 0 1 -1 0c0,-1 0,-1 0,-3l0 0c0,0 0,-1 0,-1l0 0 1 0 0 0c-1,0 -1,0 -1,-1l0 0c0,0 0,-1 0,-1l0 -1 0 -1 0 -1c0,0 0,-1 0,-1l0 0 0 0c0,-1 0,-3 1,-7l1 -4c-1,0 -1,0 -1,0 1,-1 1,-1 1,-1l0 0c0,-1 1,-4 2,-10l0 0c0,0 0,0 0,0 1,-5 1,-7 1,-8l0 -1c0,0 0,-1 0,-1l1 0 0 0c0,0 1,-1 1,-1 0,1 0,1 0,2l1 0c0,-1 0,-1 0,-1l0 0c1,0 1,-1 1,-1zm-3 5c0,2 -1,5 -1,10l0 0 0 -1 0 -1 -1 0c0,0 0,0 0,0 0,0 0,1 0,1 -1,5 -2,8 -2,8 0,0 0,0 0,0l-1 11c0,0 0,0 0,0 0,1 -1,2 -1,3l0 1 1 0c0,-4 1,-7 1,-8 0,0 0,0 0,0 0,-1 1,-3 2,-7 -1,-1 -1,-1 -1,-1 0,0 1,-1 1,-1l0 0 0 1 0 0c0,0 0,-1 0,-2 0,0 0,0 0,-1l0 0 0 0 0 0c0,0 1,-1 2,-5 0,-1 0,-2 0,-3 0,-1 0,-1 0,-1l0 -1 0 -2 1 -1 -1 0zm3 1l0 1 0 0 0 -2c0,0 0,0 0,1zm0 4l0 1 0 1 0 0c0,-1 0,-1 1,-1 -1,0 -1,-1 -1,-1l0 0zm-4 5l0 0 0 0c-1,1 -1,2 -1,2l0 0c0,-1 1,-2 1,-2zm0 6l0 1 0 0 0 0 1 -1 0 0 -1 0zm0 1l-1 4 1 0 0 -3 0 -1zm9 2c0,0 0,0 0,0 0,1 1,1 1,1l0 0c0,-1 0,-1 -1,-1zm-10 2l0 0c0,0 0,0 0,-1 0,0 0,1 0,1zm-1 1c0,2 0,3 0,3l0 0c0,0 0,-1 1,-3l0 0 -1 0zm11 2c0,0 0,1 0,2l0 0 0 -1 0 -1 0 0zm1 1l0 3 1 1 -1 0c1,3 1,5 2,5l0 0c0,-1 0,-1 0,-1 0,-1 0,-1 0,-1 -1,0 -1,-1 -1,-3l0 0c0,-2 0,-3 0,-3 0,0 0,0 0,-1l0 0c0,0 0,0 -1,0zm2 2l0 0 0 0c0,0 0,1 0,1l0 1c0,0 0,0 0,0 0,0 0,1 0,1l0 0 0 -3c0,0 0,0 0,0zm-3 0c0,0 0,1 0,2l0 0c0,0 0,0 1,-1l0 0c0,1 0,2 0,3l0 0c0,0 0,1 0,1l1 0c-1,0 -1,-1 -1,-1l1 0c-1,-2 -1,-3 -1,-3 -1,-1 -1,-1 -1,-1zm-11 4l0 0 0 0 0 -2c0,0 0,1 0,2zm14 -1l0 0c0,3 0,4 1,4l0 0c-1,-2 -1,-3 -1,-4l0 0zm-16 8l0 0 0 1 0 0 0 -1z"/>
  <path id="_2" class="fil19" d="M4795 1277l0 0c0,0 0,0 0,0 3,1 5,1 5,2l0 0c-1,0 -1,0 -1,0l0 0c-2,0 -3,1 -3,1l-1 0c0,0 -1,0 -1,-1 -1,0 -1,0 -1,0 -1,0 -2,0 -3,1l0 1 -1 -1c0,1 0,1 -1,2 0,1 -1,2 -2,3 -1,1 -1,2 -1,3 0,1 0,1 0,2l0 0c0,1 1,2 2,3 2,-1 3,-1 3,-2 1,0 2,-2 3,-6 0,0 0,-1 0,-2l0 -1 0 0c2,0 3,0 4,-1l1 0 0 1c0,1 -1,3 -1,5l0 0 0 0c0,0 0,1 0,1 0,0 0,1 0,3 0,0 0,0 0,0 1,0 1,0 1,0 0,0 0,0 -1,0 1,1 1,1 1,2l2 0 3 -3 1 -1 1 0 0 1 -1 1 0 0c0,0 1,0 1,1l0 0c-1,1 -2,2 -4,3 -1,1 -3,2 -4,2 0,0 -2,-2 -4,-4l0 0 1 -1 0 0c-4,3 -6,4 -8,4 0,0 -1,0 -2,0 -2,0 -4,-1 -4,-2 0,0 0,-1 0,-3 0,-1 0,-3 0,-4l0 0c0,-1 1,-1 1,-1l0 -1c0,-2 2,-3 5,-5 3,-2 6,-3 9,-3zm-12 7l-1 1 0 0c0,0 1,0 1,0 0,0 0,0 0,-1 0,0 0,0 0,0 0,0 0,0 0,0l0 0zm-1 2l0 1 0 1c0,0 0,-1 0,-1l0 -1 0 0zm12 1c0,1 0,1 0,1l0 1 0 0 0 -2 0 0zm0 3l0 0c1,-1 1,-2 1,-2 0,0 0,1 -1,2zm-10 -1l0 1 0 0 0 0 0 -1 0 0zm-3 1l0 2c1,0 1,0 1,1l0 0 0 -1c0,0 0,-1 -1,-2l0 0zm12 2l0 0 0 0c1,-1 2,-1 2,-1l0 0 -1 0c0,0 -1,1 -1,1z"/>
  <path id="_3" class="fil19" d="M4813 1274c0,0 0,0 1,1 -2,2 -3,7 -4,15l0 2c0,0 0,1 0,1 1,0 3,-3 6,-9 1,-4 2,-7 3,-8l0 0 1 0c0,0 1,0 2,0 0,0 0,0 0,0l2 0 0 0c-1,2 -2,6 -3,12 0,0 0,0 0,1l0 0 0 0 0 0c0,0 0,0 0,0 1,2 1,3 1,4l1 0c1,0 2,-2 5,-5 0,0 0,1 0,1l-1 1 0 0c1,0 1,0 2,0l0 0 -1 1 1 0c-2,3 -5,4 -7,4 0,0 0,1 -1,1 -3,-1 -4,-2 -4,-3 0,0 -1,-1 -1,-3 -3,4 -5,6 -7,6 0,0 -1,0 -1,0 -3,0 -4,-1 -4,-3l0 0c0,0 -1,-1 -1,-3 1,-3 1,-5 2,-6 0,-3 1,-5 2,-5l0 -1c0,-2 1,-3 1,-4l1 0 0 1 1 0c1,-1 2,-1 3,-1zm-1 1l-1 3 0 0c1,-1 1,-2 1,-3l0 0 0 0zm-4 7l0 0 1 -4 0 0c0,0 0,1 -1,4zm12 -3c-1,2 -1,3 -1,4l0 0 1 -4 0 0zm-10 1c0,1 0,2 0,2l0 0c0,0 1,0 1,-2l-1 0zm8 1c0,0 0,1 -1,1l-2 5 0 0 0 0c1,-1 2,-3 3,-4 0,0 0,0 0,0l0 -1c0,0 0,-1 0,-1l0 0zm2 1c-1,2 -1,3 -1,3l0 1c0,1 0,1 0,1l0 0 0 1 0 0 0 0c0,0 0,-1 1,-2l0 0c0,-1 0,-2 0,-4l0 0zm-13 0c-1,1 -1,1 -1,1l0 1 1 0c0,-1 0,-1 0,-2l0 0zm1 1c0,0 0,0 0,-1 0,0 0,1 0,1zm10 1l0 0 0 0c0,0 0,0 1,-1 -1,0 -1,0 -1,1zm-1 3c0,0 -1,1 -2,3l0 0 1 -1c0,0 0,0 0,0 1,0 1,-1 1,-2l0 0 0 0zm-10 0l0 0 0 1 0 0 0 2 0 0c0,-1 0,-1 1,-2l-1 0 1 -1c0,0 -1,0 -1,0zm13 1c0,1 0,1 0,1 0,0 0,1 0,2l0 0 0 0 0 -1c0,-1 0,-2 0,-2l0 0 0 0zm-1 0c0,0 -1,0 -1,1l1 2 0 0 0 -2c0,-1 0,-1 0,-1zm-14 1l0 2c0,0 1,1 1,2 0,0 0,0 0,0 0,1 0,1 1,2l0 0 1 0c0,0 -1,-1 -1,-1 -1,-2 -1,-3 -1,-4l0 -1 0 0 -1 0zm12 0c0,0 0,0 0,0l0 1 0 0c0,2 1,3 2,3 -1,-1 -1,-1 -1,-2l0 0 0 0 0 0 0 0c0,0 0,-1 0,-1 0,0 0,-1 0,-1l-1 0zm-12 2c0,0 0,1 -1,1 1,0 1,1 1,1l0 0 0 0 0 -2 0 0zm15 1l0 0c0,1 0,2 1,2l1 0 0 0c-1,0 -1,0 -1,-1 0,0 -1,0 -1,-1z"/>
  <path id="_4" class="fil19" d="M4833 1272c6,0 10,1 12,4 0,1 0,2 0,3 0,1 -1,4 -2,8 0,0 0,1 -1,2l0 2c1,1 1,2 1,2 1,0 2,-1 4,-3 1,-1 1,-2 2,-2l-1 2 0 0c0,0 1,0 1,-1l1 0 0 0 -1 1 0 0 1 0c-3,4 -6,6 -10,6 -3,-1 -4,-1 -4,-2 0,0 0,-1 -1,-2 0,-3 1,-8 4,-14l0 -1c0,-1 -1,-1 -4,-1 -2,0 -2,0 -2,1 0,0 0,0 0,0l0 1c0,1 0,1 0,1 -3,1 -4,1 -4,1l-1 0c0,0 0,0 0,-2 0,0 -1,0 -1,-1 0,-2 1,-3 3,-4 1,0 2,-1 3,-1zm-2 4l0 0c1,-1 1,-1 2,-1l0 0c-1,0 -2,1 -2,1zm-1 1l0 1c0,0 0,0 0,0l1 0c0,0 0,0 0,0 0,-1 0,-1 -1,-1zm10 2c-1,1 -1,2 -1,2l0 0c1,0 1,-1 1,-2l0 0 0 0zm2 0c-1,3 -2,5 -2,5 1,0 1,-1 2,-4l0 -1zm-2 1c0,1 0,2 0,3l0 0c0,0 0,-1 1,-3l-1 0zm3 2l0 -1c0,1 0,1 0,1 0,0 0,0 0,0 0,1 0,1 -1,1l1 1c0,0 -1,1 -1,1l0 1 0 0c1,-3 2,-5 2,-6l0 0c0,0 -1,1 -1,2zm-3 3c-1,1 -1,2 -1,2l1 0c0,0 0,-1 0,-2l0 0zm-3 1c-1,3 -1,4 -1,4 1,0 1,0 1,1 0,0 -1,1 -1,1 1,0 1,0 1,0l0 0 0 -2 0 0c0,0 0,-2 0,-4l0 0zm4 3c0,1 0,1 0,1l0 0c0,0 0,-1 1,-1l0 0 0 -2c0,0 -1,1 -1,2zm-1 2l0 0 0 1 1 0c0,0 0,0 0,-1l-1 0zm-1 2l0 0c0,1 0,1 0,1l0 0 0 0c0,-1 0,-1 0,-1z"/>
  <path id="_5" class="fil19" d="M4855 1272c0,0 0,1 0,1l1 -1 0 0c0,0 1,0 1,1l0 2c0,1 -1,3 -3,8 -1,3 -1,4 -1,6 0,1 0,2 0,3l1 0c1,-1 2,-4 4,-9 2,-4 3,-7 3,-7 0,-2 2,-3 4,-3 0,0 0,0 1,0l0 1c0,1 -1,5 -2,11 -1,2 -1,3 -1,3l1 1 0 0c0,0 1,-1 2,-3 0,0 1,-1 3,-3l1 -5c0,-2 2,-4 6,-5l0 0 0 1 0 1c0,1 -1,4 -2,10 -1,1 -1,1 -1,2l0 2c1,1 1,2 1,2 1,0 3,-2 6,-6l0 0 0 0c0,1 -1,2 -1,2l1 0c0,-1 1,-1 1,-2l0 0 0 1c0,0 0,1 -1,2l1 0 1 -1 1 0c0,0 0,1 -1,1l0 0 0 0c-2,2 -4,4 -6,5 -2,1 -2,1 -3,2l0 0c0,-1 -1,-1 -3,-1 -1,-1 -2,-2 -2,-4l-1 -1c-2,4 -3,5 -5,5l-2 0c0,0 -1,-1 -2,-2 0,-1 0,-1 0,-1 -1,2 -3,3 -6,4l-1 0 0 0c0,0 -1,0 -1,0 -2,0 -3,-1 -3,-4l0 -2c0,0 0,-1 0,-1l0 0c1,-4 2,-7 3,-11 1,-1 2,-2 2,-4l0 0c0,0 1,0 1,1 0,0 1,-1 2,-2l0 0zm19 3l0 1 0 0 0 -1 0 0zm-12 4l0 1c0,0 0,-2 1,-4 0,0 -1,1 -1,3zm-8 -3c0,0 -1,1 -1,3 -2,2 -2,4 -2,4l0 0 0 0c0,0 1,-2 2,-5 1,0 1,-1 1,-2l0 0zm7 1l-1 4 0 0 0 0c0,0 1,-2 2,-4l-1 0zm-9 1l0 0 0 0c0,0 1,0 1,-1l0 0c-1,0 -1,0 -1,1zm21 2l-1 0 0 1 1 0 0 -1 0 0 0 0zm-20 0c0,0 0,1 0,1l0 1 0 0 0 -2 0 0zm18 0c0,1 -1,2 -2,4l1 0 0 0 1 -4 0 0zm1 3l1 0c0,0 0,-1 1,-3l0 0c-1,0 -1,1 -2,3zm-10 -3c-1,1 -1,1 -1,2 -1,0 -1,0 -1,-1 0,0 0,1 -1,3l0 0c1,0 1,0 1,-2 0,0 0,0 1,1 -1,0 -1,1 -1,3l0 0c0,0 1,-2 2,-6l0 0zm-11 4c-1,1 -1,2 -1,2 1,0 1,-1 1,-2l0 0 0 0zm19 1c0,0 0,1 0,1l0 -1 0 0c0,1 0,1 0,2 0,0 0,-1 0,-2l0 0 0 0zm-20 4c0,1 0,3 0,4l1 0c-1,-1 -1,-2 -1,-3l0 -1c0,-1 0,-1 0,-1 0,0 0,0 0,0 0,0 0,-1 1,-2l-1 0c0,0 0,1 0,3zm7 0l0 0c0,0 1,-1 2,-3l0 0c0,0 -1,1 -2,3zm3 -3c0,0 -1,1 -1,1l0 0 1 -1 0 0 0 0zm2 1c0,1 0,2 0,2 0,1 0,1 0,1l0 0 0 -3 0 0zm5 0c0,0 0,1 -1,1l0 0 1 0c0,0 0,0 0,-1l0 0 0 0zm3 1c0,1 0,2 1,2l0 0c-1,-1 -1,-2 -1,-2 0,0 0,0 0,0zm1 0c1,2 1,3 2,3l0 0c-1,-1 -1,-2 -1,-3l-1 0zm-23 1l0 2c0,1 1,2 1,2l0 0c0,0 0,-2 -1,-3l1 0c-1,0 -1,-1 -1,-1l0 0zm15 2c0,0 1,0 1,0 0,0 1,-1 3,-2 -2,1 -3,2 -4,2zm-3 -2c0,0 0,1 0,2 0,0 0,1 1,1l0 0c-1,-1 -1,-2 -1,-3l0 0zm10 2c0,0 0,0 -1,0 1,1 1,1 2,1 0,0 0,0 0,0 0,0 0,-1 -1,-1zm3 1c0,0 0,0 1,0l0 0c0,0 0,0 0,0 0,0 0,0 -1,0zm-22 0l0 0c0,1 0,1 1,1l0 0 -1 -1 0 0zm-1 1c0,1 0,1 0,1l1 0 0 0c-1,0 -1,0 -1,-1l0 0z"/>
  <path id="_6" class="fil19" d="M4894 1277l0 0c0,0 0,0 0,0 3,1 4,1 4,2l0 0c0,0 0,0 0,0l-1 0c-2,0 -3,1 -3,1l0 0c-1,0 -1,0 -2,-1 0,0 0,0 0,0 -1,0 -2,0 -4,1l0 1 0 -1c0,1 -1,1 -2,2 0,1 0,2 -1,3 -1,1 -1,2 -1,3 0,1 0,1 0,2l0 0c0,1 0,2 1,3 3,-1 4,-1 4,-2 1,0 1,-2 3,-6 0,0 -1,-1 -1,-2l0 -1 1 0c2,0 3,0 3,-1l2 0 0 1c-1,1 -1,3 -1,5l0 0 0 0c0,0 0,1 0,1 0,0 0,1 0,3 0,0 0,0 0,0 0,0 0,0 0,0 0,0 0,0 0,0 1,1 1,1 1,2l2 0 3 -3 1 -1 0 0 0 1 -1 1 0 0c1,0 1,0 1,1l0 0c0,1 -1,2 -3,3 -2,1 -3,2 -4,2 -1,0 -2,-2 -4,-4l0 0 0 -1 0 0c-3,3 -6,4 -7,4 -1,0 -1,0 -2,0 -3,0 -4,-1 -4,-2 0,0 0,-1 -1,-3 0,-1 1,-3 1,-4l0 0c0,-1 0,-1 1,-1l0 -1c0,-2 1,-3 5,-5 3,-2 6,-3 9,-3zm-12 7l-1 1 0 0c0,0 0,0 0,0 0,0 1,0 1,-1 0,0 0,0 0,0 0,0 0,0 0,0l0 0zm-1 2l0 1 0 1c0,0 0,-1 0,-1l0 -1 0 0zm12 1c0,1 0,1 -1,1l0 1 0 0 1 -2 0 0zm0 3l0 0c1,-1 1,-2 1,-2 0,0 -1,1 -1,2zm-11 -1l0 1 1 0 0 0 -1 -1 0 0zm-2 1l0 2c0,0 0,0 0,1l1 0 0 -1c0,0 -1,-1 -1,-2l0 0zm12 2l0 0 0 0c1,-1 1,-1 1,-1l0 0 0 0c-1,0 -1,1 -1,1z"/>
 </g>
</svg>
