<?xml version="1.0" encoding="UTF-8"?>
<!DOCTYPE svg PUBLIC "-//W3C//DTD SVG 1.1//EN" "http://www.w3.org/Graphics/SVG/1.1/DTD/svg11.dtd">
<!-- Creator: CorelDRAW X7 -->
<svg xmlns="http://www.w3.org/2000/svg" xml:space="preserve" width="846.667mm" height="330.2mm" version="1.1" style="shape-rendering:geometricPrecision; text-rendering:geometricPrecision; image-rendering:optimizeQuality; fill-rule:evenodd; clip-rule:evenodd"
viewBox="0 0 84667 33020"
 xmlns:xlink="http://www.w3.org/1999/xlink">
 <defs>
  <style type="text/css">
   <![CDATA[
    .str1 {stroke:#990099;stroke-width:33.86}
    .str0 {stroke:#2B2A29;stroke-width:20}
    .fil2 {fill:#2B2A29}
    .fil5 {fill:#336699}
    .fil4 {fill:#990099}
    .fil1 {fill:#E63C24}
    .fil0 {fill:#FEFEFE}
    .fil3 {fill:white;fill-rule:nonzero}
   ]]>
  </style>
 </defs>
 <g id="Слой_x0020_1">
  <metadata id="CorelCorpID_0Corel-Layer"/>
  <polygon class="fil0 str0" points="32111,1404 47664,1404 39659,16761 "/>
  <polygon class="fil1" points="34243,161 39818,2131 45255,161 45289,5414 39804,3225 34277,5414 "/>
  <path class="fil1 str0" d="M39254 1352l1024 0c340,0 616,275 616,615l0 1640c0,340 -276,616 -616,616l-1024 0c-340,0 -616,-276 -616,-616l0 -1640c0,-340 276,-615 616,-615z"/>
  <circle class="fil2 str0" cx="39526" cy="6838" r="394"/>
  <polygon class="fil0 str0" points="48372,8782 50129,11190 46484,11190 "/>
  <path class="fil3" d="M18136 24518l-3599 -7843 0 6225c0,576 60,930 187,1075 172,191 439,287 806,287l332 0 0 256 -3253 0 0 -256 331 0c396,0 675,-120 839,-356 103,-143 156,-478 156,-1006l0 -6090c0,-402 -49,-702 -140,-893 -32,-68 -76,-132 -132,-187 -56,-60 -128,-108 -224,-148 -92,-44 -208,-76 -339,-96 -135,-24 -300,-36 -491,-36l0 -255 2646 0 3373 7295 3327 -7295 2651 0 0 255 -328 0c-399,0 -682,119 -846,356 -100,143 -151,474 -151,1004l0 6090c0,576 64,930 192,1075 170,191 438,287 805,287l328 0 0 256 -3972 0 0 -256 332 0c391,0 674,-120 839,-356 99,-143 150,-478 150,-1006l0 -6225 -3595 7843 -224 0 0 0 0 0z"/>
  <path id="_1" class="fil3" d="M30328 16908l2655 0 0 209 -146 0c-43,0 -105,10 -183,32 -74,24 -156,56 -241,95 -87,42 -176,94 -264,156 -88,65 -172,137 -247,216 -78,81 -163,189 -254,319 -92,130 -196,286 -313,465l-1834 2890 0 1908c0,469 52,759 156,877 141,156 365,234 678,234l248 0 0 209 -3241 0 0 -209 270 0c319,0 551,-98 684,-290 81,-117 124,-391 124,-821l0 -1801 -2085 -3189c-124,-189 -225,-341 -309,-456 -85,-114 -150,-195 -196,-244 -22,-24 -58,-56 -111,-98 -52,-42 -117,-88 -195,-130 -78,-45 -166,-85 -260,-118 -98,-32 -196,-45 -300,-45l0 -209 3251 0 0 209 -170 0c-81,0 -163,10 -247,29 -85,16 -160,46 -229,89 -65,38 -119,90 -162,152 -46,62 -65,137 -65,221 0,138 114,378 341,730l1587 2453 1492 -2345c224,-352 335,-612 335,-785 -6,-78 -22,-153 -49,-218 -26,-69 -68,-127 -124,-176 -54,-49 -133,-85 -231,-111 -98,-26 -218,-39 -365,-39l0 -209 0 0 0 0z"/>
  <path id="_2" class="fil3" d="M42038 16908l0 1783 -127 0c-29,-238 -81,-440 -149,-607 -69,-163 -160,-300 -271,-400 -114,-101 -251,-176 -414,-222 -160,-49 -349,-72 -563,-72l-1072 0 0 5808c0,469 49,759 150,877 137,156 355,234 655,234l264 0 0 209 -3231 0 0 -209 270 0c322,0 554,-98 687,-290 81,-117 124,-391 124,-821l0 -5808 -916 0c-227,0 -429,20 -602,53 -173,32 -316,97 -437,189 -120,94 -214,224 -290,397 -75,170 -130,387 -169,662l-218 0 0 -1783 6309 0 0 0z"/>
  <path id="_3" class="fil3" d="M44804 17322l0 3000 1677 0c244,0 440,-23 593,-65 153,-42 270,-111 355,-202 88,-91 146,-205 182,-345 33,-138 56,-303 65,-492l209 0 0 2645 -209 0c-25,-186 -52,-339 -78,-457 -26,-116 -52,-202 -77,-254 -34,-65 -76,-124 -131,-172 -52,-52 -117,-95 -202,-133 -82,-36 -180,-65 -296,-82 -118,-20 -254,-29 -411,-29l-1677 0 0 2510c0,337 16,542 45,620 17,33 33,65 58,98 21,25 56,52 99,74 38,20 97,37 165,46 69,13 157,20 262,20l1292 0c222,0 404,-7 551,-20 150,-13 280,-36 388,-68 111,-33 208,-79 292,-138 85,-54 173,-130 268,-221 113,-111 234,-257 354,-430 118,-176 238,-384 359,-619l221 0 -654 1910 -5870 0 0 -209 271 0c68,0 143,-7 224,-23 78,-16 151,-39 222,-71 68,-34 134,-75 189,-127 56,-50 94,-111 118,-177 44,-117 68,-361 68,-736l0 -4944c0,-479 -49,-775 -147,-893 -137,-146 -358,-221 -674,-221l-271 0 0 -209 5870 0 0 1668 -137 0c-39,-206 -81,-371 -124,-501 -42,-131 -87,-238 -140,-326 -52,-85 -111,-154 -179,-206 -68,-48 -149,-97 -241,-137 -153,-55 -417,-84 -791,-84l-2088 0 0 0 0 0z"/>
  <path id="_4" class="fil3" d="M49272 16908l2059 0 4651 5711 0 -4392c0,-468 -52,-759 -156,-876 -144,-156 -362,-234 -658,-234l-264 0 0 -209 2655 0 0 209 -270 0c-323,0 -554,97 -688,290 -81,117 -124,390 -124,820l0 6414 -205 0 -5012 -6123 0 4680c0,469 51,759 152,877 140,156 359,234 658,234l271 0 0 209 -2655 0 0 -209 264 0c326,0 557,-98 691,-290 84,-117 127,-391 127,-821l0 -5290c-111,-130 -205,-238 -281,-316 -75,-78 -146,-143 -211,-192 -69,-52 -140,-94 -218,-127 -82,-29 -179,-65 -294,-108 -107,-32 -270,-48 -492,-48l0 -209 0 0z"/>
  <path id="_5" class="fil3" d="M57917 24518l0 -252 343 0c385,0 662,-127 826,-375 100,-146 150,-477 150,-1004l0 -5940c0,-579 -62,-942 -189,-1079 -177,-202 -441,-300 -787,-300l-343 0 0 -252 3742 0c1379,0 2422,157 3136,470 720,310 1295,830 1732,1559 438,725 659,1564 659,2525 0,677 -111,1303 -332,1871 -220,570 -543,1059 -977,1468 -429,410 -968,729 -1614,962 -647,229 -1391,347 -2238,347l-4108 0 0 0 0 0zm2623 -666c568,130 1052,192 1450,192 519,0 1000,-98 1450,-291 444,-193 830,-464 1153,-819 327,-359 584,-788 768,-1291 186,-509 280,-1077 280,-1707 0,-634 -94,-1205 -276,-1709 -181,-508 -436,-938 -768,-1291 -327,-356 -716,-631 -1173,-820 -454,-189 -950,-284 -1490,-284 -204,0 -421,16 -653,52 -229,31 -477,82 -741,145l0 7823 0 0z"/>
  <g id="_990956128">
   <path class="fil1" d="M12476 29465c-362,-160 -603,-376 -722,-651 -120,-274 -183,-599 -190,-975 -12,-464 81,-919 280,-1363 198,-444 462,-828 793,-1148 362,-351 833,-647 1409,-887 574,-239 1114,-367 1615,-382 412,-15 845,7 1298,65 453,59 854,213 1205,462 139,-83 302,-161 487,-235 286,-107 589,-181 909,-224 47,-5 73,15 81,59 2,48 -20,77 -65,84 -328,44 -620,116 -876,216 -145,57 -282,122 -412,194 306,265 492,599 558,1000 32,212 44,431 35,656 -12,215 -44,422 -99,620 -64,222 -147,435 -247,639 -101,204 -200,408 -300,613 -79,168 -161,333 -249,493 -88,157 -174,310 -259,460 -128,227 -244,440 -347,637 -105,197 -175,375 -210,531 -65,291 -39,461 73,510 142,67 416,-5 828,-213 43,-24 76,-13 96,31 22,41 11,74 -31,97 -453,224 -769,296 -948,217 -99,-42 -184,-141 -254,-295 -71,-155 -74,-382 -9,-682 57,-264 132,-517 225,-761 93,-244 236,-550 425,-918 9,-20 25,-50 49,-93l-1733 0c-293,571 -624,1087 -993,1547 -366,462 -814,795 -1343,999 -301,116 -634,185 -1001,208 -366,20 -760,-17 -1178,-111 -20,-3 -44,-17 -75,-45 -31,-27 -41,-59 -32,-94 7,-45 36,-63 85,-53 839,197 1532,189 2081,-23 281,-106 523,-257 723,-451 199,-194 385,-415 555,-665 140,-204 266,-418 378,-637 112,-222 222,-443 329,-664 99,-205 202,-411 311,-620 107,-209 219,-417 335,-623 114,-205 220,-403 322,-597 102,-193 214,-377 338,-549 134,-190 294,-363 476,-519 183,-156 365,-306 546,-451 89,-71 184,-140 288,-206 -334,-221 -717,-356 -1148,-405 -432,-50 -840,-71 -1223,-58 -484,15 -1005,138 -1565,368 -560,233 -1014,519 -1365,859 -315,307 -568,673 -758,1098 -190,426 -280,861 -268,1305 7,349 74,646 201,890 126,245 352,440 677,590 60,30 84,59 70,93 -13,36 -44,56 -89,61 -48,5 -77,3 -92,-4l0 0zm5221 -1389c156,-297 326,-621 508,-972 182,-350 298,-652 347,-904 50,-278 54,-541 11,-791 -42,-249 -177,-469 -404,-657 -117,71 -224,147 -322,225 -422,334 -759,770 -1011,1304 -252,536 -507,1067 -765,1596 -17,34 -34,70 -52,102 -17,34 -34,66 -48,97l1736 0 0 0zm1256 2629c13,70 107,92 286,61 122,-22 252,-57 388,-107 136,-50 223,-87 257,-107 228,-129 422,-268 584,-418 163,-149 297,-343 404,-580 56,-134 119,-279 188,-436 68,-157 142,-308 219,-453 37,-72 90,-165 160,-280 72,-115 142,-194 213,-237 187,-108 330,-108 427,0 53,64 41,153 -33,267 -203,319 -378,611 -523,875 -145,264 -290,563 -432,898 -129,299 -246,560 -347,779 -102,220 -227,427 -377,622 -249,323 -539,598 -869,823 -332,224 -701,360 -1107,408 -249,26 -477,29 -683,10 -206,-22 -340,-49 -402,-85 -134,-79 -160,-142 -77,-194 82,-49 140,-59 174,-31 91,70 240,114 443,132 528,52 1013,-121 1457,-520 269,-245 484,-494 640,-749 158,-254 322,-547 492,-874 47,-92 39,-122 -22,-87 -60,33 -105,63 -135,87 -111,83 -183,134 -215,154 -79,42 -204,96 -377,161 -174,66 -327,111 -462,138 -218,35 -376,16 -475,-61 -76,-55 -126,-148 -149,-281 -42,-227 -20,-454 59,-685 53,-157 147,-336 285,-538 50,-73 102,-153 158,-241 56,-90 117,-207 186,-349 55,-113 86,-201 93,-260 9,-59 9,-109 -1,-150 -9,-35 -35,-54 -77,-58 -44,-4 -148,52 -317,165 -76,45 -132,55 -167,30 -28,-20 -44,-53 -50,-99 -7,-46 15,-85 65,-115 276,-179 513,-265 707,-258 186,0 305,93 354,278 28,108 32,221 8,343 -21,121 -46,218 -76,292 -103,248 -208,447 -313,598 -103,151 -224,334 -364,547 -61,93 -115,194 -159,305 -44,111 -56,203 -38,280l0 0zm5369 -432c-32,70 -76,149 -130,237 -53,90 -58,164 -15,220 69,99 164,126 284,79 29,-10 87,-48 174,-112 88,-66 157,-117 205,-152 43,-7 82,0 116,21 35,21 32,50 -9,85 -220,205 -424,317 -611,336 -156,14 -283,-20 -383,-104 -155,-133 -215,-336 -177,-610 17,-135 59,-256 130,-361 70,-106 122,-208 157,-305 44,-112 32,-192 -33,-240 -65,-47 -216,-49 -449,-3 -15,2 -9,-19 16,-67 25,-48 51,-74 76,-79 639,-98 1014,-294 1123,-588 110,-292 -52,-418 -487,-375 -79,10 -193,59 -343,148 -151,89 -321,200 -513,334 -98,65 -173,131 -227,193 -55,63 -101,120 -138,167 -50,64 -105,136 -164,217 -60,82 -118,189 -175,324 -85,208 -170,403 -258,588 -88,184 -170,363 -250,540 -15,36 -40,78 -75,126 -34,49 -62,73 -80,73l-419 0c-50,0 -44,-59 14,-178 155,-321 324,-688 510,-1102 184,-413 363,-813 534,-1198 179,-413 364,-803 550,-1166 187,-364 399,-701 635,-1009 261,-341 531,-610 809,-811 382,-272 798,-424 1247,-452 182,-11 335,2 458,41 123,39 207,73 249,102 117,78 141,142 66,192 -72,50 -123,61 -152,32 -97,-83 -275,-139 -536,-170 -243,-27 -473,9 -688,109 -216,100 -412,244 -590,429 -194,200 -369,434 -525,706 -156,271 -309,557 -458,859 -95,187 -185,380 -274,576 -87,195 -173,394 -259,591 -14,30 -17,58 -9,81 9,24 31,24 66,0 156,-105 325,-208 510,-312 183,-104 364,-179 541,-227 434,-116 706,-77 817,115 111,192 109,377 -4,556 -108,171 -277,294 -502,366 -227,73 -415,128 -566,165 153,67 256,169 308,307 36,107 42,223 18,346 -24,124 -62,245 -114,360l0 0zm1317 361c24,133 100,182 229,146 134,-35 298,-101 492,-202 194,-98 345,-187 452,-268 56,-43 135,-102 235,-177 101,-74 173,-129 215,-161 149,-358 320,-717 512,-1078 191,-362 346,-630 465,-809 38,-58 123,-85 259,-84 134,1 207,21 220,63l-1115 2164c-36,67 -60,145 -73,235 -12,91 2,164 45,222 23,34 73,69 147,101 74,32 140,37 197,17 30,-7 84,-26 169,-56 84,-30 151,-62 201,-98 42,-7 81,0 115,21 33,22 31,49 -8,86 -112,102 -211,205 -294,308 -83,104 -153,231 -211,380 -89,209 -189,385 -301,528 -60,71 -133,135 -220,194 -86,58 -178,88 -275,88 -232,0 -347,-80 -347,-239 0,-158 115,-236 347,-236 71,0 138,13 198,40 62,32 99,50 110,51 11,2 39,-20 83,-62 57,-57 101,-125 133,-204 32,-79 70,-162 116,-253 52,-116 134,-241 248,-378 -34,10 -69,17 -102,23 -31,6 -61,12 -86,19 -171,43 -305,20 -403,-69 -99,-88 -162,-180 -190,-272 -36,-112 -42,-255 -18,-428 -74,59 -177,138 -315,237 -136,98 -251,179 -345,241 -100,64 -206,115 -320,155 -114,40 -216,73 -309,102 -139,37 -258,22 -355,-47 -128,-90 -205,-229 -232,-415 -28,-188 -23,-350 15,-490 37,-141 82,-270 139,-387 57,-115 118,-228 185,-338 42,-67 152,-235 324,-504 175,-270 230,-441 165,-512 -49,-51 -132,-58 -248,-21 -115,35 -224,76 -322,121 -65,31 -108,12 -132,-57 -24,-69 -6,-114 53,-135 42,-16 98,-40 167,-74 69,-34 141,-57 221,-70 60,-7 139,-10 233,-10 95,0 176,15 245,46 97,50 157,134 178,253 16,120 1,249 -45,387 -45,139 -87,251 -122,334 -49,121 -112,238 -187,353 -77,115 -152,226 -228,338 -149,229 -247,422 -292,578 -29,108 -35,209 -18,303l0 0zm3435 -12c23,134 101,183 230,147 135,-36 300,-102 494,-201 193,-98 343,-189 447,-269 57,-43 135,-103 235,-177 101,-75 173,-129 215,-162 150,-356 321,-716 514,-1078 193,-360 346,-631 463,-808 38,-58 125,-86 261,-85 137,1 210,23 219,62l-1112 2167c-35,65 -60,143 -72,231 -13,91 1,165 44,225 66,99 160,125 284,77 28,-9 85,-40 172,-92 86,-52 155,-96 204,-133 45,-9 85,-4 117,19 34,21 31,49 -7,85 -107,97 -215,173 -328,226 -113,53 -207,90 -286,109 -169,43 -294,26 -373,-49 -78,-77 -130,-161 -155,-253 -40,-122 -46,-265 -18,-429 -74,60 -180,139 -317,238 -136,98 -252,178 -344,240 -99,63 -206,116 -320,155 -113,39 -216,73 -309,102 -142,36 -260,20 -354,-46 -130,-94 -209,-232 -235,-418 -25,-186 -20,-347 14,-489 36,-140 83,-268 141,-385 57,-117 120,-228 185,-338 42,-67 149,-235 325,-505 175,-270 229,-441 166,-511 -50,-50 -133,-57 -248,-22 -117,35 -224,77 -324,121 -64,31 -108,13 -131,-56 -23,-71 -7,-115 50,-136 43,-15 98,-39 169,-73 69,-35 144,-59 221,-71 62,-6 140,-9 235,-9 94,0 174,14 241,46 101,50 161,134 177,254 18,118 1,247 -44,387 -46,138 -87,249 -122,333 -50,120 -112,237 -188,351 -75,112 -151,226 -225,340 -63,96 -121,190 -173,286 -52,94 -91,192 -117,291 -31,112 -38,214 -21,303l0 0zm5123 -2561c-243,0 -515,155 -813,465 -297,311 -510,651 -636,1023 -125,372 -157,675 -99,905 60,231 211,346 454,346 243,0 496,-133 760,-402 265,-266 460,-588 586,-964 123,-371 173,-693 147,-965 -24,-271 -157,-408 -399,-408zm-75 -212c370,0 628,159 775,477 147,316 162,694 46,1131 -119,436 -358,811 -715,1123 -359,312 -724,469 -1092,469 -369,0 -638,-157 -804,-469 -168,-312 -192,-687 -73,-1123 116,-442 371,-827 767,-1151 366,-304 731,-457 1096,-457zm1844 715c357,-127 693,-288 1008,-485 59,-41 160,-52 305,-33 46,8 56,33 31,76 -176,385 -358,766 -542,1145l1189 0c29,-57 66,-131 111,-220 47,-88 134,-234 265,-433 131,-200 231,-353 302,-460 38,-57 124,-85 259,-84 135,1 209,21 220,59 -110,196 -226,393 -345,593 -117,201 -222,392 -316,572 -91,181 -171,349 -238,510 -68,162 -139,323 -213,488 -29,69 -53,148 -69,236 -15,90 -1,163 42,220 67,97 161,125 283,82 30,-9 87,-40 172,-94 87,-54 155,-99 205,-134 43,-8 82,0 115,22 35,20 32,50 -8,85 -105,97 -213,171 -325,224 -113,52 -208,88 -286,107 -170,44 -294,27 -373,-47 -78,-76 -131,-161 -160,-256 -50,-168 -41,-369 23,-603 65,-232 142,-449 233,-649l-1193 0c-253,521 -493,1001 -721,1442 -11,25 -40,41 -85,46 -79,5 -156,10 -234,14 -79,4 -154,-4 -227,-25 -50,-12 -57,-53 -22,-122 60,-130 126,-252 199,-363 73,-111 145,-231 213,-356 128,-239 252,-485 371,-738 120,-255 235,-509 347,-766 4,-12 9,-24 14,-36 5,-10 11,-25 17,-39 16,-43 -17,-43 -104,0 -65,37 -135,74 -210,115 -74,40 -142,68 -200,81 -50,14 -82,-7 -96,-63 -19,-60 -5,-96 43,-111zm8047 1367c3,-343 82,-658 242,-948 159,-290 309,-513 450,-670 147,-164 323,-294 528,-392 207,-97 400,-143 580,-136 279,14 468,101 565,260 97,160 135,351 112,573 -20,224 -85,459 -195,708 -107,248 -226,468 -354,659 -197,206 -477,426 -840,658 -362,233 -738,363 -1127,390 -204,18 -402,-2 -593,-57 -192,-56 -351,-160 -480,-309 -214,-248 -338,-503 -374,-768 -36,-267 -46,-531 -32,-793 14,-294 69,-581 164,-864 95,-283 215,-554 359,-817 -267,-14 -499,-44 -698,-92 -488,-112 -891,-313 -1206,-603 -316,-290 -473,-620 -473,-991 0,-461 241,-858 724,-1186 483,-330 1064,-494 1747,-494 541,0 1007,97 1395,292 64,36 77,78 40,127 -39,49 -88,59 -147,30 -185,-85 -384,-156 -601,-212 -217,-56 -446,-83 -687,-83 -598,0 -1112,147 -1535,440 -426,294 -638,646 -638,1057 0,322 135,611 402,866 268,257 610,437 1027,542 199,52 457,82 775,89 214,-357 448,-685 704,-981 255,-297 485,-546 691,-745 239,-235 511,-449 813,-641 303,-194 587,-356 853,-490 136,-68 329,-141 576,-217 248,-77 478,-118 695,-126 241,-7 421,16 538,66 119,49 205,128 256,234 45,98 68,217 69,357 1,141 -46,311 -146,510 -201,410 -579,798 -1133,1162 -553,366 -1193,651 -1917,858 -457,136 -952,212 -1483,231 -147,256 -266,494 -356,718 -44,105 -95,275 -152,504 -59,228 -99,468 -118,718 -22,261 -27,516 -16,763 12,247 106,434 286,559 57,44 135,82 235,118 98,35 202,54 309,54 176,5 349,-24 519,-82 169,-60 321,-122 457,-187 63,-30 228,-156 493,-375 264,-221 474,-456 628,-707 42,-68 96,-186 159,-352 61,-167 103,-336 120,-505 18,-171 -4,-320 -63,-452 -61,-130 -191,-196 -389,-196 -129,3 -267,37 -416,104 -149,68 -283,149 -405,243 -234,180 -408,430 -523,747 -115,318 -187,607 -215,870 -17,7 -44,32 -83,76 -40,43 -63,49 -73,12 -27,-82 -40,-124 -43,-124l0 0zm3147 -5720c-219,37 -428,106 -631,205 -202,98 -386,205 -552,320 -348,240 -674,525 -979,860 -306,332 -604,709 -896,1128 -54,80 -108,159 -160,238 -52,80 -103,160 -152,238 607,-29 1079,-92 1414,-189 607,-174 1154,-417 1642,-726 486,-310 837,-640 1056,-989 71,-110 135,-251 193,-424 59,-172 59,-320 2,-443 -68,-144 -211,-220 -425,-233 -214,-12 -385,-7 -512,15l0 0zm1405 3850c-244,0 -515,155 -813,465 -298,311 -510,651 -636,1023 -125,372 -157,675 -99,905 59,231 210,346 454,346 243,0 496,-133 760,-402 265,-266 460,-588 586,-964 123,-371 173,-693 147,-965 -24,-271 -158,-408 -399,-408zm-75 -212c370,0 628,159 774,477 147,316 163,694 47,1131 -119,436 -358,811 -715,1123 -359,312 -724,469 -1093,469 -369,0 -637,-157 -804,-469 -167,-312 -191,-687 -73,-1123 116,-442 372,-827 768,-1151 366,-304 731,-457 1096,-457zm3227 351c-243,0 -515,154 -814,464 -300,310 -511,651 -634,1026 -248,740 -131,1110 356,1110 240,0 508,-139 801,-421 294,-281 504,-609 632,-982 123,-371 158,-664 103,-877 -54,-213 -202,-320 -444,-320zm-77 -219c127,0 250,27 366,80 118,53 201,135 248,241 23,-5 41,-24 53,-57 16,-42 16,-102 0,-178 -16,-77 -36,-160 -57,-250 -55,-203 -137,-373 -245,-514 -108,-140 -181,-281 -216,-424 -45,-181 -62,-357 -53,-528 11,-170 59,-315 141,-427 191,-272 455,-387 787,-347 332,41 637,47 913,22 126,-13 213,-51 259,-116 48,-65 93,-111 136,-133 105,-63 166,-65 188,-8 15,42 -13,108 -81,196 -145,184 -253,304 -323,362 -72,58 -210,103 -417,133 -265,42 -529,34 -793,-21 -263,-54 -452,30 -566,254 -100,199 -98,403 5,613 103,210 209,419 319,631 158,309 227,658 205,1045 -14,264 -69,526 -163,781 -95,256 -215,485 -359,692 -184,261 -404,489 -658,688 -255,198 -486,296 -694,296 -320,0 -554,-110 -702,-329 -236,-342 -262,-744 -84,-1205 181,-460 412,-806 694,-1037 371,-306 737,-460 1097,-460l0 0z"/>
   <path class="fil1" d="M53486 28469c186,-60 322,-109 404,-146 83,-38 222,-113 416,-225 71,-38 176,-49 313,-31 41,7 47,31 16,74 -148,241 -305,479 -467,716 -164,239 -320,474 -470,706 -29,50 -85,149 -164,297 -80,147 -145,297 -195,446 -44,135 -63,252 -53,349 7,98 72,143 192,136 119,-8 234,-52 346,-135 113,-81 219,-172 318,-272 221,-217 376,-421 466,-618 -119,-46 -177,-159 -177,-338 0,-235 82,-352 248,-352 162,0 245,117 245,352 0,7 0,15 0,22 0,8 0,14 0,21 92,7 199,-36 319,-126 120,-92 240,-194 358,-309 166,-157 326,-342 480,-556 42,-57 81,-111 117,-160 36,-50 68,-93 96,-129 29,-38 87,-59 176,-64 88,-5 168,0 236,14 71,16 108,37 113,61 -116,183 -231,363 -345,542 -116,178 -230,357 -343,535 -100,161 -197,323 -291,484 -96,162 -186,328 -270,496 -33,66 -59,143 -78,228 -19,87 -9,157 32,214 61,93 154,119 279,74 30,-6 88,-34 176,-86 90,-51 161,-94 213,-130 44,-7 83,-1 115,19 35,20 30,48 -13,85 -109,92 -221,165 -335,216 -115,53 -212,89 -290,108 -173,40 -296,24 -374,-48 -75,-73 -123,-155 -145,-248 -50,-178 -28,-391 62,-637 93,-246 188,-467 290,-665 -122,93 -244,169 -362,230 -118,61 -219,86 -302,77 -11,15 -23,26 -35,35 -71,252 -283,534 -635,845 -353,312 -648,447 -881,403 -100,-16 -180,-81 -240,-192 -60,-112 -90,-241 -90,-389 -3,-164 27,-331 86,-502 61,-168 120,-298 177,-389 176,-281 352,-571 528,-870 12,-17 27,-42 47,-76 24,-42 -13,-42 -107,0 -70,36 -102,56 -93,59 7,3 -20,14 -81,27 -50,10 -80,-11 -89,-63 -6,-58 13,-96 61,-115l0 0zm8091 -197c-25,-73 -115,-94 -274,-61 -116,29 -235,72 -356,129 -122,57 -194,91 -215,104 -382,217 -662,533 -846,944 -99,222 -207,458 -324,710 -117,252 -226,474 -325,667 -43,80 -75,138 -94,173 -20,35 -58,45 -113,30l-354 -4c-17,3 -36,-14 -55,-49 -20,-36 -19,-82 1,-140 77,-161 185,-371 325,-627 142,-254 282,-518 425,-788 105,-207 204,-408 295,-605 90,-196 122,-353 99,-469 -24,-88 -102,-117 -235,-86 -115,27 -233,72 -355,138 -120,65 -191,106 -212,119 -79,42 -160,96 -246,159 -85,62 -165,125 -241,188 -229,194 -418,443 -564,745 -107,214 -220,443 -339,686 -120,244 -232,471 -339,684 -15,27 -44,42 -88,42 -80,7 -157,12 -236,16 -77,4 -153,-6 -223,-27 -49,-12 -58,-53 -25,-121 62,-129 135,-265 221,-410 88,-145 164,-281 230,-407 237,-438 469,-921 699,-1452 4,-11 9,-24 14,-36 5,-13 11,-27 19,-42 15,-40 -19,-38 -103,4 -67,33 -137,70 -212,112 -75,42 -142,69 -201,84 -49,12 -81,-10 -95,-65 -19,-59 -5,-95 43,-110 176,-61 343,-129 500,-200 156,-71 324,-163 500,-274 64,-42 166,-51 305,-32 7,7 11,21 11,44 0,24 8,35 21,35 -38,85 -71,157 -103,218 -30,61 -64,133 -101,216 -70,145 -48,168 66,69 156,-138 279,-233 366,-283 73,-40 172,-92 298,-156 126,-64 256,-110 390,-136 216,-40 376,-21 480,57 70,57 119,151 145,282 5,25 10,65 15,117 2,92 45,107 127,39 114,-97 211,-168 291,-213 72,-44 173,-92 302,-148 131,-56 263,-98 399,-123 209,-41 371,-23 482,57 75,60 130,153 163,281 48,199 39,384 -25,553 -77,209 -190,421 -335,635 -146,214 -277,462 -392,745 -72,164 -103,276 -97,337 7,61 29,103 64,123 42,30 87,43 134,35 46,-6 124,-49 236,-128 19,-12 47,-30 87,-56 39,-26 73,-30 101,-12 29,23 47,55 56,100 7,46 -12,83 -56,111 -127,85 -232,143 -313,168 -80,27 -166,39 -258,37 -195,0 -318,-91 -373,-275 -36,-105 -52,-220 -50,-345 2,-126 14,-226 35,-305 72,-252 177,-493 316,-724 57,-97 120,-194 188,-291 70,-95 132,-191 185,-283 128,-209 174,-379 139,-510l0 0zm889 2350c22,134 100,183 229,147 135,-36 300,-102 494,-201 193,-98 343,-189 447,-269 57,-43 135,-103 236,-177 100,-75 173,-129 214,-162 151,-356 321,-716 514,-1078 193,-360 347,-631 464,-808 37,-58 125,-86 261,-85 136,1 208,23 218,62l-1111 2167c-36,65 -60,143 -72,231 -14,91 1,165 43,225 66,99 161,125 285,77 27,-9 84,-40 171,-92 87,-52 155,-96 205,-133 44,-9 84,-4 117,19 33,21 30,49 -8,85 -106,97 -215,173 -328,226 -113,53 -207,90 -285,109 -170,43 -295,26 -373,-49 -78,-77 -130,-161 -157,-253 -38,-122 -44,-265 -17,-429 -74,60 -180,139 -317,238 -136,98 -252,178 -343,240 -100,63 -207,116 -320,155 -113,39 -217,73 -309,102 -143,36 -260,20 -355,-46 -131,-94 -208,-232 -235,-418 -25,-186 -20,-347 15,-489 35,-140 82,-268 141,-385 57,-117 120,-228 185,-338 41,-67 148,-235 324,-505 175,-270 230,-441 167,-511 -50,-50 -134,-57 -248,-22 -117,35 -225,77 -325,121 -64,31 -107,13 -131,-56 -24,-71 -7,-115 50,-136 43,-15 99,-39 169,-73 69,-35 144,-59 221,-71 62,-6 140,-9 234,-9 96,0 176,14 242,46 101,50 160,134 178,254 17,118 1,247 -45,387 -46,138 -86,249 -122,333 -50,120 -112,237 -188,351 -75,112 -150,226 -224,340 -63,96 -121,190 -174,286 -52,94 -91,192 -117,291 -31,112 -38,214 -20,303l0 0zm3418 29c24,134 99,182 227,147 62,-15 161,-57 295,-128 154,-80 340,-187 560,-325 218,-138 399,-262 540,-371 150,-357 320,-717 512,-1076 191,-362 345,-632 462,-811 37,-56 125,-84 260,-81 137,2 211,22 223,61l-1114 2164c-37,67 -61,144 -75,235 -12,91 2,164 45,221 69,100 164,127 284,79 29,-10 87,-41 174,-92 88,-53 157,-98 207,-133 41,-9 80,-3 114,18 35,21 32,50 -9,85 -105,100 -215,177 -328,229 -113,53 -207,89 -282,110 -171,43 -296,25 -374,-51 -80,-78 -132,-163 -158,-256 -38,-120 -44,-263 -18,-427 -135,107 -343,247 -623,419 -281,172 -503,282 -666,329 -135,35 -253,21 -356,-46 -129,-90 -207,-228 -234,-415 -25,-187 -21,-351 15,-490 35,-140 83,-268 140,-384 58,-116 121,-228 186,-338 41,-69 148,-236 324,-506 175,-269 229,-437 166,-510 -49,-52 -133,-61 -247,-24 -117,36 -225,75 -325,121 -64,31 -107,12 -130,-58 -24,-68 -6,-113 52,-135 44,-14 100,-39 167,-73 69,-34 142,-57 221,-69 61,-8 140,-12 234,-12 95,0 177,17 245,47 98,52 157,136 174,253 18,122 5,251 -42,388 -48,139 -88,251 -122,337 -50,121 -113,238 -190,350 -76,113 -151,227 -226,337 -148,229 -245,421 -290,579 -33,114 -39,215 -18,302l0 0zm3000 -3911c0,178 -90,326 -271,444 -182,116 -380,176 -599,176 -219,0 -422,-57 -608,-169 -186,-113 -279,-259 -279,-437 0,-150 80,-216 241,-196 121,13 188,72 202,173 5,33 -8,65 -38,96 -32,32 -46,72 -46,119 0,72 58,132 173,182 116,50 235,75 355,75 119,0 234,-27 345,-81 110,-55 166,-118 166,-190 0,-36 -16,-71 -49,-105 -33,-35 -46,-67 -39,-99 7,-49 42,-91 101,-127 60,-33 109,-52 144,-57 30,-4 73,9 125,37 52,27 77,80 77,159l0 0z"/>
  </g>
  <circle class="fil2 str0" cx="39613" cy="12395" r="394"/>
  <polygon class="fil4 str1" points="6071,373 7414,3157 11787,3151 8244,4867 9603,7648 6071,5923 2538,7648 3897,4867 355,3151 4727,3157 "/>
  <polygon class="fil4 str1" points="10473,13928 10937,14889 12446,14887 11223,15479 11692,16439 10473,15844 9254,16439 9723,15479 8501,14887 10010,14889 "/>
  <polygon class="fil4 str1" points="78216,28729 78730,29794 80402,29792 79047,30448 79567,31511 78216,30852 76865,31511 77385,30448 76030,29792 77702,29794 "/>
  <polygon class="fil4 str1" points="75109,18371 76291,20821 80139,20816 77021,22326 78218,24773 75109,23256 72000,24773 73196,22326 70079,20816 73927,20821 "/>
  <polygon class="fil5" points="4718,27337 5539,29039 8211,29035 6046,30083 6877,31783 4718,30729 2559,31783 3390,30083 1225,29035 3897,29039 "/>
  <polygon class="fil5" points="71169,415 72271,2699 75858,2694 72952,4101 74067,6382 71169,4968 68271,6382 69386,4101 66481,2694 70067,2699 "/>
  <polygon class="fil5" points="25158,572 26002,2322 28751,2319 26524,3397 27378,5145 25158,4061 22937,5145 23791,3397 21565,2319 24313,2322 "/>
 </g>
</svg>
