<?xml version="1.0" encoding="UTF-8"?>
<!DOCTYPE svg PUBLIC "-//W3C//DTD SVG 1.1//EN" "http://www.w3.org/Graphics/SVG/1.1/DTD/svg11.dtd">
<!-- Creator: CorelDRAW 2017 -->
<svg xmlns="http://www.w3.org/2000/svg" xml:space="preserve" width="457.2mm" height="222.503mm" version="1.1" style="shape-rendering:geometricPrecision; text-rendering:geometricPrecision; image-rendering:optimizeQuality; fill-rule:evenodd; clip-rule:evenodd"
viewBox="0 0 45719.98 22250.3"
 xmlns:xlink="http://www.w3.org/1999/xlink">
 <defs>
  <style type="text/css">
   <![CDATA[
    .str1 {stroke:#00AEBE;stroke-width:7.62;stroke-miterlimit:22.9256}
    .str0 {stroke:#DD0B29;stroke-width:7.62;stroke-miterlimit:22.9256}
    .fil4 {fill:#00AEBE}
    .fil3 {fill:#5FAD2F}
    .fil5 {fill:#DD0B29}
    .fil2 {fill:#E62B2B}
    .fil6 {fill:#FFDD00}
    .fil1 {fill:black;fill-rule:nonzero}
    .fil0 {fill:white;fill-rule:nonzero}
   ]]>
  </style>
 </defs>
 <g id="Layer_x0020_1">
  <metadata id="CorelCorpID_0Corel-Layer"/>
  <path class="fil0" d="M3477.08 21468.44l-358.24 44.98 -141.85 -396.21 -658.75 82.71 -136.49 431.16 -351.75 44.16 637.73 -1898.71 351.36 -44.12 657.99 1736.03zm-607.9 -645.04l-228.26 -644.44 -221.74 700.95 450 -56.51zm528.76 -1163.67l373.54 -46.9 382.32 893.49 327.27 -982.58 346.02 -43.45 -555.53 1451.93c-60.41,157.45 -121.97,279.06 -184.66,365.25 -62.71,86.18 -143.37,135.26 -242.78,147.74 -97.88,12.29 -174.35,14.69 -229.4,7.63l0 -273.46c47.02,-2.52 89.46,-6.16 127.31,-10.91 76.47,-9.6 131.53,-32.17 164.79,-67.26 32.88,-35.45 64.99,-106.79 95.2,-213.45l-604.08 -1228.03zm1600.05 -200.89l332.62 -41.77 0 774.7c73.79,-17.73 123.88,-44.76 149.88,-82.32 25.99,-37.13 66.53,-136.62 120.81,-298.38 68.44,-205.44 137.64,-336.9 206.84,-393.42 68.82,-56.48 179.32,-94.48 332.25,-113.68 7.65,-0.96 23.71,-3.4 48.17,-7.32l0 271.78 -47.02 4.63c-68.06,8.55 -117.76,24.1 -149.11,46.67 -31.35,22.56 -56.58,54.09 -76.08,94.64 -19.5,40.55 -48.18,122.47 -86.03,245.75 -20.26,65.62 -42.06,120.85 -65.76,166.16 -23.32,45.26 -64.99,90.29 -124.64,135.02 73.79,13.6 134.58,52.96 182.75,117.19 48.18,64.22 100.94,156.66 158.29,277.72l223.66 469.76 -389.98 48.97 -196.9 -443.49c-3.05,-6.39 -9.55,-18.27 -19.11,-36.12 -3.83,-5.87 -17.59,-32.93 -41.29,-80.33 -42.06,-84.47 -76.47,-136.03 -103.23,-155.11 -27.15,-19.02 -68.06,-25.31 -123.5,-19.2l0 795.02 -332.62 41.76 0 -1818.63zm1400.09 -175.8l332.63 -41.76 0 1511.3 640.02 -80.36 0 -1511.3 332.63 -41.77 0 1511.3 137.64 -17.28 0 703.58 -277.58 34.85 0 -396.24 -1165.34 146.32 0 -1818.64zm1675.75 -210.4l309.69 -38.89 0 1210.73 665.26 -1294.25 330.33 -41.48 0 1818.64 -309.69 38.88 0 -1191.26 -665.25 1274.79 -330.34 41.48 0 -1818.64zm1575.59 722.5c0,-185.42 25.23,-344.38 75.32,-476.82 37.08,-97.36 88.32,-187.2 152.93,-268.97 64.61,-81.77 135.34,-145.26 212.19,-190.89 102.46,-60.71 220.6,-99.67 354.42,-116.47 242.4,-30.44 435.86,28.67 581.53,176.75 145.28,148.55 217.92,370.99 217.92,667.75 0,294.22 -72.26,533.58 -216.4,717.63 -144.13,184.47 -337.21,291.68 -578.46,321.97 -244.31,30.68 -438.92,-27.44 -583.05,-174.86 -144.14,-147 -216.4,-365.69 -216.4,-656.09zm341.8 -55.2c0,206.16 43.21,356.95 129.23,452.83 86.03,95.46 195.37,135.07 327.65,118.46 132.67,-16.66 241.26,-83.21 326.52,-199.33 84.87,-116.48 127.31,-280.14 127.31,-491.38 0,-208.7 -41.29,-359.31 -124.25,-451.34 -82.59,-92.5 -192.32,-129.94 -329.58,-112.71 -136.87,17.18 -247.36,83.13 -331.09,197.36 -83.73,114.65 -125.79,276.56 -125.79,486.11zm1511.34 720.83l0 -1818.64 332.63 -41.76 0 716.28 646.9 -81.23 0 -716.28 332.63 -41.76 0 1818.64 -332.63 41.76 0 -795.02 -646.9 81.23 0 795.02 -332.63 41.76zm3344.63 -1090.5l321.15 68.89c-49.32,206.44 -131.52,365.35 -246.22,477.11 -114.7,111.35 -259.98,178.27 -436.24,200.4 -218.3,27.41 -397.62,-32.62 -538.31,-180.06 -140.32,-147.48 -210.67,-364.29 -210.67,-650.88 0,-302.69 70.73,-546.94 211.81,-732.29 141.08,-185.36 326.9,-292.51 557.05,-321.4 201.11,-25.25 364.37,20.29 489.77,136.2 74.94,68.48 130.75,173.24 168.23,314.58l-328.04 127.55c-19.5,-91.53 -60.03,-160.96 -121.58,-207.84 -61.94,-46.83 -136.88,-64.51 -224.81,-53.47 -121.97,15.31 -220.99,76.01 -296.7,182.45 -76.08,106.07 -113.93,267.47 -113.93,484.21 0,229.45 37.47,388.57 112.03,476.58 74.93,88.38 172.05,124.87 291.71,109.84 88.32,-11.09 164.4,-51.54 227.87,-121.74 63.47,-70.2 109.35,-173.33 136.88,-310.13zm480.2 -288.05c0,-185.42 25.23,-344.37 75.32,-476.81 37.08,-97.37 88.32,-187.2 152.93,-268.97 64.61,-81.78 135.34,-145.27 212.19,-190.9 102.46,-60.7 220.6,-99.66 354.42,-116.47 242.39,-30.43 435.86,28.68 581.52,176.76 145.29,148.55 217.93,370.99 217.93,667.75 0,294.22 -72.26,533.58 -216.4,717.63 -144.13,184.46 -337.21,291.68 -578.46,321.97 -244.31,30.67 -438.92,-27.44 -583.05,-174.87 -144.14,-147 -216.4,-365.69 -216.4,-656.09zm341.8 -55.19c0,206.16 43.21,356.94 129.23,452.82 86.02,95.46 195.37,135.07 327.65,118.46 132.67,-16.65 241.26,-83.21 326.51,-199.32 84.88,-116.49 127.32,-280.15 127.32,-491.39 0,-208.7 -41.29,-359.3 -124.26,-451.34 -82.58,-92.5 -192.31,-129.94 -329.57,-112.71 -136.87,17.19 -247.36,83.13 -331.09,197.37 -83.73,114.65 -125.79,276.56 -125.79,486.11zm1518.23 -1098.68l1227.28 -154.09 0 307.34 -894.65 112.33 0 421.64 443.12 -55.64c121.97,-15.31 223.66,-11.57 303.95,11.37 80.68,22.89 149.5,75.21 206.46,157.38 56.97,81.74 85.64,182.71 85.64,302.51 0,122.77 -28.67,231.78 -86.4,326.66 -57.35,94.4 -122.73,162.73 -196.52,204.17 -73.41,41.38 -178.17,70.62 -313.89,87.67l-774.99 97.3 0 -1818.64zm332.63 1469.54l322.3 -40.47c102.85,-12.91 175.49,-27.53 217.17,-43.78 41.68,-16.24 78.38,-45.82 109.35,-89.08 30.97,-42.83 46.26,-93.01 46.26,-150.16 0,-83.4 -27.15,-140.53 -81.06,-171.86 -54.29,-30.86 -146.43,-38.34 -277.18,-21.92l-336.84 42.29 0 474.98zm1318.66 -1676.87l332.63 -41.76 0 726.44 443.11 -55.64c116.24,-14.59 216.41,-9.39 300.14,15.24 83.73,24.61 153.69,78.49 209.89,162.02 55.83,83.58 83.73,184.22 83.73,301.91 0,123.19 -29.05,232.67 -87.17,329.29 -58.49,96.25 -123.1,163.2 -194.61,200.97 -71.11,38.14 -175.48,65.63 -312.73,82.86l-774.99 97.31 0 -1818.64zm332.63 1469.54l323.45 -40.62c102.85,-12.91 174.72,-27.43 215.63,-43.58 40.53,-16.1 76.85,-46.06 108.59,-89.41 31.72,-43.36 47.4,-93.16 47.4,-149.89 0,-80.43 -26,-137.7 -77.61,-171.44 -52,-33.68 -145.67,-41.82 -280.63,-24.88l-336.83 42.3 0 477.52zm1227.28 -1665.4l332.62 -41.76 0 1818.64 -332.62 41.76 0 -1818.64zm1046.05 1687.3l0 -1511.3 -486.32 61.06 0 -307.34 1302.98 -163.6 0 307.34 -484.03 60.78 0 1511.3 -332.63 41.76zm1036.5 -1948.78l309.69 -38.88 0 1210.73 665.25 -1294.26 330.33 -41.48 0 1818.64 -309.68 38.89 0 -1191.26 -665.26 1274.78 -330.33 41.48 0 -1818.64zm1648.99 -207.04l309.69 -38.89 0 1210.73 665.25 -1294.26 330.33 -41.47 0 1818.64 -309.68 38.88 0 -1191.26 -665.26 1274.79 -330.33 41.48 0 -1818.64zm848.77 -632.35l153.7 -19.3c-8.8,113.28 -44.73,206.28 -107.05,278.02 -62.33,71.75 -142.99,114.05 -242.01,126.49 -99.41,12.48 -180.08,-9.56 -242.41,-65.67 -62.31,-56.09 -98.25,-140.06 -107.05,-251.14l153.7 -19.29c5.36,57.74 23.71,99.89 55.82,125.92 32.12,26.01 78.76,34.98 139.94,27.3 60.79,-7.64 107.42,-28.31 139.54,-62.39 32.12,-34.1 50.47,-80.85 55.82,-139.94zm1437.57 345.28l309.69 -38.89 0 1210.73 665.25 -1294.25 330.33 -41.48 0 1818.64 -309.68 38.88 0 -1191.26 -665.26 1274.79 -330.33 41.48 0 -1818.64zm2286.34 -287.07l1305.27 -163.89 0 1818.64 -332.63 41.77 0 -1511.3 -640.02 80.36 0 1511.3 -332.62 41.76 0 -1818.64zm1644.4 1612.17l0 -1818.64 531.83 -66.77c201.48,-25.3 332.62,-32.88 393.79,-22.36 94.05,15.71 172.82,65.09 236.28,148.57 63.47,83.47 95.2,197.59 95.2,342.37 0,111.76 -18.35,207.62 -54.67,288.38 -36.71,80.81 -82.97,146.3 -139.17,196.97 -56.2,50.24 -113.55,86.22 -171.67,107.49 -79.14,27.29 -193.45,50.53 -343.33,69.35l-215.63 27.08 0 685.8 -332.63 41.76zm332.63 -1553.06l0 518.16 180.84 -22.71c130.37,-16.37 217.16,-37 261.13,-61.58 43.97,-24.57 78.38,-58.52 103.23,-102.7 24.85,-43.76 37.47,-92.33 37.47,-146.52 0,-66.46 -17.59,-118.86 -52.38,-157.67 -35.17,-38.77 -79.15,-60.35 -133.05,-64.58 -39.38,-3.1 -118.52,2.6 -237.81,17.58l-159.43 20.02zm2475.58 1200.47l-358.24 44.98 -141.85 -396.21 -658.75 82.71 -136.49 431.16 -351.75 44.16 637.73 -1898.71 351.36 -44.11 657.99 1736.02zm-607.9 -645.03l-228.25 -644.45 -221.75 700.95 450 -56.5zm1018.9 -729.92l-323.45 -43.2c69.59,-305.07 267.25,-478.06 593,-518.96 192.69,-24.19 338.36,4.51 436.62,86.15 98.25,81.64 147.19,185.99 147.19,312.99 0,86.78 -22.56,167.93 -67.29,243.82 -44.73,75.46 -112.02,145.3 -201.48,209.87 108.57,27.85 190.4,76 244.69,144.96 54.28,69.39 81.43,159.11 81.43,270.45 0,160.02 -52.76,295.76 -158.66,407.69 -105.52,111.89 -263.81,181.29 -474.48,207.74 -171.67,21.56 -307.39,6.85 -406.8,-44.17 -99.4,-51.02 -173.95,-160.62 -224.04,-328.74l302.8 -147.24c31.35,105.7 73.41,171.54 125.41,197.2 52,26.06 116.23,34.08 192.69,24.48 104.76,-13.15 181.22,-47.73 229.4,-104.15 47.79,-56.38 71.88,-116.98 71.88,-182.18 0,-74.5 -27.15,-131.63 -81.44,-170.53 -53.91,-38.95 -135.72,-51.54 -244.69,-37.86l-75.32 9.46 0 -274.32 37.85 -4.75c101.32,-12.73 178.93,-47.87 232.46,-104.97 53.91,-57.14 80.67,-127.81 80.67,-211.21 0,-66.46 -21.79,-119.6 -65.38,-159.85 -43.58,-39.83 -105.9,-54.86 -186.96,-44.69 -138.78,17.43 -227.48,104.77 -266.1,262.01zm1336.24 -663.07l1133.22 -142.29 0 1511.3 144.52 -18.14 0 703.58 -277.57 34.85 0 -396.24 -1030 129.32 0 396.24 -277.57 34.85 0 -703.58 139.93 -17.57c68.06,-163.9 113.18,-349.91 134.97,-557.54 21.79,-208.05 32.5,-468.9 32.5,-782.59l0 -192.19zm316.56 267.59c0,550.33 -45.88,957.41 -137.63,1221.24l621.66 -78.05 0 -1203.96 -484.03 60.77zm1184.47 1362.58l0 -1818.64 332.62 -41.76 0 716.28 646.9 -81.23 0 -716.28 332.63 -41.76 0 1818.64 -332.63 41.76 0 -795.02 -646.9 81.23 0 795.02 -332.62 41.76zm1661.22 -2027.22l309.68 -38.88 0 1210.73 665.26 -1294.26 330.33 -41.47 0 1818.63 -309.69 38.89 0 -1191.26 -665.25 1274.79 -330.33 41.47 0 -1818.64zm1648.99 -207.04l332.62 -41.77 0 774.7c73.79,-17.73 123.88,-44.76 149.88,-82.31 25.99,-37.14 66.53,-136.63 120.81,-298.38 68.44,-205.45 137.64,-336.9 206.84,-393.42 68.82,-56.48 179.32,-94.49 332.25,-113.69 7.65,-0.96 23.71,-3.4 48.17,-7.32l0 271.78 -47.02 4.64c-68.06,8.54 -117.76,24.09 -149.11,46.66 -31.35,22.56 -56.58,54.09 -76.08,94.64 -19.5,40.55 -48.18,122.47 -86.03,245.75 -20.26,65.63 -42.06,120.85 -65.76,166.16 -23.32,45.27 -64.99,90.29 -124.64,135.03 73.79,13.59 134.58,52.95 182.75,117.18 48.18,64.22 100.94,156.66 158.29,277.73l223.66 469.76 -389.98 48.96 -196.9 -443.49c-3.05,-6.38 -9.55,-18.27 -19.11,-36.12 -3.83,-5.87 -17.59,-32.93 -41.29,-80.32 -42.06,-84.47 -76.47,-136.03 -103.23,-155.11 -27.15,-19.02 -68.06,-25.32 -123.5,-19.21l0 795.02 -332.62 41.77 0 -1818.64zm2875.12 1457.64l-358.24 44.98 -141.85 -396.21 -658.75 82.71 -136.49 431.16 -351.75 44.17 637.73 -1898.71 351.36 -44.12 657.99 1736.02zm-607.9 -645.03l-228.25 -644.44 -221.75 700.94 450 -56.5z"/>
  <path class="fil0" d="M3477.08 21468.44l-358.24 44.98 -141.85 -396.21 -658.75 82.71 -136.49 431.16 -351.75 44.16 637.73 -1898.71 351.36 -44.12 657.99 1736.03zm-607.9 -645.04l-228.26 -644.44 -221.74 700.95 450 -56.51zm528.76 -1163.67l373.54 -46.9 382.32 893.49 327.27 -982.58 346.02 -43.45 -555.53 1451.93c-60.41,157.45 -121.97,279.06 -184.66,365.25 -62.71,86.18 -143.37,135.26 -242.78,147.74 -97.88,12.29 -174.35,14.69 -229.4,7.63l0 -273.46c47.02,-2.52 89.46,-6.16 127.31,-10.91 76.47,-9.6 131.53,-32.17 164.79,-67.26 32.88,-35.45 64.99,-106.79 95.2,-213.45l-604.08 -1228.03zm1600.05 -200.89l332.62 -41.77 0 774.7c73.79,-17.73 123.88,-44.76 149.88,-82.32 25.99,-37.13 66.53,-136.62 120.81,-298.38 68.44,-205.44 137.64,-336.9 206.84,-393.42 68.82,-56.48 179.32,-94.48 332.25,-113.68 7.65,-0.96 23.71,-3.4 48.17,-7.32l0 271.78 -47.02 4.63c-68.06,8.55 -117.76,24.1 -149.11,46.67 -31.35,22.56 -56.58,54.09 -76.08,94.64 -19.5,40.55 -48.18,122.47 -86.03,245.75 -20.26,65.62 -42.06,120.85 -65.76,166.16 -23.32,45.26 -64.99,90.29 -124.64,135.02 73.79,13.6 134.58,52.96 182.75,117.19 48.18,64.22 100.94,156.66 158.29,277.72l223.66 469.76 -389.98 48.97 -196.9 -443.49c-3.05,-6.39 -9.55,-18.27 -19.11,-36.12 -3.83,-5.87 -17.59,-32.93 -41.29,-80.33 -42.06,-84.47 -76.47,-136.03 -103.23,-155.11 -27.15,-19.02 -68.06,-25.31 -123.5,-19.2l0 795.02 -332.62 41.76 0 -1818.63zm1400.09 -175.8l332.63 -41.76 0 1511.3 640.02 -80.36 0 -1511.3 332.63 -41.77 0 1511.3 137.64 -17.28 0 703.58 -277.58 34.85 0 -396.24 -1165.34 146.32 0 -1818.64zm1675.75 -210.4l309.69 -38.89 0 1210.73 665.26 -1294.25 330.33 -41.48 0 1818.64 -309.69 38.88 0 -1191.26 -665.25 1274.79 -330.34 41.48 0 -1818.64zm1575.59 722.5c0,-185.42 25.23,-344.38 75.32,-476.82 37.08,-97.36 88.32,-187.2 152.93,-268.97 64.61,-81.77 135.34,-145.26 212.19,-190.89 102.46,-60.71 220.6,-99.67 354.42,-116.47 242.4,-30.44 435.86,28.67 581.53,176.75 145.28,148.55 217.92,370.99 217.92,667.75 0,294.22 -72.26,533.58 -216.4,717.63 -144.13,184.47 -337.21,291.68 -578.46,321.97 -244.31,30.68 -438.92,-27.44 -583.05,-174.86 -144.14,-147 -216.4,-365.69 -216.4,-656.09zm341.8 -55.2c0,206.16 43.21,356.95 129.23,452.83 86.03,95.46 195.37,135.07 327.65,118.46 132.67,-16.66 241.26,-83.21 326.52,-199.33 84.87,-116.48 127.31,-280.14 127.31,-491.38 0,-208.7 -41.29,-359.31 -124.25,-451.34 -82.59,-92.5 -192.32,-129.94 -329.58,-112.71 -136.87,17.18 -247.36,83.13 -331.09,197.36 -83.73,114.65 -125.79,276.56 -125.79,486.11zm1511.34 720.83l0 -1818.64 332.63 -41.76 0 716.28 646.9 -81.23 0 -716.28 332.63 -41.76 0 1818.64 -332.63 41.76 0 -795.02 -646.9 81.23 0 795.02 -332.63 41.76zm3344.63 -1090.5l321.15 68.89c-49.32,206.44 -131.52,365.35 -246.22,477.11 -114.7,111.35 -259.98,178.27 -436.24,200.4 -218.3,27.41 -397.62,-32.62 -538.31,-180.06 -140.32,-147.48 -210.67,-364.29 -210.67,-650.88 0,-302.69 70.73,-546.94 211.81,-732.29 141.08,-185.36 326.9,-292.51 557.05,-321.4 201.11,-25.25 364.37,20.29 489.77,136.2 74.94,68.48 130.75,173.24 168.23,314.58l-328.04 127.55c-19.5,-91.53 -60.03,-160.96 -121.58,-207.84 -61.94,-46.83 -136.88,-64.51 -224.81,-53.47 -121.97,15.31 -220.99,76.01 -296.7,182.45 -76.08,106.07 -113.93,267.47 -113.93,484.21 0,229.45 37.47,388.57 112.03,476.58 74.93,88.38 172.05,124.87 291.71,109.84 88.32,-11.09 164.4,-51.54 227.87,-121.74 63.47,-70.2 109.35,-173.33 136.88,-310.13zm480.2 -288.05c0,-185.42 25.23,-344.37 75.32,-476.81 37.08,-97.37 88.32,-187.2 152.93,-268.97 64.61,-81.78 135.34,-145.27 212.19,-190.9 102.46,-60.7 220.6,-99.66 354.42,-116.47 242.39,-30.43 435.86,28.68 581.52,176.76 145.29,148.55 217.93,370.99 217.93,667.75 0,294.22 -72.26,533.58 -216.4,717.63 -144.13,184.46 -337.21,291.68 -578.46,321.97 -244.31,30.67 -438.92,-27.44 -583.05,-174.87 -144.14,-147 -216.4,-365.69 -216.4,-656.09zm341.8 -55.19c0,206.16 43.21,356.94 129.23,452.82 86.02,95.46 195.37,135.07 327.65,118.46 132.67,-16.65 241.26,-83.21 326.51,-199.32 84.88,-116.49 127.32,-280.15 127.32,-491.39 0,-208.7 -41.29,-359.3 -124.26,-451.34 -82.58,-92.5 -192.31,-129.94 -329.57,-112.71 -136.87,17.19 -247.36,83.13 -331.09,197.37 -83.73,114.65 -125.79,276.56 -125.79,486.11zm1518.23 -1098.68l1227.28 -154.09 0 307.34 -894.65 112.33 0 421.64 443.12 -55.64c121.97,-15.31 223.66,-11.57 303.95,11.37 80.68,22.89 149.5,75.21 206.46,157.38 56.97,81.74 85.64,182.71 85.64,302.51 0,122.77 -28.67,231.78 -86.4,326.66 -57.35,94.4 -122.73,162.73 -196.52,204.17 -73.41,41.38 -178.17,70.62 -313.89,87.67l-774.99 97.3 0 -1818.64zm332.63 1469.54l322.3 -40.47c102.85,-12.91 175.49,-27.53 217.17,-43.78 41.68,-16.24 78.38,-45.82 109.35,-89.08 30.97,-42.83 46.26,-93.01 46.26,-150.16 0,-83.4 -27.15,-140.53 -81.06,-171.86 -54.29,-30.86 -146.43,-38.34 -277.18,-21.92l-336.84 42.29 0 474.98zm1318.66 -1676.87l332.63 -41.76 0 726.44 443.11 -55.64c116.24,-14.59 216.41,-9.39 300.14,15.24 83.73,24.61 153.69,78.49 209.89,162.02 55.83,83.58 83.73,184.22 83.73,301.91 0,123.19 -29.05,232.67 -87.17,329.29 -58.49,96.25 -123.1,163.2 -194.61,200.97 -71.11,38.14 -175.48,65.63 -312.73,82.86l-774.99 97.31 0 -1818.64zm332.63 1469.54l323.45 -40.62c102.85,-12.91 174.72,-27.43 215.63,-43.58 40.53,-16.1 76.85,-46.06 108.59,-89.41 31.72,-43.36 47.4,-93.16 47.4,-149.89 0,-80.43 -26,-137.7 -77.61,-171.44 -52,-33.68 -145.67,-41.82 -280.63,-24.88l-336.83 42.3 0 477.52zm1227.28 -1665.4l332.62 -41.76 0 1818.64 -332.62 41.76 0 -1818.64zm1046.05 1687.3l0 -1511.3 -486.32 61.06 0 -307.34 1302.98 -163.6 0 307.34 -484.03 60.78 0 1511.3 -332.63 41.76zm1036.5 -1948.78l309.69 -38.88 0 1210.73 665.25 -1294.26 330.33 -41.48 0 1818.64 -309.68 38.89 0 -1191.26 -665.26 1274.78 -330.33 41.48 0 -1818.64zm1648.99 -207.04l309.69 -38.89 0 1210.73 665.25 -1294.26 330.33 -41.47 0 1818.64 -309.68 38.88 0 -1191.26 -665.26 1274.79 -330.33 41.48 0 -1818.64zm848.77 -632.35l153.7 -19.3c-8.8,113.28 -44.73,206.28 -107.05,278.02 -62.33,71.75 -142.99,114.05 -242.01,126.49 -99.41,12.48 -180.08,-9.56 -242.41,-65.67 -62.31,-56.09 -98.25,-140.06 -107.05,-251.14l153.7 -19.29c5.36,57.74 23.71,99.89 55.82,125.92 32.12,26.01 78.76,34.98 139.94,27.3 60.79,-7.64 107.42,-28.31 139.54,-62.39 32.12,-34.1 50.47,-80.85 55.82,-139.94zm1437.57 345.28l309.69 -38.89 0 1210.73 665.25 -1294.25 330.33 -41.48 0 1818.64 -309.68 38.88 0 -1191.26 -665.26 1274.79 -330.33 41.48 0 -1818.64zm2286.34 -287.07l1305.27 -163.89 0 1818.64 -332.63 41.77 0 -1511.3 -640.02 80.36 0 1511.3 -332.62 41.76 0 -1818.64zm1644.4 1612.17l0 -1818.64 531.83 -66.77c201.48,-25.3 332.62,-32.88 393.79,-22.36 94.05,15.71 172.82,65.09 236.28,148.57 63.47,83.47 95.2,197.59 95.2,342.37 0,111.76 -18.35,207.62 -54.67,288.38 -36.71,80.81 -82.97,146.3 -139.17,196.97 -56.2,50.24 -113.55,86.22 -171.67,107.49 -79.14,27.29 -193.45,50.53 -343.33,69.35l-215.63 27.08 0 685.8 -332.63 41.76zm332.63 -1553.06l0 518.16 180.84 -22.71c130.37,-16.37 217.16,-37 261.13,-61.58 43.97,-24.57 78.38,-58.52 103.23,-102.7 24.85,-43.76 37.47,-92.33 37.47,-146.52 0,-66.46 -17.59,-118.86 -52.38,-157.67 -35.17,-38.77 -79.15,-60.35 -133.05,-64.58 -39.38,-3.1 -118.52,2.6 -237.81,17.58l-159.43 20.02zm2475.58 1200.47l-358.24 44.98 -141.85 -396.21 -658.75 82.71 -136.49 431.16 -351.75 44.16 637.73 -1898.71 351.36 -44.11 657.99 1736.02zm-607.9 -645.03l-228.25 -644.45 -221.75 700.95 450 -56.5zm1018.9 -729.92l-323.45 -43.2c69.59,-305.07 267.25,-478.06 593,-518.96 192.69,-24.19 338.36,4.51 436.62,86.15 98.25,81.64 147.19,185.99 147.19,312.99 0,86.78 -22.56,167.93 -67.29,243.82 -44.73,75.46 -112.02,145.3 -201.48,209.87 108.57,27.85 190.4,76 244.69,144.96 54.28,69.39 81.43,159.11 81.43,270.45 0,160.02 -52.76,295.76 -158.66,407.69 -105.52,111.89 -263.81,181.29 -474.48,207.74 -171.67,21.56 -307.39,6.85 -406.8,-44.17 -99.4,-51.02 -173.95,-160.62 -224.04,-328.74l302.8 -147.24c31.35,105.7 73.41,171.54 125.41,197.2 52,26.06 116.23,34.08 192.69,24.48 104.76,-13.15 181.22,-47.73 229.4,-104.15 47.79,-56.38 71.88,-116.98 71.88,-182.18 0,-74.5 -27.15,-131.63 -81.44,-170.53 -53.91,-38.95 -135.72,-51.54 -244.69,-37.86l-75.32 9.46 0 -274.32 37.85 -4.75c101.32,-12.73 178.93,-47.87 232.46,-104.97 53.91,-57.14 80.67,-127.81 80.67,-211.21 0,-66.46 -21.79,-119.6 -65.38,-159.85 -43.58,-39.83 -105.9,-54.86 -186.96,-44.69 -138.78,17.43 -227.48,104.77 -266.1,262.01zm1336.24 -663.07l1133.22 -142.29 0 1511.3 144.52 -18.14 0 703.58 -277.57 34.85 0 -396.24 -1030 129.32 0 396.24 -277.57 34.85 0 -703.58 139.93 -17.57c68.06,-163.9 113.18,-349.91 134.97,-557.54 21.79,-208.05 32.5,-468.9 32.5,-782.59l0 -192.19zm316.56 267.59c0,550.33 -45.88,957.41 -137.63,1221.24l621.66 -78.05 0 -1203.96 -484.03 60.77zm1184.47 1362.58l0 -1818.64 332.62 -41.76 0 716.28 646.9 -81.23 0 -716.28 332.63 -41.76 0 1818.64 -332.63 41.76 0 -795.02 -646.9 81.23 0 795.02 -332.62 41.76zm1661.22 -2027.22l309.68 -38.88 0 1210.73 665.26 -1294.26 330.33 -41.47 0 1818.63 -309.69 38.89 0 -1191.26 -665.25 1274.79 -330.33 41.47 0 -1818.64zm1648.99 -207.04l332.62 -41.77 0 774.7c73.79,-17.73 123.88,-44.76 149.88,-82.31 25.99,-37.14 66.53,-136.63 120.81,-298.38 68.44,-205.45 137.64,-336.9 206.84,-393.42 68.82,-56.48 179.32,-94.49 332.25,-113.69 7.65,-0.96 23.71,-3.4 48.17,-7.32l0 271.78 -47.02 4.64c-68.06,8.54 -117.76,24.09 -149.11,46.66 -31.35,22.56 -56.58,54.09 -76.08,94.64 -19.5,40.55 -48.18,122.47 -86.03,245.75 -20.26,65.63 -42.06,120.85 -65.76,166.16 -23.32,45.27 -64.99,90.29 -124.64,135.03 73.79,13.59 134.58,52.95 182.75,117.18 48.18,64.22 100.94,156.66 158.29,277.73l223.66 469.76 -389.98 48.96 -196.9 -443.49c-3.05,-6.38 -9.55,-18.27 -19.11,-36.12 -3.83,-5.87 -17.59,-32.93 -41.29,-80.32 -42.06,-84.47 -76.47,-136.03 -103.23,-155.11 -27.15,-19.02 -68.06,-25.32 -123.5,-19.21l0 795.02 -332.62 41.77 0 -1818.64zm2875.12 1457.64l-358.24 44.98 -141.85 -396.21 -658.75 82.71 -136.49 431.16 -351.75 44.17 637.73 -1898.71 351.36 -44.12 657.99 1736.02zm-607.9 -645.03l-228.25 -644.44 -221.75 700.94 450 -56.5z"/>
  <path class="fil0" d="M3477.08 21468.44l-358.24 44.98 -141.85 -396.21 -658.75 82.71 -136.49 431.16 -351.75 44.16 637.73 -1898.71 351.36 -44.12 657.99 1736.03zm-607.9 -645.04l-228.26 -644.44 -221.74 700.95 450 -56.51zm528.76 -1163.67l373.54 -46.9 382.32 893.49 327.27 -982.58 346.02 -43.45 -555.53 1451.93c-60.41,157.45 -121.97,279.06 -184.66,365.25 -62.71,86.18 -143.37,135.26 -242.78,147.74 -97.88,12.29 -174.35,14.69 -229.4,7.63l0 -273.46c47.02,-2.52 89.46,-6.16 127.31,-10.91 76.47,-9.6 131.53,-32.17 164.79,-67.26 32.88,-35.45 64.99,-106.79 95.2,-213.45l-604.08 -1228.03zm1600.05 -200.89l332.62 -41.77 0 774.7c73.79,-17.73 123.88,-44.76 149.88,-82.32 25.99,-37.13 66.53,-136.62 120.81,-298.38 68.44,-205.44 137.64,-336.9 206.84,-393.42 68.82,-56.48 179.32,-94.48 332.25,-113.68 7.65,-0.96 23.71,-3.4 48.17,-7.32l0 271.78 -47.02 4.63c-68.06,8.55 -117.76,24.1 -149.11,46.67 -31.35,22.56 -56.58,54.09 -76.08,94.64 -19.5,40.55 -48.18,122.47 -86.03,245.75 -20.26,65.62 -42.06,120.85 -65.76,166.16 -23.32,45.26 -64.99,90.29 -124.64,135.02 73.79,13.6 134.58,52.96 182.75,117.19 48.18,64.22 100.94,156.66 158.29,277.72l223.66 469.76 -389.98 48.97 -196.9 -443.49c-3.05,-6.39 -9.55,-18.27 -19.11,-36.12 -3.83,-5.87 -17.59,-32.93 -41.29,-80.33 -42.06,-84.47 -76.47,-136.03 -103.23,-155.11 -27.15,-19.02 -68.06,-25.31 -123.5,-19.2l0 795.02 -332.62 41.76 0 -1818.63zm1400.09 -175.8l332.63 -41.76 0 1511.3 640.02 -80.36 0 -1511.3 332.63 -41.77 0 1511.3 137.64 -17.28 0 703.58 -277.58 34.85 0 -396.24 -1165.34 146.32 0 -1818.64zm1675.75 -210.4l309.69 -38.89 0 1210.73 665.26 -1294.25 330.33 -41.48 0 1818.64 -309.69 38.88 0 -1191.26 -665.25 1274.79 -330.34 41.48 0 -1818.64zm1575.59 722.5c0,-185.42 25.23,-344.38 75.32,-476.82 37.08,-97.36 88.32,-187.2 152.93,-268.97 64.61,-81.77 135.34,-145.26 212.19,-190.89 102.46,-60.71 220.6,-99.67 354.42,-116.47 242.4,-30.44 435.86,28.67 581.53,176.75 145.28,148.55 217.92,370.99 217.92,667.75 0,294.22 -72.26,533.58 -216.4,717.63 -144.13,184.47 -337.21,291.68 -578.46,321.97 -244.31,30.68 -438.92,-27.44 -583.05,-174.86 -144.14,-147 -216.4,-365.69 -216.4,-656.09zm341.8 -55.2c0,206.16 43.21,356.95 129.23,452.83 86.03,95.46 195.37,135.07 327.65,118.46 132.67,-16.66 241.26,-83.21 326.52,-199.33 84.87,-116.48 127.31,-280.14 127.31,-491.38 0,-208.7 -41.29,-359.31 -124.25,-451.34 -82.59,-92.5 -192.32,-129.94 -329.58,-112.71 -136.87,17.18 -247.36,83.13 -331.09,197.36 -83.73,114.65 -125.79,276.56 -125.79,486.11zm1511.34 720.83l0 -1818.64 332.63 -41.76 0 716.28 646.9 -81.23 0 -716.28 332.63 -41.76 0 1818.64 -332.63 41.76 0 -795.02 -646.9 81.23 0 795.02 -332.63 41.76zm3344.63 -1090.5l321.15 68.89c-49.32,206.44 -131.52,365.35 -246.22,477.11 -114.7,111.35 -259.98,178.27 -436.24,200.4 -218.3,27.41 -397.62,-32.62 -538.31,-180.06 -140.32,-147.48 -210.67,-364.29 -210.67,-650.88 0,-302.69 70.73,-546.94 211.81,-732.29 141.08,-185.36 326.9,-292.51 557.05,-321.4 201.11,-25.25 364.37,20.29 489.77,136.2 74.94,68.48 130.75,173.24 168.23,314.58l-328.04 127.55c-19.5,-91.53 -60.03,-160.96 -121.58,-207.84 -61.94,-46.83 -136.88,-64.51 -224.81,-53.47 -121.97,15.31 -220.99,76.01 -296.7,182.45 -76.08,106.07 -113.93,267.47 -113.93,484.21 0,229.45 37.47,388.57 112.03,476.58 74.93,88.38 172.05,124.87 291.71,109.84 88.32,-11.09 164.4,-51.54 227.87,-121.74 63.47,-70.2 109.35,-173.33 136.88,-310.13zm480.2 -288.05c0,-185.42 25.23,-344.37 75.32,-476.81 37.08,-97.37 88.32,-187.2 152.93,-268.97 64.61,-81.78 135.34,-145.27 212.19,-190.9 102.46,-60.7 220.6,-99.66 354.42,-116.47 242.39,-30.43 435.86,28.68 581.52,176.76 145.29,148.55 217.93,370.99 217.93,667.75 0,294.22 -72.26,533.58 -216.4,717.63 -144.13,184.46 -337.21,291.68 -578.46,321.97 -244.31,30.67 -438.92,-27.44 -583.05,-174.87 -144.14,-147 -216.4,-365.69 -216.4,-656.09zm341.8 -55.19c0,206.16 43.21,356.94 129.23,452.82 86.02,95.46 195.37,135.07 327.65,118.46 132.67,-16.65 241.26,-83.21 326.51,-199.32 84.88,-116.49 127.32,-280.15 127.32,-491.39 0,-208.7 -41.29,-359.3 -124.26,-451.34 -82.58,-92.5 -192.31,-129.94 -329.57,-112.71 -136.87,17.19 -247.36,83.13 -331.09,197.37 -83.73,114.65 -125.79,276.56 -125.79,486.11zm1518.23 -1098.68l1227.28 -154.09 0 307.34 -894.65 112.33 0 421.64 443.12 -55.64c121.97,-15.31 223.66,-11.57 303.95,11.37 80.68,22.89 149.5,75.21 206.46,157.38 56.97,81.74 85.64,182.71 85.64,302.51 0,122.77 -28.67,231.78 -86.4,326.66 -57.35,94.4 -122.73,162.73 -196.52,204.17 -73.41,41.38 -178.17,70.62 -313.89,87.67l-774.99 97.3 0 -1818.64zm332.63 1469.54l322.3 -40.47c102.85,-12.91 175.49,-27.53 217.17,-43.78 41.68,-16.24 78.38,-45.82 109.35,-89.08 30.97,-42.83 46.26,-93.01 46.26,-150.16 0,-83.4 -27.15,-140.53 -81.06,-171.86 -54.29,-30.86 -146.43,-38.34 -277.18,-21.92l-336.84 42.29 0 474.98zm1318.66 -1676.87l332.63 -41.76 0 726.44 443.11 -55.64c116.24,-14.59 216.41,-9.39 300.14,15.24 83.73,24.61 153.69,78.49 209.89,162.02 55.83,83.58 83.73,184.22 83.73,301.91 0,123.19 -29.05,232.67 -87.17,329.29 -58.49,96.25 -123.1,163.2 -194.61,200.97 -71.11,38.14 -175.48,65.63 -312.73,82.86l-774.99 97.31 0 -1818.64zm332.63 1469.54l323.45 -40.62c102.85,-12.91 174.72,-27.43 215.63,-43.58 40.53,-16.1 76.85,-46.06 108.59,-89.41 31.72,-43.36 47.4,-93.16 47.4,-149.89 0,-80.43 -26,-137.7 -77.61,-171.44 -52,-33.68 -145.67,-41.82 -280.63,-24.88l-336.83 42.3 0 477.52zm1227.28 -1665.4l332.62 -41.76 0 1818.64 -332.62 41.76 0 -1818.64zm1046.05 1687.3l0 -1511.3 -486.32 61.06 0 -307.34 1302.98 -163.6 0 307.34 -484.03 60.78 0 1511.3 -332.63 41.76zm1036.5 -1948.78l309.69 -38.88 0 1210.73 665.25 -1294.26 330.33 -41.48 0 1818.64 -309.68 38.89 0 -1191.26 -665.26 1274.78 -330.33 41.48 0 -1818.64zm1648.99 -207.04l309.69 -38.89 0 1210.73 665.25 -1294.26 330.33 -41.47 0 1818.64 -309.68 38.88 0 -1191.26 -665.26 1274.79 -330.33 41.48 0 -1818.64zm848.77 -632.35l153.7 -19.3c-8.8,113.28 -44.73,206.28 -107.05,278.02 -62.33,71.75 -142.99,114.05 -242.01,126.49 -99.41,12.48 -180.08,-9.56 -242.41,-65.67 -62.31,-56.09 -98.25,-140.06 -107.05,-251.14l153.7 -19.29c5.36,57.74 23.71,99.89 55.82,125.92 32.12,26.01 78.76,34.98 139.94,27.3 60.79,-7.64 107.42,-28.31 139.54,-62.39 32.12,-34.1 50.47,-80.85 55.82,-139.94zm1437.57 345.28l309.69 -38.89 0 1210.73 665.25 -1294.25 330.33 -41.48 0 1818.64 -309.68 38.88 0 -1191.26 -665.26 1274.79 -330.33 41.48 0 -1818.64zm2286.34 -287.07l1305.27 -163.89 0 1818.64 -332.63 41.77 0 -1511.3 -640.02 80.36 0 1511.3 -332.62 41.76 0 -1818.64zm1644.4 1612.17l0 -1818.64 531.83 -66.77c201.48,-25.3 332.62,-32.88 393.79,-22.36 94.05,15.71 172.82,65.09 236.28,148.57 63.47,83.47 95.2,197.59 95.2,342.37 0,111.76 -18.35,207.62 -54.67,288.38 -36.71,80.81 -82.97,146.3 -139.17,196.97 -56.2,50.24 -113.55,86.22 -171.67,107.49 -79.14,27.29 -193.45,50.53 -343.33,69.35l-215.63 27.08 0 685.8 -332.63 41.76zm332.63 -1553.06l0 518.16 180.84 -22.71c130.37,-16.37 217.16,-37 261.13,-61.58 43.97,-24.57 78.38,-58.52 103.23,-102.7 24.85,-43.76 37.47,-92.33 37.47,-146.52 0,-66.46 -17.59,-118.86 -52.38,-157.67 -35.17,-38.77 -79.15,-60.35 -133.05,-64.58 -39.38,-3.1 -118.52,2.6 -237.81,17.58l-159.43 20.02zm2475.58 1200.47l-358.24 44.98 -141.85 -396.21 -658.75 82.71 -136.49 431.16 -351.75 44.16 637.73 -1898.71 351.36 -44.11 657.99 1736.02zm-607.9 -645.03l-228.25 -644.45 -221.75 700.95 450 -56.5zm1018.9 -729.92l-323.45 -43.2c69.59,-305.07 267.25,-478.06 593,-518.96 192.69,-24.19 338.36,4.51 436.62,86.15 98.25,81.64 147.19,185.99 147.19,312.99 0,86.78 -22.56,167.93 -67.29,243.82 -44.73,75.46 -112.02,145.3 -201.48,209.87 108.57,27.85 190.4,76 244.69,144.96 54.28,69.39 81.43,159.11 81.43,270.45 0,160.02 -52.76,295.76 -158.66,407.69 -105.52,111.89 -263.81,181.29 -474.48,207.74 -171.67,21.56 -307.39,6.85 -406.8,-44.17 -99.4,-51.02 -173.95,-160.62 -224.04,-328.74l302.8 -147.24c31.35,105.7 73.41,171.54 125.41,197.2 52,26.06 116.23,34.08 192.69,24.48 104.76,-13.15 181.22,-47.73 229.4,-104.15 47.79,-56.38 71.88,-116.98 71.88,-182.18 0,-74.5 -27.15,-131.63 -81.44,-170.53 -53.91,-38.95 -135.72,-51.54 -244.69,-37.86l-75.32 9.46 0 -274.32 37.85 -4.75c101.32,-12.73 178.93,-47.87 232.46,-104.97 53.91,-57.14 80.67,-127.81 80.67,-211.21 0,-66.46 -21.79,-119.6 -65.38,-159.85 -43.58,-39.83 -105.9,-54.86 -186.96,-44.69 -138.78,17.43 -227.48,104.77 -266.1,262.01zm1336.24 -663.07l1133.22 -142.29 0 1511.3 144.52 -18.14 0 703.58 -277.57 34.85 0 -396.24 -1030 129.32 0 396.24 -277.57 34.85 0 -703.58 139.93 -17.57c68.06,-163.9 113.18,-349.91 134.97,-557.54 21.79,-208.05 32.5,-468.9 32.5,-782.59l0 -192.19zm316.56 267.59c0,550.33 -45.88,957.41 -137.63,1221.24l621.66 -78.05 0 -1203.96 -484.03 60.77zm1184.47 1362.58l0 -1818.64 332.62 -41.76 0 716.28 646.9 -81.23 0 -716.28 332.63 -41.76 0 1818.64 -332.63 41.76 0 -795.02 -646.9 81.23 0 795.02 -332.62 41.76zm1661.22 -2027.22l309.68 -38.88 0 1210.73 665.26 -1294.26 330.33 -41.47 0 1818.63 -309.69 38.89 0 -1191.26 -665.25 1274.79 -330.33 41.47 0 -1818.64zm1648.99 -207.04l332.62 -41.77 0 774.7c73.79,-17.73 123.88,-44.76 149.88,-82.31 25.99,-37.14 66.53,-136.63 120.81,-298.38 68.44,-205.45 137.64,-336.9 206.84,-393.42 68.82,-56.48 179.32,-94.49 332.25,-113.69 7.65,-0.96 23.71,-3.4 48.17,-7.32l0 271.78 -47.02 4.64c-68.06,8.54 -117.76,24.09 -149.11,46.66 -31.35,22.56 -56.58,54.09 -76.08,94.64 -19.5,40.55 -48.18,122.47 -86.03,245.75 -20.26,65.63 -42.06,120.85 -65.76,166.16 -23.32,45.27 -64.99,90.29 -124.64,135.03 73.79,13.59 134.58,52.95 182.75,117.18 48.18,64.22 100.94,156.66 158.29,277.73l223.66 469.76 -389.98 48.96 -196.9 -443.49c-3.05,-6.38 -9.55,-18.27 -19.11,-36.12 -3.83,-5.87 -17.59,-32.93 -41.29,-80.32 -42.06,-84.47 -76.47,-136.03 -103.23,-155.11 -27.15,-19.02 -68.06,-25.32 -123.5,-19.21l0 795.02 -332.62 41.77 0 -1818.64zm2875.12 1457.64l-358.24 44.98 -141.85 -396.21 -658.75 82.71 -136.49 431.16 -351.75 44.17 637.73 -1898.71 351.36 -44.12 657.99 1736.02zm-607.9 -645.03l-228.25 -644.44 -221.75 700.94 450 -56.5z"/>
  <path class="fil0" d="M3477.08 21468.44l-358.24 44.98 -141.85 -396.21 -658.75 82.71 -136.49 431.16 -351.75 44.16 637.73 -1898.71 351.36 -44.12 657.99 1736.03zm-607.9 -645.04l-228.26 -644.44 -221.74 700.95 450 -56.51zm528.76 -1163.67l373.54 -46.9 382.32 893.49 327.27 -982.58 346.02 -43.45 -555.53 1451.93c-60.41,157.45 -121.97,279.06 -184.66,365.25 -62.71,86.18 -143.37,135.26 -242.78,147.74 -97.88,12.29 -174.35,14.69 -229.4,7.63l0 -273.46c47.02,-2.52 89.46,-6.16 127.31,-10.91 76.47,-9.6 131.53,-32.17 164.79,-67.26 32.88,-35.45 64.99,-106.79 95.2,-213.45l-604.08 -1228.03zm1600.05 -200.89l332.62 -41.77 0 774.7c73.79,-17.73 123.88,-44.76 149.88,-82.32 25.99,-37.13 66.53,-136.62 120.81,-298.38 68.44,-205.44 137.64,-336.9 206.84,-393.42 68.82,-56.48 179.32,-94.48 332.25,-113.68 7.65,-0.96 23.71,-3.4 48.17,-7.32l0 271.78 -47.02 4.63c-68.06,8.55 -117.76,24.1 -149.11,46.67 -31.35,22.56 -56.58,54.09 -76.08,94.64 -19.5,40.55 -48.18,122.47 -86.03,245.75 -20.26,65.62 -42.06,120.85 -65.76,166.16 -23.32,45.26 -64.99,90.29 -124.64,135.02 73.79,13.6 134.58,52.96 182.75,117.19 48.18,64.22 100.94,156.66 158.29,277.72l223.66 469.76 -389.98 48.97 -196.9 -443.49c-3.05,-6.39 -9.55,-18.27 -19.11,-36.12 -3.83,-5.87 -17.59,-32.93 -41.29,-80.33 -42.06,-84.47 -76.47,-136.03 -103.23,-155.11 -27.15,-19.02 -68.06,-25.31 -123.5,-19.2l0 795.02 -332.62 41.76 0 -1818.63zm1400.09 -175.8l332.63 -41.76 0 1511.3 640.02 -80.36 0 -1511.3 332.63 -41.77 0 1511.3 137.64 -17.28 0 703.58 -277.58 34.85 0 -396.24 -1165.34 146.32 0 -1818.64zm1675.75 -210.4l309.69 -38.89 0 1210.73 665.26 -1294.25 330.33 -41.48 0 1818.64 -309.69 38.88 0 -1191.26 -665.25 1274.79 -330.34 41.48 0 -1818.64zm1575.59 722.5c0,-185.42 25.23,-344.38 75.32,-476.82 37.08,-97.36 88.32,-187.2 152.93,-268.97 64.61,-81.77 135.34,-145.26 212.19,-190.89 102.46,-60.71 220.6,-99.67 354.42,-116.47 242.4,-30.44 435.86,28.67 581.53,176.75 145.28,148.55 217.92,370.99 217.92,667.75 0,294.22 -72.26,533.58 -216.4,717.63 -144.13,184.47 -337.21,291.68 -578.46,321.97 -244.31,30.68 -438.92,-27.44 -583.05,-174.86 -144.14,-147 -216.4,-365.69 -216.4,-656.09zm341.8 -55.2c0,206.16 43.21,356.95 129.23,452.83 86.03,95.46 195.37,135.07 327.65,118.46 132.67,-16.66 241.26,-83.21 326.52,-199.33 84.87,-116.48 127.31,-280.14 127.31,-491.38 0,-208.7 -41.29,-359.31 -124.25,-451.34 -82.59,-92.5 -192.32,-129.94 -329.58,-112.71 -136.87,17.18 -247.36,83.13 -331.09,197.36 -83.73,114.65 -125.79,276.56 -125.79,486.11zm1511.34 720.83l0 -1818.64 332.63 -41.76 0 716.28 646.9 -81.23 0 -716.28 332.63 -41.76 0 1818.64 -332.63 41.76 0 -795.02 -646.9 81.23 0 795.02 -332.63 41.76zm3344.63 -1090.5l321.15 68.89c-49.32,206.44 -131.52,365.35 -246.22,477.11 -114.7,111.35 -259.98,178.27 -436.24,200.4 -218.3,27.41 -397.62,-32.62 -538.31,-180.06 -140.32,-147.48 -210.67,-364.29 -210.67,-650.88 0,-302.69 70.73,-546.94 211.81,-732.29 141.08,-185.36 326.9,-292.51 557.05,-321.4 201.11,-25.25 364.37,20.29 489.77,136.2 74.94,68.48 130.75,173.24 168.23,314.58l-328.04 127.55c-19.5,-91.53 -60.03,-160.96 -121.58,-207.84 -61.94,-46.83 -136.88,-64.51 -224.81,-53.47 -121.97,15.31 -220.99,76.01 -296.7,182.45 -76.08,106.07 -113.93,267.47 -113.93,484.21 0,229.45 37.47,388.57 112.03,476.58 74.93,88.38 172.05,124.87 291.71,109.84 88.32,-11.09 164.4,-51.54 227.87,-121.74 63.47,-70.2 109.35,-173.33 136.88,-310.13zm480.2 -288.05c0,-185.42 25.23,-344.37 75.32,-476.81 37.08,-97.37 88.32,-187.2 152.93,-268.97 64.61,-81.78 135.34,-145.27 212.19,-190.9 102.46,-60.7 220.6,-99.66 354.42,-116.47 242.39,-30.43 435.86,28.68 581.52,176.76 145.29,148.55 217.93,370.99 217.93,667.75 0,294.22 -72.26,533.58 -216.4,717.63 -144.13,184.46 -337.21,291.68 -578.46,321.97 -244.31,30.67 -438.92,-27.44 -583.05,-174.87 -144.14,-147 -216.4,-365.69 -216.4,-656.09zm341.8 -55.19c0,206.16 43.21,356.94 129.23,452.82 86.02,95.46 195.37,135.07 327.65,118.46 132.67,-16.65 241.26,-83.21 326.51,-199.32 84.88,-116.49 127.32,-280.15 127.32,-491.39 0,-208.7 -41.29,-359.3 -124.26,-451.34 -82.58,-92.5 -192.31,-129.94 -329.57,-112.71 -136.87,17.19 -247.36,83.13 -331.09,197.37 -83.73,114.65 -125.79,276.56 -125.79,486.11zm1518.23 -1098.68l1227.28 -154.09 0 307.34 -894.65 112.33 0 421.64 443.12 -55.64c121.97,-15.31 223.66,-11.57 303.95,11.37 80.68,22.89 149.5,75.21 206.46,157.38 56.97,81.74 85.64,182.71 85.64,302.51 0,122.77 -28.67,231.78 -86.4,326.66 -57.35,94.4 -122.73,162.73 -196.52,204.17 -73.41,41.38 -178.17,70.62 -313.89,87.67l-774.99 97.3 0 -1818.64zm332.63 1469.54l322.3 -40.47c102.85,-12.91 175.49,-27.53 217.17,-43.78 41.68,-16.24 78.38,-45.82 109.35,-89.08 30.97,-42.83 46.26,-93.01 46.26,-150.16 0,-83.4 -27.15,-140.53 -81.06,-171.86 -54.29,-30.86 -146.43,-38.34 -277.18,-21.92l-336.84 42.29 0 474.98zm1318.66 -1676.87l332.63 -41.76 0 726.44 443.11 -55.64c116.24,-14.59 216.41,-9.39 300.14,15.24 83.73,24.61 153.69,78.49 209.89,162.02 55.83,83.58 83.73,184.22 83.73,301.91 0,123.19 -29.05,232.67 -87.17,329.29 -58.49,96.25 -123.1,163.2 -194.61,200.97 -71.11,38.14 -175.48,65.63 -312.73,82.86l-774.99 97.31 0 -1818.64zm332.63 1469.54l323.45 -40.62c102.85,-12.91 174.72,-27.43 215.63,-43.58 40.53,-16.1 76.85,-46.06 108.59,-89.41 31.72,-43.36 47.4,-93.16 47.4,-149.89 0,-80.43 -26,-137.7 -77.61,-171.44 -52,-33.68 -145.67,-41.82 -280.63,-24.88l-336.83 42.3 0 477.52zm1227.28 -1665.4l332.62 -41.76 0 1818.64 -332.62 41.76 0 -1818.64zm1046.05 1687.3l0 -1511.3 -486.32 61.06 0 -307.34 1302.98 -163.6 0 307.34 -484.03 60.78 0 1511.3 -332.63 41.76zm1036.5 -1948.78l309.69 -38.88 0 1210.73 665.25 -1294.26 330.33 -41.48 0 1818.64 -309.68 38.89 0 -1191.26 -665.26 1274.78 -330.33 41.48 0 -1818.64zm1648.99 -207.04l309.69 -38.89 0 1210.73 665.25 -1294.26 330.33 -41.47 0 1818.64 -309.68 38.88 0 -1191.26 -665.26 1274.79 -330.33 41.48 0 -1818.64zm848.77 -632.35l153.7 -19.3c-8.8,113.28 -44.73,206.28 -107.05,278.02 -62.33,71.75 -142.99,114.05 -242.01,126.49 -99.41,12.48 -180.08,-9.56 -242.41,-65.67 -62.31,-56.09 -98.25,-140.06 -107.05,-251.14l153.7 -19.29c5.36,57.74 23.71,99.89 55.82,125.92 32.12,26.01 78.76,34.98 139.94,27.3 60.79,-7.64 107.42,-28.31 139.54,-62.39 32.12,-34.1 50.47,-80.85 55.82,-139.94zm1437.57 345.28l309.69 -38.89 0 1210.73 665.25 -1294.25 330.33 -41.48 0 1818.64 -309.68 38.88 0 -1191.26 -665.26 1274.79 -330.33 41.48 0 -1818.64zm2286.34 -287.07l1305.27 -163.89 0 1818.64 -332.63 41.77 0 -1511.3 -640.02 80.36 0 1511.3 -332.62 41.76 0 -1818.64zm1644.4 1612.17l0 -1818.64 531.83 -66.77c201.48,-25.3 332.62,-32.88 393.79,-22.36 94.05,15.71 172.82,65.09 236.28,148.57 63.47,83.47 95.2,197.59 95.2,342.37 0,111.76 -18.35,207.62 -54.67,288.38 -36.71,80.81 -82.97,146.3 -139.17,196.97 -56.2,50.24 -113.55,86.22 -171.67,107.49 -79.14,27.29 -193.45,50.53 -343.33,69.35l-215.63 27.08 0 685.8 -332.63 41.76zm332.63 -1553.06l0 518.16 180.84 -22.71c130.37,-16.37 217.16,-37 261.13,-61.58 43.97,-24.57 78.38,-58.52 103.23,-102.7 24.85,-43.76 37.47,-92.33 37.47,-146.52 0,-66.46 -17.59,-118.86 -52.38,-157.67 -35.17,-38.77 -79.15,-60.35 -133.05,-64.58 -39.38,-3.1 -118.52,2.6 -237.81,17.58l-159.43 20.02zm2475.58 1200.47l-358.24 44.98 -141.85 -396.21 -658.75 82.71 -136.49 431.16 -351.75 44.16 637.73 -1898.71 351.36 -44.11 657.99 1736.02zm-607.9 -645.03l-228.25 -644.45 -221.75 700.95 450 -56.5zm1018.9 -729.92l-323.45 -43.2c69.59,-305.07 267.25,-478.06 593,-518.96 192.69,-24.19 338.36,4.51 436.62,86.15 98.25,81.64 147.19,185.99 147.19,312.99 0,86.78 -22.56,167.93 -67.29,243.82 -44.73,75.46 -112.02,145.3 -201.48,209.87 108.57,27.85 190.4,76 244.69,144.96 54.28,69.39 81.43,159.11 81.43,270.45 0,160.02 -52.76,295.76 -158.66,407.69 -105.52,111.89 -263.81,181.29 -474.48,207.74 -171.67,21.56 -307.39,6.85 -406.8,-44.17 -99.4,-51.02 -173.95,-160.62 -224.04,-328.74l302.8 -147.24c31.35,105.7 73.41,171.54 125.41,197.2 52,26.06 116.23,34.08 192.69,24.48 104.76,-13.15 181.22,-47.73 229.4,-104.15 47.79,-56.38 71.88,-116.98 71.88,-182.18 0,-74.5 -27.15,-131.63 -81.44,-170.53 -53.91,-38.95 -135.72,-51.54 -244.69,-37.86l-75.32 9.46 0 -274.32 37.85 -4.75c101.32,-12.73 178.93,-47.87 232.46,-104.97 53.91,-57.14 80.67,-127.81 80.67,-211.21 0,-66.46 -21.79,-119.6 -65.38,-159.85 -43.58,-39.83 -105.9,-54.86 -186.96,-44.69 -138.78,17.43 -227.48,104.77 -266.1,262.01zm1336.24 -663.07l1133.22 -142.29 0 1511.3 144.52 -18.14 0 703.58 -277.57 34.85 0 -396.24 -1030 129.32 0 396.24 -277.57 34.85 0 -703.58 139.93 -17.57c68.06,-163.9 113.18,-349.91 134.97,-557.54 21.79,-208.05 32.5,-468.9 32.5,-782.59l0 -192.19zm316.56 267.59c0,550.33 -45.88,957.41 -137.63,1221.24l621.66 -78.05 0 -1203.96 -484.03 60.77zm1184.47 1362.58l0 -1818.64 332.62 -41.76 0 716.28 646.9 -81.23 0 -716.28 332.63 -41.76 0 1818.64 -332.63 41.76 0 -795.02 -646.9 81.23 0 795.02 -332.62 41.76zm1661.22 -2027.22l309.68 -38.88 0 1210.73 665.26 -1294.26 330.33 -41.47 0 1818.63 -309.69 38.89 0 -1191.26 -665.25 1274.79 -330.33 41.47 0 -1818.64zm1648.99 -207.04l332.62 -41.77 0 774.7c73.79,-17.73 123.88,-44.76 149.88,-82.31 25.99,-37.14 66.53,-136.63 120.81,-298.38 68.44,-205.45 137.64,-336.9 206.84,-393.42 68.82,-56.48 179.32,-94.49 332.25,-113.69 7.65,-0.96 23.71,-3.4 48.17,-7.32l0 271.78 -47.02 4.64c-68.06,8.54 -117.76,24.09 -149.11,46.66 -31.35,22.56 -56.58,54.09 -76.08,94.64 -19.5,40.55 -48.18,122.47 -86.03,245.75 -20.26,65.63 -42.06,120.85 -65.76,166.16 -23.32,45.27 -64.99,90.29 -124.64,135.03 73.79,13.59 134.58,52.95 182.75,117.18 48.18,64.22 100.94,156.66 158.29,277.73l223.66 469.76 -389.98 48.96 -196.9 -443.49c-3.05,-6.38 -9.55,-18.27 -19.11,-36.12 -3.83,-5.87 -17.59,-32.93 -41.29,-80.32 -42.06,-84.47 -76.47,-136.03 -103.23,-155.11 -27.15,-19.02 -68.06,-25.32 -123.5,-19.21l0 795.02 -332.62 41.77 0 -1818.64zm2875.12 1457.64l-358.24 44.98 -141.85 -396.21 -658.75 82.71 -136.49 431.16 -351.75 44.17 637.73 -1898.71 351.36 -44.12 657.99 1736.02zm-607.9 -645.03l-228.25 -644.44 -221.75 700.94 450 -56.5z"/>
  <path class="fil1" d="M2800.91 4168.26l2627.71 -304.28 1000.95 3588.62 1003.96 -3820.78 2615.7 -302.88 0 6088.24 -1629.74 188.71 0 -4641.29 -1257.58 4786.92 -1476.68 170.99 -1254.57 -4496.02 0 4641.29 -1629.75 188.72 0 -6088.24zm7868.11 -911.09l2212 -256.15 1304.1 1898.24 1298.09 -2199.56 2200.01 -254.75 -2503.14 3828.57 0 2549.52 -1998.92 231.47 0 -2549.52 -2512.14 -3247.82z"/>
  <path class="fil1" d="M11109.54 10576.5l6059.77 -701.69 0 1505.05 -2034.93 235.63 0 4583.19 -1989.91 230.43 0 -4583.19 -2034.93 235.64 0 -1505.06zm6952.67 -805.09l5330.43 -617.24 0 1300.98 -3331.52 385.77 0 969.36 3088.41 -357.63 0 1241.46 -3088.41 357.63 0 1198.93 3430.57 -397.24 0 1377.51 -5429.48 628.71 0 -6088.24zm6520.48 -755.05l1859.35 -215.3 2417.6 3081.62 0 -3361.57 1881.86 -217.91 0 6088.24 -1881.86 217.91 -2404.1 -3064.77 0 3343.15 -1872.85 216.87 0 -6088.24zm7509.43 -869.56l2960.85 -342.85c582.27,-67.43 1054.99,-47.06 1413.65,60.21 358.67,108.69 655.8,288.29 891.41,540.18 234.11,253.5 403.69,558.4 508.73,917.53 106.55,358.98 159.08,745.46 159.08,1160.68 0,650.49 -78.04,1164.05 -235.61,1540.85 -156.08,376.62 -373.68,702.27 -652.8,976.92 -279.13,274.66 -577.77,470.81 -897.41,588.6 -436.71,161.11 -832.88,262.26 -1187.05,303.27l-2960.85 342.85 0 -6088.24zm1989.91 1147.09l0 3324.72 489.22 -56.65c417.2,-48.31 714.33,-126.66 891.41,-233.61 175.58,-108.2 313.65,-275.82 414.19,-504.3 100.55,-229.88 150.07,-587.08 150.07,-1074.6 0,-644.81 -111.05,-1072.71 -334.65,-1284.9 -223.61,-212.2 -594.27,-288.31 -1112.01,-228.36l-498.23 57.7z"/>
  <polygon class="fil2 str0" points="503.29,19007.62 43094.82,13659.91 43094.82,16707.91 503.29,22055.62 "/>
  <path class="fil0" d="M3143.29 21143.73l-358.24 44.98 -141.85 -396.21 -658.75 82.71 -136.49 431.16 -351.75 44.16 637.73 -1898.71 351.36 -44.12 657.99 1736.03zm-607.9 -645.04l-228.26 -644.44 -221.74 700.95 450 -56.51zm528.76 -1163.67l373.54 -46.9 382.32 893.49 327.27 -982.58 346.02 -43.45 -555.53 1451.93c-60.41,157.45 -121.97,279.06 -184.66,365.25 -62.71,86.18 -143.37,135.26 -242.78,147.74 -97.88,12.29 -174.35,14.69 -229.4,7.63l0 -273.46c47.02,-2.52 89.46,-6.16 127.31,-10.91 76.47,-9.6 131.53,-32.17 164.79,-67.26 32.88,-35.45 64.99,-106.79 95.2,-213.45l-604.08 -1228.03zm1600.05 -200.89l332.62 -41.77 0 774.7c73.79,-17.73 123.88,-44.76 149.88,-82.32 25.99,-37.13 66.53,-136.62 120.81,-298.38 68.44,-205.44 137.64,-336.9 206.84,-393.42 68.82,-56.48 179.32,-94.48 332.25,-113.68 7.65,-0.96 23.71,-3.4 48.17,-7.32l0 271.78 -47.02 4.63c-68.06,8.55 -117.76,24.1 -149.11,46.67 -31.35,22.56 -56.58,54.09 -76.08,94.64 -19.5,40.55 -48.18,122.47 -86.03,245.75 -20.26,65.62 -42.06,120.85 -65.76,166.16 -23.32,45.26 -64.99,90.29 -124.64,135.02 73.79,13.6 134.58,52.96 182.75,117.19 48.18,64.22 100.94,156.66 158.29,277.72l223.66 469.76 -389.98 48.97 -196.9 -443.49c-3.05,-6.39 -9.55,-18.27 -19.11,-36.12 -3.83,-5.87 -17.59,-32.93 -41.29,-80.33 -42.06,-84.47 -76.47,-136.03 -103.23,-155.11 -27.15,-19.02 -68.06,-25.31 -123.5,-19.2l0 795.02 -332.62 41.76 0 -1818.63zm1400.09 -175.8l332.63 -41.76 0 1511.3 640.02 -80.36 0 -1511.3 332.63 -41.77 0 1511.3 137.64 -17.28 0 703.58 -277.58 34.85 0 -396.24 -1165.34 146.32 0 -1818.64zm1675.75 -210.4l309.69 -38.89 0 1210.73 665.26 -1294.25 330.33 -41.48 0 1818.64 -309.69 38.88 0 -1191.26 -665.25 1274.79 -330.34 41.48 0 -1818.64zm1575.59 722.5c0,-185.42 25.23,-344.38 75.32,-476.82 37.08,-97.36 88.32,-187.2 152.93,-268.97 64.61,-81.77 135.34,-145.26 212.19,-190.89 102.46,-60.71 220.6,-99.67 354.42,-116.47 242.4,-30.44 435.86,28.67 581.53,176.75 145.28,148.55 217.92,370.99 217.92,667.75 0,294.22 -72.26,533.58 -216.4,717.63 -144.13,184.47 -337.21,291.68 -578.46,321.97 -244.31,30.68 -438.92,-27.44 -583.05,-174.86 -144.14,-147 -216.4,-365.69 -216.4,-656.09zm341.8 -55.2c0,206.16 43.21,356.95 129.23,452.83 86.03,95.46 195.37,135.07 327.65,118.46 132.67,-16.66 241.26,-83.21 326.52,-199.33 84.87,-116.48 127.31,-280.14 127.31,-491.38 0,-208.7 -41.29,-359.31 -124.25,-451.34 -82.59,-92.5 -192.32,-129.94 -329.58,-112.71 -136.87,17.18 -247.36,83.13 -331.09,197.36 -83.73,114.65 -125.79,276.56 -125.79,486.11zm1511.35 720.83l0 -1818.64 332.63 -41.76 0 716.28 646.9 -81.23 0 -716.28 332.63 -41.76 0 1818.64 -332.63 41.76 0 -795.02 -646.9 81.23 0 795.02 -332.63 41.76zm3344.62 -1090.5l321.15 68.89c-49.32,206.44 -131.52,365.35 -246.22,477.11 -114.7,111.35 -259.98,178.27 -436.24,200.4 -218.3,27.41 -397.62,-32.62 -538.31,-180.06 -140.32,-147.48 -210.67,-364.29 -210.67,-650.88 0,-302.69 70.73,-546.94 211.81,-732.29 141.08,-185.36 326.9,-292.51 557.05,-321.4 201.11,-25.25 364.37,20.29 489.77,136.2 74.94,68.48 130.75,173.24 168.23,314.58l-328.04 127.55c-19.5,-91.53 -60.03,-160.96 -121.58,-207.84 -61.94,-46.83 -136.88,-64.51 -224.81,-53.47 -121.97,15.31 -220.99,76.01 -296.7,182.45 -76.08,106.07 -113.93,267.47 -113.93,484.21 0,229.45 37.47,388.57 112.03,476.58 74.93,88.38 172.05,124.87 291.71,109.84 88.32,-11.09 164.4,-51.54 227.87,-121.74 63.47,-70.2 109.35,-173.33 136.88,-310.13zm480.2 -288.05c0,-185.42 25.23,-344.37 75.32,-476.81 37.08,-97.37 88.32,-187.2 152.93,-268.97 64.61,-81.78 135.34,-145.27 212.19,-190.9 102.46,-60.7 220.6,-99.66 354.42,-116.47 242.39,-30.43 435.86,28.68 581.52,176.76 145.29,148.55 217.93,370.99 217.93,667.75 0,294.22 -72.26,533.58 -216.4,717.63 -144.13,184.46 -337.21,291.68 -578.46,321.97 -244.31,30.67 -438.92,-27.44 -583.05,-174.87 -144.14,-147 -216.4,-365.69 -216.4,-656.09zm341.8 -55.19c0,206.16 43.21,356.94 129.23,452.82 86.02,95.46 195.37,135.07 327.65,118.46 132.67,-16.65 241.26,-83.21 326.51,-199.32 84.88,-116.49 127.32,-280.15 127.32,-491.39 0,-208.7 -41.29,-359.3 -124.26,-451.34 -82.58,-92.5 -192.31,-129.94 -329.57,-112.71 -136.87,17.19 -247.36,83.13 -331.09,197.37 -83.73,114.65 -125.79,276.56 -125.79,486.11zm1518.23 -1098.68l1227.28 -154.09 0 307.34 -894.65 112.33 0 421.64 443.12 -55.64c121.97,-15.31 223.66,-11.57 303.95,11.37 80.68,22.89 149.5,75.21 206.46,157.38 56.97,81.74 85.64,182.71 85.64,302.51 0,122.77 -28.67,231.78 -86.4,326.66 -57.35,94.4 -122.73,162.73 -196.52,204.17 -73.41,41.38 -178.17,70.62 -313.89,87.67l-774.99 97.3 0 -1818.64zm332.63 1469.54l322.3 -40.47c102.85,-12.91 175.49,-27.53 217.17,-43.78 41.68,-16.24 78.38,-45.82 109.35,-89.08 30.97,-42.83 46.26,-93.01 46.26,-150.16 0,-83.4 -27.15,-140.53 -81.06,-171.86 -54.29,-30.86 -146.43,-38.34 -277.18,-21.92l-336.84 42.29 0 474.98zm1318.66 -1676.87l332.63 -41.76 0 726.44 443.11 -55.64c116.24,-14.59 216.41,-9.39 300.14,15.24 83.73,24.61 153.69,78.49 209.89,162.02 55.83,83.58 83.73,184.22 83.73,301.91 0,123.19 -29.05,232.67 -87.17,329.29 -58.49,96.25 -123.1,163.2 -194.61,200.97 -71.11,38.14 -175.48,65.63 -312.73,82.86l-774.99 97.31 0 -1818.64zm332.63 1469.54l323.45 -40.62c102.85,-12.91 174.72,-27.43 215.63,-43.58 40.53,-16.1 76.85,-46.06 108.59,-89.41 31.72,-43.36 47.4,-93.16 47.4,-149.89 0,-80.43 -26,-137.7 -77.61,-171.44 -52,-33.68 -145.67,-41.82 -280.63,-24.88l-336.83 42.3 0 477.52zm1227.28 -1665.4l332.62 -41.76 0 1818.64 -332.62 41.76 0 -1818.64zm1046.05 1687.3l0 -1511.3 -486.32 61.06 0 -307.34 1302.98 -163.6 0 307.34 -484.03 60.78 0 1511.3 -332.63 41.76zm1036.5 -1948.78l309.69 -38.88 0 1210.73 665.25 -1294.26 330.33 -41.48 0 1818.64 -309.68 38.89 0 -1191.26 -665.26 1274.78 -330.33 41.48 0 -1818.64zm1648.99 -207.04l309.69 -38.89 0 1210.73 665.25 -1294.26 330.33 -41.47 0 1818.64 -309.68 38.88 0 -1191.26 -665.26 1274.79 -330.33 41.48 0 -1818.64zm848.77 -632.35l153.7 -19.3c-8.8,113.28 -44.73,206.28 -107.05,278.02 -62.33,71.75 -142.99,114.05 -242.01,126.49 -99.41,12.48 -180.08,-9.56 -242.41,-65.67 -62.31,-56.09 -98.25,-140.06 -107.05,-251.14l153.7 -19.29c5.36,57.74 23.71,99.89 55.82,125.92 32.12,26.01 78.76,34.98 139.94,27.3 60.79,-7.64 107.42,-28.31 139.54,-62.39 32.12,-34.1 50.47,-80.85 55.82,-139.94zm1437.57 345.28l309.69 -38.89 0 1210.73 665.25 -1294.25 330.33 -41.48 0 1818.64 -309.68 38.88 0 -1191.26 -665.26 1274.79 -330.33 41.48 0 -1818.64zm2286.34 -287.07l1305.27 -163.89 0 1818.64 -332.63 41.77 0 -1511.3 -640.02 80.36 0 1511.3 -332.62 41.76 0 -1818.64zm1644.4 1612.17l0 -1818.64 531.83 -66.77c201.48,-25.3 332.62,-32.88 393.79,-22.36 94.05,15.71 172.82,65.09 236.28,148.57 63.47,83.47 95.2,197.59 95.2,342.37 0,111.76 -18.35,207.62 -54.67,288.38 -36.71,80.81 -82.97,146.3 -139.17,196.97 -56.2,50.24 -113.55,86.22 -171.67,107.49 -79.14,27.29 -193.45,50.53 -343.33,69.35l-215.63 27.08 0 685.8 -332.63 41.76zm332.63 -1553.06l0 518.16 180.84 -22.71c130.37,-16.37 217.16,-37 261.13,-61.58 43.97,-24.57 78.38,-58.52 103.23,-102.7 24.85,-43.76 37.47,-92.33 37.47,-146.52 0,-66.46 -17.59,-118.86 -52.38,-157.67 -35.17,-38.77 -79.15,-60.35 -133.05,-64.58 -39.38,-3.1 -118.52,2.6 -237.81,17.58l-159.43 20.02zm2475.58 1200.47l-358.24 44.98 -141.85 -396.21 -658.75 82.71 -136.49 431.16 -351.75 44.16 637.73 -1898.71 351.36 -44.11 657.99 1736.02zm-607.9 -645.03l-228.25 -644.45 -221.75 700.95 450 -56.5zm1018.9 -729.92l-323.45 -43.2c69.59,-305.07 267.25,-478.06 593,-518.96 192.69,-24.19 338.36,4.51 436.62,86.15 98.25,81.64 147.19,185.99 147.19,312.99 0,86.78 -22.56,167.93 -67.29,243.82 -44.73,75.46 -112.02,145.3 -201.48,209.87 108.57,27.85 190.4,76 244.69,144.96 54.28,69.39 81.43,159.11 81.43,270.45 0,160.02 -52.76,295.76 -158.66,407.69 -105.52,111.89 -263.81,181.29 -474.48,207.74 -171.67,21.56 -307.39,6.85 -406.8,-44.17 -99.4,-51.02 -173.95,-160.62 -224.04,-328.74l302.8 -147.24c31.35,105.7 73.41,171.54 125.41,197.2 52,26.06 116.23,34.08 192.69,24.48 104.76,-13.15 181.22,-47.73 229.4,-104.15 47.79,-56.38 71.88,-116.98 71.88,-182.18 0,-74.5 -27.15,-131.63 -81.44,-170.53 -53.91,-38.95 -135.72,-51.54 -244.69,-37.86l-75.32 9.46 0 -274.32 37.85 -4.75c101.32,-12.73 178.93,-47.87 232.46,-104.97 53.91,-57.14 80.67,-127.81 80.67,-211.21 0,-66.46 -21.79,-119.6 -65.38,-159.85 -43.58,-39.83 -105.9,-54.86 -186.96,-44.69 -138.78,17.43 -227.48,104.77 -266.1,262.01zm1336.24 -663.07l1133.22 -142.29 0 1511.3 144.52 -18.14 0 703.58 -277.57 34.85 0 -396.24 -1030 129.32 0 396.24 -277.57 34.85 0 -703.58 139.93 -17.57c68.06,-163.9 113.18,-349.91 134.97,-557.54 21.79,-208.05 32.5,-468.9 32.5,-782.59l0 -192.19zm316.56 267.59c0,550.33 -45.88,957.41 -137.63,1221.24l621.66 -78.05 0 -1203.96 -484.03 60.77zm1184.47 1362.58l0 -1818.64 332.62 -41.76 0 716.28 646.9 -81.23 0 -716.28 332.63 -41.76 0 1818.64 -332.63 41.76 0 -795.02 -646.9 81.23 0 795.02 -332.62 41.76zm1661.22 -2027.22l309.68 -38.88 0 1210.73 665.26 -1294.26 330.33 -41.47 0 1818.63 -309.69 38.89 0 -1191.26 -665.25 1274.79 -330.33 41.47 0 -1818.64zm1648.99 -207.04l332.62 -41.77 0 774.7c73.79,-17.73 123.88,-44.76 149.88,-82.31 25.99,-37.14 66.53,-136.63 120.81,-298.38 68.44,-205.45 137.64,-336.9 206.84,-393.42 68.82,-56.48 179.32,-94.49 332.25,-113.69 7.65,-0.96 23.71,-3.4 48.17,-7.32l0 271.78 -47.02 4.64c-68.06,8.54 -117.76,24.09 -149.11,46.66 -31.35,22.56 -56.58,54.09 -76.08,94.64 -19.5,40.55 -48.18,122.47 -86.03,245.75 -20.26,65.63 -42.06,120.85 -65.76,166.16 -23.32,45.27 -64.99,90.29 -124.64,135.03 73.79,13.59 134.58,52.95 182.75,117.18 48.18,64.22 100.94,156.66 158.29,277.73l223.66 469.76 -389.98 48.96 -196.9 -443.49c-3.05,-6.38 -9.55,-18.27 -19.11,-36.12 -3.83,-5.87 -17.59,-32.93 -41.29,-80.32 -42.06,-84.47 -76.47,-136.03 -103.23,-155.11 -27.15,-19.02 -68.06,-25.32 -123.5,-19.21l0 795.02 -332.62 41.77 0 -1818.64zm2875.12 1457.64l-358.24 44.98 -141.85 -396.21 -658.75 82.71 -136.49 431.16 -351.75 44.17 637.73 -1898.71 351.36 -44.12 657.99 1736.02zm-607.9 -645.03l-228.25 -644.44 -221.75 700.94 450 -56.5z"/>
  <polygon class="fil3" points="38515.96,2360.63 39272.41,4346.03 41734.9,4342.02 39739.92,5565.06 40505.38,7547.99 38515.96,6318.46 36526.55,7547.99 37292,5565.06 35297.02,4342.02 37759.51,4346.03 "/>
  <polygon class="fil4 str1" points="32637.07,762.76 31956.43,2695.66 29740.7,2691.76 31535.76,3882.46 30847.01,5812.95 32637.07,4615.93 34427.13,5812.95 33738.38,3882.46 35533.44,2691.76 33317.72,2695.66 "/>
  <polygon class="fil5" points="26517.95,292.66 27162.8,1998.56 29261.98,1995.12 27561.33,3045.98 28213.86,4749.75 26517.95,3693.31 24822.04,4749.75 25474.56,3045.98 23773.91,1995.12 25873.09,1998.56 "/>
  <path class="fil1" d="M11109.54 10576.5l6059.77 -701.69 0 1505.05 -2034.93 235.63 0 4583.19 -1989.91 230.43 0 -4583.19 -2034.93 235.64 0 -1505.06zm6952.67 -805.09l5330.43 -617.24 0 1300.98 -3331.52 385.77 0 969.36 3088.41 -357.63 0 1241.46 -3088.41 357.63 0 1198.93 3430.57 -397.24 0 1377.51 -5429.48 628.71 0 -6088.24zm6520.48 -755.05l1859.35 -215.3 2417.6 3081.62 0 -3361.57 1881.86 -217.91 0 6088.24 -1881.86 217.91 -2404.1 -3064.77 0 3343.15 -1872.85 216.87 0 -6088.24zm7509.43 -869.56l2960.85 -342.85c582.27,-67.43 1054.99,-47.06 1413.65,60.21 358.67,108.69 655.8,288.29 891.41,540.18 234.11,253.5 403.69,558.4 508.73,917.53 106.55,358.98 159.08,745.46 159.08,1160.68 0,650.49 -78.04,1164.05 -235.61,1540.85 -156.08,376.62 -373.68,702.27 -652.8,976.92 -279.13,274.66 -577.77,470.81 -897.41,588.6 -436.71,161.11 -832.88,262.26 -1187.05,303.27l-2960.85 342.85 0 -6088.24zm1989.91 1147.09l0 3324.72 489.22 -56.65c417.2,-48.31 714.33,-126.66 891.41,-233.61 175.58,-108.2 313.65,-275.82 414.19,-504.3 100.55,-229.88 150.07,-587.08 150.07,-1074.6 0,-644.81 -111.05,-1072.71 -334.65,-1284.9 -223.61,-212.2 -594.27,-288.31 -1112.01,-228.36l-498.23 57.7z"/>
  <polygon class="fil2 str0" points="503.29,19007.62 43094.82,13659.91 43094.82,16707.91 503.29,22055.62 "/>
  <path class="fil0" d="M3143.29 21143.73l-358.24 44.98 -141.85 -396.21 -658.75 82.71 -136.49 431.16 -351.75 44.16 637.73 -1898.71 351.36 -44.12 657.99 1736.03zm-607.9 -645.04l-228.26 -644.44 -221.74 700.95 450 -56.51zm528.76 -1163.67l373.54 -46.9 382.32 893.49 327.27 -982.58 346.02 -43.45 -555.53 1451.93c-60.41,157.45 -121.97,279.06 -184.66,365.25 -62.71,86.18 -143.37,135.26 -242.78,147.74 -97.88,12.29 -174.35,14.69 -229.4,7.63l0 -273.46c47.02,-2.52 89.46,-6.16 127.31,-10.91 76.47,-9.6 131.53,-32.17 164.79,-67.26 32.88,-35.45 64.99,-106.79 95.2,-213.45l-604.08 -1228.03zm1600.05 -200.89l332.62 -41.77 0 774.7c73.79,-17.73 123.88,-44.76 149.88,-82.32 25.99,-37.13 66.53,-136.62 120.81,-298.38 68.44,-205.44 137.64,-336.9 206.84,-393.42 68.82,-56.48 179.32,-94.48 332.25,-113.68 7.65,-0.96 23.71,-3.4 48.17,-7.32l0 271.78 -47.02 4.63c-68.06,8.55 -117.76,24.1 -149.11,46.67 -31.35,22.56 -56.58,54.09 -76.08,94.64 -19.5,40.55 -48.18,122.47 -86.03,245.75 -20.26,65.62 -42.06,120.85 -65.76,166.16 -23.32,45.26 -64.99,90.29 -124.64,135.02 73.79,13.6 134.58,52.96 182.75,117.19 48.18,64.22 100.94,156.66 158.29,277.72l223.66 469.76 -389.98 48.97 -196.9 -443.49c-3.05,-6.39 -9.55,-18.27 -19.11,-36.12 -3.83,-5.87 -17.59,-32.93 -41.29,-80.33 -42.06,-84.47 -76.47,-136.03 -103.23,-155.11 -27.15,-19.02 -68.06,-25.31 -123.5,-19.2l0 795.02 -332.62 41.76 0 -1818.63zm1400.09 -175.8l332.63 -41.76 0 1511.3 640.02 -80.36 0 -1511.3 332.63 -41.77 0 1511.3 137.64 -17.28 0 703.58 -277.58 34.85 0 -396.24 -1165.34 146.32 0 -1818.64zm1675.75 -210.4l309.69 -38.89 0 1210.73 665.26 -1294.25 330.33 -41.48 0 1818.64 -309.69 38.88 0 -1191.26 -665.25 1274.79 -330.34 41.48 0 -1818.64zm1575.59 722.5c0,-185.42 25.23,-344.38 75.32,-476.82 37.08,-97.36 88.32,-187.2 152.93,-268.97 64.61,-81.77 135.34,-145.26 212.19,-190.89 102.46,-60.71 220.6,-99.67 354.42,-116.47 242.4,-30.44 435.86,28.67 581.53,176.75 145.28,148.55 217.92,370.99 217.92,667.75 0,294.22 -72.26,533.58 -216.4,717.63 -144.13,184.47 -337.21,291.68 -578.46,321.97 -244.31,30.68 -438.92,-27.44 -583.05,-174.86 -144.14,-147 -216.4,-365.69 -216.4,-656.09zm341.8 -55.2c0,206.16 43.21,356.95 129.23,452.83 86.03,95.46 195.37,135.07 327.65,118.46 132.67,-16.66 241.26,-83.21 326.52,-199.33 84.87,-116.48 127.31,-280.14 127.31,-491.38 0,-208.7 -41.29,-359.31 -124.25,-451.34 -82.59,-92.5 -192.32,-129.94 -329.58,-112.71 -136.87,17.18 -247.36,83.13 -331.09,197.36 -83.73,114.65 -125.79,276.56 -125.79,486.11zm1511.35 720.83l0 -1818.64 332.63 -41.76 0 716.28 646.9 -81.23 0 -716.28 332.63 -41.76 0 1818.64 -332.63 41.76 0 -795.02 -646.9 81.23 0 795.02 -332.63 41.76zm3344.62 -1090.5l321.15 68.89c-49.32,206.44 -131.52,365.35 -246.22,477.11 -114.7,111.35 -259.98,178.27 -436.24,200.4 -218.3,27.41 -397.62,-32.62 -538.31,-180.06 -140.32,-147.48 -210.67,-364.29 -210.67,-650.88 0,-302.69 70.73,-546.94 211.81,-732.29 141.08,-185.36 326.9,-292.51 557.05,-321.4 201.11,-25.25 364.37,20.29 489.77,136.2 74.94,68.48 130.75,173.24 168.23,314.58l-328.04 127.55c-19.5,-91.53 -60.03,-160.96 -121.58,-207.84 -61.94,-46.83 -136.88,-64.51 -224.81,-53.47 -121.97,15.31 -220.99,76.01 -296.7,182.45 -76.08,106.07 -113.93,267.47 -113.93,484.21 0,229.45 37.47,388.57 112.03,476.58 74.93,88.38 172.05,124.87 291.71,109.84 88.32,-11.09 164.4,-51.54 227.87,-121.74 63.47,-70.2 109.35,-173.33 136.88,-310.13zm480.2 -288.05c0,-185.42 25.23,-344.37 75.32,-476.81 37.08,-97.37 88.32,-187.2 152.93,-268.97 64.61,-81.78 135.34,-145.27 212.19,-190.9 102.46,-60.7 220.6,-99.66 354.42,-116.47 242.39,-30.43 435.86,28.68 581.52,176.76 145.29,148.55 217.93,370.99 217.93,667.75 0,294.22 -72.26,533.58 -216.4,717.63 -144.13,184.46 -337.21,291.68 -578.46,321.97 -244.31,30.67 -438.92,-27.44 -583.05,-174.87 -144.14,-147 -216.4,-365.69 -216.4,-656.09zm341.8 -55.19c0,206.16 43.21,356.94 129.23,452.82 86.02,95.46 195.37,135.07 327.65,118.46 132.67,-16.65 241.26,-83.21 326.51,-199.32 84.88,-116.49 127.32,-280.15 127.32,-491.39 0,-208.7 -41.29,-359.3 -124.26,-451.34 -82.58,-92.5 -192.31,-129.94 -329.57,-112.71 -136.87,17.19 -247.36,83.13 -331.09,197.37 -83.73,114.65 -125.79,276.56 -125.79,486.11zm1518.23 -1098.68l1227.28 -154.09 0 307.34 -894.65 112.33 0 421.64 443.12 -55.64c121.97,-15.31 223.66,-11.57 303.95,11.37 80.68,22.89 149.5,75.21 206.46,157.38 56.97,81.74 85.64,182.71 85.64,302.51 0,122.77 -28.67,231.78 -86.4,326.66 -57.35,94.4 -122.73,162.73 -196.52,204.17 -73.41,41.38 -178.17,70.62 -313.89,87.67l-774.99 97.3 0 -1818.64zm332.63 1469.54l322.3 -40.47c102.85,-12.91 175.49,-27.53 217.17,-43.78 41.68,-16.24 78.38,-45.82 109.35,-89.08 30.97,-42.83 46.26,-93.01 46.26,-150.16 0,-83.4 -27.15,-140.53 -81.06,-171.86 -54.29,-30.86 -146.43,-38.34 -277.18,-21.92l-336.84 42.29 0 474.98zm1318.66 -1676.87l332.63 -41.76 0 726.44 443.11 -55.64c116.24,-14.59 216.41,-9.39 300.14,15.24 83.73,24.61 153.69,78.49 209.89,162.02 55.83,83.58 83.73,184.22 83.73,301.91 0,123.19 -29.05,232.67 -87.17,329.29 -58.49,96.25 -123.1,163.2 -194.61,200.97 -71.11,38.14 -175.48,65.63 -312.73,82.86l-774.99 97.31 0 -1818.64zm332.63 1469.54l323.45 -40.62c102.85,-12.91 174.72,-27.43 215.63,-43.58 40.53,-16.1 76.85,-46.06 108.59,-89.41 31.72,-43.36 47.4,-93.16 47.4,-149.89 0,-80.43 -26,-137.7 -77.61,-171.44 -52,-33.68 -145.67,-41.82 -280.63,-24.88l-336.83 42.3 0 477.52zm1227.28 -1665.4l332.62 -41.76 0 1818.64 -332.62 41.76 0 -1818.64zm1046.05 1687.3l0 -1511.3 -486.32 61.06 0 -307.34 1302.98 -163.6 0 307.34 -484.03 60.78 0 1511.3 -332.63 41.76zm1036.5 -1948.78l309.69 -38.88 0 1210.73 665.25 -1294.26 330.33 -41.48 0 1818.64 -309.68 38.89 0 -1191.26 -665.26 1274.78 -330.33 41.48 0 -1818.64zm1648.99 -207.04l309.69 -38.89 0 1210.73 665.25 -1294.26 330.33 -41.47 0 1818.64 -309.68 38.88 0 -1191.26 -665.26 1274.79 -330.33 41.48 0 -1818.64zm848.77 -632.35l153.7 -19.3c-8.8,113.28 -44.73,206.28 -107.05,278.02 -62.33,71.75 -142.99,114.05 -242.01,126.49 -99.41,12.48 -180.08,-9.56 -242.41,-65.67 -62.31,-56.09 -98.25,-140.06 -107.05,-251.14l153.7 -19.29c5.36,57.74 23.71,99.89 55.82,125.92 32.12,26.01 78.76,34.98 139.94,27.3 60.79,-7.64 107.42,-28.31 139.54,-62.39 32.12,-34.1 50.47,-80.85 55.82,-139.94zm1437.57 345.28l309.69 -38.89 0 1210.73 665.25 -1294.25 330.33 -41.48 0 1818.64 -309.68 38.88 0 -1191.26 -665.26 1274.79 -330.33 41.48 0 -1818.64zm2286.34 -287.07l1305.27 -163.89 0 1818.64 -332.63 41.77 0 -1511.3 -640.02 80.36 0 1511.3 -332.62 41.76 0 -1818.64zm1644.4 1612.17l0 -1818.64 531.83 -66.77c201.48,-25.3 332.62,-32.88 393.79,-22.36 94.05,15.71 172.82,65.09 236.28,148.57 63.47,83.47 95.2,197.59 95.2,342.37 0,111.76 -18.35,207.62 -54.67,288.38 -36.71,80.81 -82.97,146.3 -139.17,196.97 -56.2,50.24 -113.55,86.22 -171.67,107.49 -79.14,27.29 -193.45,50.53 -343.33,69.35l-215.63 27.08 0 685.8 -332.63 41.76zm332.63 -1553.06l0 518.16 180.84 -22.71c130.37,-16.37 217.16,-37 261.13,-61.58 43.97,-24.57 78.38,-58.52 103.23,-102.7 24.85,-43.76 37.47,-92.33 37.47,-146.52 0,-66.46 -17.59,-118.86 -52.38,-157.67 -35.17,-38.77 -79.15,-60.35 -133.05,-64.58 -39.38,-3.1 -118.52,2.6 -237.81,17.58l-159.43 20.02zm2475.58 1200.47l-358.24 44.98 -141.85 -396.21 -658.75 82.71 -136.49 431.16 -351.75 44.16 637.73 -1898.71 351.36 -44.11 657.99 1736.02zm-607.9 -645.03l-228.25 -644.45 -221.75 700.95 450 -56.5zm1018.9 -729.92l-323.45 -43.2c69.59,-305.07 267.25,-478.06 593,-518.96 192.69,-24.19 338.36,4.51 436.62,86.15 98.25,81.64 147.19,185.99 147.19,312.99 0,86.78 -22.56,167.93 -67.29,243.82 -44.73,75.46 -112.02,145.3 -201.48,209.87 108.57,27.85 190.4,76 244.69,144.96 54.28,69.39 81.43,159.11 81.43,270.45 0,160.02 -52.76,295.76 -158.66,407.69 -105.52,111.89 -263.81,181.29 -474.48,207.74 -171.67,21.56 -307.39,6.85 -406.8,-44.17 -99.4,-51.02 -173.95,-160.62 -224.04,-328.74l302.8 -147.24c31.35,105.7 73.41,171.54 125.41,197.2 52,26.06 116.23,34.08 192.69,24.48 104.76,-13.15 181.22,-47.73 229.4,-104.15 47.79,-56.38 71.88,-116.98 71.88,-182.18 0,-74.5 -27.15,-131.63 -81.44,-170.53 -53.91,-38.95 -135.72,-51.54 -244.69,-37.86l-75.32 9.46 0 -274.32 37.85 -4.75c101.32,-12.73 178.93,-47.87 232.46,-104.97 53.91,-57.14 80.67,-127.81 80.67,-211.21 0,-66.46 -21.79,-119.6 -65.38,-159.85 -43.58,-39.83 -105.9,-54.86 -186.96,-44.69 -138.78,17.43 -227.48,104.77 -266.1,262.01zm1336.24 -663.07l1133.22 -142.29 0 1511.3 144.52 -18.14 0 703.58 -277.57 34.85 0 -396.24 -1030 129.32 0 396.24 -277.57 34.85 0 -703.58 139.93 -17.57c68.06,-163.9 113.18,-349.91 134.97,-557.54 21.79,-208.05 32.5,-468.9 32.5,-782.59l0 -192.19zm316.56 267.59c0,550.33 -45.88,957.41 -137.63,1221.24l621.66 -78.05 0 -1203.96 -484.03 60.77zm1184.47 1362.58l0 -1818.64 332.62 -41.76 0 716.28 646.9 -81.23 0 -716.28 332.63 -41.76 0 1818.64 -332.63 41.76 0 -795.02 -646.9 81.23 0 795.02 -332.62 41.76zm1661.22 -2027.22l309.68 -38.88 0 1210.73 665.26 -1294.26 330.33 -41.47 0 1818.63 -309.69 38.89 0 -1191.26 -665.25 1274.79 -330.33 41.47 0 -1818.64zm1648.99 -207.04l332.62 -41.77 0 774.7c73.79,-17.73 123.88,-44.76 149.88,-82.31 25.99,-37.14 66.53,-136.63 120.81,-298.38 68.44,-205.45 137.64,-336.9 206.84,-393.42 68.82,-56.48 179.32,-94.49 332.25,-113.69 7.65,-0.96 23.71,-3.4 48.17,-7.32l0 271.78 -47.02 4.64c-68.06,8.54 -117.76,24.09 -149.11,46.66 -31.35,22.56 -56.58,54.09 -76.08,94.64 -19.5,40.55 -48.18,122.47 -86.03,245.75 -20.26,65.63 -42.06,120.85 -65.76,166.16 -23.32,45.27 -64.99,90.29 -124.64,135.03 73.79,13.59 134.58,52.95 182.75,117.18 48.18,64.22 100.94,156.66 158.29,277.73l223.66 469.76 -389.98 48.96 -196.9 -443.49c-3.05,-6.38 -9.55,-18.27 -19.11,-36.12 -3.83,-5.87 -17.59,-32.93 -41.29,-80.32 -42.06,-84.47 -76.47,-136.03 -103.23,-155.11 -27.15,-19.02 -68.06,-25.32 -123.5,-19.21l0 795.02 -332.62 41.77 0 -1818.64zm2875.12 1457.64l-358.24 44.98 -141.85 -396.21 -658.75 82.71 -136.49 431.16 -351.75 44.17 637.73 -1898.71 351.36 -44.12 657.99 1736.02zm-607.9 -645.03l-228.25 -644.44 -221.75 700.94 450 -56.5z"/>
  <polygon class="fil4 str1" points="32637.07,762.76 31956.43,2695.66 29740.7,2691.76 31535.76,3882.46 30847.01,5812.95 32637.07,4615.93 34427.13,5812.95 33738.38,3882.46 35533.44,2691.76 33317.72,2695.66 "/>
  <polygon class="fil5" points="26517.95,292.66 27162.8,1998.56 29261.98,1995.12 27561.33,3045.98 28213.86,4749.75 26517.95,3693.31 24822.04,4749.75 25474.56,3045.98 23773.91,1995.12 25873.09,1998.56 "/>
  <path class="fil1" d="M11109.54 10576.5l6059.77 -701.69 0 1505.05 -2034.93 235.63 0 4583.19 -1989.91 230.43 0 -4583.19 -2034.93 235.64 0 -1505.06zm6952.67 -805.09l5330.43 -617.24 0 1300.98 -3331.52 385.77 0 969.36 3088.41 -357.63 0 1241.46 -3088.41 357.63 0 1198.93 3430.57 -397.24 0 1377.51 -5429.48 628.71 0 -6088.24zm6520.48 -755.05l1859.35 -215.3 2417.6 3081.62 0 -3361.57 1881.86 -217.91 0 6088.24 -1881.86 217.91 -2404.1 -3064.77 0 3343.15 -1872.85 216.87 0 -6088.24zm7509.43 -869.56l2960.85 -342.85c582.27,-67.43 1054.99,-47.06 1413.65,60.21 358.67,108.69 655.8,288.29 891.41,540.18 234.11,253.5 403.69,558.4 508.73,917.53 106.55,358.98 159.08,745.46 159.08,1160.68 0,650.49 -78.04,1164.05 -235.61,1540.85 -156.08,376.62 -373.68,702.27 -652.8,976.92 -279.13,274.66 -577.77,470.81 -897.41,588.6 -436.71,161.11 -832.88,262.26 -1187.05,303.27l-2960.85 342.85 0 -6088.24zm1989.91 1147.09l0 3324.72 489.22 -56.65c417.2,-48.31 714.33,-126.66 891.41,-233.61 175.58,-108.2 313.65,-275.82 414.19,-504.3 100.55,-229.88 150.07,-587.08 150.07,-1074.6 0,-644.81 -111.05,-1072.71 -334.65,-1284.9 -223.61,-212.2 -594.27,-288.31 -1112.01,-228.36l-498.23 57.7z"/>
  <polygon class="fil2 str0" points="503.29,19007.62 43094.82,13659.91 43094.82,16707.91 503.29,22055.62 "/>
  <path class="fil0" d="M3143.29 21143.73l-358.24 44.98 -141.85 -396.21 -658.75 82.71 -136.49 431.16 -351.75 44.16 637.73 -1898.71 351.36 -44.12 657.99 1736.03zm-607.9 -645.04l-228.26 -644.44 -221.74 700.95 450 -56.51zm528.76 -1163.67l373.54 -46.9 382.32 893.49 327.27 -982.58 346.02 -43.45 -555.53 1451.93c-60.41,157.45 -121.97,279.06 -184.66,365.25 -62.71,86.18 -143.37,135.26 -242.78,147.74 -97.88,12.29 -174.35,14.69 -229.4,7.63l0 -273.46c47.02,-2.52 89.46,-6.16 127.31,-10.91 76.47,-9.6 131.53,-32.17 164.79,-67.26 32.88,-35.45 64.99,-106.79 95.2,-213.45l-604.08 -1228.03zm1600.05 -200.89l332.62 -41.77 0 774.7c73.79,-17.73 123.88,-44.76 149.88,-82.32 25.99,-37.13 66.53,-136.62 120.81,-298.38 68.44,-205.44 137.64,-336.9 206.84,-393.42 68.82,-56.48 179.32,-94.48 332.25,-113.68 7.65,-0.96 23.71,-3.4 48.17,-7.32l0 271.78 -47.02 4.63c-68.06,8.55 -117.76,24.1 -149.11,46.67 -31.35,22.56 -56.58,54.09 -76.08,94.64 -19.5,40.55 -48.18,122.47 -86.03,245.75 -20.26,65.62 -42.06,120.85 -65.76,166.16 -23.32,45.26 -64.99,90.29 -124.64,135.02 73.79,13.6 134.58,52.96 182.75,117.19 48.18,64.22 100.94,156.66 158.29,277.72l223.66 469.76 -389.98 48.97 -196.9 -443.49c-3.05,-6.39 -9.55,-18.27 -19.11,-36.12 -3.83,-5.87 -17.59,-32.93 -41.29,-80.33 -42.06,-84.47 -76.47,-136.03 -103.23,-155.11 -27.15,-19.02 -68.06,-25.31 -123.5,-19.2l0 795.02 -332.62 41.76 0 -1818.63zm1400.09 -175.8l332.63 -41.76 0 1511.3 640.02 -80.36 0 -1511.3 332.63 -41.77 0 1511.3 137.64 -17.28 0 703.58 -277.58 34.85 0 -396.24 -1165.34 146.32 0 -1818.64zm1675.75 -210.4l309.69 -38.89 0 1210.73 665.26 -1294.25 330.33 -41.48 0 1818.64 -309.69 38.88 0 -1191.26 -665.25 1274.79 -330.34 41.48 0 -1818.64zm1575.59 722.5c0,-185.42 25.23,-344.38 75.32,-476.82 37.08,-97.36 88.32,-187.2 152.93,-268.97 64.61,-81.77 135.34,-145.26 212.19,-190.89 102.46,-60.71 220.6,-99.67 354.42,-116.47 242.4,-30.44 435.86,28.67 581.53,176.75 145.28,148.55 217.92,370.99 217.92,667.75 0,294.22 -72.26,533.58 -216.4,717.63 -144.13,184.47 -337.21,291.68 -578.46,321.97 -244.31,30.68 -438.92,-27.44 -583.05,-174.86 -144.14,-147 -216.4,-365.69 -216.4,-656.09zm341.8 -55.2c0,206.16 43.21,356.95 129.23,452.83 86.03,95.46 195.37,135.07 327.65,118.46 132.67,-16.66 241.26,-83.21 326.52,-199.33 84.87,-116.48 127.31,-280.14 127.31,-491.38 0,-208.7 -41.29,-359.31 -124.25,-451.34 -82.59,-92.5 -192.32,-129.94 -329.58,-112.71 -136.87,17.18 -247.36,83.13 -331.09,197.36 -83.73,114.65 -125.79,276.56 -125.79,486.11zm1511.35 720.83l0 -1818.64 332.63 -41.76 0 716.28 646.9 -81.23 0 -716.28 332.63 -41.76 0 1818.64 -332.63 41.76 0 -795.02 -646.9 81.23 0 795.02 -332.63 41.76zm3344.62 -1090.5l321.15 68.89c-49.32,206.44 -131.52,365.35 -246.22,477.11 -114.7,111.35 -259.98,178.27 -436.24,200.4 -218.3,27.41 -397.62,-32.62 -538.31,-180.06 -140.32,-147.48 -210.67,-364.29 -210.67,-650.88 0,-302.69 70.73,-546.94 211.81,-732.29 141.08,-185.36 326.9,-292.51 557.05,-321.4 201.11,-25.25 364.37,20.29 489.77,136.2 74.94,68.48 130.75,173.24 168.23,314.58l-328.04 127.55c-19.5,-91.53 -60.03,-160.96 -121.58,-207.84 -61.94,-46.83 -136.88,-64.51 -224.81,-53.47 -121.97,15.31 -220.99,76.01 -296.7,182.45 -76.08,106.07 -113.93,267.47 -113.93,484.21 0,229.45 37.47,388.57 112.03,476.58 74.93,88.38 172.05,124.87 291.71,109.84 88.32,-11.09 164.4,-51.54 227.87,-121.74 63.47,-70.2 109.35,-173.33 136.88,-310.13zm480.2 -288.05c0,-185.42 25.23,-344.37 75.32,-476.81 37.08,-97.37 88.32,-187.2 152.93,-268.97 64.61,-81.78 135.34,-145.27 212.19,-190.9 102.46,-60.7 220.6,-99.66 354.42,-116.47 242.39,-30.43 435.86,28.68 581.52,176.76 145.29,148.55 217.93,370.99 217.93,667.75 0,294.22 -72.26,533.58 -216.4,717.63 -144.13,184.46 -337.21,291.68 -578.46,321.97 -244.31,30.67 -438.92,-27.44 -583.05,-174.87 -144.14,-147 -216.4,-365.69 -216.4,-656.09zm341.8 -55.19c0,206.16 43.21,356.94 129.23,452.82 86.02,95.46 195.37,135.07 327.65,118.46 132.67,-16.65 241.26,-83.21 326.51,-199.32 84.88,-116.49 127.32,-280.15 127.32,-491.39 0,-208.7 -41.29,-359.3 -124.26,-451.34 -82.58,-92.5 -192.31,-129.94 -329.57,-112.71 -136.87,17.19 -247.36,83.13 -331.09,197.37 -83.73,114.65 -125.79,276.56 -125.79,486.11zm1518.23 -1098.68l1227.28 -154.09 0 307.34 -894.65 112.33 0 421.64 443.12 -55.64c121.97,-15.31 223.66,-11.57 303.95,11.37 80.68,22.89 149.5,75.21 206.46,157.38 56.97,81.74 85.64,182.71 85.64,302.51 0,122.77 -28.67,231.78 -86.4,326.66 -57.35,94.4 -122.73,162.73 -196.52,204.17 -73.41,41.38 -178.17,70.62 -313.89,87.67l-774.99 97.3 0 -1818.64zm332.63 1469.54l322.3 -40.47c102.85,-12.91 175.49,-27.53 217.17,-43.78 41.68,-16.24 78.38,-45.82 109.35,-89.08 30.97,-42.83 46.26,-93.01 46.26,-150.16 0,-83.4 -27.15,-140.53 -81.06,-171.86 -54.29,-30.86 -146.43,-38.34 -277.18,-21.92l-336.84 42.29 0 474.98zm1318.66 -1676.87l332.63 -41.76 0 726.44 443.11 -55.64c116.24,-14.59 216.41,-9.39 300.14,15.24 83.73,24.61 153.69,78.49 209.89,162.02 55.83,83.58 83.73,184.22 83.73,301.91 0,123.19 -29.05,232.67 -87.17,329.29 -58.49,96.25 -123.1,163.2 -194.61,200.97 -71.11,38.14 -175.48,65.63 -312.73,82.86l-774.99 97.31 0 -1818.64zm332.63 1469.54l323.45 -40.62c102.85,-12.91 174.72,-27.43 215.63,-43.58 40.53,-16.1 76.85,-46.06 108.59,-89.41 31.72,-43.36 47.4,-93.16 47.4,-149.89 0,-80.43 -26,-137.7 -77.61,-171.44 -52,-33.68 -145.67,-41.82 -280.63,-24.88l-336.83 42.3 0 477.52zm1227.28 -1665.4l332.62 -41.76 0 1818.64 -332.62 41.76 0 -1818.64zm1046.05 1687.3l0 -1511.3 -486.32 61.06 0 -307.34 1302.98 -163.6 0 307.34 -484.03 60.78 0 1511.3 -332.63 41.76zm1036.5 -1948.78l309.69 -38.88 0 1210.73 665.25 -1294.26 330.33 -41.48 0 1818.64 -309.68 38.89 0 -1191.26 -665.26 1274.78 -330.33 41.48 0 -1818.64zm1648.99 -207.04l309.69 -38.89 0 1210.73 665.25 -1294.26 330.33 -41.47 0 1818.64 -309.68 38.88 0 -1191.26 -665.26 1274.79 -330.33 41.48 0 -1818.64zm848.77 -632.35l153.7 -19.3c-8.8,113.28 -44.73,206.28 -107.05,278.02 -62.33,71.75 -142.99,114.05 -242.01,126.49 -99.41,12.48 -180.08,-9.56 -242.41,-65.67 -62.31,-56.09 -98.25,-140.06 -107.05,-251.14l153.7 -19.29c5.36,57.74 23.71,99.89 55.82,125.92 32.12,26.01 78.76,34.98 139.94,27.3 60.79,-7.64 107.42,-28.31 139.54,-62.39 32.12,-34.1 50.47,-80.85 55.82,-139.94zm1437.57 345.28l309.69 -38.89 0 1210.73 665.25 -1294.25 330.33 -41.48 0 1818.64 -309.68 38.88 0 -1191.26 -665.26 1274.79 -330.33 41.48 0 -1818.64zm2286.34 -287.07l1305.27 -163.89 0 1818.64 -332.63 41.77 0 -1511.3 -640.02 80.36 0 1511.3 -332.62 41.76 0 -1818.64zm1644.4 1612.17l0 -1818.64 531.83 -66.77c201.48,-25.3 332.62,-32.88 393.79,-22.36 94.05,15.71 172.82,65.09 236.28,148.57 63.47,83.47 95.2,197.59 95.2,342.37 0,111.76 -18.35,207.62 -54.67,288.38 -36.71,80.81 -82.97,146.3 -139.17,196.97 -56.2,50.24 -113.55,86.22 -171.67,107.49 -79.14,27.29 -193.45,50.53 -343.33,69.35l-215.63 27.08 0 685.8 -332.63 41.76zm332.63 -1553.06l0 518.16 180.84 -22.71c130.37,-16.37 217.16,-37 261.13,-61.58 43.97,-24.57 78.38,-58.52 103.23,-102.7 24.85,-43.76 37.47,-92.33 37.47,-146.52 0,-66.46 -17.59,-118.86 -52.38,-157.67 -35.17,-38.77 -79.15,-60.35 -133.05,-64.58 -39.38,-3.1 -118.52,2.6 -237.81,17.58l-159.43 20.02zm2475.58 1200.47l-358.24 44.98 -141.85 -396.21 -658.75 82.71 -136.49 431.16 -351.75 44.16 637.73 -1898.71 351.36 -44.11 657.99 1736.02zm-607.9 -645.03l-228.25 -644.45 -221.75 700.95 450 -56.5zm1018.9 -729.92l-323.45 -43.2c69.59,-305.07 267.25,-478.06 593,-518.96 192.69,-24.19 338.36,4.51 436.62,86.15 98.25,81.64 147.19,185.99 147.19,312.99 0,86.78 -22.56,167.93 -67.29,243.82 -44.73,75.46 -112.02,145.3 -201.48,209.87 108.57,27.85 190.4,76 244.69,144.96 54.28,69.39 81.43,159.11 81.43,270.45 0,160.02 -52.76,295.76 -158.66,407.69 -105.52,111.89 -263.81,181.29 -474.48,207.74 -171.67,21.56 -307.39,6.85 -406.8,-44.17 -99.4,-51.02 -173.95,-160.62 -224.04,-328.74l302.8 -147.24c31.35,105.7 73.41,171.54 125.41,197.2 52,26.06 116.23,34.08 192.69,24.48 104.76,-13.15 181.22,-47.73 229.4,-104.15 47.79,-56.38 71.88,-116.98 71.88,-182.18 0,-74.5 -27.15,-131.63 -81.44,-170.53 -53.91,-38.95 -135.72,-51.54 -244.69,-37.86l-75.32 9.46 0 -274.32 37.85 -4.75c101.32,-12.73 178.93,-47.87 232.46,-104.97 53.91,-57.14 80.67,-127.81 80.67,-211.21 0,-66.46 -21.79,-119.6 -65.38,-159.85 -43.58,-39.83 -105.9,-54.86 -186.96,-44.69 -138.78,17.43 -227.48,104.77 -266.1,262.01zm1336.24 -663.07l1133.22 -142.29 0 1511.3 144.52 -18.14 0 703.58 -277.57 34.85 0 -396.24 -1030 129.32 0 396.24 -277.57 34.85 0 -703.58 139.93 -17.57c68.06,-163.9 113.18,-349.91 134.97,-557.54 21.79,-208.05 32.5,-468.9 32.5,-782.59l0 -192.19zm316.56 267.59c0,550.33 -45.88,957.41 -137.63,1221.24l621.66 -78.05 0 -1203.96 -484.03 60.77zm1184.47 1362.58l0 -1818.64 332.62 -41.76 0 716.28 646.9 -81.23 0 -716.28 332.63 -41.76 0 1818.64 -332.63 41.76 0 -795.02 -646.9 81.23 0 795.02 -332.62 41.76zm1661.22 -2027.22l309.68 -38.88 0 1210.73 665.26 -1294.26 330.33 -41.47 0 1818.63 -309.69 38.89 0 -1191.26 -665.25 1274.79 -330.33 41.47 0 -1818.64zm1648.99 -207.04l332.62 -41.77 0 774.7c73.79,-17.73 123.88,-44.76 149.88,-82.31 25.99,-37.14 66.53,-136.63 120.81,-298.38 68.44,-205.45 137.64,-336.9 206.84,-393.42 68.82,-56.48 179.32,-94.49 332.25,-113.69 7.65,-0.96 23.71,-3.4 48.17,-7.32l0 271.78 -47.02 4.64c-68.06,8.54 -117.76,24.09 -149.11,46.66 -31.35,22.56 -56.58,54.09 -76.08,94.64 -19.5,40.55 -48.18,122.47 -86.03,245.75 -20.26,65.63 -42.06,120.85 -65.76,166.16 -23.32,45.27 -64.99,90.29 -124.64,135.03 73.79,13.59 134.58,52.95 182.75,117.18 48.18,64.22 100.94,156.66 158.29,277.73l223.66 469.76 -389.98 48.96 -196.9 -443.49c-3.05,-6.38 -9.55,-18.27 -19.11,-36.12 -3.83,-5.87 -17.59,-32.93 -41.29,-80.32 -42.06,-84.47 -76.47,-136.03 -103.23,-155.11 -27.15,-19.02 -68.06,-25.32 -123.5,-19.21l0 795.02 -332.62 41.77 0 -1818.64zm2875.12 1457.64l-358.24 44.98 -141.85 -396.21 -658.75 82.71 -136.49 431.16 -351.75 44.17 637.73 -1898.71 351.36 -44.12 657.99 1736.02zm-607.9 -645.03l-228.25 -644.44 -221.75 700.94 450 -56.5z"/>
  <polygon class="fil4 str1" points="32637.07,762.76 31956.43,2695.66 29740.7,2691.76 31535.76,3882.46 30847.01,5812.95 32637.07,4615.93 34427.13,5812.95 33738.38,3882.46 35533.44,2691.76 33317.72,2695.66 "/>
  <polygon class="fil5" points="26517.95,292.66 27162.8,1998.56 29261.98,1995.12 27561.33,3045.98 28213.86,4749.75 26517.95,3693.31 24822.04,4749.75 25474.56,3045.98 23773.91,1995.12 25873.09,1998.56 "/>
  <polygon class="fil2 str0" points="503.29,19007.62 43094.82,13659.91 43094.82,16707.91 503.29,22055.62 "/>
  <path class="fil0" d="M3143.29 21143.73l-358.24 44.98 -141.85 -396.21 -658.75 82.71 -136.49 431.16 -351.75 44.16 637.73 -1898.71 351.36 -44.12 657.99 1736.03zm-607.9 -645.04l-228.26 -644.44 -221.74 700.95 450 -56.51zm528.76 -1163.67l373.54 -46.9 382.32 893.49 327.27 -982.58 346.02 -43.45 -555.53 1451.93c-60.41,157.45 -121.97,279.06 -184.66,365.25 -62.71,86.18 -143.37,135.26 -242.78,147.74 -97.88,12.29 -174.35,14.69 -229.4,7.63l0 -273.46c47.02,-2.52 89.46,-6.16 127.31,-10.91 76.47,-9.6 131.53,-32.17 164.79,-67.26 32.88,-35.45 64.99,-106.79 95.2,-213.45l-604.08 -1228.03zm1600.05 -200.89l332.62 -41.77 0 774.7c73.79,-17.73 123.88,-44.76 149.88,-82.32 25.99,-37.13 66.53,-136.62 120.81,-298.38 68.44,-205.44 137.64,-336.9 206.84,-393.42 68.82,-56.48 179.32,-94.48 332.25,-113.68 7.65,-0.96 23.71,-3.4 48.17,-7.32l0 271.78 -47.02 4.63c-68.06,8.55 -117.76,24.1 -149.11,46.67 -31.35,22.56 -56.58,54.09 -76.08,94.64 -19.5,40.55 -48.18,122.47 -86.03,245.75 -20.26,65.62 -42.06,120.85 -65.76,166.16 -23.32,45.26 -64.99,90.29 -124.64,135.02 73.79,13.6 134.58,52.96 182.75,117.19 48.18,64.22 100.94,156.66 158.29,277.72l223.66 469.76 -389.98 48.97 -196.9 -443.49c-3.05,-6.39 -9.55,-18.27 -19.11,-36.12 -3.83,-5.87 -17.59,-32.93 -41.29,-80.33 -42.06,-84.47 -76.47,-136.03 -103.23,-155.11 -27.15,-19.02 -68.06,-25.31 -123.5,-19.2l0 795.02 -332.62 41.76 0 -1818.63zm1400.09 -175.8l332.63 -41.76 0 1511.3 640.02 -80.36 0 -1511.3 332.63 -41.77 0 1511.3 137.64 -17.28 0 703.58 -277.58 34.85 0 -396.24 -1165.34 146.32 0 -1818.64zm1675.75 -210.4l309.69 -38.89 0 1210.73 665.26 -1294.25 330.33 -41.48 0 1818.64 -309.69 38.88 0 -1191.26 -665.25 1274.79 -330.34 41.48 0 -1818.64zm1575.59 722.5c0,-185.42 25.23,-344.38 75.32,-476.82 37.08,-97.36 88.32,-187.2 152.93,-268.97 64.61,-81.77 135.34,-145.26 212.19,-190.89 102.46,-60.71 220.6,-99.67 354.42,-116.47 242.4,-30.44 435.86,28.67 581.53,176.75 145.28,148.55 217.92,370.99 217.92,667.75 0,294.22 -72.26,533.58 -216.4,717.63 -144.13,184.47 -337.21,291.68 -578.46,321.97 -244.31,30.68 -438.92,-27.44 -583.05,-174.86 -144.14,-147 -216.4,-365.69 -216.4,-656.09zm341.8 -55.2c0,206.16 43.21,356.95 129.23,452.83 86.03,95.46 195.37,135.07 327.65,118.46 132.67,-16.66 241.26,-83.21 326.52,-199.33 84.87,-116.48 127.31,-280.14 127.31,-491.38 0,-208.7 -41.29,-359.31 -124.25,-451.34 -82.59,-92.5 -192.32,-129.94 -329.58,-112.71 -136.87,17.18 -247.36,83.13 -331.09,197.36 -83.73,114.65 -125.79,276.56 -125.79,486.11zm1511.35 720.83l0 -1818.64 332.63 -41.76 0 716.28 646.9 -81.23 0 -716.28 332.63 -41.76 0 1818.64 -332.63 41.76 0 -795.02 -646.9 81.23 0 795.02 -332.63 41.76zm3344.62 -1090.5l321.15 68.89c-49.32,206.44 -131.52,365.35 -246.22,477.11 -114.7,111.35 -259.98,178.27 -436.24,200.4 -218.3,27.41 -397.62,-32.62 -538.31,-180.06 -140.32,-147.48 -210.67,-364.29 -210.67,-650.88 0,-302.69 70.73,-546.94 211.81,-732.29 141.08,-185.36 326.9,-292.51 557.05,-321.4 201.11,-25.25 364.37,20.29 489.77,136.2 74.94,68.48 130.75,173.24 168.23,314.58l-328.04 127.55c-19.5,-91.53 -60.03,-160.96 -121.58,-207.84 -61.94,-46.83 -136.88,-64.51 -224.81,-53.47 -121.97,15.31 -220.99,76.01 -296.7,182.45 -76.08,106.07 -113.93,267.47 -113.93,484.21 0,229.45 37.47,388.57 112.03,476.58 74.93,88.38 172.05,124.87 291.71,109.84 88.32,-11.09 164.4,-51.54 227.87,-121.74 63.47,-70.2 109.35,-173.33 136.88,-310.13zm480.2 -288.05c0,-185.42 25.23,-344.37 75.32,-476.81 37.08,-97.37 88.32,-187.2 152.93,-268.97 64.61,-81.78 135.34,-145.27 212.19,-190.9 102.46,-60.7 220.6,-99.66 354.42,-116.47 242.39,-30.43 435.86,28.68 581.52,176.76 145.29,148.55 217.93,370.99 217.93,667.75 0,294.22 -72.26,533.58 -216.4,717.63 -144.13,184.46 -337.21,291.68 -578.46,321.97 -244.31,30.67 -438.92,-27.44 -583.05,-174.87 -144.14,-147 -216.4,-365.69 -216.4,-656.09zm341.8 -55.19c0,206.16 43.21,356.94 129.23,452.82 86.02,95.46 195.37,135.07 327.65,118.46 132.67,-16.65 241.26,-83.21 326.51,-199.32 84.88,-116.49 127.32,-280.15 127.32,-491.39 0,-208.7 -41.29,-359.3 -124.26,-451.34 -82.58,-92.5 -192.31,-129.94 -329.57,-112.71 -136.87,17.19 -247.36,83.13 -331.09,197.37 -83.73,114.65 -125.79,276.56 -125.79,486.11zm1518.23 -1098.68l1227.28 -154.09 0 307.34 -894.65 112.33 0 421.64 443.12 -55.64c121.97,-15.31 223.66,-11.57 303.95,11.37 80.68,22.89 149.5,75.21 206.46,157.38 56.97,81.74 85.64,182.71 85.64,302.51 0,122.77 -28.67,231.78 -86.4,326.66 -57.35,94.4 -122.73,162.73 -196.52,204.17 -73.41,41.38 -178.17,70.62 -313.89,87.67l-774.99 97.3 0 -1818.64zm332.63 1469.54l322.3 -40.47c102.85,-12.91 175.49,-27.53 217.17,-43.78 41.68,-16.24 78.38,-45.82 109.35,-89.08 30.97,-42.83 46.26,-93.01 46.26,-150.16 0,-83.4 -27.15,-140.53 -81.06,-171.86 -54.29,-30.86 -146.43,-38.34 -277.18,-21.92l-336.84 42.29 0 474.98zm1318.66 -1676.87l332.63 -41.76 0 726.44 443.11 -55.64c116.24,-14.59 216.41,-9.39 300.14,15.24 83.73,24.61 153.69,78.49 209.89,162.02 55.83,83.58 83.73,184.22 83.73,301.91 0,123.19 -29.05,232.67 -87.17,329.29 -58.49,96.25 -123.1,163.2 -194.61,200.97 -71.11,38.14 -175.48,65.63 -312.73,82.86l-774.99 97.31 0 -1818.64zm332.63 1469.54l323.45 -40.62c102.85,-12.91 174.72,-27.43 215.63,-43.58 40.53,-16.1 76.85,-46.06 108.59,-89.41 31.72,-43.36 47.4,-93.16 47.4,-149.89 0,-80.43 -26,-137.7 -77.61,-171.44 -52,-33.68 -145.67,-41.82 -280.63,-24.88l-336.83 42.3 0 477.52zm1227.28 -1665.4l332.62 -41.76 0 1818.64 -332.62 41.76 0 -1818.64zm1046.05 1687.3l0 -1511.3 -486.32 61.06 0 -307.34 1302.98 -163.6 0 307.34 -484.03 60.78 0 1511.3 -332.63 41.76zm1036.5 -1948.78l309.69 -38.88 0 1210.73 665.25 -1294.26 330.33 -41.48 0 1818.64 -309.68 38.89 0 -1191.26 -665.26 1274.78 -330.33 41.48 0 -1818.64zm1648.99 -207.04l309.69 -38.89 0 1210.73 665.25 -1294.26 330.33 -41.47 0 1818.64 -309.68 38.88 0 -1191.26 -665.26 1274.79 -330.33 41.48 0 -1818.64zm848.77 -632.35l153.7 -19.3c-8.8,113.28 -44.73,206.28 -107.05,278.02 -62.33,71.75 -142.99,114.05 -242.01,126.49 -99.41,12.48 -180.08,-9.56 -242.41,-65.67 -62.31,-56.09 -98.25,-140.06 -107.05,-251.14l153.7 -19.29c5.36,57.74 23.71,99.89 55.82,125.92 32.12,26.01 78.76,34.98 139.94,27.3 60.79,-7.64 107.42,-28.31 139.54,-62.39 32.12,-34.1 50.47,-80.85 55.82,-139.94zm1437.57 345.28l309.69 -38.89 0 1210.73 665.25 -1294.25 330.33 -41.48 0 1818.64 -309.68 38.88 0 -1191.26 -665.26 1274.79 -330.33 41.48 0 -1818.64zm2286.34 -287.07l1305.27 -163.89 0 1818.64 -332.63 41.77 0 -1511.3 -640.02 80.36 0 1511.3 -332.62 41.76 0 -1818.64zm1644.4 1612.17l0 -1818.64 531.83 -66.77c201.48,-25.3 332.62,-32.88 393.79,-22.36 94.05,15.71 172.82,65.09 236.28,148.57 63.47,83.47 95.2,197.59 95.2,342.37 0,111.76 -18.35,207.62 -54.67,288.38 -36.71,80.81 -82.97,146.3 -139.17,196.97 -56.2,50.24 -113.55,86.22 -171.67,107.49 -79.14,27.29 -193.45,50.53 -343.33,69.35l-215.63 27.08 0 685.8 -332.63 41.76zm332.63 -1553.06l0 518.16 180.84 -22.71c130.37,-16.37 217.16,-37 261.13,-61.58 43.97,-24.57 78.38,-58.52 103.23,-102.7 24.85,-43.76 37.47,-92.33 37.47,-146.52 0,-66.46 -17.59,-118.86 -52.38,-157.67 -35.17,-38.77 -79.15,-60.35 -133.05,-64.58 -39.38,-3.1 -118.52,2.6 -237.81,17.58l-159.43 20.02zm2475.58 1200.47l-358.24 44.98 -141.85 -396.21 -658.75 82.71 -136.49 431.16 -351.75 44.16 637.73 -1898.71 351.36 -44.11 657.99 1736.02zm-607.9 -645.03l-228.25 -644.45 -221.75 700.95 450 -56.5zm1018.9 -729.92l-323.45 -43.2c69.59,-305.07 267.25,-478.06 593,-518.96 192.69,-24.19 338.36,4.51 436.62,86.15 98.25,81.64 147.19,185.99 147.19,312.99 0,86.78 -22.56,167.93 -67.29,243.82 -44.73,75.46 -112.02,145.3 -201.48,209.87 108.57,27.85 190.4,76 244.69,144.96 54.28,69.39 81.43,159.11 81.43,270.45 0,160.02 -52.76,295.76 -158.66,407.69 -105.52,111.89 -263.81,181.29 -474.48,207.74 -171.67,21.56 -307.39,6.85 -406.8,-44.17 -99.4,-51.02 -173.95,-160.62 -224.04,-328.74l302.8 -147.24c31.35,105.7 73.41,171.54 125.41,197.2 52,26.06 116.23,34.08 192.69,24.48 104.76,-13.15 181.22,-47.73 229.4,-104.15 47.79,-56.38 71.88,-116.98 71.88,-182.18 0,-74.5 -27.15,-131.63 -81.44,-170.53 -53.91,-38.95 -135.72,-51.54 -244.69,-37.86l-75.32 9.46 0 -274.32 37.85 -4.75c101.32,-12.73 178.93,-47.87 232.46,-104.97 53.91,-57.14 80.67,-127.81 80.67,-211.21 0,-66.46 -21.79,-119.6 -65.38,-159.85 -43.58,-39.83 -105.9,-54.86 -186.96,-44.69 -138.78,17.43 -227.48,104.77 -266.1,262.01zm1336.24 -663.07l1133.22 -142.29 0 1511.3 144.52 -18.14 0 703.58 -277.57 34.85 0 -396.24 -1030 129.32 0 396.24 -277.57 34.85 0 -703.58 139.93 -17.57c68.06,-163.9 113.18,-349.91 134.97,-557.54 21.79,-208.05 32.5,-468.9 32.5,-782.59l0 -192.19zm316.56 267.59c0,550.33 -45.88,957.41 -137.63,1221.24l621.66 -78.05 0 -1203.96 -484.03 60.77zm1184.47 1362.58l0 -1818.64 332.62 -41.76 0 716.28 646.9 -81.23 0 -716.28 332.63 -41.76 0 1818.64 -332.63 41.76 0 -795.02 -646.9 81.23 0 795.02 -332.62 41.76zm1661.22 -2027.22l309.68 -38.88 0 1210.73 665.26 -1294.26 330.33 -41.47 0 1818.63 -309.69 38.89 0 -1191.26 -665.25 1274.79 -330.33 41.47 0 -1818.64zm1648.99 -207.04l332.62 -41.77 0 774.7c73.79,-17.73 123.88,-44.76 149.88,-82.31 25.99,-37.14 66.53,-136.63 120.81,-298.38 68.44,-205.45 137.64,-336.9 206.84,-393.42 68.82,-56.48 179.32,-94.49 332.25,-113.69 7.65,-0.96 23.71,-3.4 48.17,-7.32l0 271.78 -47.02 4.64c-68.06,8.54 -117.76,24.09 -149.11,46.66 -31.35,22.56 -56.58,54.09 -76.08,94.64 -19.5,40.55 -48.18,122.47 -86.03,245.75 -20.26,65.63 -42.06,120.85 -65.76,166.16 -23.32,45.27 -64.99,90.29 -124.64,135.03 73.79,13.59 134.58,52.95 182.75,117.18 48.18,64.22 100.94,156.66 158.29,277.73l223.66 469.76 -389.98 48.96 -196.9 -443.49c-3.05,-6.38 -9.55,-18.27 -19.11,-36.12 -3.83,-5.87 -17.59,-32.93 -41.29,-80.32 -42.06,-84.47 -76.47,-136.03 -103.23,-155.11 -27.15,-19.02 -68.06,-25.32 -123.5,-19.21l0 795.02 -332.62 41.77 0 -1818.64zm2875.12 1457.64l-358.24 44.98 -141.85 -396.21 -658.75 82.71 -136.49 431.16 -351.75 44.17 637.73 -1898.71 351.36 -44.12 657.99 1736.02zm-607.9 -645.03l-228.25 -644.44 -221.75 700.94 450 -56.5z"/>
  <polygon class="fil6" points="41697.68,6371.11 42516.59,8772.7 45182.36,8767.85 43022.69,10247.27 43851.34,12645.86 41697.68,11158.6 39544.03,12645.86 40372.67,10247.27 38213.01,8767.85 40878.78,8772.7 "/>
  <polygon class="fil4 str1" points="32637.07,762.76 31956.43,2695.66 29740.7,2691.76 31535.76,3882.46 30847.01,5812.95 32637.07,4615.93 34427.13,5812.95 33738.38,3882.46 35533.44,2691.76 33317.72,2695.66 "/>
  <polygon class="fil5" points="26517.95,292.66 27162.8,1998.56 29261.98,1995.12 27561.33,3045.98 28213.86,4749.75 26517.95,3693.31 24822.04,4749.75 25474.56,3045.98 23773.91,1995.12 25873.09,1998.56 "/>
 </g>
</svg>
