<?xml version="1.0" encoding="UTF-8"?>
<!DOCTYPE svg PUBLIC "-//W3C//DTD SVG 1.1//EN" "http://www.w3.org/Graphics/SVG/1.1/DTD/svg11.dtd">
<!-- Creator: CorelDRAW X7 -->
<svg xmlns="http://www.w3.org/2000/svg" xml:space="preserve" width="575.731mm" height="325.287mm" version="1.1" style="shape-rendering:geometricPrecision; text-rendering:geometricPrecision; image-rendering:optimizeQuality; fill-rule:evenodd; clip-rule:evenodd"
viewBox="0 0 57573 32529"
 xmlns:xlink="http://www.w3.org/1999/xlink">
 <defs>
  <style type="text/css">
   <![CDATA[
    .str0 {stroke:#2B2A29;stroke-width:20}
    .fil3 {fill:#FEFEFE}
    .fil0 {fill:#FEFEFE}
    .fil2 {fill:#2B2A29}
    .fil1 {fill:#E63C24}
    .fil4 {fill:white;fill-rule:nonzero}
   ]]>
  </style>
 </defs>
 <g id="Слой_x0020_1">
  <metadata id="CorelCorpID_0Corel-Layer"/>
  <polygon class="fil0 str0" points="20897,1519 36204,1519 28326,16634 "/>
  <polygon class="fil1" points="22995,296 28482,2235 33833,296 33867,5466 28468,3312 23029,5466 "/>
  <rect class="fil1 str0" x="27321" y="1468" width="2220" height="2826" rx="606" ry="606"/>
  <circle class="fil2 str0" cx="28195" cy="6868" r="388"/>
  <polygon class="fil3 str0" points="36901,8781 38630,11151 35043,11151 "/>
  <path class="fil4" d="M8313 24268l-2891 -6300 0 5001c0,462 48,747 150,863 138,154 353,231 648,231l266 0 0 205 -2613 0 0 -205 266 0c318,0 542,-97 674,-286 83,-115 125,-384 125,-808l0 -4892c0,-323 -39,-564 -112,-718 -26,-54 -61,-106 -106,-150 -45,-48 -103,-87 -180,-119 -74,-35 -167,-61 -272,-77 -109,-19 -241,-29 -395,-29l0 -205 2126 0 2709 5860 2673 -5860 2129 0 0 205 -263 0c-321,0 -548,96 -680,286 -80,115 -121,381 -121,807l0 4892c0,462 51,747 154,863 137,154 352,231 647,231l263 0 0 205 -3190 0 0 -205 266 0c314,0 542,-97 674,-286 80,-115 121,-384 121,-808l0 -5001 -2888 6300 -180 0 0 0z"/>
  <path id="_1" class="fil4" d="M19142 16779l2613 0 0 205 -144 0c-42,0 -103,10 -180,32 -73,23 -153,55 -237,93 -86,42 -173,93 -260,154 -86,64 -169,135 -243,212 -77,80 -160,186 -250,314 -90,128 -193,282 -308,458l-1805 2844 0 1878c0,462 51,747 154,863 138,154 359,231 667,231l244 0 0 205 -3190 0 0 -205 266 0c314,0 542,-97 673,-286 80,-115 122,-384 122,-808l0 -1772 -2052 -3139c-122,-186 -221,-336 -304,-449 -84,-112 -148,-192 -193,-240 -22,-23 -57,-55 -109,-96 -51,-42 -115,-87 -192,-128 -77,-45 -164,-84 -256,-116 -97,-32 -193,-45 -295,-45l0 -205 3199 0 0 205 -167 0c-80,0 -160,10 -243,29 -84,16 -158,45 -225,87 -64,38 -118,89 -160,150 -45,61 -64,135 -64,218 0,135 112,372 336,718l1562 2414 1468 -2308c221,-346 330,-602 330,-772 -6,-77 -22,-151 -48,-215 -26,-68 -67,-125 -122,-173 -54,-48 -131,-84 -228,-109 -96,-26 -214,-39 -359,-39l0 -205 0 0z"/>
  <path id="_2" class="fil4" d="M30667 16779l0 1754 -125 0c-29,-234 -80,-433 -147,-597 -68,-160 -157,-295 -266,-394 -113,-99 -247,-173 -408,-218 -157,-48 -343,-71 -554,-71l-1055 0 0 5716c0,462 48,747 148,863 134,154 349,231 644,231l260 0 0 205 -3180 0 0 -205 266 0c317,0 545,-97 676,-286 80,-115 122,-384 122,-808l0 -5716 -901 0c-224,0 -423,20 -593,52 -170,32 -311,96 -430,186 -118,93 -211,221 -285,391 -74,167 -128,381 -167,651l-214 0 0 -1754 6209 0z"/>
  <path id="_3" class="fil4" d="M33389 17186l0 2953 1651 0c240,0 433,-23 583,-64 151,-42 266,-109 350,-199 86,-90 144,-202 179,-340 32,-135 55,-298 64,-484l206 0 0 2603 -206 0c-25,-183 -51,-333 -77,-449 -25,-115 -51,-199 -76,-250 -33,-64 -74,-122 -129,-170 -51,-51 -115,-93 -198,-131 -81,-35 -177,-64 -292,-80 -116,-20 -250,-29 -404,-29l-1651 0 0 2471c0,331 16,533 45,610 16,32 32,64 57,96 20,25 55,51 97,73 38,20 96,36 163,45 67,13 154,20 257,20l1272 0c218,0 398,-7 542,-20 148,-12 276,-35 382,-67 109,-32 205,-77 288,-135 83,-54 170,-128 263,-218 112,-109 231,-253 349,-423 116,-173 234,-378 353,-609l218 0 -644 1879 -5777 0 0 -205 266 0c67,0 141,-7 221,-23 77,-16 148,-38 218,-70 67,-33 132,-74 186,-125 55,-49 93,-109 116,-174 44,-115 67,-355 67,-724l0 -4866c0,-472 -48,-763 -144,-879 -135,-144 -353,-218 -664,-218l-266 0 0 -205 5777 0 0 1641 -135 0c-38,-202 -80,-365 -122,-493 -41,-129 -86,-234 -138,-321 -51,-83 -109,-151 -176,-202 -67,-48 -147,-96 -237,-135 -151,-54 -411,-83 -779,-83l-2055 0 0 0z"/>
  <path id="_4" class="fil4" d="M37787 16779l2026 0 4578 5620 0 -4322c0,-461 -51,-747 -154,-862 -141,-154 -356,-231 -647,-231l-260 0 0 -205 2613 0 0 205 -266 0c-318,0 -545,96 -677,286 -80,115 -122,384 -122,807l0 6313 -202 0 -4933 -6027 0 4606c0,462 51,747 150,863 138,154 353,231 648,231l266 0 0 205 -2613 0 0 -205 260 0c321,0 548,-97 680,-286 83,-115 125,-384 125,-808l0 -5206c-109,-128 -202,-234 -276,-311 -74,-77 -144,-141 -208,-189 -68,-51 -138,-93 -215,-125 -80,-29 -176,-64 -289,-106 -105,-32 -266,-48 -484,-48l0 -205z"/>
  <path id="_5" class="fil4" d="M46295 24268l0 -205 279 0c314,0 539,-103 673,-305 81,-119 122,-388 122,-817l0 -4835c0,-471 -51,-766 -154,-878 -144,-164 -359,-244 -641,-244l-279 0 0 -205 3046 0c1122,0 1971,128 2552,382 586,253 1054,676 1410,1269 356,590 536,1273 536,2055 0,551 -90,1061 -270,1523 -179,464 -442,862 -795,1195 -349,334 -788,593 -1314,783 -526,186 -1132,282 -1821,282l-3344 0 0 0zm2135 -542c462,106 856,157 1180,157 423,0 814,-80 1180,-237 362,-157 676,-378 939,-667 266,-292 475,-641 625,-1051 151,-414 228,-876 228,-1389 0,-516 -77,-981 -225,-1391 -147,-413 -355,-763 -625,-1051 -266,-289 -583,-513 -955,-667 -369,-154 -773,-231 -1212,-231 -166,0 -343,13 -532,42 -186,25 -388,67 -603,118l0 6367 0 0z"/>
  <g id="_990956128">
   <path class="fil1" d="M1572 29137c-356,-157 -594,-370 -711,-640 -118,-270 -180,-590 -187,-960 -12,-457 80,-904 276,-1341 195,-437 455,-815 780,-1130 357,-346 820,-637 1387,-873 565,-236 1096,-362 1590,-376 405,-15 831,7 1277,64 446,58 841,209 1186,454 137,-81 297,-158 479,-231 282,-105 580,-178 895,-220 46,-5 72,14 80,58 2,47 -20,75 -64,82 -323,44 -610,115 -862,213 -143,56 -278,120 -406,191 301,261 484,589 549,984 32,209 44,424 35,646 -12,211 -44,415 -98,610 -63,218 -144,428 -243,629 -99,201 -197,401 -295,603 -78,166 -159,328 -245,485 -87,155 -171,306 -255,453 -126,224 -240,433 -342,627 -103,194 -172,369 -206,523 -64,286 -39,453 72,502 139,66 409,-5 815,-210 42,-24 74,-13 94,31 22,40 11,72 -31,95 -445,220 -756,291 -933,214 -97,-42 -181,-139 -250,-291 -69,-152 -72,-376 -8,-671 56,-260 130,-509 221,-749 92,-240 232,-541 418,-904 9,-19 25,-49 49,-91l-1706 0c-288,562 -614,1070 -977,1523 -361,454 -802,782 -1322,983 -296,114 -624,182 -985,204 -361,20 -748,-16 -1160,-109 -19,-3 -43,-17 -74,-44 -30,-27 -40,-58 -31,-93 7,-44 35,-62 84,-52 825,194 1507,186 2048,-22 276,-105 514,-253 711,-444 196,-191 379,-409 547,-655 137,-201 261,-411 372,-627 110,-218 218,-436 323,-653 98,-202 199,-405 306,-610 106,-206 216,-411 330,-614 112,-201 217,-396 317,-587 100,-190 211,-371 333,-541 132,-187 289,-357 468,-510 180,-154 359,-301 538,-444 87,-70 181,-138 283,-203 -329,-217 -706,-350 -1130,-399 -425,-49 -827,-69 -1204,-57 -476,15 -989,136 -1540,363 -551,229 -998,510 -1343,845 -310,302 -559,662 -746,1081 -187,419 -276,847 -264,1284 7,344 73,636 198,876 124,241 346,433 666,581 59,29 83,58 69,91 -13,36 -43,55 -88,60 -47,5 -75,3 -90,-4zm5138 -1367c154,-292 321,-611 500,-956 180,-345 294,-642 342,-890 49,-274 53,-533 11,-779 -42,-245 -174,-461 -398,-646 -115,70 -220,144 -317,221 -415,329 -747,758 -995,1284 -248,527 -499,1050 -753,1570 -16,34 -33,69 -51,101 -17,33 -33,65 -47,95l1708 0zm1237 2588c12,69 105,90 281,60 120,-22 248,-56 382,-106 134,-49 219,-85 253,-105 224,-127 415,-264 575,-411 160,-147 292,-338 397,-571 55,-132 117,-275 185,-429 67,-155 140,-303 216,-446 36,-71 88,-162 157,-276 71,-113 140,-191 210,-233 184,-106 325,-106 420,0 52,63 41,151 -32,263 -200,314 -372,601 -515,861 -143,260 -285,554 -425,884 -127,294 -242,551 -342,767 -100,216 -223,420 -371,612 -245,318 -530,588 -855,810 -327,220 -690,354 -1090,401 -245,26 -469,29 -672,10 -203,-21 -334,-48 -395,-83 -132,-78 -158,-140 -76,-191 81,-49 138,-58 171,-31 90,69 236,112 436,130 520,51 997,-119 1434,-512 265,-241 476,-486 630,-737 155,-250 317,-538 484,-860 46,-91 39,-120 -21,-86 -60,33 -104,62 -133,86 -110,82 -180,132 -212,151 -78,42 -201,95 -371,159 -171,65 -322,109 -455,136 -214,34 -370,15 -467,-60 -75,-54 -124,-146 -147,-277 -41,-223 -20,-447 58,-674 52,-155 145,-331 281,-530 49,-71 100,-150 155,-237 55,-88 115,-203 183,-343 54,-111 85,-198 92,-256 9,-58 9,-107 -1,-148 -9,-34 -35,-53 -76,-57 -43,-4 -146,51 -312,163 -75,44 -130,54 -164,29 -28,-20 -44,-52 -50,-97 -6,-46 15,-84 64,-114 272,-176 505,-260 696,-253 183,0 300,91 349,273 27,106 31,218 8,338 -21,119 -46,214 -75,287 -102,244 -205,440 -308,589 -102,148 -221,328 -359,538 -60,92 -113,191 -156,300 -43,109 -55,200 -37,276zm5284 -425c-32,68 -75,146 -128,233 -52,88 -57,161 -15,216 68,98 161,124 280,78 28,-10 85,-47 171,-110 86,-65 154,-115 202,-150 42,-7 80,0 114,21 34,21 31,49 -9,84 -217,201 -417,312 -601,330 -154,14 -279,-19 -377,-102 -153,-131 -212,-331 -175,-600 17,-133 58,-252 128,-356 69,-104 120,-204 155,-300 43,-110 31,-189 -33,-236 -64,-46 -212,-48 -442,-3 -14,2 -8,-19 16,-66 25,-47 50,-73 75,-78 629,-96 998,-289 1105,-578 109,-288 -51,-412 -479,-370 -78,10 -190,59 -338,146 -148,88 -316,197 -504,329 -97,64 -171,129 -224,190 -54,62 -99,118 -136,164 -49,63 -103,134 -161,214 -59,80 -116,186 -172,319 -84,204 -168,396 -254,578 -87,181 -168,358 -246,532 -15,35 -40,77 -74,124 -34,48 -61,72 -79,72l-412 0c-49,0 -44,-58 14,-176 152,-315 318,-677 501,-1084 182,-407 358,-800 526,-1179 176,-407 358,-791 541,-1148 184,-358 393,-690 625,-993 257,-335 523,-600 797,-798 376,-268 785,-417 1227,-445 179,-11 330,2 451,40 121,39 203,72 245,101 115,77 138,140 65,189 -71,49 -121,60 -150,31 -95,-81 -271,-137 -527,-167 -240,-27 -466,9 -678,107 -212,99 -405,240 -580,422 -191,197 -363,428 -517,695 -154,267 -304,549 -451,846 -93,184 -182,374 -269,567 -86,192 -171,387 -255,581 -14,30 -17,57 -9,80 9,24 30,24 65,0 153,-103 320,-205 502,-307 180,-102 358,-176 532,-223 427,-115 695,-76 804,113 109,189 108,371 -4,547 -106,168 -272,289 -494,360 -223,72 -408,126 -557,163 151,66 252,166 303,302 36,105 42,219 18,340 -24,122 -61,241 -112,355zm1296 355c24,131 98,179 225,144 132,-35 294,-100 485,-199 191,-97 339,-184 444,-264 56,-42 133,-100 232,-174 99,-73 170,-127 211,-159 147,-352 315,-705 504,-1061 188,-356 341,-620 458,-796 37,-57 121,-84 255,-83 132,1 204,21 216,62l-1097 2130c-35,66 -59,143 -72,232 -12,89 2,161 44,218 23,34 72,68 145,99 73,32 138,37 194,17 29,-7 83,-25 166,-55 83,-29 149,-61 198,-96 41,-7 80,0 113,20 33,22 31,49 -8,85 -110,100 -207,202 -289,303 -82,102 -151,227 -208,374 -87,206 -186,379 -296,520 -59,70 -131,133 -216,191 -85,57 -176,86 -271,86 -228,0 -342,-78 -342,-235 0,-155 114,-232 342,-232 70,0 136,13 195,39 61,32 97,49 108,50 11,2 38,-19 82,-61 56,-56 99,-123 131,-200 31,-78 69,-160 114,-249 51,-115 132,-238 244,-372 -34,9 -68,16 -100,22 -31,6 -60,12 -85,19 -168,42 -300,20 -397,-68 -97,-87 -159,-177 -187,-268 -35,-110 -41,-251 -17,-421 -73,58 -175,136 -310,233 -134,97 -247,176 -340,237 -98,63 -203,114 -315,153 -112,39 -213,72 -304,100 -137,37 -254,22 -349,-46 -126,-88 -202,-225 -229,-408 -27,-185 -22,-345 15,-483 36,-138 81,-265 137,-380 56,-114 116,-225 182,-333 41,-66 149,-231 319,-496 172,-266 226,-434 162,-504 -48,-50 -130,-57 -244,-21 -113,35 -220,75 -317,119 -64,31 -106,12 -130,-56 -23,-68 -6,-112 52,-133 42,-15 97,-39 165,-72 68,-34 139,-57 217,-69 59,-7 137,-10 230,-10 93,0 173,15 241,45 95,49 154,132 175,249 16,118 1,245 -44,381 -45,137 -86,247 -120,329 -49,119 -111,234 -185,347 -75,113 -149,223 -224,333 -147,225 -243,415 -287,569 -29,106 -35,205 -18,298zm3381 -12c22,132 99,180 226,145 133,-36 295,-101 486,-198 190,-97 338,-186 440,-265 56,-42 133,-101 232,-174 99,-74 170,-127 211,-159 148,-351 316,-705 506,-1061 190,-355 341,-621 456,-796 37,-57 123,-84 257,-83 134,1 206,22 215,61l-1094 2132c-35,64 -59,141 -71,228 -13,89 1,162 43,221 65,98 158,123 280,76 27,-9 83,-39 169,-91 85,-51 152,-94 201,-130 44,-9 83,-4 115,18 33,21 30,49 -7,84 -105,95 -212,170 -323,222 -111,53 -204,89 -281,108 -167,42 -290,25 -367,-49 -77,-75 -128,-158 -153,-249 -39,-120 -45,-260 -18,-422 -73,59 -177,137 -312,234 -134,97 -248,176 -338,237 -98,62 -203,114 -315,152 -111,39 -213,72 -304,101 -140,35 -256,19 -349,-46 -128,-92 -205,-228 -231,-411 -25,-183 -20,-342 14,-481 35,-138 81,-264 139,-379 56,-115 118,-225 182,-333 41,-66 146,-231 319,-497 173,-266 226,-434 164,-503 -49,-49 -131,-56 -244,-22 -115,35 -221,76 -319,120 -63,30 -106,12 -129,-56 -23,-69 -7,-113 49,-133 42,-15 97,-39 166,-72 68,-35 142,-58 218,-70 61,-6 138,-9 231,-9 93,0 172,14 237,45 100,49 159,132 175,250 17,116 1,243 -44,381 -45,136 -85,245 -120,328 -49,118 -110,233 -185,345 -74,111 -148,223 -221,335 -62,94 -119,187 -170,281 -52,93 -90,189 -116,287 -30,110 -37,210 -20,298zm5042 -2520c-239,0 -507,152 -800,457 -293,306 -502,641 -626,1007 -123,366 -155,664 -98,891 59,227 208,340 447,340 239,0 488,-131 748,-395 261,-262 453,-579 577,-949 121,-365 170,-682 145,-950 -24,-267 -155,-401 -393,-401zm-74 -209c364,0 618,156 763,469 144,311 159,683 45,1113 -117,430 -352,799 -704,1106 -353,307 -712,461 -1074,461 -364,0 -628,-154 -792,-461 -165,-307 -189,-676 -72,-1106 115,-435 366,-813 755,-1132 361,-300 720,-450 1079,-450zm1815 704c351,-125 682,-284 992,-478 58,-40 157,-51 300,-32 45,8 55,32 31,75 -174,378 -353,753 -534,1126l1170 0c29,-56 65,-128 110,-216 46,-87 132,-230 261,-426 128,-197 227,-348 297,-453 37,-56 122,-84 255,-83 133,1 205,21 216,58 -108,193 -222,387 -339,584 -116,198 -219,386 -311,563 -90,178 -169,344 -235,502 -67,159 -136,318 -209,480 -29,68 -52,146 -68,233 -15,88 -1,160 41,216 66,96 159,123 279,81 29,-9 85,-40 169,-93 86,-53 153,-97 202,-132 42,-7 80,0 113,22 34,20 31,49 -8,84 -103,95 -210,168 -320,220 -111,51 -205,87 -281,105 -168,44 -290,27 -367,-46 -77,-75 -129,-158 -158,-252 -49,-165 -40,-363 23,-593 64,-229 140,-442 229,-639l-1174 0c-249,513 -485,985 -710,1419 -11,25 -39,41 -83,46 -78,4 -154,9 -231,13 -77,4 -151,-4 -223,-24 -49,-12 -56,-52 -22,-120 59,-128 124,-248 196,-358 72,-109 143,-227 210,-350 126,-235 248,-477 365,-726 118,-251 231,-501 341,-754 4,-12 9,-24 14,-36 5,-10 11,-24 17,-38 16,-42 -17,-42 -102,0 -64,36 -133,73 -207,113 -73,39 -140,67 -197,80 -49,14 -81,-7 -94,-62 -19,-59 -5,-95 42,-109zm7920 1345c3,-338 81,-648 238,-933 156,-285 304,-505 443,-659 145,-162 318,-290 520,-386 203,-96 393,-141 570,-134 275,14 461,99 556,256 96,157 133,345 111,564 -20,220 -84,451 -192,697 -106,244 -223,460 -349,648 -194,203 -469,419 -826,648 -357,229 -727,357 -1110,384 -200,17 -395,-2 -583,-57 -189,-55 -346,-157 -473,-304 -210,-244 -332,-495 -368,-756 -35,-262 -45,-522 -31,-780 14,-289 68,-572 161,-850 94,-279 212,-546 354,-804 -263,-14 -492,-44 -687,-91 -481,-110 -877,-308 -1187,-593 -311,-286 -466,-611 -466,-976 0,-454 237,-844 713,-1167 475,-325 1047,-486 1719,-486 533,0 991,95 1373,287 63,36 76,77 39,125 -38,48 -86,58 -144,30 -182,-84 -378,-154 -592,-209 -213,-55 -439,-82 -676,-82 -589,0 -1094,145 -1511,433 -419,290 -628,636 -628,1041 0,317 133,601 396,852 264,253 600,430 1011,533 196,52 450,81 763,88 210,-351 440,-674 692,-966 251,-292 478,-537 681,-733 235,-231 502,-442 800,-631 298,-191 577,-350 839,-482 134,-67 324,-139 567,-213 244,-76 471,-117 684,-124 237,-7 415,15 530,64 117,49 201,126 252,231 44,96 67,213 68,351 1,139 -46,306 -144,502 -198,404 -570,785 -1115,1144 -545,360 -1174,640 -1887,844 -450,134 -937,209 -1460,228 -144,251 -261,486 -350,706 -43,104 -93,271 -150,496 -58,225 -97,461 -116,707 -21,257 -26,508 -15,751 11,243 104,427 281,550 56,43 133,81 231,116 97,35 199,53 304,53 174,5 344,-23 511,-80 167,-59 316,-120 450,-184 62,-30 224,-154 485,-370 260,-217 467,-448 618,-695 42,-67 95,-183 157,-347 60,-164 101,-330 118,-497 18,-168 -4,-315 -62,-445 -60,-128 -188,-193 -383,-193 -127,3 -263,37 -409,103 -147,67 -279,146 -399,239 -230,177 -402,423 -515,735 -113,313 -184,598 -211,856 -17,7 -44,32 -82,75 -39,43 -62,48 -72,12 -26,-81 -39,-122 -42,-122zm3097 -5630c-215,37 -421,105 -621,202 -199,97 -380,202 -543,315 -343,236 -664,517 -964,846 -301,327 -594,698 -882,1111 -53,78 -106,156 -157,234 -51,79 -101,157 -150,234 598,-28 1062,-90 1392,-186 597,-171 1136,-410 1616,-714 478,-306 824,-630 1039,-974 70,-108 133,-247 190,-417 58,-169 58,-315 2,-436 -67,-142 -207,-217 -418,-229 -211,-12 -379,-7 -504,14zm1383 3790c-240,0 -507,152 -800,457 -294,306 -502,641 -626,1007 -123,366 -155,664 -98,891 58,227 207,340 447,340 239,0 488,-131 748,-395 261,-262 453,-579 577,-949 121,-365 170,-682 145,-950 -24,-267 -156,-401 -393,-401zm-74 -209c364,0 618,156 762,469 145,311 160,683 46,1113 -117,430 -352,799 -704,1106 -353,307 -712,461 -1075,461 -363,0 -627,-154 -792,-461 -164,-307 -188,-676 -71,-1106 114,-435 366,-813 755,-1132 361,-300 720,-450 1079,-450zm3176 345c-239,0 -507,152 -801,457 -295,305 -503,641 -624,1010 -244,728 -129,1092 350,1092 237,0 500,-137 789,-414 289,-277 496,-599 622,-967 121,-365 155,-653 101,-863 -53,-209 -199,-315 -437,-315zm-76 -215c125,0 246,26 361,79 116,52 197,132 244,237 22,-5 40,-24 52,-56 16,-42 16,-101 0,-176 -16,-75 -36,-157 -56,-246 -54,-199 -135,-367 -241,-506 -107,-137 -179,-276 -213,-417 -44,-178 -61,-351 -52,-519 11,-168 58,-310 139,-421 188,-267 447,-381 774,-341 327,40 627,46 899,21 124,-12 209,-50 255,-114 47,-64 91,-109 134,-131 103,-62 163,-64 185,-8 14,42 -13,107 -80,193 -143,181 -249,300 -318,357 -71,57 -207,101 -410,131 -261,41 -521,33 -781,-21 -259,-53 -445,29 -557,250 -98,196 -96,397 5,603 101,207 206,413 314,621 155,304 223,648 202,1029 -14,260 -68,517 -161,768 -93,252 -211,478 -353,681 -181,257 -398,482 -648,678 -251,194 -478,291 -683,291 -315,0 -545,-108 -691,-324 -232,-336 -258,-732 -82,-1186 178,-453 405,-793 683,-1020 365,-302 725,-453 1079,-453z"/>
   <path class="fil1" d="M41934 28157c183,-59 317,-107 398,-144 82,-37 218,-111 409,-221 70,-37 173,-48 308,-31 41,7 47,31 16,73 -146,237 -300,472 -460,705 -161,235 -315,466 -462,695 -29,49 -84,146 -162,292 -78,145 -142,292 -191,439 -44,133 -62,248 -53,344 7,96 71,140 189,133 117,-7 231,-51 341,-132 111,-80 215,-170 313,-268 217,-214 370,-415 458,-608 -117,-46 -174,-157 -174,-333 0,-231 81,-347 244,-347 160,0 241,116 241,347 0,7 0,15 0,22 0,7 0,13 0,20 91,7 196,-35 314,-124 119,-90 237,-191 353,-304 163,-154 321,-336 472,-547 42,-56 80,-109 115,-158 36,-49 67,-91 95,-127 28,-37 85,-58 173,-63 87,-4 165,0 232,14 70,16 107,37 112,60 -115,180 -228,358 -340,534 -114,175 -226,351 -338,526 -98,159 -193,318 -286,477 -94,159 -183,322 -266,488 -32,65 -58,141 -76,224 -19,86 -9,155 31,211 60,91 152,117 275,73 29,-6 86,-34 173,-85 88,-50 158,-93 209,-128 44,-7 82,-1 114,19 34,19 29,47 -13,83 -107,91 -218,163 -330,213 -113,52 -209,88 -285,106 -171,40 -292,24 -368,-47 -74,-72 -121,-153 -143,-244 -49,-175 -28,-385 61,-627 91,-242 185,-460 285,-654 -120,91 -240,166 -356,226 -116,60 -215,85 -297,76 -11,14 -23,25 -35,34 -69,248 -278,526 -625,832 -347,307 -637,440 -867,396 -98,-15 -177,-79 -236,-189 -59,-110 -88,-237 -88,-382 -3,-162 26,-326 84,-494 60,-166 118,-294 174,-383 174,-277 347,-562 520,-857 12,-16 27,-41 46,-74 24,-42 -12,-42 -105,0 -69,35 -100,55 -92,58 7,3 -19,13 -79,26 -49,10 -79,-11 -88,-62 -6,-57 13,-94 60,-113zm7963 -194c-24,-72 -113,-92 -269,-60 -114,29 -232,71 -351,127 -120,56 -191,90 -211,102 -376,214 -652,525 -833,930 -97,218 -204,450 -319,698 -115,248 -222,467 -320,657 -42,79 -73,136 -92,170 -20,35 -57,44 -111,30l-349 -4c-16,3 -35,-14 -54,-49 -20,-35 -19,-80 1,-137 76,-159 182,-365 320,-617 140,-250 278,-510 418,-776 104,-204 201,-402 291,-595 88,-193 120,-348 97,-462 -24,-87 -100,-115 -231,-85 -113,27 -230,71 -350,136 -118,64 -188,104 -208,117 -78,42 -158,95 -242,157 -84,61 -163,123 -238,185 -225,191 -411,436 -555,733 -105,211 -216,436 -333,675 -118,240 -229,464 -334,673 -15,27 -43,42 -87,42 -78,7 -154,12 -232,15 -76,4 -150,-5 -219,-26 -49,-12 -57,-52 -25,-119 61,-127 133,-261 218,-404 86,-142 161,-276 226,-400 233,-431 462,-907 688,-1429 4,-11 9,-24 14,-36 5,-13 11,-26 18,-41 15,-39 -18,-38 -101,4 -66,32 -135,69 -209,110 -73,41 -139,68 -197,83 -49,12 -80,-10 -94,-64 -19,-58 -5,-94 42,-109 174,-60 338,-126 492,-196 154,-70 319,-161 493,-270 63,-41 163,-50 300,-32 7,7 11,21 11,44 0,23 7,34 20,34 -37,84 -70,155 -101,215 -30,60 -63,131 -100,212 -68,143 -47,166 65,68 154,-136 275,-229 361,-278 71,-40 169,-91 293,-154 124,-63 252,-108 384,-134 212,-39 370,-20 472,56 69,57 117,149 143,278 5,25 10,64 15,115 2,91 44,105 125,39 112,-96 207,-166 286,-210 71,-43 170,-91 297,-146 129,-55 259,-96 393,-121 206,-40 365,-22 474,56 74,59 128,151 161,277 47,196 38,378 -25,544 -76,206 -187,414 -330,625 -143,211 -272,455 -385,733 -71,162 -102,272 -96,332 7,60 29,101 63,121 42,30 86,42 132,35 45,-6 122,-49 232,-126 19,-12 47,-30 86,-56 38,-25 72,-29 99,-11 29,22 47,54 55,98 7,45 -11,82 -55,109 -125,84 -228,141 -308,166 -78,26 -163,38 -254,36 -192,0 -313,-90 -367,-271 -35,-103 -51,-216 -49,-339 2,-124 14,-223 35,-300 70,-248 174,-486 311,-713 56,-95 118,-191 185,-286 68,-94 129,-188 182,-279 126,-206 171,-373 136,-502zm875 2313c22,132 99,180 226,145 133,-36 295,-101 486,-198 190,-97 338,-186 440,-265 56,-42 133,-101 232,-174 99,-74 170,-127 211,-159 148,-351 316,-705 506,-1061 190,-355 341,-621 456,-796 37,-57 123,-84 257,-83 134,1 205,22 215,61l-1094 2132c-35,64 -59,141 -71,228 -13,89 1,162 43,221 65,98 158,123 280,76 27,-9 83,-39 169,-91 85,-51 152,-94 201,-130 44,-9 83,-4 115,18 33,21 30,49 -7,84 -105,95 -212,170 -323,222 -111,53 -204,89 -281,108 -167,42 -290,25 -367,-49 -77,-75 -128,-158 -154,-249 -38,-120 -44,-260 -17,-422 -73,59 -177,137 -312,234 -134,97 -248,176 -338,237 -98,62 -203,114 -315,152 -111,39 -213,72 -304,101 -140,35 -256,19 -349,-46 -129,-92 -205,-228 -231,-411 -25,-183 -20,-342 14,-481 35,-138 81,-264 139,-379 56,-115 118,-225 182,-333 41,-66 146,-231 319,-497 172,-266 226,-434 164,-503 -49,-49 -131,-56 -244,-22 -115,35 -221,76 -319,120 -63,30 -106,12 -129,-56 -24,-69 -7,-113 49,-133 42,-15 97,-39 166,-72 68,-35 142,-58 218,-70 61,-6 137,-9 230,-9 94,0 173,14 238,45 100,49 158,132 175,250 17,116 1,243 -44,381 -45,136 -85,245 -120,328 -49,118 -110,233 -185,345 -74,111 -148,223 -221,335 -62,94 -119,187 -171,281 -51,93 -89,189 -115,287 -30,110 -37,210 -20,298zm3364 29c24,131 98,179 224,144 61,-14 158,-56 290,-126 152,-78 335,-184 551,-320 215,-135 393,-257 532,-365 147,-351 315,-705 504,-1059 188,-356 339,-622 454,-798 37,-55 123,-83 256,-80 135,2 208,22 220,60l-1097 2130c-36,66 -60,142 -73,232 -12,89 2,161 44,217 68,98 161,125 279,78 29,-10 86,-41 172,-91 86,-52 154,-96 203,-131 41,-9 79,-3 113,18 34,21 31,49 -9,84 -104,98 -212,174 -323,225 -111,52 -204,88 -278,108 -168,43 -291,25 -368,-50 -79,-77 -130,-160 -155,-252 -38,-118 -44,-259 -18,-420 -133,105 -338,243 -613,412 -277,170 -495,278 -656,324 -133,35 -249,21 -350,-45 -127,-89 -204,-225 -230,-409 -25,-184 -21,-345 14,-482 35,-138 82,-264 138,-378 57,-114 119,-224 183,-332 41,-68 146,-233 319,-498 172,-265 226,-431 164,-502 -49,-52 -131,-60 -244,-24 -115,35 -221,74 -319,119 -63,31 -106,12 -128,-57 -24,-67 -6,-111 51,-133 43,-14 98,-38 164,-72 68,-33 140,-56 218,-68 60,-7 137,-11 230,-11 93,0 174,16 241,46 97,51 155,134 171,249 18,120 5,247 -41,382 -47,137 -87,247 -120,331 -49,119 -111,235 -187,345 -75,111 -149,223 -222,332 -146,225 -242,414 -286,569 -32,113 -38,212 -18,298zm2953 -3850c0,176 -89,321 -267,437 -179,115 -374,174 -589,174 -216,0 -416,-57 -599,-167 -183,-111 -274,-255 -274,-430 0,-147 79,-212 237,-193 119,13 185,71 199,171 5,32 -8,63 -38,94 -31,31 -45,71 -45,117 0,71 57,130 170,179 115,49 232,74 350,74 117,0 230,-27 339,-80 109,-54 164,-116 164,-187 0,-35 -16,-70 -49,-103 -32,-34 -45,-66 -38,-97 7,-49 41,-90 99,-125 60,-33 108,-52 142,-57 30,-3 72,9 123,37 51,26 76,79 76,156z"/>
  </g>
  <circle class="fil2 str0" cx="28280" cy="12337" r="388"/>
 </g>
</svg>
