<?xml version="1.0" encoding="UTF-8"?>
<!DOCTYPE svg PUBLIC "-//W3C//DTD SVG 1.1//EN" "http://www.w3.org/Graphics/SVG/1.1/DTD/svg11.dtd">
<!-- Creator: CorelDRAW X6 -->
<svg xmlns="http://www.w3.org/2000/svg" xml:space="preserve" width="974px" height="368px" version="1.1" style="shape-rendering:geometricPrecision; text-rendering:geometricPrecision; image-rendering:optimizeQuality; fill-rule:evenodd; clip-rule:evenodd"
viewBox="0 0 974 368"
 xmlns:xlink="http://www.w3.org/1999/xlink">
 <defs>
  <style type="text/css">
   <![CDATA[
    .fil0 {fill:#FF3399}
    .fil1 {fill:#DBAE53;fill-rule:nonzero}
    .fil3 {fill:#FF3399;fill-rule:nonzero}
    .fil2 {fill:white;fill-rule:nonzero}
   ]]>
  </style>
 </defs>
 <g id="Слой_x0020_1">
  <metadata id="CorelCorpID_0Corel-Layer"/>
  <circle class="fil0" cx="883" cy="86" r="73"/>
  <path class="fil1" d="M97 250l-53 -115 0 91c0,8 1,14 3,16 2,3 6,4 12,4l5 0 0 4 -48 0 0 -4 5 0c6,0 10,-2 12,-5 1,-2 2,-7 2,-15l0 -89c0,-3 0,-6 0,-8 0,-2 -1,-5 -2,-6 -1,-2 -3,-3 -6,-4 -3,-1 -6,-1 -11,-1l0 -4 39 0 50 107 49 -107 39 0 0 4 -5 0c-6,0 -10,2 -12,5 -1,2 -2,7 -2,15l0 89c0,8 1,14 3,16 2,3 6,4 12,4l5 0 0 4 -58 0 0 -4 5 0c6,0 10,-2 12,-5 1,-2 2,-7 2,-15l0 -91 -53 115 -3 0z"/>
  <path id="1" class="fil1" d="M728 250l0 -4 5 0c6,0 10,-2 12,-5 1,-2 2,-7 2,-15l0 -88c0,-9 -1,-14 -3,-16 -3,-3 -6,-4 -12,-4l-5 0 0 -4 56 0c10,0 19,1 27,2 8,1 14,3 20,5 6,2 11,6 15,9 4,4 8,8 11,14 6,11 10,23 10,38 0,10 -2,19 -5,28 -3,8 -8,16 -15,22 -6,6 -14,11 -24,14 -10,3 -21,5 -33,5l-61 0zm39 -10c9,2 16,3 21,3 8,0 15,-1 22,-4 7,-3 12,-7 17,-12 5,-5 9,-12 11,-19 3,-8 4,-16 4,-25 0,-9 -1,-18 -4,-25 -3,-7 -7,-14 -11,-19 -5,-5 -11,-9 -17,-12 -7,-3 -14,-4 -22,-4 -6,0 -13,1 -21,3l0 117z"/>
  <path id="2" class="fil1" d="M284 129l42 0 0 3 -2 0c-3,0 -7,2 -11,5 -4,3 -8,8 -13,16l-29 46 0 30c0,7 1,12 2,14 2,2 6,4 11,4l4 0 0 3 -51 0 0 -3 4 0c5,0 9,-2 11,-5 1,-2 2,-6 2,-13l0 -29 -33 -51c-2,-3 -4,-5 -5,-7 -1,-2 -3,-3 -4,-5 -1,-1 -2,-2 -4,-3 -1,-1 -3,-1 -4,-2 -1,0 -1,0 -2,-1 -1,0 -2,0 -3,0l0 -3 52 0 0 3 -3 0c-1,0 -3,0 -4,0 -1,0 -3,1 -4,2 -1,1 -2,2 -3,2 -1,1 -1,2 -1,3 0,1 0,3 1,5 1,2 2,4 4,7l25 39 24 -37c3,-6 5,-10 5,-13 0,-2 -1,-4 -3,-6 -2,-2 -5,-2 -10,-2l0 -3z"/>
  <polygon id="3" class="fil1" points="316,202 362,202 362,215 316,215 "/>
  <path id="4" class="fil1" d="M475 129l0 28 -2 0c0,-4 -1,-7 -2,-10 -1,-3 -3,-5 -4,-6 -2,-2 -4,-3 -6,-4 -3,-1 -6,-1 -9,-1l-17 0 0 92c0,7 1,12 2,14 2,2 6,4 10,4l4 0 0 3 -51 0 0 -3 4 0c5,0 9,-2 11,-5 1,-2 2,-6 2,-13l0 -92 -15 0c-6,0 -10,0 -12,1 -3,1 -6,3 -8,6 -2,3 -4,8 -4,13l-3 0 0 -28 100 0z"/>
  <path id="5" class="fil1" d="M519 136l0 48 27 0c4,0 7,0 9,-1 2,-1 4,-2 6,-3 1,-1 2,-3 3,-5 1,-2 1,-5 1,-8l3 0 0 42 -3 0c0,-3 -1,-6 -2,-9 -1,-2 -1,-4 -3,-6 -1,-1 -3,-2 -5,-3 -2,-1 -5,-1 -9,-1l-27 0 0 40c0,5 0,9 1,10 0,1 1,1 1,2 0,0 1,1 2,1 1,0 2,1 3,1 1,0 3,0 4,0l21 0c3,0 6,0 9,0 2,0 4,-1 6,-1 2,-1 3,-1 5,-2 1,-1 3,-2 4,-4 4,-3 7,-9 11,-17l4 0 -10 30 -93 0 0 -3 4 0c1,0 2,0 4,0 1,0 2,-1 3,-1 1,0 2,-1 3,-2 1,-1 2,-2 2,-3 1,-2 1,-6 1,-12l0 -78c0,-4 0,-7 -1,-9 0,-2 -1,-4 -2,-5 -2,-2 -6,-4 -11,-4l-4 0 0 -3 93 0 0 26 -2 0c-1,-4 -2,-8 -3,-11 -1,-3 -2,-5 -4,-6 -2,-1 -4,-2 -7,-3 -3,0 -6,-1 -10,-1l-33 0z"/>
  <path id="6" class="fil1" d="M590 129l33 0 74 91 0 -70c0,-7 -1,-12 -3,-14 -2,-3 -6,-4 -10,-4l-4 0 0 -3 42 0 0 3 -4 0c-2,0 -4,0 -6,1 -2,0 -3,1 -4,2 -1,1 -2,3 -2,5 -1,2 -1,5 -1,9l0 102 -3 0 -80 -97 0 75c0,7 1,12 2,14 2,2 6,4 10,4l4 0 0 3 -42 0 0 -3 4 0c5,0 9,-2 11,-5 1,-2 2,-6 2,-13l0 -84c-2,-2 -3,-4 -5,-5 -1,-1 -2,-2 -3,-3 -1,-1 -2,-1 -3,-2 -1,0 -3,-1 -5,-2 -2,-1 -4,-1 -8,-1l0 -3z"/>
  <path class="fil2" d="M853 83l-8 1c0,-2 -1,-3 -2,-4 -1,-1 -2,-1 -4,-1 -2,0 -4,1 -5,2 -1,1 -2,4 -2,7 0,4 1,7 2,8 1,2 3,2 5,2 2,0 3,0 4,-1 1,-1 2,-3 2,-5l8 1c-1,4 -3,7 -5,9 -2,2 -6,3 -10,3 -5,0 -9,-1 -11,-4 -3,-3 -4,-7 -4,-12 0,-5 1,-10 4,-13 3,-3 7,-4 11,-4 4,0 7,1 9,3 2,2 4,4 5,8z"/>
  <path id="1" class="fil2" d="M857 89c0,-3 1,-6 2,-8 1,-3 3,-5 6,-6 3,-1 5,-2 9,-2 5,0 9,2 12,5 3,3 5,7 5,12 0,5 -2,9 -5,12 -3,3 -7,5 -12,5 -3,0 -6,-1 -8,-2 -3,-1 -5,-3 -6,-6 -1,-3 -2,-6 -2,-9zm9 0c0,3 1,6 2,7 2,2 3,3 6,3 2,0 4,-1 6,-3 2,-2 2,-4 2,-7 0,-3 -1,-6 -2,-7 -2,-2 -3,-3 -6,-3 -2,0 -4,1 -6,3 -2,2 -2,4 -2,7z"/>
  <path id="2" class="fil2" d="M897 74l8 0 0 4c3,-3 6,-5 10,-5 2,0 4,0 5,1 2,1 3,2 4,4 1,-2 3,-3 5,-4 2,-1 3,-1 5,-1 2,0 4,0 6,1 2,1 3,2 4,4 1,1 1,4 1,7l0 21 -9 0 0 -19c0,-3 0,-5 -1,-6 -1,-1 -2,-2 -4,-2 -1,0 -2,0 -3,1 -1,1 -2,2 -2,3 0,1 -1,4 -1,7l0 16 -9 0 0 -18c0,-3 0,-5 0,-6 0,-1 -1,-2 -1,-2 -1,0 -2,-1 -3,-1 -1,0 -3,0 -4,1 -1,1 -2,2 -2,3 0,1 -1,4 -1,7l0 16 -9 0 0 -32z"/>
  <path class="fil3" d="M177 323c-5,-2 -8,-5 -10,-9 -2,-4 -3,-8 -3,-13 0,-6 1,-13 4,-19 3,-6 6,-11 11,-16 5,-5 11,-9 19,-12 8,-3 15,-5 22,-5 6,0 12,0 18,1 6,1 12,3 17,6 2,-1 4,-2 7,-3 4,-1 8,-2 13,-3 1,0 1,0 1,1 0,1 0,1 -1,1 -5,1 -9,2 -12,3 -2,1 -4,2 -6,3 4,4 7,8 8,14 0,3 1,6 0,9 0,3 -1,6 -1,8 -1,3 -2,6 -3,9 -1,3 -3,6 -4,8 -1,2 -2,5 -3,7 -1,2 -2,4 -4,6 -2,3 -3,6 -5,9 -1,3 -2,5 -3,7 -1,4 -1,6 1,7 2,1 6,0 11,-3 1,0 1,0 1,0 0,1 0,1 0,1 -6,3 -11,4 -13,3 -1,-1 -3,-2 -3,-4 -1,-2 -1,-5 0,-9 1,-4 2,-7 3,-10 1,-3 3,-8 6,-13 0,0 0,-1 1,-1l-24 0c-4,8 -9,15 -14,21 -5,6 -11,11 -18,14 -4,2 -9,3 -14,3 -5,0 -10,0 -16,-2 0,0 -1,0 -1,-1 0,0 -1,-1 0,-1 0,-1 0,-1 1,-1 12,3 21,3 29,0 4,-1 7,-4 10,-6 3,-3 5,-6 8,-9 2,-3 4,-6 5,-9 2,-3 3,-6 5,-9 1,-3 3,-6 4,-8 1,-3 3,-6 5,-9 2,-3 3,-6 4,-8 1,-3 3,-5 5,-8 2,-3 4,-5 7,-7 3,-2 5,-4 8,-6 1,-1 3,-2 4,-3 -5,-3 -10,-5 -16,-6 -6,-1 -12,-1 -17,-1 -7,0 -14,2 -22,5 -8,3 -14,7 -19,12 -4,4 -8,9 -10,15 -3,6 -4,12 -4,18 0,5 1,9 3,12 2,3 5,6 9,8 1,0 1,1 1,1 0,1 -1,1 -1,1 -1,0 -1,0 -1,0zm72 -19c2,-4 4,-9 7,-13 3,-5 4,-9 5,-12 1,-4 1,-7 0,-11 -1,-3 -2,-6 -6,-9 -2,1 -3,2 -4,3 -6,5 -10,11 -14,18 -3,7 -7,15 -11,22 0,0 0,1 -1,1 0,0 0,1 -1,1l24 0z"/>
  <path id="1" class="fil3" d="M267 340c0,1 1,1 4,1 2,0 3,-1 5,-1 2,-1 3,-1 4,-1 3,-2 6,-4 8,-6 2,-2 4,-5 6,-8 1,-2 2,-4 3,-6 1,-2 2,-4 3,-6 1,-1 1,-2 2,-4 1,-2 2,-3 3,-3 3,-1 5,-1 6,0 1,1 1,2 0,4 -3,4 -5,8 -7,12 -2,4 -4,8 -6,12 -2,4 -3,8 -5,11 -1,3 -3,6 -5,9 -3,4 -7,8 -12,11 -5,3 -10,5 -15,6 -3,0 -7,0 -9,0 -3,0 -5,-1 -6,-1 -2,-1 -2,-2 -1,-3 1,-1 2,-1 2,0 1,1 3,2 6,2 7,1 14,-2 20,-7 4,-3 7,-7 9,-10 2,-3 4,-7 7,-12 1,-1 1,-2 0,-1 -1,0 -1,1 -2,1 -2,1 -3,2 -3,2 -1,1 -3,1 -5,2 -2,1 -4,2 -6,2 -3,0 -5,0 -7,-1 -1,-1 -2,-2 -2,-4 -1,-3 0,-6 1,-9 1,-2 2,-5 4,-7 1,-1 1,-2 2,-3 1,-1 2,-3 3,-5 1,-2 1,-3 1,-4 0,-1 0,-1 0,-2 0,0 0,-1 -1,-1 -1,0 -2,1 -4,2 -1,1 -2,1 -2,0 0,0 -1,-1 -1,-1 0,-1 0,-1 1,-2 4,-2 7,-4 10,-4 3,0 4,1 5,4 0,1 0,3 0,5 0,2 -1,3 -1,4 -1,3 -3,6 -4,8 -1,2 -3,5 -5,7 -1,1 -2,3 -2,4 -1,2 -1,3 -1,4z"/>
  <path id="2" class="fil3" d="M340 334c0,1 -1,2 -2,3 -1,1 -1,2 0,3 1,1 2,2 4,1 0,0 1,-1 2,-2 1,-1 2,-2 3,-2 1,0 1,0 2,0 0,0 0,1 0,1 -3,3 -6,4 -8,5 -2,0 -4,0 -5,-1 -2,-2 -3,-5 -2,-8 0,-2 1,-3 2,-5 1,-1 2,-3 2,-4 1,-2 0,-3 0,-3 -1,-1 -3,-1 -6,0 0,0 0,0 0,-1 0,-1 1,-1 1,-1 9,-1 14,-4 15,-8 2,-4 -1,-6 -7,-5 -1,0 -3,1 -5,2 -2,1 -4,3 -7,5 -1,1 -2,2 -3,3 -1,1 -1,2 -2,2 -1,1 -1,2 -2,3 -1,1 -2,3 -2,4 -1,3 -2,6 -4,8 -1,3 -2,5 -3,7 0,0 -1,1 -1,2 0,1 -1,1 -1,1l-6 0c-1,0 -1,-1 0,-2 2,-4 4,-9 7,-15 3,-6 5,-11 7,-16 2,-6 5,-11 8,-16 3,-5 5,-10 9,-14 4,-5 7,-8 11,-11 5,-4 11,-6 17,-6 3,0 5,0 6,1 2,1 3,1 3,1 2,1 2,2 1,3 -1,1 -2,1 -2,0 -1,-1 -4,-2 -7,-2 -3,0 -7,0 -9,1 -3,1 -6,3 -8,6 -3,3 -5,6 -7,10 -2,4 -4,8 -6,12 -1,3 -3,5 -4,8 -1,3 -2,5 -4,8 0,0 0,1 0,1 0,0 0,0 1,0 2,-1 4,-3 7,-4 3,-1 5,-2 7,-3 6,-2 10,-1 11,2 2,3 2,5 0,8 -1,2 -4,4 -7,5 -3,1 -6,2 -8,2 2,1 4,2 4,4 1,1 1,3 0,5 0,2 -1,3 -2,5z"/>
  <path id="3" class="fil3" d="M358 339c0,2 1,2 3,2 2,0 4,-1 7,-3 3,-1 5,-3 6,-4 1,-1 2,-1 3,-2 1,-1 2,-2 3,-2 2,-5 4,-10 7,-15 3,-5 5,-9 6,-11 1,-1 2,-1 4,-1 2,0 3,0 3,1l-15 30c0,1 -1,2 -1,3 0,1 0,2 1,3 0,0 1,1 2,1 1,0 2,1 3,0 0,0 1,0 2,-1 1,0 2,-1 3,-1 1,0 1,0 2,0 0,0 0,1 0,1 -2,1 -3,3 -4,4 -1,1 -2,3 -3,5 -1,3 -3,5 -4,7 -1,1 -2,2 -3,3 -1,1 -2,1 -4,1 -3,0 -5,-1 -5,-3 0,-2 2,-3 5,-3 1,0 2,0 3,1 1,0 1,1 1,1 0,0 1,0 1,-1 1,-1 1,-2 2,-3 0,-1 1,-2 2,-3 1,-2 2,-3 3,-5 0,0 -1,0 -1,0 0,0 -1,0 -1,0 -2,1 -4,0 -6,-1 -1,-1 -2,-2 -3,-4 0,-2 -1,-3 0,-6 -1,1 -2,2 -4,3 -2,1 -3,2 -5,3 -1,1 -3,2 -4,2 -2,1 -3,1 -4,1 -2,1 -4,0 -5,-1 -2,-1 -3,-3 -3,-6 0,-3 0,-5 0,-7 1,-2 1,-4 2,-5 1,-2 2,-3 3,-5 1,-1 2,-3 4,-7 2,-4 3,-6 2,-7 -1,-1 -2,-1 -3,0 -2,0 -3,1 -4,2 -1,0 -1,0 -2,-1 0,-1 0,-2 1,-2 1,0 1,-1 2,-1 1,0 2,-1 3,-1 1,0 2,0 3,0 1,0 2,0 3,1 1,1 2,2 2,3 0,2 0,3 -1,5 -1,2 -1,3 -2,5 -1,2 -2,3 -3,5 -1,2 -2,3 -3,5 -2,3 -3,6 -4,8 0,1 -1,3 0,4z"/>
  <path id="4" class="fil3" d="M406 339c0,2 1,3 3,2 2,-1 4,-1 7,-3 3,-1 5,-3 6,-4 1,-1 2,-1 3,-2 1,-1 2,-2 3,-2 2,-5 4,-10 7,-15 3,-5 5,-9 6,-11 1,-1 2,-1 4,-1 2,0 3,0 3,1l-15 30c0,1 -1,2 -1,3 0,1 0,2 1,3 1,1 2,2 4,1 0,0 1,-1 2,-1 1,-1 2,-1 3,-2 1,0 1,0 2,0 0,0 0,1 0,1 -1,1 -3,2 -5,3 -2,1 -3,1 -4,1 -2,1 -4,0 -5,-1 -1,-1 -2,-2 -2,-3 -1,-2 -1,-4 0,-6 -1,1 -2,2 -4,3 -2,1 -3,2 -5,3 -1,1 -3,2 -4,2 -2,1 -3,1 -4,1 -2,0 -4,0 -5,-1 -2,-1 -3,-3 -3,-6 0,-3 0,-5 0,-7 0,-2 1,-4 2,-5 1,-2 2,-3 3,-5 1,-1 2,-3 4,-7 2,-4 3,-6 2,-7 -1,-1 -2,-1 -3,0 -2,0 -3,1 -4,2 -1,0 -1,0 -2,-1 0,-1 0,-2 1,-2 1,0 1,-1 2,-1 1,0 2,-1 3,-1 1,0 2,0 3,0 1,0 2,0 3,1 1,1 2,2 2,3 0,2 0,3 -1,5 -1,2 -1,3 -2,5 -1,2 -2,3 -3,5 -1,2 -2,3 -3,5 -1,1 -2,3 -2,4 -1,1 -1,3 -2,4 0,2 -1,3 0,4z"/>
  <path id="5" class="fil3" d="M476 304c-3,0 -7,2 -11,6 -4,4 -7,9 -9,14 -2,5 -2,9 -1,12 1,3 3,5 6,5 3,0 7,-2 10,-5 4,-4 6,-8 8,-13 2,-5 2,-9 2,-13 0,-4 -2,-6 -5,-6zm-1 -3c5,0 9,2 11,7 2,4 2,9 1,15 -2,6 -5,11 -10,15 -5,4 -10,6 -15,6 -5,0 -9,-2 -11,-6 -2,-4 -3,-9 -1,-15 2,-6 5,-11 11,-16 5,-4 10,-6 15,-6z"/>
  <path id="6" class="fil3" d="M500 311c5,-2 10,-4 14,-7 1,-1 2,-1 4,0 1,0 1,0 0,1 -2,5 -5,10 -7,16l16 0c0,-1 1,-2 2,-3 1,-1 2,-3 4,-6 2,-3 3,-5 4,-6 1,-1 2,-1 4,-1 2,0 3,0 3,1 -2,3 -3,5 -5,8 -2,3 -3,5 -4,8 -1,2 -2,5 -3,7 -1,2 -2,4 -3,7 0,1 -1,2 -1,3 0,1 0,2 1,3 1,1 2,2 4,1 0,0 1,-1 2,-1 1,-1 2,-1 3,-2 1,0 1,0 2,0 0,0 0,1 0,1 -1,1 -3,2 -4,3 -2,1 -3,1 -4,1 -2,1 -4,0 -5,-1 -1,-1 -2,-2 -2,-3 -1,-2 -1,-5 0,-8 1,-3 2,-6 3,-9l-16 0c-3,7 -7,14 -10,20 0,0 -1,1 -1,1 -1,0 -2,0 -3,0 -1,0 -2,0 -3,0 -1,0 -1,-1 0,-2 1,-2 2,-3 3,-5 1,-2 2,-3 3,-5 2,-3 3,-7 5,-10 2,-3 3,-7 5,-10 0,0 0,0 0,0 0,0 0,0 0,-1 0,-1 0,-1 -1,0 -1,1 -2,1 -3,2 -1,1 -2,1 -3,1 -1,0 -1,0 -1,-1 0,-1 0,-1 1,-2z"/>
  <path id="7" class="fil3" d="M611 330c0,-5 1,-9 3,-13 2,-4 4,-7 6,-9 2,-2 4,-4 7,-5 3,-1 5,-2 8,-2 4,0 6,1 8,4 1,2 2,5 2,8 0,3 -1,6 -3,10 -1,3 -3,6 -5,9 -3,3 -7,6 -12,9 -5,3 -10,5 -16,5 -3,0 -6,0 -8,-1 -3,-1 -5,-2 -7,-4 -3,-3 -5,-7 -5,-11 0,-4 -1,-7 0,-11 0,-4 1,-8 2,-12 1,-4 3,-8 5,-11 -4,0 -7,-1 -10,-1 -7,-2 -12,-4 -17,-8 -4,-4 -7,-8 -7,-14 0,-6 3,-12 10,-16 7,-5 15,-7 24,-7 7,0 14,1 19,4 1,1 1,1 1,2 -1,1 -1,1 -2,0 -3,-1 -5,-2 -8,-3 -3,-1 -6,-1 -9,-1 -8,0 -15,2 -21,6 -6,4 -9,9 -9,14 0,4 2,8 6,12 4,4 8,6 14,7 3,1 6,1 11,1 3,-5 6,-9 10,-13 4,-4 7,-7 10,-10 3,-3 7,-6 11,-9 4,-3 8,-5 12,-7 2,-1 5,-2 8,-3 3,-1 7,-2 10,-2 3,0 6,0 7,1 2,1 3,2 4,3 1,1 1,3 1,5 0,2 -1,4 -2,7 -3,6 -8,11 -16,16 -8,5 -16,9 -26,12 -6,2 -13,3 -20,3 -2,3 -4,7 -5,10 -1,1 -1,4 -2,7 -1,3 -1,6 -2,10 0,4 0,7 0,10 0,3 1,6 4,8 1,1 2,1 3,2 1,0 3,1 4,1 2,0 5,0 7,-1 2,-1 4,-2 6,-3 1,0 3,-2 7,-5 4,-3 7,-6 9,-10 1,-1 1,-3 2,-5 1,-2 1,-5 2,-7 0,-2 0,-4 -1,-6 -1,-2 -3,-3 -5,-3 -2,0 -4,1 -6,1 -2,1 -4,2 -6,3 -3,2 -6,6 -7,10 -2,4 -3,8 -3,12 0,0 -1,0 -1,1 -1,1 -1,1 -1,0 0,-1 -1,-2 -1,-2zm43 -78c-3,1 -6,1 -9,3 -3,1 -5,3 -8,4 -5,3 -9,7 -13,12 -4,5 -8,10 -12,15 -1,1 -1,2 -2,3 -1,1 -1,2 -2,3 8,0 15,-1 19,-3 8,-2 16,-6 23,-10 7,-4 12,-9 15,-14 1,-1 2,-3 3,-6 1,-2 1,-4 0,-6 -1,-2 -3,-3 -6,-3 -3,0 -5,0 -7,0z"/>
  <path id="8" class="fil3" d="M674 304c-3,0 -7,2 -11,6 -4,4 -7,9 -9,14 -2,5 -2,9 -1,12 1,3 3,5 6,5 3,0 7,-2 10,-5 4,-4 6,-8 8,-13 2,-5 2,-9 2,-13 0,-4 -2,-6 -5,-6zm-1 -3c5,0 9,2 11,7 2,4 2,9 1,15 -2,6 -5,11 -10,15 -5,4 -10,6 -15,6 -5,0 -9,-2 -11,-6 -2,-4 -3,-9 -1,-15 2,-6 5,-11 11,-16 5,-4 10,-6 15,-6z"/>
  <path id="9" class="fil3" d="M717 306c-3,0 -7,2 -11,6 -4,4 -7,9 -9,14 -3,10 -2,15 5,15 3,0 7,-2 11,-6 4,-4 7,-8 9,-13 2,-5 2,-9 1,-12 -1,-3 -3,-4 -6,-4zm-1 -3c2,0 3,0 5,1 2,1 3,2 3,3 0,0 1,0 1,-1 0,-1 0,-1 0,-2 0,-1 0,-2 -1,-3 -1,-3 -2,-5 -3,-7 -1,-2 -3,-4 -3,-6 -1,-2 -1,-5 -1,-7 0,-2 1,-4 2,-6 3,-4 6,-5 11,-5 5,1 9,1 13,0 2,0 3,-1 4,-2 1,-1 1,-2 2,-2 1,-1 2,-1 3,0 0,1 0,1 -1,3 -2,3 -3,4 -4,5 -1,1 -3,1 -6,2 -4,1 -7,0 -11,0 -4,-1 -6,0 -8,3 -1,3 -1,6 0,8 1,3 3,6 4,9 2,4 3,9 3,14 0,4 -1,7 -2,11 -1,3 -3,7 -5,9 -3,4 -6,7 -9,9 -3,3 -7,4 -10,4 -4,0 -8,-1 -10,-4 -3,-5 -4,-10 -1,-16 2,-6 6,-11 10,-14 5,-4 10,-6 15,-6z"/>
  <path id="10" class="fil3" d="M741 310c3,-1 4,-1 6,-2 1,-1 3,-2 6,-3 1,-1 2,-1 4,0 1,0 1,0 0,1 -2,3 -4,7 -6,10 -2,3 -4,6 -6,10 0,1 -1,2 -2,4 -1,2 -2,4 -3,6 -1,2 -1,3 -1,5 0,1 1,2 3,2 2,0 3,-1 5,-2 2,-1 3,-2 4,-4 3,-3 5,-6 6,-8 -2,-1 -2,-2 -2,-5 0,-3 1,-5 3,-5 2,0 3,2 3,5 0,0 0,0 0,0 0,0 0,0 0,0 1,0 3,0 4,-2 2,-1 3,-3 5,-4 2,-2 4,-5 7,-8 1,-1 1,-2 2,-2 0,-1 1,-1 1,-2 0,-1 1,-1 2,-1 1,0 2,0 3,0 1,0 1,1 2,1 -2,3 -3,5 -5,7 -2,2 -3,5 -5,7 -1,2 -3,4 -4,7 -1,2 -3,4 -4,7 0,1 -1,2 -1,3 0,1 0,2 0,3 1,1 2,2 4,1 0,0 1,0 2,-1 1,-1 2,-1 3,-2 1,0 1,0 2,0 0,0 0,1 0,1 -1,1 -3,2 -5,3 -2,1 -3,1 -4,1 -2,1 -4,0 -5,-1 -1,-1 -2,-2 -2,-3 -1,-2 0,-5 1,-9 1,-3 3,-6 4,-9 -2,1 -3,2 -5,3 -2,1 -3,1 -4,1 0,0 0,0 0,0 -1,3 -4,7 -9,12 -5,4 -9,6 -12,6 -1,0 -2,-1 -3,-3 -1,-2 -1,-3 -1,-5 0,-2 0,-5 1,-7 1,-2 2,-4 2,-5 2,-4 5,-8 7,-12 0,0 0,-1 1,-1 0,-1 0,-1 -1,0 -1,0 -1,1 -1,1 0,0 0,0 -1,0 -1,0 -1,0 -1,-1 0,-1 0,-1 1,-2z"/>
  <path id="11" class="fil3" d="M853 307c0,-1 -2,-1 -4,-1 -2,0 -3,1 -5,2 -2,1 -3,1 -3,1 -5,3 -9,7 -12,13 -1,3 -3,6 -4,10 -2,3 -3,7 -4,9 -1,1 -1,2 -1,2 0,0 -1,1 -2,0l-5 0c0,0 0,0 -1,-1 0,0 0,-1 0,-2 1,-2 3,-5 4,-9 2,-3 4,-7 6,-11 1,-3 3,-6 4,-8 1,-3 2,-5 1,-6 0,-1 -1,-2 -3,-1 -2,0 -3,1 -5,2 -2,1 -3,1 -3,2 -1,1 -2,1 -3,2 -1,1 -2,2 -3,3 -3,3 -6,6 -8,10 -1,3 -3,6 -5,9 -2,3 -3,6 -5,9 0,0 -1,1 -1,1 -1,0 -2,0 -3,0 -1,0 -2,0 -3,0 -1,0 -1,-1 0,-2 1,-2 2,-4 3,-6 1,-2 2,-4 3,-6 3,-6 6,-13 10,-20 0,0 0,0 0,0 0,0 0,0 0,-1 0,-1 0,-1 -1,0 -1,0 -2,1 -3,2 -1,1 -2,1 -3,1 -1,0 -1,0 -1,-1 0,-1 0,-1 1,-2 2,-1 5,-2 7,-3 2,-1 4,-2 7,-4 1,-1 2,-1 4,0 0,0 0,0 0,1 0,0 0,0 0,0 -1,1 -1,2 -1,3 0,1 -1,2 -1,3 -1,2 -1,2 1,1 2,-2 4,-3 5,-4 1,-1 2,-1 4,-2 2,-1 4,-1 5,-2 3,-1 5,0 7,1 1,1 2,2 2,4 0,0 0,1 0,2 0,1 1,1 2,1 2,-1 3,-2 4,-3 1,-1 2,-1 4,-2 2,-1 4,-1 5,-2 3,-1 5,0 7,1 1,1 2,2 2,4 1,3 1,5 0,8 -1,3 -3,6 -5,9 -2,3 -4,6 -5,10 -1,2 -1,4 -1,5 0,1 0,1 1,2 1,0 1,1 2,0 1,0 2,-1 3,-2 0,0 1,0 1,-1 1,0 1,0 1,0 0,0 1,1 1,1 0,1 0,1 -1,2 -2,1 -3,2 -4,2 -1,0 -2,1 -4,0 -3,0 -4,-1 -5,-4 0,-1 -1,-3 -1,-5 0,-2 0,-3 0,-4 1,-3 2,-7 4,-10 1,-1 2,-3 3,-4 1,-1 2,-3 3,-4 2,-3 2,-5 2,-7z"/>
  <path id="12" class="fil3" d="M865 339c0,2 1,3 3,2 2,-1 4,-1 7,-3 3,-1 5,-3 6,-4 1,-1 2,-1 3,-2 1,-1 2,-2 3,-2 2,-5 4,-10 7,-15 3,-5 5,-9 6,-11 1,-1 2,-1 4,-1 2,0 3,0 3,1l-15 30c0,1 -1,2 -1,3 0,1 0,2 1,3 1,1 2,2 4,1 0,0 1,-1 2,-1 1,-1 2,-1 3,-2 1,0 1,0 2,0 0,0 0,1 0,1 -1,1 -3,2 -5,3 -2,1 -3,1 -4,1 -2,1 -4,0 -5,-1 -1,-1 -2,-2 -2,-3 -1,-2 -1,-4 0,-6 -1,1 -2,2 -4,3 -2,1 -3,2 -5,3 -1,1 -3,2 -4,2 -2,1 -3,1 -4,1 -2,0 -4,0 -5,-1 -2,-1 -3,-3 -3,-6 0,-3 0,-5 0,-7 0,-2 1,-4 2,-5 1,-2 2,-3 3,-5 1,-1 2,-3 4,-7 2,-4 3,-6 2,-7 -1,-1 -2,-1 -3,0 -2,0 -3,1 -4,2 -1,0 -1,0 -2,-1 0,-1 0,-2 1,-2 1,0 1,-1 2,-1 1,0 2,-1 3,-1 1,0 2,0 3,0 1,0 2,0 3,1 1,1 2,2 2,3 0,2 0,3 -1,5 -1,2 -1,3 -2,5 -1,2 -2,3 -3,5 -1,2 -2,3 -3,5 -1,1 -2,3 -2,4 -1,1 -1,3 -2,4 0,2 -1,3 0,4z"/>
  <path id="13" class="fil3" d="M912 339c0,2 1,2 3,2 1,0 2,-1 4,-2 2,-1 5,-3 8,-4 3,-2 5,-4 7,-5 2,-5 4,-10 7,-15 3,-5 5,-9 6,-11 1,-1 2,-1 4,-1 2,0 3,0 3,1l-15 30c0,1 -1,2 -1,3 0,1 0,2 1,3 1,1 2,2 4,1 0,0 1,-1 2,-1 1,-1 2,-1 3,-2 1,0 1,0 2,0 0,0 0,1 0,1 -1,1 -3,2 -5,3 -2,1 -3,1 -4,1 -2,1 -4,0 -5,-1 -1,-1 -2,-2 -2,-3 -1,-2 -1,-4 0,-6 -2,1 -5,3 -9,6 -4,2 -7,4 -9,5 -2,0 -3,0 -5,-1 -2,-1 -3,-3 -3,-6 0,-3 0,-5 0,-7 0,-2 1,-4 2,-5 1,-2 2,-3 3,-5 1,-1 2,-3 4,-7 2,-4 3,-6 2,-7 -1,-1 -2,-1 -3,0 -2,0 -3,1 -4,2 -1,0 -1,0 -2,-1 0,-1 0,-2 1,-2 1,0 1,-1 2,-1 1,0 2,-1 3,-1 1,0 2,0 3,0 1,0 2,0 3,1 1,1 2,2 2,3 0,2 0,3 -1,5 -1,2 -1,3 -2,5 -1,2 -2,3 -3,5 -1,2 -2,3 -3,5 -2,3 -3,6 -4,8 0,2 -1,3 0,4zm41 -54c0,2 -1,4 -4,6 -3,2 -5,2 -8,2 -3,0 -6,-1 -8,-2 -3,-2 -4,-4 -4,-6 0,-2 1,-3 3,-3 2,0 3,1 3,2 0,0 0,1 -1,1 0,0 -1,1 -1,2 0,1 1,2 2,2 2,1 3,1 5,1 2,0 3,0 5,-1 2,-1 2,-2 2,-3 0,0 0,-1 -1,-1 0,0 -1,-1 -1,-1 0,-1 1,-1 1,-2 1,0 1,-1 2,-1 0,0 1,0 2,1 1,0 1,1 1,2z"/>
 </g>
</svg>
