<?xml version="1.0" encoding="UTF-8"?>
<!DOCTYPE svg PUBLIC "-//W3C//DTD SVG 1.1//EN" "http://www.w3.org/Graphics/SVG/1.1/DTD/svg11.dtd">
<!-- Creator: CorelDRAW 2017 -->
<svg xmlns="http://www.w3.org/2000/svg" xml:space="preserve" width="118.533mm" height="118.533mm" version="1.1" style="shape-rendering:geometricPrecision; text-rendering:geometricPrecision; image-rendering:optimizeQuality; fill-rule:evenodd; clip-rule:evenodd"
viewBox="0 0 11853.32 11853.32"
 xmlns:xlink="http://www.w3.org/1999/xlink">
 <defs>
  <style type="text/css">
   <![CDATA[
    .str0 {stroke:#00AEBE;stroke-width:7.62;stroke-miterlimit:22.9256}
    .fil4 {fill:#00AEBE}
    .fil3 {fill:#5FAD2F}
    .fil5 {fill:#DD0B29}
    .fil0 {fill:#F2F4F5}
    .fil2 {fill:#FFDD00}
    .fil1 {fill:black;fill-rule:nonzero}
   ]]>
  </style>
 </defs>
 <g id="Layer_x0020_1">
  <metadata id="CorelCorpID_0Corel-Layer"/>
  <circle class="fil0" cx="5935.15" cy="5909.7" r="5892.78"/>
  <path class="fil1" d="M918.62 4669.75l647.05 -74.92 246.48 883.66 247.22 -940.83 644.09 -74.59 0 1499.18 -401.31 46.47 0 -1142.88 -309.67 1178.74 -363.62 42.1 -308.92 -1107.1 0 1142.88 -401.32 46.47 0 -1499.18zm1937.46 -224.35l544.68 -63.07 321.13 467.42 319.64 -541.62 541.73 -62.73 -616.37 942.75 0 627.8 -492.22 57 0 -627.8 -618.59 -799.75z"/>
  <path class="fil1" d="M2964.55 6247.72l1492.17 -172.78 0 370.6 -501.09 58.03 0 1128.57 -490 56.74 0 -1128.57 -501.08 58.02 0 -370.61zm1712.04 -198.24l1312.57 -151.99 0 320.35 -820.36 95 0 238.69 760.5 -88.06 0 305.7 -760.5 88.06 0 295.23 844.75 -97.82 0 339.2 -1336.96 154.81 0 -1499.17zm1605.61 -185.93l457.85 -53.01 595.31 758.82 0 -827.76 463.39 -53.66 0 1499.18 -463.39 53.66 -591.99 -754.67 0 823.22 -461.17 53.4 0 -1499.18zm1849.13 -214.12l729.08 -84.42c143.38,-16.61 259.79,-11.59 348.1,14.82 88.32,26.77 161.49,70.99 219.5,133.02 57.65,62.42 99.41,137.5 125.27,225.93 26.24,88.4 39.18,183.56 39.18,285.81 0,160.18 -19.22,286.64 -58.02,379.42 -38.43,92.74 -92.02,172.93 -160.75,240.56 -68.73,67.63 -142.27,115.93 -220.98,144.94 -107.53,39.67 -205.09,64.57 -292.3,74.67l-729.08 84.43 0 -1499.18zm490 282.46l0 818.69 120.47 -13.95c102.73,-11.9 175.89,-31.19 219.5,-57.53 43.23,-26.64 77.23,-67.92 101.99,-124.18 24.76,-56.6 36.95,-144.56 36.95,-264.61 0,-158.78 -27.34,-264.14 -82.4,-316.39 -55.07,-52.26 -146.34,-71 -273.83,-56.24l-122.68 14.21z"/>
  <polygon class="fil2" points="10562.26,5215.63 10779.93,5853.97 11488.48,5852.68 10914.45,6245.91 11134.7,6883.45 10562.26,6488.14 9989.83,6883.45 10210.08,6245.91 9636.04,5852.68 10344.6,5853.97 "/>
  <polygon class="fil3" points="9713.15,4224.64 9899.42,4713.52 10505.78,4712.54 10014.54,5013.7 10203.02,5501.98 9713.15,5199.22 9223.27,5501.98 9411.76,5013.7 8920.51,4712.54 9526.88,4713.52 "/>
  <polygon class="fil4 str0" points="8265.52,3831.18 8097.92,4307.14 7552.31,4306.18 7994.33,4599.37 7824.73,5074.74 8265.52,4779.99 8706.31,5074.74 8536.71,4599.37 8978.73,4306.18 8433.12,4307.14 "/>
  <polygon class="fil5" points="6800.08,3611.03 6958.87,4031.09 7475.78,4030.24 7057.01,4289.01 7217.69,4708.55 6800.08,4448.41 6382.48,4708.55 6543.16,4289.01 6124.39,4030.24 6641.29,4031.09 "/>
 </g>
</svg>
