<?xml version="1.0" encoding="UTF-8"?>
<!DOCTYPE svg PUBLIC "-//W3C//DTD SVG 1.1//EN" "http://www.w3.org/Graphics/SVG/1.1/DTD/svg11.dtd">
<!-- Creator: CorelDRAW X7 -->
<svg xmlns="http://www.w3.org/2000/svg" xml:space="preserve" width="570.822mm" height="329.521mm" version="1.1" style="shape-rendering:geometricPrecision; text-rendering:geometricPrecision; image-rendering:optimizeQuality; fill-rule:evenodd; clip-rule:evenodd"
viewBox="0 0 57082 32952"
 xmlns:xlink="http://www.w3.org/1999/xlink">
 <defs>
  <style type="text/css">
   <![CDATA[
    .str0 {stroke:#2B2A29;stroke-width:20}
    .fil5 {fill:#FEFEFE}
    .fil1 {fill:#FEFEFE}
    .fil4 {fill:#2B2A29}
    .fil6 {fill:#E63C24}
    .fil3 {fill:#E6030A}
    .fil2 {fill:#F50008}
    .fil0 {fill:white;fill-rule:nonzero}
   ]]>
  </style>
 </defs>
 <g id="Слой_x0020_1">
  <metadata id="CorelCorpID_0Corel-Layer"/>
  <path class="fil0" d="M8068 24479l-2892 -6299 0 5001c0,462 48,747 151,862 138,154 353,231 648,231l266 0 0 205 -2613 0 0 -205 266 0c317,0 542,-96 673,-285 84,-115 125,-385 125,-808l0 -4892c0,-324 -38,-564 -112,-718 -26,-55 -61,-106 -106,-151 -45,-48 -102,-86 -179,-118 -74,-36 -167,-61 -273,-77 -109,-20 -240,-29 -394,-29l0 -205 2125 0 2709 5860 2674 -5860 2129 0 0 205 -263 0c-321,0 -549,96 -680,285 -80,116 -122,382 -122,808l0 4892c0,462 51,747 154,862 138,154 353,231 648,231l263 0 0 205 -3190 0 0 -205 266 0c314,0 542,-96 673,-285 80,-115 122,-385 122,-808l0 -5001 -2888 6299 -180 0 0 0z"/>
  <path id="_1" class="fil0" d="M18897 16991l2613 0 0 205 -145 0c-41,0 -102,10 -179,32 -74,22 -154,54 -237,93 -87,42 -173,93 -260,154 -86,64 -170,134 -244,211 -77,81 -160,186 -250,315 -89,128 -192,282 -307,458l-1805 2844 0 1878c0,462 51,747 154,862 137,154 359,231 666,231l244 0 0 205 -3190 0 0 -205 266 0c315,0 542,-96 674,-285 80,-115 121,-385 121,-808l0 -1773 -2051 -3138c-122,-186 -221,-337 -305,-449 -83,-112 -147,-192 -192,-240 -23,-23 -58,-55 -109,-97 -51,-41 -116,-86 -192,-128 -77,-45 -164,-83 -257,-115 -96,-32 -192,-45 -295,-45l0 -205 3199 0 0 205 -166 0c-80,0 -161,10 -244,29 -83,16 -157,45 -224,86 -64,39 -119,90 -161,151 -44,61 -64,135 -64,218 0,135 113,372 337,718l1561 2414 1468 -2308c222,-346 331,-603 331,-773 -7,-77 -23,-150 -49,-215 -25,-67 -67,-125 -121,-173 -55,-48 -132,-83 -228,-109 -96,-25 -215,-38 -359,-38l0 -205 0 0z"/>
  <path id="_2" class="fil0" d="M30422 16991l0 1753 -125 0c-29,-234 -80,-433 -148,-596 -67,-160 -157,-295 -266,-394 -112,-100 -247,-173 -407,-218 -157,-48 -343,-71 -555,-71l-1054 0 0 5716c0,462 48,747 147,862 135,154 350,231 645,231l259 0 0 205 -3180 0 0 -205 266 0c318,0 545,-96 677,-285 80,-115 121,-385 121,-808l0 -5716 -900 0c-225,0 -424,19 -593,51 -170,33 -311,97 -430,186 -119,93 -212,222 -285,392 -74,166 -129,381 -167,650l-215 0 0 -1753 6210 0z"/>
  <path id="_3" class="fil0" d="M33143 17398l0 2952 1651 0c241,0 433,-22 584,-64 151,-41 266,-109 349,-199 87,-89 145,-201 180,-339 32,-135 54,-298 64,-484l205 0 0 2603 -205 0c-26,-183 -51,-334 -77,-449 -26,-116 -51,-199 -77,-250 -32,-64 -74,-122 -128,-170 -51,-51 -116,-93 -199,-132 -80,-35 -176,-64 -292,-80 -115,-19 -250,-29 -404,-29l-1651 0 0 2472c0,330 16,532 45,609 16,32 32,64 58,96 19,26 55,52 96,74 39,19 96,35 164,45 67,13 154,19 256,19l1273 0c218,0 397,-6 542,-19 147,-13 275,-35 381,-67 109,-32 205,-77 289,-135 83,-54 170,-128 263,-218 112,-109 230,-253 349,-423 115,-173 234,-378 353,-609l218 0 -645 1878 -5777 0 0 -205 267 0c67,0 141,-6 221,-22 77,-16 147,-39 218,-71 67,-32 131,-73 186,-125 54,-48 93,-109 115,-173 45,-115 67,-356 67,-724l0 -4867c0,-471 -48,-763 -144,-878 -135,-144 -353,-218 -663,-218l-267 0 0 -205 5777 0 0 1641 -134 0c-39,-202 -81,-365 -122,-494 -42,-128 -87,-234 -138,-320 -51,-84 -109,-151 -176,-202 -68,-48 -148,-96 -238,-135 -150,-54 -410,-83 -779,-83l-2055 0 0 0z"/>
  <path id="_4" class="fil0" d="M37542 16991l2026 0 4578 5619 0 -4321c0,-462 -52,-747 -154,-862 -141,-154 -356,-231 -648,-231l-259 0 0 -205 2612 0 0 205 -266 0c-317,0 -545,96 -676,285 -80,116 -122,385 -122,808l0 6312 -202 0 -4934 -6027 0 4607c0,462 52,747 151,862 138,154 353,231 648,231l266 0 0 205 -2613 0 0 -205 260 0c320,0 548,-96 679,-285 84,-115 125,-385 125,-808l0 -5206c-109,-128 -202,-234 -275,-311 -74,-77 -145,-141 -209,-189 -67,-51 -138,-93 -215,-125 -80,-29 -176,-64 -288,-106 -106,-32 -266,-48 -484,-48l0 -205z"/>
  <path id="_5" class="fil0" d="M46050 24479l0 -205 279 0c314,0 538,-102 673,-304 80,-119 122,-388 122,-818l0 -4834c0,-471 -51,-766 -154,-878 -144,-164 -359,-244 -641,-244l-279 0 0 -205 3045 0c1122,0 1972,128 2552,381 587,253 1055,677 1411,1270 356,590 535,1272 535,2055 0,551 -90,1061 -269,1522 -180,465 -443,863 -795,1196 -350,333 -789,593 -1315,782 -525,186 -1131,282 -1820,282l-3344 0 0 0zm2135 -541c462,105 856,157 1180,157 423,0 814,-80 1179,-238 363,-157 677,-378 940,-666 266,-292 474,-641 625,-1052 150,-413 227,-875 227,-1388 0,-516 -77,-981 -224,-1391 -147,-414 -356,-763 -625,-1052 -266,-288 -584,-513 -955,-666 -369,-154 -773,-231 -1212,-231 -167,0 -343,13 -532,41 -186,26 -388,68 -603,119l0 6367 0 0z"/>
  <polygon class="fil1 str0" points="20651,1731 35958,1731 28081,16846 "/>
  <polygon class="fil2" points="23715,406 28351,2045 32874,406 32902,4775 28340,2955 23744,4775 "/>
  <rect class="fil3 str0" x="27371" y="1397" width="1876" height="2388" rx="512" ry="512"/>
  <circle class="fil4 str0" cx="27994" cy="6356" r="288"/>
  <circle class="fil4 str0" cx="27994" cy="12094" r="288"/>
  <polygon class="fil5 str0" points="36655,8992 38385,11362 34798,11362 "/>
  <g id="_813170736">
   <path class="fil6" d="M1327 29349c-357,-157 -594,-370 -711,-640 -118,-271 -180,-591 -187,-961 -12,-456 80,-903 275,-1340 196,-438 456,-815 780,-1130 358,-346 821,-638 1387,-874 566,-236 1096,-361 1590,-376 406,-14 832,7 1278,65 446,57 840,208 1185,454 137,-81 297,-158 480,-231 281,-106 579,-179 894,-221 47,-4 73,15 80,59 2,47 -19,74 -63,82 -323,44 -611,115 -862,213 -144,56 -278,120 -406,190 301,261 483,590 549,985 32,209 44,424 34,646 -12,211 -44,414 -98,610 -63,218 -144,427 -243,629 -99,201 -197,401 -294,602 -78,167 -159,328 -245,485 -87,156 -172,307 -255,453 -127,224 -240,434 -343,628 -102,194 -171,369 -206,522 -63,287 -38,453 73,502 138,66 409,-4 815,-209 41,-24 73,-13 94,31 21,39 10,72 -31,95 -445,220 -756,291 -933,214 -98,-42 -181,-139 -250,-291 -70,-152 -72,-376 -9,-671 56,-260 130,-509 222,-749 92,-241 231,-541 418,-904 9,-20 25,-49 48,-91l-1705 0c-289,561 -614,1069 -977,1522 -361,454 -803,783 -1323,984 -296,114 -623,182 -985,204 -360,20 -748,-16 -1159,-109 -19,-3 -43,-17 -74,-45 -30,-26 -41,-57 -31,-92 7,-44 34,-62 83,-53 826,194 1508,187 2048,-21 277,-106 514,-253 711,-445 197,-190 379,-408 548,-654 137,-201 261,-411 372,-628 109,-218 218,-436 323,-653 98,-201 199,-405 305,-609 106,-207 216,-411 331,-614 112,-201 217,-396 317,-587 100,-190 211,-371 333,-541 132,-187 288,-357 467,-511 180,-153 359,-300 538,-443 87,-71 181,-138 284,-204 -329,-217 -706,-350 -1131,-399 -424,-49 -826,-68 -1203,-56 -476,14 -989,135 -1540,363 -551,229 -998,509 -1343,845 -310,302 -559,662 -747,1080 -187,420 -275,847 -263,1285 7,343 73,636 198,875 124,241 346,434 665,581 60,29 84,59 69,91 -13,36 -42,56 -88,60 -46,5 -75,4 -89,-3zm5138 -1367c154,-293 321,-611 500,-956 180,-345 293,-642 342,-890 49,-275 53,-534 11,-779 -42,-246 -174,-461 -399,-646 -114,70 -219,144 -317,221 -415,329 -747,758 -995,1284 -248,527 -498,1049 -752,1569 -17,35 -34,70 -51,102 -17,33 -34,65 -47,95l1708 0zm1237 2588c12,69 105,89 280,60 121,-22 248,-57 383,-106 134,-49 218,-85 253,-105 224,-127 415,-264 575,-411 160,-148 292,-338 397,-572 55,-132 117,-274 185,-429 67,-154 139,-303 216,-445 35,-71 88,-162 157,-276 70,-114 140,-192 210,-233 184,-106 324,-106 420,0 51,63 40,150 -32,263 -201,314 -373,600 -516,860 -143,260 -285,555 -424,884 -128,295 -242,552 -343,767 -100,217 -223,421 -370,612 -245,319 -530,589 -856,810 -326,221 -689,355 -1090,402 -244,26 -469,28 -671,9 -203,-20 -334,-48 -395,-82 -132,-78 -159,-141 -76,-191 81,-49 138,-59 170,-31 91,68 236,111 437,129 520,52 997,-118 1433,-511 265,-241 476,-487 630,-737 155,-250 317,-538 484,-860 47,-91 40,-120 -20,-87 -61,34 -105,63 -134,87 -109,81 -180,131 -212,151 -77,42 -200,94 -371,159 -170,65 -322,109 -454,135 -215,35 -370,16 -468,-60 -75,-53 -124,-146 -146,-276 -41,-223 -21,-447 58,-675 51,-154 144,-330 280,-529 49,-71 100,-150 155,-238 55,-87 116,-202 184,-342 54,-112 85,-198 92,-257 8,-57 8,-106 -1,-147 -10,-35 -35,-54 -77,-57 -43,-4 -145,51 -311,163 -75,44 -130,53 -165,28 -27,-19 -44,-51 -50,-97 -6,-45 16,-84 65,-114 272,-176 504,-260 695,-252 184,0 301,91 350,273 27,105 31,218 8,338 -22,118 -47,214 -75,287 -103,243 -205,440 -308,588 -103,149 -222,329 -359,538 -61,93 -113,192 -156,301 -43,109 -55,200 -37,276zm5284 -426c-33,69 -76,146 -128,234 -53,87 -57,160 -16,216 68,98 161,124 281,77 27,-9 84,-46 170,-110 86,-64 154,-115 203,-150 42,-7 80,0 113,22 35,20 31,49 -8,84 -217,201 -417,311 -601,329 -154,15 -279,-19 -377,-101 -154,-131 -212,-331 -175,-601 16,-133 58,-251 127,-356 69,-104 121,-203 155,-299 43,-110 31,-189 -32,-236 -64,-47 -212,-48 -442,-4 -15,3 -9,-19 15,-66 25,-46 50,-73 75,-77 630,-96 999,-289 1106,-578 108,-289 -51,-412 -480,-370 -77,10 -189,59 -337,146 -148,88 -316,197 -505,328 -96,65 -170,130 -224,191 -54,62 -99,117 -136,164 -49,62 -102,134 -161,213 -58,81 -116,187 -172,320 -83,204 -168,395 -254,578 -87,180 -168,358 -245,532 -16,34 -41,76 -74,124 -35,48 -61,72 -79,72l-413 0c-49,0 -44,-59 15,-176 151,-315 318,-677 501,-1084 182,-408 357,-801 526,-1179 176,-408 357,-791 541,-1148 184,-358 392,-690 625,-993 256,-336 522,-600 797,-798 375,-268 785,-417 1227,-446 179,-11 329,3 451,41 120,38 203,72 244,101 116,76 139,140 66,189 -72,49 -122,60 -150,31 -96,-81 -271,-138 -527,-168 -240,-26 -467,10 -678,108 -212,98 -405,240 -581,422 -191,196 -362,428 -516,695 -154,267 -304,548 -451,846 -93,184 -183,373 -270,566 -86,193 -170,387 -255,581 -13,30 -17,58 -8,81 8,24 30,24 64,0 154,-103 321,-205 502,-307 180,-102 358,-176 532,-223 427,-115 696,-77 804,113 110,189 109,371 -3,547 -107,168 -272,289 -494,360 -223,71 -408,125 -557,163 150,65 251,166 303,301 36,106 41,220 18,341 -24,122 -61,240 -112,354zm1296 356c24,131 98,179 224,144 133,-35 295,-101 486,-199 190,-97 338,-185 443,-265 56,-42 134,-99 233,-173 99,-74 169,-127 211,-160 147,-351 315,-704 503,-1060 189,-356 341,-621 458,-797 37,-56 122,-84 256,-82 132,1 204,21 215,62l-1097 2130c-34,66 -58,143 -71,231 -12,90 2,162 44,218 22,35 71,69 144,100 74,32 138,37 194,16 29,-7 84,-25 166,-55 84,-28 149,-61 198,-96 42,-7 80,0 114,21 33,21 31,49 -9,85 -110,99 -206,201 -288,303 -83,102 -152,226 -208,374 -87,206 -186,378 -297,520 -58,69 -130,133 -216,190 -85,58 -175,87 -271,87 -227,0 -342,-78 -342,-235 0,-155 115,-233 342,-233 71,0 136,13 196,40 61,32 97,49 107,50 11,1 39,-19 83,-61 56,-56 99,-123 131,-200 31,-78 69,-161 113,-249 51,-115 133,-239 245,-373 -35,10 -68,17 -100,23 -31,6 -60,12 -85,19 -168,42 -301,19 -397,-68 -97,-88 -159,-177 -188,-269 -34,-110 -40,-250 -16,-420 -73,57 -176,135 -310,232 -134,97 -247,176 -340,238 -98,63 -203,113 -315,153 -112,38 -214,72 -304,99 -137,38 -254,23 -350,-45 -125,-89 -201,-225 -229,-409 -26,-184 -21,-345 16,-483 35,-137 81,-264 137,-379 56,-114 116,-226 181,-333 42,-66 149,-232 320,-496 172,-266 225,-434 162,-505 -49,-49 -130,-56 -245,-20 -113,35 -219,74 -317,119 -63,31 -106,12 -130,-57 -22,-67 -6,-111 53,-133 41,-14 96,-38 164,-72 68,-33 140,-56 217,-68 60,-7 138,-11 231,-11 93,0 173,16 240,46 96,49 154,132 176,249 15,117 1,244 -44,381 -46,137 -86,247 -121,328 -49,120 -111,235 -185,348 -75,112 -149,223 -224,333 -147,225 -242,414 -286,569 -30,105 -36,205 -18,298zm3380 -12c23,132 99,180 227,145 132,-36 294,-102 485,-199 191,-97 339,-185 440,-265 56,-41 134,-100 233,-173 99,-75 169,-127 211,-160 148,-351 316,-704 506,-1060 189,-356 341,-622 455,-797 37,-56 123,-83 258,-82 134,1 205,21 215,61l-1094 2131c-36,65 -60,142 -72,229 -13,89 2,162 43,220 66,99 159,124 281,77 27,-9 83,-39 169,-91 85,-51 151,-95 200,-131 44,-8 84,-3 116,18 32,22 30,50 -7,84 -105,96 -212,170 -323,223 -111,53 -204,89 -282,108 -167,42 -290,25 -366,-49 -78,-76 -129,-158 -154,-249 -38,-120 -44,-260 -18,-422 -73,59 -176,137 -311,234 -135,97 -248,176 -339,237 -98,62 -203,114 -315,152 -111,38 -212,72 -304,101 -139,34 -255,19 -348,-46 -129,-92 -205,-229 -231,-411 -26,-183 -21,-343 14,-481 34,-138 81,-264 138,-379 56,-115 118,-225 183,-333 40,-66 145,-231 318,-497 173,-266 227,-434 165,-504 -49,-49 -131,-56 -245,-21 -114,35 -220,75 -318,120 -63,30 -106,12 -129,-57 -24,-68 -7,-112 49,-133 42,-14 96,-38 166,-71 68,-35 142,-58 218,-70 61,-6 137,-10 230,-10 93,0 173,15 237,46 101,49 159,132 176,249 16,116 1,243 -44,381 -46,137 -85,246 -121,328 -49,119 -110,234 -185,346 -74,111 -148,222 -220,335 -62,93 -120,187 -171,280 -51,94 -89,190 -116,288 -29,110 -37,209 -20,298zm5043 -2521c-240,0 -507,153 -800,458 -294,306 -503,641 -627,1006 -122,367 -155,664 -97,892 58,226 207,340 447,340 238,0 488,-132 748,-395 261,-263 453,-579 577,-949 120,-366 169,-682 144,-950 -24,-267 -155,-402 -392,-402zm-74 -208c364,0 618,156 762,468 144,312 160,683 45,1113 -116,430 -351,800 -703,1106 -353,308 -712,461 -1075,461 -364,0 -627,-153 -792,-461 -164,-306 -188,-676 -71,-1106 114,-434 366,-812 755,-1132 361,-299 720,-449 1079,-449zm1814 703c352,-124 682,-284 992,-478 59,-39 158,-50 301,-31 44,7 55,31 31,74 -174,379 -353,754 -534,1127l1170 0c28,-57 64,-129 109,-216 47,-88 133,-230 262,-427 127,-196 226,-347 297,-453 37,-56 121,-83 255,-82 132,1 205,20 216,57 -109,193 -222,387 -339,585 -117,198 -219,386 -311,563 -91,177 -170,344 -235,502 -67,158 -136,318 -209,479 -30,69 -52,146 -68,234 -15,87 -1,159 41,216 65,95 158,123 279,81 28,-10 84,-41 169,-93 86,-53 153,-97 202,-132 41,-7 80,0 113,21 33,21 31,49 -8,84 -103,96 -210,169 -320,221 -111,51 -205,87 -282,105 -168,43 -289,26 -367,-47 -76,-74 -129,-158 -157,-251 -49,-166 -41,-363 22,-593 65,-229 141,-442 229,-639l-1173 0c-250,513 -486,985 -710,1419 -12,25 -39,40 -83,45 -78,5 -154,10 -232,13 -76,5 -150,-3 -223,-24 -49,-12 -56,-51 -21,-119 58,-129 124,-248 195,-359 73,-109 143,-226 210,-349 127,-235 248,-477 365,-726 118,-251 232,-501 341,-754 5,-12 10,-24 15,-36 4,-11 10,-24 16,-38 17,-42 -16,-42 -101,0 -65,36 -134,73 -208,112 -72,40 -139,67 -196,81 -49,14 -82,-8 -95,-63 -19,-58 -4,-94 42,-109zm7921 1346c2,-338 81,-648 237,-934 156,-285 304,-504 444,-659 144,-161 317,-289 520,-385 203,-96 392,-142 570,-135 274,15 460,100 556,257 95,157 132,345 111,564 -21,219 -85,451 -192,696 -106,245 -223,460 -350,648 -193,204 -468,420 -825,648 -358,229 -728,358 -1110,385 -201,17 -395,-2 -584,-57 -188,-56 -346,-157 -472,-305 -210,-243 -333,-495 -369,-756 -34,-261 -45,-521 -31,-780 15,-288 68,-571 161,-849 95,-279 213,-546 355,-804 -264,-14 -493,-44 -687,-91 -481,-110 -877,-308 -1187,-593 -311,-286 -466,-611 -466,-976 0,-454 237,-844 713,-1167 474,-325 1047,-487 1718,-487 534,0 992,96 1373,288 64,36 77,76 40,124 -39,48 -86,59 -145,30 -181,-84 -378,-153 -591,-208 -214,-55 -439,-83 -677,-83 -589,0 -1093,145 -1511,434 -418,290 -627,636 -627,1041 0,316 132,600 396,852 264,253 600,430 1010,533 197,51 451,80 763,87 210,-351 441,-673 692,-965 252,-293 479,-537 681,-733 235,-232 502,-442 801,-632 298,-190 577,-350 838,-481 135,-67 325,-139 568,-214 243,-75 471,-116 683,-123 238,-7 415,14 531,63 117,50 200,126 252,232 44,95 66,213 68,351 1,139 -47,305 -145,502 -198,403 -570,784 -1115,1144 -545,359 -1173,640 -1887,843 -449,134 -936,210 -1460,229 -144,250 -261,485 -349,706 -43,104 -93,270 -150,496 -59,225 -97,461 -116,707 -22,257 -26,508 -16,751 11,243 104,426 282,550 56,43 132,81 230,116 98,35 199,53 304,53 174,4 345,-23 512,-81 167,-58 316,-120 450,-183 62,-30 224,-155 485,-370 260,-217 466,-448 618,-695 42,-67 94,-183 156,-348 61,-164 101,-329 118,-497 18,-167 -3,-315 -62,-444 -59,-128 -187,-193 -383,-193 -126,2 -262,37 -409,103 -147,67 -279,146 -398,238 -230,178 -402,423 -515,736 -114,313 -184,598 -212,855 -16,8 -44,33 -82,76 -38,43 -62,48 -71,12 -27,-82 -40,-122 -42,-122zm3096 -5630c-215,37 -421,104 -620,201 -199,97 -381,203 -544,315 -342,236 -663,518 -964,846 -300,327 -594,699 -881,1112 -54,78 -106,156 -158,234 -51,79 -101,157 -150,233 599,-27 1063,-90 1392,-185 598,-172 1137,-410 1616,-715 478,-305 824,-630 1039,-974 70,-107 134,-246 191,-416 57,-169 57,-316 1,-437 -67,-141 -206,-216 -417,-228 -211,-12 -380,-8 -505,14zm1384 3789c-240,0 -507,153 -801,458 -293,306 -502,641 -626,1006 -123,367 -155,664 -98,892 59,226 208,340 448,340 238,0 487,-132 747,-395 262,-263 454,-579 578,-949 120,-366 169,-682 144,-950 -24,-267 -155,-402 -392,-402zm-74 -208c364,0 618,156 762,468 144,312 160,683 45,1113 -117,430 -352,800 -703,1106 -354,308 -713,461 -1075,461 -364,0 -628,-153 -792,-461 -165,-306 -189,-676 -72,-1106 115,-434 367,-812 755,-1132 362,-299 721,-449 1080,-449zm3176 345c-240,0 -507,152 -802,456 -294,306 -503,641 -623,1010 -245,729 -129,1093 349,1093 237,0 501,-138 790,-414 288,-277 496,-600 621,-967 122,-366 155,-653 101,-863 -52,-210 -199,-315 -436,-315zm-76 -216c125,0 245,27 361,79 116,53 197,132 243,238 23,-5 41,-24 53,-57 15,-42 15,-100 0,-176 -17,-74 -36,-157 -56,-245 -54,-199 -135,-367 -241,-506 -108,-138 -179,-277 -214,-417 -44,-178 -61,-351 -51,-520 11,-168 57,-309 138,-420 189,-267 448,-381 774,-342 327,41 628,47 900,22 124,-12 208,-51 255,-114 46,-65 91,-109 134,-132 102,-61 163,-63 184,-7 15,42 -13,107 -79,193 -144,181 -250,299 -319,357 -70,56 -206,101 -409,130 -261,41 -521,34 -781,-20 -259,-54 -445,29 -557,249 -98,197 -97,398 5,604 101,206 206,412 313,621 155,304 223,648 203,1029 -14,260 -68,516 -161,768 -93,251 -211,478 -353,680 -181,258 -398,483 -649,678 -250,194 -477,292 -682,292 -315,0 -545,-108 -692,-324 -231,-337 -258,-732 -81,-1186 178,-453 404,-793 682,-1021 365,-302 725,-453 1080,-453z"/>
   <path class="fil6" d="M41688 28369c184,-59 317,-107 398,-144 83,-37 219,-111 410,-222 70,-37 172,-48 307,-31 42,7 48,31 17,73 -147,238 -301,472 -460,706 -161,235 -315,466 -462,695 -30,49 -85,146 -162,292 -79,145 -142,291 -191,439 -44,133 -62,248 -54,343 7,96 72,141 190,133 117,-7 230,-50 341,-131 111,-81 215,-170 313,-269 217,-213 369,-414 458,-607 -117,-47 -175,-157 -175,-333 0,-231 82,-348 245,-348 160,0 241,117 241,348 0,7 0,14 0,21 0,8 0,14 0,21 90,7 195,-35 314,-125 119,-90 237,-190 353,-303 163,-154 320,-337 472,-547 42,-57 80,-109 114,-159 36,-49 67,-91 96,-127 27,-37 84,-57 173,-62 87,-5 164,0 231,13 70,17 107,37 112,60 -114,181 -228,358 -340,535 -113,174 -225,351 -337,525 -98,160 -193,319 -286,477 -95,160 -183,323 -266,489 -33,65 -59,140 -77,224 -19,85 -8,155 31,211 61,91 153,116 276,73 28,-6 86,-35 173,-85 88,-50 157,-93 208,-128 45,-7 83,-1 115,19 33,19 29,47 -13,83 -108,91 -218,163 -331,213 -113,51 -208,87 -285,105 -170,41 -292,24 -367,-46 -74,-72 -122,-154 -143,-245 -49,-175 -29,-384 61,-626 90,-242 185,-460 285,-654 -121,91 -240,166 -357,226 -116,60 -215,85 -297,75 -11,15 -23,26 -34,35 -70,248 -278,526 -625,832 -347,306 -637,439 -868,396 -97,-15 -176,-79 -236,-189 -58,-110 -88,-237 -88,-382 -2,-162 26,-326 85,-494 59,-166 118,-295 174,-383 174,-277 347,-562 520,-857 12,-17 26,-42 45,-74 24,-42 -12,-42 -105,0 -69,35 -100,55 -92,57 8,4 -19,14 -78,27 -49,9 -79,-11 -89,-63 -6,-56 14,-93 60,-112zm7964 -194c-24,-72 -114,-93 -270,-60 -113,29 -231,70 -350,127 -121,56 -191,90 -212,102 -375,214 -652,524 -832,929 -98,218 -204,451 -320,699 -114,248 -222,467 -319,656 -42,79 -73,137 -92,170 -20,35 -57,45 -111,30l-350 -3c-15,2 -34,-15 -53,-49 -20,-35 -19,-81 1,-137 75,-159 181,-365 320,-617 139,-250 278,-510 417,-776 105,-204 202,-403 291,-596 88,-193 121,-347 98,-461 -24,-87 -100,-115 -231,-85 -114,26 -231,71 -350,135 -118,65 -188,105 -209,118 -77,42 -157,94 -242,157 -83,61 -162,123 -237,184 -226,192 -412,436 -556,733 -105,211 -216,437 -333,676 -118,240 -229,464 -334,672 -14,28 -43,42 -87,42 -77,7 -154,12 -231,16 -76,3 -150,-5 -220,-27 -48,-12 -57,-51 -25,-118 61,-127 134,-261 219,-404 86,-143 161,-277 225,-400 234,-431 463,-907 688,-1429 5,-11 10,-24 15,-36 4,-13 10,-27 17,-41 16,-40 -17,-38 -101,4 -66,32 -135,69 -209,110 -72,41 -138,68 -196,82 -49,12 -80,-9 -95,-63 -19,-59 -4,-95 42,-109 174,-60 339,-126 493,-197 154,-69 318,-160 492,-269 63,-41 164,-50 301,-32 7,7 11,21 11,44 0,23 7,33 20,33 -37,84 -71,156 -102,216 -29,60 -63,131 -100,212 -68,143 -46,165 66,67 154,-135 274,-229 360,-278 72,-39 169,-91 293,-153 124,-64 252,-108 385,-134 212,-40 369,-21 472,56 69,56 117,149 143,278 5,25 9,63 14,115 3,91 44,104 125,38 113,-96 208,-165 287,-209 70,-43 169,-91 297,-146 129,-56 259,-96 392,-121 206,-40 365,-22 475,56 74,59 127,151 161,277 46,196 38,378 -25,543 -77,207 -187,415 -331,626 -143,211 -272,455 -385,733 -70,162 -101,272 -95,332 7,60 28,101 63,121 42,30 86,42 131,35 45,-6 123,-49 233,-126 19,-12 46,-30 86,-56 38,-26 71,-29 99,-11 28,21 46,54 54,98 8,44 -10,81 -54,109 -126,84 -228,140 -308,165 -79,27 -164,39 -254,36 -192,0 -314,-90 -368,-270 -34,-103 -51,-216 -48,-339 2,-124 14,-223 34,-300 71,-248 174,-486 311,-713 57,-96 119,-192 185,-286 68,-95 129,-188 183,-279 125,-206 170,-373 136,-502zm874 2313c23,132 99,180 227,145 132,-36 294,-102 485,-199 191,-97 339,-185 440,-265 56,-41 134,-100 233,-173 99,-75 169,-127 211,-160 148,-351 316,-704 506,-1060 189,-356 341,-622 455,-797 37,-56 123,-83 258,-82 133,1 205,21 215,61l-1094 2131c-36,65 -60,142 -72,229 -13,89 1,162 43,220 66,99 159,124 280,77 28,-9 84,-39 170,-91 85,-51 151,-95 200,-131 44,-8 84,-3 116,18 32,22 30,50 -7,84 -105,96 -213,170 -323,223 -111,53 -204,89 -282,108 -167,42 -290,25 -366,-49 -78,-76 -129,-158 -154,-249 -38,-120 -44,-260 -18,-422 -73,59 -176,137 -311,234 -135,97 -248,176 -339,237 -98,62 -203,114 -315,152 -111,38 -212,72 -304,101 -139,34 -255,19 -348,-46 -129,-92 -205,-229 -232,-411 -25,-183 -20,-343 15,-481 34,-138 81,-264 138,-379 56,-115 118,-225 183,-333 40,-66 145,-231 318,-497 173,-266 227,-434 165,-504 -49,-49 -132,-56 -245,-21 -114,35 -221,75 -318,120 -64,30 -106,12 -129,-57 -24,-68 -7,-112 49,-133 42,-14 96,-38 166,-71 68,-35 141,-58 218,-70 61,-6 137,-10 230,-10 93,0 173,15 237,46 101,49 159,132 176,249 16,116 1,243 -44,381 -46,137 -85,246 -121,328 -49,119 -110,234 -185,346 -74,111 -148,222 -220,335 -62,93 -120,187 -171,280 -51,94 -89,190 -116,288 -29,110 -37,209 -20,298zm3365 29c24,130 97,178 224,144 61,-15 157,-57 290,-126 151,-78 335,-185 551,-320 214,-135 392,-258 532,-365 146,-351 315,-705 503,-1059 189,-356 340,-622 454,-798 37,-56 123,-83 257,-81 135,3 207,23 219,60l-1097 2130c-36,66 -60,143 -73,233 -12,88 3,160 44,217 68,98 161,124 280,78 28,-10 85,-41 171,-92 86,-51 154,-95 203,-130 42,-10 80,-4 113,18 35,20 31,49 -8,84 -105,98 -212,173 -323,225 -111,51 -204,87 -278,108 -168,43 -291,25 -369,-51 -78,-76 -130,-159 -155,-251 -38,-119 -44,-259 -18,-421 -132,106 -337,244 -613,412 -276,171 -495,278 -656,325 -132,35 -249,21 -349,-45 -128,-89 -204,-226 -230,-409 -25,-184 -22,-345 14,-483 35,-138 81,-263 137,-377 57,-114 119,-224 184,-332 40,-68 145,-234 318,-498 172,-265 227,-432 165,-502 -49,-52 -131,-60 -245,-24 -114,34 -220,74 -318,118 -63,31 -106,12 -129,-56 -24,-67 -6,-111 51,-133 43,-14 98,-38 165,-72 68,-33 140,-56 217,-68 61,-7 137,-11 230,-11 93,0 174,16 241,46 98,51 155,134 172,249 18,120 5,247 -42,382 -46,137 -87,247 -119,331 -49,118 -111,234 -187,345 -75,111 -149,222 -222,331 -147,226 -242,415 -286,570 -33,112 -39,212 -18,298zm2953 -3851c0,176 -90,321 -267,438 -179,115 -375,173 -590,173 -215,0 -416,-56 -598,-166 -184,-112 -275,-255 -275,-430 0,-148 79,-212 238,-193 119,13 185,71 199,171 5,31 -8,62 -38,94 -31,31 -46,70 -46,117 0,71 58,129 171,179 115,49 231,74 349,74 117,0 231,-28 339,-80 110,-54 165,-117 165,-187 0,-35 -17,-70 -49,-103 -32,-34 -45,-66 -38,-97 7,-50 40,-90 99,-125 59,-34 107,-53 142,-58 29,-2 71,10 123,38 51,26 76,79 76,155z"/>
  </g>
 </g>
</svg>
