<?xml version="1.0" encoding="UTF-8"?>
<!DOCTYPE svg PUBLIC "-//W3C//DTD SVG 1.1//EN" "http://www.w3.org/Graphics/SVG/1.1/DTD/svg11.dtd">
<!-- Creator: CorelDRAW X7 -->
<svg xmlns="http://www.w3.org/2000/svg" xml:space="preserve" width="2100px" height="450px" version="1.1" style="shape-rendering:geometricPrecision; text-rendering:geometricPrecision; image-rendering:optimizeQuality; fill-rule:evenodd; clip-rule:evenodd"
viewBox="0 0 2100 450"
 xmlns:xlink="http://www.w3.org/1999/xlink">
 <defs>
  <style type="text/css">
   <![CDATA[
    .fil0 {fill:black}
    .fil2 {fill:#990000}
    .fil1 {fill:#666666;fill-rule:nonzero}
   ]]>
  </style>
 </defs>
 <g id="Слой_x0020_1">
  <metadata id="CorelCorpID_0Corel-Layer"/>
  <path class="fil0" d="M53 331l0 -298 98 0 60 204 58 -204 99 0 0 298 -61 0 0 -235 -65 235 -63 0 -65 -235 0 235 -61 0zm467 0l0 -126 -120 -172 77 0 76 117 76 -117 76 0 -120 173 0 125 -65 0zm411 0l0 -248 -97 0 0 -50 259 0 0 50 -97 0 0 248 -65 0zm205 0l0 -298 242 0 0 50 -176 0 0 66 164 0 0 51 -164 0 0 81 182 0 0 50 -248 0zm305 0l0 -298 64 0 134 199 0 -199 61 0 0 298 -66 0 -132 -194 0 194 -61 0zm328 -298l120 0c30,0 53,2 69,8 15,5 29,13 43,25 13,12 23,28 30,47 8,20 11,44 11,72 0,26 -4,48 -11,67 -8,19 -18,35 -30,46 -12,11 -26,19 -43,25 -17,5 -39,8 -66,8l-123 0 0 -298zm65 50l0 198 50 0c21,0 36,-2 46,-5 10,-3 17,-7 23,-13 6,-6 11,-16 15,-29 4,-13 6,-30 6,-51 0,-22 -2,-40 -6,-53 -4,-12 -10,-22 -19,-30 -8,-7 -19,-12 -31,-14 -9,-2 -27,-3 -54,-3l-30 0z"/>
  <path class="fil1" d="M364 396l-4 3c-2,-3 -5,-6 -8,-7 -4,-2 -7,-2 -11,-2 -4,0 -8,1 -12,3 -4,2 -7,4 -9,8 -2,3 -3,7 -3,12 0,6 3,12 7,16 5,5 10,7 17,7 8,0 14,-3 19,-9l4 3c-2,3 -6,6 -10,8 -4,2 -8,3 -13,3 -10,0 -17,-3 -22,-10 -5,-5 -7,-11 -7,-19 0,-8 2,-14 8,-20 6,-5 12,-8 21,-8 5,0 9,1 13,3 4,2 8,5 10,9z"/>
  <path id="1" class="fil1" d="M401 384c8,0 15,3 20,8 6,6 9,13 9,21 0,7 -3,14 -9,20 -5,5 -12,8 -20,8 -8,0 -14,-3 -20,-8 -5,-6 -8,-12 -8,-20 0,-5 1,-10 4,-15 2,-4 6,-7 10,-10 4,-2 9,-4 14,-4zm0 6c-4,0 -8,1 -11,3 -4,2 -7,4 -9,8 -2,4 -3,7 -3,12 0,6 3,12 7,16 4,4 10,7 16,7 4,0 8,-1 12,-3 3,-3 6,-5 8,-9 2,-3 3,-7 3,-12 0,-4 -1,-8 -3,-11 -2,-4 -5,-6 -8,-8 -4,-2 -8,-3 -12,-3z"/>
  <path id="2" class="fil1" d="M440 439l0 -53 27 0 0 5 -21 0 0 17 2 0c7,0 12,1 15,2 3,1 5,3 7,5 2,3 3,6 3,9 0,4 -2,8 -5,11 -3,3 -7,4 -13,4l-15 0zm6 -25l0 20 6 0c4,0 7,0 9,-1 2,-1 3,-2 4,-4 1,-1 2,-3 2,-5 0,-2 -1,-4 -2,-6 -2,-2 -4,-3 -6,-4 -2,0 -6,0 -10,0l-3 0z"/>
  <path id="3" class="fil1" d="M483 386l6 0 0 23 4 0c7,0 12,0 15,1 3,0 5,2 7,4 2,3 3,6 3,10 0,4 -1,7 -3,9 -2,3 -4,5 -7,5 -3,1 -7,1 -14,1l-11 0 0 -53zm6 48l5 0c7,0 10,0 12,-1 2,0 4,-1 5,-3 1,-1 1,-3 1,-6 0,-3 0,-5 -2,-6 -1,-2 -3,-3 -5,-3 -2,-1 -6,-1 -12,-1l-4 0 0 20zm35 -48l6 0 0 53 -6 0 0 -53z"/>
  <polygon id="4" class="fil1" points="537,391 537,386 567,386 567,391 555,391 555,439 549,439 549,391 "/>
  <polygon id="5" class="fil1" points="617,439 612,439 612,398 576,439 575,439 575,386 580,386 580,428 616,386 617,386 "/>
  <path id="6" class="fil1" d="M661 386l-11 0c-6,0 -10,0 -12,0 -3,1 -6,3 -8,5 -2,2 -3,5 -3,9 0,3 1,5 2,8 2,2 3,4 6,5 3,1 6,1 11,1l-20 25 7 0 19 -25 3 0 0 25 6 0 0 -53zm-6 5l0 18 -9 0c-4,0 -6,0 -8,-1 -2,0 -3,-2 -4,-3 -1,-2 -1,-3 -1,-5 0,-2 0,-4 1,-5 1,-2 2,-3 4,-3 2,-1 4,-1 8,-1l9 0z"/>
  <path id="7" class="fil1" d="M736 439l0 -53 27 0 0 5 -21 0 0 17 2 0c7,0 12,1 15,2 3,1 5,3 7,5 2,3 3,6 3,9 0,4 -2,8 -5,11 -3,3 -7,4 -13,4l-15 0zm6 -25l0 20 6 0c4,0 7,0 9,-1 2,-1 3,-2 4,-4 1,-1 2,-3 2,-5 0,-2 -1,-4 -2,-6 -2,-2 -4,-3 -6,-4 -2,0 -6,0 -10,0l-3 0z"/>
  <path id="8" class="fil1" d="M801 386l25 53 -5 0 -9 -17 -23 0 -8 17 -6 0 25 -53 1 0zm0 11l-10 20 19 0 -9 -20z"/>
  <polygon id="9" class="fil1" points="835,386 840,386 840,408 868,408 868,386 873,386 873,439 868,439 868,413 840,413 840,439 835,439 "/>
  <polygon id="10" class="fil1" points="886,386 891,386 891,406 913,386 920,386 894,410 922,439 915,439 891,414 891,439 886,439 "/>
  <polygon id="11" class="fil1" points="930,386 961,386 961,391 936,391 936,408 961,408 961,413 936,413 936,434 961,434 961,439 930,439 "/>
  <polygon id="12" class="fil1" points="965,391 965,386 995,386 995,391 983,391 983,439 977,439 977,391 "/>
  <path id="13" class="fil1" d="M1002 386l6 0 0 23 4 0c7,0 12,0 15,1 3,0 5,2 7,4 2,3 3,6 3,10 0,4 -1,7 -3,9 -1,3 -4,5 -7,5 -2,1 -7,1 -14,1l-11 0 0 -53zm6 48l6 0c6,0 10,0 11,-1 2,0 4,-1 5,-3 1,-1 1,-3 1,-6 0,-3 0,-5 -2,-6 -1,-2 -3,-3 -5,-3 -2,-1 -6,-1 -12,-1l-4 0 0 20zm35 -48l6 0 0 53 -6 0 0 -53z"/>
  <path id="14" class="fil1" d="M1146 386l25 53 -5 0 -9 -17 -23 0 -9 17 -6 0 26 -53 1 0zm0 11l-10 20 19 0 -9 -20z"/>
  <path id="15" class="fil1" d="M1180 386l10 0c7,0 11,0 13,0 3,1 5,3 7,5 2,2 3,5 3,9 0,4 -1,6 -3,9 -1,2 -4,4 -7,5 -3,0 -7,0 -14,0l-4 0 0 25 -5 0 0 -53zm5 5l0 18 9 0c4,0 7,0 8,-1 2,0 3,-1 4,-3 1,-1 2,-3 2,-5 0,-2 -1,-3 -2,-5 -1,-1 -2,-3 -4,-3 -1,-1 -4,-1 -7,-1l-10 0z"/>
  <polygon id="16" class="fil1" points="1219,391 1219,386 1248,386 1248,391 1236,391 1236,439 1231,439 1231,391 "/>
  <polygon id="17" class="fil1" points="1298,439 1293,439 1293,398 1257,439 1256,439 1256,386 1261,386 1261,428 1297,386 1298,386 "/>
  <path id="18" class="fil1" d="M1362 396l-5 3c-2,-3 -5,-6 -8,-7 -3,-2 -7,-2 -11,-2 -4,0 -8,1 -12,3 -3,2 -6,4 -8,8 -2,3 -3,7 -3,12 0,6 2,12 6,16 5,5 11,7 17,7 8,0 14,-3 19,-9l5 3c-3,3 -6,6 -10,8 -4,2 -9,3 -14,3 -9,0 -17,-3 -22,-10 -5,-5 -7,-11 -7,-19 0,-8 3,-14 8,-20 6,-5 13,-8 21,-8 5,0 10,1 14,3 4,2 7,5 10,9z"/>
  <polygon id="19" class="fil1" points="1367,391 1367,386 1397,386 1397,391 1385,391 1385,439 1379,439 1379,391 "/>
  <path id="20" class="fil1" d="M1404 386l6 0 0 23 4 0c7,0 12,0 15,1 3,0 5,2 7,4 2,3 3,6 3,10 0,4 -1,7 -3,9 -1,3 -4,5 -7,5 -2,1 -7,1 -14,1l-11 0 0 -53zm6 48l6 0c6,0 10,0 11,-1 2,0 4,-1 5,-3 1,-1 1,-3 1,-6 0,-3 0,-5 -2,-6 -1,-2 -3,-3 -5,-3 -2,-1 -6,-1 -12,-1l-4 0 0 20zm35 -48l6 0 0 53 -6 0 0 -53z"/>
  <polygon id="21" class="fil1" points="1531,434 1555,434 1555,386 1560,386 1560,434 1583,434 1583,386 1589,386 1589,439 1526,439 1526,386 1531,386 "/>
  <path id="22" class="fil1" d="M1627 384c9,0 15,3 21,8 5,6 8,13 8,21 0,7 -3,14 -8,20 -6,5 -12,8 -20,8 -8,0 -15,-3 -20,-8 -6,-6 -9,-12 -9,-20 0,-5 2,-10 4,-15 3,-4 6,-7 10,-10 5,-2 9,-4 14,-4zm1 6c-4,0 -8,1 -12,3 -3,2 -6,4 -8,8 -2,4 -3,7 -3,12 0,6 2,12 7,16 4,4 9,7 16,7 4,0 8,-1 11,-3 4,-3 7,-5 9,-9 2,-3 3,-7 3,-12 0,-4 -1,-8 -3,-11 -2,-4 -5,-6 -9,-8 -3,-2 -7,-3 -11,-3z"/>
  <path id="23" class="fil1" d="M1663 386l6 0 16 36 15 -36 6 0 -20 48c-2,5 -6,7 -11,7 -2,0 -3,-1 -5,-1 -2,-1 -4,-3 -7,-6l4 -3c3,2 5,4 6,4 1,1 1,1 2,1 2,0 3,-1 4,-1 1,-1 2,-3 3,-6l-19 -43z"/>
  <rect class="fil2" x="39" y="402" width="257.032" height="4.99961"/>
  <rect class="fil2" x="1711" y="402" width="290.625" height="4.99961"/>
  <polygon class="fil2" points="701,389 696,405 681,404 694,414 689,429 701,420 714,429 709,414 721,404 706,405 "/>
  <polygon class="fil2" points="1081,389 1076,405 1061,404 1074,414 1069,429 1081,420 1094,429 1089,414 1101,404 1086,405 "/>
  <polygon class="fil2" points="1491,389 1487,405 1471,404 1484,414 1479,429 1491,420 1504,429 1499,414 1511,404 1496,405 "/>
 </g>
</svg>
