<?xml version="1.0" encoding="UTF-8"?>
<!DOCTYPE svg PUBLIC "-//W3C//DTD SVG 1.1//EN" "http://www.w3.org/Graphics/SVG/1.1/DTD/svg11.dtd">
<!-- Creator: CorelDRAW X7 -->
<svg xmlns="http://www.w3.org/2000/svg" xml:space="preserve" width="730px" height="200px" version="1.1" style="shape-rendering:geometricPrecision; text-rendering:geometricPrecision; image-rendering:optimizeQuality; fill-rule:evenodd; clip-rule:evenodd"
viewBox="0 0 730 200"
 xmlns:xlink="http://www.w3.org/1999/xlink">
 <defs>
  <style type="text/css">
   <![CDATA[
    .str0 {stroke:#CCCCCC;stroke-width:2.36221}
    .fil6 {fill:black}
    .fil0 {fill:#336699}
    .fil1 {fill:#660066}
    .fil5 {fill:#C20000}
    .fil3 {fill:black;fill-rule:nonzero}
    .fil4 {fill:black;fill-rule:nonzero}
    .fil2 {fill:#B3B3B3;fill-rule:nonzero}
   ]]>
  </style>
 </defs>
 <g id="Слой_x0020_1">
  <metadata id="CorelCorpID_0Corel-Layer"/>
  <polygon class="fil0 str0" points="525,133 533,157 560,157 538,172 546,196 525,181 504,196 512,172 491,157 517,157 "/>
  <polygon class="fil1 str0" points="474,133 482,157 508,157 487,172 495,196 474,181 453,196 461,172 439,157 466,157 "/>
  <polygon class="fil2" points="77,105 112,13 137,13 137,129 116,129 116,56 88,129 66,129 38,56 38,129 17,129 17,13 42,13 "/>
  <path id="1" class="fil2" d="M184 135l3 -7 -35 -84 24 0 21 56 22 -56 23 0 -39 97c-6,15 -15,22 -27,22 -6,0 -11,-1 -15,-3l5 -19c3,1 6,2 8,2 5,0 8,-3 10,-8z"/>
  <polygon id="2" class="fil2" points="251,90 251,72 302,72 302,90 "/>
  <polygon id="3" class="fil2" points="313,32 313,13 407,13 407,32 371,32 371,129 349,129 349,32 "/>
  <path id="4" class="fil2" d="M505 92l-65 0c1,7 4,12 8,16 4,4 9,6 15,6 11,0 18,-5 21,-14l20 6c-4,8 -9,15 -16,19 -7,5 -15,7 -25,7 -13,0 -24,-4 -32,-13 -7,-8 -11,-19 -11,-33 0,-13 4,-24 12,-32 9,-9 19,-13 31,-13 12,0 22,4 30,11 8,8 12,19 12,33l0 7zm-42 -34c-5,0 -10,2 -14,5 -4,4 -7,8 -8,14l44 0c-2,-13 -9,-19 -22,-19z"/>
  <path id="5" class="fil2" d="M543 44l2 11c2,-4 6,-7 11,-10 5,-3 10,-4 16,-4 10,0 18,3 24,9 5,5 8,14 8,24l0 55 -21 0 0 -51c0,-5 -1,-10 -4,-13 -3,-4 -7,-5 -13,-5 -6,0 -11,2 -15,7 -4,5 -6,11 -6,19l0 43 -21 0 0 -85 19 0z"/>
  <path id="6" class="fil2" d="M709 13l0 116 -17 0 -3 -10c-6,9 -15,13 -25,13 -12,0 -21,-4 -29,-13 -8,-8 -12,-19 -12,-33 0,-13 4,-24 12,-33 8,-8 17,-12 28,-12 11,0 20,4 25,11l0 -39 21 0zm-26 54c-4,-5 -10,-7 -16,-7 -7,0 -13,2 -17,7 -5,5 -7,11 -7,19 0,8 2,15 7,20 4,4 10,7 17,7 6,0 12,-3 16,-7 5,-5 7,-12 7,-20 0,-8 -2,-14 -7,-19z"/>
  <polygon class="fil2" points="587,184 587,176 595,176 595,184 "/>
  <path id="1" class="fil2" d="M623 173l7 2c-2,7 -7,10 -14,10 -4,0 -8,-1 -11,-4 -3,-3 -4,-7 -4,-12 0,-5 1,-8 4,-11 3,-3 7,-5 11,-5 4,0 7,1 9,3 3,2 4,4 5,8l-7 1c0,-1 -1,-3 -2,-4 -2,-1 -3,-1 -5,-1 -2,0 -4,1 -6,3 -1,1 -2,4 -2,6 0,3 1,5 2,7 2,2 4,3 6,3 4,0 6,-2 7,-6z"/>
  <path id="2" class="fil2" d="M662 181c-3,3 -7,4 -11,4 -5,0 -8,-1 -11,-4 -3,-3 -5,-7 -5,-12 0,-5 2,-8 5,-11 3,-3 6,-5 11,-5 4,0 8,2 11,5 3,3 4,6 4,11 0,5 -1,9 -4,12zm-5 -18c-2,-2 -4,-3 -6,-3 -3,0 -5,1 -6,3 -2,1 -2,4 -2,6 0,3 0,5 2,7 1,2 3,3 6,3 2,0 4,-1 6,-3 1,-2 2,-4 2,-7 0,-2 -1,-5 -2,-6z"/>
  <path id="3" class="fil2" d="M679 154l1 4c1,-1 2,-2 3,-3 2,-1 3,-2 5,-2 5,0 7,2 9,5 2,-3 5,-5 9,-5 3,0 6,1 8,3 2,2 3,5 3,8l0 20 -8 0 0 -18c0,-2 0,-3 -1,-5 -1,-1 -2,-1 -4,-1 -2,0 -3,1 -4,2 -1,2 -2,3 -2,5l0 17 -7 0 0 -19c0,-3 -2,-5 -5,-5 -2,0 -3,1 -4,2 -2,2 -2,4 -2,6l0 16 -7 0 0 -30 6 0z"/>
  <polygon class="fil3" points="75,103 110,10 135,10 135,127 114,127 114,54 86,127 64,127 36,54 36,127 15,127 15,10 40,10 "/>
  <path id="1" class="fil3" d="M182 133l3 -8 -35 -84 24 0 22 56 21 -56 23 0 -39 98c-6,14 -15,22 -27,22 -6,0 -11,-2 -15,-4l5 -19c3,2 6,2 9,2 4,0 7,-2 9,-7z"/>
  <polygon id="2" class="fil3" points="249,88 249,70 300,70 300,88 "/>
  <polygon id="3" class="fil3" points="312,30 312,10 406,10 406,30 369,30 369,127 348,127 348,30 "/>
  <path id="4" class="fil3" d="M503 90l-64 0c0,6 3,12 7,15 4,4 9,6 16,6 10,0 17,-4 21,-13l19 6c-4,8 -9,14 -16,19 -7,4 -15,7 -24,7 -14,0 -24,-5 -32,-13 -8,-9 -12,-20 -12,-33 0,-13 4,-24 13,-33 8,-8 18,-12 31,-12 12,0 21,3 29,11 8,8 12,18 12,32l0 8zm-41 -34c-6,0 -11,2 -15,5 -4,3 -6,8 -8,13l44 0c-2,-12 -9,-18 -21,-18z"/>
  <path id="5" class="fil3" d="M541 41l2 11c2,-3 6,-7 11,-9 5,-3 10,-4 17,-4 9,0 17,2 23,8 5,6 8,14 8,25l0 55 -20 0 0 -51c0,-6 -2,-10 -5,-14 -3,-3 -7,-5 -13,-5 -6,0 -11,3 -15,7 -4,5 -6,12 -6,19l0 44 -21 0 0 -86 19 0z"/>
  <path id="6" class="fil3" d="M707 10l0 117 -17 0 -2 -10c-7,8 -16,13 -26,13 -11,0 -21,-5 -29,-13 -8,-8 -12,-19 -12,-33 0,-14 4,-25 12,-33 8,-8 18,-12 28,-12 11,0 20,3 26,11l0 -40 20 0zm-25 55c-5,-5 -10,-7 -17,-7 -7,0 -12,2 -17,7 -4,5 -6,11 -6,19 0,8 2,14 6,19 5,5 10,8 17,8 7,0 12,-3 17,-8 4,-5 6,-11 6,-19 0,-8 -2,-14 -6,-19z"/>
  <polygon class="fil4" points="585,182 585,174 593,174 593,182 "/>
  <path id="1" class="fil4" d="M621 171l7 2c-3,7 -7,10 -14,10 -4,0 -8,-1 -11,-4 -3,-3 -4,-7 -4,-12 0,-5 1,-8 4,-11 3,-3 7,-5 11,-5 4,0 7,1 9,3 2,2 4,4 4,8l-6 1c-1,-1 -1,-3 -3,-4 -1,-1 -2,-1 -4,-1 -3,0 -4,1 -6,3 -1,1 -2,3 -2,6 0,3 1,5 2,7 2,2 3,2 6,2 3,0 6,-1 7,-5z"/>
  <path id="2" class="fil4" d="M659 179c-3,3 -6,4 -10,4 -5,0 -8,-1 -11,-4 -3,-3 -5,-7 -5,-12 0,-5 2,-8 5,-11 3,-3 6,-5 11,-5 4,0 7,2 10,5 3,3 5,6 5,11 0,5 -2,9 -5,12zm-5 -18c-1,-2 -3,-3 -5,-3 -3,0 -5,1 -6,3 -2,1 -3,3 -3,6 0,3 1,5 3,7 1,2 3,2 6,2 2,0 4,0 5,-2 2,-2 3,-4 3,-7 0,-3 -1,-5 -3,-6z"/>
  <path id="3" class="fil4" d="M677 152l1 4c0,-1 2,-3 3,-3 2,-1 3,-2 5,-2 4,0 7,2 9,5 2,-3 5,-5 9,-5 3,0 6,1 8,3 1,2 2,5 2,8l0 20 -7 0 0 -18c0,-2 0,-4 -1,-5 -1,-1 -2,-1 -4,-1 -2,0 -3,1 -4,2 -2,1 -2,3 -2,5l0 17 -7 0 0 -19c0,-3 -2,-5 -5,-5 -2,0 -4,1 -5,2 -1,1 -1,4 -1,6l0 16 -8 0 0 -30 7 0z"/>
  <polygon class="fil5 str0" points="427,133 435,157 461,157 440,172 448,196 427,181 406,196 414,172 392,157 419,157 "/>
  <polygon class="fil6 str0" points="377,133 385,157 411,157 390,172 398,196 377,181 356,196 364,172 342,157 369,157 "/>
 </g>
</svg>
