<?xml version="1.0" encoding="UTF-8"?>
<!DOCTYPE svg PUBLIC "-//W3C//DTD SVG 1.1//EN" "http://www.w3.org/Graphics/SVG/1.1/DTD/svg11.dtd">
<!-- Creator: CorelDRAW X7 -->
<svg xmlns="http://www.w3.org/2000/svg" xml:space="preserve" width="123.613mm" height="21.1654mm" version="1.1" style="shape-rendering:geometricPrecision; text-rendering:geometricPrecision; image-rendering:optimizeQuality; fill-rule:evenodd; clip-rule:evenodd"
viewBox="0 0 12361 2117"
 xmlns:xlink="http://www.w3.org/1999/xlink">
 <defs>
  <style type="text/css">
   <![CDATA[
    .fil0 {fill:#1A1A1A;fill-rule:nonzero}
   ]]>
  </style>
 </defs>
 <g id="Слой_x0020_1">
  <metadata id="CorelCorpID_0Corel-Layer"/>
  <path class="fil0" d="M1331 2033l-768 -1672 0 1327c0,123 14,199 40,230 37,41 95,61 174,61l71 0 0 54 -699 0 0 -54 72 0c85,0 145,-25 181,-76 21,-32 32,-103 32,-215l0 -1298c0,-88 -10,-152 -29,-191 -14,-28 -40,-52 -77,-71 -37,-19 -97,-29 -179,-29l0 -54 570 0 717 1554 710 -1554 564 0 0 54 -69 0c-87,0 -147,26 -183,77 -22,31 -33,103 -33,214l0 1298c0,123 14,199 42,230 36,41 94,61 174,61l69 0 0 54 -851 0 0 -54 71 0c86,0 146,-25 181,-76 22,-32 33,-103 33,-215l0 -1327 -765 1672 -48 0z"/>
  <path id="1" class="fil0" d="M10158 2033l0 -54 74 0c84,0 144,-27 179,-80 21,-32 32,-105 32,-217l0 -1286c0,-124 -14,-201 -41,-232 -38,-43 -95,-65 -170,-65l-74 0 0 -54 808 0c297,0 523,34 677,101 155,68 279,180 373,337 95,158 142,340 142,546 0,277 -84,507 -252,693 -189,208 -475,311 -861,311l-887 0zm566 -146c124,28 228,41 312,41 226,0 413,-79 563,-239 148,-159 223,-374 223,-647 0,-274 -75,-491 -223,-648 -150,-159 -341,-238 -575,-238 -88,0 -188,14 -300,43l0 1688z"/>
  <path id="2" class="fil0" d="M3984 349l587 0 0 46 -32 0c-22,0 -53,10 -94,29 -42,19 -79,46 -113,82 -34,35 -76,94 -125,174l-405 633 0 428c0,104 12,169 35,194 32,35 82,53 151,53l55 0 0 45 -721 0 0 -45 60 0c72,0 123,-22 154,-65 18,-27 27,-87 27,-182l0 -394 -460 -712c-55,-82 -92,-133 -111,-154 -20,-20 -60,-45 -121,-74 -17,-8 -41,-12 -72,-12l0 -46 718 0 0 46 -38 0c-39,0 -75,9 -107,27 -33,19 -49,46 -49,82 0,30 25,84 76,162l348 543 332 -519c50,-78 75,-136 75,-174 0,-24 -6,-44 -18,-63 -12,-18 -29,-32 -52,-42 -22,-11 -56,-16 -100,-16l0 -46z"/>
  <polygon id="3" class="fil0" points="4428,1368 5070,1368 5070,1556 4428,1556 "/>
  <path id="4" class="fil0" d="M6640 349l18 396 -47 0c-10,-69 -22,-119 -37,-149 -26,-48 -60,-83 -103,-106 -43,-23 -99,-34 -168,-34l-237 0 0 1285c0,104 11,169 33,194 32,35 80,53 145,53l58 0 0 45 -716 0 0 -45 60 0c72,0 123,-22 154,-65 18,-27 27,-87 27,-182l0 -1285 -202 0c-78,0 -134,6 -167,17 -44,16 -80,46 -111,91 -30,44 -49,105 -54,181l-47 0 17 -396 1377 0z"/>
  <path id="5" class="fil0" d="M7252 441l0 665 371 0c96,0 160,-14 192,-43 43,-38 67,-105 72,-201l45 0 0 587 -45 0c-12,-82 -24,-135 -35,-158 -15,-29 -39,-52 -73,-68 -34,-17 -86,-25 -156,-25l-371 0 0 555c0,75 3,120 9,136 7,16 19,29 35,38 17,10 48,15 95,15l284 0c95,0 164,-7 208,-20 42,-13 84,-39 123,-78 51,-52 104,-129 158,-232l50 0 -145 421 -1297 0 0 -45 59 0c40,0 78,-10 113,-29 27,-13 45,-33 55,-60 9,-27 14,-81 14,-163l0 -1095c0,-106 -11,-172 -32,-197 -30,-33 -80,-49 -150,-49l-59 0 0 -46 1298 0 17 371 -48 0c-17,-89 -36,-151 -57,-184 -22,-34 -53,-59 -94,-77 -33,-12 -91,-18 -175,-18l-461 0z"/>
  <path id="6" class="fil0" d="M8239 349l452 0 1032 1265 0 -973c0,-103 -12,-168 -35,-194 -31,-35 -80,-52 -147,-52l-60 0 0 -46 592 0 0 46 -60 0c-72,0 -123,22 -154,65 -18,26 -27,87 -27,181l0 1419 -45 0 -1108 -1356 0 1037c0,104 11,169 34,194 31,35 81,53 147,53l60 0 0 45 -592 0 0 -45 60 0c72,0 124,-22 154,-65 18,-27 28,-87 28,-182l0 -1171c-49,-57 -86,-95 -111,-113 -26,-18 -63,-35 -111,-51 -24,-7 -61,-11 -109,-11l0 -46z"/>
 </g>
</svg>
