<?xml version="1.0" encoding="UTF-8"?>
<!DOCTYPE svg PUBLIC "-//W3C//DTD SVG 1.1//EN" "http://www.w3.org/Graphics/SVG/1.1/DTD/svg11.dtd">
<!-- Creator: CorelDRAW X7 -->
<svg xmlns="http://www.w3.org/2000/svg" xml:space="preserve" width="813.816mm" height="296.333mm" version="1.1" style="shape-rendering:geometricPrecision; text-rendering:geometricPrecision; image-rendering:optimizeQuality; fill-rule:evenodd; clip-rule:evenodd"
viewBox="0 0 81382 29633"
 xmlns:xlink="http://www.w3.org/1999/xlink">
 <defs>
  <style type="text/css">
   <![CDATA[
    .str0 {stroke:#990099;stroke-width:33.86}
    .fil3 {fill:#336699}
    .fil2 {fill:#990099}
    .fil1 {fill:#E63C24}
    .fil0 {fill:white;fill-rule:nonzero}
   ]]>
  </style>
 </defs>
 <g id="Слой_x0020_1">
  <metadata id="CorelCorpID_0Corel-Layer"/>
  <path class="fil0" d="M13201 18655l-4675 -10188 0 8086c0,748 78,1208 243,1396 223,249 570,373 1047,373l431 0 0 333 -4226 0 0 -333 430 0c515,0 877,-156 1090,-462 134,-186 203,-621 203,-1307l0 -7911c0,-522 -64,-912 -182,-1160 -42,-88 -99,-171 -171,-243 -73,-78 -167,-140 -291,-192 -120,-57 -271,-99 -441,-125 -175,-31 -389,-46 -638,-46l0 -332 3438 0 4381 9476 4322 -9476 3443 0 0 332 -426 0c-518,0 -886,154 -1099,462 -130,186 -196,616 -196,1304l0 7911c0,748 83,1208 250,1396 220,249 569,373 1045,373l426 0 0 333 -5159 0 0 -333 431 0c508,0 876,-156 1090,-462 129,-186 195,-621 195,-1307l0 -8086 -4670 10188 -291 0 0 0 0 0z"/>
  <path id="_1" class="fil0" d="M29038 8770l3449 0 0 271 -190 0c-55,0 -136,13 -237,42 -96,31 -203,72 -313,123 -113,55 -229,122 -343,203 -115,84 -224,178 -321,280 -102,105 -212,246 -330,415 -120,168 -255,371 -407,604l-2382 3754 0 2478c0,609 67,986 203,1139 183,203 474,304 880,304l322 0 0 272 -4210 0 0 -272 351 0c415,0 716,-127 889,-376 105,-152 161,-508 161,-1067l0 -2339 -2709 -4143c-161,-245 -292,-443 -401,-592 -110,-148 -195,-253 -255,-317 -28,-31 -75,-73 -144,-127 -67,-55 -152,-115 -253,-169 -101,-59 -216,-111 -338,-154 -127,-41 -254,-58 -390,-58l0 -271 4223 0 0 271 -220 0c-106,0 -212,13 -321,38 -111,20 -208,59 -298,115 -84,50 -154,117 -210,198 -60,80 -85,178 -85,287 0,179 149,491 443,948l2062 3186 1938 -3046c291,-457 435,-795 435,-1019 -8,-102 -28,-199 -64,-284 -33,-89 -88,-165 -161,-228 -70,-64 -172,-111 -300,-144 -127,-34 -283,-51 -474,-51l0 -271 0 0 0 0 0 0z"/>
  <path id="_2" class="fil0" d="M44249 8770l0 2316 -165 0c-37,-310 -105,-572 -193,-789 -90,-212 -208,-390 -352,-519 -148,-132 -326,-229 -538,-289 -208,-64 -453,-93 -731,-93l-1393 0 0 7544c0,609 64,986 195,1139 178,203 461,304 851,304l343 0 0 272 -4197 0 0 -272 351 0c418,0 719,-127 892,-376 105,-152 161,-508 161,-1067l0 -7544 -1190 0c-295,0 -557,26 -782,68 -225,42 -410,126 -568,246 -155,122 -278,291 -376,516 -98,220 -169,502 -220,860l-283 0 0 -2316 8195 0 0 0 0 0z"/>
  <path id="_3" class="fil0" d="M47842 9307l0 3897 2179 0c317,0 571,-30 770,-84 199,-55 351,-144 461,-263 115,-118 190,-266 237,-448 42,-179 72,-393 84,-639l272 0 0 3436 -272 0c-32,-242 -67,-440 -101,-594 -34,-150 -68,-262 -100,-330 -44,-84 -99,-161 -170,-223 -68,-68 -152,-123 -263,-173 -106,-47 -234,-84 -384,-106 -154,-26 -330,-38 -534,-38l-2179 0 0 3260c0,438 21,705 59,806 22,43 43,84 75,127 27,33 73,68 129,96 49,26 126,48 214,60 90,17 204,26 340,26l1679 0c288,0 525,-9 715,-26 195,-17 364,-47 504,-88 145,-43 271,-103 380,-180 110,-70 225,-168 348,-287 147,-144 304,-333 460,-558 153,-229 309,-499 466,-804l287 0 -849 2481 -7625 0 0 -272 352 0c88,0 185,-9 291,-30 101,-20 196,-50 288,-92 88,-44 174,-97 245,-165 73,-65 123,-144 154,-230 57,-152 88,-469 88,-956l0 -6422c0,-622 -64,-1007 -191,-1160 -178,-190 -465,-287 -875,-287l-352 0 0 -272 7625 0 0 2167 -178 0c-51,-267 -106,-482 -161,-651 -55,-170 -113,-309 -182,-423 -68,-110 -144,-200 -233,-268 -88,-62 -193,-126 -313,-178 -199,-71 -542,-109 -1027,-109l-2713 0 0 0 0 0 0 0z"/>
  <path id="_4" class="fil0" d="M53646 8770l2675 0 6041 7418 0 -5705c0,-608 -67,-986 -202,-1138 -187,-203 -470,-304 -855,-304l-343 0 0 -271 3449 0 0 271 -351 0c-419,0 -719,126 -893,377 -106,152 -162,506 -162,1065l0 8332 -266 0 -6510 -7954 0 6079c0,609 66,986 197,1139 182,203 466,304 855,304l352 0 0 272 -3449 0 0 -272 343 0c423,0 724,-127 898,-376 109,-152 165,-508 165,-1067l0 -6872c-145,-168 -267,-309 -365,-410 -98,-101 -190,-186 -275,-249 -89,-68 -181,-122 -283,-165 -106,-38 -232,-85 -382,-141 -139,-41 -350,-62 -639,-62l0 -271 0 0 0 0z"/>
  <path id="_5" class="fil0" d="M64876 18655l0 -328 446 0c500,0 859,-165 1073,-487 129,-189 194,-619 194,-1304l0 -7716c0,-752 -80,-1223 -245,-1401 -230,-263 -573,-390 -1022,-390l-446 0 0 -328 4861 0c1791,0 3146,204 4073,611 936,403 1683,1078 2250,2025 569,942 856,2032 856,3280 0,880 -144,1693 -431,2430 -286,741 -705,1376 -1269,1907 -557,533 -1257,947 -2097,1250 -840,297 -1807,451 -2907,451l-5336 0 0 0 0 0 0 0zm3407 -865c738,169 1367,249 1884,249 674,0 1299,-127 1883,-378 577,-251 1078,-603 1498,-1064 425,-466 759,-1023 998,-1677 241,-661 363,-1399 363,-2217 0,-824 -122,-1565 -358,-2220 -235,-660 -566,-1219 -998,-1677 -425,-463 -930,-820 -1523,-1065 -590,-246 -1235,-369 -1936,-369 -265,0 -547,21 -848,67 -298,41 -620,107 -963,189l0 10162 0 0 0 0z"/>
  <g id="_990956128">
   <path class="fil1" d="M5849 25081c-471,-208 -784,-489 -938,-846 -156,-356 -238,-778 -247,-1266 -16,-603 105,-1194 364,-1771 257,-577 600,-1075 1030,-1491 470,-456 1082,-840 1830,-1152 746,-311 1447,-477 2098,-496 535,-20 1098,9 1686,84 588,77 1109,277 1565,600 181,-108 393,-209 633,-305 371,-139 765,-235 1181,-291 61,-7 95,19 105,77 3,62 -26,100 -84,109 -427,57 -806,150 -1138,280 -189,74 -367,159 -536,252 398,344 640,778 725,1299 42,276 57,560 46,852 -16,280 -57,549 -129,806 -83,288 -191,565 -321,830 -131,265 -260,530 -389,796 -103,218 -210,433 -324,640 -114,204 -226,403 -336,598 -167,295 -317,572 -451,827 -136,256 -227,488 -273,690 -84,378 -51,599 95,663 184,87 540,-7 1076,-277 55,-31 98,-17 124,40 29,54 15,96 -40,126 -588,291 -999,385 -1231,282 -129,-54 -240,-183 -330,-383 -93,-201 -97,-496 -12,-886 74,-343 171,-672 292,-988 121,-317 307,-715 552,-1193 12,-26 33,-65 64,-121l-2251 0c-381,742 -811,1412 -1290,2010 -476,600 -1058,1032 -1745,1297 -391,151 -823,241 -1300,271 -475,26 -987,-22 -1530,-145 -26,-3 -57,-22 -98,-58 -40,-35 -53,-77 -41,-122 9,-59 47,-82 110,-69 1090,256 1990,246 2703,-30 365,-138 680,-334 940,-586 258,-252 500,-539 721,-863 181,-265 345,-543 491,-828 145,-288 288,-575 427,-862 128,-267 262,-534 404,-806 139,-271 284,-542 435,-809 148,-266 286,-524 418,-776 133,-250 278,-489 439,-713 174,-247 382,-471 619,-674 237,-203 474,-397 709,-586 116,-92 239,-182 374,-267 -434,-287 -931,-463 -1491,-526 -561,-65 -1091,-93 -1589,-76 -629,20 -1305,179 -2033,478 -727,303 -1317,674 -1773,1116 -409,399 -738,874 -985,1426 -246,554 -363,1119 -348,1696 9,453 96,839 261,1156 164,318 458,571 880,766 78,39 109,77 91,121 -17,47 -57,73 -116,79 -62,7 -100,4 -119,-5l0 0 0 0zm6782 -1804c202,-386 423,-807 660,-1263 236,-455 387,-847 450,-1174 65,-361 70,-703 15,-1028 -55,-323 -230,-609 -525,-853 -152,92 -291,191 -418,292 -549,434 -986,1000 -1314,1694 -327,696 -658,1386 -993,2073 -23,44 -45,91 -68,133 -22,44 -44,85 -62,126l2255 0 0 0 0 0zm1631 3415c17,91 139,119 372,79 158,-29 327,-74 504,-139 176,-65 289,-113 334,-139 296,-168 548,-348 758,-543 212,-194 386,-446 525,-753 73,-175 155,-363 244,-567 89,-204 185,-400 285,-588 48,-94 117,-215 208,-364 93,-149 184,-252 276,-308 243,-140 429,-140 555,0 69,83 53,199 -43,347 -264,414 -491,794 -679,1137 -189,343 -377,731 -562,1166 -167,388 -319,728 -450,1012 -133,286 -295,555 -490,808 -323,420 -700,777 -1129,1069 -431,291 -910,468 -1438,530 -323,34 -619,38 -887,13 -268,-29 -442,-64 -522,-110 -174,-103 -208,-185 -100,-252 106,-64 182,-77 226,-41 118,91 312,148 575,172 686,67 1316,-157 1893,-676 349,-318 629,-641 831,-973 205,-330 418,-710 639,-1135 61,-119 51,-158 -28,-113 -78,43 -137,82 -176,113 -144,108 -237,174 -279,200 -103,55 -265,125 -490,209 -226,86 -424,144 -600,179 -283,46 -488,21 -617,-79 -99,-71 -163,-192 -193,-365 -55,-295 -26,-590 76,-890 69,-204 191,-436 371,-698 64,-95 132,-199 205,-313 73,-117 152,-269 241,-454 72,-147 112,-261 121,-338 12,-76 12,-141 -1,-194 -12,-46 -46,-71 -100,-76 -57,-5 -192,68 -412,215 -99,58 -171,71 -217,39 -36,-26 -57,-69 -65,-129 -9,-60 20,-110 85,-149 358,-233 666,-345 918,-336 242,0 396,121 460,362 36,140 41,287 10,445 -27,157 -60,283 -98,379 -134,323 -271,581 -407,777 -134,196 -291,434 -473,711 -79,121 -149,252 -206,396 -58,144 -73,264 -50,364l0 0 0 0zm6974 -562c-41,91 -98,194 -168,308 -69,117 -76,213 -20,286 90,129 213,164 369,103 38,-13 113,-63 226,-146 114,-85 204,-152 266,-197 56,-9 107,0 151,27 46,27 42,65 -12,111 -285,266 -550,411 -793,436 -203,18 -368,-26 -498,-135 -201,-173 -279,-437 -230,-793 22,-175 77,-332 169,-468 91,-138 159,-271 204,-397 57,-145 42,-249 -43,-311 -84,-61 -280,-64 -583,-4 -20,2 -12,-25 21,-87 32,-63 66,-96 98,-103 830,-127 1318,-382 1459,-764 143,-379 -67,-543 -632,-487 -103,13 -251,77 -446,192 -196,116 -417,260 -666,434 -128,85 -225,170 -295,251 -72,82 -131,156 -179,217 -65,83 -137,177 -214,282 -77,106 -153,245 -227,421 -110,270 -221,523 -335,763 -114,239 -221,472 -325,702 -19,47 -52,101 -97,164 -44,63 -81,94 -104,94l-544 0c-65,0 -57,-76 18,-231 201,-417 421,-894 662,-1431 239,-537 472,-1056 694,-1557 233,-536 473,-1043 714,-1514 243,-473 519,-911 825,-1311 339,-443 690,-792 1051,-1053 496,-354 1037,-551 1620,-587 236,-15 435,2 595,53 160,50 269,95 323,132 152,102 184,185 86,250 -93,65 -160,79 -197,41 -126,-108 -358,-180 -697,-221 -315,-35 -614,12 -893,142 -281,130 -535,317 -767,557 -252,260 -479,564 -682,917 -202,352 -401,724 -595,1116 -123,243 -240,494 -355,748 -114,254 -225,512 -337,768 -18,39 -22,75 -12,105 12,32 41,32 86,0 203,-136 422,-270 663,-405 237,-135 472,-232 702,-295 564,-150 917,-100 1062,150 144,249 141,489 -6,722 -140,222 -359,382 -652,475 -295,95 -539,167 -735,215 199,87 333,219 400,398 47,139 55,290 24,450 -32,161 -81,318 -149,467l0 0zm1711 469c31,173 130,237 298,190 174,-45 387,-131 639,-262 252,-128 448,-243 587,-348 73,-56 175,-133 305,-230 131,-97 225,-168 280,-210 193,-465 415,-931 665,-1400 248,-470 449,-818 604,-1051 49,-75 159,-110 336,-109 174,1 269,27 286,82l-1449 2811c-46,87 -77,188 -94,305 -16,118 2,213 58,289 30,44 95,89 191,131 96,41 182,48 256,22 39,-9 109,-34 219,-73 110,-39 197,-80 262,-127 54,-9 105,0 149,27 43,29 40,64 -10,112 -146,132 -275,266 -382,400 -108,135 -199,300 -274,494 -116,271 -246,500 -391,685 -78,93 -173,176 -286,252 -112,76 -231,115 -357,115 -302,0 -451,-104 -451,-311 0,-205 149,-306 451,-306 92,0 179,17 257,52 80,41 128,65 143,66 14,3 50,-26 108,-81 74,-74 131,-162 172,-265 42,-102 91,-210 151,-328 68,-151 174,-313 322,-491 -44,13 -90,22 -132,30 -41,7 -80,15 -112,24 -222,56 -396,26 -524,-89 -128,-115 -210,-234 -246,-354 -47,-145 -55,-331 -24,-556 -96,77 -230,180 -409,308 -177,128 -326,233 -448,313 -130,83 -268,150 -416,202 -148,52 -280,94 -401,132 -181,48 -335,29 -461,-61 -167,-117 -267,-297 -302,-539 -36,-244 -30,-455 20,-636 48,-184 106,-351 180,-503 74,-150 154,-296 241,-439 54,-87 197,-306 421,-655 227,-351 298,-573 214,-665 -64,-66 -172,-75 -322,-27 -150,45 -291,98 -419,157 -84,40 -140,15 -171,-74 -31,-90 -8,-148 69,-176 54,-20 127,-51 217,-96 89,-44 183,-74 287,-91 78,-9 180,-13 302,-13 124,0 229,20 319,60 126,65 204,174 231,329 21,156 1,323 -58,503 -59,180 -114,326 -159,433 -64,158 -145,310 -243,459 -100,149 -197,294 -296,439 -194,297 -321,548 -379,751 -38,140 -46,271 -24,393l0 0 0 0zm4462 -15c30,174 131,238 299,191 175,-47 390,-133 642,-261 250,-128 445,-246 580,-350 74,-56 176,-134 306,-230 131,-97 224,-167 279,-210 195,-463 417,-930 668,-1400 250,-468 449,-820 601,-1050 49,-75 162,-112 339,-110 178,1 273,29 285,80l-1445 2815c-45,84 -78,186 -93,300 -17,118 1,214 57,292 85,129 208,163 369,100 36,-11 110,-52 223,-119 112,-68 201,-125 265,-173 59,-12 110,-5 152,25 44,27 40,63 -9,110 -139,126 -279,225 -426,294 -147,69 -269,117 -372,141 -219,56 -382,34 -484,-63 -101,-100 -169,-209 -201,-329 -52,-158 -60,-344 -24,-557 -96,78 -234,180 -412,309 -176,127 -327,231 -447,312 -128,82 -267,150 -415,201 -147,51 -281,95 -402,133 -184,46 -337,26 -459,-60 -169,-122 -272,-302 -306,-543 -32,-242 -26,-451 19,-635 46,-182 107,-349 183,-500 74,-152 156,-297 240,-440 55,-87 194,-305 422,-656 227,-350 298,-572 216,-663 -65,-65 -173,-74 -322,-29 -152,46 -291,100 -421,157 -83,41 -141,17 -170,-72 -30,-93 -9,-150 65,-177 55,-20 127,-51 219,-95 90,-45 187,-77 287,-92 81,-8 182,-12 305,-12 123,0 226,18 313,60 132,65 210,174 230,330 24,153 2,321 -57,503 -60,179 -113,323 -158,432 -65,156 -146,308 -244,456 -98,146 -197,294 -293,442 -82,124 -157,247 -224,371 -68,122 -119,250 -152,378 -41,146 -50,278 -28,394l0 0 0 0zm6655 -3327c-316,0 -669,201 -1056,604 -386,404 -663,846 -826,1329 -163,483 -204,877 -129,1176 78,300 274,449 590,449 316,0 644,-173 987,-522 344,-346 598,-764 761,-1252 160,-482 225,-901 191,-1254 -31,-352 -204,-530 -518,-530zm-97 -275c480,0 815,206 1006,619 191,411 211,902 60,1470 -155,566 -465,1053 -929,1458 -466,406 -940,610 -1418,610 -480,0 -829,-204 -1045,-610 -218,-405 -249,-892 -94,-1458 150,-575 481,-1075 996,-1496 475,-395 949,-593 1424,-593zm2395 929c464,-165 900,-375 1309,-630 77,-54 208,-68 396,-43 60,10 73,43 41,98 -229,500 -465,995 -704,1488l1544 0c38,-74 86,-170 144,-286 61,-114 174,-304 345,-563 170,-259 300,-458 392,-597 49,-74 161,-110 336,-109 176,1 272,27 286,76 -143,255 -293,511 -448,771 -152,261 -288,509 -410,743 -119,235 -223,453 -310,662 -88,211 -180,420 -276,634 -38,90 -69,192 -90,307 -19,117 -1,211 55,286 87,126 209,162 367,106 39,-12 113,-52 224,-122 113,-70 201,-129 266,-174 56,-11 106,0 149,28 46,26 42,65 -10,111 -136,126 -277,222 -422,291 -147,67 -270,114 -372,139 -221,57 -382,35 -484,-61 -102,-99 -170,-209 -208,-333 -65,-218 -53,-479 30,-783 84,-301 184,-583 302,-843l-1549 0c-329,677 -641,1300 -937,1873 -14,32 -52,53 -110,60 -103,6 -203,13 -304,18 -103,5 -200,-5 -295,-33 -65,-15 -74,-68 -29,-158 78,-169 164,-327 259,-472 95,-144 188,-300 276,-462 167,-310 328,-630 482,-959 156,-331 306,-661 451,-995 5,-15 12,-31 18,-46 7,-13 15,-33 22,-51 21,-56 -22,-56 -135,0 -84,48 -175,96 -272,149 -97,52 -185,89 -260,106 -65,18 -107,-10 -125,-82 -25,-78 -6,-125 56,-144l0 0zm10453 1775c4,-445 106,-855 314,-1231 207,-377 402,-667 585,-871 191,-213 419,-381 686,-509 269,-126 519,-186 753,-176 362,18 608,131 734,337 126,208 175,456 145,745 -26,291 -110,596 -253,919 -139,322 -293,608 -460,856 -256,268 -619,554 -1091,855 -470,303 -958,472 -1464,507 -265,23 -522,-3 -770,-74 -250,-73 -456,-208 -624,-402 -278,-322 -439,-653 -485,-997 -47,-347 -60,-690 -42,-1030 18,-382 90,-755 213,-1123 123,-367 279,-719 466,-1061 -346,-18 -648,-57 -906,-120 -634,-145 -1158,-406 -1567,-783 -410,-377 -614,-805 -614,-1287 0,-599 313,-1115 940,-1541 628,-428 1382,-641 2269,-641 703,0 1309,126 1813,379 83,47 100,101 52,165 -51,63 -115,76 -191,39 -241,-111 -499,-203 -781,-276 -282,-72 -579,-107 -893,-107 -776,0 -1444,191 -1993,571 -554,382 -829,839 -829,1373 0,418 175,794 522,1125 348,334 792,568 1334,704 259,68 594,107 1007,116 278,-464 582,-890 914,-1275 331,-385 630,-709 898,-967 310,-306 664,-584 1056,-833 394,-252 762,-462 1108,-636 177,-89 427,-184 748,-282 322,-100 621,-154 903,-164 313,-9 547,21 699,86 154,63 266,166 332,304 59,127 89,282 90,463 1,184 -60,404 -190,663 -261,533 -752,1037 -1471,1509 -719,476 -1550,846 -2491,1115 -593,177 -1236,275 -1926,300 -191,332 -345,642 -462,933 -58,136 -124,357 -198,654 -76,296 -128,608 -153,933 -29,339 -35,670 -21,991 16,321 138,564 372,726 74,57 175,107 305,154 127,45 262,70 401,70 229,6 454,-31 674,-107 220,-78 417,-158 594,-243 82,-39 296,-202 640,-487 343,-287 616,-592 816,-918 55,-89 125,-242 207,-457 79,-217 134,-437 156,-656 23,-223 -6,-416 -82,-588 -79,-168 -248,-254 -505,-254 -168,4 -347,48 -541,135 -193,88 -367,193 -526,316 -304,233 -530,558 -679,970 -150,413 -243,788 -280,1130 -22,9 -57,42 -107,99 -52,56 -82,63 -95,15 -35,-106 -52,-161 -56,-161l0 0 0 0zm4088 -7430c-285,48 -556,138 -820,266 -262,128 -501,267 -717,416 -452,312 -875,682 -1272,1117 -397,431 -784,921 -1164,1465 -70,104 -140,207 -207,310 -68,103 -134,207 -198,309 789,-38 1402,-120 1837,-246 788,-226 1499,-541 2133,-943 631,-403 1087,-831 1372,-1285 92,-142 175,-326 250,-550 77,-224 77,-416 3,-576 -88,-187 -274,-286 -552,-302 -278,-16 -500,-10 -665,19l0 0 0 0zm1825 5001c-317,0 -669,201 -1056,604 -387,404 -663,846 -826,1329 -163,483 -204,877 -129,1176 77,300 273,449 590,449 315,0 644,-173 987,-522 344,-346 598,-764 761,-1252 160,-482 225,-901 191,-1254 -31,-352 -205,-530 -518,-530zm-98 -275c481,0 816,206 1006,619 191,411 212,902 61,1470 -155,566 -465,1053 -929,1458 -466,406 -940,610 -1420,610 -479,0 -827,-204 -1044,-610 -217,-405 -248,-892 -95,-1458 151,-575 483,-1075 998,-1496 475,-395 949,-593 1423,-593zm4192 456c-315,0 -669,200 -1057,602 -390,403 -664,846 -824,1333 -322,961 -170,1442 463,1442 312,0 660,-180 1040,-547 382,-365 655,-791 821,-1275 160,-482 205,-863 134,-1140 -70,-276 -262,-415 -577,-415zm-100 -285c165,0 325,35 476,104 153,69 261,175 322,313 30,-6 53,-31 69,-74 20,-54 20,-132 0,-231 -21,-100 -47,-208 -74,-325 -72,-264 -178,-484 -319,-668 -140,-181 -235,-365 -280,-550 -59,-235 -81,-464 -69,-686 14,-221 77,-409 183,-555 248,-353 591,-503 1022,-451 432,54 828,61 1186,29 164,-17 277,-66 337,-151 62,-84 121,-144 177,-172 136,-82 215,-85 244,-11 19,55 -17,140 -105,255 -189,239 -329,395 -420,470 -94,75 -273,134 -542,173 -344,54 -687,44 -1030,-28 -341,-70 -587,39 -735,330 -130,259 -127,524 6,797 134,273 272,544 415,819 205,402 295,855 266,1358 -18,343 -90,683 -212,1014 -123,333 -279,630 -466,899 -239,339 -525,635 -855,894 -331,257 -631,384 -901,384 -416,0 -720,-142 -912,-427 -307,-444 -340,-966 -109,-1565 235,-598 535,-1047 901,-1347 482,-398 958,-598 1425,-598l0 0z"/>
   <path class="fil1" d="M59120 23787c242,-78 418,-141 525,-190 108,-49 288,-146 540,-292 93,-49 229,-63 407,-40 53,9 61,40 21,96 -193,313 -396,622 -607,930 -213,311 -416,616 -610,917 -38,65 -111,194 -213,386 -104,191 -189,386 -254,579 -57,176 -82,328 -69,454 9,127 94,185 250,176 154,-10 304,-67 449,-175 147,-105 285,-223 413,-353 287,-282 489,-547 606,-803 -155,-60 -230,-207 -230,-439 0,-305 106,-457 322,-457 210,0 318,152 318,457 0,9 0,19 0,28 0,11 0,19 0,28 120,9 259,-47 415,-164 155,-119 311,-252 465,-401 215,-204 423,-445 623,-723 55,-74 105,-144 152,-207 47,-65 88,-121 125,-168 37,-49 113,-77 228,-83 115,-7 219,0 307,18 92,21 140,48 147,79 -151,238 -300,472 -448,704 -151,232 -299,464 -446,695 -130,209 -256,420 -378,629 -125,210 -242,426 -351,644 -43,86 -76,186 -101,296 -25,113 -12,204 42,278 79,121 200,155 362,97 39,-8 114,-45 229,-112 116,-66 209,-122 276,-169 57,-9 108,-1 150,25 45,26 39,62 -17,110 -142,120 -287,214 -435,281 -150,69 -276,115 -377,140 -225,52 -385,31 -486,-62 -97,-95 -160,-202 -188,-323 -65,-231 -37,-507 80,-827 121,-320 244,-607 377,-864 -159,121 -317,220 -470,299 -154,79 -285,112 -393,100 -14,19 -29,34 -45,45 -92,328 -368,694 -825,1098 -458,405 -842,581 -1144,524 -130,-21 -234,-106 -312,-250 -78,-145 -117,-313 -117,-505 -4,-213 35,-430 112,-652 79,-218 156,-387 230,-506 228,-365 457,-741 686,-1130 15,-22 35,-54 61,-98 31,-55 -17,-55 -139,0 -91,46 -133,72 -121,76 9,4 -26,18 -105,35 -65,13 -104,-14 -116,-82 -8,-75 17,-124 79,-149l0 0zm10510 -256c-32,-95 -149,-122 -356,-79 -150,38 -305,93 -462,168 -159,74 -252,118 -279,135 -497,282 -860,692 -1099,1226 -129,288 -269,595 -421,922 -152,328 -294,616 -422,867 -56,104 -98,179 -122,224 -26,46 -76,59 -147,39l-460 -5c-22,4 -47,-18 -72,-64 -26,-46 -24,-106 2,-181 100,-210 240,-482 422,-815 184,-330 366,-673 552,-1023 136,-269 265,-530 383,-786 117,-255 159,-459 129,-610 -31,-114 -133,-152 -305,-111 -150,35 -303,93 -462,179 -155,84 -248,138 -275,155 -103,54 -208,124 -320,206 -110,81 -214,162 -313,244 -297,252 -543,576 -732,968 -139,278 -286,575 -441,891 -155,317 -301,612 -440,889 -19,35 -57,54 -114,54 -104,9 -204,16 -307,21 -100,5 -199,-8 -289,-35 -64,-16 -76,-69 -33,-157 81,-168 175,-344 287,-533 114,-188 213,-365 299,-529 308,-569 609,-1196 908,-1886 5,-14 12,-31 18,-46 7,-17 14,-36 25,-55 19,-52 -25,-49 -134,5 -87,43 -178,91 -275,146 -98,54 -185,89 -262,109 -63,15 -105,-13 -123,-85 -25,-76 -6,-123 56,-143 229,-79 445,-167 649,-259 203,-93 421,-212 650,-356 83,-55 216,-66 396,-42 9,9 14,27 14,57 0,32 11,46 28,46 -50,110 -93,204 -134,283 -39,79 -83,173 -131,281 -91,188 -63,218 85,89 203,-179 363,-302 476,-367 95,-52 223,-120 387,-203 164,-83 332,-143 507,-177 280,-52 488,-27 623,74 91,74 155,196 188,367 7,32 13,84 20,152 3,119 58,139 165,50 148,-126 274,-218 378,-276 93,-58 225,-120 392,-193 170,-72 342,-127 518,-159 272,-54 482,-30 627,74 97,78 168,198 211,365 63,258 51,498 -32,718 -100,271 -247,547 -435,825 -190,278 -360,600 -510,968 -93,213 -133,358 -126,437 10,80 38,134 84,160 54,39 113,56 174,46 59,-8 161,-64 306,-167 25,-15 61,-39 113,-72 51,-34 95,-39 131,-16 38,30 62,71 73,130 9,60 -15,108 -73,144 -165,110 -301,186 -406,218 -104,35 -216,51 -335,48 -254,0 -413,-118 -485,-357 -47,-136 -67,-286 -65,-448 3,-164 18,-294 46,-396 93,-328 230,-641 410,-941 74,-126 156,-252 244,-378 91,-123 172,-248 241,-367 166,-272 226,-493 180,-663l0 0 0 0zm1155 3053c29,174 130,238 298,191 175,-47 389,-133 641,-261 251,-128 446,-246 581,-350 74,-56 175,-134 306,-230 130,-97 225,-167 278,-210 197,-463 417,-930 668,-1400 251,-468 451,-820 603,-1050 48,-75 162,-112 339,-110 177,1 270,29 283,80l-1443 2815c-47,84 -78,186 -94,300 -18,118 2,214 56,292 86,129 209,163 370,100 36,-11 110,-52 223,-119 113,-68 201,-125 266,-173 57,-12 109,-5 152,25 43,27 39,63 -11,110 -137,126 -279,225 -426,294 -146,69 -268,117 -370,141 -221,56 -383,34 -484,-63 -102,-100 -169,-209 -204,-329 -50,-158 -57,-344 -22,-557 -96,78 -234,180 -412,309 -177,127 -327,231 -446,312 -130,82 -269,150 -415,201 -147,51 -282,95 -402,133 -186,46 -337,26 -461,-60 -170,-122 -270,-302 -305,-543 -33,-242 -26,-451 19,-635 46,-182 107,-349 183,-500 75,-152 156,-297 241,-440 53,-87 192,-305 421,-656 227,-350 298,-572 217,-663 -65,-65 -174,-74 -323,-29 -152,46 -292,100 -422,157 -83,41 -139,17 -170,-72 -31,-93 -9,-150 65,-177 56,-20 129,-51 220,-95 89,-45 187,-77 287,-92 80,-8 182,-12 304,-12 124,0 228,18 314,60 131,65 208,174 231,330 22,153 2,321 -58,503 -60,179 -112,323 -159,432 -65,156 -145,308 -244,456 -97,146 -195,294 -291,442 -82,124 -157,247 -226,371 -67,122 -118,250 -152,378 -40,146 -49,278 -26,394l0 0 0 0zm4440 38c31,174 129,236 295,190 80,-19 209,-74 383,-166 200,-104 442,-243 728,-422 283,-179 518,-340 701,-482 195,-464 416,-931 665,-1398 248,-470 448,-821 600,-1053 48,-73 163,-109 338,-105 178,2 274,28 290,79l-1447 2811c-48,87 -80,187 -98,305 -15,118 3,213 59,287 89,130 213,165 369,103 37,-13 113,-53 226,-120 114,-68 203,-127 268,-172 54,-12 104,-4 149,23 45,27 41,65 -12,110 -137,130 -279,230 -426,298 -147,69 -269,115 -367,143 -222,56 -384,32 -485,-66 -104,-102 -172,-212 -206,-333 -49,-156 -57,-342 -23,-555 -175,139 -446,321 -809,545 -365,223 -654,366 -865,427 -176,45 -329,27 -463,-60 -167,-117 -269,-296 -304,-539 -32,-243 -27,-456 20,-636 45,-182 107,-349 182,-499 75,-151 157,-296 241,-439 53,-90 192,-307 421,-658 227,-349 297,-567 216,-662 -64,-68 -173,-79 -321,-31 -152,47 -292,97 -422,157 -84,40 -139,16 -169,-75 -31,-89 -8,-147 67,-176 57,-18 130,-50 217,-95 90,-44 185,-74 287,-89 80,-11 182,-16 304,-16 124,0 230,22 319,61 127,68 203,177 226,329 23,158 6,326 -55,504 -62,180 -114,326 -158,438 -65,157 -147,309 -247,454 -99,147 -196,295 -294,438 -192,298 -318,547 -377,752 -42,148 -50,279 -23,392l0 0 0 1zm3897 -5081c0,231 -117,424 -352,577 -236,151 -494,229 -778,229 -285,0 -548,-75 -790,-220 -242,-147 -362,-336 -362,-568 0,-195 104,-280 313,-254 157,17 244,93 262,224 7,43 -10,85 -49,125 -42,42 -60,94 -60,155 0,93 75,171 225,236 150,65 305,98 461,98 154,0 304,-35 448,-106 143,-71 216,-153 216,-246 0,-47 -21,-93 -64,-137 -43,-45 -60,-87 -51,-128 9,-64 55,-119 132,-165 78,-43 141,-68 187,-74 39,-6 94,11 162,48 68,35 100,104 100,206l0 0z"/>
  </g>
  <polygon class="fil2 str0" points="4698,146 5816,2465 9459,2460 6508,3889 7640,6205 4698,4769 1755,6205 2887,3889 -63,2460 3578,2465 "/>
  <polygon class="fil2 str0" points="33554,12768 34157,14016 36117,14014 34529,14783 35138,16030 33554,15257 31971,16030 32580,14783 30993,14014 32953,14016 "/>
  <polygon class="fil2 str0" points="79283,25427 79797,26492 81469,26490 80114,27146 80634,28209 79283,27550 77932,28209 78452,27146 77097,26490 78769,26492 "/>
  <polygon class="fil2 str0" points="77127,15823 78083,17805 81197,17801 78674,19023 79642,21002 77127,19775 74612,21002 75579,19023 73058,17801 76171,17805 "/>
  <polygon class="fil3" points="3252,25403 3892,26730 5976,26727 4287,27544 4935,28870 3252,28048 1568,28870 2216,27544 527,26727 2611,26730 "/>
  <polygon class="fil3" points="78190,4466 78871,5877 81087,5874 79291,6743 79980,8152 78190,7279 76400,8152 77089,6743 75294,5874 77509,5877 "/>
  <polygon class="fil3" points="28315,3820 29159,5570 31908,5567 29681,6645 30535,8393 28315,7309 26094,8393 26948,6645 24722,5567 27470,5570 "/>
 </g>
</svg>
