<?xml version="1.0" encoding="UTF-8"?>
<!DOCTYPE svg PUBLIC "-//W3C//DTD SVG 1.1//EN" "http://www.w3.org/Graphics/SVG/1.1/DTD/svg11.dtd">
<!-- Creator: CorelDRAW 2017 -->
<svg xmlns="http://www.w3.org/2000/svg" xml:space="preserve" width="118.533mm" height="118.533mm" version="1.1" style="shape-rendering:geometricPrecision; text-rendering:geometricPrecision; image-rendering:optimizeQuality; fill-rule:evenodd; clip-rule:evenodd"
viewBox="0 0 11853.32 11853.32"
 xmlns:xlink="http://www.w3.org/1999/xlink">
 <defs>
  <style type="text/css">
   <![CDATA[
    .str0 {stroke:#7A9E9E;stroke-width:330.66;stroke-miterlimit:22.9256}
    .fil8 {fill:#C5C6C6}
    .fil2 {fill:black}
    .fil9 {fill:#660066}
    .fil0 {fill:#669999}
    .fil6 {fill:#779F9E}
    .fil3 {fill:#7A9E9E}
    .fil7 {fill:#FAFFFD}
    .fil1 {fill:#FCD5A6}
    .fil4 {fill:red}
    .fil5 {fill:#FFCC99}
   ]]>
  </style>
 </defs>
 <g id="Слой_x0020_1">
  <metadata id="CorelCorpID_0Corel-Layer"/>
  <path class="fil0" d="M1335.55 8304.15c60.36,-25.87 172.45,-25.87 258.68,-25.87l258.68 -25.87c0,-232.82 -25.87,-482.87 -25.87,-715.68l-232.82 -3690.51c0,-172.45 -86.22,-1457.23 -60.36,-1517.59 -60.35,-60.36 -86.22,-1371.01 -112.09,-1569.33l-60.36 0c-86.23,25.87 -888.14,60.36 -1060.59,86.23 -60.36,310.42 60.36,1491.72 86.23,1862.5 86.22,1569.32 146.58,3147.27 258.68,4716.6 25.87,284.55 60.36,603.58 86.22,914l603.59 -25.87 0 0 0 0 0.01 -8.61z"/>
  <path class="fil1" d="M8311.29 2871.86c-25.87,146.59 -25.87,258.68 -25.87,396.65 60.36,776.04 655.32,1457.23 1483.09,1569.32 603.59,86.23 1146.82,-146.58 1457.24,-482.87 60.36,-25.87 60.36,-60.36 112.09,-112.09 60.36,-60.36 146.59,-172.46 172.46,-258.68 146.58,-232.82 172.45,-370.78 232.81,-655.33l0 -344.9c-198.32,0 -1491.72,-112.1 -1655.55,-146.59 -310.42,-25.87 -974.36,-112.09 -1233.04,-310.41l-112.1 -86.23 0 -25.87c-25.87,112.1 -284.55,431.14 -431.13,457l0 0 0 0z"/>
  <path class="fil2" d="M9346.01 1587.09c-405.27,172.45 -715.68,482.87 -888.14,827.77 -25.87,86.23 -60.36,146.59 -86.22,198.32 -25.87,60.36 -25.87,86.23 -25.87,112.1 -25.87,60.36 -25.87,86.22 -25.87,146.58 146.58,-25.87 396.64,-344.9 431.13,-457l0 25.87 112.1 86.23c258.68,198.32 914,284.55 1233.04,310.41 172.45,25.87 1457.23,146.59 1655.55,146.59 -25.87,-60.36 -25.87,-146.59 -60.36,-224.19 -25.87,-146.59 -146.58,-405.27 -232.81,-517.36 -396.64,-655.32 -1319.27,-974.36 -2121.18,-655.32l0 0 0 0 8.63 0z"/>
  <path class="fil3" d="M361.19 9735.51l2543.68 0 -25.87 -232.82 -1888.36 0c-86.22,0 -86.22,25.87 -86.22,60.36l25.87 0c60.35,0 0,0 60.35,-25.87l1776.28 0c25.87,25.87 0,25.87 0,25.87l-1715.92 0c-25.87,0 -25.87,-25.87 -25.87,0l60.36 25.87 1629.69 0c86.23,0 0,25.87 86.23,25.87l0 -25.87 25.86 0c0,-25.87 0,-25.87 25.87,-25.87l0 60.36c-60.35,25.87 0,0 -60.35,0l-2319.5 0 25.87 -25.87 146.58 0c-25.87,-25.87 -25.87,0 -86.22,-60.36l0 -60.36c0,-25.87 0,0 -25.87,-25.87 0,0 0,25.87 0,0l0 -370.77c0,-86.23 0,-25.87 25.87,-60.36l0 -431.13c0,-60.36 25.87,-689.82 -25.87,-715.69 -25.87,-86.22 0,-25.86 0,-112.09 0,-60.36 -25.87,-25.87 -25.87,-172.46l60.36 0 0 198.33c0,86.22 0,60.36 25.87,86.22l0 -914c-60.36,0 -284.55,-25.87 -344.91,0 25.87,198.32 0,482.87 0,689.81 0,284.55 -25.87,1655.56 0,1802.14 25.87,172.46 86.23,198.32 112.1,284.55l0 0 0 0 -0.01 0.01z"/>
  <path class="fil4" d="M3223.91 9450.96l-60.36 25.87c-146.58,60.36 -146.58,86.23 -146.58,172.46 -25.87,60.35 -25.87,60.35 -60.36,86.22l86.23 0c25.87,-112.09 0,-172.45 112.09,-198.32l-25.87 198.32 2034.95 0c25.87,-258.68 -172.45,-405.26 -370.77,-482.87l-344.91 -86.23c-258.68,-60.35 -396.64,0 -431.13,-25.86 -86.23,0 -198.32,25.86 -258.68,60.35 -60.36,0 -86.23,0 -86.23,60.36 -25.87,60.36 -25.87,172.46 -198.32,198.32l-258.68 0 0 0 8.62 -8.62z"/>
  <path class="fil5" d="M4025.82 9131.92c25.87,25.87 172.45,-25.87 431.13,25.87l344.91 86.23c198.32,86.22 396.64,232.81 370.78,482.87l344.9 0c0,-86.23 25.87,-146.59 25.87,-232.82l0 -232.81c0,-60.36 0,-396.64 -25.87,-431.13l0 112.09c-112.09,-60.36 -198.32,-86.22 -370.77,-112.09 -146.59,-25.87 -310.42,0 -457.01,25.87 -146.58,25.87 -232.81,60.35 -344.9,112.09 -112.1,60.36 -198.32,146.59 -224.19,146.59l-86.23 0 0 0 -8.62 17.24z"/>
  <path class="fil6" d="M904.42 9563.06c-112.1,-25.87 -224.2,-60.36 -310.42,-112.1l0 -1569.33c-25.87,-25.87 -25.87,0 -25.87,-86.22l0 -198.32 -60.36 0c0,146.58 25.87,112.09 25.87,172.45 0,86.23 -25.87,25.87 0,112.1 60.36,25.87 25.87,655.32 25.87,715.68l0 431.13c-25.87,25.87 -25.87,-25.87 -25.87,60.36l0 370.78c0,25.87 0,0 0,0 25.87,25.87 25.87,0 25.87,25.87l0 60.36c60.36,60.36 60.36,25.87 86.23,60.36l-146.59 0 -25.87 25.87 2319.5 0c60.36,0 0,25.87 60.36,0l0 -60.36c-25.87,0 -25.87,0 -25.87,25.87l-25.87 0 0 25.87c-86.23,0 0,-25.87 -86.23,-25.87l-1629.68 0 -60.36 -25.87c0,-25.87 0,0 25.87,0l1715.91 0c0,0 25.87,0 0,-25.87l-1776.27 0c-60.36,25.87 0,25.87 -60.36,25.87l-25.87 0 0 0 0.01 -8.63z"/>
  <path class="fil7" d="M3051.46 9735.51l86.22 0 25.87 -198.32c-112.09,25.87 -86.22,86.22 -112.09,198.32z"/>
  <polygon class="fil8 str0" points="1421.78,836.92 5508.92,1466.37 5827.96,6562.37 1852.91,8131.69 "/>
  <path class="fil9" d="M9113.2 5243.1l1836.62 0c172.46,0 310.42,137.96 310.42,310.41l0 4552.77c0,172.46 -137.96,310.42 -310.42,310.42l-1836.62 0c-172.46,0 -310.42,-137.96 -310.42,-310.42l0 -4552.77c0,-172.45 137.96,-310.41 310.42,-310.41z"/>
  <polygon class="fil9" points="8828.65,7243.56 11268.86,7243.56 11268.86,10597.78 8828.65,10597.78 "/>
  <polygon class="fil9" points="5655.51,8649.05 7716.32,7364.27 9259.78,5648.37 9889.24,6933.14 8285.42,8450.73 5681.37,9795.87 "/>
 </g>
</svg>
