<?xml version="1.0" encoding="UTF-8"?>
<!DOCTYPE svg PUBLIC "-//W3C//DTD SVG 1.1//EN" "http://www.w3.org/Graphics/SVG/1.1/DTD/svg11.dtd">
<!-- Creator: CorelDRAW 2017 -->
<svg xmlns="http://www.w3.org/2000/svg" xml:space="preserve" width="118.533mm" height="118.533mm" version="1.1" style="shape-rendering:geometricPrecision; text-rendering:geometricPrecision; image-rendering:optimizeQuality; fill-rule:evenodd; clip-rule:evenodd"
viewBox="0 0 11853.32 11853.32"
 xmlns:xlink="http://www.w3.org/1999/xlink">
 <defs>
  <style type="text/css">
   <![CDATA[
    .str0 {stroke:#5B5D5E;stroke-width:169.33;stroke-miterlimit:22.9256}
    .str4 {stroke:#4D4D4D;stroke-width:42.33;stroke-miterlimit:22.9256}
    .str1 {stroke:black;stroke-width:20;stroke-miterlimit:22.9256}
    .str6 {stroke:#00AEBE;stroke-width:7.62;stroke-miterlimit:22.9256}
    .str3 {stroke:#1793E6;stroke-width:7.62;stroke-miterlimit:22.9256}
    .str2 {stroke:#2792E4;stroke-width:7.62;stroke-miterlimit:22.9256}
    .str5 {stroke:#DD0B29;stroke-width:7.62;stroke-miterlimit:22.9256}
    .fil7 {fill:none}
    .fil0 {fill:black}
    .fil8 {fill:#1A1A1A}
    .fil5 {fill:#2792E4}
    .fil12 {fill:#333333}
    .fil2 {fill:#5B5D5E}
    .fil17 {fill:#5FAD2F}
    .fil13 {fill:#663333}
    .fil9 {fill:#666666}
    .fil11 {fill:#990000}
    .fil3 {fill:#999999}
    .fil18 {fill:#DD0B29}
    .fil16 {fill:#E62B2B}
    .fil6 {fill:#FCD5A6}
    .fil10 {fill:red}
    .fil19 {fill:#FFDD00}
    .fil1 {fill:white}
    .fil15 {fill:black;fill-rule:nonzero}
    .fil4 {fill:#2792E4;fill-rule:nonzero}
    .fil14 {fill:white;fill-rule:nonzero}
   ]]>
  </style>
   <clipPath id="id0">
    <path d="M6547.87 8187.53l41.18 0 0 -9.51 -41.18 0 0 9.51z"/>
   </clipPath>
   <clipPath id="id1">
    <path d="M6555.78 8179.6l41.18 0 0 -9.49 -41.18 0 0 9.49z"/>
   </clipPath>
   <clipPath id="id2">
    <path d="M6563.08 8172.38l34.1 0 0 -10.44 -34.1 0 0 10.44z"/>
   </clipPath>
   <clipPath id="id3">
    <path d="M6563.71 8163.77l41.15 0 0 -9.51 -41.15 0 0 9.51z"/>
   </clipPath>
   <clipPath id="id4">
    <path d="M6571.62 8155.84l41.16 0 0 -9.49 -41.16 0 0 9.49z"/>
   </clipPath>
   <clipPath id="id5">
    <path d="M6579.54 8147.93l41.17 0 0 -9.5 -41.17 0 0 9.5z"/>
   </clipPath>
   <clipPath id="id6">
    <path d="M6586.78 8140.61l34.1 0 0 -10.41 -34.1 0 0 10.41z"/>
   </clipPath>
   <clipPath id="id7">
    <path d="M6587.45 8132.11l41.17 0 0 -9.51 -41.17 0 0 9.51z"/>
   </clipPath>
   <clipPath id="id8">
    <path d="M5394.41 8205.9l42.02 0 0 -10.44 -42.02 0 0 10.44z"/>
   </clipPath>
   <clipPath id="id9">
    <path d="M6595.37 8124.18l41.17 0 0 -9.49 -41.17 0 0 9.49z"/>
   </clipPath>
   <clipPath id="id10">
    <path d="M6602.57 8116.79l34.11 0 0 -10.45 -34.11 0 0 10.45z"/>
   </clipPath>
   <clipPath id="id11">
    <path d="M6611.2 8108.35l25.34 0 0 -9.5 -25.34 0 0 9.5z"/>
   </clipPath>
   <clipPath id="id12">
    <path d="M5394.41 8182.09l26.2 0 0 -10.44 -26.2 0 0 10.44z"/>
   </clipPath>
   <clipPath id="id13">
    <path d="M6610.48 8100.93l18.31 0 0 -10.45 -18.31 0 0 10.45z"/>
   </clipPath>
   <clipPath id="id14">
    <path d="M6611.2 8092.51l9.51 0 0 -9.49 -9.51 0 0 9.49z"/>
   </clipPath>
   <clipPath id="id15">
    <path d="M6602.57 8085.04l10.41 0 0 -18.39 -10.41 0 0 18.39z"/>
   </clipPath>
   <clipPath id="id16">
    <path d="M6595.37 8068.77l9.49 0 0 -9.51 -9.49 0 0 9.51z"/>
   </clipPath>
   <clipPath id="id17">
    <path d="M6442.3 8247.83l45.12 0 0 -10.43 -45.12 0 0 10.43z"/>
   </clipPath>
   <clipPath id="id18">
    <path d="M6450.79 8239.9l36.63 0 0 -18.4 -36.63 0 0 18.4z"/>
   </clipPath>
   <clipPath id="id19">
    <path d="M6459.28 8224.03l28.14 0 0 -10.43 -28.14 0 0 10.43z"/>
   </clipPath>
 </defs>
 <g id="Layer_x0020_1">
  <metadata id="CorelCorpID_0Corel-Layer"/>
  <path class="fil0 str0" d="M2139.75 231.34l7467.99 0c494.3,0 895.16,395.09 895.16,882.29l0 9590.72c0,487.18 -400.86,882.27 -895.16,882.27l-7467.99 0.01c-494.29,-0.01 -895.16,-395.1 -895.16,-882.29l-0.01 -9590.71c0.01,-487.2 400.88,-882.29 895.18,-882.29l-0.01 0z"/>
  <rect class="fil1 str1" x="1576.12" y="1031.95" width="8644.95" height="9460.01"/>
  <ellipse class="fil2 str1" cx="5857.51" cy="10990.95" rx="497.5" ry="498.4"/>
  <path class="fil3 str1" d="M4965.45 496.57l1882.89 0c54.55,0 98.77,45.55 98.77,101.75l0 0.01c0,56.19 -44.22,101.76 -98.77,101.76l-1882.89 0c-54.54,0 -98.76,-45.57 -98.76,-101.76l-0.01 -0.01c0.01,-56.2 44.23,-101.75 98.78,-101.75l-0.01 0z"/>
  <path class="fil4 str2" d="M1944.97 5932.24l0 -713.79 144.54 0 0 281.13 281.14 0 0 -281.13 144.55 0 0 713.79 -144.55 0 0 -312.03 -281.14 0 0 312.03 -144.54 0zm690.01 -352.58c0,-72.77 10.97,-133.91 32.74,-183.43 16.1,-36.38 38.38,-69.11 66.45,-98.03 28.09,-28.91 58.82,-50.34 92.23,-64.46 44.52,-18.78 95.87,-28.26 154.01,-28.26 105.34,0 189.42,32.73 252.71,98.04 63.14,65.47 94.73,156.35 94.73,272.82 0,115.47 -31.41,205.87 -94.06,270.99 -62.63,65.3 -146.54,97.87 -251.37,97.87 -106.18,0 -190.76,-32.41 -253.4,-97.37 -62.63,-64.8 -94.04,-154.19 -94.04,-268.17zm148.53 -4.81c0,80.91 18.78,142.22 56.16,184.1 37.39,41.7 84.91,62.63 142.41,62.63 57.64,0 104.83,-20.77 141.88,-62.13 36.88,-41.55 55.33,-103.69 55.33,-186.6 0,-81.91 -17.95,-143.05 -54,-183.28 -35.9,-40.37 -83.58,-60.46 -143.21,-60.46 -59.49,0 -107.51,20.44 -143.91,61.14 -36.37,40.88 -54.66,102.34 -54.66,184.6zm656.79 -356.4l285.45 0c56.65,0 98.69,2.33 126.43,6.98 27.91,4.82 52.67,14.62 74.62,29.4 21.93,14.96 40.19,34.73 54.81,59.48 14.63,24.77 21.94,52.67 21.94,83.42 0,33.23 -8.97,63.96 -26.92,91.71 -17.94,27.92 -42.36,48.68 -73.11,62.65 43.38,12.79 76.6,34.38 100.03,64.95 23.25,30.58 34.89,66.48 34.89,107.83 0,32.58 -7.48,64.13 -22.6,94.88 -15.11,30.74 -35.72,55.34 -61.97,73.77 -26.09,18.27 -58.31,29.58 -96.7,33.9 -23.93,2.49 -81.91,4.16 -173.8,4.82l-243.07 0 0 -713.79zm144.55 118.62l0 164.5 94.37 0c56,0 90.89,-0.82 104.51,-2.49 24.59,-2.83 44.03,-11.31 58.16,-25.42 14.11,-14.12 21.09,-32.57 21.09,-55.49 0,-22.1 -6.15,-39.88 -18.26,-53.67 -12.14,-13.8 -30.24,-22.1 -54.17,-24.93 -14.29,-1.66 -55.33,-2.5 -122.96,-2.5l-82.74 0zm0 283.14l0 191.4 133.58 0c51.85,0 84.9,-1.5 98.86,-4.31 21.45,-3.99 38.88,-13.46 52.34,-28.59 13.45,-15.29 20.28,-35.38 20.28,-60.81 0,-21.6 -5.16,-39.71 -15.61,-54.67 -10.31,-14.95 -25.43,-25.92 -45.05,-32.73 -19.6,-6.8 -62.29,-10.29 -127.93,-10.29l-116.47 0zm1168.71 312.03l-155.68 0 -61.65 -162.5 -286.26 0 -59.33 162.5 -152.86 0 277.14 -713.79 152.7 0 285.94 713.79zm-264.17 -283.12l-99.21 -264.19 -96.36 264.19 195.57 0zm767.78 283.12l0 -298.07 -29.25 0c-45.69,0 -77.76,6.79 -96.53,20.44 -18.77,13.45 -50.68,54.16 -96.04,121.78l-103.35 155.85 -172.29 0 87.06 -139.24c34.22,-55.34 61.64,-94.04 81.91,-116.14 20.44,-22.25 46.03,-42.19 76.59,-59.65 -66.28,-10.46 -114.13,-33.56 -143.55,-69.45 -29.4,-35.89 -44.19,-78.75 -44.19,-128.77 0,-43.53 10.96,-82.09 32.9,-115.63 21.93,-33.57 50.83,-56.17 86.73,-67.62 35.88,-11.47 89.55,-17.29 160.99,-17.29l303.56 0 0 713.79 -144.54 0zm0 -593.16l-112.48 0c-57.17,0 -94.72,1.33 -112.66,3.81 -17.94,2.66 -33.55,11.48 -46.52,26.42 -12.95,14.97 -19.44,34.4 -19.44,58.5 0,25.09 6.32,45.02 18.77,59.81 12.47,14.78 28.42,23.92 47.7,27.57 19.25,3.5 58.64,5.32 117.95,5.32l106.68 0 0 -181.43zm668.59 73.76l-140.56 -32.88c30.24,-116.32 116.13,-174.48 257.71,-174.48 83.73,0 147.04,18.46 189.74,55.34 42.69,36.88 63.96,80.25 63.96,130.09 0,34.07 -9.8,64.81 -29.25,92.39 -19.44,27.4 -48.68,51.49 -87.56,72.43 47.19,16.29 82.75,39.22 106.34,68.97 23.6,29.91 35.39,66.45 35.39,110.14 0,62.81 -22.93,113.49 -68.95,152.2 -45.86,38.72 -114.65,58.16 -206.2,58.16 -74.6,0 -133.57,-12.48 -176.77,-37.38 -43.21,-24.93 -75.6,-71.62 -97.38,-140.08l131.6 -42.87c13.63,43.04 31.9,70.96 54.49,83.57 22.59,12.81 50.51,19.12 83.73,19.12 45.54,0 78.77,-9.79 99.71,-29.58 20.77,-19.76 31.23,-42.36 31.23,-67.94 0,-29.26 -11.79,-53.01 -35.38,-70.95 -23.44,-17.95 -58.99,-26.91 -106.35,-26.91l-32.73 0 0 -107.67 16.45 0c44.04,0 77.77,-9.98 101.03,-29.74 23.42,-19.78 35.05,-46.2 35.05,-78.93 0,-26.09 -9.46,-48.02 -28.42,-65.96 -18.94,-17.78 -46.02,-26.76 -81.23,-26.76 -60.31,0 -98.86,29.91 -115.65,89.72zm1165.88 519.4l-155.68 0 -61.64 -162.5 -286.28 0 -59.33 162.5 -152.85 0 277.14 -713.79 152.69 0 285.95 713.79zm-264.17 -283.12l-99.2 -264.19 -96.37 264.19 195.57 0zm767.78 283.12l0 -298.07 -29.25 0c-45.68,0 -77.76,6.79 -96.53,20.44 -18.77,13.45 -50.68,54.16 -96.04,121.78l-103.35 155.85 -172.29 0 87.06 -139.24c34.22,-55.34 61.64,-94.04 81.9,-116.14 20.44,-22.25 46.03,-42.19 76.6,-59.65 -66.28,-10.46 -114.13,-33.56 -143.55,-69.45 -29.4,-35.89 -44.19,-78.75 -44.19,-128.77 0,-43.53 10.96,-82.09 32.89,-115.63 21.95,-33.57 50.84,-56.17 86.74,-67.62 35.89,-11.47 89.56,-17.29 161,-17.29l303.55 0 0 713.79 -144.54 0zm0 -593.16l-112.48 0c-57.16,0 -94.72,1.33 -112.66,3.81 -17.95,2.66 -33.56,11.48 -46.52,26.42 -12.95,14.97 -19.44,34.4 -19.44,58.5 0,25.09 6.31,45.02 18.78,59.81 12.46,14.78 28.41,23.92 47.68,27.57 19.26,3.5 58.66,5.32 117.96,5.32l106.68 0 0 -181.43zm289.95 -120.63l285.43 0c56.65,0 98.69,2.33 126.44,6.98 27.91,4.82 52.67,14.62 74.61,29.4 21.92,14.96 40.19,34.73 54.82,59.48 14.63,24.77 21.94,52.67 21.94,83.42 0,33.23 -8.98,63.96 -26.92,91.71 -17.94,27.92 -42.37,48.68 -73.11,62.65 43.37,12.79 76.6,34.38 100.03,64.95 23.25,30.58 34.88,66.48 34.88,107.83 0,32.58 -7.47,64.13 -22.6,94.88 -15.11,30.74 -35.71,55.34 -61.96,73.77 -26.09,18.27 -58.32,29.58 -96.7,33.9 -23.93,2.49 -81.93,4.16 -173.8,4.82l-243.06 0 0 -713.79zm144.54 118.62l0 164.5 94.37 0c56,0 90.88,-0.82 104.51,-2.49 24.59,-2.83 44.02,-11.31 58.15,-25.42 14.12,-14.12 21.1,-32.57 21.1,-55.49 0,-22.1 -6.15,-39.88 -18.28,-53.67 -12.11,-13.8 -30.22,-22.1 -54.16,-24.93 -14.29,-1.66 -55.32,-2.5 -122.97,-2.5l-82.72 0zm0 283.14l0 191.4 133.57 0c51.85,0 84.91,-1.5 98.86,-4.31 21.45,-3.99 38.89,-13.46 52.34,-28.59 13.46,-15.29 20.29,-35.38 20.29,-60.81 0,-21.6 -5.15,-39.71 -15.62,-54.67 -10.32,-14.95 -25.43,-25.92 -45.04,-32.73 -19.6,-6.8 -62.31,-10.29 -127.94,-10.29l-116.46 0zm577.35 -401.76l144.56 0 0 304.05c32.05,-3.32 53.81,-11.45 65.13,-24.91 11.3,-13.29 28.9,-50.35 52.5,-111.17 29.74,-77.24 59.81,-125.43 89.87,-144.21 29.91,-18.78 77.93,-28.25 144.4,-28.25 3.32,0 10.3,-0.17 20.94,-0.49l0 106.67 -20.45 -0.5c-29.57,0 -51.16,3.65 -64.78,10.97 -13.63,7.3 -24.61,18.43 -33.08,33.38 -8.47,14.96 -20.93,45.71 -37.38,92.23 -8.8,24.76 -18.27,45.35 -28.58,61.96 -10.13,16.61 -28.24,32.24 -54.16,46.86 32.07,8.97 58.48,27.42 79.41,54.99 20.94,27.59 43.88,66.46 68.79,116.8l97.19 195.41 -169.47 0 -85.55 -183.77c-1.33,-2.66 -4.16,-7.64 -8.32,-15.11 -1.66,-2.5 -7.64,-13.79 -17.94,-33.57 -18.28,-35.22 -33.24,-57.15 -44.87,-65.96 -11.79,-8.8 -29.56,-13.3 -53.65,-13.62l0 312.03 -144.56 0 0 -713.79zm1249.44 713.79l-155.69 0 -61.63 -162.5 -286.29 0 -59.31 162.5 -152.85 0 277.13 -713.79 152.69 0 285.95 713.79zm-264.17 -283.12l-99.2 -264.19 -96.37 264.19 195.57 0z"/>
  <rect class="fil5 str3" x="2189.46" y="6141.41" width="7128.15" height="42.33"/>
  <rect class="fil1" x="5269.56" y="7906.69" width="1317.09" height="1922.66"/>
  <path class="fil6" d="M5944.94 6336.43c434.69,0 787.03,352.38 787.03,787.1 0,434.66 -352.34,787.04 -787.03,787.04 -34.24,0 -67.96,-2.19 -101.05,-6.43 -386.97,-49.6 -686.02,-380.18 -686.02,-780.61 0,-434.73 352.37,-787.08 787.07,-787.1z"/>
  <path class="fil0" d="M5944.94 6336.43c355.23,0 655.38,235.38 753.27,558.67 13.86,158.01 -805.37,-78.26 -1004.89,-385.92 -42.26,54.49 -413.78,348.96 -495.59,366.52 103.85,-313.3 399.11,-539.25 747.21,-539.27z"/>
  <g>
  </g>
  <g style="clip-path:url(#id0)">
   <g>
   </g>
  </g>
  <polygon class="fil7" points="6547.87,8187.53 6589.05,8187.53 6589.05,8178.02 6547.87,8178.02 "/>
  <polygon class="fil7" points="6547.87,8187.53 6589.05,8187.53 6589.05,8178.02 6547.87,8178.02 "/>
  <polygon class="fil7" points="6547.87,8187.53 6589.05,8187.53 6589.05,8178.02 6547.87,8178.02 "/>
  <polygon class="fil7" points="6547.87,8187.53 6589.05,8187.53 6589.05,8178.02 6547.87,8178.02 "/>
  <polygon class="fil7" points="6547.87,8187.53 6589.05,8187.53 6589.05,8178.02 6547.87,8178.02 "/>
  <polygon class="fil7" points="6547.87,8187.53 6589.05,8187.53 6589.05,8178.02 6547.87,8178.02 "/>
  <polygon class="fil7" points="6547.87,8187.53 6589.05,8187.53 6589.05,8178.02 6547.87,8178.02 "/>
  <g>
  </g>
  <g style="clip-path:url(#id1)">
   <g>
   </g>
  </g>
  <polygon class="fil7" points="6555.78,8179.6 6596.96,8179.6 6596.96,8170.11 6555.78,8170.11 "/>
  <polygon class="fil7" points="6555.78,8179.6 6596.96,8179.6 6596.96,8170.11 6555.78,8170.11 "/>
  <polygon class="fil7" points="6555.78,8179.6 6596.96,8179.6 6596.96,8170.11 6555.78,8170.11 "/>
  <polygon class="fil7" points="6555.78,8179.6 6596.96,8179.6 6596.96,8170.11 6555.78,8170.11 "/>
  <polygon class="fil7" points="6555.78,8179.6 6596.96,8179.6 6596.96,8170.11 6555.78,8170.11 "/>
  <polygon class="fil7" points="6555.78,8179.6 6596.96,8179.6 6596.96,8170.11 6555.78,8170.11 "/>
  <polygon class="fil7" points="6555.78,8179.6 6596.96,8179.6 6596.96,8170.11 6555.78,8170.11 "/>
  <g>
  </g>
  <g style="clip-path:url(#id2)">
   <g>
   </g>
  </g>
  <polygon class="fil7" points="6563.08,8172.38 6597.18,8172.38 6597.18,8161.94 6563.08,8161.94 "/>
  <polygon class="fil7" points="6563.08,8172.38 6597.18,8172.38 6597.18,8161.94 6563.08,8161.94 "/>
  <polygon class="fil7" points="6563.08,8172.38 6597.18,8172.38 6597.18,8161.94 6563.08,8161.94 "/>
  <polygon class="fil7" points="6563.08,8172.38 6597.18,8172.38 6597.18,8161.94 6563.08,8161.94 "/>
  <polygon class="fil7" points="6563.08,8172.38 6597.18,8172.38 6597.18,8161.94 6563.08,8161.94 "/>
  <polygon class="fil7" points="6563.08,8172.38 6597.18,8172.38 6597.18,8161.94 6563.08,8161.94 "/>
  <polygon class="fil7" points="6563.08,8172.38 6597.18,8172.38 6597.18,8161.94 6563.08,8161.94 "/>
  <g>
  </g>
  <g style="clip-path:url(#id3)">
   <g>
   </g>
  </g>
  <polygon class="fil7" points="6563.71,8163.77 6604.86,8163.77 6604.86,8154.26 6563.71,8154.26 "/>
  <polygon class="fil7" points="6563.71,8163.77 6604.86,8163.77 6604.86,8154.26 6563.71,8154.26 "/>
  <polygon class="fil7" points="6563.71,8163.77 6604.86,8163.77 6604.86,8154.26 6563.71,8154.26 "/>
  <polygon class="fil7" points="6563.71,8163.77 6604.86,8163.77 6604.86,8154.26 6563.71,8154.26 "/>
  <polygon class="fil7" points="6563.71,8163.77 6604.86,8163.77 6604.86,8154.26 6563.71,8154.26 "/>
  <polygon class="fil7" points="6563.71,8163.77 6604.86,8163.77 6604.86,8154.26 6563.71,8154.26 "/>
  <polygon class="fil7" points="6563.71,8163.77 6604.86,8163.77 6604.86,8154.26 6563.71,8154.26 "/>
  <g>
  </g>
  <g style="clip-path:url(#id4)">
   <g>
   </g>
  </g>
  <polygon class="fil7" points="6571.62,8155.84 6612.78,8155.84 6612.78,8146.35 6571.62,8146.35 "/>
  <polygon class="fil7" points="6571.62,8155.84 6612.78,8155.84 6612.78,8146.35 6571.62,8146.35 "/>
  <polygon class="fil7" points="6571.62,8155.84 6612.78,8155.84 6612.78,8146.35 6571.62,8146.35 "/>
  <polygon class="fil7" points="6571.62,8155.84 6612.78,8155.84 6612.78,8146.35 6571.62,8146.35 "/>
  <polygon class="fil7" points="6571.62,8155.84 6612.78,8155.84 6612.78,8146.35 6571.62,8146.35 "/>
  <polygon class="fil7" points="6571.62,8155.84 6612.78,8155.84 6612.78,8146.35 6571.62,8146.35 "/>
  <polygon class="fil7" points="6571.62,8155.84 6612.78,8155.84 6612.78,8146.35 6571.62,8146.35 "/>
  <g>
  </g>
  <g style="clip-path:url(#id5)">
   <g>
   </g>
  </g>
  <polygon class="fil7" points="6579.54,8147.93 6620.71,8147.93 6620.71,8138.43 6579.54,8138.43 "/>
  <polygon class="fil7" points="6579.54,8147.93 6620.71,8147.93 6620.71,8138.43 6579.54,8138.43 "/>
  <polygon class="fil7" points="6579.54,8147.93 6620.71,8147.93 6620.71,8138.43 6579.54,8138.43 "/>
  <polygon class="fil7" points="6579.54,8147.93 6620.71,8147.93 6620.71,8138.43 6579.54,8138.43 "/>
  <polygon class="fil7" points="6579.54,8147.93 6620.71,8147.93 6620.71,8138.43 6579.54,8138.43 "/>
  <polygon class="fil7" points="6579.54,8147.93 6620.71,8147.93 6620.71,8138.43 6579.54,8138.43 "/>
  <polygon class="fil7" points="6579.54,8147.93 6620.71,8147.93 6620.71,8138.43 6579.54,8138.43 "/>
  <g>
  </g>
  <g style="clip-path:url(#id6)">
   <g>
   </g>
  </g>
  <polygon class="fil7" points="6586.78,8140.61 6620.88,8140.61 6620.88,8130.2 6586.78,8130.2 "/>
  <polygon class="fil7" points="6586.78,8140.61 6620.88,8140.61 6620.88,8130.2 6586.78,8130.2 "/>
  <polygon class="fil7" points="6586.78,8140.61 6620.88,8140.61 6620.88,8130.2 6586.78,8130.2 "/>
  <polygon class="fil7" points="6586.78,8140.61 6620.88,8140.61 6620.88,8130.2 6586.78,8130.2 "/>
  <polygon class="fil7" points="6586.78,8140.61 6620.88,8140.61 6620.88,8130.2 6586.78,8130.2 "/>
  <polygon class="fil7" points="6586.78,8140.61 6620.88,8140.61 6620.88,8130.2 6586.78,8130.2 "/>
  <polygon class="fil7" points="6586.78,8140.61 6620.88,8140.61 6620.88,8130.2 6586.78,8130.2 "/>
  <g>
  </g>
  <g style="clip-path:url(#id7)">
   <g>
   </g>
  </g>
  <polygon class="fil7" points="6587.45,8132.11 6628.62,8132.11 6628.62,8122.6 6587.45,8122.6 "/>
  <polygon class="fil7" points="6587.45,8132.11 6628.62,8132.11 6628.62,8122.6 6587.45,8122.6 "/>
  <polygon class="fil7" points="6587.45,8132.11 6628.62,8132.11 6628.62,8122.6 6587.45,8122.6 "/>
  <polygon class="fil7" points="6587.45,8132.11 6628.62,8132.11 6628.62,8122.6 6587.45,8122.6 "/>
  <polygon class="fil7" points="6587.45,8132.11 6628.62,8132.11 6628.62,8122.6 6587.45,8122.6 "/>
  <polygon class="fil7" points="6587.45,8132.11 6628.62,8132.11 6628.62,8122.6 6587.45,8122.6 "/>
  <polygon class="fil7" points="6587.45,8132.11 6628.62,8132.11 6628.62,8122.6 6587.45,8122.6 "/>
  <g>
  </g>
  <g style="clip-path:url(#id8)">
   <g>
   </g>
  </g>
  <polygon class="fil7" points="5394.41,8205.9 5436.43,8205.9 5436.43,8195.46 5394.41,8195.46 "/>
  <polygon class="fil7" points="5394.41,8205.9 5436.43,8205.9 5436.43,8195.46 5394.41,8195.46 "/>
  <polygon class="fil7" points="5394.41,8205.9 5436.43,8205.9 5436.43,8195.46 5394.41,8195.46 "/>
  <polygon class="fil7" points="5394.41,8205.9 5436.43,8205.9 5436.43,8195.46 5394.41,8195.46 "/>
  <polygon class="fil7" points="5394.41,8205.9 5436.43,8205.9 5436.43,8195.46 5394.41,8195.46 "/>
  <polygon class="fil7" points="5394.41,8205.9 5436.43,8205.9 5436.43,8195.46 5394.41,8195.46 "/>
  <polygon class="fil7" points="5394.41,8205.9 5436.43,8205.9 5436.43,8195.46 5394.41,8195.46 "/>
  <g>
  </g>
  <g style="clip-path:url(#id9)">
   <g>
   </g>
  </g>
  <polygon class="fil7" points="6595.37,8124.18 6636.54,8124.18 6636.54,8114.69 6595.37,8114.69 "/>
  <polygon class="fil7" points="6595.37,8124.18 6636.54,8124.18 6636.54,8114.69 6595.37,8114.69 "/>
  <polygon class="fil7" points="6595.37,8124.18 6636.54,8124.18 6636.54,8114.69 6595.37,8114.69 "/>
  <polygon class="fil7" points="6595.37,8124.18 6636.54,8124.18 6636.54,8114.69 6595.37,8114.69 "/>
  <polygon class="fil7" points="6595.37,8124.18 6636.54,8124.18 6636.54,8114.69 6595.37,8114.69 "/>
  <polygon class="fil7" points="6595.37,8124.18 6636.54,8124.18 6636.54,8114.69 6595.37,8114.69 "/>
  <polygon class="fil7" points="6595.37,8124.18 6636.54,8124.18 6636.54,8114.69 6595.37,8114.69 "/>
  <g>
  </g>
  <g style="clip-path:url(#id10)">
   <g>
   </g>
  </g>
  <polygon class="fil7" points="6602.57,8116.79 6636.68,8116.79 6636.68,8106.34 6602.57,8106.34 "/>
  <polygon class="fil7" points="6602.57,8116.79 6636.68,8116.79 6636.68,8106.34 6602.57,8106.34 "/>
  <polygon class="fil7" points="6602.57,8116.79 6636.68,8116.79 6636.68,8106.34 6602.57,8106.34 "/>
  <polygon class="fil7" points="6602.57,8116.79 6636.68,8116.79 6636.68,8106.34 6602.57,8106.34 "/>
  <polygon class="fil7" points="6602.57,8116.79 6636.68,8116.79 6636.68,8106.34 6602.57,8106.34 "/>
  <polygon class="fil7" points="6602.57,8116.79 6636.68,8116.79 6636.68,8106.34 6602.57,8106.34 "/>
  <polygon class="fil7" points="6602.57,8116.79 6636.68,8116.79 6636.68,8106.34 6602.57,8106.34 "/>
  <g>
  </g>
  <g style="clip-path:url(#id11)">
   <g>
   </g>
  </g>
  <polygon class="fil7" points="6611.2,8108.35 6636.54,8108.35 6636.54,8098.85 6611.2,8098.85 "/>
  <polygon class="fil7" points="6611.2,8108.35 6636.54,8108.35 6636.54,8098.85 6611.2,8098.85 "/>
  <polygon class="fil7" points="6611.2,8108.35 6636.54,8108.35 6636.54,8098.85 6611.2,8098.85 "/>
  <polygon class="fil7" points="6611.2,8108.35 6636.54,8108.35 6636.54,8098.85 6611.2,8098.85 "/>
  <polygon class="fil7" points="6611.2,8108.35 6636.54,8108.35 6636.54,8098.85 6611.2,8098.85 "/>
  <polygon class="fil7" points="6611.2,8108.35 6636.54,8108.35 6636.54,8098.85 6611.2,8098.85 "/>
  <polygon class="fil7" points="6611.2,8108.35 6636.54,8108.35 6636.54,8098.85 6611.2,8098.85 "/>
  <g>
  </g>
  <g style="clip-path:url(#id12)">
   <g>
   </g>
  </g>
  <polygon class="fil7" points="5394.41,8182.09 5420.61,8182.09 5420.61,8171.65 5394.41,8171.65 "/>
  <polygon class="fil7" points="5394.41,8182.09 5420.61,8182.09 5420.61,8171.65 5394.41,8171.65 "/>
  <polygon class="fil7" points="5394.41,8182.09 5420.61,8182.09 5420.61,8171.65 5394.41,8171.65 "/>
  <polygon class="fil7" points="5394.41,8182.09 5420.61,8182.09 5420.61,8171.65 5394.41,8171.65 "/>
  <polygon class="fil7" points="5394.41,8182.09 5420.61,8182.09 5420.61,8171.65 5394.41,8171.65 "/>
  <polygon class="fil7" points="5394.41,8182.09 5420.61,8182.09 5420.61,8171.65 5394.41,8171.65 "/>
  <polygon class="fil7" points="5394.41,8182.09 5420.61,8182.09 5420.61,8171.65 5394.41,8171.65 "/>
  <g>
  </g>
  <g style="clip-path:url(#id13)">
   <g>
   </g>
  </g>
  <polygon class="fil7" points="6610.48,8100.93 6628.79,8100.93 6628.79,8090.48 6610.48,8090.48 "/>
  <polygon class="fil7" points="6610.48,8100.93 6628.79,8100.93 6628.79,8090.48 6610.48,8090.48 "/>
  <polygon class="fil7" points="6610.48,8100.93 6628.79,8100.93 6628.79,8090.48 6610.48,8090.48 "/>
  <polygon class="fil7" points="6610.48,8100.93 6628.79,8100.93 6628.79,8090.48 6610.48,8090.48 "/>
  <polygon class="fil7" points="6610.48,8100.93 6628.79,8100.93 6628.79,8090.48 6610.48,8090.48 "/>
  <polygon class="fil7" points="6610.48,8100.93 6628.79,8100.93 6628.79,8090.48 6610.48,8090.48 "/>
  <polygon class="fil7" points="6610.48,8100.93 6628.79,8100.93 6628.79,8090.48 6610.48,8090.48 "/>
  <g>
  </g>
  <g style="clip-path:url(#id14)">
   <g>
   </g>
  </g>
  <polygon class="fil7" points="6611.2,8092.51 6620.71,8092.51 6620.71,8083.02 6611.2,8083.02 "/>
  <polygon class="fil7" points="6611.2,8092.51 6620.71,8092.51 6620.71,8083.02 6611.2,8083.02 "/>
  <polygon class="fil7" points="6611.2,8092.51 6620.71,8092.51 6620.71,8083.02 6611.2,8083.02 "/>
  <polygon class="fil7" points="6611.2,8092.51 6620.71,8092.51 6620.71,8083.02 6611.2,8083.02 "/>
  <polygon class="fil7" points="6611.2,8092.51 6620.71,8092.51 6620.71,8083.02 6611.2,8083.02 "/>
  <polygon class="fil7" points="6611.2,8092.51 6620.71,8092.51 6620.71,8083.02 6611.2,8083.02 "/>
  <polygon class="fil7" points="6611.2,8092.51 6620.71,8092.51 6620.71,8083.02 6611.2,8083.02 "/>
  <g>
  </g>
  <g style="clip-path:url(#id15)">
   <g>
   </g>
  </g>
  <polygon class="fil7" points="6602.57,8085.04 6612.98,8085.04 6612.98,8066.65 6602.57,8066.65 "/>
  <polygon class="fil7" points="6602.57,8085.04 6612.98,8085.04 6612.98,8066.65 6602.57,8066.65 "/>
  <polygon class="fil7" points="6602.57,8085.04 6612.98,8085.04 6612.98,8066.65 6602.57,8066.65 "/>
  <polygon class="fil7" points="6602.57,8085.04 6612.98,8085.04 6612.98,8066.65 6602.57,8066.65 "/>
  <polygon class="fil7" points="6602.57,8085.04 6612.98,8085.04 6612.98,8066.65 6602.57,8066.65 "/>
  <polygon class="fil7" points="6602.57,8085.04 6612.98,8085.04 6612.98,8066.65 6602.57,8066.65 "/>
  <polygon class="fil7" points="6602.57,8085.04 6612.98,8085.04 6612.98,8066.65 6602.57,8066.65 "/>
  <g>
  </g>
  <g style="clip-path:url(#id16)">
   <g>
   </g>
  </g>
  <polygon class="fil7" points="6595.37,8068.77 6604.86,8068.77 6604.86,8059.26 6595.37,8059.26 "/>
  <polygon class="fil7" points="6595.37,8068.77 6604.86,8068.77 6604.86,8059.26 6595.37,8059.26 "/>
  <polygon class="fil7" points="6595.37,8068.77 6604.86,8068.77 6604.86,8059.26 6595.37,8059.26 "/>
  <polygon class="fil7" points="6595.37,8068.77 6604.86,8068.77 6604.86,8059.26 6595.37,8059.26 "/>
  <polygon class="fil7" points="6595.37,8068.77 6604.86,8068.77 6604.86,8059.26 6595.37,8059.26 "/>
  <polygon class="fil7" points="6595.37,8068.77 6604.86,8068.77 6604.86,8059.26 6595.37,8059.26 "/>
  <polygon class="fil7" points="6595.37,8068.77 6604.86,8068.77 6604.86,8059.26 6595.37,8059.26 "/>
  <path class="fil8" d="M5016.9 8065.58l244.34 6.3 681.01 1648.07 659.73 -1641.69 3.73 -5.12 -1.14 -1.58 0.02 -0.01 252.26 -5.97c167.99,-4 305.48,142.32 305.48,316.23l0 1665.39 -2450.94 0 0 -1665.4c0,-173.97 137.57,-320.48 305.53,-316.22l-0.01 0 0 0 0 0 -0.01 0z"/>
  <ellipse class="fil0 str1" cx="5931.7" cy="9221.18" rx="21.12" ry="23.76"/>
  <rect class="fil9" x="6607.29" y="9213.25" width="401.14" height="52.79"/>
  <polygon class="fil1" points="6914.52,9083.76 6818.43,8981.03 6607.3,9213.26 6997.87,9213.26 "/>
  <polygon class="fil10" points="5926.42,8152.38 5512.18,7973.43 5551.68,8411.01 5903.59,8221.45 "/>
  <polygon class="fil10" points="5891.2,8142.05 6312.11,7994.76 6290.62,8421.56 5869.45,8202.57 "/>
  <rect class="fil11" x="5859.58" y="8092.5" width="118.79" height="164.72"/>
  <rect class="fil9" x="7557.34" y="8393.71" width="63.35" height="2145.65"/>
  <polygon class="fil12" points="7539.44,8115.43 8067.15,8511.9 7998.89,8622.13 7435.72,8262.37 "/>
  <ellipse class="fil0 str1" cx="7351.65" cy="8091.21" rx="183.6" ry="188.39"/>
  <rect class="fil8" transform="matrix(0.849694 0.518219 -0.518219 0.849694 7653.57 8180.19)" width="96.03" height="232.65"/>
  <path class="fil7 str1" d="M8033 8567.16c40.73,-15.5 71.98,188.79 103.19,276.26 33.35,93.47 -198.02,593.49 -163.63,949.95 6.5,67.36 -55.16,799.81 -3.52,813.86"/>
  <rect class="fil12" x="7525.67" y="9318.8" width="137.24" height="362.66"/>
  <polygon class="fil1 str4" points="4902.47,8363.52 5271.96,7867.35 5709.12,9185.43 5580.71,9071.95 "/>
  <polygon class="fil1 str4" points="5155.83,8833.35 5461.97,8511.28 5871.2,9626.39 5732.31,9481.19 "/>
  <g>
  </g>
  <g style="clip-path:url(#id17)">
   <g>
   </g>
  </g>
  <polygon class="fil7" points="6442.3,8247.83 6487.42,8247.83 6487.42,8237.4 6442.3,8237.4 "/>
  <polygon class="fil7" points="6442.3,8247.83 6487.42,8247.83 6487.42,8237.4 6442.3,8237.4 "/>
  <polygon class="fil7" points="6442.3,8247.83 6487.42,8247.83 6487.42,8237.4 6442.3,8237.4 "/>
  <polygon class="fil7" points="6442.3,8247.83 6487.42,8247.83 6487.42,8237.4 6442.3,8237.4 "/>
  <polygon class="fil7" points="6442.3,8247.83 6487.42,8247.83 6487.42,8237.4 6442.3,8237.4 "/>
  <polygon class="fil7" points="6442.3,8247.83 6487.42,8247.83 6487.42,8237.4 6442.3,8237.4 "/>
  <polygon class="fil7" points="6442.3,8247.83 6487.42,8247.83 6487.42,8237.4 6442.3,8237.4 "/>
  <g>
  </g>
  <g style="clip-path:url(#id18)">
   <g>
   </g>
  </g>
  <polygon class="fil7" points="6450.79,8239.9 6487.42,8239.9 6487.42,8221.5 6450.79,8221.5 "/>
  <polygon class="fil7" points="6450.79,8239.9 6487.42,8239.9 6487.42,8221.5 6450.79,8221.5 "/>
  <polygon class="fil7" points="6450.79,8239.9 6487.42,8239.9 6487.42,8221.5 6450.79,8221.5 "/>
  <polygon class="fil7" points="6450.79,8239.9 6487.42,8239.9 6487.42,8221.5 6450.79,8221.5 "/>
  <polygon class="fil7" points="6450.79,8239.9 6487.42,8239.9 6487.42,8221.5 6450.79,8221.5 "/>
  <polygon class="fil7" points="6450.79,8239.9 6487.42,8239.9 6487.42,8221.5 6450.79,8221.5 "/>
  <polygon class="fil7" points="6450.79,8239.9 6487.42,8239.9 6487.42,8221.5 6450.79,8221.5 "/>
  <g>
  </g>
  <g style="clip-path:url(#id19)">
   <g>
   </g>
  </g>
  <polygon class="fil7" points="6459.28,8224.03 6487.42,8224.03 6487.42,8213.6 6459.28,8213.6 "/>
  <polygon class="fil7" points="6459.28,8224.03 6487.42,8224.03 6487.42,8213.6 6459.28,8213.6 "/>
  <polygon class="fil7" points="6459.28,8224.03 6487.42,8224.03 6487.42,8213.6 6459.28,8213.6 "/>
  <polygon class="fil7" points="6459.28,8224.03 6487.42,8224.03 6487.42,8213.6 6459.28,8213.6 "/>
  <polygon class="fil7" points="6459.28,8224.03 6487.42,8224.03 6487.42,8213.6 6459.28,8213.6 "/>
  <polygon class="fil7" points="6459.28,8224.03 6487.42,8224.03 6487.42,8213.6 6459.28,8213.6 "/>
  <polygon class="fil7" points="6459.28,8224.03 6487.42,8224.03 6487.42,8213.6 6459.28,8213.6 "/>
  <ellipse class="fil0 str1" cx="5910.18" cy="8629.75" rx="22.68" ry="23.76"/>
  <path class="fil11" d="M5871.49 8092.5l104.69 0c6.35,0 11.47,3.79 11.47,8.47l0 86.27c0,4.68 -5.12,8.47 -11.47,8.47l-104.69 0c-6.34,0 -11.47,-3.79 -11.47,-8.47l0 -86.27c0,-4.68 5.13,-8.47 11.47,-8.47z"/>
  <polygon class="fil1 str4" points="7000.15,8337.48 6602.03,7888.48 6161.19,9200.71 6290.17,9077.13 "/>
  <polygon class="fil1 str4" points="6743.78,8879.45 6398.07,8518.59 6002.83,9635.43 6115.18,9536.91 "/>
  <polygon class="fil8" points="4786.88,8172.8 4918.3,9012.7 4266.3,9468.23 3937.99,9140.82 "/>
  <polygon class="fil13" points="3436.11,8780.89 4316.44,8780.89 4580.52,10047.16 3698.28,10038.97 "/>
  <path class="fil6" d="M3596.6 9551.05l57.19 0c51.24,0 92.8,41.54 92.8,92.8l-0.01 162.75c0.01,51.23 -41.55,92.79 -92.79,92.79l-57.19 0.02c-51.25,-0.02 -92.81,-41.58 -92.81,-92.82l0 -162.74c0,-51.26 41.56,-92.8 92.81,-92.8l0 0z"/>
  <ellipse class="fil0 str1" cx="5910.18" cy="8928.16" rx="22.68" ry="23.76"/>
  <rect class="fil8" x="4711.35" y="10013.03" width="2449.64" height="412.45"/>
  <path class="fil1" d="M8285.6 6800.8l-134.21 73.65c-15.54,-21.51 -42,-73.8 -55.36,-100.88l-166.97 -310.36 -164.85 156.07c-14.77,17.32 -12.21,16.37 -28.31,23.27l0 -848.69c20.1,9.79 128.81,126.11 154.62,151.95l455.83 459.62 -269.96 0.01 209.21 395.36zm-609.36 18.11c14.02,-24.93 90.65,-88.97 116.51,-114.61 37.5,-37.15 79.71,-87.23 118.94,-115.64 23.88,24.12 191.69,367.19 217.06,398.13l237.94 -125.37c34.91,-17.6 26.54,-9.4 25.46,-23.74l-142.94 -265.03c-13.3,-25.41 -38.12,-65.66 -47.63,-92.91l309.19 0.28 21.7 0.34 -107.44 -109.67c-74.45,-74.5 -740.8,-746.67 -765.12,-762.95l0 1224.19 16.33 -13.02z"/>
  <path class="fil0" d="M8076.39 6405.44l269.96 -0.01 -455.83 -459.62c-25.81,-25.84 -134.52,-142.16 -154.62,-151.95l0 848.69c16.1,-6.9 13.54,-5.95 28.31,-23.27l164.85 -156.07 166.97 310.36c13.36,27.08 39.82,79.37 55.36,100.88l134.21 -73.65 -209.21 -395.36z"/>
  <path class="fil0" d="M7601.61 6775.15c38.94,8.14 49.31,3.23 76.53,-17.58 152.79,-116.8 182.64,-253.96 273.93,-83.94 25.32,47.17 45.25,88.97 70.48,135.95 13.09,24.4 23.17,40.94 36.13,67.07 96.28,194.2 133.15,118.83 307.9,32.65 25.85,-12.76 41.33,-20.6 64.36,-38.86 19.71,-15.65 41.5,-58.08 21.73,-72.98 1.28,17.05 11.23,7.3 -30.27,28.22l-282.86 149.05c-30.16,-36.78 -229.65,-444.62 -258.04,-473.3 -46.63,33.78 -96.81,93.32 -141.39,137.48 -30.74,30.47 -121.84,106.6 -138.5,136.24z"/>
  <path class="fil0" d="M8452.67 6712.79c1.34,-28.86 -19.53,-54.59 -31.09,-77.29l-111.21 -213.89c-38.86,-88.21 21.15,-92.91 102.61,-92.44 76.09,0.43 167.76,15.71 180.7,-41.56l-367.56 -0.33c11.31,32.39 40.82,80.25 56.62,110.46l169.93 315.05z"/>
  <path class="fil14" d="M2620.17 4818.13l-63.21 7.93 -25.02 -69.9 -116.22 14.59 -24.09 76.07 -62.05 7.79 112.5 -334.97 61.99 -7.79 116.1 306.28zm-107.25 -113.81l-40.27 -113.68 -39.13 123.65 79.4 -9.97zm93.29 -205.29l65.9 -8.27 67.44 157.63 57.74 -173.35 61.04 -7.67 -98 256.16c-10.66,27.77 -21.52,49.23 -32.58,64.43 -11.06,15.21 -25.29,23.87 -42.84,26.07 -17.26,2.16 -30.75,2.59 -40.46,1.35l0 -48.25c8.3,-0.44 15.78,-1.09 22.46,-1.92 13.48,-1.7 23.2,-5.68 29.08,-11.87 5.8,-6.26 11.46,-18.85 16.79,-37.66l-106.57 -216.65zm282.28 -35.44l58.68 -7.37 0 136.67c13.02,-3.12 21.86,-7.9 26.44,-14.52 4.58,-6.55 11.75,-24.11 21.32,-52.65 12.08,-36.23 24.28,-59.42 36.49,-69.39 12.14,-9.98 31.63,-16.68 58.62,-20.06 1.35,-0.17 4.18,-0.61 8.49,-1.3l0 47.95 -8.3 0.82c-12,1.5 -20.77,4.25 -26.3,8.24 -5.53,3.97 -9.98,9.54 -13.43,16.69 -3.43,7.16 -8.49,21.61 -15.17,43.35 -3.58,11.58 -7.42,21.33 -11.61,29.32 -4.1,7.99 -11.46,15.93 -21.98,23.81 13.02,2.41 23.75,9.35 32.24,20.68 8.51,11.34 17.81,27.64 27.93,49.01l39.46 82.87 -68.8 8.64 -34.74 -78.24c-0.54,-1.13 -1.69,-3.23 -3.37,-6.37 -0.67,-1.04 -3.11,-5.82 -7.29,-14.18 -7.42,-14.91 -13.48,-24 -18.21,-27.36 -4.79,-3.36 -12,-4.47 -21.79,-3.4l0 140.27 -58.68 7.37 0 -320.85zm247.01 -31.01l58.67 -7.37 0 266.63 112.92 -14.18 0 -266.63 58.69 -7.37 0 266.63 24.28 -3.06 0 124.14 -48.98 6.15 0 -69.92 -205.58 25.83 0 -320.85zm295.63 -37.13l54.64 -6.86 0 213.6 117.37 -228.34 58.27 -7.32 0 320.85 -54.63 6.87 0 -210.17 -117.36 224.9 -58.29 7.32 0 -320.85zm277.98 127.46c0,-32.71 4.45,-60.74 13.28,-84.12 6.54,-17.17 15.58,-33.02 26.99,-47.45 11.4,-14.42 23.87,-25.62 37.42,-33.68 18.08,-10.71 38.93,-17.58 62.54,-20.55 42.76,-5.36 76.89,5.07 102.6,31.18 25.62,26.21 38.44,65.46 38.44,117.82 0,51.9 -12.75,94.13 -38.17,126.61 -25.43,32.54 -59.51,51.46 -102.06,56.79 -43.11,5.42 -77.44,-4.84 -102.87,-30.84 -25.43,-25.94 -38.17,-64.52 -38.17,-115.76zm60.3 -9.74c0,36.38 7.62,62.99 22.79,79.9 15.18,16.84 34.48,23.83 57.81,20.9 23.41,-2.94 42.57,-14.68 57.61,-35.17 14.97,-20.55 22.46,-49.43 22.46,-86.7 0,-36.81 -7.28,-63.38 -21.93,-79.62 -14.56,-16.32 -33.92,-22.92 -58.14,-19.88 -24.15,3.03 -43.64,14.66 -58.41,34.82 -14.77,20.23 -22.19,48.8 -22.19,85.75zm266.63 127.18l0 -320.85 58.69 -7.37 0 126.38 114.12 -14.34 0 -126.37 58.69 -7.37 0 320.85 -58.69 7.37 0 -140.26 -114.12 14.34 0 140.25 -58.69 7.37zm590.07 -192.39l56.67 12.16c-8.7,36.41 -23.2,64.45 -43.44,84.17 -20.24,19.65 -45.87,31.44 -76.96,35.35 -38.52,4.83 -70.15,-5.75 -94.98,-31.76 -24.76,-26.02 -37.16,-64.27 -37.16,-114.84 0,-53.4 12.47,-96.48 37.36,-129.18 24.89,-32.71 57.68,-51.62 98.29,-56.71 35.48,-4.45 64.28,3.58 86.39,24.02 13.23,12.09 23.08,30.58 29.68,55.5l-57.87 22.51c-3.44,-16.15 -10.59,-28.4 -21.44,-36.67 -10.93,-8.26 -24.15,-11.38 -39.67,-9.43 -21.52,2.69 -38.99,13.4 -52.34,32.19 -13.43,18.72 -20.11,47.19 -20.11,85.42 0,40.48 6.62,68.55 19.78,84.08 13.22,15.59 30.35,22.04 51.46,19.38 15.58,-1.95 29,-9.09 40.19,-21.48 11.2,-12.38 19.3,-30.57 24.15,-54.71zm84.73 -50.81c0,-32.73 4.44,-60.76 13.29,-84.12 6.54,-17.19 15.58,-33.04 26.97,-47.46 11.4,-14.43 23.88,-25.63 37.44,-33.69 18.08,-10.7 38.93,-17.57 62.53,-20.53 42.76,-5.38 76.9,5.05 102.59,31.18 25.64,26.21 38.45,65.45 38.45,117.8 0,51.92 -12.75,94.14 -38.18,126.61 -25.42,32.54 -59.49,51.46 -102.05,56.81 -43.1,5.4 -77.44,-4.85 -102.86,-30.86 -25.44,-25.94 -38.18,-64.52 -38.18,-115.74zm60.3 -9.74c0,36.36 7.62,62.97 22.8,79.88 15.18,16.84 34.47,23.83 57.81,20.9 23.4,-2.94 42.56,-14.68 57.6,-35.17 14.98,-20.55 22.46,-49.41 22.46,-86.68 0,-36.83 -7.29,-63.39 -21.92,-79.63 -14.57,-16.33 -33.93,-22.93 -58.14,-19.89 -24.15,3.03 -43.64,14.67 -58.42,34.82 -14.77,20.23 -22.19,48.8 -22.19,85.77zm267.86 -193.84l216.51 -27.18 0 54.22 -157.84 19.82 0 74.38 78.18 -9.81c21.52,-2.71 39.47,-2.05 53.62,2 14.24,4.04 26.38,13.28 36.43,27.77 10.05,14.42 15.11,32.23 15.11,53.36 0,21.67 -5.06,40.9 -15.24,57.64 -10.12,16.65 -21.65,28.71 -34.67,36.01 -12.96,7.31 -31.44,12.47 -55.38,15.48l-136.72 17.16 0 -320.85zm58.67 259.26l56.86 -7.14c18.16,-2.28 30.96,-4.85 38.32,-7.71 7.35,-2.88 13.83,-8.1 19.29,-15.72 5.47,-7.57 8.16,-16.41 8.16,-26.5 0,-14.71 -4.79,-24.78 -14.29,-30.31 -9.59,-5.46 -25.84,-6.78 -48.91,-3.88l-59.43 7.46 0 83.8zm232.65 -295.83l58.69 -7.37 0 128.16 78.17 -9.82c20.5,-2.57 38.18,-1.65 52.96,2.69 14.76,4.35 27.1,13.85 37.02,28.59 9.85,14.73 14.77,32.49 14.77,53.26 0,21.73 -5.12,41.05 -15.38,58.09 -10.32,16.98 -21.72,28.8 -34.33,35.46 -12.55,6.73 -30.96,11.57 -55.18,14.62l-136.72 17.17 0 -320.85zm58.69 259.26l57.05 -7.17c18.15,-2.28 30.84,-4.83 38.05,-7.68 7.15,-2.85 13.56,-8.14 19.15,-15.79 5.61,-7.64 8.37,-16.43 8.37,-26.44 0,-14.18 -4.59,-24.3 -13.69,-30.24 -9.18,-5.94 -25.7,-7.38 -49.51,-4.39l-59.42 7.46 0 84.25zm216.51 -293.82l58.69 -7.37 0 320.85 -58.69 7.37 0 -320.85zm184.55 297.68l0 -266.63 -85.79 10.77 0 -54.22 229.88 -28.86 0 54.22 -85.4 10.72 0 266.63 -58.69 7.37zm182.87 -343.81l54.63 -6.86 0 213.6 117.37 -228.34 58.28 -7.32 0 320.85 -54.63 6.87 0 -210.17 -117.38 224.9 -58.27 7.32 0 -320.85zm290.92 -36.53l54.64 -6.86 0 213.6 117.36 -228.34 58.29 -7.32 0 320.85 -54.65 6.87 0 -210.18 -117.36 224.91 -58.28 7.32 0 -320.85zm149.74 -111.56l27.12 -3.41c-1.56,19.98 -7.89,36.39 -18.88,49.06 -11,12.65 -25.23,20.12 -42.7,22.31 -17.55,2.2 -31.78,-1.69 -42.77,-11.59 -11,-9.9 -17.34,-24.71 -18.88,-44.3l27.11 -3.41c0.95,10.19 4.19,17.63 9.85,22.22 5.67,4.59 13.89,6.17 24.69,4.82 10.72,-1.36 18.95,-5 24.62,-11.01 5.66,-6.02 8.89,-14.27 9.84,-24.69zm253.63 60.91l54.63 -6.86 0 213.6 117.36 -228.34 58.29 -7.31 0 320.85 -54.63 6.86 0 -210.17 -117.38 224.91 -58.27 7.31 0 -320.85zm403.36 -50.64l230.28 -28.92 0 320.85 -58.68 7.37 0 -266.63 -112.92 14.18 0 266.63 -58.68 7.37 0 -320.85zm290.11 284.42l0 -320.85 93.83 -11.78c35.55,-4.46 58.68,-5.81 69.48,-3.94 16.59,2.77 30.48,11.49 41.68,26.21 11.2,14.72 16.8,34.86 16.8,60.4 0,19.72 -3.24,36.63 -9.65,50.87 -6.47,14.26 -14.63,25.81 -24.55,34.76 -9.92,8.86 -20.03,15.2 -30.29,18.96 -13.96,4.82 -34.12,8.92 -60.57,12.24l-38.04 4.77 0 120.99 -58.69 7.37zm58.69 -274l0 91.43 31.91 -4.02c22.99,-2.89 38.3,-6.53 46.06,-10.86 7.75,-4.33 13.83,-10.32 18.22,-18.12 4.37,-7.72 6.6,-16.29 6.6,-25.85 0,-11.72 -3.09,-20.96 -9.23,-27.81 -6.22,-6.84 -13.97,-10.65 -23.48,-11.4 -6.95,-0.54 -20.91,0.47 -41.95,3.11l-28.13 3.52zm436.75 211.8l-63.2 7.93 -25.03 -69.9 -116.22 14.59 -24.07 76.07 -62.07 7.79 112.52 -334.98 61.99 -7.78 116.08 306.28zm-107.25 -113.8l-40.27 -113.69 -39.12 123.65 79.39 -9.96zm179.76 -128.78l-57.06 -7.61c12.27,-53.83 47.15,-84.34 104.62,-91.57 33.99,-4.26 59.69,0.8 77.03,15.2 17.33,14.4 25.97,32.82 25.97,55.22 0,15.32 -3.99,29.63 -11.88,43.02 -7.89,13.31 -19.76,25.64 -35.55,37.02 19.16,4.92 33.6,13.42 43.18,25.58 9.57,12.25 14.36,28.07 14.36,47.71 0,28.23 -9.31,52.18 -27.98,71.93 -18.63,19.74 -46.56,31.98 -83.72,36.64 -30.29,3.81 -54.24,1.22 -71.77,-7.78 -17.53,-9 -30.69,-28.35 -39.52,-58l53.42 -25.98c5.52,18.65 12.94,30.27 22.13,34.8 9.16,4.6 20.49,6.01 33.99,4.31 18.48,-2.32 31.97,-8.42 40.47,-18.37 8.43,-9.95 12.67,-20.65 12.67,-32.15 0,-13.14 -4.78,-23.21 -14.36,-30.08 -9.52,-6.87 -23.94,-9.09 -43.17,-6.68l-13.29 1.67 0 -48.39 6.68 -0.84c17.87,-2.26 31.58,-8.45 41.02,-18.52 9.5,-10.09 14.23,-22.56 14.23,-37.27 0,-11.72 -3.85,-21.09 -11.54,-28.2 -7.69,-7.02 -18.69,-9.68 -32.98,-7.88 -24.49,3.07 -40.13,18.48 -46.95,46.22zm235.75 -116.97l199.93 -25.11 0 266.63 25.5 -3.2 0 124.12 -48.98 6.15 0 -69.9 -181.72 22.82 0 69.9 -48.96 6.15 0 -124.13 24.68 -3.1c12,-28.91 19.97,-61.73 23.81,-98.36 3.85,-36.71 5.74,-82.72 5.74,-138.07l0 -33.9zm55.84 47.2c0,97.09 -8.09,168.91 -24.28,215.45l109.68 -13.76 0 -212.41 -85.4 10.72zm208.98 240.39l0 -320.85 58.67 -7.36 0 126.37 114.14 -14.34 0 -126.37 58.67 -7.37 0 320.85 -58.67 7.37 0 -140.26 -114.14 14.34 0 140.26 -58.67 7.36zm293.07 -357.65l54.64 -6.86 0 213.6 117.37 -228.34 58.27 -7.32 0 320.85 -54.63 6.87 0 -210.16 -117.36 224.89 -58.29 7.32 0 -320.85zm290.92 -36.53l58.68 -7.37 0 136.68c13.02,-3.13 21.85,-7.9 26.45,-14.53 4.58,-6.55 11.73,-24.09 21.3,-52.64 12.08,-36.24 24.29,-59.43 36.49,-69.4 12.15,-9.96 31.65,-16.67 58.62,-20.06 1.35,-0.17 4.18,-0.6 8.5,-1.29l0 47.94 -8.29 0.83c-12.02,1.5 -20.79,4.25 -26.31,8.23 -5.53,3.98 -9.99,9.54 -13.42,16.7 -3.45,7.15 -8.51,21.6 -15.18,43.36 -3.57,11.57 -7.42,21.31 -11.6,29.31 -4.12,7.98 -11.47,15.93 -21.99,23.82 13.02,2.39 23.74,9.35 32.23,20.68 8.51,11.33 17.82,27.63 27.94,49l39.45 82.88 -68.8 8.63 -34.74 -78.25c-0.53,-1.11 -1.69,-3.21 -3.37,-6.37 -0.67,-1.04 -3.11,-5.8 -7.28,-14.17 -7.42,-14.9 -13.49,-23.99 -18.22,-27.36 -4.79,-3.36 -12,-4.47 -21.78,-3.39l0 140.26 -58.68 7.37 0 -320.86zm507.23 257.16l-63.21 7.94 -25.03 -69.9 -116.21 14.6 -24.09 76.06 -62.05 7.8 112.51 -334.98 61.99 -7.78 116.09 306.26zm-107.24 -113.8l-40.27 -113.68 -39.12 123.66 79.39 -9.98z"/>
  <path class="fil14" d="M2620.17 4818.13l-63.21 7.93 -25.02 -69.9 -116.22 14.59 -24.09 76.07 -62.05 7.79 112.5 -334.97 61.99 -7.79 116.1 306.28zm-107.25 -113.81l-40.27 -113.68 -39.13 123.65 79.4 -9.97zm93.29 -205.29l65.9 -8.27 67.44 157.63 57.74 -173.35 61.04 -7.67 -98 256.16c-10.66,27.77 -21.52,49.23 -32.58,64.43 -11.06,15.21 -25.29,23.87 -42.84,26.07 -17.26,2.16 -30.75,2.59 -40.46,1.35l0 -48.25c8.3,-0.44 15.78,-1.09 22.46,-1.92 13.48,-1.7 23.2,-5.68 29.08,-11.87 5.8,-6.26 11.46,-18.85 16.79,-37.66l-106.57 -216.65zm282.28 -35.44l58.68 -7.37 0 136.67c13.02,-3.12 21.86,-7.9 26.44,-14.52 4.58,-6.55 11.75,-24.11 21.32,-52.65 12.08,-36.23 24.28,-59.42 36.49,-69.39 12.14,-9.98 31.63,-16.68 58.62,-20.06 1.35,-0.17 4.18,-0.61 8.49,-1.3l0 47.95 -8.3 0.82c-12,1.5 -20.77,4.25 -26.3,8.24 -5.53,3.97 -9.98,9.54 -13.43,16.69 -3.43,7.16 -8.49,21.61 -15.17,43.35 -3.58,11.58 -7.42,21.33 -11.61,29.32 -4.1,7.99 -11.46,15.93 -21.98,23.81 13.02,2.41 23.75,9.35 32.24,20.68 8.51,11.34 17.81,27.64 27.93,49.01l39.46 82.87 -68.8 8.64 -34.74 -78.24c-0.54,-1.13 -1.69,-3.23 -3.37,-6.37 -0.67,-1.04 -3.11,-5.82 -7.29,-14.18 -7.42,-14.91 -13.48,-24 -18.21,-27.36 -4.79,-3.36 -12,-4.47 -21.79,-3.4l0 140.27 -58.68 7.37 0 -320.85zm247.01 -31.01l58.67 -7.37 0 266.63 112.92 -14.18 0 -266.63 58.69 -7.37 0 266.63 24.28 -3.06 0 124.14 -48.98 6.15 0 -69.92 -205.58 25.83 0 -320.85zm295.63 -37.13l54.64 -6.86 0 213.6 117.37 -228.34 58.27 -7.32 0 320.85 -54.63 6.87 0 -210.17 -117.36 224.9 -58.29 7.32 0 -320.85zm277.98 127.46c0,-32.71 4.45,-60.74 13.28,-84.12 6.54,-17.17 15.58,-33.02 26.99,-47.45 11.4,-14.42 23.87,-25.62 37.42,-33.68 18.08,-10.71 38.93,-17.58 62.54,-20.55 42.76,-5.36 76.89,5.07 102.6,31.18 25.62,26.21 38.44,65.46 38.44,117.82 0,51.9 -12.75,94.13 -38.17,126.61 -25.43,32.54 -59.51,51.46 -102.06,56.79 -43.11,5.42 -77.44,-4.84 -102.87,-30.84 -25.43,-25.94 -38.17,-64.52 -38.17,-115.76zm60.3 -9.74c0,36.38 7.62,62.99 22.79,79.9 15.18,16.84 34.48,23.83 57.81,20.9 23.41,-2.94 42.57,-14.68 57.61,-35.17 14.97,-20.55 22.46,-49.43 22.46,-86.7 0,-36.81 -7.28,-63.38 -21.93,-79.62 -14.56,-16.32 -33.92,-22.92 -58.14,-19.88 -24.15,3.03 -43.64,14.66 -58.41,34.82 -14.77,20.23 -22.19,48.8 -22.19,85.75zm266.63 127.18l0 -320.85 58.69 -7.37 0 126.38 114.12 -14.34 0 -126.37 58.69 -7.37 0 320.85 -58.69 7.37 0 -140.26 -114.12 14.34 0 140.25 -58.69 7.37zm590.07 -192.39l56.67 12.16c-8.7,36.41 -23.2,64.45 -43.44,84.17 -20.24,19.65 -45.87,31.44 -76.96,35.35 -38.52,4.83 -70.15,-5.75 -94.98,-31.76 -24.76,-26.02 -37.16,-64.27 -37.16,-114.84 0,-53.4 12.47,-96.48 37.36,-129.18 24.89,-32.71 57.68,-51.62 98.29,-56.71 35.48,-4.45 64.28,3.58 86.39,24.02 13.23,12.09 23.08,30.58 29.68,55.5l-57.87 22.51c-3.44,-16.15 -10.59,-28.4 -21.44,-36.67 -10.93,-8.26 -24.15,-11.38 -39.67,-9.43 -21.52,2.69 -38.99,13.4 -52.34,32.19 -13.43,18.72 -20.11,47.19 -20.11,85.42 0,40.48 6.62,68.55 19.78,84.08 13.22,15.59 30.35,22.04 51.46,19.38 15.58,-1.95 29,-9.09 40.19,-21.48 11.2,-12.38 19.3,-30.57 24.15,-54.71zm84.73 -50.81c0,-32.73 4.44,-60.76 13.29,-84.12 6.54,-17.19 15.58,-33.04 26.97,-47.46 11.4,-14.43 23.88,-25.63 37.44,-33.69 18.08,-10.7 38.93,-17.57 62.53,-20.53 42.76,-5.38 76.9,5.05 102.59,31.18 25.64,26.21 38.45,65.45 38.45,117.8 0,51.92 -12.75,94.14 -38.18,126.61 -25.42,32.54 -59.49,51.46 -102.05,56.81 -43.1,5.4 -77.44,-4.85 -102.86,-30.86 -25.44,-25.94 -38.18,-64.52 -38.18,-115.74zm60.3 -9.74c0,36.36 7.62,62.97 22.8,79.88 15.18,16.84 34.47,23.83 57.81,20.9 23.4,-2.94 42.56,-14.68 57.6,-35.17 14.98,-20.55 22.46,-49.41 22.46,-86.68 0,-36.83 -7.29,-63.39 -21.92,-79.63 -14.57,-16.33 -33.93,-22.93 -58.14,-19.89 -24.15,3.03 -43.64,14.67 -58.42,34.82 -14.77,20.23 -22.19,48.8 -22.19,85.77zm267.86 -193.84l216.51 -27.18 0 54.22 -157.84 19.82 0 74.38 78.18 -9.81c21.52,-2.71 39.47,-2.05 53.62,2 14.24,4.04 26.38,13.28 36.43,27.77 10.05,14.42 15.11,32.23 15.11,53.36 0,21.67 -5.06,40.9 -15.24,57.64 -10.12,16.65 -21.65,28.71 -34.67,36.01 -12.96,7.31 -31.44,12.47 -55.38,15.48l-136.72 17.16 0 -320.85zm58.67 259.26l56.86 -7.14c18.16,-2.28 30.96,-4.85 38.32,-7.71 7.35,-2.88 13.83,-8.1 19.29,-15.72 5.47,-7.57 8.16,-16.41 8.16,-26.5 0,-14.71 -4.79,-24.78 -14.29,-30.31 -9.59,-5.46 -25.84,-6.78 -48.91,-3.88l-59.43 7.46 0 83.8zm232.65 -295.83l58.69 -7.37 0 128.16 78.17 -9.82c20.5,-2.57 38.18,-1.65 52.96,2.69 14.76,4.35 27.1,13.85 37.02,28.59 9.85,14.73 14.77,32.49 14.77,53.26 0,21.73 -5.12,41.05 -15.38,58.09 -10.32,16.98 -21.72,28.8 -34.33,35.46 -12.55,6.73 -30.96,11.57 -55.18,14.62l-136.72 17.17 0 -320.85zm58.69 259.26l57.05 -7.17c18.15,-2.28 30.84,-4.83 38.05,-7.68 7.15,-2.85 13.56,-8.14 19.15,-15.79 5.61,-7.64 8.37,-16.43 8.37,-26.44 0,-14.18 -4.59,-24.3 -13.69,-30.24 -9.18,-5.94 -25.7,-7.38 -49.51,-4.39l-59.42 7.46 0 84.25zm216.51 -293.82l58.69 -7.37 0 320.85 -58.69 7.37 0 -320.85zm184.55 297.68l0 -266.63 -85.79 10.77 0 -54.22 229.88 -28.86 0 54.22 -85.4 10.72 0 266.63 -58.69 7.37zm182.87 -343.81l54.63 -6.86 0 213.6 117.37 -228.34 58.28 -7.32 0 320.85 -54.63 6.87 0 -210.17 -117.38 224.9 -58.27 7.32 0 -320.85zm290.92 -36.53l54.64 -6.86 0 213.6 117.36 -228.34 58.29 -7.32 0 320.85 -54.65 6.87 0 -210.18 -117.36 224.91 -58.28 7.32 0 -320.85zm149.74 -111.56l27.12 -3.41c-1.56,19.98 -7.89,36.39 -18.88,49.06 -11,12.65 -25.23,20.12 -42.7,22.31 -17.55,2.2 -31.78,-1.69 -42.77,-11.59 -11,-9.9 -17.34,-24.71 -18.88,-44.3l27.11 -3.41c0.95,10.19 4.19,17.63 9.85,22.22 5.67,4.59 13.89,6.17 24.69,4.82 10.72,-1.36 18.95,-5 24.62,-11.01 5.66,-6.02 8.89,-14.27 9.84,-24.69zm253.63 60.91l54.63 -6.86 0 213.6 117.36 -228.34 58.29 -7.31 0 320.85 -54.63 6.86 0 -210.17 -117.38 224.91 -58.27 7.31 0 -320.85zm403.36 -50.64l230.28 -28.92 0 320.85 -58.68 7.37 0 -266.63 -112.92 14.18 0 266.63 -58.68 7.37 0 -320.85zm290.11 284.42l0 -320.85 93.83 -11.78c35.55,-4.46 58.68,-5.81 69.48,-3.94 16.59,2.77 30.48,11.49 41.68,26.21 11.2,14.72 16.8,34.86 16.8,60.4 0,19.72 -3.24,36.63 -9.65,50.87 -6.47,14.26 -14.63,25.81 -24.55,34.76 -9.92,8.86 -20.03,15.2 -30.29,18.96 -13.96,4.82 -34.12,8.92 -60.57,12.24l-38.04 4.77 0 120.99 -58.69 7.37zm58.69 -274l0 91.43 31.91 -4.02c22.99,-2.89 38.3,-6.53 46.06,-10.86 7.75,-4.33 13.83,-10.32 18.22,-18.12 4.37,-7.72 6.6,-16.29 6.6,-25.85 0,-11.72 -3.09,-20.96 -9.23,-27.81 -6.22,-6.84 -13.97,-10.65 -23.48,-11.4 -6.95,-0.54 -20.91,0.47 -41.95,3.11l-28.13 3.52zm436.75 211.8l-63.2 7.93 -25.03 -69.9 -116.22 14.59 -24.07 76.07 -62.07 7.79 112.52 -334.98 61.99 -7.78 116.08 306.28zm-107.25 -113.8l-40.27 -113.69 -39.12 123.65 79.39 -9.96zm179.76 -128.78l-57.06 -7.61c12.27,-53.83 47.15,-84.34 104.62,-91.57 33.99,-4.26 59.69,0.8 77.03,15.2 17.33,14.4 25.97,32.82 25.97,55.22 0,15.32 -3.99,29.63 -11.88,43.02 -7.89,13.31 -19.76,25.64 -35.55,37.02 19.16,4.92 33.6,13.42 43.18,25.58 9.57,12.25 14.36,28.07 14.36,47.71 0,28.23 -9.31,52.18 -27.98,71.93 -18.63,19.74 -46.56,31.98 -83.72,36.64 -30.29,3.81 -54.24,1.22 -71.77,-7.78 -17.53,-9 -30.69,-28.35 -39.52,-58l53.42 -25.98c5.52,18.65 12.94,30.27 22.13,34.8 9.16,4.6 20.49,6.01 33.99,4.31 18.48,-2.32 31.97,-8.42 40.47,-18.37 8.43,-9.95 12.67,-20.65 12.67,-32.15 0,-13.14 -4.78,-23.21 -14.36,-30.08 -9.52,-6.87 -23.94,-9.09 -43.17,-6.68l-13.29 1.67 0 -48.39 6.68 -0.84c17.87,-2.26 31.58,-8.45 41.02,-18.52 9.5,-10.09 14.23,-22.56 14.23,-37.27 0,-11.72 -3.85,-21.09 -11.54,-28.2 -7.69,-7.02 -18.69,-9.68 -32.98,-7.88 -24.49,3.07 -40.13,18.48 -46.95,46.22zm235.75 -116.97l199.93 -25.11 0 266.63 25.5 -3.2 0 124.12 -48.98 6.15 0 -69.9 -181.72 22.82 0 69.9 -48.96 6.15 0 -124.13 24.68 -3.1c12,-28.91 19.97,-61.73 23.81,-98.36 3.85,-36.71 5.74,-82.72 5.74,-138.07l0 -33.9zm55.84 47.2c0,97.09 -8.09,168.91 -24.28,215.45l109.68 -13.76 0 -212.41 -85.4 10.72zm208.98 240.39l0 -320.85 58.67 -7.36 0 126.37 114.14 -14.34 0 -126.37 58.67 -7.37 0 320.85 -58.67 7.37 0 -140.26 -114.14 14.34 0 140.26 -58.67 7.36zm293.07 -357.65l54.64 -6.86 0 213.6 117.37 -228.34 58.27 -7.32 0 320.85 -54.63 6.87 0 -210.16 -117.36 224.89 -58.29 7.32 0 -320.85zm290.92 -36.53l58.68 -7.37 0 136.68c13.02,-3.13 21.85,-7.9 26.45,-14.53 4.58,-6.55 11.73,-24.09 21.3,-52.64 12.08,-36.24 24.29,-59.43 36.49,-69.4 12.15,-9.96 31.65,-16.67 58.62,-20.06 1.35,-0.17 4.18,-0.6 8.5,-1.29l0 47.94 -8.29 0.83c-12.02,1.5 -20.79,4.25 -26.31,8.23 -5.53,3.98 -9.99,9.54 -13.42,16.7 -3.45,7.15 -8.51,21.6 -15.18,43.36 -3.57,11.57 -7.42,21.31 -11.6,29.31 -4.12,7.98 -11.47,15.93 -21.99,23.82 13.02,2.39 23.74,9.35 32.23,20.68 8.51,11.33 17.82,27.63 27.94,49l39.45 82.88 -68.8 8.63 -34.74 -78.25c-0.53,-1.11 -1.69,-3.21 -3.37,-6.37 -0.67,-1.04 -3.11,-5.8 -7.28,-14.17 -7.42,-14.9 -13.49,-23.99 -18.22,-27.36 -4.79,-3.36 -12,-4.47 -21.78,-3.39l0 140.26 -58.68 7.37 0 -320.86zm507.23 257.16l-63.21 7.94 -25.03 -69.9 -116.21 14.6 -24.09 76.06 -62.05 7.8 112.51 -334.98 61.99 -7.78 116.09 306.26zm-107.24 -113.8l-40.27 -113.68 -39.12 123.66 79.39 -9.98z"/>
  <path class="fil14" d="M2620.17 4818.13l-63.21 7.93 -25.02 -69.9 -116.22 14.59 -24.09 76.07 -62.05 7.79 112.5 -334.97 61.99 -7.79 116.1 306.28zm-107.25 -113.81l-40.27 -113.68 -39.13 123.65 79.4 -9.97zm93.29 -205.29l65.9 -8.27 67.44 157.63 57.74 -173.35 61.04 -7.67 -98 256.16c-10.66,27.77 -21.52,49.23 -32.58,64.43 -11.06,15.21 -25.29,23.87 -42.84,26.07 -17.26,2.16 -30.75,2.59 -40.46,1.35l0 -48.25c8.3,-0.44 15.78,-1.09 22.46,-1.92 13.48,-1.7 23.2,-5.68 29.08,-11.87 5.8,-6.26 11.46,-18.85 16.79,-37.66l-106.57 -216.65zm282.28 -35.44l58.68 -7.37 0 136.67c13.02,-3.12 21.86,-7.9 26.44,-14.52 4.58,-6.55 11.75,-24.11 21.32,-52.65 12.08,-36.23 24.28,-59.42 36.49,-69.39 12.14,-9.98 31.63,-16.68 58.62,-20.06 1.35,-0.17 4.18,-0.61 8.49,-1.3l0 47.95 -8.3 0.82c-12,1.5 -20.77,4.25 -26.3,8.24 -5.53,3.97 -9.98,9.54 -13.43,16.69 -3.43,7.16 -8.49,21.61 -15.17,43.35 -3.58,11.58 -7.42,21.33 -11.61,29.32 -4.1,7.99 -11.46,15.93 -21.98,23.81 13.02,2.41 23.75,9.35 32.24,20.68 8.51,11.34 17.81,27.64 27.93,49.01l39.46 82.87 -68.8 8.64 -34.74 -78.24c-0.54,-1.13 -1.69,-3.23 -3.37,-6.37 -0.67,-1.04 -3.11,-5.82 -7.29,-14.18 -7.42,-14.91 -13.48,-24 -18.21,-27.36 -4.79,-3.36 -12,-4.47 -21.79,-3.4l0 140.27 -58.68 7.37 0 -320.85zm247.01 -31.01l58.67 -7.37 0 266.63 112.92 -14.18 0 -266.63 58.69 -7.37 0 266.63 24.28 -3.06 0 124.14 -48.98 6.15 0 -69.92 -205.58 25.83 0 -320.85zm295.63 -37.13l54.64 -6.86 0 213.6 117.37 -228.34 58.27 -7.32 0 320.85 -54.63 6.87 0 -210.17 -117.36 224.9 -58.29 7.32 0 -320.85zm277.98 127.46c0,-32.71 4.45,-60.74 13.28,-84.12 6.54,-17.17 15.58,-33.02 26.99,-47.45 11.4,-14.42 23.87,-25.62 37.42,-33.68 18.08,-10.71 38.93,-17.58 62.54,-20.55 42.76,-5.36 76.89,5.07 102.6,31.18 25.62,26.21 38.44,65.46 38.44,117.82 0,51.9 -12.75,94.13 -38.17,126.61 -25.43,32.54 -59.51,51.46 -102.06,56.79 -43.11,5.42 -77.44,-4.84 -102.87,-30.84 -25.43,-25.94 -38.17,-64.52 -38.17,-115.76zm60.3 -9.74c0,36.38 7.62,62.99 22.79,79.9 15.18,16.84 34.48,23.83 57.81,20.9 23.41,-2.94 42.57,-14.68 57.61,-35.17 14.97,-20.55 22.46,-49.43 22.46,-86.7 0,-36.81 -7.28,-63.38 -21.93,-79.62 -14.56,-16.32 -33.92,-22.92 -58.14,-19.88 -24.15,3.03 -43.64,14.66 -58.41,34.82 -14.77,20.23 -22.19,48.8 -22.19,85.75zm266.63 127.18l0 -320.85 58.69 -7.37 0 126.38 114.12 -14.34 0 -126.37 58.69 -7.37 0 320.85 -58.69 7.37 0 -140.26 -114.12 14.34 0 140.25 -58.69 7.37zm590.07 -192.39l56.67 12.16c-8.7,36.41 -23.2,64.45 -43.44,84.17 -20.24,19.65 -45.87,31.44 -76.96,35.35 -38.52,4.83 -70.15,-5.75 -94.98,-31.76 -24.76,-26.02 -37.16,-64.27 -37.16,-114.84 0,-53.4 12.47,-96.48 37.36,-129.18 24.89,-32.71 57.68,-51.62 98.29,-56.71 35.48,-4.45 64.28,3.58 86.39,24.02 13.23,12.09 23.08,30.58 29.68,55.5l-57.87 22.51c-3.44,-16.15 -10.59,-28.4 -21.44,-36.67 -10.93,-8.26 -24.15,-11.38 -39.67,-9.43 -21.52,2.69 -38.99,13.4 -52.34,32.19 -13.43,18.72 -20.11,47.19 -20.11,85.42 0,40.48 6.62,68.55 19.78,84.08 13.22,15.59 30.35,22.04 51.46,19.38 15.58,-1.95 29,-9.09 40.19,-21.48 11.2,-12.38 19.3,-30.57 24.15,-54.71zm84.73 -50.81c0,-32.73 4.44,-60.76 13.29,-84.12 6.54,-17.19 15.58,-33.04 26.97,-47.46 11.4,-14.43 23.88,-25.63 37.44,-33.69 18.08,-10.7 38.93,-17.57 62.53,-20.53 42.76,-5.38 76.9,5.05 102.59,31.18 25.64,26.21 38.45,65.45 38.45,117.8 0,51.92 -12.75,94.14 -38.18,126.61 -25.42,32.54 -59.49,51.46 -102.05,56.81 -43.1,5.4 -77.44,-4.85 -102.86,-30.86 -25.44,-25.94 -38.18,-64.52 -38.18,-115.74zm60.3 -9.74c0,36.36 7.62,62.97 22.8,79.88 15.18,16.84 34.47,23.83 57.81,20.9 23.4,-2.94 42.56,-14.68 57.6,-35.17 14.98,-20.55 22.46,-49.41 22.46,-86.68 0,-36.83 -7.29,-63.39 -21.92,-79.63 -14.57,-16.33 -33.93,-22.93 -58.14,-19.89 -24.15,3.03 -43.64,14.67 -58.42,34.82 -14.77,20.23 -22.19,48.8 -22.19,85.77zm267.86 -193.84l216.51 -27.18 0 54.22 -157.84 19.82 0 74.38 78.18 -9.81c21.52,-2.71 39.47,-2.05 53.62,2 14.24,4.04 26.38,13.28 36.43,27.77 10.05,14.42 15.11,32.23 15.11,53.36 0,21.67 -5.06,40.9 -15.24,57.64 -10.12,16.65 -21.65,28.71 -34.67,36.01 -12.96,7.31 -31.44,12.47 -55.38,15.48l-136.72 17.16 0 -320.85zm58.67 259.26l56.86 -7.14c18.16,-2.28 30.96,-4.85 38.32,-7.71 7.35,-2.88 13.83,-8.1 19.29,-15.72 5.47,-7.57 8.16,-16.41 8.16,-26.5 0,-14.71 -4.79,-24.78 -14.29,-30.31 -9.59,-5.46 -25.84,-6.78 -48.91,-3.88l-59.43 7.46 0 83.8zm232.65 -295.83l58.69 -7.37 0 128.16 78.17 -9.82c20.5,-2.57 38.18,-1.65 52.96,2.69 14.76,4.35 27.1,13.85 37.02,28.59 9.85,14.73 14.77,32.49 14.77,53.26 0,21.73 -5.12,41.05 -15.38,58.09 -10.32,16.98 -21.72,28.8 -34.33,35.46 -12.55,6.73 -30.96,11.57 -55.18,14.62l-136.72 17.17 0 -320.85zm58.69 259.26l57.05 -7.17c18.15,-2.28 30.84,-4.83 38.05,-7.68 7.15,-2.85 13.56,-8.14 19.15,-15.79 5.61,-7.64 8.37,-16.43 8.37,-26.44 0,-14.18 -4.59,-24.3 -13.69,-30.24 -9.18,-5.94 -25.7,-7.38 -49.51,-4.39l-59.42 7.46 0 84.25zm216.51 -293.82l58.69 -7.37 0 320.85 -58.69 7.37 0 -320.85zm184.55 297.68l0 -266.63 -85.79 10.77 0 -54.22 229.88 -28.86 0 54.22 -85.4 10.72 0 266.63 -58.69 7.37zm182.87 -343.81l54.63 -6.86 0 213.6 117.37 -228.34 58.28 -7.32 0 320.85 -54.63 6.87 0 -210.17 -117.38 224.9 -58.27 7.32 0 -320.85zm290.92 -36.53l54.64 -6.86 0 213.6 117.36 -228.34 58.29 -7.32 0 320.85 -54.65 6.87 0 -210.18 -117.36 224.91 -58.28 7.32 0 -320.85zm149.74 -111.56l27.12 -3.41c-1.56,19.98 -7.89,36.39 -18.88,49.06 -11,12.65 -25.23,20.12 -42.7,22.31 -17.55,2.2 -31.78,-1.69 -42.77,-11.59 -11,-9.9 -17.34,-24.71 -18.88,-44.3l27.11 -3.41c0.95,10.19 4.19,17.63 9.85,22.22 5.67,4.59 13.89,6.17 24.69,4.82 10.72,-1.36 18.95,-5 24.62,-11.01 5.66,-6.02 8.89,-14.27 9.84,-24.69zm253.63 60.91l54.63 -6.86 0 213.6 117.36 -228.34 58.29 -7.31 0 320.85 -54.63 6.86 0 -210.17 -117.38 224.91 -58.27 7.31 0 -320.85zm403.36 -50.64l230.28 -28.92 0 320.85 -58.68 7.37 0 -266.63 -112.92 14.18 0 266.63 -58.68 7.37 0 -320.85zm290.11 284.42l0 -320.85 93.83 -11.78c35.55,-4.46 58.68,-5.81 69.48,-3.94 16.59,2.77 30.48,11.49 41.68,26.21 11.2,14.72 16.8,34.86 16.8,60.4 0,19.72 -3.24,36.63 -9.65,50.87 -6.47,14.26 -14.63,25.81 -24.55,34.76 -9.92,8.86 -20.03,15.2 -30.29,18.96 -13.96,4.82 -34.12,8.92 -60.57,12.24l-38.04 4.77 0 120.99 -58.69 7.37zm58.69 -274l0 91.43 31.91 -4.02c22.99,-2.89 38.3,-6.53 46.06,-10.86 7.75,-4.33 13.83,-10.32 18.22,-18.12 4.37,-7.72 6.6,-16.29 6.6,-25.85 0,-11.72 -3.09,-20.96 -9.23,-27.81 -6.22,-6.84 -13.97,-10.65 -23.48,-11.4 -6.95,-0.54 -20.91,0.47 -41.95,3.11l-28.13 3.52zm436.75 211.8l-63.2 7.93 -25.03 -69.9 -116.22 14.59 -24.07 76.07 -62.07 7.79 112.52 -334.98 61.99 -7.78 116.08 306.28zm-107.25 -113.8l-40.27 -113.69 -39.12 123.65 79.39 -9.96zm179.76 -128.78l-57.06 -7.61c12.27,-53.83 47.15,-84.34 104.62,-91.57 33.99,-4.26 59.69,0.8 77.03,15.2 17.33,14.4 25.97,32.82 25.97,55.22 0,15.32 -3.99,29.63 -11.88,43.02 -7.89,13.31 -19.76,25.64 -35.55,37.02 19.16,4.92 33.6,13.42 43.18,25.58 9.57,12.25 14.36,28.07 14.36,47.71 0,28.23 -9.31,52.18 -27.98,71.93 -18.63,19.74 -46.56,31.98 -83.72,36.64 -30.29,3.81 -54.24,1.22 -71.77,-7.78 -17.53,-9 -30.69,-28.35 -39.52,-58l53.42 -25.98c5.52,18.65 12.94,30.27 22.13,34.8 9.16,4.6 20.49,6.01 33.99,4.31 18.48,-2.32 31.97,-8.42 40.47,-18.37 8.43,-9.95 12.67,-20.65 12.67,-32.15 0,-13.14 -4.78,-23.21 -14.36,-30.08 -9.52,-6.87 -23.94,-9.09 -43.17,-6.68l-13.29 1.67 0 -48.39 6.68 -0.84c17.87,-2.26 31.58,-8.45 41.02,-18.52 9.5,-10.09 14.23,-22.56 14.23,-37.27 0,-11.72 -3.85,-21.09 -11.54,-28.2 -7.69,-7.02 -18.69,-9.68 -32.98,-7.88 -24.49,3.07 -40.13,18.48 -46.95,46.22zm235.75 -116.97l199.93 -25.11 0 266.63 25.5 -3.2 0 124.12 -48.98 6.15 0 -69.9 -181.72 22.82 0 69.9 -48.96 6.15 0 -124.13 24.68 -3.1c12,-28.91 19.97,-61.73 23.81,-98.36 3.85,-36.71 5.74,-82.72 5.74,-138.07l0 -33.9zm55.84 47.2c0,97.09 -8.09,168.91 -24.28,215.45l109.68 -13.76 0 -212.41 -85.4 10.72zm208.98 240.39l0 -320.85 58.67 -7.36 0 126.37 114.14 -14.34 0 -126.37 58.67 -7.37 0 320.85 -58.67 7.37 0 -140.26 -114.14 14.34 0 140.26 -58.67 7.36zm293.07 -357.65l54.64 -6.86 0 213.6 117.37 -228.34 58.27 -7.32 0 320.85 -54.63 6.87 0 -210.16 -117.36 224.89 -58.29 7.32 0 -320.85zm290.92 -36.53l58.68 -7.37 0 136.68c13.02,-3.13 21.85,-7.9 26.45,-14.53 4.58,-6.55 11.73,-24.09 21.3,-52.64 12.08,-36.24 24.29,-59.43 36.49,-69.4 12.15,-9.96 31.65,-16.67 58.62,-20.06 1.35,-0.17 4.18,-0.6 8.5,-1.29l0 47.94 -8.29 0.83c-12.02,1.5 -20.79,4.25 -26.31,8.23 -5.53,3.98 -9.99,9.54 -13.42,16.7 -3.45,7.15 -8.51,21.6 -15.18,43.36 -3.57,11.57 -7.42,21.31 -11.6,29.31 -4.12,7.98 -11.47,15.93 -21.99,23.82 13.02,2.39 23.74,9.35 32.23,20.68 8.51,11.33 17.82,27.63 27.94,49l39.45 82.88 -68.8 8.63 -34.74 -78.25c-0.53,-1.11 -1.69,-3.21 -3.37,-6.37 -0.67,-1.04 -3.11,-5.8 -7.28,-14.17 -7.42,-14.9 -13.49,-23.99 -18.22,-27.36 -4.79,-3.36 -12,-4.47 -21.78,-3.39l0 140.26 -58.68 7.37 0 -320.86zm507.23 257.16l-63.21 7.94 -25.03 -69.9 -116.21 14.6 -24.09 76.06 -62.05 7.8 112.51 -334.98 61.99 -7.78 116.09 306.26zm-107.24 -113.8l-40.27 -113.68 -39.12 123.66 79.39 -9.98z"/>
  <path class="fil14" d="M2620.17 4818.13l-63.21 7.93 -25.02 -69.9 -116.22 14.59 -24.09 76.07 -62.05 7.79 112.5 -334.97 61.99 -7.79 116.1 306.28zm-107.25 -113.81l-40.27 -113.68 -39.13 123.65 79.4 -9.97zm93.29 -205.29l65.9 -8.27 67.44 157.63 57.74 -173.35 61.04 -7.67 -98 256.16c-10.66,27.77 -21.52,49.23 -32.58,64.43 -11.06,15.21 -25.29,23.87 -42.84,26.07 -17.26,2.16 -30.75,2.59 -40.46,1.35l0 -48.25c8.3,-0.44 15.78,-1.09 22.46,-1.92 13.48,-1.7 23.2,-5.68 29.08,-11.87 5.8,-6.26 11.46,-18.85 16.79,-37.66l-106.57 -216.65zm282.28 -35.44l58.68 -7.37 0 136.67c13.02,-3.12 21.86,-7.9 26.44,-14.52 4.58,-6.55 11.75,-24.11 21.32,-52.65 12.08,-36.23 24.28,-59.42 36.49,-69.39 12.14,-9.98 31.63,-16.68 58.62,-20.06 1.35,-0.17 4.18,-0.61 8.49,-1.3l0 47.95 -8.3 0.82c-12,1.5 -20.77,4.25 -26.3,8.24 -5.53,3.97 -9.98,9.54 -13.43,16.69 -3.43,7.16 -8.49,21.61 -15.17,43.35 -3.58,11.58 -7.42,21.33 -11.61,29.32 -4.1,7.99 -11.46,15.93 -21.98,23.81 13.02,2.41 23.75,9.35 32.24,20.68 8.51,11.34 17.81,27.64 27.93,49.01l39.46 82.87 -68.8 8.64 -34.74 -78.24c-0.54,-1.13 -1.69,-3.23 -3.37,-6.37 -0.67,-1.04 -3.11,-5.82 -7.29,-14.18 -7.42,-14.91 -13.48,-24 -18.21,-27.36 -4.79,-3.36 -12,-4.47 -21.79,-3.4l0 140.27 -58.68 7.37 0 -320.85zm247.01 -31.01l58.67 -7.37 0 266.63 112.92 -14.18 0 -266.63 58.69 -7.37 0 266.63 24.28 -3.06 0 124.14 -48.98 6.15 0 -69.92 -205.58 25.83 0 -320.85zm295.63 -37.13l54.64 -6.86 0 213.6 117.37 -228.34 58.27 -7.32 0 320.85 -54.63 6.87 0 -210.17 -117.36 224.9 -58.29 7.32 0 -320.85zm277.98 127.46c0,-32.71 4.45,-60.74 13.28,-84.12 6.54,-17.17 15.58,-33.02 26.99,-47.45 11.4,-14.42 23.87,-25.62 37.42,-33.68 18.08,-10.71 38.93,-17.58 62.54,-20.55 42.76,-5.36 76.89,5.07 102.6,31.18 25.62,26.21 38.44,65.46 38.44,117.82 0,51.9 -12.75,94.13 -38.17,126.61 -25.43,32.54 -59.51,51.46 -102.06,56.79 -43.11,5.42 -77.44,-4.84 -102.87,-30.84 -25.43,-25.94 -38.17,-64.52 -38.17,-115.76zm60.3 -9.74c0,36.38 7.62,62.99 22.79,79.9 15.18,16.84 34.48,23.83 57.81,20.9 23.41,-2.94 42.57,-14.68 57.61,-35.17 14.97,-20.55 22.46,-49.43 22.46,-86.7 0,-36.81 -7.28,-63.38 -21.93,-79.62 -14.56,-16.32 -33.92,-22.92 -58.14,-19.88 -24.15,3.03 -43.64,14.66 -58.41,34.82 -14.77,20.23 -22.19,48.8 -22.19,85.75zm266.63 127.18l0 -320.85 58.69 -7.37 0 126.38 114.12 -14.34 0 -126.37 58.69 -7.37 0 320.85 -58.69 7.37 0 -140.26 -114.12 14.34 0 140.25 -58.69 7.37zm590.07 -192.39l56.67 12.16c-8.7,36.41 -23.2,64.45 -43.44,84.17 -20.24,19.65 -45.87,31.44 -76.96,35.35 -38.52,4.83 -70.15,-5.75 -94.98,-31.76 -24.76,-26.02 -37.16,-64.27 -37.16,-114.84 0,-53.4 12.47,-96.48 37.36,-129.18 24.89,-32.71 57.68,-51.62 98.29,-56.71 35.48,-4.45 64.28,3.58 86.39,24.02 13.23,12.09 23.08,30.58 29.68,55.5l-57.87 22.51c-3.44,-16.15 -10.59,-28.4 -21.44,-36.67 -10.93,-8.26 -24.15,-11.38 -39.67,-9.43 -21.52,2.69 -38.99,13.4 -52.34,32.19 -13.43,18.72 -20.11,47.19 -20.11,85.42 0,40.48 6.62,68.55 19.78,84.08 13.22,15.59 30.35,22.04 51.46,19.38 15.58,-1.95 29,-9.09 40.19,-21.48 11.2,-12.38 19.3,-30.57 24.15,-54.71zm84.73 -50.81c0,-32.73 4.44,-60.76 13.29,-84.12 6.54,-17.19 15.58,-33.04 26.97,-47.46 11.4,-14.43 23.88,-25.63 37.44,-33.69 18.08,-10.7 38.93,-17.57 62.53,-20.53 42.76,-5.38 76.9,5.05 102.59,31.18 25.64,26.21 38.45,65.45 38.45,117.8 0,51.92 -12.75,94.14 -38.18,126.61 -25.42,32.54 -59.49,51.46 -102.05,56.81 -43.1,5.4 -77.44,-4.85 -102.86,-30.86 -25.44,-25.94 -38.18,-64.52 -38.18,-115.74zm60.3 -9.74c0,36.36 7.62,62.97 22.8,79.88 15.18,16.84 34.47,23.83 57.81,20.9 23.4,-2.94 42.56,-14.68 57.6,-35.17 14.98,-20.55 22.46,-49.41 22.46,-86.68 0,-36.83 -7.29,-63.39 -21.92,-79.63 -14.57,-16.33 -33.93,-22.93 -58.14,-19.89 -24.15,3.03 -43.64,14.67 -58.42,34.82 -14.77,20.23 -22.19,48.8 -22.19,85.77zm267.86 -193.84l216.51 -27.18 0 54.22 -157.84 19.82 0 74.38 78.18 -9.81c21.52,-2.71 39.47,-2.05 53.62,2 14.24,4.04 26.38,13.28 36.43,27.77 10.05,14.42 15.11,32.23 15.11,53.36 0,21.67 -5.06,40.9 -15.24,57.64 -10.12,16.65 -21.65,28.71 -34.67,36.01 -12.96,7.31 -31.44,12.47 -55.38,15.48l-136.72 17.16 0 -320.85zm58.67 259.26l56.86 -7.14c18.16,-2.28 30.96,-4.85 38.32,-7.71 7.35,-2.88 13.83,-8.1 19.29,-15.72 5.47,-7.57 8.16,-16.41 8.16,-26.5 0,-14.71 -4.79,-24.78 -14.29,-30.31 -9.59,-5.46 -25.84,-6.78 -48.91,-3.88l-59.43 7.46 0 83.8zm232.65 -295.83l58.69 -7.37 0 128.16 78.17 -9.82c20.5,-2.57 38.18,-1.65 52.96,2.69 14.76,4.35 27.1,13.85 37.02,28.59 9.85,14.73 14.77,32.49 14.77,53.26 0,21.73 -5.12,41.05 -15.38,58.09 -10.32,16.98 -21.72,28.8 -34.33,35.46 -12.55,6.73 -30.96,11.57 -55.18,14.62l-136.72 17.17 0 -320.85zm58.69 259.26l57.05 -7.17c18.15,-2.28 30.84,-4.83 38.05,-7.68 7.15,-2.85 13.56,-8.14 19.15,-15.79 5.61,-7.64 8.37,-16.43 8.37,-26.44 0,-14.18 -4.59,-24.3 -13.69,-30.24 -9.18,-5.94 -25.7,-7.38 -49.51,-4.39l-59.42 7.46 0 84.25zm216.51 -293.82l58.69 -7.37 0 320.85 -58.69 7.37 0 -320.85zm184.55 297.68l0 -266.63 -85.79 10.77 0 -54.22 229.88 -28.86 0 54.22 -85.4 10.72 0 266.63 -58.69 7.37zm182.87 -343.81l54.63 -6.86 0 213.6 117.37 -228.34 58.28 -7.32 0 320.85 -54.63 6.87 0 -210.17 -117.38 224.9 -58.27 7.32 0 -320.85zm290.92 -36.53l54.64 -6.86 0 213.6 117.36 -228.34 58.29 -7.32 0 320.85 -54.65 6.87 0 -210.18 -117.36 224.91 -58.28 7.32 0 -320.85zm149.74 -111.56l27.12 -3.41c-1.56,19.98 -7.89,36.39 -18.88,49.06 -11,12.65 -25.23,20.12 -42.7,22.31 -17.55,2.2 -31.78,-1.69 -42.77,-11.59 -11,-9.9 -17.34,-24.71 -18.88,-44.3l27.11 -3.41c0.95,10.19 4.19,17.63 9.85,22.22 5.67,4.59 13.89,6.17 24.69,4.82 10.72,-1.36 18.95,-5 24.62,-11.01 5.66,-6.02 8.89,-14.27 9.84,-24.69zm253.63 60.91l54.63 -6.86 0 213.6 117.36 -228.34 58.29 -7.31 0 320.85 -54.63 6.86 0 -210.17 -117.38 224.91 -58.27 7.31 0 -320.85zm403.36 -50.64l230.28 -28.92 0 320.85 -58.68 7.37 0 -266.63 -112.92 14.18 0 266.63 -58.68 7.37 0 -320.85zm290.11 284.42l0 -320.85 93.83 -11.78c35.55,-4.46 58.68,-5.81 69.48,-3.94 16.59,2.77 30.48,11.49 41.68,26.21 11.2,14.72 16.8,34.86 16.8,60.4 0,19.72 -3.24,36.63 -9.65,50.87 -6.47,14.26 -14.63,25.81 -24.55,34.76 -9.92,8.86 -20.03,15.2 -30.29,18.96 -13.96,4.82 -34.12,8.92 -60.57,12.24l-38.04 4.77 0 120.99 -58.69 7.37zm58.69 -274l0 91.43 31.91 -4.02c22.99,-2.89 38.3,-6.53 46.06,-10.86 7.75,-4.33 13.83,-10.32 18.22,-18.12 4.37,-7.72 6.6,-16.29 6.6,-25.85 0,-11.72 -3.09,-20.96 -9.23,-27.81 -6.22,-6.84 -13.97,-10.65 -23.48,-11.4 -6.95,-0.54 -20.91,0.47 -41.95,3.11l-28.13 3.52zm436.75 211.8l-63.2 7.93 -25.03 -69.9 -116.22 14.59 -24.07 76.07 -62.07 7.79 112.52 -334.98 61.99 -7.78 116.08 306.28zm-107.25 -113.8l-40.27 -113.69 -39.12 123.65 79.39 -9.96zm179.76 -128.78l-57.06 -7.61c12.27,-53.83 47.15,-84.34 104.62,-91.57 33.99,-4.26 59.69,0.8 77.03,15.2 17.33,14.4 25.97,32.82 25.97,55.22 0,15.32 -3.99,29.63 -11.88,43.02 -7.89,13.31 -19.76,25.64 -35.55,37.02 19.16,4.92 33.6,13.42 43.18,25.58 9.57,12.25 14.36,28.07 14.36,47.71 0,28.23 -9.31,52.18 -27.98,71.93 -18.63,19.74 -46.56,31.98 -83.72,36.64 -30.29,3.81 -54.24,1.22 -71.77,-7.78 -17.53,-9 -30.69,-28.35 -39.52,-58l53.42 -25.98c5.52,18.65 12.94,30.27 22.13,34.8 9.16,4.6 20.49,6.01 33.99,4.31 18.48,-2.32 31.97,-8.42 40.47,-18.37 8.43,-9.95 12.67,-20.65 12.67,-32.15 0,-13.14 -4.78,-23.21 -14.36,-30.08 -9.52,-6.87 -23.94,-9.09 -43.17,-6.68l-13.29 1.67 0 -48.39 6.68 -0.84c17.87,-2.26 31.58,-8.45 41.02,-18.52 9.5,-10.09 14.23,-22.56 14.23,-37.27 0,-11.72 -3.85,-21.09 -11.54,-28.2 -7.69,-7.02 -18.69,-9.68 -32.98,-7.88 -24.49,3.07 -40.13,18.48 -46.95,46.22zm235.75 -116.97l199.93 -25.11 0 266.63 25.5 -3.2 0 124.12 -48.98 6.15 0 -69.9 -181.72 22.82 0 69.9 -48.96 6.15 0 -124.13 24.68 -3.1c12,-28.91 19.97,-61.73 23.81,-98.36 3.85,-36.71 5.74,-82.72 5.74,-138.07l0 -33.9zm55.84 47.2c0,97.09 -8.09,168.91 -24.28,215.45l109.68 -13.76 0 -212.41 -85.4 10.72zm208.98 240.39l0 -320.85 58.67 -7.36 0 126.37 114.14 -14.34 0 -126.37 58.67 -7.37 0 320.85 -58.67 7.37 0 -140.26 -114.14 14.34 0 140.26 -58.67 7.36zm293.07 -357.65l54.64 -6.86 0 213.6 117.37 -228.34 58.27 -7.32 0 320.85 -54.63 6.87 0 -210.16 -117.36 224.89 -58.29 7.32 0 -320.85zm290.92 -36.53l58.68 -7.37 0 136.68c13.02,-3.13 21.85,-7.9 26.45,-14.53 4.58,-6.55 11.73,-24.09 21.3,-52.64 12.08,-36.24 24.29,-59.43 36.49,-69.4 12.15,-9.96 31.65,-16.67 58.62,-20.06 1.35,-0.17 4.18,-0.6 8.5,-1.29l0 47.94 -8.29 0.83c-12.02,1.5 -20.79,4.25 -26.31,8.23 -5.53,3.98 -9.99,9.54 -13.42,16.7 -3.45,7.15 -8.51,21.6 -15.18,43.36 -3.57,11.57 -7.42,21.31 -11.6,29.31 -4.12,7.98 -11.47,15.93 -21.99,23.82 13.02,2.39 23.74,9.35 32.23,20.68 8.51,11.33 17.82,27.63 27.94,49l39.45 82.88 -68.8 8.63 -34.74 -78.25c-0.53,-1.11 -1.69,-3.21 -3.37,-6.37 -0.67,-1.04 -3.11,-5.8 -7.28,-14.17 -7.42,-14.9 -13.49,-23.99 -18.22,-27.36 -4.79,-3.36 -12,-4.47 -21.78,-3.39l0 140.26 -58.68 7.37 0 -320.86zm507.23 257.16l-63.21 7.94 -25.03 -69.9 -116.21 14.6 -24.09 76.06 -62.05 7.8 112.51 -334.98 61.99 -7.78 116.09 306.26zm-107.24 -113.8l-40.27 -113.68 -39.12 123.66 79.39 -9.98z"/>
  <path class="fil15" d="M2500.88 1765.98l463.59 -53.69 176.59 633.13 177.12 -674.08 461.47 -53.43 0 1074.11 -287.53 33.29 0 -818.84 -221.86 844.53 -260.52 30.17 -221.35 -793.21 0 818.84 -287.51 33.29 0 -1074.11zm1388.11 -160.74l390.25 -45.19 230.07 334.9 229.01 -388.06 388.14 -44.95 -441.61 675.46 0 449.79 -352.66 40.84 0 -449.8 -443.2 -572.99z"/>
  <path class="fil15" d="M3966.71 2896.54l1069.09 -123.8 0 265.53 -359.01 41.57 0 808.58 -351.08 40.66 0 -808.59 -359 41.58 0 -265.53zm1226.62 -142.04l940.42 -108.9 0 229.52 -587.77 68.06 0 171.03 544.87 -63.1 0 219.02 -544.87 63.09 0 211.53 605.24 -70.08 0 243.03 -957.89 110.91 0 -1074.11zm1150.37 -133.21l328.04 -37.99 426.51 543.68 0 -593.06 332.02 -38.45 0 1074.11 -332.02 38.45 -424.13 -540.7 0 589.81 -330.42 38.27 0 -1074.12zm1324.84 -153.4l522.37 -60.49c102.73,-11.89 186.12,-8.3 249.41,10.63 63.27,19.17 115.69,50.85 157.25,95.3 41.31,44.72 71.23,98.52 89.76,161.88 18.8,63.32 28.06,131.51 28.06,204.77 0,114.76 -13.77,205.36 -41.57,271.83 -27.53,66.45 -65.92,123.91 -115.16,172.36 -49.25,48.46 -101.94,83.06 -158.33,103.84 -77.04,28.43 -146.94,46.27 -209.42,53.51l-522.37 60.49 0 -1074.12zm351.07 202.36l0 586.56 86.31 -9.99c73.61,-8.53 126.02,-22.35 157.27,-41.21 30.98,-19.09 55.34,-48.67 73.08,-88.98 17.72,-40.56 26.47,-103.57 26.47,-189.58 0,-113.76 -19.6,-189.26 -59.04,-226.69 -39.46,-37.44 -104.84,-50.87 -196.19,-40.29l-87.9 10.18z"/>
  <polygon class="fil16 str5" points="2095.52,4383.98 9609.66,3440.51 9609.66,3978.26 2095.52,4921.72 "/>
  <path class="fil14" d="M2561.27 4760.85l-63.19 7.92 -25.03 -69.89 -116.23 14.58 -24.07 76.07 -62.07 7.79 112.52 -334.97 61.99 -7.79 116.08 306.29zm-107.25 -113.8l-40.27 -113.7 -39.12 123.67 79.39 -9.97zm93.29 -205.31l65.9 -8.27 67.46 157.63 57.74 -173.35 61.04 -7.67 -98.01 256.16c-10.66,27.77 -21.51,49.23 -32.58,64.43 -11.06,15.21 -25.29,23.87 -42.83,26.07 -17.27,2.18 -30.75,2.59 -40.46,1.35l0 -48.24c8.28,-0.45 15.77,-1.09 22.45,-1.93 13.49,-1.69 23.21,-5.67 29.07,-11.86 5.8,-6.25 11.46,-18.84 16.8,-37.67l-106.58 -216.65zm282.29 -35.44l58.69 -7.37 0 136.67c13.01,-3.12 21.85,-7.9 26.44,-14.51 4.58,-6.56 11.73,-24.12 21.31,-52.64 12.07,-36.25 24.28,-59.44 36.5,-69.41 12.13,-9.97 31.63,-16.68 58.6,-20.06 1.35,-0.17 4.19,-0.6 8.51,-1.3l0 47.96 -8.3 0.81c-12,1.5 -20.77,4.25 -26.31,8.24 -5.53,3.97 -9.97,9.54 -13.42,16.69 -3.44,7.16 -8.49,21.61 -15.17,43.35 -3.58,11.58 -7.42,21.33 -11.61,29.32 -4.11,7.99 -11.46,15.93 -21.98,23.83 13.01,2.39 23.73,9.34 32.24,20.67 8.49,11.33 17.8,27.64 27.92,49l39.46 82.87 -68.81 8.64 -34.73 -78.24c-0.54,-1.13 -1.68,-3.22 -3.38,-6.37 -0.67,-1.04 -3.09,-5.82 -7.27,-14.18 -7.42,-14.89 -13.5,-24 -18.22,-27.36 -4.79,-3.36 -12.01,-4.47 -21.78,-3.38l0 140.25 -58.69 7.37 0 -320.85zm247 -31.01l58.69 -7.37 0 266.63 112.9 -14.18 0 -266.63 58.69 -7.37 0 266.63 24.28 -3.05 0 124.13 -48.96 6.15 0 -69.91 -205.6 25.82 0 -320.85zm295.64 -37.13l54.65 -6.86 0 213.6 117.36 -228.33 58.28 -7.33 0 320.87 -54.64 6.85 0 -210.16 -117.37 224.89 -58.28 7.32 0 -320.85zm277.97 127.48c0,-32.73 4.46,-60.76 13.29,-84.14 6.55,-17.17 15.59,-33.02 26.99,-47.44 11.39,-14.43 23.87,-25.63 37.43,-33.69 18.08,-10.7 38.92,-17.58 62.52,-20.55 42.77,-5.36 76.91,5.07 102.6,31.2 25.64,26.2 38.45,65.45 38.45,117.8 0,51.9 -12.74,94.13 -38.18,126.61 -25.43,32.54 -59.49,51.46 -102.05,56.79 -43.1,5.42 -77.44,-4.83 -102.86,-30.84 -25.43,-25.94 -38.19,-64.52 -38.19,-115.74zm60.31 -9.74c0,36.36 7.63,62.97 22.8,79.88 15.18,16.84 34.46,23.83 57.81,20.9 23.4,-2.94 42.55,-14.68 57.6,-35.17 14.97,-20.55 22.47,-49.41 22.47,-86.68 0,-36.83 -7.29,-63.4 -21.93,-79.63 -14.57,-16.33 -33.93,-22.93 -58.14,-19.89 -24.15,3.03 -43.65,14.67 -58.42,34.82 -14.77,20.23 -22.19,48.8 -22.19,85.77zm266.64 127.16l0 -320.85 58.68 -7.37 0 126.38 114.13 -14.34 0 -126.37 58.69 -7.37 0 320.86 -58.69 7.37 0 -140.27 -114.13 14.34 0 140.25 -58.68 7.37zm590.07 -192.39l56.66 12.16c-8.71,36.41 -23.21,64.45 -43.44,84.17 -20.24,19.65 -45.86,31.46 -76.97,35.35 -38.51,4.85 -70.15,-5.74 -94.97,-31.76 -24.75,-26.02 -37.17,-64.27 -37.17,-114.84 0,-53.39 12.49,-96.48 37.38,-129.18 24.89,-32.71 57.67,-51.6 98.27,-56.71 35.48,-4.45 64.28,3.58 86.41,24.04 13.22,12.07 23.07,30.56 29.68,55.49l-57.88 22.5c-3.43,-16.15 -10.58,-28.4 -21.45,-36.67 -10.92,-8.26 -24.15,-11.37 -39.66,-9.43 -21.51,2.71 -38.98,13.42 -52.34,32.19 -13.42,18.72 -20.1,47.19 -20.1,85.43 0,40.48 6.61,68.54 19.76,84.08 13.22,15.6 30.36,22.03 51.46,19.38 15.59,-1.96 29.01,-9.09 40.21,-21.49 11.2,-12.38 19.3,-30.57 24.15,-54.71zm84.72 -50.81c0,-32.71 4.45,-60.76 13.28,-84.12 6.54,-17.19 15.58,-33.04 26.99,-47.46 11.4,-14.43 23.88,-25.63 37.44,-33.68 18.06,-10.71 38.91,-17.58 62.52,-20.54 42.77,-5.38 76.89,5.05 102.6,31.18 25.62,26.21 38.44,65.45 38.44,117.8 0,51.92 -12.75,94.14 -38.17,126.61 -25.43,32.54 -59.49,51.46 -102.06,56.81 -43.1,5.41 -77.43,-4.84 -102.87,-30.86 -25.43,-25.92 -38.17,-64.51 -38.17,-115.74zm60.3 -9.74c0,36.37 7.62,62.97 22.8,79.88 15.17,16.85 34.47,23.83 57.8,20.91 23.41,-2.94 42.57,-14.69 57.61,-35.18 14.97,-20.55 22.46,-49.41 22.46,-86.68 0,-36.83 -7.28,-63.39 -21.93,-79.63 -14.56,-16.33 -33.92,-22.93 -58.14,-19.89 -24.14,3.03 -43.64,14.68 -58.41,34.82 -14.77,20.23 -22.19,48.8 -22.19,85.77zm267.85 -193.84l216.53 -27.18 0 54.22 -157.84 19.82 0 74.38 78.18 -9.81c21.52,-2.69 39.45,-2.05 53.62,2.01 14.23,4.04 26.38,13.27 36.43,27.76 10.04,14.43 15.1,32.23 15.1,53.38 0,21.65 -5.06,40.88 -15.25,57.62 -10.11,16.66 -21.65,28.71 -34.66,36.03 -12.95,7.29 -31.43,12.46 -55.37,15.46l-136.74 17.17 0 -320.86zm58.69 259.26l56.86 -7.13c18.14,-2.28 30.96,-4.86 38.32,-7.72 7.34,-2.88 13.81,-8.1 19.28,-15.72 5.46,-7.55 8.17,-16.41 8.17,-26.5 0,-14.71 -4.79,-24.78 -14.31,-30.31 -9.57,-5.45 -25.83,-6.78 -48.9,-3.87l-59.42 7.45 0 83.8zm232.64 -295.83l58.68 -7.37 0 128.16 78.18 -9.81c20.51,-2.58 38.18,-1.66 52.95,2.68 14.78,4.35 27.12,13.85 37.04,28.59 9.84,14.75 14.76,32.5 14.76,53.26 0,21.73 -5.12,41.05 -15.37,58.09 -10.32,16.99 -21.72,28.8 -34.34,35.46 -12.54,6.73 -30.95,11.57 -55.17,14.62l-136.73 17.17 0 -320.85zm58.68 259.26l57.07 -7.17c18.14,-2.27 30.82,-4.83 38.04,-7.68 7.16,-2.85 13.55,-8.13 19.16,-15.77 5.59,-7.66 8.37,-16.45 8.37,-26.46 0,-14.18 -4.6,-24.29 -13.7,-30.24 -9.17,-5.94 -25.7,-7.38 -49.51,-4.39l-59.43 7.46 0 84.25zm216.52 -293.82l58.69 -7.37 0 320.86 -58.69 7.37 0 -320.86zm184.56 297.68l0 -266.63 -85.81 10.77 0 -54.22 229.88 -28.86 0 54.22 -85.39 10.72 0 266.63 -58.68 7.37zm182.86 -343.81l54.63 -6.86 0 213.6 117.37 -228.34 58.28 -7.32 0 320.85 -54.64 6.87 0 -210.17 -117.36 224.9 -58.28 7.32 0 -320.85zm290.92 -36.53l54.63 -6.86 0 213.6 117.38 -228.34 58.27 -7.32 0 320.87 -54.63 6.85 0 -210.16 -117.38 224.89 -58.27 7.32 0 -320.85zm149.75 -111.56l27.11 -3.41c-1.55,20 -7.89,36.4 -18.89,49.06 -10.99,12.65 -25.22,20.12 -42.69,22.31 -17.54,2.2 -31.77,-1.68 -42.78,-11.58 -10.98,-9.9 -17.32,-24.72 -18.88,-44.31l27.12 -3.41c0.95,10.19 4.18,17.63 9.86,22.22 5.65,4.59 13.89,6.17 24.68,4.82 10.72,-1.35 18.96,-5 24.61,-11.01 5.68,-6.02 8.91,-14.27 9.86,-24.69zm253.61 60.91l54.64 -6.86 0 213.6 117.37 -228.32 58.28 -7.33 0 320.86 -54.64 6.85 0 -210.16 -117.36 224.9 -58.29 7.31 0 -320.85zm403.37 -50.64l230.28 -28.92 0 320.87 -58.69 7.36 0 -266.63 -112.9 14.17 0 266.63 -58.69 7.37 0 -320.85zm290.12 284.42l0 -320.85 93.82 -11.77c35.55,-4.47 58.69,-5.8 69.47,-3.95 16.6,2.77 30.5,11.49 41.69,26.21 11.2,14.72 16.79,34.86 16.79,60.4 0,19.72 -3.23,36.63 -9.64,50.88 -6.48,14.25 -14.64,25.82 -24.56,34.75 -9.9,8.86 -20.03,15.22 -30.27,18.96 -13.97,4.82 -34.14,8.92 -60.58,12.24l-38.05 4.78 0 120.98 -58.67 7.37zm58.67 -274l0 91.43 31.91 -4c23,-2.91 38.32,-6.54 46.08,-10.87 7.75,-4.34 13.83,-10.33 18.2,-18.13 4.39,-7.72 6.62,-16.29 6.62,-25.85 0,-11.72 -3.11,-20.96 -9.25,-27.81 -6.2,-6.84 -13.95,-10.65 -23.47,-11.4 -6.94,-0.54 -20.9,0.47 -41.96,3.11l-28.13 3.52zm436.77 211.81l-63.21 7.93 -25.03 -69.9 -116.21 14.58 -24.09 76.08 -62.05 7.78 112.5 -334.97 61.99 -7.79 116.1 306.29zm-107.25 -113.81l-40.28 -113.69 -39.12 123.67 79.4 -9.98zm179.75 -128.78l-57.07 -7.61c12.29,-53.82 47.15,-84.34 104.62,-91.56 34.01,-4.27 59.7,0.79 77.04,15.19 17.34,14.4 25.96,32.82 25.96,55.22 0,15.32 -3.97,29.63 -11.86,43.02 -7.9,13.31 -19.77,25.64 -35.55,37.02 19.16,4.92 33.59,13.42 43.16,25.58 9.59,12.25 14.38,28.07 14.38,47.72 0,28.23 -9.31,52.17 -28,71.92 -18.62,19.75 -46.54,31.98 -83.7,36.66 -30.29,3.79 -54.24,1.2 -71.78,-7.8 -17.54,-9 -30.68,-28.33 -39.53,-58l53.42 -25.98c5.54,18.65 12.96,30.27 22.13,34.8 9.18,4.6 20.51,6.01 33.99,4.31 18.5,-2.32 31.98,-8.41 40.48,-18.37 8.43,-9.95 12.68,-20.63 12.68,-32.14 0,-13.15 -4.79,-23.22 -14.37,-30.09 -9.51,-6.87 -23.95,-9.09 -43.16,-6.68l-13.29 1.67 0 -48.39 6.67 -0.84c17.88,-2.24 31.57,-8.44 41.01,-18.52 9.52,-10.09 14.23,-22.54 14.23,-37.27 0,-11.72 -3.84,-21.09 -11.52,-28.19 -7.69,-7.03 -18.69,-9.68 -33,-7.88 -24.47,3.06 -40.13,18.47 -46.94,46.21zm235.75 -116.97l199.92 -25.11 0 266.63 25.5 -3.2 0 124.14 -48.97 6.13 0 -69.9 -181.71 22.82 0 69.9 -48.98 6.15 0 -124.13 24.69 -3.1c12.01,-28.91 19.96,-61.73 23.81,-98.36 3.85,-36.7 5.74,-82.72 5.74,-138.07l0 -33.9zm55.85 47.2c0,97.1 -8.1,168.91 -24.28,215.47l109.67 -13.78 0 -212.41 -85.39 10.72zm208.96 240.39l0 -320.85 58.69 -7.36 0 126.37 114.12 -14.33 0 -126.38 58.69 -7.37 0 320.87 -58.69 7.36 0 -140.26 -114.12 14.33 0 140.26 -58.69 7.36zm293.09 -357.65l54.63 -6.85 0 213.6 117.37 -228.33 58.28 -7.32 0 320.85 -54.65 6.85 0 -210.16 -117.36 224.9 -58.27 7.31 0 -320.85zm290.9 -36.52l58.69 -7.36 0 136.67c13.01,-3.14 21.86,-7.9 26.44,-14.52 4.58,-6.55 11.73,-24.11 21.32,-52.65 12.06,-36.25 24.28,-59.43 36.49,-69.4 12.14,-9.97 31.63,-16.68 58.61,-20.06 1.36,-0.17 4.19,-0.61 8.5,-1.29l0 47.95 -8.3 0.81c-12,1.51 -20.77,4.25 -26.3,8.24 -5.53,3.98 -9.98,9.53 -13.42,16.69 -3.45,7.15 -8.5,21.6 -15.18,43.36 -3.58,11.57 -7.42,21.31 -11.6,29.31 -4.12,7.99 -11.46,15.93 -21.99,23.82 13.01,2.41 23.75,9.35 32.24,20.68 8.5,11.33 17.81,27.63 27.92,49l39.47 82.88 -68.81 8.63 -34.73 -78.24c-0.55,-1.12 -1.69,-3.22 -3.37,-6.37 -0.69,-1.03 -3.11,-5.81 -7.29,-14.18 -7.42,-14.9 -13.49,-23.99 -18.21,-27.36 -4.79,-3.35 -12.02,-4.47 -21.79,-3.39l0 140.27 -58.69 7.36 0 -320.85zm507.23 257.16l-63.2 7.93 -25.02 -69.9 -116.22 14.6 -24.09 76.06 -62.05 7.8 112.51 -334.98 61.99 -7.78 116.08 306.27zm-107.23 -113.79l-40.27 -113.7 -39.13 123.66 79.4 -9.96z"/>
  <polygon class="fil17" points="8801.87,1447.08 8935.31,1797.35 9369.76,1796.63 9017.79,2012.41 9152.84,2362.24 8801.87,2145.33 8450.88,2362.24 8585.93,2012.41 8233.97,1796.63 8668.41,1797.35 "/>
  <polygon class="fil5 str6" points="7764.69,1165.16 7644.61,1506.18 7253.7,1505.49 7570.39,1715.56 7448.87,2056.14 7764.69,1844.96 8080.5,2056.14 7958.98,1715.56 8275.68,1505.49 7884.77,1506.18 "/>
  <polygon class="fil18" points="6685.13,1082.24 6798.89,1383.2 7169.24,1382.59 6869.2,1567.98 6984.32,1868.57 6685.13,1682.19 6385.93,1868.57 6501.05,1567.98 6201.01,1382.59 6571.35,1383.2 "/>
  <polygon class="fil19" points="9363.19,2154.61 9507.64,2578.31 9977.96,2577.45 9596.94,2838.45 9743.13,3261.62 9363.19,2999.22 8983.23,3261.62 9129.43,2838.45 8748.41,2577.45 9218.71,2578.31 "/>
 </g>
</svg>
