<svg xmlns="http://www.w3.org/2000/svg" width="3200" height="1314" viewBox="0 0 3200 1314" xmlns:xlink="http://www.w3.org/1999/xlink" shape-rendering="geometricPrecision" text-rendering="geometricPrecision" image-rendering="optimizeQuality" fill-rule="evenodd" clip-rule="evenodd"><defs><style>.str0{stroke:#e6e6e6;stroke-width:7.38189}.str2{stroke:#4d4d4d;stroke-width:4.99961}.str1{stroke:#000;stroke-width:2.36221}.fil1{fill:none}.fil4{fill:#c4c5c5}.fil5{fill:#5c5b5b}.fil13,.fil7{fill:#000}.fil2{fill:#0CF}.fil6,.fil15{fill:#1a1a1a}.fil12{fill:#333}.fil16{fill:#606}.fil11,.fil8{fill:#666}.fil10{fill:#900}.fil0{fill:#e6e6e6}.fil17,.fil9{fill:red}.fil14,.fil3{fill:#fff}.fil21{fill:#000}.fil21,.fil20{fill-rule:nonzero}.fil20{fill:#4d4d4d}.fil18{fill:gray}.fil18,.fil19{fill-rule:nonzero}.fil19{fill:red}</style><clipPath id="id0"><path d="M2668 766h5.954v1.374H2668z"/></clipPath><clipPath id="id1"><path d="M2670 764h5.954v1.375H2670z"/></clipPath><clipPath id="id2"><path d="M2671 765v-2h5v2h-5z"/></clipPath><clipPath id="id3"><path d="M2671 762h5.954v1.374H2671z"/></clipPath><clipPath id="id4"><path d="M2672 761h5.954v1.374H2672z"/></clipPath><clipPath id="id5"><path d="M2673 760h5.954v1.374H2673z"/></clipPath><clipPath id="id6"><path d="M2674 760v-1h5v1h-5z"/></clipPath><clipPath id="id7"><path d="M2674 758h5.954v1.374H2674z"/></clipPath><clipPath id="id8"><path d="M2502 770v-2h6v2h-6z"/></clipPath><clipPath id="id9"><path d="M2675 756h5.953v1.375H2675z"/></clipPath><clipPath id="id10"><path d="M2676 757v-2h5v2h-5z"/></clipPath><clipPath id="id11"><path d="M2678 754h3.664v1.374H2678z"/></clipPath><clipPath id="id12"><path d="M2502 766v-1h3v1h-3z"/></clipPath><clipPath id="id13"><path d="M2677 754v-1h3v1h-3z"/></clipPath><clipPath id="id14"><path d="M2678 752h1.375v1.374H2678z"/></clipPath><clipPath id="id15"><path d="M2676 752v-2h2v2h-2z"/></clipPath><clipPath id="id16"><path d="M2675 748h1.374v1.374H2675z"/></clipPath><clipPath id="id17"><path d="M2660 776v-2h-7v2h7z"/></clipPath><clipPath id="id18"><path d="M2660 775v-3h-6v3h6z"/></clipPath><clipPath id="id19"><path d="M2660 772v-1h-4v1h4z"/></clipPath></defs><g id="Слой_x0020_1"><path class="fil0" d="M2600 317l119 340 384-3-312 209 121 338-312-209-313 209 119-338-312-209 387 3z"/><path class="fil0" d="M2972 795h10.348v266.688H2972z"/><path class="fil0" d="M2937 748l88 65-13 19-90-59z"/><path class="fil0" d="M2956.25 759.74l13.33 8.13-19.696 32.296-13.33-8.13z"/><path class="fil1 str0" d="M3019 823c6-3 12 22 15 34 7 10-31 69-25 113 0 6-9 93 0 93"/><path class="fil2" d="M2570 287l119 340 384-3-312 209 121 338-312-209-313 209 119-338-312-209 387 3z"/><path class="fil3" d="M2512 706h129l35 26v250h-196V725z"/><path class="fil4" d="M2581 499c63 0 114 51 114 114s-51 114-114 114-114-51-114-114 51-114 114-114z"/><path class="fil5" d="M2581 499c52 0 95 34 109 81 2 23-116-11-145-56-6 8-60 51-72 53 15-45 58-78 108-78z"/><g clip-path="url(#id0)"><image x="2668" y="766" width="5.954" height="1.374" xlink:href="pay_Images\pay_ImgID1.png"/></g><g clip-path="url(#id1)"><image x="2670" y="764" width="5.954" height="1.374" xlink:href="pay_Images\pay_ImgID2.png"/></g><g clip-path="url(#id2)"><image x="2670" y="763" width="5.038" height="1.374" xlink:href="pay_Images\pay_ImgID3.png"/></g><g clip-path="url(#id3)"><image x="2671" y="762" width="5.954" height="1.374" xlink:href="pay_Images\pay_ImgID4.png"/></g><g clip-path="url(#id4)"><image x="2672" y="761" width="5.954" height="1.374" xlink:href="pay_Images\pay_ImgID5.png"/></g><g clip-path="url(#id5)"><image x="2673" y="760" width="5.954" height="1.374" xlink:href="pay_Images\pay_ImgID6.png"/></g><g clip-path="url(#id6)"><image x="2674" y="759" width="5.038" height="1.374" xlink:href="pay_Images\pay_ImgID7.png"/></g><g clip-path="url(#id7)"><image x="2674" y="758" width="5.954" height="1.374" xlink:href="pay_Images\pay_ImgID8.png"/></g><g clip-path="url(#id8)"><image x="2502" y="768" width="5.954" height="1.374" xlink:href="pay_Images\pay_ImgID9.png"/></g><g clip-path="url(#id9)"><image x="2675" y="756" width="5.954" height="1.374" xlink:href="pay_Images\pay_ImgID10.png"/></g><g clip-path="url(#id10)"><image x="2676" y="755" width="5.038" height="1.374" xlink:href="pay_Images\pay_ImgID11.png"/></g><g clip-path="url(#id11)"><image x="2678" y="754" width="3.664" height="1.374" xlink:href="pay_Images\pay_ImgID12.png"/></g><g clip-path="url(#id12)"><image x="2502" y="765" width="3.664" height="1.374" xlink:href="pay_Images\pay_ImgID13.png"/></g><g clip-path="url(#id13)"><image x="2677" y="753" width="2.748" height="1.374" xlink:href="pay_Images\pay_ImgID14.png"/></g><g clip-path="url(#id14)"><image x="2678" y="752" width="1.374" height="1.374" xlink:href="pay_Images\pay_ImgID15.png"/></g><g clip-path="url(#id15)"><image x="2676" y="749" width="1.374" height="2.748" xlink:href="pay_Images\pay_ImgID16.png"/></g><g clip-path="url(#id16)"><image x="2675" y="748" width="1.374" height="1.374" xlink:href="pay_Images\pay_ImgID17.png"/></g><path class="fil6" d="M2447 749l35 1 99 239 95-238 1-1 36-1c24 0 44 21 44 46v241h-354V795c0-25 20-46 44-46z"/><circle class="fil7 str1" cx="2579" cy="917" r="3"/><path class="fil8" d="M2677 915h58.01v7.634H2677z"/><path class="fil3" d="M2721 897l-13-15-31 33h56z"/><path class="fil9" d="M2579 762l-60-26 5 63 51-27z"/><path class="fil9" d="M2573 760l61-21-3 62-61-32z"/><path class="fil10" d="M2569 753h17.18v23.823H2569z"/><path class="fil11" d="M2814 797h9.16v236.074H2814z"/><path class="fil12" d="M2812 757l76 57-10 16-81-52z"/><circle class="fil13 str1" cx="2785" cy="753" r="27"/><path class="fil6" d="M2828.3 765.962l11.8 7.197-17.435 28.587-11.8-7.197z"/><path class="fil1 str1" d="M2461 788c6-1 11 20 15 29 5 10-28 62-23 100 0 7-8 84-1 85"/><path class="fil12" d="M2810 931h19.847v52.447H2810z"/><path class="fil14 str2" d="M2430 792l54-71 63 190-18-16z"/><path class="fil14 str2" d="M2467 860l44-46 60 161-21-21z"/><g clip-path="url(#id17)"><image transform="matrix(-1.6402 0 0 1.52663 2659.47 774.285)" width="3.9" height=".9" xlink:href="pay_Images\pay_ImgID18.png"/></g><g clip-path="url(#id18)"><image transform="matrix(-1.6402 0 0 1.52663 2659.71 771.767)" width="3.3" height="1.8" xlink:href="pay_Images\pay_ImgID19.png"/></g><g clip-path="url(#id19)"><image transform="matrix(-1.6402 0 0 1.52663 2659.47 770.85)" width="2.4" height=".9" xlink:href="pay_Images\pay_ImgID20.png"/></g><circle class="fil7 str1" cx="2576" cy="831" r="3"/><rect class="fil10" x="2569" y="753" width="18.458" height="14.924" rx="2" ry="1"/><path class="fil14 str2" d="M2734 789l-58-65-64 190 19-18z"/><path class="fil14 str2" d="M2697 867l-50-52-57 161 16-14z"/><path class="fil15" d="M2414 765l19 121-95 66-47-47z"/><path class="fil16" d="M2218 853h128l38 183-128-1z"/><path class="fil17" d="M2324 938l-12 12 8 17-16-9-12 13 2-19-15-9 17-2 2-18 8 17z"/><rect class="fil4" x="2228" y="964" width="35.112" height="50.379" rx="13" ry="13"/><path class="fil18" d="M73 760c11 0 20 4 28 11 7 8 11 17 11 27 0 11-4 20-11 27-8 7-17 11-27 11-11 0-20-4-27-11s-11-16-11-27c0-6 2-13 5-19s8-10 14-14c5-3 12-5 18-5zm1 7c-6 0-11 2-15 5-5 2-9 6-12 11-2 4-4 10-4 15 0 9 3 16 9 22s13 9 22 9c5 0 10-2 15-4 5-3 9-7 11-11 3-5 4-10 4-16s-1-11-4-15c-2-5-6-9-11-11-5-3-10-5-15-5z"/><path id="1" class="fil18" d="M125 781h45v53h-7v-47h-31v47h-7z"/><path id="2" class="fil18" d="M230 834h-7l-18-39-18 39h-7l24-53h1z"/><path id="3" class="fil18" d="M293 781v53h-7v-9c-3 3-6 6-9 8-4 1-8 2-12 2-8 0-14-2-19-8-6-5-8-12-8-20 0-7 2-14 8-19 5-6 12-8 19-8 5 0 8 1 12 2 4 2 7 5 9 9v-10h7zm-27 5c-4 0-8 1-11 3s-6 5-7 8c-2 3-3 7-3 11 0 3 1 7 3 10 1 4 4 6 7 8s7 3 11 3c3 0 7-1 10-3 4-2 6-4 8-7 2-4 3-7 3-11 0-6-2-11-6-16-4-4-9-6-15-6z"/><path id="4" class="fil18" d="M303 781h34v6h-14v47h-6v-47h-14z"/><path id="5" class="fil18" d="M400 781v53h-7v-9c-3 3-6 6-10 8-3 1-7 2-11 2-8 0-14-2-20-8-5-5-8-12-8-20 0-7 3-14 8-19 6-6 12-8 20-8 4 0 8 1 12 2 3 2 6 5 9 9v-10h7zm-28 5c-3 0-7 1-10 3s-6 5-8 8-3 7-3 11c0 3 1 7 3 10 2 4 5 6 8 8s7 3 10 3c4 0 8-1 11-3s6-4 8-7c1-4 2-7 2-11 0-6-2-11-6-16-4-4-9-6-15-6z"/><path id="6" class="fil18" d="M422 821l6 3-9 18-5-2z"/><path id="7" class="fil18" d="M479 803h4c2 0 4-1 6-2 2-2 3-4 3-7 0-2-1-4-2-6-2-1-4-2-7-2-4 0-8 1-11 4l-4-5c4-4 10-6 15-6 4 0 8 2 11 4 3 3 5 6 5 11s-3 9-8 11c7 2 10 7 10 14 0 4-2 8-5 11-3 4-7 5-13 5-7 0-13-2-18-7l5-5c3 4 7 6 12 6 4 0 7-1 9-3s3-4 3-7-1-5-3-7-5-3-7-3h-5v-6z"/><path id="8" class="fil18" d="M566 781v53h-7v-9c-3 3-6 6-10 8-3 1-7 2-11 2-8 0-14-2-20-8-5-5-8-12-8-20 0-7 3-14 8-19 6-6 12-8 20-8 4 0 8 1 12 2 3 2 6 5 9 9v-10h7zm-28 5c-4 0-7 1-10 3s-6 5-8 8-3 7-3 11c0 3 1 7 3 10 2 4 5 6 8 8s7 3 10 3c4 0 7-1 11-3 3-2 6-4 8-7 1-4 2-7 2-11 0-6-2-11-6-16-4-4-9-6-15-6z"/><path id="9" class="fil18" d="M609 781h44v53h-6v-47h-31v47h-7z"/><path id="10" class="fil18" d="M669 781h6v10c3-4 6-7 10-9 3-1 7-2 12-2 7 0 14 2 19 8 5 5 8 12 8 19 0 8-3 15-8 20-5 6-12 8-19 8-5 0-8-1-12-2-3-2-7-5-10-8v28h-6v-72zm27 5c-6 0-11 2-15 6-4 5-6 10-6 16 0 4 1 7 3 11 2 3 4 5 7 7 4 2 7 3 11 3s7-1 10-3c4-2 6-4 8-8 2-3 3-7 3-10 0-4-1-8-3-11s-4-6-7-8c-4-2-7-3-11-3z"/><path id="11" class="fil18" d="M790 781v53h-7v-9c-3 3-6 6-10 8-3 1-7 2-11 2-8 0-14-2-20-8-5-5-8-12-8-20 0-7 3-14 8-19 6-6 12-8 20-8 4 0 8 1 12 2 3 2 6 5 9 9v-10h7zm-28 5c-4 0-7 1-10 3s-6 5-8 8-3 7-3 11c0 3 1 7 3 10 2 4 5 6 8 8s7 3 10 3c4 0 8-1 11-3s6-4 8-7c1-4 2-7 2-11 0-6-2-11-6-16-4-4-9-6-15-6z"/><path id="12" class="fil18" d="M821 834h-16v-53h15c6 0 10 1 13 4 2 3 4 6 4 9 0 6-3 9-7 11 6 3 10 7 10 14 0 10-7 15-19 15zm-9-47v16h12c2 0 3-1 4-3 1-1 1-3 1-5s0-4-1-5c-1-2-3-3-4-3h-12zm0 23v18h15l3-3c2-2 2-4 2-6 0-3-1-5-3-7-2-1-4-2-7-2h-10z"/><path id="13" class="fil18" d="M877 780c8 0 15 3 20 9 5 5 8 11 8 19 0 7-3 14-8 19-5 6-12 8-20 8s-15-2-20-8c-5-5-8-12-8-19 0-8 3-14 8-19 5-6 12-9 20-9zm0 6c-6 0-11 2-15 7-4 4-6 9-6 15 0 4 1 7 3 10 2 4 4 6 8 8 3 2 6 3 10 3s7-1 10-3c4-2 6-4 8-8 2-3 3-6 3-10 0-6-2-11-6-15-4-5-9-7-15-7z"/><path id="14" class="fil18" d="M946 828l20-47h4l20 47h6v13h-6v-7h-44v7h-7v-13h7zm22-36l-16 36h31l-15-36z"/><path id="15" class="fil18" d="M1031 780c8 0 15 3 20 9 5 5 7 11 7 19 0 7-2 14-7 19-6 6-12 8-20 8s-15-2-20-8c-5-5-8-12-8-19 0-8 2-14 7-19 6-6 12-9 21-9zm0 6c-6 0-11 2-15 7-4 4-6 9-6 15 0 4 1 7 3 10 2 4 4 6 7 8s7 3 11 3c3 0 7-1 10-3s6-4 8-8c1-3 2-6 2-10 0-6-2-11-6-15-4-5-9-7-14-7z"/><path id="16" class="fil18" d="M1123 792l-6 3c-5-6-11-9-19-9-7 0-12 2-16 6-5 4-7 9-7 15 0 4 1 8 3 11 2 4 5 6 8 8 4 2 8 3 12 3 8 0 14-3 19-9l6 3c-3 4-6 7-11 9-4 2-9 3-14 3-9 0-16-2-21-8-6-5-9-11-9-19 0-5 2-10 4-14 3-5 6-8 11-11 5-2 10-3 15-3 4 0 7 0 10 1 4 1 6 3 9 4 2 2 4 4 6 7z"/><path id="17" class="fil18" d="M1130 781h35v6h-14v47h-7v-47h-14z"/><path id="18" class="fil18" d="M1168 781h7l19 41 18-41h7l-32 72h-7l10-23z"/><path id="19" class="fil18" d="M1228 781h44v53h-7v-47h-31v47h-6z"/><path id="20" class="fil18" d="M1340 781v53h-6v-9c-3 3-7 6-10 8-4 1-8 2-12 2-7 0-14-2-19-8-5-5-8-12-8-20 0-7 3-14 8-19 5-6 12-8 19-8 5 0 9 1 12 2 4 2 7 5 10 9v-10h6zm-27 5c-4 0-7 1-11 3-3 2-5 5-7 8s-3 7-3 11c0 3 1 7 3 10 2 4 4 6 8 8 3 2 6 3 10 3s7-1 11-3c3-2 5-4 7-7 2-4 3-7 3-11 0-6-2-11-6-16-4-4-9-6-15-6z"/><path id="21" class="fil18" d="M1383 781h7v22l25-22h9l-27 24 29 29h-9l-25-25-2 2v23h-7z"/><path id="22" class="fil18" d="M1470 803h4c2 0 4-1 6-2 2-2 3-4 3-7 0-2-1-4-2-6-2-1-4-2-7-2-4 0-8 1-12 4l-3-5c4-4 9-6 15-6 4 0 8 2 11 4 3 3 5 6 5 11s-3 9-8 11c7 2 10 7 10 14 0 4-2 8-5 11-3 4-7 5-13 5-7 0-13-2-18-7l5-5c3 4 7 6 12 6 4 0 7-1 9-3s3-4 3-7-1-5-3-7-5-3-8-3h-4v-6z"/><path id="23" class="fil18" d="M1556 781v53h-6v-9c-3 3-6 6-10 8-3 1-7 2-12 2-7 0-14-2-19-8-5-5-8-12-8-20 0-7 3-14 8-19 6-6 12-8 20-8 4 0 8 1 11 2 4 2 7 5 10 9v-10h6zm-27 5c-4 0-7 1-10 3-4 2-6 5-8 8s-3 7-3 11c0 3 1 7 3 10 2 4 4 6 8 8 3 2 6 3 10 3s7-1 11-3c3-2 6-4 7-7 2-4 3-7 3-11 0-6-2-11-6-16-4-4-9-6-15-6z"/><path id="24" class="fil18" d="M1594 810h-4l-16 24h-7l16-24c-4-1-7-2-10-5-2-2-3-6-3-9 0-5 1-9 4-11 3-3 6-4 11-4h16v53h-7v-24zm0-23h-4c-5 0-7 0-9 1-1 0-3 1-4 3 0 1-1 3-1 5s1 4 2 5c1 2 2 3 4 3h12v-17z"/><path id="25" class="fil18" d="M1632 834h-16v-53h16c5 0 10 1 12 4 3 3 4 6 4 9 0 6-2 9-7 11 7 3 10 7 10 14 0 10-6 15-19 15zm-9-47v16h13c1 0 2-1 3-3 1-1 2-3 2-5s-1-4-2-5c-1-2-2-3-4-3h-12zm0 23v18h15c1-1 3-2 4-3 1-2 1-4 1-6 0-3-1-5-2-7-2-1-5-2-8-2h-10z"/><path id="26" class="fil18" d="M1663 781h7v22l25-22h9l-27 24 29 29h-9l-25-25-2 2v23h-7z"/><path id="27" class="fil18" d="M1766 781v53h-7v-9c-2 3-6 6-9 8-4 1-8 2-12 2-7 0-14-2-19-8-5-5-8-12-8-20 0-7 3-14 8-19 5-6 12-8 19-8 5 0 9 1 12 2 4 2 7 5 9 9v-10h7zm-27 5c-4 0-7 1-11 3-3 2-5 5-7 8s-3 7-3 11c0 3 1 7 3 10 2 4 4 6 7 8 4 2 7 3 11 3s7-1 10-3c4-2 6-4 8-7 2-4 3-7 3-11 0-6-2-11-6-16-4-4-9-6-15-6z"/><path id="28" class="fil18" d="M1840 781h1l18 53h-7l-13-39-20 39h-2l-20-39-13 39h-7l18-53h2l21 41z"/><path id="29" class="fil18" d="M1922 780c9 0 15 3 21 9 5 5 7 11 7 19 0 7-2 14-8 19-5 6-11 8-20 8-8 0-14-2-20-8-5-5-7-12-7-19 0-8 2-14 7-19 5-6 12-9 20-9zm0 6c-5 0-10 2-14 7-4 4-6 9-6 15 0 4 1 7 2 10 2 4 5 6 8 8s7 3 10 3c4 0 8-1 11-3s6-4 7-8c2-3 3-6 3-10 0-6-2-11-6-15-4-5-9-7-15-7z"/><path id="30" class="fil18" d="M1957 781h35v6h-14v47h-7v-47h-14z"/><path id="31" class="fil18" d="M38 900h7v22l25-22h9l-27 24 29 29H71l-24-24-2 2v22h-7z"/><path id="32" class="fil18" d="M133 953h-7l-18-39-17 39h-8l24-53h2z"/><path id="33" class="fil18" d="M150 900v39l40-39v53h-7v-39l-39 39v-53z"/><path id="34" class="fil18" d="M250 936l6 3c-2 3-4 6-7 9-2 2-5 4-8 5s-7 1-11 1c-8 0-15-2-20-8s-7-12-7-19 2-13 6-18c5-7 12-10 21-10s16 3 22 10c4 5 6 11 6 18h-48c0 6 2 11 6 15 3 4 8 6 14 6 2 0 5 0 8-1 2-1 4-2 6-4 2-1 4-4 6-7zm0-15c-1-3-2-6-4-8-2-3-4-4-7-6-3-1-6-2-9-2-5 0-10 2-13 5s-5 6-7 11h40z"/><path id="35" class="fil18" d="M308 928h-31v25h-7v-53h7v21h31v-21h7v53h-7z"/><path id="36" class="fil18" d="M324 900h35v6h-14v47h-7v-47h-14z"/><path id="37" class="fil18" d="M394 899c8 0 15 3 20 9 5 5 7 11 7 19 0 7-2 14-8 19-5 6-11 8-19 8-9 0-15-2-20-8-6-5-8-12-8-19 0-8 2-14 7-19 5-6 12-9 21-9zm-1 6c-5 0-10 3-14 7s-6 9-6 15c0 4 1 7 3 11 1 3 4 5 7 7s7 3 10 3c4 0 8-1 11-3s6-4 7-7c2-4 3-7 3-11 0-6-2-11-6-15s-9-7-15-7z"/><path id="38" class="fil18" d="M449 953h-15v-53h15c6 0 10 1 13 4 2 3 3 6 3 9 0 6-2 9-7 11 7 3 11 8 11 14 0 10-7 15-20 15zm-8-47v16h12c1 0 2-1 4-2 1-2 1-3 1-5 0-3 0-5-1-6-2-2-3-2-4-3h-12zm0 23v18h14c2-1 3-2 4-3 1-2 2-3 2-6s-1-5-3-7c-2-1-4-2-7-2h-10z"/><path id="39" class="fil18" d="M543 900v39l39-39v53h-6v-39l-39 39h-1v-53z"/><path id="40" class="fil18" d="M620 900h7l18 41 18-41h7l-32 73h-7l10-24z"/><path id="41" class="fil18" d="M703 929h-12c-6 0-10-1-12-4-3-3-4-7-4-12v-13h6v10c0 6 1 10 3 11 2 2 5 2 9 2h10v-23h6v53h-6v-24z"/><path id="42" class="fil18" d="M778 900v53h-7v-9c-3 4-6 6-10 8-3 2-7 2-12 2-7 0-13-2-19-8-5-5-8-12-8-20 0-7 3-14 8-19 6-6 12-8 20-8 4 0 8 1 11 3 4 1 7 4 10 8v-10h7zm-28 5c-4 0-7 1-10 3-4 2-6 5-8 8s-3 7-3 11c0 3 1 7 3 10 2 4 5 6 8 8s6 3 10 3 7-1 11-3c3-2 6-4 7-7 2-3 3-7 3-11 0-6-2-11-6-15-4-5-9-7-15-7z"/><path id="43" class="fil18" d="M845 911l-6 3c-5-6-11-9-19-9-7 0-12 2-16 6-5 5-7 10-7 16 0 3 1 7 3 10 2 4 5 6 8 8 4 2 8 3 12 3 8 0 14-3 19-9l6 3c-3 4-6 7-11 9-4 2-9 3-14 3-9 0-16-2-21-8-6-5-9-11-9-19 0-5 2-10 4-14 3-5 6-8 11-11 5-2 10-3 15-3 4 0 7 0 10 1 4 1 6 3 9 5 2 1 4 3 6 6z"/><path id="44" class="fil18" d="M852 900h35v6h-14v47h-7v-47h-14z"/><path id="45" class="fil18" d="M903 900v39l39-39v53h-6v-39l-39 39h-1v-53z"/><path id="46" class="fil18" d="M964 900v39l39-39h1v53h-7v-39l-39 39v-53z"/><path id="47" class="fil18" d="M1062 953h-15v-53h15c6 0 10 1 13 4 2 3 3 6 3 9 0 6-2 9-7 11 7 3 11 8 11 14 0 10-7 15-20 15zm-8-47v16h12c1 0 3-1 4-2 1-2 1-3 1-5 0-3 0-5-1-6-2-2-3-2-4-3h-12zm0 23v18h14c2-1 3-2 4-3 1-2 2-3 2-6s-1-5-3-7c-2-1-4-2-7-2h-10z"/><path id="48" class="fil18" d="M1143 900h35v6h-14v47h-7v-47h-14z"/><path id="49" class="fil18" d="M1213 899c8 0 14 3 20 9 5 5 7 11 7 19 0 7-2 14-8 19-5 6-11 8-19 8-9 0-15-2-21-8-5-5-7-12-7-19 0-8 2-14 7-19 5-6 12-9 21-9zm-1 6c-5 0-10 3-14 7s-6 9-6 15c0 4 1 7 3 11 1 3 4 5 7 7s7 3 10 3c4 0 8-1 11-3s6-4 7-7c2-4 3-7 3-11 0-6-2-11-6-15s-9-7-15-7z"/><path id="50" class="fil18" d="M1253 900h7v10c2-4 6-7 9-8 4-2 7-3 12-3 7 0 14 2 19 8 6 5 8 12 8 19 0 8-2 15-8 20-5 6-12 8-19 8-4 0-8 0-12-2-3-2-6-5-9-8v29h-7v-73zm27 5c-6 0-11 2-15 7-4 4-6 9-6 15 0 4 1 8 3 11s4 5 8 7c3 2 7 3 10 3 4 0 7-1 11-3 3-2 6-4 7-8 2-3 3-7 3-10 0-4-1-8-3-11-1-3-4-6-7-8s-7-3-11-3z"/><path id="51" class="fil18" d="M1328 906v47h-7v-53h27v6z"/><path id="52" class="fil18" d="M1410 900v53h-7v-9c-3 4-6 6-9 8-4 2-8 2-12 2-8 0-14-2-19-8-6-5-8-12-8-20 0-7 2-14 8-19 5-6 12-8 19-8 4 0 8 1 12 3 3 1 7 4 9 8v-10h7zm-27 5c-4 0-8 1-11 3s-6 5-8 8c-1 3-2 7-2 11 0 3 1 7 2 10 2 4 5 6 8 8s7 3 11 3c3 0 7-1 10-3 4-2 6-4 8-7s3-7 3-11c0-6-2-11-6-15-4-5-9-7-15-7z"/><path id="53" class="fil18" d="M1419 900h9l14 19 14-19h8l-18 25 20 28h-8l-16-22-16 22h-8l20-28z"/><path id="54" class="fil18" d="M1480 940l7 3-10 19-5-2z"/><path id="55" class="fil18" d="M1544 953h-15v-53h15c6 0 10 1 13 4 2 3 3 6 3 9 0 6-2 9-7 11 7 3 11 8 11 14 0 10-7 15-20 15zm-8-47v16h12c1 0 2-1 4-2 1-2 1-3 1-5 0-3 0-5-2-6-1-2-2-2-3-3h-12zm0 23v18h14c2-1 3-2 4-3 1-2 2-3 2-6s-1-5-3-7c-2-1-4-2-7-2h-10z"/><path id="56" class="fil18" d="M1603 900h7v10c3-4 6-7 9-8 4-2 8-3 12-3 8 0 14 2 20 8 5 5 8 12 8 19 0 8-3 15-8 20-6 6-12 8-20 8-4 0-8 0-11-2-4-2-7-5-10-8v29h-7v-73zm28 5c-6 0-11 2-15 7-4 4-6 9-6 15 0 4 1 8 2 11 2 3 5 5 8 7 4 2 7 3 11 3 3 0 7-1 10-3s6-4 8-8c2-3 3-7 3-10 0-4-1-8-3-11s-5-6-8-8-6-3-10-3z"/><path id="57" class="fil18" d="M1697 899c8 0 15 3 20 9 5 5 7 11 7 19 0 7-2 14-7 19-6 6-12 8-20 8-9 0-15-2-20-8-6-5-8-12-8-19 0-8 2-14 7-19 6-6 12-9 21-9zm0 6c-6 0-11 3-15 7s-6 9-6 15c0 4 1 7 3 11 2 3 4 5 7 7s7 3 11 3c3 0 7-1 10-3s6-4 8-7c1-4 2-7 2-11 0-6-2-11-6-15s-9-7-14-7z"/><path id="58" class="fil18" d="M1782 953h-7l-18-39-18 39h-7l24-53h1z"/><path id="59" class="fil18" d="M1799 900v39l39-39h1v53h-7v-39l-39 39h-1v-53z"/><path id="60" class="fil18" d="M38 1019h45v53h-7v-46H45v46h-7z"/><path id="61" class="fil18" d="M98 1019h7v10c2-4 6-7 9-8 4-2 7-3 12-3 7 0 14 3 19 8 6 5 8 12 8 20 0 7-2 14-8 19-5 6-11 9-19 9-4 0-8-1-12-3-3-2-6-4-9-8v29h-7v-73zm27 6c-6 0-11 2-15 6s-6 9-6 15c0 4 1 8 3 11s4 6 8 7c3 2 7 3 10 3 4 0 8-1 11-3 3-1 6-4 7-7 2-4 3-7 3-11s-1-7-3-11c-1-3-4-6-7-8s-7-2-11-2z"/><path id="62" class="fil18" d="M191 1018c8 0 15 3 21 9 5 5 7 12 7 19s-3 14-8 19c-5 6-12 9-20 9s-15-3-20-9c-5-5-8-12-8-19s3-14 8-19c5-6 12-9 20-9zm0 7c-5 0-10 2-14 6-5 4-7 9-7 15 0 4 1 7 3 11 2 3 5 6 8 7 3 2 6 3 10 3s7-1 11-3c3-1 5-4 7-7 2-4 3-7 3-11 0-6-2-11-6-15s-9-6-15-6z"/><path id="63" class="fil18" d="M232 1067l21-48h3l20 48h7v12h-7v-7h-44v7h-6v-12h6zm22-37l-15 37h30l-15-37z"/><path id="64" class="fil18" d="M345 1019v53h-7v-9c-3 4-6 6-9 8-4 2-8 3-12 3-8 0-14-3-19-9-6-5-8-12-8-19 0-8 2-15 8-20 5-5 11-8 19-8 4 0 8 1 12 3 3 1 6 4 9 8v-10h7zm-27 6c-4 0-8 0-11 2s-6 5-8 8c-2 4-2 7-2 11s0 7 2 11c2 3 5 6 8 7 3 2 7 3 11 3 3 0 7-1 10-3 3-1 6-4 8-7s3-7 3-11c0-6-2-11-7-15-4-4-9-6-14-6z"/><path id="65" class="fil18" d="M376 1072h-16v-53h16c5 0 10 2 12 4 3 3 4 6 4 10 0 5-2 9-7 10 7 3 10 8 10 15 0 9-6 14-19 14zm-9-47v17h5c4 0 6-1 8-1 1 0 2-1 3-2 1-2 2-3 2-5 0-3-1-4-2-6-1-1-2-2-4-3h-12zm0 23v19h8c3 0 5-1 7-1 1-1 3-2 4-3s1-3 1-6c0-2-1-5-2-7-2-1-5-2-8-2h-10z"/><path id="66" class="fil18" d="M457 1072h-50v-53h7v47h31v-47h7v47h11v15h-6z"/><path id="67" class="fil18" d="M525 1019v53h-6v-9c-3 4-7 6-10 8-4 2-8 3-12 3-7 0-14-3-19-9-5-5-8-12-8-19 0-8 3-15 8-20s12-8 19-8c5 0 9 1 12 3 4 1 7 4 10 8v-10h6zm-27 6c-4 0-7 0-11 2-3 2-5 5-7 8-2 4-3 7-3 11s1 7 3 11c2 3 4 6 8 7 3 2 6 3 10 3s7-1 11-3c3-1 5-4 7-7s3-7 3-11c0-6-2-11-6-15s-9-6-15-6z"/><path id="68" class="fil18" d="M859 1019h7l19 41 17-41h8l-32 73h-7l10-24z"/><path id="69" class="fil18" d="M970 1030l-5 4c-5-7-11-10-19-10-7 0-12 2-17 7-4 4-6 9-6 15 0 4 1 7 3 11 2 3 5 6 8 7 3 2 7 3 12 3 7 0 14-3 19-9l5 4c-2 3-6 6-10 8-4 3-9 4-15 4-8 0-15-3-21-8-5-6-8-12-8-20 0-5 1-10 4-14 2-4 6-8 11-10 4-3 9-4 15-4 3 0 7 0 10 2 3 1 6 2 8 4 3 1 5 4 6 6z"/><path id="70" class="fil18" d="M1028 1072h-7l-18-38-17 38h-8l25-53h1z"/><path id="71" class="fil18" d="M1033 1019h7l18 41 18-41h8l-32 73h-7l10-24z"/><path id="72" class="fil18" d="M1099 1025v47h-7v-53h27v6z"/><path id="73" class="fil19" d="M570 1001h41v7h-34v22h33v7h-33v28h33v7h-40z"/><path id="74" class="fil20" d="M617 1019h7l18 39 18-39h7l-24 53h-1z"/><path id="75" class="fil20" d="M722 1055l6 3c-2 3-4 6-7 9-2 2-5 4-8 5s-6 2-10 2c-9 0-16-3-21-9s-7-12-7-19 2-13 6-18c5-7 12-10 21-10s17 3 22 10c4 5 6 11 6 18h-48c0 6 2 11 6 15s8 6 14 6c3 0 5 0 8-1 2-1 5-2 6-4 2-1 4-4 6-7zm0-15c-1-3-2-6-4-8-1-3-4-4-7-6-3-1-6-2-9-2-5 0-9 2-13 5-3 3-5 7-6 11h39z"/><path id="76" class="fil20" d="M742 1019h7v10c3-4 6-7 9-8 4-2 7-3 11-3s8 1 11 3 5 5 7 8c1 3 2 9 2 16v27h-7v-25c0-6 0-10-1-12-1-4-2-6-4-8-3-2-6-3-9-3-4 0-8 2-11 4-4 3-6 6-7 10 0 3-1 8-1 15v19h-7v-53z"/><path id="77" class="fil20" d="M809 999h7v20h11v6h-11v47h-7v-47h-9v-6h9z"/><path class="fil21" d="M106 205l21 5c-3 12-9 22-17 29-9 7-20 11-33 11-16 0-30-6-40-17s-16-26-16-44c0-19 6-33 16-45 11-11 24-16 40-16 14 0 24 3 33 10 9 6 14 16 17 27l-22 5c-1-7-5-13-10-17-4-4-10-6-18-6-10 0-18 4-24 11-7 7-10 18-10 31s3 23 10 30c6 8 15 11 25 11 7 0 13-2 18-6 5-5 8-11 10-19z"/><path id="1" class="fil21" d="M179 247h-20v-68h-25v-18h70v18h-25z"/><path id="2" class="fil21" d="M283 161h18v86h-18l-2-10c-7 9-15 13-26 13s-21-4-29-13c-8-8-13-19-13-33 0-13 5-24 13-33 8-8 18-12 29-12s20 4 26 12l2-10zm-8 24c-5-5-10-7-17-7s-12 2-17 7-7 11-7 19 2 15 7 19c5 5 10 8 17 8s12-3 17-8c5-4 7-11 7-19s-2-14-7-19z"/><path id="3" class="fil21" d="M359 247h-21v-68h-24v-18h69v18h-24z"/><path id="4" class="fil21" d="M396 161h21v35h18c10 0 17 2 22 7 5 4 8 10 8 18s-3 14-8 19-12 7-22 7h-39v-86zm21 50v20h16c3 0 6-1 9-3 2-1 3-4 3-7s-1-6-3-7c-3-2-6-3-9-3h-16z"/><path id="5" class="fil21" d="M524 247v-86h21v58l35-58h23v86h-21v-57l-35 57z"/><path id="6" class="fil21" d="M684 215l20 7c-6 18-19 28-39 28-13 0-23-4-31-13-9-8-13-19-13-33s4-25 13-33c8-8 19-12 31-12 10 0 19 2 26 7 7 6 11 13 13 23l-19 4c-1-5-4-8-7-11-4-3-8-4-13-4-7 0-13 2-17 7s-6 11-6 19 2 14 6 19c5 5 10 8 17 8 10 0 16-5 19-16z"/><path id="7" class="fil21" d="M723 161h76v86h-20v-68h-35v68h-21z"/><path id="8" class="fil21" d="M893 237c-8 9-19 13-31 13s-23-4-31-13c-9-8-13-19-13-33s4-25 13-33c8-8 19-12 31-12s23 4 31 12c9 8 13 19 13 33s-4 25-13 33zm-14-52c-5-5-10-7-17-7s-12 2-17 7c-4 5-6 11-6 19s2 14 6 19c5 5 10 8 17 8s12-3 17-8c4-5 6-11 6-19s-2-14-6-19z"/><path id="9" class="fil21" d="M918 247v-18c2 1 4 1 5 1 8 0 12-10 12-31v-38h69v86h-21v-68h-27v23c0 16-2 28-8 36-5 7-12 10-20 10-3 0-6 0-10-1z"/><path id="10" class="fil21" d="M1046 161v34h34v-34h21v86h-21v-34h-34v34h-20v-86z"/><path id="11" class="fil21" d="M1123 247v-86h20v58l35-58h23v86h-20v-57l-35 57z"/><path id="12" class="fil21" d="M1260 247h-21v-68h-24v-18h69v18h-24z"/><path id="13" class="fil21" d="M1379 210h-65c1 7 4 12 8 16 4 3 9 5 15 5 11 0 18-4 22-13l19 6c-4 8-9 15-16 19-7 5-15 7-25 7-13 0-23-5-31-13-8-9-12-19-12-33 0-13 4-24 13-32 8-9 18-13 31-13 12 0 21 4 29 11 8 8 12 19 12 32v8zm-41-34c-6 0-11 2-15 5s-6 8-8 14h44c-2-13-9-19-21-19z"/><path id="14" class="fil21" d="M1392 247v-18c2 1 3 1 5 1 8 0 12-10 12-31v-38h68v86h-21v-68h-26v23c0 16-3 28-8 36-5 7-12 10-21 10-3 0-6 0-9-1z"/><path id="15" class="fil21" d="M1581 210h-65c1 7 4 12 8 16 4 3 9 5 15 5 11 0 18-4 22-13l19 6c-4 8-9 15-16 19-7 5-15 7-25 7-13 0-23-5-31-13-8-9-12-19-12-33 0-13 4-24 13-32 8-9 18-13 31-13 12 0 21 4 29 11 8 8 12 19 12 32v8zm-41-34c-6 0-11 2-15 5s-6 8-8 14h44c-2-13-9-19-21-19z"/><path id="16" class="fil21" d="M1600 247v-86h22l25 64 25-64h22v86h-20v-45l-17 45h-19l-18-45v45z"/><path id="17" class="fil21" d="M1809 161h76v86h-21v-68h-35v68h-20z"/><path id="18" class="fil21" d="M1907 278V161h17l3 10c2-3 6-6 10-9 5-2 10-3 16-3 12 0 21 4 29 12 7 8 11 19 11 33s-4 25-12 33c-8 9-18 13-29 13-5 0-10-1-14-3-5-2-8-5-11-8v39h-20zm25-55c5 5 10 8 17 8s12-3 17-8c4-4 6-11 6-19s-2-14-6-19c-5-5-10-7-17-7s-12 2-17 7c-4 5-6 11-6 19s2 15 6 19z"/><path id="19" class="fil21" d="M2084 237c-9 9-19 13-32 13-12 0-22-4-31-13-8-8-13-19-13-33s5-25 13-33c9-8 19-12 31-12 13 0 23 4 32 12 8 8 12 19 12 33s-4 25-12 33zm-15-52c-4-5-10-7-17-7-6 0-12 2-16 7s-7 11-7 19 3 14 7 19 10 8 16 8c7 0 13-3 17-8s6-11 6-19-2-14-6-19z"/><path id="20" class="fil21" d="M2195 161v69h12v36h-19v-19h-59v19h-20v-36h13c3-6 4-11 5-17 2-5 2-12 2-20v-32h66zm-52 69h33v-53h-28v19c0 13-1 25-5 34z"/><path id="21" class="fil21" d="M2290 161h17v86h-17l-2-10c-7 9-16 13-27 13s-21-4-29-13c-8-8-12-19-12-33 0-13 4-24 12-33 9-8 18-12 29-12 12 0 21 4 27 12l2-10zm-9 24c-4-5-10-7-17-7-6 0-12 2-17 7-4 5-6 11-6 19s2 15 6 19c5 5 11 8 17 8 7 0 13-3 17-8 5-4 7-11 7-19s-2-14-7-19z"/><path id="22" class="fil21" d="M2368 247h-39v-86h37c10 0 17 3 22 7s8 9 8 16c0 8-4 15-12 19 4 2 7 4 10 8 3 3 4 7 4 12 0 7-3 13-8 17-5 5-12 7-22 7zm-18-71v20h16c3 0 5-1 7-3 2-1 3-4 3-7s-1-5-3-7-4-3-7-3h-16zm0 35v20h16c3 0 6-1 9-3 2-1 3-4 3-7s-1-6-3-7c-3-2-6-3-9-3h-16z"/><path id="23" class="fil21" d="M2493 161v68h11v37h-20v-19h-67v-86h20v68h35v-68z"/><path id="24" class="fil21" d="M2592 237c-9 9-19 13-31 13-13 0-23-4-32-13-8-8-12-19-12-33s4-25 12-33c9-8 19-12 32-12 12 0 22 4 31 12 8 8 13 19 13 33s-5 25-13 33zm-15-52c-4-5-9-7-16-7s-13 2-17 7-6 11-6 19 2 14 6 19 10 8 17 8 12-3 16-8c5-5 7-11 7-19s-2-14-7-19z"/><path id="25" class="fil21" d="M2623 247v-86h22l25 64 26-64h22v86h-21v-45l-17 45h-19l-18-45v45z"/><path id="26" class="fil21" d="M2737 247v-23h23v23c0 7-2 13-6 16-5 4-10 6-17 6v-13c7 0 10-3 10-9h-10z"/><path id="27" class="fil21" d="M1709 247l63-117h22l-64 117z"/><path id="28" class="fil21" d="M104 355v69h12v36H97v-19H38v19H18v-36h13c3-6 4-11 5-17 2-5 2-12 2-20v-32h66zm-52 69h33v-53H57v19c0 13-1 25-5 34z"/><path id="29" class="fil21" d="M204 431c-8 9-19 13-31 13s-23-4-31-13c-9-8-13-19-13-33s4-25 13-33c8-8 19-12 31-12s23 4 31 12c9 8 13 19 13 33s-4 25-13 33zm-14-52c-5-5-10-7-17-7s-12 2-17 7c-4 5-6 11-6 19s2 14 6 19c5 5 10 8 17 8s12-3 17-8c4-5 6-11 6-19s-2-14-6-19z"/><path id="30" class="fil21" d="M295 409l20 7c-6 18-19 28-39 28-13 0-23-4-31-13-9-8-13-19-13-33s4-25 13-33c8-8 19-12 31-12 10 0 19 2 26 7 7 6 11 13 13 23l-19 4c-1-5-4-8-7-11-4-3-8-4-13-4-7 0-13 2-17 7s-6 11-6 19 2 14 6 19c5 5 10 8 17 8 10 0 16-5 19-16z"/><path id="31" class="fil21" d="M370 441h-20v-68h-25v-18h70v18h-25z"/><path id="32" class="fil21" d="M432 447l2-8-34-84h23l22 56 21-56h24l-40 98c-5 15-14 22-27 22-5 0-10-1-15-4l5-18c3 1 6 2 9 2 4 0 8-3 10-8z"/><path id="33" class="fil21" d="M503 355h76v86h-21v-68h-35v68h-20z"/><path id="34" class="fil21" d="M641 355h21v32l27-32h26l-34 39 38 47h-26l-31-38v38h-21z"/><path id="35" class="fil21" d="M791 380l-18-2c1-7 4-13 10-18 5-5 12-7 21-7 8 0 15 2 21 6 5 4 8 9 8 16 0 8-4 14-10 18 4 2 8 5 10 9 3 4 4 8 4 13 0 8-3 15-9 20-6 6-14 9-24 9s-17-3-23-9c-6-5-10-12-11-20l19-4c1 5 2 8 5 11 3 2 6 4 10 4s7-1 10-3c2-2 3-5 3-8 0-4-1-8-4-10-2-2-6-3-11-3h-2v-15h3c3 0 6 0 8-2s3-4 3-7-1-5-3-7c-2-1-4-2-8-2-3 0-6 1-8 3s-3 5-4 8z"/><path id="36" class="fil21" d="M924 355h17v86h-17l-2-10c-7 9-16 13-27 13s-21-4-29-13c-8-8-12-19-12-33 0-13 4-24 12-33 9-8 18-12 29-12 12 0 21 4 27 12l2-10zm-9 24c-4-5-10-7-17-7-6 0-12 2-17 7-4 5-6 11-6 19s2 15 6 19c5 5 11 8 17 8 7 0 13-3 17-8 5-4 7-11 7-19s-2-14-7-19z"/><path id="37" class="fil21" d="M1000 410l-18 31h-23l20-34c-10-6-15-14-15-24 0-9 2-15 8-20s13-8 22-8h37v86h-21v-31h-10zm10-17v-22h-13c-4 0-7 1-9 3-3 2-4 5-4 8 0 4 1 7 4 8 2 2 5 3 9 3h13z"/><path id="38" class="fil21" d="M1092 441h-39v-86h37c9 0 16 3 22 7 5 4 7 9 7 16 0 8-4 15-12 19 5 2 8 4 11 8 2 3 4 7 4 12 0 7-3 13-8 17-6 5-13 7-22 7zm-19-71v20h16c3 0 6-1 8-3 2-1 3-4 3-7s-1-5-3-7-5-3-8-3h-16zm0 35v20h16c4 0 7-1 9-3 2-1 3-4 3-7s-1-6-3-7c-2-2-5-3-9-3h-16z"/><path id="39" class="fil21" d="M1140 355h21v32l27-32h26l-34 39 38 47h-26l-31-38v38h-21z"/><path id="40" class="fil21" d="M1299 355h17v86h-17l-3-10c-6 9-15 13-26 13s-21-4-29-13c-8-8-12-19-12-33 0-13 4-24 12-33 8-8 18-12 29-12 12 0 20 4 26 12l3-10zm-9 24c-4-5-10-7-17-7-6 0-12 2-17 7-4 5-7 11-7 19s3 15 7 19c5 5 11 8 17 8 7 0 13-3 17-8 5-4 7-11 7-19s-2-14-7-19z"/><path id="41" class="fil21" d="M1338 441v-86h22l25 64 25-64h22v86h-20v-45l-17 45h-19l-18-45v45z"/><path id="42" class="fil21" d="M1567 431c-9 9-19 13-31 13-13 0-23-4-32-13-8-8-12-19-12-33s4-25 12-33c9-8 19-12 32-12 12 0 22 4 31 12 8 8 13 19 13 33s-5 25-13 33zm-15-52c-4-5-9-7-16-7s-13 2-17 7-6 11-6 19 2 14 6 19 10 8 17 8 12-3 16-8c5-5 7-11 7-19s-2-14-7-19z"/><path id="43" class="fil21" d="M1634 441h-20v-68h-25v-18h70v18h-25z"/><path id="44" class="fil21" d="M1712 355h21v32l27-32h26l-34 39 38 47h-26l-31-38v38h-21z"/><path id="45" class="fil21" d="M1798 441v-18c2 1 3 1 5 1 8 0 12-10 12-31v-38h68v86h-20v-68h-27v23c0 16-3 28-8 36-5 7-12 10-21 10-3 0-6 0-9-1z"/><path id="46" class="fil21" d="M1905 441v-86h21v58l35-58h23v86h-21v-57l-35 57z"/><path id="47" class="fil21" d="M2087 404h-64c1 7 3 12 7 16 4 3 10 5 16 5 10 0 17-4 21-13l19 6c-3 8-8 15-15 19-7 5-16 7-25 7-13 0-24-5-32-13-8-9-12-19-12-33 0-13 5-24 13-32 9-9 19-13 31-13s22 4 30 11c7 8 11 19 11 32v8zm-41-34c-6 0-10 2-14 5s-7 8-8 14h43c-1-13-8-19-21-19z"/><path id="48" class="fil21" d="M2127 355v34h34v-34h21v86h-21v-34h-34v34h-20v-86z"/><path id="49" class="fil21" d="M2240 441h-20v-68h-25v-18h70v18h-25z"/><path id="50" class="fil21" d="M2350 431c-9 9-19 13-32 13-12 0-22-4-31-13-8-8-13-19-13-33s5-25 13-33c9-8 19-12 31-12 13 0 23 4 32 12 8 8 12 19 12 33s-4 25-12 33zm-15-52c-4-5-10-7-17-7-6 0-12 2-16 7s-7 11-7 19 3 14 7 19 10 8 16 8c7 0 13-3 17-8s6-11 6-19-2-14-6-19z"/><path id="51" class="fil21" d="M2420 441h-39v-86h37c10 0 17 3 22 7s8 9 8 16c0 8-4 15-12 19 4 2 7 4 10 8 3 3 4 7 4 12 0 7-3 13-8 17-5 5-13 7-22 7zm-18-71v20h15c4 0 6-1 8-3 2-1 3-4 3-7s-1-5-3-7-4-3-8-3h-15zm0 35v20h15c4 0 7-1 9-3 3-1 4-4 4-7s-1-6-4-7c-2-2-5-3-9-3h-15z"/></g></svg>