<?xml version="1.0" encoding="UTF-8"?>
<!DOCTYPE svg PUBLIC "-//W3C//DTD SVG 1.1//EN" "http://www.w3.org/Graphics/SVG/1.1/DTD/svg11.dtd">
<!-- Creator: CorelDRAW 2017 -->
<svg xmlns="http://www.w3.org/2000/svg" xml:space="preserve" width="118.533mm" height="118.533mm" version="1.1" style="shape-rendering:geometricPrecision; text-rendering:geometricPrecision; image-rendering:optimizeQuality; fill-rule:evenodd; clip-rule:evenodd"
viewBox="0 0 11853.32 11853.32"
 xmlns:xlink="http://www.w3.org/1999/xlink">
 <defs>
  <style type="text/css">
   <![CDATA[
    .str0 {stroke:#7A7A7A;stroke-width:84.67;stroke-miterlimit:22.9256}
    .str1 {stroke:black;stroke-width:8.46;stroke-miterlimit:22.9256}
    .str4 {stroke:#4D4D4D;stroke-width:42.33;stroke-miterlimit:22.9256}
    .str2 {stroke:black;stroke-width:16.93;stroke-miterlimit:22.9256}
    .str3 {stroke:black;stroke-width:20;stroke-miterlimit:22.9256}
    .str6 {stroke:#00AEBE;stroke-width:7.62;stroke-miterlimit:22.9256}
    .str5 {stroke:#DD0B29;stroke-width:7.62;stroke-miterlimit:22.9256}
    .fil6 {fill:none}
    .fil5 {fill:black}
    .fil16 {fill:#00AEBE}
    .fil7 {fill:#1A1A1A}
    .fil1 {fill:#333333}
    .fil11 {fill:#33CC33}
    .fil15 {fill:#5FAD2F}
    .fil10 {fill:#663333}
    .fil3 {fill:#666666}
    .fil0 {fill:gray}
    .fil9 {fill:#990000}
    .fil17 {fill:#DD0B29}
    .fil14 {fill:#E62B2B}
    .fil4 {fill:#FCD5A6}
    .fil8 {fill:red}
    .fil18 {fill:#FFDD00}
    .fil2 {fill:white}
    .fil12 {fill:black;fill-rule:nonzero}
    .fil13 {fill:white;fill-rule:nonzero}
   ]]>
  </style>
   <clipPath id="id0">
    <path d="M6256.87 6093.9l27.52 0 0 -6.27 -27.52 0 0 6.27z"/>
   </clipPath>
   <clipPath id="id1">
    <path d="M6262.16 6088.68l27.54 0 0 -6.26 -27.54 0 0 6.26z"/>
   </clipPath>
   <clipPath id="id2">
    <path d="M6267.04 6083.93l22.79 0 0 -6.91 -22.79 0 0 6.91z"/>
   </clipPath>
   <clipPath id="id3">
    <path d="M6267.47 6078.25l27.51 0 0 -6.28 -27.51 0 0 6.28z"/>
   </clipPath>
   <clipPath id="id4">
    <path d="M6272.75 6073.03l27.51 0 0 -6.26 -27.51 0 0 6.26z"/>
   </clipPath>
   <clipPath id="id5">
    <path d="M6278.04 6067.81l27.52 0 0 -6.26 -27.52 0 0 6.26z"/>
   </clipPath>
   <clipPath id="id6">
    <path d="M6282.88 6062.98l22.79 0 0 -6.87 -22.79 0 0 6.87z"/>
   </clipPath>
   <clipPath id="id7">
    <path d="M6283.33 6057.37l27.53 0 0 -6.26 -27.53 0 0 6.26z"/>
   </clipPath>
   <clipPath id="id8">
    <path d="M5485.75 6106.01l28.09 0 0 -6.88 -28.09 0 0 6.88z"/>
   </clipPath>
   <clipPath id="id9">
    <path d="M6288.62 6052.15l27.53 0 0 -6.26 -27.53 0 0 6.26z"/>
   </clipPath>
   <clipPath id="id10">
    <path d="M6293.45 6047.28l22.79 0 0 -6.89 -22.79 0 0 6.89z"/>
   </clipPath>
   <clipPath id="id11">
    <path d="M6299.22 6041.72l16.93 0 0 -6.27 -16.93 0 0 6.27z"/>
   </clipPath>
   <clipPath id="id12">
    <path d="M5485.75 6090.32l17.52 0 0 -6.88 -17.52 0 0 6.88z"/>
   </clipPath>
   <clipPath id="id13">
    <path d="M6298.73 6036.83l12.24 0 0 -6.89 -12.24 0 0 6.89z"/>
   </clipPath>
   <clipPath id="id14">
    <path d="M6299.22 6031.29l6.34 0 0 -6.28 -6.34 0 0 6.28z"/>
   </clipPath>
   <clipPath id="id15">
    <path d="M6293.45 6026.34l6.95 0 0 -12.11 -6.95 0 0 12.11z"/>
   </clipPath>
   <clipPath id="id16">
    <path d="M6288.62 6015.61l6.36 0 0 -6.26 -6.36 0 0 6.26z"/>
   </clipPath>
   <clipPath id="id17">
    <path d="M6186.29 6133.65l30.17 0 0 -6.89 -30.17 0 0 6.89z"/>
   </clipPath>
   <clipPath id="id18">
    <path d="M6191.97 6128.41l24.49 0 0 -12.11 -24.49 0 0 12.11z"/>
   </clipPath>
   <clipPath id="id19">
    <path d="M6197.65 6117.97l18.81 0 0 -6.89 -18.81 0 0 6.89z"/>
   </clipPath>
 </defs>
 <g id="Layer_x0020_1">
  <metadata id="CorelCorpID_0Corel-Layer"/>
  <path class="fil0" d="M4948 758.36l1829.37 0c102.61,0 185.81,62.74 185.81,140.11l0 0c0,77.36 -83.2,140.1 -185.81,140.1l-1829.37 0.01c-102.59,-0.01 -185.79,-62.75 -185.79,-140.11l-0.01 0c0.01,-77.37 83.21,-140.11 185.81,-140.11l-0.01 0z"/>
  <path class="fil1 str0" d="M3218.71 110.06l5229.64 0c463.61,0 839.57,400.6 839.57,894.58l0 9721.88c0,493.96 -375.96,894.57 -839.57,894.57l-5229.64 0.01c-463.6,-0.01 -839.58,-400.62 -839.58,-894.6l-0.01 -9721.86c0.01,-493.98 375.99,-894.58 839.6,-894.58l-0.01 0z"/>
  <rect class="fil2 str1" x="2627.02" y="1715.98" width="6380.66" height="8525.5"/>
  <ellipse class="fil3 str2" cx="5821.21" cy="10833.15" rx="499.65" ry="500.02"/>
  <path class="fil3" d="M4866.64 832.21l1921.84 0c117.81,0 213.35,47.77 213.35,106.67l0 44.53c0,58.91 -95.54,106.68 -213.35,106.68l-1921.84 0c-117.8,0 -213.33,-47.77 -213.33,-106.68l-0.01 -44.53c0.01,-58.9 95.54,-106.67 213.35,-106.67l-0.01 0z"/>
  <rect class="fil2 str1" x="2594.68" y="1721.38" width="6467.74" height="8520.1"/>
  <rect class="fil2" x="5402.29" y="5908.79" width="880.51" height="1267.27"/>
  <path class="fil4" d="M5853.79 4873.83c290.6,0 526.16,232.24 526.16,518.78 0,286.49 -235.56,518.74 -526.16,518.74 -22.89,0 -45.44,-1.45 -67.57,-4.24 -258.68,-32.68 -458.61,-250.58 -458.61,-514.5 0,-286.55 235.57,-518.78 526.18,-518.78z"/>
  <path class="fil5" d="M5853.79 4873.83c237.49,0 438.14,155.14 503.59,368.21 9.25,104.15 -538.42,-51.58 -671.8,-254.36 -28.25,35.91 -276.63,230 -331.32,241.57 69.42,-206.5 266.79,-355.42 499.53,-355.42z"/>
  <g>
  </g>
  <g style="clip-path:url(#id0)">
   <g>
   </g>
  </g>
  <polygon class="fil6" points="6256.87,6093.9 6284.39,6093.9 6284.39,6087.63 6256.87,6087.63 "/>
  <polygon class="fil6" points="6256.87,6093.9 6284.39,6093.9 6284.39,6087.63 6256.87,6087.63 "/>
  <polygon class="fil6" points="6256.87,6093.9 6284.39,6093.9 6284.39,6087.63 6256.87,6087.63 "/>
  <polygon class="fil6" points="6256.87,6093.9 6284.39,6093.9 6284.39,6087.63 6256.87,6087.63 "/>
  <polygon class="fil6" points="6256.87,6093.9 6284.39,6093.9 6284.39,6087.63 6256.87,6087.63 "/>
  <polygon class="fil6" points="6256.87,6093.9 6284.39,6093.9 6284.39,6087.63 6256.87,6087.63 "/>
  <polygon class="fil6" points="6256.87,6093.9 6284.39,6093.9 6284.39,6087.63 6256.87,6087.63 "/>
  <polygon class="fil6" points="6256.87,6093.9 6284.39,6093.9 6284.39,6087.63 6256.87,6087.63 "/>
  <g>
  </g>
  <g style="clip-path:url(#id1)">
   <g>
   </g>
  </g>
  <polygon class="fil6" points="6262.16,6088.68 6289.7,6088.68 6289.7,6082.42 6262.16,6082.42 "/>
  <polygon class="fil6" points="6262.16,6088.68 6289.7,6088.68 6289.7,6082.42 6262.16,6082.42 "/>
  <polygon class="fil6" points="6262.16,6088.68 6289.7,6088.68 6289.7,6082.42 6262.16,6082.42 "/>
  <polygon class="fil6" points="6262.16,6088.68 6289.7,6088.68 6289.7,6082.42 6262.16,6082.42 "/>
  <polygon class="fil6" points="6262.16,6088.68 6289.7,6088.68 6289.7,6082.42 6262.16,6082.42 "/>
  <polygon class="fil6" points="6262.16,6088.68 6289.7,6088.68 6289.7,6082.42 6262.16,6082.42 "/>
  <polygon class="fil6" points="6262.16,6088.68 6289.7,6088.68 6289.7,6082.42 6262.16,6082.42 "/>
  <polygon class="fil6" points="6262.16,6088.68 6289.7,6088.68 6289.7,6082.42 6262.16,6082.42 "/>
  <g>
  </g>
  <g style="clip-path:url(#id2)">
   <g>
   </g>
  </g>
  <polygon class="fil6" points="6267.04,6083.93 6289.83,6083.93 6289.83,6077.02 6267.04,6077.02 "/>
  <polygon class="fil6" points="6267.04,6083.93 6289.83,6083.93 6289.83,6077.02 6267.04,6077.02 "/>
  <polygon class="fil6" points="6267.04,6083.93 6289.83,6083.93 6289.83,6077.02 6267.04,6077.02 "/>
  <polygon class="fil6" points="6267.04,6083.93 6289.83,6083.93 6289.83,6077.02 6267.04,6077.02 "/>
  <polygon class="fil6" points="6267.04,6083.93 6289.83,6083.93 6289.83,6077.02 6267.04,6077.02 "/>
  <polygon class="fil6" points="6267.04,6083.93 6289.83,6083.93 6289.83,6077.02 6267.04,6077.02 "/>
  <polygon class="fil6" points="6267.04,6083.93 6289.83,6083.93 6289.83,6077.02 6267.04,6077.02 "/>
  <polygon class="fil6" points="6267.04,6083.93 6289.83,6083.93 6289.83,6077.02 6267.04,6077.02 "/>
  <g>
  </g>
  <g style="clip-path:url(#id3)">
   <g>
   </g>
  </g>
  <polygon class="fil6" points="6267.47,6078.25 6294.98,6078.25 6294.98,6071.97 6267.47,6071.97 "/>
  <polygon class="fil6" points="6267.47,6078.25 6294.98,6078.25 6294.98,6071.97 6267.47,6071.97 "/>
  <polygon class="fil6" points="6267.47,6078.25 6294.98,6078.25 6294.98,6071.97 6267.47,6071.97 "/>
  <polygon class="fil6" points="6267.47,6078.25 6294.98,6078.25 6294.98,6071.97 6267.47,6071.97 "/>
  <polygon class="fil6" points="6267.47,6078.25 6294.98,6078.25 6294.98,6071.97 6267.47,6071.97 "/>
  <polygon class="fil6" points="6267.47,6078.25 6294.98,6078.25 6294.98,6071.97 6267.47,6071.97 "/>
  <polygon class="fil6" points="6267.47,6078.25 6294.98,6078.25 6294.98,6071.97 6267.47,6071.97 "/>
  <polygon class="fil6" points="6267.47,6078.25 6294.98,6078.25 6294.98,6071.97 6267.47,6071.97 "/>
  <g>
  </g>
  <g style="clip-path:url(#id4)">
   <g>
   </g>
  </g>
  <polygon class="fil6" points="6272.75,6073.03 6300.26,6073.03 6300.26,6066.77 6272.75,6066.77 "/>
  <polygon class="fil6" points="6272.75,6073.03 6300.26,6073.03 6300.26,6066.77 6272.75,6066.77 "/>
  <polygon class="fil6" points="6272.75,6073.03 6300.26,6073.03 6300.26,6066.77 6272.75,6066.77 "/>
  <polygon class="fil6" points="6272.75,6073.03 6300.26,6073.03 6300.26,6066.77 6272.75,6066.77 "/>
  <polygon class="fil6" points="6272.75,6073.03 6300.26,6073.03 6300.26,6066.77 6272.75,6066.77 "/>
  <polygon class="fil6" points="6272.75,6073.03 6300.26,6073.03 6300.26,6066.77 6272.75,6066.77 "/>
  <polygon class="fil6" points="6272.75,6073.03 6300.26,6073.03 6300.26,6066.77 6272.75,6066.77 "/>
  <polygon class="fil6" points="6272.75,6073.03 6300.26,6073.03 6300.26,6066.77 6272.75,6066.77 "/>
  <g>
  </g>
  <g style="clip-path:url(#id5)">
   <g>
   </g>
  </g>
  <polygon class="fil6" points="6278.04,6067.81 6305.56,6067.81 6305.56,6061.55 6278.04,6061.55 "/>
  <polygon class="fil6" points="6278.04,6067.81 6305.56,6067.81 6305.56,6061.55 6278.04,6061.55 "/>
  <polygon class="fil6" points="6278.04,6067.81 6305.56,6067.81 6305.56,6061.55 6278.04,6061.55 "/>
  <polygon class="fil6" points="6278.04,6067.81 6305.56,6067.81 6305.56,6061.55 6278.04,6061.55 "/>
  <polygon class="fil6" points="6278.04,6067.81 6305.56,6067.81 6305.56,6061.55 6278.04,6061.55 "/>
  <polygon class="fil6" points="6278.04,6067.81 6305.56,6067.81 6305.56,6061.55 6278.04,6061.55 "/>
  <polygon class="fil6" points="6278.04,6067.81 6305.56,6067.81 6305.56,6061.55 6278.04,6061.55 "/>
  <polygon class="fil6" points="6278.04,6067.81 6305.56,6067.81 6305.56,6061.55 6278.04,6061.55 "/>
  <g>
  </g>
  <g style="clip-path:url(#id6)">
   <g>
   </g>
  </g>
  <polygon class="fil6" points="6282.88,6062.98 6305.67,6062.98 6305.67,6056.11 6282.88,6056.11 "/>
  <polygon class="fil6" points="6282.88,6062.98 6305.67,6062.98 6305.67,6056.11 6282.88,6056.11 "/>
  <polygon class="fil6" points="6282.88,6062.98 6305.67,6062.98 6305.67,6056.11 6282.88,6056.11 "/>
  <polygon class="fil6" points="6282.88,6062.98 6305.67,6062.98 6305.67,6056.11 6282.88,6056.11 "/>
  <polygon class="fil6" points="6282.88,6062.98 6305.67,6062.98 6305.67,6056.11 6282.88,6056.11 "/>
  <polygon class="fil6" points="6282.88,6062.98 6305.67,6062.98 6305.67,6056.11 6282.88,6056.11 "/>
  <polygon class="fil6" points="6282.88,6062.98 6305.67,6062.98 6305.67,6056.11 6282.88,6056.11 "/>
  <polygon class="fil6" points="6282.88,6062.98 6305.67,6062.98 6305.67,6056.11 6282.88,6056.11 "/>
  <g>
  </g>
  <g style="clip-path:url(#id7)">
   <g>
   </g>
  </g>
  <polygon class="fil6" points="6283.33,6057.37 6310.86,6057.37 6310.86,6051.11 6283.33,6051.11 "/>
  <polygon class="fil6" points="6283.33,6057.37 6310.86,6057.37 6310.86,6051.11 6283.33,6051.11 "/>
  <polygon class="fil6" points="6283.33,6057.37 6310.86,6057.37 6310.86,6051.11 6283.33,6051.11 "/>
  <polygon class="fil6" points="6283.33,6057.37 6310.86,6057.37 6310.86,6051.11 6283.33,6051.11 "/>
  <polygon class="fil6" points="6283.33,6057.37 6310.86,6057.37 6310.86,6051.11 6283.33,6051.11 "/>
  <polygon class="fil6" points="6283.33,6057.37 6310.86,6057.37 6310.86,6051.11 6283.33,6051.11 "/>
  <polygon class="fil6" points="6283.33,6057.37 6310.86,6057.37 6310.86,6051.11 6283.33,6051.11 "/>
  <polygon class="fil6" points="6283.33,6057.37 6310.86,6057.37 6310.86,6051.11 6283.33,6051.11 "/>
  <g>
  </g>
  <g style="clip-path:url(#id8)">
   <g>
   </g>
  </g>
  <polygon class="fil6" points="5485.75,6106.01 5513.84,6106.01 5513.84,6099.13 5485.75,6099.13 "/>
  <polygon class="fil6" points="5485.75,6106.01 5513.84,6106.01 5513.84,6099.13 5485.75,6099.13 "/>
  <polygon class="fil6" points="5485.75,6106.01 5513.84,6106.01 5513.84,6099.13 5485.75,6099.13 "/>
  <polygon class="fil6" points="5485.75,6106.01 5513.84,6106.01 5513.84,6099.13 5485.75,6099.13 "/>
  <polygon class="fil6" points="5485.75,6106.01 5513.84,6106.01 5513.84,6099.13 5485.75,6099.13 "/>
  <polygon class="fil6" points="5485.75,6106.01 5513.84,6106.01 5513.84,6099.13 5485.75,6099.13 "/>
  <polygon class="fil6" points="5485.75,6106.01 5513.84,6106.01 5513.84,6099.13 5485.75,6099.13 "/>
  <polygon class="fil6" points="5485.75,6106.01 5513.84,6106.01 5513.84,6099.13 5485.75,6099.13 "/>
  <g>
  </g>
  <g style="clip-path:url(#id9)">
   <g>
   </g>
  </g>
  <polygon class="fil6" points="6288.62,6052.15 6316.15,6052.15 6316.15,6045.89 6288.62,6045.89 "/>
  <polygon class="fil6" points="6288.62,6052.15 6316.15,6052.15 6316.15,6045.89 6288.62,6045.89 "/>
  <polygon class="fil6" points="6288.62,6052.15 6316.15,6052.15 6316.15,6045.89 6288.62,6045.89 "/>
  <polygon class="fil6" points="6288.62,6052.15 6316.15,6052.15 6316.15,6045.89 6288.62,6045.89 "/>
  <polygon class="fil6" points="6288.62,6052.15 6316.15,6052.15 6316.15,6045.89 6288.62,6045.89 "/>
  <polygon class="fil6" points="6288.62,6052.15 6316.15,6052.15 6316.15,6045.89 6288.62,6045.89 "/>
  <polygon class="fil6" points="6288.62,6052.15 6316.15,6052.15 6316.15,6045.89 6288.62,6045.89 "/>
  <polygon class="fil6" points="6288.62,6052.15 6316.15,6052.15 6316.15,6045.89 6288.62,6045.89 "/>
  <g>
  </g>
  <g style="clip-path:url(#id10)">
   <g>
   </g>
  </g>
  <polygon class="fil6" points="6293.45,6047.28 6316.24,6047.28 6316.24,6040.39 6293.45,6040.39 "/>
  <polygon class="fil6" points="6293.45,6047.28 6316.24,6047.28 6316.24,6040.39 6293.45,6040.39 "/>
  <polygon class="fil6" points="6293.45,6047.28 6316.24,6047.28 6316.24,6040.39 6293.45,6040.39 "/>
  <polygon class="fil6" points="6293.45,6047.28 6316.24,6047.28 6316.24,6040.39 6293.45,6040.39 "/>
  <polygon class="fil6" points="6293.45,6047.28 6316.24,6047.28 6316.24,6040.39 6293.45,6040.39 "/>
  <polygon class="fil6" points="6293.45,6047.28 6316.24,6047.28 6316.24,6040.39 6293.45,6040.39 "/>
  <polygon class="fil6" points="6293.45,6047.28 6316.24,6047.28 6316.24,6040.39 6293.45,6040.39 "/>
  <polygon class="fil6" points="6293.45,6047.28 6316.24,6047.28 6316.24,6040.39 6293.45,6040.39 "/>
  <g>
  </g>
  <g style="clip-path:url(#id11)">
   <g>
   </g>
  </g>
  <polygon class="fil6" points="6299.22,6041.72 6316.15,6041.72 6316.15,6035.45 6299.22,6035.45 "/>
  <polygon class="fil6" points="6299.22,6041.72 6316.15,6041.72 6316.15,6035.45 6299.22,6035.45 "/>
  <polygon class="fil6" points="6299.22,6041.72 6316.15,6041.72 6316.15,6035.45 6299.22,6035.45 "/>
  <polygon class="fil6" points="6299.22,6041.72 6316.15,6041.72 6316.15,6035.45 6299.22,6035.45 "/>
  <polygon class="fil6" points="6299.22,6041.72 6316.15,6041.72 6316.15,6035.45 6299.22,6035.45 "/>
  <polygon class="fil6" points="6299.22,6041.72 6316.15,6041.72 6316.15,6035.45 6299.22,6035.45 "/>
  <polygon class="fil6" points="6299.22,6041.72 6316.15,6041.72 6316.15,6035.45 6299.22,6035.45 "/>
  <polygon class="fil6" points="6299.22,6041.72 6316.15,6041.72 6316.15,6035.45 6299.22,6035.45 "/>
  <g>
  </g>
  <g style="clip-path:url(#id12)">
   <g>
   </g>
  </g>
  <polygon class="fil6" points="5485.75,6090.32 5503.27,6090.32 5503.27,6083.44 5485.75,6083.44 "/>
  <polygon class="fil6" points="5485.75,6090.32 5503.27,6090.32 5503.27,6083.44 5485.75,6083.44 "/>
  <polygon class="fil6" points="5485.75,6090.32 5503.27,6090.32 5503.27,6083.44 5485.75,6083.44 "/>
  <polygon class="fil6" points="5485.75,6090.32 5503.27,6090.32 5503.27,6083.44 5485.75,6083.44 "/>
  <polygon class="fil6" points="5485.75,6090.32 5503.27,6090.32 5503.27,6083.44 5485.75,6083.44 "/>
  <polygon class="fil6" points="5485.75,6090.32 5503.27,6090.32 5503.27,6083.44 5485.75,6083.44 "/>
  <polygon class="fil6" points="5485.75,6090.32 5503.27,6090.32 5503.27,6083.44 5485.75,6083.44 "/>
  <polygon class="fil6" points="5485.75,6090.32 5503.27,6090.32 5503.27,6083.44 5485.75,6083.44 "/>
  <g>
  </g>
  <g style="clip-path:url(#id13)">
   <g>
   </g>
  </g>
  <polygon class="fil6" points="6298.73,6036.83 6310.97,6036.83 6310.97,6029.94 6298.73,6029.94 "/>
  <polygon class="fil6" points="6298.73,6036.83 6310.97,6036.83 6310.97,6029.94 6298.73,6029.94 "/>
  <polygon class="fil6" points="6298.73,6036.83 6310.97,6036.83 6310.97,6029.94 6298.73,6029.94 "/>
  <polygon class="fil6" points="6298.73,6036.83 6310.97,6036.83 6310.97,6029.94 6298.73,6029.94 "/>
  <polygon class="fil6" points="6298.73,6036.83 6310.97,6036.83 6310.97,6029.94 6298.73,6029.94 "/>
  <polygon class="fil6" points="6298.73,6036.83 6310.97,6036.83 6310.97,6029.94 6298.73,6029.94 "/>
  <polygon class="fil6" points="6298.73,6036.83 6310.97,6036.83 6310.97,6029.94 6298.73,6029.94 "/>
  <polygon class="fil6" points="6298.73,6036.83 6310.97,6036.83 6310.97,6029.94 6298.73,6029.94 "/>
  <g>
  </g>
  <g style="clip-path:url(#id14)">
   <g>
   </g>
  </g>
  <polygon class="fil6" points="6299.22,6031.29 6305.56,6031.29 6305.56,6025.01 6299.22,6025.01 "/>
  <polygon class="fil6" points="6299.22,6031.29 6305.56,6031.29 6305.56,6025.01 6299.22,6025.01 "/>
  <polygon class="fil6" points="6299.22,6031.29 6305.56,6031.29 6305.56,6025.01 6299.22,6025.01 "/>
  <polygon class="fil6" points="6299.22,6031.29 6305.56,6031.29 6305.56,6025.01 6299.22,6025.01 "/>
  <polygon class="fil6" points="6299.22,6031.29 6305.56,6031.29 6305.56,6025.01 6299.22,6025.01 "/>
  <polygon class="fil6" points="6299.22,6031.29 6305.56,6031.29 6305.56,6025.01 6299.22,6025.01 "/>
  <polygon class="fil6" points="6299.22,6031.29 6305.56,6031.29 6305.56,6025.01 6299.22,6025.01 "/>
  <polygon class="fil6" points="6299.22,6031.29 6305.56,6031.29 6305.56,6025.01 6299.22,6025.01 "/>
  <g>
  </g>
  <g style="clip-path:url(#id15)">
   <g>
   </g>
  </g>
  <polygon class="fil6" points="6293.45,6026.34 6300.4,6026.34 6300.4,6014.23 6293.45,6014.23 "/>
  <polygon class="fil6" points="6293.45,6026.34 6300.4,6026.34 6300.4,6014.23 6293.45,6014.23 "/>
  <polygon class="fil6" points="6293.45,6026.34 6300.4,6026.34 6300.4,6014.23 6293.45,6014.23 "/>
  <polygon class="fil6" points="6293.45,6026.34 6300.4,6026.34 6300.4,6014.23 6293.45,6014.23 "/>
  <polygon class="fil6" points="6293.45,6026.34 6300.4,6026.34 6300.4,6014.23 6293.45,6014.23 "/>
  <polygon class="fil6" points="6293.45,6026.34 6300.4,6026.34 6300.4,6014.23 6293.45,6014.23 "/>
  <polygon class="fil6" points="6293.45,6026.34 6300.4,6026.34 6300.4,6014.23 6293.45,6014.23 "/>
  <polygon class="fil6" points="6293.45,6026.34 6300.4,6026.34 6300.4,6014.23 6293.45,6014.23 "/>
  <g>
  </g>
  <g style="clip-path:url(#id16)">
   <g>
   </g>
  </g>
  <polygon class="fil6" points="6288.62,6015.61 6294.98,6015.61 6294.98,6009.35 6288.62,6009.35 "/>
  <polygon class="fil6" points="6288.62,6015.61 6294.98,6015.61 6294.98,6009.35 6288.62,6009.35 "/>
  <polygon class="fil6" points="6288.62,6015.61 6294.98,6015.61 6294.98,6009.35 6288.62,6009.35 "/>
  <polygon class="fil6" points="6288.62,6015.61 6294.98,6015.61 6294.98,6009.35 6288.62,6009.35 "/>
  <polygon class="fil6" points="6288.62,6015.61 6294.98,6015.61 6294.98,6009.35 6288.62,6009.35 "/>
  <polygon class="fil6" points="6288.62,6015.61 6294.98,6015.61 6294.98,6009.35 6288.62,6009.35 "/>
  <polygon class="fil6" points="6288.62,6015.61 6294.98,6015.61 6294.98,6009.35 6288.62,6009.35 "/>
  <polygon class="fil6" points="6288.62,6015.61 6294.98,6015.61 6294.98,6009.35 6288.62,6009.35 "/>
  <path class="fil7" d="M5233.37 6013.53l163.33 4.14 455.3 1086.27 441.05 -1082.06 2.49 -3.38 -0.76 -1.03 0.01 -0.01 168.66 -3.93c112.28,-2.65 204.2,93.82 204.2,208.42l0 1097.69 -1638.54 0 0 -1097.69c0,-114.67 91.97,-211.24 204.27,-208.42l-0.01 0 0 0 0 0 0 0z"/>
  <ellipse class="fil5 str3" cx="5844.93" cy="6775.21" rx="14.11" ry="15.65"/>
  <rect class="fil3" x="6296.59" y="6769.97" width="268.18" height="34.8"/>
  <polygon class="fil2" points="6501.98,6684.62 6437.74,6616.91 6296.61,6769.98 6557.71,6769.98 "/>
  <polygon class="fil8" points="5841.4,6070.74 5564.47,5952.78 5590.88,6241.21 5826.14,6116.26 "/>
  <polygon class="fil8" points="5817.87,6063.92 6099.26,5966.85 6084.89,6248.16 5803.33,6103.82 "/>
  <rect class="fil9" x="5796.71" y="6031.27" width="79.42" height="108.58"/>
  <rect class="fil3" x="6931.73" y="6229.8" width="42.34" height="1414.22"/>
  <polygon class="fil1" points="6919.76,6046.38 7272.56,6307.71 7226.91,6380.35 6850.43,6143.23 "/>
  <ellipse class="fil5 str3" cx="6794.23" cy="6030.42" rx="122.74" ry="124.17"/>
  <rect class="fil7" transform="matrix(0.56805 0.341567 -0.346448 0.560046 6996.08 6089.09)" width="96.03" height="232.65"/>
  <path class="fil6 str3" d="M7249.73 6344.13c27.24,-10.22 48.14,124.42 68.98,182.08 22.32,61.6 -132.39,391.18 -109.38,626.12 4.34,44.4 -36.89,527.17 -2.37,536.44"/>
  <rect class="fil1" x="6910.54" y="6839.54" width="91.74" height="239.02"/>
  <polygon class="fil2 str4" points="5156.87,6209.89 5403.88,5882.88 5696.13,6751.62 5610.28,6676.85 "/>
  <polygon class="fil2 str4" points="5326.23,6519.58 5530.9,6307.3 5804.49,7042.28 5711.64,6946.58 "/>
  <g>
  </g>
  <g style="clip-path:url(#id17)">
   <g>
   </g>
  </g>
  <polygon class="fil6" points="6186.29,6133.65 6216.46,6133.65 6216.46,6126.76 6186.29,6126.76 "/>
  <polygon class="fil6" points="6186.29,6133.65 6216.46,6133.65 6216.46,6126.76 6186.29,6126.76 "/>
  <polygon class="fil6" points="6186.29,6133.65 6216.46,6133.65 6216.46,6126.76 6186.29,6126.76 "/>
  <polygon class="fil6" points="6186.29,6133.65 6216.46,6133.65 6216.46,6126.76 6186.29,6126.76 "/>
  <polygon class="fil6" points="6186.29,6133.65 6216.46,6133.65 6216.46,6126.76 6186.29,6126.76 "/>
  <polygon class="fil6" points="6186.29,6133.65 6216.46,6133.65 6216.46,6126.76 6186.29,6126.76 "/>
  <polygon class="fil6" points="6186.29,6133.65 6216.46,6133.65 6216.46,6126.76 6186.29,6126.76 "/>
  <polygon class="fil6" points="6186.29,6133.65 6216.46,6133.65 6216.46,6126.76 6186.29,6126.76 "/>
  <g>
  </g>
  <g style="clip-path:url(#id18)">
   <g>
   </g>
  </g>
  <polygon class="fil6" points="6191.97,6128.41 6216.46,6128.41 6216.46,6116.3 6191.97,6116.3 "/>
  <polygon class="fil6" points="6191.97,6128.41 6216.46,6128.41 6216.46,6116.3 6191.97,6116.3 "/>
  <polygon class="fil6" points="6191.97,6128.41 6216.46,6128.41 6216.46,6116.3 6191.97,6116.3 "/>
  <polygon class="fil6" points="6191.97,6128.41 6216.46,6128.41 6216.46,6116.3 6191.97,6116.3 "/>
  <polygon class="fil6" points="6191.97,6128.41 6216.46,6128.41 6216.46,6116.3 6191.97,6116.3 "/>
  <polygon class="fil6" points="6191.97,6128.41 6216.46,6128.41 6216.46,6116.3 6191.97,6116.3 "/>
  <polygon class="fil6" points="6191.97,6128.41 6216.46,6128.41 6216.46,6116.3 6191.97,6116.3 "/>
  <polygon class="fil6" points="6191.97,6128.41 6216.46,6128.41 6216.46,6116.3 6191.97,6116.3 "/>
  <g>
  </g>
  <g style="clip-path:url(#id19)">
   <g>
   </g>
  </g>
  <polygon class="fil6" points="6197.65,6117.97 6216.46,6117.97 6216.46,6111.08 6197.65,6111.08 "/>
  <polygon class="fil6" points="6197.65,6117.97 6216.46,6117.97 6216.46,6111.08 6197.65,6111.08 "/>
  <polygon class="fil6" points="6197.65,6117.97 6216.46,6117.97 6216.46,6111.08 6197.65,6111.08 "/>
  <polygon class="fil6" points="6197.65,6117.97 6216.46,6117.97 6216.46,6111.08 6197.65,6111.08 "/>
  <polygon class="fil6" points="6197.65,6117.97 6216.46,6117.97 6216.46,6111.08 6197.65,6111.08 "/>
  <polygon class="fil6" points="6197.65,6117.97 6216.46,6117.97 6216.46,6111.08 6197.65,6111.08 "/>
  <polygon class="fil6" points="6197.65,6117.97 6216.46,6117.97 6216.46,6111.08 6197.65,6111.08 "/>
  <polygon class="fil6" points="6197.65,6117.97 6216.46,6117.97 6216.46,6111.08 6197.65,6111.08 "/>
  <ellipse class="fil5 str3" cx="5830.53" cy="6385.38" rx="15.17" ry="15.65"/>
  <path class="fil9" d="M5804.68 6031.27l70 0c4.23,0 7.67,2.51 7.67,5.58l0 56.85c0,3.09 -3.44,5.59 -7.67,5.59l-70 0c-4.22,0 -7.66,-2.5 -7.66,-5.59l0 -56.85c0,-3.07 3.44,-5.58 7.66,-5.58z"/>
  <polygon class="fil2 str4" points="6559.23,6192.73 6293.08,5896.8 5998.36,6761.72 6084.57,6680.26 "/>
  <polygon class="fil2 str4" points="6387.85,6549.97 6156.72,6312.12 5892.5,7048.25 5967.61,6983.3 "/>
  <polygon class="fil7" points="5079.58,6084.21 5167.45,6637.79 4731.55,6938.04 4512.07,6722.24 "/>
  <polygon class="fil10" points="4176.55,6485 4765.09,6485 4941.63,7319.64 4351.82,7314.25 "/>
  <path class="fil4" d="M4283.83 6992.62l38.25 0c34.25,0 62.03,27.4 62.03,61.16l0 107.28c0,33.78 -27.78,61.17 -62.03,61.17l-38.25 0.01c-34.26,-0.01 -62.03,-27.4 -62.03,-61.18l0 -107.27c0,-33.77 27.77,-61.17 62.03,-61.17l0 0z"/>
  <ellipse class="fil5 str3" cx="5830.53" cy="6582.08" rx="15.17" ry="15.65"/>
  <rect class="fil7" x="5029.1" y="7297.12" width="1637.67" height="271.86"/>
  <ellipse class="fil11" cx="5724.77" cy="8318.86" rx="666.43" ry="657.05"/>
  <path class="fil12" d="M2772.87 9583.67c-38.09,-16.17 -65.92,-38.26 -83.17,-66.65 -17.42,-28.21 -26.05,-59.28 -26.05,-92.86 0,-57.67 20.12,-105.27 60.18,-142.81 40.06,-37.55 97.18,-56.41 171.01,-56.41 73.28,0 130.05,18.86 170.47,56.41 40.42,37.54 60.72,85.14 60.72,142.81 0,35.74 -9.34,67.54 -28.02,95.56 -18.51,27.84 -44.73,49.22 -78.51,63.95 42.94,17.24 75.45,42.39 97.9,75.45 22.27,33.23 33.42,71.31 33.42,114.6 0,71.49 -22.64,129.52 -68.09,174.25 -45.25,44.73 -105.62,67 -181.07,67 -70.06,0 -128.25,-18.51 -174.96,-55.51 -54.96,-43.48 -82.45,-103.47 -82.45,-179.45 0,-41.86 10.42,-80.3 31.08,-115.33 20.65,-35.03 53.17,-61.96 97.54,-81.01zm30.9 -148.73c0,29.45 8.26,52.63 24.78,69.15 16.71,16.53 38.8,24.79 66.29,24.79 28.02,0 50.3,-8.45 67,-25.15 16.71,-16.7 25.15,-39.87 25.15,-69.34 0,-27.84 -8.26,-50.11 -24.78,-66.82 -16.72,-16.7 -38.64,-25.15 -65.75,-25.15 -28.39,0 -50.85,8.45 -67.54,25.33 -16.71,16.88 -25.15,39.34 -25.15,67.19zm-14.01 330.87c0,41.14 10.41,73.11 31.25,96.12 20.84,22.98 46.71,34.48 77.78,34.48 30.53,0 55.68,-11.14 75.63,-33.24 19.93,-22.09 29.82,-54.06 29.82,-95.74 0,-36.46 -10.07,-65.74 -30.36,-87.84 -20.3,-22.09 -45.99,-33.23 -77.06,-33.23 -36.11,0 -62.87,12.58 -80.66,37.73 -17.61,25.14 -26.4,52.26 -26.4,81.72z"/>
  <path id="_1" class="fil12" d="M3250.15 9821.68l143.36 -15.81c3.4,29.29 12.56,51.03 27.12,65.04 14.54,14.18 33.95,21.19 57.84,21.19 30.36,0 56.04,-14.2 77.24,-42.4 21.2,-28.19 34.67,-86.76 40.6,-175.32 -37.19,43.11 -83.53,64.68 -139.4,64.68 -60.54,0 -112.99,-23.36 -156.99,-70.25 -44.02,-46.88 -65.94,-107.78 -65.94,-182.86 0,-78.31 23.18,-141.37 69.7,-189.16 46.54,-47.96 105.8,-71.85 177.66,-71.85 78.14,0 142.45,30.36 192.57,90.9 50.12,60.71 75.27,160.41 75.27,299.45 0,141.19 -26.05,243.22 -78.15,305.73 -52.09,62.7 -119.99,93.95 -203.7,93.95 -60.17,0 -108.67,-16.18 -145.86,-48.51 -37,-32.15 -60.9,-80.47 -71.32,-144.78zm333.03 -323.7c0,-47.6 -10.95,-84.59 -32.87,-110.83 -21.74,-26.23 -47.06,-39.34 -75.8,-39.34 -27.3,0 -49.94,10.78 -67.9,32.34 -18.14,21.55 -27.13,56.76 -27.13,105.62 0,49.76 9.89,86.23 29.46,109.58 19.58,23.17 44.01,34.84 73.47,34.84 28.38,0 52.28,-11.13 71.68,-33.59 19.39,-22.45 29.09,-55.33 29.09,-98.62z"/>
  <path id="_2" class="fil12" d="M3849.58 9821.68l143.35 -15.81c3.41,29.29 12.57,51.03 27.13,65.04 14.54,14.18 33.95,21.19 57.84,21.19 30.36,0 56.04,-14.2 77.23,-42.4 21.21,-28.19 34.68,-86.76 40.6,-175.32 -37.18,43.11 -83.52,64.68 -139.39,64.68 -60.54,0 -112.99,-23.36 -157,-70.25 -44.01,-46.88 -65.93,-107.78 -65.93,-182.86 0,-78.31 23.18,-141.37 69.7,-189.16 46.53,-47.96 105.8,-71.85 177.66,-71.85 78.14,0 142.45,30.36 192.57,90.9 50.12,60.71 75.27,160.41 75.27,299.45 0,141.19 -26.05,243.22 -78.15,305.73 -52.09,62.7 -119.99,93.95 -203.7,93.95 -60.17,0 -108.68,-16.18 -145.87,-48.51 -36.99,-32.15 -60.89,-80.47 -71.31,-144.78zm333.04 -323.7c0,-47.6 -10.96,-84.59 -32.87,-110.83 -21.74,-26.23 -47.06,-39.34 -75.81,-39.34 -27.3,0 -49.93,10.78 -67.89,32.34 -18.15,21.55 -27.14,56.76 -27.14,105.62 0,49.76 9.89,86.23 29.47,109.58 19.58,23.17 44.01,34.84 73.47,34.84 28.38,0 52.28,-11.13 71.66,-33.59 19.41,-22.45 29.11,-55.33 29.11,-98.62z"/>
  <path id="_3" class="fil12" d="M4449.01 9821.68l143.36 -15.81c3.41,29.29 12.57,51.03 27.12,65.04 14.55,14.18 33.95,21.19 57.85,21.19 30.36,0 56.04,-14.2 77.23,-42.4 21.2,-28.19 34.67,-86.76 40.6,-175.32 -37.18,43.11 -83.53,64.68 -139.39,64.68 -60.54,0 -112.99,-23.36 -157.01,-70.25 -44.01,-46.88 -65.92,-107.78 -65.92,-182.86 0,-78.31 23.18,-141.37 69.7,-189.16 46.53,-47.96 105.8,-71.85 177.66,-71.85 78.14,0 142.45,30.36 192.56,90.9 50.13,60.71 75.27,160.41 75.27,299.45 0,141.19 -26.05,243.22 -78.14,305.73 -52.09,62.7 -119.99,93.95 -203.7,93.95 -60.18,0 -108.68,-16.18 -145.87,-48.51 -37,-32.15 -60.89,-80.47 -71.32,-144.78zm333.05 -323.7c0,-47.6 -10.96,-84.59 -32.87,-110.83 -21.74,-26.23 -47.06,-39.34 -75.82,-39.34 -27.29,0 -49.92,10.78 -67.89,32.34 -18.15,21.55 -27.13,56.76 -27.13,105.62 0,49.76 9.89,86.23 29.47,109.58 19.58,23.17 44,34.84 73.47,34.84 28.37,0 52.27,-11.13 71.66,-33.59 19.41,-22.45 29.11,-55.33 29.11,-98.62z"/>
  <path id="_4" class="fil12" d="M5421.38 10000.96l-147.67 0 0 -558.66c-53.88,50.65 -117.47,88.2 -190.75,112.45l0 -134.72c38.61,-12.58 80.46,-36.47 125.55,-71.87 45.27,-35.2 76.17,-76.33 93.05,-123.22l119.82 0 0 776.02z"/>
  <path id="_5" class="fil12" d="M5961.35 10000.96l-147.66 0 0 -558.66c-53.88,50.65 -117.47,88.2 -190.77,112.45l0 -134.72c38.63,-12.58 80.47,-36.47 125.56,-71.87 45.28,-35.2 76.17,-76.33 93.05,-123.22l119.82 0 0 776.02z"/>
  <path id="_6" class="fil12" d="M6501.33 10000.96l-147.67 0 0 -558.66c-53.88,50.65 -117.48,88.2 -190.76,112.45l0 -134.72c38.62,-12.58 80.47,-36.47 125.56,-71.87 45.26,-35.2 76.16,-76.33 93.05,-123.22l119.82 0 0 776.02z"/>
  <path id="_7" class="fil12" d="M7222.55 9864.07l0 136.89 -518.42 0c5.57,-52.09 22.46,-101.32 50.47,-147.84 28.03,-46.52 83.53,-108.32 166.17,-185.38 66.64,-62.16 107.41,-104.38 122.51,-126.47 20.3,-30.54 30.53,-60.72 30.53,-90.71 0,-33.04 -8.79,-58.39 -26.58,-76.16 -17.6,-17.79 -42.04,-26.59 -73.1,-26.59 -30.9,0 -55.33,9.34 -73.66,28.02 -18.14,18.51 -28.56,49.4 -31.44,92.69l-147.65 -14.73c8.79,-81.55 36.28,-140.11 82.62,-175.68 46.35,-35.38 104.18,-53.17 173.71,-53.17 76.16,0 135.98,20.66 179.63,61.8 43.48,41.13 65.21,92.32 65.21,153.58 0,34.86 -6.29,67.9 -18.69,99.52 -12.39,31.44 -32.14,64.3 -59.27,98.79 -17.78,23 -50.29,55.88 -97,98.81 -46.89,42.92 -76.53,71.31 -88.92,85.5 -12.57,14.01 -22.63,27.84 -30.36,41.13l294.24 0z"/>
  <path id="_8" class="fil12" d="M7821.98 9864.07l0 136.89 -518.41 0c5.57,-52.09 22.46,-101.32 50.47,-147.84 28.03,-46.52 83.53,-108.32 166.17,-185.38 66.64,-62.16 107.41,-104.38 122.51,-126.47 20.3,-30.54 30.53,-60.72 30.53,-90.71 0,-33.04 -8.8,-58.39 -26.58,-76.16 -17.6,-17.79 -42.04,-26.59 -73.1,-26.59 -30.9,0 -55.35,9.34 -73.66,28.02 -18.15,18.51 -28.56,49.4 -31.44,92.69l-147.66 -14.73c8.8,-81.55 36.29,-140.11 82.63,-175.68 46.35,-35.38 104.18,-53.17 173.71,-53.17 76.16,0 135.98,20.66 179.63,61.8 43.48,41.13 65.2,92.32 65.2,153.58 0,34.86 -6.28,67.9 -18.68,99.52 -12.39,31.44 -32.14,64.3 -59.27,98.79 -17.78,23 -50.31,55.88 -97,98.81 -46.9,42.92 -76.53,71.31 -88.92,85.5 -12.58,14.01 -22.63,27.84 -30.36,41.13l294.23 0z"/>
  <path id="_9" class="fil12" d="M7917.02 9796.36l143.34 -17.43c4.49,36.65 16.7,64.67 36.65,84.06 19.93,19.41 44.01,29.11 72.21,29.11 30.35,0 55.87,-11.68 76.7,-34.85 20.66,-23.18 31.09,-54.43 31.09,-93.95 0,-37.18 -9.89,-66.82 -29.82,-88.56 -19.95,-21.73 -44.2,-32.69 -72.94,-32.69 -18.85,0 -41.31,3.78 -67.54,11.14l16.35 -120c39.88,1.08 70.23,-7.72 91.25,-26.22 21.01,-18.33 31.44,-42.94 31.44,-73.65 0,-26.05 -7.72,-46.7 -23.17,-62.34 -15.46,-15.45 -35.94,-23.17 -61.62,-23.17 -25.33,0 -46.88,8.8 -64.67,26.4 -17.96,17.61 -28.74,43.31 -32.69,77.07l-135.8 -23.17c9.51,-47.06 23.71,-84.61 42.92,-112.81 19.05,-28.03 45.81,-50.12 79.94,-66.29 34.14,-15.98 72.58,-24.07 114.96,-24.07 72.59,0 130.77,23.17 174.6,69.7 36.12,38.08 54.26,81.19 54.26,129.15 0,67.91 -36.99,122.33 -111.2,162.75 44.2,9.52 79.4,30.72 105.99,63.77 26.4,33.05 39.7,72.93 39.7,119.65 0,67.71 -24.79,125.55 -74.19,173.33 -49.41,47.79 -110.83,71.68 -184.48,71.68 -69.7,0 -127.54,-20.13 -173.34,-60.53 -45.99,-40.24 -72.58,-92.88 -79.94,-158.08z"/>
  <path id="_10" class="fil12" d="M8516.44 9796.36l143.35 -17.43c4.49,36.65 16.7,64.67 36.65,84.06 19.93,19.41 44.01,29.11 72.21,29.11 30.35,0 55.87,-11.68 76.7,-34.85 20.66,-23.18 31.08,-54.43 31.08,-93.95 0,-37.18 -9.88,-66.82 -29.81,-88.56 -19.95,-21.73 -44.2,-32.69 -72.94,-32.69 -18.85,0 -41.31,3.78 -67.54,11.14l16.35 -120c39.87,1.08 70.23,-7.72 91.24,-26.22 21.02,-18.33 31.44,-42.94 31.44,-73.65 0,-26.05 -7.72,-46.7 -23.18,-62.34 -15.44,-15.45 -35.92,-23.17 -61.6,-23.17 -25.34,0 -46.89,8.8 -64.67,26.4 -17.96,17.61 -28.74,43.31 -32.7,77.07l-135.8 -23.17c9.52,-47.06 23.72,-84.61 42.93,-112.81 19.05,-28.03 45.81,-50.12 79.94,-66.29 34.14,-15.98 72.57,-24.07 114.96,-24.07 72.58,0 130.77,23.17 174.6,69.7 36.12,38.08 54.26,81.19 54.26,129.15 0,67.91 -37.01,122.33 -111.2,162.75 44.2,9.52 79.4,30.72 105.99,63.77 26.4,33.05 39.69,72.93 39.69,119.65 0,67.71 -24.78,125.55 -74.18,173.33 -49.41,47.79 -110.83,71.68 -184.48,71.68 -69.7,0 -127.54,-20.13 -173.34,-60.53 -46,-40.24 -72.58,-92.88 -79.95,-158.08z"/>
  <path class="fil13" d="M3010.27 4866.64l-52 6.51 -20.58 -57.5 -95.59 12.01 -19.81 62.56 -51.05 6.41 92.55 -275.53 50.99 -6.4 95.49 251.94zm-88.22 -93.62l-33.13 -93.51 -32.18 101.71 65.31 -8.2zm76.73 -168.86l54.21 -6.81 55.47 129.66 47.5 -142.6 50.21 -6.3 -80.61 210.71c-8.77,22.84 -17.7,40.49 -26.8,53 -9.09,12.49 -20.8,19.63 -35.24,21.44 -14.2,1.77 -25.29,2.13 -33.29,1.1l0 -39.69c6.83,-0.35 13,-0.89 18.49,-1.57 11.09,-1.39 19.08,-4.68 23.91,-9.77 4.77,-5.14 9.43,-15.49 13.82,-30.98l-87.67 -178.19zm232.2 -29.16l48.26 -6.06 0 112.41c10.72,-2.56 17.98,-6.49 21.75,-11.93 3.77,-5.4 9.67,-19.83 17.53,-43.31 9.94,-29.81 19.98,-48.88 30.02,-57.08 9.99,-8.21 26.02,-13.72 48.22,-16.5 1.11,-0.14 3.44,-0.5 6.99,-1.07l0 39.45 -6.83 0.67c-9.88,1.23 -17.09,3.49 -21.63,6.77 -4.55,3.27 -8.22,7.85 -11.05,13.73 -2.83,5.89 -6.99,17.78 -12.48,35.66 -2.94,9.52 -6.11,17.55 -9.54,24.12 -3.38,6.57 -9.43,13.1 -18.1,19.58 10.72,1.99 19.54,7.7 26.53,17.02 7,9.31 14.65,22.72 22.98,40.3l32.45 68.18 -56.59 7.1 -28.58 -64.36c-0.43,-0.93 -1.38,-2.65 -2.77,-5.24 -0.56,-0.85 -2.55,-4.78 -5.99,-11.67 -6.11,-12.25 -11.1,-19.73 -14.98,-22.51 -3.94,-2.75 -9.88,-3.66 -17.93,-2.78l0 115.37 -48.26 6.07 0 -263.92zm203.16 -25.51l48.27 -6.06 0 219.32 92.88 -11.67 0 -219.31 48.28 -6.07 0 219.32 19.96 -2.51 0 102.1 -40.28 5.06 0 -57.5 -169.11 21.24 0 -263.92zm243.19 -30.53l44.93 -5.66 0 175.7 96.55 -187.81 47.93 -6.03 0 263.92 -44.94 5.65 0 -172.87 -96.53 184.99 -47.94 6.02 0 -263.91zm228.64 104.84c0,-26.91 3.67,-49.97 10.93,-69.19 5.38,-14.13 12.82,-27.17 22.19,-39.03 9.38,-11.87 19.64,-21.08 30.79,-27.71 14.87,-8.81 32.03,-14.46 51.44,-16.9 35.17,-4.41 63.25,4.17 84.39,25.65 21.08,21.56 31.63,53.84 31.63,96.9 0,42.7 -10.49,77.43 -31.4,104.15 -20.93,26.76 -48.95,42.33 -83.95,46.71 -35.46,4.46 -63.7,-3.98 -84.61,-25.37 -20.92,-21.33 -31.41,-53.07 -31.41,-95.21zm49.61 -8.01c0,29.91 6.26,51.81 18.74,65.71 12.49,13.85 28.36,19.61 47.55,17.19 19.26,-2.41 35.01,-12.07 47.39,-28.92 12.31,-16.9 18.47,-40.66 18.47,-71.31 0,-30.29 -5.99,-52.14 -18.03,-65.5 -11.99,-13.42 -27.91,-18.86 -47.83,-16.35 -19.87,2.49 -35.89,12.06 -48.05,28.64 -12.14,16.64 -18.24,40.13 -18.24,70.54zm219.32 104.6l0 -263.91 48.26 -6.06 0 103.95 93.88 -11.79 0 -103.95 48.28 -6.06 0 263.91 -48.28 6.07 0 -115.38 -93.88 11.8 0 115.37 -48.26 6.05zm485.35 -158.25l46.62 10c-7.16,29.96 -19.09,53.02 -35.74,69.25 -16.65,16.15 -37.72,25.85 -63.3,29.08 -31.68,3.97 -57.7,-4.74 -78.12,-26.14 -20.37,-21.4 -30.57,-52.86 -30.57,-94.46 0,-43.93 10.25,-79.36 30.73,-106.25 20.47,-26.91 47.44,-42.46 80.84,-46.65 29.19,-3.67 52.88,2.94 71.07,19.76 10.88,9.94 18.98,25.15 24.42,45.65l-47.61 18.52c-2.83,-13.28 -8.71,-23.36 -17.63,-30.17 -9,-6.8 -19.87,-9.37 -32.63,-7.76 -17.71,2.22 -32.07,11.03 -43.05,26.48 -11.05,15.4 -16.55,38.81 -16.55,70.27 0,33.29 5.44,56.38 16.27,69.15 10.87,12.82 24.96,18.13 42.33,15.95 12.82,-1.61 23.85,-7.48 33.06,-17.67 9.21,-10.19 15.87,-25.15 19.86,-45.01zm69.7 -41.79c0,-26.92 3.66,-49.98 10.93,-69.2 5.37,-14.13 12.81,-27.17 22.19,-39.03 9.37,-11.87 19.63,-21.08 30.79,-27.71 14.87,-8.8 32.02,-14.45 51.44,-16.89 35.17,-4.42 63.24,4.16 84.38,25.65 21.09,21.56 31.62,53.84 31.62,96.89 0,42.71 -10.48,77.44 -31.4,104.15 -20.9,26.76 -48.93,42.33 -83.94,46.72 -35.45,4.45 -63.7,-3.98 -84.61,-25.38 -20.92,-21.33 -31.4,-53.06 -31.4,-95.2zm49.59 -8.01c0,29.9 6.27,51.8 18.76,65.71 12.48,13.84 28.35,19.6 47.55,17.19 19.25,-2.42 35.01,-12.08 47.38,-28.93 12.32,-16.9 18.47,-40.65 18.47,-71.3 0,-30.3 -5.99,-52.14 -18.03,-65.5 -11.97,-13.43 -27.9,-18.87 -47.82,-16.36 -19.87,2.49 -35.9,12.07 -48.05,28.64 -12.15,16.64 -18.26,40.13 -18.26,70.55zm220.33 -159.45l178.1 -22.36 0 44.6 -129.83 16.32 0 61.18 64.3 -8.08c17.71,-2.23 32.47,-1.68 44.11,1.65 11.71,3.32 21.69,10.92 29.96,22.84 8.26,11.87 12.43,26.51 12.43,43.9 0,17.81 -4.17,33.63 -12.53,47.41 -8.32,13.69 -17.82,23.61 -28.52,29.62 -10.66,6.01 -25.87,10.25 -45.56,12.72l-112.46 14.12 0 -263.92zm48.27 213.26l46.76 -5.87c14.94,-1.87 25.47,-4 31.52,-6.35 6.06,-2.36 11.38,-6.66 15.88,-12.93 4.49,-6.22 6.71,-13.5 6.71,-21.79 0,-12.1 -3.95,-20.39 -11.76,-24.94 -7.89,-4.48 -21.25,-5.57 -40.23,-3.18l-48.88 6.14 0 68.92zm191.36 -243.33l48.27 -6.07 0 105.43 64.3 -8.08c16.87,-2.12 31.4,-1.36 43.56,2.21 12.14,3.57 22.3,11.39 30.46,23.51 8.1,12.13 12.15,26.73 12.15,43.81 0,17.88 -4.22,33.76 -12.65,47.79 -8.49,13.96 -17.87,23.69 -28.24,29.16 -10.33,5.54 -25.48,9.52 -45.38,12.03l-112.47 14.12 0 -263.91zm48.27 213.25l46.93 -5.9c14.92,-1.88 25.37,-3.97 31.3,-6.31 5.87,-2.35 11.15,-6.69 15.76,-13 4.61,-6.28 6.87,-13.51 6.87,-21.74 0,-11.66 -3.76,-19.98 -11.25,-24.87 -7.56,-4.89 -21.15,-6.08 -40.73,-3.62l-48.88 6.14 0 69.3zm178.1 -241.68l48.28 -6.07 0 263.92 -48.28 6.06 0 -263.91zm151.8 244.85l0 -219.31 -70.57 8.86 0 -44.6 189.08 -23.74 0 44.6 -70.24 8.81 0 219.32 -48.27 6.06zm150.42 -282.79l44.94 -5.65 0 175.69 96.53 -187.82 47.95 -6.02 0 263.93 -44.95 5.64 0 -172.87 -96.54 184.99 -47.93 6.02 0 -263.91zm239.3 -30.05l44.93 -5.65 0 175.7 96.54 -187.83 47.95 -6.01 0 263.92 -44.96 5.64 0 -172.87 -96.53 184.99 -47.93 6.02 0 -263.91zm123.16 -91.77l22.31 -2.8c-1.28,16.43 -6.49,29.93 -15.53,40.35 -9.04,10.41 -20.75,16.56 -35.12,18.35 -14.43,1.81 -26.14,-1.38 -35.18,-9.53 -9.04,-8.14 -14.27,-20.33 -15.54,-36.44l22.3 -2.81c0.79,8.39 3.45,14.51 8.11,18.28 4.66,3.78 11.42,5.08 20.31,3.96 8.81,-1.11 15.58,-4.11 20.25,-9.05 4.65,-4.95 7.32,-11.73 8.09,-20.31zm208.62 50.1l44.95 -5.64 0 175.7 96.53 -187.82 47.94 -6.02 0 263.91 -44.94 5.65 0 -172.88 -96.54 185.01 -47.94 6.02 0 -263.93zm331.79 -41.65l189.42 -23.79 0 263.92 -48.27 6.06 0 -219.32 -92.88 11.66 0 219.32 -48.27 6.07 0 -263.92zm238.63 233.95l0 -263.91 77.18 -9.69c29.24,-3.67 48.26,-4.78 57.14,-3.24 13.65,2.28 25.08,9.44 34.29,21.55 9.22,12.12 13.82,28.68 13.82,49.68 0,16.23 -2.66,30.14 -7.94,41.85 -5.33,11.73 -12.04,21.23 -20.2,28.59 -8.15,7.29 -16.47,12.5 -24.91,15.6 -11.48,3.96 -28.07,7.34 -49.81,10.06l-31.3 3.94 0 99.51 -48.27 6.06zm48.27 -225.38l0 75.2 26.25 -3.3c18.92,-2.38 31.51,-5.37 37.89,-8.94 6.37,-3.55 11.37,-8.48 14.98,-14.9 3.6,-6.34 5.43,-13.4 5.43,-21.26 0,-9.63 -2.54,-17.24 -7.59,-22.87 -5.11,-5.64 -11.5,-8.76 -19.31,-9.38 -5.72,-0.45 -17.2,0.38 -34.52,2.56l-23.13 2.89zm359.24 174.22l-51.97 6.52 -20.59 -57.5 -95.59 12.01 -19.81 62.56 -51.05 6.42 92.55 -275.54 50.99 -6.4 95.47 251.93zm-88.21 -93.6l-33.12 -93.53 -32.18 101.72 65.3 -8.19zm147.86 -105.93l-46.93 -6.27c10.1,-44.28 38.78,-69.38 86.05,-75.32 27.96,-3.5 49.11,0.67 63.37,12.5 14.25,11.85 21.36,27 21.36,45.42 0,12.61 -3.28,24.38 -9.77,35.39 -6.49,10.96 -16.26,21.09 -29.24,30.46 15.75,4.04 27.62,11.03 35.51,21.04 7.87,10.06 11.82,23.09 11.82,39.24 0,23.22 -7.67,42.92 -23.02,59.17 -15.32,16.24 -38.3,26.3 -68.87,30.13 -24.91,3.13 -44.6,1.01 -59.03,-6.4 -14.43,-7.4 -25.24,-23.31 -32.51,-47.7l43.94 -21.38c4.55,15.35 10.65,24.9 18.2,28.63 7.54,3.78 16.87,4.94 27.96,3.55 15.2,-1.91 26.31,-6.93 33.29,-15.12 6.94,-8.18 10.43,-16.98 10.43,-26.43 0,-10.82 -3.94,-19.1 -11.81,-24.75 -7.84,-5.66 -19.7,-7.47 -35.52,-5.5l-10.93 1.38 0 -39.8 5.5 -0.69c14.7,-1.86 25.97,-6.95 33.74,-15.24 7.81,-8.3 11.7,-18.56 11.7,-30.66 0,-9.63 -3.17,-17.35 -9.49,-23.2 -6.32,-5.77 -15.37,-7.95 -27.13,-6.47 -20.14,2.53 -33.01,15.19 -38.62,38.02zm193.92 -96.22l164.45 -20.66 0 219.32 20.97 -2.63 0 102.1 -40.28 5.06 0 -57.51 -149.48 18.78 0 57.49 -40.27 5.06 0 -102.11 20.3 -2.53c9.88,-23.8 16.43,-50.78 19.59,-80.92 3.17,-30.19 4.72,-68.05 4.72,-113.57l0 -27.88zm45.93 38.82c0,79.87 -6.65,138.94 -19.97,177.22l90.22 -11.32 0 -174.72 -70.25 8.82zm171.9 197.74l0 -263.92 48.26 -6.05 0 103.94 93.88 -11.79 0 -103.94 48.27 -6.07 0 263.91 -48.27 6.07 0 -115.37 -93.88 11.79 0 115.37 -48.26 6.06zm241.07 -294.18l44.93 -5.65 0 175.69 96.55 -187.82 47.93 -6.01 0 263.92 -44.94 5.64 0 -172.86 -96.53 184.98 -47.94 6.02 0 -263.91zm239.3 -30.06l48.26 -6.06 0 112.44c10.71,-2.58 17.98,-6.51 21.76,-11.96 3.76,-5.38 9.64,-19.82 17.52,-43.3 9.94,-29.82 19.98,-48.89 30.02,-57.09 9.99,-8.19 26.03,-13.71 48.21,-16.5 1.11,-0.14 3.44,-0.49 6.99,-1.06l0 39.44 -6.82 0.68c-9.88,1.24 -17.09,3.49 -21.64,6.76 -4.54,3.28 -8.21,7.85 -11.03,13.74 -2.84,5.88 -7,17.77 -12.48,35.66 -2.95,9.53 -6.11,17.54 -9.55,24.12 -3.39,6.56 -9.44,13.1 -18.09,19.58 10.71,1.98 19.52,7.7 26.51,17.02 7.01,9.32 14.66,22.73 22.98,40.3l32.45 68.18 -56.59 7.1 -28.58 -64.37c-0.44,-0.91 -1.38,-2.64 -2.77,-5.24 -0.55,-0.85 -2.56,-4.77 -5.98,-11.65 -6.1,-12.26 -11.1,-19.74 -14.98,-22.5 -3.95,-2.77 -9.88,-3.68 -17.93,-2.8l0 115.38 -48.26 6.06 0 -263.93zm417.22 211.54l-52 6.53 -20.59 -57.5 -95.58 12.01 -19.81 62.56 -51.05 6.41 92.55 -275.54 50.99 -6.39 95.49 251.92zm-88.21 -93.61l-33.13 -93.51 -32.17 101.71 65.3 -8.2z"/>
  <path class="fil13" d="M3010.27 4866.64l-52 6.51 -20.58 -57.5 -95.59 12.01 -19.81 62.56 -51.05 6.41 92.55 -275.53 50.99 -6.4 95.49 251.94zm-88.22 -93.62l-33.13 -93.51 -32.18 101.71 65.31 -8.2zm76.73 -168.86l54.21 -6.81 55.47 129.66 47.5 -142.6 50.21 -6.3 -80.61 210.71c-8.77,22.84 -17.7,40.49 -26.8,53 -9.09,12.49 -20.8,19.63 -35.24,21.44 -14.2,1.77 -25.29,2.13 -33.29,1.1l0 -39.69c6.83,-0.35 13,-0.89 18.49,-1.57 11.09,-1.39 19.08,-4.68 23.91,-9.77 4.77,-5.14 9.43,-15.49 13.82,-30.98l-87.67 -178.19zm232.2 -29.16l48.26 -6.06 0 112.41c10.72,-2.56 17.98,-6.49 21.75,-11.93 3.77,-5.4 9.67,-19.83 17.53,-43.31 9.94,-29.81 19.98,-48.88 30.02,-57.08 9.99,-8.21 26.02,-13.72 48.22,-16.5 1.11,-0.14 3.44,-0.5 6.99,-1.07l0 39.45 -6.83 0.67c-9.88,1.23 -17.09,3.49 -21.63,6.77 -4.55,3.27 -8.22,7.85 -11.05,13.73 -2.83,5.89 -6.99,17.78 -12.48,35.66 -2.94,9.52 -6.11,17.55 -9.54,24.12 -3.38,6.57 -9.43,13.1 -18.1,19.58 10.72,1.99 19.54,7.7 26.53,17.02 7,9.31 14.65,22.72 22.98,40.3l32.45 68.18 -56.59 7.1 -28.58 -64.36c-0.43,-0.93 -1.38,-2.65 -2.77,-5.24 -0.56,-0.85 -2.55,-4.78 -5.99,-11.67 -6.11,-12.25 -11.1,-19.73 -14.98,-22.51 -3.94,-2.75 -9.88,-3.66 -17.93,-2.78l0 115.37 -48.26 6.07 0 -263.92zm203.16 -25.51l48.27 -6.06 0 219.32 92.88 -11.67 0 -219.31 48.28 -6.07 0 219.32 19.96 -2.51 0 102.1 -40.28 5.06 0 -57.5 -169.11 21.24 0 -263.92zm243.19 -30.53l44.93 -5.66 0 175.7 96.55 -187.81 47.93 -6.03 0 263.92 -44.94 5.65 0 -172.87 -96.53 184.99 -47.94 6.02 0 -263.91zm228.64 104.84c0,-26.91 3.67,-49.97 10.93,-69.19 5.38,-14.13 12.82,-27.17 22.19,-39.03 9.38,-11.87 19.64,-21.08 30.79,-27.71 14.87,-8.81 32.03,-14.46 51.44,-16.9 35.17,-4.41 63.25,4.17 84.39,25.65 21.08,21.56 31.63,53.84 31.63,96.9 0,42.7 -10.49,77.43 -31.4,104.15 -20.93,26.76 -48.95,42.33 -83.95,46.71 -35.46,4.46 -63.7,-3.98 -84.61,-25.37 -20.92,-21.33 -31.41,-53.07 -31.41,-95.21zm49.61 -8.01c0,29.91 6.26,51.81 18.74,65.71 12.49,13.85 28.36,19.61 47.55,17.19 19.26,-2.41 35.01,-12.07 47.39,-28.92 12.31,-16.9 18.47,-40.66 18.47,-71.31 0,-30.29 -5.99,-52.14 -18.03,-65.5 -11.99,-13.42 -27.91,-18.86 -47.83,-16.35 -19.87,2.49 -35.89,12.06 -48.05,28.64 -12.14,16.64 -18.24,40.13 -18.24,70.54zm219.32 104.6l0 -263.91 48.26 -6.06 0 103.95 93.88 -11.79 0 -103.95 48.28 -6.06 0 263.91 -48.28 6.07 0 -115.38 -93.88 11.8 0 115.37 -48.26 6.05zm485.35 -158.25l46.62 10c-7.16,29.96 -19.09,53.02 -35.74,69.25 -16.65,16.15 -37.72,25.85 -63.3,29.08 -31.68,3.97 -57.7,-4.74 -78.12,-26.14 -20.37,-21.4 -30.57,-52.86 -30.57,-94.46 0,-43.93 10.25,-79.36 30.73,-106.25 20.47,-26.91 47.44,-42.46 80.84,-46.65 29.19,-3.67 52.88,2.94 71.07,19.76 10.88,9.94 18.98,25.15 24.42,45.65l-47.61 18.52c-2.83,-13.28 -8.71,-23.36 -17.63,-30.17 -9,-6.8 -19.87,-9.37 -32.63,-7.76 -17.71,2.22 -32.07,11.03 -43.05,26.48 -11.05,15.4 -16.55,38.81 -16.55,70.27 0,33.29 5.44,56.38 16.27,69.15 10.87,12.82 24.96,18.13 42.33,15.95 12.82,-1.61 23.85,-7.48 33.06,-17.67 9.21,-10.19 15.87,-25.15 19.86,-45.01zm69.7 -41.79c0,-26.92 3.66,-49.98 10.93,-69.2 5.37,-14.13 12.81,-27.17 22.19,-39.03 9.37,-11.87 19.63,-21.08 30.79,-27.71 14.87,-8.8 32.02,-14.45 51.44,-16.89 35.17,-4.42 63.24,4.16 84.38,25.65 21.09,21.56 31.62,53.84 31.62,96.89 0,42.71 -10.48,77.44 -31.4,104.15 -20.9,26.76 -48.93,42.33 -83.94,46.72 -35.45,4.45 -63.7,-3.98 -84.61,-25.38 -20.92,-21.33 -31.4,-53.06 -31.4,-95.2zm49.59 -8.01c0,29.9 6.27,51.8 18.76,65.71 12.48,13.84 28.35,19.6 47.55,17.19 19.25,-2.42 35.01,-12.08 47.38,-28.93 12.32,-16.9 18.47,-40.65 18.47,-71.3 0,-30.3 -5.99,-52.14 -18.03,-65.5 -11.97,-13.43 -27.9,-18.87 -47.82,-16.36 -19.87,2.49 -35.9,12.07 -48.05,28.64 -12.15,16.64 -18.26,40.13 -18.26,70.55zm220.33 -159.45l178.1 -22.36 0 44.6 -129.83 16.32 0 61.18 64.3 -8.08c17.71,-2.23 32.47,-1.68 44.11,1.65 11.71,3.32 21.69,10.92 29.96,22.84 8.26,11.87 12.43,26.51 12.43,43.9 0,17.81 -4.17,33.63 -12.53,47.41 -8.32,13.69 -17.82,23.61 -28.52,29.62 -10.66,6.01 -25.87,10.25 -45.56,12.72l-112.46 14.12 0 -263.92zm48.27 213.26l46.76 -5.87c14.94,-1.87 25.47,-4 31.52,-6.35 6.06,-2.36 11.38,-6.66 15.88,-12.93 4.49,-6.22 6.71,-13.5 6.71,-21.79 0,-12.1 -3.95,-20.39 -11.76,-24.94 -7.89,-4.48 -21.25,-5.57 -40.23,-3.18l-48.88 6.14 0 68.92zm191.36 -243.33l48.27 -6.07 0 105.43 64.3 -8.08c16.87,-2.12 31.4,-1.36 43.56,2.21 12.14,3.57 22.3,11.39 30.46,23.51 8.1,12.13 12.15,26.73 12.15,43.81 0,17.88 -4.22,33.76 -12.65,47.79 -8.49,13.96 -17.87,23.69 -28.24,29.16 -10.33,5.54 -25.48,9.52 -45.38,12.03l-112.47 14.12 0 -263.91zm48.27 213.25l46.93 -5.9c14.92,-1.88 25.37,-3.97 31.3,-6.31 5.87,-2.35 11.15,-6.69 15.76,-13 4.61,-6.28 6.87,-13.51 6.87,-21.74 0,-11.66 -3.76,-19.98 -11.25,-24.87 -7.56,-4.89 -21.15,-6.08 -40.73,-3.62l-48.88 6.14 0 69.3zm178.1 -241.68l48.28 -6.07 0 263.92 -48.28 6.06 0 -263.91zm151.8 244.85l0 -219.31 -70.57 8.86 0 -44.6 189.08 -23.74 0 44.6 -70.24 8.81 0 219.32 -48.27 6.06zm150.42 -282.79l44.94 -5.65 0 175.69 96.53 -187.82 47.95 -6.02 0 263.93 -44.95 5.64 0 -172.87 -96.54 184.99 -47.93 6.02 0 -263.91zm239.3 -30.05l44.93 -5.65 0 175.7 96.54 -187.83 47.95 -6.01 0 263.92 -44.96 5.64 0 -172.87 -96.53 184.99 -47.93 6.02 0 -263.91zm123.16 -91.77l22.31 -2.8c-1.28,16.43 -6.49,29.93 -15.53,40.35 -9.04,10.41 -20.75,16.56 -35.12,18.35 -14.43,1.81 -26.14,-1.38 -35.18,-9.53 -9.04,-8.14 -14.27,-20.33 -15.54,-36.44l22.3 -2.81c0.79,8.39 3.45,14.51 8.11,18.28 4.66,3.78 11.42,5.08 20.31,3.96 8.81,-1.11 15.58,-4.11 20.25,-9.05 4.65,-4.95 7.32,-11.73 8.09,-20.31zm208.62 50.1l44.95 -5.64 0 175.7 96.53 -187.82 47.94 -6.02 0 263.91 -44.94 5.65 0 -172.88 -96.54 185.01 -47.94 6.02 0 -263.93zm331.79 -41.65l189.42 -23.79 0 263.92 -48.27 6.06 0 -219.32 -92.88 11.66 0 219.32 -48.27 6.07 0 -263.92zm238.63 233.95l0 -263.91 77.18 -9.69c29.24,-3.67 48.26,-4.78 57.14,-3.24 13.65,2.28 25.08,9.44 34.29,21.55 9.22,12.12 13.82,28.68 13.82,49.68 0,16.23 -2.66,30.14 -7.94,41.85 -5.33,11.73 -12.04,21.23 -20.2,28.59 -8.15,7.29 -16.47,12.5 -24.91,15.6 -11.48,3.96 -28.07,7.34 -49.81,10.06l-31.3 3.94 0 99.51 -48.27 6.06zm48.27 -225.38l0 75.2 26.25 -3.3c18.92,-2.38 31.51,-5.37 37.89,-8.94 6.37,-3.55 11.37,-8.48 14.98,-14.9 3.6,-6.34 5.43,-13.4 5.43,-21.26 0,-9.63 -2.54,-17.24 -7.59,-22.87 -5.11,-5.64 -11.5,-8.76 -19.31,-9.38 -5.72,-0.45 -17.2,0.38 -34.52,2.56l-23.13 2.89zm359.24 174.22l-51.97 6.52 -20.59 -57.5 -95.59 12.01 -19.81 62.56 -51.05 6.42 92.55 -275.54 50.99 -6.4 95.47 251.93zm-88.21 -93.6l-33.12 -93.53 -32.18 101.72 65.3 -8.19zm147.86 -105.93l-46.93 -6.27c10.1,-44.28 38.78,-69.38 86.05,-75.32 27.96,-3.5 49.11,0.67 63.37,12.5 14.25,11.85 21.36,27 21.36,45.42 0,12.61 -3.28,24.38 -9.77,35.39 -6.49,10.96 -16.26,21.09 -29.24,30.46 15.75,4.04 27.62,11.03 35.51,21.04 7.87,10.06 11.82,23.09 11.82,39.24 0,23.22 -7.67,42.92 -23.02,59.17 -15.32,16.24 -38.3,26.3 -68.87,30.13 -24.91,3.13 -44.6,1.01 -59.03,-6.4 -14.43,-7.4 -25.24,-23.31 -32.51,-47.7l43.94 -21.38c4.55,15.35 10.65,24.9 18.2,28.63 7.54,3.78 16.87,4.94 27.96,3.55 15.2,-1.91 26.31,-6.93 33.29,-15.12 6.94,-8.18 10.43,-16.98 10.43,-26.43 0,-10.82 -3.94,-19.1 -11.81,-24.75 -7.84,-5.66 -19.7,-7.47 -35.52,-5.5l-10.93 1.38 0 -39.8 5.5 -0.69c14.7,-1.86 25.97,-6.95 33.74,-15.24 7.81,-8.3 11.7,-18.56 11.7,-30.66 0,-9.63 -3.17,-17.35 -9.49,-23.2 -6.32,-5.77 -15.37,-7.95 -27.13,-6.47 -20.14,2.53 -33.01,15.19 -38.62,38.02zm193.92 -96.22l164.45 -20.66 0 219.32 20.97 -2.63 0 102.1 -40.28 5.06 0 -57.51 -149.48 18.78 0 57.49 -40.27 5.06 0 -102.11 20.3 -2.53c9.88,-23.8 16.43,-50.78 19.59,-80.92 3.17,-30.19 4.72,-68.05 4.72,-113.57l0 -27.88zm45.93 38.82c0,79.87 -6.65,138.94 -19.97,177.22l90.22 -11.32 0 -174.72 -70.25 8.82zm171.9 197.74l0 -263.92 48.26 -6.05 0 103.94 93.88 -11.79 0 -103.94 48.27 -6.07 0 263.91 -48.27 6.07 0 -115.37 -93.88 11.79 0 115.37 -48.26 6.06zm241.07 -294.18l44.93 -5.65 0 175.69 96.55 -187.82 47.93 -6.01 0 263.92 -44.94 5.64 0 -172.86 -96.53 184.98 -47.94 6.02 0 -263.91zm239.3 -30.06l48.26 -6.06 0 112.44c10.71,-2.58 17.98,-6.51 21.76,-11.96 3.76,-5.38 9.64,-19.82 17.52,-43.3 9.94,-29.82 19.98,-48.89 30.02,-57.09 9.99,-8.19 26.03,-13.71 48.21,-16.5 1.11,-0.14 3.44,-0.49 6.99,-1.06l0 39.44 -6.82 0.68c-9.88,1.24 -17.09,3.49 -21.64,6.76 -4.54,3.28 -8.21,7.85 -11.03,13.74 -2.84,5.88 -7,17.77 -12.48,35.66 -2.95,9.53 -6.11,17.54 -9.55,24.12 -3.39,6.56 -9.44,13.1 -18.09,19.58 10.71,1.98 19.52,7.7 26.51,17.02 7.01,9.32 14.66,22.73 22.98,40.3l32.45 68.18 -56.59 7.1 -28.58 -64.37c-0.44,-0.91 -1.38,-2.64 -2.77,-5.24 -0.55,-0.85 -2.56,-4.77 -5.98,-11.65 -6.1,-12.26 -11.1,-19.74 -14.98,-22.5 -3.95,-2.77 -9.88,-3.68 -17.93,-2.8l0 115.38 -48.26 6.06 0 -263.93zm417.22 211.54l-52 6.53 -20.59 -57.5 -95.58 12.01 -19.81 62.56 -51.05 6.41 92.55 -275.54 50.99 -6.39 95.49 251.92zm-88.21 -93.61l-33.13 -93.51 -32.17 101.71 65.3 -8.2z"/>
  <path class="fil13" d="M3010.27 4866.64l-52 6.51 -20.58 -57.5 -95.59 12.01 -19.81 62.56 -51.05 6.41 92.55 -275.53 50.99 -6.4 95.49 251.94zm-88.22 -93.62l-33.13 -93.51 -32.18 101.71 65.31 -8.2zm76.73 -168.86l54.21 -6.81 55.47 129.66 47.5 -142.6 50.21 -6.3 -80.61 210.71c-8.77,22.84 -17.7,40.49 -26.8,53 -9.09,12.49 -20.8,19.63 -35.24,21.44 -14.2,1.77 -25.29,2.13 -33.29,1.1l0 -39.69c6.83,-0.35 13,-0.89 18.49,-1.57 11.09,-1.39 19.08,-4.68 23.91,-9.77 4.77,-5.14 9.43,-15.49 13.82,-30.98l-87.67 -178.19zm232.2 -29.16l48.26 -6.06 0 112.41c10.72,-2.56 17.98,-6.49 21.75,-11.93 3.77,-5.4 9.67,-19.83 17.53,-43.31 9.94,-29.81 19.98,-48.88 30.02,-57.08 9.99,-8.21 26.02,-13.72 48.22,-16.5 1.11,-0.14 3.44,-0.5 6.99,-1.07l0 39.45 -6.83 0.67c-9.88,1.23 -17.09,3.49 -21.63,6.77 -4.55,3.27 -8.22,7.85 -11.05,13.73 -2.83,5.89 -6.99,17.78 -12.48,35.66 -2.94,9.52 -6.11,17.55 -9.54,24.12 -3.38,6.57 -9.43,13.1 -18.1,19.58 10.72,1.99 19.54,7.7 26.53,17.02 7,9.31 14.65,22.72 22.98,40.3l32.45 68.18 -56.59 7.1 -28.58 -64.36c-0.43,-0.93 -1.38,-2.65 -2.77,-5.24 -0.56,-0.85 -2.55,-4.78 -5.99,-11.67 -6.11,-12.25 -11.1,-19.73 -14.98,-22.51 -3.94,-2.75 -9.88,-3.66 -17.93,-2.78l0 115.37 -48.26 6.07 0 -263.92zm203.16 -25.51l48.27 -6.06 0 219.32 92.88 -11.67 0 -219.31 48.28 -6.07 0 219.32 19.96 -2.51 0 102.1 -40.28 5.06 0 -57.5 -169.11 21.24 0 -263.92zm243.19 -30.53l44.93 -5.66 0 175.7 96.55 -187.81 47.93 -6.03 0 263.92 -44.94 5.65 0 -172.87 -96.53 184.99 -47.94 6.02 0 -263.91zm228.64 104.84c0,-26.91 3.67,-49.97 10.93,-69.19 5.38,-14.13 12.82,-27.17 22.19,-39.03 9.38,-11.87 19.64,-21.08 30.79,-27.71 14.87,-8.81 32.03,-14.46 51.44,-16.9 35.17,-4.41 63.25,4.17 84.39,25.65 21.08,21.56 31.63,53.84 31.63,96.9 0,42.7 -10.49,77.43 -31.4,104.15 -20.93,26.76 -48.95,42.33 -83.95,46.71 -35.46,4.46 -63.7,-3.98 -84.61,-25.37 -20.92,-21.33 -31.41,-53.07 -31.41,-95.21zm49.61 -8.01c0,29.91 6.26,51.81 18.74,65.71 12.49,13.85 28.36,19.61 47.55,17.19 19.26,-2.41 35.01,-12.07 47.39,-28.92 12.31,-16.9 18.47,-40.66 18.47,-71.31 0,-30.29 -5.99,-52.14 -18.03,-65.5 -11.99,-13.42 -27.91,-18.86 -47.83,-16.35 -19.87,2.49 -35.89,12.06 -48.05,28.64 -12.14,16.64 -18.24,40.13 -18.24,70.54zm219.32 104.6l0 -263.91 48.26 -6.06 0 103.95 93.88 -11.79 0 -103.95 48.28 -6.06 0 263.91 -48.28 6.07 0 -115.38 -93.88 11.8 0 115.37 -48.26 6.05zm485.35 -158.25l46.62 10c-7.16,29.96 -19.09,53.02 -35.74,69.25 -16.65,16.15 -37.72,25.85 -63.3,29.08 -31.68,3.97 -57.7,-4.74 -78.12,-26.14 -20.37,-21.4 -30.57,-52.86 -30.57,-94.46 0,-43.93 10.25,-79.36 30.73,-106.25 20.47,-26.91 47.44,-42.46 80.84,-46.65 29.19,-3.67 52.88,2.94 71.07,19.76 10.88,9.94 18.98,25.15 24.42,45.65l-47.61 18.52c-2.83,-13.28 -8.71,-23.36 -17.63,-30.17 -9,-6.8 -19.87,-9.37 -32.63,-7.76 -17.71,2.22 -32.07,11.03 -43.05,26.48 -11.05,15.4 -16.55,38.81 -16.55,70.27 0,33.29 5.44,56.38 16.27,69.15 10.87,12.82 24.96,18.13 42.33,15.95 12.82,-1.61 23.85,-7.48 33.06,-17.67 9.21,-10.19 15.87,-25.15 19.86,-45.01zm69.7 -41.79c0,-26.92 3.66,-49.98 10.93,-69.2 5.37,-14.13 12.81,-27.17 22.19,-39.03 9.37,-11.87 19.63,-21.08 30.79,-27.71 14.87,-8.8 32.02,-14.45 51.44,-16.89 35.17,-4.42 63.24,4.16 84.38,25.65 21.09,21.56 31.62,53.84 31.62,96.89 0,42.71 -10.48,77.44 -31.4,104.15 -20.9,26.76 -48.93,42.33 -83.94,46.72 -35.45,4.45 -63.7,-3.98 -84.61,-25.38 -20.92,-21.33 -31.4,-53.06 -31.4,-95.2zm49.59 -8.01c0,29.9 6.27,51.8 18.76,65.71 12.48,13.84 28.35,19.6 47.55,17.19 19.25,-2.42 35.01,-12.08 47.38,-28.93 12.32,-16.9 18.47,-40.65 18.47,-71.3 0,-30.3 -5.99,-52.14 -18.03,-65.5 -11.97,-13.43 -27.9,-18.87 -47.82,-16.36 -19.87,2.49 -35.9,12.07 -48.05,28.64 -12.15,16.64 -18.26,40.13 -18.26,70.55zm220.33 -159.45l178.1 -22.36 0 44.6 -129.83 16.32 0 61.18 64.3 -8.08c17.71,-2.23 32.47,-1.68 44.11,1.65 11.71,3.32 21.69,10.92 29.96,22.84 8.26,11.87 12.43,26.51 12.43,43.9 0,17.81 -4.17,33.63 -12.53,47.41 -8.32,13.69 -17.82,23.61 -28.52,29.62 -10.66,6.01 -25.87,10.25 -45.56,12.72l-112.46 14.12 0 -263.92zm48.27 213.26l46.76 -5.87c14.94,-1.87 25.47,-4 31.52,-6.35 6.06,-2.36 11.38,-6.66 15.88,-12.93 4.49,-6.22 6.71,-13.5 6.71,-21.79 0,-12.1 -3.95,-20.39 -11.76,-24.94 -7.89,-4.48 -21.25,-5.57 -40.23,-3.18l-48.88 6.14 0 68.92zm191.36 -243.33l48.27 -6.07 0 105.43 64.3 -8.08c16.87,-2.12 31.4,-1.36 43.56,2.21 12.14,3.57 22.3,11.39 30.46,23.51 8.1,12.13 12.15,26.73 12.15,43.81 0,17.88 -4.22,33.76 -12.65,47.79 -8.49,13.96 -17.87,23.69 -28.24,29.16 -10.33,5.54 -25.48,9.52 -45.38,12.03l-112.47 14.12 0 -263.91zm48.27 213.25l46.93 -5.9c14.92,-1.88 25.37,-3.97 31.3,-6.31 5.87,-2.35 11.15,-6.69 15.76,-13 4.61,-6.28 6.87,-13.51 6.87,-21.74 0,-11.66 -3.76,-19.98 -11.25,-24.87 -7.56,-4.89 -21.15,-6.08 -40.73,-3.62l-48.88 6.14 0 69.3zm178.1 -241.68l48.28 -6.07 0 263.92 -48.28 6.06 0 -263.91zm151.8 244.85l0 -219.31 -70.57 8.86 0 -44.6 189.08 -23.74 0 44.6 -70.24 8.81 0 219.32 -48.27 6.06zm150.42 -282.79l44.94 -5.65 0 175.69 96.53 -187.82 47.95 -6.02 0 263.93 -44.95 5.64 0 -172.87 -96.54 184.99 -47.93 6.02 0 -263.91zm239.3 -30.05l44.93 -5.65 0 175.7 96.54 -187.83 47.95 -6.01 0 263.92 -44.96 5.64 0 -172.87 -96.53 184.99 -47.93 6.02 0 -263.91zm123.16 -91.77l22.31 -2.8c-1.28,16.43 -6.49,29.93 -15.53,40.35 -9.04,10.41 -20.75,16.56 -35.12,18.35 -14.43,1.81 -26.14,-1.38 -35.18,-9.53 -9.04,-8.14 -14.27,-20.33 -15.54,-36.44l22.3 -2.81c0.79,8.39 3.45,14.51 8.11,18.28 4.66,3.78 11.42,5.08 20.31,3.96 8.81,-1.11 15.58,-4.11 20.25,-9.05 4.65,-4.95 7.32,-11.73 8.09,-20.31zm208.62 50.1l44.95 -5.64 0 175.7 96.53 -187.82 47.94 -6.02 0 263.91 -44.94 5.65 0 -172.88 -96.54 185.01 -47.94 6.02 0 -263.93zm331.79 -41.65l189.42 -23.79 0 263.92 -48.27 6.06 0 -219.32 -92.88 11.66 0 219.32 -48.27 6.07 0 -263.92zm238.63 233.95l0 -263.91 77.18 -9.69c29.24,-3.67 48.26,-4.78 57.14,-3.24 13.65,2.28 25.08,9.44 34.29,21.55 9.22,12.12 13.82,28.68 13.82,49.68 0,16.23 -2.66,30.14 -7.94,41.85 -5.33,11.73 -12.04,21.23 -20.2,28.59 -8.15,7.29 -16.47,12.5 -24.91,15.6 -11.48,3.96 -28.07,7.34 -49.81,10.06l-31.3 3.94 0 99.51 -48.27 6.06zm48.27 -225.38l0 75.2 26.25 -3.3c18.92,-2.38 31.51,-5.37 37.89,-8.94 6.37,-3.55 11.37,-8.48 14.98,-14.9 3.6,-6.34 5.43,-13.4 5.43,-21.26 0,-9.63 -2.54,-17.24 -7.59,-22.87 -5.11,-5.64 -11.5,-8.76 -19.31,-9.38 -5.72,-0.45 -17.2,0.38 -34.52,2.56l-23.13 2.89zm359.24 174.22l-51.97 6.52 -20.59 -57.5 -95.59 12.01 -19.81 62.56 -51.05 6.42 92.55 -275.54 50.99 -6.4 95.47 251.93zm-88.21 -93.6l-33.12 -93.53 -32.18 101.72 65.3 -8.19zm147.86 -105.93l-46.93 -6.27c10.1,-44.28 38.78,-69.38 86.05,-75.32 27.96,-3.5 49.11,0.67 63.37,12.5 14.25,11.85 21.36,27 21.36,45.42 0,12.61 -3.28,24.38 -9.77,35.39 -6.49,10.96 -16.26,21.09 -29.24,30.46 15.75,4.04 27.62,11.03 35.51,21.04 7.87,10.06 11.82,23.09 11.82,39.24 0,23.22 -7.67,42.92 -23.02,59.17 -15.32,16.24 -38.3,26.3 -68.87,30.13 -24.91,3.13 -44.6,1.01 -59.03,-6.4 -14.43,-7.4 -25.24,-23.31 -32.51,-47.7l43.94 -21.38c4.55,15.35 10.65,24.9 18.2,28.63 7.54,3.78 16.87,4.94 27.96,3.55 15.2,-1.91 26.31,-6.93 33.29,-15.12 6.94,-8.18 10.43,-16.98 10.43,-26.43 0,-10.82 -3.94,-19.1 -11.81,-24.75 -7.84,-5.66 -19.7,-7.47 -35.52,-5.5l-10.93 1.38 0 -39.8 5.5 -0.69c14.7,-1.86 25.97,-6.95 33.74,-15.24 7.81,-8.3 11.7,-18.56 11.7,-30.66 0,-9.63 -3.17,-17.35 -9.49,-23.2 -6.32,-5.77 -15.37,-7.95 -27.13,-6.47 -20.14,2.53 -33.01,15.19 -38.62,38.02zm193.92 -96.22l164.45 -20.66 0 219.32 20.97 -2.63 0 102.1 -40.28 5.06 0 -57.51 -149.48 18.78 0 57.49 -40.27 5.06 0 -102.11 20.3 -2.53c9.88,-23.8 16.43,-50.78 19.59,-80.92 3.17,-30.19 4.72,-68.05 4.72,-113.57l0 -27.88zm45.93 38.82c0,79.87 -6.65,138.94 -19.97,177.22l90.22 -11.32 0 -174.72 -70.25 8.82zm171.9 197.74l0 -263.92 48.26 -6.05 0 103.94 93.88 -11.79 0 -103.94 48.27 -6.07 0 263.91 -48.27 6.07 0 -115.37 -93.88 11.79 0 115.37 -48.26 6.06zm241.07 -294.18l44.93 -5.65 0 175.69 96.55 -187.82 47.93 -6.01 0 263.92 -44.94 5.64 0 -172.86 -96.53 184.98 -47.94 6.02 0 -263.91zm239.3 -30.06l48.26 -6.06 0 112.44c10.71,-2.58 17.98,-6.51 21.76,-11.96 3.76,-5.38 9.64,-19.82 17.52,-43.3 9.94,-29.82 19.98,-48.89 30.02,-57.09 9.99,-8.19 26.03,-13.71 48.21,-16.5 1.11,-0.14 3.44,-0.49 6.99,-1.06l0 39.44 -6.82 0.68c-9.88,1.24 -17.09,3.49 -21.64,6.76 -4.54,3.28 -8.21,7.85 -11.03,13.74 -2.84,5.88 -7,17.77 -12.48,35.66 -2.95,9.53 -6.11,17.54 -9.55,24.12 -3.39,6.56 -9.44,13.1 -18.09,19.58 10.71,1.98 19.52,7.7 26.51,17.02 7.01,9.32 14.66,22.73 22.98,40.3l32.45 68.18 -56.59 7.1 -28.58 -64.37c-0.44,-0.91 -1.38,-2.64 -2.77,-5.24 -0.55,-0.85 -2.56,-4.77 -5.98,-11.65 -6.1,-12.26 -11.1,-19.74 -14.98,-22.5 -3.95,-2.77 -9.88,-3.68 -17.93,-2.8l0 115.38 -48.26 6.06 0 -263.93zm417.22 211.54l-52 6.53 -20.59 -57.5 -95.58 12.01 -19.81 62.56 -51.05 6.41 92.55 -275.54 50.99 -6.39 95.49 251.92zm-88.21 -93.61l-33.13 -93.51 -32.17 101.71 65.3 -8.2z"/>
  <path class="fil13" d="M3010.27 4866.64l-52 6.51 -20.58 -57.5 -95.59 12.01 -19.81 62.56 -51.05 6.41 92.55 -275.53 50.99 -6.4 95.49 251.94zm-88.22 -93.62l-33.13 -93.51 -32.18 101.71 65.31 -8.2zm76.73 -168.86l54.21 -6.81 55.47 129.66 47.5 -142.6 50.21 -6.3 -80.61 210.71c-8.77,22.84 -17.7,40.49 -26.8,53 -9.09,12.49 -20.8,19.63 -35.24,21.44 -14.2,1.77 -25.29,2.13 -33.29,1.1l0 -39.69c6.83,-0.35 13,-0.89 18.49,-1.57 11.09,-1.39 19.08,-4.68 23.91,-9.77 4.77,-5.14 9.43,-15.49 13.82,-30.98l-87.67 -178.19zm232.2 -29.16l48.26 -6.06 0 112.41c10.72,-2.56 17.98,-6.49 21.75,-11.93 3.77,-5.4 9.67,-19.83 17.53,-43.31 9.94,-29.81 19.98,-48.88 30.02,-57.08 9.99,-8.21 26.02,-13.72 48.22,-16.5 1.11,-0.14 3.44,-0.5 6.99,-1.07l0 39.45 -6.83 0.67c-9.88,1.23 -17.09,3.49 -21.63,6.77 -4.55,3.27 -8.22,7.85 -11.05,13.73 -2.83,5.89 -6.99,17.78 -12.48,35.66 -2.94,9.52 -6.11,17.55 -9.54,24.12 -3.38,6.57 -9.43,13.1 -18.1,19.58 10.72,1.99 19.54,7.7 26.53,17.02 7,9.31 14.65,22.72 22.98,40.3l32.45 68.18 -56.59 7.1 -28.58 -64.36c-0.43,-0.93 -1.38,-2.65 -2.77,-5.24 -0.56,-0.85 -2.55,-4.78 -5.99,-11.67 -6.11,-12.25 -11.1,-19.73 -14.98,-22.51 -3.94,-2.75 -9.88,-3.66 -17.93,-2.78l0 115.37 -48.26 6.07 0 -263.92zm203.16 -25.51l48.27 -6.06 0 219.32 92.88 -11.67 0 -219.31 48.28 -6.07 0 219.32 19.96 -2.51 0 102.1 -40.28 5.06 0 -57.5 -169.11 21.24 0 -263.92zm243.19 -30.53l44.93 -5.66 0 175.7 96.55 -187.81 47.93 -6.03 0 263.92 -44.94 5.65 0 -172.87 -96.53 184.99 -47.94 6.02 0 -263.91zm228.64 104.84c0,-26.91 3.67,-49.97 10.93,-69.19 5.38,-14.13 12.82,-27.17 22.19,-39.03 9.38,-11.87 19.64,-21.08 30.79,-27.71 14.87,-8.81 32.03,-14.46 51.44,-16.9 35.17,-4.41 63.25,4.17 84.39,25.65 21.08,21.56 31.63,53.84 31.63,96.9 0,42.7 -10.49,77.43 -31.4,104.15 -20.93,26.76 -48.95,42.33 -83.95,46.71 -35.46,4.46 -63.7,-3.98 -84.61,-25.37 -20.92,-21.33 -31.41,-53.07 -31.41,-95.21zm49.61 -8.01c0,29.91 6.26,51.81 18.74,65.71 12.49,13.85 28.36,19.61 47.55,17.19 19.26,-2.41 35.01,-12.07 47.39,-28.92 12.31,-16.9 18.47,-40.66 18.47,-71.31 0,-30.29 -5.99,-52.14 -18.03,-65.5 -11.99,-13.42 -27.91,-18.86 -47.83,-16.35 -19.87,2.49 -35.89,12.06 -48.05,28.64 -12.14,16.64 -18.24,40.13 -18.24,70.54zm219.32 104.6l0 -263.91 48.26 -6.06 0 103.95 93.88 -11.79 0 -103.95 48.28 -6.06 0 263.91 -48.28 6.07 0 -115.38 -93.88 11.8 0 115.37 -48.26 6.05zm485.35 -158.25l46.62 10c-7.16,29.96 -19.09,53.02 -35.74,69.25 -16.65,16.15 -37.72,25.85 -63.3,29.08 -31.68,3.97 -57.7,-4.74 -78.12,-26.14 -20.37,-21.4 -30.57,-52.86 -30.57,-94.46 0,-43.93 10.25,-79.36 30.73,-106.25 20.47,-26.91 47.44,-42.46 80.84,-46.65 29.19,-3.67 52.88,2.94 71.07,19.76 10.88,9.94 18.98,25.15 24.42,45.65l-47.61 18.52c-2.83,-13.28 -8.71,-23.36 -17.63,-30.17 -9,-6.8 -19.87,-9.37 -32.63,-7.76 -17.71,2.22 -32.07,11.03 -43.05,26.48 -11.05,15.4 -16.55,38.81 -16.55,70.27 0,33.29 5.44,56.38 16.27,69.15 10.87,12.82 24.96,18.13 42.33,15.95 12.82,-1.61 23.85,-7.48 33.06,-17.67 9.21,-10.19 15.87,-25.15 19.86,-45.01zm69.7 -41.79c0,-26.92 3.66,-49.98 10.93,-69.2 5.37,-14.13 12.81,-27.17 22.19,-39.03 9.37,-11.87 19.63,-21.08 30.79,-27.71 14.87,-8.8 32.02,-14.45 51.44,-16.89 35.17,-4.42 63.24,4.16 84.38,25.65 21.09,21.56 31.62,53.84 31.62,96.89 0,42.71 -10.48,77.44 -31.4,104.15 -20.9,26.76 -48.93,42.33 -83.94,46.72 -35.45,4.45 -63.7,-3.98 -84.61,-25.38 -20.92,-21.33 -31.4,-53.06 -31.4,-95.2zm49.59 -8.01c0,29.9 6.27,51.8 18.76,65.71 12.48,13.84 28.35,19.6 47.55,17.19 19.25,-2.42 35.01,-12.08 47.38,-28.93 12.32,-16.9 18.47,-40.65 18.47,-71.3 0,-30.3 -5.99,-52.14 -18.03,-65.5 -11.97,-13.43 -27.9,-18.87 -47.82,-16.36 -19.87,2.49 -35.9,12.07 -48.05,28.64 -12.15,16.64 -18.26,40.13 -18.26,70.55zm220.33 -159.45l178.1 -22.36 0 44.6 -129.83 16.32 0 61.18 64.3 -8.08c17.71,-2.23 32.47,-1.68 44.11,1.65 11.71,3.32 21.69,10.92 29.96,22.84 8.26,11.87 12.43,26.51 12.43,43.9 0,17.81 -4.17,33.63 -12.53,47.41 -8.32,13.69 -17.82,23.61 -28.52,29.62 -10.66,6.01 -25.87,10.25 -45.56,12.72l-112.46 14.12 0 -263.92zm48.27 213.26l46.76 -5.87c14.94,-1.87 25.47,-4 31.52,-6.35 6.06,-2.36 11.38,-6.66 15.88,-12.93 4.49,-6.22 6.71,-13.5 6.71,-21.79 0,-12.1 -3.95,-20.39 -11.76,-24.94 -7.89,-4.48 -21.25,-5.57 -40.23,-3.18l-48.88 6.14 0 68.92zm191.36 -243.33l48.27 -6.07 0 105.43 64.3 -8.08c16.87,-2.12 31.4,-1.36 43.56,2.21 12.14,3.57 22.3,11.39 30.46,23.51 8.1,12.13 12.15,26.73 12.15,43.81 0,17.88 -4.22,33.76 -12.65,47.79 -8.49,13.96 -17.87,23.69 -28.24,29.16 -10.33,5.54 -25.48,9.52 -45.38,12.03l-112.47 14.12 0 -263.91zm48.27 213.25l46.93 -5.9c14.92,-1.88 25.37,-3.97 31.3,-6.31 5.87,-2.35 11.15,-6.69 15.76,-13 4.61,-6.28 6.87,-13.51 6.87,-21.74 0,-11.66 -3.76,-19.98 -11.25,-24.87 -7.56,-4.89 -21.15,-6.08 -40.73,-3.62l-48.88 6.14 0 69.3zm178.1 -241.68l48.28 -6.07 0 263.92 -48.28 6.06 0 -263.91zm151.8 244.85l0 -219.31 -70.57 8.86 0 -44.6 189.08 -23.74 0 44.6 -70.24 8.81 0 219.32 -48.27 6.06zm150.42 -282.79l44.94 -5.65 0 175.69 96.53 -187.82 47.95 -6.02 0 263.93 -44.95 5.64 0 -172.87 -96.54 184.99 -47.93 6.02 0 -263.91zm239.3 -30.05l44.93 -5.65 0 175.7 96.54 -187.83 47.95 -6.01 0 263.92 -44.96 5.64 0 -172.87 -96.53 184.99 -47.93 6.02 0 -263.91zm123.16 -91.77l22.31 -2.8c-1.28,16.43 -6.49,29.93 -15.53,40.35 -9.04,10.41 -20.75,16.56 -35.12,18.35 -14.43,1.81 -26.14,-1.38 -35.18,-9.53 -9.04,-8.14 -14.27,-20.33 -15.54,-36.44l22.3 -2.81c0.79,8.39 3.45,14.51 8.11,18.28 4.66,3.78 11.42,5.08 20.31,3.96 8.81,-1.11 15.58,-4.11 20.25,-9.05 4.65,-4.95 7.32,-11.73 8.09,-20.31zm208.62 50.1l44.95 -5.64 0 175.7 96.53 -187.82 47.94 -6.02 0 263.91 -44.94 5.65 0 -172.88 -96.54 185.01 -47.94 6.02 0 -263.93zm331.79 -41.65l189.42 -23.79 0 263.92 -48.27 6.06 0 -219.32 -92.88 11.66 0 219.32 -48.27 6.07 0 -263.92zm238.63 233.95l0 -263.91 77.18 -9.69c29.24,-3.67 48.26,-4.78 57.14,-3.24 13.65,2.28 25.08,9.44 34.29,21.55 9.22,12.12 13.82,28.68 13.82,49.68 0,16.23 -2.66,30.14 -7.94,41.85 -5.33,11.73 -12.04,21.23 -20.2,28.59 -8.15,7.29 -16.47,12.5 -24.91,15.6 -11.48,3.96 -28.07,7.34 -49.81,10.06l-31.3 3.94 0 99.51 -48.27 6.06zm48.27 -225.38l0 75.2 26.25 -3.3c18.92,-2.38 31.51,-5.37 37.89,-8.94 6.37,-3.55 11.37,-8.48 14.98,-14.9 3.6,-6.34 5.43,-13.4 5.43,-21.26 0,-9.63 -2.54,-17.24 -7.59,-22.87 -5.11,-5.64 -11.5,-8.76 -19.31,-9.38 -5.72,-0.45 -17.2,0.38 -34.52,2.56l-23.13 2.89zm359.24 174.22l-51.97 6.52 -20.59 -57.5 -95.59 12.01 -19.81 62.56 -51.05 6.42 92.55 -275.54 50.99 -6.4 95.47 251.93zm-88.21 -93.6l-33.12 -93.53 -32.18 101.72 65.3 -8.19zm147.86 -105.93l-46.93 -6.27c10.1,-44.28 38.78,-69.38 86.05,-75.32 27.96,-3.5 49.11,0.67 63.37,12.5 14.25,11.85 21.36,27 21.36,45.42 0,12.61 -3.28,24.38 -9.77,35.39 -6.49,10.96 -16.26,21.09 -29.24,30.46 15.75,4.04 27.62,11.03 35.51,21.04 7.87,10.06 11.82,23.09 11.82,39.24 0,23.22 -7.67,42.92 -23.02,59.17 -15.32,16.24 -38.3,26.3 -68.87,30.13 -24.91,3.13 -44.6,1.01 -59.03,-6.4 -14.43,-7.4 -25.24,-23.31 -32.51,-47.7l43.94 -21.38c4.55,15.35 10.65,24.9 18.2,28.63 7.54,3.78 16.87,4.94 27.96,3.55 15.2,-1.91 26.31,-6.93 33.29,-15.12 6.94,-8.18 10.43,-16.98 10.43,-26.43 0,-10.82 -3.94,-19.1 -11.81,-24.75 -7.84,-5.66 -19.7,-7.47 -35.52,-5.5l-10.93 1.38 0 -39.8 5.5 -0.69c14.7,-1.86 25.97,-6.95 33.74,-15.24 7.81,-8.3 11.7,-18.56 11.7,-30.66 0,-9.63 -3.17,-17.35 -9.49,-23.2 -6.32,-5.77 -15.37,-7.95 -27.13,-6.47 -20.14,2.53 -33.01,15.19 -38.62,38.02zm193.92 -96.22l164.45 -20.66 0 219.32 20.97 -2.63 0 102.1 -40.28 5.06 0 -57.51 -149.48 18.78 0 57.49 -40.27 5.06 0 -102.11 20.3 -2.53c9.88,-23.8 16.43,-50.78 19.59,-80.92 3.17,-30.19 4.72,-68.05 4.72,-113.57l0 -27.88zm45.93 38.82c0,79.87 -6.65,138.94 -19.97,177.22l90.22 -11.32 0 -174.72 -70.25 8.82zm171.9 197.74l0 -263.92 48.26 -6.05 0 103.94 93.88 -11.79 0 -103.94 48.27 -6.07 0 263.91 -48.27 6.07 0 -115.37 -93.88 11.79 0 115.37 -48.26 6.06zm241.07 -294.18l44.93 -5.65 0 175.69 96.55 -187.82 47.93 -6.01 0 263.92 -44.94 5.64 0 -172.86 -96.53 184.98 -47.94 6.02 0 -263.91zm239.3 -30.06l48.26 -6.06 0 112.44c10.71,-2.58 17.98,-6.51 21.76,-11.96 3.76,-5.38 9.64,-19.82 17.52,-43.3 9.94,-29.82 19.98,-48.89 30.02,-57.09 9.99,-8.19 26.03,-13.71 48.21,-16.5 1.11,-0.14 3.44,-0.49 6.99,-1.06l0 39.44 -6.82 0.68c-9.88,1.24 -17.09,3.49 -21.64,6.76 -4.54,3.28 -8.21,7.85 -11.03,13.74 -2.84,5.88 -7,17.77 -12.48,35.66 -2.95,9.53 -6.11,17.54 -9.55,24.12 -3.39,6.56 -9.44,13.1 -18.09,19.58 10.71,1.98 19.52,7.7 26.51,17.02 7.01,9.32 14.66,22.73 22.98,40.3l32.45 68.18 -56.59 7.1 -28.58 -64.37c-0.44,-0.91 -1.38,-2.64 -2.77,-5.24 -0.55,-0.85 -2.56,-4.77 -5.98,-11.65 -6.1,-12.26 -11.1,-19.74 -14.98,-22.5 -3.95,-2.77 -9.88,-3.68 -17.93,-2.8l0 115.38 -48.26 6.06 0 -263.93zm417.22 211.54l-52 6.53 -20.59 -57.5 -95.58 12.01 -19.81 62.56 -51.05 6.41 92.55 -275.54 50.99 -6.39 95.49 251.92zm-88.21 -93.61l-33.13 -93.51 -32.17 101.71 65.3 -8.2z"/>
  <path class="fil12" d="M2912.14 2356.09l381.33 -44.16 145.26 520.78 145.69 -554.47 379.58 -43.95 0 883.5 -236.51 27.39 0 -673.53 -182.49 694.67 -214.29 24.81 -182.07 -652.45 0 673.53 -236.5 27.39 0 -883.51zm1141.8 -132.22l320.99 -37.18 189.25 275.47 188.37 -319.19 319.26 -36.97 -363.24 555.59 0 369.98 -290.09 33.6 0 -369.99 -364.54 -471.31z"/>
  <path class="fil12" d="M4117.86 3286.02l879.38 -101.83 0 218.41 -295.3 34.19 0 665.09 -288.78 33.45 0 -665.1 -295.3 34.2 0 -218.41zm1008.96 -116.84l773.54 -89.57 0 188.79 -483.47 55.99 0 140.67 448.18 -51.9 0 180.16 -448.18 51.89 0 174 497.84 -57.65 0 199.9 -787.91 91.23 0 -883.51zm946.23 -109.57l269.83 -31.25 350.84 447.2 0 -487.82 273.09 -31.62 0 883.5 -273.09 31.63 -348.88 -444.75 0 485.15 -271.79 31.47 0 -883.51zm1089.75 -126.18l429.68 -49.76c84.5,-9.77 153.09,-6.83 205.15,8.75 52.04,15.77 95.16,41.83 129.35,78.39 33.98,36.78 58.58,81.03 73.82,133.15 15.47,52.09 23.09,108.17 23.09,168.44 0,94.39 -11.33,168.91 -34.19,223.59 -22.65,54.65 -54.24,101.91 -94.73,141.77 -40.51,39.86 -83.85,68.33 -130.23,85.42 -63.38,23.38 -120.87,38.06 -172.26,44.02l-429.68 49.75 0 -883.52zm288.78 166.45l0 482.48 70.99 -8.22c60.54,-7.02 103.66,-18.38 129.36,-33.9 25.48,-15.7 45.52,-40.03 60.11,-73.19 14.58,-33.36 21.77,-85.19 21.77,-155.94 0,-93.57 -16.12,-155.67 -48.56,-186.46 -32.45,-30.8 -86.23,-41.84 -161.37,-33.14l-72.3 8.37z"/>
  <polygon class="fil14 str5" points="2578.72,4509.52 8759.48,3733.48 8759.48,4175.79 2578.72,4951.84 "/>
  <path class="fil13" d="M2961.82 4819.5l-51.98 6.53 -20.58 -57.49 -95.61 12 -19.8 62.56 -51.05 6.41 92.55 -275.53 50.99 -6.4 95.48 251.92zm-88.21 -93.59l-33.13 -93.52 -32.17 101.72 65.3 -8.2zm76.73 -168.87l54.2 -6.81 55.49 129.66 47.5 -142.6 50.2 -6.3 -80.61 210.69c-8.77,22.86 -17.7,40.51 -26.81,53.01 -9.09,12.5 -20.8,19.63 -35.22,21.45 -14.21,1.78 -25.3,2.12 -33.28,1.1l0 -39.68c6.82,-0.37 12.97,-0.89 18.47,-1.58 11.09,-1.4 19.09,-4.67 23.91,-9.76 4.77,-5.15 9.42,-15.49 13.81,-30.99l-87.66 -178.19zm232.19 -29.16l48.28 -6.06 0 112.41c10.7,-2.57 17.97,-6.49 21.75,-11.93 3.77,-5.4 9.65,-19.84 17.53,-43.3 9.93,-29.82 19.98,-48.9 30.01,-57.1 9.98,-8.2 26.03,-13.71 48.22,-16.5 1.11,-0.14 3.44,-0.48 7,-1.06l0 39.45 -6.83 0.66c-9.88,1.24 -17.08,3.5 -21.65,6.78 -4.54,3.27 -8.2,7.85 -11.04,13.73 -2.82,5.89 -6.98,17.78 -12.47,35.66 -2.95,9.52 -6.11,17.54 -9.55,24.12 -3.39,6.57 -9.43,13.1 -18.08,19.59 10.7,1.98 19.52,7.68 26.52,17.01 6.98,9.31 14.64,22.73 22.96,40.3l32.46 68.17 -56.6 7.1 -28.56 -64.35c-0.45,-0.93 -1.39,-2.65 -2.78,-5.24 -0.55,-0.86 -2.55,-4.78 -5.99,-11.67 -6.1,-12.25 -11.1,-19.73 -14.99,-22.51 -3.94,-2.75 -9.87,-3.67 -17.91,-2.77l0 115.36 -48.28 6.06 0 -263.91zm203.17 -25.51l48.28 -6.06 0 219.31 92.86 -11.66 0 -219.32 48.28 -6.06 0 219.32 19.97 -2.52 0 102.11 -40.27 5.06 0 -57.51 -169.12 21.25 0 -263.92zm243.18 -30.54l44.95 -5.65 0 175.7 96.53 -187.81 47.95 -6.03 0 263.93 -44.95 5.64 0 -172.87 -96.54 184.99 -47.94 6.02 0 -263.92zm228.65 104.86c0,-26.93 3.67,-49.99 10.93,-69.21 5.38,-14.12 12.82,-27.16 22.2,-39.02 9.37,-11.87 19.63,-21.09 30.79,-27.71 14.87,-8.81 32.01,-14.46 51.43,-16.91 35.18,-4.4 63.25,4.16 84.39,25.66 21.09,21.55 31.62,53.83 31.62,96.9 0,42.7 -10.48,77.43 -31.4,104.15 -20.92,26.76 -48.93,42.32 -83.94,46.71 -35.45,4.46 -63.7,-3.97 -84.61,-25.37 -20.92,-21.33 -31.41,-53.07 -31.41,-95.2zm49.6 -8.01c0,29.9 6.27,51.79 18.76,65.7 12.48,13.85 28.34,19.6 47.55,17.19 19.25,-2.41 35,-12.07 47.38,-28.93 12.31,-16.9 18.47,-40.64 18.47,-71.3 0,-30.29 -5.98,-52.15 -18.03,-65.49 -11.97,-13.43 -27.9,-18.87 -47.82,-16.37 -19.87,2.5 -35.91,12.08 -48.05,28.65 -12.15,16.64 -18.26,40.13 -18.26,70.55zm219.33 104.59l0 -263.91 48.27 -6.07 0 103.96 93.87 -11.79 0 -103.95 48.28 -6.06 0 263.92 -48.28 6.06 0 -115.38 -93.87 11.8 0 115.36 -48.27 6.06zm485.37 -158.25l46.59 10c-7.15,29.96 -19.09,53.02 -35.72,69.24 -16.65,16.16 -37.73,25.87 -63.32,29.07 -31.68,4 -57.69,-4.72 -78.12,-26.12 -20.35,-21.4 -30.57,-52.86 -30.57,-94.46 0,-43.92 10.27,-79.36 30.74,-106.25 20.47,-26.92 47.45,-42.45 80.85,-46.65 29.17,-3.67 52.87,2.93 71.07,19.77 10.88,9.92 18.97,25.14 24.41,45.64l-47.61 18.51c-2.82,-13.28 -8.7,-23.35 -17.64,-30.16 -8.99,-6.8 -19.86,-9.36 -32.63,-7.76 -17.69,2.23 -32.06,11.04 -43.05,26.48 -11.03,15.4 -16.53,38.81 -16.53,70.27 0,33.3 5.43,56.38 16.26,69.16 10.87,12.82 24.97,18.12 42.33,15.94 12.82,-1.61 23.86,-7.48 33.07,-17.67 9.22,-10.19 15.87,-25.16 19.87,-45.01zm69.68 -41.79c0,-26.91 3.66,-49.98 10.92,-69.2 5.39,-14.14 12.82,-27.17 22.2,-39.03 9.37,-11.87 19.65,-21.09 30.79,-27.71 14.86,-8.81 32.02,-14.45 51.43,-16.9 35.19,-4.41 63.25,4.16 84.39,25.65 21.09,21.56 31.63,53.83 31.63,96.9 0,42.71 -10.49,77.44 -31.4,104.15 -20.92,26.76 -48.94,42.32 -83.95,46.72 -35.46,4.46 -63.7,-3.98 -84.61,-25.38 -20.92,-21.32 -31.4,-53.07 -31.4,-95.2zm49.6 -8.01c0,29.91 6.26,51.79 18.75,65.7 12.48,13.86 28.35,19.6 47.54,17.19 19.26,-2.41 35.02,-12.07 47.39,-28.93 12.31,-16.89 18.48,-40.64 18.48,-71.3 0,-30.29 -5.99,-52.14 -18.04,-65.49 -11.98,-13.43 -27.91,-18.87 -47.83,-16.37 -19.85,2.5 -35.89,12.08 -48.04,28.65 -12.15,16.64 -18.25,40.13 -18.25,70.55zm220.31 -159.45l178.11 -22.36 0 44.6 -129.83 16.31 0 61.19 64.3 -8.09c17.71,-2.21 32.46,-1.68 44.11,1.66 11.71,3.32 21.7,10.92 29.97,22.84 8.26,11.86 12.42,26.51 12.42,43.9 0,17.81 -4.16,33.63 -12.54,47.41 -8.32,13.69 -17.81,23.61 -28.51,29.63 -10.66,5.99 -25.85,10.24 -45.55,12.71l-112.48 14.12 0 -263.92zm48.28 213.25l46.78 -5.86c14.92,-1.87 25.46,-4 31.52,-6.35 6.03,-2.37 11.36,-6.66 15.85,-12.93 4.5,-6.21 6.72,-13.5 6.72,-21.8 0,-12.09 -3.94,-20.38 -11.77,-24.93 -7.87,-4.48 -21.25,-5.57 -40.22,-3.19l-48.88 6.14 0 68.92zm191.36 -243.33l48.27 -6.06 0 105.42 64.31 -8.08c16.87,-2.11 31.4,-1.36 43.55,2.22 12.16,3.57 22.3,11.39 30.46,23.51 8.1,12.13 12.15,26.74 12.15,43.81 0,17.88 -4.21,33.76 -12.65,47.78 -8.49,13.98 -17.86,23.69 -28.25,29.16 -10.3,5.55 -25.45,9.53 -45.37,12.04l-112.47 14.12 0 -263.92zm48.27 213.26l46.94 -5.9c14.93,-1.87 25.35,-3.97 31.29,-6.32 5.89,-2.35 11.15,-6.69 15.76,-12.98 4.6,-6.29 6.88,-13.52 6.88,-21.75 0,-11.67 -3.78,-19.98 -11.27,-24.87 -7.54,-4.89 -21.13,-6.08 -40.71,-3.62l-48.89 6.14 0 69.3zm178.09 -241.69l48.28 -6.06 0 263.92 -48.28 6.07 0 -263.93zm151.81 244.86l0 -219.32 -70.58 8.86 0 -44.59 189.09 -23.74 0 44.59 -70.23 8.82 0 219.32 -48.28 6.06zm150.41 -282.8l44.94 -5.65 0 175.7 96.55 -187.82 47.93 -6.02 0 263.93 -44.94 5.64 0 -172.88 -96.54 185 -47.94 6.02 0 -263.92zm239.3 -30.05l44.94 -5.64 0 175.7 96.55 -187.83 47.93 -6.01 0 263.92 -44.94 5.64 0 -172.87 -96.55 184.99 -47.93 6.02 0 -263.92zm123.17 -91.76l22.31 -2.8c-1.28,16.44 -6.5,29.94 -15.54,40.34 -9.04,10.41 -20.75,16.55 -35.11,18.36 -14.43,1.81 -26.14,-1.39 -35.19,-9.52 -9.03,-8.15 -14.25,-20.34 -15.53,-36.45l22.31 -2.81c0.77,8.39 3.44,14.5 8.1,18.28 4.66,3.78 11.43,5.07 20.31,3.96 8.81,-1.1 15.59,-4.11 20.24,-9.05 4.67,-4.95 7.33,-11.74 8.1,-20.31zm208.62 50.1l44.94 -5.64 0 175.7 96.54 -187.81 47.94 -6.03 0 263.92 -44.94 5.64 0 -172.87 -96.54 184.99 -47.94 6.01 0 -263.91zm331.79 -41.65l189.42 -23.79 0 263.92 -48.28 6.07 0 -219.32 -92.87 11.65 0 219.32 -48.27 6.06 0 -263.91zm238.63 233.95l0 -263.92 77.18 -9.68c29.24,-3.67 48.27,-4.77 57.14,-3.25 13.65,2.28 25.09,9.45 34.29,21.56 9.21,12.11 13.82,28.68 13.82,49.68 0,16.22 -2.67,30.13 -7.94,41.85 -5.32,11.73 -12.04,21.24 -20.19,28.59 -8.15,7.28 -16.48,12.51 -24.91,15.59 -11.49,3.97 -28.08,7.35 -49.83,10.07l-31.29 3.93 0 99.51 -48.27 6.07zm48.27 -225.38l0 75.2 26.24 -3.29c18.92,-2.39 31.52,-5.38 37.9,-8.94 6.39,-3.57 11.38,-8.5 14.98,-14.91 3.61,-6.35 5.44,-13.4 5.44,-21.26 0,-9.64 -2.55,-17.24 -7.6,-22.88 -5.11,-5.63 -11.48,-8.76 -19.32,-9.37 -5.71,-0.45 -17.19,0.38 -34.51,2.56l-23.13 2.89zm359.26 174.22l-51.99 6.53 -20.59 -57.5 -95.59 12 -19.81 62.57 -51.04 6.41 92.54 -275.55 50.98 -6.4 95.5 251.94zm-88.22 -93.61l-33.12 -93.52 -32.19 101.72 65.31 -8.2zm147.86 -105.93l-46.94 -6.27c10.1,-44.26 38.78,-69.37 86.05,-75.3 27.97,-3.51 49.1,0.66 63.36,12.49 14.27,11.85 21.36,27 21.36,45.42 0,12.6 -3.27,24.38 -9.76,35.39 -6.49,10.94 -16.26,21.09 -29.24,30.45 15.75,4.05 27.63,11.04 35.5,21.03 7.89,10.08 11.83,23.11 11.83,39.26 0,23.22 -7.66,42.91 -23.03,59.16 -15.31,16.24 -38.28,26.31 -68.85,30.15 -24.92,3.12 -44.61,0.99 -59.04,-6.41 -14.42,-7.4 -25.24,-23.3 -32.51,-47.7l43.94 -21.38c4.55,15.35 10.66,24.9 18.2,28.63 7.56,3.78 16.87,4.94 27.96,3.54 15.21,-1.9 26.3,-6.92 33.3,-15.11 6.93,-8.18 10.42,-16.97 10.42,-26.44 0,-10.81 -3.93,-19.09 -11.82,-24.74 -7.82,-5.66 -19.7,-7.48 -35.5,-5.5l-10.92 1.38 0 -39.81 5.48 -0.7c14.71,-1.83 25.97,-6.94 33.73,-15.22 7.83,-8.3 11.71,-18.55 11.71,-30.66 0,-9.63 -3.16,-17.35 -9.49,-23.19 -6.32,-5.78 -15.36,-7.96 -27.14,-6.48 -20.12,2.52 -33,15.19 -38.6,38.01zm193.91 -96.22l164.45 -20.65 0 219.32 20.97 -2.63 0 102.11 -40.29 5.04 0 -57.5 -149.46 18.78 0 57.49 -40.28 5.06 0 -102.11 20.3 -2.55c9.88,-23.78 16.42,-50.77 19.59,-80.9 3.16,-30.18 4.72,-68.05 4.72,-113.57l0 -27.89zm45.94 38.83c0,79.87 -6.66,138.94 -19.98,177.23l90.21 -11.33 0 -174.72 -70.23 8.82zm171.88 197.73l0 -263.91 48.27 -6.06 0 103.95 93.88 -11.79 0 -103.95 48.27 -6.06 0 263.92 -48.27 6.07 0 -115.38 -93.88 11.79 0 115.37 -48.27 6.05zm241.08 -294.18l44.94 -5.63 0 175.69 96.53 -187.82 47.94 -6.02 0 263.92 -44.94 5.64 0 -172.87 -96.54 184.99 -47.93 6.02 0 -263.92zm239.29 -30.04l48.27 -6.06 0 112.41c10.71,-2.56 17.98,-6.49 21.76,-11.93 3.76,-5.4 9.64,-19.83 17.52,-43.31 9.93,-29.82 19.98,-48.88 30.02,-57.09 9.99,-8.2 26.03,-13.71 48.21,-16.49 1.11,-0.14 3.46,-0.5 7,-1.07l0 39.45 -6.82 0.67c-9.88,1.23 -17.1,3.49 -21.64,6.77 -4.55,3.27 -8.21,7.84 -11.05,13.73 -2.83,5.88 -6.98,17.77 -12.48,35.66 -2.94,9.53 -6.1,17.54 -9.54,24.12 -3.39,6.57 -9.43,13.1 -18.09,19.58 10.71,1.99 19.53,7.7 26.53,17.02 6.98,9.31 14.64,22.72 22.96,40.3l32.47 68.18 -56.61 7.1 -28.57 -64.36c-0.45,-0.93 -1.38,-2.65 -2.77,-5.24 -0.57,-0.85 -2.55,-4.78 -6,-11.67 -6.1,-12.25 -11.1,-19.73 -14.97,-22.51 -3.94,-2.75 -9.89,-3.66 -17.93,-2.78l0 115.37 -48.27 6.07 0 -263.92zm417.22 211.52l-51.99 6.54 -20.57 -57.51 -95.61 12.01 -19.81 62.57 -51.04 6.41 92.55 -275.54 50.99 -6.4 95.48 251.92zm-88.2 -93.59l-33.13 -93.52 -32.17 101.71 65.3 -8.19z"/>
  <polygon class="fil15" points="8095.02,2093.77 8204.79,2381.88 8562.14,2381.3 8272.63,2558.79 8383.72,2846.54 8095.02,2668.12 7806.31,2846.54 7917.4,2558.79 7627.89,2381.3 7985.24,2381.88 "/>
  <polygon class="fil16 str6" points="7241.88,1861.89 7143.12,2142.39 6821.57,2141.82 7082.07,2314.61 6982.11,2594.76 7241.88,2421.05 7501.65,2594.76 7401.7,2314.61 7662.2,2141.82 7340.66,2142.39 "/>
  <polygon class="fil17" points="6353.89,1793.67 6447.47,2041.23 6752.1,2040.73 6505.31,2193.22 6600,2440.47 6353.89,2287.16 6107.78,2440.47 6202.48,2193.22 5955.68,2040.73 6260.31,2041.23 "/>
  <polygon class="fil18" points="8556.75,2675.75 8675.56,3024.25 9062.41,3023.55 8749.02,3238.24 8869.26,3586.32 8556.75,3370.48 8244.2,3586.32 8364.46,3238.24 8051.05,3023.55 8437.9,3024.25 "/>
  <path class="fil2" d="M5454.9 7908.57c41.92,-8 57.73,7.27 69.01,43.3 58.15,185.65 81.53,175.29 1.51,253 -19.47,18.89 -43.26,38.21 -37.13,81.54 6.55,46.42 114.42,157.81 155.76,197.52 19.2,18.46 110.06,87.6 144.34,96.6 78.84,20.7 106.29,-66.91 153.56,-81.97 32.68,-10.41 141.55,44.67 175.88,60.5 25.53,11.75 66.95,19.68 59.93,56.32 -4.33,22.61 -31.01,60.31 -44.7,73.71 -101.49,99.24 -252.41,96.21 -361.46,32.83 -65.22,-37.9 -56.65,-41.79 -104.06,-77.55l-95.68 -81.72c-51.72,-47.72 -142.13,-133.1 -179.31,-178.89 -124.21,-153 -134.49,-437.69 62.35,-475.19zm148.15 250.27c17.62,-43.71 -30.71,-156.82 -44.98,-202.64 -25.56,-82.03 -72,-102.64 -157.3,-64.49 -173.53,77.59 -178.53,371.11 6.59,556.91 11.4,11.44 21.7,18.82 32.77,30.3 73.98,76.58 117.52,112.17 198.3,181.49 48.26,41.4 79.88,73.02 149.01,104.27 125.99,56.94 293.11,41.17 382.17,-69.08 12.47,-15.43 40.65,-60.72 41.01,-87.14 0.56,-41.04 -27.49,-53.78 -57.03,-67.49 -25.91,-12.03 -159.09,-72.28 -180.19,-75.02 -88.62,-11.5 -104.77,95.4 -169.11,86.17 -56.52,-8.11 -172.33,-120.96 -212.8,-166.42 -149.04,-167.36 -25.03,-136.03 11.56,-226.86z"/>
  <path class="fil2" d="M5728.5 8081.68c115.71,15.45 215.15,95.88 255.56,200.06 36.81,94.9 2.16,138.03 50.73,124.42 10.92,-40.04 -11.47,-117.19 -27.6,-151.21 -39.22,-82.66 -96.6,-141.05 -183.68,-178.77 -22.63,-9.79 -133.38,-44.49 -153.59,-21.47 -23.77,27.08 43.78,25 58.58,26.97z"/>
  <path class="fil2" d="M5781.53 8192.01c23.7,9.33 50.74,27.87 64.34,41.28 61.94,61.02 50.11,114.94 62.24,151.53 31.5,8.58 30.36,-8.87 26.63,-38.36 -13.53,-107.43 -99.58,-188.79 -209.44,-199.56 -29.95,-2.95 -39.5,-1.06 -34.66,26.2 25.48,8.55 57.03,5.61 90.89,18.91z"/>
 </g>
</svg>
