<?xml version="1.0" encoding="UTF-8"?>
<!DOCTYPE svg PUBLIC "-//W3C//DTD SVG 1.1//EN" "http://www.w3.org/Graphics/SVG/1.1/DTD/svg11.dtd">
<!-- Creator: CorelDRAW 2017 -->
<svg xmlns="http://www.w3.org/2000/svg" xml:space="preserve" width="118.533mm" height="118.533mm" version="1.1" style="shape-rendering:geometricPrecision; text-rendering:geometricPrecision; image-rendering:optimizeQuality; fill-rule:evenodd; clip-rule:evenodd"
viewBox="0 0 11853.32 11853.32"
 xmlns:xlink="http://www.w3.org/1999/xlink">
 <defs>
  <style type="text/css">
   <![CDATA[
    .str0 {stroke:#5B5D5E;stroke-width:169.33;stroke-miterlimit:22.9256}
    .str1 {stroke:black;stroke-width:20;stroke-miterlimit:22.9256}
    .str3 {stroke:#00AEBE;stroke-width:7.62;stroke-miterlimit:22.9256}
    .str2 {stroke:#DD0B29;stroke-width:7.62;stroke-miterlimit:22.9256}
    .fil0 {fill:black}
    .fil9 {fill:#2792E4}
    .fil2 {fill:#5B5D5E}
    .fil8 {fill:#5FAD2F}
    .fil3 {fill:#999999}
    .fil4 {fill:#CCCCCC}
    .fil10 {fill:#DD0B29}
    .fil7 {fill:#DD0B29}
    .fil11 {fill:#FFDD00}
    .fil1 {fill:white}
    .fil6 {fill:black;fill-rule:nonzero}
    .fil5 {fill:white;fill-rule:nonzero}
   ]]>
  </style>
 </defs>
 <g id="Layer_x0020_1">
  <metadata id="CorelCorpID_0Corel-Layer"/>
  <path class="fil0 str0" d="M2197.49 173.56l7544.95 0c499.39,0 904.39,399.16 904.39,891.38l0 9689.55c0,492.21 -405,891.38 -904.39,891.38l-7544.95 0.01c-499.38,-0.01 -904.38,-399.18 -904.38,-891.4l-0.02 -9689.54c0.02,-492.22 405.02,-891.38 904.41,-891.38l-0.01 0z"/>
  <rect class="fil1 str1" x="1628.05" y="982.43" width="8734.03" height="9557.49"/>
  <ellipse class="fil2 str1" cx="5953.55" cy="11044.06" rx="502.63" ry="503.54"/>
  <path class="fil3 str1" d="M5052.31 441.52l1902.29 0c55.11,0 99.78,46.02 99.78,102.8l0 0.01c0,56.77 -44.67,102.81 -99.78,102.81l-1902.29 0c-55.1,0 -99.78,-46.04 -99.78,-102.81l-0.01 -0.01c0.01,-56.78 44.69,-102.8 99.8,-102.8l-0.01 0z"/>
  <path class="fil4" d="M3135.92 9817.05l0.78 -28.2 350.96 -274.6c110.12,-95.46 239.99,-179.33 349.8,-274.64 109.91,-95.39 237.61,-180.77 349.72,-274.73 95.69,-80.2 266.26,-202.35 353.77,-278.2l349.99 -274.46c174.75,-132.81 351.12,-280.87 524.64,-408.27 54.7,-40.17 126.64,-93.96 178.49,-137.49 127.67,-107.22 292.23,-163.13 455.05,-177.12 57.76,-4.96 193.13,26.03 255.19,50.21 77.43,30.18 135.84,68.65 196.61,119.38 112.37,93.81 240.14,179.56 349.72,274.73l704.62 551.8c118.82,87.33 231.96,186.84 350.53,273.92l1058.87 829.52 1.93 306.52 -5830.66 0 0 -278.37 -0.01 0zm-255.8 412.44l0 -66.36 0 -3613.18c0.35,-20.2 0.72,-32.37 1.16,-34.54 12.12,-61.42 89.05,-103.95 132.53,-145.82l882.02 -788.19 -0.04 -759.91c-0.02,-84.34 -5.87,-131.06 77.44,-170.83 44.84,-21.41 872.17,-10.04 990.93,-9.69l279.77 -239.35c27.05,-21.11 58.53,-55.41 87.4,-78.11 147.33,-115.87 234.05,-205.26 418.05,-266.59 95.97,-31.99 199.89,-47.99 304.14,-47.96l3.16 0c186.77,0.62 374.35,52.68 518.9,156.55 50.89,36.56 145.89,107.25 188.57,149.97 24.09,24.12 361.86,320.13 363.74,320.9 76.63,31.37 916.06,-24.69 1011.34,19.38 95.95,44.39 75.01,171.32 75.01,263.53l1.35 675.77c49.76,44.42 101.25,92.96 151.04,134.85 50.01,42.08 98.99,88.59 150,128.37l594.35 526.64c78.5,61.22 101.48,82.25 116.13,162.25 11.14,60.89 2.7,3130.36 2.95,3638.69 0.03,41.82 -6.49,79.14 -28.53,114.41 -54.26,86.81 -247.06,58.48 -362.83,58.48 -1677.74,0 -3355.45,0 -5033.18,0 -105.65,0 -759.59,9.57 -833.65,-8.99 -71.24,-17.85 -88.3,-71.07 -91.74,-120.27l-0.01 0zm4485.91 -2029.97l199.18 -152.5c174.69,-145.8 445.61,-337.86 598.24,-470.09 63.78,-55.26 784.02,-621.13 803.14,-626.31l0 2512.84c-78.91,-52.21 -289.58,-232.07 -400.01,-314.7 -131.61,-98.46 -273.97,-210.05 -399.5,-315.25 -63.48,-53.2 -134.95,-100.98 -199.09,-154.51 -64.69,-54.01 -134.4,-108.18 -202.16,-158.96l-302.54 -239.15c-22.21,-17.52 -87.78,-61.61 -97.26,-81.37zm-4230.11 1256.41l0 -2512.84 1600.73 1258.15 -1197.43 943.25c-71.79,54.15 -362.94,291.17 -403.3,311.44zm5078.32 -2249.51l0 -1271.46c13.4,8.86 78.61,67.18 92.28,80.77 86.86,86.37 649.95,562.11 660.72,596.98l-753 593.71zm-5078.97 -601.87l758.47 -671.92 2.05 1273.79c-40.24,-20.21 -486.56,-382.35 -570.51,-445.16 -31.02,-23.22 -168.28,-122.23 -190.01,-156.71zm4816.31 805.65l-790.34 623.56c-41.09,-10.27 -415.8,-316.74 -483.07,-367.11 -84.51,-63.31 -162.67,-122.05 -261.01,-160.31 -50.33,-19.58 -106.86,-40.4 -159.44,-51.23 -56.94,-11.71 -134.17,-23.19 -195.16,-23.01 -233.7,0.75 -445.07,85.87 -623.06,227.13 -159.11,126.29 -321.69,249.17 -481.93,375.42 -23.1,-6.17 -532.27,-402.28 -604.71,-465.24 -63.67,-55.33 -140.16,-103.56 -199.48,-161.65l-1.8 -2511.04c71.75,0 768.2,-5.79 823.04,4.56 41.39,7.8 68.36,-4.73 109.71,-4.72l2866.59 0.16 -0.49 775.34c11.65,95.54 -7.09,1494.48 1.15,1738.14zm-1219.46 -2769.27l-1369.26 0 283.84 -242.8c229.9,-175.77 580.52,-177.78 801.59,-7.54 26.48,20.41 46.34,34.03 71.2,56.7 52.15,47.55 189.44,158.59 212.63,193.64z"/>
  <path class="fil5" d="M3487.58 4130.39l-49.89 6.26 -19.76 -55.18 -91.75 11.52 -19.01 60.05 -48.99 6.15 88.82 -264.45 48.94 -6.14 91.64 241.79zm-84.66 -89.84l-31.8 -89.76 -30.88 97.63 62.68 -7.87zm73.64 -162.08l52.03 -6.53 53.24 124.44 45.59 -136.85 48.19 -6.05 -77.37 202.22c-8.42,21.93 -16.99,38.87 -25.72,50.87 -8.74,12.01 -19.97,18.84 -33.82,20.58 -13.63,1.71 -24.28,2.05 -31.95,1.06l0 -38.08c6.55,-0.35 12.46,-0.86 17.73,-1.52 10.65,-1.34 18.32,-4.48 22.96,-9.37 4.58,-4.94 9.05,-14.87 13.26,-29.73l-84.14 -171.04zm222.85 -27.98l46.33 -5.81 0 107.9c10.27,-2.47 17.25,-6.24 20.87,-11.47 3.62,-5.17 9.27,-19.03 16.83,-41.56 9.53,-28.61 19.17,-46.92 28.81,-54.79 9.58,-7.87 24.97,-13.16 46.27,-15.84 1.07,-0.13 3.3,-0.47 6.71,-1.01l0 37.85 -6.55 0.64c-9.48,1.19 -16.4,3.36 -20.77,6.5 -4.36,3.14 -7.88,7.54 -10.59,13.18 -2.72,5.65 -6.71,17.06 -11.98,34.23 -2.83,9.14 -5.86,16.83 -9.16,23.14 -3.25,6.31 -9.05,12.58 -17.36,18.81 10.27,1.89 18.74,7.38 25.45,16.32 6.71,8.95 14.06,21.82 22.05,38.68l31.15 65.43 -54.32 6.82 -27.42 -61.77c-0.43,-0.89 -1.33,-2.54 -2.66,-5.03 -0.54,-0.82 -2.45,-4.59 -5.75,-11.19 -5.86,-11.76 -10.65,-18.94 -14.38,-21.6 -3.78,-2.65 -9.48,-3.53 -17.2,-2.68l0 110.73 -46.33 5.82 0 -253.3zm195 -24.48l46.33 -5.82 0 210.49 89.14 -11.19 0 -210.49 46.33 -5.82 0 210.49 19.17 -2.4 0 97.99 -38.66 4.85 0 -55.18 -162.31 20.38 0 -253.3zm233.4 -29.3l43.13 -5.42 0 168.63 92.65 -180.26 46.01 -5.78 0 253.29 -43.13 5.42 0 -165.92 -92.65 177.55 -46.01 5.78 0 -253.29zm219.44 100.62c0,-25.82 3.51,-47.96 10.49,-66.41 5.17,-13.56 12.3,-26.07 21.3,-37.46 9,-11.39 18.85,-20.23 29.55,-26.58 14.27,-8.46 30.73,-13.89 49.37,-16.23 33.76,-4.24 60.7,4 80.99,24.62 20.23,20.69 30.35,51.67 30.35,93 0,40.98 -10.06,74.32 -30.14,99.95 -20.07,25.7 -46.96,40.63 -80.56,44.85 -34.03,4.27 -61.14,-3.83 -81.21,-24.36 -20.08,-20.47 -30.14,-50.93 -30.14,-91.38zm47.61 -7.68c0,28.71 6.01,49.71 17.99,63.06 11.99,13.3 27.21,18.82 45.64,16.5 18.48,-2.32 33.6,-11.59 45.48,-27.76 11.82,-16.22 17.73,-39.02 17.73,-68.44 0,-29.06 -5.75,-50.04 -17.31,-62.86 -11.5,-12.88 -26.78,-18.1 -45.9,-15.7 -19.06,2.4 -34.45,11.58 -46.11,27.49 -11.67,15.97 -17.52,38.52 -17.52,67.71zm210.49 100.39l0 -253.29 46.33 -5.82 0 99.76 90.1 -11.31 0 -99.76 46.33 -5.82 0 253.29 -46.33 5.82 0 -110.73 -90.1 11.32 0 110.72 -46.33 5.82zm465.83 -151.88l44.73 9.59c-6.87,28.76 -18.32,50.89 -34.29,66.45 -15.98,15.51 -36.21,24.83 -60.76,27.92 -30.4,3.81 -55.38,-4.55 -74.97,-25.08 -19.55,-20.54 -29.35,-50.74 -29.35,-90.66 0,-42.15 9.86,-76.17 29.5,-101.99 19.65,-25.81 45.53,-40.74 77.59,-44.76 28.01,-3.52 50.75,2.82 68.21,18.97 10.44,9.54 18.21,24.13 23.43,43.81l-45.69 17.77c-2.71,-12.75 -8.36,-22.42 -16.93,-28.95 -8.63,-6.52 -19.06,-8.98 -31.31,-7.45 -16.99,2.14 -30.78,10.59 -41.32,25.41 -10.6,14.78 -15.87,37.26 -15.87,67.44 0,31.96 5.22,54.12 15.6,66.38 10.44,12.31 23.96,17.39 40.63,15.3 12.3,-1.55 22.9,-7.18 31.74,-16.96 8.84,-9.77 15.23,-24.14 19.06,-43.19zm66.88 -40.12c0,-25.82 3.52,-47.96 10.49,-66.41 5.17,-13.56 12.3,-26.07 21.3,-37.46 9,-11.39 18.85,-20.23 29.56,-26.59 14.27,-8.45 30.72,-13.88 49.36,-16.22 33.76,-4.24 60.7,3.99 80.99,24.62 20.24,20.69 30.35,51.67 30.35,93 0,40.98 -10.06,74.32 -30.13,99.95 -20.08,25.69 -46.97,40.63 -80.57,44.84 -34.03,4.28 -61.13,-3.82 -81.21,-24.35 -20.07,-20.48 -30.14,-50.93 -30.14,-91.38zm47.61 -7.69c0,28.72 6.02,49.72 18,63.07 11.98,13.3 27.21,18.81 45.63,16.5 18.48,-2.32 33.6,-11.59 45.48,-27.76 11.82,-16.23 17.73,-39.02 17.73,-68.44 0,-29.07 -5.75,-50.04 -17.31,-62.86 -11.5,-12.89 -26.78,-18.1 -45.9,-15.7 -19.06,2.39 -34.45,11.58 -46.11,27.49 -11.66,15.97 -17.52,38.52 -17.52,67.7zm211.45 -153.02l170.94 -21.46 0 42.81 -124.61 15.64 0 58.73 61.72 -7.75c16.99,-2.14 31.15,-1.61 42.33,1.58 11.24,3.19 20.82,10.48 28.76,21.92 7.93,11.38 11.92,25.45 11.92,42.13 0,17.1 -3.99,32.28 -12.03,45.5 -7.99,13.15 -17.09,22.66 -27.37,28.44 -10.22,5.76 -24.82,9.83 -43.72,12.21l-107.94 13.55 0 -253.3zm46.33 204.68l44.89 -5.64c14.33,-1.8 24.44,-3.84 30.25,-6.1 5.8,-2.26 10.91,-6.38 15.23,-12.41 4.31,-5.96 6.44,-12.95 6.44,-20.91 0,-11.62 -3.78,-19.57 -11.29,-23.94 -7.56,-4.29 -20.39,-5.34 -38.6,-3.05l-46.92 5.89 0 66.16zm183.66 -233.55l46.33 -5.82 0 101.18 61.71 -7.75c16.19,-2.04 30.15,-1.31 41.81,2.12 11.66,3.43 21.4,10.93 29.23,22.56 7.78,11.65 11.66,25.66 11.66,42.05 0,17.16 -4.04,32.41 -12.14,45.87 -8.15,13.4 -17.14,22.73 -27.1,27.99 -9.91,5.31 -24.44,9.14 -43.56,11.54l-107.94 13.55 0 -253.29zm46.33 204.67l45.05 -5.66c14.32,-1.8 24.33,-3.82 30.03,-6.07 5.65,-2.24 10.7,-6.41 15.12,-12.45 4.42,-6.04 6.61,-12.98 6.61,-20.88 0,-11.2 -3.62,-19.18 -10.81,-23.87 -7.25,-4.7 -20.29,-5.83 -39.09,-3.47l-46.91 5.89 0 66.51zm170.93 -231.95l46.33 -5.82 0 253.3 -46.33 5.81 0 -253.29zm145.68 235l0 -210.49 -67.72 8.5 0 -42.8 181.46 -22.79 0 42.81 -67.41 8.46 0 210.49 -46.33 5.82zm144.36 -271.42l43.14 -5.42 0 168.63 92.65 -180.26 46.01 -5.78 0 253.3 -43.13 5.41 0 -165.91 -92.66 177.55 -46.01 5.77 0 -253.29zm229.67 -28.84l43.13 -5.41 0 168.62 92.66 -180.26 46.01 -5.77 0 253.29 -43.14 5.42 0 -165.92 -92.65 177.55 -46.01 5.78 0 -253.3zm118.22 -88.07l21.4 -2.69c-1.22,15.78 -6.23,28.73 -14.91,38.72 -8.68,10 -19.91,15.89 -33.7,17.62 -13.85,1.74 -25.09,-1.33 -33.77,-9.15 -8.67,-7.81 -13.68,-19.5 -14.91,-34.97l21.41 -2.69c0.75,8.04 3.3,13.91 7.78,17.54 4.47,3.62 10.96,4.87 19.49,3.8 8.46,-1.06 14.96,-3.94 19.43,-8.69 4.47,-4.75 7.03,-11.26 7.78,-19.49zm200.22 48.09l43.13 -5.42 0 168.63 92.65 -180.26 46.01 -5.78 0 253.3 -43.13 5.41 0 -165.91 -92.66 177.55 -46 5.78 0 -253.3zm318.43 -39.98l181.8 -22.83 0 253.3 -46.33 5.81 0 -210.49 -89.14 11.2 0 210.49 -46.33 5.81 0 -253.29zm229.03 224.54l0 -253.3 74.07 -9.3c28.06,-3.52 46.33,-4.58 54.85,-3.11 13.1,2.19 24.07,9.06 32.91,20.69 8.84,11.63 13.26,27.52 13.26,47.68 0,15.57 -2.56,28.92 -7.62,40.17 -5.11,11.25 -11.56,20.38 -19.38,27.43 -7.83,7 -15.82,12.01 -23.91,14.97 -11.02,3.8 -26.95,7.04 -47.82,9.66l-30.03 3.77 0 95.52 -46.33 5.82zm46.33 -216.31l0 72.17 25.18 -3.16c18.16,-2.28 30.25,-5.16 36.37,-8.58 6.13,-3.42 10.92,-8.15 14.38,-14.31 3.46,-6.09 5.22,-12.85 5.22,-20.4 0,-9.26 -2.45,-16.56 -7.3,-21.96 -4.89,-5.4 -11.02,-8.41 -18.53,-9 -5.48,-0.43 -16.5,0.37 -33.12,2.45l-22.2 2.79zm344.79 167.2l-49.9 6.26 -19.75 -55.18 -91.75 11.52 -19.01 60.05 -48.99 6.15 88.82 -264.45 48.94 -6.14 91.64 241.79zm-84.67 -89.84l-31.79 -89.76 -30.88 97.63 62.67 -7.87zm141.91 -101.66l-45.05 -6.02c9.7,-42.49 37.23,-66.58 82.59,-72.28 26.84,-3.37 47.13,0.63 60.82,12 13.68,11.37 20.5,25.91 20.5,43.59 0,12.09 -3.15,23.39 -9.38,33.96 -6.23,10.51 -15.6,20.24 -28.06,29.23 15.12,3.88 26.52,10.59 34.08,20.19 7.56,9.67 11.34,22.16 11.34,37.67 0,22.29 -7.34,41.19 -22.09,56.78 -14.7,15.59 -36.75,25.25 -66.09,28.94 -23.91,3 -42.81,0.95 -56.66,-6.16 -13.84,-7.1 -24.22,-22.37 -31.2,-45.78l42.17 -20.51c4.37,14.72 10.23,23.89 17.47,27.47 7.24,3.63 16.19,4.74 26.84,3.41 14.59,-1.84 25.24,-6.65 31.95,-14.51 6.65,-7.85 10.01,-16.29 10.01,-25.37 0,-10.38 -3.78,-18.34 -11.34,-23.75 -7.51,-5.43 -18.91,-7.18 -34.08,-5.28l-10.49 1.32 0 -38.21 5.27 -0.66c14.11,-1.77 24.92,-6.67 32.37,-14.62 7.51,-7.96 11.24,-17.8 11.24,-29.42 0,-9.25 -3.04,-16.65 -9.11,-22.26 -6.07,-5.55 -14.75,-7.64 -26.04,-6.22 -19.32,2.42 -31.68,14.59 -37.06,36.49zm186.11 -92.35l157.83 -19.82 0 210.49 20.13 -2.53 0 98 -38.66 4.85 0 -55.19 -143.45 18.01 0 55.19 -38.66 4.86 0 -98 19.49 -2.44c9.48,-22.83 15.76,-48.74 18.79,-77.66 3.04,-28.97 4.53,-65.3 4.53,-108.99l0 -26.77zm44.09 37.27c0,76.65 -6.39,133.34 -19.17,170.09l86.58 -10.87 0 -167.69 -67.41 8.47zm164.97 189.77l0 -253.29 46.33 -5.82 0 99.76 90.1 -11.31 0 -99.76 46.32 -5.82 0 253.3 -46.32 5.81 0 -110.72 -90.1 11.31 0 110.73 -46.33 5.81zm231.37 -282.34l43.13 -5.42 0 168.63 92.66 -180.26 46.01 -5.78 0 253.3 -43.14 5.41 0 -165.91 -92.65 177.55 -46.01 5.77 0 -253.29zm229.67 -28.84l46.32 -5.82 0 107.9c10.28,-2.47 17.26,-6.23 20.88,-11.46 3.62,-5.17 9.27,-19.03 16.83,-41.56 9.53,-28.61 19.17,-46.92 28.8,-54.79 9.59,-7.87 24.98,-13.16 46.28,-15.84 1.06,-0.13 3.3,-0.47 6.71,-1.02l0 37.86 -6.55 0.64c-9.48,1.19 -16.4,3.36 -20.77,6.5 -4.37,3.14 -7.88,7.53 -10.6,13.18 -2.71,5.65 -6.71,17.06 -11.98,34.23 -2.82,9.14 -5.86,16.83 -9.16,23.14 -3.24,6.31 -9.05,12.58 -17.36,18.81 10.28,1.89 18.75,7.37 25.46,16.32 6.71,8.94 14.06,21.82 22.04,38.68l31.15 65.43 -54.31 6.82 -27.42 -61.77c-0.43,-0.89 -1.34,-2.55 -2.67,-5.03 -0.53,-0.82 -2.45,-4.59 -5.75,-11.19 -5.86,-11.76 -10.65,-18.95 -14.37,-21.6 -3.79,-2.65 -9.48,-3.53 -17.21,-2.68l0 110.73 -46.32 5.82 0 -253.3zm400.43 203.02l-49.9 6.26 -19.75 -55.18 -91.75 11.52 -19.01 60.05 -48.99 6.15 88.82 -264.44 48.93 -6.15 91.65 241.79zm-84.67 -89.84l-31.79 -89.76 -30.88 97.63 62.67 -7.87z"/>
  <path class="fil5" d="M3487.58 4130.39l-49.89 6.26 -19.76 -55.18 -91.75 11.52 -19.01 60.05 -48.99 6.15 88.82 -264.45 48.94 -6.14 91.64 241.79zm-84.66 -89.84l-31.8 -89.76 -30.88 97.63 62.68 -7.87zm73.64 -162.08l52.03 -6.53 53.24 124.44 45.59 -136.85 48.19 -6.05 -77.37 202.22c-8.42,21.93 -16.99,38.87 -25.72,50.87 -8.74,12.01 -19.97,18.84 -33.82,20.58 -13.63,1.71 -24.28,2.05 -31.95,1.06l0 -38.08c6.55,-0.35 12.46,-0.86 17.73,-1.52 10.65,-1.34 18.32,-4.48 22.96,-9.37 4.58,-4.94 9.05,-14.87 13.26,-29.73l-84.14 -171.04zm222.85 -27.98l46.33 -5.81 0 107.9c10.27,-2.47 17.25,-6.24 20.87,-11.47 3.62,-5.17 9.27,-19.03 16.83,-41.56 9.53,-28.61 19.17,-46.92 28.81,-54.79 9.58,-7.87 24.97,-13.16 46.27,-15.84 1.07,-0.13 3.3,-0.47 6.71,-1.01l0 37.85 -6.55 0.64c-9.48,1.19 -16.4,3.36 -20.77,6.5 -4.36,3.14 -7.88,7.54 -10.59,13.18 -2.72,5.65 -6.71,17.06 -11.98,34.23 -2.83,9.14 -5.86,16.83 -9.16,23.14 -3.25,6.31 -9.05,12.58 -17.36,18.81 10.27,1.89 18.74,7.38 25.45,16.32 6.71,8.95 14.06,21.82 22.05,38.68l31.15 65.43 -54.32 6.82 -27.42 -61.77c-0.43,-0.89 -1.33,-2.54 -2.66,-5.03 -0.54,-0.82 -2.45,-4.59 -5.75,-11.19 -5.86,-11.76 -10.65,-18.94 -14.38,-21.6 -3.78,-2.65 -9.48,-3.53 -17.2,-2.68l0 110.73 -46.33 5.82 0 -253.3zm195 -24.48l46.33 -5.82 0 210.49 89.14 -11.19 0 -210.49 46.33 -5.82 0 210.49 19.17 -2.4 0 97.99 -38.66 4.85 0 -55.18 -162.31 20.38 0 -253.3zm233.4 -29.3l43.13 -5.42 0 168.63 92.65 -180.26 46.01 -5.78 0 253.29 -43.13 5.42 0 -165.92 -92.65 177.55 -46.01 5.78 0 -253.29zm219.44 100.62c0,-25.82 3.51,-47.96 10.49,-66.41 5.17,-13.56 12.3,-26.07 21.3,-37.46 9,-11.39 18.85,-20.23 29.55,-26.58 14.27,-8.46 30.73,-13.89 49.37,-16.23 33.76,-4.24 60.7,4 80.99,24.62 20.23,20.69 30.35,51.67 30.35,93 0,40.98 -10.06,74.32 -30.14,99.95 -20.07,25.7 -46.96,40.63 -80.56,44.85 -34.03,4.27 -61.14,-3.83 -81.21,-24.36 -20.08,-20.47 -30.14,-50.93 -30.14,-91.38zm47.61 -7.68c0,28.71 6.01,49.71 17.99,63.06 11.99,13.3 27.21,18.82 45.64,16.5 18.48,-2.32 33.6,-11.59 45.48,-27.76 11.82,-16.22 17.73,-39.02 17.73,-68.44 0,-29.06 -5.75,-50.04 -17.31,-62.86 -11.5,-12.88 -26.78,-18.1 -45.9,-15.7 -19.06,2.4 -34.45,11.58 -46.11,27.49 -11.67,15.97 -17.52,38.52 -17.52,67.71zm210.49 100.39l0 -253.29 46.33 -5.82 0 99.76 90.1 -11.31 0 -99.76 46.33 -5.82 0 253.29 -46.33 5.82 0 -110.73 -90.1 11.32 0 110.72 -46.33 5.82zm465.83 -151.88l44.73 9.59c-6.87,28.76 -18.32,50.89 -34.29,66.45 -15.98,15.51 -36.21,24.83 -60.76,27.92 -30.4,3.81 -55.38,-4.55 -74.97,-25.08 -19.55,-20.54 -29.35,-50.74 -29.35,-90.66 0,-42.15 9.86,-76.17 29.5,-101.99 19.65,-25.81 45.53,-40.74 77.59,-44.76 28.01,-3.52 50.75,2.82 68.21,18.97 10.44,9.54 18.21,24.13 23.43,43.81l-45.69 17.77c-2.71,-12.75 -8.36,-22.42 -16.93,-28.95 -8.63,-6.52 -19.06,-8.98 -31.31,-7.45 -16.99,2.14 -30.78,10.59 -41.32,25.41 -10.6,14.78 -15.87,37.26 -15.87,67.44 0,31.96 5.22,54.12 15.6,66.38 10.44,12.31 23.96,17.39 40.63,15.3 12.3,-1.55 22.9,-7.18 31.74,-16.96 8.84,-9.77 15.23,-24.14 19.06,-43.19zm66.88 -40.12c0,-25.82 3.52,-47.96 10.49,-66.41 5.17,-13.56 12.3,-26.07 21.3,-37.46 9,-11.39 18.85,-20.23 29.56,-26.59 14.27,-8.45 30.72,-13.88 49.36,-16.22 33.76,-4.24 60.7,3.99 80.99,24.62 20.24,20.69 30.35,51.67 30.35,93 0,40.98 -10.06,74.32 -30.13,99.95 -20.08,25.69 -46.97,40.63 -80.57,44.84 -34.03,4.28 -61.13,-3.82 -81.21,-24.35 -20.07,-20.48 -30.14,-50.93 -30.14,-91.38zm47.61 -7.69c0,28.72 6.02,49.72 18,63.07 11.98,13.3 27.21,18.81 45.63,16.5 18.48,-2.32 33.6,-11.59 45.48,-27.76 11.82,-16.23 17.73,-39.02 17.73,-68.44 0,-29.07 -5.75,-50.04 -17.31,-62.86 -11.5,-12.89 -26.78,-18.1 -45.9,-15.7 -19.06,2.39 -34.45,11.58 -46.11,27.49 -11.66,15.97 -17.52,38.52 -17.52,67.7zm211.45 -153.02l170.94 -21.46 0 42.81 -124.61 15.64 0 58.73 61.72 -7.75c16.99,-2.14 31.15,-1.61 42.33,1.58 11.24,3.19 20.82,10.48 28.76,21.92 7.93,11.38 11.92,25.45 11.92,42.13 0,17.1 -3.99,32.28 -12.03,45.5 -7.99,13.15 -17.09,22.66 -27.37,28.44 -10.22,5.76 -24.82,9.83 -43.72,12.21l-107.94 13.55 0 -253.3zm46.33 204.68l44.89 -5.64c14.33,-1.8 24.44,-3.84 30.25,-6.1 5.8,-2.26 10.91,-6.38 15.23,-12.41 4.31,-5.96 6.44,-12.95 6.44,-20.91 0,-11.62 -3.78,-19.57 -11.29,-23.94 -7.56,-4.29 -20.39,-5.34 -38.6,-3.05l-46.92 5.89 0 66.16zm183.66 -233.55l46.33 -5.82 0 101.18 61.71 -7.75c16.19,-2.04 30.15,-1.31 41.81,2.12 11.66,3.43 21.4,10.93 29.23,22.56 7.78,11.65 11.66,25.66 11.66,42.05 0,17.16 -4.04,32.41 -12.14,45.87 -8.15,13.4 -17.14,22.73 -27.1,27.99 -9.91,5.31 -24.44,9.14 -43.56,11.54l-107.94 13.55 0 -253.29zm46.33 204.67l45.05 -5.66c14.32,-1.8 24.33,-3.82 30.03,-6.07 5.65,-2.24 10.7,-6.41 15.12,-12.45 4.42,-6.04 6.61,-12.98 6.61,-20.88 0,-11.2 -3.62,-19.18 -10.81,-23.87 -7.25,-4.7 -20.29,-5.83 -39.09,-3.47l-46.91 5.89 0 66.51zm170.93 -231.95l46.33 -5.82 0 253.3 -46.33 5.81 0 -253.29zm145.68 235l0 -210.49 -67.72 8.5 0 -42.8 181.46 -22.79 0 42.81 -67.41 8.46 0 210.49 -46.33 5.82zm144.36 -271.42l43.14 -5.42 0 168.63 92.65 -180.26 46.01 -5.78 0 253.3 -43.13 5.41 0 -165.91 -92.66 177.55 -46.01 5.77 0 -253.29zm229.67 -28.84l43.13 -5.41 0 168.62 92.66 -180.26 46.01 -5.77 0 253.29 -43.14 5.42 0 -165.92 -92.65 177.55 -46.01 5.78 0 -253.3zm118.22 -88.07l21.4 -2.69c-1.22,15.78 -6.23,28.73 -14.91,38.72 -8.68,10 -19.91,15.89 -33.7,17.62 -13.85,1.74 -25.09,-1.33 -33.77,-9.15 -8.67,-7.81 -13.68,-19.5 -14.91,-34.97l21.41 -2.69c0.75,8.04 3.3,13.91 7.78,17.54 4.47,3.62 10.96,4.87 19.49,3.8 8.46,-1.06 14.96,-3.94 19.43,-8.69 4.47,-4.75 7.03,-11.26 7.78,-19.49zm200.22 48.09l43.13 -5.42 0 168.63 92.65 -180.26 46.01 -5.78 0 253.3 -43.13 5.41 0 -165.91 -92.66 177.55 -46 5.78 0 -253.3zm318.43 -39.98l181.8 -22.83 0 253.3 -46.33 5.81 0 -210.49 -89.14 11.2 0 210.49 -46.33 5.81 0 -253.29zm229.03 224.54l0 -253.3 74.07 -9.3c28.06,-3.52 46.33,-4.58 54.85,-3.11 13.1,2.19 24.07,9.06 32.91,20.69 8.84,11.63 13.26,27.52 13.26,47.68 0,15.57 -2.56,28.92 -7.62,40.17 -5.11,11.25 -11.56,20.38 -19.38,27.43 -7.83,7 -15.82,12.01 -23.91,14.97 -11.02,3.8 -26.95,7.04 -47.82,9.66l-30.03 3.77 0 95.52 -46.33 5.82zm46.33 -216.31l0 72.17 25.18 -3.16c18.16,-2.28 30.25,-5.16 36.37,-8.58 6.13,-3.42 10.92,-8.15 14.38,-14.31 3.46,-6.09 5.22,-12.85 5.22,-20.4 0,-9.26 -2.45,-16.56 -7.3,-21.96 -4.89,-5.4 -11.02,-8.41 -18.53,-9 -5.48,-0.43 -16.5,0.37 -33.12,2.45l-22.2 2.79zm344.79 167.2l-49.9 6.26 -19.75 -55.18 -91.75 11.52 -19.01 60.05 -48.99 6.15 88.82 -264.45 48.94 -6.14 91.64 241.79zm-84.67 -89.84l-31.79 -89.76 -30.88 97.63 62.67 -7.87zm141.91 -101.66l-45.05 -6.02c9.7,-42.49 37.23,-66.58 82.59,-72.28 26.84,-3.37 47.13,0.63 60.82,12 13.68,11.37 20.5,25.91 20.5,43.59 0,12.09 -3.15,23.39 -9.38,33.96 -6.23,10.51 -15.6,20.24 -28.06,29.23 15.12,3.88 26.52,10.59 34.08,20.19 7.56,9.67 11.34,22.16 11.34,37.67 0,22.29 -7.34,41.19 -22.09,56.78 -14.7,15.59 -36.75,25.25 -66.09,28.94 -23.91,3 -42.81,0.95 -56.66,-6.16 -13.84,-7.1 -24.22,-22.37 -31.2,-45.78l42.17 -20.51c4.37,14.72 10.23,23.89 17.47,27.47 7.24,3.63 16.19,4.74 26.84,3.41 14.59,-1.84 25.24,-6.65 31.95,-14.51 6.65,-7.85 10.01,-16.29 10.01,-25.37 0,-10.38 -3.78,-18.34 -11.34,-23.75 -7.51,-5.43 -18.91,-7.18 -34.08,-5.28l-10.49 1.32 0 -38.21 5.27 -0.66c14.11,-1.77 24.92,-6.67 32.37,-14.62 7.51,-7.96 11.24,-17.8 11.24,-29.42 0,-9.25 -3.04,-16.65 -9.11,-22.26 -6.07,-5.55 -14.75,-7.64 -26.04,-6.22 -19.32,2.42 -31.68,14.59 -37.06,36.49zm186.11 -92.35l157.83 -19.82 0 210.49 20.13 -2.53 0 98 -38.66 4.85 0 -55.19 -143.45 18.01 0 55.19 -38.66 4.86 0 -98 19.49 -2.44c9.48,-22.83 15.76,-48.74 18.79,-77.66 3.04,-28.97 4.53,-65.3 4.53,-108.99l0 -26.77zm44.09 37.27c0,76.65 -6.39,133.34 -19.17,170.09l86.58 -10.87 0 -167.69 -67.41 8.47zm164.97 189.77l0 -253.29 46.33 -5.82 0 99.76 90.1 -11.31 0 -99.76 46.32 -5.82 0 253.3 -46.32 5.81 0 -110.72 -90.1 11.31 0 110.73 -46.33 5.81zm231.37 -282.34l43.13 -5.42 0 168.63 92.66 -180.26 46.01 -5.78 0 253.3 -43.14 5.41 0 -165.91 -92.65 177.55 -46.01 5.77 0 -253.29zm229.67 -28.84l46.32 -5.82 0 107.9c10.28,-2.47 17.26,-6.23 20.88,-11.46 3.62,-5.17 9.27,-19.03 16.83,-41.56 9.53,-28.61 19.17,-46.92 28.8,-54.79 9.59,-7.87 24.98,-13.16 46.28,-15.84 1.06,-0.13 3.3,-0.47 6.71,-1.02l0 37.86 -6.55 0.64c-9.48,1.19 -16.4,3.36 -20.77,6.5 -4.37,3.14 -7.88,7.53 -10.6,13.18 -2.71,5.65 -6.71,17.06 -11.98,34.23 -2.82,9.14 -5.86,16.83 -9.16,23.14 -3.24,6.31 -9.05,12.58 -17.36,18.81 10.28,1.89 18.75,7.37 25.46,16.32 6.71,8.94 14.06,21.82 22.04,38.68l31.15 65.43 -54.31 6.82 -27.42 -61.77c-0.43,-0.89 -1.34,-2.55 -2.67,-5.03 -0.53,-0.82 -2.45,-4.59 -5.75,-11.19 -5.86,-11.76 -10.65,-18.95 -14.37,-21.6 -3.79,-2.65 -9.48,-3.53 -17.21,-2.68l0 110.73 -46.32 5.82 0 -253.3zm400.43 203.02l-49.9 6.26 -19.75 -55.18 -91.75 11.52 -19.01 60.05 -48.99 6.15 88.82 -264.44 48.93 -6.15 91.65 241.79zm-84.67 -89.84l-31.79 -89.76 -30.88 97.63 62.67 -7.87z"/>
  <path class="fil5" d="M3487.58 4130.39l-49.89 6.26 -19.76 -55.18 -91.75 11.52 -19.01 60.05 -48.99 6.15 88.82 -264.45 48.94 -6.14 91.64 241.79zm-84.66 -89.84l-31.8 -89.76 -30.88 97.63 62.68 -7.87zm73.64 -162.08l52.03 -6.53 53.24 124.44 45.59 -136.85 48.19 -6.05 -77.37 202.22c-8.42,21.93 -16.99,38.87 -25.72,50.87 -8.74,12.01 -19.97,18.84 -33.82,20.58 -13.63,1.71 -24.28,2.05 -31.95,1.06l0 -38.08c6.55,-0.35 12.46,-0.86 17.73,-1.52 10.65,-1.34 18.32,-4.48 22.96,-9.37 4.58,-4.94 9.05,-14.87 13.26,-29.73l-84.14 -171.04zm222.85 -27.98l46.33 -5.81 0 107.9c10.27,-2.47 17.25,-6.24 20.87,-11.47 3.62,-5.17 9.27,-19.03 16.83,-41.56 9.53,-28.61 19.17,-46.92 28.81,-54.79 9.58,-7.87 24.97,-13.16 46.27,-15.84 1.07,-0.13 3.3,-0.47 6.71,-1.01l0 37.85 -6.55 0.64c-9.48,1.19 -16.4,3.36 -20.77,6.5 -4.36,3.14 -7.88,7.54 -10.59,13.18 -2.72,5.65 -6.71,17.06 -11.98,34.23 -2.83,9.14 -5.86,16.83 -9.16,23.14 -3.25,6.31 -9.05,12.58 -17.36,18.81 10.27,1.89 18.74,7.38 25.45,16.32 6.71,8.95 14.06,21.82 22.05,38.68l31.15 65.43 -54.32 6.82 -27.42 -61.77c-0.43,-0.89 -1.33,-2.54 -2.66,-5.03 -0.54,-0.82 -2.45,-4.59 -5.75,-11.19 -5.86,-11.76 -10.65,-18.94 -14.38,-21.6 -3.78,-2.65 -9.48,-3.53 -17.2,-2.68l0 110.73 -46.33 5.82 0 -253.3zm195 -24.48l46.33 -5.82 0 210.49 89.14 -11.19 0 -210.49 46.33 -5.82 0 210.49 19.17 -2.4 0 97.99 -38.66 4.85 0 -55.18 -162.31 20.38 0 -253.3zm233.4 -29.3l43.13 -5.42 0 168.63 92.65 -180.26 46.01 -5.78 0 253.29 -43.13 5.42 0 -165.92 -92.65 177.55 -46.01 5.78 0 -253.29zm219.44 100.62c0,-25.82 3.51,-47.96 10.49,-66.41 5.17,-13.56 12.3,-26.07 21.3,-37.46 9,-11.39 18.85,-20.23 29.55,-26.58 14.27,-8.46 30.73,-13.89 49.37,-16.23 33.76,-4.24 60.7,4 80.99,24.62 20.23,20.69 30.35,51.67 30.35,93 0,40.98 -10.06,74.32 -30.14,99.95 -20.07,25.7 -46.96,40.63 -80.56,44.85 -34.03,4.27 -61.14,-3.83 -81.21,-24.36 -20.08,-20.47 -30.14,-50.93 -30.14,-91.38zm47.61 -7.68c0,28.71 6.01,49.71 17.99,63.06 11.99,13.3 27.21,18.82 45.64,16.5 18.48,-2.32 33.6,-11.59 45.48,-27.76 11.82,-16.22 17.73,-39.02 17.73,-68.44 0,-29.06 -5.75,-50.04 -17.31,-62.86 -11.5,-12.88 -26.78,-18.1 -45.9,-15.7 -19.06,2.4 -34.45,11.58 -46.11,27.49 -11.67,15.97 -17.52,38.52 -17.52,67.71zm210.49 100.39l0 -253.29 46.33 -5.82 0 99.76 90.1 -11.31 0 -99.76 46.33 -5.82 0 253.29 -46.33 5.82 0 -110.73 -90.1 11.32 0 110.72 -46.33 5.82zm465.83 -151.88l44.73 9.59c-6.87,28.76 -18.32,50.89 -34.29,66.45 -15.98,15.51 -36.21,24.83 -60.76,27.92 -30.4,3.81 -55.38,-4.55 -74.97,-25.08 -19.55,-20.54 -29.35,-50.74 -29.35,-90.66 0,-42.15 9.86,-76.17 29.5,-101.99 19.65,-25.81 45.53,-40.74 77.59,-44.76 28.01,-3.52 50.75,2.82 68.21,18.97 10.44,9.54 18.21,24.13 23.43,43.81l-45.69 17.77c-2.71,-12.75 -8.36,-22.42 -16.93,-28.95 -8.63,-6.52 -19.06,-8.98 -31.31,-7.45 -16.99,2.14 -30.78,10.59 -41.32,25.41 -10.6,14.78 -15.87,37.26 -15.87,67.44 0,31.96 5.22,54.12 15.6,66.38 10.44,12.31 23.96,17.39 40.63,15.3 12.3,-1.55 22.9,-7.18 31.74,-16.96 8.84,-9.77 15.23,-24.14 19.06,-43.19zm66.88 -40.12c0,-25.82 3.52,-47.96 10.49,-66.41 5.17,-13.56 12.3,-26.07 21.3,-37.46 9,-11.39 18.85,-20.23 29.56,-26.59 14.27,-8.45 30.72,-13.88 49.36,-16.22 33.76,-4.24 60.7,3.99 80.99,24.62 20.24,20.69 30.35,51.67 30.35,93 0,40.98 -10.06,74.32 -30.13,99.95 -20.08,25.69 -46.97,40.63 -80.57,44.84 -34.03,4.28 -61.13,-3.82 -81.21,-24.35 -20.07,-20.48 -30.14,-50.93 -30.14,-91.38zm47.61 -7.69c0,28.72 6.02,49.72 18,63.07 11.98,13.3 27.21,18.81 45.63,16.5 18.48,-2.32 33.6,-11.59 45.48,-27.76 11.82,-16.23 17.73,-39.02 17.73,-68.44 0,-29.07 -5.75,-50.04 -17.31,-62.86 -11.5,-12.89 -26.78,-18.1 -45.9,-15.7 -19.06,2.39 -34.45,11.58 -46.11,27.49 -11.66,15.97 -17.52,38.52 -17.52,67.7zm211.45 -153.02l170.94 -21.46 0 42.81 -124.61 15.64 0 58.73 61.72 -7.75c16.99,-2.14 31.15,-1.61 42.33,1.58 11.24,3.19 20.82,10.48 28.76,21.92 7.93,11.38 11.92,25.45 11.92,42.13 0,17.1 -3.99,32.28 -12.03,45.5 -7.99,13.15 -17.09,22.66 -27.37,28.44 -10.22,5.76 -24.82,9.83 -43.72,12.21l-107.94 13.55 0 -253.3zm46.33 204.68l44.89 -5.64c14.33,-1.8 24.44,-3.84 30.25,-6.1 5.8,-2.26 10.91,-6.38 15.23,-12.41 4.31,-5.96 6.44,-12.95 6.44,-20.91 0,-11.62 -3.78,-19.57 -11.29,-23.94 -7.56,-4.29 -20.39,-5.34 -38.6,-3.05l-46.92 5.89 0 66.16zm183.66 -233.55l46.33 -5.82 0 101.18 61.71 -7.75c16.19,-2.04 30.15,-1.31 41.81,2.12 11.66,3.43 21.4,10.93 29.23,22.56 7.78,11.65 11.66,25.66 11.66,42.05 0,17.16 -4.04,32.41 -12.14,45.87 -8.15,13.4 -17.14,22.73 -27.1,27.99 -9.91,5.31 -24.44,9.14 -43.56,11.54l-107.94 13.55 0 -253.29zm46.33 204.67l45.05 -5.66c14.32,-1.8 24.33,-3.82 30.03,-6.07 5.65,-2.24 10.7,-6.41 15.12,-12.45 4.42,-6.04 6.61,-12.98 6.61,-20.88 0,-11.2 -3.62,-19.18 -10.81,-23.87 -7.25,-4.7 -20.29,-5.83 -39.09,-3.47l-46.91 5.89 0 66.51zm170.93 -231.95l46.33 -5.82 0 253.3 -46.33 5.81 0 -253.29zm145.68 235l0 -210.49 -67.72 8.5 0 -42.8 181.46 -22.79 0 42.81 -67.41 8.46 0 210.49 -46.33 5.82zm144.36 -271.42l43.14 -5.42 0 168.63 92.65 -180.26 46.01 -5.78 0 253.3 -43.13 5.41 0 -165.91 -92.66 177.55 -46.01 5.77 0 -253.29zm229.67 -28.84l43.13 -5.41 0 168.62 92.66 -180.26 46.01 -5.77 0 253.29 -43.14 5.42 0 -165.92 -92.65 177.55 -46.01 5.78 0 -253.3zm118.22 -88.07l21.4 -2.69c-1.22,15.78 -6.23,28.73 -14.91,38.72 -8.68,10 -19.91,15.89 -33.7,17.62 -13.85,1.74 -25.09,-1.33 -33.77,-9.15 -8.67,-7.81 -13.68,-19.5 -14.91,-34.97l21.41 -2.69c0.75,8.04 3.3,13.91 7.78,17.54 4.47,3.62 10.96,4.87 19.49,3.8 8.46,-1.06 14.96,-3.94 19.43,-8.69 4.47,-4.75 7.03,-11.26 7.78,-19.49zm200.22 48.09l43.13 -5.42 0 168.63 92.65 -180.26 46.01 -5.78 0 253.3 -43.13 5.41 0 -165.91 -92.66 177.55 -46 5.78 0 -253.3zm318.43 -39.98l181.8 -22.83 0 253.3 -46.33 5.81 0 -210.49 -89.14 11.2 0 210.49 -46.33 5.81 0 -253.29zm229.03 224.54l0 -253.3 74.07 -9.3c28.06,-3.52 46.33,-4.58 54.85,-3.11 13.1,2.19 24.07,9.06 32.91,20.69 8.84,11.63 13.26,27.52 13.26,47.68 0,15.57 -2.56,28.92 -7.62,40.17 -5.11,11.25 -11.56,20.38 -19.38,27.43 -7.83,7 -15.82,12.01 -23.91,14.97 -11.02,3.8 -26.95,7.04 -47.82,9.66l-30.03 3.77 0 95.52 -46.33 5.82zm46.33 -216.31l0 72.17 25.18 -3.16c18.16,-2.28 30.25,-5.16 36.37,-8.58 6.13,-3.42 10.92,-8.15 14.38,-14.31 3.46,-6.09 5.22,-12.85 5.22,-20.4 0,-9.26 -2.45,-16.56 -7.3,-21.96 -4.89,-5.4 -11.02,-8.41 -18.53,-9 -5.48,-0.43 -16.5,0.37 -33.12,2.45l-22.2 2.79zm344.79 167.2l-49.9 6.26 -19.75 -55.18 -91.75 11.52 -19.01 60.05 -48.99 6.15 88.82 -264.45 48.94 -6.14 91.64 241.79zm-84.67 -89.84l-31.79 -89.76 -30.88 97.63 62.67 -7.87zm141.91 -101.66l-45.05 -6.02c9.7,-42.49 37.23,-66.58 82.59,-72.28 26.84,-3.37 47.13,0.63 60.82,12 13.68,11.37 20.5,25.91 20.5,43.59 0,12.09 -3.15,23.39 -9.38,33.96 -6.23,10.51 -15.6,20.24 -28.06,29.23 15.12,3.88 26.52,10.59 34.08,20.19 7.56,9.67 11.34,22.16 11.34,37.67 0,22.29 -7.34,41.19 -22.09,56.78 -14.7,15.59 -36.75,25.25 -66.09,28.94 -23.91,3 -42.81,0.95 -56.66,-6.16 -13.84,-7.1 -24.22,-22.37 -31.2,-45.78l42.17 -20.51c4.37,14.72 10.23,23.89 17.47,27.47 7.24,3.63 16.19,4.74 26.84,3.41 14.59,-1.84 25.24,-6.65 31.95,-14.51 6.65,-7.85 10.01,-16.29 10.01,-25.37 0,-10.38 -3.78,-18.34 -11.34,-23.75 -7.51,-5.43 -18.91,-7.18 -34.08,-5.28l-10.49 1.32 0 -38.21 5.27 -0.66c14.11,-1.77 24.92,-6.67 32.37,-14.62 7.51,-7.96 11.24,-17.8 11.24,-29.42 0,-9.25 -3.04,-16.65 -9.11,-22.26 -6.07,-5.55 -14.75,-7.64 -26.04,-6.22 -19.32,2.42 -31.68,14.59 -37.06,36.49zm186.11 -92.35l157.83 -19.82 0 210.49 20.13 -2.53 0 98 -38.66 4.85 0 -55.19 -143.45 18.01 0 55.19 -38.66 4.86 0 -98 19.49 -2.44c9.48,-22.83 15.76,-48.74 18.79,-77.66 3.04,-28.97 4.53,-65.3 4.53,-108.99l0 -26.77zm44.09 37.27c0,76.65 -6.39,133.34 -19.17,170.09l86.58 -10.87 0 -167.69 -67.41 8.47zm164.97 189.77l0 -253.29 46.33 -5.82 0 99.76 90.1 -11.31 0 -99.76 46.32 -5.82 0 253.3 -46.32 5.81 0 -110.72 -90.1 11.31 0 110.73 -46.33 5.81zm231.37 -282.34l43.13 -5.42 0 168.63 92.66 -180.26 46.01 -5.78 0 253.3 -43.14 5.41 0 -165.91 -92.65 177.55 -46.01 5.77 0 -253.29zm229.67 -28.84l46.32 -5.82 0 107.9c10.28,-2.47 17.26,-6.23 20.88,-11.46 3.62,-5.17 9.27,-19.03 16.83,-41.56 9.53,-28.61 19.17,-46.92 28.8,-54.79 9.59,-7.87 24.98,-13.16 46.28,-15.84 1.06,-0.13 3.3,-0.47 6.71,-1.02l0 37.86 -6.55 0.64c-9.48,1.19 -16.4,3.36 -20.77,6.5 -4.37,3.14 -7.88,7.53 -10.6,13.18 -2.71,5.65 -6.71,17.06 -11.98,34.23 -2.82,9.14 -5.86,16.83 -9.16,23.14 -3.24,6.31 -9.05,12.58 -17.36,18.81 10.28,1.89 18.75,7.37 25.46,16.32 6.71,8.94 14.06,21.82 22.04,38.68l31.15 65.43 -54.31 6.82 -27.42 -61.77c-0.43,-0.89 -1.34,-2.55 -2.67,-5.03 -0.53,-0.82 -2.45,-4.59 -5.75,-11.19 -5.86,-11.76 -10.65,-18.95 -14.37,-21.6 -3.79,-2.65 -9.48,-3.53 -17.21,-2.68l0 110.73 -46.32 5.82 0 -253.3zm400.43 203.02l-49.9 6.26 -19.75 -55.18 -91.75 11.52 -19.01 60.05 -48.99 6.15 88.82 -264.44 48.93 -6.15 91.65 241.79zm-84.67 -89.84l-31.79 -89.76 -30.88 97.63 62.67 -7.87z"/>
  <path class="fil5" d="M3487.58 4130.39l-49.89 6.26 -19.76 -55.18 -91.75 11.52 -19.01 60.05 -48.99 6.15 88.82 -264.45 48.94 -6.14 91.64 241.79zm-84.66 -89.84l-31.8 -89.76 -30.88 97.63 62.68 -7.87zm73.64 -162.08l52.03 -6.53 53.24 124.44 45.59 -136.85 48.19 -6.05 -77.37 202.22c-8.42,21.93 -16.99,38.87 -25.72,50.87 -8.74,12.01 -19.97,18.84 -33.82,20.58 -13.63,1.71 -24.28,2.05 -31.95,1.06l0 -38.08c6.55,-0.35 12.46,-0.86 17.73,-1.52 10.65,-1.34 18.32,-4.48 22.96,-9.37 4.58,-4.94 9.05,-14.87 13.26,-29.73l-84.14 -171.04zm222.85 -27.98l46.33 -5.81 0 107.9c10.27,-2.47 17.25,-6.24 20.87,-11.47 3.62,-5.17 9.27,-19.03 16.83,-41.56 9.53,-28.61 19.17,-46.92 28.81,-54.79 9.58,-7.87 24.97,-13.16 46.27,-15.84 1.07,-0.13 3.3,-0.47 6.71,-1.01l0 37.85 -6.55 0.64c-9.48,1.19 -16.4,3.36 -20.77,6.5 -4.36,3.14 -7.88,7.54 -10.59,13.18 -2.72,5.65 -6.71,17.06 -11.98,34.23 -2.83,9.14 -5.86,16.83 -9.16,23.14 -3.25,6.31 -9.05,12.58 -17.36,18.81 10.27,1.89 18.74,7.38 25.45,16.32 6.71,8.95 14.06,21.82 22.05,38.68l31.15 65.43 -54.32 6.82 -27.42 -61.77c-0.43,-0.89 -1.33,-2.54 -2.66,-5.03 -0.54,-0.82 -2.45,-4.59 -5.75,-11.19 -5.86,-11.76 -10.65,-18.94 -14.38,-21.6 -3.78,-2.65 -9.48,-3.53 -17.2,-2.68l0 110.73 -46.33 5.82 0 -253.3zm195 -24.48l46.33 -5.82 0 210.49 89.14 -11.19 0 -210.49 46.33 -5.82 0 210.49 19.17 -2.4 0 97.99 -38.66 4.85 0 -55.18 -162.31 20.38 0 -253.3zm233.4 -29.3l43.13 -5.42 0 168.63 92.65 -180.26 46.01 -5.78 0 253.29 -43.13 5.42 0 -165.92 -92.65 177.55 -46.01 5.78 0 -253.29zm219.44 100.62c0,-25.82 3.51,-47.96 10.49,-66.41 5.17,-13.56 12.3,-26.07 21.3,-37.46 9,-11.39 18.85,-20.23 29.55,-26.58 14.27,-8.46 30.73,-13.89 49.37,-16.23 33.76,-4.24 60.7,4 80.99,24.62 20.23,20.69 30.35,51.67 30.35,93 0,40.98 -10.06,74.32 -30.14,99.95 -20.07,25.7 -46.96,40.63 -80.56,44.85 -34.03,4.27 -61.14,-3.83 -81.21,-24.36 -20.08,-20.47 -30.14,-50.93 -30.14,-91.38zm47.61 -7.68c0,28.71 6.01,49.71 17.99,63.06 11.99,13.3 27.21,18.82 45.64,16.5 18.48,-2.32 33.6,-11.59 45.48,-27.76 11.82,-16.22 17.73,-39.02 17.73,-68.44 0,-29.06 -5.75,-50.04 -17.31,-62.86 -11.5,-12.88 -26.78,-18.1 -45.9,-15.7 -19.06,2.4 -34.45,11.58 -46.11,27.49 -11.67,15.97 -17.52,38.52 -17.52,67.71zm210.49 100.39l0 -253.29 46.33 -5.82 0 99.76 90.1 -11.31 0 -99.76 46.33 -5.82 0 253.29 -46.33 5.82 0 -110.73 -90.1 11.32 0 110.72 -46.33 5.82zm465.83 -151.88l44.73 9.59c-6.87,28.76 -18.32,50.89 -34.29,66.45 -15.98,15.51 -36.21,24.83 -60.76,27.92 -30.4,3.81 -55.38,-4.55 -74.97,-25.08 -19.55,-20.54 -29.35,-50.74 -29.35,-90.66 0,-42.15 9.86,-76.17 29.5,-101.99 19.65,-25.81 45.53,-40.74 77.59,-44.76 28.01,-3.52 50.75,2.82 68.21,18.97 10.44,9.54 18.21,24.13 23.43,43.81l-45.69 17.77c-2.71,-12.75 -8.36,-22.42 -16.93,-28.95 -8.63,-6.52 -19.06,-8.98 -31.31,-7.45 -16.99,2.14 -30.78,10.59 -41.32,25.41 -10.6,14.78 -15.87,37.26 -15.87,67.44 0,31.96 5.22,54.12 15.6,66.38 10.44,12.31 23.96,17.39 40.63,15.3 12.3,-1.55 22.9,-7.18 31.74,-16.96 8.84,-9.77 15.23,-24.14 19.06,-43.19zm66.88 -40.12c0,-25.82 3.52,-47.96 10.49,-66.41 5.17,-13.56 12.3,-26.07 21.3,-37.46 9,-11.39 18.85,-20.23 29.56,-26.59 14.27,-8.45 30.72,-13.88 49.36,-16.22 33.76,-4.24 60.7,3.99 80.99,24.62 20.24,20.69 30.35,51.67 30.35,93 0,40.98 -10.06,74.32 -30.13,99.95 -20.08,25.69 -46.97,40.63 -80.57,44.84 -34.03,4.28 -61.13,-3.82 -81.21,-24.35 -20.07,-20.48 -30.14,-50.93 -30.14,-91.38zm47.61 -7.69c0,28.72 6.02,49.72 18,63.07 11.98,13.3 27.21,18.81 45.63,16.5 18.48,-2.32 33.6,-11.59 45.48,-27.76 11.82,-16.23 17.73,-39.02 17.73,-68.44 0,-29.07 -5.75,-50.04 -17.31,-62.86 -11.5,-12.89 -26.78,-18.1 -45.9,-15.7 -19.06,2.39 -34.45,11.58 -46.11,27.49 -11.66,15.97 -17.52,38.52 -17.52,67.7zm211.45 -153.02l170.94 -21.46 0 42.81 -124.61 15.64 0 58.73 61.72 -7.75c16.99,-2.14 31.15,-1.61 42.33,1.58 11.24,3.19 20.82,10.48 28.76,21.92 7.93,11.38 11.92,25.45 11.92,42.13 0,17.1 -3.99,32.28 -12.03,45.5 -7.99,13.15 -17.09,22.66 -27.37,28.44 -10.22,5.76 -24.82,9.83 -43.72,12.21l-107.94 13.55 0 -253.3zm46.33 204.68l44.89 -5.64c14.33,-1.8 24.44,-3.84 30.25,-6.1 5.8,-2.26 10.91,-6.38 15.23,-12.41 4.31,-5.96 6.44,-12.95 6.44,-20.91 0,-11.62 -3.78,-19.57 -11.29,-23.94 -7.56,-4.29 -20.39,-5.34 -38.6,-3.05l-46.92 5.89 0 66.16zm183.66 -233.55l46.33 -5.82 0 101.18 61.71 -7.75c16.19,-2.04 30.15,-1.31 41.81,2.12 11.66,3.43 21.4,10.93 29.23,22.56 7.78,11.65 11.66,25.66 11.66,42.05 0,17.16 -4.04,32.41 -12.14,45.87 -8.15,13.4 -17.14,22.73 -27.1,27.99 -9.91,5.31 -24.44,9.14 -43.56,11.54l-107.94 13.55 0 -253.29zm46.33 204.67l45.05 -5.66c14.32,-1.8 24.33,-3.82 30.03,-6.07 5.65,-2.24 10.7,-6.41 15.12,-12.45 4.42,-6.04 6.61,-12.98 6.61,-20.88 0,-11.2 -3.62,-19.18 -10.81,-23.87 -7.25,-4.7 -20.29,-5.83 -39.09,-3.47l-46.91 5.89 0 66.51zm170.93 -231.95l46.33 -5.82 0 253.3 -46.33 5.81 0 -253.29zm145.68 235l0 -210.49 -67.72 8.5 0 -42.8 181.46 -22.79 0 42.81 -67.41 8.46 0 210.49 -46.33 5.82zm144.36 -271.42l43.14 -5.42 0 168.63 92.65 -180.26 46.01 -5.78 0 253.3 -43.13 5.41 0 -165.91 -92.66 177.55 -46.01 5.77 0 -253.29zm229.67 -28.84l43.13 -5.41 0 168.62 92.66 -180.26 46.01 -5.77 0 253.29 -43.14 5.42 0 -165.92 -92.65 177.55 -46.01 5.78 0 -253.3zm118.22 -88.07l21.4 -2.69c-1.22,15.78 -6.23,28.73 -14.91,38.72 -8.68,10 -19.91,15.89 -33.7,17.62 -13.85,1.74 -25.09,-1.33 -33.77,-9.15 -8.67,-7.81 -13.68,-19.5 -14.91,-34.97l21.41 -2.69c0.75,8.04 3.3,13.91 7.78,17.54 4.47,3.62 10.96,4.87 19.49,3.8 8.46,-1.06 14.96,-3.94 19.43,-8.69 4.47,-4.75 7.03,-11.26 7.78,-19.49zm200.22 48.09l43.13 -5.42 0 168.63 92.65 -180.26 46.01 -5.78 0 253.3 -43.13 5.41 0 -165.91 -92.66 177.55 -46 5.78 0 -253.3zm318.43 -39.98l181.8 -22.83 0 253.3 -46.33 5.81 0 -210.49 -89.14 11.2 0 210.49 -46.33 5.81 0 -253.29zm229.03 224.54l0 -253.3 74.07 -9.3c28.06,-3.52 46.33,-4.58 54.85,-3.11 13.1,2.19 24.07,9.06 32.91,20.69 8.84,11.63 13.26,27.52 13.26,47.68 0,15.57 -2.56,28.92 -7.62,40.17 -5.11,11.25 -11.56,20.38 -19.38,27.43 -7.83,7 -15.82,12.01 -23.91,14.97 -11.02,3.8 -26.95,7.04 -47.82,9.66l-30.03 3.77 0 95.52 -46.33 5.82zm46.33 -216.31l0 72.17 25.18 -3.16c18.16,-2.28 30.25,-5.16 36.37,-8.58 6.13,-3.42 10.92,-8.15 14.38,-14.31 3.46,-6.09 5.22,-12.85 5.22,-20.4 0,-9.26 -2.45,-16.56 -7.3,-21.96 -4.89,-5.4 -11.02,-8.41 -18.53,-9 -5.48,-0.43 -16.5,0.37 -33.12,2.45l-22.2 2.79zm344.79 167.2l-49.9 6.26 -19.75 -55.18 -91.75 11.52 -19.01 60.05 -48.99 6.15 88.82 -264.45 48.94 -6.14 91.64 241.79zm-84.67 -89.84l-31.79 -89.76 -30.88 97.63 62.67 -7.87zm141.91 -101.66l-45.05 -6.02c9.7,-42.49 37.23,-66.58 82.59,-72.28 26.84,-3.37 47.13,0.63 60.82,12 13.68,11.37 20.5,25.91 20.5,43.59 0,12.09 -3.15,23.39 -9.38,33.96 -6.23,10.51 -15.6,20.24 -28.06,29.23 15.12,3.88 26.52,10.59 34.08,20.19 7.56,9.67 11.34,22.16 11.34,37.67 0,22.29 -7.34,41.19 -22.09,56.78 -14.7,15.59 -36.75,25.25 -66.09,28.94 -23.91,3 -42.81,0.95 -56.66,-6.16 -13.84,-7.1 -24.22,-22.37 -31.2,-45.78l42.17 -20.51c4.37,14.72 10.23,23.89 17.47,27.47 7.24,3.63 16.19,4.74 26.84,3.41 14.59,-1.84 25.24,-6.65 31.95,-14.51 6.65,-7.85 10.01,-16.29 10.01,-25.37 0,-10.38 -3.78,-18.34 -11.34,-23.75 -7.51,-5.43 -18.91,-7.18 -34.08,-5.28l-10.49 1.32 0 -38.21 5.27 -0.66c14.11,-1.77 24.92,-6.67 32.37,-14.62 7.51,-7.96 11.24,-17.8 11.24,-29.42 0,-9.25 -3.04,-16.65 -9.11,-22.26 -6.07,-5.55 -14.75,-7.64 -26.04,-6.22 -19.32,2.42 -31.68,14.59 -37.06,36.49zm186.11 -92.35l157.83 -19.82 0 210.49 20.13 -2.53 0 98 -38.66 4.85 0 -55.19 -143.45 18.01 0 55.19 -38.66 4.86 0 -98 19.49 -2.44c9.48,-22.83 15.76,-48.74 18.79,-77.66 3.04,-28.97 4.53,-65.3 4.53,-108.99l0 -26.77zm44.09 37.27c0,76.65 -6.39,133.34 -19.17,170.09l86.58 -10.87 0 -167.69 -67.41 8.47zm164.97 189.77l0 -253.29 46.33 -5.82 0 99.76 90.1 -11.31 0 -99.76 46.32 -5.82 0 253.3 -46.32 5.81 0 -110.72 -90.1 11.31 0 110.73 -46.33 5.81zm231.37 -282.34l43.13 -5.42 0 168.63 92.66 -180.26 46.01 -5.78 0 253.3 -43.14 5.41 0 -165.91 -92.65 177.55 -46.01 5.77 0 -253.29zm229.67 -28.84l46.32 -5.82 0 107.9c10.28,-2.47 17.26,-6.23 20.88,-11.46 3.62,-5.17 9.27,-19.03 16.83,-41.56 9.53,-28.61 19.17,-46.92 28.8,-54.79 9.59,-7.87 24.98,-13.16 46.28,-15.84 1.06,-0.13 3.3,-0.47 6.71,-1.02l0 37.86 -6.55 0.64c-9.48,1.19 -16.4,3.36 -20.77,6.5 -4.37,3.14 -7.88,7.53 -10.6,13.18 -2.71,5.65 -6.71,17.06 -11.98,34.23 -2.82,9.14 -5.86,16.83 -9.16,23.14 -3.24,6.31 -9.05,12.58 -17.36,18.81 10.28,1.89 18.75,7.37 25.46,16.32 6.71,8.94 14.06,21.82 22.04,38.68l31.15 65.43 -54.31 6.82 -27.42 -61.77c-0.43,-0.89 -1.34,-2.55 -2.67,-5.03 -0.53,-0.82 -2.45,-4.59 -5.75,-11.19 -5.86,-11.76 -10.65,-18.95 -14.37,-21.6 -3.79,-2.65 -9.48,-3.53 -17.21,-2.68l0 110.73 -46.32 5.82 0 -253.3zm400.43 203.02l-49.9 6.26 -19.75 -55.18 -91.75 11.52 -19.01 60.05 -48.99 6.15 88.82 -264.44 48.93 -6.15 91.65 241.79zm-84.67 -89.84l-31.79 -89.76 -30.88 97.63 62.67 -7.87z"/>
  <path class="fil6" d="M3393.41 1720.87l365.98 -42.38 139.41 499.82 139.83 -532.15 364.3 -42.19 0 847.96 -226.98 26.28 0 -646.43 -175.15 666.71 -205.67 23.82 -174.74 -626.2 0 646.43 -226.98 26.29 0 -847.96zm1095.85 -126.89l308.08 -35.68 181.63 264.38 180.8 -306.35 306.41 -35.48 -348.63 533.24 0 355.09 -278.41 32.24 0 -355.09 -349.88 -452.35z"/>
  <path class="fil6" d="M4550.61 2613.4l843.99 -97.73 0 209.62 -283.42 32.81 0 638.34 -277.15 32.09 0 -638.33 -283.42 32.82 0 -209.62zm968.35 -112.14l742.4 -85.96 0 181.19 -463.99 53.73 0 135.01 430.13 -49.81 0 172.91 -430.13 49.81 0 166.98 477.79 -55.32 0 191.85 -756.2 87.57 0 -847.96zm908.15 -105.16l258.96 -29.98 336.72 429.2 0 -468.19 262.1 -30.35 0 847.95 -262.1 30.35 -334.84 -426.85 0 465.62 -260.84 30.21 0 -847.96zm1045.89 -121.11l412.38 -47.75c81.1,-9.39 146.94,-6.55 196.89,8.39 49.96,15.14 91.34,40.15 124.15,75.23 32.61,35.31 56.23,77.77 70.86,127.79 14.84,50 22.16,103.83 22.16,161.66 0,90.6 -10.87,162.13 -32.82,214.61 -21.74,52.45 -52.05,97.81 -90.92,136.06 -38.88,38.25 -80.47,65.57 -124.99,81.98 -60.82,22.44 -116,36.52 -165.33,42.24l-412.38 47.75 0 -847.96zm277.15 159.77l0 463.05 68.14 -7.89c58.11,-6.72 99.49,-17.64 124.15,-32.53 24.46,-15.07 43.69,-38.42 57.69,-70.24 14,-32.02 20.9,-81.77 20.9,-149.67 0,-89.8 -15.47,-149.4 -46.61,-178.95 -31.14,-29.56 -82.77,-40.16 -154.88,-31.81l-69.39 8.04z"/>
  <polygon class="fil7 str2" points="3073.4,3787.65 9005.42,3042.83 9005.42,3467.35 3073.4,4212.17 "/>
  <path class="fil5" d="M3441.09 4085.16l-49.89 6.27 -19.76 -55.19 -91.75 11.52 -19.01 60.05 -48.99 6.15 88.82 -264.44 48.94 -6.15 91.64 241.79zm-84.66 -89.84l-31.79 -89.75 -30.89 97.62 62.68 -7.87zm73.64 -162.07l52.03 -6.53 53.25 124.44 45.58 -136.85 48.19 -6.05 -77.37 202.22c-8.42,21.93 -16.99,38.87 -25.72,50.87 -8.74,12 -19.97,18.84 -33.82,20.58 -13.63,1.71 -24.28,2.04 -31.95,1.06l0 -38.09c6.55,-0.35 12.46,-0.86 17.73,-1.52 10.66,-1.33 18.32,-4.48 22.96,-9.37 4.58,-4.93 9.05,-14.87 13.26,-29.72l-84.14 -171.04zm222.85 -27.98l46.33 -5.82 0 107.9c10.28,-2.47 17.25,-6.23 20.87,-11.46 3.62,-5.18 9.27,-19.03 16.83,-41.56 9.53,-28.62 19.17,-46.93 28.81,-54.8 9.58,-7.86 24.97,-13.16 46.27,-15.83 1.07,-0.13 3.3,-0.47 6.71,-1.02l0 37.85 -6.55 0.65c-9.48,1.19 -16.4,3.35 -20.77,6.5 -4.36,3.14 -7.88,7.53 -10.59,13.18 -2.72,5.65 -6.71,17.06 -11.98,34.23 -2.83,9.14 -5.86,16.83 -9.16,23.14 -3.25,6.3 -9.05,12.57 -17.36,18.8 10.28,1.9 18.74,7.38 25.45,16.33 6.71,8.94 14.06,21.82 22.05,38.68l31.15 65.42 -54.32 6.82 -27.42 -61.76c-0.43,-0.89 -1.33,-2.55 -2.66,-5.04 -0.54,-0.81 -2.45,-4.58 -5.75,-11.18 -5.86,-11.77 -10.65,-18.95 -14.38,-21.61 -3.78,-2.65 -9.48,-3.52 -17.2,-2.67l0 110.73 -46.33 5.81 0 -253.29zm195 -24.49l46.33 -5.81 0 210.49 89.14 -11.19 0 -210.49 46.33 -5.82 0 210.49 19.17 -2.41 0 97.99 -38.66 4.86 0 -55.19 -162.31 20.38 0 -253.3zm233.4 -29.3l43.13 -5.42 0 168.63 92.66 -180.26 46 -5.78 0 253.3 -43.13 5.42 0 -165.92 -92.65 177.55 -46.01 5.78 0 -253.3zm219.44 100.63c0,-25.83 3.51,-47.97 10.49,-66.41 5.17,-13.56 12.3,-26.07 21.3,-37.46 9,-11.39 18.85,-20.23 29.55,-26.59 14.27,-8.46 30.73,-13.88 49.37,-16.22 33.76,-4.24 60.7,3.99 80.99,24.62 20.24,20.69 30.35,51.67 30.35,93 0,40.98 -10.06,74.31 -30.14,99.95 -20.07,25.69 -46.96,40.62 -80.56,44.84 -34.03,4.27 -61.14,-3.82 -81.21,-24.35 -20.07,-20.48 -30.14,-50.94 -30.14,-91.38zm47.61 -7.69c0,28.71 6.01,49.72 17.99,63.07 11.99,13.3 27.22,18.81 45.64,16.5 18.48,-2.32 33.6,-11.59 45.48,-27.76 11.82,-16.23 17.73,-39.02 17.73,-68.44 0,-29.07 -5.75,-50.05 -17.31,-62.86 -11.5,-12.89 -26.78,-18.1 -45.9,-15.7 -19.06,2.39 -34.45,11.58 -46.11,27.49 -11.67,15.96 -17.52,38.52 -17.52,67.7zm210.49 100.4l0 -253.3 46.33 -5.82 0 99.77 90.1 -11.32 0 -99.76 46.33 -5.82 0 253.3 -46.33 5.82 0 -110.73 -90.1 11.31 0 110.73 -46.33 5.82zm465.83 -151.89l44.73 9.6c-6.87,28.75 -18.32,50.88 -34.29,66.45 -15.98,15.51 -36.21,24.83 -60.76,27.91 -30.4,3.82 -55.38,-4.54 -74.97,-25.08 -19.55,-20.54 -29.35,-50.74 -29.35,-90.65 0,-42.16 9.86,-76.18 29.5,-101.99 19.65,-25.82 45.53,-40.74 77.59,-44.77 28.01,-3.51 50.75,2.83 68.21,18.97 10.44,9.54 18.21,24.13 23.43,43.82l-45.68 17.76c-2.72,-12.75 -8.37,-22.42 -16.94,-28.94 -8.62,-6.53 -19.06,-8.99 -31.31,-7.45 -16.99,2.13 -30.78,10.58 -41.32,25.41 -10.6,14.77 -15.87,37.25 -15.87,67.44 0,31.96 5.22,54.12 15.6,66.38 10.44,12.3 23.97,17.39 40.63,15.29 12.3,-1.54 22.9,-7.17 31.74,-16.95 8.84,-9.78 15.23,-24.14 19.06,-43.2zm66.88 -40.11c0,-25.83 3.52,-47.97 10.49,-66.41 5.17,-13.57 12.31,-26.08 21.3,-37.47 9,-11.39 18.85,-20.23 29.56,-26.58 14.27,-8.46 30.72,-13.88 49.36,-16.22 33.76,-4.24 60.71,3.99 80.99,24.61 20.24,20.69 30.36,51.67 30.36,93.01 0,40.97 -10.07,74.31 -30.14,99.95 -20.08,25.69 -46.97,40.62 -80.57,44.84 -34.03,4.27 -61.13,-3.82 -81.21,-24.36 -20.07,-20.47 -30.14,-50.93 -30.14,-91.37zm47.61 -7.69c0,28.71 6.02,49.71 18,63.07 11.98,13.29 27.21,18.81 45.63,16.49 18.48,-2.31 33.6,-11.58 45.48,-27.76 11.82,-16.22 17.73,-39.01 17.73,-68.44 0,-29.06 -5.75,-50.04 -17.31,-62.86 -11.5,-12.88 -26.78,-18.09 -45.9,-15.69 -19.06,2.39 -34.45,11.57 -46.11,27.48 -11.66,15.97 -17.52,38.52 -17.52,67.71zm211.45 -153.02l170.94 -21.46 0 42.8 -124.61 15.65 0 58.72 61.72 -7.75c16.99,-2.13 31.15,-1.61 42.33,1.59 11.24,3.18 20.82,10.47 28.76,21.91 7.93,11.39 11.92,25.45 11.92,42.14 0,17.1 -3.99,32.28 -12.03,45.49 -7.99,13.15 -17.09,22.67 -27.37,28.44 -10.22,5.76 -24.81,9.84 -43.72,12.21l-107.94 13.55 0 -253.29zm46.33 204.67l44.89 -5.64c14.33,-1.79 24.44,-3.83 30.25,-6.09 5.8,-2.27 10.91,-6.39 15.23,-12.41 4.31,-5.97 6.44,-12.95 6.44,-20.91 0,-11.62 -3.78,-19.58 -11.29,-23.94 -7.56,-4.3 -20.39,-5.34 -38.6,-3.05l-46.92 5.89 0 66.15zm183.66 -233.55l46.33 -5.82 0 101.18 61.71 -7.75c16.19,-2.03 30.15,-1.31 41.81,2.12 11.66,3.43 21.4,10.94 29.23,22.57 7.78,11.64 11.66,25.66 11.66,42.05 0,17.16 -4.04,32.4 -12.14,45.86 -8.15,13.41 -17.14,22.73 -27.1,27.99 -9.91,5.31 -24.44,9.14 -43.56,11.54l-107.94 13.56 0 -253.3zm46.33 204.67l45.05 -5.65c14.32,-1.8 24.33,-3.82 30.03,-6.07 5.65,-2.25 10.7,-6.42 15.13,-12.46 4.41,-6.03 6.6,-12.97 6.6,-20.87 0,-11.2 -3.62,-19.18 -10.81,-23.88 -7.24,-4.69 -20.29,-5.82 -39.09,-3.46l-46.91 5.89 0 66.5zm170.93 -231.95l46.33 -5.81 0 253.29 -46.33 5.82 0 -253.3zm145.69 235l0 -210.49 -67.73 8.51 0 -42.81 181.47 -22.78 0 42.8 -67.42 8.47 0 210.49 -46.32 5.81zm144.35 -271.42l43.14 -5.41 0 168.63 92.65 -180.27 46.01 -5.77 0 253.29 -43.13 5.42 0 -165.92 -92.66 177.55 -46.01 5.78 0 -253.3zm229.67 -28.83l43.13 -5.42 0 168.63 92.66 -180.26 46.01 -5.78 0 253.3 -43.14 5.41 0 -165.91 -92.65 177.55 -46.01 5.77 0 -253.29zm118.22 -88.07l21.4 -2.69c-1.22,15.77 -6.23,28.73 -14.91,38.72 -8.68,9.99 -19.91,15.88 -33.7,17.62 -13.85,1.73 -25.08,-1.33 -33.77,-9.15 -8.67,-7.81 -13.68,-19.51 -14.91,-34.98l21.41 -2.68c0.75,8.04 3.3,13.91 7.78,17.53 4.47,3.63 10.97,4.88 19.49,3.81 8.46,-1.07 14.96,-3.95 19.43,-8.69 4.47,-4.75 7.03,-11.26 7.78,-19.49zm200.22 48.09l43.13 -5.42 0 168.63 92.65 -180.26 46.01 -5.78 0 253.29 -43.13 5.42 0 -165.92 -92.66 177.55 -46 5.78 0 -253.29zm318.43 -39.99l181.8 -22.82 0 253.29 -46.33 5.82 0 -210.49 -89.14 11.19 0 210.49 -46.33 5.82 0 -253.3zm229.03 224.54l0 -253.29 74.07 -9.3c28.06,-3.53 46.33,-4.58 54.85,-3.12 13.1,2.19 24.07,9.07 32.91,20.69 8.84,11.63 13.26,27.52 13.26,47.69 0,15.56 -2.56,28.92 -7.62,40.16 -5.11,11.26 -11.55,20.38 -19.38,27.44 -7.83,6.99 -15.82,12.01 -23.91,14.97 -11.02,3.8 -26.94,7.04 -47.82,9.66l-30.03 3.77 0 95.52 -46.33 5.81zm46.33 -216.3l0 72.16 25.18 -3.16c18.16,-2.28 30.25,-5.15 36.37,-8.58 6.13,-3.42 10.92,-8.15 14.38,-14.3 3.46,-6.09 5.22,-12.86 5.22,-20.41 0,-9.25 -2.45,-16.55 -7.29,-21.96 -4.9,-5.4 -11.03,-8.4 -18.54,-8.99 -5.48,-0.43 -16.5,0.36 -33.12,2.45l-22.2 2.79zm344.79 167.19l-49.89 6.27 -19.76 -55.18 -91.75 11.52 -19.01 60.05 -48.99 6.15 88.82 -264.45 48.94 -6.14 91.64 241.78zm-84.67 -89.83l-31.79 -89.76 -30.88 97.62 62.67 -7.86zm141.91 -101.67l-45.05 -6.01c9.7,-42.49 37.23,-66.59 82.6,-72.28 26.83,-3.37 47.12,0.63 60.81,12 13.68,11.37 20.5,25.9 20.5,43.59 0,12.09 -3.15,23.39 -9.37,33.96 -6.23,10.51 -15.61,20.23 -28.07,29.23 15.12,3.88 26.52,10.58 34.08,20.19 7.56,9.66 11.34,22.16 11.34,37.67 0,22.28 -7.34,41.19 -22.09,56.78 -14.7,15.58 -36.75,25.25 -66.09,28.93 -23.91,3 -42.81,0.95 -56.66,-6.15 -13.84,-7.11 -24.22,-22.37 -31.2,-45.79l42.17 -20.5c4.37,14.72 10.23,23.89 17.47,27.46 7.24,3.63 16.19,4.75 26.84,3.41 14.59,-1.83 25.24,-6.65 31.95,-14.51 6.65,-7.85 10.01,-16.29 10.01,-25.37 0,-10.37 -3.78,-18.33 -11.34,-23.75 -7.51,-5.42 -18.91,-7.18 -34.08,-5.27l-10.49 1.31 0 -38.2 5.27 -0.66c14.11,-1.78 24.92,-6.67 32.37,-14.62 7.51,-7.96 11.24,-17.8 11.24,-29.42 0,-9.26 -3.03,-16.66 -9.11,-22.26 -6.07,-5.55 -14.75,-7.64 -26.04,-6.23 -19.32,2.43 -31.68,14.59 -37.06,36.49zm186.11 -92.35l157.83 -19.81 0 210.49 20.13 -2.53 0 97.99 -38.66 4.86 0 -55.19 -143.45 18.01 0 55.19 -38.66 4.85 0 -97.99 19.49 -2.45c9.48,-22.83 15.76,-48.73 18.79,-77.65 3.04,-28.98 4.53,-65.31 4.53,-109l0 -26.77zm44.09 37.27c0,76.65 -6.39,133.35 -19.17,170.09l86.59 -10.87 0 -167.68 -67.42 8.46zm164.97 189.78l0 -253.3 46.33 -5.81 0 99.76 90.1 -11.31 0 -99.77 46.32 -5.81 0 253.29 -46.32 5.82 0 -110.73 -90.1 11.31 0 110.73 -46.33 5.82zm231.37 -282.35l43.13 -5.41 0 168.63 92.66 -180.27 46.01 -5.77 0 253.29 -43.14 5.42 0 -165.92 -92.65 177.55 -46.01 5.78 0 -253.3zm229.67 -28.83l46.32 -5.82 0 107.9c10.28,-2.47 17.26,-6.24 20.88,-11.47 3.62,-5.17 9.27,-19.03 16.83,-41.55 9.53,-28.62 19.17,-46.93 28.8,-54.8 9.59,-7.86 24.98,-13.16 46.28,-15.83 1.06,-0.14 3.3,-0.48 6.71,-1.02l0 37.85 -6.55 0.65c-9.48,1.19 -16.4,3.35 -20.77,6.5 -4.36,3.14 -7.88,7.53 -10.59,13.18 -2.72,5.64 -6.72,17.05 -11.99,34.22 -2.82,9.15 -5.85,16.84 -9.16,23.15 -3.24,6.3 -9.05,12.57 -17.36,18.8 10.28,1.9 18.75,7.38 25.46,16.32 6.71,8.95 14.06,21.82 22.04,38.69l31.15 65.42 -54.31 6.82 -27.42 -61.77c-0.43,-0.89 -1.33,-2.54 -2.67,-5.03 -0.53,-0.81 -2.45,-4.58 -5.75,-11.18 -5.85,-11.77 -10.65,-18.95 -14.37,-21.61 -3.79,-2.65 -9.48,-3.52 -17.21,-2.67l0 110.73 -46.32 5.81 0 -253.29zm400.43 203.01l-49.9 6.27 -19.75 -55.18 -91.75 11.52 -19.01 60.05 -48.99 6.15 88.82 -264.45 48.93 -6.14 91.65 241.78zm-84.67 -89.83l-31.79 -89.76 -30.88 97.62 62.67 -7.86z"/>
  <polygon class="fil8" points="8367.7,1469.11 8473.05,1745.63 8816.01,1745.07 8538.17,1915.41 8644.77,2191.59 8367.7,2020.35 8090.62,2191.59 8197.23,1915.41 7919.37,1745.07 8262.34,1745.63 "/>
  <polygon class="fil9 str3" points="7548.9,1246.56 7454.1,1515.77 7145.5,1515.23 7395.51,1681.07 7299.59,1949.94 7548.9,1783.22 7798.22,1949.94 7702.29,1681.07 7952.3,1515.23 7643.7,1515.77 "/>
  <polygon class="fil10" points="6696.65,1181.09 6786.46,1418.68 7078.83,1418.2 6841.97,1564.56 6932.85,1801.86 6696.65,1654.72 6460.44,1801.86 6551.33,1564.56 6314.46,1418.2 6606.83,1418.68 "/>
  <polygon class="fil11" points="8810.83,2027.68 8924.89,2362.17 9296.17,2361.49 8995.37,2567.54 9110.79,2901.61 8810.83,2694.47 8510.88,2901.61 8626.29,2567.54 8325.5,2361.49 8696.78,2362.17 "/>
 </g>
</svg>
