<?xml version="1.0" encoding="UTF-8"?>
<!DOCTYPE svg PUBLIC "-//W3C//DTD SVG 1.1//EN" "http://www.w3.org/Graphics/SVG/1.1/DTD/svg11.dtd">
<!-- Creator: CorelDRAW 2017 -->
<svg xmlns="http://www.w3.org/2000/svg" xml:space="preserve" width="118.533mm" height="118.533mm" version="1.1" style="shape-rendering:geometricPrecision; text-rendering:geometricPrecision; image-rendering:optimizeQuality; fill-rule:evenodd; clip-rule:evenodd"
viewBox="0 0 11853.32 11853.32"
 xmlns:xlink="http://www.w3.org/1999/xlink">
 <defs>
  <style type="text/css">
   <![CDATA[
    .fil4 {fill:#5C5B5B}
    .fil5 {fill:#666666}
    .fil0 {fill:#BD0006}
    .fil3 {fill:#C2B994}
    .fil1 {fill:#C4C5C5}
    .fil6 {fill:red}
    .fil2 {fill:white}
   ]]>
  </style>
 </defs>
 <g id="Layer_x0020_1">
  <metadata id="CorelCorpID_0Corel-Layer"/>
  <rect class="fil0" x="1949.19" y="414.65" width="8299.71" height="11354"/>
  <rect class="fil1" x="2314.37" y="846.24" width="7536.14" height="10490.83"/>
  <rect class="fil2" x="2845.55" y="1477.01" width="6506.98" height="9196.08"/>
  <rect class="fil3" x="4073.9" y="414.65" width="4038.17" height="1338.87"/>
  <polygon class="fil4" points="6995.41,315.06 6995.41,-16.94 5235.87,-16.94 5235.87,315.06 4239.9,315.06 4239.9,481.04 7991.38,481.04 7991.38,315.06 "/>
  <rect class="fil1" x="4903.88" y="2406.58" width="4060.08" height="551.27"/>
  <rect class="fil1" x="4903.88" y="4066.52" width="4060.08" height="551.27"/>
  <path class="fil5" d="M3775.11 2539.38c0,0 132.79,232.39 232.39,431.58 132.8,-265.59 166,-298.8 331.99,-564.38l33.2 -33.2 232.4 -199.19 0 33.2c-199.19,265.59 -232.4,298.8 -398.4,663.98 -33.19,99.61 -99.6,331.99 -132.78,365.18l-232.4 199.21c-33.2,0 -33.2,0 -33.2,-66.41 -33.2,-199.19 -298.79,-597.58 -298.79,-630.78l265.59 -199.19z"/>
  <path class="fil5" d="M3775.11 4199.32c0,0 132.79,232.38 232.39,431.59 132.8,-265.6 166,-298.81 331.99,-564.39l33.2 -33.2 232.4 -199.19 0 33.2c-199.19,265.59 -232.4,298.8 -398.4,663.99 -33.19,99.6 -99.6,331.98 -132.78,365.17l-232.4 199.2c-33.2,0 -33.2,0 -33.2,-66.4 -33.2,-199.19 -298.79,-597.59 -298.79,-630.78l265.59 -199.19z"/>
  <path class="fil5" d="M3775.11 5859.26c0,0 132.79,232.39 232.39,431.6 132.8,-265.6 166,-298.81 331.99,-564.38l33.2 -33.21 232.4 -199.19 0 33.19c-199.19,265.6 -232.4,298.81 -398.4,664 -33.19,99.6 -99.6,331.97 -132.78,365.18l-232.4 199.19c-33.2,0 -33.2,0 -33.2,-66.4 -33.2,-199.19 -298.79,-597.59 -298.79,-630.78l265.59 -199.2z"/>
  <path class="fil6" d="M7330.39 8570.7c0,0 261.37,457.41 457.41,849.46 261.36,-522.75 326.7,-588.1 653.42,-1110.83l65.35 -65.35 457.39 -392.05 0 65.35c-392.05,522.74 -457.39,588.09 -784.11,1306.87 -65.35,196.04 -196.04,653.42 -261.36,718.76l-457.41 392.06c-65.34,0 -65.34,0 -65.34,-130.7 -65.35,-392.05 -588.11,-1176.16 -588.11,-1241.51l522.76 -392.06z"/>
  <rect class="fil1" x="4903.88" y="5603.3" width="4060.08" height="551.27"/>
  <rect class="fil1" x="4903.88" y="7230.58" width="4060.08" height="551.27"/>
  <path class="fil5" d="M3775.11 7577.48c0,0 132.79,232.39 232.39,431.59 132.8,-265.59 166,-298.8 331.99,-564.38l33.2 -33.2 232.4 -199.2 0 33.2c-199.19,265.6 -232.4,298.81 -398.4,663.99 -33.19,99.6 -99.6,331.98 -132.78,365.19l-232.4 199.19c-33.2,0 -33.2,0 -33.2,-66.4 -33.2,-199.2 -298.79,-597.59 -298.79,-630.79l265.59 -199.19z"/>
 </g>
</svg>
