<?xml version="1.0" encoding="UTF-8"?>
<!DOCTYPE svg PUBLIC "-//W3C//DTD SVG 1.1//EN" "http://www.w3.org/Graphics/SVG/1.1/DTD/svg11.dtd">
<!-- Creator: CorelDRAW 2017 -->
<svg xmlns="http://www.w3.org/2000/svg" xml:space="preserve" width="118.533mm" height="118.533mm" version="1.1" style="shape-rendering:geometricPrecision; text-rendering:geometricPrecision; image-rendering:optimizeQuality; fill-rule:evenodd; clip-rule:evenodd"
viewBox="0 0 11853.32 11853.32"
 xmlns:xlink="http://www.w3.org/1999/xlink">
 <defs>
  <style type="text/css">
   <![CDATA[
    .str1 {stroke:#4D4D4D;stroke-width:42.33;stroke-miterlimit:22.9256}
    .str0 {stroke:black;stroke-width:20;stroke-miterlimit:22.9256}
    .fil0 {fill:none}
    .fil3 {fill:black}
    .fil4 {fill:#1A1A1A}
    .fil16 {fill:#1A1A1A}
    .fil12 {fill:#58595B}
    .fil7 {fill:#660066}
    .fil8 {fill:#666666}
    .fil11 {fill:#939598}
    .fil6 {fill:#990000}
    .fil13 {fill:#B3B3B3}
    .fil10 {fill:#BCBDC0}
    .fil9 {fill:#BD0006}
    .fil14 {fill:#CC3300}
    .fil2 {fill:#FCD5A6}
    .fil5 {fill:red}
    .fil15 {fill:#FFDD00}
    .fil1 {fill:white}
   ]]>
  </style>
   <clipPath id="id0">
    <path d="M5714.58 5064.76l103.03 0 0 -25.64 -103.03 0 0 25.64z"/>
   </clipPath>
   <clipPath id="id1">
    <path d="M5714.58 5006.37l64.26 0 0 -25.64 -64.26 0 0 25.64z"/>
   </clipPath>
 </defs>
 <g id="Layer_x0020_1">
  <metadata id="CorelCorpID_0Corel-Layer"/>
  <path class="fil0" d="M5838.77 7646.87l704.76 0 -6560.12 0m5829.03 0l764.03 0 -6593.06 0m5829.03 0l790.37 0 -6619.4 0m5829.03 0l816.7 0 -6645.73 0m5802.67 0l0 -26.34 876 0 0 26.34 -876 0m0 -26.34l902.35 0 -6705.03 0m5802.68 0l928.69 0 -6731.36 0m5769.74 0l987.96 0 -6757.71 0m5769.75 0l0 -26.34 1020.9 0 0 26.34 -1020.9 0m0 -26.34l1020.9 0 -6790.64 0m5743.4 0l1047.24 0 -6790.64 0m5743.4 0l1047.24 0 -6790.64 0m5743.4 0l1047.24 0 -6790.64 0m5717.05 0l0 -32.93 1073.58 0 0 32.93 -1073.58 0"/>
  <path class="fil0" d="M5245.98 9517.42l0 -32.93 1528.07 0 0 32.93 -1528.07 0m0 -32.93l1528.07 0 -6790.64 0m5262.57 0l1528.07 0 -6790.64 0m5229.66 0l1560.98 0 -6790.64 0m5229.66 0l1560.98 0 -6790.64 0m5229.66 0l0 -26.34 1560.98 0 0 26.34 -1560.98 0m-26.35 -26.35l1587.32 0 -6790.64 0m5203.32 0l1587.32 0 -6790.64 0m5176.97 0l1613.68 0 -6790.64 0m5176.96 0l1613.68 0 -6790.64 0m5176.96 0l0 -26.34 1613.68 0 0 26.34 -1613.68 0m-26.35 -26.34l1640.03 0 -6790.64 0m5150.61 0l1640.03 0 -6790.64 0m5150.61 0l1640.03 0 -6790.64 0m5117.68 0l1672.95 0 -6790.64 0m5117.69 0l0 -32.93 1672.95 0 0 32.93 -1672.95 0m0 -32.93l1672.95 0 -6790.64 0m5091.34 0l1699.31 0 -6790.64 0m5091.33 0l1699.31 0 -6790.64 0m5064.99 0l1725.65 0 -6790.64 0m5064.99 0l0 -26.35 1725.65 0 0 26.35 -1725.65 0m0 -26.36l1725.65 0 -6790.64 0m5032.06 0l1758.57 0 -6790.64 0m5032.07 0l1758.57 0 -6790.64 0m5032.07 0l1758.57 0 -6790.64 0m5005.71 0l0 -26.33 1784.94 0 0 26.33 -1784.94 0m0 -26.33l1784.94 0 -6790.64 0m4979.37 0l1811.27 0 -6790.64 0m4979.37 0l1811.27 0 -6790.64 0m4979.37 0l1811.27 0 -6790.64 0m4953.02 0l0 -26.34 1837.61 0 0 26.34 -1837.61 0m0 -26.34l1837.61 0 -6790.64 0m4953.03 0l1837.61 0 -6790.64 0m4953.03 0l0 -32.94 1837.61 0 0 32.94 -1837.61 0m0 -32.94l1837.61 0 -6790.64 0m4953.03 0l1837.61 0 -6790.64 0m4953.03 0l1837.61 0 -6790.64 0m4979.38 0l0 -26.35 1811.27 0 0 26.35 -1811.27 0"/>
  <path class="fil0" d="M4962.78 9286.9l0 -26.35 1811.27 0 0 26.35 -1811.27 0m0 -26.35l1811.27 0 -6790.64 0m4979.37 0l1811.27 0 -6790.64 0m4979.37 0l0 -26.35 1811.27 0 0 26.35 -1811.27 0"/>
  <path class="fil0" d="M4989.11 9260.55l0 -26.35 1784.94 0 0 26.35 -1784.94 0m0 -26.35l1784.94 0 -6790.64 0m5005.7 0l1784.94 0 -6790.64 0m5005.7 0l0 -32.92 1784.94 0 0 32.92 -1784.94 0m0 -32.93l1784.94 0 -6790.64 0m5032.06 0l1758.57 0 -6790.64 0m5032.07 0l1758.57 0 -6790.64 0m5032.07 0l0 -26.34 1758.57 0 0 26.34 -1758.57 0m0 -26.34l1758.57 0 -6790.64 0m5032.07 0l1758.57 0 -6790.64 0m5065 0l1725.65 0 -6790.64 0m5064.99 0l0 -26.36 1725.65 0 0 26.36 -1725.65 0m0 -26.36l1725.65 0 -6790.64 0m5064.99 0l1725.65 0 -6790.64 0m5064.99 0l1725.65 0 -6790.64 0m5091.33 0l0 -26.34 1699.31 0 0 26.34 -1699.31 0m0 -26.35l1699.31 0 -6790.64 0m5091.33 0l1699.31 0 -6790.64 0m5091.33 0l1699.31 0 -6790.64 0m5091.33 0l0 -32.92 1699.31 0 0 32.92 -1699.31 0m26.35 -32.92l1672.95 0 -6790.64 0m5117.69 0l1672.95 0 -6790.64 0m5117.69 0l0 -26.34 1672.95 0 0 26.34 -1672.95 0m0 -26.34l1672.95 0 -6790.64 0m5117.69 0l1672.95 0 -6790.64 0m5150.62 0l1640.03 0 -6790.64 0m5150.61 0l0 -26.36 1640.03 0 0 26.36 -1640.03 0m0 -26.37l1640.03 0 -6790.64 0m5150.61 0l1640.03 0 -6790.64 0m5150.61 0l1640.03 0 -6790.64 0m5176.96 0l0 -32.92 1613.68 0 0 32.92 -1613.68 0m0 -32.92l1613.68 0 -6790.64 0m5176.96 0l1613.68 0 -6790.64 0m5176.96 0l1613.68 0 -6790.64 0m5176.96 0l0 -26.34 1613.68 0 0 26.34 -1613.68 0m26.35 -26.34l1587.32 0 -6790.64 0m5203.32 0l1587.32 0 -6790.64 0m5203.32 0l0 -26.34 1587.32 0 0 26.34 -1587.32 0"/>
  <path class="fil0" d="M5186.72 8977.33l0 -26.34 1587.32 0 0 26.34 -1587.32 0m0 -26.35l1587.32 0 -6790.64 0m5229.67 0l1560.98 0 -6790.64 0m5229.66 0l0 -32.93 1560.98 0 0 32.93 -1560.98 0"/>
  <path class="fil0" d="M5213.07 8950.98l0 -32.93 1560.98 0 0 32.93 -1560.98 0m0 -32.93l1560.98 0 -6790.64 0m5229.66 0l1560.98 0 -6790.64 0"/>
  <path class="fil0" d="M5213.07 7304.37l0 -26.34 1560.98 0 0 26.34 -1560.98 0m0 -26.34l1560.98 0 -6790.64 0m6250.55 0l507.16 0 -6757.71 0m6250.55 0l507.16 0 -6757.71 0m6250.55 0l480.82 0 -6731.36 0m6250.54 0l0 -26.35 480.82 0 0 26.35 -480.82 0m0 -26.35l480.82 0 -6731.36 0m6250.54 0l454.48 0 -6705.03 0m6250.55 0l454.48 0 -6705.03 0m6250.55 0l454.48 0 -6705.03 0m6250.55 0l0 -26.33 428.13 0 0 26.33 -428.13 0m0 -26.34l428.13 0 -6678.68 0m6250.55 0l428.13 0 -6678.68 0m6250.55 0l395.19 0 -6645.73 0m6250.54 0l395.19 0 -6645.73 0m6250.54 0l0 -32.94 368.85 0 0 32.94 -368.85 0m0 -32.94l368.85 0 -6619.4 0m6250.55 0l368.85 0 -6619.4 0m6250.55 0l342.51 0 -6593.06 0m6250.55 0l342.51 0 -6593.06 0m6250.55 0l0 -26.33 342.51 0 0 26.33 -342.51 0m0 -26.33l309.58 0 -6560.12 0m6250.54 0l309.58 0 -6560.12 0m6250.54 0l283.22 0 -6533.77 0m6250.55 0l283.22 0 -6533.77 0m6250.55 0l0 -26.35 283.22 0 0 26.35 -283.22 0m0 -26.35l283.22 0 -6533.77 0m6250.55 0l256.88 0 -6507.43 0m6250.55 0l256.88 0 -6507.43 0m6250.55 0l230.54 0 -6481.08 0m6250.54 0l0 -32.94 230.54 0 0 32.94 -230.54 0m0 -32.94l230.54 0 -6481.08 0m6250.54 0l197.6 0 -6448.15 0m6250.55 0l197.6 0 -6448.15 0m6250.55 0l197.6 0 -6448.15 0m6250.55 0l0 -26.34 171.25 0 0 26.34 -171.25 0"/>
  <path class="fil0" d="M6293.24 7534.91l0 -26.35 480.81 0 0 26.35 -480.81 0m0 -26.35l480.81 0 -6790.64 0m6309.83 0l480.81 0 -6790.64 0m6336.18 0l0 -32.93 454.46 0 0 32.93 -454.46 0"/>
  <path class="fil0" d="M6319.59 7508.56l0 -32.93 454.46 0 0 32.93 -454.46 0m0 -32.94l454.46 0 -6790.64 0m6336.18 0l454.46 0 -6790.64 0m6336.18 0l0 -26.34 454.46 0 0 26.34 -454.46 0"/>
  <path class="fil0" d="M6345.93 7475.62l0 -26.34 428.12 0 0 26.34 -428.12 0m0 -26.34l428.12 0 -6790.64 0m6362.52 0l428.12 0 -6790.64 0m6362.52 0l0 -26.34 428.12 0 0 26.34 -428.12 0m0 -26.34l428.12 0 -6790.64 0m6395.45 0l395.19 0 -6790.64 0m6395.45 0l395.19 0 -6790.64 0m6395.45 0l0 -32.93 395.19 0 0 32.93 -395.19 0m0 -32.94l395.19 0 -6790.64 0m6395.45 0l395.19 0 -6790.64 0m6421.8 0l368.84 0 -6790.64 0m6421.8 0l0 -26.35 368.84 0 0 26.35 -368.84 0m0 -26.35l368.84 0 -6790.64 0m6421.8 0l368.84 0 -6790.64 0m6421.8 0l368.84 0 -6790.64 0m6421.8 0l335.91 0 -6757.71 0m6448.15 0l0 -26.34 309.56 0 0 26.34 -309.56 0m0 -26.34l309.56 0 -6757.71 0m6448.15 0l283.21 0 -6731.36 0m6448.15 0l283.21 0 -6731.36 0m6448.15 0l283.21 0 -6731.36 0m6448.15 0l0 -32.93 256.88 0 0 32.93 -256.88 0m0 -32.94l256.88 0 -6705.03 0m6481.08 0l223.95 0 -6705.03 0m6481.08 0l197.59 0 -6678.68 0m6481.09 0l197.59 0 -6678.68 0m6481.09 0l0 -26.34 197.59 0 0 26.34 -197.59 0m0 -26.34l164.65 0 -6645.73 0m6481.08 0l164.65 0 -6645.73 0m6481.08 0l138.32 0 -6619.4 0m6507.43 0l111.97 0 -6619.4 0m6507.43 0l0 -26.35 111.97 0 0 26.35 -111.97 0m0 -26.35l85.63 0 -6593.06 0m6507.43 0l85.63 0 -6593.06 0m6507.43 0l85.63 0 -6593.06 0m6507.43 0l52.7 0 -6560.12 0m6533.76 0l0 -26.33 26.35 0 0 26.33 -26.35 0"/>
  <path class="fil0" d="M5700.46 7594.19l0 -32.93 1073.58 0 0 32.93 -1073.58 0m0 -32.94l1073.58 0 -6790.64 0m5684.13 0l1106.52 0 -6790.64 0m5684.12 0l1106.52 0 -6790.64 0m5684.12 0l0 -26.34 1106.52 0 0 26.34 -1106.52 0"/>
  <path class="fil0" d="M5641.18 7561.25l0 -26.34 1132.87 0 0 26.34 -1132.87 0m0 -26.34l1132.87 0 -6790.64 0m5657.77 0l1132.87 0 -6790.64 0m5631.42 0l1159.21 0 -6790.64 0m5631.43 0l0 -26.35 1159.21 0 0 26.35 -1159.21 0"/>
  <path class="fil0" d="M5272.34 7337.31l0 -32.93 1501.7 0 0 32.93 -1501.7 0m-26.36 -32.94l1528.07 0 -6790.64 0m5262.57 0l1528.07 0 -6790.64 0m5262.57 0l1528.07 0 -6790.64 0m5229.66 0l0 -26.34 1560.98 0 0 26.34 -1560.98 0"/>
  <path class="fil0" d="M6233.96 7106.78l0 -26.34 171.25 0 0 26.34 -171.25 0m0 -26.34l144.91 0 -6395.45 0m6250.54 0l144.91 0 -6395.45 0m6250.54 0l144.91 0 -6395.45 0m6250.54 0l0 -26.34 111.97 0 0 26.34 -111.97 0"/>
  <path class="fil0" d="M6233.96 7080.44l0 -26.34 111.97 0 0 26.34 -111.97 0m0 -26.35l111.97 0 -6362.52 0m6250.55 0l85.63 0 -6336.18 0m6250.55 0l85.63 0 -6336.18 0m6250.55 0l0 -26.35 85.63 0 0 26.35 -85.63 0"/>
  <path class="fil0" d="M6233.96 7054.09l0 -26.35 59.28 0 0 26.35 -59.28 0m0 -26.35l59.28 0 -6309.82 0m6250.54 0l26.35 0 -6276.9 0m6250.55 0l26.35 0 -6276.9 0m6250.55 0l26.35 0 -6276.9 0"/>
  <rect class="fil1" x="5549.42" y="3881.08" width="3230.51" height="4715.84"/>
  <path class="fil2" d="M7205.94 29.62c1066.2,0 1930.39,864.31 1930.39,1930.58 0,1066.11 -864.19,1930.42 -1930.39,1930.42 -83.97,0 -166.7,-5.38 -247.87,-15.78 -949.1,-121.66 -1682.6,-932.48 -1682.6,-1914.64 0,-1066.31 864.26,-1930.56 1930.47,-1930.58z"/>
  <path class="fil3" d="M7205.94 29.62c871.33,0 1607.49,577.34 1847.63,1370.26 33.95,387.56 -1975.41,-191.91 -2464.79,-946.53 -103.67,133.6 -1014.91,855.89 -1215.58,898.96 254.73,-768.47 978.9,-1322.67 1832.74,-1322.69z"/>
  <path class="fil4" d="M4929.7 4270.79l599.28 15.46 1670.39 4042.29 1618.17 -4026.65 9.13 -12.56 -2.78 -3.84 0.03 -0.06 618.75 -14.64c412.04,-9.81 749.25,349.09 749.25,775.65l0 4084.77 -6011.57 0 0 -4084.81c0,-426.68 337.45,-786.07 749.42,-775.61l-0.02 0 -0.01 0 -0.02 0 0 0 -0.01 0 -0.01 0z"/>
  <ellipse class="fil3 str0" cx="7173.47" cy="7105.26" rx="51.77" ry="58.27"/>
  <polygon class="fil5" points="7160.54,4483.68 6144.49,4044.78 6241.38,5118.05 7104.5,4653.09 "/>
  <polygon class="fil5" points="7074.14,4458.33 8106.53,4097.13 8053.8,5143.94 7020.8,4606.81 "/>
  <rect class="fil6" x="6996.57" y="4336.84" width="291.38" height="404.03"/>
  <polygon class="fil1 str1" points="4649.03,5001.54 5555.27,3784.61 6627.53,7017.52 6312.57,6739.2 "/>
  <polygon class="fil1 str1" points="5270.43,6153.97 6021.33,5363.99 7025.08,8099.14 6684.44,7742.97 "/>
  <ellipse class="fil3 str0" cx="7120.65" cy="5654.58" rx="55.64" ry="58.27"/>
  <path class="fil6" d="M7025.78 4336.83l256.79 0c15.55,0 28.13,9.31 28.13,20.77l0 211.59c0,11.47 -12.58,20.76 -28.13,20.76l-256.79 0c-15.53,0 -28.13,-9.29 -28.13,-20.76l0 -211.59c0,-11.46 12.6,-20.77 28.13,-20.77z"/>
  <polygon class="fil1 str1" points="9794.11,4937.72 8817.61,3836.42 7736.36,7055.05 8052.7,6751.91 "/>
  <polygon class="fil1 str1" points="9165.31,6267.02 8317.38,5381.94 7347.95,8121.32 7623.51,7879.64 "/>
  <ellipse class="fil3 str0" cx="7120.65" cy="6386.54" rx="55.64" ry="58.27"/>
  <rect class="fil4" x="4180.28" y="9047.47" width="6008.37" height="1011.66"/>
  <polygon class="fil7" points="385.56,6618.99 1555.13,5043.97 3262.7,9363.56 2358.24,10096.48 "/>
  <path class="fil8" d="M1526.81 7375.04l0 67.56 146.41 0 0 371.64c-146.41,0 -146.41,-78.84 -225.24,67.57 -67.56,78.83 0,78.83 -146.41,157.66 -67.56,0 0,-78.84 -67.56,0l146.41 0 0 67.57c67.56,0 67.56,78.83 67.56,78.83 78.83,0 0,0 78.83,-78.83 0,0 78.84,0 78.84,-67.57 67.57,0 146.4,-78.84 146.4,-78.84 146.4,-146.4 213.97,-146.4 360.37,-146.4 0,-78.84 0,-78.84 78.85,-78.84l0 78.84 78.82 0 67.56 67.57 0 -67.57 78.85 0 0 67.57c-78.85,78.83 -146.41,157.66 -78.85,304.06 146.42,0 0,0 78.85,-78.84 67.57,78.84 0,0 0,78.84 0,146.4 67.57,67.56 67.57,225.23l-67.57 -78.83 0 -78.84c-225.23,-213.96 -304.06,0 -304.06,0l0 78.84c-67.57,78.83 -67.57,0 -67.57,78.83 0,67.57 0,67.57 67.57,67.57l1193.73 1779.34c146.4,-78.83 371.64,-292.81 518.04,-371.63l1036.06 0 664.45 -2004.58 -1036.06 0c-518.05,-67.57 -664.45,0 -889.68,-213.97l-1036.07 -1036.08c-146.39,67.56 -743.26,518.05 -957.25,664.45l-78.84 78.83 0 0 0 0 -0.01 0.02z"/>
  <polygon class="fil9" points="558.31,5077.66 6121.55,5077.66 6121.55,11733.26 558.31,11733.26 "/>
  <g>
  </g>
  <g style="clip-path:url(#id0)">
   <g>
   </g>
  </g>
  <polygon class="fil0" points="5714.58,5064.76 5817.61,5064.76 5817.61,5039.12 5714.58,5039.12 "/>
  <polygon class="fil0" points="5714.58,5064.76 5817.61,5064.76 5817.61,5039.12 5714.58,5039.12 "/>
  <polygon class="fil0" points="5714.58,5064.76 5817.61,5064.76 5817.61,5039.12 5714.58,5039.12 "/>
  <polygon class="fil0" points="5714.58,5064.76 5817.61,5064.76 5817.61,5039.12 5714.58,5039.12 "/>
  <polygon class="fil0" points="5714.58,5064.76 5817.61,5064.76 5817.61,5039.12 5714.58,5039.12 "/>
  <polygon class="fil0" points="5714.58,5064.76 5817.61,5064.76 5817.61,5039.12 5714.58,5039.12 "/>
  <g>
  </g>
  <g style="clip-path:url(#id1)">
   <g>
   </g>
  </g>
  <polygon class="fil0" points="5714.58,5006.37 5778.84,5006.37 5778.84,4980.73 5714.58,4980.73 "/>
  <polygon class="fil0" points="5714.58,5006.37 5778.84,5006.37 5778.84,4980.73 5714.58,4980.73 "/>
  <polygon class="fil0" points="5714.58,5006.37 5778.84,5006.37 5778.84,4980.73 5714.58,4980.73 "/>
  <polygon class="fil0" points="5714.58,5006.37 5778.84,5006.37 5778.84,4980.73 5714.58,4980.73 "/>
  <polygon class="fil0" points="5714.58,5006.37 5778.84,5006.37 5778.84,4980.73 5714.58,4980.73 "/>
  <polygon class="fil0" points="5714.58,5006.37 5778.84,5006.37 5778.84,4980.73 5714.58,4980.73 "/>
  <polygon class="fil10" points="783.52,5224.07 5963.89,5224.07 5963.89,11519.3 783.52,11519.3 "/>
  <polygon class="fil1" points="1301.57,5595.69 5445.84,5595.69 5445.84,11068.82 1301.57,11068.82 "/>
  <polygon class="fil11" points="2044.84,5077.66 4713.85,5077.66 4713.85,5742.11 2044.84,5742.11 "/>
  <polygon class="fil12" points="3970.58,5077.66 3970.58,4852.44 2709.3,4852.44 2709.3,5077.66 2044.84,5077.66 2044.84,5145.24 4713.85,5145.24 4713.85,5077.66 "/>
  <polygon class="fil13" points="2044.84,6778.18 2337.64,6406.52 2484.05,6327.71 1966.02,7070.98 1752.04,6631.77 1898.44,6552.94 "/>
  <path class="fil13" d="M2641.71 7296.2l2286.12 0 0 292.81 -2286.12 0 0 -292.81zm0 743.27l2286.12 0 0 292.8 -2286.12 0 0 -292.8zm0 731.98l2286.12 0 0 304.07 -2286.12 0 0 -304.07zm0 743.27l2286.12 0 0 292.81 -2286.12 0 0 -292.81zm0 743.25l2286.12 0 0 292.82 -2286.12 0 0 -292.82zm0 -3705.03l2286.12 0 0 292.8 -2286.12 0 0 -292.8z"/>
  <polygon class="fil13" points="2044.84,7498.92 2337.64,7127.28 2484.05,7048.44 1966.02,7791.73 1752.04,7352.52 1898.44,7273.68 "/>
  <polygon class="fil13" points="2044.84,8208.4 2337.64,7836.77 2484.05,7769.19 1966.02,8512.45 1752.04,8061.99 1898.44,7994.43 "/>
  <polygon class="fil13" points="2044.84,8929.11 2337.64,8557.5 2484.05,8489.92 1966.02,9221.91 1752.04,8782.72 1898.44,8703.89 "/>
  <polygon class="fil14" points="2044.84,9649.87 2337.64,9278.25 2484.05,9199.4 1966.02,9942.67 1752.04,9503.47 1898.44,9424.64 "/>
  <polygon class="fil13" points="2044.84,10370.6 2337.64,9998.98 2484.05,9920.15 1966.02,10663.4 1752.04,10224.2 1898.44,10145.38 "/>
  <g>
   <rect class="fil15 str0" transform="matrix(0.428634 0.528577 -0.528577 0.428634 4852.98 7304.37)" width="677.33" height="3759.2"/>
   <polygon class="fil16 str0" points="2865.95,8915.7 3141.76,9255.82 2459.57,9512.3 "/>
   <rect class="fil15 str0" transform="matrix(0.428634 0.528577 -0.528577 0.428634 4852.98 7304.37)" width="338.67" height="3759.2"/>
  </g>
 </g>
</svg>
