<?xml version="1.0" encoding="UTF-8"?>
<!DOCTYPE svg PUBLIC "-//W3C//DTD SVG 1.1//EN" "http://www.w3.org/Graphics/SVG/1.1/DTD/svg11.dtd">
<!-- Creator: CorelDRAW 2017 -->
<svg xmlns="http://www.w3.org/2000/svg" xml:space="preserve" width="118.533mm" height="118.533mm" version="1.1" style="shape-rendering:geometricPrecision; text-rendering:geometricPrecision; image-rendering:optimizeQuality; fill-rule:evenodd; clip-rule:evenodd"
viewBox="0 0 11853.32 11853.32"
 xmlns:xlink="http://www.w3.org/1999/xlink">
 <defs>
  <style type="text/css">
   <![CDATA[
    .fil1 {fill:none}
    .fil3 {fill:black}
    .fil4 {fill:#2B2A29}
    .fil0 {fill:#6699FF}
    .fil6 {fill:#990099}
    .fil13 {fill:#993366}
    .fil10 {fill:#99CCCC}
    .fil8 {fill:#CC33FF}
    .fil5 {fill:#CC66FF}
    .fil11 {fill:#CC99CC}
    .fil2 {fill:#FCD5A6}
    .fil9 {fill:#FF3399}
    .fil15 {fill:#FF6600}
    .fil12 {fill:#FF6666}
    .fil7 {fill:#FF6699}
    .fil14 {fill:yellow}
   ]]>
  </style>
 </defs>
 <g id="Layer_x0020_1">
  <metadata id="CorelCorpID_0Corel-Layer"/>
  <path class="fil0" d="M3084.79 5405.97l736.6 0 1542.88 1758.04 1562.78 -1758.04 776.41 0c467.85,0 856.06,349.94 856.06,791.53l0 4574.25c0,441.59 -388.21,791.53 -856.06,791.53l-4618.67 0c-477.8,0 -856.06,-349.94 -856.06,-791.53l0 -4574.25c0,-441.59 378.26,-791.53 856.06,-791.53z"/>
  <path class="fil1" d="M8822.77 12254.9l0 -40.95 1900.26 0 0 40.95 -1900.26 0m0 -40.95l1900.26 0 -8444.68 0m6544.42 0l1900.26 0 -8444.68 0m6503.47 0l1941.21 0 -8444.68 0m6503.47 0l1941.21 0 -8444.68 0m6503.47 0l0 -32.76 1941.21 0 0 32.76 -1941.21 0m-32.77 -32.77l1973.97 0 -8444.68 0m6470.71 0l1973.97 0 -8444.68 0m6437.95 0l2006.74 0 -8444.68 0m6437.94 0l2006.74 0 -8444.68 0m6437.94 0l0 -32.76 2006.74 0 0 32.76 -2006.74 0m-32.76 -32.76l2039.5 0 -8444.68 0m6405.18 0l2039.5 0 -8444.68 0m6405.18 0l2039.5 0 -8444.68 0m6364.22 0l2080.45 0 -8444.68 0m6364.23 0l0 -40.95 2080.45 0 0 40.95 -2080.45 0m0 -40.95l2080.45 0 -8444.68 0m6331.47 0l2113.22 0 -8444.68 0m6331.46 0l2113.22 0 -8444.68 0m6298.7 0l2145.98 0 -8444.68 0m6298.7 0l0 -32.76 2145.98 0 0 32.76 -2145.98 0m0 -32.77l2145.98 0 -8444.68 0m6257.74 0l2186.93 0 -8444.68 0m6257.75 0l2186.93 0 -8444.68 0m6257.75 0l2186.93 0 -8444.68 0m6224.99 0l0 -32.76 2219.7 0 0 32.76 -2219.7 0m0 -32.76l2219.7 0 -8444.68 0m6192.22 0l2252.46 0 -8444.68 0m6192.22 0l2252.46 0 -8444.68 0m6192.22 0l2252.46 0 -8444.68 0m6159.45 0l0 -32.76 2285.22 0 0 32.76 -2285.22 0m0 -32.76l2285.22 0 -8444.68 0m6159.46 0l2285.22 0 -8444.68 0m6159.46 0l0 -40.95 2285.22 0 0 40.95 -2285.22 0m0 -40.96l2285.22 0 -8444.68 0m6159.46 0l2285.22 0 -8444.68 0m6159.46 0l2285.22 0 -8444.68 0m6192.23 0l0 -32.76 2252.46 0 0 32.76 -2252.46 0"/>
  <path class="fil1" d="M8470.57 11968.22l0 -32.76 2252.46 0 0 32.76 -2252.46 0m0 -32.76l2252.46 0 -8444.68 0m6192.22 0l2252.46 0 -8444.68 0m6192.22 0l0 -32.76 2252.46 0 0 32.76 -2252.46 0"/>
  <path class="fil1" d="M8749.05 11583.26l0 -32.76 1973.97 0 0 32.76 -1973.97 0m0 -32.77l1973.97 0 -8444.68 0m6503.48 0l1941.21 0 -8444.68 0m6503.47 0l0 -40.95 1941.21 0 0 40.95 -1941.21 0"/>
  <path class="fil2" d="M5422.61 129.48c1313.93,0 2329.25,1005.36 2329.25,2418.83 0,1313.93 -1015.32,2428.79 -2329.25,2428.79 -1413.47,0 -2428.79,-1114.86 -2428.79,-2428.79 0,-1413.47 1015.32,-2418.83 2428.79,-2418.83z"/>
  <path class="fil3" d="M5422.61 129.48c1015.31,0 2020.68,706.73 2219.75,1712.09 109.5,507.66 -2418.84,-298.62 -3026.02,-1214.39 -408.12,537.52 -1313.93,1114.86 -1513.02,1114.86 298.62,-905.82 1204.43,-1612.55 2319.29,-1612.55l0 0 0 -0.01z"/>
  <path class="fil4" d="M4875.14 647.09c905.82,856.05 2259.56,1303.97 2627.86,1075.03 -995.4,-9.95 -2090.34,-597.25 -2627.86,-1075.03z"/>
  <path class="fil4" d="M5024.45 547.56c726.65,686.82 1811.64,1035.22 2110.25,856.05 -796.32,0 -1672.28,-477.8 -2110.25,-856.05z"/>
  <path class="fil4" d="M4586.48 607.27c-418.07,477.8 -1045.18,796.33 -1224.34,726.65 467.84,-89.59 975.5,-457.89 1224.34,-726.65z"/>
  <g id="_643725632">
   <rect class="fil5" x="1656.86" y="10582.06" width="7478.91" height="1347.47"/>
   <rect class="fil6" x="2624.51" y="8909.03" width="5552.67" height="1673.03"/>
   <rect class="fil7" x="1656.86" y="10582.06" width="7478.91" height="445.51"/>
   <rect class="fil8" x="2624.51" y="8909.03" width="5552.67" height="415.55"/>
   <rect class="fil9" x="3434.75" y="7914.25" width="4000.87" height="994.78"/>
   <rect class="fil10" x="3434.73" y="7914.25" width="4000.87" height="299.69"/>
   <rect class="fil11" x="4541.72" y="6621.04" width="2002.83" height="1293.21"/>
   <rect class="fil12" x="4541.72" y="6621.04" width="2002.83" height="260.12"/>
   <rect class="fil13" x="1937.14" y="9311.28" width="140.25" height="1329.57"/>
   <rect class="fil14" x="1939.94" y="8873.7" width="137.44" height="437.58"/>
   <rect class="fil15" x="1939.94" y="9092.49" width="137.44" height="218.79"/>
   <rect class="fil1" x="1412.7" y="6313.56" width="7506.04" height="5249.72"/>
   <rect class="fil13" x="3022.35" y="9311.28" width="140.25" height="1329.57"/>
   <rect class="fil14" x="3025.15" y="8873.7" width="137.44" height="437.58"/>
   <rect class="fil15" x="3025.15" y="9092.49" width="137.44" height="218.79"/>
   <rect class="fil13" x="4017.13" y="9311.28" width="140.25" height="1329.57"/>
   <rect class="fil14" x="4019.94" y="8873.7" width="137.44" height="437.58"/>
   <rect class="fil15" x="4019.93" y="9092.49" width="137.44" height="218.79"/>
   <rect class="fil13" x="5011.91" y="9311.28" width="140.25" height="1329.57"/>
   <rect class="fil14" x="5014.71" y="8873.7" width="137.44" height="437.58"/>
   <rect class="fil15" x="5014.71" y="9092.49" width="137.44" height="218.79"/>
   <rect class="fil13" x="6097.12" y="9311.28" width="140.25" height="1329.57"/>
   <rect class="fil14" x="6099.92" y="8873.7" width="137.44" height="437.58"/>
   <rect class="fil15" x="6099.92" y="9092.49" width="137.44" height="218.79"/>
   <rect class="fil13" x="7091.96" y="9311.28" width="140.25" height="1329.57"/>
   <rect class="fil14" x="7094.76" y="8873.7" width="137.44" height="437.58"/>
   <rect class="fil15" x="7094.76" y="9092.49" width="137.44" height="218.79"/>
   <rect class="fil13" x="8177.1" y="9220.84" width="140.25" height="1329.57"/>
   <rect class="fil14" x="8179.91" y="8783.26" width="137.44" height="437.58"/>
   <rect class="fil15" x="8179.9" y="9002.05" width="137.44" height="218.79"/>
   <rect class="fil13" x="3926.7" y="6778.27" width="140.25" height="1329.57"/>
   <rect class="fil14" x="3929.5" y="6340.69" width="137.44" height="437.58"/>
   <rect class="fil15" x="3929.5" y="6559.48" width="137.44" height="218.79"/>
   <rect class="fil13" x="4921.47" y="6778.27" width="140.25" height="1329.57"/>
   <rect class="fil14" x="4924.27" y="6340.69" width="137.44" height="437.58"/>
   <rect class="fil15" x="4924.27" y="6559.48" width="137.44" height="218.79"/>
   <rect class="fil13" x="5735.38" y="6778.27" width="140.25" height="1329.57"/>
   <rect class="fil14" x="5738.18" y="6340.69" width="137.44" height="437.58"/>
   <rect class="fil15" x="5738.18" y="6559.48" width="137.44" height="218.79"/>
   <rect class="fil13" x="6639.72" y="6778.27" width="140.25" height="1329.57"/>
   <rect class="fil14" x="6642.53" y="6340.69" width="137.44" height="437.58"/>
   <rect class="fil15" x="6642.52" y="6559.48" width="137.44" height="218.79"/>
   <rect class="fil13" x="5554.58" y="5332.16" width="140.25" height="1329.57"/>
   <rect class="fil14" x="5557.38" y="4894.58" width="137.44" height="437.58"/>
   <rect class="fil15" x="5557.38" y="5113.37" width="137.44" height="218.79"/>
  </g>
 </g>
</svg>
