<?xml version="1.0" encoding="UTF-8"?>
<!DOCTYPE svg PUBLIC "-//W3C//DTD SVG 1.1//EN" "http://www.w3.org/Graphics/SVG/1.1/DTD/svg11.dtd">
<!-- Creator: CorelDRAW 2017 -->
<svg xmlns="http://www.w3.org/2000/svg" xml:space="preserve" width="118.533mm" height="118.533mm" version="1.1" style="shape-rendering:geometricPrecision; text-rendering:geometricPrecision; image-rendering:optimizeQuality; fill-rule:evenodd; clip-rule:evenodd"
viewBox="0 0 11853.32 11853.32"
 xmlns:xlink="http://www.w3.org/1999/xlink">
 <defs>
  <style type="text/css">
   <![CDATA[
    .str0 {stroke:black;stroke-width:20;stroke-miterlimit:22.9256}
    .fil8 {fill:none}
    .fil2 {fill:black}
    .fil4 {fill:#00CCFF}
    .fil3 {fill:#2B2A29}
    .fil6 {fill:#33CC33}
    .fil0 {fill:#4D4D4D}
    .fil14 {fill:#663333}
    .fil9 {fill:#990099}
    .fil12 {fill:#99CCCC}
    .fil15 {fill:#CC6633}
    .fil13 {fill:#CCCCFF}
    .fil1 {fill:#FCD5A6}
    .fil5 {fill:#FF0066}
    .fil11 {fill:#FF3399}
    .fil10 {fill:#FF6699}
    .fil7 {fill:#FFCC00}
    .fil16 {fill:#FFFF66}
   ]]>
  </style>
 </defs>
 <g id="Layer_x0020_1">
  <metadata id="CorelCorpID_0Corel-Layer"/>
  <path class="fil0" d="M3853.5 5430.29l774.47 0 1622.19 1848.42 1643.12 -1848.42 816.33 0c491.9,0 900.06,367.94 900.06,832.22l0 4809.39c0,464.29 -408.16,832.23 -900.06,832.23l-4856.1 0c-502.37,0 -900.06,-367.94 -900.06,-832.23l0 -4809.39c0,-464.28 397.69,-832.22 900.06,-832.22l-0.01 0z"/>
  <path class="fil1" d="M6364.33 97.76c1381.48,0 2448.98,1057.04 2448.98,2543.18 0,1381.48 -1067.5,2553.64 -2448.98,2553.64 -1486.14,0 -2553.65,-1172.16 -2553.65,-2553.64 0,-1486.14 1067.51,-2543.18 2553.65,-2543.18z"/>
  <path class="fil2" d="M6364.33 97.76c1067.51,0 2124.55,743.06 2333.86,1800.1 115.12,533.76 -2543.18,-313.97 -3181.58,-1276.81 -429.09,565.14 -1381.47,1172.16 -1590.79,1172.16 313.97,-952.38 1266.35,-1695.44 2438.52,-1695.44l0 0 0 -0.01 -0.01 0z"/>
  <path class="fil3" d="M5788.72 641.98c952.38,900.05 2375.71,1371.01 2762.95,1130.29 -1046.58,-10.46 -2197.8,-627.95 -2762.95,-1130.29z"/>
  <path class="fil3" d="M5945.71 537.32c764,722.14 1904.76,1088.45 2218.72,900.07 -837.25,0 -1758.24,-502.36 -2218.72,-900.07z"/>
  <path class="fil3" d="M5485.21 600.12c-439.55,502.36 -1098.9,837.25 -1287.28,764 491.9,-94.19 1025.66,-481.43 1287.28,-764z"/>
  <ellipse class="fil4" cx="9963.86" cy="677.71" rx="1127.71" ry="1793.88"/>
  <ellipse class="fil5" cx="10862.99" cy="255.37" rx="899.12" ry="1728.57"/>
  <ellipse class="fil6" cx="10484.44" cy="2692.04" rx="838.42" ry="1726.39"/>
  <ellipse class="fil7" cx="11676.56" cy="1929.52" rx="930.23" ry="1674.14"/>
  <path class="fil8 str0" d="M11884.02 3711.58c143.93,530.18 -408.79,4028.91 -580.65,4656.91 -361.73,1321.87 -246.58,2149.42 -246.58,2140.72 0,-2266.35 28.8,-6966.5 29.3,-6938.75l75.15 264.12"/>
  <path class="fil8 str0" d="M10412.33 4302.82c-436.65,681.97 -106.78,3463.13 641.44,4492.18 257.6,354.29 477.19,1228.48 125.48,1496.58"/>
  <g id="_643714232">
   <rect class="fil4" x="482.58" y="10407.9" width="11473.69" height="1733.3"/>
   <rect class="fil9" x="976.15" y="7942.08" width="10270.32" height="2465.82"/>
   <rect class="fil10" x="482.58" y="10407.9" width="11473.69" height="573.08"/>
   <rect class="fil11" x="2474.78" y="6148.35" width="7400.07" height="1839.97"/>
   <rect class="fil12" x="2474.76" y="6062.71" width="7400.07" height="554.32"/>
   <rect class="fil13" x="4522.26" y="4741.34" width="3704.48" height="1321.34"/>
   <rect class="fil14 str0" x="1310.57" y="8262.41" width="315.42" height="1239.17" rx="157.72" ry="157.72"/>
   <rect class="fil14 str0" x="2197.73" y="8262.41" width="315.42" height="1848.22" rx="157.72" ry="235.23"/>
   <rect class="fil14 str0" x="2986.3" y="8262.41" width="275.28" height="1081.46" rx="137.64" ry="137.64"/>
   <rect class="fil14 str0" x="3972.01" y="8262.41" width="157.72" height="1239.17" rx="78.86" ry="157.72"/>
   <rect class="fil14 str0" x="5450.58" y="8262.41" width="315.42" height="1239.17" rx="157.72" ry="157.72"/>
   <rect class="fil14 str0" x="5943.44" y="8262.41" width="315.42" height="1239.17" rx="157.72" ry="157.72"/>
   <rect class="fil14 str0" x="4662.01" y="8262.41" width="315.42" height="1239.17" rx="157.72" ry="157.72"/>
   <rect class="fil14 str0" x="6830.58" y="8262.41" width="315.42" height="1239.17" rx="157.72" ry="157.72"/>
   <rect class="fil14 str0" x="7579.69" y="8189.91" width="315.42" height="1239.17" rx="157.72" ry="157.72"/>
   <rect class="fil14 str0" x="8466.84" y="8189.9" width="315.42" height="1848.22" rx="157.72" ry="235.23"/>
   <rect class="fil14 str0" x="9255.42" y="8189.91" width="275.28" height="1081.46" rx="137.64" ry="137.64"/>
   <rect class="fil14 str0" x="10241.13" y="8189.91" width="157.72" height="1239.17" rx="78.86" ry="157.72"/>
   <rect class="fil14 str0" x="10931.13" y="8189.91" width="315.42" height="1239.17" rx="157.72" ry="157.72"/>
   <rect class="fil14" x="976.15" y="7942.07" width="10270.4" height="867.42"/>
   <rect class="fil15" x="1645.73" y="6246.64" width="276" height="1734.86"/>
   <path class="fil16" d="M1724.69 5259.02l39.44 256.29c9.89,64.28 120.05,91.21 120.05,156.25l0 512.57c0,65.03 -284.34,-83.95 -238.34,-37.97l118.29 118.29c45.99,45.99 -118.29,-53.23 -118.29,-118.29l0 -512.57c0,-65.06 68.96,-438.84 78.85,-374.57z"/>
   <rect class="fil15" x="3222.86" y="6148.06" width="276" height="1734.86"/>
   <path class="fil16" d="M3301.82 5160.45l39.44 256.28c9.89,64.29 120.05,91.22 120.05,156.25l0 512.58c0,65.03 -284.34,-83.96 -238.34,-37.97l118.29 118.29c46,45.98 -118.29,-53.23 -118.29,-118.29l0 -512.57c0,-65.06 68.96,-438.85 78.85,-374.57z"/>
   <rect class="fil15" x="5095.72" y="6167.8" width="276" height="1734.86"/>
   <path class="fil16" d="M5174.68 5061.89l39.43 256.28c9.9,64.29 120.06,91.21 120.06,156.25l0 512.57c0,65.04 -284.34,-83.95 -238.34,-37.96l118.28 118.28c46,45.99 -118.28,-53.23 -118.28,-118.28l0 -512.58c0,-65.05 68.96,-438.84 78.85,-374.56z"/>
   <rect class="fil15" x="6948.84" y="6148.06" width="276" height="1734.86"/>
   <path class="fil16" d="M7027.8 5160.45l39.44 256.28c9.89,64.29 120.05,91.22 120.05,156.25l0 512.58c0,65.03 -284.34,-83.96 -238.34,-37.97l118.29 118.29c46,45.98 -118.29,-53.23 -118.29,-118.29l0 -512.57c0,-65.06 68.96,-438.85 78.85,-374.57z"/>
   <rect class="fil15" x="6948.84" y="6148.06" width="276" height="1734.86"/>
   <path class="fil16" d="M7027.8 5160.45l39.44 256.28c9.89,64.29 120.05,91.22 120.05,156.25l0 512.58c0,65.03 -284.34,-83.96 -238.34,-37.97l118.29 118.29c46,45.98 -118.29,-53.23 -118.29,-118.29l0 -512.57c0,-65.06 68.96,-438.85 78.85,-374.57z"/>
   <rect class="fil15" x="6948.84" y="6148.06" width="276" height="1734.86"/>
   <path class="fil16" d="M7027.8 5160.45l39.44 256.28c9.89,64.29 120.05,91.22 120.05,156.25l0 512.58c0,65.03 -284.34,-83.96 -238.34,-37.97l118.29 118.29c46,45.98 -118.29,-53.23 -118.29,-118.29l0 -512.57c0,-65.06 68.96,-438.85 78.85,-374.57z"/>
   <rect class="fil15" x="6948.84" y="6148.06" width="276" height="1734.86"/>
   <path class="fil16" d="M7027.8 5160.45l39.44 256.28c9.89,64.29 120.05,91.22 120.05,156.25l0 512.58c0,65.03 -284.34,-83.96 -238.34,-37.97l118.29 118.29c46,45.98 -118.29,-53.23 -118.29,-118.29l0 -512.57c0,-65.06 68.96,-438.85 78.85,-374.57z"/>
   <rect class="fil15" x="6948.84" y="6148.06" width="276" height="1734.86"/>
   <path class="fil16" d="M7027.8 5160.45l39.44 256.28c9.89,64.29 120.05,91.22 120.05,156.25l0 512.58c0,65.03 -284.34,-83.96 -238.34,-37.97l118.29 118.29c46,45.98 -118.29,-53.23 -118.29,-118.29l0 -512.57c0,-65.06 68.96,-438.85 78.85,-374.57z"/>
   <rect class="fil15" x="6948.84" y="6148.06" width="276" height="1734.86"/>
   <path class="fil16" d="M7027.8 5160.45l39.44 256.28c9.89,64.29 120.05,91.22 120.05,156.25l0 512.58c0,65.03 -284.34,-83.96 -238.34,-37.97l118.29 118.29c46,45.98 -118.29,-53.23 -118.29,-118.29l0 -512.57c0,-65.06 68.96,-438.85 78.85,-374.57z"/>
   <rect class="fil15" x="6948.84" y="6148.06" width="276" height="1734.86"/>
   <path class="fil16" d="M7027.8 5160.45l39.44 256.28c9.89,64.29 120.05,91.22 120.05,156.25l0 512.58c0,65.03 -284.34,-83.96 -238.34,-37.97l118.29 118.29c46,45.98 -118.29,-53.23 -118.29,-118.29l0 -512.57c0,-65.06 68.96,-438.85 78.85,-374.57z"/>
   <rect class="fil15" x="6948.84" y="6148.06" width="276" height="1734.86"/>
   <path class="fil16" d="M7027.8 5160.45l39.44 256.28c9.89,64.29 120.05,91.22 120.05,156.25l0 512.58c0,65.03 -284.34,-83.96 -238.34,-37.97l118.29 118.29c46,45.98 -118.29,-53.23 -118.29,-118.29l0 -512.57c0,-65.06 68.96,-438.85 78.85,-374.57z"/>
   <rect class="fil15" x="6948.84" y="6148.06" width="276" height="1734.86"/>
   <path class="fil16" d="M7027.8 5160.45l39.44 256.28c9.89,64.29 120.05,91.22 120.05,156.25l0 512.58c0,65.03 -284.34,-83.96 -238.34,-37.97l118.29 118.29c46,45.98 -118.29,-53.23 -118.29,-118.29l0 -512.57c0,-65.06 68.96,-438.85 78.85,-374.57z"/>
   <rect class="fil15" x="6948.84" y="6148.06" width="276" height="1734.86"/>
   <path class="fil16" d="M7027.8 5160.45l39.44 256.28c9.89,64.29 120.05,91.22 120.05,156.25l0 512.58c0,65.03 -284.34,-83.96 -238.34,-37.97l118.29 118.29c46,45.98 -118.29,-53.23 -118.29,-118.29l0 -512.57c0,-65.06 68.96,-438.85 78.85,-374.57z"/>
   <rect class="fil15" x="6948.84" y="6148.06" width="276" height="1734.86"/>
   <path class="fil16" d="M7027.8 5160.45l39.44 256.28c9.89,64.29 120.05,91.22 120.05,156.25l0 512.58c0,65.03 -284.34,-83.96 -238.34,-37.97l118.29 118.29c46,45.98 -118.29,-53.23 -118.29,-118.29l0 -512.57c0,-65.06 68.96,-438.85 78.85,-374.57z"/>
   <rect class="fil15" x="6948.84" y="6148.06" width="276" height="1734.86"/>
   <path class="fil16" d="M7027.8 5160.45l39.44 256.28c9.89,64.29 120.05,91.22 120.05,156.25l0 512.58c0,65.03 -284.34,-83.96 -238.34,-37.97l118.29 118.29c46,45.98 -118.29,-53.23 -118.29,-118.29l0 -512.57c0,-65.06 68.96,-438.85 78.85,-374.57z"/>
   <rect class="fil15" x="6948.84" y="6148.06" width="276" height="1734.86"/>
   <path class="fil16" d="M7027.8 5160.45l39.44 256.28c9.89,64.29 120.05,91.22 120.05,156.25l0 512.58c0,65.03 -284.34,-83.96 -238.34,-37.97l118.29 118.29c46,45.98 -118.29,-53.23 -118.29,-118.29l0 -512.57c0,-65.06 68.96,-438.85 78.85,-374.57z"/>
   <rect class="fil15" x="6948.84" y="6148.06" width="276" height="1734.86"/>
   <path class="fil16" d="M7027.8 5160.45l39.44 256.28c9.89,64.29 120.05,91.22 120.05,156.25l0 512.58c0,65.03 -284.34,-83.96 -238.34,-37.97l118.29 118.29c46,45.98 -118.29,-53.23 -118.29,-118.29l0 -512.57c0,-65.06 68.96,-438.85 78.85,-374.57z"/>
   <rect class="fil15" x="6948.84" y="6148.06" width="276" height="1734.86"/>
   <path class="fil16" d="M7027.8 5160.45l39.44 256.28c9.89,64.29 120.05,91.22 120.05,156.25l0 512.58c0,65.03 -284.34,-83.96 -238.34,-37.97l118.29 118.29c46,45.98 -118.29,-53.23 -118.29,-118.29l0 -512.57c0,-65.06 68.96,-438.85 78.85,-374.57z"/>
   <rect class="fil15" x="6948.84" y="6148.06" width="276" height="1734.86"/>
   <path class="fil16" d="M7027.8 5160.45l39.44 256.28c9.89,64.29 120.05,91.22 120.05,156.25l0 512.58c0,65.03 -284.34,-83.96 -238.34,-37.97l118.29 118.29c46,45.98 -118.29,-53.23 -118.29,-118.29l0 -512.57c0,-65.06 68.96,-438.85 78.85,-374.57z"/>
   <rect class="fil15" x="6948.84" y="6148.06" width="276" height="1734.86"/>
   <path class="fil16" d="M7027.8 5160.45l39.44 256.28c9.89,64.29 120.05,91.22 120.05,156.25l0 512.58c0,65.03 -284.34,-83.96 -238.34,-37.97l118.29 118.29c46,45.98 -118.29,-53.23 -118.29,-118.29l0 -512.57c0,-65.06 68.96,-438.85 78.85,-374.57z"/>
   <rect class="fil15" x="6948.84" y="6148.06" width="276" height="1734.86"/>
   <path class="fil16" d="M7027.8 5160.45l39.44 256.28c9.89,64.29 120.05,91.22 120.05,156.25l0 512.58c0,65.03 -284.34,-83.96 -238.34,-37.97l118.29 118.29c46,45.98 -118.29,-53.23 -118.29,-118.29l0 -512.57c0,-65.06 68.96,-438.85 78.85,-374.57z"/>
   <rect class="fil15" x="6948.84" y="6148.06" width="276" height="1734.86"/>
   <path class="fil16" d="M7027.8 5160.45l39.44 256.28c9.89,64.29 120.05,91.22 120.05,156.25l0 512.58c0,65.03 -284.34,-83.96 -238.34,-37.97l118.29 118.29c46,45.98 -118.29,-53.23 -118.29,-118.29l0 -512.57c0,-65.06 68.96,-438.85 78.85,-374.57z"/>
   <rect class="fil15" x="6948.84" y="6148.06" width="276" height="1734.86"/>
   <path class="fil16" d="M7027.8 5160.45l39.44 256.28c9.89,64.29 120.05,91.22 120.05,156.25l0 512.58c0,65.03 -284.34,-83.96 -238.34,-37.97l118.29 118.29c46,45.98 -118.29,-53.23 -118.29,-118.29l0 -512.57c0,-65.06 68.96,-438.85 78.85,-374.57z"/>
   <rect class="fil15" x="6948.84" y="6148.06" width="276" height="1734.86"/>
   <path class="fil16" d="M7027.8 5160.45l39.44 256.28c9.89,64.29 120.05,91.22 120.05,156.25l0 512.58c0,65.03 -284.34,-83.96 -238.34,-37.97l118.29 118.29c46,45.98 -118.29,-53.23 -118.29,-118.29l0 -512.57c0,-65.06 68.96,-438.85 78.85,-374.57z"/>
   <rect class="fil15" x="6948.84" y="6148.06" width="276" height="1734.86"/>
   <path class="fil16" d="M7027.8 5160.45l39.44 256.28c9.89,64.29 120.05,91.22 120.05,156.25l0 512.58c0,65.03 -284.34,-83.96 -238.34,-37.97l118.29 118.29c46,45.98 -118.29,-53.23 -118.29,-118.29l0 -512.57c0,-65.06 68.96,-438.85 78.85,-374.57z"/>
   <rect class="fil15" x="6948.84" y="6148.06" width="276" height="1734.86"/>
   <path class="fil16" d="M7027.8 5160.45l39.44 256.28c9.89,64.29 120.05,91.22 120.05,156.25l0 512.58c0,65.03 -284.34,-83.96 -238.34,-37.97l118.29 118.29c46,45.98 -118.29,-53.23 -118.29,-118.29l0 -512.57c0,-65.06 68.96,-438.85 78.85,-374.57z"/>
   <rect class="fil15" x="6948.84" y="6148.06" width="276" height="1734.86"/>
   <path class="fil16" d="M7027.8 5160.45l39.44 256.28c9.89,64.29 120.05,91.22 120.05,156.25l0 512.58c0,65.03 -284.34,-83.96 -238.34,-37.97l118.29 118.29c46,45.98 -118.29,-53.23 -118.29,-118.29l0 -512.57c0,-65.06 68.96,-438.85 78.85,-374.57z"/>
   <rect class="fil15" x="6948.84" y="6148.06" width="276" height="1734.86"/>
   <path class="fil16" d="M7027.8 5160.45l39.44 256.28c9.89,64.29 120.05,91.22 120.05,156.25l0 512.58c0,65.03 -284.34,-83.96 -238.34,-37.97l118.29 118.29c46,45.98 -118.29,-53.23 -118.29,-118.29l0 -512.57c0,-65.06 68.96,-438.85 78.85,-374.57z"/>
   <rect class="fil15" x="10359.42" y="6264.89" width="276" height="1734.86"/>
   <path class="fil16" d="M10438.38 5277.28l39.44 256.28c9.89,64.29 120.05,91.22 120.05,156.25l0 512.58c0,65.03 -284.34,-83.96 -238.34,-37.97l118.29 118.29c46,45.98 -118.29,-53.23 -118.29,-118.29l0 -512.57c0,-65.06 68.96,-438.85 78.85,-374.57z"/>
   <rect class="fil15" x="8663.99" y="6186.02" width="276" height="1734.86"/>
   <path class="fil16" d="M8742.96 5198.4l39.43 256.28c9.89,64.29 120.05,91.22 120.05,156.25l0 512.58c0,65.03 -284.34,-83.95 -238.34,-37.97l118.29 118.29c46,45.99 -118.29,-53.23 -118.29,-118.29l0 -512.57c0,-65.06 68.96,-438.84 78.86,-374.57z"/>
  </g>
 </g>
</svg>
