<svg xmlns="http://www.w3.org/2000/svg" width="1920" height="1334" viewBox="0 0 1920 1334" xmlns:xlink="http://www.w3.org/1999/xlink" shape-rendering="geometricPrecision" text-rendering="geometricPrecision" image-rendering="optimizeQuality" fill-rule="evenodd" clip-rule="evenodd"><defs><style>.str0{stroke:#e6e6e6;stroke-width:7.38193}.str2{stroke:#4d4d4d;stroke-width:4.99963}.str1{stroke:#000;stroke-width:2.36222}.fil1{fill:none}.fil4{fill:#c4c5c5}.fil5{fill:#5c5b5b}.fil13,.fil7{fill:#000}.fil6,.fil15{fill:#1a1a1a}.fil12{fill:#333}.fil16{fill:#606}.fil11,.fil8{fill:#666}.fil2{fill:#693}.fil10{fill:#900}.fil0{fill:#e6e6e6}.fil17,.fil9{fill:red}.fil14,.fil3{fill:#fff}.fil18{fill:#000;fill-rule:nonzero}</style><clipPath id="id0"><path d="M1015 475h5.954v1.374H1015z"/></clipPath><clipPath id="id1"><path d="M1016 474h5.954v1.375H1016z"/></clipPath><clipPath id="id2"><path d="M1018 474v-1h4v1h-4z"/></clipPath><clipPath id="id3"><path d="M1018 471h5.954v1.374H1018z"/></clipPath><clipPath id="id4"><path d="M1019 470h5.954v1.374H1019z"/></clipPath><clipPath id="id5"><path d="M1020 469h5.954v1.374H1020z"/></clipPath><clipPath id="id6"><path d="M1021 470v-2h5v2h-5z"/></clipPath><clipPath id="id7"><path d="M1021 467h5.954v1.374H1021z"/></clipPath><clipPath id="id8"><path d="M849 479v-2h6v2h-6z"/></clipPath><clipPath id="id9"><path d="M1022 466h5.953v1.375H1022z"/></clipPath><clipPath id="id10"><path d="M1023 466v-1h5v1h-5z"/></clipPath><clipPath id="id11"><path d="M1024 463h3.664v1.374H1024z"/></clipPath><clipPath id="id12"><path d="M849 476v-2h3v2h-3z"/></clipPath><clipPath id="id13"><path d="M1024 464v-2h3v2h-3z"/></clipPath><clipPath id="id14"><path d="M1024 461h1.375v1.374H1024z"/></clipPath><clipPath id="id15"><path d="M1023 461v-2h2v2h-2z"/></clipPath><clipPath id="id16"><path d="M1022 458h1.374v1.374H1022z"/></clipPath><clipPath id="id17"><path d="M1007 485v-1h-7v1h7z"/></clipPath><clipPath id="id18"><path d="M1007 484v-3h-6v3h6z"/></clipPath><clipPath id="id19"><path d="M1007 482v-2h-4v2h4z"/></clipPath></defs><g id="Слой_x0020_1"><path class="fil0" d="M947 26l119 340 384-3-312 210 121 337-312-209-313 209 119-337-312-210 387 3z"/><path class="fil0" d="M1319 504h10.348v266.69H1319z"/><path class="fil0" d="M1284 457l88 66-13 18-90-59z"/><path class="fil0" d="M1303.18 469.015l13.33 8.13-19.696 32.296-13.33-8.13z"/><path class="fil1 str0" d="M1366 532c6-3 12 22 15 34 7 10-31 69-25 113 0 6-9 94 0 94"/><path class="fil2" d="M917 6l119 340 384-3-312 210 121 337-312-209-313 209 119-337-312-210 387 3z"/><path class="fil3" d="M859 416h129l35 25v251H827V434z"/><path class="fil4" d="M928 209c63 0 114 51 114 113 0 63-51 114-114 114s-114-51-114-114c0-62 51-113 114-113z"/><path class="fil5" d="M928 209c52 0 95 34 109 80 2 23-116-11-145-55-6 7-60 50-72 53 15-46 58-78 108-78z"/><g clip-path="url(#id0)"><image x="1015" y="475" width="5.954" height="1.374" xlink:href="Success_Images\Success_ImgID1.png"/></g><g clip-path="url(#id1)"><image x="1016" y="474" width="5.954" height="1.374" xlink:href="Success_Images\Success_ImgID2.png"/></g><g clip-path="url(#id2)"><image x="1017" y="473" width="5.038" height="1.374" xlink:href="Success_Images\Success_ImgID3.png"/></g><g clip-path="url(#id3)"><image x="1018" y="471" width="5.954" height="1.374" xlink:href="Success_Images\Success_ImgID4.png"/></g><g clip-path="url(#id4)"><image x="1019" y="470" width="5.954" height="1.374" xlink:href="Success_Images\Success_ImgID5.png"/></g><g clip-path="url(#id5)"><image x="1020" y="469" width="5.954" height="1.374" xlink:href="Success_Images\Success_ImgID6.png"/></g><g clip-path="url(#id6)"><image x="1021" y="468" width="5.038" height="1.374" xlink:href="Success_Images\Success_ImgID7.png"/></g><g clip-path="url(#id7)"><image x="1021" y="467" width="5.954" height="1.374" xlink:href="Success_Images\Success_ImgID8.png"/></g><g clip-path="url(#id8)"><image x="849" y="477" width="5.954" height="1.374" xlink:href="Success_Images\Success_ImgID9.png"/></g><g clip-path="url(#id9)"><image x="1022" y="466" width="5.954" height="1.374" xlink:href="Success_Images\Success_ImgID10.png"/></g><g clip-path="url(#id10)"><image x="1023" y="465" width="5.038" height="1.374" xlink:href="Success_Images\Success_ImgID11.png"/></g><g clip-path="url(#id11)"><image x="1024" y="463" width="3.664" height="1.374" xlink:href="Success_Images\Success_ImgID12.png"/></g><g clip-path="url(#id12)"><image x="849" y="474" width="3.664" height="1.374" xlink:href="Success_Images\Success_ImgID13.png"/></g><g clip-path="url(#id13)"><image x="1024" y="462" width="2.748" height="1.374" xlink:href="Success_Images\Success_ImgID14.png"/></g><g clip-path="url(#id14)"><image x="1024" y="461" width="1.374" height="1.374" xlink:href="Success_Images\Success_ImgID15.png"/></g><g clip-path="url(#id15)"><image x="1023" y="459" width="1.374" height="2.748" xlink:href="Success_Images\Success_ImgID16.png"/></g><g clip-path="url(#id16)"><image x="1022" y="458" width="1.374" height="1.374" xlink:href="Success_Images\Success_ImgID17.png"/></g><path class="fil6" d="M794 459l35 1 99 238 95-238h1l36-1c24-1 44 20 44 45v241H750V504c0-25 20-46 44-45z"/><circle class="fil7 str1" cx="926" cy="626" r="3"/><path class="fil8" d="M1024 625h58.012v7.634H1024z"/><path class="fil3" d="M1068 606l-14-15-30 34h56z"/><path class="fil9" d="M925 471l-59-26 5 64 51-28z"/><path class="fil9" d="M920 470l61-22-3 62-61-32z"/><path class="fil10" d="M916 463h17.18v23.823H916z"/><path class="fil11" d="M1161 506h9.16v236.075H1161z"/><path class="fil12" d="M1159 466l76 57-10 16-81-52z"/><circle class="fil13 str1" cx="1132" cy="462" r="27"/><path class="fil6" d="M1175.23 475.237l11.8 7.197-17.436 28.59-11.8-7.198z"/><path class="fil1 str1" d="M808 497c6-1 11 20 15 29 5 10-29 63-24 100 1 7-8 84 0 86"/><path class="fil12" d="M1157 640h19.847v52.447H1157z"/><path class="fil14 str2" d="M777 502l54-72 63 191-19-17z"/><path class="fil14 str2" d="M814 570l44-47 59 161-20-21z"/><g clip-path="url(#id17)"><image transform="matrix(-1.6402 0 0 1.52663 1006.39 483.56)" width="3.9" height=".9" xlink:href="Success_Images\Success_ImgID18.png"/></g><g clip-path="url(#id18)"><image transform="matrix(-1.6402 0 0 1.52663 1006.64 481.042)" width="3.3" height="1.8" xlink:href="Success_Images\Success_ImgID19.png"/></g><g clip-path="url(#id19)"><image transform="matrix(-1.6402 0 0 1.52663 1006.39 480.125)" width="2.4" height=".9" xlink:href="Success_Images\Success_ImgID20.png"/></g><circle class="fil7 str1" cx="923" cy="540" r="3"/><rect class="fil10" x="916" y="463" width="18.458" height="14.924" rx="2" ry="1"/><path class="fil14 str2" d="M1081 498l-58-65-64 190 19-18z"/><path class="fil14 str2" d="M1044 576l-50-52-57 162 16-15z"/><path class="fil15" d="M761 474l19 122-95 66-47-48z"/><path class="fil16" d="M565 562h128l38 183-128-1z"/><path class="fil17" d="M671 647l-13 13 9 17-16-10-12 13 2-18-16-10 18-1 2-19 8 17z"/><rect class="fil4" x="575" y="673" width="35.112" height="50.379" rx="13" ry="13"/><path class="fil18" d="M33 932h102v143h-15V945H47v130H33z"/><path id="1" class="fil18" d="M286 1075h-16l-48-111-48 111h-16l63-143h3z"/><path id="2" class="fil18" d="M369 932l67 143h-16l-22-47h-63l-22 47h-16l68-143h4zm-2 30l-25 52h49l-24-52z"/><path id="3" class="fil18" d="M444 946v-14h78v14h-32v129h-14V946z"/><path id="4" class="fil18" d="M543 932h82v14h-68v45h68v14h-68v56h68v14h-82z"/><path id="5" class="fil18" d="M733 1009v66h-14v-66l-4-4-59 70h-19l68-79-63-64h19l58 60v-60h14v60l58-60h19l-63 64 69 79h-19l-59-70z"/><path id="6" class="fil18" d="M882 932h16l43 98 40-98h16l-55 129c-5 12-14 18-27 18-5 0-10-1-15-3-4-2-10-7-17-15l10-9c8 7 12 11 15 12 2 1 5 2 7 2 4 0 7-1 10-3s6-7 9-15l-52-116z"/><path id="7" class="fil18" d="M1155 958l-11 9c-6-8-14-14-22-19-9-4-19-6-29-6-12 0-22 3-32 8-10 6-17 13-23 23-5 9-8 19-8 31 0 17 6 32 18 44 12 11 27 17 46 17 20 0 37-8 50-23l11 8c-7 9-16 16-26 21-11 5-23 8-36 8-25 0-45-8-60-25-12-14-18-31-18-51 0-21 7-39 22-53 15-15 33-22 56-22 13 0 25 3 36 8s20 13 26 22z"/><path id="8" class="fil18" d="M1184 932h102v143h-14V945h-74v130h-14z"/><path id="9" class="fil18" d="M1321 932h82v14h-67v45h67v14h-67v56h67v14h-82z"/><path id="10" class="fil18" d="M1442 1062h62V932h14v130h63V932h14v143h-167V932h14z"/><path id="11" class="fil18" d="M1630 932h14v60h73v-60h15v143h-15v-69h-73v69h-14z"/><path id="12" class="fil18" d="M1835 928c22 0 40 7 54 22 15 14 22 32 22 53s-7 39-22 54c-14 15-32 22-53 22s-39-7-54-22c-14-15-22-32-22-53 0-14 4-26 10-38 7-12 16-21 27-28 12-7 24-10 38-10zm0 14c-10 0-20 3-30 8-9 6-17 13-22 23-5 9-8 20-8 31 0 17 6 32 18 43 12 12 26 18 42 18 12 0 22-3 31-8 10-6 17-13 23-22 5-10 8-20 8-32 0-11-3-21-8-31-6-9-13-16-23-22-9-5-20-8-31-8z"/><path id="13" class="fil18" d="M464 1170h102v144h-14v-130h-74v130h-14z"/><path id="14" class="fil18" d="M601 1170h29c16 0 27 1 33 2 8 2 15 6 20 13 5 6 8 14 8 23 0 10-3 18-8 24s-12 10-21 12c-6 2-19 3-36 3h-11v67h-14v-144zm14 14v49h25c9 0 17-1 21-3 5-1 8-4 11-8s4-9 4-14-1-9-4-13-6-7-10-9c-5-1-12-2-21-2h-26z"/><path id="15" class="fil18" d="M788 1166c21 0 40 8 54 22 15 15 22 32 22 54 0 21-7 39-22 53-14 15-32 22-53 22s-39-7-54-22c-15-14-22-32-22-53 0-13 3-26 10-38s16-21 27-28c12-6 24-10 38-10zm0 14c-10 0-20 3-30 9-9 5-17 13-22 22s-8 20-8 31c0 17 6 32 18 44 11 11 26 17 42 17 12 0 22-3 31-8 10-5 17-13 23-22 5-9 7-20 7-31 0-12-2-22-7-31-6-9-13-17-23-22-10-6-20-9-31-9z"/><path id="16" class="fil18" d="M894 1170h28c11 0 20 1 26 4s11 7 15 12c3 6 5 12 5 19 0 6-2 12-5 17-3 6-7 10-13 13 7 3 13 6 17 9 4 4 7 8 9 13 2 4 4 10 4 15 0 12-5 22-13 30-9 8-20 12-34 12h-39v-144zm14 14v46h8c10 0 17-1 22-3s8-5 11-9 4-8 4-13c0-7-2-12-7-15-4-4-12-6-22-6h-16zm0 60v56h17c11 0 19-1 23-4 5-2 9-5 12-9 3-5 5-9 5-14 0-7-2-12-7-17-4-5-9-8-17-10-5-1-13-2-25-2h-8z"/><path id="17" class="fil18" d="M1008 1170h82v14h-67v45h67v14h-67v57h67v14h-82z"/><path id="18" class="fil18" d="M1115 1335h-14v-35h11l57-130h5l59 130h11v35h-14v-21h-115v21zm13-35h88l-45-100-43 100z"/><path id="19" class="fil18" d="M1265 1170h82v14h-68v45h68v14h-68v57h68v14h-82v-144zm21-34c4 0 6 1 8 3 3 3 4 5 4 8 0 4-1 6-4 8-2 3-4 4-8 4-3 0-5-1-8-4-2-2-3-4-3-8 0-3 1-5 3-8 3-2 5-3 8-3zm40 0c3 0 6 1 8 3 2 3 4 5 4 8 0 4-2 6-4 8-2 3-5 4-8 4s-5-1-8-4c-2-2-3-4-3-8 0-3 1-5 3-8 3-2 5-3 8-3z"/><path id="20" class="fil18" d="M1372 1170h14v60h73v-60h15v144h-15v-70h-73v70h-14z"/></g></svg>