<?xml version="1.0" encoding="UTF-8"?>
<!DOCTYPE svg PUBLIC "-//W3C//DTD SVG 1.1//EN" "http://www.w3.org/Graphics/SVG/1.1/DTD/svg11.dtd">
<!-- Creator: CorelDRAW 2017 -->
<svg xmlns="http://www.w3.org/2000/svg" xml:space="preserve" width="118.533mm" height="118.533mm" version="1.1" style="shape-rendering:geometricPrecision; text-rendering:geometricPrecision; image-rendering:optimizeQuality; fill-rule:evenodd; clip-rule:evenodd"
viewBox="0 0 11853.32 11853.32"
 xmlns:xlink="http://www.w3.org/1999/xlink">
 <defs>
  <style type="text/css">
   <![CDATA[
    .str1 {stroke:#4D4D4D;stroke-width:42.33;stroke-miterlimit:22.9256}
    .str0 {stroke:black;stroke-width:20;stroke-miterlimit:22.9256}
    .fil12 {fill:none}
    .fil3 {fill:#5B5B5B}
    .fil5 {fill:black}
    .fil11 {fill:black}
    .fil14 {fill:#1A1A1A}
    .fil4 {fill:#1A1A1A}
    .fil10 {fill:#333333}
    .fil6 {fill:#666666}
    .fil9 {fill:#666666}
    .fil8 {fill:#990000}
    .fil15 {fill:#9900CC}
    .fil0 {fill:#E6E6E6}
    .fil2 {fill:#FCD5A6}
    .fil7 {fill:red}
    .fil1 {fill:white}
    .fil13 {fill:white}
   ]]>
  </style>
   <clipPath id="id0">
    <rect x="7680.39" y="5657.6" width="93.15" height="21.5"/>
   </clipPath>
   <clipPath id="id1">
    <rect x="7698.3" y="5639.68" width="93.16" height="21.5"/>
   </clipPath>
   <clipPath id="id2">
    <rect x="7714.81" y="5621.21" width="77.15" height="23.64"/>
   </clipPath>
    <clipPath id="id3">
     <rect x="7714.81" y="5621.77" width="76.65" height="21.5"/>
    </clipPath>
   <clipPath id="id4">
    <rect x="7716.22" y="5603.86" width="93.15" height="21.49"/>
   </clipPath>
   <clipPath id="id5">
    <rect x="7734.13" y="5585.94" width="93.15" height="21.5"/>
   </clipPath>
   <clipPath id="id6">
    <rect x="7752.04" y="5568.03" width="93.16" height="21.49"/>
   </clipPath>
   <clipPath id="id7">
    <rect x="7768.44" y="5549.38" width="77.15" height="23.58"/>
   </clipPath>
    <clipPath id="id8">
     <rect x="7769.96" y="5550.11" width="75.64" height="21.5"/>
    </clipPath>
   <clipPath id="id9">
    <rect x="7769.96" y="5532.2" width="93.15" height="21.5"/>
   </clipPath>
   <clipPath id="id10">
    <rect x="5070.42" y="5697.04" width="95.04" height="23.64"/>
   </clipPath>
    <clipPath id="id11">
     <rect x="5073.18" y="5697.94" width="92.28" height="21.5"/>
    </clipPath>
   <clipPath id="id12">
    <rect x="7787.87" y="5514.28" width="93.16" height="21.5"/>
   </clipPath>
   <clipPath id="id13">
    <rect x="7804.18" y="5495.41" width="77.16" height="23.64"/>
   </clipPath>
    <clipPath id="id14">
     <rect x="7805.79" y="5496.37" width="75.55" height="21.5"/>
    </clipPath>
   <clipPath id="id15">
    <rect x="7823.7" y="5478.46" width="57.33" height="21.49"/>
   </clipPath>
   <clipPath id="id16">
    <rect x="5070.42" y="5643.18" width="59.27" height="23.64"/>
   </clipPath>
    <clipPath id="id17">
     <rect x="5073.18" y="5644.2" width="56.51" height="21.5"/>
    </clipPath>
   <clipPath id="id18">
    <rect x="7822.07" y="5459.53" width="41.41" height="23.64"/>
   </clipPath>
    <clipPath id="id19">
     <rect x="7822.07" y="5460.54" width="41.05" height="21.5"/>
    </clipPath>
   <clipPath id="id20">
    <rect x="7823.7" y="5442.63" width="21.5" height="21.49"/>
   </clipPath>
   <clipPath id="id21">
    <rect x="7804.18" y="5405.61" width="23.53" height="41.61"/>
   </clipPath>
    <clipPath id="id22">
     <rect x="7805.79" y="5405.61" width="21.5" height="40.6"/>
    </clipPath>
   <clipPath id="id23">
    <rect x="7787.87" y="5388.88" width="21.5" height="21.5"/>
   </clipPath>
   <clipPath id="id24">
    <rect x="7441.5" y="5791.94" width="102.12" height="23.64"/>
   </clipPath>
    <clipPath id="id25">
     <rect transform="matrix(-3.03104 -0 -0 2.82116 7540.65 5792.85)" width="32.71" height="7.62"/>
    </clipPath>
   <clipPath id="id26">
    <rect x="7460.72" y="5756" width="82.9" height="41.61"/>
   </clipPath>
    <clipPath id="id27">
     <rect transform="matrix(-3.03104 -0 -0 2.82116 7543.62 5756)" width="27.35" height="14.33"/>
    </clipPath>
   <clipPath id="id28">
    <rect x="7479.94" y="5738.09" width="63.68" height="23.64"/>
   </clipPath>
    <clipPath id="id29">
     <rect transform="matrix(-3.03104 -0 -0 2.82116 7540.65 5739.1)" width="20.03" height="7.62"/>
    </clipPath>
 </defs>
 <g id="Слой_x0020_1">
  <metadata id="CorelCorpID_0Corel-Layer"/>
  <circle class="fil0" cx="5888.57" cy="6058.32" r="5757.33"/>
  <rect class="fil1" x="4787.9" y="5043.65" width="2980.27" height="4350.53"/>
  <path class="fil2" d="M6316.1 1490.55c983.6,0 1780.83,797.34 1780.83,1781 0,983.51 -797.23,1780.85 -1780.83,1780.85 -77.47,0 -153.78,-4.96 -228.65,-14.55 -875.58,-112.23 -1552.26,-860.23 -1552.26,-1766.3 0,-983.69 797.31,-1780.98 1780.91,-1781z"/>
  <path class="fil3" d="M6316.1 1490.55c803.84,0 1482.95,532.6 1704.49,1264.1 31.32,357.53 -1822.36,-177.05 -2273.83,-873.2 -95.63,123.25 -936.28,789.58 -1121.41,829.31 235,-708.93 903.08,-1220.19 1690.75,-1220.21z"/>
  <g style="clip-path:url(#id0)">
   <image x="7680.39" y="5657.6" width="93.15" height="21.5" xlink:href="tamada_Images\tamada_ImgID1.png"/>
  </g>
  <g style="clip-path:url(#id1)">
   <image x="7698.3" y="5639.68" width="93.15" height="21.5" xlink:href="tamada_Images\tamada_ImgID2.png"/>
  </g>
  <g style="clip-path:url(#id2)">
   <image style="clip-path:url(#id3)" x="7712.63" y="5621.77" width="78.82" height="21.5" xlink:href="tamada_Images\tamada_ImgID3.png"/>
  </g>
  <g style="clip-path:url(#id4)">
   <image x="7716.22" y="5603.86" width="93.15" height="21.5" xlink:href="tamada_Images\tamada_ImgID4.png"/>
  </g>
  <g style="clip-path:url(#id5)">
   <image x="7734.13" y="5585.94" width="93.15" height="21.5" xlink:href="tamada_Images\tamada_ImgID5.png"/>
  </g>
  <g style="clip-path:url(#id6)">
   <image x="7752.04" y="5568.03" width="93.15" height="21.5" xlink:href="tamada_Images\tamada_ImgID6.png"/>
  </g>
  <g style="clip-path:url(#id7)">
   <image style="clip-path:url(#id8)" x="7769.96" y="5550.11" width="78.82" height="21.5" xlink:href="tamada_Images\tamada_ImgID7.png"/>
  </g>
  <g style="clip-path:url(#id9)">
   <image x="7769.96" y="5532.2" width="93.15" height="21.5" xlink:href="tamada_Images\tamada_ImgID8.png"/>
  </g>
  <g style="clip-path:url(#id10)">
   <image style="clip-path:url(#id11)" x="5073.18" y="5697.94" width="93.15" height="21.5" xlink:href="tamada_Images\tamada_ImgID9.png"/>
  </g>
  <g style="clip-path:url(#id12)">
   <image x="7787.87" y="5514.28" width="93.15" height="21.5" xlink:href="tamada_Images\tamada_ImgID10.png"/>
  </g>
  <g style="clip-path:url(#id13)">
   <image style="clip-path:url(#id14)" x="7805.79" y="5496.37" width="78.82" height="21.5" xlink:href="tamada_Images\tamada_ImgID11.png"/>
  </g>
  <g style="clip-path:url(#id15)">
   <image x="7823.7" y="5478.46" width="57.33" height="21.5" xlink:href="tamada_Images\tamada_ImgID12.png"/>
  </g>
  <g style="clip-path:url(#id16)">
   <image style="clip-path:url(#id17)" x="5073.18" y="5644.2" width="57.33" height="21.5" xlink:href="tamada_Images\tamada_ImgID13.png"/>
  </g>
  <g style="clip-path:url(#id18)">
   <image style="clip-path:url(#id19)" x="7820.12" y="5460.54" width="42.99" height="21.5" xlink:href="tamada_Images\tamada_ImgID14.png"/>
  </g>
  <g style="clip-path:url(#id20)">
   <image x="7823.7" y="5442.63" width="21.5" height="21.5" xlink:href="tamada_Images\tamada_ImgID15.png"/>
  </g>
  <g style="clip-path:url(#id21)">
   <image style="clip-path:url(#id22)" x="7805.79" y="5403.21" width="21.5" height="42.99" xlink:href="tamada_Images\tamada_ImgID16.png"/>
  </g>
  <g style="clip-path:url(#id23)">
   <image x="7787.87" y="5388.88" width="21.5" height="21.5" xlink:href="tamada_Images\tamada_ImgID17.png"/>
  </g>
  <path class="fil4" d="M4216.2 5403.19l552.86 14.25 1540.98 3729.19 1492.79 -3714.76 8.43 -11.59 -2.57 -3.54 0.03 -0.06 570.81 -13.49c380.12,-9.05 691.21,322.03 691.21,715.54l0 3768.38 -5545.89 0 0 -3768.41c0,-393.62 311.31,-725.17 691.35,-715.51z"/>
  <ellipse class="fil5 str0" cx="6286.15" cy="8018.06" rx="47.76" ry="53.74"/>
  <rect class="fil6" x="7814.84" y="8000.11" width="907.66" height="119.45"/>
  <polygon class="fil1" points="8510.02,7707.08 8292.57,7474.64 7814.86,8000.11 8698.64,8000.11 "/>
  <polygon class="fil7" points="6274.22,5599.59 5336.87,5194.68 5426.27,6184.81 6222.52,5755.87 "/>
  <polygon class="fil7" points="6194.51,5576.2 7146.92,5242.97 7098.27,6208.68 6145.3,5713.17 "/>
  <rect class="fil8" x="6122.97" y="5464.11" width="268.8" height="372.73"/>
  <rect class="fil9" x="9964.59" y="6145.7" width="143.32" height="3693.65"/>
  <polygon class="fil10" points="9924.08,5515.98 11118.15,6413.12 10963.67,6662.52 9689.39,5848.47 "/>
  <ellipse class="fil11 str0" cx="9499.17" cy="5461.19" rx="415.44" ry="426.29"/>
  <rect class="fil4" transform="matrix(1.92263 1.17259 -1.17259 1.92263 10182.2 5662.6)" width="96.03" height="232.65"/>
  <path class="fil12 str0" d="M11040.89 6537.17c92.14,-17.15 162.87,209.04 233.48,305.89 75.47,103.49 -448.08,657.12 -370.25,1051.81 14.73,74.58 -124.83,885.57 -7.98,901.13"/>
  <rect class="fil10" x="9892.92" y="8238.96" width="310.53" height="820.59"/>
  <polygon class="fil13 str1" points="3957.27,6077.32 4793.31,4954.66 5782.5,7937.12 5491.94,7680.37 "/>
  <polygon class="fil13 str1" points="4530.53,7140.47 5223.25,6411.71 6149.26,8934.97 5835,8606.38 "/>
  <g style="clip-path:url(#id24)">
   <image style="clip-path:url(#id25)" transform="matrix(-3.03104 -0 -0 2.82116 7540.65 5792.85)" x="0" y="0" width="33.02" height="7.62" xlink:href="tamada_Images\tamada_ImgID18.png"/>
  </g>
  <g style="clip-path:url(#id26)">
   <image style="clip-path:url(#id27)" transform="matrix(-3.03104 -0 -0 2.82116 7544.5 5753.43)" x="0" y="0" width="27.94" height="15.24" xlink:href="tamada_Images\tamada_ImgID19.png"/>
  </g>
  <g style="clip-path:url(#id28)">
   <image style="clip-path:url(#id29)" transform="matrix(-3.03104 -0 -0 2.82116 7540.65 5739.1)" x="0" y="0" width="20.32" height="7.62" xlink:href="tamada_Images\tamada_ImgID20.png"/>
  </g>
  <ellipse class="fil5 str0" cx="6237.44" cy="6679.78" rx="51.32" ry="53.74"/>
  <rect class="fil8" x="6123.96" y="5464.11" width="288.8" height="233.51" rx="25.95" ry="19.16"/>
  <polygon class="fil13 str1" points="8703.79,6018.44 7802.92,5002.46 6805.43,7971.74 7097.26,7692.09 "/>
  <polygon class="fil13 str1" points="8123.67,7244.77 7341.44,6428.26 6447.12,8955.44 6701.33,8732.47 "/>
  <polygon class="fil14" points="3695.7,5645.82 3993.1,7546.3 2517.74,8577.07 1774.87,7836.2 "/>
  <polygon class="fil15" points="639.24,7021.79 2631.21,7021.79 3228.76,9887.11 1232.45,9868.57 "/>
  <rect class="fil2" x="792.39" y="8764.48" width="549.37" height="788.23" rx="209.98" ry="209.98"/>
  <ellipse class="fil5 str0" cx="6237.44" cy="7355.02" rx="51.32" ry="53.74"/>
  <rect class="fil11 str0" x="3524.85" y="9887.11" width="5542.94" height="933.28"/>
 </g>
</svg>
