<?xml version="1.0" encoding="UTF-8"?>
<!DOCTYPE svg PUBLIC "-//W3C//DTD SVG 1.1//EN" "http://www.w3.org/Graphics/SVG/1.1/DTD/svg11.dtd">
<!-- Creator: CorelDRAW 2017 -->
<svg xmlns="http://www.w3.org/2000/svg" xml:space="preserve" width="132.417mm" height="118.533mm" version="1.1" style="shape-rendering:geometricPrecision; text-rendering:geometricPrecision; image-rendering:optimizeQuality; fill-rule:evenodd; clip-rule:evenodd"
viewBox="0 0 13241.74 11853.32"
 xmlns:xlink="http://www.w3.org/1999/xlink">
 <defs>
  <style type="text/css">
   <![CDATA[
    .str1 {stroke:#4D4D4D;stroke-width:42.33;stroke-miterlimit:22.9256}
    .str0 {stroke:black;stroke-width:20;stroke-miterlimit:22.9256}
    .str2 {stroke:#FFDD00;stroke-width:7.62;stroke-miterlimit:22.9256}
    .fil5 {fill:none}
    .fil2 {fill:black}
    .fil6 {fill:#1A1A1A}
    .fil0 {fill:#2792E4}
    .fil15 {fill:#58595B}
    .fil11 {fill:#660066}
    .fil18 {fill:#663300}
    .fil7 {fill:#666666}
    .fil14 {fill:#939598}
    .fil9 {fill:#990000}
    .fil17 {fill:#9900CC}
    .fil16 {fill:#B3B3B3}
    .fil13 {fill:#BCBDC0}
    .fil12 {fill:#BD0006}
    .fil21 {fill:#CC9933}
    .fil10 {fill:#CCCCCC}
    .fil22 {fill:#F5F11E}
    .fil1 {fill:#FCD5A6}
    .fil3 {fill:#FEFEFE}
    .fil8 {fill:red}
    .fil19 {fill:#FF6666}
    .fil20 {fill:#FFDD00}
    .fil4 {fill:white}
   ]]>
  </style>
   <clipPath id="id0">
    <path d="M11301.85 4163.5l77.23 0 0 -17.83 -77.23 0 0 17.83z"/>
   </clipPath>
   <clipPath id="id1">
    <path d="M11316.71 4148.66l77.22 0 0 -17.82 -77.22 0 0 17.82z"/>
   </clipPath>
   <clipPath id="id2">
    <path d="M11330.38 4135.12l63.97 0 0 -19.59 -63.97 0 0 19.59z"/>
   </clipPath>
   <clipPath id="id3">
    <path d="M11331.56 4118.95l77.22 0 0 -17.81 -77.22 0 0 17.81z"/>
   </clipPath>
   <clipPath id="id4">
    <path d="M11346.42 4104.1l77.19 0 0 -17.81 -77.19 0 0 17.81z"/>
   </clipPath>
   <clipPath id="id5">
    <path d="M11361.25 4089.25l77.23 0 0 -17.82 -77.23 0 0 17.82z"/>
   </clipPath>
   <clipPath id="id6">
    <path d="M11374.85 4075.51l63.95 0 0 -19.53 -63.95 0 0 19.53z"/>
   </clipPath>
   <clipPath id="id7">
    <path d="M11376.12 4059.56l77.21 0 0 -17.82 -77.21 0 0 17.82z"/>
   </clipPath>
   <clipPath id="id8">
    <path d="M11390.96 4044.69l77.2 0 0 -17.82 -77.2 0 0 17.82z"/>
   </clipPath>
   <clipPath id="id9">
    <path d="M11404.46 4030.84l63.98 0 0 -19.6 -63.98 0 0 19.6z"/>
   </clipPath>
   <clipPath id="id10">
    <path d="M11420.67 4015l47.49 0 0 -17.81 -47.49 0 0 17.81z"/>
   </clipPath>
   <clipPath id="id11">
    <path d="M11419.3 4001.1l34.33 0 0 -19.61 -34.33 0 0 19.61z"/>
   </clipPath>
   <clipPath id="id12">
    <path d="M11420.67 3985.31l17.81 0 0 -17.81 -17.81 0 0 17.81z"/>
   </clipPath>
   <clipPath id="id13">
    <path d="M11404.46 3971.29l19.52 0 0 -34.49 -19.52 0 0 34.49z"/>
   </clipPath>
   <clipPath id="id14">
    <path d="M11390.96 3940.75l17.82 0 0 -17.82 -17.82 0 0 17.82z"/>
   </clipPath>
   <clipPath id="id15">
    <path d="M11103.84 4276.62l84.65 0 0 -19.58 -84.65 0 0 19.58z"/>
   </clipPath>
   <clipPath id="id16">
    <path d="M11119.77 4261.73l68.72 0 0 -34.49 -68.72 0 0 34.49z"/>
   </clipPath>
   <clipPath id="id17">
    <path d="M11135.71 4232l52.78 0 0 -19.61 -52.78 0 0 19.61z"/>
   </clipPath>
   <clipPath id="id18">
    <path d="M8365.26 4110.01l66.52 0 0 -16.55 -66.52 0 0 16.55z"/>
   </clipPath>
   <clipPath id="id19">
    <path d="M8365.26 4072.32l41.47 0 0 -16.55 -41.47 0 0 16.55z"/>
   </clipPath>
 </defs>
 <g id="Layer_x0020_1">
  <metadata id="CorelCorpID_0Corel-Layer"/>
  <path class="fil0" d="M1772.29 4048.38l470.36 0 985.23 1341.19 997.94 -1341.19 495.81 0c298.75,0 546.64,266.97 546.64,603.84l0 3489.54c0,336.89 -247.89,603.84 -546.64,603.84l-2949.27 0c-305.12,0 -546.65,-266.95 -546.65,-603.84l0 -3489.54c0,-336.87 241.53,-603.84 546.65,-603.84l-0.01 0 -0.01 0 -0.01 0 -0.01 0 -0.01 0 -0.01 0 -0.01 0z"/>
  <path class="fil1" d="M3266.02 546.09c839.04,0 1487.39,641.99 1487.39,1544.6 0,839.03 -648.35,1550.95 -1487.39,1550.95 -902.6,0 -1550.94,-711.92 -1550.94,-1550.95 0,-902.61 648.34,-1544.6 1550.94,-1544.6z"/>
  <path class="fil2" d="M3266.02 546.09c648.34,0 1290.35,451.3 1417.45,1093.29 69.94,324.18 -1544.59,-190.69 -1932.31,-775.47 -260.61,343.25 -839.03,711.92 -966.17,711.92 190.7,-578.43 769.12,-1029.73 1481.03,-1029.73l0 0 0 -0.01z"/>
  <path class="fil2" d="M2916.42 876.63c578.44,546.65 1442.9,832.67 1678.08,686.49 -635.63,-6.38 -1334.83,-381.39 -1678.08,-686.49z"/>
  <path class="fil2" d="M3011.77 813.06c464.01,438.59 1156.85,661.06 1347.55,546.66 -508.51,0 -1067.88,-305.11 -1347.55,-546.66z"/>
  <path class="fil2" d="M2732.09 851.2c-266.95,305.12 -667.42,508.51 -781.82,464.02 298.75,-57.21 622.92,-292.4 781.82,-464.02z"/>
  <path class="fil3" d="M2535.05 3654.29l-343.25 400.44c63.57,273.32 95.35,591.13 266.96,692.82 241.55,-165.26 368.67,-413.15 737.35,-495.78 -235.18,-63.55 -413.16,-349.6 -661.06,-597.48z"/>
  <path class="fil3" d="M3933.38 3654.29l343.24 400.44c-63.55,273.32 -95.34,591.13 -266.97,692.82 -241.52,-165.26 -368.65,-413.15 -737.32,-495.78 235.19,-63.55 413.15,-349.6 661.05,-597.48z"/>
  <rect class="fil4" x="8904.24" y="3636.8" width="2470.38" height="3606.17"/>
  <path class="fil1" d="M10170.98 691.59c815.33,0 1476.17,660.93 1476.17,1476.33 0,815.24 -660.84,1476.18 -1476.17,1476.18 -64.2,0 -127.48,-4.1 -189.55,-12.07 -725.78,-93.03 -1286.68,-713.06 -1286.68,-1464.11 0,-815.42 660.9,-1476.31 1476.23,-1476.33z"/>
  <path class="fil2" d="M10170.98 691.59c666.31,0 1229.25,441.49 1412.9,1047.84 25.95,296.38 -1510.6,-146.75 -1884.85,-723.81 -79.27,102.16 -776.1,654.5 -929.54,687.44 194.79,-587.66 748.56,-1011.45 1401.49,-1011.47z"/>
  <g>
  </g>
  <g style="clip-path:url(#id0)">
   <g>
   </g>
  </g>
  <polygon class="fil5" points="11301.85,4163.5 11379.08,4163.5 11379.08,4145.67 11301.85,4145.67 "/>
  <polygon class="fil5" points="11301.85,4163.5 11379.08,4163.5 11379.08,4145.67 11301.85,4145.67 "/>
  <polygon class="fil5" points="11301.85,4163.5 11379.08,4163.5 11379.08,4145.67 11301.85,4145.67 "/>
  <polygon class="fil5" points="11301.85,4163.5 11379.08,4163.5 11379.08,4145.67 11301.85,4145.67 "/>
  <polygon class="fil5" points="11301.85,4163.5 11379.08,4163.5 11379.08,4145.67 11301.85,4145.67 "/>
  <polygon class="fil5" points="11301.85,4163.5 11379.08,4163.5 11379.08,4145.67 11301.85,4145.67 "/>
  <polygon class="fil5" points="11301.85,4163.5 11379.08,4163.5 11379.08,4145.67 11301.85,4145.67 "/>
  <polygon class="fil5" points="11301.85,4163.5 11379.08,4163.5 11379.08,4145.67 11301.85,4145.67 "/>
  <polygon class="fil5" points="11301.85,4163.5 11379.08,4163.5 11379.08,4145.67 11301.85,4145.67 "/>
  <polygon class="fil5" points="11301.85,4163.5 11379.08,4163.5 11379.08,4145.67 11301.85,4145.67 "/>
  <g>
  </g>
  <g style="clip-path:url(#id1)">
   <g>
   </g>
  </g>
  <polygon class="fil5" points="11316.71,4148.66 11393.93,4148.66 11393.93,4130.84 11316.71,4130.84 "/>
  <polygon class="fil5" points="11316.71,4148.66 11393.93,4148.66 11393.93,4130.84 11316.71,4130.84 "/>
  <polygon class="fil5" points="11316.71,4148.66 11393.93,4148.66 11393.93,4130.84 11316.71,4130.84 "/>
  <polygon class="fil5" points="11316.71,4148.66 11393.93,4148.66 11393.93,4130.84 11316.71,4130.84 "/>
  <polygon class="fil5" points="11316.71,4148.66 11393.93,4148.66 11393.93,4130.84 11316.71,4130.84 "/>
  <polygon class="fil5" points="11316.71,4148.66 11393.93,4148.66 11393.93,4130.84 11316.71,4130.84 "/>
  <polygon class="fil5" points="11316.71,4148.66 11393.93,4148.66 11393.93,4130.84 11316.71,4130.84 "/>
  <polygon class="fil5" points="11316.71,4148.66 11393.93,4148.66 11393.93,4130.84 11316.71,4130.84 "/>
  <polygon class="fil5" points="11316.71,4148.66 11393.93,4148.66 11393.93,4130.84 11316.71,4130.84 "/>
  <polygon class="fil5" points="11316.71,4148.66 11393.93,4148.66 11393.93,4130.84 11316.71,4130.84 "/>
  <g>
  </g>
  <g style="clip-path:url(#id2)">
   <g>
   </g>
  </g>
  <polygon class="fil5" points="11330.38,4135.12 11394.35,4135.12 11394.35,4115.53 11330.38,4115.53 "/>
  <polygon class="fil5" points="11330.38,4135.12 11394.35,4135.12 11394.35,4115.53 11330.38,4115.53 "/>
  <polygon class="fil5" points="11330.38,4135.12 11394.35,4135.12 11394.35,4115.53 11330.38,4115.53 "/>
  <polygon class="fil5" points="11330.38,4135.12 11394.35,4135.12 11394.35,4115.53 11330.38,4115.53 "/>
  <polygon class="fil5" points="11330.38,4135.12 11394.35,4135.12 11394.35,4115.53 11330.38,4115.53 "/>
  <polygon class="fil5" points="11330.38,4135.12 11394.35,4135.12 11394.35,4115.53 11330.38,4115.53 "/>
  <polygon class="fil5" points="11330.38,4135.12 11394.35,4135.12 11394.35,4115.53 11330.38,4115.53 "/>
  <polygon class="fil5" points="11330.38,4135.12 11394.35,4135.12 11394.35,4115.53 11330.38,4115.53 "/>
  <polygon class="fil5" points="11330.38,4135.12 11394.35,4135.12 11394.35,4115.53 11330.38,4115.53 "/>
  <polygon class="fil5" points="11330.38,4135.12 11394.35,4135.12 11394.35,4115.53 11330.38,4115.53 "/>
  <g>
  </g>
  <g style="clip-path:url(#id3)">
   <g>
   </g>
  </g>
  <polygon class="fil5" points="11331.56,4118.95 11408.78,4118.95 11408.78,4101.14 11331.56,4101.14 "/>
  <polygon class="fil5" points="11331.56,4118.95 11408.78,4118.95 11408.78,4101.14 11331.56,4101.14 "/>
  <polygon class="fil5" points="11331.56,4118.95 11408.78,4118.95 11408.78,4101.14 11331.56,4101.14 "/>
  <polygon class="fil5" points="11331.56,4118.95 11408.78,4118.95 11408.78,4101.14 11331.56,4101.14 "/>
  <polygon class="fil5" points="11331.56,4118.95 11408.78,4118.95 11408.78,4101.14 11331.56,4101.14 "/>
  <polygon class="fil5" points="11331.56,4118.95 11408.78,4118.95 11408.78,4101.14 11331.56,4101.14 "/>
  <polygon class="fil5" points="11331.56,4118.95 11408.78,4118.95 11408.78,4101.14 11331.56,4101.14 "/>
  <polygon class="fil5" points="11331.56,4118.95 11408.78,4118.95 11408.78,4101.14 11331.56,4101.14 "/>
  <polygon class="fil5" points="11331.56,4118.95 11408.78,4118.95 11408.78,4101.14 11331.56,4101.14 "/>
  <polygon class="fil5" points="11331.56,4118.95 11408.78,4118.95 11408.78,4101.14 11331.56,4101.14 "/>
  <g>
  </g>
  <g style="clip-path:url(#id4)">
   <g>
   </g>
  </g>
  <polygon class="fil5" points="11346.42,4104.1 11423.61,4104.1 11423.61,4086.29 11346.42,4086.29 "/>
  <polygon class="fil5" points="11346.42,4104.1 11423.61,4104.1 11423.61,4086.29 11346.42,4086.29 "/>
  <polygon class="fil5" points="11346.42,4104.1 11423.61,4104.1 11423.61,4086.29 11346.42,4086.29 "/>
  <polygon class="fil5" points="11346.42,4104.1 11423.61,4104.1 11423.61,4086.29 11346.42,4086.29 "/>
  <polygon class="fil5" points="11346.42,4104.1 11423.61,4104.1 11423.61,4086.29 11346.42,4086.29 "/>
  <polygon class="fil5" points="11346.42,4104.1 11423.61,4104.1 11423.61,4086.29 11346.42,4086.29 "/>
  <polygon class="fil5" points="11346.42,4104.1 11423.61,4104.1 11423.61,4086.29 11346.42,4086.29 "/>
  <polygon class="fil5" points="11346.42,4104.1 11423.61,4104.1 11423.61,4086.29 11346.42,4086.29 "/>
  <polygon class="fil5" points="11346.42,4104.1 11423.61,4104.1 11423.61,4086.29 11346.42,4086.29 "/>
  <polygon class="fil5" points="11346.42,4104.1 11423.61,4104.1 11423.61,4086.29 11346.42,4086.29 "/>
  <g>
  </g>
  <g style="clip-path:url(#id5)">
   <g>
   </g>
  </g>
  <polygon class="fil5" points="11361.25,4089.25 11438.48,4089.25 11438.48,4071.43 11361.25,4071.43 "/>
  <polygon class="fil5" points="11361.25,4089.25 11438.48,4089.25 11438.48,4071.43 11361.25,4071.43 "/>
  <polygon class="fil5" points="11361.25,4089.25 11438.48,4089.25 11438.48,4071.43 11361.25,4071.43 "/>
  <polygon class="fil5" points="11361.25,4089.25 11438.48,4089.25 11438.48,4071.43 11361.25,4071.43 "/>
  <polygon class="fil5" points="11361.25,4089.25 11438.48,4089.25 11438.48,4071.43 11361.25,4071.43 "/>
  <polygon class="fil5" points="11361.25,4089.25 11438.48,4089.25 11438.48,4071.43 11361.25,4071.43 "/>
  <polygon class="fil5" points="11361.25,4089.25 11438.48,4089.25 11438.48,4071.43 11361.25,4071.43 "/>
  <polygon class="fil5" points="11361.25,4089.25 11438.48,4089.25 11438.48,4071.43 11361.25,4071.43 "/>
  <polygon class="fil5" points="11361.25,4089.25 11438.48,4089.25 11438.48,4071.43 11361.25,4071.43 "/>
  <polygon class="fil5" points="11361.25,4089.25 11438.48,4089.25 11438.48,4071.43 11361.25,4071.43 "/>
  <g>
  </g>
  <g style="clip-path:url(#id6)">
   <g>
   </g>
  </g>
  <polygon class="fil5" points="11374.85,4075.51 11438.8,4075.51 11438.8,4055.98 11374.85,4055.98 "/>
  <polygon class="fil5" points="11374.85,4075.51 11438.8,4075.51 11438.8,4055.98 11374.85,4055.98 "/>
  <polygon class="fil5" points="11374.85,4075.51 11438.8,4075.51 11438.8,4055.98 11374.85,4055.98 "/>
  <polygon class="fil5" points="11374.85,4075.51 11438.8,4075.51 11438.8,4055.98 11374.85,4055.98 "/>
  <polygon class="fil5" points="11374.85,4075.51 11438.8,4075.51 11438.8,4055.98 11374.85,4055.98 "/>
  <polygon class="fil5" points="11374.85,4075.51 11438.8,4075.51 11438.8,4055.98 11374.85,4055.98 "/>
  <polygon class="fil5" points="11374.85,4075.51 11438.8,4075.51 11438.8,4055.98 11374.85,4055.98 "/>
  <polygon class="fil5" points="11374.85,4075.51 11438.8,4075.51 11438.8,4055.98 11374.85,4055.98 "/>
  <polygon class="fil5" points="11374.85,4075.51 11438.8,4075.51 11438.8,4055.98 11374.85,4055.98 "/>
  <polygon class="fil5" points="11374.85,4075.51 11438.8,4075.51 11438.8,4055.98 11374.85,4055.98 "/>
  <g>
  </g>
  <g style="clip-path:url(#id7)">
   <g>
   </g>
  </g>
  <polygon class="fil5" points="11376.12,4059.56 11453.33,4059.56 11453.33,4041.74 11376.12,4041.74 "/>
  <polygon class="fil5" points="11376.12,4059.56 11453.33,4059.56 11453.33,4041.74 11376.12,4041.74 "/>
  <polygon class="fil5" points="11376.12,4059.56 11453.33,4059.56 11453.33,4041.74 11376.12,4041.74 "/>
  <polygon class="fil5" points="11376.12,4059.56 11453.33,4059.56 11453.33,4041.74 11376.12,4041.74 "/>
  <polygon class="fil5" points="11376.12,4059.56 11453.33,4059.56 11453.33,4041.74 11376.12,4041.74 "/>
  <polygon class="fil5" points="11376.12,4059.56 11453.33,4059.56 11453.33,4041.74 11376.12,4041.74 "/>
  <polygon class="fil5" points="11376.12,4059.56 11453.33,4059.56 11453.33,4041.74 11376.12,4041.74 "/>
  <polygon class="fil5" points="11376.12,4059.56 11453.33,4059.56 11453.33,4041.74 11376.12,4041.74 "/>
  <polygon class="fil5" points="11376.12,4059.56 11453.33,4059.56 11453.33,4041.74 11376.12,4041.74 "/>
  <polygon class="fil5" points="11376.12,4059.56 11453.33,4059.56 11453.33,4041.74 11376.12,4041.74 "/>
  <g>
  </g>
  <g style="clip-path:url(#id8)">
   <g>
   </g>
  </g>
  <polygon class="fil5" points="11390.96,4044.69 11468.16,4044.69 11468.16,4026.87 11390.96,4026.87 "/>
  <polygon class="fil5" points="11390.96,4044.69 11468.16,4044.69 11468.16,4026.87 11390.96,4026.87 "/>
  <polygon class="fil5" points="11390.96,4044.69 11468.16,4044.69 11468.16,4026.87 11390.96,4026.87 "/>
  <polygon class="fil5" points="11390.96,4044.69 11468.16,4044.69 11468.16,4026.87 11390.96,4026.87 "/>
  <polygon class="fil5" points="11390.96,4044.69 11468.16,4044.69 11468.16,4026.87 11390.96,4026.87 "/>
  <polygon class="fil5" points="11390.96,4044.69 11468.16,4044.69 11468.16,4026.87 11390.96,4026.87 "/>
  <polygon class="fil5" points="11390.96,4044.69 11468.16,4044.69 11468.16,4026.87 11390.96,4026.87 "/>
  <polygon class="fil5" points="11390.96,4044.69 11468.16,4044.69 11468.16,4026.87 11390.96,4026.87 "/>
  <polygon class="fil5" points="11390.96,4044.69 11468.16,4044.69 11468.16,4026.87 11390.96,4026.87 "/>
  <polygon class="fil5" points="11390.96,4044.69 11468.16,4044.69 11468.16,4026.87 11390.96,4026.87 "/>
  <g>
  </g>
  <g style="clip-path:url(#id9)">
   <g>
   </g>
  </g>
  <polygon class="fil5" points="11404.46,4030.84 11468.44,4030.84 11468.44,4011.24 11404.46,4011.24 "/>
  <polygon class="fil5" points="11404.46,4030.84 11468.44,4030.84 11468.44,4011.24 11404.46,4011.24 "/>
  <polygon class="fil5" points="11404.46,4030.84 11468.44,4030.84 11468.44,4011.24 11404.46,4011.24 "/>
  <polygon class="fil5" points="11404.46,4030.84 11468.44,4030.84 11468.44,4011.24 11404.46,4011.24 "/>
  <polygon class="fil5" points="11404.46,4030.84 11468.44,4030.84 11468.44,4011.24 11404.46,4011.24 "/>
  <polygon class="fil5" points="11404.46,4030.84 11468.44,4030.84 11468.44,4011.24 11404.46,4011.24 "/>
  <polygon class="fil5" points="11404.46,4030.84 11468.44,4030.84 11468.44,4011.24 11404.46,4011.24 "/>
  <polygon class="fil5" points="11404.46,4030.84 11468.44,4030.84 11468.44,4011.24 11404.46,4011.24 "/>
  <polygon class="fil5" points="11404.46,4030.84 11468.44,4030.84 11468.44,4011.24 11404.46,4011.24 "/>
  <polygon class="fil5" points="11404.46,4030.84 11468.44,4030.84 11468.44,4011.24 11404.46,4011.24 "/>
  <g>
  </g>
  <g style="clip-path:url(#id10)">
   <g>
   </g>
  </g>
  <polygon class="fil5" points="11420.67,4015 11468.16,4015 11468.16,3997.19 11420.67,3997.19 "/>
  <polygon class="fil5" points="11420.67,4015 11468.16,4015 11468.16,3997.19 11420.67,3997.19 "/>
  <polygon class="fil5" points="11420.67,4015 11468.16,4015 11468.16,3997.19 11420.67,3997.19 "/>
  <polygon class="fil5" points="11420.67,4015 11468.16,4015 11468.16,3997.19 11420.67,3997.19 "/>
  <polygon class="fil5" points="11420.67,4015 11468.16,4015 11468.16,3997.19 11420.67,3997.19 "/>
  <polygon class="fil5" points="11420.67,4015 11468.16,4015 11468.16,3997.19 11420.67,3997.19 "/>
  <polygon class="fil5" points="11420.67,4015 11468.16,4015 11468.16,3997.19 11420.67,3997.19 "/>
  <polygon class="fil5" points="11420.67,4015 11468.16,4015 11468.16,3997.19 11420.67,3997.19 "/>
  <polygon class="fil5" points="11420.67,4015 11468.16,4015 11468.16,3997.19 11420.67,3997.19 "/>
  <polygon class="fil5" points="11420.67,4015 11468.16,4015 11468.16,3997.19 11420.67,3997.19 "/>
  <g>
  </g>
  <g style="clip-path:url(#id11)">
   <g>
   </g>
  </g>
  <polygon class="fil5" points="11419.3,4001.1 11453.63,4001.1 11453.63,3981.49 11419.3,3981.49 "/>
  <polygon class="fil5" points="11419.3,4001.1 11453.63,4001.1 11453.63,3981.49 11419.3,3981.49 "/>
  <polygon class="fil5" points="11419.3,4001.1 11453.63,4001.1 11453.63,3981.49 11419.3,3981.49 "/>
  <polygon class="fil5" points="11419.3,4001.1 11453.63,4001.1 11453.63,3981.49 11419.3,3981.49 "/>
  <polygon class="fil5" points="11419.3,4001.1 11453.63,4001.1 11453.63,3981.49 11419.3,3981.49 "/>
  <polygon class="fil5" points="11419.3,4001.1 11453.63,4001.1 11453.63,3981.49 11419.3,3981.49 "/>
  <polygon class="fil5" points="11419.3,4001.1 11453.63,4001.1 11453.63,3981.49 11419.3,3981.49 "/>
  <polygon class="fil5" points="11419.3,4001.1 11453.63,4001.1 11453.63,3981.49 11419.3,3981.49 "/>
  <polygon class="fil5" points="11419.3,4001.1 11453.63,4001.1 11453.63,3981.49 11419.3,3981.49 "/>
  <polygon class="fil5" points="11419.3,4001.1 11453.63,4001.1 11453.63,3981.49 11419.3,3981.49 "/>
  <g>
  </g>
  <g style="clip-path:url(#id12)">
   <g>
   </g>
  </g>
  <polygon class="fil5" points="11420.67,3985.31 11438.48,3985.31 11438.48,3967.5 11420.67,3967.5 "/>
  <polygon class="fil5" points="11420.67,3985.31 11438.48,3985.31 11438.48,3967.5 11420.67,3967.5 "/>
  <polygon class="fil5" points="11420.67,3985.31 11438.48,3985.31 11438.48,3967.5 11420.67,3967.5 "/>
  <polygon class="fil5" points="11420.67,3985.31 11438.48,3985.31 11438.48,3967.5 11420.67,3967.5 "/>
  <polygon class="fil5" points="11420.67,3985.31 11438.48,3985.31 11438.48,3967.5 11420.67,3967.5 "/>
  <polygon class="fil5" points="11420.67,3985.31 11438.48,3985.31 11438.48,3967.5 11420.67,3967.5 "/>
  <polygon class="fil5" points="11420.67,3985.31 11438.48,3985.31 11438.48,3967.5 11420.67,3967.5 "/>
  <polygon class="fil5" points="11420.67,3985.31 11438.48,3985.31 11438.48,3967.5 11420.67,3967.5 "/>
  <polygon class="fil5" points="11420.67,3985.31 11438.48,3985.31 11438.48,3967.5 11420.67,3967.5 "/>
  <polygon class="fil5" points="11420.67,3985.31 11438.48,3985.31 11438.48,3967.5 11420.67,3967.5 "/>
  <g>
  </g>
  <g style="clip-path:url(#id13)">
   <g>
   </g>
  </g>
  <polygon class="fil5" points="11404.46,3971.29 11423.98,3971.29 11423.98,3936.8 11404.46,3936.8 "/>
  <polygon class="fil5" points="11404.46,3971.29 11423.98,3971.29 11423.98,3936.8 11404.46,3936.8 "/>
  <polygon class="fil5" points="11404.46,3971.29 11423.98,3971.29 11423.98,3936.8 11404.46,3936.8 "/>
  <polygon class="fil5" points="11404.46,3971.29 11423.98,3971.29 11423.98,3936.8 11404.46,3936.8 "/>
  <polygon class="fil5" points="11404.46,3971.29 11423.98,3971.29 11423.98,3936.8 11404.46,3936.8 "/>
  <polygon class="fil5" points="11404.46,3971.29 11423.98,3971.29 11423.98,3936.8 11404.46,3936.8 "/>
  <polygon class="fil5" points="11404.46,3971.29 11423.98,3971.29 11423.98,3936.8 11404.46,3936.8 "/>
  <polygon class="fil5" points="11404.46,3971.29 11423.98,3971.29 11423.98,3936.8 11404.46,3936.8 "/>
  <polygon class="fil5" points="11404.46,3971.29 11423.98,3971.29 11423.98,3936.8 11404.46,3936.8 "/>
  <polygon class="fil5" points="11404.46,3971.29 11423.98,3971.29 11423.98,3936.8 11404.46,3936.8 "/>
  <g>
  </g>
  <g style="clip-path:url(#id14)">
   <g>
   </g>
  </g>
  <polygon class="fil5" points="11390.96,3940.75 11408.78,3940.75 11408.78,3922.93 11390.96,3922.93 "/>
  <polygon class="fil5" points="11390.96,3940.75 11408.78,3940.75 11408.78,3922.93 11390.96,3922.93 "/>
  <polygon class="fil5" points="11390.96,3940.75 11408.78,3940.75 11408.78,3922.93 11390.96,3922.93 "/>
  <polygon class="fil5" points="11390.96,3940.75 11408.78,3940.75 11408.78,3922.93 11390.96,3922.93 "/>
  <polygon class="fil5" points="11390.96,3940.75 11408.78,3940.75 11408.78,3922.93 11390.96,3922.93 "/>
  <polygon class="fil5" points="11390.96,3940.75 11408.78,3940.75 11408.78,3922.93 11390.96,3922.93 "/>
  <polygon class="fil5" points="11390.96,3940.75 11408.78,3940.75 11408.78,3922.93 11390.96,3922.93 "/>
  <polygon class="fil5" points="11390.96,3940.75 11408.78,3940.75 11408.78,3922.93 11390.96,3922.93 "/>
  <polygon class="fil5" points="11390.96,3940.75 11408.78,3940.75 11408.78,3922.93 11390.96,3922.93 "/>
  <polygon class="fil5" points="11390.96,3940.75 11408.78,3940.75 11408.78,3922.93 11390.96,3922.93 "/>
  <path class="fil6" d="M8430.38 3934.78l458.28 11.82 1277.35 3091.1 1237.41 -3079.13 6.99 -9.61 -2.12 -2.94 0.02 -0.05 473.16 -11.19c315.07,-7.5 572.94,266.95 572.94,593.14l0 3123.58 -4597.02 0 0 -3123.61c0,-326.28 258.06,-601.11 573.09,-593.11l-0.02 0 -0.01 0 -0.01 0 0 0 -0.01 0 -0.01 0 -0.01 0 -0.01 0 -0.01 0 -0.01 0z"/>
  <ellipse class="fil2 str0" cx="10146.15" cy="6102.31" rx="39.59" ry="44.56"/>
  <rect class="fil7" x="11413.34" y="6087.43" width="752.37" height="99.02"/>
  <polygon class="fil4" points="11989.55,5844.53 11809.31,5651.86 11413.35,6087.45 12145.91,6087.45 "/>
  <polygon class="fil8" points="10136.27,4097.57 9359.34,3761.96 9433.44,4582.68 10093.4,4227.13 "/>
  <polygon class="fil8" points="10070.2,4078.19 10859.66,3801.98 10819.34,4602.49 10029.41,4191.74 "/>
  <rect class="fil9" x="10010.89" y="3985.3" width="222.82" height="308.96"/>
  <polygon class="fil4 str1" points="8215.75,4493.59 8908.76,3562.99 9728.67,6035.21 9487.88,5822.39 "/>
  <polygon class="fil4 str1" points="8690.94,5374.86 9265.15,4770.77 10032.68,6862.32 9772.2,6589.95 "/>
  <g>
  </g>
  <g style="clip-path:url(#id15)">
   <g>
   </g>
  </g>
  <polygon class="fil5" points="11103.84,4276.62 11188.49,4276.62 11188.49,4257.04 11103.84,4257.04 "/>
  <polygon class="fil5" points="11103.84,4276.62 11188.49,4276.62 11188.49,4257.04 11103.84,4257.04 "/>
  <polygon class="fil5" points="11103.84,4276.62 11188.49,4276.62 11188.49,4257.04 11103.84,4257.04 "/>
  <polygon class="fil5" points="11103.84,4276.62 11188.49,4276.62 11188.49,4257.04 11103.84,4257.04 "/>
  <polygon class="fil5" points="11103.84,4276.62 11188.49,4276.62 11188.49,4257.04 11103.84,4257.04 "/>
  <polygon class="fil5" points="11103.84,4276.62 11188.49,4276.62 11188.49,4257.04 11103.84,4257.04 "/>
  <polygon class="fil5" points="11103.84,4276.62 11188.49,4276.62 11188.49,4257.04 11103.84,4257.04 "/>
  <polygon class="fil5" points="11103.84,4276.62 11188.49,4276.62 11188.49,4257.04 11103.84,4257.04 "/>
  <polygon class="fil5" points="11103.84,4276.62 11188.49,4276.62 11188.49,4257.04 11103.84,4257.04 "/>
  <polygon class="fil5" points="11103.84,4276.62 11188.49,4276.62 11188.49,4257.04 11103.84,4257.04 "/>
  <g>
  </g>
  <g style="clip-path:url(#id16)">
   <g>
   </g>
  </g>
  <polygon class="fil5" points="11119.77,4261.73 11188.49,4261.73 11188.49,4227.24 11119.77,4227.24 "/>
  <polygon class="fil5" points="11119.77,4261.73 11188.49,4261.73 11188.49,4227.24 11119.77,4227.24 "/>
  <polygon class="fil5" points="11119.77,4261.73 11188.49,4261.73 11188.49,4227.24 11119.77,4227.24 "/>
  <polygon class="fil5" points="11119.77,4261.73 11188.49,4261.73 11188.49,4227.24 11119.77,4227.24 "/>
  <polygon class="fil5" points="11119.77,4261.73 11188.49,4261.73 11188.49,4227.24 11119.77,4227.24 "/>
  <polygon class="fil5" points="11119.77,4261.73 11188.49,4261.73 11188.49,4227.24 11119.77,4227.24 "/>
  <polygon class="fil5" points="11119.77,4261.73 11188.49,4261.73 11188.49,4227.24 11119.77,4227.24 "/>
  <polygon class="fil5" points="11119.77,4261.73 11188.49,4261.73 11188.49,4227.24 11119.77,4227.24 "/>
  <polygon class="fil5" points="11119.77,4261.73 11188.49,4261.73 11188.49,4227.24 11119.77,4227.24 "/>
  <polygon class="fil5" points="11119.77,4261.73 11188.49,4261.73 11188.49,4227.24 11119.77,4227.24 "/>
  <g>
  </g>
  <g style="clip-path:url(#id17)">
   <g>
   </g>
  </g>
  <polygon class="fil5" points="11135.71,4232 11188.49,4232 11188.49,4212.39 11135.71,4212.39 "/>
  <polygon class="fil5" points="11135.71,4232 11188.49,4232 11188.49,4212.39 11135.71,4212.39 "/>
  <polygon class="fil5" points="11135.71,4232 11188.49,4232 11188.49,4212.39 11135.71,4212.39 "/>
  <polygon class="fil5" points="11135.71,4232 11188.49,4232 11188.49,4212.39 11135.71,4212.39 "/>
  <polygon class="fil5" points="11135.71,4232 11188.49,4232 11188.49,4212.39 11135.71,4212.39 "/>
  <polygon class="fil5" points="11135.71,4232 11188.49,4232 11188.49,4212.39 11135.71,4212.39 "/>
  <polygon class="fil5" points="11135.71,4232 11188.49,4232 11188.49,4212.39 11135.71,4212.39 "/>
  <polygon class="fil5" points="11135.71,4232 11188.49,4232 11188.49,4212.39 11135.71,4212.39 "/>
  <polygon class="fil5" points="11135.71,4232 11188.49,4232 11188.49,4212.39 11135.71,4212.39 "/>
  <polygon class="fil5" points="11135.71,4232 11188.49,4232 11188.49,4212.39 11135.71,4212.39 "/>
  <ellipse class="fil2 str0" cx="10105.76" cy="4992.98" rx="42.55" ry="44.56"/>
  <path class="fil9" d="M10033.22 3985.28l196.37 0c11.89,0 21.5,7.12 21.5,15.89l0 161.81c0,8.76 -9.61,15.86 -21.5,15.86l-196.37 0c-11.88,0 -21.51,-7.1 -21.51,-15.86l0 -161.81c0,-8.77 9.63,-15.89 21.51,-15.89z"/>
  <polygon class="fil4 str1" points="12150.17,4444.78 11403.44,3602.61 10576.6,6063.91 10818.5,5832.11 "/>
  <polygon class="fil4 str1" points="11669.32,5461.31 11020.91,4784.49 10279.57,6879.28 10490.31,6694.46 "/>
  <ellipse class="fil2 str0" cx="10105.76" cy="5552.71" rx="42.55" ry="44.56"/>
  <rect class="fil6" x="7857.29" y="7501.46" width="4594.58" height="1140.92"/>
  <path class="fil10" d="M10622.85 9810.4c-18.65,4.93 -29.1,25.44 -16.53,43.97 10.61,15.64 23.92,19.05 23.04,47.67 -1.64,54.62 -91.41,93.6 -32.59,217.45 8.43,17.75 15.62,32.3 25.47,45.64 10.16,13.74 19.34,33.86 44.75,28.36 18.15,-3.92 26.4,-26.37 15.9,-43.79 -21.27,-35.27 -72.44,-95.99 -32.28,-155.13 19.3,-28.43 41.99,-56.93 37.09,-106.39 -3.06,-30.91 -31.67,-86.53 -64.85,-77.78z"/>
  <path class="fil10" d="M10739.37 9695.76c-13.28,5.45 -11.93,4.77 -21.15,15.53 -32.88,38.47 -36.78,90.63 -11.87,136.39 22.5,41.34 64.61,63.74 12,156.4 -5.76,10.13 -25.74,35.17 -27.36,44.71 -3.92,23.28 16.65,39.71 39.45,32.55 20.39,-6.4 99.11,-120.59 61.76,-207.17 -11.98,-27.76 -50.1,-62.02 -41.19,-101.13 5.56,-24.36 24.15,-28.12 26.73,-46.48 3.28,-23.17 -16.83,-39.64 -38.37,-30.8z"/>
  <polygon class="fil11" points="4925.08,5113.36 5680.12,4096.6 6782.45,6885.13 6198.56,7358.27 "/>
  <path class="fil7" d="M5661.83 5601.43l0 43.62 94.52 0 0 239.92c-94.52,0 -94.52,-50.9 -145.41,43.62 -43.61,50.88 0,50.88 -94.52,101.77 -43.61,0 0,-50.9 -43.61,0l94.52 0 0 43.62c43.61,0 43.61,50.89 43.61,50.89 50.89,0 0,0 50.89,-50.89 0,0 50.9,0 50.9,-43.62 43.62,0 94.52,-50.9 94.52,-50.9 94.49,-94.5 138.11,-94.5 232.62,-94.5 0,-50.9 0,-50.9 50.89,-50.9l0 50.9 50.9 0 43.61 43.62 0 -43.62 50.9 0 0 43.62c-50.9,50.88 -94.51,101.77 -50.9,196.28 94.52,0 0,0 50.9,-50.9 43.62,50.9 0,0 0,50.9 0,94.5 43.62,43.6 43.62,145.39l-43.62 -50.89 0 -50.9c-145.41,-138.11 -196.29,0 -196.29,0l0 50.9c-43.63,50.89 -43.63,0 -43.63,50.89 0,43.62 0,43.62 43.63,43.62l770.62 1148.65c94.5,-50.89 239.91,-189.01 334.42,-239.91l668.83 0 428.94 -1294.04 -668.84 0c-334.43,-43.62 -428.93,0 -574.33,-138.13l-668.83 -668.85c-94.51,43.62 -479.82,334.43 -617.95,428.94l-50.9 50.9 0 0 0 0 -0.01 0z"/>
  <polygon class="fil12" points="5036.6,4118.34 8627.97,4118.34 8627.97,8414.89 5036.6,8414.89 "/>
  <g>
  </g>
  <g style="clip-path:url(#id18)">
   <g>
   </g>
  </g>
  <polygon class="fil5" points="8365.26,4110.01 8431.78,4110.01 8431.78,4093.46 8365.26,4093.46 "/>
  <polygon class="fil5" points="8365.26,4110.01 8431.78,4110.01 8431.78,4093.46 8365.26,4093.46 "/>
  <polygon class="fil5" points="8365.26,4110.01 8431.78,4110.01 8431.78,4093.46 8365.26,4093.46 "/>
  <polygon class="fil5" points="8365.26,4110.01 8431.78,4110.01 8431.78,4093.46 8365.26,4093.46 "/>
  <polygon class="fil5" points="8365.26,4110.01 8431.78,4110.01 8431.78,4093.46 8365.26,4093.46 "/>
  <polygon class="fil5" points="8365.26,4110.01 8431.78,4110.01 8431.78,4093.46 8365.26,4093.46 "/>
  <polygon class="fil5" points="8365.26,4110.01 8431.78,4110.01 8431.78,4093.46 8365.26,4093.46 "/>
  <polygon class="fil5" points="8365.26,4110.01 8431.78,4110.01 8431.78,4093.46 8365.26,4093.46 "/>
  <polygon class="fil5" points="8365.26,4110.01 8431.78,4110.01 8431.78,4093.46 8365.26,4093.46 "/>
  <polygon class="fil5" points="8365.26,4110.01 8431.78,4110.01 8431.78,4093.46 8365.26,4093.46 "/>
  <g>
  </g>
  <g style="clip-path:url(#id19)">
   <g>
   </g>
  </g>
  <polygon class="fil5" points="8365.26,4072.32 8406.73,4072.32 8406.73,4055.77 8365.26,4055.77 "/>
  <polygon class="fil5" points="8365.26,4072.32 8406.73,4072.32 8406.73,4055.77 8365.26,4055.77 "/>
  <polygon class="fil5" points="8365.26,4072.32 8406.73,4072.32 8406.73,4055.77 8365.26,4055.77 "/>
  <polygon class="fil5" points="8365.26,4072.32 8406.73,4072.32 8406.73,4055.77 8365.26,4055.77 "/>
  <polygon class="fil5" points="8365.26,4072.32 8406.73,4072.32 8406.73,4055.77 8365.26,4055.77 "/>
  <polygon class="fil5" points="8365.26,4072.32 8406.73,4072.32 8406.73,4055.77 8365.26,4055.77 "/>
  <polygon class="fil5" points="8365.26,4072.32 8406.73,4072.32 8406.73,4055.77 8365.26,4055.77 "/>
  <polygon class="fil5" points="8365.26,4072.32 8406.73,4072.32 8406.73,4055.77 8365.26,4055.77 "/>
  <polygon class="fil5" points="8365.26,4072.32 8406.73,4072.32 8406.73,4055.77 8365.26,4055.77 "/>
  <polygon class="fil5" points="8365.26,4072.32 8406.73,4072.32 8406.73,4055.77 8365.26,4055.77 "/>
  <polygon class="fil13" points="5181.99,4212.86 8526.2,4212.86 8526.2,8276.77 5181.99,8276.77 "/>
  <polygon class="fil4" points="5516.42,4452.76 8191.77,4452.76 8191.77,7985.95 5516.42,7985.95 "/>
  <polygon class="fil14" points="5996.25,4118.34 7719.23,4118.34 7719.23,4547.28 5996.25,4547.28 "/>
  <polygon class="fil15" points="7239.41,4118.34 7239.41,3972.95 6425.19,3972.95 6425.19,4118.34 5996.25,4118.34 5996.25,4161.97 7719.23,4161.97 7719.23,4118.34 "/>
  <polygon class="fil16" points="5996.25,5216.13 6185.26,4976.21 6279.78,4925.32 5945.36,5405.15 5807.23,5121.61 5901.73,5070.73 "/>
  <path class="fil16" d="M6381.56 5550.54l1475.79 0 0 189.03 -1475.79 0 0 -189.03zm0 479.82l1475.79 0 0 189.01 -1475.79 0 0 -189.01zm0 472.52l1475.79 0 0 196.29 -1475.79 0 0 -196.29zm0 479.83l1475.79 0 0 189.02 -1475.79 0 0 -189.02zm0 479.8l1475.79 0 0 189.03 -1475.79 0 0 -189.03zm0 -2391.78l1475.79 0 0 189.01 -1475.79 0 0 -189.01z"/>
  <polygon class="fil16" points="5996.25,5681.41 6185.26,5441.5 6279.78,5390.6 5945.36,5870.43 5807.23,5586.91 5901.73,5536 "/>
  <polygon class="fil16" points="5996.25,6139.41 6185.26,5899.51 6279.78,5855.88 5945.36,6335.68 5807.23,6044.9 5901.73,6001.28 "/>
  <polygon class="fil16" points="5996.25,6604.66 6185.26,6364.76 6279.78,6321.14 5945.36,6793.68 5807.23,6510.16 5901.73,6459.27 "/>
  <polygon class="fil16" points="5996.25,7069.94 6185.26,6830.05 6279.78,6779.15 5945.36,7258.97 5807.23,6975.43 5901.73,6924.55 "/>
  <polygon class="fil16" points="5996.25,7535.22 6185.26,7295.32 6279.78,7244.44 5945.36,7724.24 5807.23,7440.71 5901.73,7389.82 "/>
  <path class="fil10" d="M11291.21 10871.66c5.76,-18.55 17.66,-46.41 25.03,-66.71 26.31,-72.63 52.42,-224.36 54.06,-228.53 24.66,-4.14 156,-1.24 199.01,-1.29 28.31,-0.05 36.16,-3.68 53.8,10.29 2.34,24.15 -35.45,89.35 -47.79,106.28 -45.72,62.72 -86.8,112.14 -164.61,146.87 -24.39,10.89 -88.89,36.93 -119.5,33.09zm-1342.86 467.69l0 19.89c13.85,13.13 8.08,19.21 46.09,19.29l1237.43 -0.06c151.88,0 191.67,17.96 152.32,-77.72 -12.28,-29.85 -38.43,-48.93 -80.13,-48.92 -116.25,0.02 -290.16,4.78 -393.6,-0.45 2.72,-2.81 1.06,-1.73 5.49,-4.5 2.51,-1.57 4.83,-2.58 8.08,-3.9 5.23,-2.13 10.64,-3.98 16.79,-6.28 73.63,-27.61 137.8,-72.77 192.6,-124.45 24.96,-23.55 59.02,-64.03 82,-99.78 20.08,-31.23 11.73,-33.51 51.45,-36.55 29.61,-2.28 54.56,-4.82 82.23,-11.02 134.03,-30.02 253.25,-118.37 316.44,-228.92 19.68,-34.42 30.72,-51.98 46.19,-89.49 4.63,-11.21 7.45,-24.34 13.34,-33.67l0 -37.61c-11.28,-21.59 -20.07,-96.05 -121.03,-100.12 -71.35,-2.89 -150.09,-0.65 -222.07,-0.16 -3.13,-24.85 5.61,-71.23 -0.63,-91.4 -8.1,-26.14 -40.22,-21.91 -68.71,-21.91l-1271.97 0c-31.4,0 -63.06,-4.58 -72.99,20.29 -5.05,12.62 -0.79,67.59 0.2,84.74 10.76,186.65 69.35,403.16 176.38,551.06 53.24,73.54 110.99,127.28 188.7,174.77 42.14,25.75 117.22,51.45 124.62,59.05 -98.51,3.37 -202.44,0.35 -301.53,0.35 -29.17,0 -125.5,-3.96 -145.16,4.05 -51.88,21.12 -47.36,59.89 -62.53,83.42z"/>
  <ellipse class="fil17 str0" cx="7156.74" cy="11540.73" rx="2367.08" ry="329.5"/>
  <rect class="fil17" x="4802.75" y="10520.42" width="4721.51" height="1048.4"/>
  <path class="fil18" d="M5068.59 10400.59l0.01 0c32.94,0 59.9,53.92 59.9,119.82l0 569.13c0,65.91 -26.96,119.82 -59.9,119.82l-0.01 0c-32.94,0 -59.9,-53.91 -59.9,-119.82l0 -569.13c0,-65.9 26.96,-119.82 59.9,-119.82z"/>
  <path class="fil18" d="M5398.09 10400.59l0 0c32.95,0 59.91,69.89 59.91,155.31l0 737.77c0,85.43 -26.96,155.32 -59.91,155.32l0 0c-32.95,0 -59.92,-69.89 -59.92,-155.32l0 -737.77c0,-85.42 26.97,-155.31 59.92,-155.31z"/>
  <path class="fil18" d="M5922.29 10400.59l0 0c32.96,0 59.91,53.92 59.91,119.82l0 569.13c0,65.91 -26.95,119.82 -59.91,119.82l0 0c-32.95,0 -59.92,-53.91 -59.92,-119.82l0 -569.13c0,-65.9 26.97,-119.82 59.92,-119.82z"/>
  <path class="fil18" d="M6409.05 10400.59l0 0c32.95,0 59.91,66.89 59.91,148.67l0 706.13c0,81.78 -26.96,148.66 -59.91,148.66l0 0c-32.96,0 -59.92,-66.88 -59.92,-148.66l0 -706.13c0,-81.78 26.96,-148.67 59.92,-148.67z"/>
  <path class="fil18" d="M6933.23 10400.59l0 0c32.95,0 59.92,53.92 59.92,119.82l0 569.13c0,65.91 -26.97,119.82 -59.92,119.82l0 0c-32.95,0 -59.9,-53.91 -59.9,-119.82l0 -569.13c0,-65.9 26.95,-119.82 59.9,-119.82z"/>
  <path class="fil18" d="M7457.42 10400.59l0 0c32.95,0 59.92,77.88 59.92,173.07l0 822.08c0,95.19 -26.97,173.06 -59.92,173.06l0 0c-32.95,0 -59.91,-77.87 -59.91,-173.06l0 -822.08c0,-95.19 26.96,-173.07 59.91,-173.07z"/>
  <path class="fil18" d="M7981.64 10400.59l0 0c32.93,0 59.89,53.92 59.89,119.82l0 569.13c0,65.91 -26.96,119.82 -59.89,119.82l0 0c-32.96,0 -59.92,-53.91 -59.92,-119.82l0 -569.13c0,-65.9 26.96,-119.82 59.92,-119.82z"/>
  <path class="fil18" d="M8580.7 10400.59l0 0c32.96,0 59.92,63.89 59.92,142.01l0 674.52c0,78.11 -26.96,142.01 -59.92,142.01l0 0c-32.94,0 -59.9,-63.9 -59.9,-142.01l0 -674.52c0,-78.12 26.96,-142.01 59.9,-142.01z"/>
  <path class="fil18" d="M9104.91 10400.59l0 0c32.94,0 59.91,71.88 59.91,159.76l0 758.84c0,87.87 -26.97,159.76 -59.91,159.76l0 0c-32.95,0 -59.92,-71.89 -59.92,-159.76l0 -758.84c0,-87.88 26.97,-159.76 59.92,-159.76z"/>
  <ellipse class="fil18" cx="7159.23" cy="10520.41" rx="2359.39" ry="247.12"/>
  <ellipse class="fil19" cx="7073.43" cy="10415.56" rx="1765.17" ry="224.66"/>
  <rect class="fil19" x="5308.23" y="9651.16" width="3512.11" height="778.82"/>
  <ellipse class="fil18 str0" cx="7064.28" cy="9659.22" rx="1756.02" ry="194.71"/>
  <ellipse class="fil20" cx="7030.58" cy="9570.94" rx="1138.26" ry="155.09"/>
  <rect class="fil20" x="5899.82" y="9056.7" width="2261.54" height="514.56"/>
  <ellipse class="fil18" cx="7036.47" cy="9052.65" rx="1123.28" ry="108.58"/>
  <rect class="fil21" x="5079.82" y="9728.09" width="94.82" height="811.31"/>
  <polygon class="fil22" points="5130.01,9332.89 5127.2,9391.25 5203.63,9535.78 5174.65,9728.07 5127.24,9728.07 5074.73,9669.72 "/>
  <rect class="fil21" x="5763.8" y="9847.92" width="94.82" height="811.31"/>
  <polygon class="fil22" points="5814,9452.71 5811.18,9511.06 5887.61,9655.6 5858.63,9847.89 5811.21,9847.89 5758.72,9789.53 "/>
  <rect class="fil21" x="6517.62" y="9907.83" width="94.82" height="811.31"/>
  <polygon class="fil4 str2" points="6567.82,9512.62 6565,9570.96 6641.44,9715.51 6612.46,9907.8 6565.04,9907.8 6512.54,9849.45 "/>
  <rect class="fil21" x="7296.24" y="9852.27" width="94.82" height="811.31"/>
  <polygon class="fil4" points="7346.44,9457.06 7343.61,9515.41 7420.04,9659.94 7391.08,9852.24 7343.66,9852.24 7291.15,9793.89 "/>
  <rect class="fil21" x="8105.17" y="9862.89" width="94.82" height="811.31"/>
  <polygon class="fil22" points="8155.38,9467.68 8152.57,9526.03 8228.99,9670.57 8200.01,9862.87 8152.6,9862.87 8100.11,9804.52 "/>
  <rect class="fil21" x="8894.99" y="9735" width="94.82" height="811.31"/>
  <polygon class="fil22" points="8945.18,9339.8 8942.36,9398.16 9018.8,9542.69 8989.83,9734.98 8942.4,9734.98 8889.91,9676.63 "/>
  <rect class="fil21" x="5644.97" y="8889.96" width="94.82" height="811.31"/>
  <polygon class="fil22" points="8411.81,8545.17 8409,8603.52 8485.43,8748.06 8456.45,8940.33 8409.04,8940.33 8356.54,8882 "/>
  <rect class="fil21" x="6193.43" y="8923.52" width="94.82" height="811.31"/>
  <polygon class="fil22" points="5589.57,8528.35 5586.74,8586.7 5663.17,8731.24 5634.2,8923.51 5586.79,8923.51 5534.3,8865.17 "/>
  <rect class="fil21" x="6893.59" y="8959.64" width="94.82" height="811.31"/>
  <polygon class="fil22" points="6289.75,8564.46 6286.93,8622.81 6363.35,8767.36 6334.38,8959.62 6286.97,8959.62 6234.47,8901.28 "/>
  <rect class="fil21" x="7711.37" y="8923.87" width="94.82" height="811.31"/>
  <polygon class="fil22" points="6945.13,8611.06 6942.31,8669.42 7018.73,8813.95 6989.75,9006.22 6942.34,9006.22 6889.85,8947.87 "/>
  <rect class="fil21" x="8376.11" y="8844.21" width="94.82" height="811.31"/>
  <path class="fil10" d="M3138.5 9838.22c-18.66,4.94 -29.12,25.44 -16.55,43.97 10.62,15.64 23.92,19.05 23.04,47.67 -1.64,54.62 -91.4,93.6 -32.59,217.45 8.43,17.74 15.62,32.31 25.47,45.63 10.16,13.75 19.34,33.87 44.75,28.38 18.16,-3.93 26.41,-26.39 15.91,-43.8 -21.28,-35.26 -72.45,-95.99 -32.28,-155.13 19.3,-28.42 41.98,-56.93 37.08,-106.38 -3.06,-30.92 -31.67,-86.54 -64.83,-77.79z"/>
  <path class="fil10" d="M3255.02 9723.59c-13.28,5.43 -11.95,4.76 -21.16,15.53 -32.87,38.47 -36.79,90.62 -11.88,136.38 22.5,41.34 64.61,63.75 12,156.4 -5.76,10.13 -25.74,35.18 -27.34,44.71 -3.93,23.27 16.63,39.71 39.44,32.55 20.39,-6.4 99.11,-120.59 61.76,-207.17 -11.99,-27.76 -50.11,-62.03 -41.18,-101.13 5.56,-24.36 24.14,-28.12 26.71,-46.47 3.29,-23.18 -16.83,-39.65 -38.35,-30.8z"/>
  <path class="fil10" d="M3806.85 10899.48c5.75,-18.55 17.66,-46.4 25.03,-66.72 26.32,-72.63 52.42,-224.34 54.05,-228.52 24.68,-4.14 156.01,-1.24 199.02,-1.3 28.3,-0.04 36.17,-3.66 53.79,10.31 2.35,24.14 -35.44,89.34 -47.79,106.27 -45.72,62.73 -86.78,112.15 -164.59,146.87 -24.39,10.9 -88.91,36.93 -119.51,33.09zm-1342.86 467.7l0 19.88c13.84,13.14 8.07,19.21 46.09,19.3l1237.42 -0.06c151.89,0 191.67,17.96 152.34,-77.73 -12.3,-29.86 -38.44,-48.92 -80.14,-48.91 -116.26,0.01 -290.16,4.77 -393.6,-0.45 2.72,-2.82 1.06,-1.73 5.48,-4.51 2.51,-1.56 4.83,-2.57 8.09,-3.9 5.23,-2.13 10.64,-3.98 16.78,-6.28 73.65,-27.61 137.81,-72.76 192.6,-124.46 24.98,-23.53 59.02,-64.02 82.02,-99.77 20.07,-31.23 11.72,-33.52 51.43,-36.56 29.62,-2.26 54.57,-4.81 82.25,-11 134.01,-30.03 253.24,-118.38 316.44,-228.92 19.66,-34.43 30.7,-52 46.18,-89.49 4.63,-11.22 7.44,-24.34 13.34,-33.67l0 -37.62c-11.29,-21.58 -20.08,-96.04 -121.03,-100.12 -71.36,-2.88 -150.09,-0.66 -222.08,-0.17 -3.12,-24.84 5.61,-71.23 -0.62,-91.38 -8.11,-26.16 -40.22,-21.92 -68.71,-21.92l-1271.97 0c-31.41,0 -63.06,-4.57 -72.99,20.3 -5.04,12.61 -0.79,67.57 0.19,84.74 10.76,186.65 69.36,403.16 176.4,551.06 53.22,73.54 110.98,127.28 188.69,174.76 42.14,25.75 117.22,51.45 124.62,59.04 -98.51,3.38 -202.44,0.36 -301.54,0.36 -29.15,0 -125.5,-3.96 -145.16,4.06 -51.87,21.11 -47.35,59.89 -62.52,83.42z"/>
  <path class="fil10" d="M3180.81 6019.18c11.39,15.11 14.12,30.91 23.04,38.9 16.66,14.95 21.62,6.57 43.34,18.08 -31.73,47.27 -9.77,21.67 -12.77,74.09l-40.44 -24.29 -52.24 28.29 6.98 -52.48 -28.09 -25.61c71,-29.57 22.65,15.09 60.18,-56.98zm-156.39 -80.91c-11.31,-14.99 -24.59,-33.05 -32.67,-49.22l31.93 -12.02c24.71,26.58 41.99,62.58 44.5,108.33 -24.91,-12.9 -24.56,-21.64 -43.76,-47.09zm290.56 57.88c-20.95,-32.94 -3.58,-33.88 15.17,-58.73 20.35,-26.98 14.93,-42.46 27.82,-66.76l27.34 7.64c-6.8,32.61 -47.97,94.84 -70.33,117.85zm-781.41 684.15c-20.16,-21.72 -21.17,-31.8 -43.85,-43.45 -43.94,114.19 -160.28,117.72 -114.14,-38.09 -33.48,-37.42 -71.75,-73.35 -32.97,-150.2 26.77,-53.07 55.27,-54.44 113,-82.17 -30.45,-34.41 -213.37,-53.45 -262.82,-101.75 42.13,-22.09 48.35,0.07 64.91,-33.54l-225.77 -90.55 67.08 -21.54c-9.57,-25.34 -11.93,-23.24 -42.07,-34.92l-156.06 -67.9c23.24,-19.4 43.75,-3.25 77.09,-25.7 -11.98,-24.19 4.94,-8.25 -25.36,-26.3 -39.71,-23.65 -178.23,-67.12 -220.98,-110.09 47,2.77 106.84,25.63 150.18,-0.67 2.78,-39.9 -18.78,-41.17 -50.67,-58.18 -24.36,-13 -46.64,-26.75 -71.05,-40.71 -36.54,-20.9 -101.16,-61.05 -120.34,-92.78 223.74,102.72 313.48,152.12 609.32,103.81 97.29,-15.88 248.51,-53.66 346.28,-41.95 96.2,11.52 220.92,74.06 246.25,129.81 -110.68,117.43 -238,259.27 -214.75,467.49l95.18 -30.65c8.38,-96.16 12.64,-153.76 55.99,-228.67 35.26,-60.93 76.17,-109.59 134.28,-139.49 39.18,17.83 58.15,55.35 83.42,96.4 36.68,59.55 37.03,57.27 16.17,131.52 -18.59,66.18 -67.5,218.75 -69.42,281.47 19.52,9.07 16.15,6.6 29.81,21.51 89.14,-20.69 104,-138.59 132.23,-167.56 59.57,-61.14 154.37,-45.12 176.5,40.21 34.74,-1.02 19.85,-4.53 50.35,-8.63 23.03,50.29 26.24,95.16 83.4,56.95 8.89,-45.84 -54.94,-203.72 -71.3,-258.9 -15.63,-52.82 46.68,-141.76 82.11,-185.33l17.91 -18.06c119.05,71.04 190.38,216.79 211.92,358.16l86.93 -22.35c-4.55,-194.02 -137.11,-335.61 -228.54,-411.43 15.75,-24.84 68.36,-66.54 100.21,-86.56 134.2,-84.32 335.59,-54.7 482.31,-35.44 352.22,46.24 472.7,-106.61 588.91,-144.57 -24.07,42.75 -71.29,76.56 -120.73,111.24 -39.93,28.03 -114.34,58.87 -115.29,111.75 28.14,7.1 145.63,-31.12 178.59,-41.13 -22.03,43.21 -230.77,121.22 -247.77,179.17 23.13,8.23 23.33,3.8 46.81,3.32l43.76 6.09c-33.01,20.04 -69.92,39.61 -109.05,60.4 -61.96,32.93 -86.13,36.77 -97.85,70.71l55.42 13.68c-7.51,6.7 2.87,-0.52 -15.11,11.98l-33.16 18.59c-64.86,31.98 -138.03,49.19 -151.35,80.8 28.79,18.04 30.25,6.8 57.28,17.14 -60.3,51.67 -232.39,88.62 -275.55,114.19 13.02,46.81 90,43.12 109.26,125.69 -24.45,50.08 -65.84,57.37 -62.38,130.32l100.72 20.81 -8.12 54.87 -14.05 -54 -87.31 1.83 -16.32 -47c-12.16,46.94 -32.9,43.61 -27,100.42 67.97,18.74 69.83,-28.05 103.99,1.07l-88.34 37.93c36.02,29.31 59.47,-13.02 92.16,3.73 -50.42,18.6 -56.67,17.63 -115.93,17.96 -57,0.31 -46.35,25.74 -110.25,39.21 -77.23,14.96 -141.35,-26.9 -195.76,-20.7 -29.17,3.31 -114.28,65.8 -135.53,89.23 35.24,17.72 119.99,60.83 166.11,50.83 -2.06,-34.13 -8.87,-25.68 -23.1,-52.36 59.38,13.27 71.96,36.7 146.04,29.68 -8.1,-41.69 -11.72,-17.26 -28.7,-54.9 57.84,13.94 63.26,36.68 130.88,35.32 16.52,-18.87 8.12,-24.65 17.13,-42.81 34.83,19.36 63.06,29.74 100.03,8.43 -6.78,-35.82 -9.03,-11.22 -33.42,-45.06 54.11,13.34 101.15,35.57 164.88,27.76 -12.86,-45.6 -49.49,-21.21 -77.48,-73.69 60.69,-2 143.3,7.08 163.13,-44.69 -52.36,-29.78 -133.56,-37.42 -114.44,-114.52 46.14,-21.73 65.12,7.57 104.95,18.32 12.2,-56.29 -35.59,-117.81 -58.84,-144.13 -45.24,-51.25 -72.62,-47.84 -119.12,-84.42 108.57,-48.13 196.23,-78.99 299.65,-153.2 -18.32,-18.55 1.84,-6.23 -26.88,-13.03 -0.51,-0.12 -28,-0.55 -31.79,-0.69 62.25,-32.72 196.5,-95.07 228.24,-142.31 -33.9,-15.21 -52.52,9.39 -82.4,1.73 45.46,-37.69 123.23,-75.44 171.58,-110.65 27.52,-20.03 37.74,-29.47 39.7,-49.93l-91.98 18.67c68.83,-58.74 245.54,-152.84 248.32,-245.48 -111.01,25.35 -105.1,70.38 -218.27,110.7 23.82,-79.28 309.17,-177.26 289.49,-303.52 -38.05,-0.4 -153.76,87.66 -188.34,111.73 -266.92,185.73 -523.37,90.8 -759.98,76.54 -354.82,-21.42 -346.79,178.28 -450.49,140.78 -134.74,-48.7 -242.22,-65.94 -392.26,-12.51 -36.67,13.06 -71.28,34.63 -106.7,41.95 -90.88,-65.37 -159.64,-131.19 -316.64,-139.67 -127.17,-6.86 -268.75,33.71 -390.28,53.78 -420.65,69.48 -602.58,-190.56 -687.35,-171.51 -10.08,46.72 15.21,64.36 39.95,92.41 111.95,126.82 100.18,92.5 214.66,167.79 -72.67,-8.83 -144.51,-87.76 -183,-60.49 -7.51,89.14 254.71,197.27 283.27,215.35 -29.58,-1.87 -31.85,-5.34 -59.2,-13.51l-39.98 -4.91c-1.57,0.14 -5.66,3.83 -6.8,1.64 -1.17,-2.22 -4.68,1.06 -6.86,2.01 22.55,69.21 157.41,98.49 219.55,146.8l-79.39 -12.78c19.81,50.36 180.95,113.17 235.29,131.09l-43.17 10.51c-1.98,0.65 -4.95,2.1 -6.51,2.69l-11.98 6.8c54.64,43.16 80.9,42.58 139.9,70.37 63.43,29.87 -3.19,31.21 142.3,64.54 -22.86,48.14 -151.49,133.64 -132.8,208.06 13.54,5.21 -15.73,6.02 19.41,2.77 1.71,-0.15 4.35,-0.46 6.07,-0.83 25.01,-5.39 5.57,-4.75 27.99,-14.87 65.71,-29.64 87.04,32.34 36.51,79.07 -31.45,29.1 -54.78,15.28 -91.67,28.47 11.73,56.94 102.56,60.63 166.47,50.66 -7.13,22.24 -16.66,24.65 -43.16,38.75 -26.91,14.29 -31.27,10.86 -46.55,33.92 36.59,24.15 98.38,26.98 151.33,21.62 22.93,-33.94 5.24,-49.59 35.01,-87.45 24.21,-30.78 41.12,-26.91 48.9,-56.12z"/>
  <path class="fil10" d="M2543.77 6521.66c12.84,-31.59 21.78,-47.01 51.86,-58.1 0.77,30.06 -6.05,80.51 -27.52,101.7l-24.34 -43.6zm516.23 85.4c-55.47,-34.76 -18.46,-151.16 7.87,-169.77 35.46,-25.05 12.21,20.33 68.72,-25.01 25.29,-20.29 40.04,-37.4 78.03,-22.12 11.42,60.74 -40.91,34.73 34.57,111.6 25.14,25.59 77.38,64.34 25.2,109.95 -76.4,16.15 -50.36,-59.78 -46.41,-108.68 -32.48,1.31 -39.65,14.79 -56.12,28.72 2.07,-36.98 18.42,-132.49 -41.27,-91.83 -0.28,41.39 -4.06,-1.74 11.03,24.33 40.02,69.13 -33.77,166.01 -81.62,142.81zm-517.09 72.06l26.63 -0.45c88.84,-68.28 156.98,-27.88 176.04,-40.04 22.9,-32.51 7.89,-27.96 39.41,-55.48 31.16,-27.17 27.3,-19.76 29.61,-75.76 -77.05,22.85 -65.48,111.15 -139.58,98.36 -2.32,-25.78 4.26,-60.89 20.71,-78.66 38.26,-41.34 20.5,8.64 60.22,-13.99 -13.82,-48.19 -45.2,-18 -72.29,-8.57 4.14,-36.5 16.2,-54.11 46.43,-62.23 46.47,-12.47 30.19,10.24 66.61,32.18 28.07,-101.06 -100.26,-63.56 -130.99,-2.26 -28.43,56.75 -13.63,160.88 -66.87,165.86 -22.67,-76.79 9.62,-183.95 63.97,-211.45 61.55,-31.14 174.34,-44.87 189.31,32.74l10.89 -14.54c1.37,-1.16 3.24,-3.12 4.85,-4.16 3.58,-2.3 -4.24,-4.98 19.07,-7.05 78.46,-6.95 46.64,95.48 45.64,100.24l-49.65 4.93c9.17,89.91 59.44,78.97 86.61,119.95 -31.3,18.41 -73.96,29.73 -106.65,44.92 -61.57,28.6 -267.83,154.71 -318.44,125.19 -66.04,-80 19.28,-112.67 56.28,-150.52l-31.07 8.29c-9.48,19.8 -51.72,27.79 -73,71.38 -17.69,36.23 -12.4,82.7 15.51,103.89 56.67,43.04 170.21,-34.91 209.21,-59.78 84.07,-53.64 311.34,-211.25 402.16,-91.21 -3.58,47.53 -25.15,38.06 -26.35,91.76l-8.68 -46.28c-89.07,-24.36 -164.95,-98.11 -233.25,-11.97 62.73,93.76 347.38,164.11 559.91,74.18 80.04,-33.88 111.88,-46.57 139.76,-101.82l154.19 31.2c61.34,4.55 87.62,4.75 134.2,-14.49 17.47,-65.4 -6.23,-175.38 42.51,-200.16 20.28,-10.31 27.61,-11.92 54.95,17.76 6.34,-58.7 18.78,-51.23 53.47,-75.06 0.38,-37 -7.11,-43.59 -19.79,-65.42 -40.41,31.72 -10.26,89.66 -76.41,84.78 -21.63,-70.99 45.43,-47.54 27.7,-124.61 -30.43,15.5 -6.97,2.4 -28.32,22.43 -20.9,60.52 -36.42,48.24 -57.9,96.73 -27.86,62.86 19.28,249.12 -212.21,224.36 -109.89,-11.76 -148.92,-21.47 -258.25,6.65 -62.76,16.17 -183.45,74.79 -225.19,59 9.54,-45.58 17.16,-15.92 39.48,-52.66 -17.83,-42.43 -37.2,-35.27 -70.87,-59.97l63.44 -40.59 16.82 42.14c3.24,-0.06 99.57,-31.65 105.47,-35.44 30.62,-19.52 31.58,-62.04 10.67,-96.68 -9.64,-15.99 -136.53,-176.55 2.77,-148.59l-5.14 62.62c45.34,-1.21 574.75,-286.13 561.89,-85.84 -65.6,59.75 -77.54,-8.14 -117.83,-30.15 -40.13,-21.92 -117.49,6.35 -157.36,20.1 -66.85,23.07 -222.16,91.72 -258.95,132.51 20.41,40.04 46.18,40.14 18.41,114.56 -23.39,62.64 -37.93,60.26 -113.99,56.23 11.87,71.25 74.48,60.43 103.5,10.63 32.67,-56.08 26.91,-118.87 49.9,-158.89 1.55,1.6 3.63,2.06 4.13,5.24 0.5,3.16 3.2,4.06 3.81,5.42 12.52,27.83 6.43,19.58 10.99,68.97 3.1,33.35 3.63,49.44 23.9,68.73 32.21,-30.49 35.05,-68.25 67.99,-99.83l-6 112.26c68.66,5.18 51.57,-50.11 49.33,-98.03 -3.16,-67.39 40.06,-94.98 -8.5,-130.57 -44.79,32.36 -30.23,96.83 -84.57,104.03 -34.9,-90.86 4.95,-109.63 66.85,-144.9 55.21,-31.46 109.42,-64.19 183.46,-44.04 40.04,86.82 -4.2,228.58 -34.02,316.05 134.06,37.65 39.19,-160.79 82.86,-220.13 35.02,-26.62 59.22,-15.54 105.52,-17.27l35.08 -39.28c-10.03,-71.54 -10.27,-105.96 -89.41,-115.18 -58.13,-6.76 -123.27,7.28 -175.35,22.17 -114.67,32.79 -189.23,88.69 -284.68,119.88 2.64,-32.66 0.04,-51.51 -10.67,-73.31 -61.72,-8.07 -43.05,8.1 -80.93,14.1 -42.8,6.79 -18.26,-18.58 -69.48,-2.28 -49.51,15.77 -21.62,40.7 -78.3,31.04 -49.83,-8.49 -102.45,78.87 -112.45,105.28 -22.69,59.85 -6.13,100.66 20.71,136.21 99.42,10.98 118.18,-29.55 157.34,-87.46l-1.91 60.39c-42.05,24.28 -69.07,63.24 -142.63,50.89 -59.29,-9.96 -94.36,-36.55 -95.31,-102.37 26.8,-20.87 52.3,-28.3 41.35,-73.93 -5.72,-23.72 -34.45,-53.1 -55.42,-66.79 -45.23,-29.55 -148.18,-29.86 -209.48,-28.49 -190.03,4.18 -141.75,103.81 -217.52,139.49 -77.85,36.68 -117.29,6.41 -64.45,-55.66 62.45,-73.35 64.25,15.97 174.99,-72.94 131.47,-105.54 201.03,-17.7 261.62,-38.74 3.57,-51.71 -40.29,-49.64 -94.12,-43.46 -95.02,10.92 -130.68,36.2 -196.85,78.01 -75.05,47.45 -62.38,10.6 -77.46,-7.54 -160.2,18.15 -176.19,197.79 -86.06,195.32 30.77,-0.83 43.96,-26.56 90.82,-36.22 -13.14,65.15 -31.54,113.86 -88.43,64.09 -11.16,19.92 -28.96,39.24 -22.98,66.8 44.27,79.75 128.3,-97.51 139.54,-119.42 61.32,55.9 -13.22,65.09 17.52,122.67z"/>
  <path class="fil10" d="M2664.03 6870.12c35.39,-0.85 52.55,-5.1 82.31,-9.81 54.26,-8.64 31.05,14.55 63.63,20.98 30.22,5.99 107.1,-40.92 123.84,-56.63 -104.8,-75.79 -97.85,-71.62 -137.94,-51.81 -30.47,15.07 -51.54,27.42 -77.76,42.71 -22.9,13.34 -52.06,22.44 -54.08,54.56z"/>
  <path class="fil10" d="M3594.21 6453.12c8.71,74.86 17.63,50.94 -3.69,130.01 -14.87,55.16 -37.62,107.89 38.88,91.29 2.96,-7.48 36.51,-247.71 35.46,-261.91 -35.49,8.51 -47.67,18.59 -70.65,40.61z"/>
  <path class="fil10" d="M2991.75 5889.05c8.08,16.17 21.36,34.23 32.67,49.22 19.2,25.45 18.85,34.19 43.76,47.09 -2.51,-45.75 -19.79,-81.75 -44.5,-108.33l-31.93 12.02z"/>
  <path class="fil10" d="M3314.98 5996.15c22.36,-23.01 63.53,-85.24 70.33,-117.85l-27.34 -7.64c-12.89,24.3 -7.47,39.78 -27.82,66.76 -18.75,24.85 -36.12,25.79 -15.17,58.73z"/>
  <path class="fil10" d="M2543.77 6521.66l24.34 43.6c21.47,-21.19 28.29,-71.64 27.52,-101.7 -30.08,11.09 -39.02,26.51 -51.86,58.1z"/>
  <polygon class="fil22" points="7762.21,8611.06 7759.39,8669.42 7835.81,8813.95 7806.84,9006.22 7759.43,9006.22 7706.92,8947.87 "/>
  <path class="fil18" d="M5568.43 9680.36l0 0c32.95,0 59.91,53.92 59.91,119.82l0 569.13c0,65.91 -26.96,119.82 -59.91,119.82l0 0c-32.96,0 -59.91,-53.91 -59.91,-119.82l0 -569.13c0,-65.9 26.95,-119.82 59.91,-119.82z"/>
  <path class="fil18" d="M6048.59 9692.3l0 0c32.95,0 59.91,53.91 59.91,119.82l0 569.13c0,65.9 -26.96,119.82 -59.91,119.82l0 0c-32.96,0 -59.91,-53.92 -59.91,-119.82l0 -569.13c0,-65.91 26.95,-119.82 59.91,-119.82z"/>
  <path class="fil18" d="M6371.89 9790.66l0 0c32.94,0 59.9,26.96 59.9,59.91l0 284.57c0,32.95 -26.96,59.91 -59.9,59.91l0 0c-32.96,0 -59.92,-26.96 -59.92,-59.91l0 -284.57c0,-32.95 26.96,-59.91 59.92,-59.91z"/>
  <path class="fil18" d="M6801.39 9788.12l0 0c32.94,0 59.9,32.61 59.9,72.45l0 344.13c0,39.85 -26.96,72.45 -59.9,72.45l0 0c-32.96,0 -59.91,-32.6 -59.91,-72.45l0 -344.13c0,-39.84 26.95,-72.45 59.91,-72.45z"/>
  <path class="fil18" d="M7196.48 9761.99l0 0c55.02,0 100.05,45.93 100.05,102.08l0 484.81c0,56.13 -45.03,102.07 -100.05,102.07l0 0c-55.03,0 -100.06,-45.94 -100.06,-102.07l0 -484.81c0,-56.15 45.03,-102.08 100.06,-102.08z"/>
  <path class="fil18" d="M7679.2 9787.99l0 0c32.95,0 59.91,45.92 59.91,102.08l0 484.81c0,56.13 -26.96,102.07 -59.91,102.07l0 0c-32.96,0 -59.91,-45.94 -59.91,-102.07l0 -484.81c0,-56.16 26.95,-102.08 59.91,-102.08z"/>
  <path class="fil18" d="M8006.02 9787.99l0 0c32.94,0 59.9,45.92 59.9,102.08l0 484.81c0,56.13 -26.96,102.07 -59.9,102.07l0 0c-32.96,0 -59.91,-45.94 -59.91,-102.07l0 -484.81c0,-56.16 26.95,-102.08 59.91,-102.08z"/>
  <path class="fil18" d="M8368.29 9740.27l0 0c32.95,0 59.91,45.93 59.91,102.07l0 484.81c0,56.15 -26.96,102.07 -59.91,102.07l0 0c-32.96,0 -59.91,-45.92 -59.91,-102.07l0 -484.81c0,-56.14 26.95,-102.07 59.91,-102.07z"/>
  <path class="fil18" d="M8659.7 9624.58l0 0c32.94,0 59.89,45.92 59.89,102.08l0 484.81c0,56.13 -26.95,102.06 -59.89,102.06l0 0c-32.96,0 -59.91,-45.93 -59.91,-102.06l0 -484.81c0,-56.16 26.95,-102.08 59.91,-102.08z"/>
 </g>
</svg>
