<?xml version="1.0" encoding="UTF-8"?>
<!DOCTYPE svg PUBLIC "-//W3C//DTD SVG 1.1//EN" "http://www.w3.org/Graphics/SVG/1.1/DTD/svg11.dtd">
<!-- Creator: CorelDRAW 2017 -->
<svg xmlns="http://www.w3.org/2000/svg" xml:space="preserve" width="118.533mm" height="118.533mm" version="1.1" style="shape-rendering:geometricPrecision; text-rendering:geometricPrecision; image-rendering:optimizeQuality; fill-rule:evenodd; clip-rule:evenodd"
viewBox="0 0 11853.32 11853.32"
 xmlns:xlink="http://www.w3.org/1999/xlink">
 <defs>
  <style type="text/css">
   <![CDATA[
    .str1 {stroke:#4D4D4D;stroke-width:42.33;stroke-miterlimit:22.9256}
    .str0 {stroke:black;stroke-width:20;stroke-miterlimit:22.9256}
    .str2 {stroke:#FFDD00;stroke-width:7.62;stroke-miterlimit:22.9256}
    .fil5 {fill:none}
    .fil2 {fill:black}
    .fil0 {fill:#00AEBE}
    .fil6 {fill:#1A1A1A}
    .fil15 {fill:#58595B}
    .fil11 {fill:#660066}
    .fil18 {fill:#663300}
    .fil7 {fill:#666666}
    .fil14 {fill:#939598}
    .fil9 {fill:#990000}
    .fil17 {fill:#9900CC}
    .fil16 {fill:#B3B3B3}
    .fil13 {fill:#BCBDC0}
    .fil12 {fill:#BD0006}
    .fil21 {fill:#CC9933}
    .fil10 {fill:#CCCCCC}
    .fil22 {fill:#F5F11E}
    .fil1 {fill:#FCD5A6}
    .fil3 {fill:#FEFEFE}
    .fil8 {fill:red}
    .fil19 {fill:#FF6666}
    .fil20 {fill:#FFDD00}
    .fil4 {fill:white}
   ]]>
  </style>
    <clipPath id="id0">
     <path d="M10259.1 3749.8l75.71 0 0 -17.48 -75.71 0 0 17.48z"/>
    </clipPath>
    <clipPath id="id1">
     <path d="M10273.66 3735.25l75.71 0 0 -17.47 -75.71 0 0 17.47z"/>
    </clipPath>
    <clipPath id="id2">
     <path d="M10287.07 3721.98l62.71 0 0 -19.21 -62.71 0 0 19.21z"/>
    </clipPath>
    <clipPath id="id3">
     <path d="M10288.22 3706.13l75.7 0 0 -17.46 -75.7 0 0 17.46z"/>
    </clipPath>
    <clipPath id="id4">
     <path d="M10302.79 3691.57l75.67 0 0 -17.46 -75.67 0 0 17.46z"/>
    </clipPath>
    <clipPath id="id5">
     <path d="M10317.33 3677.01l75.71 0 0 -17.47 -75.71 0 0 17.47z"/>
    </clipPath>
    <clipPath id="id6">
     <path d="M10330.66 3663.54l62.69 0 0 -19.15 -62.69 0 0 19.15z"/>
    </clipPath>
    <clipPath id="id7">
     <path d="M10331.91 3647.9l75.69 0 0 -17.47 -75.69 0 0 17.47z"/>
    </clipPath>
    <clipPath id="id8">
     <path d="M10346.45 3633.33l75.69 0 0 -17.47 -75.69 0 0 17.47z"/>
    </clipPath>
    <clipPath id="id9">
     <path d="M10359.69 3619.75l62.72 0 0 -19.22 -62.72 0 0 19.22z"/>
    </clipPath>
    <clipPath id="id10">
     <path d="M10375.58 3604.22l46.56 0 0 -17.46 -46.56 0 0 17.46z"/>
    </clipPath>
    <clipPath id="id11">
     <path d="M10374.24 3590.59l33.65 0 0 -19.22 -33.65 0 0 19.22z"/>
    </clipPath>
    <clipPath id="id12">
     <path d="M10375.58 3575.11l17.46 0 0 -17.46 -17.46 0 0 17.46z"/>
    </clipPath>
    <clipPath id="id13">
     <path d="M10359.69 3561.37l19.14 0 0 -33.81 -19.14 0 0 33.81z"/>
    </clipPath>
    <clipPath id="id14">
     <path d="M10346.45 3531.43l17.47 0 0 -17.47 -17.47 0 0 17.47z"/>
    </clipPath>
    <clipPath id="id15">
     <path d="M10064.98 3860.7l82.99 0 0 -19.2 -82.99 0 0 19.2z"/>
    </clipPath>
    <clipPath id="id16">
     <path d="M10080.6 3846.1l67.37 0 0 -33.81 -67.37 0 0 33.81z"/>
    </clipPath>
    <clipPath id="id17">
     <path d="M10096.22 3816.95l51.75 0 0 -19.22 -51.75 0 0 19.22z"/>
    </clipPath>
    <clipPath id="id18">
     <path d="M7380.22 3697.36l65.21 0 0 -16.22 -65.21 0 0 16.22z"/>
    </clipPath>
    <clipPath id="id19">
     <path d="M7380.22 3660.41l40.66 0 0 -16.22 -40.66 0 0 16.22z"/>
    </clipPath>
 </defs>
 <g id="Layer_x0020_1">
  <metadata id="CorelCorpID_0Corel-Layer"/>
  <g id="_852415384">
   <path class="fil0" d="M916.84 3636.94l461.12 0 965.86 1314.82 978.32 -1314.82 486.06 0c292.87,0 535.89,261.72 535.89,591.97l0 3420.96c0,330.27 -243.02,591.97 -535.89,591.97l-2891.31 0c-299.12,0 -535.9,-261.7 -535.9,-591.97l0 -3420.96c0,-330.25 236.78,-591.97 535.9,-591.97l-0.01 0 -0.01 0 -0.01 0 -0.01 0 -0.01 0z"/>
   <path class="fil1" d="M2381.21 203.49c822.54,0 1458.14,629.37 1458.14,1514.23 0,822.54 -635.6,1520.46 -1458.14,1520.46 -884.86,0 -1520.45,-697.92 -1520.45,-1520.46 0,-884.86 635.59,-1514.23 1520.45,-1514.23z"/>
   <path class="fil2" d="M2381.21 203.49c635.59,0 1264.98,442.43 1389.58,1071.8 68.56,317.8 -1514.22,-186.95 -1894.32,-760.23 -255.49,336.5 -822.54,697.92 -947.18,697.92 186.95,-567.05 754,-1009.48 1451.92,-1009.48l0 0 0 -0.01z"/>
   <path class="fil2" d="M2038.48 527.53c567.07,535.9 1414.53,816.3 1645.09,672.99 -623.14,-6.25 -1308.59,-373.89 -1645.09,-672.99z"/>
   <path class="fil2" d="M2131.95 465.21c454.89,429.97 1134.11,648.06 1321.06,535.91 -498.51,0 -1046.88,-299.11 -1321.06,-535.91z"/>
   <path class="fil2" d="M1857.77 502.6c-261.7,299.12 -654.29,498.51 -766.45,454.9 292.88,-56.09 610.68,-286.65 766.45,-454.9z"/>
   <path class="fil3" d="M1664.61 3250.6l-336.5 392.57c62.32,267.94 93.47,579.51 261.71,679.2 236.8,-162.01 361.42,-405.03 722.85,-486.04 -230.56,-62.3 -405.04,-342.72 -648.06,-585.73z"/>
   <path class="fil3" d="M3035.47 3250.6l336.49 392.57c-62.3,267.94 -93.47,579.51 -261.72,679.2 -236.78,-162.01 -361.41,-405.03 -722.83,-486.04 230.57,-62.3 405.03,-342.72 648.06,-585.73z"/>
   <rect class="fil4" x="7908.62" y="3233.44" width="2421.81" height="3535.29"/>
   <path class="fil1" d="M9150.46 346.13c799.3,0 1447.15,647.94 1447.15,1447.3 0,799.22 -647.85,1447.16 -1447.15,1447.16 -62.94,0 -124.97,-4.02 -185.82,-11.83 -711.51,-91.2 -1261.39,-699.04 -1261.39,-1435.33 0,-799.38 647.91,-1447.28 1447.21,-1447.3z"/>
   <path class="fil2" d="M9150.46 346.13c653.21,0 1205.08,432.81 1385.12,1027.24 25.44,290.55 -1480.9,-143.87 -1847.79,-709.58 -77.71,100.15 -760.84,641.63 -911.27,673.92 190.96,-576.1 733.85,-991.56 1373.94,-991.58z"/>
   <g>
   </g>
   <g>
   </g>
   <g style="clip-path:url(#id0)">
    <g id="_845829976">
    </g>
   </g>
   <polygon class="fil5" points="10259.1,3749.8 10334.81,3749.8 10334.81,3732.32 10259.1,3732.32 "/>
   <polygon class="fil5" points="10259.1,3749.8 10334.81,3749.8 10334.81,3732.32 10259.1,3732.32 "/>
   <polygon class="fil5" points="10259.1,3749.8 10334.81,3749.8 10334.81,3732.32 10259.1,3732.32 "/>
   <polygon class="fil5" points="10259.1,3749.8 10334.81,3749.8 10334.81,3732.32 10259.1,3732.32 "/>
   <polygon class="fil5" points="10259.1,3749.8 10334.81,3749.8 10334.81,3732.32 10259.1,3732.32 "/>
   <polygon class="fil5" points="10259.1,3749.8 10334.81,3749.8 10334.81,3732.32 10259.1,3732.32 "/>
   <polygon class="fil5" points="10259.1,3749.8 10334.81,3749.8 10334.81,3732.32 10259.1,3732.32 "/>
   <polygon class="fil5" points="10259.1,3749.8 10334.81,3749.8 10334.81,3732.32 10259.1,3732.32 "/>
   <g id="_845830888">
   </g>
   <g>
   </g>
   <g style="clip-path:url(#id1)">
    <g>
    </g>
   </g>
   <polygon class="fil5" points="10273.66,3735.25 10349.37,3735.25 10349.37,3717.78 10273.66,3717.78 "/>
   <polygon class="fil5" points="10273.66,3735.25 10349.37,3735.25 10349.37,3717.78 10273.66,3717.78 "/>
   <polygon class="fil5" points="10273.66,3735.25 10349.37,3735.25 10349.37,3717.78 10273.66,3717.78 "/>
   <polygon class="fil5" points="10273.66,3735.25 10349.37,3735.25 10349.37,3717.78 10273.66,3717.78 "/>
   <polygon class="fil5" points="10273.66,3735.25 10349.37,3735.25 10349.37,3717.78 10273.66,3717.78 "/>
   <polygon class="fil5" points="10273.66,3735.25 10349.37,3735.25 10349.37,3717.78 10273.66,3717.78 "/>
   <polygon class="fil5" points="10273.66,3735.25 10349.37,3735.25 10349.37,3717.78 10273.66,3717.78 "/>
   <polygon class="fil5" points="10273.66,3735.25 10349.37,3735.25 10349.37,3717.78 10273.66,3717.78 "/>
   <g>
   </g>
   <g>
   </g>
   <g style="clip-path:url(#id2)">
    <g>
    </g>
   </g>
   <polygon class="fil5" points="10287.07,3721.98 10349.78,3721.98 10349.78,3702.77 10287.07,3702.77 "/>
   <polygon class="fil5" points="10287.07,3721.98 10349.78,3721.98 10349.78,3702.77 10287.07,3702.77 "/>
   <polygon class="fil5" points="10287.07,3721.98 10349.78,3721.98 10349.78,3702.77 10287.07,3702.77 "/>
   <polygon class="fil5" points="10287.07,3721.98 10349.78,3721.98 10349.78,3702.77 10287.07,3702.77 "/>
   <polygon class="fil5" points="10287.07,3721.98 10349.78,3721.98 10349.78,3702.77 10287.07,3702.77 "/>
   <polygon class="fil5" points="10287.07,3721.98 10349.78,3721.98 10349.78,3702.77 10287.07,3702.77 "/>
   <polygon class="fil5" points="10287.07,3721.98 10349.78,3721.98 10349.78,3702.77 10287.07,3702.77 "/>
   <polygon class="fil5" points="10287.07,3721.98 10349.78,3721.98 10349.78,3702.77 10287.07,3702.77 "/>
   <g>
   </g>
   <g>
   </g>
   <g style="clip-path:url(#id3)">
    <g>
    </g>
   </g>
   <polygon class="fil5" points="10288.22,3706.13 10363.92,3706.13 10363.92,3688.67 10288.22,3688.67 "/>
   <polygon class="fil5" points="10288.22,3706.13 10363.92,3706.13 10363.92,3688.67 10288.22,3688.67 "/>
   <polygon class="fil5" points="10288.22,3706.13 10363.92,3706.13 10363.92,3688.67 10288.22,3688.67 "/>
   <polygon class="fil5" points="10288.22,3706.13 10363.92,3706.13 10363.92,3688.67 10288.22,3688.67 "/>
   <polygon class="fil5" points="10288.22,3706.13 10363.92,3706.13 10363.92,3688.67 10288.22,3688.67 "/>
   <polygon class="fil5" points="10288.22,3706.13 10363.92,3706.13 10363.92,3688.67 10288.22,3688.67 "/>
   <polygon class="fil5" points="10288.22,3706.13 10363.92,3706.13 10363.92,3688.67 10288.22,3688.67 "/>
   <polygon class="fil5" points="10288.22,3706.13 10363.92,3706.13 10363.92,3688.67 10288.22,3688.67 "/>
   <g>
   </g>
   <g>
   </g>
   <g style="clip-path:url(#id4)">
    <g>
    </g>
   </g>
   <polygon class="fil5" points="10302.79,3691.57 10378.46,3691.57 10378.46,3674.11 10302.79,3674.11 "/>
   <polygon class="fil5" points="10302.79,3691.57 10378.46,3691.57 10378.46,3674.11 10302.79,3674.11 "/>
   <polygon class="fil5" points="10302.79,3691.57 10378.46,3691.57 10378.46,3674.11 10302.79,3674.11 "/>
   <polygon class="fil5" points="10302.79,3691.57 10378.46,3691.57 10378.46,3674.11 10302.79,3674.11 "/>
   <polygon class="fil5" points="10302.79,3691.57 10378.46,3691.57 10378.46,3674.11 10302.79,3674.11 "/>
   <polygon class="fil5" points="10302.79,3691.57 10378.46,3691.57 10378.46,3674.11 10302.79,3674.11 "/>
   <polygon class="fil5" points="10302.79,3691.57 10378.46,3691.57 10378.46,3674.11 10302.79,3674.11 "/>
   <polygon class="fil5" points="10302.79,3691.57 10378.46,3691.57 10378.46,3674.11 10302.79,3674.11 "/>
   <g>
   </g>
   <g>
   </g>
   <g style="clip-path:url(#id5)">
    <g>
    </g>
   </g>
   <polygon class="fil5" points="10317.33,3677.01 10393.04,3677.01 10393.04,3659.54 10317.33,3659.54 "/>
   <polygon class="fil5" points="10317.33,3677.01 10393.04,3677.01 10393.04,3659.54 10317.33,3659.54 "/>
   <polygon class="fil5" points="10317.33,3677.01 10393.04,3677.01 10393.04,3659.54 10317.33,3659.54 "/>
   <polygon class="fil5" points="10317.33,3677.01 10393.04,3677.01 10393.04,3659.54 10317.33,3659.54 "/>
   <polygon class="fil5" points="10317.33,3677.01 10393.04,3677.01 10393.04,3659.54 10317.33,3659.54 "/>
   <polygon class="fil5" points="10317.33,3677.01 10393.04,3677.01 10393.04,3659.54 10317.33,3659.54 "/>
   <polygon class="fil5" points="10317.33,3677.01 10393.04,3677.01 10393.04,3659.54 10317.33,3659.54 "/>
   <polygon class="fil5" points="10317.33,3677.01 10393.04,3677.01 10393.04,3659.54 10317.33,3659.54 "/>
   <g>
   </g>
   <g>
   </g>
   <g style="clip-path:url(#id6)">
    <g>
    </g>
   </g>
   <polygon class="fil5" points="10330.66,3663.54 10393.35,3663.54 10393.35,3644.39 10330.66,3644.39 "/>
   <polygon class="fil5" points="10330.66,3663.54 10393.35,3663.54 10393.35,3644.39 10330.66,3644.39 "/>
   <polygon class="fil5" points="10330.66,3663.54 10393.35,3663.54 10393.35,3644.39 10330.66,3644.39 "/>
   <polygon class="fil5" points="10330.66,3663.54 10393.35,3663.54 10393.35,3644.39 10330.66,3644.39 "/>
   <polygon class="fil5" points="10330.66,3663.54 10393.35,3663.54 10393.35,3644.39 10330.66,3644.39 "/>
   <polygon class="fil5" points="10330.66,3663.54 10393.35,3663.54 10393.35,3644.39 10330.66,3644.39 "/>
   <polygon class="fil5" points="10330.66,3663.54 10393.35,3663.54 10393.35,3644.39 10330.66,3644.39 "/>
   <polygon class="fil5" points="10330.66,3663.54 10393.35,3663.54 10393.35,3644.39 10330.66,3644.39 "/>
   <g>
   </g>
   <g>
   </g>
   <g style="clip-path:url(#id7)">
    <g>
    </g>
   </g>
   <polygon class="fil5" points="10331.91,3647.9 10407.6,3647.9 10407.6,3630.43 10331.91,3630.43 "/>
   <polygon class="fil5" points="10331.91,3647.9 10407.6,3647.9 10407.6,3630.43 10331.91,3630.43 "/>
   <polygon class="fil5" points="10331.91,3647.9 10407.6,3647.9 10407.6,3630.43 10331.91,3630.43 "/>
   <polygon class="fil5" points="10331.91,3647.9 10407.6,3647.9 10407.6,3630.43 10331.91,3630.43 "/>
   <polygon class="fil5" points="10331.91,3647.9 10407.6,3647.9 10407.6,3630.43 10331.91,3630.43 "/>
   <polygon class="fil5" points="10331.91,3647.9 10407.6,3647.9 10407.6,3630.43 10331.91,3630.43 "/>
   <polygon class="fil5" points="10331.91,3647.9 10407.6,3647.9 10407.6,3630.43 10331.91,3630.43 "/>
   <polygon class="fil5" points="10331.91,3647.9 10407.6,3647.9 10407.6,3630.43 10331.91,3630.43 "/>
   <g>
   </g>
   <g>
   </g>
   <g style="clip-path:url(#id8)">
    <g>
    </g>
   </g>
   <polygon class="fil5" points="10346.45,3633.33 10422.14,3633.33 10422.14,3615.86 10346.45,3615.86 "/>
   <polygon class="fil5" points="10346.45,3633.33 10422.14,3633.33 10422.14,3615.86 10346.45,3615.86 "/>
   <polygon class="fil5" points="10346.45,3633.33 10422.14,3633.33 10422.14,3615.86 10346.45,3615.86 "/>
   <polygon class="fil5" points="10346.45,3633.33 10422.14,3633.33 10422.14,3615.86 10346.45,3615.86 "/>
   <polygon class="fil5" points="10346.45,3633.33 10422.14,3633.33 10422.14,3615.86 10346.45,3615.86 "/>
   <polygon class="fil5" points="10346.45,3633.33 10422.14,3633.33 10422.14,3615.86 10346.45,3615.86 "/>
   <polygon class="fil5" points="10346.45,3633.33 10422.14,3633.33 10422.14,3615.86 10346.45,3615.86 "/>
   <polygon class="fil5" points="10346.45,3633.33 10422.14,3633.33 10422.14,3615.86 10346.45,3615.86 "/>
   <g>
   </g>
   <g>
   </g>
   <g style="clip-path:url(#id9)">
    <g>
    </g>
   </g>
   <polygon class="fil5" points="10359.69,3619.75 10422.41,3619.75 10422.41,3600.53 10359.69,3600.53 "/>
   <polygon class="fil5" points="10359.69,3619.75 10422.41,3619.75 10422.41,3600.53 10359.69,3600.53 "/>
   <polygon class="fil5" points="10359.69,3619.75 10422.41,3619.75 10422.41,3600.53 10359.69,3600.53 "/>
   <polygon class="fil5" points="10359.69,3619.75 10422.41,3619.75 10422.41,3600.53 10359.69,3600.53 "/>
   <polygon class="fil5" points="10359.69,3619.75 10422.41,3619.75 10422.41,3600.53 10359.69,3600.53 "/>
   <polygon class="fil5" points="10359.69,3619.75 10422.41,3619.75 10422.41,3600.53 10359.69,3600.53 "/>
   <polygon class="fil5" points="10359.69,3619.75 10422.41,3619.75 10422.41,3600.53 10359.69,3600.53 "/>
   <polygon class="fil5" points="10359.69,3619.75 10422.41,3619.75 10422.41,3600.53 10359.69,3600.53 "/>
   <g>
   </g>
   <g>
   </g>
   <g style="clip-path:url(#id10)">
    <g>
    </g>
   </g>
   <polygon class="fil5" points="10375.58,3604.22 10422.14,3604.22 10422.14,3586.76 10375.58,3586.76 "/>
   <polygon class="fil5" points="10375.58,3604.22 10422.14,3604.22 10422.14,3586.76 10375.58,3586.76 "/>
   <polygon class="fil5" points="10375.58,3604.22 10422.14,3604.22 10422.14,3586.76 10375.58,3586.76 "/>
   <polygon class="fil5" points="10375.58,3604.22 10422.14,3604.22 10422.14,3586.76 10375.58,3586.76 "/>
   <polygon class="fil5" points="10375.58,3604.22 10422.14,3604.22 10422.14,3586.76 10375.58,3586.76 "/>
   <polygon class="fil5" points="10375.58,3604.22 10422.14,3604.22 10422.14,3586.76 10375.58,3586.76 "/>
   <polygon class="fil5" points="10375.58,3604.22 10422.14,3604.22 10422.14,3586.76 10375.58,3586.76 "/>
   <polygon class="fil5" points="10375.58,3604.22 10422.14,3604.22 10422.14,3586.76 10375.58,3586.76 "/>
   <g>
   </g>
   <g>
   </g>
   <g style="clip-path:url(#id11)">
    <g>
    </g>
   </g>
   <polygon class="fil5" points="10374.24,3590.59 10407.89,3590.59 10407.89,3571.37 10374.24,3571.37 "/>
   <polygon class="fil5" points="10374.24,3590.59 10407.89,3590.59 10407.89,3571.37 10374.24,3571.37 "/>
   <polygon class="fil5" points="10374.24,3590.59 10407.89,3590.59 10407.89,3571.37 10374.24,3571.37 "/>
   <polygon class="fil5" points="10374.24,3590.59 10407.89,3590.59 10407.89,3571.37 10374.24,3571.37 "/>
   <polygon class="fil5" points="10374.24,3590.59 10407.89,3590.59 10407.89,3571.37 10374.24,3571.37 "/>
   <polygon class="fil5" points="10374.24,3590.59 10407.89,3590.59 10407.89,3571.37 10374.24,3571.37 "/>
   <polygon class="fil5" points="10374.24,3590.59 10407.89,3590.59 10407.89,3571.37 10374.24,3571.37 "/>
   <polygon class="fil5" points="10374.24,3590.59 10407.89,3590.59 10407.89,3571.37 10374.24,3571.37 "/>
   <g>
   </g>
   <g>
   </g>
   <g style="clip-path:url(#id12)">
    <g>
    </g>
   </g>
   <polygon class="fil5" points="10375.58,3575.11 10393.04,3575.11 10393.04,3557.65 10375.58,3557.65 "/>
   <polygon class="fil5" points="10375.58,3575.11 10393.04,3575.11 10393.04,3557.65 10375.58,3557.65 "/>
   <polygon class="fil5" points="10375.58,3575.11 10393.04,3575.11 10393.04,3557.65 10375.58,3557.65 "/>
   <polygon class="fil5" points="10375.58,3575.11 10393.04,3575.11 10393.04,3557.65 10375.58,3557.65 "/>
   <polygon class="fil5" points="10375.58,3575.11 10393.04,3575.11 10393.04,3557.65 10375.58,3557.65 "/>
   <polygon class="fil5" points="10375.58,3575.11 10393.04,3575.11 10393.04,3557.65 10375.58,3557.65 "/>
   <polygon class="fil5" points="10375.58,3575.11 10393.04,3575.11 10393.04,3557.65 10375.58,3557.65 "/>
   <polygon class="fil5" points="10375.58,3575.11 10393.04,3575.11 10393.04,3557.65 10375.58,3557.65 "/>
   <g>
   </g>
   <g>
   </g>
   <g style="clip-path:url(#id13)">
    <g>
    </g>
   </g>
   <polygon class="fil5" points="10359.69,3561.37 10378.83,3561.37 10378.83,3527.56 10359.69,3527.56 "/>
   <polygon class="fil5" points="10359.69,3561.37 10378.83,3561.37 10378.83,3527.56 10359.69,3527.56 "/>
   <polygon class="fil5" points="10359.69,3561.37 10378.83,3561.37 10378.83,3527.56 10359.69,3527.56 "/>
   <polygon class="fil5" points="10359.69,3561.37 10378.83,3561.37 10378.83,3527.56 10359.69,3527.56 "/>
   <polygon class="fil5" points="10359.69,3561.37 10378.83,3561.37 10378.83,3527.56 10359.69,3527.56 "/>
   <polygon class="fil5" points="10359.69,3561.37 10378.83,3561.37 10378.83,3527.56 10359.69,3527.56 "/>
   <polygon class="fil5" points="10359.69,3561.37 10378.83,3561.37 10378.83,3527.56 10359.69,3527.56 "/>
   <polygon class="fil5" points="10359.69,3561.37 10378.83,3561.37 10378.83,3527.56 10359.69,3527.56 "/>
   <g>
   </g>
   <g>
   </g>
   <g style="clip-path:url(#id14)">
    <g>
    </g>
   </g>
   <polygon class="fil5" points="10346.45,3531.43 10363.92,3531.43 10363.92,3513.96 10346.45,3513.96 "/>
   <polygon class="fil5" points="10346.45,3531.43 10363.92,3531.43 10363.92,3513.96 10346.45,3513.96 "/>
   <polygon class="fil5" points="10346.45,3531.43 10363.92,3531.43 10363.92,3513.96 10346.45,3513.96 "/>
   <polygon class="fil5" points="10346.45,3531.43 10363.92,3531.43 10363.92,3513.96 10346.45,3513.96 "/>
   <polygon class="fil5" points="10346.45,3531.43 10363.92,3531.43 10363.92,3513.96 10346.45,3513.96 "/>
   <polygon class="fil5" points="10346.45,3531.43 10363.92,3531.43 10363.92,3513.96 10346.45,3513.96 "/>
   <polygon class="fil5" points="10346.45,3531.43 10363.92,3531.43 10363.92,3513.96 10346.45,3513.96 "/>
   <polygon class="fil5" points="10346.45,3531.43 10363.92,3531.43 10363.92,3513.96 10346.45,3513.96 "/>
   <path class="fil6" d="M7444.06 3525.58l449.27 11.58 1252.24 3030.36 1213.08 -3018.62 6.85 -9.42 -2.08 -2.88 0.02 -0.05 463.86 -10.97c308.88,-7.36 561.68,261.7 561.68,581.47l0 3062.2 -4506.66 0 0 -3062.22c0,-319.87 252.98,-589.3 561.82,-581.45l-0.02 0 -0.01 0 -0.01 0 0 0 -0.01 0 -0.01 0 -0.01 0 -0.01 0z"/>
   <ellipse class="fil2 str0" cx="9126.12" cy="5650.49" rx="38.81" ry="43.68"/>
   <rect class="fil7" x="10368.38" y="5635.9" width="737.58" height="97.07"/>
   <polygon class="fil4" points="10933.28,5397.78 10756.58,5208.9 10368.4,5635.92 11086.56,5635.92 "/>
   <polygon class="fil8" points="9116.43,3685.17 8354.76,3356.15 8427.4,4160.74 9074.41,3812.18 "/>
   <polygon class="fil8" points="9051.66,3666.17 9825.6,3395.39 9786.07,4180.16 9011.67,3777.48 "/>
   <rect class="fil9" x="8993.52" y="3575.1" width="218.44" height="302.89"/>
   <polygon class="fil4 str1" points="7233.65,4073.4 7913.04,3161.1 8716.85,5584.71 8480.77,5376.07 "/>
   <polygon class="fil4 str1" points="7699.5,4937.34 8262.42,4345.13 9014.88,6395.57 8759.52,6128.55 "/>
   <g>
   </g>
   <g>
   </g>
   <g style="clip-path:url(#id15)">
    <g>
    </g>
   </g>
   <polygon class="fil5" points="10064.98,3860.7 10147.97,3860.7 10147.97,3841.5 10064.98,3841.5 "/>
   <polygon class="fil5" points="10064.98,3860.7 10147.97,3860.7 10147.97,3841.5 10064.98,3841.5 "/>
   <polygon class="fil5" points="10064.98,3860.7 10147.97,3860.7 10147.97,3841.5 10064.98,3841.5 "/>
   <polygon class="fil5" points="10064.98,3860.7 10147.97,3860.7 10147.97,3841.5 10064.98,3841.5 "/>
   <polygon class="fil5" points="10064.98,3860.7 10147.97,3860.7 10147.97,3841.5 10064.98,3841.5 "/>
   <polygon class="fil5" points="10064.98,3860.7 10147.97,3860.7 10147.97,3841.5 10064.98,3841.5 "/>
   <polygon class="fil5" points="10064.98,3860.7 10147.97,3860.7 10147.97,3841.5 10064.98,3841.5 "/>
   <polygon class="fil5" points="10064.98,3860.7 10147.97,3860.7 10147.97,3841.5 10064.98,3841.5 "/>
   <g>
   </g>
   <g>
   </g>
   <g style="clip-path:url(#id16)">
    <g>
    </g>
   </g>
   <polygon class="fil5" points="10080.6,3846.1 10147.97,3846.1 10147.97,3812.29 10080.6,3812.29 "/>
   <polygon class="fil5" points="10080.6,3846.1 10147.97,3846.1 10147.97,3812.29 10080.6,3812.29 "/>
   <polygon class="fil5" points="10080.6,3846.1 10147.97,3846.1 10147.97,3812.29 10080.6,3812.29 "/>
   <polygon class="fil5" points="10080.6,3846.1 10147.97,3846.1 10147.97,3812.29 10080.6,3812.29 "/>
   <polygon class="fil5" points="10080.6,3846.1 10147.97,3846.1 10147.97,3812.29 10080.6,3812.29 "/>
   <polygon class="fil5" points="10080.6,3846.1 10147.97,3846.1 10147.97,3812.29 10080.6,3812.29 "/>
   <polygon class="fil5" points="10080.6,3846.1 10147.97,3846.1 10147.97,3812.29 10080.6,3812.29 "/>
   <polygon class="fil5" points="10080.6,3846.1 10147.97,3846.1 10147.97,3812.29 10080.6,3812.29 "/>
   <g>
   </g>
   <g>
   </g>
   <g style="clip-path:url(#id17)">
    <g>
    </g>
   </g>
   <polygon class="fil5" points="10096.22,3816.95 10147.97,3816.95 10147.97,3797.73 10096.22,3797.73 "/>
   <polygon class="fil5" points="10096.22,3816.95 10147.97,3816.95 10147.97,3797.73 10096.22,3797.73 "/>
   <polygon class="fil5" points="10096.22,3816.95 10147.97,3816.95 10147.97,3797.73 10096.22,3797.73 "/>
   <polygon class="fil5" points="10096.22,3816.95 10147.97,3816.95 10147.97,3797.73 10096.22,3797.73 "/>
   <polygon class="fil5" points="10096.22,3816.95 10147.97,3816.95 10147.97,3797.73 10096.22,3797.73 "/>
   <polygon class="fil5" points="10096.22,3816.95 10147.97,3816.95 10147.97,3797.73 10096.22,3797.73 "/>
   <polygon class="fil5" points="10096.22,3816.95 10147.97,3816.95 10147.97,3797.73 10096.22,3797.73 "/>
   <polygon class="fil5" points="10096.22,3816.95 10147.97,3816.95 10147.97,3797.73 10096.22,3797.73 "/>
   <ellipse class="fil2 str0" cx="9086.52" cy="4562.97" rx="41.71" ry="43.68"/>
   <path class="fil9" d="M9015.41 3575.08l192.51 0c11.65,0 21.08,6.98 21.08,15.58l0 158.63c0,8.59 -9.43,15.55 -21.08,15.55l-192.51 0c-11.65,0 -21.09,-6.96 -21.09,-15.55l0 -158.63c0,-8.6 9.44,-15.58 21.09,-15.58z"/>
   <polygon class="fil4 str1" points="11090.74,4025.55 10358.69,3199.94 9548.11,5612.85 9785.25,5385.6 "/>
   <polygon class="fil4 str1" points="10619.34,5022.09 9983.68,4358.58 9256.92,6412.2 9463.51,6231.01 "/>
   <ellipse class="fil2 str0" cx="9086.52" cy="5111.7" rx="41.71" ry="43.68"/>
   <rect class="fil6" x="6882.24" y="7106.5" width="4504.27" height="1118.49"/>
   <path class="fil10" d="M9593.45 9285.71c-18.29,4.83 -28.53,24.94 -16.21,43.1 10.4,15.34 23.45,18.68 22.59,46.74 -1.61,53.54 -89.61,91.76 -31.95,213.17 8.26,17.4 15.31,31.67 24.97,44.74 9.96,13.47 18.96,33.2 43.87,27.81 17.79,-3.85 25.88,-25.86 15.59,-42.93 -20.86,-34.58 -71.02,-94.11 -31.65,-152.08 18.92,-27.87 41.16,-55.81 36.36,-104.3 -3,-30.3 -31.05,-84.83 -63.57,-76.25z"/>
   <path class="fil10" d="M9707.68 9173.32c-13.02,5.34 -11.7,4.68 -20.74,15.23 -32.23,37.71 -36.06,88.84 -11.64,133.7 22.06,40.53 63.34,62.49 11.77,153.33 -5.65,9.93 -25.24,34.48 -26.82,43.83 -3.85,22.82 16.32,38.93 38.67,31.91 19.99,-6.27 97.16,-118.22 60.55,-203.1 -11.75,-27.21 -49.12,-60.8 -40.38,-99.14 5.45,-23.88 23.67,-27.56 26.2,-45.56 3.22,-22.72 -16.5,-38.86 -37.61,-30.2z"/>
   <polygon class="fil11" points="4007.67,4680.98 4747.86,3684.21 5828.52,6417.93 5256.11,6881.77 "/>
   <path class="fil7" d="M4729.93 5159.46l0 42.76 92.66 0 0 235.2c-92.66,0 -92.66,-49.89 -142.55,42.77 -42.75,49.88 0,49.88 -92.66,99.77 -42.75,0 0,-49.9 -42.75,0l92.66 0 0 42.76c42.75,0 42.75,49.89 42.75,49.89 49.89,0 0,0 49.89,-49.89 0,0 49.9,0 49.9,-42.76 42.76,0 92.66,-49.9 92.66,-49.9 92.64,-92.65 135.4,-92.65 228.05,-92.65 0,-49.89 0,-49.89 49.89,-49.89l0 49.89 49.9 0 42.75 42.77 0 -42.77 49.9 0 0 42.77c-49.9,49.88 -92.65,99.77 -49.9,192.42 92.66,0 0,0 49.9,-49.9 42.76,49.9 0,0 0,49.9 0,92.65 42.76,42.75 42.76,142.54l-42.76 -49.89 0 -49.9c-142.55,-135.4 -192.43,0 -192.43,0l0 49.9c-42.77,49.89 -42.77,0 -42.77,49.89 0,42.76 0,42.76 42.77,42.76l755.47 1126.07c92.65,-49.89 235.2,-185.3 327.85,-235.19l655.68 0 420.51 -1268.61 -655.69 0c-327.85,-42.77 -420.5,0 -563.04,-135.42l-655.69 -655.7c-92.65,42.77 -470.38,327.86 -605.8,420.51l-49.9 49.9 0 0 0 0 -0.01 0z"/>
   <polygon class="fil12" points="4117,3705.53 7637.77,3705.53 7637.77,7917.61 4117,7917.61 "/>
   <g>
   </g>
   <g>
   </g>
   <g style="clip-path:url(#id18)">
    <g>
    </g>
   </g>
   <polygon class="fil5" points="7380.22,3697.36 7445.43,3697.36 7445.43,3681.14 7380.22,3681.14 "/>
   <polygon class="fil5" points="7380.22,3697.36 7445.43,3697.36 7445.43,3681.14 7380.22,3681.14 "/>
   <polygon class="fil5" points="7380.22,3697.36 7445.43,3697.36 7445.43,3681.14 7380.22,3681.14 "/>
   <polygon class="fil5" points="7380.22,3697.36 7445.43,3697.36 7445.43,3681.14 7380.22,3681.14 "/>
   <polygon class="fil5" points="7380.22,3697.36 7445.43,3697.36 7445.43,3681.14 7380.22,3681.14 "/>
   <polygon class="fil5" points="7380.22,3697.36 7445.43,3697.36 7445.43,3681.14 7380.22,3681.14 "/>
   <polygon class="fil5" points="7380.22,3697.36 7445.43,3697.36 7445.43,3681.14 7380.22,3681.14 "/>
   <polygon class="fil5" points="7380.22,3697.36 7445.43,3697.36 7445.43,3681.14 7380.22,3681.14 "/>
   <g>
   </g>
   <g>
   </g>
   <g style="clip-path:url(#id19)">
    <g>
    </g>
   </g>
   <polygon class="fil5" points="7380.22,3660.41 7420.88,3660.41 7420.88,3644.19 7380.22,3644.19 "/>
   <polygon class="fil5" points="7380.22,3660.41 7420.88,3660.41 7420.88,3644.19 7380.22,3644.19 "/>
   <polygon class="fil5" points="7380.22,3660.41 7420.88,3660.41 7420.88,3644.19 7380.22,3644.19 "/>
   <polygon class="fil5" points="7380.22,3660.41 7420.88,3660.41 7420.88,3644.19 7380.22,3644.19 "/>
   <polygon class="fil5" points="7380.22,3660.41 7420.88,3660.41 7420.88,3644.19 7380.22,3644.19 "/>
   <polygon class="fil5" points="7380.22,3660.41 7420.88,3660.41 7420.88,3644.19 7380.22,3644.19 "/>
   <polygon class="fil5" points="7380.22,3660.41 7420.88,3660.41 7420.88,3644.19 7380.22,3644.19 "/>
   <polygon class="fil5" points="7380.22,3660.41 7420.88,3660.41 7420.88,3644.19 7380.22,3644.19 "/>
   <polygon class="fil13" points="4259.53,3798.19 7538,3798.19 7538,7782.21 4259.53,7782.21 "/>
   <polygon class="fil4" points="4587.38,4033.37 7210.14,4033.37 7210.14,7497.11 4587.38,7497.11 "/>
   <polygon class="fil14" points="5057.78,3705.53 6746.89,3705.53 6746.89,4126.03 5057.78,4126.03 "/>
   <polygon class="fil15" points="6276.51,3705.53 6276.51,3563 5478.28,3563 5478.28,3705.53 5057.78,3705.53 5057.78,3748.3 6746.89,3748.3 6746.89,3705.53 "/>
   <polygon class="fil16" points="5057.78,4781.73 5243.07,4546.53 5335.73,4496.64 5007.89,4967.04 4872.47,4689.07 4965.12,4639.19 "/>
   <path class="fil16" d="M5435.51 5109.57l1446.79 0 0 185.31 -1446.79 0 0 -185.31zm0 470.39l1446.79 0 0 185.3 -1446.79 0 0 -185.3zm0 463.24l1446.79 0 0 192.43 -1446.79 0 0 -192.43zm0 470.39l1446.79 0 0 185.31 -1446.79 0 0 -185.31zm0 470.37l1446.79 0 0 185.31 -1446.79 0 0 -185.31zm0 -2344.77l1446.79 0 0 185.3 -1446.79 0 0 -185.3z"/>
   <polygon class="fil16" points="5057.78,5237.87 5243.07,5002.67 5335.73,4952.77 5007.89,5423.17 4872.47,5145.22 4965.12,5095.32 "/>
   <polygon class="fil16" points="5057.78,5686.87 5243.07,5451.68 5335.73,5408.91 5007.89,5879.28 4872.47,5594.21 4965.12,5551.45 "/>
   <polygon class="fil16" points="5057.78,6142.97 5243.07,5907.79 5335.73,5865.03 5007.89,6328.28 4872.47,6050.33 4965.12,6000.44 "/>
   <polygon class="fil16" points="5057.78,6599.11 5243.07,6363.93 5335.73,6314.03 5007.89,6784.42 4872.47,6506.46 4965.12,6456.58 "/>
   <polygon class="fil16" points="5057.78,7055.24 5243.07,6820.06 5335.73,6770.18 5007.89,7240.54 4872.47,6962.59 4965.12,6912.7 "/>
   <path class="fil10" d="M10248.67 10326.1c5.64,-18.18 17.31,-45.49 24.53,-65.4 25.8,-71.2 51.39,-219.94 53,-224.03 24.18,-4.06 152.93,-1.22 195.1,-1.27 27.75,-0.05 35.45,-3.6 52.74,10.09 2.29,23.68 -34.75,87.59 -46.85,104.19 -44.82,61.49 -85.09,109.94 -161.37,143.98 -23.91,10.68 -87.15,36.21 -117.15,32.44zm-1316.46 458.5l0 19.5c13.57,12.87 7.92,18.83 45.18,18.91l1213.1 -0.06c148.9,0 187.9,17.61 149.33,-76.19 -12.04,-29.27 -37.68,-47.97 -78.56,-47.96 -113.96,0.02 -284.45,4.68 -385.86,-0.44 2.67,-2.76 1.04,-1.7 5.38,-4.41 2.46,-1.54 4.74,-2.53 7.92,-3.83 5.13,-2.09 10.44,-3.9 16.46,-6.15 72.19,-27.07 135.1,-71.34 188.82,-122.01 24.47,-23.08 57.86,-62.77 80.39,-97.82 19.68,-30.61 11.5,-32.85 50.43,-35.83 29.03,-2.23 53.49,-4.72 80.62,-10.8 131.39,-29.43 248.27,-116.04 310.22,-224.42 19.29,-33.74 30.11,-50.96 45.28,-87.73 4.54,-10.99 7.3,-23.86 13.08,-33.01l0 -36.87c-11.06,-21.16 -19.68,-94.16 -118.65,-98.15 -69.95,-2.83 -147.14,-0.64 -217.71,-0.16 -3.07,-24.36 5.5,-69.83 -0.62,-89.6 -7.94,-25.63 -39.43,-21.48 -67.36,-21.48l-1246.96 0c-30.78,0 -61.82,-4.49 -71.55,19.89 -4.95,12.37 -0.78,66.26 0.19,83.08 10.55,182.98 67.99,395.23 172.92,540.22 52.19,72.1 108.8,124.78 184.99,171.34 41.31,25.24 114.91,50.43 122.17,57.88 -96.58,3.31 -198.46,0.35 -295.61,0.35 -28.59,0 -123.03,-3.88 -142.3,3.97 -50.86,20.7 -46.43,58.71 -61.3,81.78z"/>
   <ellipse class="fil17 str0" cx="6195.46" cy="10982.02" rx="2320.56" ry="323.02"/>
   <rect class="fil17" x="3887.74" y="9981.76" width="4628.7" height="1027.79"/>
   <path class="fil18" d="M4148.36 9864.29l0.01 0c32.29,0 58.72,52.86 58.72,117.47l0 557.94c0,64.61 -26.43,117.46 -58.72,117.46l-0.01 0c-32.3,0 -58.73,-52.85 -58.73,-117.46l0 -557.94c0,-64.61 26.43,-117.47 58.73,-117.47z"/>
   <path class="fil18" d="M4471.38 9864.29l0 0c32.3,0 58.73,68.52 58.73,152.26l0 723.27c0,83.75 -26.43,152.26 -58.73,152.26l0 0c-32.3,0 -58.74,-68.51 -58.74,-152.26l0 -723.27c0,-83.74 26.44,-152.26 58.74,-152.26z"/>
   <path class="fil18" d="M4985.27 9864.29l0 0c32.31,0 58.73,52.86 58.73,117.47l0 557.94c0,64.61 -26.42,117.46 -58.73,117.46l0 0c-32.3,0 -58.74,-52.85 -58.74,-117.46l0 -557.94c0,-64.61 26.44,-117.47 58.74,-117.47z"/>
   <path class="fil18" d="M5462.46 9864.29l0 0c32.3,0 58.73,65.58 58.73,145.75l0 692.25c0,80.17 -26.43,145.74 -58.73,145.74l0 0c-32.31,0 -58.74,-65.57 -58.74,-145.74l0 -692.25c0,-80.17 26.43,-145.75 58.74,-145.75z"/>
   <path class="fil18" d="M5976.35 9864.29l0 0c32.3,0 58.74,52.86 58.74,117.47l0 557.94c0,64.61 -26.44,117.46 -58.74,117.46l0 0c-32.31,0 -58.73,-52.85 -58.73,-117.46l0 -557.94c0,-64.61 26.42,-117.47 58.73,-117.47z"/>
   <path class="fil18" d="M6490.23 9864.29l0 0c32.3,0 58.74,76.35 58.74,169.67l0 805.92c0,93.32 -26.44,169.66 -58.74,169.66l0 0c-32.3,0 -58.73,-76.34 -58.73,-169.66l0 -805.92c0,-93.32 26.43,-169.67 58.73,-169.67z"/>
   <path class="fil18" d="M7004.14 9864.29l0 0c32.29,0 58.72,52.86 58.72,117.47l0 557.94c0,64.61 -26.43,117.46 -58.72,117.46l0 0c-32.31,0 -58.74,-52.85 -58.74,-117.46l0 -557.94c0,-64.61 26.43,-117.47 58.74,-117.47z"/>
   <path class="fil18" d="M7591.43 9864.29l0 0c32.31,0 58.74,62.64 58.74,139.22l0 661.26c0,76.58 -26.43,139.22 -58.74,139.22l0 0c-32.3,0 -58.73,-62.64 -58.73,-139.22l0 -661.26c0,-76.58 26.43,-139.22 58.73,-139.22z"/>
   <path class="fil18" d="M8105.33 9864.29l0 0c32.29,0 58.73,70.47 58.73,156.62l0 743.92c0,86.15 -26.44,156.62 -58.73,156.62l0 0c-32.3,0 -58.74,-70.47 -58.74,-156.62l0 -743.92c0,-86.15 26.44,-156.62 58.74,-156.62z"/>
   <ellipse class="fil18" cx="6197.9" cy="9981.76" rx="2313.02" ry="242.26"/>
   <ellipse class="fil19" cx="6113.79" cy="9878.97" rx="1730.49" ry="220.24"/>
   <rect class="fil19" x="4383.28" y="9129.59" width="3443.08" height="763.51"/>
   <ellipse class="fil18 str0" cx="6104.82" cy="9137.5" rx="1721.52" ry="190.88"/>
   <ellipse class="fil20" cx="6071.78" cy="9050.96" rx="1115.88" ry="152.04"/>
   <rect class="fil20" x="4963.24" y="8546.82" width="2217.08" height="504.44"/>
   <ellipse class="fil18" cx="6077.56" cy="8542.84" rx="1101.2" ry="106.45"/>
   <rect class="fil21" x="4159.37" y="9205.01" width="92.96" height="795.36"/>
   <polygon class="fil22" points="4208.57,8817.59 4205.81,8874.8 4280.74,9016.49 4252.33,9205 4205.85,9205 4154.38,9147.79 "/>
   <rect class="fil21" x="4829.9" y="9322.48" width="92.96" height="795.36"/>
   <polygon class="fil22" points="4879.11,8935.05 4876.35,8992.25 4951.27,9133.95 4922.86,9322.46 4876.38,9322.46 4824.92,9265.25 "/>
   <rect class="fil21" x="5568.9" y="9381.21" width="92.96" height="795.36"/>
   <polygon class="fil4 str2" points="5618.11,8993.78 5615.35,9050.98 5690.28,9192.68 5661.87,9381.19 5615.39,9381.19 5563.92,9323.99 "/>
   <rect class="fil21" x="6332.22" y="9326.74" width="92.96" height="795.36"/>
   <polygon class="fil4" points="6381.43,8939.31 6378.66,8996.52 6453.59,9138.21 6425.19,9326.73 6378.71,9326.73 6327.23,9269.52 "/>
   <rect class="fil21" x="7125.25" y="9337.16" width="92.96" height="795.36"/>
   <polygon class="fil22" points="7174.47,8949.73 7171.71,9006.93 7246.63,9148.63 7218.22,9337.15 7171.74,9337.15 7120.28,9279.94 "/>
   <rect class="fil21" x="7899.54" y="9211.78" width="92.96" height="795.36"/>
   <polygon class="fil22" points="7948.74,8824.36 7945.98,8881.57 8020.91,9023.26 7992.51,9211.77 7946.01,9211.77 7894.56,9154.57 "/>
   <rect class="fil21" x="4713.4" y="8383.35" width="92.96" height="795.36"/>
   <polygon class="fil22" points="7425.86,8045.33 7423.1,8102.54 7498.03,8244.23 7469.62,8432.72 7423.14,8432.72 7371.67,8375.54 "/>
   <rect class="fil21" x="5251.08" y="8416.25" width="92.96" height="795.36"/>
   <polygon class="fil22" points="4659.09,8028.84 4656.32,8086.05 4731.25,8227.74 4702.85,8416.23 4656.37,8416.23 4604.91,8359.04 "/>
   <rect class="fil21" x="5937.49" y="8451.65" width="92.96" height="795.36"/>
   <polygon class="fil22" points="5345.51,8064.24 5342.74,8121.45 5417.66,8263.15 5389.26,8451.63 5342.78,8451.63 5291.31,8394.44 "/>
   <rect class="fil21" x="6739.19" y="8416.6" width="92.96" height="795.36"/>
   <polygon class="fil22" points="5988.01,8109.93 5985.25,8167.14 6060.17,8308.83 6031.76,8497.32 5985.28,8497.32 5933.82,8440.12 "/>
   <rect class="fil21" x="7390.86" y="8338.49" width="92.96" height="795.36"/>
   <path class="fil10" d="M2256.19 9312.98c-18.29,4.84 -28.54,24.94 -16.22,43.11 10.41,15.33 23.45,18.67 22.59,46.73 -1.61,53.55 -89.61,91.76 -31.95,213.17 8.26,17.4 15.31,31.68 24.97,44.74 9.96,13.48 18.96,33.2 43.87,27.82 17.8,-3.85 25.89,-25.87 15.59,-42.94 -20.86,-34.57 -71.02,-94.1 -31.64,-152.08 18.92,-27.86 41.15,-55.81 36.35,-104.29 -3,-30.31 -31.05,-84.84 -63.56,-76.26z"/>
   <path class="fil10" d="M2370.42 9200.6c-13.02,5.33 -11.71,4.67 -20.74,15.23 -32.23,37.71 -36.07,88.84 -11.65,133.7 22.06,40.53 63.34,62.49 11.77,153.32 -5.65,9.93 -25.24,34.49 -26.81,43.83 -3.85,22.82 16.31,38.93 38.67,31.91 19.99,-6.27 97.16,-118.22 60.54,-203.09 -11.75,-27.22 -49.12,-60.81 -40.37,-99.14 5.45,-23.89 23.67,-27.57 26.19,-45.56 3.22,-22.73 -16.5,-38.87 -37.6,-30.2z"/>
   <path class="fil10" d="M2911.4 10353.38c5.64,-18.19 17.32,-45.49 24.54,-65.41 25.8,-71.2 51.39,-219.93 52.99,-224.03 24.19,-4.06 152.94,-1.22 195.11,-1.27 27.74,-0.04 35.45,-3.59 52.73,10.1 2.3,23.67 -34.75,87.59 -46.85,104.18 -44.82,61.5 -85.08,109.95 -161.36,143.99 -23.91,10.68 -87.16,36.2 -117.16,32.44zm-1316.46 458.5l0 19.49c13.57,12.88 7.92,18.83 45.19,18.92l1213.09 -0.06c148.9,0 187.9,17.61 149.34,-76.2 -12.05,-29.27 -37.68,-47.96 -78.56,-47.95 -113.97,0.01 -284.45,4.68 -385.86,-0.44 2.67,-2.76 1.04,-1.7 5.37,-4.42 2.46,-1.53 4.74,-2.52 7.93,-3.82 5.13,-2.09 10.43,-3.91 16.45,-6.16 72.2,-27.07 135.1,-71.33 188.82,-122.01 24.48,-23.07 57.86,-62.77 80.4,-97.81 19.68,-30.62 11.49,-32.86 50.42,-35.84 29.04,-2.22 53.5,-4.72 80.63,-10.79 131.38,-29.44 248.27,-116.05 310.22,-224.42 19.28,-33.75 30.1,-50.97 45.28,-87.73 4.53,-11 7.29,-23.86 13.07,-33.01l0 -36.88c-11.06,-21.15 -19.68,-94.15 -118.65,-98.15 -69.95,-2.82 -147.14,-0.64 -217.71,-0.16 -3.06,-24.36 5.5,-69.83 -0.61,-89.59 -7.95,-25.64 -39.43,-21.49 -67.36,-21.49l-1246.96 0c-30.79,0 -61.82,-4.48 -71.56,19.9 -4.94,12.37 -0.77,66.25 0.19,83.08 10.55,182.98 68,395.23 172.93,540.22 52.18,72.1 108.8,124.78 184.98,171.33 41.31,25.24 114.92,50.44 122.17,57.88 -96.57,3.31 -198.46,0.35 -295.61,0.35 -28.58,0 -123.03,-3.88 -142.3,3.98 -50.85,20.7 -46.42,58.71 -61.3,81.78z"/>
   <path class="fil10" d="M2297.67 5569c11.17,14.81 13.84,30.3 22.59,38.13 16.33,14.66 21.19,6.44 42.49,17.73 -31.11,46.34 -9.58,21.24 -12.52,72.64l-39.65 -23.82 -51.21 27.74 6.84 -51.46 -27.54 -25.1c69.61,-28.99 22.21,14.79 59,-55.86zm-153.31 -79.32c-11.09,-14.7 -24.11,-32.4 -32.03,-48.26l31.3 -11.78c24.22,26.06 41.17,61.35 43.63,106.2 -24.42,-12.65 -24.08,-21.21 -42.9,-46.16zm284.84 56.74c-20.53,-32.29 -3.51,-33.22 14.88,-57.58 19.95,-26.45 14.63,-41.62 27.27,-65.44l26.8 7.49c-6.67,31.96 -47.03,92.97 -68.95,115.53zm-766.04 670.71c-19.77,-21.3 -20.76,-31.18 -42.99,-42.6 -43.08,111.95 -157.13,115.41 -111.9,-37.34 -32.82,-36.68 -70.34,-71.91 -32.32,-147.25 26.24,-52.02 54.18,-53.37 110.78,-80.55 -29.85,-33.73 -209.18,-52.4 -257.65,-99.75 41.3,-21.66 47.4,0.07 63.63,-32.88l-221.33 -88.77 65.76 -21.13c-9.38,-24.84 -11.7,-22.78 -41.24,-34.23l-152.99 -66.57c22.78,-19.01 42.89,-3.18 75.57,-25.19 -11.74,-23.71 4.84,-8.09 -24.86,-25.78 -38.93,-23.19 -174.73,-65.8 -216.64,-107.93 46.08,2.72 104.74,25.13 147.23,-0.66 2.73,-39.11 -18.41,-40.36 -49.67,-57.03 -23.88,-12.75 -45.73,-26.23 -69.66,-39.91 -35.82,-20.49 -99.17,-59.85 -117.97,-90.96 219.34,100.7 307.32,149.13 597.34,101.77 95.38,-15.57 243.62,-52.6 339.47,-41.12 94.31,11.29 216.58,72.6 241.41,127.25 -108.5,115.13 -233.32,254.18 -210.53,458.31l93.31 -30.04c8.22,-94.27 12.39,-150.75 54.89,-224.19 34.57,-59.73 74.67,-107.43 131.64,-136.75 38.41,17.48 57.01,54.27 81.78,94.51 35.96,58.38 36.3,56.14 15.85,128.94 -18.22,64.88 -66.17,214.45 -68.05,275.94 19.13,8.89 15.83,6.47 29.22,21.09 87.39,-20.29 101.96,-135.87 129.63,-164.27 58.4,-59.94 151.34,-44.23 173.03,39.42 34.06,-1 19.46,-4.44 49.36,-8.46 22.58,49.3 25.73,93.29 81.76,55.83 8.72,-44.94 -53.86,-199.71 -69.9,-253.82 -15.32,-51.78 45.77,-138.97 80.5,-181.69l17.56 -17.7c116.71,69.64 186.63,212.53 207.75,351.13l85.22 -21.91c-4.46,-190.22 -134.41,-329.02 -224.05,-403.35 15.45,-24.36 67.02,-65.24 98.24,-84.86 131.57,-82.66 329,-53.63 472.83,-34.75 345.3,45.34 463.41,-104.51 577.33,-141.72 -23.59,41.91 -69.88,75.05 -118.35,109.05 -39.15,27.48 -112.09,57.71 -113.03,109.55 27.59,6.96 142.77,-30.51 175.08,-40.32 -21.59,42.36 -226.23,118.84 -242.9,175.65 22.68,8.07 22.88,3.72 45.89,3.25l42.9 5.97c-32.36,19.65 -68.54,38.83 -106.9,59.22 -60.74,32.28 -84.44,36.04 -95.93,69.32l54.33 13.41c-7.36,6.57 2.82,-0.51 -14.81,11.74l-32.51 18.23c-63.58,31.36 -135.32,48.23 -148.37,79.22 28.22,17.68 29.65,6.66 56.15,16.8 -59.11,50.65 -227.82,86.88 -270.13,111.95 12.76,45.88 88.23,42.27 107.11,123.21 -23.97,49.1 -64.55,56.25 -61.15,127.76l98.74 20.4 -7.96 53.79 -13.78 -52.93 -85.59 1.79 -16 -46.08c-11.92,46.02 -32.25,42.76 -26.47,98.45 66.63,18.37 68.46,-27.5 101.95,1.05l-86.61 37.18c35.31,28.74 58.3,-12.76 90.35,3.66 -49.43,18.23 -55.56,17.28 -113.65,17.61 -55.88,0.3 -45.44,25.23 -108.08,38.44 -75.71,14.66 -138.57,-26.38 -191.91,-20.3 -28.6,3.25 -112.04,64.51 -132.87,87.48 34.55,17.37 117.63,59.63 162.84,49.83 -2.01,-33.46 -8.69,-25.18 -22.64,-51.33 58.21,13.01 70.54,35.98 143.17,29.09 -7.94,-40.87 -11.49,-16.92 -28.14,-53.82 56.7,13.67 62.02,35.96 128.31,34.63 16.19,-18.5 7.96,-24.17 16.79,-41.97 34.15,18.98 61.82,29.16 98.07,8.27 -6.65,-35.12 -8.86,-11 -32.77,-44.18 53.05,13.08 99.16,34.87 161.64,27.22 -12.61,-44.71 -48.52,-20.8 -75.96,-72.25 59.5,-1.96 140.49,6.95 159.93,-43.81 -51.33,-29.19 -130.94,-36.68 -112.19,-112.27 45.23,-21.3 63.84,7.43 102.88,17.96 11.96,-55.18 -34.89,-115.49 -57.68,-141.29 -44.35,-50.24 -71.19,-46.9 -116.78,-82.76 106.44,-47.19 192.37,-77.44 293.76,-150.19 -17.96,-18.19 1.8,-6.11 -26.35,-12.77 -0.5,-0.12 -27.45,-0.54 -31.17,-0.68 61.03,-32.08 192.64,-93.21 223.76,-139.52 -33.24,-14.91 -51.49,9.2 -80.78,1.69 44.56,-36.95 120.8,-73.95 168.2,-108.47 26.98,-19.64 37,-28.89 38.92,-48.95l-90.17 18.3c67.48,-57.58 240.71,-149.83 243.44,-240.65 -108.83,24.85 -103.03,69 -213.98,108.52 23.35,-77.72 303.09,-173.77 283.8,-297.55 -37.3,-0.39 -150.74,85.94 -184.64,109.53 -261.67,182.08 -513.08,89.02 -745.04,75.04 -347.84,-21 -339.97,174.77 -441.63,138.01 -132.09,-47.74 -237.46,-64.64 -384.55,-12.26 -35.95,12.8 -69.88,33.95 -104.6,41.12 -89.09,-64.08 -156.5,-128.61 -310.41,-136.92 -124.67,-6.73 -263.47,33.05 -382.61,52.72 -412.38,68.12 -590.73,-186.81 -673.84,-168.14 -9.88,45.8 14.91,63.1 39.17,90.6 109.75,124.32 98.21,90.68 210.44,164.49 -71.24,-8.66 -141.67,-86.04 -179.41,-59.3 -7.36,87.38 249.71,193.39 277.71,211.11 -29,-1.83 -31.23,-5.23 -58.04,-13.24l-39.19 -4.81c-1.54,0.13 -5.55,3.75 -6.67,1.6 -1.15,-2.17 -4.59,1.04 -6.73,1.97 22.11,67.85 154.32,96.56 215.24,143.92l-77.83 -12.53c19.42,49.38 177.39,110.95 230.66,128.52l-42.32 10.3c-1.94,0.64 -4.85,2.06 -6.38,2.64l-11.75 6.67c53.57,42.31 79.31,41.74 137.15,68.98 62.19,29.29 -3.12,30.6 139.51,63.28 -22.41,47.19 -148.52,131.01 -130.19,203.96 13.27,5.11 -15.42,5.91 19.03,2.72 1.67,-0.15 4.26,-0.45 5.95,-0.81 24.51,-5.29 5.46,-4.66 27.44,-14.58 64.41,-29.06 85.32,31.7 35.79,77.51 -30.83,28.53 -53.7,14.98 -89.87,27.91 11.5,55.83 100.54,59.44 163.2,49.67 -6.99,21.8 -16.33,24.16 -42.31,37.99 -26.38,14.01 -30.66,10.64 -45.64,33.25 35.87,23.68 96.45,26.45 148.36,21.19 22.48,-33.27 5.13,-48.61 34.32,-85.73 23.73,-30.17 40.31,-26.38 47.94,-55.01z"/>
   <path class="fil10" d="M1673.16 6061.61c12.58,-30.97 21.35,-46.09 50.84,-56.96 0.75,29.47 -5.93,78.93 -26.98,99.7l-23.86 -42.74zm506.08 83.72c-54.38,-34.08 -18.1,-148.19 7.71,-166.43 34.76,-24.56 11.97,19.93 67.37,-24.52 24.79,-19.89 39.25,-36.67 76.5,-21.69 11.19,59.55 -40.11,34.05 33.89,109.41 24.64,25.08 75.86,63.07 24.7,107.79 -74.9,15.83 -49.37,-58.61 -45.5,-106.55 -31.84,1.29 -38.87,14.5 -55.01,28.16 2.03,-36.25 18.06,-129.89 -40.46,-90.03 -0.28,40.58 -3.98,-1.7 10.81,23.86 39.24,67.77 -33.1,162.74 -80.01,140zm-506.93 70.64l26.11 -0.44c87.09,-66.94 153.89,-27.33 172.58,-39.25 22.45,-31.87 7.73,-27.41 38.63,-54.39 30.55,-26.64 26.77,-19.37 29.03,-74.27 -75.53,22.4 -64.19,108.96 -136.83,96.42 -2.28,-25.27 4.17,-59.69 20.3,-77.11 37.51,-40.53 20.1,8.47 59.03,-13.72 -13.54,-47.24 -44.31,-17.64 -70.86,-8.4 4.05,-35.78 15.88,-53.04 45.51,-61 45.56,-12.23 29.6,10.04 65.3,31.54 27.52,-99.07 -98.29,-62.31 -128.41,-2.21 -27.87,55.63 -13.36,157.72 -65.56,162.6 -22.22,-75.28 9.43,-180.34 62.72,-207.3 60.34,-30.52 170.91,-43.98 185.58,32.1l10.68 -14.25c1.34,-1.14 3.18,-3.06 4.75,-4.08 3.51,-2.26 -4.15,-4.88 18.7,-6.91 76.92,-6.82 45.72,93.6 44.74,98.27l-48.67 4.83c8.99,88.14 58.27,77.42 84.91,117.59 -30.69,18.05 -72.51,29.15 -104.56,44.04 -60.36,28.04 -262.56,151.67 -312.18,122.73 -64.74,-78.43 18.9,-110.46 55.18,-147.56l-30.46 8.12c-9.3,19.41 -50.71,27.25 -71.57,69.98 -17.34,35.52 -12.15,81.07 15.21,101.85 55.55,42.19 166.86,-34.23 205.09,-58.61 82.42,-52.58 305.22,-207.09 394.26,-89.41 -3.51,46.59 -24.66,37.31 -25.83,89.95l-8.51 -45.37c-87.32,-23.88 -161.71,-96.18 -228.67,-11.73 61.5,91.91 340.55,160.88 548.9,72.72 78.47,-33.22 109.68,-45.66 137.02,-99.82l151.15 30.59c60.14,4.46 85.9,4.65 131.57,-14.21 17.12,-64.11 -6.11,-171.93 41.67,-196.22 19.88,-10.11 27.07,-11.69 53.87,17.41 6.22,-57.55 18.41,-50.22 52.42,-73.59 0.37,-36.27 -6.97,-42.73 -19.4,-64.13 -39.62,31.1 -10.06,87.9 -74.91,83.11 -21.2,-69.59 44.54,-46.6 27.16,-122.16 -29.84,15.2 -6.84,2.36 -27.77,21.99 -20.49,59.33 -35.7,47.29 -56.76,94.83 -27.31,61.62 18.9,244.22 -208.04,219.95 -107.73,-11.53 -145.99,-21.05 -253.17,6.52 -61.53,15.85 -179.84,73.32 -220.76,57.84 9.35,-44.69 16.82,-15.61 38.7,-51.63 -17.48,-41.59 -36.47,-34.57 -69.48,-58.79l62.2 -39.79 16.49 41.31c3.17,-0.06 97.61,-31.03 103.39,-34.74 30.02,-19.14 30.96,-60.82 10.46,-94.78 -9.45,-15.68 -133.84,-173.08 2.72,-145.67l-5.04 61.39c44.45,-1.19 563.45,-280.5 550.84,-84.15 -64.31,58.57 -76.01,-7.98 -115.51,-29.56 -39.34,-21.49 -115.18,6.23 -154.27,19.71 -65.53,22.61 -217.79,89.91 -253.86,129.9 20.01,39.25 45.28,39.35 18.05,112.31 -22.93,61.41 -37.18,59.07 -111.75,55.12 11.64,69.85 73.02,59.24 101.47,10.42 32.03,-54.97 26.38,-116.53 48.92,-155.76 1.52,1.57 3.56,2.02 4.05,5.13 0.49,3.1 3.13,3.98 3.73,5.32 12.28,27.28 6.31,19.19 10.78,67.61 3.03,32.7 3.55,48.47 23.43,67.38 31.57,-29.89 34.36,-66.91 66.65,-97.87l-5.88 110.06c67.31,5.07 50.55,-49.13 48.36,-96.11 -3.1,-66.06 39.27,-93.11 -8.34,-128 -43.91,31.72 -29.63,94.93 -82.9,101.99 -34.22,-89.08 4.85,-107.48 65.53,-142.06 54.13,-30.84 107.27,-62.92 179.86,-43.17 39.25,85.11 -4.12,224.09 -33.36,309.84 131.43,36.91 38.42,-157.63 81.24,-215.81 34.33,-26.09 58.05,-15.23 103.44,-16.93l34.39 -38.5c-9.83,-70.14 -10.07,-103.88 -87.65,-112.92 -56.99,-6.63 -120.85,7.14 -171.9,21.73 -112.42,32.15 -185.51,86.95 -279.09,117.53 2.59,-32.02 0.04,-50.5 -10.46,-71.87 -60.5,-7.91 -42.2,7.94 -79.34,13.82 -41.95,6.66 -17.9,-18.21 -68.11,-2.23 -48.54,15.46 -21.19,39.9 -76.76,30.43 -48.85,-8.33 -100.44,77.32 -110.24,103.21 -22.24,58.67 -6.01,98.68 20.3,133.53 97.47,10.76 115.86,-28.97 154.25,-85.74l-1.87 59.2c-41.23,23.8 -67.71,62 -139.83,49.89 -58.12,-9.76 -92.5,-35.83 -93.43,-100.36 26.27,-20.46 51.27,-27.74 40.53,-72.47 -5.6,-23.26 -33.77,-52.06 -54.33,-65.48 -44.34,-28.97 -145.26,-29.27 -205.36,-27.93 -186.29,4.1 -138.96,101.77 -213.24,136.75 -76.32,35.96 -114.99,6.28 -63.19,-54.57 61.23,-71.91 62.99,15.66 171.55,-71.5 128.89,-103.47 197.08,-17.36 256.48,-37.98 3.5,-50.7 -39.5,-48.67 -92.27,-42.61 -93.15,10.71 -128.11,35.49 -192.98,76.48 -73.57,46.51 -61.15,10.39 -75.94,-7.39 -157.05,17.79 -172.72,193.9 -84.36,191.48 30.16,-0.82 43.09,-26.04 89.03,-35.51 -12.88,63.87 -30.92,111.62 -86.69,62.83 -10.94,19.53 -28.39,38.47 -22.53,65.48 43.4,78.19 125.78,-95.59 136.8,-117.07 60.11,54.8 -12.96,63.81 17.17,120.26z"/>
   <path class="fil10" d="M1791.05 6403.22c34.7,-0.84 51.52,-5 80.69,-9.62 53.2,-8.47 30.44,14.26 62.38,20.57 29.63,5.87 105,-40.12 121.41,-55.52 -102.74,-74.3 -95.93,-70.21 -135.23,-50.79 -29.87,14.77 -50.53,26.88 -76.23,41.87 -22.45,13.08 -51.04,22 -53.02,53.49z"/>
   <path class="fil10" d="M2702.94 5994.41c8.54,73.39 17.29,49.94 -3.61,127.46 -14.58,54.07 -36.88,105.77 38.11,89.49 2.9,-7.33 35.79,-242.84 34.76,-256.76 -34.79,8.35 -46.73,18.23 -69.26,39.81z"/>
   <path class="fil10" d="M2112.33 5441.42c7.92,15.86 20.94,33.56 32.03,48.26 18.82,24.95 18.48,33.51 42.9,46.16 -2.46,-44.85 -19.41,-80.14 -43.63,-106.2l-31.3 11.78z"/>
   <path class="fil10" d="M2429.2 5546.42c21.92,-22.56 62.28,-83.57 68.95,-115.53l-26.8 -7.49c-12.64,23.82 -7.32,38.99 -27.27,65.44 -18.39,24.36 -35.41,25.29 -14.88,57.58z"/>
   <path class="fil10" d="M1673.16 6061.61l23.86 42.74c21.05,-20.77 27.73,-70.23 26.98,-99.7 -29.49,10.87 -38.26,25.99 -50.84,56.96z"/>
   <polygon class="fil22" points="6789.03,8109.93 6786.26,8167.14 6861.18,8308.83 6832.78,8497.32 6786.3,8497.32 6734.83,8440.12 "/>
   <path class="fil18" d="M4638.37 9158.22l0 0c32.3,0 58.73,52.86 58.73,117.47l0 557.94c0,64.61 -26.43,117.46 -58.73,117.46l0 0c-32.31,0 -58.73,-52.85 -58.73,-117.46l0 -557.94c0,-64.61 26.42,-117.47 58.73,-117.47z"/>
   <path class="fil18" d="M5109.09 9169.93l0 0c32.3,0 58.73,52.85 58.73,117.46l0 557.94c0,64.61 -26.43,117.47 -58.73,117.47l0 0c-32.31,0 -58.73,-52.86 -58.73,-117.47l0 -557.94c0,-64.61 26.42,-117.46 58.73,-117.46z"/>
   <path class="fil18" d="M5426.03 9266.36l0 0c32.3,0 58.73,26.43 58.73,58.73l0 278.97c0,32.31 -26.43,58.74 -58.73,58.74l0 0c-32.31,0 -58.74,-26.43 -58.74,-58.74l0 -278.97c0,-32.3 26.43,-58.73 58.74,-58.73z"/>
   <path class="fil18" d="M5847.09 9263.87l0 0c32.3,0 58.73,31.96 58.73,71.02l0 337.37c0,39.06 -26.43,71.02 -58.73,71.02l0 0c-32.31,0 -58.73,-31.96 -58.73,-71.02l0 -337.37c0,-39.06 26.42,-71.02 58.73,-71.02z"/>
   <path class="fil18" d="M6234.42 9238.25l0 0c53.94,0 98.08,45.03 98.08,100.07l0 475.28c0,55.03 -44.14,100.06 -98.08,100.06l0 0c-53.95,0 -98.09,-45.03 -98.09,-100.06l0 -475.28c0,-55.04 44.14,-100.07 98.09,-100.07z"/>
   <path class="fil18" d="M6707.65 9263.74l0 0c32.3,0 58.73,45.02 58.73,100.07l0 475.28c0,55.03 -26.43,100.06 -58.73,100.06l0 0c-32.31,0 -58.73,-45.03 -58.73,-100.06l0 -475.28c0,-55.05 26.42,-100.07 58.73,-100.07z"/>
   <path class="fil18" d="M7028.04 9263.74l0 0c32.3,0 58.73,45.02 58.73,100.07l0 475.28c0,55.03 -26.43,100.06 -58.73,100.06l0 0c-32.31,0 -58.73,-45.03 -58.73,-100.06l0 -475.28c0,-55.05 26.42,-100.07 58.73,-100.07z"/>
   <path class="fil18" d="M7383.19 9216.96l0 0c32.3,0 58.73,45.02 58.73,100.06l0 475.28c0,55.04 -26.43,100.06 -58.73,100.06l0 0c-32.31,0 -58.73,-45.02 -58.73,-100.06l0 -475.28c0,-55.04 26.42,-100.06 58.73,-100.06z"/>
   <path class="fil18" d="M7668.87 9103.54l0 0c32.3,0 58.72,45.02 58.72,100.07l0 475.28c0,55.03 -26.42,100.06 -58.72,100.06l0 0c-32.31,0 -58.73,-45.03 -58.73,-100.06l0 -475.28c0,-55.05 26.42,-100.07 58.73,-100.07z"/>
  </g>
 </g>
</svg>
