<?xml version="1.0" encoding="UTF-8"?>
<!DOCTYPE svg PUBLIC "-//W3C//DTD SVG 1.1//EN" "http://www.w3.org/Graphics/SVG/1.1/DTD/svg11.dtd">
<!-- Creator: CorelDRAW 2017 -->
<svg xmlns="http://www.w3.org/2000/svg" xml:space="preserve" width="118.533mm" height="118.533mm" version="1.1" style="shape-rendering:geometricPrecision; text-rendering:geometricPrecision; image-rendering:optimizeQuality; fill-rule:evenodd; clip-rule:evenodd"
viewBox="0 0 11853.32 11853.32"
 xmlns:xlink="http://www.w3.org/1999/xlink">
 <defs>
  <style type="text/css">
   <![CDATA[
    .str1 {stroke:#4D4D4D;stroke-width:42.33;stroke-miterlimit:22.9256}
    .str0 {stroke:black;stroke-width:20;stroke-miterlimit:22.9256}
    .str2 {stroke:#FFDD00;stroke-width:7.62;stroke-miterlimit:22.9256}
    .fil5 {fill:none}
    .fil2 {fill:black}
    .fil6 {fill:#1A1A1A}
    .fil0 {fill:#2792E4}
    .fil15 {fill:#58595B}
    .fil11 {fill:#660066}
    .fil18 {fill:#663300}
    .fil7 {fill:#666666}
    .fil14 {fill:#939598}
    .fil9 {fill:#990000}
    .fil17 {fill:#9900CC}
    .fil16 {fill:#B3B3B3}
    .fil13 {fill:#BCBDC0}
    .fil12 {fill:#BD0006}
    .fil21 {fill:#CC9933}
    .fil10 {fill:#CCCCCC}
    .fil22 {fill:#F5F11E}
    .fil1 {fill:#FCD5A6}
    .fil3 {fill:#FEFEFE}
    .fil8 {fill:red}
    .fil19 {fill:#FF6666}
    .fil20 {fill:#FFDD00}
    .fil4 {fill:white}
   ]]>
  </style>
     <clipPath id="id0">
      <path d="M10445.19 3824.02l79.02 0 0 -18.24 -79.02 0 0 18.24z"/>
     </clipPath>
     <clipPath id="id1">
      <path d="M10460.38 3808.84l79.02 0 0 -18.23 -79.02 0 0 18.23z"/>
     </clipPath>
     <clipPath id="id2">
      <path d="M10474.38 3794.99l65.45 0 0 -20.05 -65.45 0 0 20.05z"/>
     </clipPath>
     <clipPath id="id3">
      <path d="M10475.58 3778.45l79.01 0 0 -18.23 -79.01 0 0 18.23z"/>
     </clipPath>
     <clipPath id="id4">
      <path d="M10490.79 3763.25l78.97 0 0 -18.22 -78.97 0 0 18.22z"/>
     </clipPath>
     <clipPath id="id5">
      <path d="M10505.96 3748.05l79.02 0 0 -18.23 -79.02 0 0 18.23z"/>
     </clipPath>
     <clipPath id="id6">
      <path d="M10519.88 3734l65.42 0 0 -19.99 -65.42 0 0 19.99z"/>
     </clipPath>
     <clipPath id="id7">
      <path d="M10521.18 3717.67l79 0 0 -18.23 -79 0 0 18.23z"/>
     </clipPath>
     <clipPath id="id8">
      <path d="M10536.36 3702.47l78.99 0 0 -18.24 -78.99 0 0 18.24z"/>
     </clipPath>
     <clipPath id="id9">
      <path d="M10550.17 3688.29l65.46 0 0 -20.06 -65.46 0 0 20.06z"/>
     </clipPath>
     <clipPath id="id10">
      <path d="M10566.76 3672.08l48.59 0 0 -18.22 -48.59 0 0 18.22z"/>
     </clipPath>
     <clipPath id="id11">
      <path d="M10565.36 3657.86l35.12 0 0 -20.06 -35.12 0 0 20.06z"/>
     </clipPath>
     <clipPath id="id12">
      <path d="M10566.76 3641.7l18.22 0 0 -18.22 -18.22 0 0 18.22z"/>
     </clipPath>
     <clipPath id="id13">
      <path d="M10550.17 3627.36l19.98 0 0 -35.29 -19.98 0 0 35.29z"/>
     </clipPath>
     <clipPath id="id14">
      <path d="M10536.36 3596.11l18.23 0 0 -18.23 -18.23 0 0 18.23z"/>
     </clipPath>
     <clipPath id="id15">
      <path d="M10242.59 3939.77l86.61 0 0 -20.04 -86.61 0 0 20.04z"/>
     </clipPath>
     <clipPath id="id16">
      <path d="M10258.89 3924.53l70.31 0 0 -35.28 -70.31 0 0 35.28z"/>
     </clipPath>
     <clipPath id="id17">
      <path d="M10275.19 3894.11l54.01 0 0 -20.06 -54.01 0 0 20.06z"/>
     </clipPath>
     <clipPath id="id18">
      <path d="M7440.52 3769.29l68.06 0 0 -16.93 -68.06 0 0 16.93z"/>
     </clipPath>
     <clipPath id="id19">
      <path d="M7440.52 3730.73l42.44 0 0 -16.93 -42.44 0 0 16.93z"/>
     </clipPath>
 </defs>
 <g id="Layer_x0020_1">
  <metadata id="CorelCorpID_0Corel-Layer"/>
  <g id="_799305384">
   <g id="_852415384">
    <path class="fil0" d="M694.71 3706.23l481.27 0 1008.07 1372.28 1021.07 -1372.28 507.3 0c305.67,0 559.31,273.16 559.31,617.84l0 3570.44c0,344.7 -253.64,617.84 -559.31,617.84l-3017.64 0c-312.19,0 -559.32,-273.14 -559.32,-617.84l0 -3570.44c0,-344.68 247.13,-617.84 559.32,-617.84l-0.01 0 -0.01 0 -0.01 0 -0.01 0 -0.01 0 -0.02 0z"/>
    <path class="fil1" d="M2223.07 122.76c858.49,0 1521.86,656.87 1521.86,1580.4 0,858.48 -663.37,1586.9 -1521.86,1586.9 -923.52,0 -1586.89,-728.42 -1586.89,-1586.9 0,-923.53 663.37,-1580.4 1586.89,-1580.4z"/>
    <path class="fil2" d="M2223.07 122.76c663.37,0 1320.26,461.76 1450.31,1118.64 71.55,331.68 -1580.39,-195.12 -1977.1,-793.46 -266.66,351.21 -858.48,728.42 -988.57,728.42 195.12,-591.83 786.95,-1053.59 1515.36,-1053.59l0 0 0 -0.01z"/>
    <path class="fil2" d="M1865.37 460.96c591.85,559.32 1476.34,851.97 1716.97,702.4 -650.37,-6.53 -1365.77,-390.23 -1716.97,-702.4z"/>
    <path class="fil2" d="M1962.92 395.92c474.77,448.76 1183.67,676.38 1378.79,559.32 -520.29,0 -1092.63,-312.18 -1378.79,-559.32z"/>
    <path class="fil2" d="M1676.76 434.94c-273.13,312.19 -682.88,520.29 -799.94,474.78 305.68,-58.54 637.36,-299.18 799.94,-474.78z"/>
    <path class="fil3" d="M1475.16 3303.01l-351.2 409.73c65.04,279.64 97.55,604.83 273.14,708.87 247.15,-169.08 377.22,-422.72 754.44,-507.27 -240.64,-65.03 -422.74,-357.7 -676.38,-611.33z"/>
    <path class="fil3" d="M2905.91 3303.01l351.2 409.73c-65.02,279.64 -97.56,604.83 -273.16,708.87 -247.13,-169.08 -377.2,-422.72 -754.42,-507.27 240.65,-65.03 422.73,-357.7 676.38,-611.33z"/>
    <rect class="fil4" x="7992" y="3285.11" width="2527.64" height="3689.76"/>
    <path class="fil1" d="M9288.1 271.63c834.23,0 1510.39,676.26 1510.39,1510.55 0,834.14 -676.16,1510.39 -1510.39,1510.39 -65.69,0 -130.43,-4.19 -193.94,-12.34 -742.6,-95.19 -1316.51,-729.59 -1316.51,-1498.05 0,-834.31 676.23,-1510.53 1510.45,-1510.55z"/>
    <path class="fil2" d="M9288.1 271.63c681.76,0 1257.74,451.73 1445.65,1072.13 26.55,303.25 -1545.61,-150.16 -1928.53,-740.59 -81.11,104.53 -794.09,669.67 -951.09,703.37 199.3,-601.27 765.91,-1034.89 1433.97,-1034.91z"/>
    <g>
    </g>
    <g>
    </g>
    <g>
    </g>
    <g style="clip-path:url(#id0)">
     <g>
     </g>
    </g>
    <polygon class="fil5" points="10445.19,3824.02 10524.21,3824.02 10524.21,3805.78 10445.19,3805.78 "/>
    <polygon class="fil5" points="10445.19,3824.02 10524.21,3824.02 10524.21,3805.78 10445.19,3805.78 "/>
    <polygon class="fil5" points="10445.19,3824.02 10524.21,3824.02 10524.21,3805.78 10445.19,3805.78 "/>
    <polygon class="fil5" points="10445.19,3824.02 10524.21,3824.02 10524.21,3805.78 10445.19,3805.78 "/>
    <polygon class="fil5" points="10445.19,3824.02 10524.21,3824.02 10524.21,3805.78 10445.19,3805.78 "/>
    <polygon class="fil5" points="10445.19,3824.02 10524.21,3824.02 10524.21,3805.78 10445.19,3805.78 "/>
    <polygon class="fil5" points="10445.19,3824.02 10524.21,3824.02 10524.21,3805.78 10445.19,3805.78 "/>
    <polygon class="fil5" points="10445.19,3824.02 10524.21,3824.02 10524.21,3805.78 10445.19,3805.78 "/>
    <polygon class="fil5" points="10445.19,3824.02 10524.21,3824.02 10524.21,3805.78 10445.19,3805.78 "/>
    <g id="_845830888">
    </g>
    <g>
    </g>
    <g>
    </g>
    <g style="clip-path:url(#id1)">
     <g id="_807488328">
     </g>
    </g>
    <polygon class="fil5" points="10460.38,3808.84 10539.4,3808.84 10539.4,3790.61 10460.38,3790.61 "/>
    <polygon class="fil5" points="10460.38,3808.84 10539.4,3808.84 10539.4,3790.61 10460.38,3790.61 "/>
    <polygon class="fil5" points="10460.38,3808.84 10539.4,3808.84 10539.4,3790.61 10460.38,3790.61 "/>
    <polygon class="fil5" points="10460.38,3808.84 10539.4,3808.84 10539.4,3790.61 10460.38,3790.61 "/>
    <polygon class="fil5" points="10460.38,3808.84 10539.4,3808.84 10539.4,3790.61 10460.38,3790.61 "/>
    <polygon class="fil5" points="10460.38,3808.84 10539.4,3808.84 10539.4,3790.61 10460.38,3790.61 "/>
    <polygon class="fil5" points="10460.38,3808.84 10539.4,3808.84 10539.4,3790.61 10460.38,3790.61 "/>
    <polygon class="fil5" points="10460.38,3808.84 10539.4,3808.84 10539.4,3790.61 10460.38,3790.61 "/>
    <polygon class="fil5" points="10460.38,3808.84 10539.4,3808.84 10539.4,3790.61 10460.38,3790.61 "/>
    <g id="_796941016">
    </g>
    <g id="_796943632">
    </g>
    <g>
    </g>
    <g style="clip-path:url(#id2)">
     <g>
     </g>
    </g>
    <polygon class="fil5" points="10474.38,3794.99 10539.83,3794.99 10539.83,3774.94 10474.38,3774.94 "/>
    <polygon class="fil5" points="10474.38,3794.99 10539.83,3794.99 10539.83,3774.94 10474.38,3774.94 "/>
    <polygon class="fil5" points="10474.38,3794.99 10539.83,3794.99 10539.83,3774.94 10474.38,3774.94 "/>
    <polygon class="fil5" points="10474.38,3794.99 10539.83,3794.99 10539.83,3774.94 10474.38,3774.94 "/>
    <polygon class="fil5" points="10474.38,3794.99 10539.83,3794.99 10539.83,3774.94 10474.38,3774.94 "/>
    <polygon class="fil5" points="10474.38,3794.99 10539.83,3794.99 10539.83,3774.94 10474.38,3774.94 "/>
    <polygon class="fil5" points="10474.38,3794.99 10539.83,3794.99 10539.83,3774.94 10474.38,3774.94 "/>
    <polygon class="fil5" points="10474.38,3794.99 10539.83,3794.99 10539.83,3774.94 10474.38,3774.94 "/>
    <polygon class="fil5" points="10474.38,3794.99 10539.83,3794.99 10539.83,3774.94 10474.38,3774.94 "/>
    <g>
    </g>
    <g>
    </g>
    <g>
    </g>
    <g style="clip-path:url(#id3)">
     <g>
     </g>
    </g>
    <polygon class="fil5" points="10475.58,3778.45 10554.59,3778.45 10554.59,3760.22 10475.58,3760.22 "/>
    <polygon class="fil5" points="10475.58,3778.45 10554.59,3778.45 10554.59,3760.22 10475.58,3760.22 "/>
    <polygon class="fil5" points="10475.58,3778.45 10554.59,3778.45 10554.59,3760.22 10475.58,3760.22 "/>
    <polygon class="fil5" points="10475.58,3778.45 10554.59,3778.45 10554.59,3760.22 10475.58,3760.22 "/>
    <polygon class="fil5" points="10475.58,3778.45 10554.59,3778.45 10554.59,3760.22 10475.58,3760.22 "/>
    <polygon class="fil5" points="10475.58,3778.45 10554.59,3778.45 10554.59,3760.22 10475.58,3760.22 "/>
    <polygon class="fil5" points="10475.58,3778.45 10554.59,3778.45 10554.59,3760.22 10475.58,3760.22 "/>
    <polygon class="fil5" points="10475.58,3778.45 10554.59,3778.45 10554.59,3760.22 10475.58,3760.22 "/>
    <polygon class="fil5" points="10475.58,3778.45 10554.59,3778.45 10554.59,3760.22 10475.58,3760.22 "/>
    <g>
    </g>
    <g>
    </g>
    <g>
    </g>
    <g style="clip-path:url(#id4)">
     <g>
     </g>
    </g>
    <polygon class="fil5" points="10490.79,3763.25 10569.76,3763.25 10569.76,3745.03 10490.79,3745.03 "/>
    <polygon class="fil5" points="10490.79,3763.25 10569.76,3763.25 10569.76,3745.03 10490.79,3745.03 "/>
    <polygon class="fil5" points="10490.79,3763.25 10569.76,3763.25 10569.76,3745.03 10490.79,3745.03 "/>
    <polygon class="fil5" points="10490.79,3763.25 10569.76,3763.25 10569.76,3745.03 10490.79,3745.03 "/>
    <polygon class="fil5" points="10490.79,3763.25 10569.76,3763.25 10569.76,3745.03 10490.79,3745.03 "/>
    <polygon class="fil5" points="10490.79,3763.25 10569.76,3763.25 10569.76,3745.03 10490.79,3745.03 "/>
    <polygon class="fil5" points="10490.79,3763.25 10569.76,3763.25 10569.76,3745.03 10490.79,3745.03 "/>
    <polygon class="fil5" points="10490.79,3763.25 10569.76,3763.25 10569.76,3745.03 10490.79,3745.03 "/>
    <polygon class="fil5" points="10490.79,3763.25 10569.76,3763.25 10569.76,3745.03 10490.79,3745.03 "/>
    <g>
    </g>
    <g>
    </g>
    <g>
    </g>
    <g style="clip-path:url(#id5)">
     <g>
     </g>
    </g>
    <polygon class="fil5" points="10505.96,3748.05 10584.98,3748.05 10584.98,3729.82 10505.96,3729.82 "/>
    <polygon class="fil5" points="10505.96,3748.05 10584.98,3748.05 10584.98,3729.82 10505.96,3729.82 "/>
    <polygon class="fil5" points="10505.96,3748.05 10584.98,3748.05 10584.98,3729.82 10505.96,3729.82 "/>
    <polygon class="fil5" points="10505.96,3748.05 10584.98,3748.05 10584.98,3729.82 10505.96,3729.82 "/>
    <polygon class="fil5" points="10505.96,3748.05 10584.98,3748.05 10584.98,3729.82 10505.96,3729.82 "/>
    <polygon class="fil5" points="10505.96,3748.05 10584.98,3748.05 10584.98,3729.82 10505.96,3729.82 "/>
    <polygon class="fil5" points="10505.96,3748.05 10584.98,3748.05 10584.98,3729.82 10505.96,3729.82 "/>
    <polygon class="fil5" points="10505.96,3748.05 10584.98,3748.05 10584.98,3729.82 10505.96,3729.82 "/>
    <polygon class="fil5" points="10505.96,3748.05 10584.98,3748.05 10584.98,3729.82 10505.96,3729.82 "/>
    <g>
    </g>
    <g>
    </g>
    <g>
    </g>
    <g style="clip-path:url(#id6)">
     <g>
     </g>
    </g>
    <polygon class="fil5" points="10519.88,3734 10585.3,3734 10585.3,3714.01 10519.88,3714.01 "/>
    <polygon class="fil5" points="10519.88,3734 10585.3,3734 10585.3,3714.01 10519.88,3714.01 "/>
    <polygon class="fil5" points="10519.88,3734 10585.3,3734 10585.3,3714.01 10519.88,3714.01 "/>
    <polygon class="fil5" points="10519.88,3734 10585.3,3734 10585.3,3714.01 10519.88,3714.01 "/>
    <polygon class="fil5" points="10519.88,3734 10585.3,3734 10585.3,3714.01 10519.88,3714.01 "/>
    <polygon class="fil5" points="10519.88,3734 10585.3,3734 10585.3,3714.01 10519.88,3714.01 "/>
    <polygon class="fil5" points="10519.88,3734 10585.3,3734 10585.3,3714.01 10519.88,3714.01 "/>
    <polygon class="fil5" points="10519.88,3734 10585.3,3734 10585.3,3714.01 10519.88,3714.01 "/>
    <polygon class="fil5" points="10519.88,3734 10585.3,3734 10585.3,3714.01 10519.88,3714.01 "/>
    <g>
    </g>
    <g>
    </g>
    <g>
    </g>
    <g style="clip-path:url(#id7)">
     <g>
     </g>
    </g>
    <polygon class="fil5" points="10521.18,3717.67 10600.18,3717.67 10600.18,3699.44 10521.18,3699.44 "/>
    <polygon class="fil5" points="10521.18,3717.67 10600.18,3717.67 10600.18,3699.44 10521.18,3699.44 "/>
    <polygon class="fil5" points="10521.18,3717.67 10600.18,3717.67 10600.18,3699.44 10521.18,3699.44 "/>
    <polygon class="fil5" points="10521.18,3717.67 10600.18,3717.67 10600.18,3699.44 10521.18,3699.44 "/>
    <polygon class="fil5" points="10521.18,3717.67 10600.18,3717.67 10600.18,3699.44 10521.18,3699.44 "/>
    <polygon class="fil5" points="10521.18,3717.67 10600.18,3717.67 10600.18,3699.44 10521.18,3699.44 "/>
    <polygon class="fil5" points="10521.18,3717.67 10600.18,3717.67 10600.18,3699.44 10521.18,3699.44 "/>
    <polygon class="fil5" points="10521.18,3717.67 10600.18,3717.67 10600.18,3699.44 10521.18,3699.44 "/>
    <polygon class="fil5" points="10521.18,3717.67 10600.18,3717.67 10600.18,3699.44 10521.18,3699.44 "/>
    <g>
    </g>
    <g>
    </g>
    <g>
    </g>
    <g style="clip-path:url(#id8)">
     <g>
     </g>
    </g>
    <polygon class="fil5" points="10536.36,3702.47 10615.35,3702.47 10615.35,3684.23 10536.36,3684.23 "/>
    <polygon class="fil5" points="10536.36,3702.47 10615.35,3702.47 10615.35,3684.23 10536.36,3684.23 "/>
    <polygon class="fil5" points="10536.36,3702.47 10615.35,3702.47 10615.35,3684.23 10536.36,3684.23 "/>
    <polygon class="fil5" points="10536.36,3702.47 10615.35,3702.47 10615.35,3684.23 10536.36,3684.23 "/>
    <polygon class="fil5" points="10536.36,3702.47 10615.35,3702.47 10615.35,3684.23 10536.36,3684.23 "/>
    <polygon class="fil5" points="10536.36,3702.47 10615.35,3702.47 10615.35,3684.23 10536.36,3684.23 "/>
    <polygon class="fil5" points="10536.36,3702.47 10615.35,3702.47 10615.35,3684.23 10536.36,3684.23 "/>
    <polygon class="fil5" points="10536.36,3702.47 10615.35,3702.47 10615.35,3684.23 10536.36,3684.23 "/>
    <polygon class="fil5" points="10536.36,3702.47 10615.35,3702.47 10615.35,3684.23 10536.36,3684.23 "/>
    <g>
    </g>
    <g>
    </g>
    <g>
    </g>
    <g style="clip-path:url(#id9)">
     <g>
     </g>
    </g>
    <polygon class="fil5" points="10550.17,3688.29 10615.63,3688.29 10615.63,3668.23 10550.17,3668.23 "/>
    <polygon class="fil5" points="10550.17,3688.29 10615.63,3688.29 10615.63,3668.23 10550.17,3668.23 "/>
    <polygon class="fil5" points="10550.17,3688.29 10615.63,3688.29 10615.63,3668.23 10550.17,3668.23 "/>
    <polygon class="fil5" points="10550.17,3688.29 10615.63,3688.29 10615.63,3668.23 10550.17,3668.23 "/>
    <polygon class="fil5" points="10550.17,3688.29 10615.63,3688.29 10615.63,3668.23 10550.17,3668.23 "/>
    <polygon class="fil5" points="10550.17,3688.29 10615.63,3688.29 10615.63,3668.23 10550.17,3668.23 "/>
    <polygon class="fil5" points="10550.17,3688.29 10615.63,3688.29 10615.63,3668.23 10550.17,3668.23 "/>
    <polygon class="fil5" points="10550.17,3688.29 10615.63,3688.29 10615.63,3668.23 10550.17,3668.23 "/>
    <polygon class="fil5" points="10550.17,3688.29 10615.63,3688.29 10615.63,3668.23 10550.17,3668.23 "/>
    <g>
    </g>
    <g>
    </g>
    <g>
    </g>
    <g style="clip-path:url(#id10)">
     <g>
     </g>
    </g>
    <polygon class="fil5" points="10566.76,3672.08 10615.35,3672.08 10615.35,3653.86 10566.76,3653.86 "/>
    <polygon class="fil5" points="10566.76,3672.08 10615.35,3672.08 10615.35,3653.86 10566.76,3653.86 "/>
    <polygon class="fil5" points="10566.76,3672.08 10615.35,3672.08 10615.35,3653.86 10566.76,3653.86 "/>
    <polygon class="fil5" points="10566.76,3672.08 10615.35,3672.08 10615.35,3653.86 10566.76,3653.86 "/>
    <polygon class="fil5" points="10566.76,3672.08 10615.35,3672.08 10615.35,3653.86 10566.76,3653.86 "/>
    <polygon class="fil5" points="10566.76,3672.08 10615.35,3672.08 10615.35,3653.86 10566.76,3653.86 "/>
    <polygon class="fil5" points="10566.76,3672.08 10615.35,3672.08 10615.35,3653.86 10566.76,3653.86 "/>
    <polygon class="fil5" points="10566.76,3672.08 10615.35,3672.08 10615.35,3653.86 10566.76,3653.86 "/>
    <polygon class="fil5" points="10566.76,3672.08 10615.35,3672.08 10615.35,3653.86 10566.76,3653.86 "/>
    <g>
    </g>
    <g>
    </g>
    <g>
    </g>
    <g style="clip-path:url(#id11)">
     <g>
     </g>
    </g>
    <polygon class="fil5" points="10565.36,3657.86 10600.48,3657.86 10600.48,3637.8 10565.36,3637.8 "/>
    <polygon class="fil5" points="10565.36,3657.86 10600.48,3657.86 10600.48,3637.8 10565.36,3637.8 "/>
    <polygon class="fil5" points="10565.36,3657.86 10600.48,3657.86 10600.48,3637.8 10565.36,3637.8 "/>
    <polygon class="fil5" points="10565.36,3657.86 10600.48,3657.86 10600.48,3637.8 10565.36,3637.8 "/>
    <polygon class="fil5" points="10565.36,3657.86 10600.48,3657.86 10600.48,3637.8 10565.36,3637.8 "/>
    <polygon class="fil5" points="10565.36,3657.86 10600.48,3657.86 10600.48,3637.8 10565.36,3637.8 "/>
    <polygon class="fil5" points="10565.36,3657.86 10600.48,3657.86 10600.48,3637.8 10565.36,3637.8 "/>
    <polygon class="fil5" points="10565.36,3657.86 10600.48,3657.86 10600.48,3637.8 10565.36,3637.8 "/>
    <polygon class="fil5" points="10565.36,3657.86 10600.48,3657.86 10600.48,3637.8 10565.36,3637.8 "/>
    <g>
    </g>
    <g>
    </g>
    <g>
    </g>
    <g style="clip-path:url(#id12)">
     <g>
     </g>
    </g>
    <polygon class="fil5" points="10566.76,3641.7 10584.98,3641.7 10584.98,3623.48 10566.76,3623.48 "/>
    <polygon class="fil5" points="10566.76,3641.7 10584.98,3641.7 10584.98,3623.48 10566.76,3623.48 "/>
    <polygon class="fil5" points="10566.76,3641.7 10584.98,3641.7 10584.98,3623.48 10566.76,3623.48 "/>
    <polygon class="fil5" points="10566.76,3641.7 10584.98,3641.7 10584.98,3623.48 10566.76,3623.48 "/>
    <polygon class="fil5" points="10566.76,3641.7 10584.98,3641.7 10584.98,3623.48 10566.76,3623.48 "/>
    <polygon class="fil5" points="10566.76,3641.7 10584.98,3641.7 10584.98,3623.48 10566.76,3623.48 "/>
    <polygon class="fil5" points="10566.76,3641.7 10584.98,3641.7 10584.98,3623.48 10566.76,3623.48 "/>
    <polygon class="fil5" points="10566.76,3641.7 10584.98,3641.7 10584.98,3623.48 10566.76,3623.48 "/>
    <polygon class="fil5" points="10566.76,3641.7 10584.98,3641.7 10584.98,3623.48 10566.76,3623.48 "/>
    <g>
    </g>
    <g>
    </g>
    <g>
    </g>
    <g style="clip-path:url(#id13)">
     <g>
     </g>
    </g>
    <polygon class="fil5" points="10550.17,3627.36 10570.15,3627.36 10570.15,3592.07 10550.17,3592.07 "/>
    <polygon class="fil5" points="10550.17,3627.36 10570.15,3627.36 10570.15,3592.07 10550.17,3592.07 "/>
    <polygon class="fil5" points="10550.17,3627.36 10570.15,3627.36 10570.15,3592.07 10550.17,3592.07 "/>
    <polygon class="fil5" points="10550.17,3627.36 10570.15,3627.36 10570.15,3592.07 10550.17,3592.07 "/>
    <polygon class="fil5" points="10550.17,3627.36 10570.15,3627.36 10570.15,3592.07 10550.17,3592.07 "/>
    <polygon class="fil5" points="10550.17,3627.36 10570.15,3627.36 10570.15,3592.07 10550.17,3592.07 "/>
    <polygon class="fil5" points="10550.17,3627.36 10570.15,3627.36 10570.15,3592.07 10550.17,3592.07 "/>
    <polygon class="fil5" points="10550.17,3627.36 10570.15,3627.36 10570.15,3592.07 10550.17,3592.07 "/>
    <polygon class="fil5" points="10550.17,3627.36 10570.15,3627.36 10570.15,3592.07 10550.17,3592.07 "/>
    <g>
    </g>
    <g>
    </g>
    <g>
    </g>
    <g style="clip-path:url(#id14)">
     <g>
     </g>
    </g>
    <polygon class="fil5" points="10536.36,3596.11 10554.59,3596.11 10554.59,3577.88 10536.36,3577.88 "/>
    <polygon class="fil5" points="10536.36,3596.11 10554.59,3596.11 10554.59,3577.88 10536.36,3577.88 "/>
    <polygon class="fil5" points="10536.36,3596.11 10554.59,3596.11 10554.59,3577.88 10536.36,3577.88 "/>
    <polygon class="fil5" points="10536.36,3596.11 10554.59,3596.11 10554.59,3577.88 10536.36,3577.88 "/>
    <polygon class="fil5" points="10536.36,3596.11 10554.59,3596.11 10554.59,3577.88 10536.36,3577.88 "/>
    <polygon class="fil5" points="10536.36,3596.11 10554.59,3596.11 10554.59,3577.88 10536.36,3577.88 "/>
    <polygon class="fil5" points="10536.36,3596.11 10554.59,3596.11 10554.59,3577.88 10536.36,3577.88 "/>
    <polygon class="fil5" points="10536.36,3596.11 10554.59,3596.11 10554.59,3577.88 10536.36,3577.88 "/>
    <polygon class="fil5" points="10536.36,3596.11 10554.59,3596.11 10554.59,3577.88 10536.36,3577.88 "/>
    <path class="fil6" d="M7507.15 3590.01l468.9 12.08 1306.96 3162.77 1266.09 -3150.51 7.15 -9.84 -2.17 -3 0.02 -0.05 484.13 -11.45c322.38,-7.68 586.22,273.13 586.22,606.88l0 3196 -4703.58 0 0 -3196.03c0,-333.84 264.04,-615.05 586.37,-606.85l-0.02 0 -0.01 0 -0.01 0 0 0 -0.01 0 -0.01 0 -0.01 0 -0.01 0 -0.01 0z"/>
    <ellipse class="fil2 str0" cx="9262.7" cy="5807.77" rx="40.51" ry="45.59"/>
    <rect class="fil7" x="10559.24" y="5792.55" width="769.81" height="101.31"/>
    <polygon class="fil4" points="11148.83,5544.02 10964.41,5346.88 10559.26,5792.56 11308.81,5792.56 "/>
    <polygon class="fil8" points="9252.59,3756.57 8457.64,3413.17 8533.46,4252.92 9208.73,3889.13 "/>
    <polygon class="fil8" points="9184.99,3736.74 9992.75,3454.13 9951.49,4273.19 9143.25,3852.91 "/>
    <rect class="fil9" x="9124.31" y="3641.7" width="227.99" height="316.13"/>
    <polygon class="fil4 str1" points="7287.54,4161.77 7996.62,3209.6 8835.55,5739.12 8589.16,5521.36 "/>
    <polygon class="fil4 str1" points="7773.75,5063.46 8361.27,4445.37 9146.6,6585.41 8880.08,6306.72 "/>
    <g>
    </g>
    <g>
    </g>
    <g>
    </g>
    <g style="clip-path:url(#id15)">
     <g>
     </g>
    </g>
    <polygon class="fil5" points="10242.59,3939.77 10329.2,3939.77 10329.2,3919.73 10242.59,3919.73 "/>
    <polygon class="fil5" points="10242.59,3939.77 10329.2,3939.77 10329.2,3919.73 10242.59,3919.73 "/>
    <polygon class="fil5" points="10242.59,3939.77 10329.2,3939.77 10329.2,3919.73 10242.59,3919.73 "/>
    <polygon class="fil5" points="10242.59,3939.77 10329.2,3939.77 10329.2,3919.73 10242.59,3919.73 "/>
    <polygon class="fil5" points="10242.59,3939.77 10329.2,3939.77 10329.2,3919.73 10242.59,3919.73 "/>
    <polygon class="fil5" points="10242.59,3939.77 10329.2,3939.77 10329.2,3919.73 10242.59,3919.73 "/>
    <polygon class="fil5" points="10242.59,3939.77 10329.2,3939.77 10329.2,3919.73 10242.59,3919.73 "/>
    <polygon class="fil5" points="10242.59,3939.77 10329.2,3939.77 10329.2,3919.73 10242.59,3919.73 "/>
    <polygon class="fil5" points="10242.59,3939.77 10329.2,3939.77 10329.2,3919.73 10242.59,3919.73 "/>
    <g>
    </g>
    <g>
    </g>
    <g>
    </g>
    <g style="clip-path:url(#id16)">
     <g>
     </g>
    </g>
    <polygon class="fil5" points="10258.89,3924.53 10329.2,3924.53 10329.2,3889.25 10258.89,3889.25 "/>
    <polygon class="fil5" points="10258.89,3924.53 10329.2,3924.53 10329.2,3889.25 10258.89,3889.25 "/>
    <polygon class="fil5" points="10258.89,3924.53 10329.2,3924.53 10329.2,3889.25 10258.89,3889.25 "/>
    <polygon class="fil5" points="10258.89,3924.53 10329.2,3924.53 10329.2,3889.25 10258.89,3889.25 "/>
    <polygon class="fil5" points="10258.89,3924.53 10329.2,3924.53 10329.2,3889.25 10258.89,3889.25 "/>
    <polygon class="fil5" points="10258.89,3924.53 10329.2,3924.53 10329.2,3889.25 10258.89,3889.25 "/>
    <polygon class="fil5" points="10258.89,3924.53 10329.2,3924.53 10329.2,3889.25 10258.89,3889.25 "/>
    <polygon class="fil5" points="10258.89,3924.53 10329.2,3924.53 10329.2,3889.25 10258.89,3889.25 "/>
    <polygon class="fil5" points="10258.89,3924.53 10329.2,3924.53 10329.2,3889.25 10258.89,3889.25 "/>
    <g>
    </g>
    <g>
    </g>
    <g>
    </g>
    <g style="clip-path:url(#id17)">
     <g>
     </g>
    </g>
    <polygon class="fil5" points="10275.19,3894.11 10329.2,3894.11 10329.2,3874.05 10275.19,3874.05 "/>
    <polygon class="fil5" points="10275.19,3894.11 10329.2,3894.11 10329.2,3874.05 10275.19,3874.05 "/>
    <polygon class="fil5" points="10275.19,3894.11 10329.2,3894.11 10329.2,3874.05 10275.19,3874.05 "/>
    <polygon class="fil5" points="10275.19,3894.11 10329.2,3894.11 10329.2,3874.05 10275.19,3874.05 "/>
    <polygon class="fil5" points="10275.19,3894.11 10329.2,3894.11 10329.2,3874.05 10275.19,3874.05 "/>
    <polygon class="fil5" points="10275.19,3894.11 10329.2,3894.11 10329.2,3874.05 10275.19,3874.05 "/>
    <polygon class="fil5" points="10275.19,3894.11 10329.2,3894.11 10329.2,3874.05 10275.19,3874.05 "/>
    <polygon class="fil5" points="10275.19,3894.11 10329.2,3894.11 10329.2,3874.05 10275.19,3874.05 "/>
    <polygon class="fil5" points="10275.19,3894.11 10329.2,3894.11 10329.2,3874.05 10275.19,3874.05 "/>
    <ellipse class="fil2 str0" cx="9221.37" cy="4672.73" rx="43.53" ry="45.59"/>
    <path class="fil9" d="M9147.15 3641.67l200.92 0c12.16,0 22.01,7.29 22.01,16.26l0 165.56c0,8.97 -9.85,16.23 -22.01,16.23l-200.92 0c-12.16,0 -22.01,-7.26 -22.01,-16.23l0 -165.56c0,-8.97 9.85,-16.26 22.01,-16.26z"/>
    <polygon class="fil4 str1" points="11313.17,4111.82 10549.13,3250.14 9703.13,5768.49 9950.63,5531.31 "/>
    <polygon class="fil4 str1" points="10821.17,5151.91 10157.73,4459.41 9399.22,6602.77 9614.83,6413.66 "/>
    <ellipse class="fil2 str0" cx="9221.37" cy="5245.44" rx="43.53" ry="45.59"/>
    <rect class="fil6" x="6920.78" y="7327.4" width="4701.09" height="1167.37"/>
    <path class="fil10" d="M9750.45 9601.83c-19.09,5.04 -29.78,26.03 -16.92,44.98 10.86,16.01 24.48,19.5 23.58,48.79 -1.68,55.88 -93.53,95.77 -33.35,222.48 8.62,18.16 15.98,33.06 26.07,46.7 10.39,14.05 19.78,34.65 45.78,29.02 18.57,-4.02 27.01,-26.99 16.27,-44.8 -21.77,-36.1 -74.12,-98.23 -33.03,-158.73 19.75,-29.09 42.96,-58.25 37.95,-108.86 -3.13,-31.62 -32.41,-88.53 -66.35,-79.58z"/>
    <path class="fil10" d="M9869.67 9484.53c-13.59,5.57 -12.21,4.88 -21.64,15.89 -33.64,39.36 -37.64,92.73 -12.15,139.55 23.02,42.3 66.11,65.22 12.28,160.03 -5.89,10.36 -26.34,35.98 -27.99,45.74 -4.02,23.82 17.03,40.63 40.36,33.31 20.86,-6.55 101.41,-123.39 63.2,-211.98 -12.27,-28.4 -51.27,-63.45 -42.15,-103.47 5.69,-24.92 24.71,-28.76 27.35,-47.55 3.36,-23.71 -17.22,-40.56 -39.26,-31.52z"/>
    <polygon class="fil11" points="3920.6,4795.9 4693.13,3755.57 5821.01,6608.75 5223.59,7092.85 "/>
    <path class="fil7" d="M4674.42 5295.28l0 44.63 96.71 0 0 245.48c-96.71,0 -96.71,-52.07 -148.78,44.64 -44.62,52.06 0,52.06 -96.71,104.13 -44.62,0 0,-52.08 -44.62,0l96.71 0 0 44.63c44.62,0 44.62,52.07 44.62,52.07 52.07,0 0,0 52.07,-52.07 0,0 52.08,0 52.08,-44.63 44.63,0 96.71,-52.08 96.71,-52.08 96.69,-96.7 141.31,-96.7 238.01,-96.7 0,-52.07 0,-52.07 52.07,-52.07l0 52.07 52.08 0 44.62 44.64 0 -44.64 52.08 0 0 44.64c-52.08,52.06 -96.7,104.13 -52.08,200.83 96.71,0 0,0 52.08,-52.08 44.63,52.08 0,0 0,52.08 0,96.7 44.63,44.61 44.63,148.77l-44.63 -52.07 0 -52.09c-148.78,-141.31 -200.84,0 -200.84,0l0 52.09c-44.64,52.07 -44.64,0 -44.64,52.07 0,44.62 0,44.62 44.64,44.62l788.48 1175.28c96.7,-52.07 245.48,-193.4 342.18,-245.47l684.33 0 438.89 -1324.04 -684.34 0c-342.18,-44.64 -438.88,0 -587.65,-141.34l-684.34 -684.35c-96.7,44.64 -490.93,342.18 -632.27,438.88l-52.08 52.08 0 0 0 0 -0.01 0z"/>
    <polygon class="fil12" points="4034.7,3777.82 7709.32,3777.82 7709.32,8173.96 4034.7,8173.96 "/>
    <g>
    </g>
    <g>
    </g>
    <g>
    </g>
    <g style="clip-path:url(#id18)">
     <g>
     </g>
    </g>
    <polygon class="fil5" points="7440.52,3769.29 7508.58,3769.29 7508.58,3752.36 7440.52,3752.36 "/>
    <polygon class="fil5" points="7440.52,3769.29 7508.58,3769.29 7508.58,3752.36 7440.52,3752.36 "/>
    <polygon class="fil5" points="7440.52,3769.29 7508.58,3769.29 7508.58,3752.36 7440.52,3752.36 "/>
    <polygon class="fil5" points="7440.52,3769.29 7508.58,3769.29 7508.58,3752.36 7440.52,3752.36 "/>
    <polygon class="fil5" points="7440.52,3769.29 7508.58,3769.29 7508.58,3752.36 7440.52,3752.36 "/>
    <polygon class="fil5" points="7440.52,3769.29 7508.58,3769.29 7508.58,3752.36 7440.52,3752.36 "/>
    <polygon class="fil5" points="7440.52,3769.29 7508.58,3769.29 7508.58,3752.36 7440.52,3752.36 "/>
    <polygon class="fil5" points="7440.52,3769.29 7508.58,3769.29 7508.58,3752.36 7440.52,3752.36 "/>
    <polygon class="fil5" points="7440.52,3769.29 7508.58,3769.29 7508.58,3752.36 7440.52,3752.36 "/>
    <g>
    </g>
    <g>
    </g>
    <g>
    </g>
    <g style="clip-path:url(#id19)">
     <g>
     </g>
    </g>
    <polygon class="fil5" points="7440.52,3730.73 7482.96,3730.73 7482.96,3713.8 7440.52,3713.8 "/>
    <polygon class="fil5" points="7440.52,3730.73 7482.96,3730.73 7482.96,3713.8 7440.52,3713.8 "/>
    <polygon class="fil5" points="7440.52,3730.73 7482.96,3730.73 7482.96,3713.8 7440.52,3713.8 "/>
    <polygon class="fil5" points="7440.52,3730.73 7482.96,3730.73 7482.96,3713.8 7440.52,3713.8 "/>
    <polygon class="fil5" points="7440.52,3730.73 7482.96,3730.73 7482.96,3713.8 7440.52,3713.8 "/>
    <polygon class="fil5" points="7440.52,3730.73 7482.96,3730.73 7482.96,3713.8 7440.52,3713.8 "/>
    <polygon class="fil5" points="7440.52,3730.73 7482.96,3730.73 7482.96,3713.8 7440.52,3713.8 "/>
    <polygon class="fil5" points="7440.52,3730.73 7482.96,3730.73 7482.96,3713.8 7440.52,3713.8 "/>
    <polygon class="fil5" points="7440.52,3730.73 7482.96,3730.73 7482.96,3713.8 7440.52,3713.8 "/>
    <polygon class="fil13" points="4183.46,3874.53 7605.19,3874.53 7605.19,8032.64 4183.46,8032.64 "/>
    <polygon class="fil4" points="4525.64,4119.99 7263.01,4119.99 7263.01,7735.08 4525.64,7735.08 "/>
    <polygon class="fil14" points="5016.59,3777.82 6779.51,3777.82 6779.51,4216.7 5016.59,4216.7 "/>
    <polygon class="fil15" points="6288.58,3777.82 6288.58,3629.06 5455.47,3629.06 5455.47,3777.82 5016.59,3777.82 5016.59,3822.46 6779.51,3822.46 6779.51,3777.82 "/>
    <polygon class="fil16" points="5016.59,4901.05 5209.98,4655.57 5306.69,4603.5 4964.52,5094.46 4823.19,4804.34 4919.88,4752.28 "/>
    <path class="fil16" d="M5410.83 5243.21l1510.01 0 0 193.41 -1510.01 0 0 -193.41zm0 490.95l1510.01 0 0 193.4 -1510.01 0 0 -193.4zm0 483.48l1510.01 0 0 200.84 -1510.01 0 0 -200.84zm0 490.95l1510.01 0 0 193.4 -1510.01 0 0 -193.4zm0 490.92l1510.01 0 0 193.41 -1510.01 0 0 -193.41zm0 -2447.23l1510.01 0 0 193.4 -1510.01 0 0 -193.4z"/>
    <polygon class="fil16" points="5016.59,5377.12 5209.98,5131.64 5306.69,5079.56 4964.52,5570.52 4823.19,5280.42 4919.88,5228.34 "/>
    <polygon class="fil16" points="5016.59,5845.74 5209.98,5600.27 5306.69,5555.63 4964.52,6046.56 4823.19,5749.03 4919.88,5704.4 "/>
    <polygon class="fil16" points="5016.59,6321.77 5209.98,6076.31 5306.69,6031.69 4964.52,6515.18 4823.19,6225.08 4919.88,6173.01 "/>
    <polygon class="fil16" points="5016.59,6797.84 5209.98,6552.39 5306.69,6500.31 4964.52,6991.25 4823.19,6701.14 4919.88,6649.08 "/>
    <polygon class="fil16" points="5016.59,7273.9 5209.98,7028.45 5306.69,6976.39 4964.52,7467.3 4823.19,7177.21 4919.88,7125.14 "/>
    <path class="fil10" d="M10434.3 10687.68c5.89,-18.97 18.07,-47.47 25.6,-68.25 26.93,-74.32 53.64,-229.56 55.32,-233.82 25.24,-4.24 159.61,-1.28 203.63,-1.33 28.96,-0.05 37,-3.76 55.04,10.53 2.39,24.72 -36.27,91.42 -48.9,108.74 -46.78,64.18 -88.8,114.75 -168.42,150.28 -24.95,11.14 -90.96,37.79 -122.27,33.85zm-1373.98 478.54l0 20.35c14.16,13.43 8.26,19.65 47.15,19.74l1266.11 -0.07c155.41,0 196.11,18.38 155.86,-79.52 -12.57,-30.54 -39.33,-50.06 -82,-50.05 -118.94,0.02 -296.88,4.88 -402.72,-0.46 2.79,-2.88 1.09,-1.77 5.62,-4.6 2.56,-1.61 4.94,-2.64 8.26,-4 5.36,-2.18 10.9,-4.07 17.18,-6.42 75.35,-28.25 141.01,-74.46 197.07,-127.34 25.54,-24.09 60.39,-65.51 83.91,-102.09 20.54,-31.95 12,-34.29 52.63,-37.4 30.3,-2.33 55.83,-4.93 84.14,-11.27 137.13,-30.72 259.12,-121.11 323.78,-234.23 20.13,-35.21 31.42,-53.19 47.26,-91.56 4.74,-11.47 7.62,-24.91 13.65,-34.46l0 -38.48c-11.54,-22.08 -20.54,-98.27 -123.84,-102.44 -73,-2.95 -153.57,-0.66 -227.22,-0.16 -3.2,-25.43 5.74,-72.88 -0.65,-93.52 -8.28,-26.75 -41.15,-22.42 -70.3,-22.42l-1301.45 0c-32.12,0 -64.52,-4.68 -74.68,20.76 -5.16,12.91 -0.81,69.16 0.2,86.71 11.01,190.98 70.96,412.5 180.48,563.83 54.47,75.25 113.55,130.23 193.07,178.83 43.12,26.34 119.93,52.63 127.51,60.41 -100.8,3.45 -207.13,0.36 -308.53,0.36 -29.84,0 -128.4,-4.05 -148.51,4.14 -53.09,21.61 -48.46,61.28 -63.98,85.36z"/>
    <ellipse class="fil17 str0" cx="6203.99" cy="11372.27" rx="2421.95" ry="337.14"/>
    <rect class="fil17" x="3795.43" y="10328.3" width="4830.95" height="1072.7"/>
    <path class="fil18" d="M4067.43 10205.69l0.01 0c33.71,0 61.29,55.17 61.29,122.61l0 582.32c0,67.43 -27.58,122.59 -61.29,122.59l-0.01 0c-33.71,0 -61.29,-55.16 -61.29,-122.59l0 -582.32c0,-67.44 27.58,-122.61 61.29,-122.61z"/>
    <path class="fil18" d="M4404.57 10205.69l0 0c33.71,0 61.3,71.52 61.3,158.92l0 754.87c0,87.41 -27.59,158.92 -61.3,158.92l0 0c-33.71,0 -61.31,-71.51 -61.31,-158.92l0 -754.87c0,-87.4 27.6,-158.92 61.31,-158.92z"/>
    <path class="fil18" d="M4940.92 10205.69l0 0c33.72,0 61.29,55.17 61.29,122.61l0 582.32c0,67.43 -27.57,122.59 -61.29,122.59l0 0c-33.72,0 -61.31,-55.16 -61.31,-122.59l0 -582.32c0,-67.44 27.59,-122.61 61.31,-122.61z"/>
    <path class="fil18" d="M5438.96 10205.69l0 0c33.71,0 61.29,68.45 61.29,152.12l0 722.5c0,83.67 -27.58,152.11 -61.29,152.11l0 0c-33.72,0 -61.31,-68.44 -61.31,-152.11l0 -722.5c0,-83.67 27.59,-152.12 61.31,-152.12z"/>
    <path class="fil18" d="M5975.3 10205.69l0 0c33.71,0 61.31,55.17 61.31,122.61l0 582.32c0,67.43 -27.6,122.59 -61.31,122.59l0 0c-33.72,0 -61.29,-55.16 -61.29,-122.59l0 -582.32c0,-67.44 27.57,-122.61 61.29,-122.61z"/>
    <path class="fil18" d="M6511.64 10205.69l0 0c33.71,0 61.31,79.69 61.31,177.09l0 841.13c0,97.4 -27.6,177.08 -61.31,177.08l0 0c-33.71,0 -61.3,-79.68 -61.3,-177.08l0 -841.13c0,-97.4 27.59,-177.09 61.3,-177.09z"/>
    <path class="fil18" d="M7048 10205.69l0 0c33.71,0 61.29,55.17 61.29,122.61l0 582.32c0,67.43 -27.58,122.59 -61.29,122.59l0 0c-33.72,0 -61.3,-55.16 -61.3,-122.59l0 -582.32c0,-67.44 27.58,-122.61 61.3,-122.61z"/>
    <path class="fil18" d="M7660.96 10205.69l0 0c33.72,0 61.3,65.38 61.3,145.31l0 690.15c0,79.93 -27.58,145.31 -61.3,145.31l0 0c-33.71,0 -61.3,-65.38 -61.3,-145.31l0 -690.15c0,-79.93 27.59,-145.31 61.3,-145.31z"/>
    <path class="fil18" d="M8197.31 10205.69l0 0c33.71,0 61.3,73.55 61.3,163.47l0 776.42c0,89.92 -27.59,163.47 -61.3,163.47l0 0c-33.71,0 -61.3,-73.55 -61.3,-163.47l0 -776.42c0,-89.92 27.59,-163.47 61.3,-163.47z"/>
    <ellipse class="fil18" cx="6206.53" cy="10328.3" rx="2414.08" ry="252.85"/>
    <ellipse class="fil19" cx="6118.75" cy="10221.01" rx="1806.1" ry="229.86"/>
    <rect class="fil19" x="4312.62" y="9438.89" width="3593.52" height="796.87"/>
    <ellipse class="fil18 str0" cx="6109.39" cy="9447.14" rx="1796.74" ry="199.22"/>
    <ellipse class="fil20" cx="6074.9" cy="9356.82" rx="1164.64" ry="158.68"/>
    <rect class="fil20" x="4917.92" y="8830.66" width="2313.96" height="526.48"/>
    <ellipse class="fil18" cx="6080.94" cy="8826.51" rx="1149.32" ry="111.1"/>
    <rect class="fil21" x="4078.93" y="9517.6" width="97.02" height="830.12"/>
    <polygon class="fil22" points="4130.28,9113.25 4127.39,9172.96 4205.6,9320.85 4175.95,9517.59 4127.44,9517.59 4073.72,9457.88 "/>
    <rect class="fil21" x="4778.76" y="9640.21" width="97.02" height="830.12"/>
    <polygon class="fil22" points="4830.12,9235.85 4827.24,9295.55 4905.43,9443.44 4875.78,9640.19 4827.27,9640.19 4773.56,9580.48 "/>
    <rect class="fil21" x="5550.05" y="9701.5" width="97.02" height="830.12"/>
    <polygon class="fil4 str2" points="5601.41,9297.14 5598.53,9356.84 5676.73,9504.74 5647.08,9701.48 5598.57,9701.48 5544.85,9641.78 "/>
    <rect class="fil21" x="6346.72" y="9644.65" width="97.02" height="830.12"/>
    <polygon class="fil4" points="6398.08,9240.29 6395.19,9300 6473.4,9447.89 6443.76,9644.64 6395.25,9644.64 6341.52,9584.93 "/>
    <rect class="fil21" x="7174.41" y="9655.53" width="97.02" height="830.12"/>
    <polygon class="fil22" points="7225.78,9251.17 7222.9,9310.87 7301.09,9458.76 7271.44,9655.52 7222.93,9655.52 7169.22,9595.81 "/>
    <rect class="fil21" x="7982.53" y="9524.67" width="97.02" height="830.12"/>
    <polygon class="fil22" points="8033.88,9120.32 8031,9180.03 8109.21,9327.91 8079.56,9524.66 8031.03,9524.66 7977.33,9464.96 "/>
    <rect class="fil21" x="4657.17" y="8660.04" width="97.02" height="830.12"/>
    <polygon class="fil22" points="7488.15,8307.26 7485.27,8366.97 7563.48,8514.85 7533.83,8711.58 7485.31,8711.58 7431.6,8651.9 "/>
    <rect class="fil21" x="5218.34" y="8694.38" width="97.02" height="830.12"/>
    <polygon class="fil22" points="4600.48,8290.05 4597.59,8349.76 4675.8,8497.64 4646.15,8694.37 4597.64,8694.37 4543.93,8634.68 "/>
    <rect class="fil21" x="5934.74" y="8731.33" width="97.02" height="830.12"/>
    <polygon class="fil22" points="5316.9,8327 5314.01,8386.71 5392.2,8534.6 5362.56,8731.31 5314.05,8731.31 5260.33,8671.62 "/>
    <rect class="fil21" x="6771.48" y="8694.74" width="97.02" height="830.12"/>
    <polygon class="fil22" points="5987.47,8374.68 5984.59,8434.39 6062.79,8582.27 6033.13,8779 5984.62,8779 5930.91,8719.3 "/>
    <rect class="fil21" x="7451.62" y="8613.23" width="97.02" height="830.12"/>
    <path class="fil10" d="M2092.59 9630.29c-19.09,5.05 -29.79,26.03 -16.93,45 10.87,16 24.48,19.48 23.58,48.77 -1.68,55.89 -93.53,95.77 -33.35,222.48 8.62,18.16 15.98,33.07 26.06,46.7 10.4,14.07 19.79,34.65 45.79,29.03 18.58,-4.01 27.02,-27 16.27,-44.81 -21.77,-36.08 -74.12,-98.21 -33.02,-158.73 19.75,-29.08 42.95,-58.25 37.94,-108.85 -3.13,-31.63 -32.41,-88.54 -66.34,-79.59z"/>
    <path class="fil10" d="M2211.81 9513c-13.59,5.56 -12.22,4.88 -21.64,15.9 -33.64,39.35 -37.65,92.72 -12.16,139.54 23.02,42.3 66.11,65.22 12.28,160.02 -5.9,10.36 -26.34,36 -27.98,45.74 -4.02,23.82 17.02,40.64 40.36,33.31 20.86,-6.55 101.41,-123.39 63.19,-211.97 -12.27,-28.41 -51.27,-63.46 -42.14,-103.47 5.69,-24.93 24.71,-28.77 27.34,-47.55 3.36,-23.72 -17.23,-40.57 -39.25,-31.52z"/>
    <path class="fil10" d="M2776.43 10716.16c5.89,-18.99 18.08,-47.48 25.61,-68.27 26.93,-74.31 53.64,-229.54 55.31,-233.82 25.25,-4.24 159.62,-1.28 203.64,-1.33 28.95,-0.04 37,-3.75 55.03,10.54 2.4,24.71 -36.27,91.42 -48.9,108.74 -46.78,64.18 -88.79,114.75 -168.41,150.28 -24.95,11.14 -90.97,37.78 -122.28,33.86zm-1373.98 478.53l0 20.34c14.16,13.44 8.26,19.65 47.16,19.75l1266.1 -0.06c155.41,0 196.11,18.38 155.87,-79.53 -12.58,-30.55 -39.33,-50.06 -82,-50.05 -118.95,0.01 -296.88,4.89 -402.72,-0.46 2.79,-2.88 1.09,-1.77 5.61,-4.61 2.56,-1.6 4.94,-2.63 8.27,-3.99 5.36,-2.18 10.89,-4.08 17.17,-6.43 75.36,-28.25 141.01,-74.44 197.07,-127.34 25.55,-24.08 60.39,-65.51 83.92,-102.08 20.54,-31.96 11.99,-34.3 52.62,-37.41 30.31,-2.32 55.84,-4.93 84.15,-11.26 137.12,-30.73 259.12,-121.12 323.78,-234.23 20.12,-35.22 31.41,-53.19 47.26,-91.56 4.73,-11.48 7.61,-24.9 13.64,-34.45l0 -38.49c-11.54,-22.08 -20.54,-98.27 -123.84,-102.44 -73,-2.95 -153.57,-0.67 -227.22,-0.17 -3.19,-25.43 5.74,-72.88 -0.64,-93.51 -8.29,-26.76 -41.15,-22.42 -70.3,-22.42l-1301.45 0c-32.13,0 -64.52,-4.68 -74.69,20.77 -5.15,12.91 -0.8,69.14 0.2,86.71 11.01,190.97 70.97,412.5 180.49,563.82 54.46,75.25 113.55,130.23 193.06,178.82 43.12,26.34 119.94,52.64 127.51,60.41 -100.79,3.45 -207.13,0.36 -308.53,0.36 -29.83,0 -128.4,-4.05 -148.52,4.16 -53.07,21.6 -48.44,61.27 -63.97,85.35z"/>
    <path class="fil10" d="M2135.88 5722.72c11.66,15.46 14.45,31.62 23.58,39.8 17.04,15.3 22.12,6.72 44.35,18.5 -32.47,48.37 -10,22.17 -13.07,75.81l-41.38 -24.86 -53.45 28.96 7.14 -53.71 -28.74 -26.2c72.65,-30.26 23.18,15.44 61.57,-58.3zm-160.01 -82.79c-11.57,-15.34 -25.16,-33.81 -33.43,-50.37l32.67 -12.29c25.28,27.2 42.97,64.03 45.54,110.84 -25.49,-13.2 -25.13,-22.14 -44.78,-48.18zm297.29 59.22c-21.43,-33.7 -3.66,-34.67 15.53,-60.09 20.82,-27.61 15.27,-43.44 28.46,-68.3l27.97 7.81c-6.96,33.36 -49.08,97.04 -71.96,120.58zm-799.51 700.02c-20.64,-22.23 -21.67,-32.54 -44.87,-44.46 -44.96,116.84 -164,120.45 -116.79,-38.97 -34.26,-38.28 -73.41,-75.05 -33.73,-153.69 27.38,-54.29 56.54,-55.7 115.62,-84.07 -31.16,-35.2 -218.32,-54.69 -268.91,-104.11 43.1,-22.6 49.47,0.08 66.41,-34.31l-231 -92.65 68.63 -22.05c-9.79,-25.93 -12.21,-23.78 -43.04,-35.73l-159.68 -69.48c23.78,-19.84 44.77,-3.32 78.88,-26.29 -12.26,-24.75 5.05,-8.44 -25.95,-26.91 -40.63,-24.2 -182.37,-68.67 -226.11,-112.64 48.1,2.84 109.32,26.23 153.67,-0.69 2.85,-40.82 -19.22,-42.12 -51.84,-59.52 -24.93,-13.31 -47.73,-27.38 -72.71,-41.66 -37.38,-21.38 -103.5,-62.46 -123.12,-94.93 228.92,105.1 320.75,155.64 623.44,106.22 99.55,-16.26 254.27,-54.9 354.3,-42.92 98.43,11.78 226.05,75.77 251.96,132.81 -113.24,120.16 -243.51,265.29 -219.73,478.34l97.39 -31.36c8.58,-98.39 12.93,-157.33 57.29,-233.98 36.08,-62.34 77.93,-112.13 137.39,-142.73 40.09,18.24 59.5,56.64 85.35,98.64 37.54,60.93 37.89,58.59 16.55,134.58 -19.02,67.71 -69.06,223.82 -71.03,287.99 19.97,9.28 16.53,6.76 30.5,22.01 91.21,-21.17 106.42,-141.8 135.3,-171.44 60.95,-62.56 157.95,-46.17 180.59,41.14 35.54,-1.04 20.31,-4.64 51.51,-8.83 23.57,51.45 26.86,97.37 85.34,58.27 9.1,-46.9 -56.22,-208.44 -72.96,-264.91 -15.99,-54.05 47.77,-145.05 84.02,-189.63l18.33 -18.48c121.81,72.69 194.78,221.82 216.82,366.48l88.95 -22.87c-4.66,-198.53 -140.28,-343.4 -233.84,-420.97 16.12,-25.43 69.95,-68.1 102.53,-88.57 137.32,-86.27 343.38,-55.98 493.49,-36.27 360.39,47.32 483.66,-109.08 602.56,-147.91 -24.62,43.74 -72.93,78.33 -123.52,113.81 -40.86,28.68 -116.99,60.23 -117.97,114.34 28.8,7.26 149.01,-31.85 182.73,-42.08 -22.53,44.21 -236.12,124.03 -253.51,183.32 23.67,8.42 23.88,3.88 47.89,3.39l44.78 6.23c-33.78,20.51 -71.54,40.53 -111.58,61.81 -63.39,33.69 -88.13,37.62 -100.12,72.35l56.71 14c-7.68,6.85 2.94,-0.53 -15.46,12.25l-33.93 19.03c-66.36,32.73 -141.23,50.33 -154.85,82.68 29.45,18.45 30.94,6.95 58.6,17.53 -61.69,52.87 -237.78,90.68 -281.93,116.84 13.31,47.89 92.08,44.12 111.79,128.6 -25.02,51.24 -67.37,58.71 -63.83,133.34l103.06 21.29 -8.31 56.14 -14.38 -55.24 -89.33 1.87 -16.7 -48.09c-12.44,48.03 -33.66,44.62 -27.63,102.75 69.54,19.17 71.45,-28.7 106.41,1.09l-90.4 38.81c36.86,29.99 60.85,-13.32 94.3,3.82 -51.59,19.02 -57.99,18.03 -118.62,18.38 -58.32,0.31 -47.42,26.33 -112.8,40.12 -79.02,15.3 -144.62,-27.54 -200.29,-21.19 -29.85,3.39 -116.94,67.33 -138.68,91.3 36.06,18.13 122.77,62.24 169.96,52.01 -2.1,-34.92 -9.07,-26.28 -23.63,-53.57 60.75,13.58 73.62,37.55 149.42,30.36 -8.28,-42.66 -11.99,-17.66 -29.37,-56.17 59.18,14.26 64.73,37.53 133.92,36.14 16.9,-19.31 8.31,-25.23 17.52,-43.8 35.65,19.81 64.52,30.43 102.36,8.63 -6.94,-36.66 -9.25,-11.48 -34.2,-46.11 55.36,13.65 103.49,36.39 168.7,28.41 -13.16,-46.67 -50.64,-21.71 -79.28,-75.41 62.1,-2.05 146.63,7.25 166.92,-45.73 -53.57,-30.46 -136.66,-38.28 -117.09,-117.17 47.2,-22.23 66.63,7.75 107.37,18.74 12.49,-57.59 -36.41,-120.53 -60.2,-147.46 -46.29,-52.44 -74.3,-48.95 -121.88,-86.38 111.09,-49.25 200.78,-80.82 306.6,-156.75 -18.75,-18.98 1.87,-6.38 -27.51,-13.33 -0.52,-0.12 -28.65,-0.56 -32.53,-0.71 63.7,-33.48 201.06,-97.28 233.54,-145.61 -34.69,-15.57 -53.74,9.6 -84.31,1.76 46.51,-38.57 126.08,-77.18 175.55,-113.21 28.16,-20.5 38.62,-30.15 40.62,-51.09l-94.11 19.1c70.43,-60.1 251.23,-156.38 254.08,-251.17 -113.59,25.94 -107.53,72.02 -223.33,113.27 24.37,-81.12 316.33,-181.37 296.2,-310.56 -38.93,-0.4 -157.33,89.7 -192.71,114.32 -273.1,190.04 -535.5,92.91 -777.6,78.32 -363.04,-21.92 -354.82,182.41 -460.92,144.04 -137.87,-49.83 -247.84,-67.46 -401.36,-12.8 -37.52,13.36 -72.93,35.44 -109.17,42.92 -92.98,-66.88 -163.34,-134.23 -323.97,-142.9 -130.12,-7.03 -274.99,34.49 -399.33,55.02 -430.4,71.1 -616.55,-194.97 -703.29,-175.49 -10.31,47.81 15.56,65.86 40.88,94.56 114.55,129.76 102.51,94.65 219.64,171.68 -74.35,-9.04 -147.86,-89.8 -187.25,-61.89 -7.68,91.2 260.62,201.84 289.85,220.34 -30.27,-1.91 -32.6,-5.46 -60.58,-13.82l-40.9 -5.02c-1.61,0.13 -5.8,3.91 -6.96,1.67 -1.2,-2.27 -4.8,1.08 -7.03,2.05 23.08,70.82 161.06,100.78 224.65,150.21l-81.23 -13.08c20.26,51.54 185.14,115.8 240.74,134.14l-44.17 10.75c-2.03,0.67 -5.07,2.15 -6.66,2.76l-12.27 6.96c55.91,44.16 82.78,43.56 143.15,71.99 64.9,30.57 -3.26,31.94 145.6,66.05 -23.39,49.25 -155.01,136.73 -135.88,212.87 13.85,5.33 -16.09,6.17 19.87,2.84 1.74,-0.16 4.44,-0.47 6.21,-0.85 25.58,-5.52 5.69,-4.86 28.63,-15.21 67.23,-30.33 89.05,33.08 37.36,80.89 -32.18,29.78 -56.05,15.64 -93.8,29.13 12,58.27 104.93,62.04 170.33,51.84 -7.29,22.75 -17.04,25.22 -44.16,39.65 -27.53,14.62 -32,11.11 -47.63,34.71 37.44,24.71 100.66,27.6 154.84,22.11 23.47,-34.72 5.36,-50.73 35.82,-89.47 24.77,-31.49 42.07,-27.54 50.04,-57.42z"/>
    <path class="fil10" d="M1484.08 6236.86c13.13,-32.33 22.29,-48.11 53.07,-59.45 0.78,30.75 -6.19,82.38 -28.16,104.05l-24.91 -44.6zm528.2 87.37c-56.76,-35.57 -18.89,-154.66 8.05,-173.7 36.27,-25.63 12.49,20.8 70.31,-25.59 25.87,-20.76 40.96,-38.27 79.84,-22.64 11.68,62.15 -41.86,35.54 35.37,114.19 25.72,26.18 79.18,65.83 25.78,112.5 -78.17,16.52 -51.52,-61.17 -47.49,-111.2 -33.23,1.34 -40.56,15.13 -57.41,29.39 2.12,-37.84 18.85,-135.57 -42.23,-93.97 -0.29,42.36 -4.15,-1.77 11.29,24.91 40.95,70.73 -34.55,169.85 -83.51,146.11zm-529.08 73.73l27.25 -0.46c90.89,-69.86 160.61,-28.52 180.12,-40.96 23.43,-33.27 8.07,-28.61 40.32,-56.77 31.88,-27.8 27.94,-20.22 30.3,-77.52 -78.83,23.38 -67,113.73 -142.81,100.64 -2.38,-26.38 4.35,-62.3 21.18,-80.48 39.15,-42.3 20.98,8.84 61.61,-14.32 -14.13,-49.31 -46.24,-18.41 -73.95,-8.77 4.22,-37.34 16.57,-55.36 47.5,-63.66 47.55,-12.77 30.89,10.47 68.15,32.91 28.72,-103.4 -102.59,-65.03 -134.02,-2.3 -29.09,58.06 -13.95,164.61 -68.43,169.7 -23.19,-78.57 9.85,-188.22 65.46,-216.36 62.98,-31.85 178.38,-45.9 193.69,33.51l11.15 -14.88c1.4,-1.19 3.32,-3.19 4.96,-4.25 3.66,-2.36 -4.33,-5.1 19.51,-7.22 80.29,-7.11 47.72,97.69 46.7,102.57l-50.8 5.04c9.39,91.99 60.82,80.8 88.62,122.73 -32.03,18.84 -75.68,30.42 -109.13,45.96 -62.99,29.27 -274.03,158.3 -325.82,128.09 -67.57,-81.85 19.73,-115.28 57.59,-154l-31.79 8.47c-9.7,20.26 -52.92,28.44 -74.69,73.04 -18.1,37.07 -12.69,84.61 15.87,106.3 57.98,44.03 174.15,-35.73 214.05,-61.17 86.02,-54.88 318.56,-216.14 411.49,-93.32 -3.66,48.63 -25.74,38.94 -26.96,93.88l-8.88 -47.35c-91.14,-24.92 -168.78,-100.38 -238.66,-12.24 64.18,95.92 355.43,167.91 572.88,75.9 81.9,-34.68 114.48,-47.66 143.01,-104.19l157.76 31.93c62.76,4.66 89.65,4.85 137.31,-14.83 17.87,-66.91 -6.37,-179.44 43.5,-204.8 20.74,-10.55 28.25,-12.2 56.22,18.18 6.49,-60.07 19.21,-52.42 54.71,-76.81 0.39,-37.85 -7.27,-44.6 -20.25,-66.93 -41.35,32.46 -10.5,91.74 -78.18,86.74 -22.13,-72.63 46.49,-48.64 28.35,-127.5 -31.15,15.87 -7.14,2.46 -28.99,22.95 -21.38,61.92 -37.26,49.36 -59.24,98.98 -28.5,64.31 19.73,254.89 -217.13,229.56 -112.44,-12.04 -152.37,-21.97 -264.23,6.8 -64.22,16.54 -187.7,76.53 -230.41,60.37 9.76,-46.64 17.56,-16.29 40.39,-53.89 -18.24,-43.4 -38.06,-36.08 -72.51,-61.36l64.91 -41.52 17.22 43.11c3.3,-0.06 101.87,-32.38 107.9,-36.26 31.33,-19.97 32.32,-63.47 10.92,-98.92 -9.86,-16.36 -139.69,-180.64 2.84,-152.03l-5.26 64.07c46.39,-1.24 588.07,-292.76 574.91,-87.83 -67.12,61.13 -79.33,-8.33 -120.56,-30.85 -41.06,-22.43 -120.21,6.5 -161.01,20.57 -68.39,23.6 -227.31,93.84 -264.95,135.58 20.88,40.96 47.26,41.07 18.84,117.21 -23.94,64.1 -38.81,61.66 -116.64,57.53 12.15,72.91 76.21,61.83 105.91,10.88 33.43,-57.37 27.53,-121.62 51.05,-162.57 1.59,1.64 3.72,2.11 4.23,5.36 0.51,3.23 3.27,4.15 3.89,5.55 12.82,28.47 6.59,20.03 11.26,70.56 3.16,34.13 3.7,50.59 24.45,70.33 32.95,-31.2 35.86,-69.84 69.56,-102.15l-6.14 114.87c70.26,5.29 52.76,-51.28 50.48,-100.31 -3.24,-68.95 40.98,-97.18 -8.71,-133.59 -45.83,33.1 -30.92,99.08 -86.52,106.44 -35.71,-92.97 5.06,-112.17 68.39,-148.26 56.5,-32.19 111.96,-65.67 187.72,-45.06 40.97,88.83 -4.3,233.88 -34.81,323.38 137.17,38.52 40.1,-164.52 84.79,-225.24 35.83,-27.23 60.58,-15.9 107.96,-17.67l35.89 -40.18c-10.26,-73.21 -10.51,-108.42 -91.48,-117.86 -59.48,-6.92 -126.13,7.45 -179.41,22.68 -117.33,33.56 -193.62,90.75 -291.29,122.67 2.71,-33.42 0.04,-52.71 -10.92,-75.01 -63.14,-8.26 -44.04,8.28 -82.8,14.42 -43.79,6.95 -18.68,-19 -71.09,-2.33 -50.66,16.14 -22.11,41.65 -80.11,31.76 -50.99,-8.69 -104.83,80.7 -115.06,107.72 -23.21,61.24 -6.27,103 21.19,139.37 101.73,11.23 120.92,-30.24 160.99,-89.49l-1.95 61.79c-43.04,24.84 -70.67,64.71 -145.94,52.07 -60.66,-10.19 -96.55,-37.4 -97.52,-104.75 27.42,-21.35 53.51,-28.95 42.3,-75.63 -5.84,-24.28 -35.24,-54.34 -56.7,-68.34 -46.28,-30.24 -151.61,-30.55 -214.33,-29.16 -194.43,4.28 -145.04,106.22 -222.56,142.73 -79.66,37.53 -120.02,6.55 -65.95,-56.95 63.9,-75.06 65.74,16.34 179.04,-74.63 134.53,-107.99 205.7,-18.12 267.69,-39.64 3.65,-52.91 -41.23,-50.8 -96.3,-44.47 -97.22,11.18 -133.71,37.04 -201.41,79.82 -76.79,48.54 -63.83,10.85 -79.26,-7.71 -163.92,18.57 -180.27,202.37 -88.05,199.85 31.48,-0.86 44.97,-27.18 92.92,-37.07 -13.44,66.67 -32.27,116.5 -90.48,65.58 -11.41,20.38 -29.63,40.15 -23.51,68.34 45.3,81.61 131.28,-99.77 142.78,-122.18 62.73,57.19 -13.53,66.59 17.92,125.51z"/>
    <path class="fil10" d="M1607.13 6593.39c36.21,-0.87 53.77,-5.22 84.21,-10.04 55.53,-8.84 31.77,14.89 65.11,21.47 30.92,6.13 109.59,-41.87 126.71,-57.94 -107.23,-77.55 -100.12,-73.28 -141.14,-53.01 -31.17,15.41 -52.73,28.05 -79.56,43.7 -23.43,13.65 -53.27,22.96 -55.33,55.82z"/>
    <path class="fil10" d="M2558.86 6166.72c8.92,76.6 18.05,52.12 -3.76,133.03 -15.22,56.43 -38.5,110.39 39.77,93.4 3.03,-7.65 37.35,-253.45 36.28,-267.98 -36.31,8.71 -48.77,19.03 -72.29,41.55z"/>
    <path class="fil10" d="M1942.44 5589.56c8.27,16.56 21.86,35.03 33.43,50.37 19.65,26.04 19.29,34.98 44.78,48.18 -2.57,-46.81 -20.26,-83.64 -45.54,-110.84l-32.67 12.29z"/>
    <path class="fil10" d="M2273.16 5699.15c22.88,-23.54 65,-87.22 71.96,-120.58l-27.97 -7.81c-13.19,24.86 -7.64,40.69 -28.46,68.3 -19.19,25.42 -36.96,26.39 -15.53,60.09z"/>
    <path class="fil10" d="M1484.08 6236.86l24.91 44.6c21.97,-21.67 28.94,-73.3 28.16,-104.05 -30.78,11.34 -39.94,27.12 -53.07,59.45z"/>
    <polygon class="fil22" points="6823.5,8374.68 6820.6,8434.39 6898.8,8582.27 6869.16,8779 6820.65,8779 6766.93,8719.3 "/>
    <path class="fil18" d="M4578.86 9468.77l0 0c33.71,0 61.29,55.17 61.29,122.6l0 582.32c0,67.44 -27.58,122.6 -61.29,122.6l0 0c-33.73,0 -61.3,-55.16 -61.3,-122.6l0 -582.32c0,-67.43 27.57,-122.6 61.3,-122.6z"/>
    <path class="fil18" d="M5070.15 9480.99l0 0c33.71,0 61.29,55.16 61.29,122.59l0 582.32c0,67.44 -27.58,122.61 -61.29,122.61l0 0c-33.73,0 -61.3,-55.17 -61.3,-122.61l0 -582.32c0,-67.43 27.57,-122.59 61.3,-122.59z"/>
    <path class="fil18" d="M5400.94 9581.63l0 0c33.71,0 61.29,27.59 61.29,61.3l0 291.16c0,33.72 -27.58,61.31 -61.29,61.31l0 0c-33.73,0 -61.31,-27.59 -61.31,-61.31l0 -291.16c0,-33.71 27.58,-61.3 61.31,-61.3z"/>
    <path class="fil18" d="M5840.39 9579.04l0 0c33.72,0 61.3,33.35 61.3,74.12l0 352.11c0,40.77 -27.58,74.13 -61.3,74.13l0 0c-33.72,0 -61.29,-33.36 -61.29,-74.13l0 -352.11c0,-40.77 27.57,-74.12 61.29,-74.12z"/>
    <path class="fil18" d="M6244.65 9552.3l0 0c56.3,0 102.37,46.99 102.37,104.44l0 496.05c0,57.43 -46.07,104.43 -102.37,104.43l0 0c-56.31,0 -102.38,-47 -102.38,-104.43l0 -496.05c0,-57.45 46.07,-104.44 102.38,-104.44z"/>
    <path class="fil18" d="M6738.56 9578.9l0 0c33.71,0 61.3,46.99 61.3,104.44l0 496.05c0,57.44 -27.59,104.43 -61.3,104.43l0 0c-33.72,0 -61.3,-46.99 -61.3,-104.43l0 -496.05c0,-57.45 27.58,-104.44 61.3,-104.44z"/>
    <path class="fil18" d="M7072.95 9578.9l0 0c33.71,0 61.3,46.99 61.3,104.44l0 496.05c0,57.44 -27.59,104.43 -61.3,104.43l0 0c-33.72,0 -61.3,-46.99 -61.3,-104.43l0 -496.05c0,-57.45 27.58,-104.44 61.3,-104.44z"/>
    <path class="fil18" d="M7443.62 9530.08l0 0c33.71,0 61.29,46.98 61.29,104.43l0 496.05c0,57.44 -27.58,104.43 -61.29,104.43l0 0c-33.72,0 -61.3,-46.99 -61.3,-104.43l0 -496.05c0,-57.45 27.58,-104.43 61.3,-104.43z"/>
    <path class="fil18" d="M7741.78 9411.7l0 0c33.71,0 61.29,46.99 61.29,104.44l0 496.05c0,57.44 -27.58,104.43 -61.29,104.43l0 0c-33.72,0 -61.29,-46.99 -61.29,-104.43l0 -496.05c0,-57.45 27.57,-104.44 61.29,-104.44z"/>
   </g>
  </g>
 </g>
</svg>
