<?xml version="1.0" encoding="UTF-8"?>
<!DOCTYPE svg PUBLIC "-//W3C//DTD SVG 1.1//EN" "http://www.w3.org/Graphics/SVG/1.1/DTD/svg11.dtd">
<!-- Creator: CorelDRAW 2017 -->
<svg xmlns="http://www.w3.org/2000/svg" xml:space="preserve" width="118.533mm" height="118.533mm" version="1.1" style="shape-rendering:geometricPrecision; text-rendering:geometricPrecision; image-rendering:optimizeQuality; fill-rule:evenodd; clip-rule:evenodd"
viewBox="0 0 11853.32 11853.32"
 xmlns:xlink="http://www.w3.org/1999/xlink">
 <defs>
  <style type="text/css">
   <![CDATA[
    .str0 {stroke:black;stroke-width:20;stroke-miterlimit:22.9256}
    .fil6 {fill:black}
    .fil0 {fill:#00CCFF}
    .fil7 {fill:#2B2A29}
    .fil2 {fill:#33CC33}
    .fil4 {fill:#4D4D4D}
    .fil9 {fill:#663300}
    .fil11 {fill:#6699FF}
    .fil8 {fill:#9900CC}
    .fil12 {fill:#CC9933}
    .fil13 {fill:#F5F11E}
    .fil5 {fill:#FCD5A6}
    .fil1 {fill:#FF0066}
    .fil10 {fill:#FF6666}
    .fil3 {fill:#FFCC00}
   ]]>
  </style>
 </defs>
 <g id="Layer_x0020_1">
  <metadata id="CorelCorpID_0Corel-Layer"/>
  <g id="_797721904">
   <ellipse class="fil0" cx="8344.79" cy="1609" rx="865.37" ry="1376.57"/>
   <ellipse class="fil1" cx="9838.61" cy="1740.22" rx="1009.7" ry="1507.8"/>
   <ellipse class="fil2" cx="9413.51" cy="3865.67" rx="941.54" ry="1505.89"/>
   <ellipse class="fil3" cx="10752.24" cy="3200.56" rx="1044.63" ry="1460.31"/>
  </g>
  <g id="_797725408">
   <path class="fil4" d="M3637.8 5153.54l743.63 0 1557.57 1774.79 1577.67 -1774.79 783.81 0c472.31,0 864.21,353.29 864.21,799.06l0 4617.81c0,445.8 -391.9,799.08 -864.21,799.08l-4662.65 0c-482.36,0 -864.21,-353.28 -864.21,-799.08l0 -4617.81c0,-445.77 381.85,-799.06 864.21,-799.06l-0.01 0 -0.01 0 -0.01 0z"/>
   <path class="fil5" d="M6048.61 33.43c1326.46,0 2351.44,1014.94 2351.44,2441.88 0,1326.46 -1024.98,2451.93 -2351.44,2451.93 -1426.93,0 -2451.92,-1125.47 -2451.92,-2451.93 0,-1426.94 1024.99,-2441.88 2451.92,-2441.88z"/>
   <path class="fil6" d="M6048.61 33.43c1024.99,0 2039.93,713.46 2240.9,1728.4 110.54,512.5 -2441.87,-301.46 -3054.82,-1225.95 -412,542.63 -1326.45,1125.47 -1527.43,1125.47 301.47,-914.45 1215.91,-1627.91 2341.38,-1627.91l0 0 0 -0.01 -0.01 0 -0.01 0 -0.01 0z"/>
   <path class="fil7" d="M5495.94 555.97c914.44,864.2 2281.08,1316.41 2652.89,1085.27 -1004.89,-10.04 -2110.26,-602.93 -2652.89,-1085.27z"/>
   <path class="fil7" d="M5646.68 455.48c733.56,693.38 1828.88,1045.1 2130.34,864.22 -803.91,0 -1688.21,-482.35 -2130.34,-864.22z"/>
   <path class="fil7" d="M5204.52 515.78c-422.04,482.35 -1055.13,803.9 -1236.01,733.57 472.31,-90.44 984.81,-462.25 1236.01,-733.57z"/>
  </g>
  <ellipse class="fil8 str0" cx="5912.28" cy="10973.51" rx="4526.34" ry="630.05"/>
  <rect class="fil8" x="1411" y="9022.46" width="9028.4" height="2004.72"/>
  <path class="fil9" d="M1919.34 8793.37l0.01 0c63.01,0 114.55,103.09 114.55,229.11l0 1088.28c0,126.02 -51.54,229.11 -114.55,229.11l-0.01 0c-63,0 -114.55,-103.09 -114.55,-229.11l0 -1088.28c0,-126.02 51.55,-229.11 114.55,-229.11z"/>
  <path class="fil9" d="M2549.4 8793.37l0 0c63.01,0 114.56,133.64 114.56,296.99l0 1410.73c0,163.36 -51.55,296.99 -114.56,296.99l0 0c-63.01,0 -114.56,-133.63 -114.56,-296.99l0 -1410.73c0,-163.35 51.55,-296.99 114.56,-296.99z"/>
  <path class="fil9" d="M3551.75 8793.37l0.01 0c63.01,0 114.56,103.09 114.56,229.11l0 1088.28c0,126.02 -51.55,229.11 -114.56,229.11l-0.01 0c-63,0 -114.55,-103.09 -114.55,-229.11l0 -1088.28c0,-126.02 51.55,-229.11 114.55,-229.11z"/>
  <path class="fil9" d="M4482.52 8793.37l0 0c63.01,0 114.56,127.91 114.56,284.26l0 1350.27c0,156.36 -51.55,284.27 -114.56,284.27l0 0c-63.01,0 -114.56,-127.91 -114.56,-284.27l0 -1350.27c0,-156.35 51.55,-284.26 114.56,-284.26z"/>
  <path class="fil9" d="M5484.88 8793.37l0 0c63.01,0 114.56,103.09 114.56,229.11l0 1088.28c0,126.02 -51.55,229.11 -114.56,229.11l0 0c-63.01,0 -114.56,-103.09 -114.56,-229.11l0 -1088.28c0,-126.02 51.55,-229.11 114.56,-229.11z"/>
  <path class="fil9" d="M6487.23 8793.37l0.01 0c63,0 114.55,148.91 114.55,330.93l0 1571.96c0,182.02 -51.55,330.93 -114.55,330.93l-0.01 0c-63.01,0 -114.55,-148.91 -114.55,-330.93l0 -1571.96c0,-182.02 51.54,-330.93 114.55,-330.93z"/>
  <path class="fil9" d="M7489.6 8793.37l0 0c63.01,0 114.55,103.09 114.55,229.11l0 1088.28c0,126.02 -51.54,229.11 -114.55,229.11l0 0c-63.01,0 -114.56,-103.09 -114.56,-229.11l0 -1088.28c0,-126.02 51.55,-229.11 114.56,-229.11z"/>
  <path class="fil9" d="M8635.15 8793.36l0 0c63.01,0 114.55,122.18 114.55,271.54l0 1289.81c0,149.36 -51.54,271.54 -114.55,271.54l0 0c-63.01,0 -114.56,-122.18 -114.56,-271.54l0 -1289.81c0,-149.36 51.55,-271.54 114.56,-271.54z"/>
  <path class="fil9" d="M9637.5 8793.36l0.01 0c63,0 114.55,137.46 114.55,305.48l0 1451.04c0,168.02 -51.55,305.48 -114.55,305.48l-0.01 0c-63,0 -114.55,-137.46 -114.55,-305.48l0 -1451.04c0,-168.02 51.55,-305.48 114.55,-305.48z"/>
  <ellipse class="fil9" cx="5917.03" cy="9022.48" rx="4511.64" ry="472.54"/>
  <ellipse class="fil10" cx="5752.96" cy="8822" rx="3375.41" ry="429.58"/>
  <rect class="fil10" x="2377.55" y="7360.31" width="6715.82" height="1489.22"/>
  <ellipse class="fil9 str0" cx="5735.47" cy="7375.74" rx="3357.91" ry="372.31"/>
  <ellipse class="fil11" cx="5671.02" cy="7206.93" rx="2176.55" ry="296.57"/>
  <rect class="fil11" x="3508.79" y="6223.58" width="4324.47" height="983.91"/>
  <ellipse class="fil9" cx="5685.36" cy="6215.86" rx="2147.91" ry="207.63"/>
  <rect class="fil12" x="1940.82" y="7507.39" width="181.33" height="1551.36"/>
  <polygon class="fil13" points="2036.79,6751.74 2031.4,6863.32 2177.55,7139.7 2122.14,7507.39 2031.48,7507.39 1931.1,7395.81 "/>
  <rect class="fil12" x="3248.71" y="7736.5" width="181.33" height="1551.36"/>
  <polygon class="fil13" points="3344.69,6980.85 3339.3,7092.43 3485.44,7368.81 3430.04,7736.5 3339.37,7736.5 3238.99,7624.92 "/>
  <rect class="fil12" x="4690.15" y="7851.06" width="181.33" height="1551.36"/>
  <polygon class="fil13" points="4786.12,7095.41 4780.73,7206.99 4926.88,7483.37 4871.48,7851.06 4780.81,7851.06 4680.43,7739.48 "/>
  <rect class="fil12" x="6179.03" y="7744.82" width="181.33" height="1551.36"/>
  <polygon class="fil13" points="6275.01,6989.17 6269.62,7100.75 6415.76,7377.13 6360.36,7744.82 6269.7,7744.82 6169.31,7633.24 "/>
  <rect class="fil12" x="7725.86" y="7765.14" width="181.33" height="1551.36"/>
  <polygon class="fil13" points="7821.84,7009.49 7816.45,7121.07 7962.59,7397.45 7907.19,7765.14 7816.53,7765.14 7716.14,7653.56 "/>
  <rect class="fil12" x="9236.11" y="7520.61" width="181.33" height="1551.36"/>
  <polygon class="fil13" points="9332.08,6764.96 9326.69,6876.54 9472.84,7152.92 9417.44,7520.61 9326.77,7520.61 9226.39,7409.03 "/>
  <rect class="fil12" x="3021.48" y="5904.73" width="181.33" height="1551.36"/>
  <polygon class="fil13" points="3117.46,5149.08 3112.07,5260.66 3258.21,5537.04 3202.81,5904.73 3112.14,5904.73 3011.76,5793.15 "/>
  <rect class="fil12" x="4070.21" y="5968.89" width="181.33" height="1551.36"/>
  <polygon class="fil13" points="4166.19,5213.24 4160.8,5324.82 4306.94,5601.21 4251.54,5968.89 4160.88,5968.89 4060.49,5857.31 "/>
  <rect class="fil12" x="5409.07" y="6037.95" width="181.33" height="1551.36"/>
  <polygon class="fil13" points="5505.05,5282.3 5499.66,5393.88 5645.8,5670.26 5590.4,6037.95 5499.74,6037.95 5399.35,5926.37 "/>
  <rect class="fil12" x="6972.83" y="5969.59" width="181.33" height="1551.36"/>
  <polygon class="fil13" points="7068.81,5213.94 7063.42,5325.52 7209.56,5601.9 7154.16,5969.59 7063.5,5969.59 6963.11,5858.01 "/>
  <rect class="fil12" x="8243.93" y="5817.22" width="181.33" height="1551.36"/>
  <polygon class="fil13" points="8339.91,5061.57 8334.52,5173.15 8480.66,5449.53 8425.26,5817.22 8334.6,5817.22 8234.21,5705.64 "/>
 </g>
</svg>
