<?xml version="1.0" encoding="UTF-8"?>
<!DOCTYPE svg PUBLIC "-//W3C//DTD SVG 1.1//EN" "http://www.w3.org/Graphics/SVG/1.1/DTD/svg11.dtd">
<!-- Creator: CorelDRAW X7 -->
<svg xmlns="http://www.w3.org/2000/svg" xml:space="preserve" width="118.533mm" height="94.8266mm" version="1.1" style="shape-rendering:geometricPrecision; text-rendering:geometricPrecision; image-rendering:optimizeQuality; fill-rule:evenodd; clip-rule:evenodd"
viewBox="0 0 11853 9483"
 xmlns:xlink="http://www.w3.org/1999/xlink">
 <defs>
  <style type="text/css">
   <![CDATA[
    .str0 {stroke:#E6E6E6;stroke-width:62.5}
    .str2 {stroke:#4D4D4D;stroke-width:42.33}
    .str1 {stroke:black;stroke-width:20}
    .fil1 {fill:none}
    .fil4 {fill:#FCD5A6}
    .fil7 {fill:black}
    .fil2 {fill:#00CCFF}
    .fil6 {fill:#1A1A1A}
    .fil11 {fill:#333333}
    .fil5 {fill:#5B5B5B}
    .fil13 {fill:#660066}
    .fil8 {fill:#666666}
    .fil10 {fill:#990000}
    .fil0 {fill:#E6E6E6}
    .fil9 {fill:red}
    .fil3 {fill:white}
    .fil12 {fill:#4D4D4D;fill-rule:nonzero}
   ]]>
  </style>
 </defs>
 <g id="Слой_x0020_1">
  <metadata id="CorelCorpID_0Corel-Layer"/>
  <polygon class="fil0" points="6415,288 7649,3825 11641,3793 8395,5968 9661,9474 6415,7300 3169,9474 4403,5968 1157,3793 5182,3825 "/>
  <rect class="fil0" x="10278" y="5254" width="107" height="2770"/>
  <polygon class="fil0" points="9921,4767 10830,5448 10700,5643 9758,5026 "/>
  <rect class="fil0" transform="matrix(0.461429 0.281421 -0.281421 0.461429 10116.1 4890.96)" width="300" height="727"/>
  <path class="fil1 str0" d="M10765 5546c65,-33 130,227 162,357 65,97 -325,714 -260,1168 0,65 -97,975 0,975"/>
  <polygon class="fil2" points="6103,80 7338,3618 11330,3586 8083,5760 9350,9266 6103,7091 2857,9266 4091,5760 845,3586 4870,3618 "/>
  <polygon class="fil3" points="5507,4337 6843,4337 7209,4604 7209,7203 5173,7203 5173,4532 "/>
  <path class="fil4" d="M6220 2186c654,0 1183,529 1183,1183 0,652 -529,1181 -1183,1181 -653,0 -1182,-529 -1182,-1181 0,-654 529,-1183 1182,-1183z"/>
  <path class="fil5" d="M6220 2186c534,0 985,353 1132,839 21,237 -1209,-118 -1510,-580 -63,82 -621,525 -745,551 157,-471 600,-810 1123,-810z"/>
  <path class="fil6" d="M4826 4783l367 10 1023 2476 991 -2466 5 -9 -1 -2 0 0 379 -9c253,-6 459,214 459,475l0 2502 -3682 0 0 -2502c0,-261 206,-481 459,-475z"/>
  <ellipse class="fil7 str1" cx="6200" cy="6519" rx="32" ry="36"/>
  <rect class="fil8" x="7215" y="6507" width="602.589" height="79.3048"/>
  <polygon class="fil3" points="7677,6313 7533,6159 7215,6507 7803,6507 "/>
  <polygon class="fil9" points="6193,4913 5570,4645 5630,5302 6158,5018 "/>
  <polygon class="fil9" points="6140,4899 6772,4677 6740,5318 6107,4989 "/>
  <rect class="fil10" x="6092" y="4824" width="178" height="248"/>
  <rect class="fil8" x="8643" y="5277" width="95.1437" height="2452.22"/>
  <polygon class="fil11" points="8616,4858 9408,5454 9305,5620 8460,5079 "/>
  <ellipse class="fil7 str1" cx="8334" cy="4821" rx="276" ry="283"/>
  <rect class="fil6" transform="matrix(1.27643 0.778484 -0.778484 1.27643 8786.96 4955.59)" width="96.03" height="232.65"/>
  <path class="fil1 str1" d="M9361 5538c61,-17 108,206 154,302 51,101 -297,646 -245,1035 10,73 -84,871 -6,887"/>
  <rect class="fil11" x="8595" y="6667" width="206" height="545"/>
  <polygon class="fil3 str2" points="4654,5231 5209,4485 5867,6465 5673,6295 "/>
  <polygon class="fil3 str2" points="5035,5937 5495,5453 6109,7128 5901,6909 "/>
  <ellipse class="fil7 str1" cx="6168" cy="5631" rx="34" ry="36"/>
  <path class="fil10" d="M6109 4824l157 0c10,0 18,5 18,12l0 130c0,7 -8,12 -18,12l-157 0c-9,0 -17,-5 -17,-12l0 -130c0,-7 8,-12 17,-12z"/>
  <g id="_785732096">
   <polygon class="fil3" points="7805,5192 7207,4517 6545,6489 6739,6303 "/>
   <path id="_1" class="fil12" d="M7188 4534l-5 -25 44 -9 598 675 -38 34 -599 -675zm-5 -25l15 -42 29 33 -44 9zm-614 1988l-6 10 -43 -27 663 -1971 49 17 -663 1971zm-6 10l-76 74 33 -101 43 27zm157 -223l37 37 0 1 -194 185 -35 -37 192 -186zm37 37l0 1 0 0 0 -1zm1030 -1148l38 2 0 35 -1068 1111 -37 -36 1067 -1112zm38 2l16 18 -16 17 0 -35z"/>
  </g>
  <g id="_785705408">
   <polygon class="fil3" points="7420,6007 6901,5464 6307,7141 6476,6994 "/>
   <path id="_1_0" class="fil12" d="M6882 5481l-6 -25 43 -10 520 542 -38 36 -519 -543zm-6 -25l15 -41 28 31 -43 10zm-545 1694l-7 11 -42 -28 594 -1677 49 17 -594 1677zm-7 11l-75 66 33 -94 42 28zm135 -186l36 36 -2 3 -169 147 -34 -39 169 -147zm36 36l-2 2 0 1 2 -3zm906 -1023l38 0 0 36 -944 987 -37 -35 943 -988zm38 0l18 19 -18 17 0 -36z"/>
  </g>
  <polygon class="fil6" points="4480,4944 4678,6206 3699,6891 3205,6399 "/>
  <polygon class="fil13" points="2451,5858 3773,5858 4171,7760 2845,7747 "/>
  <polygon class="fil9" points="3545,6743 3419,6871 3506,7048 3342,6951 3216,7081 3241,6892 3077,6797 3256,6777 3280,6588 3366,6763 "/>
  <path class="fil4" d="M2693 7015l84 0c77,0 140,63 140,140l0 244c0,77 -63,140 -140,140l-84 0c-78,0 -140,-63 -140,-140l0 -244c0,-77 62,-140 140,-140z"/>
 </g>
</svg>
