<?xml version="1.0" encoding="UTF-8"?>
<!DOCTYPE svg PUBLIC "-//W3C//DTD SVG 1.1//EN" "http://www.w3.org/Graphics/SVG/1.1/DTD/svg11.dtd">
<!-- Creator: CorelDRAW X7 -->
<svg xmlns="http://www.w3.org/2000/svg" xml:space="preserve" width="90.7602mm" height="79.58mm" version="1.1" style="shape-rendering:geometricPrecision; text-rendering:geometricPrecision; image-rendering:optimizeQuality; fill-rule:evenodd; clip-rule:evenodd"
viewBox="0 0 9076 7958"
 xmlns:xlink="http://www.w3.org/1999/xlink">
 <defs>
  <style type="text/css">
   <![CDATA[
    .str0 {stroke:#E6E6E6;stroke-width:62.5}
    .str1 {stroke:black;stroke-width:20}
    .str3 {stroke:#4D4D4D;stroke-width:42.33}
    .str2 {stroke:#4D4D4D;stroke-width:42.33}
    .fil1 {fill:none}
    .fil4 {fill:#C5C6C6}
    .fil5 {fill:#5B5B5B}
    .fil13 {fill:black}
    .fil7 {fill:black}
    .fil2 {fill:#00CCFF}
    .fil6 {fill:#1A1A1A}
    .fil16 {fill:#1A1A1A}
    .fil12 {fill:#333333}
    .fil17 {fill:#660066}
    .fil11 {fill:#666666}
    .fil8 {fill:#666666}
    .fil10 {fill:#990000}
    .fil0 {fill:#E6E6E6}
    .fil18 {fill:red}
    .fil9 {fill:red}
    .fil14 {fill:white}
    .fil3 {fill:white}
    .fil15 {fill:#4D4D4D;fill-rule:nonzero}
   ]]>
  </style>
   <clipPath id="id0">
    <rect x="5320" y="4167" width="50.41" height="11.63"/>
   </clipPath>
   <clipPath id="id1">
    <rect x="5329" y="4157" width="50.41" height="11.64"/>
   </clipPath>
   <clipPath id="id2">
    <path d="M5338 4160l0 -13 42 0 0 13 -42 0z"/>
   </clipPath>
   <clipPath id="id3">
    <rect x="5339" y="4138" width="50.41" height="11.63"/>
   </clipPath>
   <clipPath id="id4">
    <rect x="5349" y="4128" width="50.41" height="11.63"/>
   </clipPath>
   <clipPath id="id5">
    <rect x="5358" y="4118" width="50.41" height="11.63"/>
   </clipPath>
   <clipPath id="id6">
    <path d="M5367 4121l0 -13 42 0 0 13 -42 0z"/>
   </clipPath>
   <clipPath id="id7">
    <rect x="5368" y="4099" width="50.41" height="11.63"/>
   </clipPath>
   <clipPath id="id8">
    <path d="M3907 4201l0 -13 52 0 0 13 -52 0z"/>
   </clipPath>
   <clipPath id="id9">
    <rect x="5378" y="4089" width="50.4" height="11.64"/>
   </clipPath>
   <clipPath id="id10">
    <path d="M5387 4092l0 -13 41 0 0 13 -41 0z"/>
   </clipPath>
   <clipPath id="id11">
    <rect x="5397" y="4070" width="31.02" height="11.63"/>
   </clipPath>
   <clipPath id="id12">
    <path d="M3907 4172l0 -13 32 0 0 13 -32 0z"/>
   </clipPath>
   <clipPath id="id13">
    <path d="M5396 4072l0 -12 23 0 0 12 -23 0z"/>
   </clipPath>
   <clipPath id="id14">
    <rect x="5397" y="4050" width="11.64" height="11.63"/>
   </clipPath>
   <clipPath id="id15">
    <path d="M5387 4053l0 -23 12 0 0 23 -12 0z"/>
   </clipPath>
   <clipPath id="id16">
    <rect x="5378" y="4021" width="11.63" height="11.63"/>
   </clipPath>
   <clipPath id="id17">
    <path d="M5246 4252l0 -13 -56 0 0 13 56 0z"/>
   </clipPath>
   <clipPath id="id18">
    <path d="M5246 4242l0 -22 -45 0 0 22 45 0z"/>
   </clipPath>
 </defs>
 <g id="Слой_x0020_1">
  <metadata id="CorelCorpID_0Corel-Layer"/>
  <polygon class="fil0" points="4740,365 5746,3248 9000,3222 6354,4995 7386,7852 4740,6080 2094,7852 3100,4995 454,3222 3735,3248 "/>
  <rect class="fil0" x="7889" y="4413" width="87.6099" height="2257.96"/>
  <polygon class="fil0" points="7598,4016 8339,4571 8233,4730 7465,4227 "/>
  <rect class="fil0" transform="matrix(0.376103 0.229381 -0.229381 0.376103 7756.76 4116.74)" width="300" height="727"/>
  <path class="fil1 str0" d="M8286 4651c53,-27 106,185 132,291 53,79 -265,582 -212,952 0,53 -79,794 0,794"/>
  <polygon class="fil2" points="4486,195 5492,3079 8746,3053 6100,4825 7132,7683 4486,5910 1840,7683 2846,4825 200,3053 3481,3079 "/>
  <polygon class="fil3" points="4000,3665 5089,3665 5387,3883 5387,6001 3728,6001 3728,3824 "/>
  <path class="fil4" d="M4581 1912c533,0 964,431 964,964 0,532 -431,963 -964,963 -532,0 -963,-431 -963,-963 0,-533 431,-964 963,-964z"/>
  <path class="fil5" d="M4581 1912c435,0 803,288 923,684 17,193 -986,-96 -1231,-473 -51,67 -506,428 -607,449 128,-384 489,-660 915,-660z"/>
  <g style="clip-path:url(#id0)">
   <image x="5320" y="4167" width="50.4093" height="11.6329" xlink:href="VEDUSHIY_Images\VEDUSHIY_ImgID1.png"/>
  </g>
  <g style="clip-path:url(#id1)">
   <image x="5329" y="4157" width="50.4093" height="11.6329" xlink:href="VEDUSHIY_Images\VEDUSHIY_ImgID2.png"/>
  </g>
  <g style="clip-path:url(#id2)">
   <image x="5337" y="4147" width="42.654" height="11.6329" xlink:href="VEDUSHIY_Images\VEDUSHIY_ImgID3.png"/>
  </g>
  <g style="clip-path:url(#id3)">
   <image x="5339" y="4138" width="50.4093" height="11.6329" xlink:href="VEDUSHIY_Images\VEDUSHIY_ImgID4.png"/>
  </g>
  <g style="clip-path:url(#id4)">
   <image x="5349" y="4128" width="50.4093" height="11.6329" xlink:href="VEDUSHIY_Images\VEDUSHIY_ImgID5.png"/>
  </g>
  <g style="clip-path:url(#id5)">
   <image x="5358" y="4118" width="50.4093" height="11.6329" xlink:href="VEDUSHIY_Images\VEDUSHIY_ImgID6.png"/>
  </g>
  <g style="clip-path:url(#id6)">
   <image x="5368" y="4109" width="42.654" height="11.6329" xlink:href="VEDUSHIY_Images\VEDUSHIY_ImgID7.png"/>
  </g>
  <g style="clip-path:url(#id7)">
   <image x="5368" y="4099" width="50.4093" height="11.6329" xlink:href="VEDUSHIY_Images\VEDUSHIY_ImgID8.png"/>
  </g>
  <g style="clip-path:url(#id8)">
   <image x="3909" y="4189" width="50.4093" height="11.6329" xlink:href="VEDUSHIY_Images\VEDUSHIY_ImgID9.png"/>
  </g>
  <g style="clip-path:url(#id9)">
   <image x="5378" y="4089" width="50.4093" height="11.6329" xlink:href="VEDUSHIY_Images\VEDUSHIY_ImgID10.png"/>
  </g>
  <g style="clip-path:url(#id10)">
   <image x="5387" y="4079" width="42.654" height="11.6329" xlink:href="VEDUSHIY_Images\VEDUSHIY_ImgID11.png"/>
  </g>
  <g style="clip-path:url(#id11)">
   <image x="5397" y="4070" width="31.0211" height="11.6329" xlink:href="VEDUSHIY_Images\VEDUSHIY_ImgID12.png"/>
  </g>
  <g style="clip-path:url(#id12)">
   <image x="3909" y="4159" width="31.0211" height="11.6329" xlink:href="VEDUSHIY_Images\VEDUSHIY_ImgID13.png"/>
  </g>
  <g style="clip-path:url(#id13)">
   <image x="5395" y="4060" width="23.2658" height="11.6329" xlink:href="VEDUSHIY_Images\VEDUSHIY_ImgID14.png"/>
  </g>
  <g style="clip-path:url(#id14)">
   <image x="5397" y="4050" width="11.6329" height="11.6329" xlink:href="VEDUSHIY_Images\VEDUSHIY_ImgID15.png"/>
  </g>
  <g style="clip-path:url(#id15)">
   <image x="5387" y="4029" width="11.6329" height="23.2658" xlink:href="VEDUSHIY_Images\VEDUSHIY_ImgID16.png"/>
  </g>
  <g style="clip-path:url(#id16)">
   <image x="5378" y="4021" width="11.6329" height="11.6329" xlink:href="VEDUSHIY_Images\VEDUSHIY_ImgID17.png"/>
  </g>
  <path class="fil6" d="M3445 4029l299 8 834 2018 808 -2010 4 -7 -1 -2 0 0 309 -7c206,-5 374,174 374,387l0 2039 -3001 0 0 -2039c0,-213 168,-392 374,-387z"/>
  <ellipse class="fil7 str1" cx="4565" cy="5444" rx="26" ry="29"/>
  <rect class="fil8" x="5392" y="5434" width="491.164" height="64.6377"/>
  <polygon class="fil3" points="5769,5276 5651,5150 5392,5434 5871,5434 "/>
  <polygon class="fil9" points="4559,4135 4051,3916 4100,4452 4531,4220 "/>
  <polygon class="fil9" points="4516,4123 5031,3942 5005,4465 4489,4197 "/>
  <rect class="fil10" x="4477" y="4062" width="145" height="202"/>
  <rect class="fil11" x="6556" y="4431" width="77.553" height="1998.76"/>
  <polygon class="fil12" points="6534,4090 7180,4576 7096,4711 6407,4270 "/>
  <ellipse class="fil13 str1" cx="6304" cy="4060" rx="225" ry="231"/>
  <rect class="fil6" transform="matrix(1.0404 0.634529 -0.634529 1.0404 6673.42 4169.42)" width="96.03" height="232.65"/>
  <path class="fil1 str1" d="M7141 4644c50,-14 88,168 126,246 41,83 -242,527 -200,844 8,59 -68,710 -5,723"/>
  <rect class="fil12" x="6517" y="5564" width="168" height="444"/>
  <polygon class="fil14 str2" points="3305,4394 3757,3786 4293,5400 4135,5261 "/>
  <polygon class="fil14 str3" points="3615,4969 3990,4575 4491,5940 4321,5762 "/>
  <g style="clip-path:url(#id17)">
   <image transform="matrix(-1.6402 -0 -0 1.52663 5243.98 4239.89)" x="0" y="0" width="33.02" height="7.62" xlink:href="VEDUSHIY_Images\VEDUSHIY_ImgID18.png"/>
  </g>
  <g style="clip-path:url(#id18)">
   <image transform="matrix(-1.6402 -0 -0 1.52663 5246.07 4218.57)" x="0" y="0" width="27.94" height="15.24" xlink:href="VEDUSHIY_Images\VEDUSHIY_ImgID19.png"/>
  </g>
  <ellipse class="fil7 str1" cx="4539" cy="4720" rx="28" ry="29"/>
  <rect class="fil10" x="4477" y="4062" width="156" height="126" rx="14" ry="10"/>
  <g>
   <polygon class="fil14" points="5873,4362 5386,3812 4846,5419 5004,5268 "/>
   <path id="1" class="fil15" d="M5370 3826l-4 -21 36 -7 487 550 -31 28 -488 -550zm-4 -21l12 -34 24 27 -36 7zm-500 1621l-5 8 -35 -22 540 -1607 40 14 -540 1607zm-5 8l-62 60 27 -82 35 22zm128 -182l30 30 0 1 -158 151 -29 -30 157 -152zm30 30l0 1 0 0 0 -1zm839 -935l31 1 0 29 -870 905 -30 -29 869 -906zm31 1l13 15 -13 14 0 -29z"/>
  </g>
  <g>
   <polygon class="fil14" points="5559,5026 5136,4584 4652,5951 4790,5831 "/>
   <path id="1" class="fil15" d="M5121 4598l-5 -21 35 -8 424 442 -31 29 -423 -442zm-5 -21l12 -33 23 25 -35 8zm-444 1381l-6 9 -34 -23 484 -1367 40 14 -484 1367zm-6 9l-61 54 27 -77 34 23zm110 -152l29 30 -1 2 -138 120 -28 -32 138 -120zm29 30l-1 1 0 1 1 -2zm739 -834l31 0 0 29 -770 805 -30 -29 769 -805zm31 0l14 15 -14 14 0 -29z"/>
  </g>
  <polygon class="fil16" points="3163,4160 3324,5189 2526,5747 2124,5346 "/>
  <polygon class="fil17" points="1509,4905 2587,4905 2911,6455 1830,6445 "/>
  <polygon class="fil18" points="2401,5626 2298,5731 2369,5875 2235,5796 2133,5902 2153,5748 2019,5670 2165,5654 2185,5500 2255,5643 "/>
  <rect class="fil4" x="1592" y="5848" width="297" height="427" rx="114" ry="114"/>
 </g>
</svg>
