<?xml version="1.0" encoding="UTF-8"?>
<!DOCTYPE svg PUBLIC "-//W3C//DTD SVG 1.1//EN" "http://www.w3.org/Graphics/SVG/1.1/DTD/svg11.dtd">
<!-- Creator: CorelDRAW 2017 -->
<svg xmlns="http://www.w3.org/2000/svg" xml:space="preserve" width="118.533mm" height="118.533mm" version="1.1" style="shape-rendering:geometricPrecision; text-rendering:geometricPrecision; image-rendering:optimizeQuality; fill-rule:evenodd; clip-rule:evenodd"
viewBox="0 0 11853.32 11853.32"
 xmlns:xlink="http://www.w3.org/1999/xlink">
 <defs>
  <style type="text/css">
   <![CDATA[
    .str1 {stroke:#4D4D4D;stroke-width:42.33;stroke-miterlimit:22.9256}
    .str0 {stroke:black;stroke-width:20;stroke-miterlimit:22.9256}
    .fil3 {fill:none}
    .fil2 {fill:black}
    .fil4 {fill:#1A1A1A}
    .fil8 {fill:#333333}
    .fil5 {fill:#666666}
    .fil7 {fill:#990000}
    .fil9 {fill:#9900CC}
    .fil1 {fill:#FCD5A6}
    .fil6 {fill:red}
    .fil0 {fill:white}
   ]]>
  </style>
   <clipPath id="id0">
    <path d="M7723.42 5353.98l102.23 0 0 -23.59 -102.23 0 0 23.59z"/>
   </clipPath>
   <clipPath id="id1">
    <path d="M7743.08 5334.32l102.23 0 0 -23.59 -102.23 0 0 23.59z"/>
   </clipPath>
   <clipPath id="id2">
    <path d="M7761.2 5316.41l84.66 0 0 -25.95 -84.66 0 0 25.95z"/>
   </clipPath>
   <clipPath id="id3">
    <path d="M7762.74 5295.01l102.22 0 0 -23.59 -102.22 0 0 23.59z"/>
   </clipPath>
   <clipPath id="id4">
    <path d="M7782.4 5275.35l102.21 0 0 -23.59 -102.21 0 0 23.59z"/>
   </clipPath>
   <clipPath id="id5">
    <path d="M7802.05 5255.69l102.23 0 0 -23.59 -102.23 0 0 23.59z"/>
   </clipPath>
   <clipPath id="id6">
    <path d="M7820.05 5237.51l84.66 0 0 -25.87 -84.66 0 0 25.87z"/>
   </clipPath>
   <clipPath id="id7">
    <path d="M7821.72 5216.38l102.22 0 0 -23.6 -102.22 0 0 23.6z"/>
   </clipPath>
   <clipPath id="id8">
    <path d="M4859.35 5399.62l104.3 0 0 -25.95 -104.3 0 0 25.95z"/>
   </clipPath>
   <clipPath id="id9">
    <path d="M7841.37 5196.71l102.23 0 0 -23.59 -102.23 0 0 23.59z"/>
   </clipPath>
   <clipPath id="id10">
    <path d="M7859.26 5178.36l84.68 0 0 -25.95 -84.68 0 0 25.95z"/>
   </clipPath>
   <clipPath id="id11">
    <path d="M7880.69 5157.4l62.91 0 0 -23.59 -62.91 0 0 23.59z"/>
   </clipPath>
   <clipPath id="id12">
    <path d="M4859.35 5340.51l65.05 0 0 -25.94 -65.05 0 0 25.94z"/>
   </clipPath>
   <clipPath id="id13">
    <path d="M7878.9 5138.98l45.44 0 0 -25.95 -45.44 0 0 25.95z"/>
   </clipPath>
   <clipPath id="id14">
    <path d="M7880.69 5118.08l23.59 0 0 -23.59 -23.59 0 0 23.59z"/>
   </clipPath>
   <clipPath id="id15">
    <path d="M7859.26 5099.53l25.83 0 0 -45.66 -25.83 0 0 45.66z"/>
   </clipPath>
   <clipPath id="id16">
    <path d="M7841.37 5059.1l23.59 0 0 -23.6 -23.59 0 0 23.6z"/>
   </clipPath>
   <clipPath id="id17">
    <path d="M7461.28 5503.74l112.06 0 0 -25.93 -112.06 0 0 25.93z"/>
   </clipPath>
   <clipPath id="id18">
    <path d="M7482.37 5484.03l90.97 0 0 -45.65 -90.97 0 0 45.65z"/>
   </clipPath>
   <clipPath id="id19">
    <path d="M7503.46 5444.66l69.88 0 0 -25.94 -69.88 0 0 25.94z"/>
   </clipPath>
 </defs>
 <g id="Layer_x0020_1">
  <metadata id="CorelCorpID_0Corel-Layer"/>
  <rect class="fil0" x="4549.32" y="4656.66" width="3270.43" height="4774.11"/>
  <path class="fil1" d="M6226.31 757.62c1079.37,0 1954.23,874.98 1954.23,1954.42 0,1079.27 -874.86,1954.25 -1954.23,1954.25 -85.01,0 -168.76,-5.44 -250.92,-15.97 -960.83,-123.16 -1703.39,-944 -1703.39,-1938.28 0,-1079.48 874.94,-1954.4 1954.31,-1954.42z"/>
  <path class="fil2" d="M6226.31 757.62c882.1,0 1627.34,584.46 1870.45,1387.18 34.37,392.35 -1999.8,-194.29 -2495.23,-958.22 -104.94,135.25 -1027.44,866.46 -1230.59,910.06 257.88,-777.96 991,-1339 1855.37,-1339.02z"/>
  <g>
  </g>
  <g style="clip-path:url(#id0)">
   <g>
   </g>
  </g>
  <polygon class="fil3" points="7723.42,5353.98 7825.65,5353.98 7825.65,5330.39 7723.42,5330.39 "/>
  <polygon class="fil3" points="7723.42,5353.98 7825.65,5353.98 7825.65,5330.39 7723.42,5330.39 "/>
  <polygon class="fil3" points="7723.42,5353.98 7825.65,5353.98 7825.65,5330.39 7723.42,5330.39 "/>
  <g>
  </g>
  <g style="clip-path:url(#id1)">
   <g>
   </g>
  </g>
  <polygon class="fil3" points="7743.08,5334.32 7845.31,5334.32 7845.31,5310.73 7743.08,5310.73 "/>
  <polygon class="fil3" points="7743.08,5334.32 7845.31,5334.32 7845.31,5310.73 7743.08,5310.73 "/>
  <polygon class="fil3" points="7743.08,5334.32 7845.31,5334.32 7845.31,5310.73 7743.08,5310.73 "/>
  <g>
  </g>
  <g style="clip-path:url(#id2)">
   <g>
   </g>
  </g>
  <polygon class="fil3" points="7761.2,5316.41 7845.86,5316.41 7845.86,5290.46 7761.2,5290.46 "/>
  <polygon class="fil3" points="7761.2,5316.41 7845.86,5316.41 7845.86,5290.46 7761.2,5290.46 "/>
  <polygon class="fil3" points="7761.2,5316.41 7845.86,5316.41 7845.86,5290.46 7761.2,5290.46 "/>
  <g>
  </g>
  <g style="clip-path:url(#id3)">
   <g>
   </g>
  </g>
  <polygon class="fil3" points="7762.74,5295.01 7864.96,5295.01 7864.96,5271.42 7762.74,5271.42 "/>
  <polygon class="fil3" points="7762.74,5295.01 7864.96,5295.01 7864.96,5271.42 7762.74,5271.42 "/>
  <polygon class="fil3" points="7762.74,5295.01 7864.96,5295.01 7864.96,5271.42 7762.74,5271.42 "/>
  <g>
  </g>
  <g style="clip-path:url(#id4)">
   <g>
   </g>
  </g>
  <polygon class="fil3" points="7782.4,5275.35 7884.61,5275.35 7884.61,5251.76 7782.4,5251.76 "/>
  <polygon class="fil3" points="7782.4,5275.35 7884.61,5275.35 7884.61,5251.76 7782.4,5251.76 "/>
  <polygon class="fil3" points="7782.4,5275.35 7884.61,5275.35 7884.61,5251.76 7782.4,5251.76 "/>
  <g>
  </g>
  <g style="clip-path:url(#id5)">
   <g>
   </g>
  </g>
  <polygon class="fil3" points="7802.05,5255.69 7904.28,5255.69 7904.28,5232.1 7802.05,5232.1 "/>
  <polygon class="fil3" points="7802.05,5255.69 7904.28,5255.69 7904.28,5232.1 7802.05,5232.1 "/>
  <polygon class="fil3" points="7802.05,5255.69 7904.28,5255.69 7904.28,5232.1 7802.05,5232.1 "/>
  <g>
  </g>
  <g style="clip-path:url(#id6)">
   <g>
   </g>
  </g>
  <polygon class="fil3" points="7820.05,5237.51 7904.71,5237.51 7904.71,5211.64 7820.05,5211.64 "/>
  <polygon class="fil3" points="7820.05,5237.51 7904.71,5237.51 7904.71,5211.64 7820.05,5211.64 "/>
  <polygon class="fil3" points="7820.05,5237.51 7904.71,5237.51 7904.71,5211.64 7820.05,5211.64 "/>
  <g>
  </g>
  <g style="clip-path:url(#id7)">
   <g>
   </g>
  </g>
  <polygon class="fil3" points="7821.72,5216.38 7923.94,5216.38 7923.94,5192.78 7821.72,5192.78 "/>
  <polygon class="fil3" points="7821.72,5216.38 7923.94,5216.38 7923.94,5192.78 7821.72,5192.78 "/>
  <polygon class="fil3" points="7821.72,5216.38 7923.94,5216.38 7923.94,5192.78 7821.72,5192.78 "/>
  <g>
  </g>
  <g style="clip-path:url(#id8)">
   <g>
   </g>
  </g>
  <polygon class="fil3" points="4859.35,5399.62 4963.65,5399.62 4963.65,5373.67 4859.35,5373.67 "/>
  <polygon class="fil3" points="4859.35,5399.62 4963.65,5399.62 4963.65,5373.67 4859.35,5373.67 "/>
  <polygon class="fil3" points="4859.35,5399.62 4963.65,5399.62 4963.65,5373.67 4859.35,5373.67 "/>
  <g>
  </g>
  <g style="clip-path:url(#id9)">
   <g>
   </g>
  </g>
  <polygon class="fil3" points="7841.37,5196.71 7943.6,5196.71 7943.6,5173.12 7841.37,5173.12 "/>
  <polygon class="fil3" points="7841.37,5196.71 7943.6,5196.71 7943.6,5173.12 7841.37,5173.12 "/>
  <polygon class="fil3" points="7841.37,5196.71 7943.6,5196.71 7943.6,5173.12 7841.37,5173.12 "/>
  <g>
  </g>
  <g style="clip-path:url(#id10)">
   <g>
   </g>
  </g>
  <polygon class="fil3" points="7859.26,5178.36 7943.94,5178.36 7943.94,5152.41 7859.26,5152.41 "/>
  <polygon class="fil3" points="7859.26,5178.36 7943.94,5178.36 7943.94,5152.41 7859.26,5152.41 "/>
  <polygon class="fil3" points="7859.26,5178.36 7943.94,5178.36 7943.94,5152.41 7859.26,5152.41 "/>
  <g>
  </g>
  <g style="clip-path:url(#id11)">
   <g>
   </g>
  </g>
  <polygon class="fil3" points="7880.69,5157.4 7943.6,5157.4 7943.6,5133.81 7880.69,5133.81 "/>
  <polygon class="fil3" points="7880.69,5157.4 7943.6,5157.4 7943.6,5133.81 7880.69,5133.81 "/>
  <polygon class="fil3" points="7880.69,5157.4 7943.6,5157.4 7943.6,5133.81 7880.69,5133.81 "/>
  <g>
  </g>
  <g style="clip-path:url(#id12)">
   <g>
   </g>
  </g>
  <polygon class="fil3" points="4859.35,5340.51 4924.4,5340.51 4924.4,5314.57 4859.35,5314.57 "/>
  <polygon class="fil3" points="4859.35,5340.51 4924.4,5340.51 4924.4,5314.57 4859.35,5314.57 "/>
  <polygon class="fil3" points="4859.35,5340.51 4924.4,5340.51 4924.4,5314.57 4859.35,5314.57 "/>
  <g>
  </g>
  <g style="clip-path:url(#id13)">
   <g>
   </g>
  </g>
  <polygon class="fil3" points="7878.9,5138.98 7924.34,5138.98 7924.34,5113.03 7878.9,5113.03 "/>
  <polygon class="fil3" points="7878.9,5138.98 7924.34,5138.98 7924.34,5113.03 7878.9,5113.03 "/>
  <polygon class="fil3" points="7878.9,5138.98 7924.34,5138.98 7924.34,5113.03 7878.9,5113.03 "/>
  <g>
  </g>
  <g style="clip-path:url(#id14)">
   <g>
   </g>
  </g>
  <polygon class="fil3" points="7880.69,5118.08 7904.28,5118.08 7904.28,5094.49 7880.69,5094.49 "/>
  <polygon class="fil3" points="7880.69,5118.08 7904.28,5118.08 7904.28,5094.49 7880.69,5094.49 "/>
  <polygon class="fil3" points="7880.69,5118.08 7904.28,5118.08 7904.28,5094.49 7880.69,5094.49 "/>
  <g>
  </g>
  <g style="clip-path:url(#id15)">
   <g>
   </g>
  </g>
  <polygon class="fil3" points="7859.26,5099.53 7885.09,5099.53 7885.09,5053.87 7859.26,5053.87 "/>
  <polygon class="fil3" points="7859.26,5099.53 7885.09,5099.53 7885.09,5053.87 7859.26,5053.87 "/>
  <polygon class="fil3" points="7859.26,5099.53 7885.09,5099.53 7885.09,5053.87 7859.26,5053.87 "/>
  <g>
  </g>
  <g style="clip-path:url(#id16)">
   <g>
   </g>
  </g>
  <polygon class="fil3" points="7841.37,5059.1 7864.96,5059.1 7864.96,5035.5 7841.37,5035.5 "/>
  <polygon class="fil3" points="7841.37,5059.1 7864.96,5059.1 7864.96,5035.5 7841.37,5035.5 "/>
  <polygon class="fil3" points="7841.37,5059.1 7864.96,5059.1 7864.96,5035.5 7841.37,5035.5 "/>
  <path class="fil4" d="M3921.94 5051.2l606.7 15.64 1691.01 4092.25 1638.15 -4076.42 9.25 -12.71 -2.82 -3.89 0.03 -0.06 626.39 -14.81c417.13,-9.93 758.51,353.39 758.51,785.22l0 4135.26 -6085.85 0 0 -4135.3c0,-431.95 341.62,-795.78 758.67,-785.18l-0.02 0 -0.01 0 -0.01 0z"/>
  <ellipse class="fil2 str0" cx="6193.44" cy="7920.67" rx="52.41" ry="58.98"/>
  <rect class="fil5" x="7870.97" y="7900.97" width="996.04" height="131.08"/>
  <polygon class="fil0" points="8633.83,7579.41 8395.22,7324.34 7871,7900.98 8840.82,7900.98 "/>
  <polygon class="fil6" points="6180.35,5266.72 5151.74,4822.39 5249.83,5908.92 6123.62,5438.22 "/>
  <polygon class="fil6" points="6092.88,5241.05 7138.02,4875.38 7084.64,5935.12 6038.88,5391.36 "/>
  <rect class="fil7" x="6014.37" y="5118.06" width="294.97" height="409.02"/>
  <rect class="fil5" x="10230.02" y="5866" width="157.28" height="5327.77"/>
  <polygon class="fil8" points="10185.57,5174.98 11495.9,6159.46 11326.38,6433.14 9928.02,5539.84 "/>
  <ellipse class="fil2 str0" cx="9719.28" cy="5114.85" rx="455.89" ry="467.8"/>
  <rect class="fil4" transform="matrix(2.10984 1.28677 -1.28677 2.10984 10468.9 5335.85)" width="96.03" height="232.65"/>
  <path class="fil3 str0" d="M11411.12 6296.64c101.11,-38.46 178.73,468.79 256.21,685.99 82.82,232.08 -491.71,1473.65 -406.3,2358.77 16.16,167.25 -136.99,1985.97 -8.76,2020.86"/>
  <rect class="fil8" x="10151.37" y="8163.07" width="340.76" height="900.49"/>
  <polygon class="fil0 str1" points="3637.81,5790.97 4555.25,4559 5640.75,7831.85 5321.9,7550.1 "/>
  <polygon class="fil0 str1" points="4266.89,6957.63 5027.06,6157.91 6043.22,8926.83 5698.36,8566.26 "/>
  <g>
  </g>
  <g style="clip-path:url(#id17)">
   <g>
   </g>
  </g>
  <polygon class="fil3" points="7461.28,5503.74 7573.34,5503.74 7573.34,5477.81 7461.28,5477.81 "/>
  <polygon class="fil3" points="7461.28,5503.74 7573.34,5503.74 7573.34,5477.81 7461.28,5477.81 "/>
  <polygon class="fil3" points="7461.28,5503.74 7573.34,5503.74 7573.34,5477.81 7461.28,5477.81 "/>
  <g>
  </g>
  <g style="clip-path:url(#id18)">
   <g>
   </g>
  </g>
  <polygon class="fil3" points="7482.37,5484.03 7573.34,5484.03 7573.34,5438.38 7482.37,5438.38 "/>
  <polygon class="fil3" points="7482.37,5484.03 7573.34,5484.03 7573.34,5438.38 7482.37,5438.38 "/>
  <polygon class="fil3" points="7482.37,5484.03 7573.34,5484.03 7573.34,5438.38 7482.37,5438.38 "/>
  <g>
  </g>
  <g style="clip-path:url(#id19)">
   <g>
   </g>
  </g>
  <polygon class="fil3" points="7503.46,5444.66 7573.34,5444.66 7573.34,5418.72 7503.46,5418.72 "/>
  <polygon class="fil3" points="7503.46,5444.66 7573.34,5444.66 7573.34,5418.72 7503.46,5418.72 "/>
  <polygon class="fil3" points="7503.46,5444.66 7573.34,5444.66 7573.34,5418.72 7503.46,5418.72 "/>
  <ellipse class="fil2 str0" cx="6139.98" cy="6452.08" rx="56.32" ry="58.98"/>
  <path class="fil7" d="M6043.93 5118.05l259.97 0c15.73,0 28.47,9.42 28.47,21.03l0 214.2c0,11.61 -12.74,21.02 -28.47,21.02l-259.97 0c-15.72,0 -28.47,-9.41 -28.47,-21.02l0 -214.2c0,-11.61 12.75,-21.03 28.47,-21.03z"/>
  <polygon class="fil0 str1" points="8846.47,5726.35 7857.9,4611.45 6763.28,7869.84 7083.53,7562.96 "/>
  <polygon class="fil0 str1" points="8209.88,7072.09 7351.48,6176.08 6370.08,8949.29 6649.04,8704.62 "/>
  <polygon class="fil4" points="3350.77,5317.45 3677.13,7402.97 2058.14,8534.09 1242.94,7721.1 "/>
  <polygon class="fil9" points="-3.27,6827.39 2182.66,6827.39 2838.38,9971.68 647.71,9951.33 "/>
  <path class="fil1" d="M395.22 8739.74l142.01 0c127.25,-0.01 230.44,103.18 230.44,230.43l-0.01 404.12c0.01,127.23 -103.18,230.42 -230.42,230.42l-142.02 0.01c-127.22,-0.01 -230.41,-103.2 -230.41,-230.44l-0.01 -404.1c0.01,-127.26 103.2,-230.45 230.43,-230.45l-0.01 0.01z"/>
  <ellipse class="fil2 str0" cx="6139.98" cy="7193.08" rx="56.32" ry="58.98"/>
  <rect class="fil4" x="3163.28" y="9886.88" width="6082.61" height="1024.15"/>
 </g>
</svg>
