<?xml version="1.0" encoding="UTF-8"?>
<!DOCTYPE svg PUBLIC "-//W3C//DTD SVG 1.1//EN" "http://www.w3.org/Graphics/SVG/1.1/DTD/svg11.dtd">
<!-- Creator: CorelDRAW 2017 -->
<svg xmlns="http://www.w3.org/2000/svg" xml:space="preserve" width="132.417mm" height="118.533mm" version="1.1" style="shape-rendering:geometricPrecision; text-rendering:geometricPrecision; image-rendering:optimizeQuality; fill-rule:evenodd; clip-rule:evenodd"
viewBox="0 0 13241.74 11853.32"
 xmlns:xlink="http://www.w3.org/1999/xlink">
 <defs>
  <style type="text/css">
   <![CDATA[
    .str1 {stroke:#4D4D4D;stroke-width:42.33;stroke-miterlimit:22.9256}
    .str0 {stroke:black;stroke-width:20;stroke-miterlimit:22.9256}
    .str3 {stroke:#2792E4;stroke-width:7.62;stroke-miterlimit:22.9256}
    .str2 {stroke:#DD0B29;stroke-width:7.62;stroke-miterlimit:22.9256}
    .fil3 {fill:none}
    .fil2 {fill:black}
    .fil4 {fill:#1A1A1A}
    .fil15 {fill:#2792E4}
    .fil13 {fill:#5FAD2F}
    .fil5 {fill:#666666}
    .fil7 {fill:#990000}
    .fil8 {fill:#CCCCCC}
    .fil12 {fill:#DD0B29}
    .fil9 {fill:#E6E6E6}
    .fil1 {fill:#FCD5A6}
    .fil6 {fill:red}
    .fil14 {fill:#FFDD00}
    .fil0 {fill:white}
    .fil11 {fill:black;fill-rule:nonzero}
    .fil16 {fill:black;fill-rule:nonzero}
    .fil17 {fill:#666666;fill-rule:nonzero}
    .fil10 {fill:white;fill-rule:nonzero}
   ]]>
  </style>
   <clipPath id="id0">
    <path d="M11661.99 4691.87l102.23 0 0 -23.59 -102.23 0 0 23.59z"/>
   </clipPath>
   <clipPath id="id1">
    <path d="M11681.65 4672.21l102.23 0 0 -23.59 -102.23 0 0 23.59z"/>
   </clipPath>
   <clipPath id="id2">
    <path d="M11699.77 4654.3l84.66 0 0 -25.95 -84.66 0 0 25.95z"/>
   </clipPath>
   <clipPath id="id3">
    <path d="M11701.31 4632.9l102.22 0 0 -23.59 -102.22 0 0 23.59z"/>
   </clipPath>
   <clipPath id="id4">
    <path d="M11720.97 4613.24l102.21 0 0 -23.59 -102.21 0 0 23.59z"/>
   </clipPath>
   <clipPath id="id5">
    <path d="M11740.62 4593.58l102.23 0 0 -23.59 -102.23 0 0 23.59z"/>
   </clipPath>
   <clipPath id="id6">
    <path d="M11758.62 4575.4l84.66 0 0 -25.87 -84.66 0 0 25.87z"/>
   </clipPath>
   <clipPath id="id7">
    <path d="M11760.29 4554.27l102.22 0 0 -23.6 -102.22 0 0 23.6z"/>
   </clipPath>
   <clipPath id="id8">
    <path d="M8797.93 4737.51l104.3 0 0 -25.95 -104.3 0 0 25.95z"/>
   </clipPath>
   <clipPath id="id9">
    <path d="M11779.94 4534.6l102.23 0 0 -23.59 -102.23 0 0 23.59z"/>
   </clipPath>
   <clipPath id="id10">
    <path d="M11797.83 4516.25l84.68 0 0 -25.95 -84.68 0 0 25.95z"/>
   </clipPath>
   <clipPath id="id11">
    <path d="M11819.26 4495.29l62.91 0 0 -23.59 -62.91 0 0 23.59z"/>
   </clipPath>
   <clipPath id="id12">
    <path d="M8797.93 4678.4l65.05 0 0 -25.94 -65.05 0 0 25.94z"/>
   </clipPath>
   <clipPath id="id13">
    <path d="M11817.47 4476.87l45.44 0 0 -25.95 -45.44 0 0 25.95z"/>
   </clipPath>
   <clipPath id="id14">
    <path d="M11819.26 4455.97l23.59 0 0 -23.59 -23.59 0 0 23.59z"/>
   </clipPath>
   <clipPath id="id15">
    <path d="M11797.83 4437.42l25.83 0 0 -45.66 -25.83 0 0 45.66z"/>
   </clipPath>
   <clipPath id="id16">
    <path d="M11779.94 4396.99l23.59 0 0 -23.6 -23.59 0 0 23.6z"/>
   </clipPath>
   <clipPath id="id17">
    <path d="M11399.85 4841.63l112.06 0 0 -25.93 -112.06 0 0 25.93z"/>
   </clipPath>
   <clipPath id="id18">
    <path d="M11420.94 4821.92l90.97 0 0 -45.65 -90.97 0 0 45.65z"/>
   </clipPath>
   <clipPath id="id19">
    <path d="M11442.03 4782.55l69.88 0 0 -25.94 -69.88 0 0 25.94z"/>
   </clipPath>
 </defs>
 <g id="Layer_x0020_1">
  <metadata id="CorelCorpID_0Corel-Layer"/>
  <rect class="fil0" x="8487.9" y="3994.55" width="3270.42" height="4774.1"/>
  <path class="fil1" d="M10164.88 95.52c1079.37,0 1954.23,874.98 1954.23,1954.42 0,1079.27 -874.86,1954.25 -1954.23,1954.25 -85.01,0 -168.76,-5.44 -250.92,-15.97 -960.82,-123.16 -1703.38,-944 -1703.38,-1938.28 0,-1079.48 874.94,-1954.4 1954.3,-1954.42z"/>
  <path class="fil2" d="M10164.88 95.52c882.1,0 1627.34,584.46 1870.45,1387.18 34.37,392.35 -1999.8,-194.29 -2495.23,-958.22 -104.94,135.25 -1027.43,866.46 -1230.58,910.06 257.88,-777.96 990.99,-1339 1855.36,-1339.02z"/>
  <g>
  </g>
  <g style="clip-path:url(#id0)">
   <g>
   </g>
  </g>
  <polygon class="fil3" points="11661.99,4691.87 11764.22,4691.87 11764.22,4668.28 11661.99,4668.28 "/>
  <polygon class="fil3" points="11661.99,4691.87 11764.22,4691.87 11764.22,4668.28 11661.99,4668.28 "/>
  <polygon class="fil3" points="11661.99,4691.87 11764.22,4691.87 11764.22,4668.28 11661.99,4668.28 "/>
  <polygon class="fil3" points="11661.99,4691.87 11764.22,4691.87 11764.22,4668.28 11661.99,4668.28 "/>
  <g>
  </g>
  <g style="clip-path:url(#id1)">
   <g>
   </g>
  </g>
  <polygon class="fil3" points="11681.65,4672.21 11783.88,4672.21 11783.88,4648.62 11681.65,4648.62 "/>
  <polygon class="fil3" points="11681.65,4672.21 11783.88,4672.21 11783.88,4648.62 11681.65,4648.62 "/>
  <polygon class="fil3" points="11681.65,4672.21 11783.88,4672.21 11783.88,4648.62 11681.65,4648.62 "/>
  <polygon class="fil3" points="11681.65,4672.21 11783.88,4672.21 11783.88,4648.62 11681.65,4648.62 "/>
  <g>
  </g>
  <g style="clip-path:url(#id2)">
   <g>
   </g>
  </g>
  <polygon class="fil3" points="11699.77,4654.3 11784.43,4654.3 11784.43,4628.35 11699.77,4628.35 "/>
  <polygon class="fil3" points="11699.77,4654.3 11784.43,4654.3 11784.43,4628.35 11699.77,4628.35 "/>
  <polygon class="fil3" points="11699.77,4654.3 11784.43,4654.3 11784.43,4628.35 11699.77,4628.35 "/>
  <polygon class="fil3" points="11699.77,4654.3 11784.43,4654.3 11784.43,4628.35 11699.77,4628.35 "/>
  <g>
  </g>
  <g style="clip-path:url(#id3)">
   <g>
   </g>
  </g>
  <polygon class="fil3" points="11701.31,4632.9 11803.53,4632.9 11803.53,4609.31 11701.31,4609.31 "/>
  <polygon class="fil3" points="11701.31,4632.9 11803.53,4632.9 11803.53,4609.31 11701.31,4609.31 "/>
  <polygon class="fil3" points="11701.31,4632.9 11803.53,4632.9 11803.53,4609.31 11701.31,4609.31 "/>
  <polygon class="fil3" points="11701.31,4632.9 11803.53,4632.9 11803.53,4609.31 11701.31,4609.31 "/>
  <g>
  </g>
  <g style="clip-path:url(#id4)">
   <g>
   </g>
  </g>
  <polygon class="fil3" points="11720.97,4613.24 11823.18,4613.24 11823.18,4589.65 11720.97,4589.65 "/>
  <polygon class="fil3" points="11720.97,4613.24 11823.18,4613.24 11823.18,4589.65 11720.97,4589.65 "/>
  <polygon class="fil3" points="11720.97,4613.24 11823.18,4613.24 11823.18,4589.65 11720.97,4589.65 "/>
  <polygon class="fil3" points="11720.97,4613.24 11823.18,4613.24 11823.18,4589.65 11720.97,4589.65 "/>
  <g>
  </g>
  <g style="clip-path:url(#id5)">
   <g>
   </g>
  </g>
  <polygon class="fil3" points="11740.62,4593.58 11842.85,4593.58 11842.85,4569.99 11740.62,4569.99 "/>
  <polygon class="fil3" points="11740.62,4593.58 11842.85,4593.58 11842.85,4569.99 11740.62,4569.99 "/>
  <polygon class="fil3" points="11740.62,4593.58 11842.85,4593.58 11842.85,4569.99 11740.62,4569.99 "/>
  <polygon class="fil3" points="11740.62,4593.58 11842.85,4593.58 11842.85,4569.99 11740.62,4569.99 "/>
  <g>
  </g>
  <g style="clip-path:url(#id6)">
   <g>
   </g>
  </g>
  <polygon class="fil3" points="11758.62,4575.4 11843.28,4575.4 11843.28,4549.53 11758.62,4549.53 "/>
  <polygon class="fil3" points="11758.62,4575.4 11843.28,4575.4 11843.28,4549.53 11758.62,4549.53 "/>
  <polygon class="fil3" points="11758.62,4575.4 11843.28,4575.4 11843.28,4549.53 11758.62,4549.53 "/>
  <polygon class="fil3" points="11758.62,4575.4 11843.28,4575.4 11843.28,4549.53 11758.62,4549.53 "/>
  <g>
  </g>
  <g style="clip-path:url(#id7)">
   <g>
   </g>
  </g>
  <polygon class="fil3" points="11760.29,4554.27 11862.51,4554.27 11862.51,4530.67 11760.29,4530.67 "/>
  <polygon class="fil3" points="11760.29,4554.27 11862.51,4554.27 11862.51,4530.67 11760.29,4530.67 "/>
  <polygon class="fil3" points="11760.29,4554.27 11862.51,4554.27 11862.51,4530.67 11760.29,4530.67 "/>
  <polygon class="fil3" points="11760.29,4554.27 11862.51,4554.27 11862.51,4530.67 11760.29,4530.67 "/>
  <g>
  </g>
  <g style="clip-path:url(#id8)">
   <g>
   </g>
  </g>
  <polygon class="fil3" points="8797.93,4737.51 8902.23,4737.51 8902.23,4711.56 8797.93,4711.56 "/>
  <polygon class="fil3" points="8797.93,4737.51 8902.23,4737.51 8902.23,4711.56 8797.93,4711.56 "/>
  <polygon class="fil3" points="8797.93,4737.51 8902.23,4737.51 8902.23,4711.56 8797.93,4711.56 "/>
  <polygon class="fil3" points="8797.93,4737.51 8902.23,4737.51 8902.23,4711.56 8797.93,4711.56 "/>
  <g>
  </g>
  <g style="clip-path:url(#id9)">
   <g>
   </g>
  </g>
  <polygon class="fil3" points="11779.94,4534.6 11882.17,4534.6 11882.17,4511.01 11779.94,4511.01 "/>
  <polygon class="fil3" points="11779.94,4534.6 11882.17,4534.6 11882.17,4511.01 11779.94,4511.01 "/>
  <polygon class="fil3" points="11779.94,4534.6 11882.17,4534.6 11882.17,4511.01 11779.94,4511.01 "/>
  <polygon class="fil3" points="11779.94,4534.6 11882.17,4534.6 11882.17,4511.01 11779.94,4511.01 "/>
  <g>
  </g>
  <g style="clip-path:url(#id10)">
   <g>
   </g>
  </g>
  <polygon class="fil3" points="11797.83,4516.25 11882.51,4516.25 11882.51,4490.3 11797.83,4490.3 "/>
  <polygon class="fil3" points="11797.83,4516.25 11882.51,4516.25 11882.51,4490.3 11797.83,4490.3 "/>
  <polygon class="fil3" points="11797.83,4516.25 11882.51,4516.25 11882.51,4490.3 11797.83,4490.3 "/>
  <polygon class="fil3" points="11797.83,4516.25 11882.51,4516.25 11882.51,4490.3 11797.83,4490.3 "/>
  <g>
  </g>
  <g style="clip-path:url(#id11)">
   <g>
   </g>
  </g>
  <polygon class="fil3" points="11819.26,4495.29 11882.17,4495.29 11882.17,4471.7 11819.26,4471.7 "/>
  <polygon class="fil3" points="11819.26,4495.29 11882.17,4495.29 11882.17,4471.7 11819.26,4471.7 "/>
  <polygon class="fil3" points="11819.26,4495.29 11882.17,4495.29 11882.17,4471.7 11819.26,4471.7 "/>
  <polygon class="fil3" points="11819.26,4495.29 11882.17,4495.29 11882.17,4471.7 11819.26,4471.7 "/>
  <g>
  </g>
  <g style="clip-path:url(#id12)">
   <g>
   </g>
  </g>
  <polygon class="fil3" points="8797.93,4678.4 8862.98,4678.4 8862.98,4652.46 8797.93,4652.46 "/>
  <polygon class="fil3" points="8797.93,4678.4 8862.98,4678.4 8862.98,4652.46 8797.93,4652.46 "/>
  <polygon class="fil3" points="8797.93,4678.4 8862.98,4678.4 8862.98,4652.46 8797.93,4652.46 "/>
  <polygon class="fil3" points="8797.93,4678.4 8862.98,4678.4 8862.98,4652.46 8797.93,4652.46 "/>
  <g>
  </g>
  <g style="clip-path:url(#id13)">
   <g>
   </g>
  </g>
  <polygon class="fil3" points="11817.47,4476.87 11862.91,4476.87 11862.91,4450.92 11817.47,4450.92 "/>
  <polygon class="fil3" points="11817.47,4476.87 11862.91,4476.87 11862.91,4450.92 11817.47,4450.92 "/>
  <polygon class="fil3" points="11817.47,4476.87 11862.91,4476.87 11862.91,4450.92 11817.47,4450.92 "/>
  <polygon class="fil3" points="11817.47,4476.87 11862.91,4476.87 11862.91,4450.92 11817.47,4450.92 "/>
  <g>
  </g>
  <g style="clip-path:url(#id14)">
   <g>
   </g>
  </g>
  <polygon class="fil3" points="11819.26,4455.97 11842.85,4455.97 11842.85,4432.38 11819.26,4432.38 "/>
  <polygon class="fil3" points="11819.26,4455.97 11842.85,4455.97 11842.85,4432.38 11819.26,4432.38 "/>
  <polygon class="fil3" points="11819.26,4455.97 11842.85,4455.97 11842.85,4432.38 11819.26,4432.38 "/>
  <polygon class="fil3" points="11819.26,4455.97 11842.85,4455.97 11842.85,4432.38 11819.26,4432.38 "/>
  <g>
  </g>
  <g style="clip-path:url(#id15)">
   <g>
   </g>
  </g>
  <polygon class="fil3" points="11797.83,4437.42 11823.66,4437.42 11823.66,4391.76 11797.83,4391.76 "/>
  <polygon class="fil3" points="11797.83,4437.42 11823.66,4437.42 11823.66,4391.76 11797.83,4391.76 "/>
  <polygon class="fil3" points="11797.83,4437.42 11823.66,4437.42 11823.66,4391.76 11797.83,4391.76 "/>
  <polygon class="fil3" points="11797.83,4437.42 11823.66,4437.42 11823.66,4391.76 11797.83,4391.76 "/>
  <g>
  </g>
  <g style="clip-path:url(#id16)">
   <g>
   </g>
  </g>
  <polygon class="fil3" points="11779.94,4396.99 11803.53,4396.99 11803.53,4373.39 11779.94,4373.39 "/>
  <polygon class="fil3" points="11779.94,4396.99 11803.53,4396.99 11803.53,4373.39 11779.94,4373.39 "/>
  <polygon class="fil3" points="11779.94,4396.99 11803.53,4396.99 11803.53,4373.39 11779.94,4373.39 "/>
  <polygon class="fil3" points="11779.94,4396.99 11803.53,4396.99 11803.53,4373.39 11779.94,4373.39 "/>
  <path class="fil4" d="M7860.52 4389.09l606.7 15.64 1691 4092.23 1638.15 -4076.4 9.25 -12.71 -2.82 -3.89 0.03 -0.06 626.39 -14.81c417.13,-9.93 758.51,353.39 758.51,785.22l0 4135.24 -6085.83 0 0 -4135.28c0,-431.95 341.62,-795.78 758.67,-785.18l-0.02 0 -0.01 0 -0.01 0 -0.01 0z"/>
  <ellipse class="fil2 str0" cx="10132.01" cy="7258.55" rx="52.41" ry="58.98"/>
  <rect class="fil5" x="11809.54" y="7238.85" width="996.04" height="131.08"/>
  <polygon class="fil0" points="12572.4,6917.29 12333.79,6662.22 11809.57,7238.86 12779.38,7238.86 "/>
  <polygon class="fil6" points="10118.92,4604.61 9090.32,4160.28 9188.4,5246.81 10062.19,4776.11 "/>
  <polygon class="fil6" points="10031.45,4578.94 11076.59,4213.27 11023.21,5273.01 9977.45,4729.25 "/>
  <rect class="fil7" x="9952.94" y="4455.95" width="294.97" height="409.02"/>
  <polygon class="fil0 str1" points="7576.39,5128.86 8493.83,3896.89 9579.32,7169.73 9260.47,6887.98 "/>
  <polygon class="fil0 str1" points="8205.47,6295.51 8965.64,5495.79 9981.79,8264.7 9636.93,7904.14 "/>
  <g>
  </g>
  <g style="clip-path:url(#id17)">
   <g>
   </g>
  </g>
  <polygon class="fil3" points="11399.85,4841.63 11511.91,4841.63 11511.91,4815.7 11399.85,4815.7 "/>
  <polygon class="fil3" points="11399.85,4841.63 11511.91,4841.63 11511.91,4815.7 11399.85,4815.7 "/>
  <polygon class="fil3" points="11399.85,4841.63 11511.91,4841.63 11511.91,4815.7 11399.85,4815.7 "/>
  <polygon class="fil3" points="11399.85,4841.63 11511.91,4841.63 11511.91,4815.7 11399.85,4815.7 "/>
  <g>
  </g>
  <g style="clip-path:url(#id18)">
   <g>
   </g>
  </g>
  <polygon class="fil3" points="11420.94,4821.92 11511.91,4821.92 11511.91,4776.27 11420.94,4776.27 "/>
  <polygon class="fil3" points="11420.94,4821.92 11511.91,4821.92 11511.91,4776.27 11420.94,4776.27 "/>
  <polygon class="fil3" points="11420.94,4821.92 11511.91,4821.92 11511.91,4776.27 11420.94,4776.27 "/>
  <polygon class="fil3" points="11420.94,4821.92 11511.91,4821.92 11511.91,4776.27 11420.94,4776.27 "/>
  <g>
  </g>
  <g style="clip-path:url(#id19)">
   <g>
   </g>
  </g>
  <polygon class="fil3" points="11442.03,4782.55 11511.91,4782.55 11511.91,4756.61 11442.03,4756.61 "/>
  <polygon class="fil3" points="11442.03,4782.55 11511.91,4782.55 11511.91,4756.61 11442.03,4756.61 "/>
  <polygon class="fil3" points="11442.03,4782.55 11511.91,4782.55 11511.91,4756.61 11442.03,4756.61 "/>
  <polygon class="fil3" points="11442.03,4782.55 11511.91,4782.55 11511.91,4756.61 11442.03,4756.61 "/>
  <ellipse class="fil2 str0" cx="10078.55" cy="5789.96" rx="56.32" ry="58.98"/>
  <path class="fil7" d="M9982.5 4455.94l259.97 0c15.73,0 28.47,9.42 28.47,21.03l0 214.2c0,11.61 -12.74,21.02 -28.47,21.02l-259.97 0c-15.72,0 -28.47,-9.41 -28.47,-21.02l0 -214.2c0,-11.61 12.75,-21.03 28.47,-21.03z"/>
  <polygon class="fil0 str1" points="12785.03,5064.24 11796.47,3949.34 10701.85,7207.72 11022.1,6900.84 "/>
  <polygon class="fil0 str1" points="12148.45,6409.97 11290.05,5513.96 10308.65,8287.16 10587.61,8042.5 "/>
  <polygon class="fil4" points="7289.35,4655.34 7615.71,6740.85 5996.73,7871.97 5181.53,7058.98 "/>
  <ellipse class="fil2 str0" cx="10078.55" cy="6530.96" rx="56.32" ry="58.98"/>
  <rect class="fil4" x="7101.86" y="9224.76" width="6082.59" height="1024.15"/>
  <polygon class="fil8" points="8097.78,7118.45 339.08,7118.45 339.08,11224.73 8097.78,11224.73 "/>
  <polygon class="fil9" points="7989.72,7010.39 231.02,7010.39 231.02,11116.66 7989.72,11116.66 "/>
  <path class="fil10" d="M3088.62 8342.31l-19.61 2.46 -7.77 -21.69 -36.07 4.53 -7.47 23.6 -19.25 2.42 34.91 -103.95 19.23 -2.41 36.03 95.04zm-33.28 -35.31l-12.5 -35.29 -12.14 38.38 24.64 -3.09zm28.95 -63.71l20.45 -2.57 20.93 48.92 17.91 -53.8 18.95 -2.38 -30.42 79.49c-3.3,8.62 -6.67,15.28 -10.11,20 -3.43,4.72 -7.85,7.4 -13.29,8.09 -5.36,0.67 -9.54,0.8 -12.56,0.42l0 -14.98c2.58,-0.13 4.9,-0.33 6.97,-0.59 4.19,-0.53 7.2,-1.76 9.02,-3.68 1.8,-1.95 3.56,-5.85 5.22,-11.69l-33.07 -67.23zm87.59 -11l18.21 -2.29 0 42.42c4.04,-0.97 6.79,-2.45 8.21,-4.51 1.42,-2.03 3.64,-7.48 6.61,-16.34 3.75,-11.24 7.54,-18.44 11.33,-21.53 3.76,-3.1 9.81,-5.18 18.19,-6.23 0.41,-0.05 1.29,-0.18 2.63,-0.4l0 14.88 -2.57 0.25c-3.73,0.47 -6.45,1.32 -8.16,2.56 -1.72,1.23 -3.1,2.96 -4.17,5.18 -1.07,2.22 -2.64,6.7 -4.71,13.45 -1.11,3.6 -2.3,6.62 -3.6,9.1 -1.28,2.48 -3.56,4.94 -6.82,7.39 4.04,0.75 7.36,2.9 10,6.42 2.64,3.51 5.53,8.58 8.67,15.2l12.24 25.72 -21.35 2.68 -10.78 -24.28c-0.16,-0.35 -0.52,-1 -1.04,-1.98 -0.21,-0.32 -0.97,-1.8 -2.26,-4.39 -2.31,-4.63 -4.19,-7.45 -5.66,-8.5 -1.48,-1.04 -3.72,-1.38 -6.76,-1.05l0 43.53 -18.21 2.28 0 -99.56zm76.65 -9.62l18.21 -2.29 0 82.74 35.04 -4.4 0 -82.74 18.21 -2.29 0 82.74 7.54 -0.94 0 38.51 -15.2 1.91 0 -21.69 -63.8 8.01 0 -99.56zm91.75 -11.52l16.95 -2.13 0 66.28 36.42 -70.85 18.09 -2.28 0 99.57 -16.96 2.13 0 -65.22 -36.42 69.79 -18.08 2.27 0 -99.56zm86.25 39.55c0,-10.15 1.39,-18.85 4.13,-26.1 2.03,-5.33 4.83,-10.25 8.37,-14.73 3.54,-4.47 7.41,-7.95 11.62,-10.45 5.61,-3.32 12.07,-5.46 19.4,-6.37 13.27,-1.67 23.86,1.56 31.84,9.67 7.95,8.13 11.93,20.31 11.93,36.56 0,16.11 -3.96,29.21 -11.85,39.29 -7.89,10.1 -18.46,15.97 -31.67,17.62 -13.37,1.68 -24.03,-1.5 -31.92,-9.57 -7.89,-8.05 -11.85,-20.02 -11.85,-35.92zm18.72 -3.02c0,11.29 2.36,19.54 7.07,24.79 4.71,5.23 10.7,7.4 17.94,6.49 7.26,-0.92 13.21,-4.56 17.88,-10.92 4.64,-6.37 6.97,-15.33 6.97,-26.9 0,-11.42 -2.27,-19.67 -6.81,-24.71 -4.52,-5.06 -10.53,-7.11 -18.04,-6.17 -7.49,0.94 -13.54,4.55 -18.13,10.81 -4.58,6.27 -6.88,15.14 -6.88,26.61zm82.74 39.46l0 -99.56 18.21 -2.29 0 39.22 35.41 -4.45 0 -39.22 18.21 -2.28 0 99.56 -18.21 2.29 0 -43.53 -35.41 4.45 0 43.53 -18.21 2.28zm183.11 -59.7l17.58 3.77c-2.7,11.31 -7.2,20 -13.48,26.12 -6.28,6.1 -14.24,9.76 -23.88,10.97 -11.96,1.51 -21.77,-1.78 -29.48,-9.85 -7.68,-8.08 -11.53,-19.95 -11.53,-35.64 0,-16.57 3.87,-29.94 11.6,-40.09 7.72,-10.15 17.89,-16.01 30.49,-17.59 11.01,-1.39 19.95,1.11 26.82,7.45 4.1,3.75 7.16,9.49 9.21,17.23l-17.96 6.98c-1.07,-5.01 -3.29,-8.81 -6.66,-11.38 -3.39,-2.56 -7.49,-3.53 -12.31,-2.93 -6.67,0.84 -12.09,4.16 -16.24,9.99 -4.16,5.81 -6.24,14.64 -6.24,26.51 0,12.56 2.05,21.27 6.14,26.09 4.1,4.84 9.42,6.84 15.97,6.02 4.83,-0.61 9,-2.83 12.47,-6.67 3.48,-3.84 5.99,-9.49 7.5,-16.98zm26.29 -15.77c0,-10.15 1.38,-18.85 4.12,-26.1 2.03,-5.33 4.83,-10.25 8.37,-14.73 3.54,-4.47 7.41,-7.95 11.62,-10.45 5.61,-3.32 12.08,-5.45 19.4,-6.38 13.27,-1.66 23.86,1.58 31.84,9.68 7.95,8.13 11.93,20.31 11.93,36.56 0,16.11 -3.96,29.21 -11.85,39.29 -7.89,10.1 -18.46,15.97 -31.67,17.62 -13.37,1.68 -24.03,-1.5 -31.92,-9.57 -7.89,-8.05 -11.84,-20.02 -11.84,-35.92zm18.71 -3.02c0,11.29 2.36,19.54 7.07,24.79 4.71,5.23 10.7,7.4 17.94,6.49 7.26,-0.92 13.21,-4.56 17.88,-10.92 4.64,-6.37 6.97,-15.33 6.97,-26.9 0,-11.42 -2.26,-19.67 -6.81,-24.71 -4.52,-5.06 -10.52,-7.11 -18.04,-6.17 -7.49,0.94 -13.54,4.55 -18.13,10.81 -4.58,6.27 -6.88,15.14 -6.88,26.61zm83.12 -60.15l67.19 -8.44 0 16.83 -48.98 6.15 0 23.08 24.26 -3.04c6.67,-0.84 12.24,-0.64 16.64,0.62 4.41,1.25 8.18,4.12 11.3,8.62 3.12,4.47 4.69,10 4.69,16.56 0,6.72 -1.57,12.69 -4.73,17.88 -3.14,5.17 -6.72,8.91 -10.76,11.18 -4.02,2.26 -9.76,3.87 -17.19,4.8l-42.42 5.33 0 -99.57zm18.21 80.45l17.64 -2.21c5.63,-0.71 9.61,-1.51 11.89,-2.4 2.28,-0.89 4.29,-2.51 5.99,-4.88 1.69,-2.34 2.53,-5.09 2.53,-8.22 0,-4.56 -1.49,-7.69 -4.44,-9.41 -2.97,-1.68 -8.02,-2.09 -15.17,-1.2l-18.44 2.32 0 26zm72.19 -91.8l18.21 -2.29 0 39.77 24.26 -3.04c6.36,-0.8 11.85,-0.52 16.43,0.83 4.58,1.35 8.41,4.3 11.49,8.87 3.06,4.58 4.58,10.09 4.58,16.53 0,6.75 -1.59,12.74 -4.77,18.03 -3.2,5.27 -6.74,8.93 -10.65,11 -3.89,2.09 -9.61,3.59 -17.12,4.54l-42.43 5.33 0 -99.57zm18.21 80.45l17.71 -2.22c5.63,-0.71 9.56,-1.5 11.8,-2.39 2.22,-0.88 4.21,-2.52 5.95,-4.89 1.73,-2.38 2.59,-5.1 2.59,-8.21 0,-4.4 -1.42,-7.54 -4.25,-9.38 -2.84,-1.85 -7.97,-2.29 -15.36,-1.37l-18.44 2.32 0 26.14zm67.19 -91.17l18.21 -2.29 0 99.57 -18.21 2.28 0 -99.56zm57.27 92.37l0 -82.74 -26.63 3.35 0 -16.83 71.34 -8.96 0 16.83 -26.5 3.33 0 82.74 -18.21 2.28zm56.74 -106.69l16.96 -2.13 0 66.29 36.42 -70.86 18.08 -2.27 0 99.56 -16.95 2.13 0 -65.21 -36.42 69.79 -18.09 2.27 0 -99.57zm90.28 -11.33l16.95 -2.13 0 66.28 36.42 -70.85 18.09 -2.28 0 99.57 -16.96 2.13 0 -65.22 -36.42 69.79 -18.08 2.27 0 -99.56zm46.47 -34.62l8.41 -1.06c-0.48,6.2 -2.45,11.29 -5.86,15.22 -3.41,3.93 -7.83,6.25 -13.25,6.93 -5.44,0.68 -9.86,-0.53 -13.27,-3.6 -3.41,-3.07 -5.38,-7.67 -5.86,-13.75l8.41 -1.05c0.3,3.16 1.3,5.47 3.06,6.89 1.76,1.42 4.31,1.92 7.66,1.5 3.33,-0.42 5.88,-1.55 7.64,-3.42 1.76,-1.87 2.76,-4.43 3.06,-7.66zm78.7 18.9l16.95 -2.13 0 66.29 36.42 -70.86 18.09 -2.27 0 99.56 -16.96 2.13 0 -65.22 -36.42 69.8 -18.08 2.27 0 -99.57zm125.17 -15.72l71.46 -8.97 0 99.57 -18.21 2.28 0 -82.73 -35.04 4.39 0 82.74 -18.21 2.29 0 -99.57zm90.02 88.27l0 -99.57 29.12 -3.65c11.03,-1.39 18.21,-1.8 21.56,-1.23 5.15,0.86 9.46,3.57 12.93,8.14 3.48,4.57 5.22,10.81 5.22,18.74 0,6.12 -1.01,11.37 -3,15.79 -2.01,4.42 -4.54,8.01 -7.62,10.78 -3.07,2.75 -6.21,4.72 -9.39,5.89 -4.34,1.49 -10.59,2.76 -18.8,3.79l-11.81 1.48 0 37.55 -18.21 2.29zm18.21 -85.03l0 28.37 9.91 -1.24c7.13,-0.9 11.88,-2.03 14.29,-3.38 2.41,-1.34 4.29,-3.2 5.65,-5.62 1.36,-2.39 2.05,-5.05 2.05,-8.02 0,-3.64 -0.96,-6.51 -2.86,-8.63 -1.93,-2.12 -4.34,-3.31 -7.29,-3.54 -2.15,-0.17 -6.49,0.14 -13.02,0.97l-8.73 1.09zm135.53 65.72l-19.61 2.47 -7.76 -21.7 -36.07 4.53 -7.47 23.61 -19.26 2.41 34.92 -103.94 19.23 -2.42 36.02 95.04zm-33.28 -35.31l-12.49 -35.28 -12.14 38.37 24.63 -3.09zm55.79 -39.96l-17.71 -2.37c3.81,-16.7 14.63,-26.17 32.46,-28.41 10.55,-1.32 18.53,0.25 23.91,4.72 5.38,4.47 8.05,10.18 8.05,17.13 0,4.75 -1.23,9.2 -3.68,13.35 -2.45,4.13 -6.13,7.96 -11.03,11.49 5.94,1.53 10.42,4.16 13.4,7.94 2.97,3.8 4.45,8.71 4.45,14.8 0,8.77 -2.88,16.2 -8.68,22.32 -5.78,6.13 -14.44,9.93 -25.98,11.38 -9.4,1.18 -16.83,0.37 -22.27,-2.42 -5.44,-2.79 -9.52,-8.79 -12.26,-18l16.57 -8.06c1.72,5.79 4.02,9.39 6.87,10.8 2.85,1.42 6.36,1.86 10.55,1.34 5.73,-0.72 9.92,-2.62 12.56,-5.7 2.61,-3.09 3.93,-6.41 3.93,-9.98 0,-4.08 -1.48,-7.2 -4.46,-9.33 -2.95,-2.14 -7.43,-2.83 -13.39,-2.08l-4.13 0.52 0 -15.02 2.08 -0.26c5.54,-0.69 9.79,-2.62 12.72,-5.74 2.95,-3.13 4.42,-7 4.42,-11.57 0,-3.64 -1.19,-6.55 -3.58,-8.75 -2.39,-2.18 -5.8,-3 -10.24,-2.45 -7.59,0.96 -12.45,5.74 -14.56,14.35zm73.15 -36.3l62.04 -7.79 0 82.74 7.91 -1 0 38.52 -15.19 1.91 0 -21.69 -56.39 7.08 0 21.69 -15.2 1.91 0 -38.52 7.66 -0.96c3.73,-8.97 6.2,-19.16 7.39,-30.53 1.19,-11.39 1.78,-25.67 1.78,-42.84l0 -10.52zm17.33 14.65c0,30.13 -2.51,52.41 -7.53,66.86l34.03 -4.28 0 -65.91 -26.5 3.33zm64.85 74.59l0 -99.56 18.21 -2.29 0 39.22 35.41 -4.45 0 -39.21 18.21 -2.29 0 99.57 -18.21 2.28 0 -43.52 -35.41 4.44 0 43.53 -18.21 2.28zm90.94 -110.98l16.96 -2.13 0 66.29 36.42 -70.86 18.08 -2.27 0 99.56 -16.95 2.13 0 -65.22 -36.42 69.8 -18.09 2.27 0 -99.57zm90.28 -11.33l18.21 -2.29 0 42.41c4.04,-0.97 6.78,-2.45 8.21,-4.5 1.42,-2.04 3.64,-7.48 6.61,-16.34 3.75,-11.25 7.54,-18.44 11.32,-21.54 3.77,-3.09 9.82,-5.17 18.19,-6.22 0.42,-0.06 1.3,-0.19 2.64,-0.4l0 14.88 -2.57 0.25c-3.73,0.47 -6.45,1.32 -8.17,2.55 -1.71,1.24 -3.09,2.97 -4.16,5.19 -1.07,2.22 -2.64,6.7 -4.71,13.45 -1.11,3.59 -2.3,6.62 -3.6,9.1 -1.28,2.47 -3.56,4.94 -6.83,7.39 4.04,0.74 7.37,2.9 10.01,6.41 2.64,3.52 5.53,8.58 8.67,15.21l12.24 25.72 -21.35 2.68 -10.78 -24.28c-0.17,-0.35 -0.52,-1 -1.05,-1.98 -0.21,-0.32 -0.96,-1.8 -2.26,-4.4 -2.3,-4.62 -4.18,-7.44 -5.65,-8.49 -1.48,-1.04 -3.72,-1.39 -6.76,-1.05l0 43.52 -18.21 2.29 0 -99.56zm157.41 79.8l-19.62 2.46 -7.76 -21.69 -36.07 4.53 -7.47 23.6 -19.26 2.42 34.92 -103.95 19.23 -2.41 36.03 95.04zm-33.29 -35.32l-12.49 -35.28 -12.14 38.38 24.63 -3.1z"/>
  <path class="fil10" d="M3088.62 8342.31l-19.61 2.46 -7.77 -21.69 -36.07 4.53 -7.47 23.6 -19.25 2.42 34.91 -103.95 19.23 -2.41 36.03 95.04zm-33.28 -35.31l-12.5 -35.29 -12.14 38.38 24.64 -3.09zm28.95 -63.71l20.45 -2.57 20.93 48.92 17.91 -53.8 18.95 -2.38 -30.42 79.49c-3.3,8.62 -6.67,15.28 -10.11,20 -3.43,4.72 -7.85,7.4 -13.29,8.09 -5.36,0.67 -9.54,0.8 -12.56,0.42l0 -14.98c2.58,-0.13 4.9,-0.33 6.97,-0.59 4.19,-0.53 7.2,-1.76 9.02,-3.68 1.8,-1.95 3.56,-5.85 5.22,-11.69l-33.07 -67.23zm87.59 -11l18.21 -2.29 0 42.42c4.04,-0.97 6.79,-2.45 8.21,-4.51 1.42,-2.03 3.64,-7.48 6.61,-16.34 3.75,-11.24 7.54,-18.44 11.33,-21.53 3.76,-3.1 9.81,-5.18 18.19,-6.23 0.41,-0.05 1.29,-0.18 2.63,-0.4l0 14.88 -2.57 0.25c-3.73,0.47 -6.45,1.32 -8.16,2.56 -1.72,1.23 -3.1,2.96 -4.17,5.18 -1.07,2.22 -2.64,6.7 -4.71,13.45 -1.11,3.6 -2.3,6.62 -3.6,9.1 -1.28,2.48 -3.56,4.94 -6.82,7.39 4.04,0.75 7.36,2.9 10,6.42 2.64,3.51 5.53,8.58 8.67,15.2l12.24 25.72 -21.35 2.68 -10.78 -24.28c-0.16,-0.35 -0.52,-1 -1.04,-1.98 -0.21,-0.32 -0.97,-1.8 -2.26,-4.39 -2.31,-4.63 -4.19,-7.45 -5.66,-8.5 -1.48,-1.04 -3.72,-1.38 -6.76,-1.05l0 43.53 -18.21 2.28 0 -99.56zm76.65 -9.62l18.21 -2.29 0 82.74 35.04 -4.4 0 -82.74 18.21 -2.29 0 82.74 7.54 -0.94 0 38.51 -15.2 1.91 0 -21.69 -63.8 8.01 0 -99.56zm91.75 -11.52l16.95 -2.13 0 66.28 36.42 -70.85 18.09 -2.28 0 99.57 -16.96 2.13 0 -65.22 -36.42 69.79 -18.08 2.27 0 -99.56zm86.25 39.55c0,-10.15 1.39,-18.85 4.13,-26.1 2.03,-5.33 4.83,-10.25 8.37,-14.73 3.54,-4.47 7.41,-7.95 11.62,-10.45 5.61,-3.32 12.07,-5.46 19.4,-6.37 13.27,-1.67 23.86,1.56 31.84,9.67 7.95,8.13 11.93,20.31 11.93,36.56 0,16.11 -3.96,29.21 -11.85,39.29 -7.89,10.1 -18.46,15.97 -31.67,17.62 -13.37,1.68 -24.03,-1.5 -31.92,-9.57 -7.89,-8.05 -11.85,-20.02 -11.85,-35.92zm18.72 -3.02c0,11.29 2.36,19.54 7.07,24.79 4.71,5.23 10.7,7.4 17.94,6.49 7.26,-0.92 13.21,-4.56 17.88,-10.92 4.64,-6.37 6.97,-15.33 6.97,-26.9 0,-11.42 -2.27,-19.67 -6.81,-24.71 -4.52,-5.06 -10.53,-7.11 -18.04,-6.17 -7.49,0.94 -13.54,4.55 -18.13,10.81 -4.58,6.27 -6.88,15.14 -6.88,26.61zm82.74 39.46l0 -99.56 18.21 -2.29 0 39.22 35.41 -4.45 0 -39.22 18.21 -2.28 0 99.56 -18.21 2.29 0 -43.53 -35.41 4.45 0 43.53 -18.21 2.28zm183.11 -59.7l17.58 3.77c-2.7,11.31 -7.2,20 -13.48,26.12 -6.28,6.1 -14.24,9.76 -23.88,10.97 -11.96,1.51 -21.77,-1.78 -29.48,-9.85 -7.68,-8.08 -11.53,-19.95 -11.53,-35.64 0,-16.57 3.87,-29.94 11.6,-40.09 7.72,-10.15 17.89,-16.01 30.49,-17.59 11.01,-1.39 19.95,1.11 26.82,7.45 4.1,3.75 7.16,9.49 9.21,17.23l-17.96 6.98c-1.07,-5.01 -3.29,-8.81 -6.66,-11.38 -3.39,-2.56 -7.49,-3.53 -12.31,-2.93 -6.67,0.84 -12.09,4.16 -16.24,9.99 -4.16,5.81 -6.24,14.64 -6.24,26.51 0,12.56 2.05,21.27 6.14,26.09 4.1,4.84 9.42,6.84 15.97,6.02 4.83,-0.61 9,-2.83 12.47,-6.67 3.48,-3.84 5.99,-9.49 7.5,-16.98zm26.29 -15.77c0,-10.15 1.38,-18.85 4.12,-26.1 2.03,-5.33 4.83,-10.25 8.37,-14.73 3.54,-4.47 7.41,-7.95 11.62,-10.45 5.61,-3.32 12.08,-5.45 19.4,-6.38 13.27,-1.66 23.86,1.58 31.84,9.68 7.95,8.13 11.93,20.31 11.93,36.56 0,16.11 -3.96,29.21 -11.85,39.29 -7.89,10.1 -18.46,15.97 -31.67,17.62 -13.37,1.68 -24.03,-1.5 -31.92,-9.57 -7.89,-8.05 -11.84,-20.02 -11.84,-35.92zm18.71 -3.02c0,11.29 2.36,19.54 7.07,24.79 4.71,5.23 10.7,7.4 17.94,6.49 7.26,-0.92 13.21,-4.56 17.88,-10.92 4.64,-6.37 6.97,-15.33 6.97,-26.9 0,-11.42 -2.26,-19.67 -6.81,-24.71 -4.52,-5.06 -10.52,-7.11 -18.04,-6.17 -7.49,0.94 -13.54,4.55 -18.13,10.81 -4.58,6.27 -6.88,15.14 -6.88,26.61zm83.12 -60.15l67.19 -8.44 0 16.83 -48.98 6.15 0 23.08 24.26 -3.04c6.67,-0.84 12.24,-0.64 16.64,0.62 4.41,1.25 8.18,4.12 11.3,8.62 3.12,4.47 4.69,10 4.69,16.56 0,6.72 -1.57,12.69 -4.73,17.88 -3.14,5.17 -6.72,8.91 -10.76,11.18 -4.02,2.26 -9.76,3.87 -17.19,4.8l-42.42 5.33 0 -99.57zm18.21 80.45l17.64 -2.21c5.63,-0.71 9.61,-1.51 11.89,-2.4 2.28,-0.89 4.29,-2.51 5.99,-4.88 1.69,-2.34 2.53,-5.09 2.53,-8.22 0,-4.56 -1.49,-7.69 -4.44,-9.41 -2.97,-1.68 -8.02,-2.09 -15.17,-1.2l-18.44 2.32 0 26zm72.19 -91.8l18.21 -2.29 0 39.77 24.26 -3.04c6.36,-0.8 11.85,-0.52 16.43,0.83 4.58,1.35 8.41,4.3 11.49,8.87 3.06,4.58 4.58,10.09 4.58,16.53 0,6.75 -1.59,12.74 -4.77,18.03 -3.2,5.27 -6.74,8.93 -10.65,11 -3.89,2.09 -9.61,3.59 -17.12,4.54l-42.43 5.33 0 -99.57zm18.21 80.45l17.71 -2.22c5.63,-0.71 9.56,-1.5 11.8,-2.39 2.22,-0.88 4.21,-2.52 5.95,-4.89 1.73,-2.38 2.59,-5.1 2.59,-8.21 0,-4.4 -1.42,-7.54 -4.25,-9.38 -2.84,-1.85 -7.97,-2.29 -15.36,-1.37l-18.44 2.32 0 26.14zm67.19 -91.17l18.21 -2.29 0 99.57 -18.21 2.28 0 -99.56zm57.27 92.37l0 -82.74 -26.63 3.35 0 -16.83 71.34 -8.96 0 16.83 -26.5 3.33 0 82.74 -18.21 2.28zm56.74 -106.69l16.96 -2.13 0 66.29 36.42 -70.86 18.08 -2.27 0 99.56 -16.95 2.13 0 -65.21 -36.42 69.79 -18.09 2.27 0 -99.57zm90.28 -11.33l16.95 -2.13 0 66.28 36.42 -70.85 18.09 -2.28 0 99.57 -16.96 2.13 0 -65.22 -36.42 69.79 -18.08 2.27 0 -99.56zm46.47 -34.62l8.41 -1.06c-0.48,6.2 -2.45,11.29 -5.86,15.22 -3.41,3.93 -7.83,6.25 -13.25,6.93 -5.44,0.68 -9.86,-0.53 -13.27,-3.6 -3.41,-3.07 -5.38,-7.67 -5.86,-13.75l8.41 -1.05c0.3,3.16 1.3,5.47 3.06,6.89 1.76,1.42 4.31,1.92 7.66,1.5 3.33,-0.42 5.88,-1.55 7.64,-3.42 1.76,-1.87 2.76,-4.43 3.06,-7.66zm78.7 18.9l16.95 -2.13 0 66.29 36.42 -70.86 18.09 -2.27 0 99.56 -16.96 2.13 0 -65.22 -36.42 69.8 -18.08 2.27 0 -99.57zm125.17 -15.72l71.46 -8.97 0 99.57 -18.21 2.28 0 -82.73 -35.04 4.39 0 82.74 -18.21 2.29 0 -99.57zm90.02 88.27l0 -99.57 29.12 -3.65c11.03,-1.39 18.21,-1.8 21.56,-1.23 5.15,0.86 9.46,3.57 12.93,8.14 3.48,4.57 5.22,10.81 5.22,18.74 0,6.12 -1.01,11.37 -3,15.79 -2.01,4.42 -4.54,8.01 -7.62,10.78 -3.07,2.75 -6.21,4.72 -9.39,5.89 -4.34,1.49 -10.59,2.76 -18.8,3.79l-11.81 1.48 0 37.55 -18.21 2.29zm18.21 -85.03l0 28.37 9.91 -1.24c7.13,-0.9 11.88,-2.03 14.29,-3.38 2.41,-1.34 4.29,-3.2 5.65,-5.62 1.36,-2.39 2.05,-5.05 2.05,-8.02 0,-3.64 -0.96,-6.51 -2.86,-8.63 -1.93,-2.12 -4.34,-3.31 -7.29,-3.54 -2.15,-0.17 -6.49,0.14 -13.02,0.97l-8.73 1.09zm135.53 65.72l-19.61 2.47 -7.76 -21.7 -36.07 4.53 -7.47 23.61 -19.26 2.41 34.92 -103.94 19.23 -2.42 36.02 95.04zm-33.28 -35.31l-12.49 -35.28 -12.14 38.37 24.63 -3.09zm55.79 -39.96l-17.71 -2.37c3.81,-16.7 14.63,-26.17 32.46,-28.41 10.55,-1.32 18.53,0.25 23.91,4.72 5.38,4.47 8.05,10.18 8.05,17.13 0,4.75 -1.23,9.2 -3.68,13.35 -2.45,4.13 -6.13,7.96 -11.03,11.49 5.94,1.53 10.42,4.16 13.4,7.94 2.97,3.8 4.45,8.71 4.45,14.8 0,8.77 -2.88,16.2 -8.68,22.32 -5.78,6.13 -14.44,9.93 -25.98,11.38 -9.4,1.18 -16.83,0.37 -22.27,-2.42 -5.44,-2.79 -9.52,-8.79 -12.26,-18l16.57 -8.06c1.72,5.79 4.02,9.39 6.87,10.8 2.85,1.42 6.36,1.86 10.55,1.34 5.73,-0.72 9.92,-2.62 12.56,-5.7 2.61,-3.09 3.93,-6.41 3.93,-9.98 0,-4.08 -1.48,-7.2 -4.46,-9.33 -2.95,-2.14 -7.43,-2.83 -13.39,-2.08l-4.13 0.52 0 -15.02 2.08 -0.26c5.54,-0.69 9.79,-2.62 12.72,-5.74 2.95,-3.13 4.42,-7 4.42,-11.57 0,-3.64 -1.19,-6.55 -3.58,-8.75 -2.39,-2.18 -5.8,-3 -10.24,-2.45 -7.59,0.96 -12.45,5.74 -14.56,14.35zm73.15 -36.3l62.04 -7.79 0 82.74 7.91 -1 0 38.52 -15.19 1.91 0 -21.69 -56.39 7.08 0 21.69 -15.2 1.91 0 -38.52 7.66 -0.96c3.73,-8.97 6.2,-19.16 7.39,-30.53 1.19,-11.39 1.78,-25.67 1.78,-42.84l0 -10.52zm17.33 14.65c0,30.13 -2.51,52.41 -7.53,66.86l34.03 -4.28 0 -65.91 -26.5 3.33zm64.85 74.59l0 -99.56 18.21 -2.29 0 39.22 35.41 -4.45 0 -39.21 18.21 -2.29 0 99.57 -18.21 2.28 0 -43.52 -35.41 4.44 0 43.53 -18.21 2.28zm90.94 -110.98l16.96 -2.13 0 66.29 36.42 -70.86 18.08 -2.27 0 99.56 -16.95 2.13 0 -65.22 -36.42 69.8 -18.09 2.27 0 -99.57zm90.28 -11.33l18.21 -2.29 0 42.41c4.04,-0.97 6.78,-2.45 8.21,-4.5 1.42,-2.04 3.64,-7.48 6.61,-16.34 3.75,-11.25 7.54,-18.44 11.32,-21.54 3.77,-3.09 9.82,-5.17 18.19,-6.22 0.42,-0.06 1.3,-0.19 2.64,-0.4l0 14.88 -2.57 0.25c-3.73,0.47 -6.45,1.32 -8.17,2.55 -1.71,1.24 -3.09,2.97 -4.16,5.19 -1.07,2.22 -2.64,6.7 -4.71,13.45 -1.11,3.59 -2.3,6.62 -3.6,9.1 -1.28,2.47 -3.56,4.94 -6.83,7.39 4.04,0.74 7.37,2.9 10.01,6.41 2.64,3.52 5.53,8.58 8.67,15.21l12.24 25.72 -21.35 2.68 -10.78 -24.28c-0.17,-0.35 -0.52,-1 -1.05,-1.98 -0.21,-0.32 -0.96,-1.8 -2.26,-4.4 -2.3,-4.62 -4.18,-7.44 -5.65,-8.49 -1.48,-1.04 -3.72,-1.39 -6.76,-1.05l0 43.52 -18.21 2.29 0 -99.56zm157.41 79.8l-19.62 2.46 -7.76 -21.69 -36.07 4.53 -7.47 23.6 -19.26 2.42 34.92 -103.95 19.23 -2.41 36.03 95.04zm-33.29 -35.32l-12.49 -35.28 -12.14 38.38 24.63 -3.1z"/>
  <path class="fil10" d="M3088.62 8342.31l-19.61 2.46 -7.77 -21.69 -36.07 4.53 -7.47 23.6 -19.25 2.42 34.91 -103.95 19.23 -2.41 36.03 95.04zm-33.28 -35.31l-12.5 -35.29 -12.14 38.38 24.64 -3.09zm28.95 -63.71l20.45 -2.57 20.93 48.92 17.91 -53.8 18.95 -2.38 -30.42 79.49c-3.3,8.62 -6.67,15.28 -10.11,20 -3.43,4.72 -7.85,7.4 -13.29,8.09 -5.36,0.67 -9.54,0.8 -12.56,0.42l0 -14.98c2.58,-0.13 4.9,-0.33 6.97,-0.59 4.19,-0.53 7.2,-1.76 9.02,-3.68 1.8,-1.95 3.56,-5.85 5.22,-11.69l-33.07 -67.23zm87.59 -11l18.21 -2.29 0 42.42c4.04,-0.97 6.79,-2.45 8.21,-4.51 1.42,-2.03 3.64,-7.48 6.61,-16.34 3.75,-11.24 7.54,-18.44 11.33,-21.53 3.76,-3.1 9.81,-5.18 18.19,-6.23 0.41,-0.05 1.29,-0.18 2.63,-0.4l0 14.88 -2.57 0.25c-3.73,0.47 -6.45,1.32 -8.16,2.56 -1.72,1.23 -3.1,2.96 -4.17,5.18 -1.07,2.22 -2.64,6.7 -4.71,13.45 -1.11,3.6 -2.3,6.62 -3.6,9.1 -1.28,2.48 -3.56,4.94 -6.82,7.39 4.04,0.75 7.36,2.9 10,6.42 2.64,3.51 5.53,8.58 8.67,15.2l12.24 25.72 -21.35 2.68 -10.78 -24.28c-0.16,-0.35 -0.52,-1 -1.04,-1.98 -0.21,-0.32 -0.97,-1.8 -2.26,-4.39 -2.31,-4.63 -4.19,-7.45 -5.66,-8.5 -1.48,-1.04 -3.72,-1.38 -6.76,-1.05l0 43.53 -18.21 2.28 0 -99.56zm76.65 -9.62l18.21 -2.29 0 82.74 35.04 -4.4 0 -82.74 18.21 -2.29 0 82.74 7.54 -0.94 0 38.51 -15.2 1.91 0 -21.69 -63.8 8.01 0 -99.56zm91.75 -11.52l16.95 -2.13 0 66.28 36.42 -70.85 18.09 -2.28 0 99.57 -16.96 2.13 0 -65.22 -36.42 69.79 -18.08 2.27 0 -99.56zm86.25 39.55c0,-10.15 1.39,-18.85 4.13,-26.1 2.03,-5.33 4.83,-10.25 8.37,-14.73 3.54,-4.47 7.41,-7.95 11.62,-10.45 5.61,-3.32 12.07,-5.46 19.4,-6.37 13.27,-1.67 23.86,1.56 31.84,9.67 7.95,8.13 11.93,20.31 11.93,36.56 0,16.11 -3.96,29.21 -11.85,39.29 -7.89,10.1 -18.46,15.97 -31.67,17.62 -13.37,1.68 -24.03,-1.5 -31.92,-9.57 -7.89,-8.05 -11.85,-20.02 -11.85,-35.92zm18.72 -3.02c0,11.29 2.36,19.54 7.07,24.79 4.71,5.23 10.7,7.4 17.94,6.49 7.26,-0.92 13.21,-4.56 17.88,-10.92 4.64,-6.37 6.97,-15.33 6.97,-26.9 0,-11.42 -2.27,-19.67 -6.81,-24.71 -4.52,-5.06 -10.53,-7.11 -18.04,-6.17 -7.49,0.94 -13.54,4.55 -18.13,10.81 -4.58,6.27 -6.88,15.14 -6.88,26.61zm82.74 39.46l0 -99.56 18.21 -2.29 0 39.22 35.41 -4.45 0 -39.22 18.21 -2.28 0 99.56 -18.21 2.29 0 -43.53 -35.41 4.45 0 43.53 -18.21 2.28zm183.11 -59.7l17.58 3.77c-2.7,11.31 -7.2,20 -13.48,26.12 -6.28,6.1 -14.24,9.76 -23.88,10.97 -11.96,1.51 -21.77,-1.78 -29.48,-9.85 -7.68,-8.08 -11.53,-19.95 -11.53,-35.64 0,-16.57 3.87,-29.94 11.6,-40.09 7.72,-10.15 17.89,-16.01 30.49,-17.59 11.01,-1.39 19.95,1.11 26.82,7.45 4.1,3.75 7.16,9.49 9.21,17.23l-17.96 6.98c-1.07,-5.01 -3.29,-8.81 -6.66,-11.38 -3.39,-2.56 -7.49,-3.53 -12.31,-2.93 -6.67,0.84 -12.09,4.16 -16.24,9.99 -4.16,5.81 -6.24,14.64 -6.24,26.51 0,12.56 2.05,21.27 6.14,26.09 4.1,4.84 9.42,6.84 15.97,6.02 4.83,-0.61 9,-2.83 12.47,-6.67 3.48,-3.84 5.99,-9.49 7.5,-16.98zm26.29 -15.77c0,-10.15 1.38,-18.85 4.12,-26.1 2.03,-5.33 4.83,-10.25 8.37,-14.73 3.54,-4.47 7.41,-7.95 11.62,-10.45 5.61,-3.32 12.08,-5.45 19.4,-6.38 13.27,-1.66 23.86,1.58 31.84,9.68 7.95,8.13 11.93,20.31 11.93,36.56 0,16.11 -3.96,29.21 -11.85,39.29 -7.89,10.1 -18.46,15.97 -31.67,17.62 -13.37,1.68 -24.03,-1.5 -31.92,-9.57 -7.89,-8.05 -11.84,-20.02 -11.84,-35.92zm18.71 -3.02c0,11.29 2.36,19.54 7.07,24.79 4.71,5.23 10.7,7.4 17.94,6.49 7.26,-0.92 13.21,-4.56 17.88,-10.92 4.64,-6.37 6.97,-15.33 6.97,-26.9 0,-11.42 -2.26,-19.67 -6.81,-24.71 -4.52,-5.06 -10.52,-7.11 -18.04,-6.17 -7.49,0.94 -13.54,4.55 -18.13,10.81 -4.58,6.27 -6.88,15.14 -6.88,26.61zm83.12 -60.15l67.19 -8.44 0 16.83 -48.98 6.15 0 23.08 24.26 -3.04c6.67,-0.84 12.24,-0.64 16.64,0.62 4.41,1.25 8.18,4.12 11.3,8.62 3.12,4.47 4.69,10 4.69,16.56 0,6.72 -1.57,12.69 -4.73,17.88 -3.14,5.17 -6.72,8.91 -10.76,11.18 -4.02,2.26 -9.76,3.87 -17.19,4.8l-42.42 5.33 0 -99.57zm18.21 80.45l17.64 -2.21c5.63,-0.71 9.61,-1.51 11.89,-2.4 2.28,-0.89 4.29,-2.51 5.99,-4.88 1.69,-2.34 2.53,-5.09 2.53,-8.22 0,-4.56 -1.49,-7.69 -4.44,-9.41 -2.97,-1.68 -8.02,-2.09 -15.17,-1.2l-18.44 2.32 0 26zm72.19 -91.8l18.21 -2.29 0 39.77 24.26 -3.04c6.36,-0.8 11.85,-0.52 16.43,0.83 4.58,1.35 8.41,4.3 11.49,8.87 3.06,4.58 4.58,10.09 4.58,16.53 0,6.75 -1.59,12.74 -4.77,18.03 -3.2,5.27 -6.74,8.93 -10.65,11 -3.89,2.09 -9.61,3.59 -17.12,4.54l-42.43 5.33 0 -99.57zm18.21 80.45l17.71 -2.22c5.63,-0.71 9.56,-1.5 11.8,-2.39 2.22,-0.88 4.21,-2.52 5.95,-4.89 1.73,-2.38 2.59,-5.1 2.59,-8.21 0,-4.4 -1.42,-7.54 -4.25,-9.38 -2.84,-1.85 -7.97,-2.29 -15.36,-1.37l-18.44 2.32 0 26.14zm67.19 -91.17l18.21 -2.29 0 99.57 -18.21 2.28 0 -99.56zm57.27 92.37l0 -82.74 -26.63 3.35 0 -16.83 71.34 -8.96 0 16.83 -26.5 3.33 0 82.74 -18.21 2.28zm56.74 -106.69l16.96 -2.13 0 66.29 36.42 -70.86 18.08 -2.27 0 99.56 -16.95 2.13 0 -65.21 -36.42 69.79 -18.09 2.27 0 -99.57zm90.28 -11.33l16.95 -2.13 0 66.28 36.42 -70.85 18.09 -2.28 0 99.57 -16.96 2.13 0 -65.22 -36.42 69.79 -18.08 2.27 0 -99.56zm46.47 -34.62l8.41 -1.06c-0.48,6.2 -2.45,11.29 -5.86,15.22 -3.41,3.93 -7.83,6.25 -13.25,6.93 -5.44,0.68 -9.86,-0.53 -13.27,-3.6 -3.41,-3.07 -5.38,-7.67 -5.86,-13.75l8.41 -1.05c0.3,3.16 1.3,5.47 3.06,6.89 1.76,1.42 4.31,1.92 7.66,1.5 3.33,-0.42 5.88,-1.55 7.64,-3.42 1.76,-1.87 2.76,-4.43 3.06,-7.66zm78.7 18.9l16.95 -2.13 0 66.29 36.42 -70.86 18.09 -2.27 0 99.56 -16.96 2.13 0 -65.22 -36.42 69.8 -18.08 2.27 0 -99.57zm125.17 -15.72l71.46 -8.97 0 99.57 -18.21 2.28 0 -82.73 -35.04 4.39 0 82.74 -18.21 2.29 0 -99.57zm90.02 88.27l0 -99.57 29.12 -3.65c11.03,-1.39 18.21,-1.8 21.56,-1.23 5.15,0.86 9.46,3.57 12.93,8.14 3.48,4.57 5.22,10.81 5.22,18.74 0,6.12 -1.01,11.37 -3,15.79 -2.01,4.42 -4.54,8.01 -7.62,10.78 -3.07,2.75 -6.21,4.72 -9.39,5.89 -4.34,1.49 -10.59,2.76 -18.8,3.79l-11.81 1.48 0 37.55 -18.21 2.29zm18.21 -85.03l0 28.37 9.91 -1.24c7.13,-0.9 11.88,-2.03 14.29,-3.38 2.41,-1.34 4.29,-3.2 5.65,-5.62 1.36,-2.39 2.05,-5.05 2.05,-8.02 0,-3.64 -0.96,-6.51 -2.86,-8.63 -1.93,-2.12 -4.34,-3.31 -7.29,-3.54 -2.15,-0.17 -6.49,0.14 -13.02,0.97l-8.73 1.09zm135.53 65.72l-19.61 2.47 -7.76 -21.7 -36.07 4.53 -7.47 23.61 -19.26 2.41 34.92 -103.94 19.23 -2.42 36.02 95.04zm-33.28 -35.31l-12.49 -35.28 -12.14 38.37 24.63 -3.09zm55.79 -39.96l-17.71 -2.37c3.81,-16.7 14.63,-26.17 32.46,-28.41 10.55,-1.32 18.53,0.25 23.91,4.72 5.38,4.47 8.05,10.18 8.05,17.13 0,4.75 -1.23,9.2 -3.68,13.35 -2.45,4.13 -6.13,7.96 -11.03,11.49 5.94,1.53 10.42,4.16 13.4,7.94 2.97,3.8 4.45,8.71 4.45,14.8 0,8.77 -2.88,16.2 -8.68,22.32 -5.78,6.13 -14.44,9.93 -25.98,11.38 -9.4,1.18 -16.83,0.37 -22.27,-2.42 -5.44,-2.79 -9.52,-8.79 -12.26,-18l16.57 -8.06c1.72,5.79 4.02,9.39 6.87,10.8 2.85,1.42 6.36,1.86 10.55,1.34 5.73,-0.72 9.92,-2.62 12.56,-5.7 2.61,-3.09 3.93,-6.41 3.93,-9.98 0,-4.08 -1.48,-7.2 -4.46,-9.33 -2.95,-2.14 -7.43,-2.83 -13.39,-2.08l-4.13 0.52 0 -15.02 2.08 -0.26c5.54,-0.69 9.79,-2.62 12.72,-5.74 2.95,-3.13 4.42,-7 4.42,-11.57 0,-3.64 -1.19,-6.55 -3.58,-8.75 -2.39,-2.18 -5.8,-3 -10.24,-2.45 -7.59,0.96 -12.45,5.74 -14.56,14.35zm73.15 -36.3l62.04 -7.79 0 82.74 7.91 -1 0 38.52 -15.19 1.91 0 -21.69 -56.39 7.08 0 21.69 -15.2 1.91 0 -38.52 7.66 -0.96c3.73,-8.97 6.2,-19.16 7.39,-30.53 1.19,-11.39 1.78,-25.67 1.78,-42.84l0 -10.52zm17.33 14.65c0,30.13 -2.51,52.41 -7.53,66.86l34.03 -4.28 0 -65.91 -26.5 3.33zm64.85 74.59l0 -99.56 18.21 -2.29 0 39.22 35.41 -4.45 0 -39.21 18.21 -2.29 0 99.57 -18.21 2.28 0 -43.52 -35.41 4.44 0 43.53 -18.21 2.28zm90.94 -110.98l16.96 -2.13 0 66.29 36.42 -70.86 18.08 -2.27 0 99.56 -16.95 2.13 0 -65.22 -36.42 69.8 -18.09 2.27 0 -99.57zm90.28 -11.33l18.21 -2.29 0 42.41c4.04,-0.97 6.78,-2.45 8.21,-4.5 1.42,-2.04 3.64,-7.48 6.61,-16.34 3.75,-11.25 7.54,-18.44 11.32,-21.54 3.77,-3.09 9.82,-5.17 18.19,-6.22 0.42,-0.06 1.3,-0.19 2.64,-0.4l0 14.88 -2.57 0.25c-3.73,0.47 -6.45,1.32 -8.17,2.55 -1.71,1.24 -3.09,2.97 -4.16,5.19 -1.07,2.22 -2.64,6.7 -4.71,13.45 -1.11,3.59 -2.3,6.62 -3.6,9.1 -1.28,2.47 -3.56,4.94 -6.83,7.39 4.04,0.74 7.37,2.9 10.01,6.41 2.64,3.52 5.53,8.58 8.67,15.21l12.24 25.72 -21.35 2.68 -10.78 -24.28c-0.17,-0.35 -0.52,-1 -1.05,-1.98 -0.21,-0.32 -0.96,-1.8 -2.26,-4.4 -2.3,-4.62 -4.18,-7.44 -5.65,-8.49 -1.48,-1.04 -3.72,-1.39 -6.76,-1.05l0 43.52 -18.21 2.29 0 -99.56zm157.41 79.8l-19.62 2.46 -7.76 -21.69 -36.07 4.53 -7.47 23.6 -19.26 2.42 34.92 -103.95 19.23 -2.41 36.03 95.04zm-33.29 -35.32l-12.49 -35.28 -12.14 38.38 24.63 -3.1z"/>
  <path class="fil10" d="M3088.62 8342.31l-19.61 2.46 -7.77 -21.69 -36.07 4.53 -7.47 23.6 -19.25 2.42 34.91 -103.95 19.23 -2.41 36.03 95.04zm-33.28 -35.31l-12.5 -35.29 -12.14 38.38 24.64 -3.09zm28.95 -63.71l20.45 -2.57 20.93 48.92 17.91 -53.8 18.95 -2.38 -30.42 79.49c-3.3,8.62 -6.67,15.28 -10.11,20 -3.43,4.72 -7.85,7.4 -13.29,8.09 -5.36,0.67 -9.54,0.8 -12.56,0.42l0 -14.98c2.58,-0.13 4.9,-0.33 6.97,-0.59 4.19,-0.53 7.2,-1.76 9.02,-3.68 1.8,-1.95 3.56,-5.85 5.22,-11.69l-33.07 -67.23zm87.59 -11l18.21 -2.29 0 42.42c4.04,-0.97 6.79,-2.45 8.21,-4.51 1.42,-2.03 3.64,-7.48 6.61,-16.34 3.75,-11.24 7.54,-18.44 11.33,-21.53 3.76,-3.1 9.81,-5.18 18.19,-6.23 0.41,-0.05 1.29,-0.18 2.63,-0.4l0 14.88 -2.57 0.25c-3.73,0.47 -6.45,1.32 -8.16,2.56 -1.72,1.23 -3.1,2.96 -4.17,5.18 -1.07,2.22 -2.64,6.7 -4.71,13.45 -1.11,3.6 -2.3,6.62 -3.6,9.1 -1.28,2.48 -3.56,4.94 -6.82,7.39 4.04,0.75 7.36,2.9 10,6.42 2.64,3.51 5.53,8.58 8.67,15.2l12.24 25.72 -21.35 2.68 -10.78 -24.28c-0.16,-0.35 -0.52,-1 -1.04,-1.98 -0.21,-0.32 -0.97,-1.8 -2.26,-4.39 -2.31,-4.63 -4.19,-7.45 -5.66,-8.5 -1.48,-1.04 -3.72,-1.38 -6.76,-1.05l0 43.53 -18.21 2.28 0 -99.56zm76.65 -9.62l18.21 -2.29 0 82.74 35.04 -4.4 0 -82.74 18.21 -2.29 0 82.74 7.54 -0.94 0 38.51 -15.2 1.91 0 -21.69 -63.8 8.01 0 -99.56zm91.75 -11.52l16.95 -2.13 0 66.28 36.42 -70.85 18.09 -2.28 0 99.57 -16.96 2.13 0 -65.22 -36.42 69.79 -18.08 2.27 0 -99.56zm86.25 39.55c0,-10.15 1.39,-18.85 4.13,-26.1 2.03,-5.33 4.83,-10.25 8.37,-14.73 3.54,-4.47 7.41,-7.95 11.62,-10.45 5.61,-3.32 12.07,-5.46 19.4,-6.37 13.27,-1.67 23.86,1.56 31.84,9.67 7.95,8.13 11.93,20.31 11.93,36.56 0,16.11 -3.96,29.21 -11.85,39.29 -7.89,10.1 -18.46,15.97 -31.67,17.62 -13.37,1.68 -24.03,-1.5 -31.92,-9.57 -7.89,-8.05 -11.85,-20.02 -11.85,-35.92zm18.72 -3.02c0,11.29 2.36,19.54 7.07,24.79 4.71,5.23 10.7,7.4 17.94,6.49 7.26,-0.92 13.21,-4.56 17.88,-10.92 4.64,-6.37 6.97,-15.33 6.97,-26.9 0,-11.42 -2.27,-19.67 -6.81,-24.71 -4.52,-5.06 -10.53,-7.11 -18.04,-6.17 -7.49,0.94 -13.54,4.55 -18.13,10.81 -4.58,6.27 -6.88,15.14 -6.88,26.61zm82.74 39.46l0 -99.56 18.21 -2.29 0 39.22 35.41 -4.45 0 -39.22 18.21 -2.28 0 99.56 -18.21 2.29 0 -43.53 -35.41 4.45 0 43.53 -18.21 2.28zm183.11 -59.7l17.58 3.77c-2.7,11.31 -7.2,20 -13.48,26.12 -6.28,6.1 -14.24,9.76 -23.88,10.97 -11.96,1.51 -21.77,-1.78 -29.48,-9.85 -7.68,-8.08 -11.53,-19.95 -11.53,-35.64 0,-16.57 3.87,-29.94 11.6,-40.09 7.72,-10.15 17.89,-16.01 30.49,-17.59 11.01,-1.39 19.95,1.11 26.82,7.45 4.1,3.75 7.16,9.49 9.21,17.23l-17.96 6.98c-1.07,-5.01 -3.29,-8.81 -6.66,-11.38 -3.39,-2.56 -7.49,-3.53 -12.31,-2.93 -6.67,0.84 -12.09,4.16 -16.24,9.99 -4.16,5.81 -6.24,14.64 -6.24,26.51 0,12.56 2.05,21.27 6.14,26.09 4.1,4.84 9.42,6.84 15.97,6.02 4.83,-0.61 9,-2.83 12.47,-6.67 3.48,-3.84 5.99,-9.49 7.5,-16.98zm26.29 -15.77c0,-10.15 1.38,-18.85 4.12,-26.1 2.03,-5.33 4.83,-10.25 8.37,-14.73 3.54,-4.47 7.41,-7.95 11.62,-10.45 5.61,-3.32 12.08,-5.45 19.4,-6.38 13.27,-1.66 23.86,1.58 31.84,9.68 7.95,8.13 11.93,20.31 11.93,36.56 0,16.11 -3.96,29.21 -11.85,39.29 -7.89,10.1 -18.46,15.97 -31.67,17.62 -13.37,1.68 -24.03,-1.5 -31.92,-9.57 -7.89,-8.05 -11.84,-20.02 -11.84,-35.92zm18.71 -3.02c0,11.29 2.36,19.54 7.07,24.79 4.71,5.23 10.7,7.4 17.94,6.49 7.26,-0.92 13.21,-4.56 17.88,-10.92 4.64,-6.37 6.97,-15.33 6.97,-26.9 0,-11.42 -2.26,-19.67 -6.81,-24.71 -4.52,-5.06 -10.52,-7.11 -18.04,-6.17 -7.49,0.94 -13.54,4.55 -18.13,10.81 -4.58,6.27 -6.88,15.14 -6.88,26.61zm83.12 -60.15l67.19 -8.44 0 16.83 -48.98 6.15 0 23.08 24.26 -3.04c6.67,-0.84 12.24,-0.64 16.64,0.62 4.41,1.25 8.18,4.12 11.3,8.62 3.12,4.47 4.69,10 4.69,16.56 0,6.72 -1.57,12.69 -4.73,17.88 -3.14,5.17 -6.72,8.91 -10.76,11.18 -4.02,2.26 -9.76,3.87 -17.19,4.8l-42.42 5.33 0 -99.57zm18.21 80.45l17.64 -2.21c5.63,-0.71 9.61,-1.51 11.89,-2.4 2.28,-0.89 4.29,-2.51 5.99,-4.88 1.69,-2.34 2.53,-5.09 2.53,-8.22 0,-4.56 -1.49,-7.69 -4.44,-9.41 -2.97,-1.68 -8.02,-2.09 -15.17,-1.2l-18.44 2.32 0 26zm72.19 -91.8l18.21 -2.29 0 39.77 24.26 -3.04c6.36,-0.8 11.85,-0.52 16.43,0.83 4.58,1.35 8.41,4.3 11.49,8.87 3.06,4.58 4.58,10.09 4.58,16.53 0,6.75 -1.59,12.74 -4.77,18.03 -3.2,5.27 -6.74,8.93 -10.65,11 -3.89,2.09 -9.61,3.59 -17.12,4.54l-42.43 5.33 0 -99.57zm18.21 80.45l17.71 -2.22c5.63,-0.71 9.56,-1.5 11.8,-2.39 2.22,-0.88 4.21,-2.52 5.95,-4.89 1.73,-2.38 2.59,-5.1 2.59,-8.21 0,-4.4 -1.42,-7.54 -4.25,-9.38 -2.84,-1.85 -7.97,-2.29 -15.36,-1.37l-18.44 2.32 0 26.14zm67.19 -91.17l18.21 -2.29 0 99.57 -18.21 2.28 0 -99.56zm57.27 92.37l0 -82.74 -26.63 3.35 0 -16.83 71.34 -8.96 0 16.83 -26.5 3.33 0 82.74 -18.21 2.28zm56.74 -106.69l16.96 -2.13 0 66.29 36.42 -70.86 18.08 -2.27 0 99.56 -16.95 2.13 0 -65.21 -36.42 69.79 -18.09 2.27 0 -99.57zm90.28 -11.33l16.95 -2.13 0 66.28 36.42 -70.85 18.09 -2.28 0 99.57 -16.96 2.13 0 -65.22 -36.42 69.79 -18.08 2.27 0 -99.56zm46.47 -34.62l8.41 -1.06c-0.48,6.2 -2.45,11.29 -5.86,15.22 -3.41,3.93 -7.83,6.25 -13.25,6.93 -5.44,0.68 -9.86,-0.53 -13.27,-3.6 -3.41,-3.07 -5.38,-7.67 -5.86,-13.75l8.41 -1.05c0.3,3.16 1.3,5.47 3.06,6.89 1.76,1.42 4.31,1.92 7.66,1.5 3.33,-0.42 5.88,-1.55 7.64,-3.42 1.76,-1.87 2.76,-4.43 3.06,-7.66zm78.7 18.9l16.95 -2.13 0 66.29 36.42 -70.86 18.09 -2.27 0 99.56 -16.96 2.13 0 -65.22 -36.42 69.8 -18.08 2.27 0 -99.57zm125.17 -15.72l71.46 -8.97 0 99.57 -18.21 2.28 0 -82.73 -35.04 4.39 0 82.74 -18.21 2.29 0 -99.57zm90.02 88.27l0 -99.57 29.12 -3.65c11.03,-1.39 18.21,-1.8 21.56,-1.23 5.15,0.86 9.46,3.57 12.93,8.14 3.48,4.57 5.22,10.81 5.22,18.74 0,6.12 -1.01,11.37 -3,15.79 -2.01,4.42 -4.54,8.01 -7.62,10.78 -3.07,2.75 -6.21,4.72 -9.39,5.89 -4.34,1.49 -10.59,2.76 -18.8,3.79l-11.81 1.48 0 37.55 -18.21 2.29zm18.21 -85.03l0 28.37 9.91 -1.24c7.13,-0.9 11.88,-2.03 14.29,-3.38 2.41,-1.34 4.29,-3.2 5.65,-5.62 1.36,-2.39 2.05,-5.05 2.05,-8.02 0,-3.64 -0.96,-6.51 -2.86,-8.63 -1.93,-2.12 -4.34,-3.31 -7.29,-3.54 -2.15,-0.17 -6.49,0.14 -13.02,0.97l-8.73 1.09zm135.53 65.72l-19.61 2.47 -7.76 -21.7 -36.07 4.53 -7.47 23.61 -19.26 2.41 34.92 -103.94 19.23 -2.42 36.02 95.04zm-33.28 -35.31l-12.49 -35.28 -12.14 38.37 24.63 -3.09zm55.79 -39.96l-17.71 -2.37c3.81,-16.7 14.63,-26.17 32.46,-28.41 10.55,-1.32 18.53,0.25 23.91,4.72 5.38,4.47 8.05,10.18 8.05,17.13 0,4.75 -1.23,9.2 -3.68,13.35 -2.45,4.13 -6.13,7.96 -11.03,11.49 5.94,1.53 10.42,4.16 13.4,7.94 2.97,3.8 4.45,8.71 4.45,14.8 0,8.77 -2.88,16.2 -8.68,22.32 -5.78,6.13 -14.44,9.93 -25.98,11.38 -9.4,1.18 -16.83,0.37 -22.27,-2.42 -5.44,-2.79 -9.52,-8.79 -12.26,-18l16.57 -8.06c1.72,5.79 4.02,9.39 6.87,10.8 2.85,1.42 6.36,1.86 10.55,1.34 5.73,-0.72 9.92,-2.62 12.56,-5.7 2.61,-3.09 3.93,-6.41 3.93,-9.98 0,-4.08 -1.48,-7.2 -4.46,-9.33 -2.95,-2.14 -7.43,-2.83 -13.39,-2.08l-4.13 0.52 0 -15.02 2.08 -0.26c5.54,-0.69 9.79,-2.62 12.72,-5.74 2.95,-3.13 4.42,-7 4.42,-11.57 0,-3.64 -1.19,-6.55 -3.58,-8.75 -2.39,-2.18 -5.8,-3 -10.24,-2.45 -7.59,0.96 -12.45,5.74 -14.56,14.35zm73.15 -36.3l62.04 -7.79 0 82.74 7.91 -1 0 38.52 -15.19 1.91 0 -21.69 -56.39 7.08 0 21.69 -15.2 1.91 0 -38.52 7.66 -0.96c3.73,-8.97 6.2,-19.16 7.39,-30.53 1.19,-11.39 1.78,-25.67 1.78,-42.84l0 -10.52zm17.33 14.65c0,30.13 -2.51,52.41 -7.53,66.86l34.03 -4.28 0 -65.91 -26.5 3.33zm64.85 74.59l0 -99.56 18.21 -2.29 0 39.22 35.41 -4.45 0 -39.21 18.21 -2.29 0 99.57 -18.21 2.28 0 -43.52 -35.41 4.44 0 43.53 -18.21 2.28zm90.94 -110.98l16.96 -2.13 0 66.29 36.42 -70.86 18.08 -2.27 0 99.56 -16.95 2.13 0 -65.22 -36.42 69.8 -18.09 2.27 0 -99.57zm90.28 -11.33l18.21 -2.29 0 42.41c4.04,-0.97 6.78,-2.45 8.21,-4.5 1.42,-2.04 3.64,-7.48 6.61,-16.34 3.75,-11.25 7.54,-18.44 11.32,-21.54 3.77,-3.09 9.82,-5.17 18.19,-6.22 0.42,-0.06 1.3,-0.19 2.64,-0.4l0 14.88 -2.57 0.25c-3.73,0.47 -6.45,1.32 -8.17,2.55 -1.71,1.24 -3.09,2.97 -4.16,5.19 -1.07,2.22 -2.64,6.7 -4.71,13.45 -1.11,3.59 -2.3,6.62 -3.6,9.1 -1.28,2.47 -3.56,4.94 -6.83,7.39 4.04,0.74 7.37,2.9 10.01,6.41 2.64,3.52 5.53,8.58 8.67,15.21l12.24 25.72 -21.35 2.68 -10.78 -24.28c-0.17,-0.35 -0.52,-1 -1.05,-1.98 -0.21,-0.32 -0.96,-1.8 -2.26,-4.4 -2.3,-4.62 -4.18,-7.44 -5.65,-8.49 -1.48,-1.04 -3.72,-1.39 -6.76,-1.05l0 43.52 -18.21 2.29 0 -99.56zm157.41 79.8l-19.62 2.46 -7.76 -21.69 -36.07 4.53 -7.47 23.6 -19.26 2.42 34.92 -103.95 19.23 -2.41 36.03 95.04zm-33.29 -35.32l-12.49 -35.28 -12.14 38.38 24.63 -3.1z"/>
  <path class="fil11" d="M3051.6 7395.18l143.86 -16.66 54.8 196.47 54.96 -209.18 143.2 -16.58 0 333.31 -89.22 10.33 0 -254.09 -68.85 262.07 -80.84 9.36 -68.69 -246.15 0 254.1 -89.22 10.33 0 -333.31zm430.75 -49.88l121.1 -14.02 71.4 103.92 71.07 -120.42 120.44 -13.95 -137.04 209.61 0 139.57 -109.43 12.68 0 -139.58 -137.54 -177.81z"/>
  <path class="fil11" d="M3506.47 7746.01l331.75 -38.41 0 82.39 -111.4 12.9 0 250.92 -108.94 12.61 0 -250.91 -111.41 12.9 0 -82.4 0 0 0 0 0 0zm380.64 -44.08l291.82 -33.79 0 71.23 -182.39 21.12 0 53.07 169.08 -19.58 0 67.96 -169.08 19.58 0 65.64 187.81 -21.75 0 75.42 -297.24 34.42 0 -333.32 0 0 0 0 0 0zm356.97 -41.33l101.8 -11.79 132.35 168.71 0 -184.04 103.03 -11.93 0 333.32 -103.03 11.93 -131.61 -167.79 0 183.03 -102.54 11.87 0 -333.31zm411.12 -47.61l162.1 -18.77c31.88,-3.69 57.76,-2.57 77.39,3.3 19.64,5.95 35.9,15.78 48.8,29.57 12.82,13.88 22.1,30.57 27.85,50.23 5.84,19.66 8.71,40.81 8.71,63.55 0,35.61 -4.27,63.72 -12.89,84.35 -8.55,20.62 -20.46,38.45 -35.74,53.49 -15.29,15.03 -31.63,25.77 -49.13,32.22 -23.91,8.82 -45.6,14.36 -64.99,16.6l-162.1 18.77 0 -333.31 0 0 0 0 0 0zm108.94 62.8l0 182.02 26.79 -3.1c22.84,-2.65 39.1,-6.94 48.8,-12.79 9.61,-5.93 17.17,-15.1 22.67,-27.61 5.51,-12.59 8.22,-32.14 8.22,-58.83 0,-35.3 -6.08,-58.73 -18.32,-70.35 -12.24,-11.61 -32.54,-15.78 -60.88,-12.5l-27.28 3.16z"/>
  <polygon class="fil12 str2" points="2925.81,8207.59 5257.56,7914.82 5257.56,8081.69 2925.81,8374.46 "/>
  <path class="fil10" d="M3070.34 8324.53l-19.61 2.47 -7.76 -21.7 -36.07 4.53 -7.47 23.61 -19.26 2.41 34.92 -103.94 19.23 -2.42 36.02 95.04zm-33.28 -35.31l-12.49 -35.28 -12.14 38.37 24.63 -3.09zm28.95 -63.71l20.45 -2.57 20.93 48.92 17.92 -53.79 18.94 -2.38 -30.41 79.49c-3.31,8.62 -6.68,15.27 -10.11,19.99 -3.43,4.72 -7.85,7.41 -13.29,8.09 -5.36,0.67 -9.55,0.81 -12.56,0.42l0 -14.97c2.57,-0.14 4.9,-0.34 6.97,-0.6 4.19,-0.52 7.2,-1.76 9.02,-3.68 1.8,-1.94 3.56,-5.85 5.21,-11.69l-33.07 -67.23zm87.6 -11l18.21 -2.28 0 42.41c4.04,-0.97 6.78,-2.45 8.2,-4.51 1.43,-2.03 3.65,-7.48 6.62,-16.33 3.75,-11.25 7.53,-18.45 11.32,-21.54 3.77,-3.09 9.82,-5.17 18.19,-6.23 0.42,-0.05 1.3,-0.18 2.64,-0.4l0 14.88 -2.57 0.26c-3.73,0.46 -6.45,1.32 -8.17,2.55 -1.71,1.24 -3.1,2.96 -4.16,5.18 -1.07,2.22 -2.64,6.71 -4.71,13.46 -1.11,3.59 -2.31,6.61 -3.6,9.09 -1.28,2.48 -3.56,4.95 -6.83,7.4 4.04,0.74 7.37,2.9 10.01,6.41 2.64,3.52 5.52,8.58 8.66,15.21l12.25 25.71 -21.35 2.68 -10.78 -24.27c-0.17,-0.35 -0.52,-1.01 -1.05,-1.98 -0.21,-0.32 -0.96,-1.81 -2.26,-4.4 -2.3,-4.62 -4.18,-7.45 -5.65,-8.49 -1.49,-1.04 -3.73,-1.39 -6.76,-1.05l0 43.52 -18.21 2.29 0 -99.57zm76.65 -9.62l18.21 -2.29 0 82.74 35.04 -4.4 0 -82.74 18.21 -2.28 0 82.74 7.54 -0.95 0 38.52 -15.2 1.91 0 -21.7 -63.8 8.01 0 -99.56zm91.74 -11.52l16.96 -2.13 0 66.29 36.42 -70.86 18.08 -2.27 0 99.56 -16.95 2.13 0 -65.22 -36.42 69.79 -18.09 2.28 0 -99.57zm86.26 39.56c0,-10.16 1.38,-18.86 4.12,-26.11 2.03,-5.33 4.84,-10.25 8.38,-14.72 3.53,-4.48 7.41,-7.96 11.61,-10.46 5.61,-3.32 12.08,-5.45 19.41,-6.37 13.27,-1.67 23.86,1.57 31.83,9.67 7.96,8.14 11.93,20.32 11.93,36.56 0,16.11 -3.95,29.21 -11.84,39.29 -7.89,10.1 -18.46,15.97 -31.67,17.63 -13.38,1.68 -24.03,-1.51 -31.92,-9.58 -7.89,-8.04 -11.85,-20.02 -11.85,-35.91zm18.71 -3.03c0,11.29 2.37,19.54 7.08,24.79 4.71,5.23 10.69,7.4 17.94,6.49 7.26,-0.91 13.2,-4.56 17.87,-10.91 4.65,-6.38 6.97,-15.34 6.97,-26.9 0,-11.43 -2.26,-19.68 -6.8,-24.71 -4.52,-5.07 -10.53,-7.12 -18.04,-6.17 -7.5,0.94 -13.55,4.55 -18.13,10.8 -4.58,6.28 -6.89,15.14 -6.89,26.61zm82.74 39.47l0 -99.57 18.21 -2.28 0 39.21 35.42 -4.45 0 -39.21 18.21 -2.29 0 99.57 -18.21 2.28 0 -43.52 -35.42 4.45 0 43.52 -18.21 2.29zm183.11 -59.71l17.58 3.78c-2.7,11.3 -7.2,20 -13.48,26.12 -6.28,6.09 -14.23,9.76 -23.88,10.97 -11.95,1.5 -21.77,-1.79 -29.47,-9.86 -7.68,-8.07 -11.53,-19.94 -11.53,-35.63 0,-16.57 3.87,-29.95 11.59,-40.09 7.73,-10.15 17.9,-16.02 30.5,-17.6 11.01,-1.38 19.95,1.11 26.81,7.46 4.11,3.75 7.16,9.48 9.21,17.22l-17.96 6.98c-1.06,-5.01 -3.28,-8.81 -6.65,-11.38 -3.39,-2.56 -7.5,-3.53 -12.31,-2.92 -6.68,0.83 -12.1,4.16 -16.24,9.98 -4.17,5.81 -6.24,14.65 -6.24,26.51 0,12.57 2.05,21.28 6.13,26.09 4.1,4.84 9.42,6.84 15.97,6.02 4.84,-0.61 9,-2.82 12.48,-6.67 3.47,-3.84 5.98,-9.49 7.49,-16.98zm26.29 -15.77c0,-10.15 1.38,-18.85 4.12,-26.1 2.03,-5.33 4.84,-10.25 8.38,-14.72 3.53,-4.48 7.41,-7.96 11.61,-10.46 5.61,-3.32 12.08,-5.45 19.41,-6.37 13.27,-1.67 23.86,1.57 31.83,9.68 7.96,8.13 11.94,20.31 11.94,36.55 0,16.11 -3.96,29.21 -11.85,39.29 -7.89,10.1 -18.46,15.97 -31.67,17.63 -13.38,1.68 -24.03,-1.5 -31.92,-9.58 -7.89,-8.04 -11.85,-20.02 -11.85,-35.92zm18.71 -3.02c0,11.29 2.37,19.54 7.08,24.79 4.71,5.23 10.69,7.4 17.94,6.49 7.26,-0.91 13.2,-4.56 17.87,-10.91 4.65,-6.38 6.97,-15.34 6.97,-26.91 0,-11.42 -2.26,-19.67 -6.8,-24.7 -4.52,-5.07 -10.53,-7.12 -18.04,-6.18 -7.5,0.95 -13.55,4.56 -18.13,10.81 -4.58,6.28 -6.89,15.14 -6.89,26.61zm83.12 -60.15l67.19 -8.43 0 16.82 -48.98 6.15 0 23.09 24.26 -3.05c6.68,-0.84 12.25,-0.63 16.64,0.62 4.42,1.26 8.19,4.12 11.31,8.62 3.11,4.47 4.68,10 4.68,16.56 0,6.72 -1.57,12.69 -4.73,17.88 -3.14,5.17 -6.71,8.91 -10.75,11.18 -4.02,2.27 -9.76,3.87 -17.19,4.8l-42.43 5.33 0 -99.57zm18.21 80.46l17.65 -2.22c5.63,-0.71 9.61,-1.51 11.89,-2.4 2.28,-0.88 4.29,-2.5 5.98,-4.87 1.7,-2.35 2.54,-5.09 2.54,-8.22 0,-4.57 -1.49,-7.7 -4.44,-9.41 -2.97,-1.69 -8.02,-2.1 -15.18,-1.2l-18.44 2.31 0 26.01zm72.19 -91.81l18.22 -2.28 0 39.77 24.25 -3.05c6.37,-0.8 11.85,-0.51 16.44,0.84 4.58,1.34 8.41,4.29 11.49,8.87 3.05,4.57 4.58,10.08 4.58,16.52 0,6.75 -1.59,12.74 -4.77,18.03 -3.2,5.27 -6.74,8.94 -10.66,11 -3.89,2.09 -9.6,3.6 -17.12,4.54l-42.43 5.33 0 -99.57zm18.22 80.46l17.7 -2.23c5.63,-0.7 9.57,-1.5 11.81,-2.38 2.22,-0.88 4.21,-2.53 5.94,-4.9 1.74,-2.37 2.6,-5.1 2.6,-8.2 0,-4.41 -1.42,-7.54 -4.25,-9.39 -2.85,-1.84 -7.98,-2.29 -15.36,-1.36l-18.44 2.31 0 26.15zm67.19 -91.18l18.21 -2.29 0 99.57 -18.21 2.29 0 -99.57zm57.26 92.38l0 -82.74 -26.62 3.34 0 -16.83 71.33 -8.95 0 16.82 -26.5 3.33 0 82.74 -18.21 2.29zm56.75 -106.69l16.95 -2.13 0 66.28 36.42 -70.86 18.09 -2.27 0 99.57 -16.96 2.13 0 -65.22 -36.42 69.79 -18.08 2.27 0 -99.56zm90.27 -11.34l16.96 -2.13 0 66.29 36.42 -70.86 18.08 -2.27 0 99.56 -16.95 2.13 0 -65.22 -36.42 69.8 -18.09 2.27 0 -99.57zm46.47 -34.62l8.42 -1.05c-0.48,6.2 -2.45,11.29 -5.86,15.22 -3.42,3.92 -7.83,6.24 -13.25,6.92 -5.45,0.68 -9.86,-0.52 -13.27,-3.59 -3.42,-3.08 -5.38,-7.67 -5.86,-13.75l8.41 -1.06c0.29,3.16 1.3,5.47 3.06,6.89 1.75,1.43 4.31,1.92 7.66,1.5 3.33,-0.42 5.88,-1.55 7.64,-3.42 1.75,-1.86 2.76,-4.42 3.05,-7.66zm78.7 18.9l16.96 -2.12 0 66.28 36.42 -70.86 18.08 -2.27 0 99.57 -16.95 2.13 0 -65.22 -36.42 69.79 -18.09 2.27 0 -99.57zm125.17 -15.71l71.46 -8.97 0 99.56 -18.21 2.29 0 -82.74 -35.04 4.4 0 82.74 -18.21 2.28 0 -99.56zm90.03 88.26l0 -99.57 29.12 -3.65c11.03,-1.39 18.21,-1.8 21.56,-1.23 5.14,0.86 9.46,3.57 12.93,8.14 3.48,4.57 5.21,10.82 5.21,18.74 0,6.12 -1,11.37 -2.99,15.79 -2.01,4.42 -4.54,8.01 -7.62,10.78 -3.08,2.75 -6.22,4.72 -9.4,5.89 -4.33,1.49 -10.59,2.76 -18.79,3.8l-11.81 1.48 0 37.54 -18.21 2.29zm18.21 -85.03l0 28.37 9.9 -1.24c7.14,-0.9 11.89,-2.03 14.3,-3.37 2.4,-1.35 4.29,-3.21 5.65,-5.62 1.36,-2.4 2.05,-5.06 2.05,-8.03 0,-3.63 -0.96,-6.5 -2.87,-8.63 -1.92,-2.12 -4.33,-3.3 -7.28,-3.53 -2.16,-0.17 -6.49,0.14 -13.02,0.96l-8.73 1.09zm135.53 65.73l-19.61 2.46 -7.77 -21.69 -36.06 4.53 -7.47 23.6 -19.26 2.42 34.91 -103.95 19.24 -2.42 36.02 95.05zm-33.28 -35.32l-12.5 -35.28 -12.14 38.38 24.64 -3.1zm55.78 -39.96l-17.71 -2.36c3.81,-16.7 14.64,-26.17 32.47,-28.41 10.55,-1.33 18.52,0.24 23.9,4.71 5.38,4.47 8.06,10.18 8.06,17.14 0,4.75 -1.23,9.19 -3.68,13.35 -2.45,4.13 -6.14,7.95 -11.03,11.49 5.94,1.52 10.42,4.16 13.39,7.93 2.97,3.8 4.46,8.71 4.46,14.81 0,8.76 -2.89,16.19 -8.69,22.32 -5.77,6.12 -14.44,9.92 -25.97,11.37 -9.4,1.18 -16.83,0.38 -22.27,-2.42 -5.44,-2.79 -9.53,-8.79 -12.27,-17.99l16.58 -8.07c1.72,5.79 4.02,9.4 6.86,10.8 2.85,1.43 6.37,1.87 10.55,1.34 5.74,-0.72 9.93,-2.61 12.56,-5.7 2.62,-3.09 3.94,-6.41 3.94,-9.97 0,-4.08 -1.49,-7.21 -4.46,-9.34 -2.95,-2.13 -7.43,-2.82 -13.4,-2.07l-4.12 0.51 0 -15.01 2.07 -0.26c5.55,-0.7 9.8,-2.62 12.73,-5.75 2.95,-3.13 4.41,-7 4.41,-11.56 0,-3.64 -1.19,-6.55 -3.57,-8.76 -2.39,-2.18 -5.8,-3 -10.24,-2.44 -7.6,0.95 -12.45,5.73 -14.57,14.34zm73.16 -36.3l62.04 -7.79 0 82.74 7.91 -0.99 0 38.52 -15.2 1.9 0 -21.69 -56.39 7.08 0 21.69 -15.19 1.91 0 -38.52 7.66 -0.96c3.72,-8.97 6.19,-19.16 7.39,-30.52 1.19,-11.39 1.78,-25.67 1.78,-42.85l0 -10.52zm17.33 14.65c0,30.13 -2.51,52.42 -7.54,66.86l34.04 -4.27 0 -65.92 -26.5 3.33zm64.84 74.6l0 -99.57 18.21 -2.28 0 39.21 35.42 -4.45 0 -39.21 18.21 -2.29 0 99.57 -18.21 2.28 0 -43.52 -35.42 4.45 0 43.52 -18.21 2.29zm90.95 -110.99l16.95 -2.12 0 66.28 36.43 -70.86 18.08 -2.27 0 99.57 -16.95 2.13 0 -65.22 -36.42 69.79 -18.09 2.27 0 -99.57zm90.28 -11.33l18.21 -2.29 0 42.41c4.04,-0.97 6.78,-2.45 8.2,-4.5 1.42,-2.03 3.64,-7.48 6.62,-16.34 3.74,-11.24 7.53,-18.44 11.32,-21.54 3.77,-3.09 9.82,-5.17 18.19,-6.22 0.42,-0.05 1.3,-0.19 2.64,-0.4l0 14.88 -2.58 0.25c-3.72,0.47 -6.44,1.32 -8.16,2.56 -1.72,1.23 -3.1,2.96 -4.17,5.18 -1.06,2.22 -2.63,6.7 -4.71,13.45 -1.1,3.6 -2.3,6.62 -3.6,9.1 -1.27,2.48 -3.55,4.94 -6.82,7.39 4.04,0.75 7.37,2.9 10.01,6.42 2.63,3.51 5.52,8.57 8.66,15.2l12.25 25.72 -21.35 2.68 -10.78 -24.28c-0.17,-0.35 -0.53,-1 -1.05,-1.98 -0.21,-0.32 -0.96,-1.8 -2.26,-4.39 -2.3,-4.63 -4.19,-7.45 -5.65,-8.5 -1.49,-1.04 -3.73,-1.38 -6.76,-1.05l0 43.53 -18.21 2.28 0 -99.56zm157.4 79.8l-19.61 2.46 -7.77 -21.69 -36.06 4.53 -7.47 23.6 -19.26 2.42 34.91 -103.95 19.24 -2.41 36.02 95.04zm-33.28 -35.31l-12.5 -35.28 -12.14 38.37 24.64 -3.09z"/>
  <polygon class="fil13" points="5171.21,7309.66 5212.62,7418.35 5347.44,7418.13 5238.22,7485.09 5280.12,7593.65 5171.21,7526.34 5062.29,7593.65 5104.2,7485.09 4994.98,7418.13 5129.79,7418.35 "/>
  <polygon class="fil12" points="4540.68,7213.59 4575.99,7306.99 4690.91,7306.8 4597.8,7364.33 4633.53,7457.61 4540.68,7399.77 4447.84,7457.61 4483.56,7364.33 4390.46,7306.8 4505.38,7306.99 "/>
  <polygon class="fil14" points="5175.79,7567.23 5220.62,7698.71 5366.57,7698.44 5248.33,7779.44 5293.7,7910.75 5175.79,7829.33 5057.88,7910.75 5103.25,7779.44 4985.02,7698.44 5130.96,7698.71 "/>
  <polygon class="fil15 str3" points="4865.15,7253.2 4827.89,7359.02 4706.59,7358.81 4804.86,7424 4767.15,7529.68 4865.15,7464.15 4963.15,7529.68 4925.45,7424 5023.72,7358.81 4902.42,7359.02 "/>
  <path class="fil16" d="M1627.78 9255.63l0 45.38 -76.72 0 0 -45.38c-61.87,-2.26 -105.45,-17.57 -130.93,-45.75 -25.49,-28.27 -38.18,-63.58 -38.18,-105.99 0,-44.66 13.32,-80.41 39.89,-107.42 26.65,-27.02 69.7,-41.7 129.22,-43.95l0 -38.36 76.72 0 0 38.36c61.5,2.25 104.99,17.38 130.66,45.38 25.66,27.92 38.45,63.4 38.45,106.26 0,42.6 -12.79,77.89 -38.27,105.99 -25.58,28.01 -69.16,43.22 -130.84,45.48zm0 -65.38c20.44,0 38.09,-3.42 52.86,-10.26 14.68,-6.85 25.12,-16.03 31.33,-27.65 6.22,-11.52 9.28,-28.45 9.28,-50.79 0,-55.74 -31.16,-83.65 -93.47,-83.65l0 172.35zm-76.72 0l0 -172.35c-33.05,0 -56.83,7.29 -71.5,21.97 -14.68,14.68 -21.97,36.83 -21.97,66.45 0,55.93 31.15,83.93 93.47,83.93zm308.23 110.76l0 -386.85 286.36 0 0 65.38 -208.02 0 0 85.91 193.43 0 0 65.37 -193.43 0 0 104.81 215.58 0 0 65.38 -293.92 0zm391.71 -386.85l266.91 0 0 321.47 34.04 0 0 149.67 -65.38 0 0 -84.29 -242.59 0 0 84.29 -65.38 0 0 -149.67 32.96 0c16.03,-33.04 26.65,-71.41 31.79,-114.99 5.13,-43.67 7.65,-98.87 7.65,-165.59l0 -40.89zm74.56 65.38c0,117.06 -10.8,202.42 -32.41,256.09l146.42 0 0 -256.09 -114.01 0zm262.77 130.38c0,-39.43 5.94,-72.57 17.74,-99.41 8.73,-19.72 20.79,-37.46 36.01,-53.13 15.22,-15.67 31.88,-27.28 49.98,-34.94 24.13,-10.17 51.96,-15.31 83.47,-15.31 57.1,0 102.66,17.74 136.97,53.14 34.22,35.48 51.33,84.73 51.33,147.85 0,62.59 -17.02,111.58 -50.97,146.87 -33.95,35.4 -79.42,53.05 -136.24,53.05 -57.54,0 -103.38,-17.56 -137.33,-52.77 -33.94,-35.12 -50.96,-83.57 -50.96,-145.35zm80.5 -2.61c0,43.86 10.17,77.09 30.43,99.78 20.26,22.6 46.02,33.95 77.18,33.95 31.24,0 56.82,-11.26 76.9,-33.68 19.99,-22.51 29.98,-56.19 29.98,-101.12 0,-44.4 -9.72,-77.54 -29.26,-99.33 -19.45,-21.88 -45.3,-32.78 -77.62,-32.78 -32.24,0 -58.26,11.08 -77.99,33.14 -19.72,22.15 -29.62,55.47 -29.62,100.04zm355.97 193.7l0 -386.85 125.25 0c47.46,0 78.35,1.89 92.75,5.76 22.16,5.85 40.71,18.46 55.65,37.91 14.95,19.45 22.43,44.58 22.43,75.38 0,23.77 -4.33,43.67 -12.88,59.88 -8.65,16.21 -19.54,28.9 -32.78,38.18 -13.24,9.18 -26.75,15.31 -40.44,18.28 -18.64,3.69 -45.56,5.58 -80.86,5.58l-50.79 0 0 145.88 -78.33 0zm78.33 -321.47l0 110.22 42.6 0c30.71,0 51.15,-2.08 61.51,-6.13 10.35,-4.05 18.45,-10.35 24.3,-19.08 5.86,-8.65 8.83,-18.64 8.83,-30.18 0,-14.13 -4.14,-25.75 -12.34,-34.93 -8.28,-9.19 -18.64,-14.95 -31.33,-17.29 -9.28,-1.71 -27.92,-2.61 -56.02,-2.61l-37.55 0zm679.61 178.83l75.64 23.24c-11.62,42.59 -30.98,74.19 -58,94.91 -27.01,20.62 -61.23,30.97 -102.74,30.97 -51.42,0 -93.66,-17.56 -126.79,-52.67 -33.05,-35.12 -49.62,-83.12 -49.62,-144.09 0,-64.38 16.66,-114.45 49.89,-150.11 33.23,-35.66 76.99,-53.49 131.2,-53.49 47.37,0 85.82,14.06 115.36,42.06 17.64,16.57 30.79,40.34 39.62,71.41l-77.27 18.37c-4.59,-19.99 -14.13,-35.84 -28.63,-47.46 -14.59,-11.62 -32.24,-17.38 -52.95,-17.38 -28.73,0 -52.05,10.27 -69.88,30.89 -17.92,20.53 -26.83,53.85 -26.83,99.95 0,48.81 8.82,83.66 26.38,104.37 17.65,20.8 40.52,31.16 68.71,31.16 20.8,0 38.72,-6.58 53.67,-19.81 14.94,-13.24 25.75,-33.95 32.24,-62.32zm216.29 142.64l0 -321.47 -114.54 0 0 -65.38 306.88 0 0 65.38 -114 0 0 321.47 -78.34 0zm243.05 0l0 -386.85 125.25 0c47.46,0 78.35,1.89 92.75,5.76 22.16,5.85 40.71,18.46 55.65,37.91 14.95,19.45 22.43,44.58 22.43,75.38 0,23.77 -4.33,43.67 -12.88,59.88 -8.65,16.21 -19.54,28.9 -32.78,38.18 -13.24,9.18 -26.75,15.31 -40.44,18.28 -18.64,3.69 -45.56,5.58 -80.85,5.58l-50.8 0 0 145.88 -78.33 0zm78.33 -321.47l0 110.22 42.6 0c30.71,0 51.15,-2.08 61.51,-6.13 10.35,-4.05 18.45,-10.35 24.3,-19.08 5.86,-8.65 8.83,-18.64 8.83,-30.18 0,-14.13 -4.14,-25.75 -12.34,-34.93 -8.28,-9.19 -18.64,-14.95 -31.33,-17.29 -9.28,-1.71 -27.92,-2.61 -56.02,-2.61l-37.55 0zm583.07 321.47l-84.37 0 -33.41 -88.07 -155.15 0 -32.15 88.07 -82.85 0 150.21 -386.85 82.75 0 154.97 386.85zm-143.17 -153.44l-53.76 -143.18 -52.23 143.18 105.99 0zm418.91 10.8l75.64 23.24c-11.62,42.59 -30.98,74.19 -58,94.91 -27.01,20.62 -61.23,30.97 -102.74,30.97 -51.42,0 -93.66,-17.56 -126.8,-52.67 -33.04,-35.12 -49.61,-83.12 -49.61,-144.09 0,-64.38 16.66,-114.45 49.89,-150.11 33.23,-35.66 76.99,-53.49 131.2,-53.49 47.37,0 85.81,14.06 115.35,42.06 17.65,16.57 30.8,40.34 39.63,71.41l-77.27 18.37c-4.59,-19.99 -14.13,-35.84 -28.63,-47.46 -14.59,-11.62 -32.24,-17.38 -52.95,-17.38 -28.73,0 -52.05,10.27 -69.88,30.89 -17.92,20.53 -26.83,53.85 -26.83,99.95 0,48.81 8.82,83.66 26.38,104.37 17.65,20.8 40.52,31.16 68.71,31.16 20.8,0 38.71,-6.58 53.67,-19.81 14.94,-13.24 25.75,-33.95 32.24,-62.32zm216.29 142.64l0 -321.47 -114.54 0 0 -65.38 306.88 0 0 65.38 -114 0 0 321.47 -78.34 0zm243.04 0l0 -386.85 78.34 0 0 152.36 152.37 0 0 -152.36 78.34 0 0 386.85 -78.34 0 0 -169.11 -152.37 0 0 169.11 -78.34 0zm392.34 -386.85l78.35 0 0 154.53 104.37 0c27.37,0 50.96,3.77 70.69,11.25 19.72,7.48 36.19,20.8 49.43,40.07 13.15,19.28 19.72,41.43 19.72,66.46 0,26.2 -6.84,48.72 -20.53,67.71 -13.77,18.92 -28.99,31.43 -45.83,37.56 -16.76,6.21 -41.34,9.27 -73.67,9.27l-182.53 0 0 -386.85zm78.35 321.47l76.18 0c24.23,0 41.15,-1.16 50.79,-3.51 9.54,-2.34 18.1,-7.74 25.57,-16.12 7.48,-8.37 11.17,-18.55 11.17,-30.61 0,-17.11 -6.13,-29.99 -18.28,-38.54 -12.25,-8.56 -34.31,-12.79 -66.1,-12.79l-79.33 0 0 101.57zm289.06 -321.47l78.34 0 0 386.85 -78.34 0 0 -386.85zm160.46 0l72.95 0 0 257.54 156.68 -257.54 77.8 0 0 386.85 -72.94 0 0 -253.39 -156.68 253.39 -77.81 0 0 -386.85zm199.91 -111.84l36.2 0c-2.07,23.86 -10.53,42.68 -25.21,56.28 -14.68,13.59 -33.68,20.44 -57,20.44 -23.41,0 -42.42,-6.85 -57.09,-20.44 -14.68,-13.6 -23.14,-32.42 -25.22,-56.28l36.2 0c1.26,12.43 5.59,21.88 13.15,28.27 7.56,6.4 18.55,9.55 32.96,9.55 14.31,0 25.3,-3.15 32.87,-9.55 7.56,-6.39 11.88,-15.84 13.14,-28.27z"/>
  <path class="fil17" d="M1147.27 9698.4c0,-58.6 15.8,-104.54 47.33,-137.71 31.52,-33.17 72.19,-49.71 122.07,-49.71 32.68,0 62.06,7.82 88.32,23.37 26.17,15.56 46.18,37.29 59.92,65.19 13.75,27.83 20.66,59.43 20.66,94.75 0,35.8 -7.24,67.91 -21.73,96.14 -14.48,28.31 -34.98,49.72 -61.48,64.2 -26.59,14.57 -55.24,21.82 -85.94,21.82 -33.34,0 -63.05,-8.07 -89.31,-24.12 -26.18,-16.05 -46.1,-37.95 -59.59,-65.77 -13.5,-27.74 -20.25,-57.13 -20.25,-88.16zm48.4 0.83c0,42.55 11.44,76.05 34.32,100.5 22.88,24.45 51.61,36.71 86.18,36.71 35.23,0 64.13,-12.34 86.93,-37.04 22.71,-24.69 34.07,-59.76 34.07,-105.2 0,-28.72 -4.85,-53.83 -14.57,-75.23 -9.71,-21.4 -23.95,-38.03 -42.63,-49.8 -18.77,-11.77 -39.76,-17.7 -63.06,-17.7 -33.09,0 -61.57,11.36 -85.44,34.08 -23.87,22.72 -35.8,60.58 -35.8,113.68zm328.35 -85.03l43.46 0 0 48.4c0,20.9 1.23,36.05 3.79,45.43 2.47,9.39 8.47,17.62 18.02,24.62 9.47,6.99 21.4,10.45 35.81,10.45 16.46,0 37.7,-4.36 63.87,-13.01l0 -115.89 43.47 0 0 256.32 -43.47 0 0 -103.47c-26.75,8.4 -51.77,12.6 -74.98,12.6 -19.51,0 -36.72,-4.94 -51.61,-14.82 -14.9,-9.88 -25.03,-21.98 -30.38,-36.3 -5.35,-14.32 -7.98,-30.04 -7.98,-47.25l0 -67.08zm448.44 173.35l44.94 5.92c-6.99,26.1 -20.08,46.43 -39.18,60.83 -19.1,14.41 -43.46,21.65 -73.18,21.65 -37.37,0 -67,-11.52 -88.89,-34.57 -21.9,-22.96 -32.85,-55.31 -32.85,-96.88 0,-42.97 11.03,-76.39 33.18,-100.09 22.14,-23.79 50.87,-35.65 86.18,-35.65 34.16,0 62.06,11.61 83.71,34.9 21.65,23.3 32.51,56.06 32.51,98.29 0,2.55 -0.08,6.42 -0.24,11.52l-190.89 0c1.65,28.07 9.55,49.64 23.87,64.53 14.24,14.9 32.11,22.39 53.42,22.39 15.89,0 29.47,-4.19 40.67,-12.59 11.27,-8.4 20.16,-21.81 26.75,-40.25zm-142.24 -69.64l142.73 0c-1.89,-21.57 -7.4,-37.7 -16.38,-48.48 -13.74,-16.71 -31.69,-25.11 -53.67,-25.11 -19.91,0 -36.62,6.67 -50.21,20.01 -13.5,13.33 -20.99,31.19 -22.47,53.58zm242.09 -103.71l43.46 0 0 106.67 120.5 0 0 -106.67 43.47 0 0 256.32 -43.47 0 0 -113.59 -120.5 0 0 113.59 -43.46 0 0 -256.32zm271.71 0l43.46 0 0 100.25 54.99 0c35.88,0 63.46,6.92 82.88,20.83 19.35,13.91 29.06,33.09 29.06,57.54 0,21.4 -8.07,39.67 -24.28,54.9 -16.13,15.23 -41.98,22.8 -77.54,22.8l-108.57 0 0 -256.32zm43.46 220.76l45.77 0c27.57,0 47.24,-3.37 59.01,-10.12 11.78,-6.75 17.7,-17.29 17.7,-31.61 0,-11.11 -4.36,-20.99 -13.09,-29.72 -8.72,-8.64 -27.98,-13 -57.86,-13l-51.53 0 0 84.45zm353.54 -220.76l66.84 0 67.74 205.12 74.99 -205.12 62.06 0 0 256.32 -43.46 0 0 -206.36 -75.48 206.36 -38.85 0 -71.37 -216.24 0 216.24 -42.47 0 0 -256.32zm321.76 128.16c0,-47.33 13.17,-82.4 39.59,-105.2 21.98,-18.93 48.89,-28.4 80.59,-28.4 35.14,0 63.95,11.53 86.34,34.58 22.31,22.96 33.5,54.82 33.5,95.4 0,32.92 -4.94,58.77 -14.81,77.62 -9.88,18.85 -24.29,33.5 -43.22,43.95 -18.85,10.46 -39.51,15.64 -61.81,15.64 -35.89,0 -64.87,-11.44 -87.01,-34.4 -22.14,-22.97 -33.17,-56.06 -33.17,-99.19zm44.45 0.08c0,32.76 7.16,57.29 21.48,73.51 14.41,16.29 32.43,24.44 54.25,24.44 21.56,0 39.51,-8.15 53.91,-24.53 14.32,-16.38 21.48,-41.32 21.48,-74.82 0,-31.61 -7.24,-55.56 -21.64,-71.78 -14.41,-16.29 -32.35,-24.44 -53.75,-24.44 -21.82,0 -39.84,8.06 -54.25,24.28 -14.32,16.21 -21.48,40.66 -21.48,73.34zm269.73 -128.24l178.79 0 0 220.76 27.66 0 0 108.16 -35.56 0 0 -72.6 -202 0 0 72.6 -35.56 0 0 -108.16 22.72 0c30.62,-41.57 45.27,-115.16 43.95,-220.76zm36.06 36.05c-3.21,83.22 -16.05,144.79 -38.53,184.71l137.8 0 0 -184.71 -99.27 0zm218.05 -36.05l43.46 0 0 106.67 120.5 0 0 -106.67 43.47 0 0 256.32 -43.47 0 0 -113.59 -120.5 0 0 113.59 -43.46 0 0 -256.32zm516.67 0l43.46 0 0 256.32 -43.46 0 0 -256.32zm-242.49 0l43.46 0 0 100.25 54.82 0c35.81,0 63.3,6.92 82.64,20.83 19.35,13.91 28.98,33.09 28.98,57.54 0,21.4 -8.07,39.67 -24.2,54.9 -16.14,15.23 -41.9,22.8 -77.38,22.8l-108.32 0 0 -256.32zm43.46 220.76l45.6 0c27.41,0 47.08,-3.37 58.77,-10.12 11.77,-6.75 17.62,-17.29 17.62,-31.61 0,-11.11 -4.37,-20.99 -13.01,-29.72 -8.72,-8.64 -27.9,-13 -57.62,-13l-51.36 0 0 84.45zm310.08 -220.76l43.46 0 0 195.49 120.75 -195.49 46.67 0 0 256.32 -43.46 0 0 -194.26 -120.59 194.26 -46.83 0 0 -256.32zm150.14 -94.83l29.63 0c-2.39,20.33 -9.8,35.97 -22.14,46.84 -12.35,10.95 -28.73,16.38 -49.23,16.38 -20.58,0 -37.04,-5.43 -49.3,-16.22 -12.27,-10.86 -19.68,-26.5 -22.06,-47l29.63 0c2.22,11.11 6.75,19.43 13.42,24.86 6.66,5.51 15.72,8.23 27,8.23 13.08,0 22.96,-2.63 29.63,-7.98 6.67,-5.27 11.19,-13.67 13.42,-25.11zm262.99 94.83l100.01 0c24.53,0 42.8,2.05 54.82,6.17 11.93,4.12 22.22,11.61 30.78,22.55 8.65,11.03 12.93,24.12 12.93,39.43 0,12.27 -2.56,22.97 -7.58,32.02 -5.1,9.14 -12.67,16.79 -22.88,22.88 12.02,4.04 21.98,11.53 29.96,22.56 7.9,10.95 11.86,24.03 11.86,39.1 -1.57,24.28 -10.29,42.31 -26.02,53.99 -15.72,11.78 -38.6,17.62 -68.56,17.62l-115.32 0 0 -256.32zm43.46 108.16l46.09 0c18.36,0 31.04,-0.99 37.87,-2.88 6.91,-1.98 13.08,-5.85 18.52,-11.78 5.43,-5.84 8.15,-12.92 8.15,-21.15 0,-13.58 -4.78,-22.97 -14.24,-28.32 -9.55,-5.35 -25.85,-7.98 -48.9,-7.98l-47.49 0 0 72.11zm0 112.6l57.04 0c24.53,0 41.4,-2.88 50.54,-8.56 9.14,-5.76 13.91,-15.56 14.41,-29.63 0,-8.15 -2.64,-15.81 -7.91,-22.8 -5.35,-7 -12.26,-11.45 -20.74,-13.26 -8.48,-1.89 -22.14,-2.79 -40.91,-2.79l-52.43 0 0 77.04zm388.27 -47.41l44.94 5.92c-6.99,26.1 -20.08,46.43 -39.18,60.83 -19.1,14.41 -43.46,21.65 -73.18,21.65 -37.37,0 -67,-11.52 -88.89,-34.57 -21.9,-22.96 -32.85,-55.31 -32.85,-96.88 0,-42.97 11.03,-76.39 33.18,-100.09 22.14,-23.79 50.87,-35.65 86.18,-35.65 34.16,0 62.06,11.61 83.71,34.9 21.65,23.3 32.51,56.06 32.51,98.29 0,2.55 -0.08,6.42 -0.24,11.52l-190.89 0c1.65,28.07 9.55,49.64 23.87,64.53 14.24,14.9 32.11,22.39 53.42,22.39 15.89,0 29.47,-4.19 40.67,-12.59 11.27,-8.4 20.16,-21.81 26.75,-40.25zm-142.24 -69.64l142.73 0c-1.89,-21.57 -7.4,-37.7 -16.38,-48.48 -13.74,-16.71 -31.69,-25.11 -53.67,-25.11 -19.91,0 -36.62,6.67 -50.21,20.01 -13.5,13.33 -20.99,31.19 -22.47,53.58zm265.29 -103.71l178.79 0 0 220.76 27.66 0 0 108.16 -35.56 0 0 -72.6 -202 0 0 72.6 -35.56 0 0 -108.16 22.72 0c30.62,-41.57 45.27,-115.16 43.95,-220.76zm36.06 36.05c-3.21,83.22 -16.05,144.79 -38.53,184.71l137.8 0 0 -184.71 -99.27 0zm216.07 318.8l-4.94 -40.17c9.55,2.55 17.78,3.87 24.86,3.87 9.71,0 17.45,-1.65 23.21,-4.86 5.85,-3.21 10.62,-7.74 14.33,-13.5 2.71,-4.36 7.16,-15.14 13.25,-32.43 0.82,-2.39 2.06,-5.93 3.87,-10.62l-97.3 -257.14 46.43 0 53.5 148c7,18.68 13.17,38.44 18.69,59.18 5.02,-19.51 10.94,-38.77 17.86,-57.7l54.65 -149.48 43.38 0 -96.88 260.76c-10.45,28.07 -18.6,47.34 -24.45,57.95 -7.73,14.24 -16.62,24.7 -26.58,31.36 -10.05,6.67 -21.98,9.96 -35.81,9.96 -8.4,0 -17.78,-1.72 -28.07,-5.18zm250.4 -354.85l43.46 0 0 220.76 98.78 0 0 -220.76 43.46 0 0 220.76 98.77 0 0 -220.76 43.46 0 0 220.76 28.65 0 0 108.16 -36.05 0 0 -72.6 -320.53 0 0 -256.32zm404.9 0l43.46 0 0 195.49 120.75 -195.49 46.67 0 0 256.32 -43.46 0 0 -194.26 -120.59 194.26 -46.83 0 0 -256.32zm275.91 0l43.46 0 0 195.49 120.75 -195.49 46.67 0 0 256.32 -43.46 0 0 -194.26 -120.59 194.26 -46.83 0 0 -256.32zm150.14 -94.83l29.63 0c-2.39,20.33 -9.8,35.97 -22.14,46.84 -12.35,10.95 -28.73,16.38 -49.23,16.38 -20.58,0 -37.04,-5.43 -49.3,-16.22 -12.27,-10.86 -19.68,-26.5 -22.06,-47l29.63 0c2.22,11.11 6.75,19.43 13.42,24.86 6.66,5.51 15.72,8.23 27,8.23 13.08,0 22.96,-2.63 29.63,-7.98 6.67,-5.27 11.19,-13.67 13.42,-25.11z"/>
  <path class="fil17" d="M2431.65 10677.69c-18.02,-6.58 -31.36,-16.05 -40.08,-28.23 -8.65,-12.27 -13.01,-26.92 -13.01,-43.96 0,-25.76 9.22,-47.33 27.66,-64.86 18.52,-17.53 43.05,-26.34 73.75,-26.34 30.79,0 55.65,8.97 74.41,26.92 18.77,17.94 28.15,39.75 28.15,65.52 0,16.38 -4.28,30.7 -12.84,42.8 -8.56,12.18 -21.56,21.57 -39.1,28.15 21.65,7.08 38.03,18.44 49.31,34.24 11.28,15.73 16.96,34.49 16.96,56.39 0,30.21 -10.7,55.56 -32.02,76.14 -21.4,20.58 -49.47,30.87 -84.29,30.87 -34.82,0 -62.89,-10.29 -84.29,-30.95 -21.32,-20.66 -32.02,-46.43 -32.02,-77.3 0,-22.96 5.84,-42.22 17.53,-57.7 11.69,-15.55 28.32,-26.09 49.88,-31.69zm-8.64 -73.75c0,16.79 5.35,30.46 15.97,41.07 10.7,10.62 24.69,15.97 42.06,15.97 16.88,0 30.54,-5.27 41.16,-15.8 10.62,-10.54 15.88,-23.46 15.88,-38.77 0,-15.97 -5.43,-29.39 -16.38,-40.25 -10.86,-10.87 -24.61,-16.3 -41.15,-16.3 -16.71,0 -30.46,5.35 -41.32,15.97 -10.79,10.62 -16.22,23.29 -16.22,38.11zm-14.32 163.47c0,12.43 2.88,24.37 8.64,35.97 5.76,11.53 14.49,20.5 26.18,26.84 11.6,6.34 24.11,9.55 37.37,9.55 20.9,0 38.03,-6.67 51.44,-20 13.42,-13.34 20.09,-30.3 20.09,-50.87 0,-20.91 -6.92,-38.2 -20.66,-51.86 -13.83,-13.67 -31.28,-20.5 -52.27,-20.5 -20.58,0 -37.45,6.75 -50.79,20.25 -13.33,13.5 -20,30.37 -20,50.62zm237.14 20.01l41.49 -3.46c3.54,19.59 10.29,33.75 20.25,42.55 9.96,8.81 22.72,13.26 38.36,13.26 13.33,0 25.02,-3.05 35.14,-9.22 10.13,-6.09 18.36,-14.24 24.7,-24.53 6.34,-10.21 11.69,-24.04 16.05,-41.4 4.36,-17.37 6.5,-35.07 6.5,-53.1 0,-1.89 -0.08,-4.85 -0.24,-8.72 -8.65,13.83 -20.5,25.1 -35.48,33.66 -14.98,8.65 -31.28,12.93 -48.73,12.93 -29.22,0 -53.92,-10.62 -74.17,-31.86 -20.16,-21.15 -30.29,-49.14 -30.29,-83.88 0,-35.88 10.54,-64.69 31.69,-86.59 21.08,-21.81 47.5,-32.76 79.35,-32.76 22.89,0 43.88,6.17 62.97,18.6 19.02,12.35 33.42,29.97 43.3,52.93 9.88,22.88 14.82,56.06 14.82,99.44 0,45.19 -4.86,81.16 -14.66,107.91 -9.79,26.83 -24.44,47.16 -43.79,61.16 -19.34,13.99 -41.98,20.99 -67.99,20.99 -27.65,0 -50.21,-7.66 -67.74,-23.05 -17.45,-15.39 -27.99,-37.04 -31.53,-64.86zm177.31 -155.99c0,-24.86 -6.59,-44.61 -19.76,-59.18 -13.09,-14.57 -29.06,-21.9 -47.82,-21.9 -19.43,0 -36.22,7.82 -50.38,23.55 -14.24,15.72 -21.32,36.13 -21.32,61.15 0,22.48 6.75,40.75 20.17,54.74 13.5,14.08 30.29,21.07 50.29,21.07 20.09,0 36.55,-6.99 49.47,-21.07 12.93,-13.99 19.35,-33.5 19.35,-58.36zm97.37 155.99l41.49 -3.46c3.54,19.59 10.29,33.75 20.25,42.55 9.96,8.81 22.72,13.26 38.36,13.26 13.33,0 25.02,-3.05 35.14,-9.22 10.13,-6.09 18.36,-14.24 24.7,-24.53 6.34,-10.21 11.69,-24.04 16.05,-41.4 4.36,-17.37 6.5,-35.07 6.5,-53.1 0,-1.89 -0.08,-4.85 -0.24,-8.72 -8.65,13.83 -20.5,25.1 -35.48,33.66 -14.98,8.65 -31.28,12.93 -48.73,12.93 -29.22,0 -53.92,-10.62 -74.17,-31.86 -20.16,-21.15 -30.29,-49.14 -30.29,-83.88 0,-35.88 10.54,-64.69 31.69,-86.59 21.08,-21.81 47.5,-32.76 79.35,-32.76 22.89,0 43.88,6.17 62.97,18.6 19.02,12.35 33.42,29.97 43.3,52.93 9.88,22.88 14.82,56.06 14.82,99.44 0,45.19 -4.86,81.16 -14.66,107.91 -9.79,26.83 -24.44,47.16 -43.79,61.16 -19.34,13.99 -41.98,20.99 -67.99,20.99 -27.65,0 -50.21,-7.66 -67.74,-23.05 -17.45,-15.39 -27.99,-37.04 -31.53,-64.86zm177.31 -155.99c0,-24.86 -6.59,-44.61 -19.76,-59.18 -13.09,-14.57 -29.06,-21.9 -47.82,-21.9 -19.43,0 -36.22,7.82 -50.38,23.55 -14.24,15.72 -21.32,36.13 -21.32,61.15 0,22.48 6.75,40.75 20.17,54.74 13.5,14.08 30.29,21.07 50.29,21.07 20.09,0 36.55,-6.99 49.47,-21.07 12.93,-13.99 19.35,-33.5 19.35,-58.36zm97.37 155.99l41.49 -3.46c3.54,19.59 10.29,33.75 20.25,42.55 9.96,8.81 22.72,13.26 38.36,13.26 13.33,0 25.02,-3.05 35.14,-9.22 10.13,-6.09 18.36,-14.24 24.7,-24.53 6.34,-10.21 11.69,-24.04 16.05,-41.4 4.36,-17.37 6.5,-35.07 6.5,-53.1 0,-1.89 -0.08,-4.85 -0.24,-8.72 -8.65,13.83 -20.5,25.1 -35.48,33.66 -14.98,8.65 -31.28,12.93 -48.73,12.93 -29.22,0 -53.92,-10.62 -74.17,-31.86 -20.16,-21.15 -30.29,-49.14 -30.29,-83.88 0,-35.88 10.54,-64.69 31.69,-86.59 21.08,-21.81 47.5,-32.76 79.35,-32.76 22.89,0 43.88,6.17 62.97,18.6 19.02,12.35 33.42,29.97 43.3,52.93 9.88,22.88 14.82,56.06 14.82,99.44 0,45.19 -4.86,81.16 -14.66,107.91 -9.79,26.83 -24.44,47.16 -43.79,61.16 -19.34,13.99 -41.98,20.99 -67.99,20.99 -27.65,0 -50.21,-7.66 -67.74,-23.05 -17.45,-15.39 -27.99,-37.04 -31.53,-64.86zm177.31 -155.99c0,-24.86 -6.59,-44.61 -19.76,-59.18 -13.09,-14.57 -29.06,-21.9 -47.82,-21.9 -19.43,0 -36.22,7.82 -50.38,23.55 -14.24,15.72 -21.32,36.13 -21.32,61.15 0,22.48 6.75,40.75 20.17,54.74 13.5,14.08 30.29,21.07 50.29,21.07 20.09,0 36.55,-6.99 49.47,-21.07 12.93,-13.99 19.35,-33.5 19.35,-58.36zm253.93 237.97l-43.46 0 0 -276.74c-10.45,10.04 -24.2,20 -41.15,29.96 -16.96,9.96 -32.27,17.46 -45.77,22.39l0 -41.98c24.28,-11.36 45.52,-25.18 63.71,-41.48 18.19,-16.22 31.11,-31.94 38.69,-47.25l27.98 0 0 355.1zm238.05 0l-43.46 0 0 -276.74c-10.45,10.04 -24.2,20 -41.15,29.96 -16.96,9.96 -32.27,17.46 -45.77,22.39l0 -41.98c24.28,-11.36 45.52,-25.18 63.71,-41.48 18.19,-16.22 31.11,-31.94 38.69,-47.25l27.98 0 0 355.1zm238.05 0l-43.46 0 0 -276.74c-10.45,10.04 -24.2,20 -41.15,29.96 -16.96,9.96 -32.27,17.46 -45.77,22.39l0 -41.98c24.28,-11.36 45.52,-25.18 63.71,-41.48 18.19,-16.22 31.11,-31.94 38.69,-47.25l27.98 0 0 355.1zm339.38 -41.49l0 41.49 -234.1 0c-0.33,-10.45 1.4,-20.5 5.11,-30.21 6,-15.89 15.64,-31.61 28.89,-47 13.25,-15.39 32.18,-33.17 56.79,-53.34 38.28,-31.52 64.29,-56.47 77.87,-74.9 13.67,-18.44 20.5,-35.89 20.5,-52.36 0,-17.2 -6.17,-31.69 -18.52,-43.54 -12.35,-11.77 -28.48,-17.7 -48.32,-17.7 -20.99,0 -37.78,6.26 -50.38,18.77 -12.59,12.43 -18.93,29.72 -19.09,51.86l-44.45 -4.45c3.04,-33.25 14.57,-58.6 34.49,-76.05 20,-17.45 46.75,-26.18 80.42,-26.18 33.91,0 60.83,9.38 80.58,28.23 19.84,18.85 29.72,42.23 29.72,70.05 0,14.16 -2.88,28.07 -8.73,41.74 -5.76,13.74 -15.39,28.15 -28.81,43.29 -13.5,15.07 -35.8,35.89 -66.92,62.23 -26.09,21.9 -42.88,36.71 -50.29,44.53 -7.41,7.82 -13.5,15.64 -18.36,23.54l173.6 0zm274.68 0l0 41.49 -234.1 0c-0.33,-10.45 1.4,-20.5 5.11,-30.21 6,-15.89 15.64,-31.61 28.89,-47 13.25,-15.39 32.18,-33.17 56.79,-53.34 38.28,-31.52 64.29,-56.47 77.87,-74.9 13.67,-18.44 20.5,-35.89 20.5,-52.36 0,-17.2 -6.17,-31.69 -18.52,-43.54 -12.35,-11.77 -28.48,-17.7 -48.32,-17.7 -20.99,0 -37.78,6.26 -50.38,18.77 -12.59,12.43 -18.93,29.72 -19.09,51.86l-44.45 -4.45c3.04,-33.25 14.57,-58.6 34.49,-76.05 20,-17.45 46.75,-26.18 80.42,-26.18 33.91,0 60.83,9.38 80.58,28.23 19.84,18.85 29.72,42.23 29.72,70.05 0,14.16 -2.88,28.07 -8.73,41.74 -5.76,13.74 -15.39,28.15 -28.81,43.29 -13.5,15.07 -35.8,35.89 -66.92,62.23 -26.09,21.9 -42.88,36.71 -50.29,44.53 -7.41,7.82 -13.5,15.64 -18.36,23.54l173.6 0zm47 -52.35l43.46 -5.92c5.03,24.69 13.42,42.47 25.36,53.34 11.93,10.86 26.58,16.29 43.95,16.29 20.58,0 37.95,-7.08 51.94,-21.23 14,-14.16 20.99,-31.69 20.99,-52.6 0,-19.92 -6.5,-36.38 -19.59,-49.39 -13,-12.92 -29.55,-19.43 -49.72,-19.43 -8.23,0 -18.43,1.65 -30.7,4.86l4.86 -38.03c2.88,0.33 5.27,0.5 6.99,0.5 18.61,0 35.23,-4.86 50.13,-14.49 14.82,-9.63 22.23,-24.45 22.23,-44.45 0,-15.89 -5.43,-29.06 -16.22,-39.51 -10.78,-10.45 -24.69,-15.64 -41.73,-15.64 -16.96,0 -31.03,5.35 -42.31,16.05 -11.28,10.7 -18.52,26.75 -21.73,48.15l-43.46 -7.9c5.35,-29.14 17.37,-51.77 36.22,-67.82 18.76,-16.06 42.22,-24.04 70.21,-24.04 19.26,0 37.04,4.12 53.26,12.43 16.29,8.23 28.72,19.51 37.28,33.75 8.65,14.32 12.93,29.47 12.93,45.52 0,15.23 -4.12,29.05 -12.27,41.57 -8.23,12.51 -20.41,22.47 -36.46,29.88 20.9,4.77 37.12,14.81 48.73,30.04 11.52,15.15 17.28,34.24 17.28,57.04 0,30.87 -11.27,57.13 -33.75,78.61 -22.55,21.49 -51.03,32.19 -85.44,32.19 -31.03,0 -56.79,-9.3 -77.29,-27.83 -20.58,-18.52 -32.27,-42.47 -35.15,-71.94zm274.68 0l43.46 -5.92c5.03,24.69 13.42,42.47 25.36,53.34 11.93,10.86 26.58,16.29 43.95,16.29 20.58,0 37.95,-7.08 51.94,-21.23 14,-14.16 20.99,-31.69 20.99,-52.6 0,-19.92 -6.5,-36.38 -19.59,-49.39 -13,-12.92 -29.55,-19.43 -49.72,-19.43 -8.23,0 -18.43,1.65 -30.7,4.86l4.86 -38.03c2.88,0.33 5.27,0.5 6.99,0.5 18.61,0 35.23,-4.86 50.13,-14.49 14.82,-9.63 22.23,-24.45 22.23,-44.45 0,-15.89 -5.43,-29.06 -16.22,-39.51 -10.78,-10.45 -24.69,-15.64 -41.73,-15.64 -16.96,0 -31.03,5.35 -42.31,16.05 -11.28,10.7 -18.52,26.75 -21.73,48.15l-43.46 -7.9c5.35,-29.14 17.37,-51.77 36.22,-67.82 18.76,-16.06 42.22,-24.04 70.21,-24.04 19.26,0 37.04,4.12 53.26,12.43 16.29,8.23 28.72,19.51 37.28,33.75 8.65,14.32 12.93,29.47 12.93,45.52 0,15.23 -4.12,29.05 -12.27,41.57 -8.23,12.51 -20.41,22.47 -36.46,29.88 20.9,4.77 37.12,14.81 48.73,30.04 11.52,15.15 17.28,34.24 17.28,57.04 0,30.87 -11.27,57.13 -33.75,78.61 -22.55,21.49 -51.03,32.19 -85.44,32.19 -31.03,0 -56.79,-9.3 -77.29,-27.83 -20.58,-18.52 -32.27,-42.47 -35.15,-71.94z"/>
 </g>
</svg>
