<svg xmlns="http://www.w3.org/2000/svg" width="1904" height="1300" viewBox="0 0 1904 1300" xmlns:xlink="http://www.w3.org/1999/xlink" shape-rendering="geometricPrecision" text-rendering="geometricPrecision" image-rendering="optimizeQuality" fill-rule="evenodd" clip-rule="evenodd"><defs><style>.str0{stroke:#e6e6e6;stroke-width:7.38193}.str2{stroke:#4d4d4d;stroke-width:4.99964}.str1{stroke:#000;stroke-width:2.36222}.fil2{fill:none}.fil5,.fil19{fill:#c4c5c5}.fil6{fill:#5c5b5b}.fil8,.fil14{fill:#000}.fil3{fill:#0CF}.fil16,.fil7{fill:#1a1a1a}.fil13{fill:#333}.fil17{fill:#606}.fil9,.fil12{fill:#666}.fil11{fill:#900}.fil1{fill:#e6e6e6}.fil10,.fil18{fill:red}.fil4,.fil15{fill:#fff}.fil0{fill:#000;fill-rule:nonzero}</style><clipPath id="id0"><path d="M1024 492h5.954v1.374H1024z"/></clipPath><clipPath id="id1"><path d="M1025 491h5.954v1.375H1025z"/></clipPath><clipPath id="id2"><path d="M1027 491v-1h4v1h-4z"/></clipPath><clipPath id="id3"><path d="M1027 489h5.954v1.374H1027z"/></clipPath><clipPath id="id4"><path d="M1028 488h5.954v1.374H1028z"/></clipPath><clipPath id="id5"><path d="M1029 486h5.954v1.374H1029z"/></clipPath><clipPath id="id6"><path d="M1030 487v-2h5v2h-5z"/></clipPath><clipPath id="id7"><path d="M1030 484h5.954v1.374H1030z"/></clipPath><clipPath id="id8"><path d="M858 496v-1h6v1h-6z"/></clipPath><clipPath id="id9"><path d="M1031 483h5.953v1.375H1031z"/></clipPath><clipPath id="id10"><path d="M1032 483v-1h5v1h-5z"/></clipPath><clipPath id="id11"><path d="M1033 481h3.664v1.374H1033z"/></clipPath><clipPath id="id12"><path d="M858 493v-2h3v2h-3z"/></clipPath><clipPath id="id13"><path d="M1033 481v-2h3v2h-3z"/></clipPath><clipPath id="id14"><path d="M1033 478h1.375v1.374H1033z"/></clipPath><clipPath id="id15"><path d="M1032 479v-3h2v3h-2z"/></clipPath><clipPath id="id16"><path d="M1031 475h1.374v1.374H1031z"/></clipPath><clipPath id="id17"><path d="M1016 502v-1h-7v1h7z"/></clipPath><clipPath id="id18"><path d="M1016 501v-3h-6v3h6z"/></clipPath><clipPath id="id19"><path d="M1016 499v-2h-4v2h4z"/></clipPath></defs><g id="Слой_x0020_1"><path class="fil0" d="M337 921h25c10 0 19 3 25 6 3 0 10 7 13 10 3 6 3 12 3 19 0 3 0 9-3 15-3 3-7 6-13 10 6 3 13 6 16 9s6 6 9 12c0 4 3 10 3 13 0 12-6 19-12 28-6 6-19 9-31 9h-35V921zm13 13v43h6c9 0 16 0 22-3 3 0 6-3 9-6 3-6 3-9 3-12 0-7-3-13-6-16s-12-6-19-6h-15zm0 56v50h15c10 0 16 0 22-3 3 0 6-3 10-10 3-3 3-6 3-12s0-9-3-16c-7-3-10-6-16-6-6-3-13-3-25-3h-6z"/><path id="_1" class="fil0" d="M440 921h13v56h9c19 0 31 4 38 4 6 3 12 6 18 12 4 6 7 13 7 22s-3 19-7 25c-6 3-9 9-18 9-7 3-16 3-35 3h-25V921zm13 119h44l9-9c3-4 6-10 6-16s-3-9-6-16c-3-3-6-6-13-6-6 0-15-3-28-3h-12v50zm87-119h13v131h-13V921z"/><path id="_2" class="fil0" d="M625 921h15l41 91 34-91h16l-50 119c-6 12-13 16-25 16-6 0-9 0-13-4-6 0-9-6-15-12l9-6c6 6 10 9 13 9h15c3-3 7-6 7-16l-47-106z"/><path id="_3" class="fil0" d="M875 946l-10 10c-6-10-12-16-22-19-6-3-15-6-25-6-12 0-21 3-28 9-9 3-18 12-22 19-6 9-6 18-6 28 0 19 3 31 16 40 9 13 25 16 40 16 19 0 35-6 47-22l10 10c-7 9-16 15-25 18-10 7-19 7-32 7-25 0-40-7-56-22-9-13-15-28-15-47s6-35 21-47c13-16 29-22 50-22 13 0 22 3 32 9 9 4 18 10 25 19z"/><path id="_4" class="fil0" d="M900 921h93v131h-12V934h-66v118h-15z"/><path id="_5" class="fil0" d="M1025 921h75v13h-60v43h60v13h-60v50h60v12h-75z"/><path id="_6" class="fil0" d="M1137 1040h56V921h13v119h56V921h13v131h-150V921h12z"/><path id="_7" class="fil0" d="M1306 921h16v56h65v-56h13v131h-13v-62h-65v62h-16z"/><path id="_8" class="fil0" d="M1493 918c22 0 38 6 50 22 13 12 22 28 22 47s-9 37-22 50c-12 12-28 19-46 19-22 0-38-7-50-19-13-13-22-28-22-47 0-16 3-25 9-38 6-9 16-18 25-25 13-6 22-9 34-9zm0 13c-9 0-18 3-25 9-9 3-15 12-21 19-4 9-7 18-7 28 0 15 3 31 16 40 9 13 25 16 37 16 13 0 22-3 29-6 9-6 15-13 21-22 4-6 7-16 7-28 0-10-3-19-7-28-6-7-12-16-21-19-7-6-16-9-29-9z"/><path id="_9" class="fil0" d="M12 1162c10-9 19-15 35-15 9 0 18 3 25 9 6 6 9 13 9 22 0 16-6 25-19 31 19 7 25 16 25 35 0 12-3 22-9 28-10 9-19 12-31 12-10 0-19-3-25-6-7-3-16-9-19-22l9-6c6 9 13 16 16 19 6 3 12 3 15 3 10 0 16-3 22-6 7-7 10-13 10-22 0-3 0-10-3-13-4-3-4-6-10-9-3-3-6-3-9-3H34v-13h6c19 0 28-9 28-25 0-6-3-12-6-15-6-7-9-7-19-7-6 0-15 3-21 10l-10-7z"/><path id="_10" class="fil0" d="M168 1140l60 131h-13l-22-44h-56l-19 44h-15l62-131h3zm-3 28l-22 47h44l-22-47z"/><path id="_11" class="fil0" d="M250 1140h56c6 3 12 6 19 12 3 7 6 13 6 22 0 10-3 16-6 22-7 6-13 10-19 13h-44v62h-12v-131zm12 12v44h22c9 0 16 0 19-3 6 0 9-3 12-6 0-3 3-10 3-13s-3-9-3-12c-3-3-6-6-9-6-6-4-13-4-22-4h-22z"/><path id="_12" class="fil0" d="M356 1140h75v12h-59v41h59v13h-59v53h59v12h-75z"/><path id="_13" class="fil0" d="M468 1271h-12v-131h66v12h-54z"/><path id="_14" class="fil0" d="M643 1271h-15v-100l-85 100h-3v-131h13v103l87-103h3z"/><path id="_15" class="fil0" d="M797 1175l-13 6c-3-6-12-12-19-15-9-4-15-7-28-7-9 0-19 3-28 7-9 6-16 12-19 21-6 7-9 19-9 29 0 15 6 28 16 40 12 10 25 16 43 16 19 0 32-6 44-22l13 6c-7 10-16 16-25 22-10 3-22 6-35 6-22 0-40-9-53-25-9-12-16-28-16-43 0-22 7-38 19-50 16-13 31-19 50-19 13 0 25 3 35 6 9 6 18 13 25 22z"/><path id="_16" class="fil0" d="M809 1152v-12h72v12h-28v119h-16v-119z"/><path id="_17" class="fil0" d="M900 1140h56c6 3 12 6 19 12 3 7 6 13 6 22 0 10-3 16-6 22-7 6-13 10-19 13h-44v62h-12v-131zm12 12v44h22c9 0 16 0 22-3 3 0 6-3 9-6 0-3 3-10 3-13s-3-9-3-12c-3-3-6-6-9-6-6-4-13-4-19-4h-25z"/><path id="_18" class="fil0" d="M1112 1271h-15v-100l-85 100h-3v-131h13v103l87-103h3z"/><path id="_19" class="fil0" d="M1143 1140h57c6 3 12 6 18 12 4 7 7 13 7 22 0 10-3 16-7 22-6 6-12 10-18 13h-44v62h-13v-131zm13 12v44h22c9 0 15 0 19-3 6 0 9-3 9-6 3-3 6-10 6-13s-3-9-6-12c0-3-3-6-9-6-4-4-10-4-19-4h-22z"/><path id="_20" class="fil0" d="M1312 1147c19 0 38 6 50 19 13 12 19 31 19 50 0 18-6 34-19 46-12 16-28 22-50 22-19 0-34-6-47-22-12-12-22-28-22-46 0-13 4-25 10-35 6-12 15-19 25-25 12-6 22-9 34-9zm0 12c-9 0-19 3-25 7-9 6-15 12-22 21-6 10-6 19-6 29 0 15 3 28 16 40 9 10 22 16 37 16 13 0 22-3 28-10 10-3 16-9 22-18 3-10 6-19 6-28 0-13-3-22-6-29-6-9-12-15-22-21-9-4-18-7-28-7z"/><path id="_21" class="fil0" d="M1409 1140h25c13 0 19 0 25 3s9 6 13 13c3 3 6 9 6 15s-3 13-6 16c-4 6-7 9-13 12 9 3 13 7 16 10 6 3 6 6 9 9 3 6 3 9 3 16 0 9-3 18-12 25-7 9-16 12-32 12h-34v-131zm13 12v41h28l9-9c3-3 3-7 3-13s0-9-6-12c-3-3-9-7-19-7h-15zm0 57v50h15c10 0 19-3 22-3 3-4 9-7 9-10 4-3 7-9 7-12 0-7-3-13-7-16-3-3-9-6-15-9h-31z"/><path id="_22" class="fil0" d="M1568 1140l60 131h-13l-22-44h-56l-22 44h-12l59-131h6zm-3 28l-22 47h44l-22-47z"/><path id="_23" class="fil0" d="M1647 1140h15v53h66v-53h12v131h-12v-62h-66v62h-15z"/><path id="_24" class="fil0" d="M1772 1140h15v56h10c15 0 28 0 34 3 9 0 16 3 19 10 6 6 6 15 6 25 0 9 0 15-6 22-3 6-10 9-16 12-6 0-19 3-34 3h-28v-131zm15 119h13c15 0 25-3 28-3 6 0 9-4 12-7 3-6 3-9 3-15 0-7-3-13-6-16-3-6-6-6-12-9h-38v50zm85-119h12v131h-12v-131z"/><path class="fil1" d="M956 43l119 341 384-3-312 209 121 337-312-209-313 209 119-337-312-209 387 3z"/><path class="fil1" d="M1328 521h10.348v266.69H1328z"/><path class="fil1" d="M1293 474l88 66-13 19-90-60z"/><path class="fil1" d="M1312.17 486.23l13.33 8.13-19.696 32.297-13.33-8.13z"/><path class="fil2 str0" d="M1375 549c6-3 12 22 15 35 7 9-31 68-25 112 0 6-9 94 0 94"/><path class="fil3" d="M926 23l119 341 384-3-312 209 121 337-312-209-313 209 119-337-312-209 387 3z"/><path class="fil4" d="M868 433h129l35 26v250H836V452z"/><path class="fil5" d="M937 226c63 0 114 51 114 114 0 62-51 113-114 113s-114-51-114-113c0-63 51-114 114-114z"/><path class="fil6" d="M937 226c51 0 95 34 109 81 2 22-116-12-145-56-6 8-60 50-72 53 15-46 58-78 108-78z"/><g clip-path="url(#id0)"><image x="1024" y="492" width="5.954" height="1.374" xlink:href="welcom_Images\welcom_ImgID1.png"/></g><g clip-path="url(#id1)"><image x="1025" y="491" width="5.954" height="1.374" xlink:href="welcom_Images\welcom_ImgID2.png"/></g><g clip-path="url(#id2)"><image x="1026" y="490" width="5.038" height="1.374" xlink:href="welcom_Images\welcom_ImgID3.png"/></g><g clip-path="url(#id3)"><image x="1027" y="489" width="5.954" height="1.374" xlink:href="welcom_Images\welcom_ImgID4.png"/></g><g clip-path="url(#id4)"><image x="1028" y="488" width="5.954" height="1.374" xlink:href="welcom_Images\welcom_ImgID5.png"/></g><g clip-path="url(#id5)"><image x="1029" y="486" width="5.954" height="1.374" xlink:href="welcom_Images\welcom_ImgID6.png"/></g><g clip-path="url(#id6)"><image x="1030" y="485" width="5.038" height="1.374" xlink:href="welcom_Images\welcom_ImgID7.png"/></g><g clip-path="url(#id7)"><image x="1030" y="484" width="5.954" height="1.374" xlink:href="welcom_Images\welcom_ImgID8.png"/></g><g clip-path="url(#id8)"><image x="858" y="495" width="5.954" height="1.374" xlink:href="welcom_Images\welcom_ImgID9.png"/></g><g clip-path="url(#id9)"><image x="1031" y="483" width="5.954" height="1.374" xlink:href="welcom_Images\welcom_ImgID10.png"/></g><g clip-path="url(#id10)"><image x="1032" y="482" width="5.038" height="1.374" xlink:href="welcom_Images\welcom_ImgID11.png"/></g><g clip-path="url(#id11)"><image x="1033" y="481" width="3.664" height="1.374" xlink:href="welcom_Images\welcom_ImgID12.png"/></g><g clip-path="url(#id12)"><image x="858" y="491" width="3.664" height="1.374" xlink:href="welcom_Images\welcom_ImgID13.png"/></g><g clip-path="url(#id13)"><image x="1033" y="480" width="2.748" height="1.374" xlink:href="welcom_Images\welcom_ImgID14.png"/></g><g clip-path="url(#id14)"><image x="1033" y="478" width="1.374" height="1.374" xlink:href="welcom_Images\welcom_ImgID15.png"/></g><g clip-path="url(#id15)"><image x="1032" y="476" width="1.374" height="2.748" xlink:href="welcom_Images\welcom_ImgID16.png"/></g><g clip-path="url(#id16)"><image x="1031" y="475" width="1.374" height="1.374" xlink:href="welcom_Images\welcom_ImgID17.png"/></g><path class="fil7" d="M803 476l35 1 99 238 95-237 1-1 36-1c24-1 44 20 44 46v240H759V522c0-26 20-47 44-46z"/><circle class="fil8 str1" cx="935" cy="643" r="3"/><path class="fil9" d="M1033 642h58.012v7.634H1033z"/><path class="fil4" d="M1077 623l-14-15-30 34h56z"/><path class="fil10" d="M934 488l-59-25 5 63 51-28z"/><path class="fil10" d="M929 487l61-21-3 61-61-31z"/><path class="fil11" d="M925 480h17.18v23.823H925z"/><path class="fil12" d="M1170 523h9.16v236.075H1170z"/><path class="fil13" d="M1168 483l76 57-10 16-81-52z"/><circle class="fil14 str1" cx="1141" cy="480" r="27"/><path class="fil7" d="M1184.21 492.453l11.8 7.197-17.436 28.59-11.8-7.198z"/><path class="fil2 str1" d="M817 515c6-2 11 20 15 29 5 10-29 62-24 99 1 7-8 84 0 86"/><path class="fil13" d="M1166 657h19.847v52.447H1166z"/><path class="fil15 str2" d="M786 519l54-72 63 191-19-17z"/><path class="fil15 str2" d="M823 587l44-47 59 162-20-21z"/><g clip-path="url(#id17)"><image transform="matrix(-1.6402 0 0 1.52663 1015.38 500.776)" width="3.9" height=".9" xlink:href="welcom_Images\welcom_ImgID18.png"/></g><g clip-path="url(#id18)"><image transform="matrix(-1.6402 0 0 1.52663 1015.63 498.258)" width="3.3" height="1.8" xlink:href="welcom_Images\welcom_ImgID19.png"/></g><g clip-path="url(#id19)"><image transform="matrix(-1.6402 0 0 1.52663 1015.38 497.34)" width="2.4" height=".9" xlink:href="welcom_Images\welcom_ImgID20.png"/></g><circle class="fil8 str1" cx="932" cy="557" r="3"/><rect class="fil11" x="925" y="480" width="18.458" height="14.924" rx="2" ry="1"/><path class="fil15 str2" d="M1090 515l-58-65-64 190 19-18z"/><path class="fil15 str2" d="M1053 594l-50-53-58 162 17-14z"/><path class="fil16" d="M770 491l19 122-95 66-47-48z"/><path class="fil17" d="M574 579h128l38 183-128-1z"/><path class="fil18" d="M680 665l-13 12 9 17-16-9-12 12 2-18-16-9 18-2 2-18 8 17z"/><rect class="fil19" x="584" y="691" width="35.112" height="50.379" rx="13" ry="13"/></g></svg>