<?xml version="1.0" encoding="UTF-8"?>
<!DOCTYPE svg PUBLIC "-//W3C//DTD SVG 1.1//EN" "http://www.w3.org/Graphics/SVG/1.1/DTD/svg11.dtd">
<!-- Creator: CorelDRAW 2017 -->
<svg xmlns="http://www.w3.org/2000/svg" xml:space="preserve" width="118.533mm" height="118.533mm" version="1.1" style="shape-rendering:geometricPrecision; text-rendering:geometricPrecision; image-rendering:optimizeQuality; fill-rule:evenodd; clip-rule:evenodd"
viewBox="0 0 11853.32 11853.32"
 xmlns:xlink="http://www.w3.org/1999/xlink">
 <defs>
  <style type="text/css">
   <![CDATA[
    .str0 {stroke:#1A1A1A;stroke-width:62.49;stroke-miterlimit:22.9256}
    .fil0 {fill:#C5C6C6}
    .fil5 {fill:black}
    .fil4 {fill:#1A1A1A}
    .fil3 {fill:#58351B}
    .fil6 {fill:#666666}
    .fil9 {fill:#990000}
    .fil1 {fill:#CC3300}
    .fil12 {fill:#E81515}
    .fil16 {fill:#F71111}
    .fil2 {fill:#FCD5A6}
    .fil8 {fill:red}
    .fil13 {fill:red}
    .fil15 {fill:#FFED00}
    .fil17 {fill:yellow}
    .fil7 {fill:white}
    .fil10 {fill:#336699;fill-rule:nonzero}
    .fil11 {fill:#E81515;fill-rule:nonzero}
    .fil14 {fill:red;fill-rule:nonzero}
    .fil18 {fill:yellow;fill-rule:nonzero}
   ]]>
  </style>
 </defs>
 <g id="Слой_x0020_1">
  <metadata id="CorelCorpID_0Corel-Layer"/>
  <polygon class="fil0" points="-55.83,9342.4 -55.83,11404.6 11852.23,11404.6 11852.23,10105.85 7762.95,10070.75 7762.95,8614.06 4033.45,8614.06 4033.45,9342.4 "/>
  <path class="fil1" d="M5025.06 6964.3l0 1140.79c0,386.11 412.44,508.97 631.82,324.68 166.73,-131.63 166.73,-324.68 166.73,-605.5l0 -1518.12 0 -1526.89 280.8 0c61.44,35.1 35.1,157.95 35.1,289.58l0 2878.3c0,386.11 122.86,640.59 561.62,544.06 35.1,-35.1 228.16,-96.53 228.16,-351.01l0 -1772.6c0,-412.44 26.33,-789.78 26.33,-1175.89l0 -1167.11 -1956.89 0 0 1483.02c26.32,482.64 26.32,982.83 26.32,1456.69l0 0 0 0 0.01 0z"/>
  <path class="fil2" d="M5990.34 444.27c412.43,0 728.35,315.91 728.35,763.45 0,412.43 -315.92,754.67 -728.35,754.67 -438.77,0 -754.67,-342.24 -754.67,-754.67 0,-447.55 315.91,-763.45 754.67,-763.45z"/>
  <path class="fil3" d="M5990.34 444.27c315.91,0 631.82,219.38 702.03,535.29 26.32,157.95 -763.45,-96.53 -947.74,-377.34 -131.63,166.73 -412.43,351.02 -482.64,351.02 96.53,-289.59 386.11,-508.97 728.35,-508.97l0 0z"/>
  <path class="fil4" d="M5077.71 2094.02l254.49 26.32 658.15 1588.33 631.82 -1588.33 228.16 -26.32c157.95,0 315.91,157.95 315.91,315.91l0 3246.86 -877.52 0c-175.51,-17.55 -289.59,-122.85 -315.92,-272.04 -52.65,122.86 -61.43,272.04 -289.58,272.04l-895.08 0 0 -3246.86c0,-157.95 131.63,-315.91 289.58,-315.91l0 0 0 0 -0.01 0z"/>
  <circle class="fil5 str0" cx="5964.02" cy="3234.81" r="35.1"/>
  <polygon class="fil6" points="6622.17,3199.71 7008.27,3199.71 7008.27,3252.36 6622.17,3252.36 "/>
  <polygon class="fil7" points="6911.75,3076.85 6815.22,2918.9 6622.17,3199.71 7008.27,3199.71 "/>
  <path class="fil8" d="M5946.46 2181.77l-394.89 -157.95c17.56,140.41 0,351.02 61.43,412.44l307.14 -175.51 386.11 175.51c17.56,-131.63 61.43,-263.26 35.1,-412.44l-394.89 157.95z"/>
  <circle class="fil5 str0" cx="5964.02" cy="2664.42" r="35.1"/>
  <path class="fil7" d="M6753.79 2717.07c61.43,70.2 96.53,78.98 43.87,131.63l-886.3 1035.49 70.2 -193.05c193.05,-552.85 412.44,-1105.69 587.94,-1676.09l8.78 -35.1 429.99 96.53 -61.43 605.5c-8.78,61.43 -43.88,52.66 -105.31,43.88l-87.75 -8.78 0.01 -0.01z"/>
  <path class="fil4" d="M6946.85 2111.57l-368.56 -87.75c-166.73,552.84 -394.89,1123.24 -587.94,1684.85l763.45 -912.63 -96.53 -131.63 228.16 26.32 61.43 -579.16 -0.01 0z"/>
  <ellipse class="fil2" cx="2892.67" cy="1523.63" rx="315.9" ry="254.48"/>
  <ellipse class="fil2" cx="9412.7" cy="1523.63" rx="351.01" ry="193.05"/>
  <path class="fil9" d="M4989.96 8298.15l728.35 0c70.2,0 122.85,70.2 122.85,149.19l0 0c0,87.75 -52.65,157.95 -122.85,157.95l-728.35 0c-70.2,0 -122.85,-70.2 -122.85,-157.95l0 0c0,-78.98 52.65,-149.19 122.85,-149.19z"/>
  <path class="fil9" d="M6218.5 8298.15l719.57 0c70.2,0 131.63,70.2 131.63,149.19l0 0c0,87.75 -61.43,157.95 -131.63,157.95l-719.57 0c-70.2,0 -131.63,-70.2 -131.63,-157.95l0 0c0,-78.98 61.43,-149.19 131.63,-149.19z"/>
  <path class="fil10" d="M5972.79 10123.41c0,70.2 -26.32,105.31 -78.97,105.31 -52.66,0 -87.76,-35.1 -87.76,-105.31l0 -816.1c0,-70.2 35.1,-105.31 87.76,-105.31 52.65,0 78.97,35.1 78.97,105.31l0 816.1z"/>
  <path class="fil10" d="M1629.03 10737.68c0,70.2 -35.1,105.31 -87.75,105.31 -52.66,0 -78.98,-35.1 -78.98,-105.31l0 -816.1c0,-70.2 26.32,-114.08 78.98,-114.08 52.65,0 87.75,43.88 87.75,114.08l0 816.1z"/>
  <path class="fil10" d="M2006.37 10737.68c0,70.2 -26.33,105.31 -78.98,105.31 -61.43,0 -87.75,-35.1 -87.75,-105.31l0 -816.1c0,-70.2 26.32,-114.08 87.75,-114.08 52.65,0 78.98,43.88 78.98,114.08l0 816.1z"/>
  <path class="fil10" d="M9377.6 11176.44c0,70.2 -26.32,105.31 -87.75,105.31 -52.66,0 -78.98,-35.1 -78.98,-105.31l0 -816.1c0,-70.2 26.32,-105.31 78.98,-105.31 61.43,0 87.75,35.1 87.75,105.31l0 816.1z"/>
  <path class="fil10" d="M9746.16 11176.44c0,70.2 -26.32,105.31 -78.98,105.31 -61.43,0 -87.75,-35.1 -87.75,-105.31l0 -816.1c0,-70.2 26.32,-105.31 87.75,-105.31 52.66,0 78.98,35.1 78.98,105.31l0 816.1z"/>
  <path class="fil10" d="M10123.5 11176.44c0,70.2 -35.1,105.31 -87.76,105.31 -52.65,0 -78.97,-35.1 -78.97,-105.31l0 -816.1c0,-70.2 26.32,-105.31 78.97,-105.31 52.66,0 87.76,35.1 87.76,105.31l0 816.1z"/>
  <path class="fil4" d="M3296.33 1234.04l1623.43 1140.79 -96.53 921.4 -1842.81 -1430.37 315.91 -631.82zm5703.94 61.43l-1965.67 1079.37 96.53 859.97 2281.57 -1333.84 -412.43 -605.5z"/>
  <path class="fil7" d="M5218.11 2690.74c-61.43,78.98 -96.53,78.98 -43.87,140.41l798.54 930.18 17.56 -87.76c-193.05,-561.62 -412.44,-1114.46 -587.94,-1676.08l-8.78 -35.1 -429.99 96.53 61.43 596.72c8.78,61.43 43.88,52.65 105.31,43.88l87.75 -8.78 -0.01 0z"/>
  <path class="fil4" d="M5025.06 2085.25l368.56 -78.97c166.73,552.84 386.11,1123.24 587.94,1676.08l-763.45 -903.86 96.53 -131.63 -228.16 26.32 -61.43 -587.94 0.01 0z"/>
  <path class="fil5" d="M5823.61 611c280.8,263.26 702.03,403.67 824.88,333.46 -315.92,0 -658.15,-184.29 -824.88,-333.46z"/>
  <path class="fil5" d="M5867.49 575.9c228.16,219.38 570.39,324.68 658.15,272.04 -245.71,0 -517.75,-149.19 -658.15,-272.04z"/>
  <path class="fil5" d="M5727.09 593.45c-131.63,149.19 -324.68,254.49 -377.34,228.17 140.41,-26.33 298.36,-140.41 377.34,-228.17z"/>
  <path class="fil11" d="M5683.21 2146.67c17.56,8.78 219.38,26.33 193.05,61.44 -43.87,-35.1 -210.6,-26.33 -193.05,-61.44z"/>
  <path class="fil11" d="M5700.76 2251.98c17.55,0 184.28,-70.2 184.28,-26.32 -52.65,-8.78 -184.28,70.2 -184.28,26.32z"/>
  <path class="fil11" d="M6218.5 2129.13c-17.56,8.78 -236.93,52.65 -210.61,87.75 52.66,-35.1 236.93,-43.87 210.61,-87.75z"/>
  <path class="fil11" d="M6200.94 2251.98c-17.55,8.78 -201.82,-61.43 -201.82,-17.55 61.43,-8.78 201.82,70.2 201.82,17.55z"/>
  <path class="fil12" d="M5893.82 2137.9c43.87,8.77 61.43,0 96.53,0 8.78,0 26.32,8.77 17.55,26.32 -8.77,43.88 0,78.98 0,114.08 8.78,8.77 -8.77,17.55 -26.32,8.77 -35.1,-8.77 -52.65,8.78 -87.75,8.78 -8.78,0 -26.33,-8.78 -26.33,-17.55 0,-43.88 8.78,-70.2 0,-114.08 0,-17.56 17.56,-26.32 26.33,-26.32l-0.01 0z"/>
  <polygon class="fil13" points="3752.65,3629.7 3612.24,3506.84 3717.55,3331.34 3542.04,3427.87 3419.19,3287.46 3463.06,3462.97 3278.78,3550.72 3471.83,3559.5 3480.61,3761.33 3559.58,3585.82 "/>
  <polygon class="fil13" points="3006.74,4559.88 2910.22,4472.13 2980.42,4349.27 2866.34,4410.7 2778.59,4314.17 2804.91,4437.02 2673.28,4498.45 2813.69,4507.23 2813.69,4647.63 2875.11,4524.77 "/>
  <polygon class="fil13" points="3594.69,5621.69 3471.83,5507.61 3568.36,5349.65 3410.41,5437.41 3296.33,5305.78 3331.43,5472.51 3164.7,5542.71 3340.2,5560.26 3348.98,5744.54 3427.95,5577.81 "/>
  <polygon class="fil13" points="4208.96,4665.18 3998.35,4472.13 4165.08,4208.87 3901.82,4358.04 3717.55,4138.66 3770.19,4410.7 3498.16,4533.55 3796.52,4559.88 3805.3,4858.24 3928.15,4594.98 "/>
  <path class="fil14" d="M1988.81 8078.77c43.88,-1009.16 684.47,-2044.64 1316.29,-2395.66 -280.8,122.86 -1316.29,1228.54 -1210.99,2351.78l0 0c8.78,8.78 8.78,8.78 8.78,17.56l-114.08 26.32z"/>
  <path class="fil14" d="M1453.52 8113.87c70.2,-1465.48 1000.39,-2974.82 1930.57,-3492.57 -403.67,175.51 -1921.79,1798.94 -1763.84,3431.15l0 0c0,17.55 8.78,26.32 8.78,26.32l-175.51 35.1z"/>
  <path class="fil14" d="M909.45 8219.17c96.53,-1965.66 1342.62,-3983.98 2579.93,-4677.22 -544.07,236.93 -2571.16,2404.43 -2360.56,4598.25l0 0c8.78,17.55 8.78,26.32 8.78,35.1l-228.16 43.87 0.01 0z"/>
  <polygon class="fil15" points="5121.59,1813.22 5016.28,1725.46 5095.26,1602.61 4972.41,1672.81 4884.65,1567.51 4910.99,1690.36 4788.13,1751.78 4928.53,1760.56 4928.53,1900.97 4989.96,1778.12 "/>
  <polygon class="fil13" points="2840.01,3682.35 2796.14,3638.47 2831.24,3585.82 2778.59,3612.15 2743.48,3568.27 2752.26,3629.7 2699.61,3656.03 2761.04,3656.03 2761.04,3717.45 2787.36,3664.79 "/>
  <polygon class="fil13" points="4375.69,3884.18 4279.16,3796.42 4358.14,3673.57 4235.28,3735 4147.54,3638.47 4173.86,3761.33 4051.01,3822.76 4182.64,3831.53 4191.41,3971.93 4244.06,3849.08 "/>
  <polygon class="fil13" points="4024.67,5323.33 3980.8,5288.22 4015.91,5235.58 3963.25,5261.9 3919.38,5218.02 3936.92,5270.68 3875.5,5297 3936.92,5305.78 3945.7,5367.21 3963.25,5314.55 "/>
  <polygon class="fil16" points="7552.35,1839.54 7508.47,1804.44 7543.57,1751.78 7490.91,1778.12 7447.04,1734.24 7464.59,1786.89 7403.16,1813.22 7464.59,1821.99 7464.59,1883.41 7490.91,1830.77 "/>
  <polygon class="fil17" points="8570.28,3629.7 8710.68,3506.84 8605.38,3331.34 8772.11,3427.87 8894.96,3287.46 8859.86,3462.97 9044.14,3550.72 8842.3,3559.5 8842.3,3761.33 8754.56,3585.82 "/>
  <polygon class="fil17" points="9316.17,4559.88 9412.7,4472.13 9333.73,4349.27 9456.58,4410.7 9544.33,4314.17 9518.01,4437.02 9640.86,4498.45 9509.23,4507.23 9500.46,4647.63 9447.8,4524.77 "/>
  <polygon class="fil17" points="8719.45,5621.69 8851.08,5507.61 8754.56,5349.65 8912.51,5437.41 9026.59,5305.78 8991.49,5472.51 9158.22,5542.71 8982.71,5560.26 8973.93,5744.54 8894.96,5577.81 "/>
  <polygon class="fil17" points="8113.96,4665.18 8324.57,4472.13 8157.84,4208.87 8421.09,4358.04 8605.38,4138.66 8552.72,4410.7 8824.76,4533.55 8526.4,4559.88 8517.62,4858.24 8394.77,4594.98 "/>
  <path class="fil18" d="M10334.1 8078.77c-43.87,-1009.16 -684.47,-2044.64 -1316.29,-2395.66 280.81,122.86 1316.29,1228.54 1202.22,2351.78l0 0c0,8.78 0,8.78 0,17.56l114.07 26.32z"/>
  <path class="fil18" d="M10860.62 8113.87c-70.2,-1465.48 -1000.38,-2974.82 -1921.78,-3492.57 403.66,175.51 1921.78,1798.94 1763.83,3431.15l0 0c-8.78,17.55 -8.78,26.32 -8.78,26.32l166.73 35.1z"/>
  <path class="fil18" d="M11413.47 8219.17c-96.53,-1965.66 -1342.63,-3983.98 -2579.93,-4677.22 544.06,236.93 2571.16,2404.43 2351.77,4598.25l0 0c0,17.55 0,26.32 0,35.1l228.17 43.87 -0.01 0z"/>
  <polygon class="fil17" points="9482.9,3682.35 9518.01,3638.47 9491.68,3585.82 9544.33,3612.15 9579.43,3568.27 9570.65,3629.7 9623.31,3656.03 9561.89,3656.03 9561.89,3717.45 9535.55,3664.79 "/>
  <polygon class="fil17" points="7938.46,3884.18 8043.76,3796.42 7964.78,3673.57 8087.63,3735 8175.39,3638.47 8149.06,3761.33 8271.92,3822.76 8131.51,3831.53 8131.51,3971.93 8070.09,3849.08 "/>
  <polygon class="fil17" points="8298.24,5323.33 8342.12,5288.22 8307.02,5235.58 8359.67,5261.9 8394.77,5218.02 8385.99,5270.68 8438.65,5297 8377.22,5305.78 8377.22,5367.21 8350.89,5314.55 "/>
  <polygon class="fil8" points="7376.84,1541.18 7280.31,1453.42 7350.51,1321.79 7236.43,1392 7148.68,1295.47 7175.01,1418.33 7043.38,1479.76 7183.78,1488.53 7192.55,1628.93 7245.21,1506.08 "/>
  <polygon class="fil13" points="3506.94,2594.22 3445.51,2541.56 3489.39,2462.59 3419.19,2506.47 3357.76,2436.26 3375.31,2524.01 3296.33,2559.11 3384.08,2567.89 3384.08,2655.64 3427.95,2576.66 "/>
  <polygon class="fil15" points="5130.37,1295.47 5086.49,1251.6 5121.59,1198.94 5068.94,1234.04 5033.84,1181.4 5042.62,1242.82 4989.96,1269.15 5051.38,1269.15 5051.38,1330.57 5077.71,1277.92 "/>
  <polygon class="fil16" points="7991.1,1470.98 7947.23,1435.88 7982.33,1383.23 7929.68,1409.55 7894.58,1365.67 7903.35,1418.33 7850.7,1444.66 7912.13,1453.42 7912.13,1514.86 7938.46,1453.42 "/>
 </g>
</svg>
