<?xml version="1.0" encoding="UTF-8"?>
<!DOCTYPE svg PUBLIC "-//W3C//DTD SVG 1.1//EN" "http://www.w3.org/Graphics/SVG/1.1/DTD/svg11.dtd">
<!-- Creator: CorelDRAW 2017 -->
<svg xmlns="http://www.w3.org/2000/svg" xml:space="preserve" width="132.417mm" height="118.533mm" version="1.1" style="shape-rendering:geometricPrecision; text-rendering:geometricPrecision; image-rendering:optimizeQuality; fill-rule:evenodd; clip-rule:evenodd"
viewBox="0 0 13241.74 11853.32"
 xmlns:xlink="http://www.w3.org/1999/xlink">
 <defs>
  <style type="text/css">
   <![CDATA[
    .str0 {stroke:#5B5D5E;stroke-width:169.33;stroke-miterlimit:22.9256}
    .str1 {stroke:black;stroke-width:20;stroke-miterlimit:22.9256}
    .str3 {stroke:#00AEBE;stroke-width:7.62;stroke-miterlimit:22.9256}
    .str2 {stroke:#DD0B29;stroke-width:7.62;stroke-miterlimit:22.9256}
    .fil0 {fill:black}
    .fil8 {fill:#2792E4}
    .fil2 {fill:#5B5D5E}
    .fil7 {fill:#5FAD2F}
    .fil3 {fill:#999999}
    .fil11 {fill:#CCCCCC}
    .fil9 {fill:#DD0B29}
    .fil5 {fill:#E62B2B}
    .fil10 {fill:#FFDD00}
    .fil1 {fill:white}
    .fil4 {fill:black;fill-rule:nonzero}
    .fil12 {fill:#2792E4;fill-rule:nonzero}
    .fil13 {fill:#4D4D4D;fill-rule:nonzero}
    .fil14 {fill:gray;fill-rule:nonzero}
    .fil6 {fill:white;fill-rule:nonzero}
   ]]>
  </style>
 </defs>
 <g id="Layer_x0020_1">
  <metadata id="CorelCorpID_0Corel-Layer"/>
  <g id="_1010239512">
   <path class="fil0 str0" d="M3308.14 270.92l7467.94 0c494.3,0 895.16,395.09 895.16,882.29l0 9590.65c0,487.18 -400.86,882.27 -895.16,882.27l-7467.94 0.01c-494.29,-0.01 -895.16,-395.1 -895.16,-882.29l-0.01 -9590.64c0.01,-487.2 400.88,-882.29 895.18,-882.29l-0.01 0z"/>
   <polygon class="fil1 str1" points="2744.5,10531.45 11389.39,10531.45 11389.39,1071.51 2744.5,1071.51 "/>
   <path class="fil2 str1" d="M7523.38 11030.45c0,-275.26 -222.74,-498.4 -497.5,-498.4 -274.76,0 -497.5,223.14 -497.5,498.4 0,275.26 222.74,498.4 497.5,498.4 274.76,0 497.5,-223.14 497.5,-498.4z"/>
   <path class="fil3 str1" d="M6133.82 536.15l1882.86 0c54.55,0 98.77,45.55 98.77,101.75l0 0.01c0,56.19 -44.22,101.76 -98.77,101.76l-1882.86 0c-54.54,0 -98.76,-45.57 -98.76,-101.76l-0.01 -0.01c0.01,-56.2 44.23,-101.75 98.78,-101.75l-0.01 0z"/>
   <path class="fil4" d="M4964.15 1647.05l298.47 -34.57 113.69 407.62 114.03 -433.99 297.11 -34.4 0 691.54 -185.12 21.43 0 -527.18 -142.84 543.72 -167.73 19.43 -142.51 -510.69 0 527.19 -185.1 21.43 0 -691.53zm893.69 -103.49l251.25 -29.1 148.12 215.62 147.44 -249.84 249.9 -28.94 -284.32 434.87 0 289.59 -227.05 26.29 0 -289.59 -285.34 -368.9z"/>
   <path class="fil4" d="M5907.87 2374.92l688.31 -79.7 0 170.95 -231.14 26.77 0 520.58 -226.03 26.17 0 -520.58 -231.14 26.77 0 -170.96zm789.72 -91.44l605.46 -70.12 0 147.77 -378.42 43.82 0 110.11 350.8 -40.62 0 141.01 -350.8 40.62 0 136.18 389.66 -45.11 0 156.46 -616.7 71.41 0 -691.53zm740.63 -85.77l211.2 -24.46 274.59 350.04 0 -381.83 213.76 -24.75 0 691.53 -213.76 24.76 -273.06 -348.12 0 379.73 -212.73 24.64 0 -691.54zm852.95 -98.76l336.31 -38.94c66.14,-7.66 119.83,-5.35 160.58,6.84 40.73,12.34 74.48,32.74 101.24,61.35 26.59,28.8 45.86,63.43 57.79,104.23 12.1,40.76 18.06,84.67 18.06,131.83 0,73.89 -8.86,132.22 -26.76,175.01 -17.72,42.78 -42.44,79.78 -74.14,110.97 -31.71,31.2 -65.63,53.48 -101.94,66.85 -49.6,18.31 -94.6,29.79 -134.83,34.46l-336.31 38.94 0 -691.54zm226.03 130.28l0 377.64 55.56 -6.43c47.4,-5.49 81.14,-14.39 101.26,-26.53 19.94,-12.29 35.63,-31.34 47.05,-57.29 11.41,-26.11 17.04,-66.68 17.04,-122.05 0,-73.24 -12.62,-121.85 -38.01,-145.95 -25.41,-24.11 -67.5,-32.75 -126.31,-25.94l-56.59 6.55z"/>
   <polygon class="fil5 str2" points="4703.17,3332.56 9540.9,2725.14 9540.9,3071.35 4703.17,3678.76 "/>
   <path class="fil6" d="M5003.03 3575.19l-40.68 5.1 -16.12 -45 -74.83 9.39 -15.5 48.98 -39.96 5.01 72.44 -215.66 39.91 -5.01 74.74 197.19zm-69.05 -73.26l-25.93 -73.21 -25.18 79.62 51.11 -6.41zm60.06 -132.19l42.43 -5.32 43.43 101.48 37.18 -111.6 39.29 -4.94 -63.1 164.92c-6.86,17.88 -13.85,31.7 -20.97,41.48 -7.12,9.79 -16.28,15.37 -27.58,16.79 -11.12,1.4 -19.79,1.66 -26.05,0.87l0 -31.06c5.33,-0.29 10.16,-0.7 14.46,-1.25 8.68,-1.08 14.94,-3.65 18.71,-7.63 3.74,-4.02 7.38,-12.13 10.82,-24.25l-68.62 -139.49zm181.75 -22.81l37.78 -4.75 0 87.99c8.38,-2.01 14.07,-5.08 17.02,-9.34 2.95,-4.22 7.56,-15.53 13.72,-33.89 7.77,-23.34 15.64,-38.27 23.5,-44.69 7.81,-6.42 20.37,-10.74 37.73,-12.91 0.87,-0.11 2.7,-0.39 5.48,-0.84l0 30.88 -5.34 0.52c-7.73,0.96 -13.38,2.73 -16.94,5.3 -3.56,2.56 -6.42,6.15 -8.64,10.75 -2.22,4.61 -5.47,13.91 -9.77,27.91 -2.3,7.45 -4.78,13.73 -7.47,18.88 -2.65,5.14 -7.38,10.25 -14.16,15.34 8.38,1.54 15.28,6.01 20.76,13.31 5.47,7.29 11.46,17.79 17.98,31.54l25.4 53.36 -44.3 5.56 -22.36 -50.37c-0.35,-0.73 -1.08,-2.08 -2.18,-4.1 -0.43,-0.67 -1.98,-3.75 -4.68,-9.13 -4.77,-9.59 -8.69,-15.46 -11.73,-17.62 -3.08,-2.16 -7.73,-2.88 -14.02,-2.18l0 90.3 -37.78 4.75 0 -206.57zm159.01 -19.97l37.79 -4.74 0 171.66 72.69 -9.13 0 -171.66 37.78 -4.75 0 171.66 15.63 -1.96 0 79.92 -31.52 3.96 0 -45.01 -132.37 16.62 0 -206.57zm190.34 -23.9l35.19 -4.42 0 137.52 75.56 -147 37.52 -4.72 0 206.58 -35.18 4.41 0 -135.31 -75.57 144.79 -37.52 4.72 0 -206.57zm178.96 82.07c0,-21.07 2.88,-39.12 8.56,-54.17 4.22,-11.06 10.04,-21.26 17.38,-30.54 7.33,-9.29 15.37,-16.51 24.1,-21.69 11.64,-6.89 25.05,-11.32 40.25,-13.23 27.53,-3.46 49.51,3.26 66.05,20.08 16.51,16.87 24.76,42.14 24.76,75.84 0,33.42 -8.2,60.61 -24.58,81.52 -16.37,20.95 -38.3,33.13 -65.7,36.56 -27.75,3.49 -49.86,-3.11 -66.23,-19.85 -16.37,-16.71 -24.59,-41.54 -24.59,-74.52zm38.83 -6.27c0,23.41 4.92,40.54 14.68,51.43 9.78,10.84 22.19,15.34 37.22,13.45 15.07,-1.89 27.4,-9.45 37.09,-22.64 9.63,-13.23 14.46,-31.81 14.46,-55.81 0,-23.71 -4.69,-40.81 -14.12,-51.26 -9.38,-10.52 -21.84,-14.77 -37.43,-12.81 -15.55,1.95 -28.1,9.45 -37.61,22.42 -9.51,13.02 -14.29,31.42 -14.29,55.22zm171.67 81.87l0 -206.57 37.78 -4.75 0 81.37 73.48 -9.23 0 -81.36 37.79 -4.75 0 206.58 -37.79 4.74 0 -90.31 -73.48 9.24 0 90.29 -37.78 4.75zm379.89 -123.87l36.48 7.83c-5.6,23.44 -14.94,41.5 -27.96,54.19 -13.03,12.65 -29.53,20.26 -49.56,22.76 -24.79,3.12 -45.16,-3.69 -61.14,-20.45 -15.94,-16.75 -23.93,-41.38 -23.93,-73.93 0,-34.38 8.04,-62.12 24.06,-83.17 16.03,-21.06 37.13,-33.22 63.27,-36.51 22.84,-2.87 41.39,2.3 55.63,15.47 8.52,7.78 14.86,19.68 19.11,35.73l-37.26 14.49c-2.21,-10.4 -6.81,-18.29 -13.81,-23.61 -7.03,-5.32 -15.55,-7.32 -25.54,-6.07 -13.84,1.74 -25.09,8.64 -33.69,20.72 -8.64,12.05 -12.94,30.38 -12.94,55 0,26.06 4.25,44.13 12.72,54.13 8.51,10.05 19.54,14.19 33.13,12.48 10.04,-1.26 18.68,-5.85 25.89,-13.83 7.21,-7.97 12.42,-19.69 15.54,-35.23zm54.55 -32.71c0,-21.06 2.86,-39.12 8.55,-54.16 4.21,-11.07 10.03,-21.27 17.38,-30.55 7.34,-9.29 15.37,-16.5 24.1,-21.69 11.63,-6.89 25.05,-11.32 40.25,-13.22 27.54,-3.47 49.51,3.25 66.06,20.07 16.49,16.88 24.75,42.14 24.75,75.84 0,33.43 -8.21,60.61 -24.58,81.52 -16.37,20.95 -38.3,33.13 -65.71,36.57 -27.74,3.49 -49.85,-3.11 -66.23,-19.86 -16.37,-16.69 -24.57,-41.54 -24.57,-74.52zm38.82 -6.27c0,23.42 4.91,40.54 14.68,51.43 9.77,10.85 22.19,15.34 37.21,13.46 15.08,-1.89 27.41,-9.46 37.09,-22.65 9.64,-13.23 14.46,-31.81 14.46,-55.81 0,-23.71 -4.68,-40.81 -14.11,-51.26 -9.38,-10.52 -21.84,-14.77 -37.44,-12.81 -15.54,1.95 -28.09,9.45 -37.6,22.42 -9.51,13.02 -14.29,31.42 -14.29,55.22zm172.45 -124.79l139.41 -17.5 0 34.91 -101.62 12.76 0 47.88 50.33 -6.31c13.85,-1.73 25.4,-1.32 34.52,1.29 9.16,2.6 16.98,8.55 23.46,17.87 6.46,9.3 9.72,20.76 9.72,34.37 0,13.94 -3.26,26.32 -9.82,37.1 -6.51,10.73 -13.94,18.48 -22.32,23.2 -8.33,4.69 -20.23,8.02 -35.64,9.95l-88.04 11.05 0 -206.57zm37.79 166.91l36.6 -4.59c11.68,-1.47 19.94,-3.13 24.67,-4.97 4.73,-1.86 8.9,-5.22 12.42,-10.12 3.51,-4.86 5.26,-10.57 5.26,-17.06 0,-9.48 -3.09,-15.96 -9.22,-19.52 -6.16,-3.51 -16.63,-4.36 -31.48,-2.49l-38.25 4.8 0 53.95zm149.77 -190.46l37.78 -4.74 0 82.51 50.34 -6.32c13.2,-1.66 24.58,-1.06 34.09,1.73 9.51,2.8 17.46,8.92 23.84,18.41 6.34,9.49 9.51,20.92 9.51,34.29 0,13.99 -3.3,26.43 -9.9,37.4 -6.64,10.93 -13.98,18.54 -22.11,22.83 -8.07,4.33 -19.92,7.44 -35.52,9.41l-88.03 11.05 0 -206.57zm37.78 166.91l36.75 -4.61c11.67,-1.46 19.84,-3.11 24.49,-4.95 4.61,-1.83 8.72,-5.23 12.33,-10.15 3.6,-4.93 5.39,-10.59 5.39,-17.04 0,-9.13 -2.96,-15.63 -8.82,-19.46 -5.9,-3.83 -16.55,-4.76 -31.87,-2.83l-38.27 4.8 0 54.24zm139.4 -189.16l37.79 -4.74 0 206.57 -37.79 4.75 0 -206.58zm118.83 191.65l0 -171.66 -55.25 6.93 0 -34.91 148 -18.58 0 34.91 -54.97 6.9 0 171.66 -37.78 4.75zm117.72 -221.35l35.17 -4.41 0 137.52 75.57 -147.01 37.52 -4.72 0 206.57 -35.18 4.43 0 -135.32 -75.56 144.8 -37.52 4.71 0 -206.57zm187.3 -23.52l35.17 -4.41 0 137.52 75.57 -147.01 37.52 -4.71 0 206.58 -35.17 4.41 0 -135.31 -75.58 144.79 -37.51 4.71 0 -206.57zm96.41 -71.82l17.46 -2.2c-1,12.88 -5.08,23.44 -12.17,31.59 -7.07,8.14 -16.23,12.95 -27.48,14.36 -11.29,1.42 -20.46,-1.08 -27.54,-7.45 -7.07,-6.38 -11.15,-15.92 -12.16,-28.53l17.46 -2.19c0.61,6.56 2.69,11.35 6.35,14.3 3.64,2.96 8.94,3.97 15.89,3.1 6.9,-0.87 12.21,-3.22 15.84,-7.08 3.66,-3.88 5.74,-9.19 6.35,-15.9zm163.28 39.21l35.18 -4.41 0 137.52 75.56 -147 37.53 -4.72 0 206.58 -35.18 4.41 0 -135.31 -75.56 144.8 -37.53 4.7 0 -206.57zm259.7 -32.6l148.26 -18.62 0 206.59 -37.79 4.73 0 -171.66 -72.69 9.12 0 171.67 -37.78 4.74 0 -206.57zm186.78 183.11l0 -206.57 60.41 -7.58c22.89,-2.87 37.78,-3.73 44.72,-2.54 10.69,1.78 19.64,7.4 26.84,16.87 7.22,9.48 10.81,22.45 10.81,38.89 0,12.7 -2.08,23.58 -6.2,32.76 -4.17,9.17 -9.43,16.62 -15.81,22.37 -6.38,5.71 -12.9,9.8 -19.49,12.21 -9,3.1 -21.98,5.74 -39.01,7.88l-24.49 3.08 0 77.89 -37.78 4.74zm37.78 -176.4l0 58.86 20.54 -2.57c14.81,-1.87 24.67,-4.21 29.67,-7 4.99,-2.79 8.9,-6.65 11.72,-11.67 2.82,-4.97 4.26,-10.49 4.26,-16.64 0,-7.55 -2,-13.5 -5.96,-17.91 -3.99,-4.4 -8.98,-6.86 -15.11,-7.34 -4.47,-0.35 -13.45,0.3 -27.01,2l-18.11 2.27zm281.19 136.37l-40.69 5.1 -16.12 -45 -74.82 9.39 -15.51 48.98 -39.95 5.01 72.43 -215.66 39.91 -5.02 74.75 197.2zm-69.05 -73.28l-25.93 -73.19 -25.19 79.62 51.12 -6.43zm115.73 -82.91l-36.74 -4.9c7.91,-34.65 30.35,-54.3 67.35,-58.94 21.9,-2.75 38.44,0.5 49.6,9.78 11.17,9.27 16.72,21.13 16.72,35.55 0,9.86 -2.56,19.07 -7.64,27.69 -5.09,8.57 -12.73,16.51 -22.89,23.84 12.34,3.17 21.63,8.64 27.79,16.47 6.17,7.88 9.26,18.07 9.26,30.72 0,18.18 -6,33.59 -18.03,46.3 -11.99,12.72 -29.96,20.59 -53.89,23.61 -19.5,2.44 -34.92,0.77 -46.21,-5.03 -11.29,-5.79 -19.75,-18.23 -25.45,-37.34l34.39 -16.72c3.57,12 8.35,19.49 14.25,22.4 5.91,2.96 13.21,3.87 21.88,2.78 11.91,-1.5 20.59,-5.42 26.07,-11.83 5.42,-6.41 8.16,-13.28 8.16,-20.69 0,-8.47 -3.08,-14.95 -9.25,-19.38 -6.12,-4.42 -15.42,-5.85 -27.79,-4.3l-8.56 1.08 0 -31.16 4.3 -0.54c11.51,-1.44 20.32,-5.43 26.4,-11.92 6.13,-6.5 9.16,-14.51 9.16,-23.99 0,-7.55 -2.47,-13.58 -7.41,-18.15 -4.95,-4.53 -12.04,-6.24 -21.25,-5.08 -15.75,1.97 -25.84,11.89 -30.22,29.75zm151.78 -75.3l128.71 -16.17 0 171.66 16.42 -2.06 0 79.93 -31.53 3.94 0 -45 -116.99 14.69 0 45 -31.53 3.96 0 -79.91 15.9 -2c7.73,-18.61 12.85,-39.74 15.32,-63.33 2.48,-23.62 3.7,-53.25 3.7,-88.89l0 -21.82zm35.96 30.38c0,62.52 -5.22,108.75 -15.63,138.73l70.6 -8.87 0 -136.76 -54.97 6.9zm134.53 154.77l0 -206.57 37.79 -4.74 0 81.36 73.47 -9.22 0 -81.37 37.78 -4.74 0 206.58 -37.78 4.74 0 -90.3 -73.47 9.22 0 90.3 -37.79 4.74zm188.7 -230.26l35.17 -4.41 0 137.52 75.57 -147 37.52 -4.72 0 206.57 -35.19 4.41 0 -135.3 -75.56 144.79 -37.51 4.71 0 -206.57zm187.28 -23.51l37.78 -4.74 0 87.99c8.38,-2.02 14.08,-5.09 17.03,-9.35 2.95,-4.22 7.55,-15.52 13.72,-33.9 7.77,-23.33 15.64,-38.26 23.5,-44.68 7.81,-6.42 20.36,-10.74 37.73,-12.91 0.88,-0.11 2.7,-0.39 5.47,-0.83l0 30.87 -5.34 0.52c-7.73,0.97 -13.37,2.74 -16.93,5.31 -3.56,2.56 -6.43,6.13 -8.64,10.74 -2.22,4.6 -5.48,13.91 -9.78,27.92 -2.3,7.45 -4.77,13.72 -7.46,18.87 -2.66,5.14 -7.38,10.25 -14.16,15.33 8.37,1.55 15.29,6.02 20.75,13.32 5.48,7.29 11.47,17.79 17.98,31.54l25.41 53.36 -44.3 5.56 -22.36 -50.37c-0.35,-0.72 -1.09,-2.08 -2.17,-4.1 -0.44,-0.67 -2,-3.74 -4.69,-9.13 -4.78,-9.6 -8.69,-15.45 -11.73,-17.62 -3.08,-2.15 -7.74,-2.88 -14.03,-2.18l0 90.31 -37.78 4.74 0 -206.57zm326.56 165.56l-40.69 5.11 -16.1 -45.01 -74.83 9.4 -15.51 48.97 -39.95 5.03 72.44 -215.67 39.91 -5.01 74.73 197.18zm-69.03 -73.26l-25.93 -73.2 -25.19 79.61 51.12 -6.41z"/>
   <polygon class="fil7" points="9020.82,1441.73 9106.74,1667.24 9386.44,1666.78 9159.84,1805.7 9246.79,2030.93 9020.82,1891.28 8794.86,2030.93 8881.8,1805.7 8655.21,1666.78 8934.91,1667.24 "/>
   <polygon class="fil8 str3" points="8437.73,1260.23 8360.42,1479.78 8108.75,1479.34 8312.64,1614.58 8234.41,1833.86 8437.73,1697.89 8641.06,1833.86 8562.82,1614.58 8766.72,1479.34 8515.04,1479.78 "/>
   <polygon class="fil9" points="7742.7,1206.84 7815.94,1400.6 8054.38,1400.21 7861.2,1519.57 7935.32,1713.1 7742.7,1593.1 7550.07,1713.1 7624.18,1519.57 7431.01,1400.21 7669.44,1400.6 "/>
   <polygon class="fil10" points="9382.21,1897.25 9475.21,2170.04 9778.02,2169.49 9532.71,2337.52 9626.83,2609.96 9382.21,2441.02 9137.59,2609.96 9231.71,2337.52 8986.41,2169.49 9289.2,2170.04 "/>
   <path class="fil11" d="M3599.9 4501.59c411.49,0 745.06,333.58 745.06,745.07 0,411.49 -333.57,745.07 -745.06,745.07 -411.49,0 -745.06,-333.58 -745.06,-745.07 0,-411.49 333.57,-745.07 745.06,-745.07z"/>
   <path class="fil12" d="M4912.03 4801.4l69.14 21.23c-10.61,38.94 -28.31,67.83 -53.01,86.76 -24.69,18.85 -55.97,28.32 -93.92,28.32 -47,0 -85.6,-16.05 -115.89,-48.16 -30.21,-32.1 -45.36,-75.97 -45.36,-131.7 0,-58.85 15.23,-104.62 45.6,-137.21 30.38,-32.6 70.38,-48.9 119.93,-48.9 43.3,0 78.45,12.84 105.45,38.44 16.13,15.15 28.15,36.88 36.22,65.28l-70.63 16.79c-4.2,-18.28 -12.92,-32.76 -26.17,-43.38 -13.34,-10.62 -29.47,-15.89 -48.4,-15.89 -26.26,0 -47.58,9.39 -63.88,28.24 -16.38,18.76 -24.53,49.22 -24.53,91.36 0,44.62 8.07,76.47 24.12,95.41 16.13,19.01 37.04,28.48 62.8,28.48 19.02,0 35.4,-6.01 49.06,-18.11 13.67,-12.1 23.54,-31.04 29.47,-56.96zm130.46 -125.94l148.5 0c30.45,0 53.17,5.51 68.32,16.62 15.14,11.12 22.72,27.91 22.72,50.3 0,14.32 -4.12,26.83 -12.43,37.45 -8.24,10.62 -18.69,17.7 -31.2,21.24 17.61,4.36 30.78,12.43 39.51,24.36 8.64,11.94 13,24.94 13,39.1 0,19.92 -7.32,36.14 -21.97,48.56 -14.65,12.43 -36.3,18.69 -64.95,18.69l-161.5 0 0 -256.32zm67.66 106.67l43.96 0c21.24,0 36.55,-2.63 46.01,-7.98 9.47,-5.35 14.24,-13.75 14.24,-25.19 0,-10.86 -4.44,-18.52 -13.25,-23.13 -8.81,-4.61 -24.45,-6.91 -47,-6.91l-43.96 0 0 63.21zm0 106.19l53.84 0c19.42,0 33.58,-2.31 42.47,-7 8.89,-4.69 13.34,-13 13.34,-25.1 0,-12.6 -5.11,-21.24 -15.31,-25.93 -10.13,-4.78 -29.97,-7.16 -59.43,-7.16l-34.91 0 0 65.19zm279.3 -133.84l-61.25 -10.87c6.92,-25.02 18.85,-43.54 35.73,-55.56 16.87,-12.02 41.98,-18.03 75.23,-18.03 30.21,0 52.77,3.54 67.58,10.7 14.74,7.17 25.19,16.22 31.2,27.25 6.01,11.03 9.05,31.2 9.05,60.66l-0.98 79.03c0,22.47 1.07,39.09 3.21,49.8 2.14,10.7 6.17,22.14 12.1,34.32l-67.17 0c-1.73,-4.44 -3.95,-11.03 -6.51,-19.76 -1.07,-4.03 -1.89,-6.66 -2.38,-7.9 -11.53,11.36 -23.87,19.84 -37.04,25.52 -13.17,5.68 -27.17,8.56 -42.07,8.56 -26.25,0 -47,-7.16 -62.14,-21.48 -15.15,-14.24 -22.72,-32.35 -22.72,-54.25 0,-14.4 3.46,-27.33 10.37,-38.69 6.92,-11.27 16.55,-20 29.06,-26.01 12.43,-6 30.37,-11.27 53.83,-15.8 31.61,-5.93 53.59,-11.52 65.77,-16.63l0 -6.83c0,-13.17 -3.21,-22.55 -9.63,-28.23 -6.5,-5.6 -18.69,-8.4 -36.55,-8.4 -12.1,0 -21.48,2.39 -28.23,7.24 -6.83,4.78 -12.27,13.26 -16.46,25.36zm90.87 54.82c-8.64,2.88 -22.39,6.34 -41.24,10.37 -18.77,4.03 -31.11,7.98 -36.88,11.77 -8.8,6.34 -13.25,14.24 -13.25,23.87 0,9.55 3.54,17.7 10.62,24.61 7.08,6.92 16.05,10.37 27,10.37 12.18,0 23.87,-4.03 34.98,-12.01 8.15,-6.18 13.58,-13.59 16.14,-22.48 1.72,-5.76 2.63,-16.79 2.63,-33l0 -13.5zm345.3 122.48l-194.09 0 0 67.66 -54.82 0 0 -122.97 27.66 0c11.52,-12.93 20.99,-33.01 28.56,-60.42 7.49,-27.33 12.02,-74.25 13.42,-140.59l206.93 0 0 201.01 27.66 0 0 122.97 -55.32 0 0 -67.66zm-39.51 -55.31l0.25 -145.21 -82.23 0c-2.72,70.88 -13.91,119.28 -33.58,145.21l115.56 0zm142.65 -201.01l67.66 0 0 106.67 67.99 0c26.67,0 47.09,1.9 61.41,5.77 14.32,3.87 26.17,12.18 35.64,24.94 9.47,12.76 14.24,27.57 14.24,44.45 0,24.77 -8.48,43.38 -25.43,55.8 -16.96,12.43 -42.31,18.69 -76.23,18.69l-145.28 0 0 -256.32zm67.66 212.86l63.3 0c19.76,0 32.43,-3.21 38.03,-9.55 5.52,-6.42 8.31,-13.99 8.31,-22.8 0,-12.27 -4.77,-20.74 -14.4,-25.44 -9.55,-4.6 -26.59,-6.91 -51.04,-6.91l-44.2 0 0 64.7zm427.04 -318.55l45.93 0c-1.48,20.33 -6.83,35.72 -16.05,46.26 -9.22,10.45 -32.1,15.72 -68.48,15.72 -4.28,0 -8.65,-0.08 -13.01,-0.25l-8.72 0c-21.57,0 -39.1,2.39 -52.6,7.16 -13.5,4.69 -24.61,13.91 -33.17,27.58 -8.65,13.74 -13.09,35.8 -13.42,66.18 9.96,-18.77 22.88,-32.76 38.77,-42.07 15.8,-9.3 34.74,-13.91 56.55,-13.91 33.66,0 62.14,13.09 85.52,39.35 23.3,26.18 34.98,56.55 34.98,91.04 0,35.97 -12.26,66.84 -36.79,92.68 -24.61,25.77 -56.63,38.69 -96.22,38.69 -27.25,0 -51.12,-6.5 -71.78,-19.59 -20.58,-13.01 -35.31,-30.87 -44.2,-53.5 -8.81,-22.64 -13.26,-60.09 -13.26,-112.44 0,-61.57 11.36,-105.78 34,-132.69 22.64,-26.92 62.15,-40.34 118.53,-40.34l34.33 0c9.54,0 15.88,-3.29 19.09,-9.87zm-136.31 235.91c0,23.46 5.85,42.06 17.45,55.72 11.61,13.67 25.77,20.5 42.56,20.5 18.11,0 33.01,-7.08 44.61,-21.24 11.61,-14.16 17.37,-32.35 17.37,-54.74 0,-22.8 -5.84,-41.15 -17.62,-55.15 -11.77,-13.99 -26.34,-20.99 -43.62,-20.99 -16.79,0 -31.12,6.92 -42.97,20.66 -11.85,13.75 -17.78,32.19 -17.78,55.24zm299.13 -51.2l-61.25 -10.87c6.92,-25.02 18.85,-43.54 35.73,-55.56 16.87,-12.02 41.98,-18.03 75.23,-18.03 30.21,0 52.77,3.54 67.58,10.7 14.74,7.17 25.19,16.22 31.2,27.25 6.01,11.03 9.05,31.2 9.05,60.66l-0.98 79.03c0,22.47 1.07,39.09 3.21,49.8 2.14,10.7 6.17,22.14 12.1,34.32l-67.17 0c-1.73,-4.44 -3.95,-11.03 -6.51,-19.76 -1.07,-4.03 -1.89,-6.66 -2.38,-7.9 -11.53,11.36 -23.87,19.84 -37.04,25.52 -13.17,5.68 -27.17,8.56 -42.07,8.56 -26.25,0 -47,-7.16 -62.14,-21.48 -15.15,-14.24 -22.72,-32.35 -22.72,-54.25 0,-14.4 3.46,-27.33 10.37,-38.69 6.92,-11.27 16.55,-20 29.06,-26.01 12.43,-6 30.37,-11.27 53.83,-15.8 31.61,-5.93 53.59,-11.52 65.77,-16.63l0 -6.83c0,-13.17 -3.21,-22.55 -9.63,-28.23 -6.5,-5.6 -18.69,-8.4 -36.55,-8.4 -12.1,0 -21.48,2.39 -28.23,7.24 -6.83,4.78 -12.27,13.26 -16.46,25.36zm90.87 54.82c-8.64,2.88 -22.39,6.34 -41.24,10.37 -18.77,4.03 -31.11,7.98 -36.88,11.77 -8.8,6.34 -13.25,14.24 -13.25,23.87 0,9.55 3.54,17.7 10.62,24.61 7.08,6.92 16.05,10.37 27,10.37 12.18,0 23.87,-4.03 34.98,-12.01 8.15,-6.18 13.58,-13.59 16.14,-22.48 1.72,-5.76 2.63,-16.79 2.63,-33l0 -13.5zm267.69 -133.84l67.66 0 0 93.83 97.79 0 0 -93.83 67.66 0 0 256.32 -67.66 0 0 -107.67 -97.79 0 0 107.67 -67.66 0 0 -256.32zm351.64 79.02l-61.25 -10.87c6.92,-25.02 18.85,-43.54 35.73,-55.56 16.87,-12.02 41.98,-18.03 75.23,-18.03 30.21,0 52.77,3.54 67.58,10.7 14.74,7.17 25.19,16.22 31.2,27.25 6.01,11.03 9.05,31.2 9.05,60.66l-0.98 79.03c0,22.47 1.07,39.09 3.21,49.8 2.14,10.7 6.17,22.14 12.1,34.32l-67.17 0c-1.73,-4.44 -3.95,-11.03 -6.51,-19.76 -1.07,-4.03 -1.89,-6.66 -2.38,-7.9 -11.53,11.36 -23.87,19.84 -37.04,25.52 -13.17,5.68 -27.17,8.56 -42.07,8.56 -26.25,0 -47,-7.16 -62.14,-21.48 -15.15,-14.24 -22.72,-32.35 -22.72,-54.25 0,-14.4 3.46,-27.33 10.37,-38.69 6.92,-11.27 16.55,-20 29.06,-26.01 12.43,-6 30.37,-11.27 53.83,-15.8 31.61,-5.93 53.59,-11.52 65.77,-16.63l0 -6.83c0,-13.17 -3.21,-22.55 -9.63,-28.23 -6.5,-5.6 -18.69,-8.4 -36.55,-8.4 -12.1,0 -21.48,2.39 -28.23,7.24 -6.83,4.78 -12.27,13.26 -16.46,25.36zm90.87 54.82c-8.64,2.88 -22.39,6.34 -41.24,10.37 -18.77,4.03 -31.11,7.98 -36.88,11.77 -8.8,6.34 -13.25,14.24 -13.25,23.87 0,9.55 3.54,17.7 10.62,24.61 7.08,6.92 16.05,10.37 27,10.37 12.18,0 23.87,-4.03 34.98,-12.01 8.15,-6.18 13.58,-13.59 16.14,-22.48 1.72,-5.76 2.63,-16.79 2.63,-33l0 -13.5zm484.99 59.76l0 62.72 -237.55 0c2.55,-23.87 10.29,-46.42 23.13,-67.74 12.84,-21.32 38.27,-49.64 76.14,-84.95 30.54,-28.48 49.22,-47.83 56.13,-57.95 9.31,-13.99 14,-27.82 14,-41.57 0,-15.14 -4.04,-26.75 -12.18,-34.9 -8.07,-8.15 -19.27,-12.18 -33.51,-12.18 -14.15,0 -25.35,4.28 -33.74,12.84 -8.32,8.48 -13.09,22.64 -14.41,42.47l-67.66 -6.75c4.03,-37.37 16.63,-64.2 37.86,-80.5 21.24,-16.21 47.74,-24.36 79.6,-24.36 34.9,0 62.31,9.46 82.31,28.31 19.92,18.85 29.88,42.31 29.88,70.38 0,15.97 -2.88,31.11 -8.56,45.6 -5.68,14.41 -14.73,29.47 -27.16,45.27 -8.15,10.54 -23.05,25.6 -44.45,45.28 -21.48,19.67 -35.07,32.67 -40.75,39.18 -5.76,6.42 -10.37,12.76 -13.91,18.85l134.83 0zm160.35 -292.87c34.24,0 60.99,12.26 80.34,36.79 22.96,28.97 34.49,77.13 34.49,144.3 0,67.08 -11.61,115.32 -34.74,144.62 -19.18,24.2 -45.85,36.3 -80.09,36.3 -34.41,0 -62.15,-13.25 -83.22,-39.76 -21.07,-26.5 -31.61,-73.83 -31.61,-141.82 0,-66.76 11.61,-114.83 34.74,-144.13 19.18,-24.2 45.85,-36.3 80.09,-36.3zm0 56.3c-8.07,0 -15.31,2.63 -21.57,7.9 -6.33,5.19 -11.27,14.57 -14.73,28.15 -4.61,17.53 -6.91,47.17 -6.91,88.74 0,41.65 2.05,70.21 6.17,85.77 4.11,15.55 9.3,25.92 15.56,31.11 6.25,5.19 13.41,7.74 21.48,7.74 8.07,0 15.31,-2.64 21.65,-7.9 6.25,-5.19 11.19,-14.57 14.65,-28.16 4.61,-17.36 6.91,-46.91 6.91,-88.56 0,-41.57 -2.05,-70.14 -6.17,-85.69 -4.11,-15.56 -9.3,-26.01 -15.56,-31.2 -6.25,-5.27 -13.41,-7.9 -21.48,-7.9zm274.68 -56.3c34.24,0 60.99,12.26 80.34,36.79 22.96,28.97 34.49,77.13 34.49,144.3 0,67.08 -11.61,115.32 -34.74,144.62 -19.18,24.2 -45.85,36.3 -80.09,36.3 -34.41,0 -62.15,-13.25 -83.22,-39.76 -21.07,-26.5 -31.61,-73.83 -31.61,-141.82 0,-66.76 11.61,-114.83 34.74,-144.13 19.18,-24.2 45.85,-36.3 80.09,-36.3zm0 56.3c-8.07,0 -15.31,2.63 -21.57,7.9 -6.33,5.19 -11.27,14.57 -14.73,28.15 -4.61,17.53 -6.91,47.17 -6.91,88.74 0,41.65 2.05,70.21 6.17,85.77 4.11,15.55 9.3,25.92 15.56,31.11 6.25,5.19 13.41,7.74 21.48,7.74 8.07,0 15.31,-2.64 21.65,-7.9 6.25,-5.19 11.19,-14.57 14.65,-28.16 4.61,-17.36 6.91,-46.91 6.91,-88.56 0,-41.57 -2.05,-70.14 -6.17,-85.69 -4.11,-15.56 -9.3,-26.01 -15.56,-31.2 -6.25,-5.27 -13.41,-7.9 -21.48,-7.9zm303.99 42.97l68.65 0 0 61.32c0,13.99 1.23,24.36 3.7,31.28 2.55,6.83 7.82,12.68 15.97,17.61 8.07,4.86 18.36,7.33 30.7,7.33 12.02,0 25.52,-2.72 40.5,-8.23l0 -109.31 67.66 0 0 256.32 -67.66 0 0 -102.48c-26.42,7.08 -46.51,10.62 -60.34,10.62 -20.74,0 -39.42,-4.45 -55.97,-13.42 -16.54,-8.89 -27.9,-20.33 -34.08,-34.24 -6.09,-13.91 -9.13,-32.43 -9.13,-55.56l0 -61.24zm442.76 175.32l67.66 11.36c-8.64,24.78 -22.38,43.63 -41.07,56.63 -18.77,12.93 -42.23,19.43 -70.3,19.43 -44.53,0 -77.53,-14.57 -98.85,-43.71 -16.88,-23.37 -25.36,-52.84 -25.36,-88.48 0,-42.48 11.12,-75.82 33.26,-99.85 22.14,-24.12 50.21,-36.14 84.12,-36.14 38.03,0 68.08,12.6 90.14,37.79 21.97,25.18 32.51,63.79 31.52,115.81l-169.4 0c0.5,20.08 5.93,35.72 16.38,46.92 10.37,11.19 23.38,16.79 38.85,16.79 10.62,0 19.51,-2.88 26.67,-8.64 7.25,-5.76 12.68,-15.07 16.38,-27.91zm3.95 -68.65c-0.49,-19.67 -5.51,-34.65 -15.14,-44.86 -9.63,-10.29 -21.32,-15.39 -35.15,-15.39 -14.73,0 -26.92,5.43 -36.55,16.22 -9.63,10.78 -14.32,25.51 -14.15,44.03l100.99 0zm140.84 -106.67l226.69 0 0 256.32 -67.66 0 0 -201.5 -91.86 0 0 115.32c0,29.3 -3.37,49.88 -10.12,61.73 -6.84,11.86 -14.33,19.59 -22.56,23.3 -8.15,3.7 -21.4,5.59 -39.59,5.59 -10.78,0 -25.11,-1.48 -42.8,-4.28l0 -49.79c1.48,0 5.26,0.16 11.36,0.49 7.07,0.49 12.59,0.74 16.46,0.74 9.22,0 14.81,-3.05 16.96,-9.05 2.05,-6.1 3.12,-22.89 3.12,-50.46l0 -148.41zm273.21 125.03c0,-22.55 5.51,-44.37 16.62,-65.44 11.11,-21.15 26.84,-37.2 47.17,-48.32 20.33,-11.11 42.97,-16.71 68.07,-16.71 38.77,0 70.46,12.6 95.24,37.79 24.77,25.27 37.12,57.04 37.12,95.56 0,38.85 -12.51,71.04 -37.45,96.55 -25.02,25.52 -56.47,38.28 -94.41,38.28 -23.46,0 -45.85,-5.35 -67.17,-15.97 -21.24,-10.62 -37.46,-26.17 -48.57,-46.75 -11.11,-20.5 -16.62,-45.52 -16.62,-74.99zm69.63 3.62c0,25.44 6.01,44.95 18.03,58.44 12.1,13.59 26.92,20.34 44.61,20.34 17.62,0 32.43,-6.75 44.37,-20.34 11.94,-13.49 17.94,-33.17 17.94,-58.93 0,-25.11 -6,-44.45 -17.94,-57.95 -11.94,-13.58 -26.75,-20.33 -44.37,-20.33 -17.69,0 -32.51,6.75 -44.61,20.33 -12.02,13.5 -18.03,33.01 -18.03,58.44zm248.34 -128.65l148.5 0c30.45,0 53.17,5.51 68.32,16.62 15.14,11.12 22.72,27.91 22.72,50.3 0,14.32 -4.12,26.83 -12.43,37.45 -8.24,10.62 -18.69,17.7 -31.2,21.24 17.61,4.36 30.78,12.43 39.51,24.36 8.64,11.94 13,24.94 13,39.1 0,19.92 -7.32,36.14 -21.97,48.56 -14.65,12.43 -36.3,18.69 -64.95,18.69l-161.5 0 0 -256.32zm67.66 106.67l43.96 0c21.24,0 36.55,-2.63 46.01,-7.98 9.47,-5.35 14.24,-13.75 14.24,-25.19 0,-10.86 -4.44,-18.52 -13.25,-23.13 -8.81,-4.61 -24.45,-6.91 -47,-6.91l-43.96 0 0 63.21zm0 106.19l53.84 0c19.42,0 33.58,-2.31 42.47,-7 8.89,-4.69 13.34,-13 13.34,-25.1 0,-12.6 -5.11,-21.24 -15.31,-25.93 -10.13,-4.78 -29.97,-7.16 -59.43,-7.16l-34.91 0 0 65.19zm377.08 -37.54l67.66 11.36c-8.64,24.78 -22.38,43.63 -41.07,56.63 -18.77,12.93 -42.23,19.43 -70.3,19.43 -44.53,0 -77.53,-14.57 -98.85,-43.71 -16.88,-23.37 -25.36,-52.84 -25.36,-88.48 0,-42.48 11.12,-75.82 33.26,-99.85 22.14,-24.12 50.21,-36.14 84.12,-36.14 38.03,0 68.08,12.6 90.14,37.79 21.97,25.18 32.51,63.79 31.52,115.81l-169.4 0c0.5,20.08 5.93,35.72 16.38,46.92 10.37,11.19 23.38,16.79 38.85,16.79 10.62,0 19.51,-2.88 26.67,-8.64 7.25,-5.76 12.68,-15.07 16.38,-27.91zm3.95 -68.65c-0.49,-19.67 -5.51,-34.65 -15.14,-44.86 -9.63,-10.29 -21.32,-15.39 -35.15,-15.39 -14.73,0 -26.92,5.43 -36.55,16.22 -9.63,10.78 -14.32,25.51 -14.15,44.03l100.99 0zm119.61 -106.67l67.66 0 0 104.7c11.27,-1.32 19.26,-4.78 23.95,-10.37 4.61,-5.6 10.29,-17.86 16.88,-36.8 8.72,-25.27 18.19,-41.32 28.56,-48.4 10.29,-7.08 23.79,-10.62 40.58,-10.62 5.18,0 14.07,0.42 26.83,1.24l0.25 44.7c-17.94,0 -29.39,1.64 -34.33,5.02 -5.02,3.54 -10.45,14.07 -16.21,31.6 -7.9,23.55 -19.34,38.12 -34.16,43.55 21.4,5.93 39.51,24.61 54.33,55.97 0.74,1.65 1.64,3.29 2.63,5.11l37.86 70.62 -72.84 0 -33.75 -74.33c-6.92,-14.98 -12.93,-24.61 -18.03,-28.89 -5.02,-4.28 -12.59,-6.42 -22.55,-6.42l0 109.64 -67.66 0 0 -256.32z"/>
   <path class="fil13" d="M4705.37 5378.67l67.66 -7c1.98,15.31 7.66,27.49 17.12,36.47 9.55,8.97 20.5,13.41 32.93,13.41 14.16,0 26.17,-5.76 35.97,-17.36 9.8,-11.61 14.73,-29.06 14.73,-52.36 0,-21.89 -4.85,-38.27 -14.65,-49.22 -9.71,-10.95 -22.39,-16.38 -38.03,-16.38 -19.5,0 -37.04,8.56 -52.51,25.68l-54.82 -7.9 34.57 -183.72 179.28 0 0 63.21 -127.84 0 -10.7 60.17c15.07,-7.49 30.54,-11.27 46.35,-11.27 30.12,0 55.64,10.95 76.55,32.92 20.99,21.9 31.44,50.38 31.44,85.44 0,29.23 -8.48,55.24 -25.35,78.2 -23.05,31.28 -54.99,46.92 -95.81,46.92 -32.68,0 -59.35,-8.81 -79.93,-26.34 -20.66,-17.61 -32.93,-41.16 -36.96,-70.87zm388.52 -264.8c34.24,0 60.99,12.26 80.34,36.79 22.96,28.97 34.49,77.13 34.49,144.3 0,67.08 -11.61,115.32 -34.74,144.62 -19.18,24.2 -45.85,36.3 -80.09,36.3 -34.41,0 -62.15,-13.25 -83.22,-39.76 -21.07,-26.5 -31.61,-73.83 -31.61,-141.82 0,-66.76 11.61,-114.83 34.74,-144.13 19.18,-24.2 45.85,-36.3 80.09,-36.3zm0 56.3c-8.07,0 -15.31,2.63 -21.57,7.9 -6.33,5.19 -11.27,14.57 -14.73,28.15 -4.61,17.53 -6.91,47.17 -6.91,88.74 0,41.65 2.05,70.21 6.17,85.77 4.11,15.55 9.3,25.92 15.56,31.11 6.25,5.19 13.41,7.74 21.48,7.74 8.07,0 15.31,-2.64 21.65,-7.9 6.25,-5.19 11.19,-14.57 14.65,-28.16 4.61,-17.36 6.91,-46.91 6.91,-88.56 0,-41.57 -2.05,-70.14 -6.17,-85.69 -4.11,-15.56 -9.3,-26.01 -15.56,-31.2 -6.25,-5.27 -13.41,-7.9 -21.48,-7.9zm274.68 -56.3c34.24,0 60.99,12.26 80.34,36.79 22.96,28.97 34.49,77.13 34.49,144.3 0,67.08 -11.61,115.32 -34.74,144.62 -19.18,24.2 -45.85,36.3 -80.09,36.3 -34.41,0 -62.15,-13.25 -83.22,-39.76 -21.07,-26.5 -31.61,-73.83 -31.61,-141.82 0,-66.76 11.61,-114.83 34.74,-144.13 19.18,-24.2 45.85,-36.3 80.09,-36.3zm0 56.3c-8.07,0 -15.31,2.63 -21.57,7.9 -6.33,5.19 -11.27,14.57 -14.73,28.15 -4.61,17.53 -6.91,47.17 -6.91,88.74 0,41.65 2.05,70.21 6.17,85.77 4.11,15.55 9.3,25.92 15.56,31.11 6.25,5.19 13.41,7.74 21.48,7.74 8.07,0 15.31,-2.64 21.65,-7.9 6.25,-5.19 11.19,-14.57 14.65,-28.16 4.61,-17.36 6.91,-46.91 6.91,-88.56 0,-41.57 -2.05,-70.14 -6.17,-85.69 -4.11,-15.56 -9.3,-26.01 -15.56,-31.2 -6.25,-5.27 -13.41,-7.9 -21.48,-7.9zm174.18 299.29l0 -67.66 67.66 0 0 67.66 -67.66 0zm237.72 -355.59c34.24,0 60.99,12.26 80.34,36.79 22.96,28.97 34.49,77.13 34.49,144.3 0,67.08 -11.61,115.32 -34.74,144.62 -19.18,24.2 -45.85,36.3 -80.09,36.3 -34.41,0 -62.15,-13.25 -83.22,-39.76 -21.07,-26.5 -31.61,-73.83 -31.61,-141.82 0,-66.76 11.61,-114.83 34.74,-144.13 19.18,-24.2 45.85,-36.3 80.09,-36.3zm0 56.3c-8.07,0 -15.31,2.63 -21.57,7.9 -6.33,5.19 -11.27,14.57 -14.73,28.15 -4.61,17.53 -6.91,47.17 -6.91,88.74 0,41.65 2.05,70.21 6.17,85.77 4.11,15.55 9.3,25.92 15.56,31.11 6.25,5.19 13.41,7.74 21.48,7.74 8.07,0 15.31,-2.64 21.65,-7.9 6.25,-5.19 11.19,-14.57 14.65,-28.16 4.61,-17.36 6.91,-46.91 6.91,-88.56 0,-41.57 -2.05,-70.14 -6.17,-85.69 -4.11,-15.56 -9.3,-26.01 -15.56,-31.2 -6.25,-5.27 -13.41,-7.9 -21.48,-7.9zm274.68 -56.3c34.24,0 60.99,12.26 80.34,36.79 22.96,28.97 34.49,77.13 34.49,144.3 0,67.08 -11.61,115.32 -34.74,144.62 -19.18,24.2 -45.85,36.3 -80.09,36.3 -34.41,0 -62.15,-13.25 -83.22,-39.76 -21.07,-26.5 -31.61,-73.83 -31.61,-141.82 0,-66.76 11.61,-114.83 34.74,-144.13 19.18,-24.2 45.85,-36.3 80.09,-36.3zm0 56.3c-8.07,0 -15.31,2.63 -21.57,7.9 -6.33,5.19 -11.27,14.57 -14.73,28.15 -4.61,17.53 -6.91,47.17 -6.91,88.74 0,41.65 2.05,70.21 6.17,85.77 4.11,15.55 9.3,25.92 15.56,31.11 6.25,5.19 13.41,7.74 21.48,7.74 8.07,0 15.31,-2.64 21.65,-7.9 6.25,-5.19 11.19,-14.57 14.65,-28.16 4.61,-17.36 6.91,-46.91 6.91,-88.56 0,-41.57 -2.05,-70.14 -6.17,-85.69 -4.11,-15.56 -9.3,-26.01 -15.56,-31.2 -6.25,-5.27 -13.41,-7.9 -21.48,-7.9zm274.68 -56.3c34.24,0 60.99,12.26 80.34,36.79 22.96,28.97 34.49,77.13 34.49,144.3 0,67.08 -11.61,115.32 -34.74,144.62 -19.18,24.2 -45.85,36.3 -80.09,36.3 -34.41,0 -62.15,-13.25 -83.22,-39.76 -21.07,-26.5 -31.61,-73.83 -31.61,-141.82 0,-66.76 11.61,-114.83 34.74,-144.13 19.18,-24.2 45.85,-36.3 80.09,-36.3zm0 56.3c-8.07,0 -15.31,2.63 -21.57,7.9 -6.33,5.19 -11.27,14.57 -14.73,28.15 -4.61,17.53 -6.91,47.17 -6.91,88.74 0,41.65 2.05,70.21 6.17,85.77 4.11,15.55 9.3,25.92 15.56,31.11 6.25,5.19 13.41,7.74 21.48,7.74 8.07,0 15.31,-2.64 21.65,-7.9 6.25,-5.19 11.19,-14.57 14.65,-28.16 4.61,-17.36 6.91,-46.91 6.91,-88.56 0,-41.57 -2.05,-70.14 -6.17,-85.69 -4.11,-15.56 -9.3,-26.01 -15.56,-31.2 -6.25,-5.27 -13.41,-7.9 -21.48,-7.9z"/>
   <path class="fil14" d="M4725.56 5917.76l0 -267.54 -99.9 0 0 -35.56 240.02 0 0 35.56 -99.9 0 0 267.54 -40.22 0zm301.34 -27.52c-13.83,11.79 -27.17,20.04 -39.94,24.91 -12.77,4.87 -26.45,7.27 -41.13,7.27 -24.13,0 -42.68,-5.86 -55.67,-17.64 -12.98,-11.71 -19.47,-26.74 -19.47,-45.02 0,-10.72 2.47,-20.53 7.34,-29.42 4.94,-8.89 11.36,-15.94 19.26,-21.31 7.97,-5.36 16.86,-9.45 26.81,-12.2 7.34,-1.91 18.41,-3.74 33.16,-5.58 30.06,-3.52 52.28,-7.83 66.46,-12.77 0.14,-5.08 0.22,-8.32 0.22,-9.66 0,-15.1 -3.53,-25.75 -10.59,-31.96 -9.52,-8.4 -23.7,-12.56 -42.47,-12.56 -17.57,0 -30.55,3.1 -38.88,9.24 -8.39,6.14 -14.53,17 -18.55,32.67l-36.41 -5.08c3.32,-15.59 8.75,-28.22 16.37,-37.82 7.62,-9.6 18.63,-16.93 33.02,-22.15 14.32,-5.15 31.04,-7.76 49.95,-7.76 18.77,0 34.08,2.18 45.86,6.63 11.71,4.44 20.39,9.95 25.9,16.65 5.5,6.7 9.38,15.17 11.64,25.4 1.2,6.35 1.83,17.78 1.83,34.22l0 49.39c0,34.5 0.78,56.3 2.33,65.54 1.48,9.24 4.59,18.06 9.1,26.53l-38.94 0c-3.74,-7.83 -6.14,-17 -7.2,-27.52zm-2.96 -82.55c-13.55,5.51 -33.87,10.16 -60.96,13.97 -15.39,2.19 -26.25,4.66 -32.6,7.41 -6.35,2.75 -11.22,6.78 -14.68,12 -3.45,5.29 -5.22,11.14 -5.22,17.64 0,9.8 3.74,18.06 11.29,24.62 7.55,6.56 18.56,9.88 33.02,9.88 14.32,0 27.09,-3.11 38.31,-9.39 11.15,-6.21 19.41,-14.74 24.63,-25.54 4.02,-8.39 5.99,-20.74 5.99,-37.04l0.22 -13.55zm66.11 -109.64l177.8 0 0 30.9 -70.28 0 0 188.81 -37.25 0 0 -188.81 -70.27 0 0 -30.9zm352.14 192.19c-13.83,11.79 -27.17,20.04 -39.94,24.91 -12.77,4.87 -26.45,7.27 -41.13,7.27 -24.13,0 -42.68,-5.86 -55.67,-17.64 -12.98,-11.71 -19.47,-26.74 -19.47,-45.02 0,-10.72 2.47,-20.53 7.34,-29.42 4.94,-8.89 11.36,-15.94 19.26,-21.31 7.97,-5.36 16.86,-9.45 26.81,-12.2 7.34,-1.91 18.41,-3.74 33.16,-5.58 30.06,-3.52 52.28,-7.83 66.46,-12.77 0.14,-5.08 0.22,-8.32 0.22,-9.66 0,-15.1 -3.53,-25.75 -10.59,-31.96 -9.52,-8.4 -23.7,-12.56 -42.47,-12.56 -17.57,0 -30.55,3.1 -38.88,9.24 -8.39,6.14 -14.53,17 -18.55,32.67l-36.41 -5.08c3.32,-15.59 8.75,-28.22 16.37,-37.82 7.62,-9.6 18.63,-16.93 33.02,-22.15 14.32,-5.15 31.04,-7.76 49.95,-7.76 18.77,0 34.08,2.18 45.86,6.63 11.71,4.44 20.39,9.95 25.9,16.65 5.5,6.7 9.38,15.17 11.64,25.4 1.2,6.35 1.83,17.78 1.83,34.22l0 49.39c0,34.5 0.78,56.3 2.33,65.54 1.48,9.24 4.59,18.06 9.1,26.53l-38.94 0c-3.74,-7.83 -6.14,-17 -7.2,-27.52zm-2.96 -82.55c-13.55,5.51 -33.87,10.16 -60.96,13.97 -15.39,2.19 -26.25,4.66 -32.6,7.41 -6.35,2.75 -11.22,6.78 -14.68,12 -3.45,5.29 -5.22,11.14 -5.22,17.64 0,9.8 3.74,18.06 11.29,24.62 7.55,6.56 18.56,9.88 33.02,9.88 14.32,0 27.09,-3.11 38.31,-9.39 11.15,-6.21 19.41,-14.74 24.63,-25.54 4.02,-8.39 5.99,-20.74 5.99,-37.04l0.22 -13.55zm94.89 194.31l0 -303.95 33.87 0 0 28.86c7.97,-11.15 17,-19.55 27.09,-25.12 10.02,-5.57 22.22,-8.39 36.55,-8.39 18.76,0 35.27,4.79 49.6,14.46 14.32,9.59 25.11,23.21 32.45,40.71 7.27,17.57 10.94,36.76 10.94,57.71 0,22.37 -4.02,42.55 -12.07,60.54 -8.04,17.92 -19.75,31.68 -35.13,41.27 -15.31,9.53 -31.47,14.33 -48.4,14.33 -12.42,0 -23.57,-2.61 -33.38,-7.83 -9.87,-5.23 -17.92,-11.79 -24.27,-19.76l0 107.17 -37.25 0zm33.87 -192.75c0,28.15 5.71,48.96 17.07,62.44 11.43,13.47 25.26,20.25 41.49,20.25 16.51,0 30.62,-6.99 42.33,-20.96 11.78,-13.97 17.64,-35.56 17.64,-64.84 0,-27.94 -5.72,-48.82 -17.22,-62.72 -11.5,-13.9 -25.18,-20.82 -41.13,-20.82 -15.8,0 -29.77,7.41 -41.91,22.16 -12.21,14.82 -18.27,36.26 -18.27,64.49zm345.08 28.08l36.41 5.08c-4.03,25.04 -14.19,44.59 -30.63,58.77 -16.44,14.18 -36.68,21.24 -60.6,21.24 -29.99,0 -54.12,-9.81 -72.32,-29.42 -18.28,-19.62 -27.38,-47.7 -27.38,-84.25 0,-23.7 3.95,-44.38 11.79,-62.16 7.83,-17.71 19.75,-31.04 35.84,-39.86 16.01,-8.89 33.44,-13.33 52.35,-13.33 23.78,0 43.32,5.99 58.42,18.06 15.17,12.06 24.91,29.21 29.14,51.36l-35.98 5.5c-3.46,-14.74 -9.53,-25.82 -18.35,-33.3 -8.75,-7.41 -19.33,-11.15 -31.75,-11.15 -18.77,0 -34.01,6.71 -45.79,20.11 -11.71,13.48 -17.57,34.65 -17.57,63.71 0,29.5 5.65,50.87 16.94,64.21 11.36,13.33 26.1,20.04 44.23,20.04 14.68,0 26.89,-4.45 36.62,-13.41 9.81,-8.89 16.02,-22.65 18.63,-41.2zm48.69 -139.28l177.8 0 0 30.9 -70.28 0 0 188.81 -37.25 0 0 -188.81 -70.27 0 0 -30.9zm352.14 192.19c-13.83,11.79 -27.17,20.04 -39.94,24.91 -12.77,4.87 -26.45,7.27 -41.13,7.27 -24.13,0 -42.68,-5.86 -55.67,-17.64 -12.98,-11.71 -19.47,-26.74 -19.47,-45.02 0,-10.72 2.47,-20.53 7.34,-29.42 4.94,-8.89 11.36,-15.94 19.26,-21.31 7.97,-5.36 16.86,-9.45 26.81,-12.2 7.34,-1.91 18.41,-3.74 33.16,-5.58 30.06,-3.52 52.28,-7.83 66.46,-12.77 0.14,-5.08 0.22,-8.32 0.22,-9.66 0,-15.1 -3.53,-25.75 -10.59,-31.96 -9.52,-8.4 -23.7,-12.56 -42.47,-12.56 -17.57,0 -30.55,3.1 -38.88,9.24 -8.39,6.14 -14.53,17 -18.55,32.67l-36.41 -5.08c3.32,-15.59 8.75,-28.22 16.37,-37.82 7.62,-9.6 18.63,-16.93 33.02,-22.15 14.32,-5.15 31.04,-7.76 49.95,-7.76 18.77,0 34.08,2.18 45.86,6.63 11.71,4.44 20.39,9.95 25.9,16.65 5.5,6.7 9.38,15.17 11.64,25.4 1.2,6.35 1.83,17.78 1.83,34.22l0 49.39c0,34.5 0.78,56.3 2.33,65.54 1.48,9.24 4.59,18.06 9.1,26.53l-38.94 0c-3.74,-7.83 -6.14,-17 -7.2,-27.52zm-2.96 -82.55c-13.55,5.51 -33.87,10.16 -60.96,13.97 -15.39,2.19 -26.25,4.66 -32.6,7.41 -6.35,2.75 -11.22,6.78 -14.68,12 -3.45,5.29 -5.22,11.14 -5.22,17.64 0,9.8 3.74,18.06 11.29,24.62 7.55,6.56 18.56,9.88 33.02,9.88 14.32,0 27.09,-3.11 38.31,-9.39 11.15,-6.21 19.41,-14.74 24.63,-25.54 4.02,-8.39 5.99,-20.74 5.99,-37.04l0.22 -13.55zm94.89 -109.64l37.25 0 0 91.44 103.3 0 0 -91.44 37.25 0 0 219.71 -37.25 0 0 -97.37 -103.3 0 0 97.37 -37.25 0 0 -219.71zm558.04 219.71l116.27 -303.1 44.1 0 123.4 303.1 -45.65 0 -35.07 -91.86 -127.63 0 -32.88 91.86 -42.54 0zm87.2 -124.46l103.29 0 -31.61 -84.03c-9.52,-25.54 -16.72,-46.64 -21.73,-63.29 -4.16,19.76 -9.73,39.16 -16.72,58.35l-33.23 88.97zm241.93 -95.25l173.14 0 0 219.5 -37.25 0 0 -188.6 -98.63 0 0 109.29c0,25.47 -0.85,42.27 -2.47,50.45 -1.7,8.12 -6.21,15.17 -13.62,21.24 -7.48,6.07 -18.2,9.1 -32.24,9.1 -8.68,0 -18.7,-0.56 -29.99,-1.62l0 -30.98 16.3 0c7.69,0 13.19,-0.77 16.51,-2.4 3.31,-1.55 5.5,-4.09 6.63,-7.54 1.06,-3.46 1.62,-14.68 1.62,-33.66l0 -144.78zm227.96 0l37.26 0 0 85.94 47.13 0c30.76,0 54.39,5.92 71.05,17.85 16.58,11.92 24.9,28.36 24.9,49.32 0,18.34 -6.91,34 -20.81,47.06 -13.83,13.05 -35.99,19.54 -66.46,19.54l-93.07 0 0 -219.71zm37.26 189.23l39.22 0c23.64,0 40.5,-2.89 50.59,-8.68 10.09,-5.78 15.17,-14.81 15.17,-27.09 0,-9.53 -3.74,-17.99 -11.22,-25.47 -7.48,-7.41 -23.98,-11.15 -49.6,-11.15l-44.16 0 0 72.39zm185.41 -189.23l57.29 0 58.07 175.82 64.27 -175.82 53.2 0 0 219.71 -37.25 0 0 -176.88 -64.7 176.88 -33.3 0 -61.17 -185.35 0 185.35 -36.41 0 0 -219.71zm439.63 148.59l38.52 5.08c-6,22.37 -17.21,39.79 -33.58,52.14 -16.37,12.35 -37.26,18.56 -62.73,18.56 -32.03,0 -57.43,-9.88 -76.2,-29.64 -18.76,-19.68 -28.15,-47.41 -28.15,-83.04 0,-36.83 9.46,-65.47 28.44,-85.79 18.98,-20.39 43.6,-30.55 73.87,-30.55 29.28,0 53.2,9.94 71.75,29.91 18.56,19.97 27.87,48.05 27.87,84.24 0,2.19 -0.07,5.51 -0.21,9.88l-163.62 0c1.41,24.06 8.19,42.55 20.46,55.32 12.21,12.77 27.52,19.19 45.79,19.19 13.62,0 25.26,-3.6 34.86,-10.8 9.66,-7.19 17.28,-18.7 22.93,-34.5zm-121.92 -59.69l122.34 0c-1.62,-18.48 -6.35,-32.31 -14.04,-41.56 -11.78,-14.32 -27.16,-21.52 -46,-21.52 -17.07,0 -31.4,5.72 -43.04,17.15 -11.57,11.43 -17.99,26.74 -19.26,45.93zm173.99 -88.9l177.8 0 0 30.9 -70.28 0 0 188.81 -37.25 0 0 -188.81 -70.27 0 0 -30.9zm212.51 0l37.26 0 0 85.94 47.13 0c30.76,0 54.39,5.92 71.05,17.85 16.58,11.92 24.9,28.36 24.9,49.32 0,18.34 -6.91,34 -20.81,47.06 -13.83,13.05 -35.99,19.54 -66.46,19.54l-93.07 0 0 -219.71zm37.26 189.23l39.22 0c23.64,0 40.5,-2.89 50.59,-8.68 10.09,-5.78 15.17,-14.81 15.17,-27.09 0,-9.53 -3.74,-17.99 -11.22,-25.47 -7.48,-7.41 -23.98,-11.15 -49.6,-11.15l-44.16 0 0 72.39zm334 -40.64l38.52 5.08c-6,22.37 -17.21,39.79 -33.58,52.14 -16.37,12.35 -37.26,18.56 -62.73,18.56 -32.03,0 -57.43,-9.88 -76.2,-29.64 -18.76,-19.68 -28.15,-47.41 -28.15,-83.04 0,-36.83 9.46,-65.47 28.44,-85.79 18.98,-20.39 43.6,-30.55 73.87,-30.55 29.28,0 53.2,9.94 71.75,29.91 18.56,19.97 27.87,48.05 27.87,84.24 0,2.19 -0.07,5.51 -0.21,9.88l-163.62 0c1.41,24.06 8.19,42.55 20.46,55.32 12.21,12.77 27.52,19.19 45.79,19.19 13.62,0 25.26,-3.6 34.86,-10.8 9.66,-7.19 17.28,-18.7 22.93,-34.5zm-121.92 -59.69l122.34 0c-1.62,-18.48 -6.35,-32.31 -14.04,-41.56 -11.78,-14.32 -27.16,-21.52 -46,-21.52 -17.07,0 -31.4,5.72 -43.04,17.15 -11.57,11.43 -17.99,26.74 -19.26,45.93zm207.5 -88.9l85.72 0c21.03,0 36.69,1.77 46.99,5.29 10.23,3.53 19.05,9.95 26.39,19.34 7.41,9.45 11.08,20.67 11.08,33.79 0,10.51 -2.19,19.69 -6.49,27.45 -4.38,7.83 -10.87,14.39 -19.62,19.61 10.3,3.46 18.84,9.88 25.69,19.33 6.77,9.39 10.16,20.61 10.16,33.52 -1.35,20.81 -8.82,36.26 -22.3,46.28 -13.48,10.09 -33.09,15.1 -58.77,15.1l-98.85 0 0 -219.71zm37.25 92.71l39.51 0c15.74,0 26.6,-0.85 32.46,-2.47 5.93,-1.69 11.22,-5.01 15.87,-10.09 4.66,-5.01 6.99,-11.07 6.99,-18.13 0,-11.64 -4.09,-19.69 -12.21,-24.27 -8.18,-4.59 -22.15,-6.85 -41.91,-6.85l-40.71 0 0 61.81zm0 96.52l48.9 0c21.02,0 35.49,-2.47 43.32,-7.34 7.83,-4.94 11.92,-13.33 12.35,-25.4 0,-6.98 -2.26,-13.54 -6.78,-19.54 -4.58,-6 -10.51,-9.81 -17.78,-11.36 -7.26,-1.62 -18.98,-2.4 -35.06,-2.4l-44.95 0 0 66.04zm326.46 -49.95l36.41 5.08c-4.03,25.04 -14.19,44.59 -30.63,58.77 -16.44,14.18 -36.68,21.24 -60.6,21.24 -29.99,0 -54.12,-9.81 -72.32,-29.42 -18.28,-19.62 -27.38,-47.7 -27.38,-84.25 0,-23.7 3.95,-44.38 11.79,-62.16 7.83,-17.71 19.75,-31.04 35.84,-39.86 16.01,-8.89 33.44,-13.33 52.35,-13.33 23.78,0 43.32,5.99 58.42,18.06 15.17,12.06 24.91,29.21 29.14,51.36l-35.98 5.5c-3.46,-14.74 -9.53,-25.82 -18.35,-33.3 -8.75,-7.41 -19.33,-11.15 -31.75,-11.15 -18.77,0 -34.01,6.71 -45.79,20.11 -11.71,13.48 -17.57,34.65 -17.57,63.71 0,29.5 5.65,50.87 16.94,64.21 11.36,13.33 26.1,20.04 44.23,20.04 14.68,0 26.89,-4.45 36.62,-13.41 9.81,-8.89 16.02,-22.65 18.63,-41.2zm67.74 -139.28l37.25 0 0 94.83c11.85,0 20.18,-2.26 24.98,-6.85 4.72,-4.51 11.71,-17.71 21.02,-39.65 7.34,-17.35 13.27,-28.78 17.78,-34.29 4.59,-5.5 9.81,-9.24 15.73,-11.15 6,-1.9 15.53,-2.89 28.58,-2.89l7.48 0 0 30.69 -10.37 -0.21c-9.81,0 -16.09,1.48 -18.84,4.38 -2.89,3.03 -7.34,12.06 -13.27,27.09 -5.64,14.39 -10.79,24.34 -15.52,29.84 -4.65,5.51 -11.92,10.52 -21.73,15.1 16.02,4.31 31.82,19.19 47.34,44.73l40.86 68.09 -40.93 0 -40.28 -67.87c-8.12,-13.76 -15.17,-22.79 -21.17,-27.17 -6.07,-4.37 -13.26,-6.56 -21.66,-6.56l0 101.6 -37.25 0 0 -219.71zm-2606.87 224.79l88.05 -313.26 29.99 0 -88.05 313.26 -29.99 0z"/>
   <path class="fil11" d="M3599.9 6362.7c411.49,0 745.06,333.58 745.06,745.07 0,411.49 -333.57,745.07 -745.06,745.07 -411.49,0 -745.06,-333.58 -745.06,-745.07 0,-411.49 333.57,-745.07 745.06,-745.07z"/>
   <path class="fil12" d="M4685.83 6439.27l71.62 0 0 147.67 57.29 0c4.19,-43.71 19.5,-80.34 46.01,-109.8 26.5,-29.55 65.11,-44.29 115.73,-44.29 48.65,0 87.34,15.81 116.15,47.41 28.72,31.53 43.13,76.64 43.13,135.33 0,38.36 -6.26,71.12 -18.77,98.28 -12.59,27.16 -30.29,48.15 -53.17,63.05 -22.89,14.9 -51.37,22.39 -85.45,22.39 -34.73,0 -62.31,-5.43 -82.8,-16.38 -20.5,-10.95 -38.36,-28.64 -53.75,-53.09 -15.31,-24.37 -24.37,-52.11 -27.08,-83.14l-57.29 0 0 146.19 -71.62 0 0 -353.62zm200.52 177.06c0,39.43 7.74,69.8 23.29,91.12 15.56,21.4 37.37,32.1 65.61,32.1 28.97,0 50.7,-10.62 65.19,-31.85 14.49,-21.24 21.73,-53.01 21.73,-95.49 0,-40.66 -8.4,-70.46 -25.11,-89.31 -16.71,-18.85 -38.11,-28.31 -64.28,-28.31 -25.44,0 -46.18,9.54 -62.31,28.64 -16.05,19.18 -24.12,50.21 -24.12,93.1zm500.95 -185.45l45.93 0c-1.48,20.33 -6.83,35.72 -16.05,46.26 -9.22,10.45 -32.1,15.72 -68.48,15.72 -4.28,0 -8.65,-0.08 -13.01,-0.25l-8.72 0c-21.57,0 -39.1,2.39 -52.6,7.16 -13.5,4.69 -24.61,13.91 -33.17,27.58 -8.65,13.74 -13.09,35.8 -13.42,66.18 9.96,-18.77 22.88,-32.76 38.77,-42.07 15.8,-9.3 34.74,-13.91 56.55,-13.91 33.66,0 62.14,13.09 85.52,39.35 23.3,26.18 34.98,56.55 34.98,91.04 0,35.97 -12.26,66.84 -36.79,92.68 -24.61,25.77 -56.63,38.69 -96.22,38.69 -27.25,0 -51.12,-6.5 -71.78,-19.59 -20.58,-13.01 -35.31,-30.87 -44.2,-53.5 -8.81,-22.64 -13.26,-60.09 -13.26,-112.44 0,-61.57 11.36,-105.78 34,-132.69 22.64,-26.92 62.15,-40.34 118.53,-40.34l34.33 0c9.54,0 15.88,-3.29 19.09,-9.87zm-136.31 235.91c0,23.46 5.85,42.06 17.45,55.72 11.61,13.67 25.77,20.5 42.56,20.5 18.11,0 33.01,-7.08 44.61,-21.24 11.61,-14.16 17.37,-32.35 17.37,-54.74 0,-22.8 -5.84,-41.15 -17.62,-55.15 -11.77,-13.99 -26.34,-20.99 -43.62,-20.99 -16.79,0 -31.12,6.92 -42.97,20.66 -11.85,13.75 -17.78,32.19 -17.78,55.24zm246.77 -130.22l65.2 0 0 161.08 104.2 -161.08 66.68 0 0 256.32 -65.19 0 0 -163.39 -105.69 163.39 -65.2 0 0 -256.32zm323.82 0l226.69 0 0 256.32 -67.66 0 0 -201.5 -91.86 0 0 115.32c0,29.3 -3.37,49.88 -10.12,61.73 -6.84,11.86 -14.33,19.59 -22.56,23.3 -8.15,3.7 -21.4,5.59 -39.59,5.59 -10.78,0 -25.11,-1.48 -42.8,-4.28l0 -49.79c1.48,0 5.26,0.16 11.36,0.49 7.07,0.49 12.59,0.74 16.46,0.74 9.22,0 14.81,-3.05 16.96,-9.05 2.05,-6.1 3.12,-22.89 3.12,-50.46l0 -148.41zm437.17 175.32l67.66 11.36c-8.64,24.78 -22.38,43.63 -41.07,56.63 -18.77,12.93 -42.23,19.43 -70.3,19.43 -44.53,0 -77.53,-14.57 -98.85,-43.71 -16.88,-23.37 -25.36,-52.84 -25.36,-88.48 0,-42.48 11.12,-75.82 33.26,-99.85 22.14,-24.12 50.21,-36.14 84.12,-36.14 38.03,0 68.08,12.6 90.14,37.79 21.97,25.18 32.51,63.79 31.52,115.81l-169.4 0c0.5,20.08 5.93,35.72 16.38,46.92 10.37,11.19 23.38,16.79 38.85,16.79 10.62,0 19.51,-2.88 26.67,-8.64 7.25,-5.76 12.68,-15.07 16.38,-27.91zm3.95 -68.65c-0.49,-19.67 -5.51,-34.65 -15.14,-44.86 -9.63,-10.29 -21.32,-15.39 -35.15,-15.39 -14.73,0 -26.92,5.43 -36.55,16.22 -9.63,10.78 -14.32,25.51 -14.15,44.03l100.99 0zm120.59 -106.67l65.2 0 0 161.08 104.2 -161.08 66.68 0 0 256.32 -65.19 0 0 -163.39 -105.69 163.39 -65.2 0 0 -256.32zm161.5 -103.22l33.09 0c-1.89,21.81 -9.63,39.01 -23.05,51.44 -13.41,12.43 -30.78,18.69 -52.1,18.69 -21.4,0 -38.77,-6.26 -52.19,-18.69 -13.41,-12.43 -21.15,-29.63 -23.04,-51.44l33.09 0c1.15,11.35 5.1,20 12.01,25.84 6.92,5.85 16.96,8.73 30.13,8.73 13.09,0 23.13,-2.88 30.04,-8.73 6.92,-5.84 10.87,-14.49 12.02,-25.84zm268.92 277.39l65.69 -7.24c1.56,13.41 5.76,23.37 12.43,29.8 6.67,6.5 15.55,9.71 26.5,9.71 13.91,0 25.68,-6.5 35.4,-19.43 9.71,-12.92 15.88,-39.76 18.6,-80.34 -17.04,19.76 -38.28,29.64 -63.87,29.64 -27.74,0 -51.78,-10.7 -71.95,-32.19 -20.16,-21.48 -30.21,-49.39 -30.21,-83.79 0,-35.89 10.62,-64.78 31.94,-86.68 21.32,-21.98 48.48,-32.92 81.41,-32.92 35.81,0 65.27,13.91 88.24,41.65 22.96,27.82 34.49,73.5 34.49,137.21 0,64.7 -11.94,111.46 -35.81,140.1 -23.87,28.73 -54.98,43.05 -93.34,43.05 -27.58,0 -49.8,-7.41 -66.84,-22.22 -16.96,-14.74 -27.9,-36.88 -32.68,-66.35zm152.61 -148.33c0,-21.81 -5.02,-38.77 -15.06,-50.78 -9.96,-12.02 -21.57,-18.03 -34.74,-18.03 -12.51,0 -22.88,4.94 -31.11,14.82 -8.32,9.87 -12.43,26.01 -12.43,48.4 0,22.8 4.53,39.51 13.5,50.21 8.97,10.61 20.16,15.97 33.66,15.97 13.01,0 23.96,-5.11 32.85,-15.4 8.89,-10.29 13.33,-25.35 13.33,-45.19zm234.43 -125.11c34.24,0 60.99,12.26 80.34,36.79 22.96,28.97 34.49,77.13 34.49,144.3 0,67.08 -11.61,115.32 -34.74,144.62 -19.18,24.2 -45.85,36.3 -80.09,36.3 -34.41,0 -62.15,-13.25 -83.22,-39.76 -21.07,-26.5 -31.61,-73.83 -31.61,-141.82 0,-66.76 11.61,-114.83 34.74,-144.13 19.18,-24.2 45.85,-36.3 80.09,-36.3zm0 56.3c-8.07,0 -15.31,2.63 -21.57,7.9 -6.33,5.19 -11.27,14.57 -14.73,28.15 -4.61,17.53 -6.91,47.17 -6.91,88.74 0,41.65 2.05,70.21 6.17,85.77 4.11,15.55 9.3,25.92 15.56,31.11 6.25,5.19 13.41,7.74 21.48,7.74 8.07,0 15.31,-2.64 21.65,-7.9 6.25,-5.19 11.19,-14.57 14.65,-28.16 4.61,-17.36 6.91,-46.91 6.91,-88.56 0,-41.57 -2.05,-70.14 -6.17,-85.69 -4.11,-15.56 -9.3,-26.01 -15.56,-31.2 -6.25,-5.27 -13.41,-7.9 -21.48,-7.9zm330.16 42.97l226.69 0 0 256.32 -67.66 0 0 -201.5 -91.86 0 0 115.32c0,29.3 -3.37,49.88 -10.12,61.73 -6.84,11.86 -14.33,19.59 -22.56,23.3 -8.15,3.7 -21.4,5.59 -39.59,5.59 -10.78,0 -25.11,-1.48 -42.8,-4.28l0 -49.79c1.48,0 5.26,0.16 11.36,0.49 7.07,0.49 12.59,0.74 16.46,0.74 9.22,0 14.81,-3.05 16.96,-9.05 2.05,-6.1 3.12,-22.89 3.12,-50.46l0 -148.41zm437.17 175.32l67.66 11.36c-8.64,24.78 -22.38,43.63 -41.07,56.63 -18.77,12.93 -42.23,19.43 -70.3,19.43 -44.53,0 -77.53,-14.57 -98.85,-43.71 -16.88,-23.37 -25.36,-52.84 -25.36,-88.48 0,-42.48 11.12,-75.82 33.26,-99.85 22.14,-24.12 50.21,-36.14 84.12,-36.14 38.03,0 68.08,12.6 90.14,37.79 21.97,25.18 32.51,63.79 31.52,115.81l-169.4 0c0.5,20.08 5.93,35.72 16.38,46.92 10.37,11.19 23.38,16.79 38.85,16.79 10.62,0 19.51,-2.88 26.67,-8.64 7.25,-5.76 12.68,-15.07 16.38,-27.91zm3.95 -68.65c-0.49,-19.67 -5.51,-34.65 -15.14,-44.86 -9.63,-10.29 -21.32,-15.39 -35.15,-15.39 -14.73,0 -26.92,5.43 -36.55,16.22 -9.63,10.78 -14.32,25.51 -14.15,44.03l100.99 0zm85.45 -106.67l231.63 0 0 54.82 -81.99 0 0 201.5 -67.66 0 0 -201.5 -81.98 0 0 -54.82z"/>
   <path class="fil13" d="M4705.37 7239.78l67.66 -7c1.98,15.31 7.66,27.49 17.12,36.47 9.55,8.97 20.5,13.41 32.93,13.41 14.16,0 26.17,-5.76 35.97,-17.36 9.8,-11.61 14.73,-29.06 14.73,-52.36 0,-21.89 -4.85,-38.27 -14.65,-49.22 -9.71,-10.95 -22.39,-16.38 -38.03,-16.38 -19.5,0 -37.04,8.56 -52.51,25.68l-54.82 -7.9 34.57 -183.72 179.28 0 0 63.21 -127.84 0 -10.7 60.17c15.07,-7.49 30.54,-11.27 46.35,-11.27 30.12,0 55.64,10.95 76.55,32.92 20.99,21.9 31.44,50.38 31.44,85.44 0,29.23 -8.48,55.24 -25.35,78.2 -23.05,31.28 -54.99,46.92 -95.81,46.92 -32.68,0 -59.35,-8.81 -79.93,-26.34 -20.66,-17.61 -32.93,-41.16 -36.96,-70.87zm388.52 -264.8c34.24,0 60.99,12.26 80.34,36.79 22.96,28.97 34.49,77.13 34.49,144.3 0,67.08 -11.61,115.32 -34.74,144.62 -19.18,24.2 -45.85,36.3 -80.09,36.3 -34.41,0 -62.15,-13.25 -83.22,-39.76 -21.07,-26.5 -31.61,-73.83 -31.61,-141.82 0,-66.76 11.61,-114.83 34.74,-144.13 19.18,-24.2 45.85,-36.3 80.09,-36.3zm0 56.3c-8.07,0 -15.31,2.63 -21.57,7.9 -6.33,5.19 -11.27,14.57 -14.73,28.15 -4.61,17.53 -6.91,47.17 -6.91,88.74 0,41.65 2.05,70.21 6.17,85.77 4.11,15.55 9.3,25.92 15.56,31.11 6.25,5.19 13.41,7.74 21.48,7.74 8.07,0 15.31,-2.64 21.65,-7.9 6.25,-5.19 11.19,-14.57 14.65,-28.16 4.61,-17.36 6.91,-46.91 6.91,-88.56 0,-41.57 -2.05,-70.14 -6.17,-85.69 -4.11,-15.56 -9.3,-26.01 -15.56,-31.2 -6.25,-5.27 -13.41,-7.9 -21.48,-7.9zm174.18 299.29l0 -67.66 67.66 0 0 67.66 -67.66 0zm237.72 -355.59c34.24,0 60.99,12.26 80.34,36.79 22.96,28.97 34.49,77.13 34.49,144.3 0,67.08 -11.61,115.32 -34.74,144.62 -19.18,24.2 -45.85,36.3 -80.09,36.3 -34.41,0 -62.15,-13.25 -83.22,-39.76 -21.07,-26.5 -31.61,-73.83 -31.61,-141.82 0,-66.76 11.61,-114.83 34.74,-144.13 19.18,-24.2 45.85,-36.3 80.09,-36.3zm0 56.3c-8.07,0 -15.31,2.63 -21.57,7.9 -6.33,5.19 -11.27,14.57 -14.73,28.15 -4.61,17.53 -6.91,47.17 -6.91,88.74 0,41.65 2.05,70.21 6.17,85.77 4.11,15.55 9.3,25.92 15.56,31.11 6.25,5.19 13.41,7.74 21.48,7.74 8.07,0 15.31,-2.64 21.65,-7.9 6.25,-5.19 11.19,-14.57 14.65,-28.16 4.61,-17.36 6.91,-46.91 6.91,-88.56 0,-41.57 -2.05,-70.14 -6.17,-85.69 -4.11,-15.56 -9.3,-26.01 -15.56,-31.2 -6.25,-5.27 -13.41,-7.9 -21.48,-7.9zm274.68 -56.3c34.24,0 60.99,12.26 80.34,36.79 22.96,28.97 34.49,77.13 34.49,144.3 0,67.08 -11.61,115.32 -34.74,144.62 -19.18,24.2 -45.85,36.3 -80.09,36.3 -34.41,0 -62.15,-13.25 -83.22,-39.76 -21.07,-26.5 -31.61,-73.83 -31.61,-141.82 0,-66.76 11.61,-114.83 34.74,-144.13 19.18,-24.2 45.85,-36.3 80.09,-36.3zm0 56.3c-8.07,0 -15.31,2.63 -21.57,7.9 -6.33,5.19 -11.27,14.57 -14.73,28.15 -4.61,17.53 -6.91,47.17 -6.91,88.74 0,41.65 2.05,70.21 6.17,85.77 4.11,15.55 9.3,25.92 15.56,31.11 6.25,5.19 13.41,7.74 21.48,7.74 8.07,0 15.31,-2.64 21.65,-7.9 6.25,-5.19 11.19,-14.57 14.65,-28.16 4.61,-17.36 6.91,-46.91 6.91,-88.56 0,-41.57 -2.05,-70.14 -6.17,-85.69 -4.11,-15.56 -9.3,-26.01 -15.56,-31.2 -6.25,-5.27 -13.41,-7.9 -21.48,-7.9zm274.68 -56.3c34.24,0 60.99,12.26 80.34,36.79 22.96,28.97 34.49,77.13 34.49,144.3 0,67.08 -11.61,115.32 -34.74,144.62 -19.18,24.2 -45.85,36.3 -80.09,36.3 -34.41,0 -62.15,-13.25 -83.22,-39.76 -21.07,-26.5 -31.61,-73.83 -31.61,-141.82 0,-66.76 11.61,-114.83 34.74,-144.13 19.18,-24.2 45.85,-36.3 80.09,-36.3zm0 56.3c-8.07,0 -15.31,2.63 -21.57,7.9 -6.33,5.19 -11.27,14.57 -14.73,28.15 -4.61,17.53 -6.91,47.17 -6.91,88.74 0,41.65 2.05,70.21 6.17,85.77 4.11,15.55 9.3,25.92 15.56,31.11 6.25,5.19 13.41,7.74 21.48,7.74 8.07,0 15.31,-2.64 21.65,-7.9 6.25,-5.19 11.19,-14.57 14.65,-28.16 4.61,-17.36 6.91,-46.91 6.91,-88.56 0,-41.57 -2.05,-70.14 -6.17,-85.69 -4.11,-15.56 -9.3,-26.01 -15.56,-31.2 -6.25,-5.27 -13.41,-7.9 -21.48,-7.9z"/>
   <path class="fil14" d="M4725.56 7778.87l0 -267.54 -99.9 0 0 -35.56 240.02 0 0 35.56 -99.9 0 0 267.54 -40.22 0zm301.34 -27.52c-13.83,11.79 -27.17,20.04 -39.94,24.91 -12.77,4.87 -26.45,7.27 -41.13,7.27 -24.13,0 -42.68,-5.86 -55.67,-17.64 -12.98,-11.71 -19.47,-26.74 -19.47,-45.02 0,-10.72 2.47,-20.53 7.34,-29.42 4.94,-8.89 11.36,-15.94 19.26,-21.31 7.97,-5.36 16.86,-9.45 26.81,-12.2 7.34,-1.91 18.41,-3.74 33.16,-5.58 30.06,-3.52 52.28,-7.83 66.46,-12.77 0.14,-5.08 0.22,-8.32 0.22,-9.66 0,-15.1 -3.53,-25.75 -10.59,-31.96 -9.52,-8.4 -23.7,-12.56 -42.47,-12.56 -17.57,0 -30.55,3.1 -38.88,9.24 -8.39,6.14 -14.53,17 -18.55,32.67l-36.41 -5.08c3.32,-15.59 8.75,-28.22 16.37,-37.82 7.62,-9.6 18.63,-16.93 33.02,-22.15 14.32,-5.15 31.04,-7.76 49.95,-7.76 18.77,0 34.08,2.18 45.86,6.63 11.71,4.44 20.39,9.95 25.9,16.65 5.5,6.7 9.38,15.17 11.64,25.4 1.2,6.35 1.83,17.78 1.83,34.22l0 49.39c0,34.5 0.78,56.3 2.33,65.54 1.48,9.24 4.59,18.06 9.1,26.53l-38.94 0c-3.74,-7.83 -6.14,-17 -7.2,-27.52zm-2.96 -82.55c-13.55,5.51 -33.87,10.16 -60.96,13.97 -15.39,2.19 -26.25,4.66 -32.6,7.41 -6.35,2.75 -11.22,6.78 -14.68,12 -3.45,5.29 -5.22,11.14 -5.22,17.64 0,9.8 3.74,18.06 11.29,24.62 7.55,6.56 18.56,9.88 33.02,9.88 14.32,0 27.09,-3.11 38.31,-9.39 11.15,-6.21 19.41,-14.74 24.63,-25.54 4.02,-8.39 5.99,-20.74 5.99,-37.04l0.22 -13.55zm66.11 -109.64l177.8 0 0 30.9 -70.28 0 0 188.81 -37.25 0 0 -188.81 -70.27 0 0 -30.9zm352.14 192.19c-13.83,11.79 -27.17,20.04 -39.94,24.91 -12.77,4.87 -26.45,7.27 -41.13,7.27 -24.13,0 -42.68,-5.86 -55.67,-17.64 -12.98,-11.71 -19.47,-26.74 -19.47,-45.02 0,-10.72 2.47,-20.53 7.34,-29.42 4.94,-8.89 11.36,-15.94 19.26,-21.31 7.97,-5.36 16.86,-9.45 26.81,-12.2 7.34,-1.91 18.41,-3.74 33.16,-5.58 30.06,-3.52 52.28,-7.83 66.46,-12.77 0.14,-5.08 0.22,-8.32 0.22,-9.66 0,-15.1 -3.53,-25.75 -10.59,-31.96 -9.52,-8.4 -23.7,-12.56 -42.47,-12.56 -17.57,0 -30.55,3.1 -38.88,9.24 -8.39,6.14 -14.53,17 -18.55,32.67l-36.41 -5.08c3.32,-15.59 8.75,-28.22 16.37,-37.82 7.62,-9.6 18.63,-16.93 33.02,-22.15 14.32,-5.15 31.04,-7.76 49.95,-7.76 18.77,0 34.08,2.18 45.86,6.63 11.71,4.44 20.39,9.95 25.9,16.65 5.5,6.7 9.38,15.17 11.64,25.4 1.2,6.35 1.83,17.78 1.83,34.22l0 49.39c0,34.5 0.78,56.3 2.33,65.54 1.48,9.24 4.59,18.06 9.1,26.53l-38.94 0c-3.74,-7.83 -6.14,-17 -7.2,-27.52zm-2.96 -82.55c-13.55,5.51 -33.87,10.16 -60.96,13.97 -15.39,2.19 -26.25,4.66 -32.6,7.41 -6.35,2.75 -11.22,6.78 -14.68,12 -3.45,5.29 -5.22,11.14 -5.22,17.64 0,9.8 3.74,18.06 11.29,24.62 7.55,6.56 18.56,9.88 33.02,9.88 14.32,0 27.09,-3.11 38.31,-9.39 11.15,-6.21 19.41,-14.74 24.63,-25.54 4.02,-8.39 5.99,-20.74 5.99,-37.04l0.22 -13.55zm94.89 194.31l0 -303.95 33.87 0 0 28.86c7.97,-11.15 17,-19.55 27.09,-25.12 10.02,-5.57 22.22,-8.39 36.55,-8.39 18.76,0 35.27,4.79 49.6,14.46 14.32,9.59 25.11,23.21 32.45,40.71 7.27,17.57 10.94,36.76 10.94,57.71 0,22.37 -4.02,42.55 -12.07,60.54 -8.04,17.92 -19.75,31.68 -35.13,41.27 -15.31,9.53 -31.47,14.33 -48.4,14.33 -12.42,0 -23.57,-2.61 -33.38,-7.83 -9.87,-5.23 -17.92,-11.79 -24.27,-19.76l0 107.17 -37.25 0zm33.87 -192.75c0,28.15 5.71,48.96 17.07,62.44 11.43,13.47 25.26,20.25 41.49,20.25 16.51,0 30.62,-6.99 42.33,-20.96 11.78,-13.97 17.64,-35.56 17.64,-64.84 0,-27.94 -5.72,-48.82 -17.22,-62.72 -11.5,-13.9 -25.18,-20.82 -41.13,-20.82 -15.8,0 -29.77,7.41 -41.91,22.16 -12.21,14.82 -18.27,36.26 -18.27,64.49zm345.08 28.08l36.41 5.08c-4.03,25.04 -14.19,44.59 -30.63,58.77 -16.44,14.18 -36.68,21.24 -60.6,21.24 -29.99,0 -54.12,-9.81 -72.32,-29.42 -18.28,-19.62 -27.38,-47.7 -27.38,-84.25 0,-23.7 3.95,-44.38 11.79,-62.16 7.83,-17.71 19.75,-31.04 35.84,-39.86 16.01,-8.89 33.44,-13.33 52.35,-13.33 23.78,0 43.32,5.99 58.42,18.06 15.17,12.06 24.91,29.21 29.14,51.36l-35.98 5.5c-3.46,-14.74 -9.53,-25.82 -18.35,-33.3 -8.75,-7.41 -19.33,-11.15 -31.75,-11.15 -18.77,0 -34.01,6.71 -45.79,20.11 -11.71,13.48 -17.57,34.65 -17.57,63.71 0,29.5 5.65,50.87 16.94,64.21 11.36,13.33 26.1,20.04 44.23,20.04 14.68,0 26.89,-4.45 36.62,-13.41 9.81,-8.89 16.02,-22.65 18.63,-41.2zm48.69 -139.28l177.8 0 0 30.9 -70.28 0 0 188.81 -37.25 0 0 -188.81 -70.27 0 0 -30.9zm352.14 192.19c-13.83,11.79 -27.17,20.04 -39.94,24.91 -12.77,4.87 -26.45,7.27 -41.13,7.27 -24.13,0 -42.68,-5.86 -55.67,-17.64 -12.98,-11.71 -19.47,-26.74 -19.47,-45.02 0,-10.72 2.47,-20.53 7.34,-29.42 4.94,-8.89 11.36,-15.94 19.26,-21.31 7.97,-5.36 16.86,-9.45 26.81,-12.2 7.34,-1.91 18.41,-3.74 33.16,-5.58 30.06,-3.52 52.28,-7.83 66.46,-12.77 0.14,-5.08 0.22,-8.32 0.22,-9.66 0,-15.1 -3.53,-25.75 -10.59,-31.96 -9.52,-8.4 -23.7,-12.56 -42.47,-12.56 -17.57,0 -30.55,3.1 -38.88,9.24 -8.39,6.14 -14.53,17 -18.55,32.67l-36.41 -5.08c3.32,-15.59 8.75,-28.22 16.37,-37.82 7.62,-9.6 18.63,-16.93 33.02,-22.15 14.32,-5.15 31.04,-7.76 49.95,-7.76 18.77,0 34.08,2.18 45.86,6.63 11.71,4.44 20.39,9.95 25.9,16.65 5.5,6.7 9.38,15.17 11.64,25.4 1.2,6.35 1.83,17.78 1.83,34.22l0 49.39c0,34.5 0.78,56.3 2.33,65.54 1.48,9.24 4.59,18.06 9.1,26.53l-38.94 0c-3.74,-7.83 -6.14,-17 -7.2,-27.52zm-2.96 -82.55c-13.55,5.51 -33.87,10.16 -60.96,13.97 -15.39,2.19 -26.25,4.66 -32.6,7.41 -6.35,2.75 -11.22,6.78 -14.68,12 -3.45,5.29 -5.22,11.14 -5.22,17.64 0,9.8 3.74,18.06 11.29,24.62 7.55,6.56 18.56,9.88 33.02,9.88 14.32,0 27.09,-3.11 38.31,-9.39 11.15,-6.21 19.41,-14.74 24.63,-25.54 4.02,-8.39 5.99,-20.74 5.99,-37.04l0.22 -13.55zm94.89 -109.64l37.25 0 0 91.44 103.3 0 0 -91.44 37.25 0 0 219.71 -37.25 0 0 -97.37 -103.3 0 0 97.37 -37.25 0 0 -219.71zm592.11 -83.39l40.22 0 0 132.92c18.27,0 31.18,-3.6 38.59,-10.72 7.48,-7.13 16.94,-24.2 28.51,-51.3 8.39,-19.96 15.31,-34 20.81,-42.19 5.43,-8.25 13.19,-15.17 23.28,-20.74 10.02,-5.58 21.17,-8.4 33.31,-8.4 15.45,0 23.56,0.14 24.41,0.43l0 34.71c-1.41,0 -4.09,-0.07 -8.05,-0.21 -4.44,-0.14 -7.12,-0.21 -8.11,-0.21 -12.77,0 -22.29,3.1 -28.5,9.31 -6.35,6.21 -13.55,19.47 -21.73,39.72 -10.16,25.68 -18.77,41.91 -25.83,48.61 -6.98,6.64 -15.45,12 -25.19,16.02 19.55,5.36 38.88,23.49 57.93,54.26l62.44 100.89 -49.81 0 -50.87 -82.13c-13.9,-22.79 -25.54,-38.45 -34.85,-46.92 -9.39,-8.53 -21.45,-12.77 -36.34,-12.77l0 141.82 -40.22 0 0 -303.1zm384.6 275.58c-13.83,11.79 -27.17,20.04 -39.94,24.91 -12.77,4.87 -26.45,7.27 -41.13,7.27 -24.13,0 -42.68,-5.86 -55.67,-17.64 -12.98,-11.71 -19.47,-26.74 -19.47,-45.02 0,-10.72 2.47,-20.53 7.34,-29.42 4.94,-8.89 11.36,-15.94 19.26,-21.31 7.97,-5.36 16.86,-9.45 26.81,-12.2 7.34,-1.91 18.41,-3.74 33.16,-5.58 30.06,-3.52 52.28,-7.83 66.46,-12.77 0.14,-5.08 0.22,-8.32 0.22,-9.66 0,-15.1 -3.53,-25.75 -10.59,-31.96 -9.52,-8.4 -23.7,-12.56 -42.47,-12.56 -17.57,0 -30.55,3.1 -38.88,9.24 -8.39,6.14 -14.53,17 -18.55,32.67l-36.41 -5.08c3.32,-15.59 8.75,-28.22 16.37,-37.82 7.62,-9.6 18.63,-16.93 33.02,-22.15 14.32,-5.15 31.04,-7.76 49.95,-7.76 18.77,0 34.08,2.18 45.86,6.63 11.71,4.44 20.39,9.95 25.9,16.65 5.5,6.7 9.38,15.17 11.64,25.4 1.2,6.35 1.83,17.78 1.83,34.22l0 49.39c0,34.5 0.78,56.3 2.33,65.54 1.48,9.24 4.59,18.06 9.1,26.53l-38.94 0c-3.74,-7.83 -6.14,-17 -7.2,-27.52zm-2.96 -82.55c-13.55,5.51 -33.87,10.16 -60.96,13.97 -15.39,2.19 -26.25,4.66 -32.6,7.41 -6.35,2.75 -11.22,6.78 -14.68,12 -3.45,5.29 -5.22,11.14 -5.22,17.64 0,9.8 3.74,18.06 11.29,24.62 7.55,6.56 18.56,9.88 33.02,9.88 14.32,0 27.09,-3.11 38.31,-9.39 11.15,-6.21 19.41,-14.74 24.63,-25.54 4.02,-8.39 5.99,-20.74 5.99,-37.04l0.22 -13.55zm138.84 10.59l0 -29.21c15.67,-0.14 26.39,-0.78 32.03,-1.84 5.72,-1.13 11.15,-4.37 16.23,-9.87 5.08,-5.51 7.62,-12.35 7.62,-20.61 0,-9.94 -3.31,-17.99 -10.02,-23.91 -6.7,-6 -15.31,-8.97 -25.96,-8.97 -20.96,0 -35.63,12.28 -44.03,36.83l-35.56 -5.92c11.01,-40.92 37.68,-61.38 79.87,-61.38 23.43,0 41.77,6.35 55.1,19.12 13.34,12.77 19.97,28.01 19.97,45.72 0,17.85 -8.68,32.1 -25.96,42.61 11.07,5.93 19.33,13.48 24.9,22.65 5.51,9.17 8.26,20.04 8.26,32.59 0,19.69 -7.2,35.64 -21.52,47.91 -14.39,12.28 -34.43,18.42 -60.25,18.42 -50.1,0 -79.17,-22.16 -87.14,-66.47l35.14 -7.62c3.17,13.97 9.59,24.84 19.33,32.53 9.73,7.69 20.81,11.5 33.37,11.5 12.56,0 23,-3.53 31.33,-10.65 8.32,-7.06 12.49,-16.09 12.49,-27.1 0,-8.53 -2.61,-15.94 -7.84,-22.29 -5.22,-6.35 -10.79,-10.3 -16.72,-11.86 -5.92,-1.62 -16.65,-2.39 -32.17,-2.39 -1.27,0 -4.09,0.07 -8.47,0.21zm288.93 71.96c-13.83,11.79 -27.17,20.04 -39.94,24.91 -12.77,4.87 -26.45,7.27 -41.13,7.27 -24.13,0 -42.68,-5.86 -55.67,-17.64 -12.98,-11.71 -19.47,-26.74 -19.47,-45.02 0,-10.72 2.47,-20.53 7.34,-29.42 4.94,-8.89 11.36,-15.94 19.26,-21.31 7.97,-5.36 16.86,-9.45 26.81,-12.2 7.34,-1.91 18.41,-3.74 33.16,-5.58 30.06,-3.52 52.28,-7.83 66.46,-12.77 0.14,-5.08 0.22,-8.32 0.22,-9.66 0,-15.1 -3.53,-25.75 -10.59,-31.96 -9.52,-8.4 -23.7,-12.56 -42.47,-12.56 -17.57,0 -30.55,3.1 -38.88,9.24 -8.39,6.14 -14.53,17 -18.55,32.67l-36.41 -5.08c3.32,-15.59 8.75,-28.22 16.37,-37.82 7.62,-9.6 18.63,-16.93 33.02,-22.15 14.32,-5.15 31.04,-7.76 49.95,-7.76 18.77,0 34.08,2.18 45.86,6.63 11.71,4.44 20.39,9.95 25.9,16.65 5.5,6.7 9.38,15.17 11.64,25.4 1.2,6.35 1.83,17.78 1.83,34.22l0 49.39c0,34.5 0.78,56.3 2.33,65.54 1.48,9.24 4.59,18.06 9.1,26.53l-38.94 0c-3.74,-7.83 -6.14,-17 -7.2,-27.52zm-2.96 -82.55c-13.55,5.51 -33.87,10.16 -60.96,13.97 -15.39,2.19 -26.25,4.66 -32.6,7.41 -6.35,2.75 -11.22,6.78 -14.68,12 -3.45,5.29 -5.22,11.14 -5.22,17.64 0,9.8 3.74,18.06 11.29,24.62 7.55,6.56 18.56,9.88 33.02,9.88 14.32,0 27.09,-3.11 38.31,-9.39 11.15,-6.21 19.41,-14.74 24.63,-25.54 4.02,-8.39 5.99,-20.74 5.99,-37.04l0.22 -13.55zm94.89 -109.64l37.25 0 0 91.44 103.3 0 0 -91.44 37.25 0 0 219.71 -37.25 0 0 -97.37 -103.3 0 0 97.37 -37.25 0 0 -219.71zm232.9 0l37.26 0 0 85.94 47.13 0c30.76,0 54.39,5.92 71.05,17.85 16.58,11.92 24.9,28.36 24.9,49.32 0,18.34 -6.91,34 -20.81,47.06 -13.83,13.05 -35.99,19.54 -66.46,19.54l-93.07 0 0 -219.71zm37.26 189.23l39.22 0c23.64,0 40.5,-2.89 50.59,-8.68 10.09,-5.78 15.17,-14.81 15.17,-27.09 0,-9.53 -3.74,-17.99 -11.22,-25.47 -7.48,-7.41 -23.98,-11.15 -49.6,-11.15l-44.16 0 0 72.39zm-1440.18 35.56l88.05 -313.26 29.99 0 -88.05 313.26 -29.99 0z"/>
   <path class="fil11" d="M3599.9 8310.03c411.49,0 745.06,333.58 745.06,745.07 0,411.49 -333.57,745.07 -745.06,745.07 -411.49,0 -745.06,-333.58 -745.06,-745.07 0,-411.49 333.57,-745.07 745.06,-745.07z"/>
   <path class="fil12" d="M4686.82 8386.6l71.61 0 0 150.64c15.89,-1.65 26.67,-5.68 32.27,-12.35 5.6,-6.59 14.32,-24.94 26.01,-55.07 14.74,-38.28 29.63,-62.15 44.53,-71.45 14.82,-9.3 38.61,-13.99 71.53,-13.99 1.65,0 5.11,-0.08 10.37,-0.25l0 52.85 -10.12 -0.25c-14.65,0 -25.35,1.81 -32.1,5.43 -6.75,3.63 -12.18,9.14 -16.38,16.55 -4.2,7.41 -10.37,22.63 -18.52,45.68 -4.37,12.27 -9.06,22.47 -14.16,30.71 -5.02,8.23 -13.99,15.96 -26.83,23.21 15.88,4.44 28.97,13.58 39.34,27.24 10.37,13.67 21.73,32.93 34.08,57.87l48.15 96.8 -83.96 0 -42.39 -91.04c-0.66,-1.32 -2.06,-3.78 -4.11,-7.49 -0.83,-1.23 -3.79,-6.83 -8.89,-16.63 -9.06,-17.45 -16.47,-28.31 -22.23,-32.67 -5.84,-4.37 -14.65,-6.59 -26.59,-6.75l0 154.58 -71.61 0 0 -353.62zm284.15 222.33c0,-22.55 5.51,-44.37 16.62,-65.44 11.11,-21.15 26.84,-37.2 47.17,-48.32 20.33,-11.11 42.97,-16.71 68.07,-16.71 38.77,0 70.46,12.6 95.24,37.79 24.77,25.27 37.12,57.04 37.12,95.56 0,38.85 -12.51,71.04 -37.45,96.55 -25.02,25.52 -56.47,38.28 -94.41,38.28 -23.46,0 -45.85,-5.35 -67.17,-15.97 -21.24,-10.62 -37.46,-26.17 -48.57,-46.75 -11.11,-20.5 -16.62,-45.52 -16.62,-74.99zm69.63 3.62c0,25.44 6.01,44.95 18.03,58.44 12.1,13.59 26.92,20.34 44.61,20.34 17.62,0 32.43,-6.75 44.37,-20.34 11.94,-13.49 17.94,-33.17 17.94,-58.93 0,-25.11 -6,-44.45 -17.94,-57.95 -11.94,-13.58 -26.75,-20.33 -44.37,-20.33 -17.69,0 -32.51,6.75 -44.61,20.33 -12.02,13.5 -18.03,33.01 -18.03,58.44zm245.87 -128.65l63.22 0 0 37.61c8.23,-12.84 19.26,-23.21 33.26,-31.19 13.99,-7.91 29.55,-11.86 46.58,-11.86 29.72,0 54.99,11.69 75.73,35.07 20.75,23.29 31.12,55.89 31.12,97.54 0,42.89 -10.46,76.14 -31.36,99.93 -20.91,23.79 -46.26,35.64 -76.06,35.64 -14.16,0 -27,-2.8 -38.52,-8.48 -11.45,-5.6 -23.63,-15.23 -36.3,-28.89l0 128.24 -67.67 0 0 -353.61zm66.68 124.21c0,28.89 5.68,50.21 17.12,64.04 11.36,13.74 25.27,20.66 41.57,20.66 15.72,0 28.81,-6.34 39.26,-19.02 10.45,-12.67 15.64,-33.42 15.64,-62.31 0,-27 -5.35,-47 -16.13,-60.09 -10.7,-13.08 -24.04,-19.59 -39.93,-19.59 -16.54,0 -30.29,6.42 -41.15,19.26 -10.95,12.84 -16.38,31.86 -16.38,57.05zm234.02 -124.21l227.67 0 0 256.32 -67.66 0 0 -201.5 -92.35 0 0 201.5 -67.66 0 0 -256.32zm285.46 125.03c0,-22.55 5.51,-44.37 16.62,-65.44 11.11,-21.15 26.84,-37.2 47.17,-48.32 20.33,-11.11 42.97,-16.71 68.07,-16.71 38.77,0 70.46,12.6 95.24,37.79 24.77,25.27 37.12,57.04 37.12,95.56 0,38.85 -12.51,71.04 -37.45,96.55 -25.02,25.52 -56.47,38.28 -94.41,38.28 -23.46,0 -45.85,-5.35 -67.17,-15.97 -21.24,-10.62 -37.46,-26.17 -48.57,-46.75 -11.11,-20.5 -16.62,-45.52 -16.62,-74.99zm69.63 3.62c0,25.44 6.01,44.95 18.03,58.44 12.1,13.59 26.92,20.34 44.61,20.34 17.62,0 32.43,-6.75 44.37,-20.34 11.94,-13.49 17.94,-33.17 17.94,-58.93 0,-25.11 -6,-44.45 -17.94,-57.95 -11.94,-13.58 -26.75,-20.33 -44.37,-20.33 -17.69,0 -32.51,6.75 -44.61,20.33 -12.02,13.5 -18.03,33.01 -18.03,58.44zm245.87 -128.65l63.22 0 0 37.61c8.23,-12.84 19.26,-23.21 33.26,-31.19 13.99,-7.91 29.55,-11.86 46.58,-11.86 29.72,0 54.99,11.69 75.73,35.07 20.75,23.29 31.12,55.89 31.12,97.54 0,42.89 -10.46,76.14 -31.36,99.93 -20.91,23.79 -46.26,35.64 -76.06,35.64 -14.16,0 -27,-2.8 -38.52,-8.48 -11.45,-5.6 -23.63,-15.23 -36.3,-28.89l0 128.24 -67.67 0 0 -353.61zm66.68 124.21c0,28.89 5.68,50.21 17.12,64.04 11.36,13.74 25.27,20.66 41.57,20.66 15.72,0 28.81,-6.34 39.26,-19.02 10.45,-12.67 15.64,-33.42 15.64,-62.31 0,-27 -5.35,-47 -16.13,-60.09 -10.7,-13.08 -24.04,-19.59 -39.93,-19.59 -16.54,0 -30.29,6.42 -41.15,19.26 -10.95,12.84 -16.38,31.86 -16.38,57.05zm287.36 -45.19l-61.25 -10.87c6.92,-25.02 18.85,-43.54 35.73,-55.56 16.87,-12.02 41.98,-18.03 75.23,-18.03 30.21,0 52.77,3.54 67.58,10.7 14.74,7.17 25.19,16.22 31.2,27.25 6.01,11.03 9.05,31.2 9.05,60.66l-0.98 79.03c0,22.47 1.07,39.09 3.21,49.8 2.14,10.7 6.17,22.14 12.1,34.32l-67.17 0c-1.73,-4.44 -3.95,-11.03 -6.51,-19.76 -1.07,-4.03 -1.89,-6.66 -2.38,-7.9 -11.53,11.36 -23.87,19.84 -37.04,25.52 -13.17,5.68 -27.17,8.56 -42.07,8.56 -26.25,0 -47,-7.16 -62.14,-21.48 -15.15,-14.24 -22.72,-32.35 -22.72,-54.25 0,-14.4 3.46,-27.33 10.37,-38.69 6.92,-11.27 16.55,-20 29.06,-26.01 12.43,-6 30.37,-11.27 53.83,-15.8 31.61,-5.93 53.59,-11.52 65.77,-16.63l0 -6.83c0,-13.17 -3.21,-22.55 -9.63,-28.23 -6.5,-5.6 -18.69,-8.4 -36.55,-8.4 -12.1,0 -21.48,2.39 -28.23,7.24 -6.83,4.78 -12.27,13.26 -16.46,25.36zm90.87 54.82c-8.64,2.88 -22.39,6.34 -41.24,10.37 -18.77,4.03 -31.11,7.98 -36.88,11.77 -8.8,6.34 -13.25,14.24 -13.25,23.87 0,9.55 3.54,17.7 10.62,24.61 7.08,6.92 16.05,10.37 27,10.37 12.18,0 23.87,-4.03 34.98,-12.01 8.15,-6.18 13.58,-13.59 16.14,-22.48 1.72,-5.76 2.63,-16.79 2.63,-33l0 -13.5zm102.81 -133.84l231.63 0 0 54.82 -81.99 0 0 201.5 -67.66 0 0 -201.5 -81.98 0 0 -54.82zm270.48 0l65.2 0 0 161.08 104.2 -161.08 66.68 0 0 256.32 -65.19 0 0 -163.39 -105.69 163.39 -65.2 0 0 -256.32zm306.04 0l148.5 0c30.45,0 53.17,5.51 68.32,16.62 15.14,11.12 22.72,27.91 22.72,50.3 0,14.32 -4.12,26.83 -12.43,37.45 -8.24,10.62 -18.69,17.7 -31.2,21.24 17.61,4.36 30.78,12.43 39.51,24.36 8.64,11.94 13,24.94 13,39.1 0,19.92 -7.32,36.14 -21.97,48.56 -14.65,12.43 -36.3,18.69 -64.95,18.69l-161.5 0 0 -256.32zm67.66 106.67l43.96 0c21.24,0 36.55,-2.63 46.01,-7.98 9.47,-5.35 14.24,-13.75 14.24,-25.19 0,-10.86 -4.44,-18.52 -13.25,-23.13 -8.81,-4.61 -24.45,-6.91 -47,-6.91l-43.96 0 0 63.21zm0 106.19l53.84 0c19.42,0 33.58,-2.31 42.47,-7 8.89,-4.69 13.34,-13 13.34,-25.1 0,-12.6 -5.11,-21.24 -15.31,-25.93 -10.13,-4.78 -29.97,-7.16 -59.43,-7.16l-34.91 0 0 65.19z"/>
   <path class="fil13" d="M4877.73 9277.9l-67.66 0 0 -255.99c-24.69,23.21 -53.83,40.41 -87.41,51.52l0 -61.73c17.69,-5.76 36.87,-16.71 57.53,-32.93 20.75,-16.13 34.9,-34.98 42.64,-56.46l54.9 0 0 355.59zm216.16 -355.59c34.24,0 60.99,12.26 80.34,36.79 22.96,28.97 34.49,77.13 34.49,144.3 0,67.08 -11.61,115.32 -34.74,144.62 -19.18,24.2 -45.85,36.3 -80.09,36.3 -34.41,0 -62.15,-13.25 -83.22,-39.76 -21.07,-26.5 -31.61,-73.83 -31.61,-141.82 0,-66.76 11.61,-114.83 34.74,-144.13 19.18,-24.2 45.85,-36.3 80.09,-36.3zm0 56.3c-8.07,0 -15.31,2.63 -21.57,7.9 -6.33,5.19 -11.27,14.57 -14.73,28.15 -4.61,17.53 -6.91,47.17 -6.91,88.74 0,41.65 2.05,70.21 6.17,85.77 4.11,15.55 9.3,25.92 15.56,31.11 6.25,5.19 13.41,7.74 21.48,7.74 8.07,0 15.31,-2.64 21.65,-7.9 6.25,-5.19 11.19,-14.57 14.65,-28.16 4.61,-17.36 6.91,-46.91 6.91,-88.56 0,-41.57 -2.05,-70.14 -6.17,-85.69 -4.11,-15.56 -9.3,-26.01 -15.56,-31.2 -6.25,-5.27 -13.41,-7.9 -21.48,-7.9zm274.68 -56.3c34.24,0 60.99,12.26 80.34,36.79 22.96,28.97 34.49,77.13 34.49,144.3 0,67.08 -11.61,115.32 -34.74,144.62 -19.18,24.2 -45.85,36.3 -80.09,36.3 -34.41,0 -62.15,-13.25 -83.22,-39.76 -21.07,-26.5 -31.61,-73.83 -31.61,-141.82 0,-66.76 11.61,-114.83 34.74,-144.13 19.18,-24.2 45.85,-36.3 80.09,-36.3zm0 56.3c-8.07,0 -15.31,2.63 -21.57,7.9 -6.33,5.19 -11.27,14.57 -14.73,28.15 -4.61,17.53 -6.91,47.17 -6.91,88.74 0,41.65 2.05,70.21 6.17,85.77 4.11,15.55 9.3,25.92 15.56,31.11 6.25,5.19 13.41,7.74 21.48,7.74 8.07,0 15.31,-2.64 21.65,-7.9 6.25,-5.19 11.19,-14.57 14.65,-28.16 4.61,-17.36 6.91,-46.91 6.91,-88.56 0,-41.57 -2.05,-70.14 -6.17,-85.69 -4.11,-15.56 -9.3,-26.01 -15.56,-31.2 -6.25,-5.27 -13.41,-7.9 -21.48,-7.9zm174.18 299.29l0 -67.66 67.66 0 0 67.66 -67.66 0zm237.72 -355.59c34.24,0 60.99,12.26 80.34,36.79 22.96,28.97 34.49,77.13 34.49,144.3 0,67.08 -11.61,115.32 -34.74,144.62 -19.18,24.2 -45.85,36.3 -80.09,36.3 -34.41,0 -62.15,-13.25 -83.22,-39.76 -21.07,-26.5 -31.61,-73.83 -31.61,-141.82 0,-66.76 11.61,-114.83 34.74,-144.13 19.18,-24.2 45.85,-36.3 80.09,-36.3zm0 56.3c-8.07,0 -15.31,2.63 -21.57,7.9 -6.33,5.19 -11.27,14.57 -14.73,28.15 -4.61,17.53 -6.91,47.17 -6.91,88.74 0,41.65 2.05,70.21 6.17,85.77 4.11,15.55 9.3,25.92 15.56,31.11 6.25,5.19 13.41,7.74 21.48,7.74 8.07,0 15.31,-2.64 21.65,-7.9 6.25,-5.19 11.19,-14.57 14.65,-28.16 4.61,-17.36 6.91,-46.91 6.91,-88.56 0,-41.57 -2.05,-70.14 -6.17,-85.69 -4.11,-15.56 -9.3,-26.01 -15.56,-31.2 -6.25,-5.27 -13.41,-7.9 -21.48,-7.9zm274.68 -56.3c34.24,0 60.99,12.26 80.34,36.79 22.96,28.97 34.49,77.13 34.49,144.3 0,67.08 -11.61,115.32 -34.74,144.62 -19.18,24.2 -45.85,36.3 -80.09,36.3 -34.41,0 -62.15,-13.25 -83.22,-39.76 -21.07,-26.5 -31.61,-73.83 -31.61,-141.82 0,-66.76 11.61,-114.83 34.74,-144.13 19.18,-24.2 45.85,-36.3 80.09,-36.3zm0 56.3c-8.07,0 -15.31,2.63 -21.57,7.9 -6.33,5.19 -11.27,14.57 -14.73,28.15 -4.61,17.53 -6.91,47.17 -6.91,88.74 0,41.65 2.05,70.21 6.17,85.77 4.11,15.55 9.3,25.92 15.56,31.11 6.25,5.19 13.41,7.74 21.48,7.74 8.07,0 15.31,-2.64 21.65,-7.9 6.25,-5.19 11.19,-14.57 14.65,-28.16 4.61,-17.36 6.91,-46.91 6.91,-88.56 0,-41.57 -2.05,-70.14 -6.17,-85.69 -4.11,-15.56 -9.3,-26.01 -15.56,-31.2 -6.25,-5.27 -13.41,-7.9 -21.48,-7.9zm274.68 -56.3c34.24,0 60.99,12.26 80.34,36.79 22.96,28.97 34.49,77.13 34.49,144.3 0,67.08 -11.61,115.32 -34.74,144.62 -19.18,24.2 -45.85,36.3 -80.09,36.3 -34.41,0 -62.15,-13.25 -83.22,-39.76 -21.07,-26.5 -31.61,-73.83 -31.61,-141.82 0,-66.76 11.61,-114.83 34.74,-144.13 19.18,-24.2 45.85,-36.3 80.09,-36.3zm0 56.3c-8.07,0 -15.31,2.63 -21.57,7.9 -6.33,5.19 -11.27,14.57 -14.73,28.15 -4.61,17.53 -6.91,47.17 -6.91,88.74 0,41.65 2.05,70.21 6.17,85.77 4.11,15.55 9.3,25.92 15.56,31.11 6.25,5.19 13.41,7.74 21.48,7.74 8.07,0 15.31,-2.64 21.65,-7.9 6.25,-5.19 11.19,-14.57 14.65,-28.16 4.61,-17.36 6.91,-46.91 6.91,-88.56 0,-41.57 -2.05,-70.14 -6.17,-85.69 -4.11,-15.56 -9.3,-26.01 -15.56,-31.2 -6.25,-5.27 -13.41,-7.9 -21.48,-7.9z"/>
   <path class="fil14" d="M4725.56 9726.2l0 -267.54 -99.9 0 0 -35.56 240.02 0 0 35.56 -99.9 0 0 267.54 -40.22 0zm301.34 -27.52c-13.83,11.79 -27.17,20.04 -39.94,24.91 -12.77,4.87 -26.45,7.27 -41.13,7.27 -24.13,0 -42.68,-5.86 -55.67,-17.64 -12.98,-11.71 -19.47,-26.74 -19.47,-45.02 0,-10.72 2.47,-20.53 7.34,-29.42 4.94,-8.89 11.36,-15.94 19.26,-21.31 7.97,-5.36 16.86,-9.45 26.81,-12.2 7.34,-1.91 18.41,-3.74 33.16,-5.58 30.06,-3.52 52.28,-7.83 66.46,-12.77 0.14,-5.08 0.22,-8.32 0.22,-9.66 0,-15.1 -3.53,-25.75 -10.59,-31.96 -9.52,-8.4 -23.7,-12.56 -42.47,-12.56 -17.57,0 -30.55,3.1 -38.88,9.24 -8.39,6.14 -14.53,17 -18.55,32.67l-36.41 -5.08c3.32,-15.59 8.75,-28.22 16.37,-37.82 7.62,-9.6 18.63,-16.93 33.02,-22.15 14.32,-5.15 31.04,-7.76 49.95,-7.76 18.77,0 34.08,2.18 45.86,6.63 11.71,4.44 20.39,9.95 25.9,16.65 5.5,6.7 9.38,15.17 11.64,25.4 1.2,6.35 1.83,17.78 1.83,34.22l0 49.39c0,34.5 0.78,56.3 2.33,65.54 1.48,9.24 4.59,18.06 9.1,26.53l-38.94 0c-3.74,-7.83 -6.14,-17 -7.2,-27.52zm-2.96 -82.55c-13.55,5.51 -33.87,10.16 -60.96,13.97 -15.39,2.19 -26.25,4.66 -32.6,7.41 -6.35,2.75 -11.22,6.78 -14.68,12 -3.45,5.29 -5.22,11.14 -5.22,17.64 0,9.8 3.74,18.06 11.29,24.62 7.55,6.56 18.56,9.88 33.02,9.88 14.32,0 27.09,-3.11 38.31,-9.39 11.15,-6.21 19.41,-14.74 24.63,-25.54 4.02,-8.39 5.99,-20.74 5.99,-37.04l0.22 -13.55zm66.11 -109.64l177.8 0 0 30.9 -70.28 0 0 188.81 -37.25 0 0 -188.81 -70.27 0 0 -30.9zm352.14 192.19c-13.83,11.79 -27.17,20.04 -39.94,24.91 -12.77,4.87 -26.45,7.27 -41.13,7.27 -24.13,0 -42.68,-5.86 -55.67,-17.64 -12.98,-11.71 -19.47,-26.74 -19.47,-45.02 0,-10.72 2.47,-20.53 7.34,-29.42 4.94,-8.89 11.36,-15.94 19.26,-21.31 7.97,-5.36 16.86,-9.45 26.81,-12.2 7.34,-1.91 18.41,-3.74 33.16,-5.58 30.06,-3.52 52.28,-7.83 66.46,-12.77 0.14,-5.08 0.22,-8.32 0.22,-9.66 0,-15.1 -3.53,-25.75 -10.59,-31.96 -9.52,-8.4 -23.7,-12.56 -42.47,-12.56 -17.57,0 -30.55,3.1 -38.88,9.24 -8.39,6.14 -14.53,17 -18.55,32.67l-36.41 -5.08c3.32,-15.59 8.75,-28.22 16.37,-37.82 7.62,-9.6 18.63,-16.93 33.02,-22.15 14.32,-5.15 31.04,-7.76 49.95,-7.76 18.77,0 34.08,2.18 45.86,6.63 11.71,4.44 20.39,9.95 25.9,16.65 5.5,6.7 9.38,15.17 11.64,25.4 1.2,6.35 1.83,17.78 1.83,34.22l0 49.39c0,34.5 0.78,56.3 2.33,65.54 1.48,9.24 4.59,18.06 9.1,26.53l-38.94 0c-3.74,-7.83 -6.14,-17 -7.2,-27.52zm-2.96 -82.55c-13.55,5.51 -33.87,10.16 -60.96,13.97 -15.39,2.19 -26.25,4.66 -32.6,7.41 -6.35,2.75 -11.22,6.78 -14.68,12 -3.45,5.29 -5.22,11.14 -5.22,17.64 0,9.8 3.74,18.06 11.29,24.62 7.55,6.56 18.56,9.88 33.02,9.88 14.32,0 27.09,-3.11 38.31,-9.39 11.15,-6.21 19.41,-14.74 24.63,-25.54 4.02,-8.39 5.99,-20.74 5.99,-37.04l0.22 -13.55zm94.89 194.31l0 -303.95 33.87 0 0 28.86c7.97,-11.15 17,-19.55 27.09,-25.12 10.02,-5.57 22.22,-8.39 36.55,-8.39 18.76,0 35.27,4.79 49.6,14.46 14.32,9.59 25.11,23.21 32.45,40.71 7.27,17.57 10.94,36.76 10.94,57.71 0,22.37 -4.02,42.55 -12.07,60.54 -8.04,17.92 -19.75,31.68 -35.13,41.27 -15.31,9.53 -31.47,14.33 -48.4,14.33 -12.42,0 -23.57,-2.61 -33.38,-7.83 -9.87,-5.23 -17.92,-11.79 -24.27,-19.76l0 107.17 -37.25 0zm33.87 -192.75c0,28.15 5.71,48.96 17.07,62.44 11.43,13.47 25.26,20.25 41.49,20.25 16.51,0 30.62,-6.99 42.33,-20.96 11.78,-13.97 17.64,-35.56 17.64,-64.84 0,-27.94 -5.72,-48.82 -17.22,-62.72 -11.5,-13.9 -25.18,-20.82 -41.13,-20.82 -15.8,0 -29.77,7.41 -41.91,22.16 -12.21,14.82 -18.27,36.26 -18.27,64.49zm345.08 28.08l36.41 5.08c-4.03,25.04 -14.19,44.59 -30.63,58.77 -16.44,14.18 -36.68,21.24 -60.6,21.24 -29.99,0 -54.12,-9.81 -72.32,-29.42 -18.28,-19.62 -27.38,-47.7 -27.38,-84.25 0,-23.7 3.95,-44.38 11.79,-62.16 7.83,-17.71 19.75,-31.04 35.84,-39.86 16.01,-8.89 33.44,-13.33 52.35,-13.33 23.78,0 43.32,5.99 58.42,18.06 15.17,12.06 24.91,29.21 29.14,51.36l-35.98 5.5c-3.46,-14.74 -9.53,-25.82 -18.35,-33.3 -8.75,-7.41 -19.33,-11.15 -31.75,-11.15 -18.77,0 -34.01,6.71 -45.79,20.11 -11.71,13.48 -17.57,34.65 -17.57,63.71 0,29.5 5.65,50.87 16.94,64.21 11.36,13.33 26.1,20.04 44.23,20.04 14.68,0 26.89,-4.45 36.62,-13.41 9.81,-8.89 16.02,-22.65 18.63,-41.2zm48.69 -139.28l177.8 0 0 30.9 -70.28 0 0 188.81 -37.25 0 0 -188.81 -70.27 0 0 -30.9zm352.14 192.19c-13.83,11.79 -27.17,20.04 -39.94,24.91 -12.77,4.87 -26.45,7.27 -41.13,7.27 -24.13,0 -42.68,-5.86 -55.67,-17.64 -12.98,-11.71 -19.47,-26.74 -19.47,-45.02 0,-10.72 2.47,-20.53 7.34,-29.42 4.94,-8.89 11.36,-15.94 19.26,-21.31 7.97,-5.36 16.86,-9.45 26.81,-12.2 7.34,-1.91 18.41,-3.74 33.16,-5.58 30.06,-3.52 52.28,-7.83 66.46,-12.77 0.14,-5.08 0.22,-8.32 0.22,-9.66 0,-15.1 -3.53,-25.75 -10.59,-31.96 -9.52,-8.4 -23.7,-12.56 -42.47,-12.56 -17.57,0 -30.55,3.1 -38.88,9.24 -8.39,6.14 -14.53,17 -18.55,32.67l-36.41 -5.08c3.32,-15.59 8.75,-28.22 16.37,-37.82 7.62,-9.6 18.63,-16.93 33.02,-22.15 14.32,-5.15 31.04,-7.76 49.95,-7.76 18.77,0 34.08,2.18 45.86,6.63 11.71,4.44 20.39,9.95 25.9,16.65 5.5,6.7 9.38,15.17 11.64,25.4 1.2,6.35 1.83,17.78 1.83,34.22l0 49.39c0,34.5 0.78,56.3 2.33,65.54 1.48,9.24 4.59,18.06 9.1,26.53l-38.94 0c-3.74,-7.83 -6.14,-17 -7.2,-27.52zm-2.96 -82.55c-13.55,5.51 -33.87,10.16 -60.96,13.97 -15.39,2.19 -26.25,4.66 -32.6,7.41 -6.35,2.75 -11.22,6.78 -14.68,12 -3.45,5.29 -5.22,11.14 -5.22,17.64 0,9.8 3.74,18.06 11.29,24.62 7.55,6.56 18.56,9.88 33.02,9.88 14.32,0 27.09,-3.11 38.31,-9.39 11.15,-6.21 19.41,-14.74 24.63,-25.54 4.02,-8.39 5.99,-20.74 5.99,-37.04l0.22 -13.55zm94.89 -109.64l37.25 0 0 91.44 103.3 0 0 -91.44 37.25 0 0 219.71 -37.25 0 0 -97.37 -103.3 0 0 97.37 -37.25 0 0 -219.71zm592.96 -83.39l196.85 0 0 35.56 -156.63 0 0 93.55 72.39 0c26.74,0 47.97,2.54 63.78,7.69 15.8,5.08 28.43,14.68 37.96,28.86 9.52,14.11 14.25,30.55 14.25,49.32 0,15.31 -3.39,29.63 -10.23,42.89 -6.85,13.34 -17.01,24.2 -30.55,32.6 -13.48,8.4 -36.55,12.63 -69.08,12.63l-118.74 0 0 -303.1zm40.22 268.81l80.22 0c21.66,0 37.89,-4.37 48.75,-13.19 10.8,-8.82 16.23,-22.02 16.23,-39.58 0,-12.56 -3.11,-23.01 -9.31,-31.4 -6.21,-8.4 -14.82,-13.97 -25.83,-16.72 -11.08,-2.76 -29.91,-4.1 -56.51,-4.1l-53.55 0 0 104.99zm374.79 6.77c-13.83,11.79 -27.17,20.04 -39.94,24.91 -12.77,4.87 -26.45,7.27 -41.13,7.27 -24.13,0 -42.68,-5.86 -55.67,-17.64 -12.98,-11.71 -19.47,-26.74 -19.47,-45.02 0,-10.72 2.47,-20.53 7.34,-29.42 4.94,-8.89 11.36,-15.94 19.26,-21.31 7.97,-5.36 16.86,-9.45 26.81,-12.2 7.34,-1.91 18.41,-3.74 33.16,-5.58 30.06,-3.52 52.28,-7.83 66.46,-12.77 0.14,-5.08 0.22,-8.32 0.22,-9.66 0,-15.1 -3.53,-25.75 -10.59,-31.96 -9.52,-8.4 -23.7,-12.56 -42.47,-12.56 -17.57,0 -30.55,3.1 -38.88,9.24 -8.39,6.14 -14.53,17 -18.55,32.67l-36.41 -5.08c3.32,-15.59 8.75,-28.22 16.37,-37.82 7.62,-9.6 18.63,-16.93 33.02,-22.15 14.32,-5.15 31.04,-7.76 49.95,-7.76 18.77,0 34.08,2.18 45.86,6.63 11.71,4.44 20.39,9.95 25.9,16.65 5.5,6.7 9.38,15.17 11.64,25.4 1.2,6.35 1.83,17.78 1.83,34.22l0 49.39c0,34.5 0.78,56.3 2.33,65.54 1.48,9.24 4.59,18.06 9.1,26.53l-38.94 0c-3.74,-7.83 -6.14,-17 -7.2,-27.52zm-2.96 -82.55c-13.55,5.51 -33.87,10.16 -60.96,13.97 -15.39,2.19 -26.25,4.66 -32.6,7.41 -6.35,2.75 -11.22,6.78 -14.68,12 -3.45,5.29 -5.22,11.14 -5.22,17.64 0,9.8 3.74,18.06 11.29,24.62 7.55,6.56 18.56,9.88 33.02,9.88 14.32,0 27.09,-3.11 38.31,-9.39 11.15,-6.21 19.41,-14.74 24.63,-25.54 4.02,-8.39 5.99,-20.74 5.99,-37.04l0.22 -13.55zm94.89 -109.64l85.72 0c21.03,0 36.69,1.77 46.99,5.29 10.23,3.53 19.05,9.95 26.39,19.34 7.41,9.45 11.08,20.67 11.08,33.79 0,10.51 -2.19,19.69 -6.49,27.45 -4.38,7.83 -10.87,14.39 -19.62,19.61 10.3,3.46 18.84,9.88 25.69,19.33 6.77,9.39 10.16,20.61 10.16,33.52 -1.35,20.81 -8.82,36.26 -22.3,46.28 -13.48,10.09 -33.09,15.1 -58.77,15.1l-98.85 0 0 -219.71zm37.25 92.71l39.51 0c15.74,0 26.6,-0.85 32.46,-2.47 5.93,-1.69 11.22,-5.01 15.87,-10.09 4.66,-5.01 6.99,-11.07 6.99,-18.13 0,-11.64 -4.09,-19.69 -12.21,-24.27 -8.18,-4.59 -22.15,-6.85 -41.91,-6.85l-40.71 0 0 61.81zm0 96.52l48.9 0c21.02,0 35.49,-2.47 43.32,-7.34 7.83,-4.94 11.92,-13.33 12.35,-25.4 0,-6.98 -2.26,-13.54 -6.78,-19.54 -4.58,-6 -10.51,-9.81 -17.78,-11.36 -7.26,-1.62 -18.98,-2.4 -35.06,-2.4l-44.95 0 0 66.04zm196.14 -189.23l173.14 0 0 219.5 -37.25 0 0 -188.6 -98.63 0 0 109.29c0,25.47 -0.85,42.27 -2.47,50.45 -1.7,8.12 -6.21,15.17 -13.62,21.24 -7.48,6.07 -18.2,9.1 -32.24,9.1 -8.68,0 -18.7,-0.56 -29.99,-1.62l0 -30.98 16.3 0c7.69,0 13.19,-0.77 16.51,-2.4 3.31,-1.55 5.5,-4.09 6.63,-7.54 1.06,-3.46 1.62,-14.68 1.62,-33.66l0 -144.78zm437.93 0l37.26 0 0 219.71 -37.26 0 0 -219.71zm-207.85 0l37.25 0 0 85.94 46.99 0c30.69,0 54.26,5.92 70.84,17.85 16.58,11.92 24.84,28.36 24.84,49.32 0,18.34 -6.92,34 -20.75,47.06 -13.83,13.05 -35.91,19.54 -66.32,19.54l-92.85 0 0 -219.71zm37.25 189.23l39.09 0c23.5,0 40.36,-2.89 50.38,-8.68 10.09,-5.78 15.1,-14.81 15.1,-27.09 0,-9.53 -3.74,-17.99 -11.15,-25.47 -7.48,-7.41 -23.92,-11.15 -49.39,-11.15l-44.03 0 0 72.39zm-1277.19 35.56l88.05 -313.26 29.99 0 -88.05 313.26 -29.99 0z"/>
  </g>
 </g>
</svg>
